<?xml version="1.0" encoding="UTF-8" standalone="no"?>
<!DOCTYPE svg PUBLIC "-//W3C//DTD SVG 1.1//EN" "http://www.w3.org/Graphics/SVG/1.1/DTD/svg11.dtd">
<svg width="3500px" height="2050px" viewBox="0 0 3500 2050" version="1.1" xmlns="http://www.w3.org/2000/svg" xmlns:xlink="http://www.w3.org/1999/xlink">
    <defs>
        <linearGradient id="player__gradient" x1="0%" y1="0%" x2="0%" y2="100%">
            <stop offset="0%" style="stop-color:rgb(219,41,27);stop-opacity:1" />
            <stop offset="100%" style="stop-color:rgb(127,10,31);stop-opacity:1" />
        </linearGradient>
        <linearGradient id="text__gradient" x1="0%" y1="0%" x2="0%" y2="100%">
            <stop offset="0%" style="stop-color:rgb(41,42,42);stop-opacity:1" />
            <stop offset="100%" style="stop-color:rgb(41,40,40);stop-opacity:1" />
        </linearGradient>
    </defs>
    <g id="youth-german-championships" stroke="none" stroke-width="1" fill="none" fill-rule="evenodd">
        <g id="logo">
            <rect id="background" fill-opacity="0" fill="#FFFFFF" x="0" y="0" width="3500" height="2050"></rect>
            <path id="Jugend-Shadow" fill="#000000" fill-rule="nonzero" d="M147.72,1067.95 C221.92,1067.95 256.37,1039.86 269.62,966.19 L342.23,560.21 L243.12,560.21 L170.51,969.9 C166.27,994.81 160.97,1003.29 133.94,1003.29 L110.62,1003.29 L95.78,1063.18 C107.44,1065.83 130.23,1067.95 147.72,1067.95 Z M527.66,963.01 C640.02,963.01 696.73,916.37 716.87,803.48 L759.8,560.21 L662.28,560.21 L621.47,791.82 C609.28,861.25 593.91,887.75 537.2,887.75 C495.86,887.75 478.9,873.44 478.9,837.4 C478.9,824.68 481.02,809.84 484.2,791.82 L525.01,560.21 L426.96,560.21 L387.74,781.75 C384.03,801.89 381.91,818.32 381.91,840.05 C381.91,916.9 429.08,963.01 527.66,963.01 Z M934.1,963.01 C992.93,963.01 1049.11,955.59 1077.73,950.29 L1114.3,741.47 L1022.61,741.47 L996.64,884.57 C983.39,885.63 966.96,886.16 951.06,886.16 C908.13,886.16 883.75,873.97 883.75,831.04 C883.75,818.32 885.34,801.36 889.58,780.16 L898.59,733.52 C916.08,641.3 952.12,628.58 1014.13,628.58 C1057.59,628.58 1098.93,631.76 1132.32,634.94 L1143.98,566.04 C1126.49,561.27 1067.13,551.73 1008.83,551.73 C921.38,551.73 831.28,566.04 802.66,723.98 L794.18,770.62 C790.47,792.35 788.35,810.9 788.35,827.86 C788.35,932.27 853.54,963.01 934.1,963.01 Z M1426.4,954 L1438.59,881.92 L1269.52,881.92 L1287.01,787.05 L1444.95,787.05 L1456.61,718.15 L1298.67,718.15 L1314.57,632.29 L1483.64,632.29 L1495.83,560.21 L1227.65,560.21 L1158.22,954 L1426.4,954 Z M1591.16,954 L1627.2,758.43 C1631.44,737.23 1634.62,714.97 1637.8,694.83 L1638.86,694.83 C1643.63,712.32 1649.99,731.4 1656.35,748.36 L1732.67,954 L1836.02,954 L1905.45,560.21 L1814.82,560.21 L1779.31,750.48 C1778.84745,753.081818 1778.39122,755.696251 1777.94266,758.313666 L1777.49672,760.931718 C1774.02437,781.441987 1771.05164,801.938182 1769.24,817.79 L1768.18,817.79 C1763.41,800.3 1756.52,779.1 1749.63,762.14 L1672.25,560.21 L1571.02,560.21 L1501.06,954 L1591.16,954 Z M2057.49,959.3 C2193.17,959.3 2256.77,912.66 2279.56,786.52 L2286.98,745.71 C2290.69,725.57 2292.28,707.02 2292.28,690.06 C2292.28,600.49 2246.17,554.91 2123.74,554.91 C2074.45,554.91 2042.65,556.5 1991.77,560.21 L1922.34,954 C1972.69,957.71 2006.08,959.3 2057.49,959.3 Z M2030.99,884.04 L2076.57,630.17 C2158.19,630.17 2195.82,630.17 2195.82,685.82 C2195.82,698.01 2193.7,714.44 2189.99,735.64 L2182.57,776.45 C2162.96,883.51 2126.92,884.04 2030.99,884.04 Z"></path>
            <path id="Jugend" fill="url(#text__gradient)" fill-rule="nonzero" d="M134.72,1049.95 C208.92,1049.95 243.37,1021.86 256.62,948.19 L329.23,542.21 L230.12,542.21 L157.51,951.9 C153.27,976.81 147.97,985.29 120.94,985.29 L97.62,985.29 L82.78,1045.18 C94.44,1047.83 117.23,1049.95 134.72,1049.95 Z M514.66,945.01 C627.02,945.01 683.73,898.37 703.87,785.48 L746.8,542.21 L649.28,542.21 L608.47,773.82 C596.28,843.25 580.91,869.75 524.2,869.75 C482.86,869.75 465.9,855.44 465.9,819.4 C465.9,806.68 468.02,791.84 471.2,773.82 L512.01,542.21 L413.96,542.21 L374.74,763.75 C371.03,783.89 368.91,800.32 368.91,822.05 C368.91,898.9 416.08,945.01 514.66,945.01 Z M921.1,945.01 C979.93,945.01 1036.11,937.59 1064.73,932.29 L1101.3,723.47 L1009.61,723.47 L983.64,866.57 C970.39,867.63 953.96,868.16 938.06,868.16 C895.13,868.16 870.75,855.97 870.75,813.04 C870.75,800.32 872.34,783.36 876.58,762.16 L885.59,715.52 C903.08,623.3 939.12,610.58 1001.13,610.58 C1044.59,610.58 1085.93,613.76 1119.32,616.94 L1130.98,548.04 C1113.49,543.27 1054.13,533.73 995.83,533.73 C908.38,533.73 818.28,548.04 789.66,705.98 L781.18,752.62 C777.47,774.35 775.35,792.9 775.35,809.86 C775.35,914.27 840.54,945.01 921.1,945.01 Z M1413.4,936 L1425.59,863.92 L1256.52,863.92 L1274.01,769.05 L1431.95,769.05 L1443.61,700.15 L1285.67,700.15 L1301.57,614.29 L1470.64,614.29 L1482.83,542.21 L1214.65,542.21 L1145.22,936 L1413.4,936 Z M1578.16,936 L1614.2,740.43 C1618.44,719.23 1621.62,696.97 1624.8,676.83 L1625.86,676.83 C1630.63,694.32 1636.99,713.4 1643.35,730.36 L1719.67,936 L1823.02,936 L1892.45,542.21 L1801.82,542.21 L1766.31,732.48 C1765.84745,735.081818 1765.39122,737.696251 1764.94266,740.313666 L1764.49672,742.931718 C1761.02437,763.441987 1758.05164,783.938182 1756.24,799.79 L1755.18,799.79 C1750.41,782.3 1743.52,761.1 1736.63,744.14 L1659.25,542.21 L1558.02,542.21 L1488.06,936 L1578.16,936 Z M2044.49,941.3 C2180.17,941.3 2243.77,894.66 2266.56,768.52 L2273.98,727.71 C2277.69,707.57 2279.28,689.02 2279.28,672.06 C2279.28,582.49 2233.17,536.91 2110.74,536.91 C2061.45,536.91 2029.65,538.5 1978.77,542.21 L1909.34,936 C1959.69,939.71 1993.08,941.3 2044.49,941.3 Z M2017.99,866.04 L2063.57,612.17 C2145.19,612.17 2182.82,612.17 2182.82,667.82 C2182.82,680.01 2180.7,696.44 2176.99,717.64 L2169.57,758.45 C2149.96,865.51 2113.92,866.04 2017.99,866.04 Z"></path>
            <g id="Player" transform="translate(2285.000000, 117.000000)">
                <path id="player-shadow" fill="#000000" d="M271.792437,113.962968 C255.957423,131.586347 255.957423,154.504223 255.957423,154.504223 C255.957423,154.504223 273.547733,182.679178 278.813622,184.456483 C284.098184,186.215079 271.75509,227.972384 277.058325,233.790719 C296.385258,254.912581 296.385258,267.260171 296.385258,270.777364 C296.385258,274.294556 292.893339,269.916774 292.893339,286.642146 C292.893339,302.506929 321.0341,321.888904 312.238945,334.199077 C301.576454,349.20327 245.406972,415.281586 238.367113,432.886257 C216.052442,488.805874 207.182594,566.483441 231.345928,639.072305 C238.367113,660.194168 271.437643,685.937022 275.303029,695.440925 C310.502322,781.780514 331.584551,801.181198 331.584551,822.340477 C331.584551,864.602911 352.162599,923.459758 357.970015,938.632327 C366.76517,961.531494 386.110776,1009.08843 424.783315,1063.73587 C445.006569,1092.24757 454.698045,1120.12319 472.307028,1155.36995 C486.79756,1184.42421 481.08351,1195.87379 481.08351,1195.87379 C481.08351,1195.87379 120.538181,1728.01751 90.6607974,1719.22453 C60.7460669,1710.41284 78.3177033,1683.97777 76.562407,1676.94339 C74.8071107,1669.909 71.445905,1654.69902 51.9322387,1652.26692 C23.8101512,1648.74972 15.0149964,1678.70198 11.4857304,1701.60115 C7.97513782,1724.51903 23.3433171,1770.44832 62.5013632,1779.12905 C111.743026,1800.28833 152.189535,1745.6596 152.189535,1745.6596 C152.189535,1745.6596 506.255206,1274.80483 521.530018,1264.60871 C553.200045,1243.46814 559.586336,1272.72818 574.300947,1275.17899 C578.502454,1275.88992 580.164384,1274.33711 581.75162,1272.7656 C584.179157,1270.42704 586.457308,1268.06978 597.175819,1273.4204 C604.197004,1276.93759 658.275069,1338.86263 686.863991,1387.95365 C699.169738,1409.09422 772.817489,1519.88578 839.873542,1548.30395 C885.604613,1567.70463 901.439626,1581.7734 950.681289,1611.74437 C961.306434,1618.19879 962.987037,1654.02551 973.537488,1696.32536 C982.071216,1730.50574 985.861909,1766.80017 985.861909,1766.80017 C985.861909,1766.80017 1079.07935,1777.37046 1101.93554,1763.28298 C1120.16075,1752.03919 1124.79174,1699.84256 1124.79174,1699.84256 C1124.79174,1699.84256 1158.21707,1706.89565 1165.25693,1696.32536 C1197.46848,1647.88913 1154.70647,1617.02016 1140.62676,1592.3624 C1137.20953,1586.37568 1122.04676,1592.23144 1114.25997,1576.49761 C1106.47317,1560.76379 1090.76887,1546.97565 1086.08186,1527.16338 C1079.07935,1497.1737 1063.24433,1427.63432 1063.24433,1426.7176 C1063.24433,1424.95901 1047.40932,1299.85547 1043.9174,1275.17899 C1040.42548,1250.74573 994.657064,1132.45208 968.271599,1100.72251 C941.886135,1069.01165 955.965852,1076.06475 945.434074,1054.92418 C936.452185,1036.96405 931.765171,1028.80715 929.449674,1025.34609 C929.785794,1023.55007 929.244267,1017.97495 926.051121,1003.83135 C913.745374,949.183904 904.819505,990.548331 906.705515,903.385569 C908.479485,822.340477 876.809458,811.732775 880.320051,778.263322 C882.206061,760.396733 982.332643,697.21823 1003.45222,621.448926 C1016.03807,576.249262 875.054162,448.751039 875.054162,448.751039 C875.054162,448.751039 887.359909,422.315971 889.115206,408.228493 C890.515708,397.02212 740.568588,263.050766 711.494159,251.395389 C676.31354,237.307911 625.297907,232.013414 600.686412,232.013414 C585.654353,232.013414 554.974015,235.418355 556.710638,223.201724 C561.9952,186.215079 556.467884,143.877812 558.465934,129.809042 C560.22123,117.48016 547.915483,68.1459249 530.325173,54.0397385 C512.734863,39.9522605 488.123368,10 414.251537,10 C340.398379,10 308.728352,48.7639499 298.177901,71.6631172 C287.608777,94.580993 287.608777,96.3395892 271.792437,113.962968 Z M552.32532,520.821401 C551.223021,519.943298 550.158087,519.177293 549.111837,518.168409 L549.111837,518.168409 C545.618108,514.712046 542.535406,510.863339 539.826365,506.75307 L539.826365,506.75307 C539.321923,505.931016 538.910896,505.03423 538.425137,504.193494 L538.425137,504.193494 C531.960805,493.432062 528,480.970473 528,467.5 L528,467.5 C528,428.022733 560.022733,396 599.5,396 L599.5,396 C611.756075,396 623.115365,399.362947 633.185524,404.799713 L633.185524,404.799713 C634.306506,405.341521 635.37144,405.939378 636.455056,406.555918 L636.455056,406.555918 C639.257512,408.274758 641.873138,410.217795 644.414032,412.272929 L644.414032,412.272929 C645.329501,413.057617 646.263653,413.674157 647.141756,414.533577 L647.141756,414.533577 C661.658479,427.611706 671,446.388163 671,467.5 L671,467.5 C671,506.977267 638.99595,539 599.5,539 L599.5,539 C581.321401,539 564.936373,531.975176 552.32532,520.821401 L552.32532,520.821401 Z M811.759709,678.95986 L815.297849,668.425094 L810,549 L877,606.950537 L825.874825,693 L811.759709,678.95986 Z M836.022398,1339.18528 C818.43005,1312.78795 722.709726,1150.18492 733.908256,1136.98626 L733.908256,1136.98626 C753.276665,1114.11729 751.537995,1107.09792 756.791396,1096.51286 L756.791396,1096.51286 C762.082187,1085.9838 742.713778,1043.77422 742.713778,1043.77422 L742.713778,1043.77422 L755.034031,1035 L786.741388,1070.15287 L822.150429,1114.90137 C822.150429,1114.90137 846.622676,1149.27017 846.622676,1173.89398 L846.622676,1173.89398 C846.622676,1181.36139 853.801701,1197.77105 851.894772,1205.55583 L851.894772,1205.55583 C836.190657,1208.30011 908.242635,1372.5833 910,1406 L910,1406 C857.166868,1342.67629 853.652138,1365.54526 836.022398,1339.18528 L836.022398,1339.18528 Z"></path>
                <g>
                    <path id="player-gradient" fill="url(#player__gradient)" d="M260.792437,103.962968 C244.957423,121.586347 244.957423,144.504223 244.957423,144.504223 C244.957423,144.504223 262.547733,172.679178 267.813622,174.456483 C273.098184,176.215079 260.75509,217.972384 266.058325,223.790719 C285.385258,244.912581 285.385258,257.260171 285.385258,260.777364 C285.385258,264.294556 281.893339,259.916774 281.893339,276.642146 C281.893339,292.506929 310.0341,311.888904 301.238945,324.199077 C290.576454,339.20327 234.406972,405.281586 227.367113,422.886257 C205.052442,478.805874 196.182594,556.483441 220.345928,629.072305 C227.367113,650.194168 260.437643,675.937022 264.303029,685.440925 C299.502322,771.780514 320.584551,791.181198 320.584551,812.340477 C320.584551,854.602911 341.162599,913.459758 346.970015,928.632327 C355.76517,951.531494 375.110776,999.088425 413.783315,1053.73587 C434.006569,1082.24757 443.698045,1110.12319 461.307028,1145.36995 C475.79756,1174.42421 470.08351,1185.87379 470.08351,1185.87379 C470.08351,1185.87379 109.538181,1718.01751 79.6607974,1709.22453 C49.7460669,1700.41284 67.3177033,1673.97777 65.562407,1666.94339 C63.8071107,1659.909 60.445905,1644.69902 40.9322387,1642.26692 C12.8101512,1638.74972 4.01499637,1668.70198 0.485730416,1691.60115 C-3.02486218,1714.51903 12.3433171,1760.44832 51.5013632,1769.12905 C100.743026,1790.28833 141.189535,1735.6596 141.189535,1735.6596 C141.189535,1735.6596 495.255206,1264.80483 510.530018,1254.60871 C542.200045,1233.46814 548.586336,1262.72818 563.300947,1265.17899 C567.502454,1265.88992 569.164384,1264.33711 570.75162,1262.7656 C573.179157,1260.42704 575.457308,1258.06978 586.175819,1263.4204 C593.197004,1266.93759 647.275069,1328.86263 675.863991,1377.95365 C688.169738,1399.09422 761.817489,1509.88578 828.873542,1538.30395 C874.604613,1557.70463 890.439626,1571.7734 939.681289,1601.74437 C950.306434,1608.19879 951.987037,1644.02551 962.537488,1686.32536 C971.071216,1720.50574 974.861909,1756.80017 974.861909,1756.80017 C974.861909,1756.80017 1068.07935,1767.37046 1090.93554,1753.28298 C1109.16075,1742.03919 1113.79174,1689.84256 1113.79174,1689.84256 C1113.79174,1689.84256 1147.21707,1696.89565 1154.25693,1686.32536 C1186.46848,1637.88913 1143.70647,1607.02016 1129.62676,1582.3624 C1126.20953,1576.37568 1111.04676,1582.23144 1103.25997,1566.49761 C1095.47317,1550.76379 1079.76887,1536.97565 1075.08186,1517.16338 C1068.07935,1487.1737 1052.24433,1417.63432 1052.24433,1416.7176 C1052.24433,1414.95901 1036.40932,1289.85547 1032.9174,1265.17899 C1029.42548,1240.74573 983.657064,1122.45208 957.271599,1090.72251 C930.886135,1059.01165 944.965852,1066.06475 934.434074,1044.92418 C925.452185,1026.96405 920.765171,1018.80715 918.449674,1015.34609 C918.785794,1013.55007 918.244267,1007.97495 915.051121,993.831345 C902.745374,939.183904 893.819505,980.548331 895.705515,893.385569 C897.479485,812.340477 865.809458,801.732775 869.320051,768.263322 C871.206061,750.396733 971.332643,687.21823 992.452219,611.448926 C1005.03807,566.249262 864.054162,438.751039 864.054162,438.751039 C864.054162,438.751039 876.359909,412.315971 878.115206,398.228493 C879.515708,387.02212 729.568588,253.050766 700.494159,241.395389 C665.31354,227.307911 614.297907,222.013414 589.686412,222.013414 C574.654353,222.013414 543.974015,225.418355 545.710638,213.201724 C550.9952,176.215079 545.467884,133.877812 547.465934,119.809042 C549.22123,107.48016 536.915483,58.1459249 519.325173,44.0397385 C501.734863,29.9522605 477.123368,0 403.251537,0 C329.398379,0 297.728352,38.7639499 287.177901,61.6631172 C276.608777,84.580993 276.608777,86.3395892 260.792437,103.962968 Z M800.759709,668.95986 L804.297849,658.425094 L799,539 L866,596.950537 L814.874825,683 L800.759709,668.95986 Z M825.022398,1329.18528 C807.43005,1302.78795 711.709726,1140.18492 722.908256,1126.98626 L722.908256,1126.98626 C742.276665,1104.11729 740.537995,1097.09792 745.791396,1086.51286 L745.791396,1086.51286 C751.082187,1075.9838 731.713778,1033.77422 731.713778,1033.77422 L731.713778,1033.77422 L744.034031,1025 L775.741388,1060.15287 L811.150429,1104.90137 C811.150429,1104.90137 835.622676,1139.27017 835.622676,1163.89398 L835.622676,1163.89398 C835.622676,1171.36139 842.801701,1187.77105 840.894772,1195.55583 L840.894772,1195.55583 C825.190657,1198.30011 897.242635,1362.5833 899,1396 L899,1396 C846.166868,1332.67629 842.652138,1355.54526 825.022398,1329.18528 L825.022398,1329.18528 Z"></path>
                    <path id="player-heart-white" fill="#FFFFFF" d="M541.32532,510.821401 C540.223021,509.943298 539.158087,509.177293 538.111837,508.168409 L538.111837,508.168409 C534.618108,504.712046 531.535406,500.863339 528.826365,496.75307 L528.826365,496.75307 C528.321923,495.931016 527.910896,495.03423 527.425137,494.193494 L527.425137,494.193494 C520.960805,483.432062 517,470.970473 517,457.5 L517,457.5 C517,418.022733 549.022733,386 588.5,386 L588.5,386 C600.756075,386 612.115365,389.362947 622.185524,394.799713 L622.185524,394.799713 C623.306506,395.341521 624.37144,395.939378 625.455056,396.555918 L625.455056,396.555918 C628.257512,398.274758 630.873138,400.217795 633.414032,402.272929 L633.414032,402.272929 C634.329501,403.057617 635.263653,403.674157 636.141756,404.533577 L636.141756,404.533577 C650.658479,417.611706 660,436.388163 660,457.5 L660,457.5 C660,496.977267 627.99595,529 588.5,529 L588.5,529 C570.321401,529 553.936373,521.975176 541.32532,510.821401 L541.32532,510.821401 Z"></path>
                </g>
            </g>
            <path id="DM-Feld-Shadow" fill="#000000" fill-rule="nonzero" d="M180.28,1508.1 C310.84,1508.1 372.04,1463.22 393.97,1341.84 L401.11,1302.57 C404.68,1283.19 406.21,1265.34 406.21,1249.02 C406.21,1162.83 361.84,1118.97 244.03,1118.97 C196.6,1118.97 166,1120.5 117.04,1124.07 L50.23,1503 C98.68,1506.57 130.81,1508.1 180.28,1508.1 Z M154.78,1435.68 L198.64,1191.39 C277.18,1191.39 313.39,1191.39 313.39,1244.94 C313.39,1256.67 311.35,1272.48 307.78,1292.88 L300.64,1332.15 C281.77,1435.17 247.09,1435.68 154.78,1435.68 Z M511.41,1503 L545.58,1315.32 C549.66,1292.88 551.7,1275.54 554.76,1253.61 L555.78,1253.61 C560.37,1269.93 566.49,1287.27 571.59,1302.06 L602.7,1390.29 L657.78,1390.29 L723.06,1302.06 C730.272857,1292.55214 737.485714,1281.99046 744.698571,1271.32339 L747.102857,1267.7651 C750.308571,1263.01898 753.514286,1258.27286 756.72,1253.61 L757.74,1253.61 C752.13,1275.54 748.56,1292.88 744.48,1315.32 L709.8,1503 L802.11,1503 L868.92,1124.07 L774.06,1124.07 L675.12,1258.2 C664.41,1272.48 653.7,1288.8 642.99,1304.61 L641.97,1304.61 C637.38,1288.8 631.77,1272.99 626.67,1258.71 L578.22,1124.07 L486.42,1124.07 L419.1,1503 L511.41,1503 Z M1060.96,1503 L1089.52,1342.86 L1241.5,1342.86 L1252.21,1276.56 L1100.74,1276.56 L1115.53,1194.45 L1278.73,1194.45 L1290.97,1124.07 L1032.4,1124.07 L965.59,1503 L1060.96,1503 Z M1532.34,1503 L1544.07,1433.64 L1381.38,1433.64 L1398.21,1342.35 L1550.19,1342.35 L1561.41,1276.05 L1409.43,1276.05 L1424.73,1193.43 L1587.42,1193.43 L1599.15,1124.07 L1341.09,1124.07 L1274.28,1503 L1532.34,1503 Z M1831.85,1503 L1843.58,1431.09 L1695.17,1431.09 L1750.25,1124.07 L1654.37,1124.07 L1587.56,1503 L1831.85,1503 Z M2005.9,1508.1 C2136.46,1508.1 2197.66,1463.22 2219.59,1341.84 L2226.73,1302.57 C2230.3,1283.19 2231.83,1265.34 2231.83,1249.02 C2231.83,1162.83 2187.46,1118.97 2069.65,1118.97 C2022.22,1118.97 1991.62,1120.5 1942.66,1124.07 L1875.85,1503 C1924.3,1506.57 1956.43,1508.1 2005.9,1508.1 Z M1980.4,1435.68 L2024.26,1191.39 C2102.8,1191.39 2139.01,1191.39 2139.01,1244.94 C2139.01,1256.67 2136.97,1272.48 2133.4,1292.88 L2126.26,1332.15 C2107.39,1435.17 2072.71,1435.68 1980.4,1435.68 Z"></path>
            <path id="DM-Feld" fill="url(#text__gradient)" d="M167.28,1494.1 C297.84,1494.1 359.04,1449.22 380.97,1327.84 L388.11,1288.57 C391.68,1269.19 393.21,1251.34 393.21,1235.02 C393.21,1148.83 348.84,1104.97 231.03,1104.97 C183.6,1104.97 153,1106.5 104.04,1110.07 L37.23,1489 C85.68,1492.57 117.81,1494.1 167.28,1494.1 Z M141.78,1421.68 L185.64,1177.39 C264.18,1177.39 300.39,1177.39 300.39,1230.94 C300.39,1242.67 298.35,1258.48 294.78,1278.88 L287.64,1318.15 C268.77,1421.17 234.09,1421.68 141.78,1421.68 Z M498.41,1489 L532.58,1301.32 C536.66,1278.88 538.7,1261.54 541.76,1239.61 L542.78,1239.61 C547.37,1255.93 553.49,1273.27 558.59,1288.06 L589.7,1376.29 L644.78,1376.29 L710.06,1288.06 C717.272857,1278.55214 724.485714,1267.99046 731.698571,1257.32339 L734.102857,1253.7651 C737.308571,1249.01898 740.514286,1244.27286 743.72,1239.61 L744.74,1239.61 C739.13,1261.54 735.56,1278.88 731.48,1301.32 L696.8,1489 L789.11,1489 L855.92,1110.07 L761.06,1110.07 L662.12,1244.2 C651.41,1258.48 640.7,1274.8 629.99,1290.61 L628.97,1290.61 C624.38,1274.8 618.77,1258.99 613.67,1244.71 L565.22,1110.07 L473.42,1110.07 L406.1,1489 L498.41,1489 Z M1047.96,1489 L1076.52,1328.86 L1228.5,1328.86 L1239.21,1262.56 L1087.74,1262.56 L1102.53,1180.45 L1265.73,1180.45 L1277.97,1110.07 L1019.4,1110.07 L952.59,1489 L1047.96,1489 Z M1519.34,1489 L1531.07,1419.64 L1368.38,1419.64 L1385.21,1328.35 L1537.19,1328.35 L1548.41,1262.05 L1396.43,1262.05 L1411.73,1179.43 L1574.42,1179.43 L1586.15,1110.07 L1328.09,1110.07 L1261.28,1489 L1519.34,1489 Z M1818.85,1489 L1830.58,1417.09 L1682.17,1417.09 L1737.25,1110.07 L1641.37,1110.07 L1574.56,1489 L1818.85,1489 Z M1992.9,1494.1 C2123.46,1494.1 2184.66,1449.22 2206.59,1327.84 L2213.73,1288.57 C2217.3,1269.19 2218.83,1251.34 2218.83,1235.02 C2218.83,1148.83 2174.46,1104.97 2056.65,1104.97 C2009.22,1104.97 1978.62,1106.5 1929.66,1110.07 L1862.85,1489 C1911.3,1492.57 1943.43,1494.1 1992.9,1494.1 Z M1967.4,1421.68 L2011.26,1177.39 C2089.8,1177.39 2126.01,1177.39 2126.01,1230.94 C2126.01,1242.67 2123.97,1258.48 2120.4,1278.88 L2113.26,1318.15 C2094.39,1421.17 2059.71,1421.68 1967.4,1421.68 Z"></path>
            <path id="2021" fill="url(#text__gradient)" fill-rule="nonzero" d="M1511.92,1842 L1516.54,1815.27 L1394.44,1815.27 L1395.1,1810.65 C1402.03,1771.71 1414.57,1758.51 1471.33,1730.46 C1511.26,1710.99 1549.54,1687.89 1549.54,1643.01 C1549.54,1610.01 1524.46,1592.85 1474.3,1592.85 C1448.23,1592.85 1421.5,1597.47 1408.3,1600.44 L1404.01,1623.87 C1422.82,1620.9 1447.9,1618.92 1468.03,1618.92 C1504,1618.92 1518.52,1625.19 1518.52,1644 C1518.52,1679.31 1483.87,1695.48 1458.46,1708.02 C1399.39,1737.39 1374.64,1757.19 1365.4,1810.98 L1360.12,1842 L1511.92,1842 Z M1635.76059,1846.62 C1690.54059,1846.62 1725.52059,1815.6 1737.40059,1747.29 C1747.96059,1687.89 1748.62059,1677 1748.62059,1666.77 C1748.62059,1619.25 1725.19059,1592.85 1676.02059,1592.85 C1623.55059,1592.85 1586.59059,1623.54 1574.38059,1692.18 C1564.86669,1746.5013 1563.34446,1759.43714 1563.17797,1771.33405 L1563.16587,1772.48348 C1563.16059,1772.9941 1563.16059,1773.5052 1563.16059,1774.02 C1563.16059,1819.56 1588.24059,1846.62 1635.76059,1846.62 Z M1638.07059,1820.55 C1609.69059,1820.55 1593.19059,1807.35 1593.19059,1773.69 C1593.19059,1773.4656 1593.19059,1773.24212 1593.19184,1773.01917 L1593.19585,1772.35144 C1593.28404,1761.67958 1594.57659,1751.2632 1604.08059,1696.14 C1614.31059,1638.06 1641.70059,1618.92 1673.71059,1618.92 C1700.11059,1618.92 1718.26059,1631.79 1718.26059,1668.42 C1718.26059,1676.34 1717.60059,1685.58 1707.37059,1743.33 C1697.14059,1801.41 1672.39059,1820.55 1638.07059,1820.55 Z M1908.10118,1842 L1912.72118,1815.27 L1790.62118,1815.27 L1791.28118,1810.65 C1798.21118,1771.71 1810.75118,1758.51 1867.51118,1730.46 C1907.44118,1710.99 1945.72118,1687.89 1945.72118,1643.01 C1945.72118,1610.01 1920.64118,1592.85 1870.48118,1592.85 C1844.41118,1592.85 1817.68118,1597.47 1804.48118,1600.44 L1800.19118,1623.87 C1819.00118,1620.9 1844.08118,1618.92 1864.21118,1618.92 C1900.18118,1618.92 1914.70118,1625.19 1914.70118,1644 C1914.70118,1679.31 1880.05118,1695.48 1854.64118,1708.02 C1795.57118,1737.39 1770.82118,1757.19 1761.58118,1810.98 L1756.30118,1842 L1908.10118,1842 Z M2089.69176,1842 L2093.98176,1817.25 L2037.55176,1815.27 L2076.49176,1594.83 L2054.38176,1594.83 L1984.75176,1617.93 L1980.13176,1644.33 L2040.85176,1625.85 L2007.52176,1815.27 L1950.10176,1817.25 L1945.81176,1842 L2089.69176,1842 Z"></path>            
        </g>
    </g>
</svg>