<?xml version="1.0" encoding="UTF-8" standalone="no"?>
<!DOCTYPE svg PUBLIC "-//W3C//DTD SVG 1.1//EN" "http://www.w3.org/Graphics/SVG/1.1/DTD/svg11.dtd">
<svg xmlns="http://www.w3.org/2000/svg" xmlns:xlink="http://www.w3.org/1999/xlink" version="1.1" id="Ebene_1" x="0px" y="0px" width="570px" height="500px" viewBox="0 0 57 50" style="enable-background:new 0 0 57 50;" xml:space="preserve">
<style type="text/css">
	.st0{fill:#1A1919;}
	.st1{fill:#00A6AC;}
</style>
<path class="st0" d="M0.1,36.9L0.1,36.9c0-2,1.4-3.6,3.5-3.6c1.2,0,2,0.4,2.7,1.1L5.7,35C5.2,34.4,4.5,34,3.6,34  c-1.5,0-2.7,1.2-2.7,2.8v0c0,1.6,1.1,2.8,2.7,2.8c0.9,0,1.6-0.4,2.2-1l0.5,0.5c-0.7,0.7-1.5,1.2-2.7,1.2C1.6,40.4,0.1,38.9,0.1,36.9   M7.2,36.9L7.2,36.9c0-1.9,1.4-3.6,3.5-3.6c2.1,0,3.5,1.6,3.5,3.5v0c0,1.9-1.4,3.6-3.5,3.6C8.6,40.4,7.2,38.8,7.2,36.9 M13.3,36.9  L13.3,36.9c0-1.6-1.1-2.9-2.7-2.9S8,35.3,8,36.8v0c0,1.6,1.1,2.8,2.7,2.8C12.2,39.7,13.3,38.4,13.3,36.9 M15.8,33.4h0.8l2.5,3.8  l2.5-3.8h0.8v6.9h-0.8v-5.6l-2.5,3.7h0l-2.5-3.7v5.6h-0.8L15.8,33.4z M24.3,33.4h2.6c1.5,0,2.6,0.8,2.6,2.2v0c0,1.5-1.2,2.2-2.7,2.2  H25v2.4h-0.8L24.3,33.4z M26.7,37.2c1.1,0,1.9-0.6,1.9-1.5v0c0-1-0.7-1.5-1.8-1.5H25v3L26.7,37.2z M30.7,37.4v-4h0.8v3.9  c0,1.5,0.8,2.3,2.1,2.3c1.3,0,2.1-0.8,2.1-2.3v-4h0.8v3.9c0,2-1.1,3-2.9,3C31.9,40.4,30.7,39.4,30.7,37.4 M40,34.1h-2.3v-0.7h5.4  v0.7h-2.3v6.2H40L40,34.1z M44.6,33.4h5v0.7h-4.2v2.3h3.7v0.7h-3.7v2.4h4.2v0.7h-5V33.4z M51.1,33.4h2.9c0.8,0,1.5,0.3,1.9,0.7  c0.3,0.3,0.5,0.8,0.5,1.4v0c0,1.1-0.8,1.8-1.9,2l2.1,2.8h-1l-2-2.7h-2v2.7h-0.8L51.1,33.4z M54,36.9c1,0,1.8-0.5,1.8-1.4v0  c0-0.8-0.6-1.3-1.8-1.3h-2.1v2.8H54z M14.5,42.9h2.9c0.8,0,1.5,0.3,1.9,0.7c0.3,0.3,0.5,0.8,0.5,1.4v0c0,1.1-0.8,1.8-1.9,2l2.1,2.8  h-1l-2-2.7h-2v2.7h-0.8V42.9z M17.4,46.4c1,0,1.8-0.5,1.8-1.4v0c0-0.8-0.6-1.3-1.8-1.3h-2.1v2.8H17.4z M21.3,46.4L21.3,46.4  c0-1.9,1.4-3.6,3.5-3.6c2.1,0,3.5,1.6,3.5,3.5v0c0,1.9-1.4,3.6-3.5,3.6C22.7,49.9,21.3,48.3,21.3,46.4 M27.5,46.4L27.5,46.4  c0-1.6-1.1-2.9-2.7-2.9s-2.7,1.3-2.7,2.8v0c0,1.6,1.1,2.8,2.7,2.8C26.3,49.2,27.5,47.9,27.5,46.4 M29.6,46.4L29.6,46.4  c0-2,1.4-3.6,3.5-3.6c1.2,0,2,0.4,2.7,1.1l-0.5,0.6c-0.6-0.5-1.2-0.9-2.2-0.9c-1.5,0-2.7,1.2-2.7,2.8v0c0,1.6,1.1,2.8,2.7,2.8  c0.9,0,1.6-0.4,2.2-1l0.5,0.5c-0.7,0.7-1.5,1.2-2.7,1.2C31,49.9,29.6,48.4,29.6,46.4 M37.1,42.9h0.8V47l3.9-4.1h1l-2.9,3l3.1,3.9h-1  l-2.6-3.3L37.9,48v1.8h-0.8L37.1,42.9z"/>
<path class="st1" d="M24.6,16.3v-2.1L19.9,6l-1.7,3l3.5,3.5v17.4H23v-6.8h1v6.8h1.4v-8.1l-2.3-2.3l0.7-0.7l2.6,2.6v8.5h1.5V23h1v6.9  h1.4v-7.6L24.6,16.3z M35.5,27.3v2.6h-1.4v-9.6l-2.5-2.5V3.7h0l2.1-3.6l2.1,3.6l-2.7,2.7V13l5.1,5.1v6.7L35.5,27.3z M35.6,19.5v4.2  h1v-4.6l-2.7-2.7l-0.7,0.7L35.6,19.5z"/>
<path class="st1" d="M30.5,18.2V5.4l-1.4,2.5v7.4h-1V9.7L25.6,14v1.9l6,6v8.1h1.5v-9.1L30.5,18.2z M46.7,26.7v3.2h4.1l-6.7-11.6v5.8  L46.7,26.7z M15.5,13.6L14,16.3v6.9l-2.3,2.3v2.9l-1.5,1.5h2.4l2.9-3V13.6z"/>
<path class="st1" d="M17.6,9.9l-1.1,1.9v15.6L14,29.9h4v-14h1v14h1.5v-17L17.6,9.9z M10.6,25.1l2.3-2.3v-4.6L6.1,29.9h2.6l1.9-1.9  L10.6,25.1z M43.1,24.6v-8.1l-5.2-9l-1.2,1.2v2l4.9,4.9v14.3h4v-2.8L43.1,24.6z"/>
<path class="st1" d="M35.6,11.2V8.3l1.7-1.7l-1.1-1.9l-2.2,2.2v5.7l5.1,5.1v7.5l-2.6,2.6v2.2h1.5v-1.7h1v1.7h1.4V16.1L35.6,11.2z"/>
</svg>