<?xml version="1.0" standalone="no"?>
<!DOCTYPE svg PUBLIC "-//W3C//DTD SVG 20010904//EN" "http://www.w3.org/TR/2001/REC-SVG-20010904/DTD/svg10.dtd">
<svg width="454px" height="337px" viewBox="0 0 454 337" version="1.1" xmlns="http://www.w3.org/2000/svg" xmlns:xlink="http://www.w3.org/1999/xlink">
    <g id="Pool-Partner" stroke="none" stroke-width="1" fill="none" fill-rule="evenodd">
        <g id="Ditting" fill="#1A1919">
            <path d="M317.791597,321.343927 C316.948217,321.451023 316.476804,321.500746 315.947062,321.500746 C313.730561,321.500746 311.621155,320.814185 310.356086,319.656212 C308.353776,317.969452 307.560119,315.231815 307.560119,310.004199 C307.560119,305.158113 308.305009,302.577294 310.148588,300.782483 C311.993122,299.094767 314.681993,298.251388 318.106191,298.251388 C321.901399,298.251388 324.805418,299.302265 326.5419,301.312225 C328.072797,302.998984 328.651306,305.471751 328.651306,309.747934 C328.651306,314.437202 328.179893,316.33146 326.12021,320.607643 L318.428434,336.471214 L310.25664,336.471214 L317.791597,321.343927 Z M314.838811,310.004199 C314.838811,314.545254 315.632468,316.016866 318.106191,316.016866 C320.53784,316.016866 321.38122,314.486925 321.38122,309.954476 C321.38122,305.628569 320.53784,304.098629 318.163563,304.098629 C315.632468,304.098629 314.838811,305.53008 314.838811,310.004199 L314.838811,310.004199 Z" id="9"></path>
            <polyline id="7" points="282.144939 298.830852 282.144939 304.901848 294.006759 304.901848 283.981823 336.472171 291.84763 336.472171 301.491037 303.264811 301.491037 298.830852 282.144939 298.830852"></polyline>
            <path d="M256.513654,308.795546 C256.513654,301.517811 259.573535,298.250431 266.421931,298.250431 C273.228254,298.250431 276.280485,301.517811 276.280485,308.795546 C276.280485,312.749486 275.544201,314.858892 273.649944,316.545651 C276.231718,318.183644 277.231917,320.714739 277.231917,325.610549 C277.231917,333.682898 274.07259,337.057373 266.372208,337.057373 C258.730155,337.057373 255.561266,333.682898 255.561266,325.610549 C255.561266,320.714739 256.562421,318.233367 259.150889,316.545651 C257.248981,314.907659 256.513654,312.749486 256.513654,308.795546 M262.840914,325.45373 C262.840914,329.828404 263.684294,331.201525 266.372208,331.201525 C269.108889,331.201525 269.953225,329.828404 269.953225,325.45373 C269.953225,321.0781 269.108889,319.655255 266.479304,319.655255 C263.684294,319.655255 262.840914,321.028377 262.840914,325.45373 M263.312327,308.953321 C263.312327,313.06408 264.047655,314.32915 266.421931,314.32915 C268.746484,314.32915 269.481812,313.06408 269.481812,308.953321 C269.481812,304.999381 268.746484,303.734312 266.421931,303.734312 C264.047655,303.734312 263.312327,304.949658 263.312327,308.953321" id="8"></path>
            <polyline id="1" points="240.058187 298.830852 229.984485 303.364258 232.514624 309.112053 237.477369 306.68901 237.477369 336.472171 244.90523 336.472171 244.90523 298.830852 240.058187 298.830852"></polyline>
            <polyline id="T" points="193.021122 298.830852 193.021122 304.901848 201.300012 304.901848 201.300012 336.472171 208.726918 336.472171 208.726918 304.901848 216.948435 304.901848 216.948435 298.830852 193.021122 298.830852"></polyline>
            <polygon id="I" points="180.201176 336.475995 187.636687 336.475995 187.636687 298.835634 180.201176 298.835634"></polygon>
            <polyline id="E" points="153.092543 298.830852 153.092543 336.472171 174.183729 336.472171 174.183729 330.417431 160.478331 330.417431 160.478331 320.500548 171.867782 320.500548 171.867782 314.438158 160.478331 314.438158 160.478331 304.901848 173.976231 304.901848 173.976231 298.830852 153.092543 298.830852"></polyline>
            <path d="M129.046659,325.93088 C130.046857,329.677322 131.627477,331.041838 135.000996,331.041838 C138.641298,331.041838 140.278335,329.462174 140.278335,325.980603 C140.278335,324.351217 139.799272,323.134914 138.954936,322.449309 C138.061833,321.663302 138.061833,321.663302 133.529384,320.397277 C126.780434,318.395923 124.19101,315.336042 124.19101,309.323376 C124.19101,302.259832 128.252046,298.305892 135.481015,298.305892 C141.808275,298.305892 145.017325,300.88671 146.448776,307.056195 L140.220006,308.851007 C139.062032,305.261384 138.01211,304.261185 135.481015,304.261185 C132.793101,304.261185 131.312883,305.947945 131.312883,308.90073 C131.312883,311.853515 132.734772,313.226637 137.268177,314.542385 C141.543404,315.757732 142.544559,316.179422 144.124223,317.387119 C146.340724,319.025111 147.390646,321.663302 147.390646,325.616286 C147.390646,333.258339 143.330566,337.054504 135.109048,337.054504 C130.418824,337.054504 127.045305,335.789435 125.035346,333.316668 C124.042797,331.99327 123.34763,330.463329 122.719398,327.775415 L129.046659,325.93088" id="S"></path>
            <path d="M394.323047,186.438553 L417.663246,186.438553 L417.663246,198.597755 C417.663246,208.902861 416.596112,214.055892 413.676794,218.339725 C409.690343,224.170711 403.660465,226.701806 393.645092,226.701806 C384.504653,226.701806 378.178349,224.170711 374.190942,218.91919 C371.081338,214.932739 369.914758,209.589422 369.914758,200.251047 L369.914758,181.964433 C369.914758,171.559881 371.37107,166.117118 375.168191,161.931774 C379.253133,157.358208 384.984672,155.315738 393.645092,155.315738 C408.424317,155.315738 415.430489,162.03122 416.008997,176.811402 L401.617994,177.300027 C400.839637,170.393301 398.896613,168.061098 393.834422,168.061098 C387.416321,168.061098 385.662627,171.270149 385.662627,183.131013 L385.662627,198.985977 C385.662627,210.846841 387.416321,214.055892 393.834422,214.055892 C399.963746,214.055892 402.105663,211.044777 402.105663,202.095582 L402.105663,198.498309 L394.323047,198.498309 L394.323047,186.438553" id="G"></path>
            <polyline id="N" points="299.39693 156.195453 314.863673 156.195453 333.043191 196.846929 333.043191 156.195453 348.021309 156.195453 348.021309 225.629892 332.951395 225.629892 314.375048 184.589237 314.375048 225.629892 299.39693 225.629892 299.39693 156.195453"></polyline>
            <polygon id="I" points="260.395878 225.629892 276.152353 225.629892 276.152353 156.195453 260.395878 156.195453"></polygon>
            <polyline id="T" points="212.153028 169.030698 197.173954 169.030698 197.173954 156.193541 242.788175 156.193541 242.788175 169.030698 227.909503 169.030698 227.909503 225.627979 212.153028 225.627979 212.153028 169.030698"></polyline>
            <polyline id="T" points="154.674119 169.030698 139.695045 169.030698 139.695045 156.193541 185.300659 156.193541 185.300659 169.030698 170.429637 169.030698 170.429637 225.627979 154.674119 225.627979 154.674119 169.030698"></polyline>
            <polygon id="I" points="106.433181 225.629892 122.189656 225.629892 122.189656 156.195453 106.433181 156.195453"></polygon>
            <path d="M38.1528919,156.195453 L59.4506203,156.195453 C77.4398522,155.807231 84.932736,163.102179 84.5445136,180.702232 L84.5445136,201.123113 C84.932736,218.723166 77.5383421,225.927274 59.4506203,225.629892 L38.1528919,225.629892 L38.1528919,156.195453 Z M58.2840406,213.091073 C67.1337903,212.991627 68.6885924,210.949156 68.7880385,199.278579 L68.7880385,182.546766 C68.6885924,170.876189 67.1337903,168.833718 58.2840406,168.741922 L53.9084107,168.741922 L53.9084107,213.091073 L58.2840406,213.091073 L58.2840406,213.091073 Z" id="D"></path>
            <path d="M85.7856778,0 L0,146.072028 L0,261.169454 L453.591987,261.169454 L453.591987,146.069159 L367.491715,0 L85.7856778,0 Z M19.5029169,151.373272 L96.951375,19.5029169 L356.334623,19.5029169 L434.08142,151.372316 L434.08142,241.667493 L19.5029169,241.667493 L19.5029169,151.373272 L19.5029169,151.373272 Z" id="Frame"></path>
        </g>
    </g>
</svg>