<?xml version="1.0" encoding="utf-8"?>
<svg width="171px" height="171px" viewBox="0 0 171 171" version="1.1" xmlns="http://www.w3.org/2000/svg" xmlns:xlink="http://www.w3.org/1999/xlink">
    <g id="Partner" stroke="none" stroke-width="1" fill="none" fill-rule="evenodd">
        <g id="Artboard" transform="translate(0.000000, -2.000000)" fill-rule="nonzero">
            <path d="M85.5,173 C132.733146,173 171,134.733146 171,87.5 C171,40.2668539 132.733146,2 85.5,2 C38.2668539,2 0,40.2668539 0,87.5 C0,134.733146 38.3469101,173 85.5,173 L85.5,173 Z" id="Path" fill="#E30613"></path>
            <path d="M84.5,6 C39.0687135,6 2,42.9883041 2,88.5 C2,133.931287 38.9883041,171 84.5,171 C130.011696,171 167,134.011696 167,88.5 C167,42.9883041 130.011696,6 84.5,6 Z M84.5,167.22076 C40.998538,167.22076 5.77923977,132.001462 5.77923977,88.5 C5.77923977,44.998538 40.998538,9.77923977 84.5,9.77923977 C128.001462,9.77923977 163.220897,44.998538 163.220897,88.5 C163.30117,131.921053 128.001462,167.22076 84.5,167.22076 Z" id="Shape" fill="#FFFFFF"></path>
            <path d="M17,67 L27.3173804,67 C38.8438287,67 49,70.8111588 49,85.5 C49,100.188841 38.8438287,104 27.3173804,104 L17,104 L17,67 Z M24.4962217,98.2038627 L28.6876574,98.2038627 C34.9748111,98.2038627 41.1007557,93.5987124 41.1007557,85.5 C41.1007557,77.4012876 35.0554156,72.7961373 28.6876574,72.7961373 L24.4962217,72.7961373 L24.4962217,98.2038627 Z" id="Shape" fill="#FFFFFF"></path>
            <path d="M54.1576355,76.6363636 L60.3842365,76.6363636 L60.3842365,82.8409091 L60.4630542,82.8409091 C60.7783251,80.2954545 63.6945813,76 67.8719212,76 C68.5812808,76 69.2906404,76 70,76.2386364 L70,83.3977273 C69.3694581,83 68.1083744,82.8409091 66.8472906,82.8409091 C61.0935961,82.8409091 61.0935961,90.0795455 61.0935961,93.9772727 L61.0935961,104 L54,104 L54,76.6363636 L54.1576355,76.6363636 Z" id="Path" fill="#FFFFFF"></path>
            <path d="M95.9135802,102.9 C93.2654321,104.3 90.2962963,105 86.4444444,105 C77.2962963,105 72,99.9444444 72,91.1555556 C72,83.3777778 76.2530864,77 84.8395062,77 C95.1111111,77 98,83.8444444 98,93.1777778 L78.9012346,93.1777778 C79.2222222,97.4555556 82.3518519,99.9444444 86.7654321,99.9444444 C90.2160494,99.9444444 93.2654321,98.7 95.9135802,97.2222222 L95.9135802,102.9 L95.9135802,102.9 Z M91.0987654,88.4333333 C90.8580247,85.0888889 89.2530864,82.1333333 85.2407407,82.1333333 C81.2283951,82.1333333 79.2222222,84.8555556 78.9012346,88.4333333 L91.0987654,88.4333333 Z" id="Shape" fill="#FFFFFF"></path>
            <polygon id="Path" fill="#FFFFFF" points="100 77 107.550562 77 114.314607 96.7005814 114.393258 96.7005814 120.921348 77 128 77 118.011236 104 110.067416 104"></polygon>
            <path d="M153.91358,102.9 C151.265432,104.3 148.296296,105 144.444444,105 C135.296296,105 130,99.9444444 130,91.1555556 C130,83.3777778 134.253086,77 142.839506,77 C153.111111,77 156,83.8444444 156,93.1777778 L136.901235,93.1777778 C137.222222,97.4555556 140.351852,99.9444444 144.765432,99.9444444 C148.216049,99.9444444 151.265432,98.7 153.91358,97.2222222 L153.91358,102.9 L153.91358,102.9 Z M149.098765,88.4333333 C148.858025,85.0888889 147.253086,82.1333333 143.240741,82.1333333 C139.228395,82.1333333 137.222222,84.8555556 136.901235,88.4333333 L149.098765,88.4333333 Z" id="Shape" fill="#FFFFFF"></path>
        </g>
    </g>
</svg>