<?xml version="1.0" encoding="utf-8"?>
<svg version="1.1" id="Ebene_1" xmlns="http://www.w3.org/2000/svg" xmlns:xlink="http://www.w3.org/1999/xlink" x="0px" y="0px"
	 viewBox="0 0 595.3 396.9" width="596" height="397" style="enable-background:new 0 0 595.3 396.9;" xml:space="preserve">
	<style type="text/css">
		.st0{fill:#757474;}
	</style>
	<path id="Vereinigungsmenge_1" class="st0" d="M425.5,307.1v72.7H402V249.2l82.4,86.3v-73.1h23.4v130.8L425.5,307.1z M189.7,349.6
		l-1.1-5.3l23.1-6.5l1,6.6c0.7,8,7.3,14.3,15.3,14.6c8.4,0.3,15.5-6.3,15.9-14.8c0-8-5.6-10.9-15.6-15.5l-6.8-3
		c-12.9-5.9-26.5-13.6-26.5-32.4c0-18.7,15.2-32.8,35.4-32.8c13.6-0.2,26.2,7.3,32.4,19.5l2.6,4.8l-19.1,12.3l-3.1-5.3
		c-2.1-5.4-7.4-8.8-13.1-8.6c-6-0.4-11.3,4.2-11.6,10.2c0,0.1,0,0.2,0,0.3c0,4.9,5.6,7.9,13,11.2l7,3.1c14,6.1,28.8,14.4,28.8,35.1
		c-0.3,21.6-18.1,38.9-39.8,38.6C208.9,381.4,193,367.9,189.7,349.6L189.7,349.6z M368.1,379.8V262.4h23.4v117.4H368.1z M334.1,379.8
		l-37.8-42.3v42.3h-23.4V262.4h23.4v36.9l36.7-36.9h32.4l-55.7,55.2l56.4,62.1H334.1z M507.8,184.4v72.7h-23.4V126.5l82.3,86.3v-73.1
		h23.4v130.8L507.8,184.4z M40.2,198.7l-11.1,58.4H5.1l26.3-137.2L72,213.6l40.7-93.7L139,257.1h-24L104,198.7l-32,71.2L40.2,198.7z
		M417.7,258.8L405.4,246l-8.1-8.4V255c-31.2-11.9-46.9-46.8-35-78s46.8-46.9,78-35s46.9,46.8,35,78c-9,23.6-31.7,39.1-56.9,38.9
		C418.2,258.9,417.9,258.9,417.7,258.8z M381,198.4c0.2,20.7,17.2,37.2,37.9,37c20.7-0.2,37.2-17.2,37-37.9
		c-0.2-20.5-16.9-37-37.4-37C397.7,160.7,380.9,177.6,381,198.4L381,198.4z M134.3,198.6c-0.3-33.6,26.7-61.1,60.4-61.4
		c33.6-0.3,61.1,26.7,61.4,60.4c0.3,33.6-26.7,61.1-60.4,61.4c-0.2,0-0.4,0-0.5,0C161.8,259,134.6,232,134.3,198.6L134.3,198.6z
		M157.7,198.4c0.2,20.7,17.2,37.2,37.9,37c20.7-0.2,37.2-17.2,37-37.9c-0.2-20.5-16.9-37-37.4-37
		C174.4,160.7,157.6,177.6,157.7,198.4L157.7,198.4z M327.4,257.1V139.8h23.4v117.3H327.4z M273,257.1v-94.7h-25.5v-22.6h74.7v22.6
		h-25.8v94.7H273z M117.3,119l-1.3-6.9L163.8,3.6L220,134.8h-25.8l-12.5-30h-37.3l-12.7,30l-7.9,18.2L117.3,119z M154.2,82.2h18.1
		l-8.9-21.5L154.2,82.2z M217.8,104.1l-1.1-5.3l23.1-6.5l1,6.6c0.7,8,7.3,14.3,15.3,14.6c8.4,0.3,15.5-6.3,15.9-14.8
		c0-8-5.6-10.9-15.6-15.5l-6.8-3c-12.9-5.8-26.5-13.6-26.5-32.4c0-18.7,15.2-32.8,35.4-32.8c13.6-0.2,26.2,7.3,32.4,19.5l2.6,4.8
		l-19.1,12.3l-3.1-5.3c-2.1-5.4-7.4-8.8-13.1-8.6c-6-0.4-11.3,4.2-11.6,10.2c0,0.1,0,0.2,0,0.3c0,4.9,5.6,7.9,13,11.2l7,3.1
		c14,6.1,28.8,14.4,28.8,35.1c-0.3,21.6-18.1,38.9-39.8,38.6C237,135.9,221.1,122.5,217.8,104.1L217.8,104.1z M327.6,134.3V84.6
		L288.7,17h27.1l23.5,41.2L362.8,17h27.1L351,84.6v49.7L327.6,134.3z M38.4,134.3V16.9h66.4v22.6h-43v19.7h41.7v22.6H61.8v29.8h43
		v22.6L38.4,134.3z"/>
</svg>
