<?xml version="1.0" encoding="utf-8"?>
<svg width="952px" height="335px" viewBox="0 0 952 335" version="1.1" xmlns="http://www.w3.org/2000/svg" xmlns:xlink="http://www.w3.org/1999/xlink">
    <g id="Institutions" stroke="none" stroke-width="1" fill="none" fill-rule="evenodd">
        <g id="Eventim">
            <rect id="Rectangle" fill="#FFFFFF" x="0" y="0" width="952" height="335"></rect>
            <g id="eventim_white_colour" transform="translate(40.000000, 40.000000)" fill-rule="nonzero">
                <g id="Group" transform="translate(0.000000, 66.100000)" fill="#202867">
                    <path d="M7.1,87.3 C11.8,77 18.5,68.9 27.1,63 C35.8,57.1 45.9,54.1 57.4,54.1 C74.7,54.1 88.3,60.4 98,73.1 C107.7,85.8 112.6,102.3 112.6,122.6 L112.6,131.6 L32.1,131.6 C32.8,140.8 35.8,148.3 41.1,154.2 C46.4,160 53.7,163 63.1,163 C68.1,163 73.1,161.9 78.1,159.7 C83.1,157.5 87.4,154.4 91,150.5 L105.6,169.6 C99.9,175.8 93.1,180.5 85,183.8 C76.9,187.1 68.5,188.7 59.7,188.7 C47.8,188.7 37.4,185.9 28.4,180.3 C19.4,174.7 12.4,166.8 7.4,156.5 C2.4,146.2 7.10542736e-15,134.5 7.10542736e-15,121.2 C7.10542736e-15,108.9 2.4,97.6 7.1,87.3 Z M38.7,88.9 C34.7,94.9 32.6,101.9 32.2,109.9 L81.8,109.9 C81.4,101.9 79.3,95 75.4,88.9 C71.5,82.9 65.3,79.9 56.8,79.9 C48.7,79.9 42.6,82.9 38.7,88.9 Z" id="Shape"></path>
                    <polygon id="Path" points="107.3 57.3 141.3 57.3 167 147.3 193 57.3 227 57.3 184.3 185.5 150.1 185.5"></polygon>
                    <path d="M229.2,87.3 C233.9,77 240.6,68.9 249.2,63 C257.9,57.1 268,54.1 279.5,54.1 C296.8,54.1 310.4,60.4 320.1,73.1 C329.8,85.8 334.7,102.3 334.7,122.6 L334.7,131.6 L254.3,131.6 C255,140.8 258,148.3 263.3,154.2 C268.6,160 275.9,163 285.3,163 C290.3,163 295.3,161.9 300.3,159.7 C305.3,157.5 309.6,154.4 313.2,150.5 L327.8,169.6 C322.1,175.8 315.3,180.5 307.2,183.8 C299.1,187.1 290.7,188.7 281.9,188.7 C270,188.7 259.6,185.9 250.6,180.3 C241.6,174.7 234.6,166.8 229.6,156.5 C224.6,146.2 222.2,134.5 222.2,121.2 C222.2,108.9 224.5,97.6 229.2,87.3 Z M260.8,88.9 C256.8,94.9 254.7,101.9 254.3,109.9 L303.9,109.9 C303.5,101.9 301.4,95 297.5,88.9 C293.6,82.9 287.4,79.9 278.9,79.9 C270.8,79.9 264.8,82.9 260.8,88.9 Z" id="Shape"></path>
                    <path d="M416.2,101.1 C416.2,88.5 410.6,82.3 399.5,82.3 C394.5,82.3 390.1,83.9 386.1,86.9 C382.1,90 378.8,93.8 376.1,98.2 L376.1,185.5 L344.3,185.5 L344.3,57.3 L376.1,57.3 L376.1,74 C379.8,68.5 385.1,63.8 391.9,59.9 C398.7,56 406,54.1 413.8,54.1 C425.3,54.1 433.9,57.2 439.5,63.4 C445.2,69.6 448,78.2 448,89.1 L448,185.4 L416.2,185.4 L416.2,101.1 Z" id="Path"></path>
                    <path d="M478.8,180.2 C473.5,174.5 470.8,166 470.8,154.7 L470.8,85.2 L454.1,85.2 L454.1,57.3 L470.8,57.3 L470.8,22.3 L502.6,22.3 L502.6,57.3 L523.8,57.3 L523.8,85.2 L502.6,85.2 L502.6,147.3 C502.6,151.5 503.4,154.8 505,157.1 C506.6,159.4 508.9,160.6 511.9,160.6 C513.8,160.6 515.7,160.2 517.5,159.5 C519.3,158.8 520.6,157.9 521.5,156.8 L528.1,181.2 C522.6,186.2 514.4,188.6 503.4,188.6 C492.3,188.7 484.1,185.9 478.8,180.2 Z" id="Path"></path>
                    <path d="M537.3,32.9 C533.5,29.2 531.6,24.7 531.6,19.4 C531.6,14.1 533.5,9.5 537.3,5.7 C541.1,1.9 545.6,2.84217094e-14 550.7,2.84217094e-14 C556,2.84217094e-14 560.5,1.9 564.2,5.7 C567.9,9.5 569.8,14.1 569.8,19.4 C569.8,24.7 567.9,29.2 564.2,32.9 C560.5,36.6 556,38.5 550.7,38.5 C545.6,38.5 541.1,36.6 537.3,32.9 Z M534.8,57.3 L566.6,57.3 L566.6,185.5 L534.8,185.5 L534.8,57.3 Z" id="Shape"></path>
                    <path d="M719.5,99.3 C719.5,88 714.6,82.3 704.9,82.3 C700.3,82.3 696.1,83.9 692.2,87.1 C688.3,90.3 685.2,94 682.9,98.2 L682.9,185.5 L651.1,185.5 L651.1,99.3 C651.1,88 646.2,82.3 636.5,82.3 C632.1,82.3 627.9,83.9 623.9,87.1 C619.9,90.3 616.8,94 614.5,98.2 L614.5,185.5 L582.7,185.5 L582.7,57.3 L614.5,57.3 L614.5,74 C617.3,69 622.2,64.5 629,60.3 C635.8,56.1 643,54.1 650.6,54.1 C658.7,54.1 665.5,56 670.9,59.8 C676.3,63.6 679.9,69.1 681.6,76.4 C684.8,70.4 689.9,65.2 697,60.7 C704.1,56.3 711.4,54.1 719,54.1 C729.3,54.1 737.2,56.9 742.9,62.5 C748.6,68.1 751.4,76.6 751.4,88.1 L751.4,185.5 L719.5,185.5 L719.5,99.3 Z" id="Path"></path>
                </g>
                <g id="_x33_5_x2C_11_6_" transform="translate(729.600000, 0.000000)" fill="#FECA27">
                    <path d="M54.2,88.5 L54.2,88.5 C69,103.4 69.5,126.6 69.5,142.7 L73.2,142.7 C73.2,126.6 73.7,103.4 88.5,88.5 L88.5,88.5 C103.4,73.7 126.6,73.2 142.7,73.2 L142.7,69.5 C126.6,69.5 103.4,69 88.5,54.2 L88.5,54.2 C73.7,39.3 73.2,16.1 73.2,0 L69.5,0 C69.5,16.1 69,39.3 54.2,54.2 L54.2,54.2 C39.3,69 16.1,69.5 0,69.5 L0,73.2 C16.1,73.3 39.4,73.7 54.2,88.5 Z" id="Path"></path>
                </g>
            </g>
        </g>
    </g>
</svg>