<?xml version="1.0" encoding="UTF-8" standalone="no"?>
<svg
   xmlns:dc="http://purl.org/dc/elements/1.1/"
   xmlns:cc="http://creativecommons.org/ns#"
   xmlns:rdf="http://www.w3.org/1999/02/22-rdf-syntax-ns#"
   xmlns:svg="http://www.w3.org/2000/svg"
   xmlns="http://www.w3.org/2000/svg"
   xmlns:sodipodi="http://sodipodi.sourceforge.net/DTD/sodipodi-0.dtd"
   xmlns:inkscape="http://www.inkscape.org/namespaces/inkscape"
   version="1.1"
   id="svg2"
   xml:space="preserve"
   width="677.33331"
   height="229.33333"
   viewBox="0 0 677.33331 229.33333"
   sodipodi:docname="GGW Logo Gruppe seit P343c.eps"><metadata
     id="metadata8"><rdf:RDF><cc:Work
         rdf:about=""><dc:format>image/svg+xml</dc:format><dc:type
           rdf:resource="http://purl.org/dc/dcmitype/StillImage" /></cc:Work></rdf:RDF></metadata><defs
     id="defs6" /><sodipodi:namedview
     pagecolor="#ffffff"
     bordercolor="#666666"
     borderopacity="1"
     objecttolerance="10"
     gridtolerance="10"
     guidetolerance="10"
     inkscape:pageopacity="0"
     inkscape:pageshadow="2"
     inkscape:window-width="640"
     inkscape:window-height="480"
     id="namedview4" /><g
     id="g10"
     inkscape:groupmode="layer"
     inkscape:label="ink_ext_XXXXXX"
     transform="matrix(1.3333333,0,0,-1.3333333,0,229.33333)"><g
       id="g12"
       transform="scale(0.1)"><path
         d="m 174.805,587.082 c 0.441,6.191 1.238,12.719 2.386,19.563 1.145,6.855 2.414,12.539 3.793,17.074 -6.097,6.336 -14.55,12.418 -25.367,18.215 -10.816,5.804 -25.191,8.902 -43.137,9.308 C 80.2344,650.902 54.7617,636.027 36.0625,606.609 17.3672,577.207 7.82031,535.34 7.42188,481.008 7.74609,425.207 17.0391,382.918 35.2891,354.145 53.5469,325.359 78.832,310.906 111.137,310.766 c 7.16,0.109 15.062,1.367 23.683,3.789 8.625,2.437 16.934,5.386 24.922,8.859 7.996,3.484 14.629,6.856 19.903,10.117 -0.012,6.461 -0.059,12.942 -0.137,19.453 -0.082,6.516 -0.121,12.875 -0.137,19.09 0.016,25.61 0.125,46.332 0.34,62.192 0.211,15.859 0.461,27.312 0.742,34.371 -1.762,-0.934 -3.613,-1.563 -5.578,-1.903 -1.949,-0.332 -3.937,-0.488 -5.965,-0.464 -2.195,0 -4.445,0.218 -6.738,0.64 -2.301,0.43 -4.348,1.004 -6.141,1.727 0.289,-10.067 0.578,-20.625 0.867,-31.696 0.297,-11.07 0.45,-22.23 0.473,-33.472 -0.004,-9.742 -0.055,-19.399 -0.164,-28.965 -0.109,-9.566 -0.234,-19.098 -0.367,-28.598 -4.836,-5.008 -11.235,-8.789 -19.192,-11.355 -7.957,-2.567 -15.898,-3.86 -23.82,-3.871 -25.4491,0.441 -45.1132,13.836 -58.9999,40.199 -13.8906,26.363 -20.9258,63.078 -21.1015,110.129 0.1484,35.125 3.6484,63.972 10.5039,86.523 6.8554,22.547 16.1875,39.235 28.0039,50.051 11.8164,10.816 25.2304,16.191 40.2496,16.121 13.653,-0.484 25.516,-5.34 35.61,-14.574 10.094,-9.223 17.933,-19.906 23.523,-32.047 h 3.188 v 0"
         style="fill:#004e24;fill-opacity:1;fill-rule:nonzero;stroke:none"
         id="path14" /><path
         d="m 385.906,454.059 c -0.121,-29.282 -2.875,-53.313 -8.269,-72.11 -5.403,-18.789 -12.754,-32.687 -22.063,-41.711 -9.304,-9.015 -19.875,-13.492 -31.715,-13.437 -11.765,-0.055 -22.285,4.422 -31.55,13.437 -9.278,9.024 -16.618,22.922 -22.008,41.711 -5.391,18.797 -8.145,42.828 -8.258,72.11 0.113,29.273 2.867,53.304 8.258,72.101 5.39,18.789 12.73,32.692 22.008,41.715 9.265,9.012 19.785,13.488 31.55,13.422 11.84,0.066 22.411,-4.41 31.715,-13.422 9.309,-9.023 16.66,-22.926 22.063,-41.715 5.394,-18.797 8.148,-42.828 8.269,-72.101 z m -145.785,0 c 0.121,-30.09 3.711,-55.676 10.758,-76.778 7.055,-21.101 16.844,-37.199 29.375,-48.304 12.523,-11.102 27.059,-16.7 43.605,-16.786 16.621,0.086 31.215,5.684 43.766,16.786 12.563,11.105 22.371,27.203 29.43,48.304 7.058,21.102 10.644,46.688 10.765,76.778 -0.121,30.082 -3.707,55.671 -10.765,76.769 -7.059,21.098 -16.867,37.199 -29.43,48.305 -12.551,11.101 -27.145,16.695 -43.766,16.785 -16.546,-0.09 -31.082,-5.684 -43.605,-16.785 -12.531,-11.106 -22.32,-27.207 -29.375,-48.305 -7.047,-21.098 -10.637,-46.687 -10.758,-76.769 v 0"
         style="fill:#004e24;fill-opacity:1;fill-rule:evenodd;stroke:none"
         id="path16" /><path
         d="m 456.625,370.016 c -0.402,-7.297 -0.887,-13.524 -1.457,-18.68 -0.566,-5.164 -1.5,-10.703 -2.801,-16.598 3.797,-5.793 8.606,-10.937 14.426,-15.437 5.816,-4.488 13.328,-6.867 22.512,-7.11 11.539,0.211 21.39,4.325 29.554,12.364 8.161,8.039 14.411,18.765 18.743,32.168 4.332,13.414 6.511,28.277 6.558,44.609 -0.371,21.32 -4.047,36.981 -11.027,46.977 -6.981,9.996 -15.063,17.828 -24.242,23.492 -9.192,5.66 -17.266,12.637 -24.25,20.953 -6.989,8.316 -10.661,21.441 -11.024,39.391 0.153,14.707 2.875,26.515 8.149,35.429 5.277,8.914 12.199,13.492 20.757,13.723 8.266,-0.629 14.415,-5.008 18.454,-13.125 4.039,-8.117 6.773,-16.168 8.199,-24.129 h 2.687 c 0.864,7.41 1.754,13.699 2.68,18.875 0.918,5.176 2.039,9.988 3.352,14.422 -4.407,6.305 -9.282,10.992 -14.629,14.031 -5.336,3.055 -11.508,4.567 -18.504,4.547 -15.059,-0.375 -26.887,-7.34 -35.469,-20.934 -8.582,-13.589 -12.949,-31.562 -13.117,-53.933 0.371,-22.688 4.047,-39.399 11.023,-50.106 6.981,-10.715 15.067,-18.996 24.246,-24.867 9.184,-5.875 17.27,-12.898 24.25,-21.078 6.981,-8.184 10.657,-21.09 11.028,-38.727 -0.094,-16.281 -2.938,-29.816 -8.547,-40.64 -5.606,-10.817 -13.438,-16.434 -23.5,-16.844 -9.59,0.555 -17.281,5.098 -23.071,13.625 -5.789,8.527 -9.894,17.727 -12.32,27.602 h -2.66 v 0"
         style="fill:#004e24;fill-opacity:1;fill-rule:nonzero;stroke:none"
         id="path18" /><path
         d="m 593.73,370.016 c -0.402,-7.297 -0.886,-13.524 -1.453,-18.68 -0.57,-5.164 -1.5,-10.703 -2.8,-16.598 3.796,-5.793 8.605,-10.937 14.421,-15.437 5.825,-4.488 13.325,-6.867 22.512,-7.11 11.543,0.211 21.391,4.325 29.555,12.364 8.168,8.039 14.414,18.765 18.746,32.168 4.332,13.414 6.516,28.277 6.555,44.609 -0.371,21.32 -4.039,36.981 -11.02,46.977 -6.98,9.996 -15.066,17.828 -24.25,23.492 -9.187,5.66 -17.269,12.637 -24.25,20.953 -6.98,8.316 -10.656,21.441 -11.019,39.391 0.152,14.707 2.867,26.515 8.144,35.429 5.281,8.914 12.203,13.492 20.758,13.723 8.266,-0.629 14.418,-5.008 18.457,-13.125 4.035,-8.117 6.769,-16.168 8.199,-24.129 h 2.68 c 0.871,7.41 1.762,13.699 2.683,18.875 0.926,5.176 2.043,9.988 3.356,14.422 -4.414,6.305 -9.285,10.992 -14.625,14.031 -5.348,3.055 -11.516,4.567 -18.512,4.547 -15.066,-0.375 -26.879,-7.34 -35.465,-20.934 -8.582,-13.589 -12.957,-31.562 -13.113,-53.933 0.363,-22.688 4.039,-39.399 11.012,-50.106 6.988,-10.715 15.066,-18.996 24.258,-24.867 9.183,-5.875 17.261,-12.898 24.246,-21.078 6.976,-8.184 10.652,-21.09 11.019,-38.727 -0.09,-16.281 -2.941,-29.816 -8.543,-40.64 -5.605,-10.817 -13.437,-16.434 -23.5,-16.844 -9.593,0.555 -17.277,5.098 -23.066,13.625 -5.789,8.527 -9.895,17.727 -12.32,27.602 h -2.665 v 0"
         style="fill:#004e24;fill-opacity:1;fill-rule:nonzero;stroke:none"
         id="path20" /><path
         d="m 741.398,419.945 c -0.019,-17.066 -0.21,-34.172 -0.562,-51.324 -0.356,-17.152 -0.762,-34.246 -1.231,-51.277 6.93,0.597 13.821,1.074 20.696,1.406 6.875,0.34 13.773,0.52 20.703,0.531 6.84,-0.011 13.707,-0.191 20.601,-0.531 6.899,-0.332 13.766,-0.809 20.606,-1.406 -0.699,3.949 -1.066,7.906 -1.09,11.855 0.024,3.957 0.391,7.906 1.09,11.879 -11.059,-2.469 -21.527,-3.973 -31.406,-4.515 -9.883,-0.543 -20.02,-0.75 -30.403,-0.641 -0.125,19.176 -0.265,41.07 -0.418,65.687 -0.156,24.625 -0.238,53.457 -0.257,86.512 0.023,17.051 0.211,34.16 0.562,51.32 0.359,17.153 0.77,34.262 1.234,51.325 -1.898,-0.598 -3.75,-1.075 -5.562,-1.418 -1.816,-0.328 -3.613,-0.508 -5.395,-0.52 -1.785,0.012 -3.586,0.192 -5.398,0.52 -1.813,0.343 -3.664,0.82 -5.563,1.418 0.469,-17.063 0.875,-34.172 1.231,-51.325 0.352,-17.16 0.543,-34.269 0.562,-51.32 v -68.176 0"
         style="fill:#004e24;fill-opacity:1;fill-rule:nonzero;stroke:none"
         id="path22" /><path
         d="m 878.508,420.375 c -0.024,-17.062 -0.211,-34.191 -0.563,-51.387 -0.359,-17.199 -0.765,-34.414 -1.234,-51.644 6.812,0.597 13.602,1.074 20.359,1.406 6.762,0.34 13.547,0.52 20.371,0.531 13.657,-0.058 27.094,-0.699 40.305,-1.937 -0.219,1.812 -0.383,3.715 -0.484,5.726 -0.106,2.016 -0.157,3.926 -0.157,5.731 0,1.847 0.051,3.894 0.157,6.137 0.101,2.246 0.265,4.292 0.484,6.14 -4.816,-1.562 -10.652,-2.715 -17.516,-3.453 -6.855,-0.742 -14.042,-1.215 -21.546,-1.426 -7.504,-0.211 -14.637,-0.297 -21.399,-0.277 -0.113,4.933 -0.215,12.32 -0.305,22.152 -0.089,9.84 -0.136,22.281 -0.14,37.321 -0.008,18.457 0.004,31.605 0.027,39.457 0.024,7.839 0.09,13.855 0.199,18.035 3.766,0.011 8.918,-0.09 15.45,-0.309 6.531,-0.211 13.32,-0.574 20.375,-1.094 7.054,-0.523 13.254,-1.242 18.586,-2.168 -0.438,3.969 -0.649,7.918 -0.641,11.875 0,1.993 0.051,4.028 0.152,6.129 0.102,2.09 0.266,4.133 0.489,6.137 -6.395,-1.043 -13.809,-1.945 -22.25,-2.73 -8.442,-0.786 -19.161,-1.196 -32.161,-1.239 -0.011,5.227 -0.05,12.617 -0.121,22.16 -0.062,9.532 -0.097,19.594 -0.105,30.176 0.019,9.535 0.148,18.227 0.363,26.078 0.215,7.84 0.399,15.946 0.531,24.286 9.543,-0.024 17.551,-0.29 24.024,-0.809 6.476,-0.52 12.383,-1.172 17.711,-1.957 5.328,-0.774 11.047,-1.582 17.16,-2.387 -0.438,3.957 -0.652,7.914 -0.641,11.875 -0.011,3.945 0.203,7.906 0.641,11.856 -13.172,-1.239 -26.461,-1.879 -39.859,-1.938 -6.707,0.012 -13.387,0.192 -20.036,0.52 -6.644,0.343 -13.316,0.82 -20.023,1.418 0.469,-16.856 0.875,-33.828 1.234,-50.946 0.352,-17.132 0.539,-34.23 0.563,-51.3 v -68.145 0"
         style="fill:#004e24;fill-opacity:1;fill-rule:nonzero;stroke:none"
         id="path24" /><path
         d="m 1033.95,488.121 c 0,14.277 0.15,28.563 0.41,42.871 0.27,14.321 0.58,28.707 0.93,43.172 2.32,0.434 5.24,0.863 8.76,1.293 3.53,0.422 7.86,0.656 12.97,0.688 5.22,0.132 10.49,-1.27 15.78,-4.211 5.29,-2.934 9.74,-8.196 13.33,-15.762 3.6,-7.563 5.47,-18.211 5.62,-31.969 -0.19,-15.601 -2.53,-27.832 -7.01,-36.691 -4.49,-8.871 -9.99,-15.106 -16.52,-18.723 -6.53,-3.625 -12.95,-5.375 -19.26,-5.25 -2.92,-0.012 -5.65,0.117 -8.18,0.395 -2.53,0.289 -4.81,0.808 -6.83,1.593 v 22.594 z m -18.34,-68.133 c -0.01,-17.05 -0.2,-34.16 -0.56,-51.324 -0.35,-17.148 -0.76,-34.258 -1.23,-51.32 1.89,0.597 3.75,1.074 5.56,1.414 1.82,0.332 3.61,0.512 5.4,0.523 1.79,-0.011 3.58,-0.191 5.39,-0.523 1.81,-0.34 3.67,-0.817 5.57,-1.414 -0.47,17.062 -0.88,34.172 -1.24,51.32 -0.35,17.164 -0.53,34.274 -0.55,51.324 v 28.942 h 8.51 c 6.61,-12.032 13.83,-26.719 21.62,-44.071 7.79,-17.351 15.01,-34.113 21.66,-50.324 6.64,-16.191 11.56,-28.597 14.73,-37.191 2.14,0.597 4.3,1.074 6.48,1.414 2.19,0.332 4.36,0.512 6.5,0.523 4.47,-0.058 8.95,-0.699 13.43,-1.937 -3.38,6.758 -7.88,16.277 -13.52,28.586 -5.63,12.297 -11.61,25.488 -17.9,39.578 -6.31,14.09 -12.16,27.183 -17.53,39.293 -5.39,12.097 -9.52,21.332 -12.39,27.679 5.92,1.235 12.41,4.567 19.46,10.02 7.05,5.438 13.15,13.5 18.32,24.191 5.15,10.696 7.86,24.52 8.11,41.481 -0.36,23.246 -4.95,39.582 -13.79,48.988 -8.84,9.414 -19.76,13.949 -32.77,13.606 -4.26,-0.078 -8.52,-0.399 -12.78,-0.965 -4.25,-0.563 -8.51,-0.883 -12.77,-0.973 -8.5,0.059 -17,0.699 -25.5,1.938 0.47,-17.043 0.88,-34.141 1.23,-51.301 0.36,-17.164 0.55,-34.27 0.56,-51.344 v -68.133 0"
         style="fill:#004e24;fill-opacity:1;fill-rule:evenodd;stroke:none"
         id="path26" /><path
         d="m 1162.49,252.738 4.03,-2.773 27.96,83.988 c 0.83,2.555 1.58,5.176 2.27,7.875 0.68,2.699 1.05,5.617 1.09,8.77 -0.12,4.711 -1.05,8.152 -2.8,10.297 -1.74,2.14 -3.57,3.191 -5.48,3.171 -2.99,-0.211 -5.24,-1.878 -6.77,-5.007 -1.53,-3.133 -2.56,-6.485 -3.08,-10.055 l -17.22,-96.266 v 0"
         style="fill:#004e24;fill-opacity:1;fill-rule:nonzero;stroke:none"
         id="path28" /><path
         d="m 1516.58,587.082 c 0.44,6.191 1.24,12.719 2.39,19.563 1.14,6.855 2.41,12.539 3.79,17.074 -6.1,6.336 -14.55,12.418 -25.37,18.215 -10.81,5.804 -25.19,8.902 -43.13,9.308 -32.25,-0.34 -57.72,-15.215 -76.42,-44.633 -18.7,-29.402 -28.24,-71.269 -28.64,-125.601 0.32,-55.801 9.61,-98.09 27.87,-126.863 18.25,-28.786 43.53,-43.239 75.84,-43.379 7.17,0.109 15.06,1.367 23.68,3.789 8.63,2.437 16.93,5.386 24.93,8.859 8,3.484 14.62,6.856 19.9,10.117 -0.01,6.461 -0.06,12.942 -0.13,19.453 -0.09,6.516 -0.13,12.875 -0.14,19.09 0.01,25.61 0.12,46.332 0.34,62.192 0.21,15.859 0.45,27.312 0.74,34.371 -1.77,-0.934 -3.62,-1.563 -5.58,-1.903 -1.95,-0.332 -3.94,-0.488 -5.97,-0.464 -2.2,0 -4.44,0.218 -6.74,0.64 -2.3,0.43 -4.35,1.004 -6.14,1.727 0.3,-10.067 0.59,-20.625 0.88,-31.696 0.28,-11.07 0.45,-22.23 0.47,-33.472 -0.01,-9.742 -0.06,-19.399 -0.17,-28.965 -0.1,-9.566 -0.23,-19.098 -0.37,-28.598 -4.83,-5.008 -11.23,-8.789 -19.18,-11.355 -7.96,-2.567 -15.91,-3.86 -23.83,-3.871 -25.44,0.441 -45.11,13.836 -59,40.199 -13.89,26.363 -20.92,63.078 -21.1,110.129 0.15,35.125 3.65,63.972 10.51,86.523 6.85,22.547 16.19,39.235 28,50.051 11.81,10.816 25.23,16.191 40.25,16.121 13.65,-0.484 25.52,-5.34 35.61,-14.574 10.09,-9.223 17.93,-19.906 23.52,-32.047 h 3.19 v 0"
         style="fill:#004e24;fill-opacity:1;fill-rule:nonzero;stroke:none"
         id="path30" /><path
         d="m 1730.63,454.059 c -0.12,-29.282 -2.88,-53.313 -8.28,-72.11 -5.39,-18.789 -12.75,-32.687 -22.05,-41.711 -9.31,-9.015 -19.88,-13.492 -31.72,-13.437 -11.76,-0.055 -22.28,4.422 -31.56,13.437 -9.27,9.024 -16.61,22.922 -22,41.711 -5.39,18.797 -8.14,42.828 -8.26,72.11 0.12,29.273 2.87,53.304 8.26,72.101 5.39,18.789 12.73,32.692 22,41.715 9.28,9.012 19.8,13.488 31.56,13.422 11.84,0.066 22.41,-4.41 31.72,-13.422 9.3,-9.023 16.66,-22.926 22.05,-41.715 5.4,-18.797 8.16,-42.828 8.28,-72.101 z m -145.79,0 c 0.12,-30.09 3.71,-55.676 10.76,-76.778 7.05,-21.101 16.84,-37.199 29.37,-48.304 12.52,-11.102 27.07,-16.7 43.61,-16.786 16.62,0.086 31.21,5.684 43.77,16.786 12.56,11.105 22.36,27.203 29.42,48.304 7.06,21.102 10.65,46.688 10.77,76.778 -0.12,30.082 -3.71,55.671 -10.77,76.769 -7.06,21.098 -16.86,37.199 -29.42,48.305 -12.56,11.101 -27.15,16.695 -43.77,16.785 -16.54,-0.09 -31.08,-5.684 -43.61,-16.785 -12.53,-11.106 -22.32,-27.207 -29.37,-48.305 -7.05,-21.098 -10.64,-46.687 -10.76,-76.769 v 0"
         style="fill:#004e24;fill-opacity:1;fill-rule:evenodd;stroke:none"
         id="path32" /><path
         d="m 1808.96,420.375 c -0.02,-17.062 -0.21,-34.191 -0.56,-51.387 -0.36,-17.199 -0.77,-34.414 -1.23,-51.644 3.58,0.597 7.2,1.074 10.84,1.406 3.65,0.34 7.26,0.52 10.85,0.531 3.6,-0.09 7.22,-0.41 10.86,-0.976 3.66,-0.563 7.28,-0.883 10.87,-0.961 8.88,-0.098 17.62,2.433 26.24,7.609 8.61,5.176 15.78,13.613 21.49,25.301 5.73,11.699 8.7,27.269 8.92,46.734 -0.13,22.391 -3.95,38.848 -11.5,49.344 -7.53,10.504 -18.03,16.242 -31.48,17.227 v 0.785 c 11.37,4.281 20.43,12.066 27.2,23.386 6.77,11.317 10.24,26.641 10.4,45.997 -0.37,21.972 -5.05,37.078 -14.04,45.316 -8.98,8.238 -20.05,12.141 -33.19,11.723 -3.93,-0.078 -7.89,-0.399 -11.87,-0.965 -3.99,-0.563 -7.95,-0.883 -11.88,-0.973 -3.93,0.012 -7.88,0.192 -11.86,0.52 -3.98,0.343 -7.93,0.82 -11.85,1.418 0.46,-16.856 0.87,-33.84 1.23,-50.957 0.35,-17.121 0.54,-34.219 0.56,-51.289 v -68.145 z m 18.33,48.711 v 29.738 c 0.03,12.508 0.2,25.071 0.5,37.676 0.32,12.605 0.59,25.16 0.85,37.664 2.09,0.609 4.51,1.086 7.25,1.438 2.74,0.355 6,0.543 9.77,0.543 5.82,0.175 11.49,-0.961 17.04,-3.426 5.55,-2.481 10.15,-7.324 13.8,-14.543 3.66,-7.235 5.55,-17.895 5.68,-31.992 -0.13,-14.555 -2.27,-26.008 -6.41,-34.36 -4.14,-8.347 -9.45,-14.254 -15.92,-17.715 -6.48,-3.461 -13.3,-5.132 -20.46,-5.023 h -12.1 z m 0,-14.606 h 10.09 c 15.08,0.485 27.02,-3.171 35.81,-11.003 8.79,-7.84 13.28,-22.805 13.47,-44.907 -0.3,-21.511 -3.9,-37.965 -10.81,-49.367 -6.9,-11.402 -15.33,-17.152 -25.26,-17.242 -4.09,0 -8.05,0.191 -11.89,0.543 -3.85,0.355 -7.2,0.832 -10.06,1.437 -0.26,13.293 -0.53,26.653 -0.85,40.047 -0.3,13.399 -0.47,26.75 -0.5,40.039 v 40.453 0"
         style="fill:#004e24;fill-opacity:1;fill-rule:evenodd;stroke:none"
         id="path34" /><path
         d="m 1971.06,420.375 c -0.02,-17.062 -0.2,-34.191 -0.56,-51.387 -0.35,-17.199 -0.76,-34.414 -1.23,-51.644 6.81,0.597 13.6,1.074 20.36,1.406 6.75,0.34 13.55,0.52 20.37,0.531 13.66,-0.058 27.09,-0.699 40.31,-1.937 -0.23,1.812 -0.39,3.715 -0.49,5.726 -0.11,2.016 -0.16,3.926 -0.16,5.731 0,1.847 0.05,3.894 0.16,6.137 0.1,2.246 0.26,4.292 0.49,6.14 -4.83,-1.562 -10.67,-2.715 -17.52,-3.453 -6.86,-0.742 -14.04,-1.215 -21.54,-1.426 -7.52,-0.211 -14.65,-0.297 -21.41,-0.277 -0.11,4.933 -0.22,12.32 -0.3,22.152 -0.09,9.84 -0.14,22.281 -0.14,37.321 -0.01,18.457 0,31.605 0.03,39.457 0.02,7.839 0.08,13.855 0.18,18.035 3.78,0.011 8.93,-0.09 15.46,-0.309 6.53,-0.211 13.32,-0.574 20.38,-1.094 7.05,-0.523 13.25,-1.242 18.59,-2.168 -0.44,3.969 -0.66,7.918 -0.65,11.875 0,1.993 0.05,4.028 0.16,6.129 0.1,2.09 0.26,4.133 0.49,6.137 -6.4,-1.043 -13.82,-1.945 -22.26,-2.73 -8.44,-0.786 -19.16,-1.196 -32.17,-1.239 0,5.227 -0.04,12.617 -0.11,22.16 -0.06,9.532 -0.1,19.594 -0.1,30.176 0.01,9.535 0.14,18.227 0.35,26.078 0.23,7.84 0.4,15.946 0.54,24.286 9.54,-0.024 17.55,-0.29 24.03,-0.809 6.47,-0.52 12.38,-1.172 17.71,-1.957 5.33,-0.774 11.05,-1.582 17.16,-2.387 -0.44,3.957 -0.65,7.914 -0.65,11.875 0,3.945 0.21,7.906 0.65,11.856 -13.18,-1.239 -26.46,-1.879 -39.87,-1.938 -6.7,0.012 -13.38,0.192 -20.03,0.52 -6.65,0.343 -13.32,0.82 -20.02,1.418 0.47,-16.856 0.88,-33.828 1.23,-50.946 0.36,-17.132 0.54,-34.23 0.56,-51.3 v -68.145 0"
         style="fill:#004e24;fill-opacity:1;fill-rule:nonzero;stroke:none"
         id="path36" /><path
         d="m 2126.5,488.121 c 0.01,14.277 0.16,28.563 0.42,42.871 0.27,14.321 0.58,28.707 0.92,43.172 2.33,0.434 5.25,0.863 8.77,1.293 3.53,0.422 7.85,0.656 12.97,0.688 5.22,0.132 10.48,-1.27 15.77,-4.211 5.29,-2.934 9.74,-8.196 13.34,-15.762 3.6,-7.563 5.47,-18.211 5.61,-31.969 -0.18,-15.601 -2.52,-27.832 -7,-36.691 -4.49,-8.871 -10,-15.106 -16.53,-18.723 -6.52,-3.625 -12.95,-5.375 -19.26,-5.25 -2.92,-0.012 -5.65,0.117 -8.17,0.395 -2.54,0.289 -4.81,0.808 -6.84,1.593 v 22.594 z m -18.33,-68.133 c -0.02,-17.05 -0.21,-34.16 -0.56,-51.324 -0.36,-17.148 -0.77,-34.258 -1.23,-51.32 1.9,0.597 3.75,1.074 5.56,1.414 1.81,0.332 3.61,0.512 5.4,0.523 1.78,-0.011 3.58,-0.191 5.39,-0.523 1.81,-0.34 3.66,-0.817 5.56,-1.414 -0.46,17.062 -0.87,34.172 -1.23,51.32 -0.35,17.164 -0.54,34.274 -0.56,51.324 v 28.942 h 8.51 c 6.62,-12.032 13.83,-26.719 21.62,-44.071 7.8,-17.351 15.01,-34.113 21.66,-50.324 6.65,-16.191 11.56,-28.597 14.73,-37.191 2.14,0.597 4.31,1.074 6.49,1.414 2.19,0.332 4.35,0.512 6.49,0.523 4.48,-0.058 8.96,-0.699 13.43,-1.937 -3.38,6.758 -7.88,16.277 -13.52,28.586 -5.63,12.297 -11.6,25.488 -17.9,39.578 -6.31,14.09 -12.15,27.183 -17.53,39.293 -5.38,12.097 -9.51,21.332 -12.39,27.679 5.93,1.235 12.42,4.567 19.47,10.02 7.05,5.438 13.15,13.5 18.31,24.191 5.16,10.696 7.86,24.52 8.11,41.481 -0.35,23.246 -4.95,39.582 -13.78,48.988 -8.84,9.414 -19.77,13.949 -32.78,13.606 -4.25,-0.078 -8.51,-0.399 -12.77,-0.965 -4.26,-0.563 -8.51,-0.883 -12.77,-0.973 -8.51,0.059 -17,0.699 -25.5,1.938 0.46,-17.043 0.87,-34.141 1.23,-51.301 0.35,-17.164 0.54,-34.27 0.56,-51.344 v -68.133 0"
         style="fill:#004e24;fill-opacity:1;fill-rule:evenodd;stroke:none"
         id="path38" /><path
         d="m 2297.81,419.988 c -0.01,-17.05 -0.2,-34.16 -0.55,-51.324 -0.36,-17.148 -0.77,-34.258 -1.24,-51.32 1.9,0.597 3.75,1.074 5.57,1.414 1.81,0.332 3.61,0.512 5.39,0.523 1.79,-0.011 3.59,-0.191 5.4,-0.523 1.81,-0.34 3.66,-0.817 5.56,-1.414 -0.47,17.062 -0.87,34.172 -1.23,51.32 -0.35,17.164 -0.54,34.274 -0.56,51.324 v 68.176 c 0,27.348 0.22,54.695 0.67,82.043 7.98,-0.012 16.33,-0.387 25.06,-1.141 8.72,-0.75 16.35,-1.824 22.87,-3.214 -0.34,1.988 -0.61,4.035 -0.8,6.136 -0.2,2.09 -0.29,4.133 -0.29,6.125 0,2.157 0.09,4.27 0.29,6.325 0.19,2.058 0.46,4.171 0.8,6.328 -19.27,-1.239 -38.52,-1.879 -57.77,-1.938 -19.24,0.059 -38.5,0.699 -57.76,1.938 0.7,-4.282 1.07,-8.371 1.1,-12.254 -0.03,-4.422 -0.4,-8.637 -1.1,-12.66 6.52,1.39 14.14,2.464 22.87,3.214 8.73,0.754 17.08,1.129 25.05,1.141 0.45,-27.348 0.67,-54.695 0.67,-82.043 v -68.176 0"
         style="fill:#004e24;fill-opacity:1;fill-rule:nonzero;stroke:none"
         id="path40" /><path
         d="m 2594.72,573.426 c 0,-11.844 -2.18,-24.055 -6.54,-36.637 -4.34,-12.586 -10.89,-23.777 -19.59,-33.586 -4.71,10.539 -8.55,21.754 -11.53,33.641 -2.98,11.886 -4.51,22.426 -4.61,31.605 0.07,12.274 2.04,22.371 5.89,30.289 3.85,7.918 9.14,12.02 15.88,12.297 6.34,-0.211 11.32,-3.762 14.96,-10.648 3.61,-6.891 5.47,-15.883 5.54,-26.961 z m -60.15,-17.672 c 0.09,-11.293 1.7,-22.793 4.82,-34.481 3.12,-11.699 7.22,-23.765 12.29,-36.195 -13.47,-10.086 -24.52,-23.773 -33.16,-41.047 -8.63,-17.285 -13.09,-36.074 -13.38,-56.355 0.38,-25.192 5.23,-44.223 14.54,-57.106 9.31,-12.882 20.74,-19.351 34.31,-19.394 12.01,0.176 22.37,4.222 31.12,12.148 8.72,7.918 16.79,18.649 24.15,32.196 3.75,-7.821 7.02,-15.122 9.79,-21.93 2.8,-6.813 4.89,-12.32 6.34,-16.524 2.34,0.489 4.77,0.965 7.3,1.438 2.52,0.476 4.95,0.73 7.29,0.766 2.7,-0.036 5.43,-0.29 8.18,-0.766 2.77,-0.473 5.5,-0.949 8.2,-1.438 l -32.76,65.223 c 6.84,14.379 12.99,28.422 18.52,42.121 5.52,13.703 10.86,27.746 16.04,42.125 -1.98,2.254 -3.82,4.887 -5.55,7.871 -1.72,3 -3.13,6.414 -4.18,10.25 -4.09,-15.734 -8.65,-30.918 -13.7,-45.527 -5.04,-14.606 -10.63,-29.324 -16.77,-44.152 -7.41,14.804 -14.83,30.586 -22.31,47.328 -7.47,16.742 -15.04,33.883 -22.72,51.41 5.2,5.332 10.47,11.976 15.81,19.949 5.34,7.961 9.84,16.965 13.52,26.996 3.66,10.028 5.57,20.801 5.73,32.324 -0.18,16.575 -3.38,29.161 -9.61,37.731 -6.23,8.582 -14.36,12.894 -24.4,12.937 -11.73,-0.441 -21.19,-7 -28.35,-19.672 -7.17,-12.671 -10.86,-28.742 -11.06,-48.226 z m -8.48,-159.918 c 0.08,18.469 2.74,33.738 7.98,45.816 5.23,12.063 12.56,22.926 21.97,32.555 7.67,-18.734 15.5,-37.098 23.5,-55.102 7.98,-17.992 16.18,-36.019 24.61,-54.078 -5.75,-10.48 -11.82,-18.523 -18.18,-24.129 -6.38,-5.605 -13.79,-8.437 -22.25,-8.492 -11.2,0.606 -20.22,7.098 -27.06,19.485 -6.86,12.386 -10.38,27.027 -10.57,43.945 v 0"
         style="fill:#004e24;fill-opacity:1;fill-rule:evenodd;stroke:none"
         id="path42" /><path
         d="m 2860.42,316.957 c 1.62,0.719 3.18,1.281 4.71,1.691 1.54,0.411 3.11,0.622 4.7,0.622 1.61,0 3.18,-0.211 4.7,-0.622 1.54,-0.41 3.11,-0.972 4.7,-1.691 4.25,22.606 8.91,47.254 14,73.926 5.11,26.683 10.18,53.094 15.22,79.246 5.05,26.152 9.62,49.738 13.7,70.773 4.09,21.02 7.25,37.2 9.48,48.512 h 0.54 c 8.84,-46.976 17.34,-93.043 25.52,-138.187 8.18,-45.149 16.15,-89.903 23.92,-134.27 1.48,0.719 3,1.281 4.57,1.691 1.55,0.411 3.07,0.622 4.57,0.622 1.48,0 3,-0.211 4.57,-0.622 1.54,-0.41 3.06,-0.972 4.56,-1.691 1.96,10.57 5.07,26.961 9.27,49.176 4.23,22.219 9.02,47.289 14.39,75.211 5.34,27.922 10.72,55.734 16.13,83.426 5.4,27.699 10.27,52.304 14.63,73.835 4.34,21.532 7.61,37.024 9.79,46.458 -1.61,-0.719 -3.16,-1.293 -4.7,-1.704 -1.52,-0.41 -3.09,-0.609 -4.71,-0.621 -1.59,0.012 -3.15,0.211 -4.7,0.621 -1.52,0.411 -3.09,0.985 -4.7,1.704 -1.09,-8.692 -3.16,-22.407 -6.18,-41.118 -3.05,-18.707 -6.56,-39.941 -10.64,-63.683 -4.04,-23.742 -8.15,-47.5 -12.33,-71.285 -4.18,-23.774 -7.95,-45.086 -11.34,-63.918 -3.38,-18.821 -5.91,-32.676 -7.61,-41.559 h -0.52 c -2.48,13.051 -6.11,32.262 -10.86,57.637 -4.75,25.379 -9.87,52.859 -15.32,82.429 -5.45,29.575 -10.47,57.164 -15.06,82.786 -4.57,25.625 -7.93,45.183 -10.09,58.711 -2.95,-1.493 -5.91,-2.27 -8.86,-2.325 -2.95,0.055 -5.91,0.832 -8.86,2.325 -1.82,-12.93 -5,-32.028 -9.5,-57.305 -4.52,-25.281 -9.54,-52.695 -15.06,-82.231 -5.53,-29.539 -10.73,-57.152 -15.61,-82.851 -4.89,-25.699 -8.59,-45.418 -11.16,-59.176 h -0.55 c -7.09,39.57 -13.27,74.578 -18.56,105.023 -5.27,30.446 -10.13,59.563 -14.54,87.36 -4.43,27.816 -8.88,57.531 -13.38,89.18 -2.28,-0.719 -4.5,-1.293 -6.71,-1.704 -2.2,-0.41 -4.45,-0.609 -6.72,-0.621 -2.27,0.012 -4.5,0.211 -6.7,0.621 -2.23,0.411 -4.46,0.985 -6.73,1.704 2.18,-10.551 5.25,-26.719 9.2,-48.504 3.98,-21.797 8.36,-46.399 13.2,-73.84 4.82,-27.442 9.64,-54.903 14.39,-82.395 4.77,-27.5 9.04,-52.226 12.81,-74.191 3.77,-21.949 6.59,-38.352 8.43,-49.176 v 0"
         style="fill:#004e24;fill-opacity:1;fill-rule:nonzero;stroke:none"
         id="path44" /><path
         d="m 3252.86,454.059 c -0.11,-29.282 -2.86,-53.313 -8.27,-72.11 -5.39,-18.789 -12.75,-32.687 -22.06,-41.711 -9.3,-9.015 -19.86,-13.492 -31.7,-13.437 -11.77,-0.055 -22.29,4.422 -31.56,13.437 -9.27,9.024 -16.61,22.922 -22.02,41.711 -5.38,18.797 -8.13,42.828 -8.24,72.11 0.11,29.273 2.86,53.304 8.24,72.101 5.41,18.789 12.75,32.692 22.02,41.715 9.27,9.012 19.79,13.488 31.56,13.422 11.84,0.066 22.4,-4.41 31.7,-13.422 9.31,-9.023 16.67,-22.926 22.06,-41.715 5.41,-18.797 8.16,-42.828 8.27,-72.101 z m -145.78,0 c 0.14,-30.09 3.71,-55.676 10.77,-76.778 7.04,-21.101 16.84,-37.199 29.36,-48.304 12.54,-11.102 27.06,-16.7 43.62,-16.786 16.61,0.086 31.2,5.684 43.76,16.786 12.57,11.105 22.36,27.203 29.43,48.304 7.06,21.102 10.65,46.688 10.77,76.778 -0.12,30.082 -3.71,55.671 -10.77,76.769 -7.07,21.098 -16.86,37.199 -29.43,48.305 -12.56,11.101 -27.15,16.695 -43.76,16.785 -16.56,-0.09 -31.08,-5.684 -43.62,-16.785 -12.52,-11.106 -22.32,-27.207 -29.36,-48.305 -7.06,-21.098 -10.63,-46.687 -10.77,-76.769 v 0"
         style="fill:#004e24;fill-opacity:1;fill-rule:evenodd;stroke:none"
         id="path46" /><path
         d="m 3334.14,419.945 c -0.02,-17.066 -0.2,-34.172 -0.56,-51.324 -0.34,-17.152 -0.75,-34.246 -1.23,-51.277 6.93,0.597 13.81,1.074 20.7,1.406 6.86,0.34 13.77,0.52 20.7,0.531 6.84,-0.011 13.7,-0.191 20.61,-0.531 6.88,-0.332 13.77,-0.809 20.6,-1.406 -0.7,3.949 -1.06,7.906 -1.08,11.855 0.02,3.957 0.38,7.906 1.08,11.879 -11.06,-2.469 -21.53,-3.973 -31.42,-4.515 -9.86,-0.543 -19.99,-0.75 -30.4,-0.641 -0.11,19.176 -0.25,41.07 -0.41,65.687 -0.16,24.625 -0.23,53.457 -0.25,86.512 0.02,17.051 0.21,34.16 0.57,51.32 0.34,17.153 0.75,34.262 1.23,51.325 -1.91,-0.598 -3.75,-1.075 -5.57,-1.418 -1.82,-0.328 -3.61,-0.508 -5.41,-0.52 -1.77,0.012 -3.57,0.192 -5.38,0.52 -1.82,0.343 -3.66,0.82 -5.57,1.418 0.48,-17.063 0.89,-34.172 1.23,-51.325 0.36,-17.16 0.54,-34.269 0.56,-51.32 v -68.176 0"
         style="fill:#004e24;fill-opacity:1;fill-rule:nonzero;stroke:none"
         id="path48" /><path
         d="m 3484.92,419.988 c -0.02,-17.05 -0.2,-34.16 -0.56,-51.324 -0.37,-17.148 -0.77,-34.258 -1.23,-51.32 1.89,0.597 3.75,1.074 5.57,1.414 1.79,0.332 3.61,0.512 5.38,0.523 1.8,-0.011 3.59,-0.191 5.41,-0.523 1.8,-0.34 3.65,-0.817 5.54,-1.414 -0.45,17.062 -0.86,34.172 -1.22,51.32 -0.35,17.164 -0.55,34.274 -0.55,51.324 v 68.176 c 0,27.348 0.2,54.695 0.66,82.043 7.97,-0.012 16.33,-0.387 25.06,-1.141 8.73,-0.75 16.34,-1.824 22.86,-3.214 -0.34,1.988 -0.59,4.035 -0.8,6.136 -0.18,2.09 -0.29,4.133 -0.29,6.125 0,2.157 0.11,4.27 0.29,6.325 0.21,2.058 0.46,4.171 0.8,6.328 -19.25,-1.239 -38.52,-1.879 -57.76,-1.938 -19.24,0.059 -38.49,0.699 -57.76,1.938 0.71,-4.282 1.07,-8.371 1.09,-12.254 -0.02,-4.422 -0.38,-8.637 -1.09,-12.66 6.52,1.39 14.13,2.464 22.86,3.214 8.75,0.754 17.09,1.129 25.06,1.141 0.46,-27.348 0.68,-54.695 0.68,-82.043 v -68.176 0"
         style="fill:#004e24;fill-opacity:1;fill-rule:nonzero;stroke:none"
         id="path50" /><path
         d="m 3603.39,420.375 c -0.02,-17.062 -0.2,-34.191 -0.57,-51.387 -0.34,-17.199 -0.75,-34.414 -1.22,-51.644 6.81,0.597 13.61,1.074 20.36,1.406 6.77,0.34 13.54,0.52 20.38,0.531 13.65,-0.058 27.08,-0.699 40.3,-1.937 -0.22,1.812 -0.38,3.715 -0.5,5.726 -0.09,2.016 -0.16,3.926 -0.16,5.731 0,1.847 0.07,3.894 0.16,6.137 0.12,2.246 0.28,4.292 0.5,6.14 -4.81,-1.562 -10.66,-2.715 -17.51,-3.453 -6.86,-0.742 -14.04,-1.215 -21.57,-1.426 -7.49,-0.211 -14.63,-0.297 -21.38,-0.277 -0.11,4.933 -0.22,12.32 -0.32,22.152 -0.09,9.84 -0.13,22.281 -0.13,37.321 0,18.457 0,31.605 0.02,39.457 0.02,7.839 0.09,13.855 0.21,18.035 3.77,0.011 8.9,-0.09 15.45,-0.309 6.52,-0.211 13.31,-0.574 20.38,-1.094 7.04,-0.523 13.25,-1.242 18.58,-2.168 -0.45,3.969 -0.66,7.918 -0.66,11.875 0,1.993 0.07,4.028 0.16,6.129 0.11,2.09 0.27,4.133 0.5,6.137 -6.41,-1.043 -13.81,-1.945 -22.26,-2.73 -8.43,-0.786 -19.16,-1.196 -32.15,-1.239 -0.03,5.227 -0.05,12.617 -0.12,22.16 -0.07,9.532 -0.11,19.594 -0.11,30.176 0.02,9.535 0.13,18.227 0.36,26.078 0.23,7.84 0.39,15.946 0.53,24.286 9.54,-0.024 17.56,-0.29 24.03,-0.809 6.48,-0.52 12.39,-1.172 17.7,-1.957 5.34,-0.774 11.07,-1.582 17.16,-2.387 -0.44,3.957 -0.64,7.914 -0.64,11.875 0,3.945 0.2,7.906 0.64,11.856 -13.16,-1.239 -26.45,-1.879 -39.86,-1.938 -6.7,0.012 -13.38,0.192 -20.04,0.52 -6.63,0.343 -13.31,0.82 -20.01,1.418 0.47,-16.856 0.88,-33.828 1.22,-50.946 0.37,-17.132 0.55,-34.23 0.57,-51.3 v -68.145 0"
         style="fill:#004e24;fill-opacity:1;fill-rule:nonzero;stroke:none"
         id="path52" /><path
         d="m 3758.83,488.121 c 0.02,14.277 0.16,28.563 0.43,42.871 0.25,14.321 0.57,28.707 0.91,43.172 2.34,0.434 5.24,0.863 8.77,1.293 3.52,0.422 7.86,0.656 12.97,0.688 5.23,0.132 10.48,-1.27 15.77,-4.211 5.3,-2.934 9.75,-8.196 13.34,-15.762 3.59,-7.563 5.48,-18.211 5.61,-31.969 -0.18,-15.601 -2.52,-27.832 -7,-36.691 -4.5,-8.871 -10,-15.106 -16.52,-18.723 -6.54,-3.625 -12.95,-5.375 -19.26,-5.25 -2.93,-0.012 -5.66,0.117 -8.18,0.395 -2.53,0.289 -4.82,0.808 -6.84,1.593 v 22.594 z m -18.34,-68.133 c -0.02,-17.05 -0.2,-34.16 -0.54,-51.324 -0.37,-17.148 -0.77,-34.258 -1.25,-51.32 1.91,0.597 3.77,1.074 5.56,1.414 1.82,0.332 3.62,0.512 5.41,0.523 1.78,-0.011 3.57,-0.191 5.39,-0.523 1.82,-0.34 3.67,-0.817 5.57,-1.414 -0.46,17.062 -0.87,34.172 -1.24,51.32 -0.36,17.164 -0.54,34.274 -0.56,51.324 v 28.942 h 8.52 c 6.61,-12.032 13.81,-26.719 21.61,-44.071 7.79,-17.351 15.02,-34.113 21.67,-50.324 6.64,-16.191 11.54,-28.597 14.73,-37.191 2.13,0.597 4.29,1.074 6.5,1.414 2.18,0.332 4.33,0.512 6.47,0.523 4.47,-0.058 8.95,-0.699 13.43,-1.937 -3.37,6.758 -7.89,16.277 -13.52,28.586 -5.64,12.297 -11.59,25.488 -17.91,39.578 -6.29,14.09 -12.13,27.183 -17.51,39.293 -5.39,12.097 -9.52,21.332 -12.39,27.679 5.91,1.235 12.41,4.567 19.45,10.02 7.07,5.438 13.16,13.5 18.32,24.191 5.15,10.696 7.86,24.52 8.11,41.481 -0.35,23.246 -4.96,39.582 -13.77,48.988 -8.84,9.414 -19.77,13.949 -32.79,13.606 -4.25,-0.078 -8.52,-0.399 -12.77,-0.965 -4.25,-0.563 -8.52,-0.883 -12.77,-0.973 -8.5,0.059 -17.02,0.699 -25.51,1.938 0.48,-17.043 0.88,-34.141 1.25,-51.301 0.34,-17.164 0.52,-34.27 0.54,-51.344 v -68.133 0"
         style="fill:#004e24;fill-opacity:1;fill-rule:evenodd;stroke:none"
         id="path54" /><path
         d="m 3895,370.016 c -0.41,-7.297 -0.89,-13.524 -1.46,-18.68 -0.57,-5.164 -1.52,-10.703 -2.82,-16.598 3.8,-5.793 8.62,-10.937 14.43,-15.437 5.82,-4.488 13.34,-6.867 22.52,-7.11 11.54,0.211 21.38,4.325 29.56,12.364 8.16,8.039 14.4,18.765 18.75,32.168 4.31,13.414 6.49,28.277 6.54,44.609 -0.37,21.32 -4.05,36.981 -11.02,46.977 -6.98,9.996 -15.07,17.828 -24.25,23.492 -9.2,5.66 -17.27,12.637 -24.24,20.953 -6.99,8.316 -10.65,21.441 -11.04,39.391 0.16,14.707 2.88,26.515 8.16,35.429 5.26,8.914 12.19,13.492 20.74,13.723 8.27,-0.629 14.43,-5.008 18.47,-13.125 4.02,-8.117 6.77,-16.168 8.2,-24.129 h 2.69 c 0.86,7.41 1.75,13.699 2.68,18.875 0.91,5.176 2.04,9.988 3.34,14.422 -4.41,6.305 -9.27,10.992 -14.61,14.031 -5.34,3.055 -11.52,4.567 -18.52,4.547 -15.07,-0.375 -26.88,-7.34 -35.47,-20.934 -8.59,-13.589 -12.95,-31.562 -13.11,-53.933 0.37,-22.688 4.05,-39.399 11.02,-50.106 6.98,-10.715 15.07,-18.996 24.24,-24.867 9.18,-5.875 17.27,-12.898 24.25,-21.078 7,-8.184 10.65,-21.09 11.04,-38.727 -0.09,-16.281 -2.96,-29.816 -8.54,-40.64 -5.61,-10.817 -13.45,-16.434 -23.52,-16.844 -9.59,0.555 -17.26,5.098 -23.07,13.625 -5.79,8.527 -9.87,17.727 -12.3,27.602 H 3895 v 0"
         style="fill:#004e24;fill-opacity:1;fill-rule:nonzero;stroke:none"
         id="path56" /><path
         d="m 4279.16,587.082 c 0.45,6.191 1.25,12.719 2.39,19.563 1.16,6.855 2.4,12.539 3.79,17.074 -6.09,6.336 -14.54,12.418 -25.36,18.215 -10.82,5.804 -25.19,8.902 -43.14,9.308 -32.25,-0.34 -57.72,-15.215 -76.42,-44.633 -18.7,-29.402 -28.24,-71.269 -28.62,-125.601 0.31,-55.801 9.61,-98.09 27.85,-126.863 18.27,-28.786 43.53,-43.239 75.84,-43.379 7.16,0.109 15.07,1.367 23.68,3.789 8.63,2.437 16.95,5.386 24.92,8.859 8,3.484 14.64,6.856 19.91,10.117 0,6.461 -0.05,12.942 -0.14,19.453 -0.07,6.516 -0.11,12.875 -0.13,19.09 0.02,25.61 0.13,46.332 0.34,62.192 0.23,15.859 0.45,27.312 0.75,34.371 -1.77,-0.934 -3.62,-1.563 -5.57,-1.903 -1.95,-0.332 -3.95,-0.488 -5.98,-0.464 -2.2,0 -4.45,0.218 -6.74,0.64 -2.3,0.43 -4.34,1.004 -6.14,1.727 0.3,-10.067 0.59,-20.625 0.86,-31.696 0.3,-11.07 0.46,-22.23 0.48,-33.472 0,-9.742 -0.07,-19.399 -0.16,-28.965 -0.11,-9.566 -0.22,-19.098 -0.38,-28.598 -4.82,-5.008 -11.23,-8.789 -19.18,-11.355 -7.95,-2.567 -15.9,-3.86 -23.81,-3.871 -25.45,0.441 -45.13,13.836 -59.01,40.199 -13.88,26.363 -20.92,63.078 -21.11,110.129 0.16,35.125 3.66,63.972 10.5,86.523 6.86,22.547 16.2,39.235 28.02,50.051 11.81,10.816 25.22,16.191 40.24,16.121 13.65,-0.484 25.54,-5.34 35.62,-14.574 10.09,-9.223 17.93,-19.906 23.52,-32.047 h 3.18 v 0"
         style="fill:#004e24;fill-opacity:1;fill-rule:nonzero;stroke:none"
         id="path58" /><path
         d="m 4373.93,482.094 c 0,13.758 0.14,27.535 0.39,41.347 0.27,13.801 0.56,27.676 0.9,41.622 2.23,0.41 5.05,0.832 8.46,1.242 3.38,0.418 7.56,0.64 12.49,0.672 5.04,0.125 10.12,-1.227 15.2,-4.067 5.11,-2.832 9.41,-7.898 12.86,-15.195 3.48,-7.289 5.3,-17.574 5.43,-30.82 -0.18,-15.051 -2.43,-26.852 -6.77,-35.399 -4.32,-8.539 -9.63,-14.562 -15.93,-18.047 -6.29,-3.496 -12.47,-5.176 -18.56,-5.054 -2.81,-0.024 -5.45,0.109 -7.88,0.378 -2.45,0.262 -4.64,0.782 -6.59,1.524 v 21.797 z m -17.7,-65.699 c 0,-16.446 -0.18,-32.942 -0.52,-49.485 -0.34,-16.547 -0.75,-33.043 -1.21,-49.5 1.84,0.586 3.64,1.039 5.39,1.36 1.75,0.332 3.47,0.5 5.2,0.511 1.71,-0.011 3.45,-0.179 5.18,-0.511 1.75,-0.321 3.55,-0.774 5.39,-1.36 -0.46,16.457 -0.87,32.953 -1.21,49.5 -0.34,16.543 -0.52,33.039 -0.52,49.485 v 27.902 h 8.2 c 6.39,-11.602 13.32,-25.766 20.84,-42.488 7.52,-16.731 14.47,-32.911 20.9,-48.524 6.41,-15.625 11.13,-27.582 14.2,-35.875 2.05,0.586 4.14,1.039 6.25,1.36 2.11,0.332 4.2,0.5 6.25,0.511 4.34,-0.058 8.65,-0.676 12.97,-1.871 -3.27,6.516 -7.61,15.703 -13.04,27.567 -5.43,11.867 -11.2,24.586 -17.27,38.168 -6.07,13.585 -11.7,26.207 -16.9,37.882 -5.19,11.668 -9.18,20.571 -11.95,26.696 5.72,1.187 11.97,4.402 18.76,9.652 6.82,5.254 12.7,13.027 17.68,23.336 4.95,10.305 7.56,23.644 7.82,39.996 -0.34,22.43 -4.77,38.176 -13.3,47.246 -8.52,9.078 -19.06,13.445 -31.6,13.113 -4.11,-0.078 -8.23,-0.386 -12.31,-0.929 -4.12,-0.543 -8.23,-0.852 -12.32,-0.93 -8.2,0.043 -16.4,0.664 -24.61,1.859 0.46,-16.433 0.87,-32.921 1.21,-49.464 0.34,-16.543 0.52,-33.043 0.52,-49.508 v -65.699 0"
         style="fill:#004e24;fill-opacity:1;fill-rule:evenodd;stroke:none"
         id="path60" /><path
         d="m 4625.07,456.859 c 0.13,-12.32 -0.12,-25.679 -0.73,-40.078 -0.61,-14.398 -2.34,-28.144 -5.18,-41.226 -2.84,-13.094 -7.52,-23.821 -14.04,-32.2 -6.52,-8.386 -15.64,-12.718 -27.36,-12.996 -15.74,0.508 -27.04,7 -33.88,19.465 -6.84,12.461 -11.02,27.809 -12.49,46.047 -1.48,18.234 -2.09,36.27 -1.78,54.109 0.03,28.793 0.3,54.907 0.8,78.305 0.52,23.399 1.11,40.992 1.8,52.781 -1.44,-0.574 -2.96,-1.027 -4.57,-1.359 -1.62,-0.324 -3.18,-0.5 -4.73,-0.5 -1.75,0 -3.61,0.176 -5.59,0.5 -1.98,0.332 -3.86,0.785 -5.61,1.359 0.25,-11.191 0.5,-25.203 0.79,-42.035 0.32,-16.828 0.48,-35.816 0.5,-56.949 -0.04,-9.387 -0.22,-18.887 -0.54,-28.465 -0.32,-9.586 -0.5,-20.226 -0.55,-31.914 -0.09,-36.992 4.87,-64.473 14.84,-82.43 10,-17.968 25.63,-26.906 46.92,-26.828 19.54,0.352 34.6,10.243 45.17,29.649 10.59,19.394 16.04,46.191 16.36,80.371 0.16,18.867 0.41,38.207 0.82,58.023 0.39,19.809 0.84,38.496 1.38,56.067 0.55,17.562 1.1,32.402 1.69,44.511 -0.98,-0.574 -2.05,-1.027 -3.16,-1.359 -1.12,-0.324 -2.23,-0.5 -3.32,-0.5 -3.05,0.043 -6,0.664 -8.84,1.859 0.64,-7.156 1,-20.648 1.14,-40.464 0.13,-19.817 0.2,-47.727 0.16,-83.743 v 0"
         style="fill:#004e24;fill-opacity:1;fill-rule:nonzero;stroke:none"
         id="path62" /><path
         d="m 4705.07,416.395 c -0.03,-16.446 -0.21,-32.942 -0.55,-49.485 -0.34,-16.547 -0.75,-33.043 -1.18,-49.5 1.82,0.586 3.61,1.039 5.36,1.36 1.75,0.332 3.48,0.5 5.21,0.511 1.72,-0.011 3.45,-0.179 5.2,-0.511 1.75,-0.321 3.52,-0.774 5.36,-1.36 -0.45,16.457 -0.84,32.953 -1.18,49.5 -0.34,16.543 -0.52,33.039 -0.54,49.485 v 21.023 c 2.77,-0.391 5.58,-0.676 8.42,-0.867 2.82,-0.184 5.87,-0.285 9.07,-0.285 7.25,-0.254 15.34,1.703 24.26,5.851 8.96,4.156 16.73,12.051 23.36,23.688 6.64,11.633 10.14,28.531 10.45,50.703 -0.34,20.879 -3.47,35.918 -9.38,45.094 -5.91,9.179 -12.52,14.82 -19.88,16.91 -7.34,2.09 -13.34,2.941 -18.01,2.554 -3.33,-0.078 -7.69,-0.386 -13.07,-0.929 -5.39,-0.543 -9.95,-0.852 -13.73,-0.93 -3.45,0 -6.93,0.176 -10.45,0.5 -3.52,0.332 -7,0.785 -10.45,1.359 0.43,-16.433 0.84,-32.921 1.18,-49.464 0.34,-16.543 0.52,-33.043 0.55,-49.508 v -65.699 z m 17.68,150.582 h 19.44 c 11.25,0.523 20.07,-2.821 26.5,-10.039 6.4,-7.211 9.67,-21.454 9.79,-42.719 -0.18,-17.164 -2.34,-30.379 -6.55,-39.668 -4.18,-9.289 -9.36,-15.68 -15.51,-19.188 -6.16,-3.504 -12.27,-5.175 -18.34,-4.996 -2.43,0.012 -5.02,0.278 -7.75,0.809 -2.72,0.539 -5.27,1.281 -7.58,2.242 v 113.559 0"
         style="fill:#004e24;fill-opacity:1;fill-rule:evenodd;stroke:none"
         id="path64" /><path
         d="m 4849.35,416.395 c -0.03,-16.446 -0.21,-32.942 -0.55,-49.485 -0.34,-16.547 -0.75,-33.043 -1.18,-49.5 1.82,0.586 3.61,1.039 5.36,1.36 1.75,0.332 3.48,0.5 5.2,0.511 1.71,-0.011 3.46,-0.179 5.21,-0.511 1.75,-0.321 3.52,-0.774 5.36,-1.36 -0.45,16.457 -0.84,32.953 -1.18,49.5 -0.36,16.543 -0.52,33.039 -0.55,49.485 v 21.023 c 2.78,-0.391 5.59,-0.676 8.43,-0.867 2.82,-0.184 5.86,-0.285 9.07,-0.285 7.25,-0.254 15.34,1.703 24.27,5.851 8.95,4.156 16.72,12.051 23.35,23.688 6.64,11.633 10.11,28.531 10.46,50.703 -0.35,20.879 -3.48,35.918 -9.39,45.094 -5.91,9.179 -12.52,14.82 -19.88,16.91 -7.34,2.09 -13.34,2.941 -18.02,2.554 -3.32,-0.078 -7.68,-0.386 -13.06,-0.929 -5.39,-0.543 -9.95,-0.852 -13.73,-0.93 -3.45,0 -6.93,0.176 -10.45,0.5 -3.52,0.332 -7,0.785 -10.45,1.359 0.43,-16.433 0.84,-32.921 1.18,-49.464 0.34,-16.543 0.52,-33.043 0.55,-49.508 v -65.699 z m 17.67,150.582 h 19.45 c 11.25,0.523 20.07,-2.821 26.49,-10.039 6.42,-7.211 9.68,-21.454 9.8,-42.719 -0.18,-17.164 -2.37,-30.379 -6.55,-39.668 -4.17,-9.289 -9.35,-15.68 -15.51,-19.188 -6.16,-3.504 -12.27,-5.175 -18.34,-4.996 -2.43,0.012 -5.02,0.278 -7.75,0.809 -2.72,0.539 -5.27,1.281 -7.59,2.242 v 113.559 0"
         style="fill:#004e24;fill-opacity:1;fill-rule:evenodd;stroke:none"
         id="path66" /><path
         d="m 4993.63,416.77 c -0.03,-16.454 -0.21,-32.977 -0.55,-49.563 -0.34,-16.59 -0.75,-33.176 -1.18,-49.797 6.56,0.586 13.11,1.028 19.63,1.36 6.5,0.332 13.06,0.5 19.63,0.511 13.18,-0.058 26.13,-0.676 38.88,-1.871 -0.23,1.746 -0.39,3.594 -0.48,5.531 -0.09,1.934 -0.16,3.782 -0.16,5.528 0,1.781 0.07,3.75 0.16,5.906 0.09,2.168 0.25,4.133 0.48,5.926 -4.66,-1.504 -10.29,-2.621 -16.91,-3.328 -6.61,-0.719 -13.54,-1.172 -20.76,-1.371 -7.25,-0.211 -14.12,-0.301 -20.64,-0.278 -0.11,4.758 -0.22,11.879 -0.29,21.367 -0.09,9.489 -0.14,21.485 -0.14,35.985 -0.02,17.801 0,30.476 0.03,38.051 0.02,7.562 0.09,13.359 0.18,17.394 3.63,0 8.61,-0.098 14.9,-0.297 6.3,-0.211 12.84,-0.566 19.66,-1.062 6.79,-0.508 12.77,-1.196 17.92,-2.078 -0.43,3.812 -0.63,7.629 -0.63,11.433 0,1.922 0.04,3.891 0.16,5.906 0.09,2.024 0.25,3.993 0.47,5.926 -6.18,-0.996 -13.33,-1.879 -21.47,-2.633 -8.13,-0.75 -18.47,-1.148 -31.01,-1.191 0,5.039 -0.05,12.16 -0.12,21.363 -0.04,9.2 -0.09,18.899 -0.09,29.106 0.03,9.191 0.14,17.574 0.34,25.148 0.21,7.563 0.39,15.371 0.53,23.41 9.2,-0.011 16.92,-0.277 23.15,-0.773 6.25,-0.5 11.95,-1.129 17.09,-1.891 5.13,-0.754 10.65,-1.519 16.54,-2.3 -0.41,3.824 -0.62,7.64 -0.62,11.445 0,3.812 0.21,7.629 0.62,11.433 -12.7,-1.195 -25.52,-1.816 -38.42,-1.859 -6.48,0 -12.93,0.176 -19.34,0.5 -6.4,0.332 -12.84,0.785 -19.29,1.359 0.43,-16.246 0.84,-32.625 1.18,-49.132 0.34,-16.5 0.52,-32.989 0.55,-49.454 v -65.71 0"
         style="fill:#004e24;fill-opacity:1;fill-rule:nonzero;stroke:none"
         id="path68" /><path
         d="m 2309.36,1372.93 317.77,-0.11 c 20.75,-0.03 35.76,2.2 52.15,-10.16 29.08,-21.99 25.9,-66.52 -0.15,-91.93 L 2336.28,937.023 c -26.07,-25.378 -68.35,-25.378 -94.42,0 l -342.94,333.707 c -26.1,25.41 -26.1,66.52 -0.03,91.93 l 342.85,333.71 c 26.07,25.41 68.36,25.41 94.45,0 l 293.9,-286.01 h -228.81 l -86.72,86.09 c -4.32,4.26 -11.36,4.26 -15.75,0 l -168.23,-163.77 c -4.32,-4.2 -4.32,-11.05 0,-15.28 l 168.31,-163.76 c 4.35,-4.25 11.39,-4.25 15.76,0 l 80.94,77.74 h -82.31 l 28.01,-0.2 h -25.11 c -38.87,0 -70.41,30.65 -70.41,68.53 v 5.03 c 0,35.58 27.92,64.85 63.59,68.19 v 0"
         style="fill:#004e24;fill-opacity:1;fill-rule:nonzero;stroke:none"
         id="path70" /><path
         d="m 2977.37,1362.66 c 26.08,-25.41 26.08,-66.52 0,-91.93 L 2729.22,1030.11 2619.25,923.051 c 0,0 -1.81,-1.688 -3.27,-2.25 -1.41,-0.543 -2.58,-0.559 -4.21,-0.551 h -195.81 c 0,0 -5.67,-0.176 -6.64,2.137 -1.21,2.886 2.07,5.476 3.37,6.75 l 10.85,10.535 379.31,369.328 c 4.33,4.23 4.33,11.08 0,15.34 l -388.2,378.82 c -1.3,1.28 -4.59,3.87 -3.37,6.75 0.97,2.32 6.63,2.14 6.63,2.14 h 196.72 c 1.63,0 2.8,-0.01 4.21,-0.55 1.45,-0.56 3.27,-2.25 3.27,-2.25 l 355.26,-346.59"
         style="fill:#004e24;fill-opacity:1;fill-rule:nonzero;stroke:none"
         id="path72" /><path
         d="m 3183.03,1362.66 c 26.07,-25.41 26.07,-66.52 0,-91.93 L 2934.88,1030.11 2824.91,923.051 c 0,0 -1.82,-1.688 -3.27,-2.25 -1.41,-0.543 -2.59,-0.559 -4.21,-0.551 h -118.55 c 0,0 -5.66,-0.176 -6.63,2.137 -1.21,2.886 2.07,5.476 3.37,6.75 l 10.84,10.535 379.32,369.328 c 4.33,4.23 4.33,11.08 0,15.34 l -388.2,378.82 c -1.3,1.28 -4.59,3.87 -3.38,6.75 0.98,2.32 6.64,2.14 6.64,2.14 h 119.44 c 1.63,0 2.81,-0.01 4.22,-0.55 1.45,-0.56 3.26,-2.25 3.26,-2.25 l 355.27,-346.59"
         style="fill:#004e24;fill-opacity:1;fill-rule:nonzero;stroke:none"
         id="path74" /><path
         d="m 2150.08,37.2617 c -0.65,-9.4609 -1.13,-14.4336 -3.08,-22.1523 5.67,-6.96877 13.27,-14.187525 26.7,-14.187525 24.92,0 39.64,25.640625 39.64,56.003925 0,55.0082 -50.96,35.5937 -50.96,82.1402 0,18.168 8.73,30.86 20.87,30.86 12.13,0 16.98,-14.184 19.25,-23.395 h 1.94 c 1.29,9.457 2.42,15.184 4.37,20.91 -6.47,7.961 -13.76,11.696 -23.94,11.696 -21.53,0 -35.12,-19.414 -35.12,-47.043 0,-58.4924 50.97,-38.8284 50.97,-84.6252 0,-19.9141 -8.74,-36.0938 -23.14,-36.0938 -13.91,0 -22,14.1875 -25.56,25.8867 h -1.94"
         style="fill:#004e24;fill-opacity:1;fill-rule:nonzero;stroke:none"
         id="path76" /><path
         d="m 2246.18,68.875 c 0,-21.4062 -0.65,-43.0625 -1.29,-64.71875 9.86,0.75 19.57,1.24609 29.44,1.24609 9.87,0 19.58,-0.49609 29.12,-1.24609 -0.32,2.24219 -0.48,4.98047 -0.48,7.21875 0,2.2422 0.16,5.4766 0.48,7.7148 -10.19,-2.9843 -29.28,-3.2304 -43.68,-3.2304 -0.16,6.2187 -0.32,18.414 -0.32,37.332 0,23.8945 0,30.1172 0.16,36.0938 7.77,0 28.15,-0.5 39.31,-2.2422 -0.32,2.4883 -0.48,4.9804 -0.48,7.4687 0,2.4844 0.16,5.2266 0.48,7.7153 -9.54,-1.247 -20.22,-2.4887 -39.31,-2.4887 0,6.2227 -0.16,19.9097 -0.16,32.8557 0,12.195 0.48,20.906 0.64,31.609 21.04,0 28.96,-1.742 42.55,-3.234 -0.32,2.488 -0.48,4.976 -0.48,7.465 0,2.488 0.16,4.98 0.48,7.468 -9.54,-0.746 -19.09,-1.246 -28.8,-1.246 -9.7,0 -19.25,0.5 -28.95,1.246 0.64,-21.156 1.29,-42.812 1.29,-64.218 V 68.875"
         style="fill:#004e24;fill-opacity:1;fill-rule:nonzero;stroke:none"
         id="path78" /><path
         d="m 2336.78,68.6211 c 0,-21.4023 -0.65,-43.0586 -1.3,-64.46485 2.75,0.75 5.34,1.24609 7.93,1.24609 2.59,0 5.18,-0.49609 7.93,-1.24609 -0.64,21.40625 -1.29,43.06255 -1.29,64.46485 v 42.8129 c 0,21.406 0.65,43.062 1.29,64.468 -2.75,-0.746 -5.34,-1.246 -7.93,-1.246 -2.59,0 -5.18,0.5 -7.93,1.246 0.65,-21.406 1.3,-43.062 1.3,-64.468 V 68.6211"
         style="fill:#004e24;fill-opacity:1;fill-rule:nonzero;stroke:none"
         id="path80" /><path
         d="m 2413.95,68.6211 c 0,-21.4023 -0.65,-43.0586 -1.29,-64.46485 2.75,0.75 5.34,1.24609 7.93,1.24609 2.59,0 5.17,-0.49609 7.92,-1.24609 -0.65,21.40625 -1.29,43.06255 -1.29,64.46485 v 42.8129 c 0,17.175 0.16,34.351 0.48,51.523 11.17,0 25.57,-0.996 34.63,-2.738 -0.49,2.492 -0.81,5.23 -0.81,7.719 0,2.738 0.32,5.226 0.81,7.964 -13.92,-0.746 -27.83,-1.246 -41.74,-1.246 -13.92,0 -27.83,0.5 -41.75,1.246 0.49,-2.738 0.81,-5.226 0.81,-7.714 0,-2.739 -0.32,-5.477 -0.81,-7.969 9.07,1.742 23.46,2.738 34.62,2.738 0.33,-17.172 0.49,-34.348 0.49,-51.523 V 68.6211"
         style="fill:#004e24;fill-opacity:1;fill-rule:nonzero;stroke:none"
         id="path82" /><path
         d="m 2569.27,68.125 c 0,-21.4062 -0.33,-42.5625 -1.3,-63.96875 2.59,0.75 5.02,1.24609 7.6,1.24609 2.59,0 5.02,-0.49609 7.61,-1.24609 -0.81,21.16015 -1.29,42.56255 -1.29,63.96875 v 41.57 c 0,21.653 0.48,43.309 1.29,64.961 l -1.13,1.246 c -11.17,-8.714 -24.59,-18.172 -36.89,-25.886 v -1.743 c 1.94,-1.992 3.88,-4.976 4.85,-7.96 l 19.26,16.425 V 68.125"
         style="fill:#004e24;fill-opacity:1;fill-rule:nonzero;stroke:none"
         id="path84" /><path
         d="m 2711.64,168.93 c -5.5,0 -10.03,-0.246 -16.66,-0.246 -8.9,0 -23.95,0.246 -30.59,0.5 -5.98,0.246 -13.1,0.996 -21.84,1.988 0.33,-3.484 0.65,-7.465 0.65,-10.953 0,-3.481 -0.32,-7.715 -0.65,-11.199 27.34,2.492 46.76,2.492 56.47,2.492 -11.33,-30.617 -37.05,-97.3245 -57.27,-147.35575 1.94,0.75 3.88,1.24609 5.82,1.24609 2.43,0 4.21,-0.49609 6.15,-1.24609 17.63,53.51955 38.67,110.26575 57.92,160.79675 v 3.977"
         style="fill:#004e24;fill-opacity:1;fill-rule:nonzero;stroke:none"
         id="path86" /><path
         d="m 2757.1,154.992 c 10.03,0 34.46,-0.496 44.01,-3.234 -0.17,1.246 -0.17,2.492 -0.17,4.23 0,4.731 0.33,9.707 1.13,13.938 l -0.8,0.996 c -3.88,-0.246 -12.62,-0.496 -22.65,-0.496 -8.74,0 -15.05,0.25 -19.74,0.746 -4.53,0.5 -7.44,0.996 -9.06,1.492 l -1.46,-1.492 c 0.97,-11.199 1.3,-27.379 1.3,-41.067 0,-14.187 -0.16,-29.125 -1.62,-42.0659 l 1.78,-1.7461 c 1.94,1.9922 7.77,8.2187 16.66,8.2187 11.65,0 22.65,-10.9531 22.65,-39.0781 0,-31.3633 -11.97,-46.04688 -24.75,-46.04688 -8.74,0 -18.93,6.21878 -22.97,18.41408 h -1.14 c -0.32,-3.9805 -1.29,-10.2031 -2.42,-14.4336 V 11.375 c 6.95,-7.21875 16.34,-9.95703 25.88,-9.95703 23.79,0 40.29,25.38673 40.29,56.75393 0,25.1367 -12.14,46.7931 -31.06,46.7931 -9.71,0 -13.76,-2.988 -18.12,-6.4728 l 2.26,56.4998"
         style="fill:#004e24;fill-opacity:1;fill-rule:nonzero;stroke:none"
         id="path88" /><path
         d="m 2841.07,49.957 c 0,-30.8672 15.69,-48.53903 36.07,-48.53903 19.91,0 36.09,21.41013 36.09,54.26173 0,30.3711 -15.86,40.0742 -23.3,42.0664 v 1.7422 c 11.8,5.7267 18.12,21.1567 18.12,36.5897 0,18.914 -9.55,36.586 -30.91,36.586 -18.44,0 -30.41,-18.668 -30.41,-39.574 0,-19.414 9.71,-31.363 17.8,-34.3478 v -1.7461 c -16.67,-8.4609 -23.46,-26.8789 -23.46,-47.0391 z m 53.71,82.883 c 0,-17.176 -5.18,-31.86 -17.47,-31.86 -12.14,0 -17.31,14.684 -17.31,31.86 0,17.176 5.17,31.859 17.31,31.859 12.29,0 17.47,-14.683 17.47,-31.859 z m 4.21,-81.6369 c 0,-24.3984 -8.42,-41.81638 -21.85,-41.81638 -13.42,0 -21.84,17.41798 -21.84,41.81638 0,24.3907 8.42,41.8164 21.84,41.8164 13.43,0 21.85,-17.4257 21.85,-41.8164"
         style="fill:#004e24;fill-opacity:1;fill-rule:evenodd;stroke:none"
         id="path90" /></g></g></svg>
