<?xml version="1.0" encoding="UTF-8" standalone="no"?>
<!DOCTYPE svg PUBLIC "-//W3C//DTD SVG 1.1//EN" "http://www.w3.org/Graphics/SVG/1.1/DTD/svg11.dtd">
<svg width="318px" height="28px" viewBox="0 0 318 28" version="1.1" xmlns="http://www.w3.org/2000/svg" xmlns:xlink="http://www.w3.org/1999/xlink">
    <g id="Pool-Partner" stroke="none" stroke-width="1" fill="none" fill-rule="evenodd">
        <g id="Artboard" transform="translate(-61.000000, -44.000000)" fill-rule="nonzero">
            <polygon id="E" fill="#272625" transform="translate(370.724130, 57.598666) scale(1, -1) translate(-370.724130, -57.598666) " points="363.39813 44.92 363.39813 70.2773327 378.05013 70.2773327 378.05013 68.2493328 365.67413 68.2493328 365.67413 59.109333 375.347463 59.109333 375.347463 57.117333 365.67413 57.117333 365.67413 46.9479999 378.05013 46.9479999 378.05013 44.92"></polygon>
            <path d="M352.59013,61.9906662 C352.59013,65.4399995 350.776797,68.2493328 346.224797,68.2493328 L339.928797,68.2493328 L339.928797,46.9479999 L346.508797,46.9479999 C351.096797,46.9479999 352.59013,50.1479999 352.59013,53.0639998 L352.59013,61.9906662 Z M346.579464,44.92 L337.652797,44.92 L337.652797,70.2773327 L346.579464,70.2773327 C351.63013,70.2773327 354.936797,67.5733328 354.936797,62.2746662 L354.936797,53.1706665 C354.936797,48.0853333 351.66613,44.92 346.579464,44.92" id="D" fill="#272625" transform="translate(346.294797, 57.598666) scale(1, -1) translate(-346.294797, -57.598666) "></path>
            <polygon id="DOT" fill="#FC0F40" transform="translate(324.520264, 65.921333) scale(1, -1) translate(-324.520264, -65.921333) " points="326.891597 61.55 316.815598 61.55 322.148931 70.2926664 332.224931 70.2926664"></polygon>
            <path d="M308.780265,68.2493328 L304.014931,68.2493328 L304.014931,57.189333 L308.850931,57.189333 C313.261598,57.189333 315.466931,59.0386663 315.466931,62.9146662 C315.466931,66.2933328 313.012265,68.2493328 308.780265,68.2493328 M309.206931,55.1626664 L304.014931,55.1626664 L304.014931,44.92 L301.738931,44.92 L301.738931,70.2773327 L309.669598,70.2773327 C314.754931,70.2773327 317.884264,67.4319994 317.884264,62.9146662 C317.884264,58.0426663 314.612264,55.1626664 309.206931,55.1626664" id="P" fill="#272625" transform="translate(309.811598, 57.598666) scale(1, -1) translate(-309.811598, -57.598666) "></path>
            <path d="M290.859065,62.2053329 C290.859065,66.1879995 288.547065,68.6426661 283.995065,68.6426661 C279.621732,68.6426661 277.345732,65.7973328 277.345732,61.6719996 L277.345732,53.0306665 C277.345732,48.9399999 279.763065,46.4866666 284.137732,46.4866666 C288.476398,46.4866666 290.859065,49.0466666 290.859065,53.0666665 L290.859065,62.2053329 Z M283.960399,44.46 C278.767065,44.46 274.927065,47.2693333 274.927065,52.8519998 L274.927065,61.6013329 C274.927065,67.1493328 278.553732,70.7053327 284.137732,70.7053327 C289.579065,70.7053327 293.277732,67.7893328 293.277732,62.2773329 L293.277732,53.2786664 C293.277732,47.6959999 289.295065,44.46 283.960399,44.46" id="O" fill="#272625" transform="translate(284.102399, 57.582666) scale(1, -1) translate(-284.102399, -57.582666) "></path>
            <polygon id="H" fill="#272625" transform="translate(257.575199, 57.598666) scale(1, -1) translate(-257.575199, -57.598666) " points="264.189866 44.92 264.189866 57.0826664 250.960533 57.0826664 250.960533 44.92 248.684533 44.92 248.684533 70.2773327 250.960533 70.2773327 250.960533 59.145333 264.189866 59.145333 264.189866 70.2773327 266.465866 70.2773327 266.465866 44.92"></polygon>
            <path d="M232.043333,44.49 C226.958,44.49 223.899333,47.1926666 223.080667,51.3179998 L225.499333,51.6379998 C226.175333,48.7926666 228.167333,46.5166666 232.043333,46.5166666 C234.888666,46.5166666 238.124666,48.0819999 238.124666,51.6739998 C238.124666,54.2686664 236.488666,55.6206664 234.212666,56.3326664 L229.091333,57.967333 C226.531333,58.7859996 224.255333,60.8486663 224.255333,63.8006662 C224.255333,68.2819994 227.668667,70.6993327 232.043333,70.6993327 C235.883333,70.6993327 238.622,69.5259994 240.151333,65.9339995 L238.231333,64.9739995 C236.951333,67.6406661 235.102,68.7086661 232.114,68.7086661 C229.340667,68.7086661 226.708667,67.1433328 226.708667,64.2979995 C226.708667,62.1646662 228.131333,60.8126663 230.158,60.1366663 L235.386,58.395333 C238.195333,57.4699997 240.65,55.5499997 240.65,52.0286665 C240.65,46.9793333 236.666,44.49 232.043333,44.49" id="S" fill="#272625" transform="translate(231.865333, 57.594666) scale(1, -1) translate(-231.865333, -57.594666) "></path>
            <polygon id="Y" fill="#272625" transform="translate(208.125200, 57.658000) scale(1, -1) translate(-208.125200, -57.658000) " points="211.2712 54.9733331 211.2712 44.98 204.976534 44.98 204.976534 55.0079997 196.620534 70.3359994 203.269867 70.3359994 208.320534 60.4493329 213.369867 70.3359994 219.629867 70.3359994"></polygon>
            <polygon id="E" fill="#272625" transform="translate(182.237601, 57.658666) scale(1, -1) translate(-182.237601, -57.658666) " points="172.866268 44.98 172.866268 70.3373327 191.536934 70.3373327 191.536934 65.1799995 179.196935 65.1799995 179.196935 60.3426663 189.580934 60.3426663 189.580934 55.2226664 179.196935 55.2226664 179.196935 50.1719999 191.608934 50.1719999 191.608934 44.98"></polygon>
            <polygon id="K" fill="#272625" transform="translate(155.995335, 57.658666) scale(1, -1) translate(-155.995335, -57.658666) " points="160.102002 44.98 154.199335 55.7906664 151.176669 52.3773331 151.176669 44.98 144.810002 44.98 144.810002 70.3373327 151.176669 70.3373327 151.176669 58.849333 159.960668 70.3373327 166.718001 70.3373327 158.680668 60.165333 167.180668 44.98"></polygon>
            <path d="M127.848002,44.98 C122.265336,44.98 117.037336,47.7893333 117.037336,54.1186664 L117.037336,61.8373329 C117.037336,68.0599994 122.088003,71.1893327 127.670669,71.1893327 C132.613336,71.1893327 137.985336,68.6999994 137.985336,62.8319996 L137.985336,61.6226663 L132.009336,61.6226663 L132.009336,62.2279996 C132.009336,64.8599995 129.768002,65.9973328 127.813336,65.9973328 C125.572003,65.9973328 123.402669,64.8239995 123.402669,61.9439996 L123.402669,54.2613331 C123.402669,51.6653332 125.288003,50.1719999 127.884002,50.1719999 C129.840002,50.1719999 132.009336,51.2746665 132.009336,53.9413331 L132.009336,54.5466664 L137.985336,54.5466664 L137.985336,53.3013331 C137.985336,47.4693333 132.757336,44.98 127.848002,44.98" id="C" fill="#272625" transform="translate(127.511336, 58.084666) scale(1, -1) translate(-127.511336, -58.084666) "></path>
            <path d="M99.8613331,65.9973328 C97.5853331,65.9973328 95.4866665,64.7879995 95.4866665,61.8359996 L95.4866665,54.4039998 C95.4866665,51.7013332 97.3719998,50.1719999 99.9679997,50.1719999 C102.172,50.1719999 104.341333,51.4879998 104.341333,54.3679998 L104.341333,61.8719996 C104.341333,64.5386662 102.244,65.9973328 99.8613331,65.9973328 M99.9679997,44.98 C94.2786665,44.98 89.12,47.6826666 89.12,54.2613331 L89.12,61.5519996 C89.12,67.9893328 94.3479999,71.1893327 99.7893331,71.1893327 C105.444,71.1893327 110.707999,68.1666661 110.707999,61.6226663 L110.707999,54.5813331 C110.707999,47.9666666 105.266666,44.98 99.9679997,44.98" id="O" fill="#272625" transform="translate(99.914000, 58.084666) scale(1, -1) translate(-99.914000, -58.084666) "></path>
            <polygon id="H" fill="#272625" transform="translate(71.664137, 57.658666) scale(1, -1) translate(-71.664137, -57.658666) " points="75.7894704 44.98 75.7894704 55.0799997 67.5041373 55.0799997 67.5041373 44.98 61.1734708 44.98 61.1734708 70.3373327 67.5041373 70.3373327 67.5041373 60.5919996 75.7894704 60.5919996 75.7894704 70.3373327 82.1548036 70.3373327 82.1548036 44.98"></polygon>
        </g>
    </g>
</svg>