<?xml version="1.0" encoding="utf-8"?>
<svg width="325px" height="102px" viewBox="0 0 325 102" version="1.1" xmlns="http://www.w3.org/2000/svg" xmlns:xlink="http://www.w3.org/1999/xlink">
    <defs>
        <linearGradient x1="3.08423033e-05%" y1="50.0049995%" x2="99.9962989%" y2="50.0049995%" id="linearGradient-o407q0rc2g-1">
            <stop stop-color="#004BA0" offset="0%"></stop>
            <stop stop-color="#008CC8" offset="50%"></stop>
            <stop stop-color="#28A6DB" offset="69.73%"></stop>
            <stop stop-color="#49BBEA" offset="89.28%"></stop>
            <stop stop-color="#55C3F0" offset="99.97%"></stop>
        </linearGradient>
        <linearGradient x1="4.98977097e-05%" y1="50.0110192%" x2="99.9993014%" y2="50.0110192%" id="linearGradient-o407q0rc2g-2">
            <stop stop-color="#004BA0" offset="0%"></stop>
            <stop stop-color="#007ABD" offset="33.14%"></stop>
            <stop stop-color="#008CC8" offset="50%"></stop>
            <stop stop-color="#26A4DA" offset="68.93%"></stop>
            <stop stop-color="#48BBEA" offset="89.08%"></stop>
            <stop stop-color="#55C3F0" offset="100%"></stop>
        </linearGradient>
        <linearGradient x1="6.65646009e-05%" y1="49.999318%" x2="99.9953405%" y2="49.999318%" id="linearGradient-o407q0rc2g-3">
            <stop stop-color="#E60028" offset="0%"></stop>
            <stop stop-color="#C50645" offset="13.25%"></stop>
            <stop stop-color="#A60B61" offset="28.33%"></stop>
            <stop stop-color="#930E72" offset="41.13%"></stop>
            <stop stop-color="#8C0F78" offset="50.03%"></stop>
            <stop stop-color="#881078" offset="59.73%"></stop>
            <stop stop-color="#7B1278" offset="69.84%"></stop>
            <stop stop-color="#661578" offset="80.14%"></stop>
            <stop stop-color="#491978" offset="90.5%"></stop>
            <stop stop-color="#281E78" offset="100%"></stop>
        </linearGradient>
        <linearGradient x1="4.01284109e-05%" y1="50.0050271%" x2="100.001404%" y2="50.0050271%" id="linearGradient-o407q0rc2g-4">
            <stop stop-color="#55C3F0" offset="0%"></stop>
            <stop stop-color="#49BBEA" offset="10.69%"></stop>
            <stop stop-color="#28A6DB" offset="30.26%"></stop>
            <stop stop-color="#008CC8" offset="50%"></stop>
            <stop stop-color="#004BA0" offset="100%"></stop>
        </linearGradient>
        <linearGradient x1="0.00261640325%" y1="49.9807266%" x2="99.9958885%" y2="49.9807266%" id="linearGradient-o407q0rc2g-5">
            <stop stop-color="#281E78" offset="0%"></stop>
            <stop stop-color="#291E78" offset="0.2471724%"></stop>
            <stop stop-color="#531778" offset="15.81%"></stop>
            <stop stop-color="#721378" offset="29.83%"></stop>
            <stop stop-color="#851078" offset="41.7%"></stop>
            <stop stop-color="#8C0F78" offset="50%"></stop>
            <stop stop-color="#930E72" offset="58.9%"></stop>
            <stop stop-color="#A60B61" offset="71.69%"></stop>
            <stop stop-color="#C50645" offset="86.76%"></stop>
            <stop stop-color="#E60028" offset="100%"></stop>
        </linearGradient>
    </defs>
    <g id="Page-1" stroke="none" stroke-width="1" fill="none" fill-rule="evenodd">
        <g id="Artboard" transform="translate(-202.000000, -118.000000)" fill-rule="nonzero">
            <g id="Group" transform="translate(202.000000, 118.990000)">
                <path d="M277.06,0.01 C277.06,0.01 272.33,0.01 271.19,4.6 L260.4,48.22 C260.4,48.22 259.26,52.81 257.88,48.29 L248.52,17.68 C236.85,26.86 224.56,35.89 212.26,43.96 L210.94,48.29 C210.94,48.29 209.56,52.82 208.42,48.22 L208.04,46.69 C208.04,46.69 193.95,55.34 187.03,59 L193.43,82.24 C205.56,78.8 216.97,75.18 227.6,71.5 L232.94,55.2 C232.94,55.2 234.41,50.7 235.89,55.2 L239.8,67.14 C257.2,60.7 272.27,54.22 284.81,48.29 L296.79,4.56 C296.79,4.56 298.04,0 293.31,0 L277.06,0 L277.06,0.01 Z M0,55.59 L0,95.28 C0,95.28 0,100.01 4.73,100.01 C4.73,100.01 19.75,100.01 19.84,100.01 C19.93,100.01 24.57,100.01 24.57,95.28 L24.57,66.55 L0,55.59 Z M37.7,70.33 L54.06,96.02 C54.06,96.02 56.6,100.01 61.33,100.01 C61.33,100.01 73.23,100.01 73.35,100.01 C73.47,100.01 78.08,100.01 78.08,95.28 L78.08,76.86 L37.7,70.33 Z M92.7,76.9 C92.7,76.9 92.7,95.15 92.7,95.28 C92.7,95.41 92.7,100.01 97.43,100.01 L110.92,100.01 C128.44,97.38 145.03,94.19 160.67,90.62 L160.67,82.83 C160.67,82.83 160.67,78.1 155.94,78.1 L122.01,78.1 C122.01,78.1 119.69,78.1 118.3,76.48 C109.21,76.95 100.67,77.06 92.7,76.9 M312.23,0.01 C312.23,0.01 306.64,0.01 306.64,5.6 C306.64,5.6 306.64,21.58 306.64,22.7 C306.64,23.82 307.55,29.61 312.02,25.71 C312.02,25.71 318.59,20.22 319.45,19.48 C320.31,18.74 324.23,15.2 324.23,9.61 C324.23,9.61 324.23,7.11 324.23,6.3 C324.23,5.49 324.23,0.02 318.64,0.02 L312.23,0.02 L312.23,0.01 Z" id="Shape" fill="url(#linearGradient-o407q0rc2g-1)"></path>
                <path d="M53.51,33 L53.51,45.56 C53.51,45.56 53.51,50.29 50.97,46.3 L43.36,34.36 C29.74,35.95 15.31,36.71 -1.42108547e-14,36.47 L-1.42108547e-14,46.6 C13.46,49.61 43.4,55.22 78.09,54.71 L78.09,27.11 C70.22,29 62.03,31.72 53.51,33 M150,0.01 C133.21,9.43 114.23,17.9 92.69,24.31 L92.69,54.14 C112.84,52.81 133.98,49.16 154.02,41.64 C153.55,40.29 152.41,38.64 149.61,38.64 L122,38.64 C122,38.64 117.27,38.64 117.27,33.91 C117.27,33.91 117.27,26.86 117.27,26.66 C117.27,26.46 117.27,21.93 122,21.93 L155.93,21.93 C155.93,21.93 160.66,21.93 160.66,17.2 L160.66,4.75 C160.66,4.75 160.66,0.02 155.93,0.02 L150,0.02 L150,0.01 Z M175.52,0.01 C175.52,0.01 170.79,0.01 172.04,4.57 L178.97,29.73 C180.4,28.88 181.82,28 183.23,27.09 C189.19,23.26 194.92,19.5 200.41,15.85 L197.62,4.59 C197.62,4.59 196.48,-1.42108547e-14 191.75,-1.42108547e-14 L175.52,-1.42108547e-14 L175.52,0.01 Z" id="Shape" fill="url(#linearGradient-o407q0rc2g-2)"></path>
                <path d="M4.73,0.01 C4.73,0.01 0,0.01 0,4.74 L0,36.5 C15.31,36.74 29.75,35.98 43.38,34.39 L24.03,4 C24.03,4 21.49,0.01 16.76,0.01 L4.73,0.01 Z M58.24,0.01 C58.24,0.01 53.51,0.01 53.51,4.74 L53.51,33.04 C62.03,31.76 70.21,30.15 78.09,28.27 L78.09,4.74 C78.09,4.74 78.09,0.01 73.36,0.01 L58.24,0.01 L58.24,0.01 Z M97.43,0.01 C97.43,0.01 92.7,0.01 92.7,4.74 L92.7,24.36 C114.34,17.94 133.4,9.45 150.23,0.01 L97.43,0.01 Z" id="Shape" fill="url(#linearGradient-o407q0rc2g-3)"></path>
                <path d="M0,55.59 C4.19,58.31 12.23,62.67 24.58,66.8 L24.58,54.46 C24.58,54.46 24.58,49.73 27.12,53.72 L37.92,70.67 C48.91,73.41 62.24,75.71 78.09,76.86 L78.09,52.71 C36.18,52.53 0.77,42.75 0.01,42.53 C0,42.53 0,42.53 0,42.53 L0,55.59 L0,55.59 Z M92.7,52.55 L92.7,77.56 C93.09,77.57 93.48,77.58 93.88,77.58 C94.31,77.59 94.74,77.59 95.16,77.59 C95.62,77.59 96.08,77.59 96.54,77.59 C97.02,77.59 97.51,77.59 97.99,77.59 C98.49,77.59 99,77.58 99.5,77.58 C100.02,77.58 100.54,77.57 101.05,77.56 C101.58,77.55 102.11,77.55 102.63,77.54 C103.16,77.53 103.69,77.52 104.23,77.52 C104.76,77.51 105.29,77.5 105.82,77.49 C106.34,77.48 106.87,77.47 107.39,77.46 C107.9,77.45 108.42,77.44 108.93,77.43 C109.43,77.42 109.92,77.41 110.42,77.4 C110.89,77.39 111.37,77.38 111.84,77.37 C112.29,77.36 112.73,77.35 113.18,77.34 C113.59,77.33 114.01,77.32 114.42,77.31 C114.8,77.3 115.17,77.29 115.55,77.28 C115.88,77.27 116.22,77.26 116.55,77.25 C116.83,77.24 117.12,77.23 117.4,77.22 C117.63,77.21 117.86,77.21 118.09,77.2 C118.26,77.19 118.43,77.19 118.61,77.18 C118.72,77.18 118.83,77.17 118.93,77.17 C119,77.17 119.05,77.17 119.05,77.17 C119.05,77.17 119.04,77.16 119.02,77.15 C118.96,77.11 118.84,77.01 118.77,76.95 C118.48,76.69 118.21,76.41 118,76.08 C117.72,75.64 117.52,75.14 117.4,74.63 C117.31,74.22 117.26,73.79 117.26,73.37 L117.26,65.28 C117.26,65.28 117.26,60.55 121.99,60.55 L149.6,60.55 C149.6,60.55 154.33,60.55 154.33,55.82 L154.33,43.37 C154.33,43.37 154.33,42.46 153.93,41.44 C133.94,48.66 112.82,51.78 92.7,52.55 M183.23,27.1 C181.82,28.01 180.4,28.88 178.97,29.73 L187.23,59.75 C194.45,56.31 201.52,52.49 208.45,48.36 C208.44,48.32 208.43,48.27 208.42,48.23 L200.4,15.8099899 C200.39,15.8 189.22,23.25 183.23,27.1 M230.43,0.01 C230.43,0.01 225.7,0.01 224.31,4.54 L211.47,46.53 C224.46,38.57 236.98,29.53 249.2,19.92 L244.5,4.54 C244.5,4.54 243.12,0.01 238.38,0.01 L230.43,0.01 L230.43,0.01 Z" id="Shape" fill="url(#linearGradient-o407q0rc2g-4)"></path>
                <path d="M99,100.01 L155.94,100.01 C155.94,100.01 160.67,100.01 160.67,95.28 L160.67,87.47 M192.57,79.15 L197.06,95.45 C197.06,95.45 198.32,100.01 203.05,100.01 L213.53,100.01 C213.53,100.01 218.26,100.01 219.74,95.51 L228.89,67.58 C228.88,67.58 205.22,75.54 192.57,79.15 M238.75,63.97 L249.09,95.52 C249.09,95.52 250.56,100.02 255.3,100.02 L265.92,100.02 C265.92,100.02 270.65,100.02 271.9,95.4599949 L286.28,42.9599949 C286.27,42.95 255.76,57.54 238.75,63.97" id="Shape" fill="url(#linearGradient-o407q0rc2g-5)"></path>
            </g>
        </g>
    </g>
</svg>