<?xml version="1.0" standalone="no"?>
<!DOCTYPE svg PUBLIC "-//W3C//DTD SVG 20010904//EN" "http://www.w3.org/TR/2001/REC-SVG-20010904/DTD/svg10.dtd">
<svg width="956px" height="358px" viewBox="0 0 956 358" version="1.1" xmlns="http://www.w3.org/2000/svg" xmlns:xlink="http://www.w3.org/1999/xlink">
    <g id="Pool-Partner" stroke="none" stroke-width="1" fill="none" fill-rule="evenodd">
        <g id="Artboard" fill="#000000" fill-rule="nonzero">
            <path d="M285.8,183.417155 C257.9,152.317155 243.9,133.117155 233.1,111.317155 C222.9,90.9171547 218.7,75.5171547 218.598501,58.6171547 C218.5,41.2171547 223.4,28.7171547 234.6,17.5171547 C247.3,4.81715474 264.6,-0.682845264 288.9,0.417154736 C313.9,1.51715474 337.3,7.91715474 376.5,24.6171547 C385.9,28.6171547 402.3,35.5171547 413,40.1171547 C423.7,44.6171547 438.6,50.9171547 446,54.1171547 C453.4,57.3171547 474.6,66.3171547 493,74.1171547 C511.4,81.9171547 531,90.2171547 536.5,92.6171547 C542,95.0171547 563.2,104.017155 583.5,112.617155 C603.9,121.217155 625,130.217155 630.5,132.617155 C636,135.017155 650.9,141.317155 663.5,146.617155 C676.2,152.017155 695.7,160.317155 707,165.117155 C754.2,185.217155 772.6,192.917155 774.8,193.617155 C776.1,194.017155 777,194.517155 776.8,194.717155 C776.4,195.017155 761.9,191.417155 727,182.117155 C699.6,174.817155 680.7,169.817155 657,163.617155 C635.3,157.917155 581.2,143.617155 549.5,135.217155 C531.3,130.417155 515.7,126.217155 474.2,115.117155 C463.9,112.317155 442.1,106.417155 425.8,102.017155 C409.5,97.7171547 390.6,92.6171547 383.8,90.7171547 C359.6,84.1171547 350.9,82.7171547 334,82.7171547 C319.9,82.7171547 317.8,83.0171547 310.3,85.4171547 C289.9,92.2171547 277.1,110.417155 277,132.717155 C277,148.517155 285.3,175.017155 295.5,191.917155 C296.9,194.217155 297.9,196.117155 297.7,196.117155 C297.5,196.117155 292.1,190.417155 285.8,183.417155 Z" id="Path" transform="translate(497.713162, 98.198577) scale(1, -1) translate(-497.713162, -98.198577) "></path>
            <path d="M859,354.78 C859,354.38 862.7,342.18 867.1,327.48 C871.6,312.78 875.7,299.18 876.2,297.28 C876.7,295.38 878.2,290.38 879.5,286.28 C881.4,279.98 881.6,277.78 880.9,272.78 C880.1,266.88 875,224.68 875,223.78 C875,223.48 882.8,223.28 892.4,223.28 L909.8,223.28 L910.4,227.08 C910.7,229.08 912.3,241.68 913.9,254.98 L916.9,279.28 L923.8,292.48 C950.8,344.08 956,354.18 956,354.68 C956,355.08 947.8,355.18 937.8,355.08 L919.6,354.78 L915.2,344.78 C912.8,339.28 909.1,330.48 907,325.28 C904.8,320.08 902.9,316.48 902.7,317.28 C902.4,318.08 901.3,324.38 900.1,331.28 C898.9,338.18 897.4,346.28 896.7,349.28 L895.5,354.78 L877.2,355.08 C867.2,355.18 859,355.08 859,354.78 Z" id="Y" transform="translate(907.500000, 289.198750) scale(1, -1) translate(-907.500000, -289.198750) "></path>
            <path d="M792.6,354.08 C792.4,353.38 790.1,335.28 787.5,313.78 C784.9,292.38 781.5,264.18 779.9,251.28 C778.3,238.38 777,226.78 777,225.58 L777,223.28 L809.5,223.28 C827.4,223.28 842,223.68 842,224.08 C842,225.38 844.9,249.68 845.5,252.58 L846,255.28 L831,255.28 C813.8,255.28 815.3,253.98 817.2,267.08 L818.3,275.28 L831.6,275.28 L844.8,275.28 L845.4,278.08 C845.7,279.58 846.4,285.08 847,290.28 C847.6,295.48 848.2,300.98 848.5,302.58 L849,305.28 L835.3,305.28 L821.7,305.28 L822.4,310.58 C822.8,313.38 823.3,317.68 823.6,320.08 L824.2,324.28 L839,324.28 C856.2,324.28 854.3,322.78 856,337.78 C856.6,343.28 857.3,349.48 857.6,351.58 L858.2,355.28 L825.6,355.28 C800.3,355.28 792.9,354.98 792.6,354.08 Z" id="E" transform="translate(817.600000, 289.280000) scale(1, -1) translate(-817.600000, -289.280000) "></path>
            <path d="M691.1,346.58 C689.6,334.98 679.3,250.28 678,238.78 C677.4,233.88 676.7,228.28 676.4,226.58 L675.9,223.28 L693.4,223.28 L710.9,223.28 L711.5,226.58 C712.4,232.18 717,276.38 717,279.88 C717,281.78 717.4,283.28 717.8,283.28 C718.3,283.28 722,269.78 726,253.28 L733.5,223.28 L752.2,223.28 C762.6,223.28 771,223.58 771,223.88 C771,224.28 766.1,239.18 760,257.08 C754,274.88 749,290.18 749,290.98 C749,291.88 751.2,296.38 753.9,301.18 C761.7,315.08 781.6,350.58 782.9,353.08 L784.1,355.28 L765.5,355.28 L746.9,355.28 L744.1,349.08 C742.5,345.58 736.4,332.68 730.5,320.28 C721.2,300.68 719.9,298.48 720.4,302.78 C720.8,305.58 722.1,315.88 723.4,325.78 C724.8,335.68 726.2,346.38 726.5,349.58 L727.2,355.28 L709.8,355.28 L692.3,355.28 L691.1,346.58 Z" id="K" transform="translate(730.000000, 289.280000) scale(1, -1) translate(-730.000000, -289.280000) "></path>
            <path d="M649,357.9502 C638.9,355.3502 631,350.5502 622.4,342.0502 C615.6,335.2502 613.5,332.3502 609.1,323.5502 C591.5,287.7502 595.7,246.2502 618.5,230.5502 C629.1,223.2502 645.8,221.2502 659.3,225.4502 C663,226.6502 666,227.9502 666,228.3502 C666,228.7502 667.4,236.7502 669,246.0502 C670.6,255.4502 672,263.6502 672,264.3502 C672,265.2502 671.1,265.0502 669.1,263.6502 C664.1,260.0502 657.7,257.5502 653.5,257.5502 C647.3,257.5502 641,261.2502 638,266.5502 C635.7,270.7502 635.5,272.0502 635.5,284.0502 C635.5,295.1502 635.8,298.0502 637.9,304.0502 C640.6,311.9502 643.5,316.8502 647.6,320.7502 C655.4,328.0502 667.2,328.5502 674.2,321.8502 C675.7,320.3502 677.1,319.3502 677.3,319.6502 C677.9,320.3502 681.9,355.8502 681.5,356.6502 C679.6,359.5502 658.4,360.4502 649,357.9502 Z" id="C" transform="translate(639.875367, 291.343902) scale(1, -1) translate(-639.875367, -291.343902) "></path>
            <path d="M537.3,357.711161 C518.6,351.611161 503.2,332.611161 496.4,307.211161 C494,298.211161 493.7,295.411161 493.6,279.711161 C493.5,263.911161 493.7,261.511161 495.9,254.711161 C498.9,245.011161 501.9,240.011161 508.1,234.211161 C517,225.811161 529.9,221.911161 541.9,223.711161 C549.8,225.011161 559.4,229.311161 565.6,234.311161 C575.7,242.611161 585,258.711161 589.8,276.511161 C592.1,285.311161 592.4,287.911161 592.4,305.711161 C592.5,324.511161 592.4,325.411161 589.8,331.811161 C586.3,340.611161 583.2,345.311161 577.6,350.511161 C570.5,357.011161 565.3,359.011161 553.5,359.411161 C545.5,359.611161 542.3,359.311161 537.3,357.711161 Z M551.1,325.711161 C555.4,323.311161 556.5,319.111161 556.4,304.211161 C556.4,287.711161 554.5,277.711161 549.4,267.011161 C544.7,257.111161 538.9,254.011161 534.2,259.011161 C529.7,263.811161 528.1,274.811161 529.9,289.211161 C533.1,315.311161 541.9,330.511161 551.1,325.711161 Z" id="O" transform="translate(543.001905, 291.372968) scale(1, -1) translate(-543.001905, -291.372968) "></path>
            <path d="M404.6,351.58 C404.3,349.48 402.2,333.18 400,315.28 C397.9,297.38 394.5,269.88 392.5,254.18 C390.6,238.48 389,225.08 389,224.38 C389,223.58 394.1,223.28 406.4,223.28 L423.7,223.28 L425.3,235.08 C426.2,241.48 427.7,253.38 428.6,261.58 L430.4,276.28 L438.7,276.28 C443.3,276.28 447,275.98 447,275.58 C447,275.08 445.9,266.28 444.6,255.78 C443.2,245.38 441.9,233.78 441.5,230.08 L440.8,223.28 L458.4,223.28 C469.5,223.28 476,223.68 476,224.28 C476,225.58 480.1,259.38 485,298.28 C487.1,315.58 489.4,334.28 490,339.78 C490.6,345.28 491.3,350.98 491.6,352.58 L492.2,355.28 L474.7,355.28 L457.2,355.28 L456.6,352.58 C456.3,350.98 455.1,341.88 454,332.28 C452.9,322.68 451.7,313.28 451.4,311.58 L450.9,308.28 L443.1,308.28 C438.8,308.28 435.1,308.48 434.8,308.78 C434.6,309.08 435.6,318.78 437.1,330.48 C438.7,342.18 439.9,352.58 440,353.58 C440,355.18 438.5,355.28 422.6,355.28 L405.2,355.28 L404.6,351.58 Z" id="H" transform="translate(440.600000, 289.280000) scale(1, -1) translate(-440.600000, -289.280000) "></path>
            <path d="M276.5,354.08 C276.3,353.38 275.2,344.48 274,334.28 C272.8,324.08 270.4,303.68 268.5,288.78 C264.8,259.88 261,227.28 261,224.78 C261,223.48 263.9,223.28 281.3,223.28 C310.2,223.38 319.3,225.38 330.9,234.08 C348.3,247.28 359,272.98 359,301.78 C358.9,330.28 345.6,348.68 321.3,353.78 C312.3,355.68 277.1,355.88 276.5,354.08 Z M315.8,319.58 C320.4,316.78 322.4,309.98 322.5,297.78 C322.5,279.08 317.4,264.18 309.1,258.58 C305.3,255.98 301.3,254.68 300.3,255.68 C299.7,256.18 306.2,311.38 307.7,319.48 C308.2,321.88 308.6,322.18 310.9,321.68 C312.3,321.28 314.6,320.38 315.8,319.58 Z" id="D" transform="translate(310.000000, 289.301911) scale(1, -1) translate(-310.000000, -289.301911) "></path>
            <path d="M209.5,353.08 C209.3,351.78 207.9,340.88 206.5,328.78 C205.1,316.68 202.6,296.18 201,283.28 C196.6,247.98 194,226.58 194,224.78 C194,223.48 197.7,223.28 224.5,223.28 L254.9,223.28 L255.5,226.58 C256.1,230.28 259,253.28 259,254.48 C259,254.88 253.1,255.28 245.9,255.28 L232.8,255.28 L233.4,261.08 C233.8,264.18 236.3,284.78 239,306.78 C241.7,328.78 244.2,348.68 244.4,351.08 L245,355.28 L227.5,355.28 C210.2,355.28 210,355.28 209.5,353.08 Z" id="L" transform="translate(226.500000, 289.280000) scale(1, -1) translate(-226.500000, -289.280000) "></path>
            <path d="M134.5,354.08 C134.3,353.38 133.4,346.68 132.6,339.28 C131.7,331.88 128.6,305.98 125.6,281.78 C122.6,257.58 119.8,234.48 119.4,230.58 L118.7,223.28 L151.4,223.28 C169.3,223.28 184,223.58 184,224.08 C184,224.48 184.7,230.38 185.5,237.28 C186.3,244.18 187,250.98 187,252.58 L187,255.28 L172.4,255.28 L157.7,255.28 L158.4,262.08 C158.8,265.78 159.3,270.28 159.6,272.08 L160.2,275.28 L173.6,275.28 C181,275.28 187,275.48 187,275.68 C187,276.68 190,299.98 190.5,302.58 L191,305.28 L177.3,305.28 L163.7,305.28 L164.4,310.58 C164.8,313.38 165.3,317.68 165.6,320.08 L166.2,324.28 L181.1,324.28 C189.3,324.28 196,324.38 196,324.58 C196,324.68 196.9,331.48 198,339.68 C199.1,347.78 200,354.68 200,354.88 C200,355.08 185.4,355.28 167.5,355.28 C142.3,355.28 134.8,354.98 134.5,354.08 Z" id="E" transform="translate(159.350000, 289.280000) scale(1, -1) translate(-159.350000, -289.280000) "></path>
            <path d="M86,354.08 C86,352.18 82.5,322.98 78.5,291.28 C76.6,276.18 74.1,255.68 73,245.78 C71.9,235.88 70.7,226.78 70.5,225.58 L70,223.28 L87.5,223.28 C104.8,223.28 105,223.28 105.5,225.58 C105.7,226.78 107.1,237.28 108.5,248.78 C109.9,260.38 113,285.98 115.5,305.78 C117.9,325.58 120.2,344.78 120.6,348.58 L121.3,355.28 L103.6,355.28 C90.2,355.28 86,354.98 86,354.08 Z" id="I" transform="translate(95.650000, 289.280000) scale(1, -1) translate(-95.650000, -289.280000) "></path>
            <path d="M15.6,352.58 C15.3,350.98 13.7,338.78 12.1,325.28 C10.4,311.78 7,284.28 4.5,264.18 C2,244.08 1.84741111e-13,226.68 1.84741111e-13,225.48 C1.84741111e-13,223.28 0.2,223.28 17.3,223.28 L34.6,223.28 L36.3,236.58 C37.2,243.78 38.7,255.48 39.6,262.58 L41.3,275.28 L53.6,275.28 L65.9,275.28 L66.4,278.58 C66.7,280.28 67.5,285.58 68,290.28 C68.6,294.98 69.3,300.28 69.7,302.08 L70.2,305.28 L57.5,305.28 L44.7,305.28 L45.4,310.58 C45.8,313.38 46.3,317.68 46.6,320.08 L47.2,324.28 L60.6,324.28 C68,324.28 74,324.48 74,324.68 C74,325.68 77,348.98 77.5,352.08 L78.1,355.28 L47.1,355.28 L16.2,355.28 L15.6,352.58 Z" id="F" transform="translate(39.050000, 289.280000) scale(1, -1) translate(-39.050000, -289.280000) "></path>
        </g>
    </g>
</svg>