<?xml version="1.0" encoding="utf-8"?>
<svg width="426px" height="92px" viewBox="0 0 426 92" version="1.1" xmlns="http://www.w3.org/2000/svg" xmlns:xlink="http://www.w3.org/1999/xlink">
    <g id="Partner" stroke="none" stroke-width="1" fill="none" fill-rule="evenodd">
        <g id="Padelbox" fill-rule="nonzero">
            <path d="M26.94,20.77 C30.21,20.77 33.14,21.41 35.71,22.68 C38.28,23.96 40.47,25.7 42.25,27.92 C44.04,30.14 45.4,32.78 46.34,35.85 C47.28,38.92 47.75,42.24 47.75,45.83 C47.75,49.05 47.2,52.12 46.11,55.04 C45.02,57.95 43.54,60.51 41.69,62.69 C39.84,64.88 37.69,66.63 35.27,67.93 C32.84,69.24 30.32,69.89 27.71,69.89 C26.13,69.89 24.6,69.78 23.11,69.57 C21.62,69.36 19.69,68.92 17.32,68.25 C18.17,66.12 19.13,64.41 20.19,63.1 C21.25,61.8 22.54,61.08 24.06,60.96 C27.83,60.72 30.47,59.22 31.99,56.45 C33.51,53.69 34.27,50.15 34.27,45.83 C34.27,43.71 34.04,41.7 33.59,39.82 C33.14,37.94 32.5,36.28 31.68,34.85 C30.86,33.42 29.86,32.28 28.69,31.43 C27.51,30.58 26.17,30.15 24.65,30.15 C21.26,30.15 17.75,32.27 14.13,36.53 L14.13,91.03 L1.37,91.03 L1.37,33.44 C1.37,31.74 1.26,29.93 1.05,28.02 C0.83,26.1 0.49,24.09 -2.84217094e-14,21.96 L9.81,21.96 C10.6,22.45 11.28,23.11 11.83,23.96 C12.38,24.81 12.84,25.69 13.21,26.6 L13.48,28.42 L14.84,26.6 C17.26,24.35 19.43,22.82 21.34,22 C23.26,21.18 25.12,20.77 26.94,20.77 Z" id="Path" fill="#485156"></path>
            <path d="M87.57,69.07 C86.72,68.58 86.04,67.93 85.52,67.11 C85,66.29 84.56,65.42 84.2,64.51 L83.93,62.69 L82.84,64.24 C80.11,66.73 77.71,68.36 75.64,69.12 C73.57,69.88 71.39,70.26 69.08,70.26 C66.89,70.26 64.93,69.88 63.2,69.12 C61.47,68.36 59.98,67.34 58.74,66.07 C57.49,64.79 56.55,63.34 55.91,61.7 C55.27,60.06 54.95,58.33 54.95,56.51 C54.95,54.63 55.34,52.8 56.13,51.04 C56.92,49.28 58.27,47.68 60.19,46.25 C62.1,44.82 64.67,43.61 67.89,42.61 C71.11,41.61 75.12,40.92 79.92,40.56 C79.62,42.69 78.99,44.54 78.05,46.12 C77.11,47.7 75.66,48.67 73.72,49.04 C71.41,49.4 69.74,50.16 68.71,51.32 C67.68,52.47 67.16,53.81 67.16,55.33 C67.16,56.91 67.72,58.23 68.85,59.29 C69.97,60.35 71.33,60.88 72.91,60.88 C74.67,60.88 76.43,60.29 78.2,59.1 C79.96,57.92 81.63,56.38 83.21,54.5 L83.21,40.73 C83.21,37.57 82.34,35.05 80.61,33.17 C78.88,31.29 76.4,30.35 73.18,30.35 C71.66,30.35 70.04,30.5 68.3,30.81 C66.57,31.11 64.64,31.66 62.51,32.45 L59.41,24.43 C62.14,23.22 64.94,22.34 67.79,21.79 C70.64,21.24 73.14,20.97 75.26,20.97 C81.76,20.97 86.76,22.66 90.25,26.03 C93.74,29.4 95.49,34.31 95.49,40.75 L95.49,57.61 C95.49,59.31 95.6,61.12 95.81,63.03 C96.02,64.94 96.4,66.97 96.95,69.09 L87.57,69.09 L87.57,69.07 Z" id="Path" fill="#485156"></path>
            <path d="M124.48,70.26 C121.2,70.26 118.25,69.64 115.64,68.39 C113.03,67.15 110.84,65.4 109.08,63.15 C107.32,60.9 105.97,58.24 105.02,55.18 C104.08,52.11 103.61,48.79 103.61,45.2 C103.61,41.98 104.16,38.91 105.25,36 C106.34,33.08 107.82,30.53 109.67,28.35 C111.52,26.16 113.66,24.42 116.09,23.11 C118.52,21.81 121.04,21.15 123.65,21.15 C125.23,21.15 126.76,21.26 128.25,21.47 C129.74,21.68 131.67,22.12 134.04,22.79 C133.19,24.91 132.22,26.63 131.12,27.94 C130.03,29.24 128.72,29.96 127.2,30.08 C125.32,30.2 123.74,30.66 122.46,31.45 C121.18,32.24 120.15,33.29 119.36,34.59 C118.57,35.89 117.99,37.46 117.63,39.28 C117.27,41.1 117.08,43.08 117.08,45.2 C117.08,47.33 117.29,49.33 117.72,51.21 C118.14,53.09 118.77,54.75 119.59,56.18 C120.41,57.61 121.43,58.75 122.64,59.6 C123.85,60.45 125.22,60.88 126.74,60.88 C130.08,60.88 133.6,58.76 137.31,54.5 L137.31,-1.42108547e-14 L150.07,-1.42108547e-14 L150.07,57.59 C150.07,59.29 150.18,61.1 150.39,63.01 C150.6,64.92 150.95,66.95 151.44,69.07 L141.63,69.07 C140.83,68.64 140.18,68.04 139.66,67.25 C139.14,66.46 138.73,65.64 138.42,64.79 L137.96,62.69 L136.41,64.7 C134.04,66.83 131.9,68.29 129.99,69.08 C128.08,69.86 126.24,70.26 124.48,70.26 Z" id="Path" fill="#485156"></path>
            <path d="M192.46,40.18 C192.64,38.78 192.58,37.45 192.28,36.17 C191.98,34.89 191.47,33.77 190.78,32.8 C190.08,31.83 189.2,31.05 188.14,30.48 C187.08,29.91 185.85,29.61 184.45,29.61 C183.17,29.61 181.91,29.88 180.67,30.43 C179.42,30.98 178.29,31.84 177.25,33.03 C176.22,34.22 175.38,35.74 174.74,37.59 C174.1,39.44 173.78,41.68 173.78,44.29 C173.78,49.58 174.96,53.66 177.33,56.55 C179.7,59.44 182.8,60.88 186.62,60.88 C188.75,60.88 190.83,60.62 192.86,60.11 C194.9,59.59 197.25,58.73 199.92,57.51 L203.11,65.98 C199.83,67.56 196.74,68.67 193.86,69.31 C190.97,69.95 188.1,70.27 185.25,70.27 C181.06,70.27 177.46,69.51 174.45,67.99 C171.44,66.47 168.95,64.52 166.98,62.11 C165,59.71 163.55,56.99 162.61,53.95 C161.67,50.91 161.2,47.84 161.2,44.75 C161.2,40.98 161.82,37.61 163.07,34.63 C164.31,31.65 166.02,29.15 168.17,27.11 C170.33,25.07 172.86,23.51 175.78,22.42 C178.7,21.33 181.8,20.78 185.08,20.78 C188.42,20.78 191.49,21.45 194.28,22.79 C197.07,24.13 199.32,25.98 201.02,28.35 C202.72,30.72 203.77,33.56 204.16,36.87 C204.55,40.18 204.08,43.78 202.75,47.67 L177.23,47.67 C177.9,45.54 178.85,43.77 180.1,42.34 C181.34,40.91 182.76,40.2 184.34,40.2 L192.46,40.2 L192.46,40.18 Z" id="Path" fill="#485156"></path>
            <polygon id="Path" fill="#485156" points="228.09 69.07 215.33 69.07 215.33 2.13162821e-14 228.09 2.13162821e-14"></polygon>
            <path d="M267,60.87 C270.28,60.87 272.97,59.96 275.06,58.14 C277.16,56.32 278.2,53.7 278.2,50.3 C278.2,48.48 277.8,46.85 277.02,45.43 C276.23,44 275.14,42.78 273.74,41.78 C272.34,40.78 270.69,40 268.77,39.46 C266.86,38.91 264.77,38.64 262.53,38.64 L254.33,38.64 L254.33,69.08 L241.57,69.08 L241.57,3.82 C244,3.39 246.16,3.04 248.04,2.77 C249.92,2.5 251.65,2.27 253.24,2.09 C254.82,1.91 256.35,1.79 257.84,1.73 C259.33,1.67 260.89,1.64 262.53,1.64 C266.6,1.64 270.21,2.08 273.37,2.96 C276.53,3.84 279.16,5.1 281.25,6.74 C283.35,8.38 284.94,10.36 286.03,12.66 C287.12,14.97 287.67,17.52 287.67,20.32 C287.67,22.57 286.97,24.8 285.57,27.02 C284.17,29.24 282.35,31.05 280.1,32.44 L277.46,33.72 L280.01,34.36 C281.65,34.97 283.18,35.83 284.61,36.96 C286.04,38.08 287.27,39.37 288.3,40.83 C289.33,42.29 290.14,43.84 290.72,45.48 C291.3,47.12 291.59,48.76 291.59,50.4 C291.59,52.77 291.06,55.12 290,57.46 C288.94,59.8 287.4,61.9 285.4,63.75 C283.39,65.6 280.96,67.12 278.11,68.3 C275.25,69.49 272.03,70.08 268.45,70.08 C267.6,70.08 266.82,70.07 266.13,70.04 C265.43,70.01 264.69,69.93 263.9,69.81 C263.11,69.69 262.24,69.52 261.3,69.31 C260.36,69.1 259.22,68.84 257.88,68.54 C258.25,67.75 258.7,66.9 259.25,65.99 C259.8,65.08 260.43,64.24 261.16,63.48 C261.89,62.72 262.74,62.1 263.71,61.61 C264.69,61.11 265.78,60.87 267,60.87 Z M262.54,30.07 C264.12,30.07 265.64,29.84 267.1,29.39 C268.56,28.93 269.83,28.28 270.93,27.43 C272.02,26.58 272.9,25.56 273.57,24.38 C274.24,23.2 274.57,21.87 274.57,20.42 C274.57,19.33 274.34,18.22 273.89,17.1 C273.43,15.98 272.73,14.96 271.79,14.05 C270.85,13.14 269.62,12.38 268.1,11.77 C266.58,11.16 264.73,10.86 262.54,10.86 C260.9,10.86 259.53,10.9 258.44,10.99 C257.35,11.08 255.98,11.25 254.34,11.49 L254.34,30.08 L262.54,30.08 L262.54,30.07 Z" id="Shape" fill="#2B9AD2"></path>
            <path d="M332.79,70.35 C327.5,70.35 322.83,69.47 318.75,67.71 C314.68,65.95 311.23,63.53 308.41,60.46 C305.58,57.39 303.44,53.76 301.99,49.57 C300.53,45.38 299.8,40.82 299.8,35.9 C299.8,31.16 300.54,26.7 302.03,22.5 C303.52,18.31 305.68,14.65 308.5,11.52 C311.32,8.39 314.77,5.93 318.84,4.14 C322.91,2.35 327.56,1.45 332.78,1.45 C338.73,1.45 343.79,2.48 347.95,4.55 C352.11,6.62 355.51,9.3 358.16,12.62 C360.8,15.93 362.71,19.64 363.9,23.74 C365.08,27.84 365.68,31.89 365.68,35.9 C365.68,40.4 364.95,44.71 363.49,48.84 C362.03,52.97 359.92,56.63 357.16,59.82 C354.39,63.01 350.96,65.56 346.86,67.47 C342.77,69.39 338.08,70.35 332.79,70.35 Z M332.79,10.84 C329.63,10.84 326.87,11.51 324.5,12.84 C322.13,14.18 320.14,16 318.53,18.31 C316.92,20.62 315.7,23.29 314.89,26.33 C314.07,29.37 313.66,32.56 313.66,35.9 C313.66,39.06 314.07,42.14 314.89,45.15 C315.71,48.16 316.92,50.83 318.53,53.17 C320.14,55.51 322.13,57.39 324.5,58.82 C326.87,60.25 329.63,60.96 332.79,60.96 C335.28,60.96 337.68,60.4 339.99,59.27 C342.3,58.15 344.33,56.52 346.1,54.39 C347.86,52.27 349.27,49.65 350.34,46.55 C351.4,43.45 351.94,39.9 351.94,35.89 C351.94,32.31 351.5,28.98 350.62,25.91 C349.74,22.84 348.48,20.2 346.84,17.98 C345.2,15.77 343.19,14.02 340.83,12.74 C338.44,11.48 335.77,10.84 332.79,10.84 Z" id="Shape" fill="#2B9AD2"></path>
            <path d="M384.37,69.07 L370.43,69.07 L388.47,39.45 C389.02,40.24 389.66,41.27 390.38,42.55 C391.11,43.83 391.7,45.21 392.16,46.7 C392.62,48.19 392.86,49.74 392.89,51.35 C392.92,52.96 392.54,54.46 391.75,55.86 L384.37,69.07 Z M371.43,2.82 L385.83,2.82 L397.04,24.6 L397.95,27.43 L398.68,24.6 L409.89,2.82 L424.2,2.82 L404.42,35.54 L425.2,69.08 L411.07,69.08 L371.43,2.82 Z" id="Shape" fill="#1F9CD3"></path>
        </g>
    </g>
</svg>