<?xml version="1.0" encoding="UTF-8" standalone="no"?>
<!DOCTYPE svg PUBLIC "-//W3C//DTD SVG 1.1//EN" "http://www.w3.org/Graphics/SVG/1.1/DTD/svg11.dtd">
<svg width="128px" height="37px" viewBox="0 0 128 37" version="1.1" xmlns="http://www.w3.org/2000/svg" xmlns:xlink="http://www.w3.org/1999/xlink">
    <g id="Polytan" fill="#888887">
        <path d="M110.565493,18.9823299 L110.565493,27.061882 L117.763194,27.061882 L117.763194,17.9169811 C117.763194,16.2452847 117.990381,15.2950716 119.168639,15.2950716 C120.385274,15.2950716 120.574426,16.2452847 120.574426,17.9169811 L120.574426,27.061882 L128,27.061882 L128,18.9823299 C128,16.055105 127.924613,13.4350802 126.248462,10.9305338 C124.686762,8.57830254 122.135099,7.21226423 119.244882,7.21226423 C115.149679,7.21226423 112.118455,9.67894598 111.020211,14.0051052 C110.565493,15.7501322 110.565493,17.3861914 110.565493,18.9823299" id="N"></path>
        <path d="M107.525702,27.062396 L107.525702,19.3715986 C107.525702,17.3219415 107.411937,15.2337344 106.353099,12.8407259 C104.760901,9.34895855 101.389752,7.22408621 97.3601702,7.22408621 C94.6572201,7.22408621 92.1833424,8.24831511 90.272465,10.1840358 C88.4350895,12.0443699 87.4231966,14.5502869 87.4231966,17.208005 C87.4231966,22.8637086 91.7712865,27.251655 97.3219629,27.251655 C97.7787368,27.2539463 98.3124392,27.2157391 98.8826355,27.1773605 L98.8826355,19.6620081 C98.3124392,19.889367 97.8553226,20.0029608 97.4364134,20.0029608 C95.8375334,20.0029608 94.6203835,18.8291582 94.6203835,17.2004663 C94.6203835,15.6858823 95.8755694,14.3976292 97.4364134,14.3976292 C99.796526,14.3976292 100.329029,16.1774368 100.329029,19.3210554 L100.329029,27.062396 L107.525702,27.062396" id="A"></path>
        <path d="M85.3834768,15.9154686 L85.3834768,7.73123201 L82.194455,7.73123201 L82.194455,0.506974459 L74.7699091,0.506974459 L74.7699091,17.1523218 C74.7699091,23.5209421 78.8436947,27.5678285 84.3585626,27.5678285 C84.7002006,27.5678285 85.0414961,27.5678285 85.3834768,27.5309919 L85.3834768,19.738594 L84.9270456,19.738594 C83.1049187,19.738594 82.155905,18.6895218 82.155905,16.5898354 C82.155905,16.4032537 82.155905,16.1400862 82.194455,15.9154686 L85.3834768,15.9154686" id="T"></path>
        <path d="M64.6223673,7.71803936 L64.6223673,16.8530029 C64.6223673,18.5390914 64.394323,19.4976997 63.216237,19.4976997 C62.0004578,19.4976997 61.8116488,18.5390914 61.8116488,16.8530029 L61.8116488,7.71803936 L54.3845329,7.71803936 L54.3845329,19.3815359 C54.3845329,24.4576198 56.8602953,27.0512594 60.706208,27.0512594 C62.1911515,27.0512594 63.4447953,26.5249243 64.6223673,25.3978955 C64.394323,28.2648113 62.4186817,29.988593 59.4501655,29.988593 C58.6884188,29.988593 58.0416366,29.8314806 57.3180972,29.4398132 L57.3180972,35.9741126 C58.2695095,36.2742881 59.1832286,36.4250612 60.1737049,36.4250612 C66.7056057,36.4250612 71.8190402,31.8333358 71.8190402,24.8715605 L71.8190402,7.71803936 L64.6223673,7.71803936" id="Y"></path>
        <polygon id="L" points="44.2885623 27.061882 51.4852352 27.061882 51.4852352 0 44.2885623 0"></polygon>
        <path d="M21.7517572,17.4093213 C21.7517572,20.116726 22.81505,22.622643 24.7500853,24.559049 C26.68632,26.4940843 29.192237,27.5566918 31.900327,27.5566918 C34.5693531,27.5566918 37.150828,26.4940843 39.086206,24.559049 C41.0227833,22.622643 42.0860761,20.116726 42.0860761,17.4093213 C42.0860761,14.7387533 41.0227833,12.1963423 39.086206,10.259765 C37.112278,8.28635105 34.5314885,7.22340088 31.900327,7.22340088 C28.5091322,7.22340088 25.3958396,8.894412 23.4599476,11.8166683 C22.3205829,13.5241734 21.7517572,15.4545827 21.7517572,17.4093213 M29.3054881,17.4093213 C29.3054881,15.9428818 30.4714095,14.7773032 31.900327,14.7773032 C33.3287305,14.7773032 34.5314885,15.9809178 34.5314885,17.4093213 C34.5314885,18.8377249 33.3287305,20.0029608 31.900327,20.0029608 C30.4714095,20.0029608 29.3054881,18.8377249 29.3054881,17.4093213" id="O"></path>
        <path d="M-0.0102799823,36.4250612 L7.18622161,36.4250612 L7.18622161,19.4235125 C7.18622161,16.2147874 7.71752536,14.3983145 10.07147,14.3983145 C11.627174,14.3983145 12.8801325,15.7131242 12.8801325,17.2585482 C12.8801325,18.92065 11.6653812,20.1191246 10.07147,20.1191246 C9.65324602,20.1191246 9.19852814,20.0029608 8.62884579,19.7708046 L8.62884579,27.240411 C9.19852814,27.277419 9.72931789,27.3157976 10.1852351,27.3157976 C15.7655522,27.3157976 20.2066758,22.9438924 20.2066758,17.2585482 C20.2066758,14.5525142 19.1815903,12.0440272 17.3210848,10.1840358 C15.3853641,8.24814378 12.8419252,7.22374355 10.1475418,7.22374355 C5.48231455,7.22374355 1.84559948,9.95582017 0.520338436,14.6302994 C0.0279272852,16.2924012 -0.0102799823,17.9546744 -0.0102799823,19.6162622 L-0.0102799823,36.4250612" id="P"></path>
    </g>
</svg>