<?xml version="1.0" standalone="no"?>
<!DOCTYPE svg PUBLIC "-//W3C//DTD SVG 20010904//EN" "http://www.w3.org/TR/2001/REC-SVG-20010904/DTD/svg10.dtd">
<svg width="198px" height="41px" viewBox="0 0 198 41" version="1.1" xmlns="http://www.w3.org/2000/svg" xmlns:xlink="http://www.w3.org/1999/xlink">
    <g id="Pool-Partner" stroke="none" stroke-width="1" fill="none" fill-rule="evenodd">
        <g id="Quantum" fill="#000105">
            <path d="M41.165,41.37 L34.951,35.107 C38.628,31.422 40.855,26.212 40.855,20.685 C40.855,9.317 31.585,-5.68434189e-14 20.401,-5.68434189e-14 C9.216,-5.68434189e-14 0,9.317 0,20.685 C0,32.476 9.114,41.37 20.401,41.37 C24.027,41.37 28.169,40.16 31.378,38.001 L34.641,41.37 L41.165,41.37 Z M25.373,25.265 L18.589,25.265 L27.598,34.266 C25.373,35.58 22.627,36.264 20.401,36.264 C12.221,36.264 5.282,29.475 5.282,20.685 C5.282,12.212 11.547,5.105 20.401,5.105 C29.307,5.105 35.521,12.212 35.521,20.685 C35.521,24.318 34.175,28.632 31.327,31.265 L25.373,25.265 Z M45.048,15.896 L45.048,30.475 C45.048,36.791 48.931,41.37 55.92,41.37 C62.912,41.37 66.846,36.791 66.846,30 L66.846,15.896 L61.773,15.896 L61.773,30.16 C61.773,34.791 58.82,36.528 55.92,36.528 C53.022,36.528 50.069,34.791 50.069,30.107 L50.069,15.896 L45.048,15.896 Z M82.742,36.739 C78.187,36.739 75.597,32.844 75.597,28.264 C75.597,23.686 78.187,19.791 82.742,19.791 C87.298,19.791 89.888,23.528 89.888,28.264 C89.888,33.001 87.298,36.739 82.742,36.739 L82.742,36.739 Z M94.547,15.896 L89.629,15.896 L89.629,19.527 C87.662,16.79 85.279,15.16 81.862,15.16 C74.768,15.16 70.521,21.475 70.521,28.423 C70.521,35.423 74.614,41.37 82.018,41.37 C85.228,41.37 87.713,39.687 89.525,37.161 L89.629,40.528 L94.547,40.528 L94.547,15.896 Z M105.266,15.896 L100.242,15.896 L100.242,40.528 L105.266,40.528 L105.266,29.211 C105.266,22.528 107.285,19.791 111.168,19.791 C114.274,19.791 115.879,21.632 115.879,26.476 L115.879,40.528 L120.954,40.528 L120.954,25.895 C120.954,19.844 118.83,15.16 112.462,15.16 C109.614,15.16 106.922,16.422 105.368,19.316 L105.266,15.896 Z M131.103,20.738 L135.556,20.738 L135.556,15.896 L131.103,15.896 L131.103,6.685 L126.027,6.685 L126.027,40.528 L131.103,40.528 L131.103,20.738 Z M138.609,15.896 L138.609,30.475 C138.609,36.791 142.08,41.37 149.069,41.37 C156.06,41.37 159.581,36.791 159.581,30.475 L159.581,15.896 L154.506,15.896 L154.506,29.581 C154.506,34.791 151.969,36.528 149.069,36.528 C146.17,36.528 143.633,34.791 143.633,30.107 L143.633,15.896 L138.609,15.896 Z M169.573,15.896 L164.551,15.896 L164.551,40.528 L169.624,40.528 L169.624,28.423 C169.624,22.528 171.644,19.791 174.648,19.791 C177.496,19.791 178.738,22.053 178.738,25.844 L178.738,40.528 L183.813,40.528 L183.813,27.842 C183.813,22.528 185.884,19.791 188.783,19.791 C192.513,19.791 192.925,23.632 192.925,26.633 L192.925,40.528 L198,40.528 L198,25.844 C198,20.212 195.671,15.16 189.974,15.16 C186.66,15.16 184.228,16.739 182.467,19.844 C181.328,16.685 178.789,15.16 176.15,15.16 C173.404,15.16 171.023,16.739 169.678,19.316 L169.573,15.896 L169.573,15.896 Z" id="Quantum_Logo_RGB_black_Schutzzone"></path>
        </g>
    </g>
</svg>