<?xml version="1.0" encoding="UTF-8" standalone="no"?>
<!DOCTYPE svg PUBLIC "-//W3C//DTD SVG 1.1//EN" "http://www.w3.org/Graphics/SVG/1.1/DTD/svg11.dtd">
<svg width="945px" height="260px" viewBox="0 0 945 260" version="1.1" xmlns="http://www.w3.org/2000/svg" xmlns:xlink="http://www.w3.org/1999/xlink">
    <g id="Pool-Partner" stroke="none" stroke-width="1" fill="none" fill-rule="evenodd">
        <g id="Artboard" fill="#231F20" fill-rule="nonzero">
            <path d="M924.66931,240.412666 C924.66931,242.613999 923.96931,244.424666 922.587977,245.864666 C921.20531,247.307333 919.374644,248.021999 917.127977,248.021999 C914.895977,248.021999 913.081311,247.307333 911.693311,245.885999 C910.309311,244.463333 909.635977,242.631333 909.635977,240.412666 C909.635977,238.312666 910.346644,236.516666 911.811977,235.016666 C913.267977,233.512666 915.043977,232.755333 917.127977,232.755333 C919.338644,232.755333 921.166644,233.476666 922.570644,234.906 C923.966644,236.348666 924.66931,238.19 924.66931,240.412666 M937.254643,240.637999 C937.254643,238.635333 937.363977,235.662 937.619977,231.707333 C937.85731,227.747333 937.986643,224.77 937.986643,222.807333 C937.986643,221.760667 937.515977,221.202 936.603977,221.124667 C933.366643,220.892667 929.658643,220.77 925.474644,220.77 C924.978644,220.77 924.64531,221.515333 924.48131,223.038 C924.319977,224.536667 924.114644,225.302 923.862644,225.346 C923.66931,225.235333 923.398644,225.007333 923.059977,224.679333 C920.122644,221.726 917.015977,220.25 913.679977,220.25 C908.590644,220.25 904.385311,222.251333 901.049311,226.264667 C897.893311,230.000666 896.317311,234.474 896.317311,239.674 C896.317311,245.672666 897.945311,250.505999 901.213311,254.188666 C904.593311,257.972666 909.239977,259.876666 915.14131,259.876666 C919.218644,259.876666 922.46131,258.428666 924.835977,255.559332 C924.94531,255.431332 925.030644,255.367332 925.106644,255.367332 C925.343977,255.367332 925.63331,256.000666 925.923977,257.291332 C926.215977,258.571332 926.575977,259.216666 927.007977,259.216666 C927.966643,259.216666 929.802643,258.933999 932.502643,258.399332 C935.083977,257.852666 936.931977,257.403332 938.035977,257.029999 C938.439977,256.873999 938.638643,256.673999 938.638643,256.408666 C938.638643,256.300666 938.587977,256.036666 938.52131,255.589999 C937.671977,250.877999 937.254643,245.900666 937.254643,240.637999" id="a" transform="translate(917.477977, 240.063333) scale(1, -1) translate(-917.477977, -240.063333) "></path>
            <path d="M851.421845,252.422665 C851.421845,247.890666 848.883179,245.631999 843.779179,245.631999 C841.589846,245.631999 839.776512,246.203999 838.337846,247.345332 C836.785846,248.598666 836.008512,250.294666 836.008512,252.422665 C836.008512,254.453332 836.812512,256.123999 838.429846,257.433332 C839.908512,258.617332 841.689846,259.219999 843.779179,259.219999 C845.804512,259.219999 847.560512,258.613332 849.044512,257.389332 C850.621845,256.085332 851.421845,254.429332 851.421845,252.422665 M850.405845,223.432 C850.405845,221.534666 850.441845,218.704 850.508512,214.936 C850.583179,211.169333 850.616512,208.353333 850.616512,206.482667 C850.616512,205.946667 850.304512,205.622667 849.652512,205.522667 C848.761845,205.357333 846.780512,205.28 843.713846,205.28 C840.592512,205.28 838.593846,205.357333 837.720512,205.522667 C837.147179,205.622667 836.803179,205.785333 836.653846,206.032 C836.609846,206.133333 836.593846,206.506667 836.593846,207.2 C836.593846,208.990667 836.636512,211.682667 836.697846,215.294666 C836.765846,218.896 836.803179,221.606666 836.803179,223.432 C836.803179,230.823999 836.520512,236.707999 835.931179,241.081332 C835.895179,241.489332 835.863179,241.761332 835.863179,241.890666 C835.863179,242.414666 836.207179,242.678666 836.924512,242.678666 C837.637846,242.678666 838.761846,242.601332 840.252512,242.442666 C841.741846,242.289332 842.861846,242.207999 843.637846,242.207999 C844.379179,242.207999 845.501846,242.282666 847.016512,242.399999 C848.525845,242.539999 849.652512,242.601332 850.409845,242.601332 C851.029845,242.601332 851.352512,242.341332 851.352512,241.826666 C851.352512,241.705332 851.324512,241.467999 851.273845,241.081332 C850.681845,236.005333 850.405845,230.126666 850.405845,223.432" id="i" transform="translate(843.642512, 232.249999) scale(1, -1) translate(-843.642512, -232.249999) "></path>
            <path d="M788.899047,227.936666 C788.899047,220.824666 788.921714,215.362 788.97238,211.563333 C788.97238,210.952666 788.999047,209.944667 789.08438,208.471333 C789.151047,207.15 789.18438,206.118 789.18438,205.402 C789.18438,204.840667 788.86838,204.511333 788.211047,204.416667 C787.025714,204.203333 784.927047,204.11 781.887047,204.11 C778.751047,204.11 776.779047,204.203333 775.915047,204.416667 C775.345714,204.540667 775.012381,204.900667 774.929714,205.472667 L774.929714,207.15 C774.929714,209.468667 774.964381,212.936666 775.012381,217.571333 C775.048381,222.187333 775.085714,225.637999 775.085714,227.936666 C775.085714,238.875332 775.085714,243.868666 775.128381,242.905999 C775.048381,248.649999 774.709714,253.613999 774.148381,257.781999 C774.101714,258.063332 774.065714,258.295332 774.065714,258.435332 C774.065714,259.019332 774.412381,259.305999 775.085714,259.305999 L789.08438,259.305999 C789.751047,259.305999 790.02038,259.023332 789.983047,258.487332 L789.94838,257.781999 C789.24438,246.527332 788.899047,236.577999 788.899047,227.936666" id="l" transform="translate(782.026075, 231.707999) scale(1, -1) translate(-782.026075, -231.707999) "></path>
            <path d="M714.305315,240.412666 C714.305315,242.613999 713.598649,244.424666 712.206649,245.864666 C710.815982,247.307333 708.987982,248.021999 706.770649,248.021999 C704.519982,248.021999 702.701316,247.307333 701.314649,245.885999 C699.938649,244.463333 699.249316,242.631333 699.249316,240.412666 C699.249316,238.312666 699.969316,236.516666 701.439982,235.016666 C702.905316,233.512666 704.675982,232.755333 706.770649,232.755333 C708.962649,232.755333 710.793316,233.476666 712.191982,234.906 C713.598649,236.348666 714.305315,238.19 714.305315,240.412666 M726.877315,240.637999 C726.877315,238.635333 727.006648,235.662 727.249315,231.707333 C727.479982,227.747333 727.613315,224.77 727.613315,222.807333 C727.613315,221.760667 727.153315,221.202 726.242649,221.124667 C722.990649,220.892667 719.285315,220.77 715.099982,220.77 C714.610649,220.77 714.270649,221.515333 714.103982,223.038 C713.937315,224.536667 713.726649,225.302 713.497315,225.346 C713.295982,225.235333 713.019982,225.007333 712.682649,224.679333 C709.751982,221.726 706.630649,220.25 703.301316,220.25 C698.227983,220.25 694.014649,222.251333 690.693316,226.264667 C687.521316,230.000666 685.95065,234.474 685.95065,239.674 C685.95065,245.672666 687.573316,250.505999 690.845316,254.188666 C694.231983,257.972666 698.878649,259.876666 704.766649,259.876666 C708.839982,259.876666 712.081316,258.428666 714.463982,255.559332 C714.578649,255.431332 714.661315,255.367332 714.741315,255.367332 C714.970649,255.367332 715.247982,256.000666 715.543982,257.291332 C715.843982,258.571332 716.215982,259.216666 716.639982,259.216666 C717.602649,259.216666 719.423982,258.933999 722.131982,258.399332 C724.705315,257.852666 726.553315,257.403332 727.675982,257.029999 C728.073315,256.873999 728.258648,256.673999 728.258648,256.408666 C728.258648,256.300666 728.222648,256.036666 728.146648,255.589999 C727.301315,250.877999 726.877315,245.900666 726.877315,240.637999" id="a" transform="translate(707.104649, 240.063333) scale(1, -1) translate(-707.104649, -240.063333) "></path>
            <path d="M643.049451,245.077333 C643.049451,244.063999 642.490784,243.555999 641.365451,243.555999 C640.869451,243.555999 640.142784,243.601333 639.192117,243.662666 C638.238784,243.726666 637.530784,243.753333 637.058784,243.753333 C634.902784,243.753333 633.426784,243.417333 632.650784,242.739999 C631.872118,242.055999 631.472118,240.694666 631.472118,238.634666 C631.472118,237.516 631.494784,235.8 631.533451,233.530666 C631.577451,231.245333 631.592118,229.537333 631.592118,228.42 C631.592118,227.664 631.640118,226.54 631.748118,225.042667 C631.872118,223.526667 631.910784,222.425333 631.910784,221.697333 C631.910784,221.062667 631.484118,220.712 630.629451,220.632 C629.378784,220.529333 627.464118,220.48 624.880118,220.48 C622.401451,220.48 620.436118,220.549333 618.944118,220.712 C618.085451,220.806667 617.649451,221.245333 617.649451,222.012 C617.649451,224.090667 617.672118,227.197333 617.694785,231.354666 C617.721451,235.506666 617.737451,238.634666 617.737451,240.710666 C617.737451,246.842666 617.181451,251.874666 616.060118,255.839999 C616.008118,256.078666 615.993451,256.269332 615.993451,256.427999 C615.993451,256.818666 616.181451,257.070666 616.574785,257.205332 C617.997451,257.369332 620.096118,257.637332 622.857451,258.046666 C626.965451,258.845332 629.096118,259.233332 629.226784,259.233332 C629.697451,259.233332 629.993451,258.434666 630.109451,256.798666 C630.253451,255.170666 630.488118,254.362666 630.826784,254.362666 C630.453451,254.362666 631.525451,255.037332 634.016117,256.401332 C636.508117,257.771999 638.910784,258.454666 641.218784,258.454666 C642.670784,258.454666 643.400117,258.126666 643.400117,257.502666 C643.400117,256.759999 643.320117,255.690666 643.182784,254.313332 C643.045451,252.830666 642.952117,251.765333 642.932117,251.115999 C642.932117,250.357333 642.938784,249.363999 642.966784,248.126666 C643.012117,246.578666 643.049451,245.582666 643.049451,245.077333" id="r" transform="translate(629.696784, 239.856666) scale(1, -1) translate(-629.696784, -239.856666) "></path>
            <path d="M573.092386,220.508666 C573.092386,219.732666 573.008386,218.523333 572.804386,216.936666 C572.599052,215.347333 572.521719,214.176667 572.521719,213.436667 C572.521719,212.694 572.439052,212.211333 572.272386,212.014 C572.123052,211.803333 571.693719,211.502 570.988386,211.102 C567.629719,209.248667 563.908386,208.33 559.801719,208.33 C552.295053,208.33 548.543053,211.203333 548.524386,216.964666 C548.524386,218.680666 548.587053,221.275333 548.703053,224.726 C548.83372,228.179333 548.891053,230.765999 548.891053,232.488666 C548.891053,233.631333 548.22172,234.203333 546.900386,234.203333 L546.395053,234.203333 C546.14972,234.171333 545.98572,234.164666 545.891053,234.164666 C544.90172,234.164666 544.40572,234.523333 544.40572,235.219333 C544.40572,235.636666 544.42972,236.273999 544.50972,237.121999 C544.564386,237.992666 544.59372,238.617999 544.59372,239.045999 C544.59372,239.577999 544.564386,240.420666 544.50972,241.537999 C544.42972,242.655332 544.40572,243.484666 544.40572,244.032666 C544.40572,244.548666 545.235053,244.840666 546.916386,244.895332 C547.85372,244.921999 548.36172,245.187332 548.432386,245.675332 C548.596386,246.665999 548.648386,248.228666 548.596386,250.371332 C548.499053,253.743332 548.432386,255.337999 548.432386,255.189999 C548.432386,258.208665 548.735053,259.721999 549.291053,259.721999 C550.00572,259.721999 550.992386,259.572665 552.295053,259.256665 C553.773719,258.909999 554.800386,258.701999 555.373719,258.665999 C556.689719,258.476665 558.687053,258.208665 561.361719,257.920665 C562.017719,257.861999 562.341719,257.637999 562.341719,257.249999 C562.341719,256.205999 562.248386,254.635332 562.085719,252.520666 C561.919053,250.411332 561.835053,248.816666 561.835053,247.752666 C561.835053,246.468666 562.205719,245.844666 562.965719,245.844666 C563.873719,245.844666 565.265719,245.868666 567.131052,245.955332 C568.981719,246.027332 570.392386,246.081999 571.325719,246.081999 C571.891052,246.081999 572.189719,245.868666 572.189719,245.489999 C572.189719,244.884666 572.119052,243.979332 571.988386,242.788666 C571.853719,241.585999 571.800386,240.700666 571.800386,240.089999 C571.800386,239.465999 571.815052,238.561999 571.816386,237.353999 C571.853719,236.148666 571.872386,235.236666 571.872386,234.625999 C571.872386,234.071333 571.495052,233.797999 570.735052,233.797999 C570.211052,233.797999 569.344386,233.816666 568.109719,233.855333 C566.889719,233.885999 566.008386,233.924666 565.492386,233.924666 L562.553719,233.924666 C562.175053,233.924666 561.971053,233.349999 561.971053,232.199333 L561.971053,229.439333 C562.001719,228.179333 562.017719,227.252666 562.017719,226.662 C562.017719,224.480666 562.272386,222.974 562.753719,222.134 C563.469719,221.019333 564.844386,220.462 566.908386,220.462 C567.573719,220.462 568.491052,220.622 569.715052,220.916666 C570.917719,221.215333 571.777719,221.368666 572.272386,221.368666 C572.832386,221.368666 573.092386,221.075333 573.092386,220.508666" id="t" transform="translate(558.749053, 234.025999) scale(1, -1) translate(-558.749053, -234.025999) "></path>
            <path d="M501.285187,251.357333 C501.285187,251.106666 501.081187,250.746666 500.689187,250.305333 C499.973188,250.498666 499.235854,250.581333 498.514521,250.581333 C496.971854,250.581333 495.689188,250.242666 494.642521,249.563999 C493.405188,248.785333 492.774521,247.670666 492.774521,246.249333 C492.774521,245.330666 493.437188,244.173333 494.773188,242.762666 C496.773188,240.645333 498.022521,239.239999 498.481188,238.501333 C499.818521,236.524 500.478521,234.408 500.478521,232.137333 C500.478521,230.808 500.218521,229.385333 499.705188,227.92 C499.102521,226.278666 498.355854,225.070666 497.430521,224.314667 C495.506521,222.645333 493.249188,221.244 490.662521,220.096 C487.879854,218.888 485.298521,218.3 482.954521,218.3 C482.437188,218.3 481.283855,219.718667 479.487855,222.522667 C477.677188,225.342666 476.778521,227.06 476.778521,227.681333 C476.778521,227.92 476.925188,228.06 477.217188,228.112 C479.035855,228.461333 480.866521,228.790666 482.729188,229.146666 C485.018521,229.873333 486.159855,231.078666 486.159855,232.765333 C486.159855,233.904 485.495855,235.238666 484.166521,236.746666 C481.791855,239.373333 480.555855,240.770666 480.443855,240.929333 C479.122521,242.8 478.455855,244.790666 478.455855,246.875999 C478.455855,250.775999 480.419855,254.093332 484.379855,256.833332 C487.929188,259.261332 491.727854,260.463999 495.753188,260.463999 C496.174521,260.463999 497.203854,259.069332 498.831854,256.274666 C500.457187,253.462666 501.285187,251.830666 501.285187,251.357333" id="s" transform="translate(489.031854, 239.381999) scale(1, -1) translate(-489.031854, -239.381999) "></path>
            <path d="M432.022789,257.719332 C432.022789,255.773999 431.930789,252.897999 431.733456,249.036666 C431.541456,245.200666 431.434789,242.303333 431.434789,240.380666 C431.434789,238.51 431.501456,235.700666 431.626789,231.952666 C431.746789,228.207333 431.812123,225.412667 431.812123,223.560667 C431.812123,222.863333 431.478789,222.414 430.830789,222.246 C429.846789,221.971333 427.753456,221.85 424.561456,221.85 C421.730789,221.85 419.756123,221.922 418.632123,222.080667 C418.140123,222.160667 417.833456,222.478 417.708123,223.022 C417.613456,223.803333 417.548123,224.592667 417.45879,225.376667 C417.328123,226.584667 417.144123,227.192667 416.900123,227.192667 C417.265456,227.192667 415.948123,226.304667 412.968123,224.523333 C409.96679,222.762 407.245456,221.872667 404.789457,221.872667 C397.889457,221.872667 393.808123,224.962 392.53479,231.186 C391.95079,234.075333 391.680124,238.255333 391.680124,243.733999 C391.680124,249.661999 392.164124,254.347333 393.140124,257.777999 C393.421457,258.845999 393.92679,259.376666 394.729457,259.376666 C395.929457,259.376666 397.757457,259.357999 400.193457,259.341999 C402.632123,259.303332 404.46279,259.303332 405.664123,259.303332 C406.45479,259.303332 406.86679,258.955332 406.86679,258.292666 C406.86679,258.096666 406.84679,257.820666 406.777456,257.475332 C406.25879,253.927333 405.996123,250.339333 405.996123,246.695333 C405.996123,242.175333 406.13479,239.087333 406.420123,237.426 C406.89879,234.564666 408.597456,233.131333 411.529456,233.131333 C412.661456,233.131333 413.924123,233.636666 415.252123,234.668666 C416.596123,235.700666 417.28279,236.755333 417.333456,237.83 C417.385456,238.807333 417.416123,245.316666 417.416123,257.403332 C417.416123,258.257999 417.484123,258.753999 417.613456,258.917999 C417.773456,259.172666 418.23479,259.303332 419.021456,259.303332 C420.301456,259.303332 422.226789,259.287332 424.809456,259.271332 C427.365456,259.233999 429.294789,259.216666 430.570789,259.216666 C431.356123,259.216666 431.824123,259.028666 431.940123,258.639332 C431.992123,258.435332 432.022789,258.117999 432.022789,257.719332" id="u" transform="translate(411.851456, 240.613333) scale(1, -1) translate(-411.851456, -240.613333) "></path>
            <path d="M320.417992,240.131332 C319.867325,238.997999 318.927325,236.499333 317.617992,232.675333 C316.252659,228.608666 315.563325,226.209999 315.563325,225.507333 C315.563325,225.041999 316.335325,224.781999 317.885992,224.731333 C318.685992,224.673999 319.995325,224.657999 321.836659,224.657999 C323.528659,224.657999 324.472659,224.868666 324.661992,225.267333 C324.717992,225.403333 324.732659,225.587333 324.732659,225.808666 C324.732659,226.687333 324.148659,229.056666 322.989992,232.943333 C321.829992,236.696666 320.963325,239.085999 320.417992,240.131332 M348.115325,204.562 C348.115325,204.076667 347.787325,203.762 347.131325,203.576667 C346.345991,203.363333 343.937991,203.27 339.868658,203.27 C336.143325,203.27 333.764658,203.363333 332.689992,203.576667 C331.792658,203.762 331.255325,204.356667 331.029992,205.35 C330.197992,209.119333 329.549992,211.148666 329.084658,211.408666 C328.663325,211.563333 325.148659,211.648666 318.583325,211.648666 C314.125992,211.648666 311.771326,211.499333 311.477992,211.252666 C311.027326,210.83 310.505992,209.443333 309.943326,207.088667 C309.441992,204.926 308.835326,203.762 308.121992,203.576667 C307.248659,203.363333 304.275326,203.27 299.231326,203.27 C295.244659,203.27 293.252659,203.638 293.252659,204.386 C293.252659,205.062 296.177993,213.383333 302.036659,229.348666 C308.388659,246.607332 311.828659,256.107332 312.379326,257.819332 C312.701992,258.791332 313.057992,259.305999 313.484659,259.305999 C314.183325,259.305999 315.280659,259.225999 316.753992,259.089999 C318.229992,258.967332 319.339325,258.895332 320.060659,258.895332 C320.767325,258.895332 321.816659,258.947332 323.188659,259.040665 C324.560659,259.128665 325.589992,259.175332 326.257992,259.175332 C326.764658,259.175332 327.223325,258.740665 327.631325,257.905999 C328.907325,255.161999 332.633992,245.783332 338.804658,229.792666 C345.016658,213.67 348.115325,205.259333 348.115325,204.562" id="A" transform="translate(320.683992, 231.287999) scale(1, -1) translate(-320.683992, -231.287999) "></path>
            <path d="M886.469978,137.825877 C884.728645,142.69921 881.449978,146.35921 876.656645,148.817876 C871.849978,151.26721 867.047312,151.633876 862.203312,149.916543 C857.201979,148.153876 853.847312,144.585876 852.080645,139.26321 C850.425979,134.34321 850.544645,129.288543 852.384645,124.097877 C853.145979,121.965877 854.628645,121.29521 856.851312,122.089877 C862.701978,124.180544 871.496645,128.325877 883.219311,134.548543 C885.691311,135.868543 886.780644,136.95521 886.469978,137.825877 M930.804643,145.381876 C933.653977,137.37521 932.700643,131.89921 927.921977,128.95921 C927.121977,128.47921 919.21931,124.701877 904.219311,117.576544 C895.228644,113.217877 881.695311,107.007211 863.631312,98.9685442 C866.563312,94.1845443 871.344645,91.4645444 877.956645,90.7592111 C883.360645,90.1712111 888.991311,90.9085444 894.877978,93.003211 C901.947311,95.5165443 908.375311,99.9192108 914.192644,106.220544 C916.549977,109.171211 918.89531,112.109877 921.236644,115.06721 C923.192644,114.864544 927.440643,111.813877 933.97131,105.945877 C940.481976,100.049877 944.116643,96.1232109 944.820643,94.1525443 C945.02331,93.5818777 944.72331,92.467211 944.004643,90.7658777 C937.98731,76.9565447 924.777977,66.4032117 904.377977,59.1352119 C885.461978,52.4138787 868.247312,52.5018787 852.727312,59.4045452 C836.827312,66.364545 825.552646,79.1885447 818.876646,97.9245442 C812.395313,116.177877 812.395313,133.02721 818.876646,148.47121 C825.539313,164.435209 837.927312,175.629876 856.037979,182.080542 C871.279312,187.513875 886.191311,186.555209 900.773977,179.257876 C915.353977,171.960542 925.361977,160.661876 930.804643,145.381876" id="e" transform="translate(879.449140, 119.854241) scale(1, -1) translate(-879.449140, -119.854241) "></path>
            <path d="M800.097047,141.397998 C800.011713,141.397998 797.47438,142.064664 792.48638,143.373998 C787.49838,144.721998 783.433047,145.367331 780.329047,145.367331 C772.858381,145.367331 766.906381,143.124664 762.457048,138.635331 C758.010381,134.13 755.795714,128.141998 755.795714,120.660665 C755.795714,112.923332 758.230381,106.851332 763.103714,102.431332 C767.971714,98.0273323 774.303714,95.8046656 782.14238,95.8046656 C785.835714,95.8046656 789.983714,96.753999 794.61038,98.6326656 C799.227713,100.491332 801.429047,101.425999 801.169047,101.425999 C802.59438,101.425999 804.46638,96.0793323 806.759713,85.4006659 C808.697046,75.6446662 809.683713,69.167333 809.683713,65.9659997 C809.683713,62.7793331 804.46638,60.0513332 794.03438,57.7659999 C785.94638,56.006 779.414381,55.13 774.458381,55.13 C755.926381,55.13 740.653048,61.3553332 728.625048,73.8193329 C716.603715,86.2886659 710.570382,101.833999 710.570382,120.459332 C710.570382,138.885998 716.613049,154.399331 728.678382,166.988664 C740.753048,179.601997 756.003714,185.885997 774.417047,185.885997 C786.953047,185.885997 797.97038,183.18733 807.485046,177.801997 C809.683713,176.612664 810.769046,175.468664 810.769046,174.384664 C810.769046,173.281997 809.501046,168.301997 806.957046,159.472664 C804.609047,150.949998 803.055713,145.817998 802.329047,144.049998 C801.59838,142.280664 800.861047,141.397998 800.097047,141.397998" id="c" transform="translate(760.669714, 120.507998) scale(1, -1) translate(-760.669714, -120.507998) "></path>
            <path d="M649.162117,137.825877 C647.430117,142.69921 644.159451,146.35921 639.363451,148.817876 C634.559451,151.26721 629.746118,151.633876 624.910118,149.916543 C619.912785,148.153876 616.547451,144.585876 614.775451,139.26321 C613.142118,134.34321 613.247451,129.288543 615.066118,124.097877 C615.848785,121.965877 617.318118,121.29521 619.540785,122.089877 C625.414118,124.180544 634.198117,128.325877 645.930117,134.548543 C648.38345,135.868543 649.476784,136.95521 649.162117,137.825877 M693.506116,145.381876 C696.351449,137.37521 695.395449,131.89921 690.626116,128.95921 C689.810116,128.47921 681.926116,124.701877 666.91145,117.576544 C657.92745,113.217877 644.386117,107.007211 626.331451,98.9685442 C629.286118,94.1845443 634.050117,91.4645444 640.655451,90.7592111 C646.055451,90.1712111 651.69945,90.9085444 657.57545,93.003211 C664.646117,95.5165443 671.08345,99.9192108 676.906116,106.220544 C679.256783,109.171211 681.59545,112.109877 683.94345,115.06721 C685.904783,114.864544 690.142116,111.813877 696.662116,105.945877 C703.206116,100.049877 706.812782,96.1232109 707.522116,94.1525443 C707.712782,93.5818777 707.451449,92.467211 706.707449,90.7658777 C700.692782,76.9565447 687.495449,66.4032117 667.074117,59.1352119 C648.182117,52.4138787 630.951451,52.5018787 615.432785,59.4045452 C599.522118,66.364545 588.247452,79.1885447 581.591452,97.9245442 C575.099452,116.177877 575.099452,133.02721 581.591452,148.47121 C588.247452,164.435209 600.628785,175.629876 618.726118,182.080542 C633.970117,187.513875 648.88345,186.555209 663.47145,179.257876 C678.048783,171.960542 688.074116,160.661876 693.506116,145.381876" id="e" transform="translate(642.152302, 119.854241) scale(1, -1) translate(-642.152302, -119.854241) "></path>
            <path d="M517.322254,137.826449 C515.59292,142.693116 512.323587,146.346449 507.527587,148.811782 C502.715587,151.255782 497.911588,151.630449 493.068921,149.898449 C488.080921,148.137116 484.716921,144.581116 482.954255,139.258449 C481.291588,134.338449 481.410255,129.271783 483.250255,124.093116 C484.004921,121.959783 485.495588,121.29845 487.716921,122.08645 C493.570254,124.16645 502.359587,128.321116 514.08092,134.535783 C516.56092,135.854449 517.635587,136.947783 517.322254,137.826449 M561.668919,145.363782 C564.531586,137.370449 563.566253,131.899783 558.803586,128.95445 C557.979586,128.485116 550.083586,124.68645 535.08892,117.56645 C526.094254,113.205117 512.548921,107.007783 494.486254,98.9717836 C497.448921,94.1904504 502.224921,91.4504505 508.823587,90.7624505 C514.21692,90.1584505 519.86092,90.9064505 525.738254,92.9997838 C532.80092,95.5117837 539.24492,99.9157836 545.066253,106.22245 C547.40492,109.16645 549.76492,112.111783 552.13292,115.065117 C554.063586,114.851783 558.295586,111.811783 564.824919,105.927783 C571.356919,100.04645 574.979586,96.1144504 575.678252,94.1397837 C575.886252,93.5784504 575.595586,92.4637838 574.866252,90.7837838 C568.863586,76.9464508 555.651586,66.3997844 535.24092,59.1397846 C516.339587,52.4051181 499.124921,52.5077848 483.583588,59.4091179 C467.703588,66.3477844 456.427589,79.1944508 449.758255,97.913117 C443.264922,116.173117 443.259589,133.023783 449.752922,148.465116 C456.403589,164.426449 468.779588,175.634448 486.890254,182.071782 C502.147587,187.497115 517.046254,186.555781 531.62892,179.245115 C546.23292,171.954448 556.238253,160.658449 561.668919,145.363782" id="e" transform="translate(510.314732, 119.849480) scale(1, -1) translate(-510.314732, -119.849480) "></path>
            <path d="M390.918657,120.05333 C390.918657,130.32933 387.537324,137.454663 380.79999,141.42533 C375.573324,144.44933 367.390657,145.971996 356.273324,145.971996 C348.263991,145.971996 344.009325,144.74533 343.498658,142.295997 C342.995991,139.443997 342.737325,131.178664 342.737325,117.526664 C342.737325,115.597331 342.770658,112.714664 342.862658,108.915997 C342.959991,105.129331 342.995991,102.298664 342.995991,100.439998 C342.995991,100.023998 344.347991,99.6079976 347.029325,99.181331 C352.170658,98.4239977 357.578658,98.0559977 363.237325,98.0559977 C381.689324,98.0559977 390.918657,105.381331 390.918657,120.05333 M444.082656,6.71333328 C444.082656,6.13199996 443.241322,5.72399997 441.559989,5.47866665 C438.350656,4.98533333 430.295989,4.72 417.39999,4.72 C406.345323,4.72 398.83599,4.98533333 394.874657,5.47866665 C393.014657,5.73066664 391.950657,5.93466664 391.718657,6.12799996 C391.20799,6.38133329 390.613324,7.23733327 389.950657,8.67066657 C388.66799,11.9666665 386.78799,16.8519997 384.337324,23.2986662 C381.00799,31.7213327 375.833324,44.1106657 368.775991,60.4973319 C367.265324,63.8453319 363.797324,65.6999985 358.346658,66.0346651 C360.869324,65.8733318 356.555991,65.7826651 345.418658,65.7826651 C344.158658,65.7826651 343.518658,63.6319985 343.518658,59.341332 C343.518658,53.5999988 344.043991,45.0533323 345.069325,33.6786659 C346.090658,22.2853329 346.609325,13.7479998 346.609325,8.01866658 C346.609325,6.57999995 346.229325,5.73066664 345.467991,5.47866665 C344.285325,5.41733332 343.117325,5.33199998 341.939991,5.23599999 C336.958658,4.89066666 329.191992,4.72 318.673325,4.72 C306.615992,4.72 299.366659,4.98533333 296.917326,5.47866665 C294.473326,5.9893333 293.251993,7.29999994 293.251993,9.39866655 C293.251993,18.6706663 293.695993,32.6493326 294.617326,51.3479988 C295.509326,70.062665 295.978659,84.0933313 295.978659,93.4413311 C295.978659,129.090664 295.150659,156.879996 293.513326,176.849329 L293.382659,178.629329 C293.305326,180.050662 294.617326,181.023996 297.362659,181.534662 C300.101326,182.027996 312.983992,182.539996 336.010658,183.039996 C351.625325,183.387996 364.047991,183.551996 373.337324,183.551996 C392.557324,183.551996 408.238656,179.215996 420.395989,170.531996 C434.150656,160.754663 441.019989,146.647996 441.019989,128.18933 C441.019989,115.898664 439.238656,106.085331 435.693322,98.7466643 C432.143989,91.4133312 425.613323,84.2973313 416.07599,77.3999982 C414.125323,76.0373316 413.162656,74.7679982 413.162656,73.6013316 C413.162656,73.6919983 418.318656,63.0973319 428.625323,41.8613324 C438.943989,20.6079996 444.082656,8.90533323 444.082656,6.71333328" id="R" transform="translate(368.667324, 94.135998) scale(1, -1) translate(-368.667324, -94.135998) "></path>
            <g id="Icon" transform="translate(-0.000000, 0.000000)">
                <path d="M0.352799991,42.6933323 L256.60346,1.42108547e-14 C256.60346,1.42108547e-14 260.800793,10.0866664 262.10346,16.6653329 C262.10346,16.6653329 232.439461,13.9639997 206.074128,20.2799995 C206.074128,20.2799995 228.622128,47.6599988 264.73146,68.130665 C264.73146,68.130665 264.538127,98.4866642 226.523461,136.46933 C226.523461,136.46933 217.8528,113.63733 216.898128,109.823997 C215.943461,106.007997 203.455462,68.562665 177.983462,43.7639989 C177.983462,43.7639989 165.504796,77.8613314 165.980796,115.546664 C165.980796,115.546664 168.434129,154.562663 166.967462,167.553329 C166.967462,167.553329 119.676797,181.835995 67.5807983,155.426663 C67.5807983,155.426663 74.0514648,133.191997 101.711464,103.026664 C101.711464,103.026664 132.556797,72.5986649 143.36613,32.6653325 C143.36613,32.6653325 99.8581308,40.007999 57.1141319,69.5173316 C57.1141319,69.5173316 29.6341326,88.9199978 9.03679977,91.649331 C9.03679977,91.649331 1.4861333,78.875998 0.352799991,42.6933323" id="path78" transform="translate(132.542130, 85.704778) scale(1, -1) translate(-132.542130, -85.704778) "></path>
                <path d="M-1.70530257e-13,253.275106 L253.97866,212.612441 C253.97866,212.612441 249.485327,199.895108 236.917327,184.997775 C236.917327,184.997775 210.106661,194.796441 196.566662,196.669774 C196.566662,196.669774 204.657328,173.319108 211.550661,161.875109 C211.550661,161.875109 193.269329,148.895109 172.326662,143.221776 C172.326662,143.221776 168.621329,168.997775 161.967996,183.949775 C161.967996,183.949775 143.53733,165.472442 131.083997,137.38 C131.083997,137.38 96.8213309,137.056443 65.5253317,153.941775 C65.5253317,153.941775 107.483997,175.459108 134.794663,208.195107 C134.794663,208.195107 100.042664,217.499107 61.0533318,209.099107 C61.0533318,209.099107 23.3373327,200.984441 15.005333,201.817774 C15.005333,201.817774 0.353333324,226.26444 -1.70530257e-13,253.275106" id="path82" transform="translate(126.989330, 195.327553) scale(1, -1) translate(-126.989330, -195.327553) "></path>
            </g>
        </g>
    </g>
</svg>