<?xml version="1.0" encoding="utf-8"?>
<svg width="392px" height="109px" viewBox="0 0 392 109" version="1.1" xmlns="http://www.w3.org/2000/svg" xmlns:xlink="http://www.w3.org/1999/xlink">
    <g id="Page-1" stroke="none" stroke-width="1" fill="none" fill-rule="evenodd">
        <g id="Artboard" fill="#FFFFFF" fill-rule="nonzero">
            <g id="viactiv_white">
                <path d="M233.858344,15.54 C234.548344,14.96 234.638344,13.93 234.058344,13.24 C233.598344,12.69 231.998344,10.95 231.508344,10.47 C224.848344,3.99 215.748344,0 205.728344,0 C185.308344,0 168.748344,16.56 168.748344,36.98 C168.748344,57.4 185.308344,73.96 205.728344,73.96 C214.678344,73.96 222.888344,70.78 229.288344,65.49 C232.748344,62.25 233.588344,61.34 234.058344,60.78 C234.638344,60.09 234.548344,59.06 233.858344,58.48 C233.688344,58.34 227.558344,53.2 227.408344,53.07 C226.718344,52.49 225.688344,52.58 225.108344,53.27 C224.788344,53.65 222.538344,56.35 219.308344,58.33 C215.388344,60.83 210.718344,62.29 205.718344,62.29 C191.738344,62.29 180.408344,50.96 180.408344,36.98 C180.408344,23 191.738344,11.67 205.718344,11.67 C211.688344,11.67 217.178344,13.74 221.508344,17.2 C222.398344,17.91 224.598344,20.14 225.108344,20.74 C225.688344,21.43 226.718344,21.52 227.408344,20.94 C227.448344,20.92 233.808344,15.58 233.858344,15.54" id="Path"></path>
                <path d="M381.038344,99.83 C381.098344,96.72 383.168344,95.69 384.878344,95.69 C388.128344,95.69 388.378344,98.49 388.348344,99.83 L381.038344,99.83 Z M391.028344,101.68 C391.088344,99.38 391.228344,93.81 384.928344,93.81 C384.118344,93.81 382.438344,93.89 381.088344,94.85 C378.878344,96.39 378.318344,98.69 378.318344,101.46 C378.318344,105.91 380.418344,108.66 384.838344,108.66 C387.668344,108.66 389.068344,107.48 389.678344,106.78 C390.688344,105.69 390.798344,104.54 390.878344,103.84 L388.248344,103.84 C388.028344,105.86 386.648344,106.75 384.948344,106.75 C382.068344,106.75 380.858344,104.59 380.918344,101.68 L391.028344,101.68 L391.028344,101.68 Z M358.408344,104.06 C358.378344,107.45 361.038344,108.62 363.898344,108.62 C365.358344,108.62 366.838344,108.42 368.068344,107.67 C369.108344,107.03 369.968344,105.68 369.968344,104.11 C369.968344,103.21 369.688344,102.23 368.908344,101.51 C368.068344,100.73 367.228344,100.5 363.338344,99.58 C362.608344,99.38 361.348344,99.08 361.348344,97.79 C361.348344,95.77 363.808344,95.77 364.208344,95.77 C365.158344,95.77 367.008344,95.94 366.928344,98.07 L369.618344,98.07 C369.618344,97.48 369.618344,96.81 369.258344,96.03 C368.418344,94.35 365.958344,93.85 364.188344,93.85 C360.938344,93.85 358.698344,95.53 358.698344,98.11 C358.698344,101.05 361.158344,101.64 364.098344,102.31 C366.198344,102.79 367.178344,103.04 367.178344,104.41 C367.178344,104.89 367.008344,105.36 366.728344,105.73 C366.168344,106.43 365.358344,106.63 364.268344,106.63 C361.718344,106.63 361.158344,105.15 361.188344,104.08 L358.408344,104.08 L358.408344,104.06 Z M338.758344,104.06 C338.728344,107.45 341.388344,108.62 344.248344,108.62 C345.708344,108.62 347.188344,108.42 348.418344,107.67 C349.458344,107.03 350.318344,105.68 350.318344,104.11 C350.318344,103.21 350.038344,102.23 349.258344,101.51 C348.418344,100.73 347.578344,100.5 343.688344,99.58 C342.958344,99.38 341.698344,99.08 341.698344,97.79 C341.698344,95.77 344.158344,95.77 344.558344,95.77 C345.508344,95.77 347.358344,95.94 347.278344,98.07 L349.968344,98.07 C349.968344,97.48 349.968344,96.81 349.608344,96.03 C348.768344,94.35 346.308344,93.85 344.538344,93.85 C341.288344,93.85 339.048344,95.53 339.048344,98.11 C339.048344,101.05 341.508344,101.64 344.448344,102.31 C346.548344,102.79 347.528344,103.04 347.528344,104.41 C347.528344,104.89 347.358344,105.36 347.078344,105.73 C346.518344,106.43 345.708344,106.63 344.618344,106.63 C342.068344,106.63 341.508344,105.15 341.538344,104.08 L338.758344,104.08 L338.758344,104.06 Z M327.058344,101.4 C326.998344,103.36 326.978344,104.14 326.388344,105.1 C325.748344,106.08 324.738344,106.61 323.388344,106.61 C321.038344,106.61 320.478344,105.07 320.478344,104.17 C320.478344,101.31 324.478344,101.31 325.548344,101.31 C326.188344,101.32 326.578344,101.34 327.058344,101.4 M329.738344,108.23 C329.538344,106.8 329.518344,104.93 329.518344,104.7 L329.628344,97.98 C329.628344,97.34 329.598344,96.66 329.148344,95.82 C328.388344,94.39 326.208344,93.75 324.168344,93.75 C322.688344,93.75 320.698344,94.09 319.628344,95.26 C318.818344,96.21 318.728344,97.19 318.648344,97.92 L321.278344,97.92 C321.308344,97.36 321.448344,95.54 324.108344,95.54 C324.868344,95.54 326.008344,95.76 326.548344,96.46 C327.048344,97.08 327.048344,97.83 327.048344,99.57 C326.238344,99.51 325.818344,99.49 325.148344,99.49 C324.028344,99.49 321.788344,99.57 320.278344,100.41 C318.208344,101.61 317.818344,103.41 317.818344,104.53 C317.818344,106.85 319.558344,108.67 322.778344,108.67 C323.958344,108.67 325.858344,108.45 327.118344,106.12 C327.118344,106.85 327.178344,107.52 327.368344,108.22 L329.738344,108.22 L329.738344,108.23 Z M298.378344,108.23 L300.978344,108.23 L300.978344,100.64 L306.608344,108.23 L310.048344,108.23 L303.748344,100.14 L309.688344,94.18 L306.248344,94.18 L300.988344,99.92 L300.988344,87.88 L298.388344,87.88 L298.388344,108.23 L298.378344,108.23 Z M275.898344,108.23 L278.528344,108.23 L278.528344,100.14 C278.528344,97.31 280.288344,95.94 282.198344,95.94 C283.098344,95.94 284.018344,96.25 284.688344,96.89 C285.328344,97.53 285.448344,98.37 285.448344,99.3 L285.448344,108.23 L288.138344,108.23 L288.138344,98.68 C288.138344,94.37 284.298344,93.89 283.038344,93.89 C279.848344,93.89 278.838344,95.85 278.528344,96.44 L278.498344,94.17 L275.868344,94.17 L275.898344,95.79 L275.898344,108.23 L275.898344,108.23 Z M256.298344,99.83 C256.358344,96.72 258.428344,95.69 260.138344,95.69 C263.388344,95.69 263.638344,98.49 263.608344,99.83 L256.298344,99.83 Z M266.288344,101.68 C266.348344,99.38 266.488344,93.81 260.188344,93.81 C259.378344,93.81 257.698344,93.89 256.348344,94.85 C254.138344,96.39 253.578344,98.69 253.578344,101.46 C253.578344,105.91 255.678344,108.66 260.098344,108.66 C262.928344,108.66 264.328344,107.48 264.938344,106.78 C265.948344,105.69 266.058344,104.54 266.138344,103.84 L263.508344,103.84 C263.288344,105.86 261.908344,106.75 260.208344,106.75 C257.328344,106.75 256.118344,104.59 256.178344,101.68 L266.288344,101.68 L266.288344,101.68 Z M234.458344,108.23 L237.058344,108.23 L237.058344,100.64 L242.688344,108.23 L246.128344,108.23 L239.828344,100.14 L245.768344,94.18 L242.328344,94.18 L237.068344,99.92 L237.068344,87.88 L234.468344,87.88 L234.468344,108.23 L234.458344,108.23 Z M212.108344,108.23 L214.738344,108.23 L214.738344,100.14 C214.738344,97.31 216.498344,95.94 218.408344,95.94 C219.308344,95.94 220.228344,96.25 220.898344,96.89 C221.538344,97.53 221.658344,98.37 221.658344,99.3 L221.658344,108.23 L224.348344,108.23 L224.348344,98.68 C224.348344,94.37 220.508344,93.89 219.248344,93.89 C216.058344,93.89 215.048344,95.85 214.738344,96.44 L214.708344,94.17 L212.078344,94.17 L212.108344,95.79 L212.108344,108.23 Z M199.348344,101.4 C199.288344,103.36 199.268344,104.14 198.678344,105.1 C198.038344,106.08 197.028344,106.61 195.678344,106.61 C193.328344,106.61 192.768344,105.07 192.768344,104.17 C192.768344,101.31 196.768344,101.31 197.838344,101.31 C198.478344,101.32 198.868344,101.34 199.348344,101.4 M202.028344,108.23 C201.828344,106.8 201.808344,104.93 201.808344,104.7 L201.918344,97.98 C201.918344,97.34 201.888344,96.66 201.438344,95.82 C200.678344,94.39 198.498344,93.75 196.458344,93.75 C194.978344,93.75 192.988344,94.09 191.918344,95.26 C191.108344,96.21 191.018344,97.19 190.938344,97.92 L193.568344,97.92 C193.598344,97.36 193.738344,95.54 196.398344,95.54 C197.158344,95.54 198.298344,95.76 198.838344,96.46 C199.338344,97.08 199.338344,97.83 199.338344,99.57 C198.528344,99.51 198.108344,99.49 197.438344,99.49 C196.318344,99.49 194.078344,99.57 192.568344,100.41 C190.498344,101.61 190.108344,103.41 190.108344,104.53 C190.108344,106.85 191.848344,108.67 195.068344,108.67 C196.248344,108.67 198.148344,108.45 199.408344,106.12 C199.408344,106.85 199.468344,107.52 199.658344,108.22 L202.028344,108.22 L202.028344,108.23 Z M174.818344,108.23 L177.478344,108.23 L177.478344,100.75 C177.478344,98.34 178.208344,96.49 181.318344,96.49 C181.628344,96.49 181.878344,96.49 182.078344,96.52 C182.278344,96.55 182.438344,96.58 182.578344,96.63 L182.578344,94.05 C182.128344,94.02 181.538344,93.99 180.758344,94.11 C179.578344,94.28 177.898344,94.92 177.398344,96.88 L177.338344,94.16 L174.678344,94.16 C174.758344,95.08 174.818344,96.06 174.818344,97.02 L174.818344,108.23 L174.818344,108.23 Z M150.488344,108.23 L153.258344,108.23 L153.258344,97.51 L162.578344,108.23 L166.498344,108.23 L156.478344,97.06 L165.518344,88.02 L161.678344,88.02 L153.248344,96.87 L153.248344,88.02 L150.478344,88.02 L150.478344,108.23 L150.488344,108.23 Z" id="Shape"></path>
                <path d="M355.088344,73.18 C357.328344,73.18 359.358344,72.97 360.678344,69.97 C368.908344,51.19 380.298344,26.58 389.968344,5.05 C391.298344,2.1 391.718344,0.79 389.258344,0.79 L381.108344,0.79 C378.818344,0.79 378.748344,0.79 376.078344,6.96 C376.078344,6.96 358.458344,46.38 356.088344,51.55 L356.088344,51.54 C356.068344,51.58 356.058344,51.62 356.038344,51.66 C355.958344,51.84 355.898344,51.98 355.858344,52.05 C355.508344,52.78 355.278344,53.16 355.088344,53.23 C354.898344,53.15 354.668344,52.78 354.318344,52.05 C354.288344,51.98 354.218344,51.84 354.138344,51.66 C354.118344,51.62 354.108344,51.58 354.088344,51.54 L354.088344,51.55 C351.728344,46.39 334.098344,6.96 334.098344,6.96 C331.428344,0.79 331.348344,0.79 329.068344,0.79 L320.918344,0.79 C318.458344,0.79 318.878344,2.1 320.208344,5.05 C329.878344,26.58 341.268344,51.19 349.498344,69.97 C350.808344,72.97 353.038344,73.18 355.088344,73.18" id="Path"></path>
                <path d="M145.548344,43.85 C138.118344,47.29 127.428344,52.25 118.728344,56.29 C124.128344,44.22 132.358344,25.84 133.918344,22.43 L133.918344,22.45 C133.938344,22.41 133.948344,22.37 133.968344,22.33 C134.048344,22.15 134.118344,22.01 134.148344,21.94 C134.498344,21.21 134.728344,20.83 134.918344,20.75 C135.108344,20.83 135.338344,21.2 135.688344,21.94 C135.718344,22.01 135.788344,22.15 135.868344,22.33 C135.888344,22.37 135.898344,22.41 135.918344,22.45 L135.918344,22.43 C137.008344,24.78 141.248344,34.25 145.548344,43.85 M169.818344,68.92 C160.148344,47.39 148.758344,22.78 140.528344,4 C139.208344,1 136.988344,0.79 134.938344,0.79 L134.908344,0.79 C132.668344,0.79 130.638344,1 129.318344,4 C121.088344,22.78 109.698344,47.39 100.028344,68.92 C98.6983443,71.87 98.2783443,73.1800568 100.738344,73.1800568 L108.898344,73.1800568 C109.158344,73.1800568 109.388344,73.1800568 109.598344,73.17 C110.568344,73.24 112.038344,72.57 115.698344,70.8 C115.698344,70.8 137.308344,60.72 150.368344,54.63 C153.508344,61.65 155.908344,67.01 155.908344,67.01 C158.578344,73.1800568 158.658344,73.1800568 160.938344,73.1800568 L169.088344,73.1800568 C171.558344,73.19 171.138344,71.88 169.818344,68.92" id="Shape"></path>
                <path d="M35.9483443,73.18 C38.1883443,73.18 40.2183443,72.97 41.5383443,69.97 C49.7683443,51.19 61.1583443,26.58 70.8283443,5.05 C72.1583443,2.1 72.5783443,0.79 70.1183443,0.79 L61.9683443,0.79 C59.6783443,0.79 59.6083443,0.79 56.9383443,6.96 C56.9383443,6.96 39.3183443,46.38 36.9483443,51.55 L36.9483443,51.54 C36.9283443,51.58 36.9183443,51.62 36.8983443,51.66 C36.8183443,51.84 36.7583443,51.98 36.7183443,52.05 C36.3683443,52.78 36.1383443,53.16 35.9483443,53.23 C35.7583443,53.15 35.5283443,52.78 35.1783443,52.05 C35.1483443,51.98 35.0783443,51.84 34.9983443,51.66 C34.9783443,51.62 34.9683443,51.58 34.9483443,51.54 L34.9483443,51.55 C32.5883443,46.39 14.9583443,6.96 14.9583443,6.96 C12.2883443,0.79 12.2083443,0.79 9.92834431,0.79 L1.77834431,0.79 C-0.68165569,0.79 -0.26165569,2.1 1.06834431,5.05 C10.7383443,26.58 22.1283443,51.19 30.3583443,69.97 C31.6683443,72.97 33.8983443,73.18 35.9483443,73.18" id="Path"></path>
                <path d="M310.968344,3.64 C310.968344,2.07 309.688344,0.79 308.118344,0.79 L301.508344,0.79 C299.938344,0.79 298.658344,2.07 298.658344,3.64 L298.658344,70.34 C298.658344,71.91 299.938344,73.19 301.508344,73.19 L308.118344,73.19 C309.698344,73.19 310.968344,71.91 310.968344,70.34 L310.968344,3.64 Z" id="Path"></path>
                <path d="M91.3183443,3.64 C91.3183443,2.07 90.0383443,0.79 88.4683443,0.79 L81.8583443,0.79 C80.2883443,0.79 79.0083443,2.07 79.0083443,3.64 L79.0083443,70.34 C79.0083443,71.91 80.2883443,73.19 81.8583443,73.19 L88.4683443,73.19 C90.0483443,73.19 91.3183443,71.91 91.3183443,70.34 L91.3183443,3.64 Z" id="Path"></path>
                <path d="M288.658344,9.83 L288.658344,3.64 C288.658344,2.07 287.378344,0.79 285.808344,0.79 L243.338344,0.79 C241.768344,0.79 240.488344,2.07 240.488344,3.64 L240.488344,9.83 C240.488344,11.41 241.768344,12.68 243.338344,12.68 L258.418344,12.68 L258.418344,70.34 C258.418344,71.92 259.698344,73.19 261.268344,73.19 L267.878344,73.19 C269.448344,73.19 270.728344,71.91 270.728344,70.34 L270.728344,12.68 L285.808344,12.68 C287.388344,12.68 288.658344,11.4 288.658344,9.83" id="Path"></path>
            </g>
        </g>
    </g>
</svg>