<?xml version="1.0" standalone="no"?>
<!DOCTYPE svg PUBLIC "-//W3C//DTD SVG 20010904//EN" "http://www.w3.org/TR/2001/REC-SVG-20010904/DTD/svg10.dtd">
<svg width="597px" height="133px" viewBox="0 0 597 133" version="1.1" xmlns="http://www.w3.org/2000/svg" xmlns:xlink="http://www.w3.org/1999/xlink">
    <g id="Pool-Partner" stroke="none" stroke-width="1" fill="none" fill-rule="evenodd">
        <g id="Artboard" transform="translate(1.000000, 0.000000)" fill="#003C61">
            <g id="ERB-Auto-Zentrum" transform="translate(108.559000, 109.987000)">
                <path d="M372.03,21.744 L372.271,5.346 C372.167,5.794 371.995,6.541 371.653,7.586 L367.083,21.744 L361.863,21.744 L356.401,4.42 C356.47,5.107 356.573,6.451 356.607,8.452 L356.916,21.744 L351.042,21.744 L351.042,0.657 L359.905,0.657 L363.615,12.484 L364.473,15.86 C364.576,15.322 364.747,14.456 365.126,13.261 L369.007,0.657 L377.835,0.657 L377.835,21.744 L372.03,21.744" id="Fill-23"></path>
                <path d="M344.757,18.399 C343.658,19.952 341.941,21.057 339.673,21.684 C338.368,22.043 337.029,22.222 335.723,22.222 C333.662,22.222 331.773,21.834 330.09,21.087 C328.029,20.161 326.69,18.817 326.036,17.055 C325.659,16.039 325.452,14.486 325.452,12.425 L325.452,0.657 L331.567,0.657 L331.567,13.799 C331.567,15.113 331.704,15.98 332.014,16.427 C332.632,17.383 333.971,17.861 335.929,17.861 C337.75,17.861 338.952,17.383 339.571,16.427 C339.913,15.89 340.085,14.994 340.085,13.769 L340.085,0.657 L346.165,0.657 L346.165,12.425 C346.165,15.083 345.685,17.085 344.757,18.399" id="Fill-22"></path>
                <path d="M322.362,21.744 L316.763,13.321 C318.171,12.873 319.201,12.365 319.889,11.797 C321.125,10.782 321.743,9.318 321.743,7.497 C321.743,5.585 321.091,4.032 319.82,2.807 C318.859,1.881 317.553,1.254 315.973,0.956 C315.011,0.746 313.637,0.657 311.885,0.657 L300.962,0.657 L300.962,21.744 L307.042,21.744 L307.042,14.217 L310.855,14.217 L315.663,21.744 L322.362,21.744 Z M315.698,7.407 C315.698,9.348 314.495,10.304 312.057,10.304 L307.042,10.304 L307.042,4.599 L312.195,4.599 C314.53,4.599 315.698,5.525 315.698,7.407 L315.698,7.407 Z" id="Fill-21"></path>
                <polyline id="Fill-20" points="291.654 4.808 291.654 21.744 285.575 21.744 285.575 4.808 279.253 4.808 279.253 0.627 297.94 0.627 297.94 4.808 291.654 4.808"></polyline>
                <path d="M270.358,21.744 L265.824,15.083 C264.965,13.799 263.522,11.618 261.564,8.482 L261.736,21.744 L255.931,21.744 L255.931,0.657 L261.873,0.657 L267.129,8.422 C267.919,9.588 269.121,11.499 270.77,14.187 L270.495,0.657 L276.3,0.657 L276.3,21.744 L270.358,21.744" id="Fill-19"></path>
                <polyline id="Fill-18" points="233.433 21.744 233.433 0.657 251.363 0.657 251.363 4.749 239.478 4.749 239.478 8.572 250.573 8.572 250.573 12.574 239.478 12.574 239.478 17.592 252.428 17.592 252.428 21.744 233.433 21.744"></polyline>
                <polyline id="Fill-17" points="216.945 17.592 230.1 17.592 230.1 21.744 209.457 21.744 209.457 17.801 222.888 4.778 210.59 4.778 210.59 0.657 230.17 0.657 230.17 4.778 216.945 17.592"></polyline>
                <path d="M197.813,11.32 C197.813,9.617 197.435,7.915 196.645,6.272 C195.305,3.464 193.073,1.583 189.912,0.627 C188.539,0.209 187.061,0 185.482,0 C181.772,0 178.818,1.134 176.585,3.404 C174.559,5.496 173.528,8.064 173.528,11.111 C173.528,14.276 174.559,16.935 176.654,19.026 C178.887,21.236 181.875,22.341 185.585,22.341 C188.607,22.341 191.149,21.595 193.21,20.131 C194.584,19.145 195.683,17.891 196.508,16.367 C197.367,14.785 197.813,13.082 197.813,11.32 Z M191.733,11.678 C191.63,13.739 190.977,15.322 189.672,16.427 C188.573,17.413 187.199,17.891 185.585,17.891 C183.97,17.891 182.597,17.383 181.463,16.338 C180.158,15.113 179.505,13.351 179.505,11.021 C179.505,9.08 180.055,7.497 181.154,6.242 C182.253,5.018 183.695,4.39 185.516,4.39 C187.233,4.39 188.676,4.898 189.775,5.943 C191.183,7.257 191.836,9.169 191.733,11.678 L191.733,11.678 Z" id="Fill-15"></path>
                <polyline id="Fill-13" points="165.078 4.808 165.078 21.744 158.998 21.744 158.998 4.808 152.679 4.808 152.679 0.627 171.364 0.627 171.364 4.808 165.078 4.808"></polyline>
                <path d="M148.488,18.399 C147.389,19.952 145.672,21.057 143.405,21.684 C142.099,22.043 140.76,22.222 139.454,22.222 C137.393,22.222 135.504,21.834 133.821,21.087 C131.76,20.161 130.42,18.817 129.768,17.055 C129.39,16.039 129.184,14.486 129.184,12.425 L129.184,0.657 L135.298,0.657 L135.298,13.799 C135.298,15.113 135.435,15.98 135.744,16.427 C136.363,17.383 137.702,17.861 139.66,17.861 C141.481,17.861 142.683,17.383 143.302,16.427 C143.645,15.89 143.817,14.994 143.817,13.769 L143.817,0.657 L149.896,0.657 L149.896,12.425 C149.896,15.083 149.415,17.085 148.488,18.399" id="Fill-12"></path>
                <path d="M126.608,21.744 L117.678,0.657 L111.357,0.657 L102.357,21.744 L108.815,21.744 L110.017,18.369 L118.948,18.369 L120.15,21.744 L126.608,21.744 Z M117.574,14.575 L111.426,14.575 C112.284,12.156 112.937,10.274 113.418,8.93 C113.796,7.795 114.105,6.72 114.414,5.674 L117.574,14.575 L117.574,14.575 Z" id="Fill-11"></path>
                <path d="M78.444,15.288 C78.444,16.384 77.919,17.115 76.833,17.481 C76.168,17.724 75.117,17.846 73.681,17.846 L69.374,17.846 L69.374,12.638 L74.732,12.638 C77.219,12.638 78.444,13.521 78.444,15.288 Z M84.714,15.744 C84.714,14.465 84.259,13.4 83.347,12.516 C82.437,11.633 80.791,11.024 78.48,10.689 C80.966,10.232 82.577,9.288 83.313,7.826 C83.593,7.217 83.768,6.547 83.768,5.755 C83.768,4.659 83.453,3.654 82.787,2.801 C82.017,1.857 80.931,1.157 79.495,0.761 C78.269,0.426 76.098,0.243 73.051,0.243 L63.49,0.243 L63.49,21.744 L73.927,21.744 C77.009,21.744 79.25,21.47 80.651,20.952 C82.052,20.404 83.102,19.612 83.803,18.546 C84.399,17.663 84.714,16.719 84.714,15.744 Z M77.709,6.425 C77.709,7.979 76.483,8.74 74.032,8.74 L69.374,8.74 L69.374,4.263 L74.452,4.263 C76.623,4.263 77.709,4.994 77.709,6.425 L77.709,6.425 Z" id="Fill-10"></path>
                <path d="M52.443,21.744 L46.735,13.156 C48.17,12.699 49.221,12.181 49.922,11.603 C51.182,10.567 51.813,9.075 51.813,7.217 C51.813,5.268 51.147,3.685 49.851,2.436 C48.871,1.492 47.54,0.852 45.929,0.547 C44.949,0.334 43.547,0.243 41.761,0.243 L30.624,0.243 L30.624,21.744 L36.823,21.744 L36.823,14.069 L40.711,14.069 L45.614,21.744 L52.443,21.744 Z M45.649,7.126 C45.649,9.105 44.423,10.08 41.936,10.08 L36.823,10.08 L36.823,4.263 L42.076,4.263 C44.458,4.263 45.649,5.207 45.649,7.126 L45.649,7.126 Z" id="Fill-9"></path>
                <polyline id="Fill-8" points="0 21.744 0 0.243 18.282 0.243 18.282 4.415 6.163 4.415 6.163 8.314 17.476 8.314 17.476 12.395 6.163 12.395 6.163 17.511 19.367 17.511 19.367 21.744 0 21.744"></polyline>
            </g>
            <g id="Volvo" transform="translate(-0.060000, 0.000000)">
                <path d="M550.223,61.971 C554.841,56.973 558.068,48.661 558.068,39.468 C558.068,31.61 556.066,24.166 552.254,19.379 C549.53,15.949 545.213,13.615 540.498,13.615 C536.598,13.615 532.982,15.207 530.298,17.687 C529.734,18.214 529.209,18.78 528.735,19.379 C524.926,24.166 522.907,31.61 522.907,39.468 C522.907,48.036 526.238,56.414 530.366,61.478 C532.474,64.07 536.901,65.568 540.498,65.568 C544.109,65.568 547.631,64.117 550.223,61.971 Z M484.415,39.468 C484.415,17.67 509.192,9.9475983e-14 539.743,9.9475983e-14 C570.301,9.9475983e-14 595.072,17.67 595.072,39.468 C595.072,61.263 570.301,78.934 539.743,78.934 C509.192,78.934 484.415,61.263 484.415,39.468 L484.415,39.468 Z" id="Fill-6"></path>
                <path d="M361.54,14.645 C361.206,14.305 360.733,14.095 360.206,14.095 L343.879,14.095 L343.879,0.173 L422.496,0.173 L422.496,14.124 L408.854,14.124 L408.239,14.144 C407.307,14.144 406.558,14.888 406.558,15.813 L430.045,55.497 L452.158,15.316 C452.158,14.658 451.633,14.124 450.97,14.124 L438.074,14.124 L438.074,0.173 L493.341,0.173 L493.341,14.124 L478.82,14.124 L477.449,14.144 C476.985,14.144 476.56,14.255 476.173,14.455 L441.321,78.663 L398.205,78.663 L361.54,14.645" id="Fill-2"></path>
                <path d="M349.747,41.421 C349.747,53.827 339.943,64.886 327.535,64.886 L313.358,64.851 C312.039,64.851 310.981,63.788 310.981,62.474 L310.992,58.119 L310.992,21.478 L311.04,16.55 C311.04,15.188 312.139,14.082 313.502,14.082 L327.181,14.124 L327.181,0.173 L254.175,0.173 L254.175,14.07 L267.841,14.082 L268.624,14.082 C270.306,14.082 271.672,15.445 271.672,17.117 L271.683,63.147 C271.683,64.102 270.909,64.869 269.972,64.869 L254.175,64.863 L254.175,78.733 L363.819,78.733 L363.819,41.434 L349.747,41.421" id="Fill-1"></path>
                <path d="M205.96,62.169 C210.592,57.188 213.815,48.87 213.815,39.674 C213.815,31.817 211.807,24.377 207.996,19.58 C205.272,16.154 200.952,13.821 196.238,13.821 C192.339,13.821 188.716,15.409 186.046,17.9 C185.481,18.421 184.952,18.986 184.475,19.58 C180.662,24.377 178.651,31.817 178.651,39.674 C178.651,48.241 181.975,56.624 186.103,61.69 C188.217,64.283 192.641,65.77 196.238,65.77 C199.848,65.77 203.381,64.317 205.96,62.169 Z M140.155,39.674 C140.155,17.88 164.933,0.207 195.496,0.207 C226.05,0.207 250.819,17.88 250.819,39.674 C250.819,61.473 226.05,79.144 195.496,79.144 C164.933,79.144 140.155,61.473 140.155,39.674 L140.155,39.674 Z" id="Fill-5"></path>
                <path d="M17.673,14.645 C17.314,14.305 16.845,14.095 16.338,14.095 L1.56319402e-13,14.095 L1.56319402e-13,0.173 L78.622,0.173 L78.622,14.124 L64.97,14.124 L64.355,14.144 C63.427,14.144 62.685,14.888 62.685,15.813 L86.156,55.497 L108.283,15.316 C108.283,14.658 107.739,14.124 107.097,14.124 L94.191,14.124 L94.191,0.173 L149.448,0.173 L149.448,14.124 L134.933,14.124 L133.568,14.144 C133.108,14.144 132.665,14.255 132.287,14.455 L97.432,78.663 L54.32,78.663 L17.673,14.645" id="Fill-4"></path>
            </g>
        </g>
    </g>
</svg>