<?xml version="1.0" encoding="UTF-8" standalone="no"?>
<!DOCTYPE svg PUBLIC "-//W3C//DTD SVG 1.1//EN" "http://www.w3.org/Graphics/SVG/1.1/DTD/svg11.dtd">
<svg width="65px" height="65px" viewBox="0 0 65 65" version="1.1" xmlns="http://www.w3.org/2000/svg" xmlns:xlink="http://www.w3.org/1999/xlink">
    <g id="Symbols" stroke="none" stroke-width="1" fill="none" fill-rule="evenodd">
        <g id="Mission-Tokio" fill="#FFFFFF">
            <g id="Group">
                <path d="M51.2285449,1.58212485 C50.9876375,1.85032021 50.9876375,2.19908806 50.9876375,2.19908806 C50.9876375,2.19908806 51.2552493,2.62785899 51.3353623,2.65490629 C51.4157595,2.68166888 51.2279767,3.31713814 51.308658,3.40568247 C51.60269,3.72711831 51.60269,3.91502589 51.60269,3.96855107 C51.60269,4.02207626 51.5495653,3.95545449 51.5495653,4.20998384 C51.5495653,4.45141661 51.9776873,4.74637456 51.8438814,4.93371272 C51.6816667,5.16204889 50.8271273,6.16763914 50.7200258,6.43554979 C50.3805396,7.28654334 50.2455974,8.46865282 50.6132084,9.57332161 C50.7200258,9.89475745 51.2231472,10.2865163 51.2819536,10.4311482 C51.8174612,11.7450777 52.1381975,12.0403203 52.1381975,12.3623256 C52.1381975,13.005482 52.4512635,13.9011747 52.5396151,14.1320733 C52.673421,14.4805564 52.967737,15.2042853 53.5560851,16.0359187 C53.8637534,16.4698144 54.0111955,16.89403 54.2790913,17.4304207 C54.4995443,17.8725729 54.4126131,18.0468145 54.4126131,18.0468145 C54.4126131,18.0468145 48.927425,26.1450616 48.4728827,26.0112486 C48.0177724,25.877151 48.2851,25.4748579 48.2583956,25.3678075 C48.2316913,25.2607572 48.1805553,25.0292892 47.8836824,24.9922771 C47.4558445,24.9387519 47.3220387,25.3945701 47.2683459,25.7430533 C47.2149372,26.0918211 47.4487423,26.7907804 48.0444767,26.9228851 C48.7936191,27.2448903 49.4089556,26.4135417 49.4089556,26.4135417 C49.4089556,26.4135417 54.7955649,19.2479994 55.0279496,19.0928333 C55.5097644,18.7711128 55.6069228,19.2163968 55.8307848,19.2536936 C55.8947048,19.2645125 55.9199887,19.2408817 55.9441363,19.2169662 C55.9810678,19.1813776 56.0157267,19.1455044 56.1787937,19.226931 C56.2856111,19.2804562 57.1083325,20.2228412 57.5432726,20.9699161 C57.7304872,21.2916367 58.8509337,22.9776801 59.8710969,23.4101522 C60.5668306,23.7053949 60.807738,23.9194957 61.5568803,24.3755986 C61.7185269,24.473823 61.7440949,25.0190397 61.9046051,25.6627655 C62.0344338,26.1829278 62.0921038,26.7352622 62.0921038,26.7352622 C62.0921038,26.7352622 63.5102755,26.8961225 63.8580003,26.681737 C64.135271,26.5106273 64.2057251,25.7162907 64.2057251,25.7162907 C64.2057251,25.7162907 64.7142442,25.8236258 64.8213457,25.6627655 C65.311399,24.9256553 64.6608355,24.4558864 64.4466325,24.0806406 C64.3946442,23.9895339 64.163964,24.0786477 64.045499,23.8392079 C63.9270339,23.5997681 63.6881151,23.3899379 63.6168088,23.0884317 C63.5102755,22.6320441 63.2693681,21.5737827 63.2693681,21.559832 C63.2693681,21.5330694 63.0284608,19.629224 62.9753361,19.2536936 C62.9222115,18.8818644 62.2259097,17.0816528 61.8244921,16.5987873 C61.4230745,16.1162065 61.6372775,16.2235416 61.4770514,15.901821 C61.3404046,15.6285009 61.2690983,15.504368 61.2338713,15.451697 C61.2389849,15.424365 61.2307463,15.3395218 61.1821671,15.1242822 C60.9949525,14.2926489 60.859158,14.9221392 60.887851,13.5956826 C60.9148395,12.3623256 60.4330247,12.2008959 60.4864334,11.6915525 C60.5151264,11.4196559 62.038411,10.4581955 62.3597155,9.30512625 C62.5511914,8.61727064 60.4063204,6.67698255 60.4063204,6.67698255 C60.4063204,6.67698255 60.5935349,6.27468951 60.6202393,6.06030405 C60.641546,5.88976369 58.3603122,3.85096649 57.9179858,3.67359312 C57.3827624,3.45920766 56.6066316,3.37863517 56.2322024,3.37863517 C56.0035109,3.37863517 55.5367528,3.43045211 55.5631731,3.24453749 C55.6435702,2.68166888 55.5594799,2.03737366 55.5898774,1.82327291 C55.6165818,1.63565004 55.4293672,0.88487386 55.1617555,0.67020369 C54.8941438,0.455818227 54.5197146,0 53.395859,0 C52.2722875,0 51.7904727,0.589915907 51.6299625,0.938399049 C51.4691682,1.2871669 51.4691682,1.31392949 51.2285449,1.58212485 Z M55.5037985,7.77738071 C55.4870373,7.76399941 55.4708442,7.75232637 55.4549352,7.73695211 L55.4549352,7.73695211 C55.4018106,7.68428105 55.3549359,7.62563111 55.313743,7.56299525 L55.313743,7.56299525 C55.3060726,7.55046808 55.2998227,7.53680207 55.2924364,7.52399019 L55.2924364,7.52399019 C55.1941416,7.35999812 55.1339148,7.17009759 55.1339148,6.9648228 L55.1339148,6.9648228 C55.1339148,6.36323384 55.6208431,5.87524356 56.2211229,5.87524356 L56.2211229,5.87524356 C56.4074852,5.87524356 56.5802113,5.92649108 56.7333352,6.00934124 L56.7333352,6.00934124 C56.7503805,6.01759778 56.7665736,6.02670846 56.7830507,6.03610383 L56.7830507,6.03610383 C56.8256641,6.06229701 56.8654365,6.09190669 56.9040726,6.12322462 L56.9040726,6.12322462 C56.917993,6.13518237 56.9321974,6.14457775 56.9455496,6.15767434 L56.9455496,6.15767434 C57.1662867,6.35697026 57.3083311,6.64310225 57.3083311,6.9648228 L57.3083311,6.9648228 C57.3083311,7.56641175 56.8216868,8.05440203 56.2211229,8.05440203 L56.2211229,8.05440203 C55.9447045,8.05440203 55.6955585,7.94735165 55.5037985,7.77738071 L55.5037985,7.77738071 Z M59.442975,10.1900001 L59.4966678,10.0291398 L59.4162706,8.20558222 L60.4330247,9.09045608 L59.657178,10.4043856 L59.442975,10.1900001 Z M59.8174041,20.2191399 C59.5500765,19.8165622 58.0955414,17.3367516 58.2657106,17.1354627 L58.2657106,17.1354627 C58.5600267,16.7866949 58.5336064,16.6796445 58.6134354,16.5182148 L58.6134354,16.5182148 C58.6938326,16.3576392 58.3995165,15.7139134 58.3995165,15.7139134 L58.3995165,15.7139134 L58.5867311,15.5801005 L59.0685458,16.1162065 L59.6066102,16.7986526 C59.6066102,16.7986526 59.9784825,17.3228009 59.9784825,17.6983313 L59.9784825,17.6983313 C59.9784825,17.8122147 60.0875726,18.0624734 60.0585956,18.1811969 L60.0585956,18.1811969 C59.8199609,18.223049 60.9148395,20.7284834 60.9415438,21.2381115 L60.9415438,21.2381115 C60.1387086,20.2723804 60.0852999,20.6211483 59.8174041,20.2191399 L59.8174041,20.2191399 Z" id="Player"></path>
                <path d="M20.701828,9.29131443 C20.701828,9.85608027 20.6487468,10.4737929 20.5248905,11.1444523 L20.2771781,12.5034201 C19.516347,16.7038661 17.3930976,18.2569721 12.8634987,18.2569721 C11.1472054,18.2569721 10.0324994,18.2040253 8.35159363,18.0804828 L10.6694743,4.96732598 C12.3680739,4.84378345 13.4296986,4.79083665 15.0752169,4.79083665 C19.1624721,4.79083665 20.701828,6.30864484 20.701828,9.29131443 Z M17.4815663,9.15012297 C17.4815663,7.29698506 16.2253104,7.29698506 13.5004736,7.29698506 L11.9788115,15.7508237 C15.1813794,15.7508237 16.3845541,15.7331748 17.0392227,12.1680904 L17.2869351,10.8091226 C17.4107913,10.1031653 17.4815663,9.55604841 17.4815663,9.15012297 Z M35.299168,4.96732598 L32.9812874,18.0804828 L29.672557,18.0804828 L30.645713,12.5563669 L25.709158,12.5563669 L24.736002,18.0804828 L21.4095778,18.0804828 L23.7274585,4.96732598 L27.0538826,4.96732598 L26.1338079,10.0502185 L31.0703629,10.0502185 L31.9904376,4.96732598 L35.299168,4.96732598 Z M47.6494024,7.96764449 C47.6494024,9.60899521 46.8885713,10.7561758 45.5792342,11.3738885 C46.3754527,11.7798139 46.7647151,12.6093137 46.7647151,13.5447071 C46.7647151,14.0388773 46.6939401,14.4624516 46.6054714,14.7977814 C45.8800278,17.6392595 43.2613535,18.2393232 39.8464606,18.2393232 C38.5725109,18.2393232 37.1393176,18.2040253 35.582268,18.0804828 L37.8824549,4.96732598 C39.5633607,4.84378345 40.9611666,4.79083665 42.1289538,4.79083665 C45.5792342,4.79083665 47.6494024,5.37325142 47.6494024,7.96764449 Z M43.5444534,13.6682497 C43.5444534,12.3975265 42.6243787,12.3798776 39.9880106,12.3798776 L39.7756856,12.3798776 L39.1210171,15.8567173 C39.5456669,15.8743662 39.9526231,15.8743662 40.3949667,15.8743662 C42.1643413,15.8743662 43.5444534,15.5566854 43.5444534,13.6682497 Z M44.4468345,8.37356994 C44.4468345,7.29698506 43.5621472,7.17344253 41.9874038,7.17344253 C41.5627539,7.17344253 41.138104,7.17344253 40.6957604,7.19109147 L40.1118668,10.3502504 L40.9080854,10.3502504 C43.0844161,10.3502504 44.4468345,10.2443568 44.4468345,8.37356994 Z" id="DHB" fill-rule="nonzero"></path>
                <path d="M9.02574543,29.7357658 L8.39104676,33.309653 L7.94530418,33.309653 L8.24085089,31.6213159 L6.43850045,31.6213159 L6.14295374,33.309653 L5.69721116,33.309653 L6.33190983,29.7357658 L6.77765241,29.7357658 L6.51117587,31.2220796 L8.31352631,31.2220796 L8.58000285,29.7357658 L9.02574543,29.7357658 Z M11.6289343,31.4818237 C11.6289343,31.6116958 11.5998642,31.7944787 11.5901741,31.8618198 L11.5223437,32.2466259 C11.3866829,33.0162383 10.9457854,33.376994 10.2190312,33.376994 C9.5504173,33.376994 9.24518053,33.0354786 9.24518053,32.4967499 C9.24518053,32.3524476 9.25487059,32.2177655 9.2742507,32.1023236 L9.34208109,31.7175175 C9.47774188,30.938285 9.93317452,30.5967695 10.6453936,30.5967695 C11.2897824,30.5967695 11.6289343,30.8901842 11.6289343,31.4818237 Z M11.1928818,31.4818237 C11.1928818,31.1691687 11.0669111,30.9767656 10.6066334,30.9767656 C10.0833704,30.9767656 9.86534412,31.2220796 9.76359854,31.7944787 L9.69576814,32.1792849 C9.67638803,32.2899166 9.66669797,32.376498 9.66669797,32.4967499 C9.66669797,32.8430755 9.8265839,32.996998 10.2481013,32.996998 C10.7907445,32.996998 10.9942357,32.751684 11.0959813,32.1792849 L11.1638116,31.7944787 C11.1880368,31.6549865 11.1928818,31.5780252 11.1928818,31.4818237 Z M14.1594478,30.688161 L14.1013075,31.0152462 C13.7815356,30.9815757 13.5489743,30.9671455 13.4084685,30.9671455 C12.982106,30.9671455 12.6817143,31.125878 12.5702786,31.7848586 L12.5024482,32.1840949 C12.4830681,32.2947267 12.4733781,32.3957383 12.4733781,32.4823197 C12.4733781,32.8959863 12.6623342,33.0066181 13.0499364,33.0066181 C13.1904422,33.0066181 13.4230036,32.9921879 13.7524655,32.9585173 L13.6943251,33.2856026 C13.5974246,33.314463 13.3067229,33.376994 12.9578809,33.376994 C12.294112,33.376994 12.0470156,33.0066181 12.0470156,32.4823197 C12.0470156,32.3668779 12.0567056,32.2418159 12.0809308,32.1119438 L12.1487612,31.7127074 C12.2795769,30.9430951 12.6914043,30.5967695 13.4133135,30.5967695 C13.8009157,30.5967695 14.0722373,30.6593005 14.1594478,30.688161 Z M16.8353122,30.6641106 L15.4593242,31.9195407 L16.3604994,33.309653 L15.8372364,33.309653 L14.9651313,31.938781 L14.7228799,33.309653 L14.2819824,33.309653 L14.9457512,29.5866534 L15.3818037,29.5866534 L14.9845114,31.8281493 L16.2248386,30.6641106 L16.8353122,30.6641106 Z M19.1090391,31.4962539 C19.1090391,31.7078973 19.079969,31.9099206 19.0266737,32.1456143 L17.1952531,32.1456143 L17.1710279,32.2418159 C17.1613379,32.2899166 17.1516478,32.4053585 17.1516478,32.4967499 C17.1516478,32.7997848 17.2969987,33.001808 17.8444868,33.001808 C18.1448786,33.001808 18.5276358,32.9681375 18.7941123,32.9248468 L18.731127,33.2711723 C18.5324808,33.3192731 18.1981739,33.376994 17.7718114,33.376994 C17.0208321,33.376994 16.7252853,33.0499088 16.7252853,32.4775096 C16.7252853,32.3332073 16.7495105,32.1744748 16.7785807,32.001312 L16.8124958,31.7992888 C16.9530017,30.9671455 17.4665746,30.5967695 18.1158084,30.5967695 C18.735972,30.5967695 19.1090391,30.8709439 19.1090391,31.4962539 Z M18.6778317,31.4962539 C18.6778317,31.2316997 18.566396,30.9719556 18.0964283,30.9719556 C17.5004898,30.9719556 17.3309139,31.4192927 17.2727735,31.7415679 L17.2630835,31.7896686 L18.6439165,31.7896686 C18.6632966,31.6790369 18.6778317,31.5780252 18.6778317,31.4962539 Z M21.8478888,30.6641106 L20.3313951,33.5405366 C20.0600735,34.0504048 19.8323572,34.37749 19.284869,34.37749 C19.0571527,34.37749 18.8633516,34.3486296 18.7761411,34.3293893 L18.8342814,33.997494 C19.0426176,34.0119242 19.1637433,34.0167343 19.2751789,34.0167343 C19.628866,34.0167343 19.7015414,33.8820521 19.9098776,33.497246 L20.0116232,33.309653 L19.45929,30.6641106 L19.9098776,30.6641106 L20.1908892,32.1504244 C20.2344945,32.3861182 20.2538746,32.5689011 20.2877898,32.8526956 C20.4089155,32.5689011 20.491281,32.3909283 20.6172517,32.1456143 L21.3779211,30.6641106 L21.8478888,30.6641106 Z M23.2640459,32.0830833 L22.0673239,32.0830833 L22.1351543,31.7223276 L23.3318763,31.7223276 L23.2640459,32.0830833 Z M26.6860445,30.5534789 C26.6860445,31.0056261 26.4389481,31.3279012 26.0561909,31.4770136 C26.2887522,31.5828353 26.4341031,31.813719 26.4341031,32.1552345 C26.4341031,33.2086413 25.4941676,33.3192731 24.5493871,33.3192731 C24.3022907,33.3192731 24.0551943,33.309653 23.827478,33.309653 L24.4573316,29.7357658 L25.387577,29.7357658 C26.1579365,29.7357658 26.6860445,29.8175371 26.6860445,30.5534789 Z M25.9786704,32.1552345 C25.9786704,31.8377694 25.8042494,31.6453663 25.2712963,31.6453663 L24.5687673,31.6453663 L24.3410509,32.9200367 C24.4718667,32.9200367 24.6172175,32.9248468 24.7625684,32.9248468 C25.3585068,32.9248468 25.9786704,32.8575057 25.9786704,32.1552345 Z M26.2354569,30.5919595 C26.2354569,30.1734828 25.8963049,30.125382 25.3536618,30.125382 C25.1937759,30.125382 25.1065654,30.125382 24.8352438,30.1301921 L24.6317526,31.2653702 C24.7674134,31.2653702 24.9030742,31.2701803 25.03389,31.2701803 C25.7025038,31.2701803 26.2354569,31.2172695 26.2354569,30.5919595 Z M29.4781895,30.6641106 L29.0082218,33.309653 L28.5770143,33.309653 L28.6109295,33.1028196 C28.2620875,33.2807925 27.9568507,33.376994 27.666149,33.376994 C27.1525761,33.376994 27.0023802,33.0835793 27.0023802,32.6939631 C27.0023802,32.5689011 27.0169153,32.4342189 27.0411404,32.2947267 L27.3318421,30.6641106 L27.7630496,30.6641106 L27.4675029,32.3524476 C27.4432777,32.4967499 27.4287427,32.6073817 27.4287427,32.6987732 C27.4287427,32.9296569 27.5256432,33.0066181 27.7678946,33.0066181 C28.005301,33.0066181 28.2960027,32.9248468 28.6690698,32.7709243 L29.046982,30.6641106 L29.4781895,30.6641106 Z M32.2412644,31.2894206 C32.2412644,31.4144826 32.2218842,31.5587849 32.1976591,31.7030872 L31.9166475,33.309653 L31.4805949,33.309653 L31.7761417,31.6357462 C31.7955218,31.5154942 31.8100569,31.4144826 31.8100569,31.3279012 C31.8100569,31.0825873 31.7083113,30.9719556 31.4369897,30.9719556 C31.2044283,30.9719556 30.9234167,31.0392966 30.5697297,31.2220796 L30.1966625,33.309653 L29.76061,33.309653 L30.2305777,30.6641106 L30.6617852,30.6641106 L30.632715,30.8565137 C30.9621769,30.6689207 31.2674137,30.5967695 31.5338903,30.5967695 C32.0716884,30.5967695 32.2412644,30.8805641 32.2412644,31.2894206 Z M35.3580262,29.5866534 L34.6991024,33.309653 L34.277585,33.309653 L34.2969651,33.1749708 C34.103164,33.2807925 33.8221523,33.376994 33.5411407,33.376994 C32.9984976,33.376994 32.7029509,33.0691491 32.7029509,32.5111802 C32.7029509,32.4053585 32.7126409,32.2851066 32.7368661,32.1600446 L32.8192315,31.7030872 C32.9888075,30.7555021 33.4975355,30.5967695 34.112854,30.5967695 C34.3260353,30.5967695 34.5198364,30.6208199 34.7281726,30.6641106 L34.9268187,29.5866534 L35.3580262,29.5866534 Z M34.6651872,31.0248664 C34.456851,30.9863858 34.2291347,30.9623354 34.0837839,30.9623354 C33.6525764,30.9623354 33.3667197,31.0825873 33.240749,31.7896686 L33.1583835,32.2466259 C33.1341584,32.376498 33.1341584,32.4342189 33.1341584,32.5111802 C33.1341584,32.8526956 33.2988893,33.0066181 33.6622664,33.0066181 C33.9045178,33.0066181 34.1273891,32.939277 34.3454154,32.8430755 L34.6651872,31.0248664 Z M38.8105039,31.4962539 C38.8105039,31.7078973 38.7814337,31.9099206 38.7281384,32.1456143 L36.8967178,32.1456143 L36.8724927,32.2418159 C36.8628026,32.2899166 36.8531126,32.4053585 36.8531126,32.4967499 C36.8531126,32.7997848 36.9984634,33.001808 37.5459516,33.001808 C37.8463433,33.001808 38.2291005,32.9681375 38.4955771,32.9248468 L38.4325917,33.2711723 C38.2339455,33.3192731 37.8996386,33.376994 37.4732761,33.376994 C36.7222968,33.376994 36.4267501,33.0499088 36.4267501,32.4775096 C36.4267501,32.3332073 36.4509752,32.1744748 36.4800454,32.001312 L36.5139606,31.7992888 C36.6544664,30.9671455 37.1680394,30.5967695 37.8172731,30.5967695 C38.4374367,30.5967695 38.8105039,30.8709439 38.8105039,31.4962539 Z M38.3792964,31.4962539 C38.3792964,31.2316997 38.2678607,30.9719556 37.797893,30.9719556 C37.2019546,30.9719556 37.0323786,31.4192927 36.9742383,31.7415679 L36.9645482,31.7896686 L38.3453812,31.7896686 C38.3647613,31.6790369 38.3792964,31.5780252 38.3792964,31.4962539 Z M39.6210324,33.309653 L39.1849799,33.309653 L39.3012606,32.6458623 L39.7373131,32.6458623 L39.6210324,33.309653 Z M43.7649402,29.7357658 L41.9432097,33.309653 L41.3472712,33.309653 L40.794938,29.7357658 L41.2455256,29.7357658 L41.6331279,32.3572577 C41.6621981,32.5592809 41.6767331,32.7901646 41.6912682,32.9729476 L41.7009583,32.9729476 C41.7784787,32.7853546 41.8656892,32.5592809 41.9674348,32.3572577 L43.2901275,29.7357658 L43.7649402,29.7357658 Z M43.4659573,33.309653 L43.0299048,33.309653 L43.1461855,32.6458623 L43.582238,32.6458623 L43.4659573,33.309653 Z" id="Hockey-Bunde.V." fill-rule="nonzero"></path>
                <path d="M9.79940641,25.1788405 C9.79940641,25.319414 9.78485909,25.4696822 9.75576444,25.6296451 L9.65393318,26.2161759 C9.49391263,27.1323273 8.96535989,27.6413003 7.81127227,27.6413003 L6.79780876,27.6413003 L7.43304187,24.0397104 L8.37861787,24.0397104 C9.47936531,24.0397104 9.79940641,24.4905151 9.79940641,25.1788405 Z M9.34359029,25.1788405 C9.34359029,24.6213939 9.01385097,24.4371941 8.339825,24.4371941 L7.81127227,24.4371941 L7.31666329,27.248664 L7.84521602,27.248664 C8.61137503,27.248664 9.05264383,27.0062959 9.20781528,26.1289234 L9.30964654,25.5423926 C9.33389208,25.4066665 9.34359029,25.2854824 9.34359029,25.1788405 Z M12.4761138,25.8138449 C12.4761138,26.0271288 12.4470192,26.230718 12.393679,26.4682387 L10.5607163,26.4682387 L10.5364708,26.565186 C10.5267726,26.6136596 10.5170743,26.7299963 10.5170743,26.8220961 C10.5170743,27.1274799 10.6625476,27.3310691 11.2104967,27.3310691 C11.5111414,27.3310691 11.8942209,27.2971376 12.1609219,27.2535113 L12.0978835,27.6025214 C11.89907,27.650995 11.5644816,27.7091633 11.1377601,27.7091633 C10.3861484,27.7091633 10.0903529,27.3795427 10.0903529,26.8027067 C10.0903529,26.6572858 10.1145984,26.4973229 10.1436931,26.3228179 L10.1776368,26.1192287 C10.3182609,25.2806351 10.8322663,24.9073882 11.4820468,24.9073882 C12.1027326,24.9073882 12.4761138,25.1836878 12.4761138,25.8138449 Z M12.0445433,25.8138449 C12.0445433,25.54724 11.9330138,25.2854824 11.4626503,25.2854824 C10.8662101,25.2854824 10.6964913,25.7362871 10.638302,26.0610603 L10.6286038,26.1095339 L12.0105995,26.1095339 C12.0299959,25.9980446 12.0445433,25.89625 12.0445433,25.8138449 Z M15.4389186,24.9752513 L14.9685552,27.6413003 L14.5369846,27.6413003 L14.5709284,27.4328637 C14.2217926,27.6122161 13.9162988,27.7091633 13.6253524,27.7091633 C13.111347,27.7091633 12.9610246,27.4134743 12.9610246,27.020838 C12.9610246,26.8948066 12.9755719,26.7590804 12.9998175,26.6185069 L13.2907639,24.9752513 L13.7223345,24.9752513 L13.426539,26.6766753 C13.4022934,26.8220961 13.3877461,26.9335855 13.3877461,27.0256853 C13.3877461,27.2583587 13.4847282,27.3359165 13.7271836,27.3359165 C13.9647899,27.3359165 14.2557364,27.2535113 14.6291177,27.0983958 L15.0073481,24.9752513 L15.4389186,24.9752513 Z M17.5773751,24.9752513 L17.5143367,25.3388034 L16.8015179,25.3388034 L16.5057223,27.0111432 C16.491175,27.0935484 16.4814768,27.1614115 16.4814768,27.2098851 C16.4814768,27.3359165 16.5445152,27.3601533 16.7239322,27.3601533 C16.8694054,27.3601533 17.077917,27.3456112 17.165201,27.3359165 L17.1118608,27.6364529 C17.0342751,27.6606897 16.8160652,27.7091633 16.6075536,27.7091633 C16.2147759,27.7091633 16.0547553,27.544353 16.0547553,27.2195798 C16.0547553,27.1468694 16.0644535,27.0644642 16.0790008,26.9723643 L16.3650982,25.3388034 L15.8365455,25.3000245 L15.8898856,24.9752513 L16.4281366,24.9752513 L16.5542134,24.2820785 L16.9906331,24.2820785 L16.8645563,24.9752513 L17.5773751,24.9752513 Z M19.735228,25.0043355 L19.6770387,25.3436508 C19.3618467,25.3000245 19.1145423,25.2806351 18.8914833,25.2806351 C18.6199333,25.2806351 18.2853448,25.3048719 18.2853448,25.6635767 C18.2853448,25.8138449 18.382327,25.89625 18.6781226,26.0271288 L18.8623887,26.1095339 C19.3472994,26.3276652 19.5315655,26.4924755 19.5315655,26.8802645 C19.5315655,27.4134743 19.1096931,27.7091633 18.3871761,27.7091633 C18.0137948,27.7091633 17.616168,27.6316056 17.5385823,27.6025214 L17.5967716,27.2729008 C17.8780198,27.3068323 18.0719841,27.3359165 18.4405163,27.3359165 C18.7993503,27.3359165 19.0854476,27.2632061 19.0854476,26.914196 C19.0854476,26.7203015 18.9981637,26.6621332 18.6247824,26.4827808 L18.4502145,26.4003757 C18.0331912,26.2016338 17.844076,26.0125867 17.844076,25.668424 C17.844076,25.0479617 18.3677797,24.9073882 18.8963324,24.9073882 C19.2745628,24.9073882 19.5655093,24.9607092 19.735228,25.0043355 Z M22.1549328,24.9994881 L22.0967435,25.3291087 C21.7767024,25.2951772 21.5439452,25.2806351 21.4033211,25.2806351 C20.9765996,25.2806351 20.6759549,25.440598 20.5644254,26.1046866 L20.4965379,26.5070176 C20.4771415,26.6185069 20.4674433,26.7203015 20.4674433,26.807554 C20.4674433,27.2244272 20.6565585,27.3359165 21.0444871,27.3359165 C21.1851112,27.3359165 21.4178684,27.3213744 21.7476077,27.2874429 L21.6894184,27.6170635 C21.5924363,27.6461476 21.3014898,27.7091633 20.9523541,27.7091633 C20.2880263,27.7091633 20.0407218,27.3359165 20.0407218,26.807554 C20.0407218,26.6912174 20.05042,26.565186 20.0746656,26.4343072 L20.1425531,26.0319762 C20.273479,25.2563983 20.6856531,24.9073882 21.4081702,24.9073882 C21.7960988,24.9073882 22.0676488,24.9704039 22.1549328,24.9994881 Z M24.7686018,25.600561 C24.7686018,25.6829661 24.7540545,25.8332343 24.7201107,26.0222814 L24.4388625,27.6413003 L24.0024428,27.6413003 L24.2982384,25.9544184 C24.3176348,25.8380817 24.327333,25.7459818 24.327333,25.6635767 C24.327333,25.3775823 24.1964071,25.2854824 23.9103097,25.2854824 C23.6096651,25.2854824 23.2847748,25.3921244 23.1005088,25.4745295 L22.7174293,27.6413003 L22.2810096,27.6413003 L22.9501864,23.8894422 L23.381757,23.8894422 L23.1635472,25.1255195 C23.3429641,25.038267 23.6824017,24.9073882 24.0654812,24.9073882 C24.5843357,24.9073882 24.7686018,25.1691458 24.7686018,25.600561 Z M27.6198771,25.8138449 C27.6198771,26.0271288 27.5907825,26.230718 27.5374423,26.4682387 L25.7044796,26.4682387 L25.680234,26.565186 C25.6705358,26.6136596 25.6608376,26.7299963 25.6608376,26.8220961 C25.6608376,27.1274799 25.8063108,27.3310691 26.35426,27.3310691 C26.6549047,27.3310691 27.0379842,27.2971376 27.3046851,27.2535113 L27.2416467,27.6025214 C27.0428333,27.650995 26.7082449,27.7091633 26.2815234,27.7091633 C25.5299117,27.7091633 25.2341161,27.3795427 25.2341161,26.8027067 C25.2341161,26.6572858 25.2583617,26.4973229 25.2874563,26.3228179 L25.3214001,26.1192287 C25.4620242,25.2806351 25.9760296,24.9073882 26.62581,24.9073882 C27.2464958,24.9073882 27.6198771,25.1836878 27.6198771,25.8138449 Z M27.1883065,25.8138449 C27.1883065,25.54724 27.076777,25.2854824 26.6064136,25.2854824 C26.0099734,25.2854824 25.8402546,25.7362871 25.7820653,26.0610603 L25.7723671,26.1095339 L27.1543628,26.1095339 C27.1737592,25.9980446 27.1883065,25.89625 27.1883065,25.8138449 Z M29.8456175,24.9073882 L29.77773,25.2951772 C29.4285943,25.2951772 29.0164201,25.3921244 28.7933612,25.5230032 L28.4151308,27.6413003 L27.9787111,27.6413003 L28.4539236,24.9752513 L28.875796,24.9752513 L28.8418522,25.1885352 C29.1327987,24.9897934 29.4722362,24.9073882 29.8456175,24.9073882 Z" id="Deutscher" fill-rule="nonzero"></path>
                <g id="Flag" transform="translate(0.000000, 4.402390)">
                    <polygon id="Gold" points="1.67057864 19.5165908 3.73361835 19.5165908 2.04880258 29.0687251 0 29.0687251"></polygon>
                    <polygon id="Rot" points="3.38977839 9.75829542 5.4528181 9.75829542 3.76800234 19.3104297 1.71919976 19.3104297"></polygon>
                    <polygon id="Schwarz" points="5.10897815 0 7.17201786 3.31406231e-17 5.4872021 9.55213425 3.43839951 9.55213425"></polygon>
                </g>
            </g>
            <path d="M6.07632118,63.234375 L8.30087266,50.8090301 L12.7293779,50.8090301 L13.203125,48 L0.473747075,48 L0,50.8090301 L4.42850527,50.8090301 L2.20395378,63.234375 L6.07632118,63.234375 Z M18.0100148,64.25 C22.2081324,64.25 24.9928134,62.6585052 25.9210404,57.2767397 L26.1952893,55.6852448 C26.3218657,54.9104381 26.40625,54.1356314 26.40625,53.3817655 C26.40625,49.507732 24.254451,48 20.6259273,48 C16.6176743,48 13.5798405,49.5705541 12.6516135,54.9732603 L12.3773646,56.5647552 C12.2507882,57.3395619 12.1875,58.0515464 12.1875,58.7635309 C12.1875,62.6166237 14.3814911,64.25 18.0100148,64.25 Z M18.4179688,61.203125 C16.9921875,61.203125 16.25,60.5970936 16.25,58.8834877 C16.25,58.3819444 16.328125,57.5878344 16.4453125,56.9191101 L16.6992187,55.3517876 C17.2265625,52.1126543 18.28125,51.046875 20.1367188,51.046875 C21.6992188,51.046875 22.34375,51.6111111 22.34375,53.2411265 C22.34375,53.7635674 22.265625,54.6203704 22.1484375,55.3308899 L21.875,56.8982124 C21.3085938,60.1791409 20.3710938,61.203125 18.4179688,61.203125 Z M31.2987786,63.234375 L32.5773319,56.0990284 L36.3717481,63.234375 L40.8466846,63.234375 L36.5367227,55.5864317 L43.671875,48 L39.135073,48 L32.7629283,54.9508117 L34.0208598,48 L30.1439562,48 L27.421875,63.234375 L31.2987786,63.234375 Z M46.8369202,63.234375 L49.765625,48 L45.5849548,48 L45.5849548,48 L42.65625,63.234375 L46.8369202,63.234375 Z M56.6037648,64.25 C60.8018824,64.25 63.5865634,62.6585052 64.5147904,57.2767397 L64.7890393,55.6852448 C64.9156157,54.9104381 65,54.1356314 65,53.3817655 C65,49.507732 62.848201,48 59.2196773,48 C55.2114243,48 52.1735905,49.5705541 51.2453635,54.9732603 L50.9711146,56.5647552 C50.8445382,57.3395619 50.78125,58.0515464 50.78125,58.7635309 C50.78125,62.6166237 52.9752411,64.25 56.6037648,64.25 Z M57.0117188,61.203125 C55.5859375,61.203125 54.84375,60.5970936 54.84375,58.8834877 C54.84375,58.3819444 54.921875,57.5878344 55.0390625,56.9191101 L55.2929688,55.3517876 C55.8203125,52.1126543 56.875,51.046875 58.7304688,51.046875 C60.2929688,51.046875 60.9375,51.6111111 60.9375,53.2411265 C60.9375,53.7635674 60.859375,54.6203704 60.7421875,55.3308899 L60.46875,56.8982124 C59.9023438,60.1791409 58.9648438,61.203125 57.0117188,61.203125 Z" id="TOKIO" fill-rule="nonzero"></path>
            <path d="M1.4,45 L2.088,41.136 C2.168,40.696 2.192,40.44 2.248,40.032 L2.264,40.032 C2.352,40.336 2.448,40.64 2.528,40.944 L3.128,43.08 L4.032,43.08 L5.408,40.944 L5.992,40.032 L5.992,40.032 L6.008,40.032 C5.912,40.44 5.848,40.704 5.776,41.136 L5.088,45 L5.816,45 L6.872,39.056 L5.896,39.056 L4.176,41.72 C4.008,41.984 3.824,42.272 3.664,42.536 L3.648,42.536 L3.432,41.736 L3.432,41.736 L2.68,39.056 L1.728,39.056 L0.672,45 L1.4,45 Z M13.12,45 L14.168,39.056 L13.432,39.056 L12.384,45 L13.12,45 Z M21.184,45.112 C22.592,45.112 23.504,44.496 23.504,43.296 C23.504,42.48 23.144,42.144 22.504,41.84 L21.56,41.392 C21.08,41.16 20.912,40.944 20.912,40.568 C20.912,39.768 21.528,39.6 22.304,39.6 C22.912,39.6 23.312,39.64 23.896,39.704 L24,39.12 C23.784,39.064 23.104,38.96 22.312,38.96 C21.152,38.96 20.152,39.368 20.152,40.576 C20.152,41.288 20.528,41.728 21.12,42.008 L22.064,42.464 C22.544,42.696 22.72,42.928 22.72,43.304 C22.72,44.152 22.112,44.472 21.216,44.472 C20.528,44.472 20.008,44.44 19.616,44.376 L19.52,44.944 C19.736,45 20.472,45.112 21.184,45.112 Z M30.864,45.112 C32.272,45.112 33.184,44.496 33.184,43.296 C33.184,42.48 32.824,42.144 32.184,41.84 L31.24,41.392 C30.76,41.16 30.592,40.944 30.592,40.568 C30.592,39.768 31.208,39.6 31.984,39.6 C32.592,39.6 32.992,39.64 33.576,39.704 L33.68,39.12 C33.464,39.064 32.784,38.96 31.992,38.96 C30.832,38.96 29.832,39.368 29.832,40.576 C29.832,41.288 30.208,41.728 30.8,42.008 L31.744,42.464 C32.224,42.696 32.4,42.928 32.4,43.304 C32.4,44.152 31.792,44.472 30.896,44.472 C30.208,44.472 29.688,44.44 29.296,44.376 L29.2,44.944 C29.416,45 30.152,45.112 30.864,45.112 Z M39.976,45 L41.024,39.056 L40.288,39.056 L39.24,45 L39.976,45 Z M48.664,45.112 C50.208,45.112 51.032,44.272 51.32,42.576 L51.464,41.728 C51.512,41.44 51.544,41.136 51.544,40.816 C51.544,39.584 50.928,38.96 49.608,38.96 C48.144,38.96 47.192,39.8 46.904,41.496 L46.76,42.344 C46.712,42.624 46.688,42.888 46.688,43.168 C46.688,44.368 47.312,45.112 48.664,45.112 Z M48.68,44.456 C47.872,44.456 47.424,44.096 47.424,43.168 C47.424,42.96 47.456,42.632 47.488,42.464 L47.632,41.616 C47.88,40.16 48.544,39.616 49.536,39.616 C50.424,39.616 50.808,39.944 50.808,40.84 C50.808,41.048 50.768,41.416 50.736,41.608 L50.592,42.456 C50.344,43.912 49.752,44.456 48.68,44.456 Z M57.896,45 L58.624,40.928 C58.696,40.512 58.76,40.08 58.808,39.688 L58.824,39.688 C58.912,40.04 59.024,40.4 59.12,40.696 L60.464,45 L61.512,45 L62.56,39.056 L61.856,39.056 L61.16,42.968 C61.096,43.336 61.024,43.8 60.976,44.272 L60.96,44.272 C60.872,43.952 60.752,43.544 60.656,43.256 L59.328,39.056 L58.272,39.056 L57.208,45 L57.896,45 Z" id="MISSION" fill-rule="nonzero"></path>
        </g>
    </g>
</svg>
