<?xml version="1.0" encoding="UTF-8" standalone="no"?>
<!DOCTYPE svg PUBLIC "-//W3C//DTD SVG 1.1//EN" "http://www.w3.org/Graphics/SVG/1.1/DTD/svg11.dtd">
<svg width="112px" height="85px" viewBox="0 0 112 85" version="1.1" xmlns="http://www.w3.org/2000/svg" xmlns:xlink="http://www.w3.org/1999/xlink">
    <g id="Page-1" stroke="none" stroke-width="1" fill="none" fill-rule="evenodd">
        <g id="Artboard">
            <g id="Group-4">
                <mask id="mask-2" fill="white">
                    <use xlink:href="#path-1"></use>
                </mask>
                <g id="Clip-2"></g>
                <path d="M57.731169,69.8495874 L15.3976504,83.645821 C15.3976504,83.645821 -1.04434358,80.9998353 1.97947918,69.4717503 C5.00330193,57.9434401 14.7424025,54.5982982 14.7424025,54.5982982 C14.7424025,54.5982982 11.4335132,27.108284 28.3593999,10.7011915 C42.8748299,-3.36907533 87.0243535,-10.0924593 99.786151,32.9726402 C99.786151,32.9726402 108.380031,31.8627718 109.324849,39.6113599 C110.269667,47.3601731 110.458811,52.0847132 97.7965391,56.2424976 C85.1342673,60.400282 57.731169,69.8495874 57.731169,69.8495874" id="Fill-1" fill="#FFFFFE" mask="url(#mask-2)"></path>
                <path d="M110.423684,39.6232939 C109.058922,34.5758585 105.937826,31.9974241 101.421118,32.0007984 C101.130873,32.0007984 100.835223,32.0116099 100.534169,32.0332263 C100.540925,32.0332263 100.518858,32.0302991 100.479002,32.0302991 C100.371146,32.0302991 100.136968,32.0444849 99.8248804,32.1455867 C99.5472445,32.2376817 99.4673087,32.2829411 99.4351092,32.3167168 C99.2975297,32.3655789 99.2196205,32.4864958 99.220296,32.6128168 C99.2209715,32.8204245 99.4188969,33.0264561 99.7857007,33.0271316 C99.9383667,33.013171 100.064012,33.0102438 100.200916,33.0093431 C100.206545,33.0086676 100.213075,33.0086676 100.213075,33.0086676 C100.313051,33.0086676 100.483281,33.0174492 100.63392,33.0174492 C100.683458,33.0174492 100.732095,33.0167737 100.776454,33.014522 C105.255332,33.7026449 106.836709,35.2101655 108.386111,40.2330573 C108.763047,41.4613656 108.946787,42.6795413 108.946787,43.8585372 C108.945661,48.3763703 106.260271,52.2945726 101.534154,53.8867575 L19.1404445,81.62446 C18.0042311,82.0070257 16.8684681,82.1864871 15.7579242,82.1864871 C11.0482454,82.1869374 6.7927367,78.9548314 4.98979167,74.257537 C4.42123463,72.7774873 4.16836748,71.3003649 4.16836748,69.851614 C4.16656611,63.5754198 8.94559763,57.853822 13.6199246,55.1425368 C13.9016136,54.953393 14.0765716,54.7962236 14.3208822,54.6449086 C14.5068736,54.5023753 14.5850079,54.3400269 14.5850079,54.1968181 C14.5843324,54.0069989 14.4438256,53.8547832 14.2618874,53.8547832 C14.2227076,53.8547832 14.1833027,53.861088 14.1436726,53.8748234 L13.2409616,54.1896126 C7.88841929,55.9923325 -0.0105830419,61.7931905 -0.0135102662,70.547843 C-0.0135102662,72.2969722 0.302404793,74.1631903 1.01799856,76.1370402 C2.88579287,81.2945843 7.87738591,85.0128348 13.1574231,85.0135103 C14.333717,85.0135103 15.5250973,84.8290951 16.6980136,84.4348205 L104.749598,54.7923957 C109.221721,52.8525466 111.100774,48.8843563 111.098524,44.4534393 C111.098524,42.8797184 110.862993,41.2465524 110.423684,39.6232939" id="Fill-3" fill="#007659" mask="url(#mask-2)"></path>
            </g>
            <polyline id="Fill-5" fill="#007659" points="45.1697738 19.1421806 44.652781 19.5344287 44.4911081 19.3342516 45.7410329 18.3948377 45.9027058 18.5956904 45.3836864 18.9814085 46.5674109 20.4445703 46.354399 20.6062432 45.1697738 19.1421806"></polyline>
            <path d="M47.2600372,18.5108009 L47.6408015,18.2867556 C47.8896156,18.1262086 47.8634958,17.9708405 47.7682484,17.833261 C47.673001,17.6950059 47.5311432,17.6062885 47.266342,17.7431926 L46.8842266,17.9665623 L47.2600372,18.5108009 Z M47.4086501,18.7161569 L47.9517628,19.5008782 L47.7218631,19.6382326 L46.5131446,17.889779 L47.1096229,17.5405386 C47.3895106,17.377965 47.7439299,17.3047844 47.9830616,17.6522234 C48.1280718,17.8627584 48.120416,18.0935588 47.9587431,18.2547813 L47.9623459,18.2595099 C48.1985504,18.1933096 48.3028046,18.2890073 48.4638019,18.468919 C48.6083618,18.6269891 48.7544978,18.8008212 48.927204,18.9280429 L48.679741,19.0712517 C48.5883215,18.9809581 48.4820408,18.8848101 48.399403,18.7884368 C48.273082,18.6432015 48.1742319,18.501794 48.0384537,18.4587863 C47.9166361,18.4182555 47.8290446,18.4790517 47.7313203,18.5263377 L47.4086501,18.7161569 L47.4086501,18.7161569 Z" id="Fill-6" fill="#007659"></path>
            <path d="M49.6574339,17.696357 L50.3203377,17.4099393 L49.4941849,16.673855 L49.6574339,17.696357 Z M49.5223313,18.6132537 L49.2287082,16.4759296 L49.4941849,16.3635692 L51.2527712,17.8589305 L50.9839169,17.9730923 L50.5223161,17.5900762 L49.6977396,17.9476479 L49.7754236,18.500443 L49.5223313,18.6132537 L49.5223313,18.6132537 Z" id="Fill-7" fill="#007659"></path>
            <path d="M52.1277861,17.3079368 L52.5065239,17.1940002 C52.7690734,17.1158659 52.8613936,16.9706305 52.8845862,16.8456605 C52.9233156,16.6565168 52.8787318,16.4851616 52.7992464,16.3149322 C52.7195358,16.1451532 52.6125795,15.990911 52.4265882,15.86459 C52.3047706,15.7806012 52.1156269,15.7153016 51.851276,15.7905087 L51.4711872,15.9006174 L52.1277861,17.3079368 Z M51.1073107,15.7558324 L51.7330612,15.5743445 C51.9098205,15.5302109 52.1016663,15.4901305 52.29734,15.5425954 C52.6501831,15.6367169 52.9100305,15.889584 53.0721537,16.2374734 C53.2347273,16.5844621 53.2437341,16.9048805 53.0496366,17.1536946 C52.9433559,17.291049 52.76457,17.3588255 52.5932148,17.4162441 L51.9712922,17.6051627 L51.1073107,15.7558324 L51.1073107,15.7558324 Z" id="Fill-8" fill="#007659"></path>
            <polyline id="Fill-9" fill="#007659" points="54.3074424 16.962074 53.6208957 15.1068893 54.8449258 14.8990563 54.9262126 15.1185982 53.9730633 15.2813969 54.1874262 15.860537 55.0930644 15.7006655 55.174126 15.9190814 54.268713 16.0809795 54.4950099 16.6911932 55.4661729 16.5128576 55.5467842 16.7299226 54.3074424 16.962074"></polyline>
            <polyline id="Fill-10" fill="#007659" points="59.3120954 14.8229485 59.3060158 14.8229485 59.0072137 16.4340478 58.7451145 16.4394519 57.753461 14.8283526 57.7476065 14.8283526 58.0957211 16.4565649 57.8171844 16.4644459 57.4287643 14.6491164 57.9299951 14.6457389 58.8284278 16.122411 58.8340571 16.1221858 59.0864739 14.6434871 59.5525781 14.6457389 59.9335676 16.4164844 59.655031 16.4207627 59.3120954 14.8229485"></polyline>
            <path d="M61.2938263,15.8398212 L62.0497257,15.9082732 L61.6020855,15.0445169 L61.2938263,15.8398212 Z M60.7522898,16.4453063 L61.4410882,14.7939014 L61.7423671,14.8258757 L62.7268152,16.6063037 L62.421258,16.5806342 L62.1596092,16.1190334 L61.2181688,16.0361704 L61.042085,16.4680486 L60.7522898,16.4453063 L60.7522898,16.4453063 Z" id="Fill-11" fill="#007659"></path>
            <path d="M63.8013317,15.8227082 L64.264959,15.9042202 C64.5763706,15.9479033 64.6468492,15.8483777 64.6484254,15.7207057 C64.6493261,15.5930337 64.5806489,15.4682889 64.2692372,15.3993865 L63.8062854,15.3138215 L63.8013317,15.8227082 Z M63.8049344,16.0192826 L63.7975038,16.7587445 L63.5169406,16.7132599 L63.5324774,15.0679347 L64.2575283,15.2021367 C64.5968612,15.2663104 64.9461016,15.4174002 64.9433995,15.736918 C64.941373,15.9305652 64.7938859,16.0539589 64.5579066,16.0571113 L64.5579066,16.0618399 C64.8015417,16.1512329 64.8339664,16.2599905 64.8630134,16.4459818 C64.8925108,16.6123833 64.9132266,16.7873412 64.9839303,16.9505903 L64.6840024,16.9019533 C64.6599091,16.8017522 64.6272593,16.690968 64.6146497,16.592343 C64.5934836,16.4435049 64.5948346,16.3111043 64.5027397,16.2136053 C64.4228039,16.1257885 64.3106687,16.1134041 64.1976328,16.0875094 L63.8049344,16.0192826 L63.8049344,16.0192826 Z" id="Fill-12" fill="#007659"></path>
            <polyline id="Fill-13" fill="#007659" points="65.9215428 17.1417605 66.1133886 15.5979875 66.3923756 15.6704925 66.3081616 16.335648 67.2282107 15.8884582 67.6080744 15.9873083 66.6256528 16.4365246 67.5159794 17.5141935 67.1248572 17.4229993 66.3011813 16.3910401 66.1991788 17.2070602 65.9215428 17.1417605"></polyline>
            <path d="M95.2464764,33.1910562 C89.7505001,13.5680699 75.9065302,1.86727869 53.3153385,4.57788844 C28.2078597,7.59112816 17.5714523,28.4784501 19.7614664,51.8771054 L30.9225226,49.413058 C28.1353546,31.3502824 38.3556459,15.2627077 54.9838564,13.031262 C72.9547622,10.620355 84.8940097,20.5715668 88.2596422,35.1878735 L95.2464764,33.1910562" id="Fill-14" fill="#FFF101"></path>
            <path d="M19.2486734,47.9764664 C19.2174531,26.450334 28.5507953,7.58167097 52.7569142,4.05076289 C54.9343188,3.73079475 57.058583,3.57632533 59.1229516,3.57632533 C77.7497809,3.57047292 91.4305017,16.1602397 95.6479564,33.0913054 L94.8445459,33.2914825 C90.6856357,16.6693516 77.3541553,4.40788426 59.1229516,4.4029305 C57.1000144,4.4029305 55.016281,4.55424548 52.8769304,4.86835917 C29.137366,8.36684261 20.1062034,26.6430805 20.0755801,47.9764664 C20.0755801,49.2601668 20.1084551,50.5535497 20.1739799,51.8563897 L19.3487278,51.8978212 C19.2825275,50.5814709 19.2486734,49.2743526 19.2486734,47.9764664" id="Fill-15" fill="#007659"></path>
            <path d="M30.1938432,44.1834591 C30.1760804,28.0404923 39.3970622,14.9114408 55.309679,12.6491467 C56.927083,12.4178959 58.5280496,12.3048511 60.1006446,12.3048511 C73.7622258,12.2947274 85.4008698,20.8852301 88.6626985,35.0957785 L87.8568111,35.2801937 C84.662759,21.433747 73.4152371,13.14047 60.1006446,13.1307877 C58.5665538,13.1307877 57.0058929,13.2415718 55.4265428,13.4676436 C39.9532349,15.6867049 31.037585,28.337493 31.0202468,44.1834591 C31.0202468,45.876971 31.1240507,47.6071858 31.3327843,49.3641959 L30.5113601,49.4619201 C30.2985734,47.6729357 30.1938432,45.9100711 30.1938432,44.1834591" id="Fill-16" fill="#007659"></path>
            <path d="M72.1182516,38.5926858 L73.1576414,40.5638336 C73.1576414,40.5638336 73.6095598,41.3773768 73.6160898,42.0528901 C73.6253218,43.1814477 72.9644446,44.0114284 72.9644446,44.0114284 L83.2513865,41.3602638 C83.2513865,41.3602638 81.6614533,40.3681599 81.2523174,40.1222731 C80.7634709,39.8254976 79.9479012,38.8295658 79.9479012,38.8295658 L69.4936572,23.6109264 C69.4936572,23.6109264 68.6256226,22.4472421 68.6184171,21.8007759 C68.6071586,20.7920093 69.4628087,20.216472 69.4628087,20.216472 L59.7527552,22.1270488 C59.7527552,22.1270488 60.4215134,22.3060598 60.8662263,23.3612116 C61.1499419,24.0304201 60.9722819,25.2350855 60.9722819,25.2350855 L60.1585136,32.2385824 L65.645483,40.2314811 L72.1182516,38.5926858 Z M65.4484583,26.6473587 L70.2491062,34.9982794 L64.1800695,36.4695474 L65.4484583,26.6473587 L65.4484583,26.6473587 Z" id="Fill-17" fill="#007659"></path>
            <path d="M46.4865745,28.2508021 C45.6561434,33.317152 42.8180868,48.6666158 42.8180868,48.6666158 C42.8180868,48.6666158 42.6005715,49.6580442 42.1657661,50.6857251 C41.7257818,51.7266911 40.7863679,53.099109 40.7863679,53.099109 L50.6864659,50.1696329 C50.6864659,50.1696329 49.4489255,49.6647993 49.077168,48.6792254 C48.9206741,48.2635595 48.8896005,47.8042105 48.9981329,46.9053274 C49.0224514,46.7037993 49.2964847,44.4523134 49.2964847,44.4523134 L58.2940968,42.0240682 C58.2940968,42.0240682 59.3591561,43.9330689 59.4487742,44.0623171 C59.547174,44.2039497 59.7754975,45.0332549 59.5746449,45.853328 C59.2776442,47.0640731 58.7156171,47.8981068 58.7156171,47.8981068 L69.8228573,44.9114373 C69.8228573,44.9114373 68.1613198,43.8945646 67.7656941,43.5912591 C67.0579814,43.0456695 66.4027334,42.2440604 66.4027334,42.2440604 C66.336308,42.1591709 55.4454572,26.3242382 55.4454572,26.3242382 C55.4454572,26.3242382 54.6530801,25.1765411 54.7195055,24.5181407 C54.8419986,23.3141508 55.658469,22.772164 55.658469,22.772164 L45.1920658,24.9666816 C45.1920658,24.9666816 45.9184678,25.1047115 46.3507963,26.2231363 C46.6881026,27.0927471 46.4865745,28.2508021 46.4865745,28.2508021 Z M51.147166,29.6329024 L56.1601503,38.3490506 L49.8227095,39.959024 L51.147166,29.6329024 L51.147166,29.6329024 Z" id="Fill-18" fill="#007659"></path>
            <path d="M76.114138,22.2929999 C73.09662,19.6330536 70.4904897,18.6522083 70.2743254,18.5749746 C70.2630669,18.5709215 70.2630669,18.5709215 70.2630669,18.5709215 L70.263292,18.5709215 L71.0592719,16.2462551 C71.1635261,16.2831831 74.0211726,17.2734856 77.418329,20.1721133 C80.8145848,23.0666878 84.7399926,27.8925549 86.8969067,35.4823973 L84.5335107,36.1545331 C82.5745221,29.2807348 79.1327818,24.9569992 76.114138,22.2929999" id="Fill-19" fill="#007659"></path>
            <path d="M41.6629591,20.9273371 L41.6622835,20.9264365 C41.5289823,21.0606384 32.4757528,29.3892672 32.4532357,43.8961408 C32.4532357,45.557228 32.5752785,47.2980258 32.8432321,49.1104281 L35.8109872,48.4851279 C35.5828889,46.8875389 35.4770585,45.3550244 35.4770585,43.8961408 C35.477734,37.3031309 37.5524606,32.1070825 39.6314654,28.5435246 C40.6701797,26.7630967 41.708894,25.3974339 42.478754,24.4848154 C42.8637966,24.0286188 43.1812878,23.6865839 43.3985779,23.4632141 C43.5064349,23.3508537 43.589523,23.2684411 43.6428886,23.2171021 C43.696029,23.1648624 43.7102147,23.1529283 43.7102147,23.1520277 L41.6629591,20.9273371" id="Fill-20" fill="#007659"></path>
            <path d="M11.3177752,68.7334143 C10.6314537,68.9349424 9.87555429,68.601464 9.62899193,67.9885483 C9.38355542,67.374957 9.74090197,66.7136295 10.4283493,66.5118762 L29.3197546,60.8690883 C30.2181873,60.6054129 31.2066885,61.0415693 31.5273321,61.8434036 C31.8488765,62.646589 31.3816464,63.5103453 30.4834389,63.7753717 L11.3177752,68.7334143" id="Fill-21" fill="#007659"></path>
            <path d="M18.2933508,72.295396 C17.5998238,72.5133616 16.8396462,72.1632205 16.5951104,71.5136019 C16.3510249,70.8630826 16.7153517,70.1603236 17.4084284,69.9419076 L30.7777375,65.4510951 C31.6836009,65.1662536 32.6784068,65.6240265 32.9974743,66.4735971 C33.3165417,67.3242935 32.8412055,68.2432168 31.933766,68.5287337 L18.2933508,72.295396" id="Fill-22" fill="#007659"></path>
            <path d="M25.4594212,75.2151897 C24.7830072,75.4417118 24.0442208,75.0872925 23.8086919,74.4259649 C23.5742887,73.7644122 23.9327611,73.0445402 24.6094003,72.8189188 L31.7707421,69.9765839 C32.6561149,69.6811594 33.6220989,70.1432105 33.930133,71.0087683 C34.2359154,71.8738757 33.7675595,72.8148657 32.8828622,73.1111909 L25.4594212,75.2151897" id="Fill-23" fill="#007659"></path>
            <path d="M104.634085,40.7158241 C105.052903,40.5897283 105.281902,40.1569494 105.146574,39.7518666 C105.013273,39.3465586 104.565183,39.1198113 104.14749,39.2468078 L92.5088461,42.5392597 C91.9628062,42.705436 91.6624279,43.2701651 91.8378362,43.8002179 C92.0143703,44.3309462 92.5991397,44.6263707 93.1447293,44.4610951 L104.634085,40.7158241" id="Fill-24" fill="#007659"></path>
            <path d="M102.457806,45.5477708 C102.895764,45.4140192 103.154035,44.9319279 103.03492,44.472804 C102.915129,44.0127794 102.460959,43.7486537 102.021875,43.8828557 L93.2156582,46.3196574 C92.641697,46.495516 92.3043907,47.1253196 92.4617853,47.7263013 C92.6180541,48.327283 93.2104792,48.6726954 93.7835397,48.4968368 L102.457806,45.5477708" id="Fill-25" fill="#007659"></path>
            <path d="M99.6206502,50.5278802 C100.06176,50.3932278 100.312151,49.927574 100.176598,49.4860135 C100.04127,49.0453536 99.5744902,48.7965395 99.1338303,48.930066 L93.9308016,50.2479925 C93.3534629,50.4229504 93.0278655,51.0327138 93.2041745,51.609377 C93.3793576,52.185815 93.9906971,52.5120879 94.5693869,52.3357789 L99.6206502,50.5278802" id="Fill-26" fill="#007659"></path>
            <path d="M45.4478601,65.6240265 C45.0706985,66.7217356 44.1857761,67.2515632 42.8892409,67.6769114 C42.3783277,67.8541211 41.8572817,67.9885483 41.3441168,68.101359 L38.8496713,59.0920379 C39.9629172,58.7495527 40.9885716,58.4764201 41.8667389,58.4779895 C42.944633,58.4858773 43.7854219,58.8535817 44.4469746,60.0413593 C44.6381449,60.4077127 45.0153065,61.1953612 45.3327977,62.3536414 C45.5151863,63.0199227 45.6561434,63.6898067 45.6561434,64.3446043 C45.6561434,64.777158 45.5962479,65.202281 45.4478601,65.6240265 Z M46.7678132,57.4338779 C45.7847161,56.6025462 44.4165765,56.0740696 43.0146612,56.0733941 C43.0043033,56.0733941 42.9977734,56.0740696 42.9930448,56.0740696 C42.9705277,56.0727186 42.9358513,56.0727186 42.9041022,56.0727186 C42.2574108,56.0727186 41.6519257,56.1848538 41.0354072,56.2823529 L41.0664808,56.4757749 L41.0225724,56.2843794 L39.8985183,56.5399486 C39.1678381,56.7252645 38.4036073,56.9387267 37.6654964,57.1659243 C36.4729903,57.5003034 35.3032264,57.845941 34.1086937,58.1818963 C34.0312348,58.2030624 33.974942,58.2703886 33.9668359,58.3507747 C33.9589549,58.4304852 34.0008367,58.5079441 34.0724411,58.5448721 C35.2879148,59.1872853 35.34083,59.2994205 35.6929976,60.5092649 L37.9329997,68.6750949 C38.0183396,69.0671178 38.0870168,69.3801057 38.0854406,69.6577416 C38.0840895,69.970054 38.0106837,70.2474648 37.7643466,70.6232753 C37.6549134,70.7835972 37.5326455,70.9362632 37.4101524,71.115049 C37.3628665,71.1828255 37.364893,71.2735695 37.4126293,71.3402201 C37.4497825,71.3924598 37.5103536,71.4221824 37.5725008,71.4221824 C37.589839,71.4221824 37.6076275,71.4199307 37.6249656,71.4147518 L44.3235808,69.5395268 C45.4701521,69.1393978 45.9101364,68.9333662 46.4417654,68.6025899 C47.6342716,67.8410612 48.199451,66.9653708 48.4430862,66.5276381 C49.0109677,65.5796678 49.2343374,64.6375519 49.2336634,63.6994891 C49.2336634,62.9485434 49.0940558,62.2007502 48.8853222,61.4403474 C48.2753337,59.2102528 47.691465,58.2201754 46.7678132,57.4338779 Z M92.2379652,53.7050444 C90.6376742,53.1869257 90.2832549,52.9973317 88.8775117,51.9628956 L85.2290643,48.9604641 L87.4454235,44.6587953 C88.1112544,43.4635871 88.317286,43.1846001 89.2621039,42.2026289 C89.3138933,42.1481375 89.324026,42.064599 89.2834952,41.9995246 C89.2434147,41.9353508 89.1637042,41.9065289 89.0918746,41.9310726 L85.1509299,43.213422 C85.0653649,43.2406677 85.0174034,43.3320872 85.0428478,43.4178774 C85.1257108,43.6991161 85.1664667,43.8896108 85.1664667,44.0483565 C85.1664667,44.2904154 85.0777493,44.5052286 84.8437965,44.9467892 L82.8890862,49.0822817 L82.3525034,46.7022231 C82.2836011,46.3595127 82.2135729,45.9994641 82.2135729,45.647972 C82.2135729,45.353223 82.262435,45.0661299 82.3973125,44.7887191 C82.4608107,44.6765838 82.5936617,44.4860891 82.6889091,44.3442313 C82.726963,44.2852365 82.7249364,44.2091286 82.6828294,44.153061 C82.6395966,44.0960927 82.5666412,44.074026 82.4997653,44.0956424 L81.1469373,44.5363022 C80.7564906,44.6632987 80.3405996,44.7808381 79.9397951,44.9121128 C79.2561756,45.1366084 79.1820943,45.2419885 78.8465893,45.2390613 L78.8456887,45.2399619 L78.819794,45.2410878 C78.7862435,45.2471674 78.7549447,45.2487436 78.7236459,45.2487436 C78.6608232,45.2494191 78.5925963,45.2410878 78.5119851,45.2399619 C78.4365528,45.2390613 78.3694518,45.2890492 78.3505374,45.362455 C78.3304972,45.4347349 78.361796,45.5115183 78.4273207,45.5500226 C78.8337546,45.7817236 78.9607511,45.8688648 79.1285036,46.0192791 C79.525255,46.3736985 79.6509005,46.8918172 79.8152754,47.5540454 L81.436057,54.7446594 C81.5054097,55.1447885 81.5869217,55.569236 81.5869217,55.9749943 C81.5869217,56.2749222 81.5436888,56.5629161 81.4272754,56.8331214 C81.339909,57.0567163 81.2453371,57.1976734 81.1962498,57.3120604 C81.1719313,57.3726314 81.1840906,57.4404079 81.2284493,57.487919 C81.2608739,57.5225953 81.3050075,57.5408342 81.3498165,57.5408342 C81.3669295,57.5408342 81.3840425,57.5381321 81.4007052,57.532728 L85.1599368,56.3075721 C85.2196071,56.2882073 85.2626148,56.2370935 85.272072,56.1751714 C85.2817543,56.1141501 85.25631,56.0520029 85.2056465,56.0150748 C84.4380382,55.4474184 84.3765665,55.3129913 84.1011822,54.3024234 L83.3135337,50.8075427 C83.7654521,51.2254602 84.2211984,51.6402254 84.6836999,52.0432817 C85.3459281,52.6140904 85.9995998,53.1639583 86.6431388,53.7514297 C87.1914305,54.2285673 87.7275629,54.7255199 88.2663973,55.2251746 C88.310756,55.2650298 88.3726781,55.2789905 88.4298715,55.2600761 L92.2379652,54.020284 C92.3059669,53.9973165 92.3523522,53.934719 92.3523522,53.862439 C92.3523522,53.7906095 92.3059669,53.7280119 92.2379652,53.7050444 Z M80.3144798,57.5793385 C79.6047404,57.2575689 79.2872492,57.1105322 79.0222228,56.4602381 C78.9292271,56.2224574 78.8819412,56.0961364 78.7623753,55.5964817 L77.0438695,48.3741185 C76.9529004,47.9965066 76.8776932,47.6495179 76.8776932,47.3243709 C76.8783687,47.0197144 76.9409663,46.733747 77.1247059,46.4342695 C77.2539541,46.2158535 77.5095233,45.9780728 77.5700944,45.9114222 C77.6203075,45.8555797 77.626162,45.7713657 77.5847305,45.7094437 C77.5430738,45.6457203 77.4647143,45.6175739 77.3922092,45.6405413 L73.3355266,46.9501365 C73.2731542,46.9717529 73.2274444,47.027145 73.220239,47.0913188 C73.2128083,47.1577442 73.2445574,47.221918 73.3008502,47.2552433 C74.3256039,47.8863979 74.3931552,48.0086658 74.6919573,49.1959931 L75.9355773,54.4226647 C75.0799271,53.5719683 74.2247273,52.7336563 73.3575933,51.8978212 C72.087178,50.6864006 70.8007754,49.4803842 69.5136974,48.2752684 C69.4702394,48.2333866 69.4056153,48.2185253 69.3484218,48.23789 L67.2511782,48.9147544 C66.5004577,49.1583895 66.5439157,49.2329211 65.8438588,49.2507097 C65.7679761,49.2529614 65.7022261,49.3058766 65.684888,49.3804082 C65.6668743,49.455165 65.7022261,49.5310477 65.7693271,49.5673002 C66.8794207,50.1725602 66.9395414,50.290775 67.3020668,51.587085 L68.9645051,58.5700913 C69.0656069,59.1679206 69.1187473,59.5200882 69.1187473,59.813261 C69.1187473,59.9305751 69.1113167,60.0406838 69.0942036,60.1575476 C69.0198972,60.7353366 68.7947261,60.9258314 68.5959,61.1640624 C68.547263,61.2217062 68.5429848,61.3036685 68.5844163,61.3664913 C68.6159402,61.4140024 68.6684051,61.4403474 68.7240224,61.4403474 C68.740685,61.4403474 68.7584735,61.4374201 68.7758117,61.4322412 L71.834536,60.4444156 C72.1682396,60.3257504 72.3157266,60.298955 72.4537565,60.298955 C72.5490039,60.298955 72.6525826,60.3144919 72.8113282,60.3307042 C72.8917143,60.3394858 72.9669215,60.2894979 72.9903393,60.212039 C73.0135319,60.134355 72.9779549,60.0510417 72.9059001,60.0141136 C71.7978331,59.4243905 71.7233015,59.3091029 71.355597,58.0717877 L70.0414985,52.5483405 L76.7646573,58.7988652 C76.809016,58.8402966 76.8716136,58.8542572 76.9303832,58.8357932 L79.4579289,58.0193228 C79.7297104,57.9058366 79.8157258,57.8740874 79.9566829,57.8731867 C80.0224328,57.8731867 80.1052958,57.8819684 80.2217093,57.8990814 C80.3043471,57.9107903 80.3842828,57.8605772 80.4072503,57.7795156 C80.4302177,57.6991295 80.3912631,57.6133393 80.3144798,57.5793385 Z M66.0883946,59.7387293 L64.2964829,52.1894177 C64.2341105,51.8514359 64.1721885,51.4814798 64.1721885,51.1286367 C64.1721885,50.8111454 64.2219513,50.5094161 64.3590805,50.2398863 C64.4516258,50.0613256 64.6306369,49.8647513 64.6792738,49.7924713 C64.7144005,49.7312248 64.7089964,49.6535408 64.663737,49.5990493 C64.6191531,49.5436573 64.5455222,49.5215905 64.4772953,49.5429817 C63.691223,49.7992265 62.8968193,50.036782 62.0911571,50.3166697 L61.4115907,50.5366618 C61.2580241,50.586875 61.1213452,50.648797 60.9938983,50.6893278 C60.6784336,50.792231 60.5647222,50.7832242 60.2184091,50.800112 C60.1409502,50.8039399 60.0756506,50.859332 60.0592131,50.9347643 C60.0421001,51.0099715 60.0779023,51.0865297 60.1463543,51.1230074 C60.7743565,51.4587375 61.1071594,51.6573384 61.3530463,52.2396309 C61.5045864,52.572659 61.5953304,53.0279549 61.6219006,53.1376133 L63.3399561,60.381818 C63.4331769,60.7745164 63.5295502,61.2086463 63.5281991,61.617557 C63.5281991,61.9350483 63.472807,62.2338503 63.3232934,62.4959495 C63.2638482,62.5957003 63.1861642,62.7064845 62.9972457,62.9307549 C62.947708,62.9892994 62.9443305,63.0726127 62.9868878,63.1367865 C63.0195376,63.1849731 63.072678,63.2122188 63.1287456,63.2122188 C63.1467593,63.2122188 63.1649981,63.2099671 63.1821111,63.2038875 L67.3702937,61.8485826 C67.4335668,61.828092 67.4792765,61.7724748 67.4880582,61.7062744 C67.4959392,61.6396238 67.4653159,61.5752249 67.4081224,61.5400982 C66.4912257,60.9508254 66.4115151,60.8114445 66.0883946,59.7387293 Z M55.379482,57.0332985 C54.9874591,57.7209711 54.2470966,58.044542 53.4641766,58.3332113 C53.2214422,58.4268825 52.9910921,58.5169509 52.7638945,58.6047677 L51.9372914,55.1306027 C52.9210639,54.8000515 53.5168667,54.6280208 53.9996335,54.6293639 C54.1318089,54.6293639 54.2565537,54.6413059 54.3821992,54.6662999 C54.9962408,54.7705541 55.3535874,55.1497422 55.5148099,55.799586 C55.5366515,55.8955089 55.5717782,56.0585328 55.5717782,56.2616371 C55.5717782,56.4868083 55.5292208,56.7561129 55.379482,57.0332985 Z M62.8601165,63.0446915 C62.2442735,62.7988046 61.9810485,62.7278757 61.6329339,62.5301755 C60.6165116,61.93077 59.7324898,60.2584242 58.8608525,59.3230635 C58.7223722,59.189537 57.9905662,58.3922061 57.009946,58.3381651 C56.9955351,58.336814 56.9795479,58.335463 56.9628852,58.3338868 C57.473123,57.9558245 57.9241407,57.5372315 58.2445592,56.8995469 C58.5354802,56.3354933 58.6190187,55.7930561 58.6190187,55.3580255 C58.6190187,55.0029307 58.5643021,54.7185396 58.5235462,54.5487606 C58.2763083,53.5077945 57.637723,52.9513967 57.3328414,52.7239739 C56.7588802,52.2862413 56.1635278,52.1207405 55.5298963,52.1223056 C55.1493572,52.1223056 54.7553077,52.1783843 54.3304099,52.2648501 C53.9613544,52.3251959 53.5862194,52.4271984 53.214687,52.5091607 L48.6119645,53.9950648 C48.273082,54.1310682 48.1575692,54.1648438 47.9501866,54.1666452 C47.8781319,54.1666452 47.7943682,54.1614663 47.6907895,54.1533601 C47.6052245,54.1459295 47.5259643,54.2010964 47.5023213,54.2839593 C47.4784532,54.3659216 47.5171826,54.4537384 47.5935156,54.492693 C48.3120366,54.8626491 48.6209713,55.0700317 48.9276544,55.7772941 C49.0447434,56.0326381 49.0933803,56.235067 49.2491987,56.8065512 L51.0420111,64.3459553 C51.123523,64.7336999 51.2025581,65.1128881 51.2025581,65.4783408 C51.2018825,65.7877259 51.1482918,66.0854021 50.9965265,66.3851048 C50.8747089,66.6125276 50.6641739,66.8500832 50.6173384,66.902548 C50.5644231,66.9637946 50.5587939,67.0531875 50.6031526,67.1202885 C50.6369282,67.1720778 50.6941217,67.2015752 50.7540172,67.2015752 C50.7720309,67.2015752 50.7907201,67.1984228 50.808959,67.1927936 C51.7274319,66.8957929 52.6715743,66.6102759 53.6127896,66.3060698 C54.783229,65.9302592 54.5677402,65.9185503 55.3461567,65.8933311 C55.4258673,65.8906291 55.4954452,65.8356873 55.5159357,65.7591292 C55.535976,65.6816703 55.5026506,65.6001584 55.4337483,65.5582765 C54.3614835,64.8967238 54.2813226,64.7431571 53.9386121,63.4603573 L53.9390625,63.4603573 L53.2644499,60.6254531 C53.8039598,60.4414884 54.2448448,60.3115646 54.6798754,60.3122401 C54.9469283,60.3122401 55.2144316,60.3588506 55.5175119,60.4763899 C55.6917944,60.5529481 56.0140142,60.6799446 56.3673077,60.9834752 C56.4706612,61.084577 56.6064394,61.1989639 56.8192261,61.447778 C57.1328894,61.8048994 57.9471081,62.9501196 58.1470601,63.3340364 C58.2871165,63.5961355 58.3242697,63.6920584 58.3544427,63.8172535 C58.3825891,63.9379453 58.3933973,64.027113 58.3933973,64.1165059 C58.3933973,64.221886 58.3778605,64.3362729 58.3524161,64.5010982 C58.3431841,64.561444 58.3659264,64.6242668 58.4120865,64.6634466 C58.4582465,64.704878 58.52197,64.7188386 58.58119,64.7010501 C59.1810458,64.5269929 59.7865309,64.3128551 60.3917908,64.1165059 C60.705229,64.0345437 61.0042562,63.9379453 61.3163434,63.8366183 C62.4354438,63.4747683 62.8312946,63.3892033 62.8319701,63.3876271 C62.9078527,63.3714148 62.9654965,63.3049893 62.9729272,63.2266297 C62.9781061,63.1487205 62.9328467,63.0741889 62.8601165,63.0446915 L62.8601165,63.0446915 Z" id="Fill-27" fill="#007659"></path>
            <path d="M26.5195268,37.2594477 L24.7812059,36.6251407 L26.6116218,36.293914 L26.5195268,37.2594477 Z M28.9986606,35.9048183 L29.1112462,34.7183918 L28.9887531,34.7404585 L23.0032548,35.8262336 L22.883689,37.0880925 L28.6717122,39.3530886 L28.7842978,38.166662 L27.6609191,37.7275784 L27.8142606,36.118956 L28.9986606,35.9048183 L28.9986606,35.9048183 Z" id="Fill-28" fill="#007659"></path>
            <polyline id="Fill-29" fill="#007659" points="24.1056926 30.2433412 23.7566773 31.5434792 29.6969162 33.2937342 30.6599731 30.0224484 29.3366425 29.6335779 28.7169716 31.7378019 24.1056926 30.2433412"></polyline>
            <polyline id="Fill-30" fill="#007659" points="26.3837486 24.6604489 25.8174433 25.8763728 31.3451687 28.6155793 32.8531396 25.571266 31.6214537 24.961953 30.6518669 26.9202661 26.3837486 24.6604489"></polyline>
            <path d="M40.9730348,14.5205437 L40.0248393,15.0636564 L40.087662,15.2178986 C40.139001,15.3451203 40.2200626,15.5110714 40.2421294,15.6889566 C40.2599179,15.8513049 40.2407784,16.0073485 40.106126,16.1805051 C40.0484822,16.2548116 39.9809309,16.3108792 39.9214857,16.3392507 C39.8642923,16.3700992 39.8217349,16.3847353 39.7724225,16.3908149 C39.7503557,16.393517 39.7264876,16.3946428 39.7012684,16.3939673 C39.5416221,16.3849605 39.3157755,16.2926403 39.0338612,16.0323425 C38.8062133,15.8206817 38.5844197,15.4901305 38.4101373,15.1634072 C38.2392324,14.8378098 38.1104345,14.5092852 38.0656255,14.3401817 C38.0462608,14.2658752 38.0327505,14.1942708 38.0237437,14.1237922 C37.9816367,13.7914397 38.0638241,13.5345195 38.2140133,13.4316163 C38.3223206,13.3530315 38.4168924,13.3197062 38.5038085,13.3079973 C38.8077895,13.2550821 39.1390162,13.5863088 39.2511514,13.762843 L39.349326,13.9112307 L40.3110317,13.3613629 L40.2115061,13.1940607 C40.0658204,12.9526773 39.67042,12.3077873 38.8595788,12.0983782 C38.6292288,12.0321778 38.4168924,12.0211445 38.2331528,12.0441119 C37.9780339,12.0756359 37.779433,12.1713336 37.6344228,12.2546469 C36.9361672,12.6471201 36.7456725,13.3476274 36.8422709,14.0548899 C36.87402,14.3124856 36.9395448,14.576161 37.0264609,14.8432139 C37.1295892,15.1553011 37.2955403,15.4964353 37.4797303,15.8179796 C37.6616685,16.1347954 37.860945,16.419862 38.0289226,16.6261187 C38.6260764,17.3394608 39.3331136,17.7711138 40.0340713,17.6887012 L40.0392502,17.6880256 C40.2360498,17.663482 40.4281207,17.5952551 40.6064562,17.4826696 C41.0493678,17.1955764 41.3089901,16.7346512 41.3893762,16.3556882 C41.4281056,16.164518 41.4290063,15.948804 41.4008599,15.7236329 C41.3574019,15.3739422 41.244366,15.0037609 41.0676067,14.6887465 L40.9730348,14.5205437" id="Fill-31" fill="#007659"></path>
            <polyline id="Fill-32" fill="#007659" points="44.8180566 10.0153203 44.273818 8.85636459 44.1011118 8.93832688 40.9707831 10.4086942 41.515472 11.5669743 42.6345724 11.041425 44.4791741 14.9666077 45.5843138 14.4478135 43.7401625 10.5224056 44.8180566 10.0153203"></polyline>
            <polyline id="Fill-33" fill="#007659" points="47.6173837 7.72397911 46.4593287 8.10339242 48.1917952 13.3955889 49.3507509 13.0166259 49.2899547 12.8322108 47.6173837 7.72397911"></polyline>
            <polyline id="Fill-34" fill="#007659" points="52.0145251 6.57020237 52.05393 9.80478528 50.6191397 6.90458146 49.4198784 7.19167462 52.1059445 12.1897976 53.0825116 11.9562952 53.2137864 6.28333439 52.9667737 6.34300473 52.0145251 6.57020237"></polyline>
            <polyline id="Fill-35" fill="#007659" points="55.3761045 11.4971713 56.5645576 11.3762544 56.5438418 11.1794549 56.0144646 6.02303659 54.8262366 6.1453045 55.3761045 11.4971713"></polyline>
            <polyline id="Fill-36" fill="#007659" points="57.7807067 5.7953886 57.7471562 7.0367569 58.906337 7.06850603 58.7908243 11.1337451 59.9781515 11.1670705 60.0927636 7.10183135 61.2093871 7.13380565 61.2445138 5.89153667 61.0441115 5.88748359 57.7807067 5.7953886"></polyline>
            <polyline id="Fill-37" fill="#007659" points="64.5995632 6.2909902 63.8544721 7.84534634 63.4426341 6.15971545 62.1852787 6.01875834 63.1159108 9.32629669 62.9037997 11.2064754 64.0409137 11.3348229 64.2537004 9.45374353 65.8607466 6.43262283 65.5732031 6.40042336 64.5995632 6.2909902"></polyline>
            <path d="M72.6703711,9.94461654 C72.7014447,10.1461447 72.6370458,10.5030409 72.5177051,10.8385458 C72.4037685,11.1808059 72.2324133,11.5127081 72.1085692,11.6574931 C71.937214,11.8666771 71.7944555,11.9421094 71.6629556,11.9610238 C71.5812185,11.9722823 71.4936269,11.9616993 71.393651,11.9274733 L71.0245955,11.7982251 L71.8910539,9.31796536 L72.3299124,9.47153205 C72.5417984,9.5638522 72.5969653,9.57466042 72.6678942,9.92502665 C72.6681194,9.93425867 72.6712718,9.94371586 72.6703711,9.94461654 Z M72.9730011,8.43642048 L71.209461,7.82102786 L71.1441614,8.00859539 L69.5585065,12.5446673 L71.2747606,13.1451986 C71.4256253,13.1972131 71.5872981,13.207571 71.7498717,13.1848287 C72.0826745,13.1375428 72.4208815,12.9574059 72.7138291,12.6739155 C73.0076774,12.392902 73.3609709,11.8844656 73.6350041,11.1015457 C73.7991539,10.6304877 73.8428371,10.2456703 73.8351812,10.0103665 C73.8315785,9.88089312 73.821671,9.75952589 73.8061342,9.64649 C73.7140392,8.93832688 73.3458844,8.56161562 72.9730011,8.43642048 L72.9730011,8.43642048 Z" id="Fill-38" fill="#007659"></path>
            <path d="M77.7720728,12.5557007 C77.6522818,12.7860507 77.5007417,12.841668 77.4210311,12.8459462 C77.4066201,12.8466217 77.3991895,12.8463966 77.3942357,12.8448204 C77.3908582,12.84437 77.3881561,12.8434693 77.3865799,12.8434693 C77.3856792,12.8434693 77.3850037,12.8439197 77.384103,12.8454959 L76.8317583,12.4978317 L77.2278343,11.8678029 L77.7743245,12.2107385 C77.856512,12.2674817 77.857863,12.2888729 77.8628168,12.3217479 C77.8661944,12.3589011 77.8439024,12.4431151 77.7720728,12.5557007 Z M78.5646751,11.3787313 L76.9769937,10.3789716 L76.8749912,10.5422207 L74.4735413,14.3579702 L75.3249133,14.8936522 L76.2316773,13.4505306 L76.6835957,13.7349217 C76.7443919,13.7763532 76.7581273,13.8047248 76.7630811,13.8522359 C76.7657832,13.8909653 76.7533988,13.9522119 76.7043115,14.0368762 C76.5334066,14.291995 76.3492166,14.5835916 76.2397835,14.7747619 C76.1620994,14.9161693 76.1053563,15.0598285 76.0724813,15.2174483 L76.0463615,15.347372 L76.8851239,15.8762989 L77.0729166,15.576371 L77.1213283,15.4995877 L77.093182,15.4142478 C77.0862016,15.3948831 77.0859765,15.3897042 77.0857513,15.3838497 C77.0846255,15.381598 77.0819234,15.3451203 77.164336,15.2151966 C77.2805243,15.0219998 77.5730216,14.5439615 77.6624145,14.3674274 C77.7592381,14.180085 77.7900865,14.0112067 77.7817552,13.8711503 C77.7795035,13.8265664 77.7738742,13.7853601 77.7662184,13.7482068 C77.9661703,13.697093 78.1688243,13.5953157 78.3735049,13.3703697 C78.6639756,13.0645874 78.786919,12.7378641 78.8549207,12.5514224 C78.9195448,12.3845706 78.9483667,12.2197454 78.9404857,12.0659535 C78.9253992,11.7655753 78.7682298,11.523066 78.5646751,11.3787313 L78.5646751,11.3787313 Z" id="Fill-39" fill="#007659"></path>
            <polyline id="Fill-40" fill="#007659" points="81.8033111 13.8911905 78.8330791 17.2924 79.6200521 17.979397 79.745022 17.8355127 82.5909596 14.5784127 81.8033111 13.8911905"></polyline>
            <polyline id="Fill-41" fill="#007659" points="85.8280194 17.9498996 84.3038362 19.3371788 85.1914607 17.2493923 84.5558027 16.5513619 81.3180674 19.4963748 82.0057399 20.2524993 83.5513144 18.8460806 82.6418483 20.9523311 83.2786322 21.6523881 86.5168178 18.705799 85.8280194 17.9498996"></polyline>
            <polyline id="Fill-42" fill="#007659" points="89.2792169 22.5906761 87.7248608 22.5609535 88.7851915 21.85234 88.2301448 21.0210083 88.0709488 21.1266136 84.7050911 23.374947 85.2603631 24.2076298 86.3934241 23.4497039 86.5816671 23.4557835 85.8075289 25.0263519 86.4693067 26.0184558 87.6498788 23.5226593 89.9479751 23.5924623 89.2792169 22.5906761"></polyline>
            <polyline id="Fill-43" fill="#007659" points="28.3299025 44.6025025 26.3929806 45.6797211 26.8257595 47.8672584 25.1973221 46.375725 23.2766125 47.4270489 24.2067944 45.4565765 22.562595 43.9308171 24.7807555 44.1627434 25.7102618 42.1864166 26.126378 44.3338734 28.3299025 44.6025025"></polyline>
            <polyline id="Fill-44" fill="#007659" points="91.7572249 28.3971634 91.1589453 29.6394323 92.1645595 30.5955088 90.8013736 30.4221271 90.2028688 31.6461572 89.9684657 30.3106674 88.5845641 30.1262523 89.7957595 29.4475866 89.5591046 28.1093947 90.5404003 29.0512854 91.7572249 28.3971634"></polyline>
            <path d="M34.7357952,19.3362781 L33.760354,17.7204503 L35.4254943,18.6278898 L34.7357952,19.3362781 Z M32.8340001,15.9071474 L31.9144013,16.8506143 L35.1062017,22.4299039 L35.9737859,21.5413787 L35.3559164,20.4603323 L36.5146469,19.2709785 L37.6056009,19.8670064 L38.4731852,18.9773554 L32.8340001,15.9071474 L32.8340001,15.9071474 Z" id="Fill-45" fill="#007659"></path>
        </g>
    </g>
</svg>