<?xml version="1.0" standalone="no"?>
<!DOCTYPE svg PUBLIC "-//W3C//DTD SVG 20010904//EN" "http://www.w3.org/TR/2001/REC-SVG-20010904/DTD/svg10.dtd">
<svg width="4394px" height="1181px" viewBox="0 0 4394 1181" version="1.1" xmlns="http://www.w3.org/2000/svg" xmlns:xlink="http://www.w3.org/1999/xlink">
    <g id="Page-1" stroke="none" stroke-width="1" fill="none" fill-rule="evenodd">
        <path d="M893.5,289.77 C793.3,285.57 732,273.67 683.9,249.27 C627.1,220.47 598.6,176.47 588.4,101.87 C587.2,92.87 586.7,78.77 586.3,45.17 L585.8,0.37 L648.4,0.37 L711,0.37 L711,25.17 C711,107.07 721.8,135.87 755,142.97 C765.5,145.17 790.3,144.27 824.2,140.47 C916.3,129.97 968.2,130.07 1061,140.97 C1087.7,144.07 1113.7,145.07 1123.8,143.37 C1139.3,140.77 1150.7,132.17 1157.4,117.97 C1165.6,100.57 1168.6,79.07 1169.7,29.67 L1170.3,0.37 L1232.7,0.37 L1295,0.37 L1295,31.17 C1295,66.27 1293.8,88.77 1290.9,108.87 C1276.1,212.27 1215.2,262.77 1082.7,281.87 C1064.5,284.47 1041.6,286.67 1016,288.47 C1000.9,289.47 909.5,290.47 893.5,289.77 Z" id="Handle" fill="#E20026" fill-rule="nonzero" transform="translate(940.400000, 145.186965) scale(1, -1) translate(-940.400000, -145.186965) "></path>
        <polygon id="T" fill="#E20026" fill-rule="nonzero" transform="translate(4129.500000, 763.500000) scale(1, -1) translate(-4129.500000, -763.500000) " points="3865 1139.5 3865 1111 3981.8 1110.8 4098.5 1110.5 4098.8 734.8 4099 359 4130 359 4161 359 4161 735 4161 1111 4277.5 1111 4394 1111 4394 1139.5 4394 1168 4129.5 1168 3865 1168"></polygon>
        <path d="M3272,763.5 L3272,359 L3303.5,359 L3335,359 L3335,530 L3335,701 L3448.1,700.8 L3561.2,700.5 L3668.9,529.8 L3776.5,359 L3813.4,359 C3842.7,359 3850.1,359.3 3849.7,360.3 C3849.5,361 3799.4,439.7 3738.5,535.3 C3677.6,630.9 3628,709.3 3628.2,709.6 C3628.5,709.8 3633.2,710.7 3638.6,711.5 C3687.2,718.7 3727.3,737.2 3758.3,767 C3771.2,779.3 3778.3,787.8 3787.3,801.5 C3813.2,841.1 3825.3,888.5 3823.7,943.5 C3821.8,1007.7 3801.1,1061.5 3763.1,1101.2 C3729.9,1135.9 3688.3,1156.7 3636.3,1164.5 C3615.2,1167.6 3593.9,1168 3433.3,1168 L3272,1168 L3272,763.5 Z M3600,1110 C3636,1107.5 3664.3,1098.5 3690.5,1081.2 C3702.5,1073.3 3721,1055.3 3729.2,1043.5 C3744,1022.2 3753.6,997.7 3758.7,968.5 C3761.1,954.4 3761.1,914.6 3758.7,900.5 C3751.7,859.8 3736.9,830.6 3710.8,805.4 C3684.5,780.1 3651.2,765.1 3608.7,759.5 C3598.6,758.2 3578.3,758 3465.9,758 L3335,758 L3335,934.5 L3335,1111 L3460.3,1111 C3531.8,1111 3591.7,1110.5 3600,1110 Z" id="R" fill="#E20026" fill-rule="nonzero" transform="translate(3560.857577, 763.500000) scale(1, -1) translate(-3560.857577, -763.500000) "></path>
        <path d="M2826,1167.6 C2826,1167.4 2760,985.7 2679.4,763.8 C2598.8,542 2532.2,358.8 2531.4,356.7 L2530.1,353 L2563.6,353.2 L2597.2,353.5 L2633.1,451.5 C2652.8,505.4 2671.5,556.4 2674.6,564.8 L2680.2,580 L2860.9,580 L3041.5,580 L3081.2,466.7 L3120.8,353.5 L3155.5,353.2 C3183.1,353 3190.1,353.2 3189.8,354.2 C3189.5,354.9 3125,538.3 3046.5,761.8 L2903.6,1168 L2864.8,1168 C2843.5,1168 2826,1167.8 2826,1167.6 Z M2945.7,863.4 C2990.4,739.2 3027.2,636.7 3027.5,635.8 C3028.1,634.1 3019.8,634 2861.6,634 C2770,634 2695,634.2 2695,634.5 C2695,634.8 2732.4,736.8 2778,861.2 C2823.7,985.7 2861.3,1088.1 2861.5,1088.8 C2861.8,1089.6 2862.6,1090 2863.3,1089.8 C2863.9,1089.5 2901.1,987.7 2945.7,863.4 Z" id="A" fill="#E20026" fill-rule="nonzero" transform="translate(2859.954567, 760.500000) scale(1, -1) translate(-2859.954567, -760.500000) "></path>
        <path d="M2031,763.4 L2031,358.9 L2062.5,358.9 L2094,358.9 L2094.2,537.2 L2094.5,715.4 L2239,716 C2394.8,716.6 2389.4,716.4 2416.9,722 C2490.4,736.9 2541.8,778.1 2567,842.5 C2589.6,900.2 2589.7,978.8 2567.3,1035.9 C2541.4,1102.1 2487.6,1146.4 2414.9,1161.3 C2384.9,1167.5 2393.7,1167.2 2204.3,1167.6 L2031,1168 L2031,763.4 Z M2378,1108.5 C2423.7,1101.7 2458.8,1084 2482.9,1055.4 C2508.1,1025.7 2521,987.1 2521,941.3 C2521,868.5 2491.8,815.4 2437.9,790 C2419.3,781.3 2396.3,775.3 2372.6,773 C2365.5,772.3 2314.8,771.9 2227.8,771.9 L2094,771.9 L2094,940.7 C2094,1033.6 2094.3,1109.9 2094.7,1110.3 C2095.1,1110.7 2156.4,1110.8 2231,1110.6 C2352.6,1110.3 2367.7,1110.1 2378,1108.5 Z" id="P" fill="#E20026" fill-rule="nonzero" transform="translate(2307.512667, 763.450000) scale(1, -1) translate(-2307.512667, -763.450000) "></path>
        <path d="M1439,1180.30924 C1370.6,1177.40924 1348.6,1176.70924 1315.3,1176.20924 L1276,1175.60924 L1276,1100.80924 L1276,1026.00924 L1416.3,1025.60924 C1571.1,1025.30924 1562.4,1025.60924 1588.8,1018.80924 C1635,1006.90924 1663.7,979.609243 1672.1,939.409243 C1677.8,912.009243 1674.4,878.109243 1663.5,855.209243 C1658.3,844.109243 1654.7,838.809243 1646.8,830.409243 C1631.2,813.609243 1608.3,802.409243 1578.6,796.709243 C1568.2,794.709243 1563.4,794.609243 1506.8,794.209243 L1446,793.809243 L1446,876.009243 L1446,958.209243 L1430.8,957.609243 C1396.9,956.209243 1363.3,948.009243 1335,934.309243 C1314.9,924.609243 1303.6,916.709243 1288.8,901.909243 L1276,889.209243 L1276,628.009243 L1276,366.909243 L1361,366.909243 L1446,366.909243 L1446,518.809243 C1446,654.709243 1446.2,670.709243 1447.5,671.309243 C1448.4,671.609243 1454.2,672.409243 1460.5,673.009243 C1492.5,676.309243 1520.2,666.209243 1544.9,642.509243 C1562.6,625.509243 1574.5,607.909243 1602.5,557.909243 C1622.9,521.409243 1658.3,465.309243 1676.3,440.909243 C1714.4,389.309243 1752.3,364.909243 1808,356.209243 C1822.2,354.009243 1867.3,353.709243 1884.5,355.709243 C1896.7,357.109243 1922.2,360.809243 1922.6,361.209243 C1922.8,361.409243 1925,472.909243 1925,482.809243 L1925,489.209243 L1919.3,488.509243 C1895.2,485.509243 1886.3,485.909243 1874.3,490.409243 C1858.2,496.509243 1846.8,507.409243 1818.9,543.409243 C1769.6,607.009243 1731.8,661.309243 1707.7,703.109243 L1705,707.809243 L1717.9,714.409243 C1766.8,739.209243 1803.2,774.109243 1824.3,816.409243 C1841.1,850.109243 1848.1,883.109243 1848.1,928.409243 C1848.1,965.709243 1844.1,993.709243 1834.6,1022.20924 C1809.8,1096.10924 1752.9,1143.70924 1662.7,1165.90924 C1637.4,1172.10924 1614.2,1175.60924 1577.5,1179.00924 C1566.2,1180.00924 1457.3,1181.00924 1439,1180.30924 Z" id="R" fill="#E20026" fill-rule="nonzero" transform="translate(1600.500000, 767.456586) scale(1, -1) translate(-1600.500000, -767.456586) "></path>
        <polygon id="E" fill="#E20026" fill-rule="nonzero" transform="translate(940.500000, 763.500000) scale(1, -1) translate(-940.500000, -763.500000) " points="679 763.5 679 359 940.5 359 1202 359 1202 434 1202 509 1025.5 509 849 509 849.2 610.7 849.5 712.5 1001.8 712.8 1154 713 1154 781 1154 849 1001.5 849 849 849 849.2 933.8 849.5 1018.5 1025.8 1018.8 1202 1019 1202 1093.5 1202 1168 940.5 1168 679 1168"></polygon>
        <path d="M122,1165.38291 C100.8,1164.38291 64.7,1163.18291 41.8,1162.78291 L5.68434189e-14,1162.08291 L5.68434189e-14,866.382911 L5.68434189e-14,570.582911 L3,569.982911 C7.8,569.082911 38.6,571.182911 53.7,573.482911 C91,579.182911 127.1,592.282911 153.4,609.782911 L162,615.482911 L162,817.082911 L162,1018.58291 L207.8,1018.08291 C256.6,1017.58291 264.7,1016.98291 287.8,1011.78291 C356.8,996.382911 404.1,953.482911 427.6,885.082911 C440,848.782911 445.4,810.982911 445.3,760.382911 C445.3,710.882911 440.2,673.882911 428.5,638.882911 C424.4,626.482911 414.1,604.482911 407.8,594.482911 C373.2,539.482911 315.6,510.182911 229.1,503.382911 C220.8,502.782911 173.6,502.382911 107.8,502.382911 L5.68434189e-14,502.382911 L5.68434189e-14,428.982911 L5.68434189e-14,355.582911 L98.8,354.882911 C236.3,353.782911 259.2,354.482911 300.5,360.482911 C458.4,383.382911 556.3,463.282911 595.4,601.282911 C605.4,636.382911 610.7,667.982911 614.1,712.382911 C615.7,732.782911 615.7,789.382911 614.1,810.882911 C607,908.282911 581.1,984.182911 535.4,1041.38291 C525.8,1053.28291 502.4,1076.58291 490.3,1086.18291 C433.1,1131.28291 362.6,1155.98291 264,1165.48291 C242.9,1167.48291 164.6,1167.38291 122,1165.38291 Z" id="D" fill="#E20026" fill-rule="nonzero" transform="translate(307.650000, 760.691924) scale(1, -1) translate(-307.650000, -760.691924) "></path>
    </g>
</svg>