<?xml version="1.0" standalone="no"?>
<!DOCTYPE svg PUBLIC "-//W3C//DTD SVG 20010904//EN" "http://www.w3.org/TR/2001/REC-SVG-20010904/DTD/svg10.dtd">
<svg width="238px" height="74px" viewBox="0 0 238 74" version="1.1" xmlns="http://www.w3.org/2000/svg" xmlns:xlink="http://www.w3.org/1999/xlink">
    <g id="Page-1" stroke="none" stroke-width="1" fill="none" fill-rule="evenodd">
        <path d="M230.94146,61.1846667 C233.42546,61.1846667 235.16546,62.5006666 235.16546,64.7153332 L235.16546,64.7499999 C235.16546,66.7086665 233.88146,67.6033332 231.38146,68.2139998 C229.097461,68.7553331 228.557461,69.1619998 228.557461,70.0739998 L228.557461,70.1086664 C228.557461,70.8846664 229.266794,71.5099997 230.485461,71.5099997 C231.414794,71.5099997 232.29346,71.2073331 233.206794,70.6153331 C233.374794,70.5126664 233.54546,70.4619998 233.74546,70.4619998 C234.288127,70.4619998 234.72546,70.8846664 234.72546,71.4273331 C234.72546,71.8313331 234.508127,72.1179997 234.26946,72.2513331 C233.206794,72.963333 232.006794,73.3499997 230.518794,73.3499997 C228.166794,73.3499997 226.480127,71.9513331 226.480127,69.9219998 L226.480127,69.8886664 C226.480127,67.7073332 227.898794,66.9633332 230.416127,66.3539999 C232.614794,65.8486665 233.088127,65.3899999 233.088127,64.5446666 L233.088127,64.5126666 C233.088127,63.6326666 232.27746,63.0246666 230.992127,63.0246666 C229.706794,63.0246666 228.658794,63.4619999 227.678794,64.2419999 C227.542794,64.3433333 227.357461,64.4286666 227.069461,64.4286666 C226.530794,64.4286666 226.090794,64.0033333 226.090794,63.4619999 C226.090794,63.126 226.261461,62.838 226.497461,62.67 C227.814794,61.69 229.333461,61.1846667 230.94146,61.1846667 M216.810794,63.1913333 L216.810794,66.4393332 L220.108127,66.4393332 C221.748127,66.4393332 222.542794,65.8486665 222.542794,64.8513332 L222.542794,64.8166666 C222.542794,63.7499999 221.678794,63.1913333 220.260127,63.1913333 L216.810794,63.1913333 Z M216.810794,68.1966665 L216.810794,71.3419997 L219.801461,71.3419997 C221.140127,71.3419997 221.882794,70.7673331 221.882794,69.8366664 L221.882794,69.8019998 C221.882794,68.7193331 220.988127,68.1966665 219.649461,68.1966665 L216.810794,68.1966665 Z M214.766794,62.3993333 C214.766794,61.81 215.224128,61.3513333 215.813461,61.3513333 L220.242794,61.3513333 C222.880127,61.3513333 224.618794,62.4833333 224.618794,64.5953332 L224.618794,64.6313332 C224.618794,66.2366665 223.656127,67.0286665 222.272127,67.5019998 C223.149461,67.9593332 223.960127,68.7193331 223.960127,70.1393331 L223.960127,70.1753331 C223.960127,70.9699998 223.689461,71.6113331 223.166794,72.1353331 C222.492127,72.811333 221.426794,73.1806664 220.072127,73.1806664 L215.813461,73.1806664 C215.224128,73.1806664 214.766794,72.7246664 214.766794,72.1353331 L214.766794,62.3993333 Z M204.489461,61.3513333 L211.452128,61.3513333 C211.958794,61.3513333 212.381461,61.7593333 212.381461,62.2806666 C212.381461,62.7886666 211.958794,63.2099999 211.452128,63.2099999 L205.518794,63.2099999 L205.518794,66.3886665 L210.606794,66.3886665 C211.113461,66.3886665 211.536128,66.7953332 211.536128,67.3006665 C211.536128,67.8246665 211.113461,68.2473332 210.606794,68.2473332 L205.518794,68.2473332 L205.518794,71.3259997 L211.368128,71.3259997 C211.873461,71.3259997 212.296128,71.7299997 212.296128,72.2513331 C212.296128,72.7606664 211.873461,73.1806664 211.368128,73.1806664 L204.489461,73.1806664 C203.900128,73.1806664 203.444128,72.7246664 203.444128,72.1353331 L203.444128,62.3993333 C203.444128,61.81 203.900128,61.3513333 204.489461,61.3513333 M193.468128,67.3153332 L193.468128,71.2913331 L196.496128,71.2913331 C198.034795,71.2913331 198.946795,70.5979998 198.946795,69.3299998 L198.946795,69.2939998 C198.946795,68.0953332 198.001461,67.3153332 196.512128,67.3153332 L193.468128,67.3153332 Z M191.392128,62.298 C191.392128,61.7246667 191.849461,61.2686667 192.438795,61.2686667 C193.013461,61.2686667 193.468128,61.7246667 193.468128,62.298 L193.468128,65.4766666 L196.089461,65.4766666 L198.962795,61.81 C199.200128,61.4886667 199.504128,61.2686667 199.977461,61.2686667 C200.484128,61.2686667 200.973461,61.658 200.973461,62.2326666 C200.973461,62.554 200.838795,62.7713333 200.636128,63.0273333 L198.373461,65.8833332 C199.960128,66.3726665 201.057461,67.5206665 201.057461,69.4139998 L201.057461,69.4486665 C201.057461,70.4806664 200.704128,71.3579997 200.077461,71.9993331 C199.320128,72.743333 198.152128,73.1806664 196.665461,73.1806664 L192.438795,73.1806664 C191.849461,73.1806664 191.392128,72.7246664 191.392128,72.1353331 L191.392128,62.298 Z M179.680128,62.298 C179.680128,61.7246667 180.134795,61.2686667 180.725462,61.2686667 C181.300128,61.2686667 181.756128,61.7246667 181.756128,62.298 L181.756128,64.7499999 L183.682795,66.6073332 L187.485462,61.7593333 C187.705462,61.4713333 187.958795,61.2686667 188.365462,61.2686667 C188.954795,61.2686667 189.412128,61.7086667 189.412128,62.2833333 C189.412128,62.6046666 189.293462,62.8073333 189.125462,63.0273333 L185.136128,67.9753332 L188.820128,71.5259997 C189.057462,71.7459997 189.192128,71.9819997 189.192128,72.3019997 C189.192128,72.8086664 188.804128,73.267333 188.229462,73.267333 C187.857462,73.267333 187.602795,73.131333 187.366795,72.8766664 L181.756128,67.2326665 L181.756128,72.2353331 C181.756128,72.8086664 181.300128,73.267333 180.725462,73.267333 C180.134795,73.267333 179.680128,72.8086664 179.680128,72.2353331 L179.680128,62.298 Z M172.478795,62.298 C172.478795,61.7246667 172.952129,61.2686667 173.526795,61.2686667 C174.101462,61.2686667 174.574795,61.7246667 174.574795,62.298 L174.574795,71.2579997 L177.464128,71.2579997 C177.988128,71.2579997 178.410795,71.6979997 178.410795,72.2193331 C178.410795,72.743333 177.988128,73.1806664 177.464128,73.1806664 L169.605462,73.1806664 C169.065462,73.1806664 168.642795,72.743333 168.642795,72.2193331 C168.642795,71.6979997 169.065462,71.2579997 169.605462,71.2579997 L172.478795,71.2579997 L172.478795,62.298 Z M162.305462,61.166 C165.398795,61.166 167.390795,62.9393333 167.390795,66.4699999 L167.390795,72.2353331 C167.390795,72.8086664 166.933462,73.267333 166.361462,73.267333 C165.768129,73.267333 165.314795,72.8086664 165.314795,72.2353331 L165.314795,66.3699999 C165.314795,64.1913333 164.181462,63.09 162.337462,63.09 C160.478796,63.09 159.344129,64.2579999 159.344129,66.4553332 L159.344129,72.2353331 C159.344129,72.8086664 158.889462,73.267333 158.314796,73.267333 C157.722796,73.267333 157.269462,72.8086664 157.269462,72.2353331 L157.269462,66.3699999 C157.269462,62.9393333 159.226796,61.166 162.305462,61.166 M148.176129,62.3993333 C148.176129,61.81 148.630796,61.3513333 149.221463,61.3513333 L155.609462,61.3513333 C156.133462,61.3513333 156.556129,61.774 156.556129,62.298 C156.556129,62.822 156.133462,63.2419999 155.609462,63.2419999 L150.252129,63.2419999 L150.252129,72.2353331 C150.252129,72.8086664 149.794796,73.267333 149.221463,73.267333 C148.630796,73.267333 148.176129,72.8086664 148.176129,72.2353331 L148.176129,62.3993333 Z M138.014796,63.1913333 L138.014796,66.4393332 L141.312129,66.4393332 C142.953463,66.4393332 143.748129,65.8486665 143.748129,64.8513332 L143.748129,64.8166666 C143.748129,63.7499999 142.884129,63.1913333 141.464129,63.1913333 L138.014796,63.1913333 Z M138.014796,68.1966665 L138.014796,71.3419997 L141.008129,71.3419997 C142.344129,71.3419997 143.088129,70.7673331 143.088129,69.8366664 L143.088129,69.8019998 C143.088129,68.7193331 142.192129,68.1966665 140.856129,68.1966665 L138.014796,68.1966665 Z M135.973463,62.3993333 C135.973463,61.81 136.42813,61.3513333 137.018796,61.3513333 L141.448129,61.3513333 C144.084129,61.3513333 145.822796,62.4833333 145.822796,64.5953332 L145.822796,64.6313332 C145.822796,66.2366665 144.861463,67.0286665 143.477463,67.5019998 C144.354796,67.9593332 145.165463,68.7193331 145.165463,70.1393331 L145.165463,70.1753331 C145.165463,70.9699998 144.894796,71.6113331 144.370796,72.1353331 C143.694796,72.811333 142.632129,73.1806664 141.278796,73.1806664 L137.018796,73.1806664 C136.42813,73.1806664 135.973463,72.7246664 135.973463,72.1353331 L135.973463,62.3993333 Z M116.62013,62.2833333 C116.62013,61.7246667 117.077463,61.2686667 117.649463,61.2686667 C118.20813,61.2686667 118.662797,61.7246667 118.662797,62.2833333 L118.662797,69.7859998 L124.749463,61.9113333 C125.037463,61.5393333 125.341463,61.286 125.829463,61.286 L125.914796,61.286 C126.489463,61.286 126.926796,61.7406667 126.926796,62.3153333 L126.926796,72.2513331 C126.926796,72.8086664 126.47213,73.267333 125.897463,73.267333 C125.341463,73.267333 124.885463,72.8086664 124.885463,72.2513331 L124.885463,64.9873332 L118.96813,72.6419997 C118.678797,72.995333 118.393463,73.2486664 117.886797,73.2486664 L117.666797,73.2486664 C117.077463,73.2486664 116.62013,72.775333 116.62013,72.2006664 L116.62013,62.2833333 Z M106.342797,61.3513333 L113.305463,61.3513333 C113.81213,61.3513333 114.234797,61.7593333 114.234797,62.2806666 C114.234797,62.7886666 113.81213,63.2099999 113.305463,63.2099999 L107.37213,63.2099999 L107.37213,66.3886665 L112.46013,66.3886665 C112.96813,66.3886665 113.390797,66.7953332 113.390797,67.3006665 C113.390797,67.8246665 112.96813,68.2473332 112.46013,68.2473332 L107.37213,68.2473332 L107.37213,71.3259997 L113.22013,71.3259997 C113.72813,71.3259997 114.150797,71.7299997 114.150797,72.2513331 C114.150797,72.7606664 113.72813,73.1806664 113.22013,73.1806664 L106.342797,73.1806664 C105.75213,73.1806664 105.29613,72.7246664 105.29613,72.1353331 L105.29613,62.3993333 C105.29613,61.81 105.75213,61.3513333 106.342797,61.3513333 M97.8254638,61.15 C99.6001304,61.15 101.02013,61.7593333 102.033464,62.4326666 C102.52413,62.738 102.758797,63.1593333 102.758797,63.7499999 L102.758797,66.9126665 C102.758797,67.5019998 102.30413,67.9593332 101.71213,67.9593332 L98.4174638,67.9593332 C97.9107972,67.9593332 97.4867972,67.5526665 97.4867972,67.0473332 C97.4867972,66.5419999 97.9107972,66.1513332 98.4174638,66.1513332 L100.749464,66.1513332 L100.749464,63.9379999 C100.022797,63.3966666 99.0094638,63.0393333 97.8934638,63.0393333 C95.4747972,63.0393333 93.8681306,64.8326666 93.8681306,67.2673332 L93.8681306,67.3006665 C93.8681306,69.5646665 95.5254639,71.4779997 97.7067972,71.4779997 C98.9907971,71.4779997 99.8187971,71.1059998 100.581464,70.5473331 C100.749464,70.4299998 100.95213,70.3086664 101.222797,70.3086664 C101.79613,70.3086664 102.253464,70.7846664 102.253464,71.3419997 C102.253464,71.7486664 102.033464,72.0339997 101.830797,72.1859997 C100.749464,72.963333 99.5654638,73.383333 97.7921305,73.383333 C94.2241306,73.383333 91.689464,70.5819998 91.689464,67.2673332 L91.689464,67.2326665 C91.689464,63.7859999 94.1227972,61.15 97.8254638,61.15 M82.2747975,61.3513333 L89.237464,61.3513333 C89.7441307,61.3513333 90.1667973,61.7593333 90.1667973,62.2806666 C90.1667973,62.7886666 89.7441307,63.2099999 89.237464,63.2099999 L83.3067975,63.2099999 L83.3067975,66.3886665 L88.3921307,66.3886665 C88.9001307,66.3886665 89.3227974,66.7953332 89.3227974,67.3006665 C89.3227974,67.8246665 88.9001307,68.2473332 88.3921307,68.2473332 L83.3067975,68.2473332 L83.3067975,71.3259997 L89.1547974,71.3259997 C89.6601307,71.3259997 90.0827973,71.7299997 90.0827973,72.2513331 C90.0827973,72.7606664 89.6601307,73.1806664 89.1547974,73.1806664 L82.2747975,73.1806664 C81.6854642,73.1806664 81.2267976,72.7246664 81.2267976,72.1353331 L81.2267976,62.3993333 C81.2267976,61.81 81.6854642,61.3513333 82.2747975,61.3513333 M75.956131,62.298 C75.956131,61.7246667 76.4107977,61.2686667 77.0014643,61.2686667 C77.576131,61.2686667 78.032131,61.7246667 78.032131,62.298 L78.032131,72.2353331 C78.032131,72.8086664 77.576131,73.267333 77.0014643,73.267333 C76.4107977,73.267333 75.956131,72.8086664 75.956131,72.2353331 L75.956131,62.298 Z M69.1094645,61.1846667 C71.5947978,61.1846667 73.3334644,62.5006666 73.3334644,64.7153332 L73.3334644,64.7499999 C73.3334644,66.7086665 72.0494645,67.6033332 69.5494645,68.2139998 C67.2654646,68.7553331 66.7254646,69.1619998 66.7254646,70.0739998 L66.7254646,70.1086664 C66.7254646,70.8846664 67.4361312,71.5099997 68.6534646,71.5099997 C69.5827979,71.5099997 70.4614645,71.2073331 71.3761311,70.6153331 C71.5441311,70.5126664 71.7134645,70.4619998 71.9161311,70.4619998 C72.4561311,70.4619998 72.8934644,70.8846664 72.8934644,71.4273331 C72.8934644,71.8313331 72.6747978,72.1179997 72.4401311,72.2513331 C71.3761311,72.963333 70.1747978,73.3499997 68.6867979,73.3499997 C66.3374646,73.3499997 64.6494647,71.9513331 64.6494647,69.9219998 L64.6494647,69.8886664 C64.6494647,67.7073332 66.0667979,66.9633332 68.5854646,66.3539999 C70.7827978,65.8486665 71.2574645,65.3899999 71.2574645,64.5446666 L71.2574645,64.5126666 C71.2574645,63.6326666 70.4454645,63.0246666 69.1601312,63.0246666 C67.8747979,63.0246666 66.8267979,63.4619999 65.846798,64.2419999 C65.7121313,64.3433333 65.526798,64.4286666 65.238798,64.4286666 C64.7001313,64.4286666 64.258798,64.0033333 64.258798,63.4619999 C64.258798,63.126 64.4294647,62.838 64.6654647,62.67 C65.9814646,61.69 67.5027979,61.1846667 69.1094645,61.1846667 M54.6934649,61.3513333 L61.6547981,61.3513333 C62.162798,61.3513333 62.5854647,61.7593333 62.5854647,62.2806666 C62.5854647,62.7886666 62.162798,63.2099999 61.6547981,63.2099999 L55.7227982,63.2099999 L55.7227982,66.3886665 L60.8107981,66.3886665 C61.3174647,66.3886665 61.7401314,66.7953332 61.7401314,67.3006665 C61.7401314,67.8246665 61.3174647,68.2473332 60.8107981,68.2473332 L55.7227982,68.2473332 L55.7227982,71.3259997 L61.5707981,71.3259997 C62.0774647,71.3259997 62.5001314,71.7299997 62.5001314,72.2513331 C62.5001314,72.7606664 62.0774647,73.1806664 61.5707981,73.1806664 L54.6934649,73.1806664 C54.1014649,73.1806664 53.6454649,72.7246664 53.6454649,72.1353331 L53.6454649,62.3993333 C53.6454649,61.81 54.1014649,61.3513333 54.6934649,61.3513333 M43.6547985,63.1913333 L43.6547985,66.4393332 L46.9521318,66.4393332 C48.5921317,66.4393332 49.3867984,65.8486665 49.3867984,64.8513332 L49.3867984,64.8166666 C49.3867984,63.7499999 48.5241317,63.1913333 47.1041318,63.1913333 L43.6547985,63.1913333 Z M43.6547985,68.1966665 L43.6547985,71.3419997 L46.6467984,71.3419997 C47.9841317,71.3419997 48.7281317,70.7673331 48.7281317,69.8366664 L48.7281317,69.8019998 C48.7281317,68.7193331 47.8321317,68.1966665 46.4961318,68.1966665 L43.6547985,68.1966665 Z M41.6121319,62.3993333 C41.6121319,61.81 42.0667985,61.3513333 42.6574652,61.3513333 L47.0867984,61.3513333 C49.725465,61.3513333 51.4641316,62.4833333 51.4641316,64.5953332 L51.4641316,64.6313332 C51.4641316,66.2366665 50.5001317,67.0286665 49.1161317,67.5019998 C49.9947984,67.9593332 50.8041317,68.7193331 50.8041317,70.1393331 L50.8041317,70.1753331 C50.8041317,70.9699998 50.533465,71.6113331 50.0107983,72.1353331 C49.3347984,72.811333 48.2707984,73.1806664 46.9174651,73.1806664 L42.6574652,73.1806664 C42.0667985,73.1806664 41.6121319,72.7246664 41.6121319,72.1353331 L41.6121319,62.3993333 Z M26.3121323,67.3153332 L26.3121323,71.2913331 L29.3401322,71.2913331 C30.8801322,71.2913331 31.7921321,70.5979998 31.7921321,69.3299998 L31.7921321,69.2939998 C31.7921321,68.0953332 30.8454655,67.3153332 29.3574655,67.3153332 L26.3121323,67.3153332 Z M24.2374657,62.298 C24.2374657,61.7246667 24.6934656,61.2686667 25.282799,61.2686667 C25.858799,61.2686667 26.3121323,61.7246667 26.3121323,62.298 L26.3121323,65.4766666 L28.9347989,65.4766666 L31.8081321,61.81 C32.0441321,61.4886667 32.3494655,61.2686667 32.8214654,61.2686667 C33.3294654,61.2686667 33.8187988,61.658 33.8187988,62.2326666 C33.8187988,62.554 33.6827988,62.7713333 33.4814654,63.0273333 L31.2174655,65.8833332 C32.8054654,66.3726665 33.9027988,67.5206665 33.9027988,69.4139998 L33.9027988,69.4486665 C33.9027988,70.4806664 33.5481321,71.3579997 32.9227988,71.9993331 C32.1641321,72.743333 30.9974655,73.1806664 29.5081322,73.1806664 L25.282799,73.1806664 C24.6934656,73.1806664 24.2374657,72.7246664 24.2374657,72.1353331 L24.2374657,62.298 Z M19.1667991,62.298 C19.1667991,61.7246667 19.6227991,61.2686667 20.2121324,61.2686667 C20.7881324,61.2686667 21.2427991,61.7246667 21.2427991,62.298 L21.2427991,72.2353331 C21.2427991,72.8086664 20.7881324,73.267333 20.2121324,73.267333 C19.6227991,73.267333 19.1667991,72.8086664 19.1667991,72.2353331 L19.1667991,62.298 Z M3.58279951,62.046 C3.78546617,61.5033333 4.15613283,61.1846667 4.66546615,61.1846667 L4.86813281,61.1846667 C5.37479947,61.1846667 5.76413279,61.5033333 5.94946612,62.046 L8.58546605,69.7673331 L11.221466,62.046 C11.4081326,61.5033333 11.7787993,61.1846667 12.2867993,61.1846667 L12.489466,61.1846667 C12.9961326,61.1846667 13.3854659,61.522 13.5707993,62.046 L17.0681325,71.8473331 C17.1187992,71.9659997 17.1707992,72.1339997 17.1707992,72.2699997 C17.1707992,72.8259997 16.6961325,73.267333 16.1401325,73.267333 C15.6334659,73.267333 15.2774659,72.9459997 15.1254659,72.523333 L12.405466,64.3779999 L9.73479936,72.4726664 C9.58279936,72.9606664 9.21079937,73.299333 8.68679938,73.299333 L8.53479939,73.299333 C8.0107994,73.299333 7.65613274,72.9606664 7.48813275,72.4726664 L4.81613281,64.3779999 L2.09479955,72.5059997 C1.96013288,72.9459997 1.57213289,73.267333 1.06546624,73.267333 C0.489466254,73.267333 0.00013293333,72.8259997 0.00013293333,72.2513331 C0.00013293333,72.1153331 0.0334662658,71.9659997 0.0841329312,71.8473331 L3.58279951,62.046 Z" id="Wir-Besiegen-Blutkrebs" fill="#373535" fill-rule="nonzero" transform="translate(117.582797, 67.266667) scale(1, -1) translate(-117.582797, -67.266667) "></path>
        <path d="M217.821727,17.3406666 C218.004394,17.0979999 218.112394,16.7993333 218.112394,16.4753333 C218.112394,15.6873333 217.476394,15.05 216.691061,15.05 L213.211061,15.05 C212.529728,15.05 211.921728,15.362 211.520394,15.8526666 C211.415061,15.9833333 209.719061,18.1259999 207.528394,20.8966665 C205.337728,18.1259999 203.641728,15.9833333 203.535061,15.8526666 C203.135061,15.362 202.525728,15.05 201.845728,15.05 L198.365728,15.05 C197.580395,15.05 196.943061,15.6873333 196.943061,16.4753333 C196.943061,16.7993333 197.052395,17.0979999 197.235061,17.3406666 C197.357728,17.4993333 200.485728,21.4619998 203.783061,25.6353331 C200.485728,29.8099996 197.357728,33.7686662 197.235061,33.9326662 C197.052395,34.1699995 196.943061,34.4713328 196.943061,34.7939995 C196.943061,35.5806662 197.580395,36.2193328 198.365728,36.2193328 L201.845728,36.2193328 C202.525728,36.2193328 203.135061,35.9059995 203.535061,35.4153328 C203.641728,35.2873328 205.337728,33.1419995 207.528394,30.3726663 C209.719061,33.1419995 211.415061,35.2873328 211.520394,35.4153328 C211.921728,35.9059995 212.529728,36.2193328 213.211061,36.2193328 L216.691061,36.2193328 C217.476394,36.2193328 218.112394,35.5806662 218.112394,34.7939995 C218.112394,34.4713328 218.004394,34.1699995 217.821727,33.9326662 C217.700394,33.7686662 214.571061,29.8099996 211.273728,25.6353331 L217.821727,17.3406666 Z" id="X" fill="#FFFFFF" fill-rule="nonzero"></path>
        <path d="M31.0699988,25.4553327 C31.0699988,16.9673329 25.2486656,11.1513331 16.6206659,11.1513331 L10.5499993,11.1513331 L10.5499993,40.0353324 L16.6206659,40.0353324 C25.2486656,40.0353324 31.0699988,34.0846658 31.0699988,25.5913327 L31.0699988,25.4553327 Z M42.0886652,25.5913327 L42.0886652,25.7273327 C42.0886652,39.2193324 31.6819988,49.5539988 16.6206659,49.5539988 L0.849999579,49.5539988 C0.38599959,49.5539988 0.00866626645,49.1779988 0.00866626645,48.7113321 L0.00866626645,2.47666663 L0.0126662663,2.47666663 C0.0126662663,2.00999997 0.388666257,1.63399998 0.852666245,1.63399998 C0.857999579,1.63399998 0.859332912,1.62999998 0.861999578,1.62999998 L16.6206659,1.62999998 C31.6819988,1.62999998 42.0886652,12.1033331 42.0886652,25.5913327 M86.5273308,2.05933331 C86.5273308,2.14599997 86.4979974,2.22466663 86.4539974,2.28999997 L68.6899979,29.6939993 L85.4726641,48.8739988 C85.4726641,48.8779988 85.4726641,48.8779988 85.4726641,48.8779988 C85.5193308,48.9459988 85.5473308,49.0273321 85.5473308,49.1193321 C85.5473308,49.3579988 85.3553308,49.5486655 85.1179975,49.5486655 L85.1179975,49.5539988 L74.1979977,49.5539988 C73.8433311,49.5539988 73.5273311,49.4059988 73.2966644,49.1726655 L57.0539982,29.9539993 L57.0539982,48.6619988 C57.0513315,48.6779988 57.0406648,48.6899988 57.0406648,48.7113321 C57.0406648,49.1779988 56.6633315,49.5539988 56.1993315,49.5539988 L47.3513317,49.5539988 C46.8886651,49.5539988 46.5126651,49.1779988 46.5126651,48.7113321 C46.5126651,48.7086655 46.5086651,48.7059988 46.5086651,48.7019988 L46.5086651,2.48199996 C46.5086651,2.47666663 46.5126651,2.47666663 46.5126651,2.47399996 C46.5126651,2.00866664 46.8846651,1.63399998 47.3459984,1.62999998 L56.2153315,1.62999998 C56.6779982,1.63399998 57.0526648,2.00866664 57.0526648,2.47399996 C57.0526648,2.47666663 57.0539982,2.47666663 57.0539982,2.4793333 L57.0539982,16.279333 L57.0539982,17.2193329 L61.6913314,22.2179995 L74.1606644,1.90733331 C74.1619977,1.90599998 74.1686644,1.90333331 74.1686644,1.90066664 C74.3219977,1.73533331 74.5406644,1.63133332 74.7806644,1.62999998 L86.1046641,1.62999998 C86.3379974,1.63666665 86.5273308,1.82333331 86.5273308,2.05933331 M136.360663,2.47399996 C136.360663,2.47666663 136.364663,2.47666663 136.364663,2.48199996 L136.364663,48.7019988 C136.364663,48.7059988 136.360663,48.7086655 136.360663,48.7113321 C136.360663,49.1779988 135.984663,49.5539988 135.520663,49.5539988 L125.624663,49.5539988 C125.177996,49.5539988 124.784663,49.3206655 124.560663,48.9713321 L124.557996,48.9686655 L113.11533,29.6899993 L101.661997,48.9886655 C101.433997,49.3273321 101.049997,49.5539988 100.608664,49.5539988 L90.5793307,49.5539988 C90.1139973,49.5539988 89.7379974,49.1779988 89.7379974,48.7113321 C89.7379974,48.6979988 89.7313307,48.6939988 89.7299974,48.6806655 L89.7299974,2.46866663 C89.732664,2.00599997 90.104664,1.63399998 90.564664,1.62999998 L99.2299974,1.62999998 C99.6886638,1.63399998 100.05533,2.00199997 100.06333,2.4553333 L100.06333,32.7126659 L112.624663,13.0206664 C112.820663,12.827333 113.133997,12.827333 113.329997,13.019333 L126.025996,32.9179992 L126.025996,2.4673333 C126.02733,2.00599997 126.400663,1.63399998 126.85933,1.62999998 L135.525996,1.62999998 C135.98733,1.63399998 136.360663,2.00866664 136.360663,2.47399996 M177.981995,15.799333 L177.981995,15.9379996 C177.981995,24.2913327 172.508662,27.7833327 162.783329,30.3166659 C154.497996,32.4353325 152.449996,33.4633325 152.449996,36.6153324 L152.449996,36.7513324 C152.449996,39.0806657 154.565996,40.9286657 158.611329,40.9286657 C162.045996,40.9286657 165.580662,39.6193324 169.169995,37.4179991 L169.175329,37.4273324 C169.555329,37.1619991 170.080662,37.2539991 170.347329,37.6353324 C170.352662,37.6406657 170.359329,37.6406657 170.364662,37.6486657 L174.985995,44.2459989 C175.233995,44.5953322 175.169995,45.0646656 174.856662,45.3486656 C170.321995,48.4726655 164.949995,50.2339988 158.745996,50.2339988 C148.956663,50.2339988 141.973996,44.4873322 141.973996,35.7926658 L141.973996,35.6566658 C141.973996,26.1353327 148.199329,23.4673328 157.856662,21.0059995 C165.863329,18.95 167.509995,17.5833329 167.509995,14.9139997 L167.509995,14.771333 C167.509995,11.9686664 164.905995,10.2566664 160.591329,10.2566664 C155.421996,10.2566664 151.105996,12.2899997 147.011329,15.5099996 L147.003329,15.5019996 C146.641996,15.7939996 146.111329,15.7366663 145.819329,15.3766663 L141.193996,8.76866647 C140.931329,8.44066648 140.963329,7.98733316 141.236663,7.6846665 C146.793996,3.20333328 153.607329,0.95 160.388662,0.95 C170.724662,0.95 177.981995,6.28866653 177.981995,15.799333 M237.401994,26.364666 L227.560661,48.2046655 C227.171327,49.1286655 226.605994,49.4979988 225.548661,49.5273321 L184.863328,49.5366655 C183.973995,49.5366655 183.255328,48.8166655 183.255328,47.9273322 L183.255328,3.25266661 C183.255328,2.3633333 183.973995,1.64333332 184.863328,1.64333332 L225.472661,1.64333332 C226.521994,1.64333332 227.084661,1.97933331 227.504661,2.87133329 L237.401994,24.8126661 C237.503327,25.0526661 237.555327,25.3139994 237.555327,25.5939994 C237.555327,25.864666 237.50066,26.128666 237.401994,26.364666 M217.820661,17.2486663 C218.003327,17.0073329 218.112661,16.7073329 218.112661,16.3833329 C218.112661,15.595333 217.476661,14.9579996 216.689994,14.9579996 L213.211328,14.9579996 C212.529994,14.9579996 211.921994,15.2699996 211.521994,15.7619996 C211.415328,15.891333 209.717994,18.0339996 207.528661,20.8046662 C205.337994,18.0339996 203.640661,15.891333 203.536661,15.7619996 C203.135328,15.2699996 202.524661,14.9579996 201.845995,14.9579996 L198.365995,14.9579996 C197.579328,14.9579996 196.943328,15.595333 196.943328,16.3833329 C196.943328,16.7073329 197.052661,17.0073329 197.236661,17.2486663 C197.356661,17.4073329 200.485995,21.3713328 203.783328,25.5433327 C200.485995,29.7179993 197.356661,33.6779992 197.236661,33.8393325 C197.052661,34.0779992 196.943328,34.3793325 196.943328,34.7033325 C196.943328,35.4886658 197.579328,36.1273325 198.365995,36.1273325 L201.845995,36.1273325 C202.524661,36.1273325 203.135328,35.8139991 203.536661,35.3233325 C203.640661,35.1966658 205.337994,33.0499992 207.528661,30.2806659 C209.717994,33.0499992 211.415328,35.1966658 211.521994,35.3233325 C211.921994,35.8139991 212.529994,36.1273325 213.211328,36.1273325 L216.689994,36.1273325 C217.476661,36.1273325 218.112661,35.4886658 218.112661,34.7033325 C218.112661,34.3793325 218.003327,34.0779992 217.820661,33.8393325 C217.699327,33.6779992 214.571328,29.7179993 211.273994,25.5433327" id="DKMS" fill="#E13439" fill-rule="nonzero" transform="translate(118.781997, 25.591999) scale(1, -1) translate(-118.781997, -25.591999) "></path>
    </g>
</svg>