<?xml version="1.0" encoding="UTF-8" standalone="no"?>
<svg
   xmlns:dc="http://purl.org/dc/elements/1.1/"
   xmlns:cc="http://creativecommons.org/ns#"
   xmlns:rdf="http://www.w3.org/1999/02/22-rdf-syntax-ns#"
   xmlns:svg="http://www.w3.org/2000/svg"
   xmlns="http://www.w3.org/2000/svg"
   xmlns:sodipodi="http://sodipodi.sourceforge.net/DTD/sodipodi-0.dtd"
   xmlns:inkscape="http://www.inkscape.org/namespaces/inkscape"
   version="1.1"
   id="svg2"
   xml:space="preserve"
   width="174.17332"
   height="107.82667"
   viewBox="0 0 174.17332 107.82667"
   sodipodi:docname="GGW_Signet_4c_12-2006.eps"><metadata
     id="metadata8"><rdf:RDF><cc:Work
         rdf:about=""><dc:format>image/svg+xml</dc:format><dc:type
           rdf:resource="http://purl.org/dc/dcmitype/StillImage" /></cc:Work></rdf:RDF></metadata><defs
     id="defs6" /><sodipodi:namedview
     pagecolor="#ffffff"
     bordercolor="#666666"
     borderopacity="1"
     objecttolerance="10"
     gridtolerance="10"
     guidetolerance="10"
     inkscape:pageopacity="0"
     inkscape:pageshadow="2"
     inkscape:window-width="640"
     inkscape:window-height="480"
     id="namedview4" /><g
     id="g10"
     inkscape:groupmode="layer"
     inkscape:label="ink_ext_XXXXXX"
     transform="matrix(1.3333333,0,0,-1.3333333,0,107.82667)"><g
       id="g12"
       transform="scale(0.1)"><path
         d="m 424.512,461.383 313.691,-0.117 c 20.488,-0.032 35.305,2.242 51.485,-10.293 28.71,-22.305 25.566,-67.473 -0.145,-93.239 L 451.086,19.2969 c -25.734,-25.73049 -67.477,-25.73049 -93.215,0 L 19.332,357.734 C -6.4375,383.5 -6.4375,425.199 19.3008,450.973 L 357.754,789.395 c 25.738,25.773 67.488,25.773 93.238,0 L 741.121,499.34 H 515.242 l -85.601,87.312 c -4.266,4.321 -11.207,4.321 -15.543,0 L 248.02,420.566 c -4.258,-4.261 -4.258,-11.211 0,-15.496 L 414.172,238.992 c 4.297,-4.32 11.242,-4.32 15.558,0 l 79.903,78.836 h -81.258 l 27.648,-0.199 h -24.789 c -38.367,0 -69.5,31.078 -69.5,69.5 v 5.098 c 0,36.078 27.559,65.761 62.778,69.156 v 0 0"
         style="fill:#004e24;fill-opacity:1;fill-rule:nonzero;stroke:none"
         id="path14" /><path
         d="m 1083.96,450.973 c 25.74,-25.774 25.74,-67.473 0,-93.239 L 838.984,113.711 730.43,5.12891 c 0,0 -1.492,-1.51563 -3.211,-2.17969 -1.723,-0.66406 -2.571,-0.66406 -4.184,-0.66406 L 526.156,2.23828 c 0,0 -2.355,0.06641 -3.32,2.23438 -0.938,2.10937 0.703,3.90625 0.703,3.90625 l 13.68,13.60549 374.453,374.5586 c 4.273,4.293 4.273,11.238 0,15.559 L 525.492,799.25 c 0.039,0 -1.722,1.625 -0.773,3.855 1.035,2.426 3.429,2.2 3.429,2.2 h 197.711 c 1.614,0.004 2.879,-0.078 4.368,-0.703 1.421,-0.602 3.027,-2.141 3.027,-2.141 L 1083.96,450.973 v 0"
         style="fill:#004e24;fill-opacity:1;fill-rule:nonzero;stroke:none"
         id="path16" /><path
         d="m 1286.98,450.973 c 25.73,-25.774 25.73,-67.473 0,-93.239 L 1042.01,113.711 933.445,5.12891 c 0,0 -1.582,-1.55469 -3.218,-2.21875 -1.387,-0.55469 -2.551,-0.625 -4.164,-0.625 H 805.422 c 0,0 -2.387,-0.19532 -3.32,2.22656 -0.997,2.56641 0.859,3.94531 0.859,3.94531 L 816.523,21.9844 1190.98,396.543 c 4.27,4.293 4.27,11.238 0,15.559 L 804.949,799.094 c 0,0 -1.844,1.652 -0.933,4.023 0.894,2.344 3.433,2.18 3.433,2.18 l 121.438,0.008 c 1.609,0.004 2.922,-0.117 4.304,-0.664 1.438,-0.575 3.079,-2.18 3.079,-2.18 l 350.71,-351.488 v 0"
         style="fill:#004e24;fill-opacity:1;fill-rule:nonzero;stroke:none"
         id="path18" /></g></g></svg>
