<?xml version="1.0" standalone="no"?>
<!DOCTYPE svg PUBLIC "-//W3C//DTD SVG 20010904//EN" "http://www.w3.org/TR/2001/REC-SVG-20010904/DTD/svg10.dtd">
<svg width="506px" height="506px" viewBox="0 0 506 506" version="1.1" xmlns="http://www.w3.org/2000/svg" xmlns:xlink="http://www.w3.org/1999/xlink">
    <g id="Pool-Partner" stroke="none" stroke-width="1" fill="none" fill-rule="evenodd">
        <g id="Artboard" transform="translate(-23.000000, -13.000000)" fill-rule="nonzero">
            <g id="Light-Copy" transform="translate(23.859733, 13.590000)">
                <path d="M505.038654,252.519994 C505.038654,113.055997 391.982657,0 252.51866,0 C113.055997,0 0,113.055997 0,252.519994 C0,391.982657 113.055997,505.039987 252.51866,505.039987 C391.982657,505.039987 505.038654,391.982657 505.038654,252.519994" id="Circle" fill="#CFA944"></path>
                <path d="M481.254788,252.515994 C481.254788,126.187997 378.846791,23.78 252.518794,23.78 C126.19213,23.78 23.7827994,126.187997 23.7827994,252.515994 C23.7827994,378.842658 126.19213,481.251989 252.518794,481.251989 C378.846791,481.251989 481.254788,378.842658 481.254788,252.515994" id="Background" fill="#FFFFFF"></path>
                <path d="M375.752257,297.036666 C373.294924,297.036666 371.296257,295.036666 371.296257,292.578 C371.296257,290.120667 373.294924,288.120667 375.752257,288.120667 C378.210924,288.120667 380.210924,290.120667 380.210924,292.578 C380.210924,295.036666 378.210924,297.036666 375.752257,297.036666 M375.752257,285.61 C371.910924,285.61 368.785591,288.735333 368.785591,292.578 C368.785591,296.422 371.910924,299.546 375.752257,299.546 C379.593591,299.546 382.720257,296.422 382.720257,292.578 C382.720257,288.735333 379.593591,285.61 375.752257,285.61" id="Dot_1" fill="#CEA943"></path>
                <path d="M394.053057,298.12 C391.00239,298.12 388.519724,295.637333 388.519724,292.584 C388.519724,289.532 391.00239,287.049333 394.053057,287.049333 C397.10639,287.049333 399.589057,289.532 399.589057,292.584 C399.589057,295.637333 397.10639,298.12 394.053057,298.12 M394.053057,284.54 C389.61839,284.54 386.009057,288.148 386.009057,292.584 C386.009057,297.02 389.61839,300.629333 394.053057,300.629333 C398.489057,300.629333 402.09839,297.02 402.09839,292.584 C402.09839,288.148 398.489057,284.54 394.053057,284.54" id="Dot_2" fill="#CEA943"></path>
                <path d="M414.724256,299.464666 C410.928256,299.464666 407.84159,296.376666 407.84159,292.582 C407.84159,288.788667 410.928256,285.700667 414.724256,285.700667 C418.518923,285.700667 421.606923,288.788667 421.606923,292.582 C421.606923,296.376666 418.518923,299.464666 414.724256,299.464666 M414.724256,283.19 C409.54559,283.19 405.332257,287.403333 405.332257,292.582 C405.332257,297.762 409.54559,301.974 414.724256,301.974 C419.902923,301.974 424.116256,297.762 424.116256,292.582 C424.116256,287.403333 419.902923,283.19 414.724256,283.19" id="Dot_3" fill="#CEA943"></path>
                <path d="M407.903323,229.456666 C407.903323,236.444666 403.21399,240.933999 397.224657,240.933999 C390.93799,240.933999 386.447324,235.944666 386.447324,229.456666 C386.447324,222.971333 390.93799,217.982 397.224657,217.982 C403.312657,217.982 407.903323,222.471333 407.903323,229.456666 M424.369989,271.072665 L424.369989,209.099333 C424.369989,206.204667 422.772656,204.508667 419.879323,204.508667 L414.58999,204.508667 C411.696656,204.508667 409.999323,206.204667 409.999323,209.099333 L409.999323,209.499333 C406.107323,205.704667 400.91799,203.21 394.431323,203.21 C380.060657,203.21 369.481991,214.687333 369.481991,229.456666 C369.481991,244.228666 379.960657,255.703332 394.431323,255.703332 C399.220657,255.703332 403.512657,254.405999 407.10599,252.21 L407.10599,269.575332 C407.10599,272.469998 408.70199,273.668665 411.595323,274.165998 L419.779323,275.663332 C422.772656,276.063332 424.369989,274.067332 424.369989,271.072665" id="D" fill="#CEA943" transform="translate(396.925990, 239.462129) scale(1, -1) translate(-396.925990, -239.462129) "></path>
                <path d="M346.328391,207.660667 L346.328391,268.136665 C346.328391,271.031332 347.924391,272.229998 350.919058,272.727332 L359.001724,274.325998 C361.995058,274.923332 363.692391,272.727332 363.692391,269.735332 L363.692391,207.660667 C363.692391,204.766 361.995058,203.07 359.103058,203.07 L350.919058,203.07 C347.924391,203.07 346.328391,204.766 346.328391,207.660667" id="L" fill="#CEA943" transform="translate(355.010391, 238.747196) scale(1, -1) translate(-355.010391, -238.747196) "></path>
                <path d="M323.474925,249.466666 C323.474925,256.054666 318.982925,260.943999 312.697592,260.943999 C306.409592,260.943999 301.818926,256.054666 301.818926,249.466666 C301.818926,242.881333 306.409592,237.992 312.697592,237.992 C318.982925,237.992 323.474925,242.881333 323.474925,249.466666 M284.853593,249.466666 C284.853593,264.537332 296.529593,275.713332 312.697592,275.713332 C328.864258,275.713332 340.540258,264.537332 340.540258,249.466666 C340.540258,234.398666 328.864258,223.22 312.697592,223.22 C296.529593,223.22 284.853593,234.398666 284.853593,249.466666" id="O" fill="#CEA943" transform="translate(312.696926, 249.466666) scale(1, -1) translate(-312.696926, -249.466666) "></path>
                <path d="M264.693593,269.826666 C264.693593,276.213332 260.302927,280.703999 254.114927,280.703999 C248.026927,280.703999 243.637594,276.213332 243.637594,269.926665 C243.637594,263.637332 248.026927,259.047999 254.114927,259.047999 C260.302927,259.047999 264.693593,263.637332 264.693593,269.826666 M279.26426,287.990665 L279.26426,248.469333 C279.26426,231.504 266.989593,223.22 251.12026,223.22 C240.542927,223.22 233.057594,226.913333 228.266928,231.702666 C226.670928,233.401333 226.070928,235.396 228.068261,237.790666 L230.862928,241.085333 C232.458928,242.781333 234.356261,243.281333 236.850927,241.284 C239.644261,238.690666 245.033594,235.696 251.32026,235.696 C257.50826,235.696 263.49626,238.590666 263.49626,245.275999 L263.49626,250.366666 C259.802927,247.871999 255.21226,246.374666 250.122927,246.374666 C236.749594,246.374666 226.570928,256.354666 226.570928,269.926665 C226.570928,283.399998 236.749594,293.377332 250.222927,293.377332 C256.210927,293.377332 261.40026,291.281332 265.49226,287.889332 L265.49226,287.990665 C265.49226,290.883998 267.08826,292.579998 270.082927,292.579998 L274.673593,292.579998 C277.566926,292.579998 279.26426,290.883998 279.26426,287.990665" id="G" fill="#CEA943" transform="translate(252.917594, 258.298666) scale(1, -1) translate(-252.917594, -258.298666) "></path>
                <path d="M224.277594,291.185332 L198.529595,233.101333 C195.634928,226.616 192.041595,224.32 187.352262,224.32 C184.956262,224.32 183.060262,224.82 181.362929,226.016 C180.665595,226.414667 180.066929,227.016 180.565595,227.913333 L180.765595,228.312 C181.165595,229.209333 182.261595,229.309333 183.160262,228.712 C184.556262,227.812 185.854929,227.414667 187.352262,227.414667 C190.445595,227.414667 193.140262,229.112 195.136262,233.702666 L199.825595,244.18 L179.068262,291.185332 C178.769596,291.883998 179.168262,292.682665 180.066929,292.682665 L181.264262,292.682665 C182.162929,292.682665 182.661595,292.182665 183.060262,291.285332 L201.822928,248.370666 L220.584261,291.285332 C220.884261,292.182665 221.382928,292.682665 222.281594,292.682665 L223.378928,292.682665 C224.277594,292.682665 224.576261,291.883998 224.277594,291.185332" id="Y" fill="#5F6365" transform="translate(201.679922, 258.501332) scale(1, -1) translate(-201.679922, -258.501332) "></path>
                <path d="M133.96053,251.563999 L174.977862,251.563999 C174.777862,255.953333 173.480529,259.946666 171.484529,263.038666 C168.191196,268.626666 162.601863,272.321332 154.917863,272.321332 C143.043196,272.321332 134.659197,263.538666 133.96053,251.563999 M155.716529,226.614667 C162.601863,226.614667 169.887196,230.006666 174.377862,235.496 C175.076529,236.294666 175.875196,236.194666 176.473862,235.694666 L176.873862,235.294666 C177.671196,234.596 177.472529,233.8 176.873862,233.2 C171.883196,227.112 163.700529,223.32 155.716529,223.32 C141.94453,223.32 130.26853,233.498666 130.26853,249.466666 C130.26853,264.237332 140.247196,275.614665 154.817863,275.614665 C163.400529,275.614665 169.988529,271.722665 173.979196,265.634666 C177.072529,261.242666 178.669862,255.755999 178.669862,250.563999 C178.669862,249.167999 178.171196,248.270666 176.772529,248.270666 L133.96053,248.270666 C134.559197,235.197333 144.139196,226.614667 155.716529,226.614667" id="E" fill="#5F6365" transform="translate(154.469196, 249.467333) scale(1, -1) translate(-154.469196, -249.467333) "></path>
                <path d="M122.78213,234.515999 L122.78213,204.877333 C122.78213,203.978667 122.283464,203.38 121.384797,203.38 L120.587464,203.38 C119.788797,203.38 119.19013,203.978667 119.19013,204.877333 L119.19013,234.318666 C119.19013,244.495999 112.403464,251.182665 102.324797,251.182665 C91.546131,251.182665 84.2594646,243.697332 84.2594646,233.717333 L84.2594646,204.877333 C84.2594646,203.978667 83.7607979,203.38 82.8634646,203.38 L82.0647979,203.38 C81.2661313,203.38 80.668798,203.978667 80.668798,204.877333 L80.668798,272.639998 C80.668798,273.338665 80.9674646,273.735998 81.8661313,274.037332 L82.8634646,274.335998 C83.7607979,274.634665 84.2594646,274.134665 84.2594646,273.137332 L84.2594646,244.097332 C87.6541311,250.382665 94.2407976,254.475999 102.723464,254.475999 C114.699464,254.475999 122.78213,246.591999 122.78213,234.515999" id="H" fill="#5F6365" transform="translate(101.725464, 238.900923) scale(1, -1) translate(-101.725464, -238.900923) "></path>
            </g>
        </g>
    </g>
</svg>