<?xml version="1.0" encoding="UTF-8" standalone="no"?>
<!DOCTYPE svg PUBLIC "-//W3C//DTD SVG 1.1//EN" "http://www.w3.org/Graphics/SVG/1.1/DTD/svg11.dtd">
<svg width="938px" height="470px" viewBox="0 0 938 470" version="1.1" xmlns="http://www.w3.org/2000/svg" xmlns:xlink="http://www.w3.org/1999/xlink">
    <g id="Page-1" stroke="none" stroke-width="1" fill="none" fill-rule="evenodd">
        <path d="M601.550652,133.323997 C594.210652,125.482664 586.774652,117.359997 580.094652,108.694664 C558.530653,80.783998 554.773319,53.3799987 551.80532,22.2559994 L551.811986,22.2893328 C551.770653,21.8653328 551.402653,21.5333328 550.958653,21.5333328 C550.48532,21.5333328 550.094653,21.9119995 550.094653,22.3773328 L550.099986,22.3279994 L549.871986,23.3986661 C548.510653,29.9413326 547.174653,36.6906657 545.20532,43.8826656 C538.067987,70.1706649 525.34132,88.9106644 505.233321,102.835997 C490.905321,112.785331 475.047988,122.335997 455.870655,132.522663 L455.870655,132.50533 C455.643989,132.655997 455.489322,132.91333 455.489322,133.203997 C455.489322,133.66933 455.879989,134.047997 456.353322,134.047997 L456.251989,134.006663 C473.666655,135.810663 492.210654,142.86533 505.978654,148.97333 L505.965321,148.947996 C506.707987,149.26533 507.225321,149.991996 507.225321,150.83733 C507.225321,151.974663 506.285321,152.895996 505.126654,152.895996 C504.983987,152.895996 504.839987,152.883996 504.705321,152.855996 L504.649321,152.799996 C493.935988,151.42133 479.078655,150.04133 469.027988,149.615996 C466.010655,149.48933 463.042655,149.407996 459.997322,149.407996 C442.159989,149.407996 426.854656,151.86533 413.206656,156.894663 C400.217323,161.675996 388.658657,169.587996 377.563991,178.005329 C377.563991,178.002662 377.567991,178.002662 377.567991,178.002662 L377.457324,178.083996 C377.497324,178.058662 377.531991,178.030662 377.563991,178.005329 C377.358657,178.157329 377.221324,178.402662 377.221324,178.675996 C377.221324,179.141329 377.606657,179.519996 378.081324,179.519996 C378.126657,179.519996 378.170657,179.517329 378.210657,179.510662 L378.250657,179.495996 C379.958657,179.241329 381.666657,178.975996 383.357324,178.697329 C391.953324,177.363996 400.93599,175.959996 409.533323,175.959996 C418.605323,175.959996 427.031989,177.665329 436.307989,182.385329 L436.307989,182.391995 C436.967989,182.739995 437.411989,183.421329 437.411989,184.205329 C437.411989,185.343995 436.473322,186.266662 435.314656,186.266662 L435.106656,186.297329 C421.337323,187.291995 400.821323,189.405329 394.69199,190.391995 C383.79599,192.139995 369.978657,194.559995 353.085325,202.695995 C339.499992,209.238661 327.335992,220.333328 318.351992,229.683994 L318.286659,229.754661 C318.126659,229.905328 318.029325,230.119994 318.029325,230.355994 C318.029325,230.821328 318.414659,231.198661 318.889325,231.198661 C318.965325,231.198661 319.035992,231.190661 319.102659,231.173328 L319.150659,231.158661 C326.613325,229.509328 334.029325,227.791994 341.431991,226.074661 C359.229324,221.930661 377.581324,217.690661 396.002657,214.682661 C417.29999,211.155995 439.057322,210.493328 459.997322,209.898661 L463.243988,209.790661 C483.115988,209.174661 503.947987,207.702661 520.998654,196.547995 C531.07332,190.017329 538.529325,181.178662 546.430653,171.813329 C550.590653,166.871996 554.933319,161.719996 559.639986,157.035996 C572.090652,144.698663 586.802652,138.82933 601.182652,134.754663 L601.186652,134.743997 C601.546652,134.646663 601.807985,134.318663 601.807985,133.934663 C601.807985,133.679997 601.693318,133.450663 601.511985,133.295997 L601.550652,133.323997 Z M607.605318,137.678663 L607.486651,137.702663 L607.365318,137.735997 C592.017319,141.711996 575.999986,147.162663 562.890653,160.178663 C558.286653,164.731996 554.061319,169.781329 549.922653,174.663996 C542.17732,183.871995 534.16132,193.343995 523.522654,200.266662 C505.437321,212.051995 483.931988,213.629328 463.410655,214.259995 L460.142655,214.374661 C439.267989,214.966661 417.765323,215.635995 396.76799,219.079995 C378.511991,222.059994 360.205324,226.302661 342.489325,230.383994 C331.987992,232.873328 321.445325,235.283994 310.825326,237.522661 L310.363992,237.622661 L310.310659,237.650661 C310.173326,237.677327 310.034659,237.690661 309.895992,237.690661 C308.735992,237.690661 307.794659,236.769327 307.794659,235.631994 C307.794659,235.158661 307.954659,234.725327 308.225326,234.378661 L308.255992,234.323994 L308.562659,233.941327 C319.014659,220.573328 337.910658,204.951995 349.701325,199.374662 C366.877324,191.254662 378.993324,188.487995 392.90799,185.959995 C397.938657,185.046662 406.134657,184.069329 419.785323,182.935995 L419.75199,182.971995 C420.223989,182.971995 420.614656,182.593329 420.614656,182.127995 C420.614656,181.707995 420.297323,181.359995 419.886656,181.295995 L419.882656,181.282662 C416.674656,180.715995 413.245323,180.439995 409.533323,180.439995 C401.26799,180.439995 390.02799,182.209329 381.529324,183.542662 C376.914657,184.266662 370.686657,185.038662 366.694657,185.511995 L366.686657,185.550662 C366.623991,185.554662 366.558658,185.558662 366.491991,185.558662 C365.333324,185.558662 364.393324,184.637329 364.393324,183.498662 C364.393324,182.847995 364.698658,182.270662 365.177324,181.891995 L365.218658,181.851995 L365.927991,181.302662 C379.970657,170.383996 394.38799,159.066663 411.613323,152.71333 C425.781323,147.498663 441.618656,144.931996 459.997322,144.931996 C463.091988,144.931996 466.174655,145.01733 469.210655,145.154663 C473.286655,145.343996 477.370655,145.60133 481.421321,145.923996 L481.687988,145.962663 C482.161321,145.962663 482.545321,145.583996 482.545321,145.118663 C482.545321,144.770663 482.330655,144.471996 482.021321,144.343996 L481.865321,144.30133 C468.915988,140.08533 456.754655,137.934663 445.103989,137.819997 L444.379989,137.814663 L444.434656,137.84133 C443.275989,137.84133 442.333322,136.918663 442.333322,135.78133 C442.333322,135.035997 442.739989,134.38133 443.343989,134.019997 L443.317322,134.03333 L444.075989,133.643997 C467.502655,121.611997 486.097321,110.623997 502.633321,99.1773309 C521.819987,85.8666645 533.946653,67.9759983 540.802653,42.7066656 C542.68932,35.6533324 544.062653,28.9639993 545.395986,22.5173328 C546.759986,16.0866663 548.10532,9.37599977 550.03732,2.24133328 L550.20132,1.66666662 L550.25732,1.59733329 C550.471986,0.681333316 551.30532,0 552.298653,0 C553.457319,0 554.401319,0.923999977 554.401319,2.06266662 L554.422653,2.15199995 L554.467986,2.59733327 C554.933319,7.04133316 555.385319,11.413333 555.775986,15.6679996 C558.974653,50.0706654 561.525319,77.2466647 583.730652,106.030664 C591.183985,115.666664 599.762652,124.819997 607.994651,133.626663 L608.559985,134.219997 L608.586651,134.227997 C608.962651,134.602663 609.194651,135.114663 609.194651,135.678663 C609.194651,136.642663 608.518651,137.451997 607.605318,137.678663" id="Wings" fill="#D01A36" fill-rule="nonzero" transform="translate(458.494655, 118.845330) scale(1, -1) translate(-458.494655, -118.845330) "></path>
        <path d="M539.454653,465.735329 C527.55732,452.825996 523.231987,448.997996 493.458654,429.84733 C479.835988,421.084663 467.223988,410.01813 459.767989,399.576397 C451.831989,388.475464 447.803989,373.115464 447.453322,359.747331 C447.067989,344.409732 449.830655,331.297865 454.626655,316.730132 C458.259989,305.699333 464.505322,290.707186 469.438655,280.59 C469.438655,280.59 469.502655,280.347292 469.502655,280.216563 C469.502655,279.706145 469.082655,279.29 468.563988,279.29 C468.186655,279.29 467.866655,279.511355 467.713322,279.825937 C467.713322,279.830104 467.707988,279.834271 467.707988,279.837917 C467.703988,279.846251 454.222655,303.852533 448.890655,319.601999 C439.343989,347.831198 438.070656,381.313997 457.150655,406.075463 C477.534655,432.733996 512.869321,442.619329 533.958653,468.292662 L534.011987,468.307329 C534.39332,468.791329 534.99332,469.104662 535.670653,469.104662 L537.834653,469.104662 L539.410653,469.144662 C540.211986,469.144662 540.85732,468.511329 540.85732,467.727329 C540.85732,467.276662 540.642653,466.873995 540.30532,466.613995 L539.454653,465.735329" id="Tail" fill="#D01A36" fill-rule="nonzero" transform="translate(491.490130, 374.217331) scale(1, -1) translate(-491.490130, -374.217331) "></path>
        <path d="M576.135986,37.8166667 C575.857319,37.6726667 575.545319,37.59 575.209319,37.59 C574.122652,37.59 573.247986,38.45 573.247986,39.514 C573.247986,40.1766666 573.590652,40.7633333 574.110652,41.1099999 L574.579986,41.4233332 C578.807986,44.2339998 582.901319,46.9979998 586.765319,49.6579997 C594.501318,54.9513329 602.797318,60.4659994 609.174651,67.2339993 C622.877318,81.7046656 611.233318,103.251332 612.390651,120.223331 C613.379985,134.665998 622.470651,147.087331 631.945318,157.65133 C641.221317,167.953997 654.06265,175.184663 662.08265,186.581996 L662.065317,186.596663 C662.16665,186.74333 662.227983,186.921996 662.227983,187.112663 C662.227983,187.61133 661.825317,188.01133 661.32265,188.03133 L661.297317,188.02333 L661.287983,188.03533 L661.287983,188.036663 L661.283983,188.040663 C654.379984,188.14333 648.959984,183.70733 641.357317,181.325996 C641.225317,181.256663 641.082651,181.209996 640.926651,181.209996 C640.405317,181.209996 639.982651,181.62333 639.982651,182.13533 C639.982651,182.332663 640.062651,182.51133 640.173317,182.664663 L640.169317,182.668663 C646.117317,192.208663 657.225317,203.732663 666.859983,210.661996 C674.33065,216.035329 683.98265,223.380662 690.015983,231.972662 C696.159983,240.523328 697.995983,250.013995 687.310649,257.933994 C680.677316,262.796661 672.505317,262.353994 664.29465,260.080661 C657.225317,258.120661 647.611984,253.553995 644.245317,252.092661 C644.201317,252.071328 644.165317,252.053995 644.121317,252.039328 C644.075984,252.019328 644.015984,251.993995 643.974651,251.975328 L643.957317,252.007328 C643.915984,252.000661 643.881317,251.983328 643.838651,251.983328 C643.353317,251.983328 642.954651,252.369995 642.954651,252.848661 C642.954651,253.059328 643.039984,253.240661 643.166651,253.392661 L643.162651,253.401995 C643.162651,253.401995 643.189317,253.421995 643.189317,253.423328 C643.273317,253.513995 643.370651,253.59 643.482651,253.637995 C645.707984,255.252661 660.433317,265.576661 678.77865,269.361994 C687.594649,271.183327 696.687983,271.535327 705.509316,269.847328 C709.106649,269.135328 712.539982,268.031328 715.982649,266.857994 C719.415982,265.765994 722.846649,264.627328 726.446649,263.996661 C729.983982,263.412661 733.447982,263.319328 737.023982,263.611328 C740.554648,263.849994 743.978648,264.419328 747.509315,265.139328 C754.789314,266.600661 761.881314,268.612661 769.018647,270.739328 C776.142647,272.773994 783.262647,274.876661 790.51198,276.385994 C804.989313,279.573994 819.909313,281.585994 834.889312,282.611327 C840.371979,282.968661 845.937312,283.192661 851.459979,283.304661 L851.459979,283.297994 C852.646645,283.297994 853.606645,282.352661 853.606645,281.187327 C853.606645,280.100661 852.755979,279.235327 851.678645,279.123327 L851.678645,279.108661 C840.183979,277.436661 828.725313,275.559327 817.330646,273.292661 C800.850647,270.103328 784.517314,266.231328 768.341314,261.368661 C755.293314,257.368661 742.287981,252.645995 730.990648,245.761995 C719.726649,238.876662 710.113316,229.772662 703.838649,216.984662 C697.018649,203.052663 693.873316,183.569996 692.343983,168.264663 C690.681316,151.664664 685.509316,125.313998 680.707983,114.891331 C675.56665,103.739332 667.147983,93.0819986 660.919983,87.7899987 C644.954651,74.1379991 624.710651,66.5779993 606.859985,55.8073329 C598.041318,50.463333 587.483985,44.2899998 576.597319,38.0526667 L576.135986,37.8166667" id="Colibri" fill="#F79117" fill-rule="nonzero" transform="translate(713.427315, 160.447330) scale(1, -1) translate(-713.427315, -160.447330) "></path>
        <path d="M899.045311,441.755464 C917.223977,441.755464 924.399977,429.722131 924.399977,411.624665 C924.399977,409.016932 924.023977,406.528932 923.58931,403.122132 L857.423979,403.122132 C861.197312,423.421065 877.229311,441.755464 899.045311,441.755464 M935.511977,391.336665 C937.23331,397.174132 937.890643,404.859598 937.890643,411.624665 C937.890643,436.934131 925.70531,453.55133 899.045311,453.55133 C862.527978,453.55133 840.277312,419.720531 840.277312,382.378399 C840.277312,352.4768 860.506645,336.97 886.995978,336.97 C903.783977,336.97 912.099977,339.7424 918.47331,342.038267 L921.558644,355.616933 C912.973311,352.192933 902.419977,349.096533 889.353311,349.096533 C869.325312,349.096533 854.299979,360.980933 854.299979,382.378399 C854.299979,385.422132 854.521312,388.500799 855.005312,391.336665 L935.511977,391.336665" id="E" fill="#F79117" fill-rule="nonzero" transform="translate(889.083978, 395.260665) scale(1, -1) translate(-889.083978, -395.260665) "></path>
        <path d="M817.038646,449.668531 L817.08798,449.822131 C816.63998,449.725731 816.27198,449.535197 815.881313,449.413864 C815.858646,449.384664 815.770646,449.365864 815.770646,449.365864 C804.18398,445.713864 794.702647,435.075331 794.313313,432.607598 L793.994647,431.487198 L793.954647,431.487198 C795.066647,435.376798 795.705313,441.291464 796.385313,448.284664 L782.35998,448.284664 C781.714647,441.291464 780.562647,434.734131 779.249314,428.403331 L760.147981,336.97 L774.999981,336.97 L786.59598,391.752932 C790.813314,411.834131 799.92398,436.498131 822.822646,436.498131 C826.873313,436.498131 831.101313,436.268531 834.889312,434.734131 L838.207979,449.365864 C834.386646,450.029997 830.607979,450.913864 825.946646,450.913864 C822.755979,450.913864 819.802646,450.401864 817.038646,449.668531" id="R" fill="#F79117" fill-rule="nonzero" transform="translate(799.177980, 393.941932) scale(1, -1) translate(-799.177980, -393.941932) "></path>
        <path d="M681.459983,348.776266 C670.055983,348.776266 657.727984,356.3472 657.727984,369.008533 C657.727984,391.401865 682.887983,396.109599 701.803982,395.673732 C710.909316,395.465865 722.358649,394.410132 722.358649,394.410132 C718.699982,367.395066 705.702649,348.776266 681.459983,348.776266 M703.226649,453.55133 C689.851983,453.55133 677.109316,449.917997 669.11865,446.652397 L667.56265,432.683064 C675.125316,436.383064 687.070649,440.759064 700.202649,440.759064 C715.807982,440.759064 725.265315,433.005998 725.265315,417.747198 C725.265315,413.171065 725.046649,409.880532 724.589315,406.596665 C720.141315,407.024798 715.034649,407.234132 709.211982,407.459065 C677.725316,408.863332 644.091984,401.424798 644.091984,368.183066 C644.091984,349.858133 658.95465,336.97 676.52665,336.97 C691.421316,336.97 705.222649,338.964267 714.791982,352.930933 L715.238649,352.930933 C714.146649,348.120533 714.146649,345.482 713.439982,339.6096 L727.459982,339.6096 C727.907982,347.258133 729.501315,357.504399 731.726648,366.008533 L737.711982,396.147199 C739.682648,404.859065 740.613315,412.944531 740.613315,417.300798 C740.613315,440.444531 727.722648,453.55133 703.226649,453.55133" id="A" fill="#F79117" fill-rule="nonzero" transform="translate(692.352649, 395.260665) scale(1, -1) translate(-692.352649, -395.260665) "></path>
        <path d="M542.494653,387.886265 C542.494653,363.886266 558.286653,337.03 590.993319,337.03 C602.539985,337.03 611.435985,338.566 616.783985,340.320667 L618.551985,354.0728 C611.435985,351.662266 602.818652,349.108666 594.389318,349.108666 C573.257319,349.108666 557.242653,366.050399 557.242653,388.965999 C557.242653,418.632665 577.298652,441.624797 607.063985,441.551331 C615.971985,441.53 629.490651,437.810264 633.531984,436.302398 L637.090651,448.201864 C629.945318,450.203464 618.729318,452.860797 609.355985,453.420664 C570.685319,455.728797 542.494653,427.182131 542.494653,387.886265" id="C" fill="#F79117" fill-rule="nonzero" transform="translate(589.792652, 395.290616) scale(1, -1) translate(-589.792652, -395.290616) "></path>
        <path d="M386.122657,184.508 C358.281324,184.508 346.387991,207.210666 346.387991,230.761332 C346.387991,254.831998 359.519991,277.205331 386.122657,277.031997 C412.71599,277.205331 425.810656,254.831998 425.810656,230.761332 C425.810656,207.210666 413.90399,184.508 386.122657,184.508 M386.122657,291.974664 C349.490658,291.974664 328.050658,265.831998 328.050658,230.761332 C328.050658,194.823999 349.317325,169.6 386.122657,169.6 C422.887989,169.6 444.143989,194.823999 444.143989,230.761332 C444.143989,265.831998 422.694656,291.974664 386.122657,291.974664" id="O" fill="#D01A36" fill-rule="nonzero" transform="translate(386.097324, 230.787332) scale(1, -1) translate(-386.097324, -230.787332) "></path>
        <polyline id="T" fill="#D01A36" fill-rule="nonzero" transform="translate(268.075327, 230.823332) scale(1, -1) translate(-268.075327, -230.823332) " points="221.966661 275.057997 259.43066 275.057997 259.43066 171.69 276.71866 171.69 276.71866 275.057997 314.183992 275.057997 314.183992 289.956664 221.966661 289.956664 221.966661 275.057997"></polyline>
        <polyline id="I" fill="#D01A36" fill-rule="nonzero" transform="translate(184.241329, 230.823332) scale(1, -1) translate(-184.241329, -230.823332) " points="175.615996 171.69 192.866662 171.69 192.866662 289.956664 175.615996 289.956664 175.615996 171.69"></polyline>
        <polyline id="M" fill="#D01A36" fill-rule="nonzero" transform="translate(65.971592, 230.823332) scale(1, -1) translate(-65.971592, -230.823332) " points="66.3083983 191.675333 28.4879993 289.956664 0.00052083332 289.956664 0.00052083332 171.69 17.2510662 171.69 17.2510662 274.035331 17.6103996 274.035331 57.5171986 171.69 74.4130648 171.69 114.371864 274.035331 114.681197 274.035331 114.681197 171.69 131.942663 171.69 131.942663 289.956664 103.463597 289.956664 66.3083983 191.675333"></polyline>
    </g>
</svg>