<?xml version="1.0" encoding="utf-8"?>
<!-- Generator: Adobe Adobe Illustrator 24.2.0, SVG Export Plug-In . SVG Version: 6.00 Build 0)  -->
<svg version="1.1" id="Ebene_1" xmlns="http://www.w3.org/2000/svg" xmlns:xlink="http://www.w3.org/1999/xlink" x="0px" y="0px"
	 width="629.71px" height="191.33px" viewBox="0 0 629.71 191.33" style="enable-background:new 0 0 629.71 191.33;"
	 xml:space="preserve">
<style type="text/css">
	.st0{clip-path:url(#SVGID_2_);fill:#50585C;}
	.st1{clip-path:url(#SVGID_2_);fill:#389DD3;}
	.st2{clip-path:url(#SVGID_4_);fill:#50585C;}
	.st3{clip-path:url(#SVGID_4_);fill:#389DD3;}
	.st4{fill:none;}
	.st5{fill:#50585C;}
	.st6{font-family:'MavenPro-Regular';}
	.st7{font-size:38.3px;}
</style>
<g>
	<g>
		<defs>
			<rect id="SVGID_1_" x="-34.57" y="-277.71" width="698.84" height="307.49"/>
		</defs>
		<clipPath id="SVGID_2_">
			<use xlink:href="#SVGID_1_"  style="overflow:visible;"/>
		</clipPath>
	</g>
</g>
<g>
	<g>
		<g>
			<defs>
				<rect id="SVGID_3_" x="-34.57" y="-59.76" width="698.84" height="307.49"/>
			</defs>
			<clipPath id="SVGID_4_">
				<use xlink:href="#SVGID_3_"  style="overflow:visible;"/>
			</clipPath>
			<path class="st2" d="M86,53.16c4.03,0,7.64,0.79,10.81,2.36c3.17,1.57,5.86,3.73,8.07,6.46c2.2,2.73,3.88,5.99,5.04,9.77
				c1.16,3.78,1.74,7.88,1.74,12.3c0,3.97-0.67,7.75-2.02,11.35c-1.35,3.59-3.16,6.74-5.45,9.43c-2.29,2.7-4.92,4.85-7.92,6.46
				c-3,1.61-6.11,2.42-9.32,2.42c-1.95,0-3.84-0.13-5.67-0.39c-1.84-0.27-4.21-0.8-7.13-1.63c1.05-2.62,2.23-4.74,3.54-6.35
				c1.31-1.61,2.9-2.49,4.77-2.64c4.64-0.3,7.9-2.15,9.77-5.56c1.87-3.41,2.81-7.77,2.81-13.09c0-2.62-0.28-5.09-0.84-7.41
				c-0.56-2.32-1.34-4.36-2.35-6.12c-1.01-1.76-2.24-3.16-3.69-4.21c-1.45-1.05-3.11-1.57-4.98-1.57c-4.18,0-8.5,2.62-12.97,7.86
				v67.18H54.47V68.78c0-2.1-0.13-4.32-0.39-6.68c-0.26-2.36-0.69-4.85-1.29-7.47h12.1c0.98,0.6,1.81,1.42,2.49,2.47
				c0.68,1.05,1.25,2.13,1.7,3.26l0.34,2.25l1.68-2.25c2.99-2.77,5.66-4.66,8.01-5.67C81.46,53.67,83.75,53.16,86,53.16"/>
			<path class="st2" d="M160.74,112.7c-1.05-0.6-1.89-1.41-2.53-2.42c-0.64-1.01-1.18-2.08-1.63-3.2l-0.34-2.25l-1.35,1.91
				c-3.37,3.07-6.33,5.07-8.88,6.01c-2.55,0.93-5.24,1.4-8.09,1.4c-2.7,0-5.11-0.47-7.24-1.4c-2.13-0.94-3.97-2.19-5.5-3.77
				c-1.54-1.57-2.7-3.37-3.48-5.39c-0.79-2.02-1.18-4.16-1.18-6.4c0-2.32,0.49-4.57,1.46-6.74c0.97-2.17,2.64-4.14,5-5.9
				c2.36-1.76,5.52-3.26,9.49-4.49c3.97-1.24,8.91-2.08,14.83-2.53c-0.37,2.62-1.14,4.91-2.3,6.85c-1.16,1.95-2.94,3.14-5.34,3.59
				c-2.85,0.45-4.91,1.39-6.18,2.81c-1.27,1.42-1.91,3.07-1.91,4.94c0,1.95,0.69,3.58,2.08,4.89c1.39,1.31,3.05,1.96,5,1.96
				c2.17,0,4.34-0.73,6.52-2.19c2.17-1.46,4.23-3.35,6.18-5.67V77.76c0-3.9-1.07-7-3.2-9.32c-2.13-2.32-5.19-3.48-9.16-3.48
				c-1.87,0-3.88,0.19-6.01,0.56c-2.13,0.37-4.51,1.05-7.13,2.02l-3.82-9.88c3.37-1.5,6.81-2.58,10.33-3.26
				c3.52-0.67,6.59-1.01,9.21-1.01c8.01,0,14.17,2.08,18.48,6.23c4.31,4.16,6.46,10.2,6.46,18.14v20.78c0,2.1,0.13,4.32,0.39,6.68
				c0.26,2.36,0.73,4.85,1.4,7.47H160.74z"/>
			<path class="st2" d="M206.23,114.16c-4.04,0-7.68-0.77-10.9-2.3c-3.22-1.53-5.92-3.69-8.09-6.46c-2.17-2.77-3.84-6.05-5-9.83
				c-1.16-3.78-1.74-7.88-1.74-12.3c0-3.97,0.67-7.75,2.02-11.34c1.35-3.6,3.16-6.74,5.45-9.43c2.28-2.7,4.92-4.85,7.92-6.46
				c3-1.61,6.1-2.42,9.32-2.42c1.95,0,3.84,0.13,5.67,0.39c1.83,0.27,4.21,0.81,7.13,1.63c-1.05,2.62-2.25,4.74-3.59,6.35
				c-1.35,1.61-2.96,2.49-4.83,2.64c-2.32,0.15-4.27,0.71-5.84,1.69c-1.57,0.98-2.85,2.27-3.82,3.88c-0.97,1.61-1.68,3.54-2.13,5.78
				c-0.45,2.25-0.67,4.68-0.67,7.3c0,2.62,0.26,5.09,0.79,7.41c0.52,2.32,1.29,4.36,2.3,6.12c1.01,1.76,2.26,3.17,3.76,4.21
				c1.5,1.05,3.18,1.57,5.05,1.57c4.12,0,8.46-2.62,13.03-7.86V27.55h15.73v70.99c0,2.1,0.13,4.32,0.39,6.68
				c0.26,2.36,0.69,4.85,1.29,7.47h-12.1c-0.98-0.52-1.79-1.27-2.43-2.25c-0.64-0.97-1.15-1.98-1.53-3.03l-0.56-2.58l-1.91,2.47
				c-2.92,2.62-5.56,4.42-7.92,5.39C210.67,113.67,208.4,114.16,206.23,114.16"/>
			<path class="st2" d="M290.03,77.09c0.23-1.72,0.15-3.37-0.22-4.94c-0.38-1.57-0.99-2.96-1.85-4.16c-0.86-1.2-1.95-2.15-3.26-2.86
				c-1.31-0.71-2.83-1.07-4.55-1.07c-1.57,0-3.13,0.33-4.66,1.01c-1.54,0.68-2.94,1.74-4.21,3.2c-1.27,1.46-2.3,3.33-3.09,5.62
				c-0.79,2.29-1.18,5.04-1.18,8.26c0,6.51,1.46,11.55,4.38,15.11c2.92,3.56,6.74,5.34,11.46,5.34c2.62,0,5.18-0.32,7.69-0.95
				c2.51-0.64,5.41-1.7,8.71-3.2l3.93,10.45c-4.04,1.95-7.85,3.32-11.4,4.1c-3.56,0.79-7.1,1.18-10.61,1.18
				c-5.17,0-9.6-0.94-13.31-2.81c-3.71-1.87-6.78-4.28-9.21-7.24c-2.43-2.96-4.23-6.31-5.39-10.06c-1.16-3.74-1.74-7.53-1.74-11.34
				c0-4.64,0.77-8.8,2.3-12.47c1.53-3.67,3.63-6.76,6.29-9.27c2.66-2.51,5.78-4.44,9.38-5.79c3.6-1.35,7.42-2.02,11.46-2.02
				c4.12,0,7.9,0.83,11.35,2.47c3.44,1.65,6.22,3.93,8.31,6.85c2.1,2.92,3.39,6.42,3.88,10.5c0.49,4.08-0.09,8.52-1.74,13.31h-31.45
				c0.82-2.62,2-4.81,3.54-6.58c1.53-1.76,3.28-2.64,5.22-2.64H290.03z"/>
			<rect x="318.22" y="27.55" class="st2" width="15.73" height="85.15"/>
			<path class="st3" d="M381.91,102.59c4.04,0,7.36-1.12,9.94-3.37c2.58-2.25,3.88-5.47,3.88-9.66c0-2.25-0.49-4.25-1.46-6.01
				c-0.97-1.76-2.32-3.26-4.04-4.49c-1.72-1.24-3.76-2.19-6.12-2.86c-2.36-0.67-4.93-1.01-7.69-1.01H366.3v37.52h-15.73V32.27
				c2.99-0.52,5.65-0.96,7.98-1.29c2.32-0.34,4.45-0.62,6.4-0.84c1.95-0.23,3.83-0.37,5.67-0.45c1.83-0.07,3.76-0.11,5.78-0.11
				c5.01,0,9.47,0.54,13.37,1.63c3.89,1.09,7.13,2.64,9.72,4.66c2.58,2.02,4.55,4.46,5.9,7.3c1.35,2.85,2.02,5.99,2.02,9.44
				c0,2.77-0.86,5.52-2.58,8.25c-1.72,2.73-3.97,4.96-6.74,6.68l-3.26,1.57l3.15,0.79c2.02,0.75,3.91,1.82,5.67,3.2
				c1.76,1.39,3.27,2.98,4.55,4.77c1.27,1.8,2.26,3.71,2.98,5.73c0.71,2.03,1.07,4.05,1.07,6.07c0,2.92-0.66,5.82-1.96,8.71
				c-1.31,2.88-3.2,5.47-5.67,7.75c-2.47,2.28-5.47,4.16-8.99,5.61c-3.52,1.46-7.49,2.19-11.91,2.19c-1.05,0-2-0.02-2.86-0.05
				c-0.86-0.04-1.78-0.13-2.75-0.28c-0.98-0.15-2.04-0.36-3.2-0.62c-1.16-0.26-2.57-0.58-4.21-0.95c0.45-0.98,1.01-2.02,1.68-3.15
				c0.68-1.12,1.46-2.15,2.36-3.09c0.9-0.93,1.95-1.7,3.15-2.3C379.06,102.89,380.41,102.59,381.91,102.59 M376.41,64.62
				c1.95,0,3.82-0.28,5.62-0.84c1.8-0.56,3.37-1.37,4.72-2.41c1.35-1.05,2.43-2.3,3.26-3.76c0.82-1.46,1.24-3.09,1.24-4.89
				c0-1.35-0.28-2.71-0.84-4.1c-0.56-1.39-1.42-2.64-2.58-3.77c-1.16-1.12-2.68-2.06-4.55-2.81c-1.87-0.75-4.16-1.12-6.85-1.12
				c-2.02,0-3.71,0.06-5.06,0.17c-1.35,0.11-3.03,0.32-5.05,0.62v22.92H376.41z"/>
			<path class="st3" d="M463.01,114.27c-6.52,0-12.28-1.09-17.3-3.26c-5.02-2.17-9.27-5.15-12.75-8.93
				c-3.48-3.78-6.12-8.25-7.92-13.42c-1.8-5.17-2.7-10.78-2.7-16.85c0-5.84,0.91-11.35,2.75-16.51c1.83-5.16,4.49-9.68,7.98-13.53
				c3.48-3.85,7.73-6.89,12.75-9.1c5.01-2.21,10.74-3.31,17.19-3.31c7.34,0,13.57,1.27,18.7,3.82c5.13,2.55,9.32,5.86,12.58,9.94
				c3.26,4.08,5.61,8.65,7.08,13.7c1.46,5.05,2.19,10.05,2.19,14.99c0,5.54-0.9,10.86-2.7,15.95s-4.4,9.6-7.81,13.53
				c-3.41,3.93-7.64,7.08-12.69,9.44C475.31,113.09,469.53,114.27,463.01,114.27 M463.01,40.92c-3.9,0-7.3,0.82-10.22,2.47
				c-2.92,1.65-5.37,3.9-7.36,6.74c-1.98,2.84-3.48,6.14-4.49,9.88c-1.01,3.74-1.52,7.68-1.52,11.79c0,3.9,0.5,7.69,1.52,11.4
				c1.01,3.7,2.51,7,4.49,9.88c1.98,2.88,4.44,5.2,7.36,6.97c2.92,1.76,6.33,2.64,10.22,2.64c3.07,0,6.03-0.69,8.87-2.08
				c2.85-1.39,5.35-3.39,7.53-6.01c2.17-2.62,3.91-5.84,5.22-9.66c1.31-3.82,1.97-8.2,1.97-13.14c0-4.42-0.54-8.52-1.63-12.3
				c-1.08-3.78-2.64-7.04-4.66-9.78c-2.02-2.73-4.49-4.88-7.41-6.46C469.98,41.7,466.68,40.92,463.01,40.92"/>
			<path class="st3" d="M526.59,112.7h-17.18l22.24-36.51c0.67,0.98,1.46,2.25,2.36,3.82c0.9,1.57,1.63,3.28,2.19,5.11
				c0.56,1.84,0.86,3.74,0.9,5.73c0.04,1.98-0.43,3.84-1.41,5.56L526.59,112.7z M510.64,31.03h17.75l13.82,26.85l1.13,3.48l0.9-3.48
				l13.82-26.85h17.64L551.3,71.36l25.61,41.34H559.5L510.64,31.03z"/>
		</g>
	</g>
	<rect x="349.33" y="124.72" class="st4" width="238.53" height="55.19"/>
	<text transform="matrix(1 0 0 1 349.3285 151.9131)" class="st5 st6 st7">Consulting</text>
</g>
</svg>
