<?xml version="1.0" encoding="utf-8"?>
<svg width="748px" height="213px" viewBox="0 0 748 213" version="1.1" xmlns="http://www.w3.org/2000/svg" xmlns:xlink="http://www.w3.org/1999/xlink">
    <g id="Partner" stroke="none" stroke-width="1" fill="none" fill-rule="evenodd">
        <g id="Artboard" fill="#F7F6F6" fill-rule="nonzero">
            <g id="polytan_white" transform="translate(-0.000000, -0.000000)">
                <path d="M0,212.6 L0,114.49 C0,104.79 0.22,95.09 3.1,85.39 C10.84,58.11 32.06,42.16 59.29,42.16 C75.02,42.16 89.86,48.14 101.16,59.44 C112.02,70.3 118,84.94 118,100.73 C118,133.91 92.08,159.43 59.51,159.43 C56.85,159.43 53.75,159.21 50.43,158.99 L50.43,115.39 C53.75,116.75 56.41,117.42 58.85,117.42 C68.15,117.42 75.24,110.42 75.24,100.72 C75.24,91.7 67.93,84.03 58.85,84.03 C45.11,84.03 42.01,94.63 42.01,113.36 L42.01,212.59 L0,212.59 L0,212.6 Z M300.56,1.42108547e-14 L258.56,1.42108547e-14 L258.56,157.95 L300.56,157.95 L300.56,1.42108547e-14 L300.56,1.42108547e-14 Z M377.23,45.05 L377.23,98.37 C377.23,108.21 375.9,113.81 369.02,113.81 C361.92,113.81 360.82,108.22 360.82,98.37 L360.82,45.05 L317.47,45.05 L317.47,113.13 C317.47,142.76 331.92,157.89 354.37,157.89 C363.04,157.89 370.35,154.82 377.23,148.24 C375.9,164.97 364.37,175.03 347.04,175.03 C342.59,175.03 338.82,174.11 334.6,171.83 L334.6,209.97 C340.15,211.72 345.49,212.6 351.27,212.6 C389.39,212.6 419.24,185.8 419.24,145.17 L419.24,45.05 L377.23,45.05 L377.23,45.05 Z M498.41,92.89 L498.41,45.12 L479.8,45.12 L479.8,2.96 L436.47,2.96 L436.47,100.11 C436.47,137.28 460.25,160.9 492.43,160.9 C494.42,160.9 496.42,160.9 498.41,160.68 L498.41,115.2 L495.75,115.2 C485.12,115.2 479.58,109.08 479.58,96.82 C479.58,95.73 479.58,94.2 479.8,92.88 L498.41,92.88 L498.41,92.89 Z M627.64,157.95 L627.64,113.06 C627.64,101.1 626.98,88.91 620.8,74.94 C611.51,54.56 591.83,42.16 568.31,42.16 C552.53,42.16 538.1,48.14 526.94,59.44 C516.22,70.3 510.31,84.92 510.31,100.44 C510.31,133.45 535.69,159.060328 568.09,159.060328 C570.76,159.07 573.87,158.85 577.2,158.63 L577.2,114.77 C573.87,116.1 571.2,116.76 568.76,116.76 C559.43,116.76 552.32,109.91 552.32,100.4 C552.32,91.56 559.65,84.04 568.76,84.04 C582.54,84.04 585.64,94.43 585.64,112.78 L585.64,157.96 L627.64,157.96 L627.64,157.95 Z M645.38,110.79 L645.38,157.95 L687.39,157.95 L687.39,104.58 C687.39,94.82 688.72,89.28 695.59,89.28 C702.69,89.28 703.8,94.83 703.8,104.58 L703.8,157.95 L747.14,157.95 L747.14,110.79 C747.14,93.71 746.7,78.41 736.92,63.79 C727.8,50.06 712.91,42.09 696.04,42.09 C672.14,42.09 654.45,56.49 648.04,81.74 C645.38,91.93 645.38,101.48 645.38,110.79 M171.1,101.61 C171.1,109.95 177.91,116.75 186.25,116.75 C194.59,116.75 201.61,109.95 201.61,101.61 C201.61,93.27 194.59,86.25 186.25,86.25 C177.91,86.25 171.1,93.05 171.1,101.61 M127.02,101.61 C127.02,90.2 130.34,78.93 136.99,68.97 C148.29,51.91 166.46,42.16 186.25,42.16 C201.61,42.16 216.67,48.36 228.19,59.88 C239.49,71.18 245.7,86.02 245.7,101.61 C245.7,117.41 239.49,132.04 228.19,143.34 C216.89,154.63 201.83,160.84 186.25,160.84 C170.44,160.84 155.82,154.64 144.52,143.34 C133.22,132.04 127.02,117.41 127.02,101.61" id="Shape"></path>
            </g>
        </g>
    </g>
</svg>