<?xml version="1.0" encoding="UTF-8"?>
<svg id="Ebene_1" data-name="Ebene 1" xmlns="http://www.w3.org/2000/svg" viewBox="0 0 592.44 121.17">
  <defs>
    <style>
      .cls-1 {
        fill: #231f20;
      }
    </style>
  </defs>
  <path class="cls-1" d="M507.38,46.57h-15.01V118.71h15.17v-35.46c0-17.27,6.04-25.28,15.04-25.28,8.53,0,12.25,6.63,12.25,17.73v43.02h15.16v-37.16c0-15.57,6.2-23.59,14.89-23.59,11.16,0,12.4,11.26,12.4,20.05v40.7h15.17v-43.02c0-16.49-6.96-31.28-24-31.28-9.92,0-17.21,4.62-22.48,13.7-3.4-9.24-10.99-13.7-18.89-13.7s-15.35,4.62-19.38,12.16l-.31-10Zm-92.63,0v42.71c0,18.5,10.37,31.9,31.29,31.9s31.44-13.4,31.44-31.9V46.57h-15.16v40.09c0,15.26-7.59,20.35-16.27,20.35s-16.28-5.08-16.28-18.8V46.57h-15.01Zm-22.48,14.16h13.33v-14.16h-13.33V19.59h-15.16V118.71h15.16V60.73Zm-77.31-14.16h-15.01V118.71h15.01v-33.15c0-19.59,6.04-27.6,17.67-27.6,9.3,0,14.11,5.4,14.11,19.58v41.17h15.16v-42.86c0-17.74-6.34-31.44-25.4-31.44-8.52,0-16.58,3.69-21.24,12.16l-.3-10Zm-32.08,0h-14.7v10.61c-5.89-8.01-13.02-12.78-23.25-12.78-21.23,0-33.92,18.48-33.92,38.85s12.22,37.92,34.38,37.92c9.61,0,17.05-4.93,22.47-12.32l.32,9.86h14.7V46.57Zm-35.31,61.05c-13.64,0-21.39-11.41-21.39-24.83s7.75-24.83,21.39-24.83,21.39,10.95,21.39,24.83-7.75,24.83-21.39,24.83m-112.78-61.05v42.71c0,18.5,11.6,31.9,32.53,31.9s32.68-13.4,32.68-33.29V46.57h-15.16v41.78c0,13.57-8.83,18.65-17.52,18.65s-17.51-5.08-17.51-18.8V46.57h-15.01Zm-58.88,27.43h-20.3l26.96,26.37c-6.67,3.86-14.88,5.86-21.54,5.86-24.49,0-45.25-19.89-45.25-45.65S34.54,14.94,61.04,14.94s45.25,20.82,45.25,45.65c0,10.64-4.03,23.29-12.55,30.99l-17.82-17.58Zm47.24,47.17l-18.58-18.33c10.99-10.8,17.64-26.07,17.64-42.26C122.22,27.27,94.51,0,61.04,0S0,27.27,0,60.59s27.25,60.59,61.04,60.59c10.85,0,23.24-3.54,32.85-9.86l9.77,9.86h19.5Z"/>
</svg>