<?xml version="1.0" encoding="UTF-8" standalone="no"?>
<!DOCTYPE svg PUBLIC "-//W3C//DTD SVG 1.1//EN" "http://www.w3.org/Graphics/SVG/1.1/DTD/svg11.dtd">
<svg width="943px" height="197px" viewBox="0 0 943 197" version="1.1" xmlns="http://www.w3.org/2000/svg" xmlns:xlink="http://www.w3.org/1999/xlink">
    <defs>
        <polygon id="path-c4ndm30g5--1" points="0 0 142 0 142 142 0 142"></polygon>
        <polygon id="path-c4ndm30g5--3" points="0 0 197 0 197 90 0 90"></polygon>
    </defs>
    <g id="Pool-Partner" stroke="none" stroke-width="1" fill="none" fill-rule="evenodd">
        <g id="Reece" transform="translate(0.000000, -33.000000)">
            <path d="M343.193942,101.884668 C343.193942,90.7376904 339.51637,83.0074729 332.191722,78.6993846 C326.508527,75.418651 317.610595,73.7684402 305.523042,73.7684402 C296.813474,73.7684402 292.188703,75.0982738 291.632582,77.7543615 C291.087225,80.8489542 290.805577,89.8159349 290.805577,104.624877 C290.805577,106.718962 290.841455,109.845771 290.941916,113.965929 C291.047758,118.073558 291.087225,121.146673 291.087225,123.162006 C291.087225,123.61304 292.55646,124.064074 295.471609,124.527636 C301.063313,125.349162 306.942047,125.748291 313.095254,125.748291 C333.158654,125.748291 343.193942,117.801506 343.193942,101.884668 M401,224.837902 C401,225.469707 400.085092,225.911792 398.258863,226.178474 C394.76786,226.713629 386.009856,227 371.988438,227 C359.967261,227 351.80305,226.713629 347.495805,226.178474 C345.472243,225.904632 344.316947,225.682695 344.064002,225.473287 C343.509675,225.199445 342.862064,224.27053 342.142695,222.715179 C340.747011,219.139126 338.701922,213.839479 336.037924,206.846666 C332.417758,197.707863 326.791969,184.268131 319.117503,166.493463 C317.47605,162.860136 313.705193,160.848382 307.778022,160.485049 C310.520953,160.660452 305.8316,160.758891 293.720725,160.758891 C292.350157,160.758891 291.654109,163.092812 291.654109,167.746335 C291.654109,173.974896 292.226375,183.246146 293.340411,195.586931 C294.450858,207.945614 295.015949,217.206124 295.015949,223.422157 C295.015949,224.982877 294.601549,225.904632 293.774544,226.178474 C292.48829,226.244697 291.219976,226.335978 289.939105,226.441577 C284.523206,226.815649 276.077347,227 264.6392,227 C251.529102,227 243.648333,226.713629 240.984336,226.178474 C238.32572,225.623631 237,224.202517 237,221.92587 C237,211.867102 237.480775,196.703776 238.483587,176.417996 C239.452313,156.116107 239.963585,140.895508 239.963585,130.754408 C239.963585,92.0818426 239.063028,61.9341735 237.283442,40.2702346 L237.141721,38.3390226 C237.055612,36.7979906 238.483587,35.7437887 241.468699,35.1871558 C244.446636,34.6520006 258.453702,34.0971575 283.491692,33.5548431 C300.469519,33.1771918 313.977871,33 324.077741,33 C344.975322,33 362.026701,37.7036378 375.246229,47.123442 C390.202288,57.7298945 397.670451,73.0328256 397.670451,93.0590824 C397.670451,106.391425 395.732999,117.037254 391.877826,124.998358 C388.019066,132.954092 380.91866,140.673571 370.547906,148.156793 C368.427471,149.633392 367.379812,151.011551 367.379812,152.276951 C367.379812,152.178511 372.985867,163.672713 384.192597,186.709441 C395.413678,209.765857 401,222.461025 401,224.837902" id="Fill-1" fill="#231F20"></path>
            <path d="M478.604264,138.569794 C476.727981,133.309252 473.179514,129.36117 467.976768,126.697017 C462.754327,124.056046 457.540838,123.649469 452.286172,125.521865 C446.873955,127.424577 443.223438,131.269231 441.309558,137.021946 C439.504889,142.339552 439.633794,147.815866 441.63182,153.41344 C442.450009,155.719163 444.066692,156.43424 446.478288,155.581854 C452.828647,153.333195 462.367612,148.844793 475.086233,142.127348 C477.777124,140.70076 478.94443,139.518475 478.604264,138.569794 M526.726984,130.422194 C529.833235,139.061967 528.785883,144.975173 523.617153,148.158248 C522.72377,148.666469 514.155172,152.771476 497.884504,160.467917 C488.121745,165.181007 473.424792,171.88062 453.822289,180.564973 C457.039541,185.732787 462.222594,188.69474 469.382189,189.438349 C475.234832,190.091013 481.359607,189.283208 487.736821,187.020283 C495.401294,184.304416 502.394387,179.544963 508.710729,172.729439 C511.24944,169.546365 513.807845,166.363291 516.378782,163.171301 C518.473487,163.403122 523.067516,166.68784 530.151917,173.046855 C537.239898,179.404087 541.169709,183.653536 541.928815,185.788068 C542.154399,186.394368 541.839298,187.599834 541.047965,189.415167 C534.532895,204.371157 520.195801,215.771377 498.049216,223.61761 C477.537217,230.896775 458.856743,230.786214 441.99347,223.32516 C424.759596,215.826658 412.524369,201.940608 405.287789,181.70981 C398.240985,161.974751 398.235614,143.760791 405.282418,127.071496 C412.499304,109.820483 425.928692,97.7051861 445.581325,90.7487872 C462.136658,84.883728 478.305276,85.9001718 494.130148,93.8016851 C509.976503,101.683583 520.834954,113.891608 526.726984,130.422194" id="Fill-3" fill="#231F20"></path>
            <path d="M786.38963,136.312825 C786.296302,136.312825 783.535945,135.588957 778.110354,134.166305 C772.684763,132.704235 768.262448,132.001867 764.88469,132.001867 C756.759764,132.001867 750.284232,134.43686 745.443736,139.312219 C740.60683,144.205496 738.198248,150.709559 738.198248,158.833367 C738.198248,167.236688 740.845534,173.830339 746.147286,178.630445 C751.441859,183.412633 758.330188,185.827916 766.857143,185.827916 C770.875634,185.827916 775.387687,184.795866 780.422018,182.75506 C785.443786,180.737546 787.83801,179.723414 787.556231,179.723414 C789.106912,179.723414 791.142182,185.528693 793.636913,197.124918 C795.743974,207.721345 796.819041,214.755766 796.819041,218.231767 C796.819041,221.691642 791.142182,224.655201 779.793848,227.136779 C770.995884,229.048579 763.890387,230 758.500692,230 C738.340035,230 721.72405,223.237925 708.640173,209.703023 C695.563476,196.160955 689,179.279059 689,159.051961 C689,139.041665 695.574244,122.19202 708.699401,108.520946 C721.833531,94.822995 738.422594,88 758.454028,88 C772.090694,88 784.076171,90.929516 794.426612,96.7777974 C796.819041,98.0696512 798,99.311336 798,100.490309 C798,101.6872 796.619822,107.094711 793.852285,116.684172 C791.298327,125.938576 789.609448,131.512719 788.817954,133.431686 C788.022871,135.354237 787.220609,136.312825 786.38963,136.312825" id="Fill-5" fill="#231F20"></path>
            <path d="M622.606269,139.57648 C620.726432,134.309137 617.176226,130.354172 611.973554,127.69732 C606.761931,125.049383 601.537775,124.65353 596.290345,126.507977 C590.867463,128.414135 587.215209,132.271028 585.292405,138.023381 C583.519987,143.340651 583.634568,148.804138 585.607501,154.413841 C586.456113,156.715851 588.051289,157.441582 590.462851,156.5839 C596.836393,154.322901 606.369851,149.843698 619.099031,143.117761 C621.761238,141.691263 622.94822,140.517969 622.606269,139.57648 M670.724719,131.411564 C673.813022,140.063273 672.774636,145.981455 667.60061,149.158979 C666.714401,149.677868 658.160248,153.759435 641.86654,161.46074 C632.118243,166.171749 617.425081,172.885204 597.833601,181.572576 C601.038275,186.741847 606.208722,189.682216 613.375376,190.445392 C619.235095,191.080183 625.359782,190.283128 631.735115,188.018563 C639.408429,185.302867 646.394261,180.543714 652.712302,173.73397 C655.263509,170.545748 657.800394,167.368224 660.34802,164.172869 C662.476712,164.392193 667.074255,167.689186 674.149603,174.031752 C681.250015,180.402847 685.165446,184.646678 685.935284,186.777509 C686.141171,187.392687 685.8583,188.598077 685.050866,190.436476 C678.525147,205.36121 664.204371,216.767843 642.041991,224.622496 C621.542819,231.886936 602.844709,231.792431 586.004952,224.331847 C568.74089,216.808854 556.505838,202.948645 549.283684,182.701292 C542.238772,162.972827 542.238772,144.7618 549.283684,128.071776 C556.505838,110.818285 569.942195,98.7198002 589.580223,91.7477921 C606.120996,85.8759706 622.303705,86.9119646 638.133721,94.7987143 C653.952995,102.685464 664.830983,114.896285 670.724719,131.411564" id="Fill-7" fill="#231F20"></path>
            <g id="Group-11" transform="translate(801.000000, 88.000000)">
                <mask id="mask-c4ndm30g5--2" fill="white">
                    <use xlink:href="#path-c4ndm30g5--1"></use>
                </mask>
                <g id="Clip-10"></g>
                <path d="M78.6186658,51.5764803 C76.7299882,46.3091372 73.1710394,42.354172 67.9704627,39.6973199 C62.7537741,37.0493833 57.5442464,36.6535302 52.288173,38.5079773 C46.860239,40.414135 43.2207304,44.2710285 41.3034094,50.0233808 C39.5096133,55.3406514 39.6367186,60.804138 41.6328091,66.4138406 C42.4598888,68.7158514 44.0692927,69.4415822 46.4807133,68.5839004 C52.8288182,66.3229014 62.3706679,61.8436983 75.0901506,55.1177611 C77.773684,53.6912633 78.9552263,52.5179689 78.6186658,51.5764803 M126.725342,43.4115635 C129.815255,52.0632727 128.7823,57.9814555 123.596045,61.1589793 C122.729581,61.6778679 114.152657,65.7594347 97.8778064,73.4607397 C88.122921,78.1717487 73.4377815,84.885204 53.8367096,93.5725756 C57.017923,98.741847 62.2059681,101.682216 69.3811527,102.445392 C75.2458994,103.080183 81.3541154,102.283128 87.7416051,100.018563 C95.4126794,97.3028674 102.38736,92.5437141 108.69966,85.7339702 C111.256088,82.5457476 113.803565,79.3682238 116.343882,76.1728687 C118.465287,76.3921927 123.073302,79.6891858 130.160766,86.0317516 C137.224958,92.4028474 141.168803,96.6466784 141.933225,98.7775095 C142.153421,99.3926867 141.827602,100.598077 141.048858,102.436476 C134.518151,117.36121 120.185684,128.767843 98.0496671,136.622496 C77.524844,143.886936 58.8457332,143.792431 42.0069642,136.331847 C24.7528651,128.808854 12.5203212,114.948645 5.27531816,94.701292 C-1.75843939,74.9728274 -1.75843939,56.7617998 5.27531816,40.0717756 C12.5042092,22.8182846 25.946939,10.7198002 45.5981369,3.74779215 C62.1361497,-2.12402943 78.3161193,-1.0880354 94.1380458,6.79871432 C109.959972,14.685464 120.819421,26.8962852 126.725342,43.4115635" id="Fill-9" fill="#231F20" mask="url(#mask-c4ndm30g5--2)"></path>
            </g>
            <path d="M0,132.873942 L198.698257,166 C198.698257,166 201.952964,158.174862 202.962675,153.069175 C202.962675,153.069175 179.961313,155.166986 159.516453,150.265526 C159.516453,150.265526 177.00021,129.020492 205,113.135534 C205,113.135534 204.851408,89.5830882 175.374646,60.1116277 C175.374646,60.1116277 168.6504,77.827467 167.911019,80.7851828 C167.169848,83.7464814 157.488079,112.80053 137.736053,132.042701 C137.736053,132.042701 128.059655,105.586283 128.42845,76.345922 C128.42845,76.345922 130.331505,46.0718833 129.194685,35.9930774 C129.194685,35.9930774 92.5246271,24.9092572 52.1290216,45.4000824 C52.1290216,45.4000824 57.1471426,62.6537226 78.5945523,86.0592682 C78.5945523,86.0592682 102.512532,109.669041 110.894566,140.656085 C110.894566,140.656085 77.1569672,134.957421 44.013737,112.060653 C44.013737,112.060653 22.7041779,97.0051452 6.73319768,94.8876286 C6.73319768,94.8876286 0.879021553,104.798036 0,132.873942" id="Fill-12" fill="#231F20"></path>
            <g id="Group-16" transform="translate(0.000000, 140.000000)">
                <mask id="mask-c4ndm30g5--4" fill="white">
                    <use xlink:href="#path-c4ndm30g5--3"></use>
                </mask>
                <g id="Clip-15"></g>
                <path d="M0,0 L197,31.5773746 C197,31.5773746 193.515018,41.4529242 183.765663,53.0210153 C183.765663,53.0210153 162.970383,45.4135431 152.468874,43.9576705 C152.468874,43.9576705 158.743991,62.0915319 164.08966,70.977375 C164.08966,70.977375 149.909758,81.0573205 133.666803,85.4625902 C133.666803,85.4625902 130.792498,65.4461349 125.631286,53.8350131 C125.631286,53.8350131 111.334979,68.1839643 101.676957,90.0008792 C101.676957,90.0008792 75.1008327,90.2515504 50.8241518,77.1397323 C50.8241518,77.1397323 83.3709501,60.4294705 104.553053,35.0072814 C104.553053,35.0072814 77.59906,27.7817068 47.3570779,34.3062393 C47.3570779,34.3062393 18.1018508,40.6066534 11.638695,39.9593997 C11.638695,39.9593997 0.273999127,20.9756817 0,0" id="Fill-14" fill="#231F20" mask="url(#mask-c4ndm30g5--4)"></path>
            </g>
        </g>
    </g>
</svg>