<?xml version="1.0" encoding="UTF-8" standalone="no"?>
<!DOCTYPE svg PUBLIC "-//W3C//DTD SVG 1.1//EN" "http://www.w3.org/Graphics/SVG/1.1/DTD/svg11.dtd">
<svg width="998px" height="322px" viewBox="0 0 998 322" version="1.1" xmlns="http://www.w3.org/2000/svg" xmlns:xlink="http://www.w3.org/1999/xlink">
    <g id="Pool-Partner" stroke="none" stroke-width="1" fill="none" fill-rule="evenodd">
        <g id="Artboard" fill-rule="nonzero">
            <path d="M977.867976,203.339333 L977.867976,198.952666 L982.162642,198.952666 C983.935975,198.952666 984.682642,199.885999 984.682642,201.099333 C984.682642,202.405999 983.935975,203.339333 982.254642,203.339333 L977.867976,203.339333 Z M984.027975,189.804666 L984.027975,194.004666 C984.027975,195.592666 983.467975,196.246 981.509309,196.246 L977.867976,196.246 L977.867976,189.804666 L974.507976,189.804666 L974.507976,206.139333 L982.814642,206.139333 C985.895975,206.139333 987.854642,204.085999 987.854642,201.379333 C987.854642,199.699333 987.015975,198.204666 985.427975,197.646 C986.922642,197.178 987.389309,196.339333 987.389309,194.471333 L987.389309,189.804666 L984.027975,189.804666 Z M980.573309,212.207333 C972.266642,212.207333 965.546643,205.485999 965.546643,197.178 C965.546643,188.871333 972.266642,182.15 980.573309,182.15 C988.882642,182.15 995.602642,188.871333 995.602642,197.178 C995.602642,205.485999 988.882642,212.207333 980.573309,212.207333 Z M980.573309,179.35 C970.681309,179.35 962.745309,187.284666 962.745309,197.178 C962.745309,207.072666 970.681309,215.100666 980.573309,215.100666 C990.469309,215.100666 998.495975,207.072666 998.495975,197.178 C998.495975,187.284666 990.469309,179.35 980.573309,179.35" id="copyright" fill="#050301" transform="translate(980.620642, 197.225333) scale(1, -1) translate(-980.620642, -197.225333) "></path>
            <path d="M940.947976,260.547332 C939.987977,267.747332 935.827977,270.947332 926.867977,270.947332 C918.387977,270.947332 913.907977,269.187332 913.907977,264.227332 C913.907977,259.907332 918.387977,257.667332 926.707977,255.427332 C954.226643,247.908666 963.185309,246.468666 963.185309,228.068666 C963.185309,213.99 951.186643,203.59 928.307977,203.59 C905.747977,203.59 891.189311,214.308666 890.869311,230.948666 L912.307977,230.948666 C912.307977,223.588666 918.867977,219.27 928.147977,219.27 C935.987977,219.27 942.547976,221.668666 942.547976,226.788666 C942.547976,232.548666 938.387977,234.468666 929.906643,236.388666 C899.349311,243.108666 893.749311,250.947332 893.749311,264.227332 C893.749311,276.067332 902.867977,286.467331 927.507977,286.467331 C950.067976,286.467331 959.986643,276.707332 960.946643,260.547332 L940.947976,260.547332" id="S" fill="#050301" transform="translate(927.027310, 245.028666) scale(1, -1) translate(-927.027310, -245.028666) "></path>
            <path d="M865.587978,284.387331 L865.587978,273.347332 C860.147978,282.307331 851.987979,286.467331 841.109312,286.467331 C825.429313,286.467331 814.390646,274.787332 814.390646,257.508665 L814.390646,205.67 L835.187979,205.67 L835.187979,254.308665 C835.187979,264.228665 839.669312,269.028665 848.467979,269.028665 C859.027979,269.028665 864.629312,261.508665 864.629312,251.108666 L864.629312,205.67 L885.266645,205.67 L885.266645,284.387331 L865.587978,284.387331" id="U" fill="#050301"></path>
            <path d="M786.549314,280.867331 C786.549314,294.947331 779.187981,304.705997 768.790647,304.705997 C758.869314,304.705997 751.189315,295.425998 751.189315,282.147331 C751.189315,265.027332 757.110648,256.548665 768.629314,256.548665 C780.789314,256.548665 786.549314,264.707332 786.549314,280.867331 L786.549314,280.867331 Z M731.511982,203.59 L731.511982,319.585997 L751.510648,319.585997 L751.670648,309.985997 C756.629314,317.985997 763.989314,321.665997 773.589314,321.665997 C793.42798,321.665997 807.66798,305.985997 807.66798,279.427331 C807.66798,255.587332 795.669313,238.788666 775.350647,238.788666 C765.589314,238.788666 757.909314,242.788666 751.990648,251.108665 L751.990648,203.59 L731.511982,203.59" id="P" fill="#050301" transform="translate(769.589981, 262.627999) scale(1, -1) translate(-769.589981, -262.627999) "></path>
            <path d="M702.867982,203.59 L702.867982,251.268665 C702.867982,260.707332 697.906649,267.427332 690.547983,267.427332 C682.867983,267.427332 677.269316,260.227332 677.269316,250.627332 L677.269316,203.59 L656.469317,203.59 L656.469317,250.947332 C656.469317,263.587332 653.11065,266.787332 643.990651,266.787332 C635.670651,266.787332 631.350651,261.667332 631.350651,251.427332 L631.350651,203.59 L610.551985,203.59 L610.551985,282.307331 L630.071984,282.307331 L630.071984,270.787332 C635.350651,281.187331 642.710651,284.387331 653.11065,284.387331 C663.829317,284.387331 668.949317,281.027331 675.027983,271.907332 C679.349316,280.547331 686.389316,284.387331 696.307983,284.387331 C712.146649,284.387331 723.186649,272.867332 723.186649,258.147332 L723.186649,203.59 L702.867982,203.59" id="M" fill="#050301" transform="translate(666.869317, 243.988666) scale(1, -1) translate(-666.869317, -243.988666) "></path>
            <path d="M581.430652,244.228666 C579.350652,242.148666 575.671986,241.028666 567.991986,239.588666 C556.151986,237.348666 552.311986,233.988666 552.311986,227.268666 C552.311986,221.35 555.831986,218.47 562.391986,218.47 C573.111986,218.47 581.111985,226.308666 581.271985,235.588666 L581.430652,244.228666 Z M582.870652,205.67 C582.231985,207.59 581.750652,210.31 581.590652,212.71 C576.630652,207.27 568.311986,203.59 557.751986,203.59 C539.83332,203.59 531.51332,212.39 531.51332,225.189999 C531.51332,247.908666 546.711986,250.468665 567.671986,253.348665 C578.071986,254.787332 580.951985,256.867332 580.951985,262.307332 C580.951985,267.427332 575.831986,270.467332 567.671986,270.467332 C558.233319,270.467332 554.391986,265.827332 553.431986,258.787332 L534.07332,258.787332 C534.39332,275.107332 543.351986,286.467331 568.630652,286.467331 C593.590652,286.467331 602.230652,275.267332 602.230652,255.427332 L602.230652,205.67 L582.870652,205.67" id="A" fill="#050301" transform="translate(566.871986, 245.028666) scale(1, -1) translate(-566.871986, -245.028666) "></path>
            <path d="M528.310653,234.148666 C526.071987,215.91 511.190654,203.59 492.151988,203.59 C470.713322,203.59 455.993322,217.83 455.993322,245.988666 C455.993322,274.147332 470.713322,286.467331 492.791988,286.467331 C513.271987,286.467331 527.190653,274.787332 528.470653,256.227332 L507.511987,256.227332 C506.391987,264.387332 500.471987,269.187332 492.631988,269.187332 C483.831988,269.187332 476.631988,263.587332 476.631988,246.468666 C476.631988,229.348666 483.831988,221.028666 491.991988,221.028666 C500.151987,221.028666 506.551987,225.668666 507.350654,234.148666 L528.310653,234.148666" id="C" fill="#050301" transform="translate(492.231988, 245.028666) scale(1, -1) translate(-492.231988, -245.028666) "></path>
            <path d="M430.073323,260.547332 C429.111989,267.747332 424.953323,270.947332 415.993323,270.947332 C407.513323,270.947332 403.033323,269.187332 403.033323,264.227332 C403.033323,259.907332 407.513323,257.667332 415.833323,255.427332 C443.351989,247.908666 452.311989,246.468666 452.311989,228.068666 C452.311989,213.99 440.311989,203.59 417.433323,203.59 C394.873323,203.59 380.314657,214.308666 379.994657,230.948666 L401.433323,230.948666 C401.433323,223.588666 407.993323,219.27 417.273323,219.27 C425.111989,219.27 431.671989,221.668666 431.671989,226.788666 C431.671989,232.548666 427.513323,234.468666 419.033323,236.388666 C388.473324,243.108666 382.874657,250.947332 382.874657,264.227332 C382.874657,276.067332 391.993324,286.467331 416.63199,286.467331 C439.191989,286.467331 449.111989,276.707332 450.071989,260.547332 L430.073323,260.547332" id="S" fill="#46BC54" transform="translate(416.153323, 245.028666) scale(1, -1) translate(-416.153323, -245.028666) "></path>
            <path d="M355.833324,238.307332 L375.191991,238.307332 L375.191991,215.908666 C375.191991,199.27 365.593324,184.39 343.353325,184.39 C320.314659,184.39 311.194659,199.108666 311.194659,216.068666 L311.194659,286.465997 L331.674658,286.465997 L331.674658,265.187331 L375.191991,265.187331 L375.191991,250.467332 L331.674658,250.467332 L331.674658,218.148666 C331.674658,208.228666 335.194659,202.468666 343.674658,202.468666 C351.993325,202.468666 355.833324,208.068666 355.833324,217.828666 L355.833324,238.307332" id="T" fill="#46BC54" transform="translate(343.193325, 235.427999) scale(1, -1) translate(-343.193325, -235.427999) "></path>
            <path d="M260.797327,203.59 L260.797327,282.307331 L280.317326,282.307331 L280.317326,272.867332 C287.195993,283.425998 295.195993,284.387331 303.675992,284.387331 L306.395992,284.387331 L306.395992,263.107332 C304.475992,263.427332 302.555992,263.587332 300.635992,263.587332 C287.835993,263.587332 281.597326,257.187332 281.597326,244.548666 L281.597326,203.59 L260.797327,203.59" id="R" fill="#46BC54" transform="translate(283.596660, 243.988666) scale(1, -1) translate(-283.596660, -243.988666) "></path>
            <path d="M233.115994,245.027332 C233.115994,261.027332 226.715994,268.867332 214.075995,268.867332 C201.437328,268.867332 195.037328,261.027332 195.037328,245.027332 C195.037328,229.028666 201.437328,221.028666 214.075995,221.028666 C226.715994,221.028666 233.115994,229.028666 233.115994,245.027332 Z M173.598662,245.027332 C173.598662,269.987332 189.117329,286.467331 214.075995,286.467331 C238.715994,286.467331 254.07466,270.147332 254.07466,245.027332 C254.07466,220.07 238.555994,203.59 214.075995,203.59 C188.637329,203.59 173.598662,220.55 173.598662,245.027332" id="O" fill="#46BC54" transform="translate(213.836661, 245.028666) scale(1, -1) translate(-213.836661, -245.028666) "></path>
            <path d="M147.51733,280.867331 C147.51733,294.947331 140.15733,304.705997 129.758663,304.705997 C119.838664,304.705997 112.158664,295.425998 112.158664,282.147331 C112.158664,265.027332 118.078664,256.548665 129.598663,256.548665 C141.75733,256.548665 147.51733,264.707332 147.51733,280.867331 L147.51733,280.867331 Z M92.4799977,203.59 L92.4799977,319.585997 L112.478664,319.585997 L112.638664,309.985997 C117.598664,317.985997 124.958664,321.665997 134.558663,321.665997 C154.397329,321.665997 168.635996,305.985997 168.635996,279.427331 C168.635996,255.587332 156.637329,238.788666 136.318663,238.788666 C126.558664,238.788666 118.878664,242.788666 112.959997,251.108665 L112.959997,203.59 L92.4799977,203.59" id="P" fill="#46BC54" transform="translate(130.557997, 262.627999) scale(1, -1) translate(-130.557997, -262.627999) "></path>
            <path d="M62.8773318,253.187331 C61.7573318,264.065998 55.197332,269.345998 41.5986656,269.345998 C29.2786659,269.345998 22.7186661,265.025998 22.7186661,256.387331 C22.7186661,250.307331 27.678666,246.147332 39.1986657,243.427332 C52.797332,240.227332 62.3973318,237.667332 70.7173316,234.147332 C80.3173313,230.147332 87.3559978,223.587332 87.3559978,206.628666 C87.3559978,186.31 69.1173316,174.63 47.1986655,174.63 C16.4799996,174.63 0.79999998,186.79 -2.27373675e-13,210.148666 L21.4386661,210.148666 C21.5999995,199.428666 31.3586659,192.55 44.3186656,192.55 C58.2386652,192.55 65.7573317,198.148666 65.7573317,206.788666 C65.7573317,213.828666 62.8773318,218.148666 49.2786654,221.027332 C16.7986662,227.907332 2.39999994,233.667332 2.39999994,256.547331 C2.39999994,274.145998 15.3586663,288.064664 41.5986656,288.064664 C67.1973317,288.064664 83.1959979,274.145998 83.9959979,253.187331 L62.8773318,253.187331" id="S" fill="#46BC54" transform="translate(43.677999, 231.347332) scale(1, -1) translate(-43.677999, -231.347332) "></path>
            <path d="M530.227987,86.1707226 C528.815987,91.4387225 526.426654,95.717389 523.063987,99.005389 C519.698654,102.289389 515.539987,104.998722 510.586654,107.130722 C505.633321,109.258722 499.969321,111.052055 493.586654,112.508055 C487.210654,113.964055 480.351988,115.462722 473.026655,117.005389 C465.287988,118.632055 457.987989,120.428055 451.131989,122.388055 C444.274656,124.349388 438.097322,126.880055 432.589323,129.984055 C427.083989,133.084055 422.354656,137.004055 418.409323,141.742721 C414.462656,146.476054 411.51599,152.480054 409.56799,159.750721 C409.154656,161.296054 408.833323,162.814721 408.55599,164.321387 C399.47999,146.778721 396.665323,125.929388 402.178657,105.346722 C413.918656,61.5307232 458.957322,35.5280572 502.773321,47.2693902 C506.395987,48.2400569 509.883987,49.4600569 513.253321,50.8640568 C518.667987,53.7093901 522.874654,57.0240567 525.84532,60.8187232 C531.398653,67.9053897 532.855987,76.3573895 530.227987,86.1707226" id="circle-bottom" fill="#46BC54" transform="translate(465.428363, 104.385694) scale(1, -1) translate(-465.428363, -104.385694) "></path>
            <path d="M440.007989,104.963331 C436.733322,101.551331 434.367989,97.6566642 432.911989,93.2726643 C431.459989,88.8899978 431.447989,84.0179979 432.886656,78.657998 C434.223989,73.6593315 436.311989,69.5926649 439.147989,66.4579983 C441.986656,63.3219984 445.621322,60.7419985 450.062655,58.7179985 C454.497322,56.6926653 459.709322,54.9699986 465.686655,53.555332 C471.667988,52.1366654 478.517321,50.6606654 486.231988,49.1246654 C494.151988,47.5473321 501.761321,45.6913322 509.050654,43.5539989 C516.34532,41.417999 522.971987,38.6646657 528.94132,35.2979991 C534.90932,31.9286659 540.031986,27.7979993 544.311986,22.9086661 C548.594653,18.0153329 551.707986,11.9366664 553.655986,4.66733322 C554.074653,3.10066659 554.413319,1.56866663 554.710653,0.05 C563.493319,17.4433329 566.167986,37.9979991 560.730653,58.2979985 C548.987986,102.113997 503.950654,128.11533 460.131988,116.37533 C457.602655,115.69533 455.135989,114.893997 452.729322,114.000664 C452.483989,113.881997 452.237322,113.77533 451.993322,113.652664 C447.274655,111.268664 443.278656,108.371331 440.007989,104.963331" id="circle-top" fill="#231F20" transform="translate(497.679947, 59.622132) scale(1, -1) translate(-497.679947, -59.622132) "></path>
        </g>
    </g>
</svg>