<?xml version="1.0" encoding="utf-8"?>
<svg width="392px" height="109px" viewBox="0 0 392 109" version="1.1" xmlns="http://www.w3.org/2000/svg" xmlns:xlink="http://www.w3.org/1999/xlink">
    <g id="Page-1" stroke="none" stroke-width="1" fill="none" fill-rule="evenodd">
        <g id="Artboard" transform="translate(-240.000000, -414.000000)" fill-rule="nonzero">
            <g id="viactiv" transform="translate(240.000000, 414.000000)">
                <path d="M233.875992,15.6 C234.575992,15 234.675992,14 234.075992,13.3 C233.575992,12.7 231.975992,11 231.575992,10.5 C224.875992,4 215.775992,0 205.775992,0 C185.375992,0 168.775992,16.6 168.775992,37 C168.775992,57.4 185.375992,74 205.775992,74 C214.775992,74 222.975992,70.8 229.375992,65.5 C232.875992,62.3 233.675992,61.4 234.175992,60.8 C234.775992,60.1 234.675992,59.1 233.975992,58.5 C233.775992,58.4 227.675992,53.2 227.575992,53.1 C226.875992,52.5 225.875992,52.6 225.275992,53.3 C224.975992,53.7 222.675992,56.4 219.475992,58.4 C215.575992,60.9 210.875992,62.4 205.875992,62.4 C191.875992,62.4 180.575992,51.1 180.575992,37.1 C180.575992,23.1 191.875992,11.8 205.875992,11.8 C211.875992,11.8 217.375992,13.9 221.675992,17.3 C222.575992,18 224.775992,20.2 225.275992,20.8 C225.875992,21.5 226.875992,21.6 227.575992,21 C227.475992,20.9 233.875992,15.6 233.875992,15.6" id="Path" fill="#000000"></path>
                <path d="M381.075992,99.9 C381.175992,96.8 383.175992,95.8 384.875992,95.8 C388.075992,95.8 388.375992,98.6 388.375992,99.9 L381.075992,99.9 Z M391.075992,101.7 C391.175992,99.4 391.275992,93.8 384.975992,93.8 C384.175992,93.8 382.475992,93.9 381.175992,94.8 C378.975992,96.3 378.375992,98.6 378.375992,101.4 C378.375992,105.9 380.475992,108.6 384.875992,108.6 C387.675992,108.6 389.075992,107.4 389.675992,106.7 C390.675992,105.6 390.775992,104.5 390.875992,103.8 L388.275992,103.8 C388.075992,105.8 386.675992,106.7 384.975992,106.7 C382.075992,106.7 380.875992,104.5 380.975992,101.6 L391.075992,101.6 L391.075992,101.7 Z M358.475992,104.1 C358.475992,107.5 361.075992,108.7 363.975992,108.7 C365.475992,108.7 366.875992,108.5 368.175992,107.7 C369.175992,107.1 370.075992,105.7 370.075992,104.1 C370.075992,103.2 369.775992,102.2 368.975992,101.5 C368.175992,100.7 367.275992,100.5 363.375992,99.6 C362.675992,99.4 361.375992,99.1 361.375992,97.8 C361.375992,95.8 363.875992,95.8 364.275992,95.8 C365.275992,95.8 367.075992,96 366.975992,98.1 L369.675992,98.1 C369.675992,97.5 369.675992,96.8 369.275992,96.1 C368.475992,94.4 365.975992,93.9 364.175992,93.9 C360.975992,93.9 358.675992,95.6 358.675992,98.2 C358.675992,101.1 361.175992,101.7 364.075992,102.4 C366.175992,102.9 367.175992,103.1 367.175992,104.5 C367.175992,105 366.975992,105.5 366.775992,105.8 C366.175992,106.5 365.375992,106.7 364.275992,106.7 C361.775992,106.7 361.175992,105.2 361.175992,104.2 L358.475992,104.2 L358.475992,104.1 Z M338.775992,104.1 C338.775992,107.5 341.375992,108.7 344.275992,108.7 C345.775992,108.7 347.175992,108.5 348.475992,107.7 C349.475992,107.1 350.375992,105.7 350.375992,104.1 C350.375992,103.2 350.075992,102.2 349.275992,101.5 C348.475992,100.7 347.575992,100.5 343.675992,99.6 C342.975992,99.4 341.675992,99.1 341.675992,97.8 C341.675992,95.8 344.175992,95.8 344.575992,95.8 C345.575992,95.8 347.375992,96 347.275992,98.1 L349.975992,98.1 C349.975992,97.5 349.975992,96.8 349.575992,96.1 C348.775992,94.4 346.275992,93.9 344.475992,93.9 C341.275992,93.9 338.975992,95.6 338.975992,98.2 C338.975992,101.1 341.475992,101.7 344.375992,102.4 C346.475992,102.9 347.475992,103.1 347.475992,104.5 C347.475992,105 347.275992,105.5 347.075992,105.8 C346.475992,106.5 345.675992,106.7 344.575992,106.7 C342.075992,106.7 341.475992,105.2 341.475992,104.2 L338.775992,104.2 L338.775992,104.1 Z M327.075992,101.4 C326.975992,103.4 326.975992,104.1 326.375992,105.1 C325.775992,106.1 324.675992,106.6 323.375992,106.6 C320.975992,106.6 320.475992,105.1 320.475992,104.2 C320.475992,101.3 324.475992,101.3 325.575992,101.3 C326.175992,101.3 326.575992,101.4 327.075992,101.4 M329.775992,108.3 C329.575992,106.9 329.575992,105 329.575992,104.8 L329.675992,98.1 C329.675992,97.5 329.675992,96.8 329.175992,95.9 C328.375992,94.5 326.275992,93.8 324.175992,93.8 C322.675992,93.8 320.675992,94.1 319.675992,95.3 C318.875992,96.3 318.775992,97.2 318.675992,98 L321.275992,98 C321.275992,97.4 321.475992,95.6 324.075992,95.6 C324.875992,95.6 325.975992,95.8 326.475992,96.5 C326.975992,97.1 326.975992,97.9 326.975992,99.6 C326.175992,99.5 325.775992,99.5 325.075992,99.5 C323.975992,99.5 321.675992,99.6 320.175992,100.4 C318.075992,101.6 317.675992,103.4 317.675992,104.5 C317.675992,106.8 319.375992,108.6 322.675992,108.6 C323.875992,108.6 325.775992,108.4 326.975992,106.1 C326.975992,106.8 327.075992,107.5 327.275992,108.2 L329.775992,108.2 L329.775992,108.3 Z M298.375992,108.3 L300.975992,108.3 L300.975992,100.7 L306.575992,108.3 L309.975992,108.3 L303.675992,100.2 L309.575992,94.2 L306.175992,94.2 L300.875992,99.9 L300.875992,87.9 L298.275992,87.9 L298.275992,108.3 L298.375992,108.3 Z M275.875992,108.3 L278.475992,108.3 L278.475992,100.2 C278.475992,97.4 280.275992,96 282.175992,96 C283.075992,96 283.975992,96.3 284.675992,97 C285.275992,97.6 285.475992,98.5 285.475992,99.4 L285.475992,108.3 L288.175992,108.3 L288.175992,98.8 C288.175992,94.5 284.375992,94 283.075992,94 C279.875992,94 278.875992,96 278.575992,96.5 L278.575992,94.2 L275.975992,94.2 L275.975992,95.8 L275.975992,108.3 L275.875992,108.3 Z M256.275992,99.9 C256.375992,96.8 258.375992,95.8 260.075992,95.8 C263.275992,95.8 263.575992,98.6 263.575992,99.9 L256.275992,99.9 Z M266.275992,101.7 C266.375992,99.4 266.475992,93.8 260.175992,93.8 C259.375992,93.8 257.675992,93.9 256.375992,94.8 C254.175992,96.3 253.575992,98.6 253.575992,101.4 C253.575992,105.9 255.675992,108.6 260.075992,108.6 C262.875992,108.6 264.275992,107.4 264.875992,106.7 C265.875992,105.6 265.975992,104.5 266.075992,103.8 L263.575992,103.8 C263.375992,105.8 261.975992,106.7 260.275992,106.7 C257.375992,106.7 256.175992,104.5 256.275992,101.6 L266.275992,101.6 L266.275992,101.7 Z M234.475992,108.3 L237.075992,108.3 L237.075992,100.7 L242.675992,108.3 L246.075992,108.3 L239.775992,100.2 L245.675992,94.2 L242.275992,94.2 L236.975992,99.9 L236.975992,87.9 L234.375992,87.9 L234.375992,108.3 L234.475992,108.3 Z M212.175992,108.3 L214.775992,108.3 L214.775992,100.2 C214.775992,97.4 216.575992,96 218.475992,96 C219.375992,96 220.275992,96.3 220.975992,97 C221.575992,97.6 221.775992,98.5 221.775992,99.4 L221.775992,108.3 L224.475992,108.3 L224.475992,98.8 C224.475992,94.5 220.675992,94 219.375992,94 C216.175992,94 215.175992,96 214.875992,96.5 L214.875992,94.2 L212.275992,94.2 L212.275992,95.8 L212.275992,108.3 L212.175992,108.3 Z M199.375992,101.4 C199.275992,103.4 199.275992,104.1 198.675992,105.1 C198.075992,106.1 196.975992,106.6 195.675992,106.6 C193.275992,106.6 192.775992,105.1 192.775992,104.2 C192.775992,101.3 196.775992,101.3 197.875992,101.3 C198.475992,101.3 198.875992,101.4 199.375992,101.4 M202.075992,108.3 C201.875992,106.9 201.875992,105 201.875992,104.8 L201.975992,98.1 C201.975992,97.5 201.975992,96.8 201.475992,95.9 C200.675992,94.5 198.575992,93.8 196.475992,93.8 C194.975992,93.8 192.975992,94.1 191.975992,95.3 C191.175992,96.3 191.075992,97.2 190.975992,98 L193.575992,98 C193.575992,97.4 193.775992,95.6 196.375992,95.6 C197.175992,95.6 198.275992,95.8 198.775992,96.5 C199.275992,97.1 199.275992,97.9 199.275992,99.6 C198.475992,99.5 198.075992,99.5 197.375992,99.5 C196.275992,99.5 193.975992,99.6 192.475992,100.4 C190.375992,101.6 189.975992,103.4 189.975992,104.5 C189.975992,106.8 191.675992,108.6 194.975992,108.6 C196.175992,108.6 198.075992,108.4 199.275992,106.1 C199.275992,106.8 199.375992,107.5 199.575992,108.2 L202.075992,108.2 L202.075992,108.3 Z M174.875992,108.3 L177.575992,108.3 L177.575992,100.8 C177.575992,98.4 178.275992,96.5 181.375992,96.5 C181.675992,96.5 181.975992,96.5 182.175992,96.5 C182.375992,96.5 182.575992,96.6 182.675992,96.6 L182.675992,94 C182.275992,94 181.675992,93.9 180.875992,94.1 C179.675992,94.3 177.975992,94.9 177.475992,96.9 L177.375992,94.2 L174.675992,94.2 C174.775992,95.1 174.775992,96.1 174.775992,97.1 L174.775992,108.3 L174.875992,108.3 Z M150.475992,108.3 L153.275992,108.3 L153.275992,97.6 L162.575992,108.3 L166.475992,108.3 L156.475992,97.1 L165.475992,88.1 L161.675992,88.1 L153.275992,96.9 L153.275992,88.1 L150.475992,88.1 L150.475992,108.3 Z" id="Shape" fill="#000000"></path>
                <path d="M355.075992,73.2 C357.275992,73.2 359.375992,73 360.675992,70 C368.875992,51.2 380.275992,26.6 389.975992,5.1 C391.275992,2.1 391.675992,0.8 389.275992,0.8 L381.075992,0.8 C378.775992,0.8 378.675992,0.8 376.075992,7 C376.075992,7 358.475992,46.4 356.075992,51.6 L356.075992,51.6 C356.075992,51.6 356.075992,51.7 356.075992,51.7 C355.975992,51.9 355.975992,52 355.875992,52.1 C355.475992,52.8 355.275992,53.2 355.075992,53.3 C354.875992,53.2 354.675992,52.8 354.275992,52.1 C354.275992,52 354.175992,51.9 354.075992,51.7 C354.075992,51.7 354.075992,51.6 354.075992,51.6 L354.075992,51.6 C351.675992,46.4 334.075992,7 334.075992,7 C331.375992,0.8 331.375992,0.8 329.075992,0.8 L320.875992,0.8 C318.375992,0.8 318.875992,2.1 320.175992,5.1 C329.875992,26.6 341.275992,51.2 349.475992,70 C350.775992,73 353.075992,73.2 355.075992,73.2" id="Path" fill="#000000"></path>
                <path d="M145.575992,43.9 C138.175992,47.3 127.475992,52.3 118.775992,56.3 C124.175992,44.2 132.375992,25.9 133.975992,22.4 L133.975992,22.4 C133.975992,22.4 133.975992,22.3 133.975992,22.3 C134.075992,22.1 134.075992,22 134.175992,21.9 C134.575992,21.2 134.775992,20.8 134.975992,20.7 C135.175992,20.8 135.375992,21.2 135.775992,21.9 C135.775992,22 135.875992,22.1 135.975992,22.3 C135.975992,22.3 135.975992,22.4 135.975992,22.4 L135.975992,22.4 C136.975992,24.8 141.275992,34.3 145.575992,43.9 M169.875992,69 C160.175992,47.5 148.775992,22.9 140.575992,4.1 C139.275992,1.1 137.075992,0.9 134.975992,0.9 L134.975992,0.9 C132.775992,0.9 130.675992,1.1 129.375992,4.1 C121.175992,22.9 109.775992,47.5 100.075992,69 C98.7759919,72 98.3759919,73.3 100.775992,73.3 L108.975992,73.3 C109.275992,73.3 109.475992,73.3 109.675992,73.3 C110.675992,73.4 112.075992,72.7 115.775992,70.9 C115.775992,70.9 137.375992,60.8 150.475992,54.7 C153.575992,61.7 155.975992,67.1 155.975992,67.1 C158.675992,73.3 158.675992,73.3 160.975992,73.3 L169.175992,73.3 C171.575992,73.2 171.175992,71.9 169.875992,69" id="Shape" fill="#EE7203"></path>
                <path d="M35.9759919,73.2 C38.1759919,73.2 40.2759919,73 41.5759919,70 C49.7759919,51.2 61.1759919,26.6 70.8759919,5.1 C72.1759919,2.1 72.5759919,0.8 70.1759919,0.8 L61.9759919,0.8 C59.6759919,0.8 59.5759919,0.8 56.9759919,7 C56.9759919,7 39.3759919,46.4 36.9759919,51.6 L36.9759919,51.6 C36.9759919,51.6 36.9759919,51.7 36.9759919,51.7 C36.8759919,51.9 36.8759919,52 36.7759919,52.1 C36.3759919,52.8 36.1759919,53.2 35.9759919,53.3 C35.7759919,53.2 35.5759919,52.8 35.1759919,52.1 C35.1759919,52 35.0759919,51.9 34.9759919,51.7 C34.9759919,51.7 34.9759919,51.6 34.9759919,51.6 L34.9759919,51.6 C32.5759919,46.4 14.9759919,7 14.9759919,7 C12.2759919,0.8 12.2759919,0.8 9.97599191,0.8 L1.77599191,0.8 C-0.724008088,0.8 -0.224008088,2.1 1.07599191,5.1 C10.7759919,26.6 22.1759919,51.2 30.3759919,70 C31.6759919,73 33.8759919,73.2 35.9759919,73.2" id="Path" fill="#000000"></path>
                <path d="M310.975992,3.7 C310.975992,2.1 309.675992,0.8 308.075992,0.8 L301.575992,0.8 C299.975992,0.8 298.675992,2.1 298.675992,3.7 L298.675992,70.4 C298.675992,72 299.975992,73.3 301.575992,73.3 L308.175992,73.3 C309.775992,73.3 311.075992,72 311.075992,70.4 L311.075992,3.7 L310.975992,3.7 Z" id="Path" fill="#000000"></path>
                <path d="M91.3759919,3.7 C91.3759919,2.1 90.0759919,0.8 88.4759919,0.8 L81.8759919,0.8 C80.2759919,0.8 78.9759919,2.1 78.9759919,3.7 L78.9759919,70.4 C78.9759919,72 80.2759919,73.3 81.8759919,73.3 L88.4759919,73.3 C90.0759919,73.3 91.3759919,72 91.3759919,70.4 L91.3759919,3.7 Z" id="Path" fill="#000000"></path>
                <path d="M288.675992,9.9 L288.675992,3.7 C288.675992,2.1 287.375992,0.8 285.775992,0.8 L243.275992,0.8 C241.675992,0.8 240.375992,2.1 240.375992,3.7 L240.375992,9.9 C240.375992,11.5 241.675992,12.8 243.275992,12.8 L258.375992,12.8 L258.375992,70.5 C258.375992,72.1 259.675992,73.4 261.275992,73.4 L267.875992,73.4 C269.475992,73.4 270.775992,72.1 270.775992,70.5 L270.775992,12.8 L285.875992,12.8 C287.375992,12.7 288.675992,11.4 288.675992,9.9" id="Path" fill="#000000"></path>
            </g>
        </g>
    </g>
</svg>