<?xml version="1.0" encoding="UTF-8"?>
<!-- Generator: Adobe Illustrator 27.4.1, SVG Export Plug-In . SVG Version: 6.00 Build 0)  -->
<svg xmlns="http://www.w3.org/2000/svg" xmlns:xlink="http://www.w3.org/1999/xlink" version="1.1" id="Ebene_1" x="0px" y="0px" viewBox="0 0 170.08 42.52" style="enable-background:new 0 0 170.08 42.52;" xml:space="preserve">
<style type="text/css">
	.st0{fill:#1E2646;}
	.st1{clip-path:url(#SVGID_00000112632994047909620480000003158207383594164663_);fill:#1E2646;}
</style>
<g>
	<polygon class="st0" points="15.73,4.28 15.73,6.15 18.23,6.15 14.06,13.67 9.83,6.15 12.86,6.15 12.86,4.28 0.32,4.28 0.31,6.15    3.19,6.15 9.02,16.47 15.77,16.48 21.5,6.15 24.38,6.15 24.38,4.28  "></polygon>
	<g>
		<defs>
			<rect id="SVGID_1_" x="0.31" y="4.02" width="169.45" height="12.82"></rect>
		</defs>
		<clipPath id="SVGID_00000031922634645093590290000013364675553066541452_">
			<use xlink:href="#SVGID_1_" style="overflow:visible;"></use>
		</clipPath>
		<path style="clip-path:url(#SVGID_00000031922634645093590290000013364675553066541452_);fill:#1E2646;" d="M77.49,6.15l0-1.87    h11.57v1.87h-2.88v8.43h2.67c2.47,0,4.1-1.59,4.1-3.75h1.91v5.64H77.49v-1.89h2.92l0-8.43H77.49z"></path>
		<path style="clip-path:url(#SVGID_00000031922634645093590290000013364675553066541452_);fill:#1E2646;" d="M49.45,4.02    c-5.81,0-8.89,2.82-8.89,6.36c0,3.59,2.97,6.45,8.92,6.45c5.95,0,8.89-2.86,8.89-6.45C58.38,6.85,55.26,4.02,49.45,4.02     M49.39,14.9c-2.12-0.04-3.05-2.32-3.01-4.59c0.04-2.35,1.2-4.4,3.18-4.37c1.99,0.03,3.03,2.12,2.99,4.47    C52.51,12.63,51.57,14.94,49.39,14.9"></path>
		<polygon style="clip-path:url(#SVGID_00000031922634645093590290000013364675553066541452_);fill:#1E2646;" points="114.57,6.15     120.4,16.48 127.16,16.48 132.89,6.15 135.76,6.15 135.76,4.28 127.12,4.28 127.12,6.15 129.62,6.15 125.44,13.67 121.21,6.15     124.25,6.15 124.24,4.28 111.7,4.28 111.7,6.15   "></polygon>
		<path style="clip-path:url(#SVGID_00000031922634645093590290000013364675553066541452_);fill:#1E2646;" d="M159.93,4.05    c-5.78,0-8.85,2.81-8.85,6.34c0,3.58,2.96,6.43,8.89,6.43c5.93,0,8.86-2.85,8.86-6.43C168.82,6.86,165.72,4.05,159.93,4.05     M160.78,14.9c-2.12-0.04-3.05-2.32-3.01-4.59c0.04-2.35,1.2-4.4,3.18-4.37c1.99,0.03,3.03,2.12,2.99,4.47    C163.9,12.63,162.96,14.94,160.78,14.9"></path>
	</g>
	<g>
		<path class="st0" d="M36.98,32.02h4.85v1.25h-3.24v1.25h2.8v1.2h-2.8v1.35h3.4v1.26h-5.01V32.02z"></path>
		<path class="st0" d="M42.82,38.33v-1.25h1.27v1.25H42.82z"></path>
		<path class="st0" d="M49.06,38.33l-1.27-2.12h-0.97v2.12h-1.61v-6.31c0.93,0,2.04-0.02,2.77-0.02c1.26,0,2.74,0.37,2.74,2.04    c0,0.94-0.46,1.56-1.24,1.9l1.56,2.4H49.06z M46.82,34.9c0.34,0.01,0.72,0.01,1.1,0.01c0.86,0,1.09-0.41,1.09-0.83    c0-0.42-0.23-0.75-1.12-0.75c-0.39,0-0.74,0.01-1.07,0.01V34.9z"></path>
		<path class="st0" d="M51.59,38.33v-1.25h1.27v1.25H51.59z"></path>
		<path class="st0" d="M53.98,32.02c0.65-0.01,1.88-0.02,2.75-0.02c1.11,0,1.86,0.15,2.3,0.59c0.27,0.27,0.4,0.59,0.4,1    c0,0.75-0.41,1.17-1.03,1.36c0.75,0.17,1.26,0.69,1.26,1.46c0,1.63-1.49,1.93-3.07,1.93c-0.94,0-1.84,0-2.61-0.02V32.02z     M55.59,34.5h1.04c0.45,0,0.8-0.04,0.97-0.21c0.11-0.11,0.17-0.25,0.17-0.43c0-0.18-0.06-0.3-0.15-0.39    c-0.17-0.17-0.41-0.21-1.12-0.21c-0.31,0-0.6,0.01-0.91,0.02V34.5z M55.59,37.07c0.43,0.01,0.86,0.02,1.24,0.02    c0.56,0,1.13-0.07,1.13-0.68c0-0.68-0.68-0.7-1.06-0.7h-1.31V37.07z"></path>
		<path class="st0" d="M60.51,38.33v-1.25h1.27v1.25H60.51z"></path>
		<path class="st0" d="M68.86,32.02l2.2,6.31h-1.87l-0.33-1.15h-2.15l-0.32,1.15h-1.76l2.2-6.31H68.86z M67.06,35.98h1.44l-0.4-1.36    c-0.1-0.36-0.24-0.89-0.32-1.27h-0.01c-0.08,0.38-0.22,0.92-0.32,1.27L67.06,35.98z"></path>
		<path class="st0" d="M73.26,35.67c0,0.82,0.44,1.38,1.3,1.38c0.83,0,1.28-0.47,1.28-1.38v-3.66h1.52v3.75    c0,1.52-0.91,2.73-2.82,2.73c-1.94,0-2.88-1.15-2.88-2.69v-3.79h1.61V35.67z"></path>
		<path class="st0" d="M79.83,33.34h-1.71v-1.32h5.07v1.32h-1.71v4.99h-1.65V33.34z"></path>
		<path class="st0" d="M86.91,38.5c-1.97,0-3.31-1.28-3.31-3.3c0-2.01,1.39-3.34,3.35-3.34c1.97,0,3.31,1.28,3.31,3.3    C90.26,37.16,88.87,38.5,86.91,38.5z M86.93,33.3c-1.02,0-1.63,0.75-1.63,1.88c0,1.13,0.61,1.88,1.63,1.88s1.63-0.75,1.63-1.88    C88.56,34.05,87.94,33.3,86.93,33.3z"></path>
		<path class="st0" d="M98.65,38.33h-5.22V37l3.01-3.67c-0.62,0.01-1.26,0.02-1.87,0.02h-1v-1.32h4.94v1.32l-3.02,3.67    c0.59-0.01,1.18-0.02,1.66-0.02h1.5V38.33z"></path>
		<path class="st0" d="M99.8,32.02h4.85v1.25h-3.24v1.25h2.8v1.2h-2.8v1.35h3.4v1.26H99.8V32.02z"></path>
		<path class="st0" d="M109.92,38.33l-1.8-3.16c-0.18-0.31-0.46-0.9-0.62-1.29h-0.04c0.06,0.63,0.1,1.65,0.1,2.57v1.87h-1.52v-6.31    h2.13l1.67,2.92c0.18,0.31,0.46,0.9,0.62,1.29h0.04c-0.06-0.63-0.1-1.65-0.1-2.57v-1.64h1.52v6.31H109.92z"></path>
		<path class="st0" d="M114.45,33.34h-1.71v-1.32h5.07v1.32h-1.71v4.99h-1.65V33.34z"></path>
		<path class="st0" d="M122.49,38.33l-1.27-2.12h-0.97v2.12h-1.61v-6.31c0.93,0,2.04-0.02,2.77-0.02c1.26,0,2.74,0.37,2.74,2.04    c0,0.94-0.46,1.56-1.24,1.9l1.56,2.4H122.49z M120.25,34.9c0.34,0.01,0.72,0.01,1.1,0.01c0.86,0,1.09-0.41,1.09-0.83    c0-0.42-0.23-0.75-1.12-0.75c-0.39,0-0.74,0.01-1.07,0.01V34.9z"></path>
		<path class="st0" d="M126.97,35.67c0,0.82,0.44,1.38,1.3,1.38c0.83,0,1.28-0.47,1.28-1.38v-3.66h1.52v3.75    c0,1.52-0.91,2.73-2.82,2.73c-1.94,0-2.88-1.15-2.88-2.69v-3.79h1.61V35.67z"></path>
		<path class="st0" d="M132.51,32.02h2.68l0.83,2.6c0.16,0.49,0.31,1.01,0.35,1.42h0.03c0.05-0.41,0.18-0.93,0.33-1.42l0.83-2.6h2.6    v6.31h-1.61v-2.22c0-1.51,0.03-2.28,0.06-2.83h-0.06c-0.09,0.44-0.2,0.89-0.44,1.6l-1.11,3.45h-1.46l-1.11-3.45    c-0.23-0.71-0.34-1.17-0.44-1.6h-0.06c0.04,0.56,0.06,1.35,0.06,2.83v2.22h-1.52V32.02z"></path>
	</g>
</g>
</svg>
