<?xml version="1.0" standalone="no"?>
<!DOCTYPE svg PUBLIC "-//W3C//DTD SVG 20010904//EN" "http://www.w3.org/TR/2001/REC-SVG-20010904/DTD/svg10.dtd">
<svg version="1.1" id="Ebene_1" xmlns="http://www.w3.org/2000/svg" xmlns:xlink="http://www.w3.org/1999/xlink" x="0px" y="0px"
	width="284px" height="85px" viewBox="0 0 284 85" enable-background="new 0 0 284 85" xml:space="preserve">
<path d="M210.2,40.1c1.4-15.9,14.8-28.3,31-28.3c16.3,0,29.6,12.5,31,28.3h9.2c-1.5-21-18.9-37.6-40.3-37.6
	c-21.4,0-38.8,16.6-40.3,37.6H210.2z"/>
<path fill="#009FE3" d="M229.9,45.7v26.2c-10.8-4.2-18.6-14.2-19.7-26.2H201c1.4,20,17.4,36.1,37.4,37.5v-9.2V45.7H229.9z"/>
<path fill="#009FE3" d="M272.3,45.7c-1.1,12-8.9,22-19.7,26.2V45.7h-8.5v28.2v9.2c20-1.4,36.1-17.4,37.4-37.5H272.3z"/>
<path d="M30.3,40.1c-1.1-7-2.9-13.9-3.5-20.8h-0.1C25.3,26.1,23,33,21.3,40.1H8.8C6.6,28.7,4.1,17.4,1.5,6h10.1
	c1.2,8.1,3.4,15.9,4.6,23.7h0.1C18.1,22,20.4,14.1,22.1,6h11.5c1,8,2.4,15.9,3.7,23.7h0.1c1.9-7.9,4.9-15.7,7.1-23.7h9.9
	c-3.9,11.3-7.6,22.6-11.2,34H30.3z"/>
<path d="M83.9,6l-0.4,7.6c-3.1-0.2-6.2-0.3-9.3-0.3h-7.5l-0.4,6h5.8c2.9,0,5.7-0.1,8.5-0.2l-0.5,7.4H65.9l-0.4,6.2h3.4
	c4.6,0,9.2-0.2,13.8-0.4l-0.5,7.7H54.4c0.6-5.6,1.7-17.6,1.7-34H83.9z"/>
<path d="M86.4,40.1c0.8-5.5,1.4-24.2,1.4-34h19.6c5.8,0,9.9,2.1,9.9,7.9c0,4.4-2.2,7.5-6.3,8.6v0.1c4,0.5,6.7,3.6,6.7,7.8
	c0,6.1-4.6,9.6-12.2,9.6H86.4z M96.9,33.4h4.9c2.8,0,5.7-0.4,5.7-3.9c0-1.9-1.1-3.4-4-3.4h-6.2L96.9,33.4z M97.5,19.5h4.1
	c3.9,0,5.5-1.2,5.5-3.7c0-2.8-2.6-3-4.8-3h-4.5L97.5,19.5z"/>
<path d="M149,6l-0.4,7.6c-3.1-0.2-6.2-0.3-9.3-0.3h-7.5l-0.4,6h5.8c2.9,0,5.7-0.1,8.5-0.2l-0.5,7.4H131l-0.4,6.2h3.4
	c4.6,0,9.2-0.2,13.8-0.4l-0.5,7.7h-27.8c0.6-5.6,1.7-17.6,1.7-34H149z"/>
<path d="M162.6,13.2c-0.6,8.9-0.8,17.9-0.9,26.9h-10.6c1.2-10.6,1.6-20.4,1.6-34h18c2.4,0,12.2,0.3,12.2,9c0,5.4-3.2,8.3-8,9.9
	c2,5.1,4.5,10,6.6,15h-11.3c-1.8-6.5-4.2-12.7-6.6-19.1c0.8,0.2,1.7,0.3,2.5,0.3c3,0,6.5-1.1,6.5-4.6c0-3.4-3.4-3.4-5.8-3.4H162.6z"
	/>
<rect x="8.8" y="45.7" fill="#009FE3" width="172.9" height="5.7"/>
<rect x="8.8" y="78.8" width="172.9" height="1"/>
<g>
	<path d="M10.9,58.3c-0.2,2.5-0.4,5.8-0.4,7.5c0,2.3,1.2,3.2,3.4,3.2c1.5,0,3-0.6,3.4-2.3c0.2-1.1,0.5-6.8,0.5-8.4h1.7
		c-0.1,2.3-0.3,4.5-0.4,7.6c-0.1,2.4-1.2,4.3-5.3,4.3c-3.2,0-4.8-1.5-4.8-3.6c0-1.2,0.3-5.6,0.3-8.2H10.9z"/>
	<path d="M23.1,62.9L23.1,62.9c0.7-1.4,2-1.9,3.5-1.9c1.8,0,3.3,0.7,3.3,2.7c0,0.6-0.2,4.7-0.2,6.1h-1.5c0.1-1,0.3-4.1,0.3-5.6
		c0-1.5-0.9-2.1-2.3-2.1c-1.5,0-2.6,0.9-2.9,2.3c-0.3,1.5-0.3,4.5-0.4,5.4h-1.6c0.2-2.9,0.4-5.8,0.4-8.7h1.5L23.1,62.9z"/>
	<path d="M31.4,62.3l0-1.1h1.2l0.1-1.6l1.4-0.3L34,61.3h2.4l0,1.1h-2.4c-0.1,1.7-0.2,4-0.2,5.1c0,0.8,0.1,1.5,1.1,1.5
		c0.6,0,1-0.1,1.4-0.2L36,69.9c-0.5,0.1-1.1,0.2-1.6,0.2c-1.5,0-2.1-0.6-2.1-2.1c0-1,0.2-3.8,0.3-5.7H31.4z"/>
	<path d="M38.8,65.4v0.5c0,2,1.3,3.1,3.2,3.1c0.9,0,1.8-0.3,2.7-0.5l-0.2,1.3c-0.9,0.2-1.8,0.4-2.6,0.4c-3.6,0-4.5-2.2-4.5-4.3
		c0-2.7,1.5-4.7,4.3-4.7c2.3,0,3.8,1.2,3.8,3.6c0,0.2,0,0.5-0.1,0.8H38.8z M44,64.5c0-1.4-0.7-2.5-2.2-2.5c-1.6,0-2.6,1-2.9,2.5H44z
		"/>
	<path d="M48.6,62.6L48.6,62.6c0.6-1.1,1.4-1.6,2.6-1.6c0.2,0,0.5,0,0.7,0.1l0.1,1.3c-0.3-0.1-0.6-0.1-1-0.1c-1.4,0-2.2,1.1-2.4,2.4
		c-0.2,1.1-0.2,3.1-0.2,5.2h-1.5c0.1-2.5,0.3-5,0.3-8.7h1.5L48.6,62.6z"/>
	<path d="M54.9,62.9L54.9,62.9c0.7-1.4,2-1.9,3.5-1.9c1.8,0,3.3,0.7,3.3,2.7c0,0.6-0.2,4.7-0.2,6.1h-1.5c0.1-1,0.3-4.1,0.3-5.6
		c0-1.5-0.9-2.1-2.3-2.1c-1.5,0-2.6,0.9-2.9,2.3c-0.3,1.5-0.3,4.5-0.4,5.4h-1.6c0.2-2.9,0.4-5.8,0.4-8.7H55L54.9,62.9z"/>
	<path d="M65,65.4v0.5c0,2,1.3,3.1,3.2,3.1c0.9,0,1.8-0.3,2.7-0.5l-0.2,1.3c-0.9,0.2-1.8,0.4-2.6,0.4c-3.6,0-4.5-2.2-4.5-4.3
		c0-2.7,1.5-4.7,4.3-4.7c2.3,0,3.8,1.2,3.8,3.6c0,0.2,0,0.5-0.1,0.8H65z M70.2,64.5c0-1.4-0.7-2.5-2.2-2.5c-1.6,0-2.6,1-2.9,2.5
		H70.2z"/>
	<path d="M75.1,58.3c-0.1,1.6-0.2,3.2-0.3,4.7l0,0c0.7-1.4,1.9-1.9,3.6-1.9c1.8,0,3.3,0.7,3.3,2.7c0,0.6-0.2,4.7-0.2,6.1h-1.5
		c0.1-1,0.3-4.1,0.3-5.6c0-1.5-0.9-2.1-2.3-2.1c-1.5,0-2.6,0.9-2.9,2.3c-0.3,1.5-0.3,4.5-0.4,5.4H73c0.3-3.9,0.4-7.8,0.5-11.7H75.1z
		"/>
	<path d="M85.4,62.8L85.4,62.8c0.6-1.1,1.7-1.8,3-1.8c1.2,0,2.3,0.5,2.6,1.8c0.6-1.2,1.7-1.8,3-1.8c1.5,0,2.7,0.7,2.7,2.4
		c0,1-0.3,3-0.3,6.5H95c0.1-2,0.3-3.9,0.3-5.9c0-1.2-0.5-1.8-1.8-1.8c-0.5,0-1.5,0.2-2.1,1.4c-0.5,0.9-0.5,2.5-0.6,6.2h-1.5
		c0.1-2,0.3-3.9,0.3-5.9c0-1.2-0.5-1.8-1.8-1.8c-0.5,0-1.5,0.2-2.1,1.4c-0.5,0.9-0.5,2.5-0.6,6.2h-1.5c0.2-2.8,0.4-6.1,0.4-8.7h1.5
		L85.4,62.8z"/>
	<path d="M100,65.4v0.5c0,2,1.3,3.1,3.2,3.1c0.9,0,1.8-0.3,2.7-0.5l-0.2,1.3c-0.9,0.2-1.8,0.4-2.6,0.4c-3.6,0-4.5-2.2-4.5-4.3
		c0-2.7,1.5-4.7,4.3-4.7c2.3,0,3.8,1.2,3.8,3.6c0,0.2,0,0.5-0.1,0.8H100z M105.2,64.5c0-1.4-0.7-2.5-2.2-2.5c-1.6,0-2.6,1-2.9,2.5
		H105.2z"/>
	<path d="M110,62.9L110,62.9c0.7-1.4,2-1.9,3.5-1.9c1.8,0,3.3,0.7,3.3,2.7c0,0.6-0.2,4.7-0.2,6.1H115c0.1-1,0.3-4.1,0.3-5.6
		c0-1.5-0.9-2.1-2.3-2.1c-1.5,0-2.6,0.9-2.9,2.3c-0.3,1.5-0.3,4.5-0.4,5.4h-1.6c0.2-2.9,0.4-5.8,0.4-8.7h1.5L110,62.9z"/>
	<path d="M118.2,68.5c0.8,0.3,1.6,0.6,2.5,0.6c0.7,0,1.8-0.2,1.8-1.1c0-1.6-3.6-2.6-3.6-4.7c0-1.3,0.9-2.2,3-2.2
		c0.7,0,1.4,0.1,2.1,0.2l0.1,1.2c-0.6-0.2-1.2-0.4-2-0.4c-0.7,0-1.6,0.2-1.6,1c0,1.6,3.6,2.6,3.6,4.8c0,1.6-1.7,2.2-3,2.2
		c-0.9,0-1.7-0.1-2.5-0.4L118.2,68.5z"/>
	<path d="M126.4,72.4c1.1,0.3,2.2,0.6,3.3,0.6c1.5,0,2.4-0.4,2.7-1.6c0.3-1,0.2-2.2,0.3-3.2l0,0c-0.6,1.3-1.9,2-3.3,2
		c-2.4,0-3.8-1.4-3.8-3.8c0-2.2,1-5.2,5.6-5.2c1.1,0,2.2,0.2,3.3,0.3c-0.2,2-0.2,2.5-0.4,9c-0.1,2.1-0.9,3.6-4.1,3.6
		c-1.2,0-2.3-0.1-3.5-0.4L126.4,72.4z M131.2,62.2c-3.9,0-4.1,3.3-4.1,3.9c0,1.8,0.9,2.9,2.7,2.9c1.4,0,2.4-0.9,2.8-2.2
		c0.4-1.1,0.3-3.3,0.4-4.5C132.4,62.2,131.8,62.2,131.2,62.2z"/>
	<path d="M138.2,62.6L138.2,62.6c0.6-1.1,1.4-1.6,2.6-1.6c0.2,0,0.5,0,0.7,0.1l0.1,1.3c-0.3-0.1-0.6-0.1-1-0.1
		c-1.4,0-2.2,1.1-2.4,2.4c-0.2,1.1-0.2,3.1-0.2,5.2h-1.5c0.1-2.5,0.3-5,0.3-8.7h1.5L138.2,62.6z"/>
	<path d="M149.4,68.3L149.4,68.3c-0.7,1.4-2,1.8-3.4,1.8c-1.9,0-3.3-0.8-3.3-2.8c0-1.3,0.3-4,0.3-6h1.5c-0.1,1.9-0.3,3.7-0.3,5.6
		c0,1.5,0.9,2.1,2.2,2.1c1.9,0,2.8-1.1,3-2.8c0.2-1.3,0.2-3.4,0.2-4.9h1.5c-0.2,2.9-0.4,5.8-0.4,8.7h-1.4L149.4,68.3z"/>
	<path d="M153.2,73.8c0.3-4.1,0.4-8.1,0.5-12.2c1.3-0.3,2.6-0.5,4.1-0.5c2.3,0,4.3,1,4.3,4.2c0,2.6-1.3,4.9-4.1,4.9
		c-1.2,0-2.3-0.6-3-1.7h0c0,1.5-0.1,3.1-0.1,5.4H153.2z M155,65.8c0,2.1,1,3.2,2.7,3.2c2.1,0,2.9-2,2.9-3.8c0-2-1-3.1-3-3.1
		c-0.8,0-1.6,0.2-2.4,0.4C155.1,63.5,155,64.5,155,65.8z"/>
	<path d="M163.6,73.8c0.3-4.1,0.4-8.1,0.5-12.2c1.3-0.3,2.6-0.5,4.1-0.5c2.3,0,4.3,1,4.3,4.2c0,2.6-1.3,4.9-4.1,4.9
		c-1.2,0-2.3-0.6-3-1.7h0c0,1.5-0.1,3.1-0.1,5.4H163.6z M165.4,65.8c0,2.1,1,3.2,2.7,3.2c2.1,0,2.9-2,2.9-3.8c0-2-1-3.1-3-3.1
		c-0.8,0-1.6,0.2-2.4,0.4C165.5,63.5,165.4,64.5,165.4,65.8z"/>
	<path d="M175.4,65.4v0.5c0,2,1.3,3.1,3.2,3.1c0.9,0,1.8-0.3,2.7-0.5l-0.2,1.3c-0.9,0.2-1.8,0.4-2.6,0.4c-3.6,0-4.5-2.2-4.5-4.3
		c0-2.7,1.5-4.7,4.3-4.7c2.3,0,3.8,1.2,3.8,3.6c0,0.2,0,0.5-0.1,0.8H175.4z M180.6,64.5c0-1.4-0.7-2.5-2.2-2.5c-1.6,0-2.6,1-2.9,2.5
		H180.6z"/>
</g>
</svg>
