<?xml version="1.0" standalone="no"?>
<!DOCTYPE svg PUBLIC "-//W3C//DTD SVG 20010904//EN" "http://www.w3.org/TR/2001/REC-SVG-20010904/DTD/svg10.dtd">
<svg width="280px" height="84px" viewBox="0 0 280 84" version="1.1" xmlns="http://www.w3.org/2000/svg" xmlns:xlink="http://www.w3.org/1999/xlink">
    <g id="Page-1" stroke="none" stroke-width="1" fill="none" fill-rule="evenodd">
        <g id="Systeme" transform="translate(229.682897, 68.730000)" fill="#1574C4" fill-rule="nonzero">
            <path d="M48.3637625,8.50854654 C48.3637625,10.3460398 48.0690959,11.4455198 46.4944293,11.4455198 C44.9197626,11.4455198 44.6237626,10.3460398 44.6237626,8.50854654 L48.3637625,8.50854654 Z M44.6237626,7.72157323 L44.6237626,7.08146658 C44.6237626,5.93302661 44.9357626,4.40750665 46.4944293,4.40750665 C47.7250959,4.40750665 48.3317625,5.19499996 48.3144292,6.3106266 L49.3477625,6.3106266 C49.2330959,4.30958665 48.1504292,3.62 46.4944293,3.62 C45.0664293,3.62 43.6397627,4.19395999 43.6397627,6.70385326 L43.6397627,8.73823987 C43.6397627,11.1335465 44.6397627,12.2325065 46.4944293,12.2325065 C49.3477625,12.2325065 49.3477625,10.1819865 49.3477625,7.72157323 L44.6237626,7.72157323" id="e" transform="translate(46.493763, 7.926253) scale(1, -1) translate(-46.493763, -7.926253) "></path>
            <path d="M33.8797629,3.62 L32.8944296,3.62 L32.8944296,11.9205198 L33.7824296,11.9205198 L33.7824296,10.8877065 L33.8144296,10.8877065 C34.2077629,11.5601065 34.8637629,12.0684398 35.7824295,12.0684398 C36.6357628,12.0684398 37.3904295,11.5923998 37.6704295,10.7720798 C38.0797628,11.5923998 38.7837628,12.0684398 39.7037628,12.0684398 C41.0810961,12.0684398 41.8024294,11.1168798 41.8517627,9.78874651 L41.8517627,3.62 L40.8677627,3.62 L40.8677627,9.54187985 C40.8517627,10.3621865 40.5570961,11.2814531 39.5890961,11.2814531 C38.3410961,11.2814531 37.8664295,10.0340665 37.8664295,8.9517732 L37.8664295,3.62 L36.8824295,3.62 L36.8824295,9.54187985 C36.8650962,10.3621865 36.5690962,11.2814531 35.6024295,11.2814531 C34.3557629,11.2814531 33.8797629,10.0340665 33.8797629,8.9517732 L33.8797629,3.62" id="m" transform="translate(37.373096, 7.844220) scale(1, -1) translate(-37.373096, -7.844220) "></path>
            <path d="M30.139763,8.50854654 C30.139763,10.3460398 29.8450963,11.4455198 28.2704297,11.4455198 C26.6957631,11.4455198 26.3997631,10.3460398 26.3997631,8.50854654 L30.139763,8.50854654 Z M26.3997631,7.72157323 L26.3997631,7.08146658 C26.3997631,5.93302661 26.7117631,4.40750665 28.2704297,4.40750665 C29.5010963,4.40750665 30.107763,5.19499996 30.091763,6.3106266 L31.123763,6.3106266 C31.0090963,4.30958665 29.9264297,3.62 28.2704297,3.62 C26.8424297,3.62 25.4157631,4.19395999 25.4157631,6.70385326 L25.4157631,8.73823987 C25.4157631,11.1335465 26.4157631,12.2325065 28.2704297,12.2325065 C31.123763,12.2325065 31.123763,10.1819865 31.123763,7.72157323 L26.3997631,7.72157323" id="e" transform="translate(28.269763, 7.926253) scale(1, -1) translate(-28.269763, -7.926253) "></path>
            <path d="M20.3304299,9.17969315 L20.3304299,9.96718646 L21.6597632,9.96718646 L21.6597632,11.6734397 L22.6437632,12.1000131 L22.6437632,9.96718646 L24.3170965,9.96718646 L24.3170965,9.17969315 L22.6437632,9.17969315 L22.6437632,3.86510661 C22.6437632,2.76562664 22.7584298,2.50311998 23.5464298,2.50311998 C23.8744298,2.50311998 24.1037631,2.51926664 24.3170965,2.55259998 L24.3170965,1.69896 C24.0210965,1.66666667 23.6930965,1.65 23.3824298,1.65 C22.0530965,1.65 21.6597632,2.24062665 21.6597632,3.25781329 L21.6597632,9.17969315 L20.3304299,9.17969315" id="t" transform="translate(22.323763, 6.875007) scale(1, -1) translate(-22.323763, -6.875007) "></path>
            <path d="M16.88643,12.2325065 C15.09843,12.2325065 14.3930967,11.3627065 14.4090967,9.60750652 L15.4090967,9.60750652 C15.4090967,10.7397998 15.6717634,11.4944798 16.9357633,11.4944798 C17.8877633,11.4944798 18.3450966,10.9528132 18.3450966,10.0340665 C18.3450966,7.86895989 14.6224301,8.42677321 14.6224301,5.68718661 C14.6224301,4.16166665 15.6717634,3.62 17.1157633,3.62 C18.7557633,3.62 19.2824299,4.75125331 19.2824299,6.01531994 L18.3130966,6.01531994 C18.2650966,4.96479997 17.9850966,4.40698665 16.87043,4.40698665 C16.1650967,4.40698665 15.60643,4.86687997 15.60643,5.60489328 C15.60643,7.6720799 19.3317633,7.11426658 19.3317633,9.88614651 C19.3317633,11.4449998 18.4290966,12.2325065 16.88643,12.2325065" id="s"></path>
            <polyline id="y" transform="translate(10.497097, 9.499114) scale(1, -1) translate(-10.497097, -9.499114) " points="10.0957635 6.90770742 7.47043023 15.2082272 8.53709687 15.2082272 10.5557635 8.41656072 10.5877635 8.41656072 12.5397634 15.2082272 13.5237634 15.2082272 10.0957635 3.79 9.12643019 3.79 10.0957635 6.90770742"></polyline>
            <path d="M5.30509695,9.07134644 C5.27309695,10.5312931 4.91176363,11.4171597 3.30376367,11.4171597 C2.02509703,11.4171597 1.22109705,10.9744931 1.22109705,9.58019976 C1.22109705,7.8249998 2.1077637,7.77551981 3.45176366,6.80779983 C4.91176363,5.75779986 6.40509692,5.44582653 6.40509692,3.14894659 C6.40509692,1.03333331 5.32243028,1.42108547e-14 3.25576367,1.42108547e-14 C0.942430392,1.42108547e-14 -0.0922362486,1.24686664 0.0064304156,3.55937324 L1.09043039,3.55937324 C1.09043039,2.24686661 1.18776372,0.885413311 3.30376367,0.885413311 C4.6824303,0.885413311 5.35443028,1.62342663 5.35443028,2.98489326 C5.35443028,4.59322655 4.28776364,5.05207987 2.58243035,6.10207985 C0.285097075,7.51301315 0.186430411,8.21822646 0.171763745,9.39946643 C0.154430412,11.450493 1.45043038,12.3031597 3.38643033,12.3031597 C5.84643027,12.3031597 6.37176359,10.7770264 6.37176359,9.07134644 L5.30509695,9.07134644" id="S" transform="translate(3.202548, 6.151580) scale(1, -1) translate(-3.202548, -6.151580) "></path>
        </g>
        <g id="Medizin" transform="translate(182.597329, 68.955733)" fill="#1574C4" fill-rule="nonzero">
            <path d="M40.891999,3.39426663 L39.907999,3.39426663 L39.907999,11.6786398 L40.891999,11.6786398 L40.891999,10.6619731 L40.923999,10.6619731 C41.4013323,11.3505198 42.0399989,11.8427064 42.9253323,11.8427064 C44.9773322,11.8427064 45.1906655,10.3171865 45.1906655,9.23489315 L45.1906655,3.39426663 L44.2053322,3.39426663 L44.2053322,9.18541315 C44.2053322,10.1525998 43.8279989,11.0557198 42.6813323,11.0557198 C41.7946656,11.0557198 40.891999,10.4484398 40.891999,8.5947865 L40.891999,3.39426663" id="n" transform="translate(42.549332, 7.618487) scale(1, -1) translate(-42.549332, -7.618487) "></path>
            <path d="M36.5946658,0 L36.5946658,8.28437313 L37.5799991,8.28437313 L37.5799991,0 L36.5946658,0 Z M36.4799991,10.5973331 L36.4799991,11.8442664 L37.6946657,11.8442664 L37.6946657,10.5973331 L36.4799991,10.5973331" id="i" transform="translate(37.087332, 5.922133) scale(1, -1) translate(-37.087332, -5.922133) "></path>
            <polyline id="z" transform="translate(32.526666, 7.536453) scale(1, -1) translate(-32.526666, -7.536453) " points="30.2626659 4.19843994 33.7079992 10.8911464 30.4599992 10.8911464 30.4599992 11.6786398 34.7079991 11.6786398 34.7079991 10.8583331 31.3466659 4.18177327 34.7906658 4.18177327 34.7906658 3.39426663 30.2626659 3.39426663 30.2626659 4.19843994"></polyline>
            <path d="M27.490666,0 L27.490666,8.28437313 L28.4759993,8.28437313 L28.4759993,0 L27.490666,0 Z M27.3759993,10.5973331 L27.3759993,11.8442664 L28.590666,11.8442664 L28.590666,10.5973331 L27.3759993,10.5973331" id="i" transform="translate(27.983333, 5.922133) scale(1, -1) translate(-27.983333, -5.922133) "></path>
            <path d="M24.1786661,3.72397324 L24.1786661,5.2005332 C24.1786661,5.69271986 24.1786661,7.98958647 22.3239994,7.98958647 C20.5533328,7.98958647 20.5533328,6.38125317 20.5533328,4.44583989 C20.5533328,1.36198663 21.2919995,0.95157331 22.3573328,0.95157331 C23.2933328,0.95157331 24.1786661,1.70625329 24.1786661,3.72397324 Z M24.2279994,1.3781333 L24.1959994,1.36198663 C23.6866661,0.573973319 23.0626661,0.164066663 22.0946661,0.164066663 C19.6999995,0.164066663 19.5693328,2.54271994 19.5693328,4.47865322 C19.5693328,6.07031985 19.5693328,8.77657311 22.1119994,8.77657311 C22.8666661,8.77657311 23.6039994,8.43230646 24.1133327,7.79219981 L24.1453327,7.77605314 L24.1453327,12.1723997 L25.130666,12.1723997 L25.130666,1.96875995 C25.130666,1.14843997 25.178666,0.607306651 25.2279994,0.328133325 L24.2759994,0.328133325 L24.2279994,1.3781333" id="d" transform="translate(22.398666, 6.168233) scale(1, -1) translate(-22.398666, -6.168233) "></path>
            <path d="M17.1079996,8.28281317 C17.1079996,10.1203065 16.8133329,11.2197864 15.2386663,11.2197864 C13.6639997,11.2197864 13.3679997,10.1203065 13.3679997,8.28281317 L17.1079996,8.28281317 Z M13.3679997,7.49583986 L13.3679997,6.85573321 C13.3679997,5.70729323 13.6799997,4.18177327 15.2386663,4.18177327 C16.4693329,4.18177327 17.0759996,4.96926659 17.0599996,6.08489322 L18.0919995,6.08489322 C17.9786662,4.08385327 16.8959996,3.39426663 15.2386663,3.39426663 C13.8119997,3.39426663 12.3839997,3.96822661 12.3839997,6.47811988 L12.3839997,8.5125065 C12.3839997,10.9078131 13.3839997,12.0067731 15.2386663,12.0067731 C18.0919995,12.0067731 18.0919995,9.95625313 18.0919995,7.49583986 L13.3679997,7.49583986" id="e" transform="translate(15.238000, 7.700520) scale(1, -1) translate(-15.238000, -7.700520) "></path>
            <polyline id="M" transform="translate(5.216000, 5.922133) scale(1, -1) translate(-5.216000, -5.922133) " points="0 1.42108547e-14 0 11.8442664 1.78799996 11.8442664 5.2813332 1.14843997 5.31466653 1.14843997 8.75999978 11.8442664 10.4319997 11.8442664 10.4319997 1.42108547e-14 9.38266643 1.42108547e-14 9.38266643 10.8275997 9.35066643 10.8275997 5.87199985 1.42108547e-14 4.65866655 1.42108547e-14 1.08266664 10.8275997 1.04933331 10.8275997 1.04933331 1.42108547e-14 3.03164893e-14 1.42108547e-14"></polyline>
        </g>
        <g id="Zimmer" transform="translate(133.535997, 68.955733)" fill="#1574C4" fill-rule="nonzero">
            <path d="M41.7466656,10.5630131 L41.7786656,10.5630131 C42.1893323,11.3505198 43.0573323,11.8427064 44.0586656,11.8427064 L44.0586656,10.8421864 C42.6639989,10.9567731 41.7466656,10.1203065 41.7466656,8.72603983 L41.7466656,3.39426663 L40.7613323,3.39426663 L40.7613323,11.6786398 L41.7466656,11.6786398 L41.7466656,10.5630131" id="r" transform="translate(42.409999, 7.618487) scale(1, -1) translate(-42.409999, -7.618487) "></path>
            <path d="M37.9239991,8.28281317 C37.9239991,10.1203065 37.6293324,11.2197864 36.0533324,11.2197864 C34.4799991,11.2197864 34.1839991,10.1203065 34.1839991,8.28281317 L37.9239991,8.28281317 Z M34.1839991,7.49583986 L34.1839991,6.85573321 C34.1839991,5.70729323 34.4946658,4.18177327 36.0533324,4.18177327 C37.2839991,4.18177327 37.8906657,4.96926659 37.8746657,6.08489322 L38.907999,6.08489322 C38.7933324,4.08385327 37.7106657,3.39426663 36.0533324,3.39426663 C34.6266658,3.39426663 33.1999992,3.96822661 33.1999992,6.47811988 L33.1999992,8.5125065 C33.1999992,10.9078131 34.2013325,12.0067731 36.0533324,12.0067731 C38.907999,12.0067731 38.907999,9.95625313 38.907999,7.49583986 L34.1839991,7.49583986" id="e" transform="translate(36.053999, 7.700520) scale(1, -1) translate(-36.053999, -7.700520) "></path>
            <path d="M23.4399994,3.39426663 L22.4559994,3.39426663 L22.4559994,11.6947864 L23.3413327,11.6947864 L23.3413327,10.6619731 L23.3746661,10.6619731 C23.7679994,11.3343731 24.4239994,11.8427064 25.342666,11.8427064 C26.1959993,11.8427064 26.950666,11.3666664 27.2293327,10.5463464 C27.6399993,11.3666664 28.3453326,11.8427064 29.2626659,11.8427064 C30.6413326,11.8427064 31.3639992,10.8911464 31.4133325,9.56301314 L31.4133325,3.39426663 L30.4293326,3.39426663 L30.4293326,9.31614648 C30.4119992,10.1364531 30.1159992,11.0557198 29.1493326,11.0557198 C27.9013326,11.0557198 27.426666,9.80833313 27.426666,8.72603983 L27.426666,3.39426663 L26.4413327,3.39426663 L26.4413327,9.31614648 C26.4253327,10.1364531 26.1293327,11.0557198 25.162666,11.0557198 C23.9159994,11.0557198 23.4399994,9.80833313 23.4399994,8.72603983 L23.4399994,3.39426663" id="m" transform="translate(26.934666, 7.618487) scale(1, -1) translate(-26.934666, -7.618487) "></path>
            <path d="M12.4986664,3.39426663 L11.5146664,3.39426663 L11.5146664,11.6947864 L12.401333,11.6947864 L12.401333,10.6619731 L12.433333,10.6619731 C12.8266663,11.3343731 13.4826663,11.8427064 14.401333,11.8427064 C15.2546663,11.8427064 16.0093329,11.3666664 16.2879996,10.5463464 C16.6986662,11.3666664 17.4039996,11.8427064 18.3226662,11.8427064 C19.6999995,11.8427064 20.4226662,10.8911464 20.4719995,9.56301314 L20.4719995,3.39426663 L19.4866662,3.39426663 L19.4866662,9.31614648 C19.4706662,10.1364531 19.1759995,11.0557198 18.2079995,11.0557198 C16.9599996,11.0557198 16.4853329,9.80833313 16.4853329,8.72603983 L16.4853329,3.39426663 L15.5013329,3.39426663 L15.5013329,9.31614648 C15.4853329,10.1364531 15.189333,11.0557198 14.221333,11.0557198 C12.9746663,11.0557198 12.4986664,9.80833313 12.4986664,8.72603983 L12.4986664,3.39426663" id="m" transform="translate(15.993333, 7.618487) scale(1, -1) translate(-15.993333, -7.618487) "></path>
            <path d="M8.21733313,0.00426662556 L8.21733313,8.28863975 L9.20266644,8.28863975 L9.20266644,0.00426662556 L8.21733313,0.00426662556 Z M8.10266646,10.6015997 L8.10266646,11.848533 L9.3173331,11.848533 L9.3173331,10.6015997 L8.10266646,10.6015997" id="i" transform="translate(8.710000, 5.926400) scale(1, -1) translate(-8.710000, -5.926400) "></path>
            <polyline id="Z" transform="translate(3.248000, 5.922133) scale(1, -1) translate(-3.248000, -5.922133) " points="6.44666651 11.8442664 6.44666651 10.6797331 1.08266664 0.885933311 6.49599984 0.885933311 6.49599984 0 0 0 0 1.16458664 5.4133332 10.9583997 0.327999992 10.9583997 0.327999992 11.8442664 6.44666651 11.8442664"></polyline>
        </g>
        <g id="InSports" transform="translate(0.000000, 0.000000)" fill="#1574C4" fill-rule="nonzero">
            <path d="M258.759994,33.3151996 C258.675994,31.3547997 258.759994,29.4813331 259.355994,28.1173331 C260.037327,26.7547998 261.315993,26.0725331 263.701327,26.0725331 C266.08666,26.0725331 268.131993,27.6069331 268.131993,30.5026664 C268.131993,39.6198661 247.00266,37.5750662 247.00266,51.2922659 C247.00266,60.5798656 256.203994,63.3911989 263.95866,63.3911989 C272.135993,63.3911989 279.549326,59.471999 278.86666,50.1850659 L267.109327,50.1850659 C267.109327,53.1667991 266.769327,54.9563991 265.917327,55.7230657 C265.149327,56.4897324 264.127993,56.66 262.849327,56.66 C260.207993,56.66 258.759994,54.9563991 258.759994,52.0594658 C258.759994,45.2433327 279.89066,45.5839993 279.89066,31.7807997 C279.89066,24.2834665 273.75466,18.66 263.78666,18.66 C253.30666,18.66 246.319994,21.3017333 247.00266,33.3151996 L258.759994,33.3151996" id="s" transform="translate(263.423685, 41.025599) scale(1, -1) translate(-263.423685, -41.025599) "></path>
            <path d="M220.213328,52.0318655 L225.070661,52.0318655 L225.070661,57.9965321 L237.082661,63.3642653 L237.082661,51.9981322 L243.047994,52.0318655 L243.047994,41.2965325 L236.317327,41.2631992 L236.317327,20.7626663 C237.082661,17.5257331 236.998661,15.3954665 240.917327,15.3954665 C241.685327,15.3954665 242.451994,15.3954665 243.047994,15.5651998 L243.047994,8.15333331 C241.427994,7.98239998 239.725327,7.72666666 236.827994,7.72666666 C226.433328,7.72666666 225.070661,14.6282665 225.070661,17.2699998 L225.070661,41.2965325 L220.213328,41.2965325 L220.213328,52.0318655" id="t" transform="translate(231.630661, 35.545466) scale(1, -1) translate(-231.630661, -35.545466) "></path>
            <path d="M204.438662,61.6865323 L204.438662,56.1479991 L204.609328,56.1479991 C206.823995,61.0901323 210.913328,62.5385322 215.770661,62.5385322 L215.770661,51.8031992 C205.205328,52.4849325 205.034662,46.3499993 205.034662,42.0901327 L205.034662,18.66 L193.021329,18.66 L193.021329,61.6865323 L204.438662,61.6865323" id="r" transform="translate(204.395995, 40.599266) scale(1, -1) translate(-204.395995, -40.599266) "></path>
            <path d="M173.186662,42.2610661 C173.186662,51.2074659 172.759996,55.7230657 167.647996,55.7230657 C162.535996,55.7230657 162.109329,51.2074659 162.109329,42.2610661 C162.109329,29.1402664 163.217329,26.3282665 167.647996,26.3282665 C172.078662,26.3282665 173.186662,29.1402664 173.186662,42.2610661 Z M150.095996,41.5798661 C150.095996,53.3375991 151.799996,63.3911989 167.647996,63.3911989 C183.494662,63.3911989 185.198662,53.3375991 185.198662,41.5798661 C185.198662,28.1173331 183.154662,18.66 167.647996,18.66 C152.14133,18.66 150.095996,28.1173331 150.095996,41.5798661" id="o" transform="translate(167.647329, 41.025599) scale(1, -1) translate(-167.647329, -41.025599) "></path>
            <path d="M130.503152,59.0459057 C130.503152,67.6516388 130.589063,73.6163053 125.391197,73.6163053 C120.449997,73.6163053 120.534305,67.6516388 120.534305,59.0459057 C120.534305,48.2256393 121.30213,43.709506 125.391197,43.709506 C129.73693,43.709506 130.503152,48.2256393 130.503152,59.0459057 L130.503152,59.0459057 Z M119.937997,80.1761718 L119.937997,75.4048386 L120.108397,75.4048386 C122.323997,79.5797718 125.646397,81.0281718 130.247863,81.0281718 C142.687996,81.0281718 142.26133,67.2251055 142.26133,58.365239 C142.26133,49.6740392 142.602663,36.2969729 130.503063,36.2969729 C126.157864,36.2969729 123.175997,37.5751062 120.704664,41.2391061 L120.534397,41.2391061 L120.534397,18.66 L108.521331,18.66 L108.521331,80.1761718 L119.937997,80.1761718" id="p" transform="translate(125.392209, 49.844086) scale(1, -1) translate(-125.392209, -49.844086) "></path>
            <path d="M79.2145314,3.55271368e-15 C63.2817318,3.55271368e-15 60.2994652,9.37239977 60.9817318,20.0229328 L73.8469315,20.0229328 C73.8469315,14.1431996 74.1026648,9.20199977 81.1745313,9.20199977 C85.5193312,9.20199977 87.6494645,12.012933 87.6494645,16.1879996 C87.6494645,27.2645327 61.7478651,27.9467993 61.7478651,46.2650655 C61.7478651,55.8926653 66.349465,63.5614651 82.0265313,63.5614651 C94.5515976,63.5614651 100.770797,57.9374652 99.9187975,45.0718655 L87.3937311,45.0718655 C87.3937311,49.6734654 86.6275978,54.3587986 81.4302646,54.3587986 C77.2551981,54.3587986 74.7843981,52.0587987 74.7843981,47.7978655 C74.7843981,36.1254658 100.685997,37.1483991 100.685997,17.8071996 C100.685997,1.87493329 89.0130644,3.55271368e-15 79.2145314,3.55271368e-15" id="S" transform="translate(80.789436, 31.780733) scale(1, -1) translate(-80.789436, -31.780733) "></path>
            <path d="M31.8635992,57.3417324 L32.0343992,57.3417324 C33.2270658,59.3010657 34.6754658,60.579199 36.2947991,61.3458656 C37.9983991,62.1985322 39.958399,62.5385322 42.1739989,62.5385322 C47.8817321,62.5385322 52.9087987,59.130799 52.9087987,53.1661325 L52.9087987,18.66 L40.8958656,18.66 L40.8958656,48.3094659 C40.8958656,52.1442658 40.213599,55.1266658 36.3797324,55.1266658 C32.5453325,55.1266658 31.8635992,52.1442658 31.8635992,48.3094659 L31.8635992,18.66 L19.8499995,18.66 L19.8499995,61.6865323 L31.8635992,61.6865323 L31.8635992,57.3417324" id="n" transform="translate(36.379399, 40.599266) scale(1, -1) translate(-36.379399, -40.599266) "></path>
            <path d="M12.0135464,7.3 L-3.55271368e-15,7.3 L-3.55271368e-15,44.9661324 L12.0135464,50.3275989 L12.0135464,7.3 Z M12.0135464,62.5119986 L12.0130264,57.1431988 L-3.55271368e-15,51.7921322 L-3.55271368e-15,62.5119986 L12.0135464,62.5119986" id="i" transform="translate(6.006773, 34.905999) scale(1, -1) translate(-6.006773, -34.905999) "></path>
        </g>
    </g>
</svg>