<?xml version="1.0" encoding="UTF-8" standalone="no"?>
<!DOCTYPE svg PUBLIC "-//W3C//DTD SVG 1.1//EN" "http://www.w3.org/Graphics/SVG/1.1/DTD/svg11.dtd">
<svg version="1.1" xmlns="http://www.w3.org/2000/svg" xmlns:xlink="http://www.w3.org/1999/xlink" x="0px" y="0px" width="751px"
	 height="357.999px" viewBox="0 0 751 357.999" enable-background="new 0 0 751 357.999" xml:space="preserve">
<g id="Ebene_1">
</g>
<g id="BHV_Schriftzug">
</g>
<g id="Goldener_Hockeyspieler">
</g>
<g id="Eichenlaub">
	<g>
		<path fill-rule="evenodd" clip-rule="evenodd" fill="#2B579E" d="M139.521,347.978c12.004-54.882,23.149-109.773,34.293-164.643
			c13.717,0,27.452,0,41.161,0c-5.998,27.865-11.575,55.734-16.712,83.183c13.709-0.431,27.435-0.431,41.156-0.431
			c6.002-27.882,11.14-55.313,16.716-82.752c14.152,0,27.869,0,41.583-0.426c-8.993,45.864-21.863,104.184-28.292,136.769
			c-1.286,5.572-3.429,13.284,2.138,12.862c5.155,0,6.438-4.72,8.576-15.009c1.287,0,3.008,0,4.716,0
			c-3.859,21.428-5.568,30.017-23.145,30.446c-9.441,0-8.58,0-16.291,0c-7.719,0-12.439-1.721-15.008-4.294
			c-5.146-4.725-4.716-12.865-1.717-28.295c-13.291,0-27.86,0.431-41.165,0.431c-0.856,0.86-0.856,0.86-6.854,31.729
			C166.955,347.978,153.238,347.978,139.521,347.978z"/>
		<path fill-rule="evenodd" clip-rule="evenodd" fill="#E2C658" d="M336.741,347.117c-17.146,0-29.586-20.585-24.444-45.441
			c4.716-21.449,6.858-31.742,12.014-57.451c-3.864,0-10.723,0.425-17.582,0.843c-3.003,0-6.006,1.726-6.433,4.299
			c-6.002,26.152-10.292,45.438-15.438,68.165c-1.708,0-3.429,0-4.716,0c6.437-30.868,13.718-60.876,19.721-91.753
			c1.721-9.432,10.288-14.579,20.158-14.579c9.858-0.426,18-0.426,27.866-0.426c-6.003,29.587-12.87,57.887-18.008,87.042
			c-1.282,7.28-2.564,13.709,4.294,15.431c8.142,1.712,15.856-2.151,17.573-10.723c6.867-30.868,12.865-60.868,19.294-91.75
			c8.141,0,14.578-0.434,22.298,0c14.569,0,21.007,9.015,18.003,24.015c-1.713,8.571-14.144,69.887-18.003,84.465
			c-6.012,23.57-33.872,27.435-42.887,27.864C343.595,347.117,341.449,347.117,336.741,347.117z"/>
		<path fill-rule="evenodd" clip-rule="evenodd" fill="#2B579E" d="M130.945,257.938c17.146-11.145,23.575-28.295,21.432-42.013
			c-3.434-23.158-25.296-32.16-46.298-32.59H82.491H63.197c-8.571,0-21.862,5.576-23.571,13.296
			c-7.293,34.728-15.864,81.461-25.3,121.762c-0.241,1.721-0.469,3.27-0.628,4.716c-0.086,0.877-0.181,1.755-0.198,2.595
			c0,0.125-0.034,0.279-0.034,0.409v1.708c0.021,0.555,0.128,1.045,0.18,1.578c0.052,0.654,0.112,1.3,0.207,1.91
			c0.198,1.266,0.499,2.462,0.86,3.606c0.095,0.31,0.156,0.649,0.263,0.951c0.525,1.445,1.162,2.784,1.923,4.01
			c0.138,0.22,0.31,0.396,0.452,0.61c0.632,0.926,1.312,1.786,2.07,2.561c0.353,0.362,0.74,0.681,1.11,1.003
			c0.62,0.533,1.248,1.021,1.928,1.454c0.481,0.31,0.955,0.599,1.463,0.865c0.667,0.344,1.373,0.624,2.091,0.886
			c0.529,0.19,1.024,0.396,1.562,0.534c1.261,0.327,2.561,0.546,3.898,0.603c16.286,0,21.445,0,40.305-0.414
			c1.984,0,4.376-0.103,6.851-0.353c17.435-1.643,44.47-9.784,58.006-34.611c0.874-1.566,1.691-3.21,2.453-4.923
			C147.666,287.523,142.52,266.087,130.945,257.938z M53.774,317.531c7.284-34.302,14.569-69.447,21.862-103.758
			c3.885,0,7.766,0.103,11.652,0.129c2.5,0.082,5.056,0.133,7.633-0.129c9.01,1.291,14.151,6.428,15.864,15.443
			c0.542,13.111-3.769,23.55-12.09,29.961c-0.043,0.034-0.095,0.06-0.138,0.09c-1.51,1.157-3.18,2.147-4.953,3.029
			c-0.542,0.271-1.131,0.482-1.7,0.719c-1.256,0.542-2.573,1.024-3.949,1.429c-1.334,0.379-2.729,0.68-4.174,0.93
			c-1.411,0.258-2.779,0.589-4.294,0.714c0.654,0.129,1.299,0.306,1.945,0.482c0.339,0.115,0.654,0.232,1.059,0.361
			c4.221,1.29,8.321,3.347,11.824,6.015c0.249,0.194,0.507,0.379,0.749,0.581c0.228,0.185,0.439,0.379,0.662,0.572
			c5.771,5.043,9.544,11.975,8.641,19.871c-0.009,0.055,0,0.111-0.009,0.172c-0.104,0.787-0.279,1.592-0.474,2.396
			c-0.06,0.254-0.09,0.499-0.159,0.753c-0.28,1.016-0.633,2.048-1.072,3.094c-0.641,1.597-1.411,2.974-2.194,4.299
			c-0.576,0.929-1.179,1.79-1.811,2.599c-0.16,0.198-0.315,0.404-0.478,0.61c-4.896,5.869-11.226,8.258-15.679,9.2
			c-2.135,0.438-3.847,0.869-4.708,0.869C69.212,317.531,61.484,317.531,53.774,317.531z"/>
	</g>
	<path fill-rule="evenodd" clip-rule="evenodd" fill="#E3C758" stroke="#2F58A5" stroke-width="4.7841" d="M471.475,196.334
		c11.602,0,20.89-9.471,20.89-21.082c0-11.433-9.288-20.895-20.89-20.895c-11.608,0-20.895,9.462-20.895,20.895
		C450.581,186.863,459.867,196.334,471.475,196.334z"/>
	<path fill-rule="evenodd" clip-rule="evenodd" fill="#E3C758" stroke="#2F58A5" stroke-width="4.7841" d="M575.785,137.579
		c-41.256-58.041,5.702-102.158,55.717-38.577c35.356-16.245,56.272-6.598,60.024,61.806c25.181,0.71,39.1,16.071,23.929,67.871
		c31.802,14.647,12.86,45.008-2.312,60.911c-15.016,15.877-22.331,31.226-21.096,59.81c-16.966-6.411-22.861-12.857-31.613-27.314
		c-26.957-15.18-61.074-31.789-40.541-59.642c-25.547-16.08-52.684-26.622-19.646-49.483
		C554.709,193.3,531.31,173.303,575.785,137.579z"/>
	<path fill-rule="evenodd" clip-rule="evenodd" fill="#2F58A5" d="M596.132,147.051c-53.036-65.364-7.134-94.486,30.903-32.682
		c38.398-24.109,56.611-6.252,56.436,62.327c26.445-11.781,42.356,9.642,11.441,62.171c34.643-2.686,27.689,22.853,5.521,47.318
		c-8.025,8.761-13.911,15.886-15.89,23.214c-3.197-18.924,4.831-35.541,17.336-51.444c-11.067,2.869-15.732,9.655-21.79,18.39
		c-3.584-23.726,1.79-57.142,8.941-76.616c-12.525,8.228-15.74,24.483-20.551,42.348c-9.113-43.949-36.26-62.52-21.075-95.55
		c-6.419,4.101-7.521,6.059-9.811,15.174c-13.218-21.613-26.814-39.474-43.248-54.3c4.127,10.002,19.832,29.823,35.551,61.09
		c-3.916-0.727-20.895-5.538-27.15-1.611c15.18,11.613,36.25,11.793,53.406,70.189c-16.596-11.084-26.437-15.171-37.507-13.751
		c19.302,9.655,47.511,27.335,49.645,64.117c-13.028-11.777-18.562-11.777-29.456-11.089c21.44,11.799,35.541,24.673,34.818,42.869
		c-5.362-9.285-8.933-12.672-19.484-16.966c-28.019-11.411-44.447-25.524-13.183-41.79c-32.693-14.285-61.454-28.373-22.879-52.322
		C546.305,183.309,548.087,156.87,596.132,147.051z"/>

		<path fill-rule="evenodd" clip-rule="evenodd" fill="#E3C758" stroke="#2F58A5" stroke-width="4.7841" stroke-linecap="round" stroke-linejoin="round" d="
		M607.398,177.771c0,0,79.498-124.823,111.452-173.596c7.451-2.489,17.503,3.436,17.503,11.248
		c-35.864,58.31-109.137,173.789-109.137,173.789l-51.265,78.398c-26.428,41.265-68.397,32.155-87.858,15.017
		c-21.975-19.471-6.799-48.596,22.671-27.697c18.046,12.681,45.894-1.054,54.482-15.356L607.398,177.771z"/>
</g>
</svg>
