<?xml version="1.0" encoding="UTF-8" standalone="no"?>
<!DOCTYPE svg PUBLIC "-//W3C//DTD SVG 1.1//EN" "http://www.w3.org/Graphics/SVG/1.1/DTD/svg11.dtd">
<svg version="1.1" xmlns="http://www.w3.org/2000/svg" xmlns:xlink="http://www.w3.org/1999/xlink" x="0px" y="0px" width="354px"
	 height="352.999px" viewBox="0 0 354 352.999" enable-background="new 0 0 354 352.999" xml:space="preserve">
<g id="Ebene_1">
</g>
<g id="BHV_Schriftzug">
</g>
<g id="Goldener_Hockeyspieler">
</g>
<g id="Eichenlaub">
	<path fill="#244F97" stroke="#244F97" stroke-width="1.4431" d="M348.898,176.547c0,95.117-77.125,172.238-172.239,172.238
		c-95.121,0-172.231-77.121-172.231-172.238c0-95.12,77.11-172.231,172.231-172.231C271.772,4.316,348.898,81.427,348.898,176.547z"
		/>
	<path fill-rule="evenodd" clip-rule="evenodd" fill="#EACD76" stroke="#206FAB" stroke-width="3.2047" d="M81.316,187.755
		c7.776,0,13.996-6.34,13.996-14.118c0-7.662-6.22-13.997-13.996-13.997c-7.773,0-13.998,6.334-13.998,13.997
		C67.318,181.415,73.543,187.755,81.316,187.755z"/>
	<path fill-rule="evenodd" clip-rule="evenodd" fill="#EACD76" stroke="#206FAB" stroke-width="3.2047" d="M151.187,148.399
		c-27.633-38.877,3.827-68.432,37.333-25.84c23.673-10.881,37.687-4.419,40.206,41.404c16.862,0.471,26.188,10.762,16.022,45.464
		c21.31,9.809,8.617,30.15-1.545,40.794c-10.057,10.637-14.959,20.917-14.134,40.07c-11.365-4.294-15.312-8.613-21.179-18.298
		c-18.055-10.169-40.908-21.294-27.153-39.95c-17.111-10.778-35.291-17.834-13.164-33.149
		C137.075,185.723,121.399,172.332,151.187,148.399z"/>
	<path fill-rule="evenodd" clip-rule="evenodd" fill="#206FAB" d="M164.825,154.746c-35.534-43.784-4.783-63.292,20.693-21.893
		c25.725-16.151,37.927-4.189,37.805,41.752c17.717-7.896,28.377,6.463,7.665,41.644c23.201-1.796,18.548,15.309,3.703,31.699
		c-5.385,5.867-9.317,10.645-10.646,15.543c-2.141-12.677,3.229-23.801,11.616-34.458c-7.418,1.919-10.543,6.467-14.6,12.323
		c-2.401-15.902,1.197-38.283,5.987-51.327c-8.388,5.512-10.543,16.402-13.768,28.37c-6.104-29.444-24.289-41.879-14.118-64.007
		c-4.296,2.748-5.029,4.061-6.57,10.166c-8.855-14.478-17.961-26.443-28.966-36.376c2.76,6.703,13.285,19.98,23.816,40.925
		c-2.628-0.486-14-3.712-18.193-1.08c10.171,7.779,24.286,7.898,35.776,47.019c-11.118-7.429-17.71-10.166-25.123-9.213
		c12.924,6.465,31.827,18.312,33.255,42.946c-8.724-7.891-12.437-7.891-19.737-7.422c14.371,7.899,23.815,16.52,23.329,28.708
		c-3.592-6.218-5.98-8.48-13.058-11.358c-18.76-7.643-29.768-17.103-8.825-27.988c-21.905-9.571-41.165-19.02-15.325-35.056
		C131.446,179.035,132.638,161.324,164.825,154.746z"/>

		<path fill-rule="evenodd" clip-rule="evenodd" fill="#EACD76" stroke="#206FAB" stroke-width="3.2047" stroke-linecap="round" stroke-linejoin="round" d="
		M172.365,175.324c0,0,49.101-76.97,70.504-109.639c4.989-1.668,11.725,2.303,11.725,7.534
		c-24.023,39.058-68.953,109.767-68.953,109.767L151.306,235.5c-17.707,27.644-45.822,21.545-58.858,10.062
		c-14.717-13.042-4.551-32.552,15.193-18.552c12.084,8.491,30.74-0.707,36.492-10.287L172.365,175.324z"/>
	<path fill="none" d="M321.02,175.77c0,79.811-64.703,144.515-144.516,144.515c-79.815,0-144.52-64.704-144.52-144.515
		c0-79.814,64.704-144.519,144.52-144.519C256.317,31.251,321.02,95.955,321.02,175.77z"/>

		<text transform="matrix(-0.719 -1.1426 0.8464 -0.5326 60.9155 263.4639)" fill="#A1D4E6" font-family="'SohoGothicPro-Bold'" font-size="26.6797">B</text>

		<text transform="matrix(-0.489 -1.2583 0.9321 -0.3622 45.7202 238.314)" fill="#A1D4E6" font-family="'SohoGothicPro-Bold'" font-size="26.6797">a</text>

		<text transform="matrix(-0.2522 -1.3262 0.9824 -0.1869 36.6772 214.2017)" fill="#A1D4E6" font-family="'SohoGothicPro-Bold'" font-size="26.6797">y</text>

		<text transform="matrix(-0.0219 -1.3498 0.9999 -0.0162 32.1724 187.9116)" fill="#A1D4E6" font-family="'SohoGothicPro-Bold'" font-size="26.6797">e</text>

		<text transform="matrix(0.2084 -1.3338 0.988 0.1543 32.5142 161.0244)" fill="#A1D4E6" font-family="'SohoGothicPro-Bold'" font-size="26.6797">r</text>

		<text transform="matrix(0.3698 -1.2984 0.9617 0.274 35.9292 141.6064)" fill="#A1D4E6" font-family="'SohoGothicPro-Bold'" font-size="26.6797">i</text>

		<text transform="matrix(0.5423 -1.2363 0.9158 0.4017 40.1646 126.7305)" fill="#A1D4E6" font-family="'SohoGothicPro-Bold'" font-size="26.6797">s</text>

		<text transform="matrix(0.7337 -1.1332 0.8394 0.5435 49.8896 105.3843)" fill="#A1D4E6" font-family="'SohoGothicPro-Bold'" font-size="26.6797">c</text>

		<text transform="matrix(0.9206 -0.9874 0.7314 0.6819 62.5117 86.1079)" fill="#A1D4E6" font-family="'SohoGothicPro-Bold'" font-size="26.6797">h</text>

		<text transform="matrix(1.0889 -0.798 0.5911 0.8066 81.9175 65.9028)" fill="#A1D4E6" font-family="'SohoGothicPro-Bold'" font-size="26.6797">e</text>

		<text transform="matrix(1.2024 -0.6138 0.4547 0.8906 103.9053 50.5361)" fill="#A1D4E6" font-family="'SohoGothicPro-Bold'" font-size="26.6797">r</text>

		<text transform="matrix(1.2618 -0.48 0.3555 0.9347 121.7329 41.9414)" fill="#A1D4E6" font-family="'SohoGothicPro-Bold'" font-size="26.6797"> </text>

		<text transform="matrix(1.3202 -0.282 0.2089 0.9779 132.0786 37.4502)" fill="#A1D4E6" font-family="'SohoGothicPro-Bold'" font-size="26.6797">H</text>

		<text transform="matrix(1.3498 -0.0219 0.0162 0.9999 164.0381 31.4414)" fill="#A1D4E6" font-family="'SohoGothicPro-Bold'" font-size="26.6797">o</text>

		<text transform="matrix(1.3316 0.222 -0.1644 0.9864 190.9746 31.6455)" fill="#A1D4E6" font-family="'SohoGothicPro-Bold'" font-size="26.6797">c</text>

		<text transform="matrix(1.2741 0.4463 -0.3306 0.9438 213.688 35.6245)" fill="#A1D4E6" font-family="'SohoGothicPro-Bold'" font-size="26.6797">k</text>

		<text transform="matrix(1.1708 0.6721 -0.4978 0.8673 238.3936 44.6328)" fill="#A1D4E6" font-family="'SohoGothicPro-Bold'" font-size="26.6797">e</text>

		<text transform="matrix(1.0278 0.8753 -0.6484 0.7613 261.4199 58.2598)" fill="#A1D4E6" font-family="'SohoGothicPro-Bold'" font-size="26.6797">y</text>

		<text transform="matrix(0.8831 1.0211 -0.7563 0.6542 281.4209 76.1543)" fill="#A1D4E6" font-family="'SohoGothicPro-Bold'" font-size="26.6797">-</text>

		<text transform="matrix(0.7019 1.1532 -0.8542 0.5199 293.0278 89.2168)" fill="#A1D4E6" font-family="'SohoGothicPro-Bold'" font-size="26.6797">V</text>

		<text transform="matrix(0.46 1.2692 -0.9402 0.3408 308.5029 115.7354)" fill="#A1D4E6" font-family="'SohoGothicPro-Bold'" font-size="26.6797">e</text>

		<text transform="matrix(0.2499 1.3267 -0.9827 0.1851 317.0684 141.1572)" fill="#A1D4E6" font-family="'SohoGothicPro-Bold'" font-size="26.6797">r</text>

		<text transform="matrix(0.0331 1.3496 -0.9997 0.0245 320.6875 160.3994)" fill="#A1D4E6" font-family="'SohoGothicPro-Bold'" font-size="26.6797">b</text>

		<text transform="matrix(-0.2113 1.3334 -0.9877 -0.1565 320.9492 187.7285)" fill="#A1D4E6" font-family="'SohoGothicPro-Bold'" font-size="26.6797">a</text>

		<text transform="matrix(-0.4551 1.271 -0.9415 -0.3371 316.6724 213.1201)" fill="#A1D4E6" font-family="'SohoGothicPro-Bold'" font-size="26.6797">n</text>

		<text transform="matrix(-0.689 1.1609 -0.8599 -0.5104 306.8804 239.2915)" fill="#A1D4E6" font-family="'SohoGothicPro-Bold'" font-size="26.6797">d</text>
	<g>
		<g>
			<path fill-rule="evenodd" clip-rule="evenodd" fill="#A1D4E6" stroke="#A1D4E6" stroke-width="0.3117" d="M165.106,337.691
				c3.518-10.569,6.496-21.229,9.134-31.939c2.743,0.1,5.449,0.146,8.186,0.139c-1.193,5.518-2.382,10.948-3.609,16.355
				c2.916,0.002,5.893-0.053,8.814-0.127c1.083-5.438,2.018-10.917,2.952-16.406c2.726-0.112,5.466-0.277,8.236-0.501
				c-1.1,9.166-3.146,20.801-4.318,27.321c-0.185,1.049-0.633,2.562,0.63,2.464c1.222-0.093,1.473-0.99,1.748-3.05
				c0.357-0.022,0.686-0.044,1.055-0.069c-0.591,4.283-0.881,5.943-4.897,6.247c-2.179,0.13-1.918,0.082-3.691,0.141
				c-1.805,0.055-2.821-0.29-3.508-0.795c-1.095-0.896-1.033-2.507-0.408-5.533c-3.007,0.046-6.169,0.06-9.167-0.013
				c-0.166,0.194-0.136,0.198-1.769,6.234C171.374,338.064,168.219,337.907,165.106,337.691z"/>
			<path fill-rule="evenodd" clip-rule="evenodd" fill="#C8C474" stroke="#C8C474" stroke-width="0.3117" d="M210.136,336.607
				c-3.88,0.452-7.077-3.388-6.346-8.355c0.614-4.285,0.87-6.341,1.466-11.464c-0.799,0.085-2.203,0.227-3.612,0.41
				c-0.673,0.1-1.233,0.442-1.336,1.066c-0.815,5.237-1.54,9.063-2.373,13.613c-0.369,0.024-0.697,0.047-1.055,0.069
				c1.122-6.15,2.238-12.212,3.012-18.336c0.226-1.911,1.844-3.019,3.868-3.281c1.936-0.258,3.662-0.395,5.636-0.646
				c-0.542,5.902-1.298,11.562-1.857,17.462c-0.132,1.474-0.294,2.708,1.316,2.883c1.829,0.189,3.448-0.843,3.613-2.569
				c0.729-6.169,1.205-12.231,1.642-18.463c1.546-0.232,2.868-0.476,4.438-0.715c2.938-0.479,4.532,0.979,4.494,4.073
				c0.052,1.701-0.535,14.101-0.953,17.031c-0.536,4.795-6.706,6.562-8.778,6.83C211.719,336.441,211.186,336.483,210.136,336.607z"
				/>
			<g>
				<g>
					<path fill-rule="evenodd" clip-rule="evenodd" fill="#A1D4E6" stroke="#A1D4E6" stroke-width="0.3117" d="M156.111,304.208
						c1.586,0.195,3.174,0.373,4.764,0.532c4.102,0.592,8.31,2.566,8.776,7.221c0.286,2.704-1.276,6.034-5.069,7.963
						c2.367,1.762,3.214,6.089,0.987,9.942c-2.932,5.108-9.166,6.478-13.418,6.455c0.242-1.962,0.483-3.923,0.726-5.884
						c1.452-0.078,3.594-0.658,4.864-2.748c1.823-3.035-0.727-5.922-3.646-7.131c0.008-0.062,0.015-0.126,0.023-0.188
						c4.132-0.019,6.576-2.549,6.798-6.501c-0.198-1.81-1.175-2.885-2.95-3.337c-0.868-0.063-1.729-0.197-2.597-0.305
						C155.616,308.222,155.864,306.215,156.111,304.208z M140.567,334.779c-2.198-0.445-3.633-2.21-3.342-4.527
						c0.042-0.223,0.084-0.445,0.127-0.668c0.121-0.412,0.28-0.851,0.473-1.293c3.553-7.416,6.945-16.175,9.517-22.688
						c0.576-1.439,3.37-2.119,5.075-1.884c1.23,0.174,2.461,0.336,3.694,0.488c-0.247,2.007-0.495,4.014-0.742,6.02
						c-0.429-0.089-0.895-0.147-1.335-0.169c-2.365,6.462-4.898,13.137-7.507,19.571c1.752,0.264,3.458,0.531,5.279,0.765
						c0.256,0.032,0.624,0.051,1.071,0.043c-0.242,1.961-0.484,3.923-0.726,5.884c-0.914-0.01-1.743-0.051-2.419-0.142
						C145.362,335.579,144.238,335.459,140.567,334.779L140.567,334.779z M154.118,320.37c-0.211-0.026-0.391-0.026-0.629-0.057
						c0.198,0.096,0.404,0.144,0.606,0.245C154.103,320.496,154.11,320.433,154.118,320.37z"/>
					<path fill-rule="evenodd" clip-rule="evenodd" fill="#A1D4E6" stroke="#A1D4E6" stroke-width="0.3117" d="M140.567,334.779
						c-2.759-0.543-4.318-3.201-2.742-6.488c3.553-7.416,6.945-16.175,9.517-22.688c0.576-1.439,3.37-2.119,5.075-1.884
						c2.818,0.397,5.64,0.738,8.458,1.021c4.102,0.592,8.31,2.566,8.776,7.221c0.286,2.704-1.276,6.034-5.069,7.963
						c2.367,1.762,3.214,6.089,0.987,9.942c-3.592,6.262-12.023,6.824-15.837,6.313
						C145.362,335.579,144.238,335.459,140.567,334.779L140.567,334.779z M151.806,330.395c-1.822-0.234-3.527-0.501-5.279-0.765
						c2.609-6.435,5.142-13.109,7.507-19.571c1.309,0.104,2.597,0.358,3.933,0.474c1.775,0.452,2.752,1.527,2.95,3.337
						c-0.201,4.14-2.944,6.711-7.428,6.444c3.141,1.06,6.203,4.122,4.252,7.376C156.073,330.426,152.93,330.544,151.806,330.395z"/>
				</g>
			</g>
		</g>
	</g>
</g>
</svg>
