<?xml version="1.0" encoding="utf-8"?>
<!-- Generator: Adobe Illustrator 25.1.0, SVG Export Plug-In . SVG Version: 6.00 Build 0)  -->
<svg version="1.1" id="Ebene_1" xmlns="http://www.w3.org/2000/svg" xmlns:xlink="http://www.w3.org/1999/xlink" x="0px" y="0px"
	 viewBox="0 0 396.85 396.85" style="enable-background:new 0 0 396.85 396.85;" xml:space="preserve">
<style type="text/css">
	.st0{clip-path:url(#SVGID_2_);fill:#FFFFFF;}
	.st1{clip-path:url(#SVGID_2_);fill:#BD1D1D;}
</style>
<g>
	<defs>
		<rect id="SVGID_1_" x="23.51" y="23.47" width="349.83" height="349.9"/>
	</defs>
	<clipPath id="SVGID_2_">
		<use xlink:href="#SVGID_1_"  style="overflow:visible;"/>
	</clipPath>
	<path class="st0" d="M198.43,30.35c-92.81,0-168.04,75.25-168.04,168.08c0,92.83,75.23,168.08,168.04,168.08
		s168.04-75.25,168.04-168.08C366.47,105.6,291.23,30.35,198.43,30.35"/>
	<path class="st1" d="M198.43,23.47c96.6,0,174.92,78.33,174.92,174.95s-78.32,174.95-174.92,174.95
		c-96.61,0-174.92-78.33-174.92-174.95S101.82,23.47,198.43,23.47"/>
	<path class="st0" d="M198.43,29.22c-93.43,0-169.18,75.75-169.18,169.21c0,93.45,75.74,169.21,169.18,169.21
		S367.6,291.88,367.6,198.43C367.6,104.97,291.86,29.22,198.43,29.22"/>
	<path class="st1" d="M198.42,77.5c28.34,0,54.41,9.75,75.02,26.08l-11.28,21.98l41.68,23.13l2.68-4.51
		c8.21,16.32,12.82,34.75,12.82,54.26c0,49.01-29.16,91.21-71.07,110.2c0.65-2.45,1-5.02,1-7.67c0-16.34-13.24-29.58-29.57-29.58
		s-29.58,13.24-29.58,29.58c0,6.95,2.4,13.34,6.4,18.38C130.62,318.34,77.5,264.59,77.5,198.43C77.5,131.64,131.64,77.5,198.42,77.5
		 M298.92,157.78l-41.85-23.19l-4.44,8.33l41.8,23.18L298.92,157.78z M135.43,229.57c14.82,29.75,49.7,45.11,83.09,34.9
		c16.31-4.99,29.52-15.27,38.26-28.32l13.88-25.72l-41.67-23.05l-10.64,19.97c-2.45,5.56-7.45,9.81-13.71,11.73
		c-9.89,3.02-19.94-0.92-25.01-10.15c-1.69-3.07-1.27-2.21-2.11-3.64c-4.63-7.86-11.9-12.11-20.91-12.11
		c-13.45,0-24.36,10.91-24.36,24.36C132.24,221.91,133.4,226.02,135.43,229.57 M289.28,175.78l-41.85-23.19l-4.44,8.33l41.79,23.19
		L289.28,175.78z M233.24,179.26l41.69,23.09l4.61-8.56l-41.74-23.13L233.24,179.26z"/>
	<path class="st1" d="M193.42,325.43c0-2.13,1.12-4.17,3.16-6.04c5.42,6.79,13.77,11.15,23.14,11.15c13.57,0,25.01-9.14,28.49-21.6
		c22.2,1.33,38.5,8.21,38.5,16.49c0,9.24-21.02,16.72-46.95,16.72S193.42,334.67,193.42,325.43"/>
	<path class="st1" d="M322.23,273.91c-6.24-3.44-7.06-8.57-4.33-13.53c0.56-1.01,1.22-2.02,1.72-2.66l17.73,9.79
		c-0.37,0.86-0.94,1.97-1.58,3.14C332.46,276.66,327.88,277.03,322.23,273.91 M319.61,279.57c9.23,5.1,15.71,1.92,20.2-6.22
		c1.79-3.24,3.43-6.49,4.49-8.6l-26.21-14.46c-1.3,2.17-2.73,4.48-4.23,7.21C309.13,266.07,310.57,274.58,319.61,279.57
		 M321.79,240.2l29.16,7.19l1.34-5.44l-9.07-2.24c-3.59-0.88-8.79-2.08-11.78-2.59c2.47-0.54,5.18-1.11,7.76-1.89l15.91-4.69
		l1.8-7.3l-29.15-7.19l-1.34,5.44l10.41,2.56c3.5,0.86,8.1,1.91,10.65,2.35c-2.11,0.39-4.53,0.9-7.04,1.61l-16.83,4.92L321.79,240.2
		z M338.95,199.24l0-8.37l7.66,2.72c1.73,0.58,3.47,1.07,5.03,1.43v0.04c-1.69,0.35-3.16,0.8-4.81,1.38L338.95,199.24z
		 M328.23,209.24l30.03-10.71l0-6.54l-30.02-10.51l0,5.83l6.14,2.09l0,11.35l-6.14,2.09L328.23,209.24z M334.1,168.34
		c-2.63,0.66-4.83-0.76-5.76-4.42c-0.33-1.3-0.51-2.4-0.6-3.11l8.16-2.06c0.2,0.59,0.56,2.02,0.66,2.45
		C337.5,164.87,336.95,167.63,334.1,168.34 M346.32,164.76c-2.59,0.65-4.65-0.94-5.62-4.78c-0.23-0.91-0.4-1.6-0.53-2.3l7.6-1.91
		c0.29,0.98,0.62,2.09,0.91,3.26C349.58,162.56,348.48,164.22,346.32,164.76 M335.74,174.3c2.94-0.74,5.35-3.18,5.21-6.82l0.08-0.02
		c1.77,2.49,4.79,3.7,7.68,2.97c4.66-1.17,6.32-5.31,4.73-11.61c-0.9-3.58-1.95-7.36-2.7-9.78l-29.07,7.33
		c0.92,3.66,1.61,6.75,2.05,8.51C325.96,173.7,331.51,175.37,335.74,174.3 M334.2,132.38c-2.49,1.28-5.05,0.19-6.64-2.89
		c-0.41-0.79-0.74-1.53-0.88-1.91l7.72-3.96c0.35,0.48,0.77,1.21,1.16,1.96C337.23,128.83,336.77,131.06,334.2,132.38
		 M319.04,149.21l5.69-11.02c0.57-1.14,1.21-2.42,1.81-3.68c2.71,3.71,6.98,5.02,10.94,2.98c5.46-2.81,5.56-7.66,2.54-13.56
		c-1.58-3.09-2.9-5.56-4.1-7.59l-26.71,13.71l2.64,5.14l11.04-5.67l0.1,0.2l-7.22,13.11L319.04,149.21z M303.93,122.51l3.85-3.08
		l-6.59-8.23l6.36-5.1l6.26,7.81l3.68-2.95l-6.26-7.81l5.77-4.62l6.6,8.23l3.78-3.03l-10.21-12.74l-23.43,18.78L303.93,122.51z
		 M307.9,81.3l-4.63-3.69l-15.36,9.77c-2.24,1.45-3.65,2.44-5.28,3.76l-0.07-0.05c0.94-2.04,1.67-4.02,2.27-5.7l6.4-17.37
		l-4.94-3.94l-10.55,29.99l5.21,4.16L307.9,81.3z M267.57,77.93l2.1-4.02l-9.7-5.05l-2.1,4.02L267.57,77.93z M258.43,49.89
		L252.59,48l-6.08,6.49c-1.44,1.55-2.87,3.09-4,4.55l-0.08-0.03c-0.07-1.66-0.2-3.43-0.41-5.37l-1.11-9.43l-6.01-1.95l2.94,21.39
		l-3.26,10.07l5.5,1.78l3.27-10.11L258.43,49.89z M219.98,70.3l0.6-4.9l-10.47-1.28l0.99-8.09l9.93,1.22l0.57-4.68l-9.94-1.22
		l0.9-7.34l10.47,1.28l0.59-4.81l-16.2-1.98l-3.64,29.81L219.98,70.3z M196.63,68.17l-12.94-14.33l9.52-15.5l-7,0.69l-8.37,14.49
		l-1.33-13.55l-5.75,0.57l2.93,29.88l5.75-0.56l-1.41-14.35l11.02,13.4L196.63,68.17z M164.78,71.85l-2.27-4.68
		c-1.25,1.17-3.4,2.45-5.13,3.03c-5.74,1.92-9.47-0.68-11.54-6.89c-1.85-5.53-0.57-10.41,4.75-12.19c1.94-0.65,3.98-1,6.02-1.07
		l-1.07-5.17c-2.02,0.11-4.26,0.58-6.29,1.26c-9.54,3.19-12.14,11.09-9.13,20.12c2.37,7.09,7.79,12.64,17.74,9.31
		C160.52,74.68,162.92,73.31,164.78,71.85 M124.99,73.49c3.93,6.05,2.06,10.86-1.23,12.99c-4.52,2.93-8.86,0.82-12.33-4.53
		c-3.68-5.67-2.26-10.52,1.21-12.77C116.98,66.37,121.36,67.89,124.99,73.49 M129.93,69.75c-5.59-8.62-12.94-9.58-19.67-5.22
		c-6.76,4.38-9.07,12.98-3.67,21.31c5.06,7.8,12,10.25,19.69,5.26C133.11,86.67,135.33,78.08,129.93,69.75 M108.62,104L86.09,84.15
		l-3.82,4.34l9.02,7.94l-8.42,9.55l-9.01-7.94l-3.82,4.34l22.53,19.85l3.82-4.34l-9.79-8.62l8.42-9.55l9.78,8.62L108.62,104z
		 M57.06,145.4c2.65,0.93,3.62,3.53,2.47,6.81c-0.29,0.84-0.6,1.58-0.77,1.95l-8.19-2.87c0.11-0.58,0.34-1.39,0.63-2.19
		C52.39,145.65,54.33,144.44,57.06,145.4 M79.7,144.81l-11.91,3.46c-1.22,0.37-2.59,0.79-3.92,1.22c0.83-4.52-1.17-8.51-5.37-9.98
		c-5.79-2.03-9.38,1.23-11.58,7.49c-1.15,3.27-2.03,5.93-2.69,8.2l28.34,9.93l1.91-5.45l-11.71-4.11l0.07-0.21l14.48-3.79
		L79.7,144.81z M70.81,174.17l-4.88-0.71l-1.53,10.43l-8.06-1.18l1.45-9.9l-4.66-0.68l-1.45,9.9l-7.31-1.08l1.53-10.43l-4.79-0.7
		l-2.37,16.15l29.71,4.36L70.81,174.17z M68.25,201.02l-29.88,2.93l0.55,5.57l9.3-0.91c3.67-0.36,8.98-0.97,11.97-1.49
		c-2.15,1.33-4.51,2.77-6.68,4.37l-13.44,9.72l0.73,7.48l29.89-2.93l-0.55-5.57l-10.67,1.04c-3.59,0.35-8.27,0.9-10.83,1.33
		c1.86-1.08,3.97-2.36,6.11-3.86l14.24-10.25L68.25,201.02z M74.17,235.94l-28.71,8.8l1.69,5.53l28.71-8.8L74.17,235.94z
		 M78.34,248.17l-4.56,2.2l4.23,8.78l-22.49,10.83l2.51,5.21l27.05-13.03L78.34,248.17z M76.87,288c2.23-1.7,4.94-1.08,7.04,1.69
		c0.54,0.71,0.99,1.37,1.2,1.72l-6.9,5.26c-0.42-0.41-0.97-1.05-1.48-1.73C74.51,292.03,74.56,289.75,76.87,288 M88.84,268.77
		l-3.67,11.85c-0.36,1.22-0.76,2.59-1.14,3.94c-3.31-3.18-7.75-3.71-11.29-1.02c-4.88,3.72-4.14,8.51-0.12,13.79
		c2.1,2.76,3.83,4.96,5.37,6.76l23.89-18.19l-3.5-4.6l-9.87,7.52l-0.14-0.18l4.8-14.18L88.84,268.77z M108.56,292.26l-3.26,3.7
		l7.91,6.97l-5.38,6.11l-7.51-6.62l-3.11,3.54l7.51,6.61l-4.88,5.55l-7.91-6.97l-3.2,3.63l12.25,10.79l19.85-22.53L108.56,292.26z
		 M129.31,318.93c1.31-2.38,3.85-3.01,7.16-1.18c1.17,0.65,2.1,1.26,2.68,1.68l-4.06,7.37c-0.57-0.26-1.85-0.97-2.24-1.19
		C129.53,323.78,127.89,321.5,129.31,318.93 M123.59,330.31c1.29-2.34,3.86-2.75,7.33-0.84c0.82,0.45,1.44,0.79,2.05,1.18
		l-3.79,6.86c-0.92-0.46-1.96-0.98-3.01-1.56C122.97,334.19,122.51,332.26,123.59,330.31 M123.83,316.06
		c-1.46,2.65-1.32,6.08,1.42,8.46l-0.04,0.08c-3.03-0.4-5.97,0.98-7.41,3.59c-2.32,4.2-0.44,8.24,5.25,11.38
		c3.23,1.79,6.7,3.6,8.98,4.71l14.49-26.25c-3.31-1.83-6.03-3.43-7.63-4.31C130.95,309.32,125.94,312.24,123.83,316.06"/>
</g>
</svg>
