<?xml version="1.0" encoding="UTF-8" standalone="no"?>
<!DOCTYPE svg PUBLIC "-//W3C//DTD SVG 1.1//EN" "http://www.w3.org/Graphics/SVG/1.1/DTD/svg11.dtd">
<svg width="1892px" height="1003px" viewBox="0 0 1892 1003" version="1.1" xmlns="http://www.w3.org/2000/svg" xmlns:xlink="http://www.w3.org/1999/xlink">
      <g id="Symbols" stroke="none" stroke-width="1" fill="none" fill-rule="evenodd">
          <g id="logo" transform="translate(-1.000000, 0.000000)">
              <path d="M1491.63438,46.1211138 C1484.6132,53.9393771 1484.6132,64.1064392 1484.6132,64.1064392 C1484.6132,64.1064392 1492.41267,76.6057009 1494.74755,77.3941669 C1497.0907,78.1743333 1491.61782,96.6991356 1493.96926,99.2803244 C1502.53875,108.650621 1502.53875,114.128385 1502.53875,115.688718 C1502.53875,117.249051 1500.99044,115.306934 1500.99044,122.726815 C1500.99044,129.764912 1513.46795,138.363341 1509.56821,143.824506 C1504.8405,150.480819 1479.93517,179.795157 1476.81372,187.605121 C1466.91948,212.412752 1462.98662,246.872868 1473.70055,279.075481 C1476.81372,288.445778 1491.47707,299.866086 1493.19097,304.082304 C1508.7982,342.385155 1518.14598,350.991884 1518.14598,360.37878 C1518.14598,379.127673 1527.27021,405.238348 1529.8452,411.969358 C1533.74493,422.128121 1542.3227,443.225812 1559.46996,467.469068 C1568.43687,480.117723 1572.73404,492.484191 1580.5418,508.120717 C1586.96684,521.010062 1584.43325,526.089443 1584.43325,526.089443 C1584.43325,526.089443 1424.56882,762.164477 1411.3213,758.263645 C1398.05722,754.354513 1405.84842,742.627118 1405.07012,739.506452 C1404.29183,736.385787 1402.80149,729.638177 1394.1492,728.559224 C1381.67997,726.998891 1377.78023,740.286619 1376.21537,750.445381 C1374.65879,760.612444 1381.47298,780.988066 1398.83551,784.8391 C1420.66908,794.225996 1438.60291,769.99104 1438.60291,769.99104 C1438.60291,769.99104 1595.59429,561.105635 1602.36708,556.58233 C1616.40945,547.203734 1619.24111,560.184375 1625.76551,561.271628 C1627.62845,561.587015 1628.36534,560.898144 1629.06911,560.200974 C1630.14548,559.163519 1631.1556,558.117764 1635.90815,560.491462 C1639.02131,562.051795 1662.99932,589.523612 1675.67554,611.301874 C1681.13187,620.68047 1713.787,669.830953 1743.5194,682.43811 C1763.79638,691.04484 1770.81757,697.286171 1792.65114,710.582198 C1797.36229,713.445575 1798.10746,729.33939 1802.78549,748.104882 C1806.56931,763.268329 1808.25009,779.369636 1808.25009,779.369636 C1808.25009,779.369636 1849.58235,784.058934 1859.7167,777.809303 C1867.79769,772.821218 1869.85106,749.665215 1869.85106,749.665215 C1869.85106,749.665215 1884.67172,752.79418 1887.79316,748.104882 C1902.07565,726.617108 1883.11513,712.922697 1876.87224,701.983768 C1875.35706,699.327883 1868.63394,701.925671 1865.18131,694.945672 C1861.72867,687.965672 1854.76544,681.848836 1852.68724,673.059514 C1849.58235,659.755187 1842.56117,628.905416 1842.56117,628.498733 C1842.56117,627.718567 1835.53998,572.218857 1833.99168,561.271628 C1832.44337,550.432295 1812.14983,497.953655 1800.45061,483.877461 C1788.7514,469.809567 1794.99429,472.938532 1790.32454,463.559936 C1786.34201,455.592279 1784.2638,451.973635 1783.23712,450.438201 C1783.38615,449.641436 1783.14604,447.168142 1781.73021,440.893613 C1776.27389,416.650357 1772.3162,435.000866 1773.15245,396.332832 C1773.93902,360.37878 1759.89665,355.672883 1761.45323,340.824822 C1762.28948,332.898663 1806.68523,304.87077 1816.04957,271.257218 C1821.63009,251.205282 1759.11835,194.643218 1759.11835,194.643218 C1759.11835,194.643218 1764.57468,182.915823 1765.35297,176.666192 C1765.97395,171.694706 1699.48796,112.260965 1686.59647,107.090288 C1670.99751,100.840657 1648.37737,98.4918584 1637.46473,98.4918584 C1630.79957,98.4918584 1617.19603,100.002393 1617.96604,94.5827267 C1620.30919,78.1743333 1617.8584,59.3922422 1618.74433,53.150911 C1619.52262,47.6814466 1614.0663,25.7952891 1606.26682,19.5373586 C1598.46735,13.2877278 1587.5547,0 1554.80021,0 C1522.054,0 1508.01163,17.1968594 1503.3336,27.3556219 C1498.64729,37.5226841 1498.64729,38.3028505 1491.63438,46.1211138 Z M1616.23558,226.721336 C1615.74708,226.331253 1615.27514,225.990967 1614.81147,225.542787 L1614.81147,225.542787 C1613.26317,224.007353 1611.89702,222.297627 1610.69646,220.471705 L1610.69646,220.471705 C1610.47291,220.106521 1610.29076,219.708138 1610.07548,219.334654 L1610.07548,219.334654 C1607.21071,214.55406 1605.45541,209.018198 1605.45541,203.034156 L1605.45541,203.034156 C1605.45541,185.497011 1619.64682,171.271424 1637.14182,171.271424 L1637.14182,171.271424 C1642.5733,171.271424 1647.60736,172.76536 1652.07012,175.180556 L1652.07012,175.180556 C1652.5669,175.421245 1653.03884,175.686834 1653.51907,175.960722 L1653.51907,175.960722 C1654.76102,176.724289 1655.92018,177.587452 1657.04622,178.500413 L1657.04622,178.500413 C1657.45192,178.848998 1657.86591,179.122886 1658.25506,179.504669 L1658.25506,179.504669 C1664.68838,185.314419 1668.82823,193.65556 1668.82823,203.034156 L1668.82823,203.034156 C1668.82823,220.571301 1654.64511,234.796888 1637.14182,234.796888 L1637.14182,234.796888 C1629.08567,234.796888 1621.82438,231.676223 1616.23558,226.721336 L1616.23558,226.721336 Z M1731.04189,297.052507 L1732.60676,292.363209 L1730.2636,239.203998 L1759.89665,264.999288 L1737.28479,303.302138 L1731.04189,297.052507 Z M1741.95454,589.415716 C1734.16334,577.680022 1691.77128,505.390135 1696.73082,499.522288 L1696.73082,499.522288 C1705.30859,489.355225 1704.53858,486.23456 1706.86517,481.528663 L1706.86517,481.528663 C1709.20833,476.847664 1700.63056,458.082172 1700.63056,458.082172 L1700.63056,458.082172 L1706.08688,454.18134 L1720.12925,469.809567 L1735.811,489.70381 C1735.811,489.70381 1746.64913,504.983452 1746.64913,515.930681 L1746.64913,515.930681 C1746.64913,519.250538 1749.82853,526.545924 1748.984,530.006875 L1748.984,530.006875 C1742.02905,531.226922 1773.93902,604.263777 1774.71731,619.120137 L1774.71731,619.120137 C1751.31888,590.967749 1749.76229,601.134812 1741.95454,589.415716 L1741.95454,589.415716 Z" id="Player" fill="#000000"></path>
              <path d="M604.4475,270.53 C604.4475,287.01 602.9025,305.035 599.2975,324.605 L592.0875,364.26 C569.9425,486.83 508.1425,532.15 376.3025,532.15 C326.3475,532.15 293.9025,530.605 244.9775,527 L312.4425,144.355 C361.8825,140.75 392.7825,139.205 440.6775,139.205 C559.6425,139.205 604.4475,183.495 604.4475,270.53 Z M510.7175,266.41 C510.7175,212.335 474.1525,212.335 394.8425,212.335 L350.5525,459.02 C443.7675,459.02 478.7875,458.505 497.8425,354.475 L505.0525,314.82 C508.6575,294.22 510.7175,278.255 510.7175,266.41 Z M1029.3225,144.355 L961.8575,527 L865.5525,527 L893.8775,365.805 L750.1925,365.805 L721.8675,527 L625.0475,527 L692.5125,144.355 L789.3325,144.355 L762.5525,292.675 L906.2375,292.675 L933.0175,144.355 L1029.3225,144.355 Z M1388.7925,231.905 C1388.7925,279.8 1366.6475,313.275 1328.5375,331.3 C1351.7125,343.145 1363.0425,367.35 1363.0425,394.645 C1363.0425,409.065 1360.9825,421.425 1358.4075,431.21 C1337.2925,514.125 1261.0725,531.635 1161.6775,531.635 C1124.5975,531.635 1082.8825,530.605 1037.5625,527 L1104.5125,144.355 C1153.4375,140.75 1194.1225,139.205 1228.1125,139.205 C1328.5375,139.205 1388.7925,156.2 1388.7925,231.905 Z M1269.3125,398.25 C1269.3125,361.17 1242.5325,360.655 1165.7975,360.655 L1159.6175,360.655 L1140.5625,462.11 C1152.9225,462.625 1164.7675,462.625 1177.6425,462.625 C1229.1425,462.625 1269.3125,453.355 1269.3125,398.25 Z M1295.5775,243.75 C1295.5775,212.335 1269.8275,208.73 1223.9925,208.73 C1211.6325,208.73 1199.2725,208.73 1186.3975,209.245 L1169.4025,301.43 L1192.5775,301.43 C1255.9225,301.43 1295.5775,298.34 1295.5775,243.75 Z" id="DHB" fill="#000000" fill-rule="nonzero"></path>
              <path d="M263.852,866.237 L245.381,971 L232.409,971 L241.01,921.509 L188.558,921.509 L179.957,971 L166.985,971 L185.456,866.237 L198.428,866.237 L190.673,909.806 L243.125,909.806 L250.88,866.237 L263.852,866.237 Z M339.61,917.42 C339.61,921.227 338.764,926.585 338.482,928.559 L336.508,939.839 C332.56,962.399 319.729,972.974 298.579,972.974 C279.121,972.974 270.238,962.963 270.238,947.171 C270.238,942.941 270.52,938.993 271.084,935.609 L273.058,924.329 C277.006,901.487 290.26,891.476 310.987,891.476 C329.74,891.476 339.61,900.077 339.61,917.42 Z M326.92,917.42 C326.92,908.255 323.254,902.615 309.859,902.615 C294.631,902.615 288.286,909.806 285.325,926.585 L283.351,937.865 C282.787,941.108 282.505,943.646 282.505,947.171 C282.505,957.323 287.158,961.835 299.425,961.835 C315.217,961.835 321.139,954.644 324.1,937.865 L326.074,926.585 C326.779,922.496 326.92,920.24 326.92,917.42 Z M413.253,894.155 L411.561,903.743 C402.255,902.756 395.487,902.333 391.398,902.333 C378.99,902.333 370.248,906.986 367.005,926.303 L365.031,938.006 C364.467,941.249 364.185,944.21 364.185,946.748 C364.185,958.874 369.684,962.117 380.964,962.117 C385.053,962.117 391.821,961.694 401.409,960.707 L399.717,970.295 C396.897,971.141 388.437,972.974 378.285,972.974 C358.968,972.974 351.777,962.117 351.777,946.748 C351.777,943.364 352.059,939.698 352.764,935.891 L354.738,924.188 C358.545,901.628 370.53,891.476 391.539,891.476 C402.819,891.476 410.715,893.309 413.253,894.155 Z M491.126,893.45 L451.082,930.251 L477.308,971 L462.08,971 L436.7,930.815 L429.65,971 L416.819,971 L436.136,861.866 L448.826,861.866 L437.264,927.572 L473.36,893.45 L491.126,893.45 Z M557.296,917.843 C557.296,924.047 556.45,929.969 554.899,936.878 L501.601,936.878 L500.896,939.698 C500.614,941.108 500.332,944.492 500.332,947.171 C500.332,956.054 504.562,961.976 520.495,961.976 C529.237,961.976 540.376,960.989 548.131,959.72 L546.298,969.872 C540.517,971.282 530.788,972.974 518.38,972.974 C496.525,972.974 487.924,963.386 487.924,946.607 C487.924,942.377 488.629,937.724 489.475,932.648 L490.462,926.726 C494.551,902.333 509.497,891.476 528.391,891.476 C546.439,891.476 557.296,899.513 557.296,917.843 Z M544.747,917.843 C544.747,910.088 541.504,902.474 527.827,902.474 C510.484,902.474 505.549,915.587 503.857,925.034 L503.575,926.444 L543.76,926.444 C544.324,923.201 544.747,920.24 544.747,917.843 Z M637.002,893.45 L592.869,977.768 C584.973,992.714 578.346,1002.302 562.413,1002.302 C555.786,1002.302 550.146,1001.456 547.608,1000.892 L549.3,991.163 C555.363,991.586 558.888,991.727 562.131,991.727 C572.424,991.727 574.539,987.779 580.602,976.499 L583.563,971 L567.489,893.45 L580.602,893.45 L588.78,937.019 C590.049,943.928 590.613,949.286 591.6,957.605 C595.125,949.286 597.522,944.069 601.188,936.878 L623.325,893.45 L637.002,893.45 Z M678.215,935.045 L643.388,935.045 L645.362,924.47 L680.189,924.47 L678.215,935.045 Z M777.802,890.207 C777.802,903.461 770.611,912.908 759.472,917.279 C766.24,920.381 770.47,927.149 770.47,937.16 C770.47,968.039 743.116,971.282 715.621,971.282 C708.43,971.282 701.239,971 694.612,971 L712.942,866.237 L740.014,866.237 C762.433,866.237 777.802,868.634 777.802,890.207 Z M757.216,937.16 C757.216,927.854 752.14,922.214 736.63,922.214 L716.185,922.214 L709.558,959.579 C713.365,959.579 717.595,959.72 721.825,959.72 C739.168,959.72 757.216,957.746 757.216,937.16 Z M764.689,891.335 C764.689,879.068 754.819,877.658 739.027,877.658 C734.374,877.658 731.836,877.658 723.94,877.799 L718.018,911.075 C721.966,911.075 725.914,911.216 729.721,911.216 C749.179,911.216 764.689,909.665 764.689,891.335 Z M859.059,893.45 L845.382,971 L832.833,971 L833.82,964.937 C823.668,970.154 814.785,972.974 806.325,972.974 C791.379,972.974 787.008,964.373 787.008,952.952 C787.008,949.286 787.431,945.338 788.136,941.249 L796.596,893.45 L809.145,893.45 L800.544,942.941 C799.839,947.171 799.416,950.414 799.416,953.093 C799.416,959.861 802.236,962.117 809.286,962.117 C816.195,962.117 824.655,959.72 835.512,955.208 L846.51,893.45 L859.059,893.45 Z M939.47,911.78 C939.47,915.446 938.906,919.676 938.201,923.906 L930.023,971 L917.333,971 L925.934,921.932 C926.498,918.407 926.921,915.446 926.921,912.908 C926.921,905.717 923.96,902.474 916.064,902.474 C909.296,902.474 901.118,904.448 890.825,909.806 L879.968,971 L867.278,971 L880.955,893.45 L893.504,893.45 L892.658,899.09 C902.246,893.591 911.129,891.476 918.884,891.476 C934.535,891.476 939.47,899.795 939.47,911.78 Z M1030.174,861.866 L1010.998,971 L998.731,971 L999.295,967.052 C993.655,970.154 985.477,972.974 977.299,972.974 C961.507,972.974 952.906,963.95 952.906,947.594 C952.906,944.492 953.188,940.967 953.893,937.301 L956.29,923.906 C961.225,896.129 976.03,891.476 993.937,891.476 C1000.141,891.476 1005.781,892.181 1011.844,893.45 L1017.625,861.866 L1030.174,861.866 Z M1010.011,904.025 C1003.948,902.897 997.321,902.192 993.091,902.192 C980.542,902.192 972.223,905.717 968.557,926.444 L966.16,939.839 C965.455,943.646 965.455,945.338 965.455,947.594 C965.455,957.605 970.249,962.117 980.824,962.117 C987.874,962.117 994.36,960.143 1000.705,957.323 L1010.011,904.025 Z M1130.648,917.843 C1130.648,924.047 1129.802,929.969 1128.251,936.878 L1074.953,936.878 L1074.248,939.698 C1073.966,941.108 1073.684,944.492 1073.684,947.171 C1073.684,956.054 1077.914,961.976 1093.847,961.976 C1102.589,961.976 1113.728,960.989 1121.483,959.72 L1119.65,969.872 C1113.869,971.282 1104.14,972.974 1091.732,972.974 C1069.877,972.974 1061.276,963.386 1061.276,946.607 C1061.276,942.377 1061.981,937.724 1062.827,932.648 L1063.814,926.726 C1067.903,902.333 1082.849,891.476 1101.743,891.476 C1119.791,891.476 1130.648,899.513 1130.648,917.843 Z M1118.099,917.843 C1118.099,910.088 1114.856,902.474 1101.179,902.474 C1083.836,902.474 1078.901,915.587 1077.209,925.034 L1076.927,926.444 L1117.112,926.444 C1117.676,923.201 1118.099,920.24 1118.099,917.843 Z M1154.236,971 L1141.546,971 L1144.93,951.542 L1157.62,951.542 L1154.236,971 Z M1274.832,866.237 L1221.816,971 L1204.473,971 L1188.399,866.237 L1201.512,866.237 L1212.792,943.082 C1213.638,949.004 1214.061,955.772 1214.484,961.13 L1214.766,961.13 C1217.022,955.631 1219.56,949.004 1222.521,943.082 L1261.014,866.237 L1274.832,866.237 Z M1266.131,971 L1253.441,971 L1256.825,951.542 L1269.515,951.542 L1266.131,971 Z" id="Hockey-Bunde.V." fill="#000000" fill-rule="nonzero"></path>
              <path d="M286.264,733.372 C286.264,737.461 285.841,741.832 284.995,746.485 L282.034,763.546 C277.381,790.195 262.012,805 228.454,805 L198.985,805 L217.456,700.237 L244.951,700.237 C276.958,700.237 286.264,713.35 286.264,733.372 Z M273.01,733.372 C273.01,717.157 263.422,711.799 243.823,711.799 L228.454,711.799 L214.072,793.579 L229.441,793.579 C251.719,793.579 264.55,786.529 269.062,761.008 L272.023,743.947 C272.728,739.999 273.01,736.474 273.01,733.372 Z M364.096,751.843 C364.096,758.047 363.25,763.969 361.699,770.878 L308.401,770.878 L307.696,773.698 C307.414,775.108 307.132,778.492 307.132,781.171 C307.132,790.054 311.362,795.976 327.295,795.976 C336.037,795.976 347.176,794.989 354.931,793.72 L353.098,803.872 C347.317,805.282 337.588,806.974 325.18,806.974 C303.325,806.974 294.724,797.386 294.724,780.607 C294.724,776.377 295.429,771.724 296.275,766.648 L297.262,760.726 C301.351,736.333 316.297,725.476 335.191,725.476 C353.239,725.476 364.096,733.513 364.096,751.843 Z M351.547,751.843 C351.547,744.088 348.304,736.474 334.627,736.474 C317.284,736.474 312.349,749.587 310.657,759.034 L310.375,760.444 L350.56,760.444 C351.124,757.201 351.547,754.24 351.547,751.843 Z M450.247,727.45 L436.57,805 L424.021,805 L425.008,798.937 C414.856,804.154 405.973,806.974 397.513,806.974 C382.567,806.974 378.196,798.373 378.196,786.952 C378.196,783.286 378.619,779.338 379.324,775.249 L387.784,727.45 L400.333,727.45 L391.732,776.941 C391.027,781.171 390.604,784.414 390.604,787.093 C390.604,793.861 393.424,796.117 400.474,796.117 C407.383,796.117 415.843,793.72 426.7,789.208 L437.698,727.45 L450.247,727.45 Z M512.428,727.45 L510.595,738.025 L489.868,738.025 L481.267,786.67 C480.844,789.067 480.562,791.041 480.562,792.451 C480.562,796.117 482.395,796.822 487.612,796.822 C491.842,796.822 497.905,796.399 500.443,796.117 L498.892,804.859 C496.636,805.564 490.291,806.974 484.228,806.974 C472.807,806.974 468.154,802.18 468.154,792.733 C468.154,790.618 468.436,788.221 468.859,785.542 L477.178,738.025 L461.809,736.897 L463.36,727.45 L479.011,727.45 L482.677,707.287 L495.367,707.287 L491.701,727.45 L512.428,727.45 Z M575.173,728.296 L573.481,738.166 C564.316,736.897 557.125,736.333 550.639,736.333 C542.743,736.333 533.014,737.038 533.014,747.472 C533.014,751.843 535.834,754.24 544.435,758.047 L549.793,760.444 C563.893,766.789 569.251,771.583 569.251,782.863 C569.251,798.373 556.984,806.974 535.975,806.974 C525.118,806.974 513.556,804.718 511.3,803.872 L512.992,794.284 C521.17,795.271 526.81,796.117 537.526,796.117 C547.96,796.117 556.279,794.002 556.279,783.85 C556.279,778.21 553.741,776.518 542.884,771.301 L537.808,768.904 C525.682,763.123 520.183,757.624 520.183,747.613 C520.183,729.565 535.411,725.476 550.78,725.476 C561.778,725.476 570.238,727.027 575.173,728.296 Z M645.532,728.155 L643.84,737.743 C634.534,736.756 627.766,736.333 623.677,736.333 C611.269,736.333 602.527,740.986 599.284,760.303 L597.31,772.006 C596.746,775.249 596.464,778.21 596.464,780.748 C596.464,792.874 601.963,796.117 613.243,796.117 C617.332,796.117 624.1,795.694 633.688,794.707 L631.996,804.295 C629.176,805.141 620.716,806.974 610.564,806.974 C591.247,806.974 584.056,796.117 584.056,780.748 C584.056,777.364 584.338,773.698 585.043,769.891 L587.017,758.188 C590.824,735.628 602.809,725.476 623.818,725.476 C635.098,725.476 642.994,727.309 645.532,728.155 Z M721.531,745.639 C721.531,748.036 721.108,752.407 720.121,757.906 L711.943,805 L699.253,805 L707.854,755.932 C708.418,752.548 708.7,749.869 708.7,747.472 C708.7,739.153 704.893,736.474 696.574,736.474 C687.832,736.474 678.385,739.576 673.027,741.973 L661.888,805 L649.198,805 L668.656,695.866 L681.205,695.866 L674.86,731.821 C680.077,729.283 689.947,725.476 701.086,725.476 C716.173,725.476 721.531,733.09 721.531,745.639 Z M804.439,751.843 C804.439,758.047 803.593,763.969 802.042,770.878 L748.744,770.878 L748.039,773.698 C747.757,775.108 747.475,778.492 747.475,781.171 C747.475,790.054 751.705,795.976 767.638,795.976 C776.38,795.976 787.519,794.989 795.274,793.72 L793.441,803.872 C787.66,805.282 777.931,806.974 765.523,806.974 C743.668,806.974 735.067,797.386 735.067,780.607 C735.067,776.377 735.772,771.724 736.618,766.648 L737.605,760.726 C741.694,736.333 756.64,725.476 775.534,725.476 C793.582,725.476 804.439,733.513 804.439,751.843 Z M791.89,751.843 C791.89,744.088 788.647,736.474 774.97,736.474 C757.627,736.474 752.692,749.587 751,759.034 L750.718,760.444 L790.903,760.444 C791.467,757.201 791.89,754.24 791.89,751.843 Z M869.158,725.476 L867.184,736.756 C857.032,736.756 845.047,739.576 838.561,743.383 L827.563,805 L814.873,805 L828.691,727.45 L840.958,727.45 L839.971,733.654 C848.431,727.873 858.301,725.476 869.158,725.476 Z" id="Deutscher" fill="#000000" fill-rule="nonzero"></path>
              <g id="Flag" transform="translate(1.000000, 134.000000)">
                  <polygon id="Gold" fill="#FDDD05" points="48.5859375 558 108.585937 558 59.5859375 837 0 837"></polygon>
                  <polygon id="Red" fill="#ED1D23" points="97.5859375 279 157.585937 279 108.585937 558 49 558"></polygon>
                  <polygon id="Black" fill="#000000" points="146.585938 0 206.585937 9.679757e-16 157.585937 279 98 279"></polygon>
              </g>
          </g>
      </g>
  </svg>
