<?xml version="1.0" encoding="UTF-8" standalone="no"?>
<!DOCTYPE svg PUBLIC "-//W3C//DTD SVG 1.1//EN" "http://www.w3.org/Graphics/SVG/1.1/DTD/svg11.dtd">
<svg width="787px" height="787px" viewBox="0 0 787 787" version="1.1" xmlns="http://www.w3.org/2000/svg" xmlns:xlink="http://www.w3.org/1999/xlink">
    <g stroke="none" stroke-width="1" fill="none" fill-rule="evenodd">
        <g>
            <rect fill="#FFFFFF" fill-opacity="0" x="0" y="0" width="787" height="787"></rect>
            <path fill="#FFFFFF" d="M250.634382,46.1211138 C243.613197,53.9393771 243.613197,64.1064392 243.613197,64.1064392 C243.613197,64.1064392 251.412674,76.6057009 253.747549,77.3941669 C256.090704,78.1743333 250.617823,96.6991356 252.969258,99.2803244 C261.538747,108.650621 261.538747,114.128385 261.538747,115.688718 C261.538747,117.249051 259.990443,115.306934 259.990443,122.726815 C259.990443,129.764912 272.46795,138.363341 268.568211,143.824506 C263.840503,150.480819 238.935167,179.795157 235.81372,187.605121 C225.919479,212.412752 221.986622,246.872868 232.700553,279.075481 C235.81372,288.445778 250.477068,299.866086 252.190966,304.082304 C267.798199,342.385155 277.14598,350.991884 277.14598,360.37878 C277.14598,379.127673 286.270209,405.238348 288.845196,411.969358 C292.744934,422.128121 301.322703,443.225812 318.46996,467.469068 C327.436875,480.117723 331.734039,492.484191 339.541796,508.120717 C345.966842,521.010062 343.433254,526.089443 343.433254,526.089443 C343.433254,526.089443 183.568816,762.164477 170.321297,758.263645 C157.057218,754.354513 164.848416,742.627118 164.070124,739.506452 C163.291832,736.385787 161.801486,729.638177 153.1492,728.559224 C140.679973,726.998891 136.780234,740.286619 135.215371,750.445381 C133.658788,760.612444 140.47298,780.988066 157.83551,784.8391 C179.669078,794.225996 197.602907,769.99104 197.602907,769.99104 C197.602907,769.99104 354.594289,561.105635 361.367084,556.58233 C375.409454,547.203734 378.241111,560.184375 384.765514,561.271628 C386.628447,561.587015 387.36534,560.898144 388.069114,560.200974 C389.145475,559.163519 390.155599,558.117764 394.908146,560.491462 C398.021313,562.051795 421.999323,589.523612 434.675543,611.301874 C440.131865,620.68047 472.787,669.830953 502.519401,682.43811 C522.796385,691.04484 529.81757,697.286171 551.651138,710.582198 C556.362287,713.445575 557.10746,729.33939 561.78549,748.104882 C565.569313,763.268329 567.250092,779.369636 567.250092,779.369636 C567.250092,779.369636 608.582352,784.058934 618.716704,777.809303 C626.797691,772.821218 628.851056,749.665215 628.851056,749.665215 C628.851056,749.665215 643.671718,752.79418 646.793165,748.104882 C661.075647,726.617108 642.115135,712.922697 635.872241,701.983768 C634.357056,699.327883 627.63394,701.925671 624.181306,694.945672 C620.728671,687.965672 613.765444,681.848836 611.687239,673.059514 C608.582352,659.755187 601.561166,628.905416 601.561166,628.498733 C601.561166,627.718567 594.539981,572.218857 592.991677,561.271628 C591.443374,550.432295 571.14983,497.953655 559.450615,483.877461 C547.751399,469.809567 553.994293,472.938532 549.324542,463.559936 C545.342007,455.592279 543.263802,451.973635 542.237119,450.438201 C542.386154,449.641436 542.146043,447.168142 540.730214,440.893613 C535.273892,416.650357 531.316196,435.000866 532.152445,396.332832 C532.939017,360.37878 518.896647,355.672883 520.45323,340.824822 C521.28948,332.898663 565.685228,304.87077 575.049569,271.257218 C580.630086,251.205282 518.118355,194.643218 518.118355,194.643218 C518.118355,194.643218 523.574677,182.915823 524.352968,176.666192 C524.973946,171.694706 458.487959,112.260965 445.596467,107.090288 C429.997513,100.840657 407.377374,98.4918584 396.46473,98.4918584 C389.799572,98.4918584 376.196025,100.002393 376.966037,94.5827267 C379.309192,78.1743333 376.858401,59.3922422 377.744329,53.150911 C378.522621,47.6814466 373.066299,25.7952891 365.266822,19.5373586 C357.467345,13.2877278 346.554701,0 313.80021,0 C281.053998,0 267.011628,17.1968594 262.333598,27.3556219 C257.647288,37.5226841 257.647288,38.3028505 250.634382,46.1211138 Z M375.23558,226.721336 C374.747078,226.331253 374.275135,225.990967 373.811472,225.542787 L373.811472,225.542787 C372.263168,224.007353 370.897018,222.297627 369.696461,220.471705 L369.696461,220.471705 C369.472909,220.106521 369.290756,219.708138 369.075484,219.334654 L369.075484,219.334654 C366.210708,214.55406 364.455411,209.018198 364.455411,203.034156 L364.455411,203.034156 C364.455411,185.497011 378.646816,171.271424 396.141822,171.271424 L396.141822,171.271424 C401.573304,171.271424 406.607362,172.76536 411.07012,175.180556 L411.07012,175.180556 C411.566902,175.421245 412.038845,175.686834 412.519067,175.960722 L412.519067,175.960722 C413.761022,176.724289 414.92018,177.587452 416.046219,178.500413 L416.046219,178.500413 C416.451924,178.848998 416.865909,179.122886 417.255055,179.504669 L417.255055,179.504669 C423.688382,185.314419 427.828232,193.65556 427.828232,203.034156 L427.828232,203.034156 C427.828232,220.571301 413.645106,234.796888 396.141822,234.796888 L396.141822,234.796888 C388.085674,234.796888 380.824377,231.676223 375.23558,226.721336 L375.23558,226.721336 Z M490.041894,297.052507 L491.606757,292.363209 L489.263602,239.203998 L518.896647,264.999288 L496.284787,303.302138 L490.041894,297.052507 Z M500.954538,589.415716 C493.16334,577.680022 450.771279,505.390135 455.730819,499.522288 L455.730819,499.522288 C464.308588,489.355225 463.538576,486.23456 465.865171,481.528663 L465.865171,481.528663 C468.208326,476.847664 459.630557,458.082172 459.630557,458.082172 L459.630557,458.082172 L465.086879,454.18134 L479.12925,469.809567 L494.811001,489.70381 C494.811001,489.70381 505.649127,504.983452 505.649127,515.930681 L505.649127,515.930681 C505.649127,519.250538 508.828532,526.545924 507.984003,530.006875 L507.984003,530.006875 C501.029055,531.226922 532.939017,604.263777 533.717309,619.120137 L533.717309,619.120137 C510.318878,590.967749 508.762294,601.134812 500.954538,589.415716 L500.954538,589.415716 Z"></path>
        </g>
    </g>
</svg>