
<svg width="1004px" height="531px" viewBox="0 0 1004 531" version="1.1" xmlns="http://www.w3.org/2000/svg" xmlns:xlink="http://www.w3.org/1999/xlink">
    <g id="Symbols" stroke="none" stroke-width="1" fill="none" fill-rule="evenodd">
        <g id="Group" fill="#FFFFFF">
            <path d="M791.283986,24.4377439 C787.562894,28.5803307 787.562894,33.9674525 787.562894,33.9674525 C787.562894,33.9674525 791.696466,40.5903142 792.933904,41.008091 C794.175731,41.4214701 791.27521,51.2370261 792.521425,52.6046954 C797.063088,57.5696428 797.063088,60.4720922 797.063088,61.2988505 C797.063088,62.1256087 796.242517,61.0965585 796.242517,65.0280581 C796.242517,68.7572657 802.855354,73.3132316 800.788569,76.2068857 C798.282975,79.7338014 785.083628,95.266303 783.429322,99.4044921 C778.185565,112.549069 776.101227,130.808114 781.779403,147.870998 C783.429322,152.835946 791.200612,158.887113 792.108945,161.121119 C800.380477,181.416276 805.33462,185.97664 805.33462,190.950383 C805.33462,200.884675 810.170285,214.719684 811.534978,218.286178 C813.601764,223.668903 818.147815,234.84773 827.23553,247.693267 C831.987822,254.395287 834.265235,260.947786 838.403195,269.232959 C841.808346,276.062511 840.465593,278.753873 840.465593,278.753873 C840.465593,278.753873 755.740533,403.840644 748.719604,401.773748 C741.689899,399.702455 745.819083,393.488575 745.406603,391.835058 C744.994124,390.181541 744.204269,386.606252 739.618725,386.034557 C733.010276,385.207799 730.94349,392.248437 730.114142,397.631161 C729.289183,403.018283 732.900574,413.814515 742.102379,415.855025 C753.673747,420.828768 763.17833,407.987628 763.17833,407.987628 C763.17833,407.987628 846.380726,297.30756 849.970176,294.910841 C857.41236,289.941496 858.913084,296.819421 862.370892,297.395513 C863.35821,297.562624 863.748749,297.197619 864.121736,296.828216 C864.692186,296.27851 865.227532,295.724406 867.74629,296.982134 C869.396209,297.808892 882.10409,312.365116 888.822241,323.904551 C891.713986,328.873896 909.020576,354.916782 924.778174,361.596813 C935.524583,366.157177 939.245675,369.46421 950.817044,376.509246 C953.313862,378.026435 953.708789,386.447936 956.188055,396.391024 C958.193407,404.425531 959.084188,412.956973 959.084188,412.956973 C959.084188,412.956973 980.989486,415.441646 986.360497,412.130215 C990.643263,409.487227 991.731507,397.217782 991.731507,397.217782 C991.731507,397.217782 999.586172,398.875697 1001.24048,396.391024 C1008.80992,385.005507 998.761213,377.749383 995.4526,371.95328 C994.649581,370.546032 991.08646,371.922497 989.25663,368.224072 C987.4268,364.525648 983.736425,361.28458 982.635016,356.627468 C980.989486,349.578034 977.268394,333.231967 977.268394,333.016482 C977.268394,332.603103 973.547301,303.196014 972.72673,297.395513 C971.906159,291.652182 961.150974,263.845838 954.950616,256.387422 C948.750258,248.933405 952.058871,250.591319 949.583993,245.621974 C947.473327,241.400229 946.371918,239.482854 945.827796,238.669288 C945.906782,238.247114 945.779527,236.936614 945.029166,233.61199 C942.137421,220.766453 940.039918,230.489658 940.483114,210.001005 C940.899982,190.950383 933.457797,188.456915 934.282756,180.589518 C934.725952,176.389762 958.254841,161.538896 963.21776,143.728412 C966.175326,133.103688 933.045318,103.1337 933.045318,103.1337 C933.045318,103.1337 935.937063,96.9198196 936.349542,93.6083887 C936.678648,90.9741961 901.442361,59.4826208 894.61012,56.7428845 C886.342976,53.4314537 874.35474,52.1869186 868.571249,52.1869186 C865.038845,52.1869186 857.829228,52.987291 858.23732,50.1156252 C859.479146,41.4214701 858.180275,31.469587 858.649799,28.1625539 C859.062279,25.2645022 856.170534,13.6678978 852.036962,10.3520693 C847.90339,7.04063847 842.1199,0 824.760653,0 C807.405794,0 799.963609,9.11193186 797.484344,14.4946561 C795.00069,19.881778 795.00069,20.2951571 791.283986,24.4377439 Z M857.320211,120.130619 C857.061314,119.923929 856.811193,119.743626 856.565461,119.506153 L856.565461,119.506153 C855.74489,118.692587 855.020857,117.786671 854.384585,116.819188 L854.384585,116.819188 C854.266107,116.625692 854.169569,116.414604 854.055479,116.21671 L854.055479,116.21671 C852.537203,113.683663 851.60693,110.75043 851.60693,107.579724 L851.60693,107.579724 C851.60693,98.2874889 859.1281,90.7499159 868.400114,90.7499159 L868.400114,90.7499159 C871.278695,90.7499159 873.946648,91.541493 876.311824,92.8212093 L876.311824,92.8212093 C876.575108,92.9487412 876.825229,93.089466 877.079738,93.2345884 L877.079738,93.2345884 C877.73795,93.6391723 878.352281,94.0965279 878.94906,94.5802695 L878.94906,94.5802695 C879.164076,94.7649708 879.38348,94.9100933 879.58972,95.1123852 L879.58972,95.1123852 C882.999258,98.1907406 885.193299,102.610379 885.193299,107.579724 L885.193299,107.579724 C885.193299,116.87196 877.676517,124.409533 868.400114,124.409533 L868.400114,124.409533 C864.130512,124.409533 860.282165,122.756016 857.320211,120.130619 L857.320211,120.130619 Z M918.165336,157.396309 L918.994684,154.911637 L917.752857,126.744685 L933.457797,140.412583 L921.473949,160.70774 L918.165336,157.396309 Z M923.948827,312.307946 C919.819643,306.089668 897.35267,267.786132 899.98113,264.676994 L899.98113,264.676994 C904.527182,259.289872 904.11909,257.636355 905.352141,255.142887 L905.352141,255.142887 C906.593968,252.662612 902.047916,242.719525 902.047916,242.719525 L902.047916,242.719525 L904.939661,240.652629 L912.381846,248.933405 L920.692871,259.474573 C920.692871,259.474573 926.436868,267.570648 926.436868,273.371149 L926.436868,273.371149 C926.436868,275.130209 928.121891,278.995744 927.674307,280.829564 L927.674307,280.829564 C923.988319,281.476019 940.899982,320.175343 941.312461,328.047137 L941.312461,328.047137 C928.911746,313.130307 928.086787,318.517429 923.948827,312.307946 L923.948827,312.307946 Z" id="Player"></path>
            <path d="M319.76362,143.515072 C319.76362,152.238532 318.943719,161.779817 317.030617,172.138925 L313.204412,193.129751 C301.452499,258.010485 268.656461,282 198.69158,282 C172.18145,282 154.96353,281.182176 129,279.273919 L164.802341,76.7260813 C191.039172,74.8178244 207.43719,74 232.85412,74 C295.986493,74 319.76362,97.4442988 319.76362,143.515072 Z M270.022963,141.334207 C270.022963,112.710354 250.61864,112.710354 208.530392,112.710354 L185.026565,243.289646 C234.493922,243.289646 253.078343,243.017038 263.190455,187.950197 L267.016659,166.959371 C268.929761,156.055046 270.022963,147.604194 270.022963,141.334207 Z M545.23638,76.7260813 L509.434039,279.273919 L458.32688,279.273919 L473.358397,193.947575 L397.107609,193.947575 L382.076092,279.273919 L330.695633,279.273919 L366.497974,76.7260813 L417.878433,76.7260813 L403.666817,155.237221 L479.917605,155.237221 L494.129221,76.7260813 L545.23638,76.7260813 Z M736,123.069463 C736,148.422018 724.248086,166.141547 704.023863,175.682831 C716.322377,181.952818 722.334984,194.7654 722.334984,209.21363 C722.334984,216.846658 721.241783,223.389253 719.875281,228.568807 C708.669968,272.458716 668.221522,281.727392 615.474561,281.727392 C595.796938,281.727392 573.659613,281.182176 549.609185,279.273919 L585.138226,76.7260813 C611.101756,74.8178244 632.692481,74 650.730302,74 C704.023863,74 736,82.9960682 736,123.069463 Z M672.594327,211.121887 C672.594327,191.494102 658.38271,191.221494 617.660964,191.221494 L614.38136,191.221494 L604.269248,244.925295 C610.828456,245.197903 617.114363,245.197903 623.946871,245.197903 C651.276902,245.197903 672.594327,240.290957 672.594327,211.121887 Z M686.532643,129.33945 C686.532643,112.710354 672.867627,110.802097 648.543899,110.802097 C641.984692,110.802097 635.425484,110.802097 628.592976,111.074705 L619.574066,159.87156 L631.87258,159.87156 C665.488519,159.87156 686.532643,158.235911 686.532643,129.33945 Z" id="DHB" fill-rule="nonzero"></path>
            <path d="M139.413053,459.303213 L129.609399,514.506024 L122.724391,514.506024 L127.289451,488.427711 L99.4500685,488.427711 L94.8850085,514.506024 L88,514.506024 L97.8036534,459.303213 L104.688662,459.303213 L100.572624,482.261044 L128.412006,482.261044 L132.528044,459.303213 L139.413053,459.303213 Z M179.622309,486.273092 C179.622309,488.279116 179.173287,491.10241 179.023612,492.14257 L177.975894,498.086345 C175.880456,509.973896 169.070285,515.546185 157.844728,515.546185 C147.517215,515.546185 142.802481,510.271084 142.802481,501.949799 C142.802481,499.720884 142.952155,497.640562 143.251503,495.85743 L144.299222,489.913655 C146.394659,477.87751 153.429342,472.60241 164.430388,472.60241 C174.383715,472.60241 179.622309,477.134538 179.622309,486.273092 Z M172.886974,486.273092 C172.886974,481.443775 170.941211,478.471888 163.831692,478.471888 C155.74929,478.471888 152.381623,482.261044 150.810045,491.10241 L149.762326,497.046185 C149.462978,498.75502 149.313304,500.092369 149.313304,501.949799 C149.313304,507.299197 151.782927,509.676707 158.29375,509.676707 C166.675499,509.676707 169.818655,505.88755 171.390233,497.046185 L172.437952,491.10241 C172.812137,488.947791 172.886974,487.759036 172.886974,486.273092 Z M218.709009,474.014056 L217.810965,479.066265 C212.87172,478.546185 209.279541,478.323293 207.109267,478.323293 C200.523607,478.323293 195.88371,480.7751 194.162457,490.953815 L193.114739,497.120482 C192.815391,498.829317 192.665716,500.389558 192.665716,501.726908 C192.665716,508.116466 195.584361,509.825301 201.571325,509.825301 C203.7416,509.825301 207.333778,509.60241 212.422697,509.082329 L211.524653,514.134538 C210.027912,514.580321 205.537689,515.546185 200.149421,515.546185 C189.896746,515.546185 186.080056,509.825301 186.080056,501.726908 C186.080056,499.943775 186.22973,498.012048 186.603916,496.006024 L187.651634,489.839357 C189.672235,477.951807 196.033384,472.60241 207.184104,472.60241 C213.171068,472.60241 217.361943,473.568273 218.709009,474.014056 Z M260.040822,473.64257 L238.7871,493.034137 L252.706791,514.506024 L244.624389,514.506024 L231.153721,493.331325 L227.411868,514.506024 L220.601697,514.506024 L230.854372,457 L237.589707,457 L231.453069,491.62249 L250.611353,473.64257 L260.040822,473.64257 Z M295.161159,486.495984 C295.161159,489.76506 294.712136,492.885542 293.888929,496.526104 L265.600524,496.526104 L265.226339,498.012048 C265.076665,498.75502 264.926991,500.538153 264.926991,501.949799 C264.926991,506.630522 267.172102,509.751004 275.628689,509.751004 C280.268586,509.751004 286.180713,509.230924 290.29675,508.562249 L289.323869,513.911647 C286.25555,514.654618 281.091793,515.546185 274.506133,515.546185 C262.906391,515.546185 258.341331,510.493976 258.341331,501.65261 C258.341331,499.423695 258.715516,496.971888 259.164538,494.297189 L259.688397,491.176707 C261.858672,478.323293 269.791399,472.60241 279.819564,472.60241 C289.398706,472.60241 295.161159,476.837349 295.161159,486.495984 Z M288.500661,486.495984 C288.500661,482.409639 286.779409,478.39759 279.520215,478.39759 C270.315258,478.39759 267.695962,485.307229 266.797917,490.285141 L266.648243,491.028112 L287.976802,491.028112 C288.27615,489.319277 288.500661,487.759036 288.500661,486.495984 Z M337.465852,473.64257 L314.041856,518.072289 C309.850981,525.947791 306.33364,531 297.877053,531 C294.359712,531 291.36623,530.554217 290.019163,530.257028 L290.917208,525.130522 C294.135201,525.353414 296.006127,525.427711 297.727379,525.427711 C303.190484,525.427711 304.31304,523.34739 307.531033,517.403614 L309.102611,514.506024 L300.571187,473.64257 L307.531033,473.64257 L311.871582,496.600402 C312.545115,500.240964 312.844463,503.064257 313.368323,507.447791 C315.239249,503.064257 316.511479,500.315261 318.457242,496.526104 L330.206659,473.64257 L337.465852,473.64257 Z M359.340032,495.560241 L340.855281,495.560241 L341.902999,489.987952 L360.38775,489.987952 L359.340032,495.560241 Z M412.196749,471.933735 C412.196749,478.917671 408.38006,483.895582 402.467933,486.198795 C406.060111,487.833333 408.305223,491.399598 408.305223,496.674699 C408.305223,512.945783 393.786835,514.654618 379.193611,514.654618 C375.376921,514.654618 371.560232,514.506024 368.04289,514.506024 L377.771707,459.303213 L392.14042,459.303213 C404.039511,459.303213 412.196749,460.566265 412.196749,471.933735 Z M401.27054,496.674699 C401.27054,491.771084 398.576406,488.799197 390.344331,488.799197 L379.492959,488.799197 L375.975618,508.487952 C377.996218,508.487952 380.241329,508.562249 382.486441,508.562249 C391.691398,508.562249 401.27054,507.522088 401.27054,496.674699 Z M405.236904,472.528112 C405.236904,466.064257 399.99831,465.321285 391.616561,465.321285 C389.146938,465.321285 387.799871,465.321285 383.608997,465.395582 L380.46584,482.929719 C382.561278,482.929719 384.656715,483.004016 386.677316,483.004016 C397.004828,483.004016 405.236904,482.186747 405.236904,472.528112 Z M455.32465,473.64257 L448.065457,514.506024 L441.404959,514.506024 L441.928819,511.311245 C436.540551,514.060241 431.825817,515.546185 427.335594,515.546185 C419.402867,515.546185 417.082918,511.014056 417.082918,504.995984 C417.082918,503.064257 417.30743,500.983936 417.681615,498.829317 L422.171838,473.64257 L428.832335,473.64257 L424.267275,499.720884 C423.89309,501.949799 423.668579,503.658635 423.668579,505.070281 C423.668579,508.636546 425.16532,509.825301 428.907172,509.825301 C432.574188,509.825301 437.064411,508.562249 442.826863,506.184739 L448.664153,473.64257 L455.32465,473.64257 Z M498.003529,483.301205 C498.003529,485.232932 497.704181,487.461847 497.329996,489.690763 L492.989447,514.506024 L486.254113,514.506024 L490.819173,488.650602 C491.118521,486.793173 491.343032,485.232932 491.343032,483.895582 C491.343032,480.106426 489.771454,478.39759 485.580579,478.39759 C481.988401,478.39759 477.647852,479.437751 472.184748,482.261044 L466.422295,514.506024 L459.68696,514.506024 L466.946154,473.64257 L473.606651,473.64257 L473.157629,476.614458 C478.246548,473.716867 482.961283,472.60241 487.07732,472.60241 C495.384233,472.60241 498.003529,476.985944 498.003529,483.301205 Z M546.145513,457 L535.967674,514.506024 L529.456851,514.506024 L529.756199,512.425703 C526.762717,514.060241 522.422168,515.546185 518.08162,515.546185 C509.69987,515.546185 505.13481,510.791165 505.13481,502.172691 C505.13481,500.538153 505.284484,498.680723 505.658669,496.748996 L506.930899,489.690763 C509.550196,475.054217 517.408086,472.60241 526.912391,472.60241 C530.205221,472.60241 533.198703,472.973896 536.416697,473.64257 L539.485016,457 L546.145513,457 Z M535.443815,479.214859 C532.225822,478.620482 528.708481,478.248996 526.463369,478.248996 C519.802872,478.248996 515.387486,480.106426 513.441723,491.028112 L512.169493,498.086345 C511.795307,500.092369 511.795307,500.983936 511.795307,502.172691 C511.795307,507.447791 514.339767,509.825301 519.952546,509.825301 C523.694398,509.825301 527.136902,508.785141 530.50457,507.299197 L535.443815,479.214859 Z M599.473014,486.495984 C599.473014,489.76506 599.023992,492.885542 598.200784,496.526104 L569.91238,496.526104 L569.538194,498.012048 C569.38852,498.75502 569.238846,500.538153 569.238846,501.949799 C569.238846,506.630522 571.483958,509.751004 579.940544,509.751004 C584.580441,509.751004 590.492568,509.230924 594.608606,508.562249 L593.635724,513.911647 C590.567405,514.654618 585.403649,515.546185 578.817988,515.546185 C567.218246,515.546185 562.653186,510.493976 562.653186,501.65261 C562.653186,499.423695 563.027371,496.971888 563.476393,494.297189 L564.000253,491.176707 C566.170527,478.323293 574.103254,472.60241 584.131419,472.60241 C593.710561,472.60241 599.473014,476.837349 599.473014,486.495984 Z M592.812517,486.495984 C592.812517,482.409639 591.091264,478.39759 583.832071,478.39759 C574.627114,478.39759 572.007817,485.307229 571.109772,490.285141 L570.960098,491.028112 L592.288657,491.028112 C592.588005,489.319277 592.812517,487.759036 592.812517,486.495984 Z M611.992562,514.506024 L605.257228,514.506024 L607.053317,504.253012 L613.788651,504.253012 L611.992562,514.506024 Z M676,459.303213 L647.86127,514.506024 L638.656313,514.506024 L630.124889,459.303213 L637.084735,459.303213 L643.071699,499.795181 C643.520721,502.915663 643.745232,506.481928 643.969743,509.305221 L644.119417,509.305221 C645.31681,506.407631 646.663877,502.915663 648.235455,499.795181 L668.665969,459.303213 L676,459.303213 Z M671.381864,514.506024 L664.64653,514.506024 L666.442619,504.253012 L673.177953,504.253012 L671.381864,514.506024 Z" id="Hockey-Bunde.V." fill-rule="nonzero"></path>
            <path d="M151.363139,388.916244 C151.363139,391.087563 151.138439,393.408629 150.689039,395.879442 L149.116137,404.939086 C146.644435,419.090102 138.480328,426.951777 120.654113,426.951777 L105,426.951777 L114.811908,371.321066 L129.417421,371.321066 C146.419735,371.321066 151.363139,378.284264 151.363139,388.916244 Z M144.322533,388.916244 C144.322533,380.305838 139.229329,377.46066 128.81822,377.46066 L120.654113,377.46066 L113.014307,420.887056 L121.178414,420.887056 C133.012624,420.887056 139.828529,417.143401 142.225331,403.591371 L143.798233,394.531726 C144.172733,392.435279 144.322533,390.563452 144.322533,388.916244 Z M192.707974,398.724619 C192.707974,402.019036 192.258574,405.163706 191.434673,408.832487 L163.122449,408.832487 L162.747949,410.329949 C162.598149,411.07868 162.448348,412.875635 162.448348,414.298223 C162.448348,419.015228 164.69535,422.159898 173.159057,422.159898 C177.802861,422.159898 183.719966,421.635787 187.83947,420.961929 L186.865769,426.352792 C183.794866,427.101523 178.626762,428 172.035556,428 C160.426047,428 155.857143,422.908629 155.857143,413.998731 C155.857143,411.752538 156.231643,409.281726 156.681044,406.586294 L157.205344,403.441624 C159.377446,390.488579 167.316853,384.72335 177.353461,384.72335 C186.940669,384.72335 192.707974,388.991117 192.707974,398.724619 Z M186.041868,398.724619 C186.041868,394.606599 184.319167,390.563452 177.053861,390.563452 C167.841153,390.563452 165.219651,397.52665 164.32085,402.543147 L164.17105,403.291878 L185.517568,403.291878 C185.817168,401.569797 186.041868,399.997462 186.041868,398.724619 Z M238.471912,385.771574 L231.206606,426.951777 L224.540501,426.951777 L225.064801,423.732234 C219.671997,426.502538 214.953293,428 210.459289,428 C202.519882,428 200.19798,423.432741 200.19798,417.36802 C200.19798,415.42132 200.42268,413.324873 200.797181,411.153553 L205.291185,385.771574 L211.95729,385.771574 L207.388386,412.05203 C207.013886,414.298223 206.789186,416.020305 206.789186,417.442893 C206.789186,421.036802 208.287187,422.234772 212.03219,422.234772 C215.702293,422.234772 220.196297,420.961929 225.963602,418.56599 L231.805807,385.771574 L238.471912,385.771574 Z M271.50284,385.771574 L270.529139,391.387056 L259.51883,391.387056 L254.949926,417.218274 C254.725226,418.491117 254.575426,419.53934 254.575426,420.288071 C254.575426,422.234772 255.549127,422.609137 258.320429,422.609137 C260.567431,422.609137 263.788134,422.384518 265.136335,422.234772 L264.312434,426.876904 C263.114033,427.251269 259.74353,428 256.522828,428 C250.455923,428 247.98422,425.454315 247.98422,420.437817 C247.98422,419.314721 248.134021,418.041878 248.358721,416.619289 L252.777825,391.387056 L244.613718,390.788071 L245.437618,385.771574 L253.751525,385.771574 L255.698927,375.064721 L262.439933,375.064721 L260.492531,385.771574 L271.50284,385.771574 Z M304.833368,386.220812 L303.934568,391.461929 C299.066064,390.788071 295.24616,390.488579 291.800757,390.488579 C287.606354,390.488579 282.43825,390.862944 282.43825,396.403553 C282.43825,398.724619 283.936251,399.997462 288.505155,402.019036 L291.351357,403.291878 C298.841363,406.661168 301.687566,409.206853 301.687566,415.196701 C301.687566,423.432741 295.17126,428 284.011151,428 C278.243846,428 272.102041,426.80203 270.90364,426.352792 L271.802441,421.261421 C276.146644,421.785533 279.142647,422.234772 284.835052,422.234772 C290.377656,422.234772 294.79676,421.111675 294.79676,415.720812 C294.79676,412.725888 293.448559,411.827411 287.681254,409.057107 L284.984852,407.784264 C278.543446,404.714467 275.622344,401.794416 275.622344,396.478426 C275.622344,386.89467 283.711551,384.72335 291.875657,384.72335 C297.717862,384.72335 302.211866,385.546954 304.833368,386.220812 Z M342.2085,386.145939 L341.309699,391.23731 C336.366295,390.713198 332.771092,390.488579 330.59899,390.488579 C324.007785,390.488579 319.363981,392.959391 317.641279,403.217005 L316.592678,409.431472 C316.293078,411.153553 316.143278,412.725888 316.143278,414.073604 C316.143278,420.51269 319.06438,422.234772 325.056385,422.234772 C327.228487,422.234772 330.82369,422.010152 335.916895,421.486041 L335.018094,426.577411 C333.520093,427.02665 329.026089,428 323.633284,428 C313.371976,428 309.552072,422.234772 309.552072,414.073604 C309.552072,412.27665 309.701873,410.329949 310.076373,408.308376 L311.124974,402.093909 C313.147275,390.114213 319.513781,384.72335 330.67389,384.72335 C336.665895,384.72335 340.860299,385.696701 342.2085,386.145939 Z M382.579634,395.430203 C382.579634,396.703046 382.354934,399.024112 381.830633,401.944162 L377.48643,426.951777 L370.745424,426.951777 L375.314328,400.895939 C375.613928,399.098985 375.763728,397.676396 375.763728,396.403553 C375.763728,391.986041 373.741426,390.563452 369.322323,390.563452 C364.678519,390.563452 359.660215,392.21066 356.814012,393.483503 L350.896907,426.951777 L344.155902,426.951777 L354.49211,369 L361.158216,369 L357.787713,388.09264 C360.559015,386.744924 365.80202,384.72335 371.719125,384.72335 C379.733432,384.72335 382.579634,388.766497 382.579634,395.430203 Z M426.620871,398.724619 C426.620871,402.019036 426.171471,405.163706 425.34757,408.832487 L397.035346,408.832487 L396.660846,410.329949 C396.511046,411.07868 396.361246,412.875635 396.361246,414.298223 C396.361246,419.015228 398.608247,422.159898 407.071955,422.159898 C411.715758,422.159898 417.632863,421.635787 421.752367,420.961929 L420.778666,426.352792 C417.707764,427.101523 412.539659,428 405.948454,428 C394.338944,428 389.77004,422.908629 389.77004,413.998731 C389.77004,411.752538 390.14454,409.281726 390.593941,406.586294 L391.118241,403.441624 C393.290343,390.488579 401.22975,384.72335 411.266358,384.72335 C420.853566,384.72335 426.620871,388.991117 426.620871,398.724619 Z M419.954765,398.724619 C419.954765,394.606599 418.232064,390.563452 410.966758,390.563452 C401.75405,390.563452 399.132548,397.52665 398.233747,402.543147 L398.083947,403.291878 L419.430465,403.291878 C419.730065,401.569797 419.954765,399.997462 419.954765,398.724619 Z M461,384.72335 L459.951399,390.713198 C454.558595,390.713198 448.192089,392.21066 444.746686,394.232234 L438.904481,426.951777 L432.163476,426.951777 L439.503682,385.771574 L446.019987,385.771574 L445.495687,389.06599 C449.989691,385.996193 455.232695,384.72335 461,384.72335 Z" id="Deutscher" fill-rule="nonzero"></path>
            <g id="Flag" transform="translate(0.000000, 68.000000)">
                <polygon id="Gold" points="25.8040147 301.456265 57.6700434 301.456265 31.6461199 449 0 449"></polygon>
                <polygon id="Rot" points="52.3590386 150.728132 84.2250673 150.728132 58.2011438 298.271868 26.5550239 298.271868"></polygon>
                <polygon id="Schwarz" points="78.9140625 0 110.780091 5.11895162e-16 84.7561678 147.543735 53.1100478 147.543735"></polygon>
            </g>
        </g>
    </g>
</svg>
