<?xml version="1.0" encoding="UTF-8" standalone="no"?>
<!DOCTYPE svg PUBLIC "-//W3C//DTD SVG 1.1//EN" "http://www.w3.org/Graphics/SVG/1.1/DTD/svg11.dtd">
<svg width="1924px" height="356px" viewBox="0 0 1924 356" version="1.1" xmlns="http://www.w3.org/2000/svg" xmlns:xlink="http://www.w3.org/1999/xlink">
    <g id="Symbols" stroke="none" stroke-width="1" fill="none" fill-rule="evenodd">
        <g id="Artboard" fill-rule="nonzero">
            <g id="EuroHockey" transform="translate(962.000000, 177.574279) scale(-1, 1) rotate(-180.000000) translate(-962.000000, -177.574279) translate(0.000000, 0.000000)">
                <path d="M780,354.848559 C780,354.648559 779.1,350.248559 778,345.048559 C775.5,333.348559 771,311.448559 763.1,272.648559 C759.8,256.148559 756.4,239.548559 755.6,235.648559 C754.8,231.848559 751.2,213.348559 747.5,194.648559 C743.9,175.948559 740,156.348559 738.9,151.148559 C735.7,135.348559 736.6,125.448559 741.7,120.848559 C744.6,118.348559 752.7,117.548559 757,119.448559 C758.9,120.248559 763.6,123.448559 767.4,126.548559 C776.5,134.048559 779.8,135.348559 788.5,134.948559 C798,134.548559 804.3,130.748559 808.3,123.048559 C810.9,118.148559 811.1,116.948559 810.8,109.148559 C810.3,96.8485588 806.3,88.5485588 796.2,78.9485588 L788.7,71.8485588 L795,72.4485588 C798.5,72.8485588 805.3,73.1485588 810.1,73.1485588 L819,73.1485588 L819,134.148559 L819,195.148559 L865.8,194.948559 L912.5,194.648559 L912.8,133.948559 L913,73.1485588 L945.5,73.1485588 L978,73.1485588 L978.1,117.948559 L978.1,162.648559 L980.4,151.648559 C985.1,129.348559 993.5,112.848559 1007.2,98.9485588 C1026.4,79.5485588 1052.6,69.1485588 1082.5,69.1485588 C1140.9,69.1485588 1182.2,107.548559 1187.3,166.648559 C1187.4,168.348559 1188.3,164.448559 1189.3,158.148559 C1193.5,132.148559 1203.2,111.948559 1219.2,96.2485588 C1231,84.5485588 1244.5,77.0485588 1261.6,72.4485588 C1270.3,70.1485588 1273.5,69.8485588 1287.5,69.7485588 C1304.9,69.6485588 1313.6,71.0485588 1326,75.9485588 C1339.3,81.2485588 1347.6,86.7485588 1357.2,96.9485588 C1365.1,105.348559 1370.4,113.948559 1374.7,125.148559 L1377.9,133.648559 L1378,104.448559 L1378,75.1485588 L1408,75.1485588 L1438,75.1485588 L1438,106.448559 L1438.1,137.648559 L1453.2,154.448559 C1461.5,163.748559 1468.6,170.948559 1469,170.448559 C1469.4,170.048559 1478.4,152.548559 1489,131.648559 C1499.6,110.748559 1510.5,89.4485588 1513.2,84.4485588 L1518.1,75.1485588 L1549.6,75.1485588 C1566.9,75.1485588 1581,75.4485588 1581,75.7485588 C1581,76.1485588 1577.6,82.8485588 1573.5,90.6485588 C1569.4,98.5485588 1566,105.348559 1566,105.748559 C1566,106.248559 1568,104.348559 1570.5,101.548559 C1579,91.7485588 1596.1,80.5485588 1610.1,75.5485588 C1619.1,72.4485588 1632.9,69.9485588 1645,69.4485588 C1691.3,67.4485588 1728.6,86.6485588 1746.2,121.548559 C1750.3,129.748559 1753.3,137.148559 1752.7,137.848559 C1752.5,137.948559 1741.4,139.048559 1727.9,140.148559 C1714.5,141.248559 1701.6,142.348559 1699.3,142.648559 L1695.1,143.248559 L1691.7,135.948559 C1687.5,126.848559 1680.9,120.148559 1672,115.948559 C1666.4,113.248559 1664.1,112.748559 1655.4,112.348559 C1636.3,111.448559 1624.7,117.348559 1615.6,132.448559 C1611.5,139.348559 1608,152.948559 1608,162.048559 L1608,168.148559 L1681.1,168.148559 L1754.3,168.148559 L1753.8,184.648559 C1753.5,193.748559 1753.4,201.048559 1753.6,200.948559 C1753.7,200.748559 1761.8,179.448559 1771.5,153.648559 C1781.2,127.748559 1791.6,100.148559 1794.6,92.2485588 L1800.1,77.9485588 L1798.5,71.8485588 C1795.4,59.6485588 1790.6,53.5485588 1780.4,48.9485588 C1776.1,46.9485588 1773.8,46.7485588 1761,46.6485588 C1753,46.6485588 1743,47.0485588 1738.8,47.5485588 L1731,48.3485588 L1731,25.4485588 L1731,2.44855876 L1741.8,1.34855876 C1792.8,-4.25144124 1819.3,7.24855876 1835.9,42.2485588 C1839.4,49.5485588 1924,282.548559 1924,284.748559 C1924,284.948559 1913.5,285.148559 1900.6,285.148559 L1877.2,285.148559 L1865,247.848559 C1858.3,227.448559 1848.3,196.748559 1842.7,179.648559 C1837.2,162.648559 1832.3,148.348559 1832,147.848559 C1831.6,147.448559 1826,163.848559 1819.5,184.348559 C1813,204.848559 1805.6,228.248559 1803,236.348559 C1800.4,244.448559 1795.8,258.748559 1792.9,268.148559 L1787.5,285.148559 L1754.8,285.148559 L1722.1,285.148559 L1724.6,278.448559 C1732.5,257.648559 1735,250.848559 1735,250.548559 C1735,250.348559 1730.4,254.848559 1724.8,260.548559 C1711.4,273.948559 1700.2,280.348559 1681.3,285.248559 C1671.2,287.848559 1648.8,288.848559 1636.7,287.248559 C1589.9,280.948559 1555.9,249.948559 1545.7,204.148559 C1542.7,190.548559 1542.7,164.848559 1545.8,150.748559 C1547,145.248559 1547.9,140.748559 1547.7,140.548559 C1547.4,140.148559 1510,211.748559 1510,212.948559 C1510,213.448559 1524.2,229.448559 1541.6,248.248559 L1573.2,282.648559 L1546.3,282.948559 C1531.6,283.048559 1518.6,282.948559 1517.5,282.648559 C1516.4,282.348559 1498.2,262.148559 1477,237.848559 L1438.5,193.648559 L1438.2,274.448559 L1438,355.148559 L1408,355.148559 L1378,355.148559 L1377.8,288.948559 C1377.5,222.848559 1377.5,222.648559 1375.7,228.648559 C1372.8,237.748559 1366.7,249.848559 1360.9,257.448559 C1351.4,269.948559 1337.1,279.348559 1319.5,284.748559 C1311.1,287.348559 1309.2,287.448559 1292,287.548559 C1276.1,287.548559 1272.3,287.248559 1265.4,285.448559 C1245.5,280.148559 1231.3,272.448559 1218.9,260.148559 C1202.4,243.748559 1192.8,223.348559 1189.1,196.648559 C1188.5,192.348559 1187.8,188.648559 1187.6,188.448559 C1187.4,188.248559 1187,191.348559 1186.7,195.348559 C1185.3,212.048559 1177.2,234.048559 1167.6,247.548559 C1157.3,261.948559 1140.4,274.848559 1123.6,281.148559 C1108.9,286.648559 1102.2,287.648559 1082,287.648559 C1066.2,287.548559 1062.3,287.248559 1055.1,285.348559 C1014,274.548559 989.1,247.748559 980,204.348559 L978.1,195.648559 L978.1,275.448559 L978,355.148559 L945.5,355.148559 L913,355.148559 L912.8,300.948559 L912.5,246.648559 L865.8,246.348559 L819,246.148559 L819,300.648559 L819,355.148559 L799.5,355.148559 C788.8,355.148559 780,354.948559 780,354.848559 Z M1658.3,248.148559 C1670.6,246.148559 1680.3,239.348559 1685.5,229.248559 C1688.5,223.148559 1691,213.348559 1691,206.948559 L1691,202.148559 L1650,202.148559 L1609,202.148559 L1609,205.948559 C1609,207.948559 1609.7,212.448559 1610.5,215.948559 C1616.1,239.548559 1634.6,252.048559 1658.3,248.148559 Z M1093.6,245.048559 C1104.8,241.548559 1114,230.848559 1118.4,216.148559 C1124.4,196.248559 1124.4,159.348559 1118.4,141.548559 C1113.8,127.848559 1106.8,118.648559 1097.5,114.148559 C1093.2,112.048559 1091,111.748559 1082.5,111.648559 C1073.5,111.648559 1071.9,111.948559 1066.8,114.448559 C1052.9,121.248559 1045.5,136.848559 1042.8,165.248559 C1040.7,187.548559 1044.2,213.948559 1051.1,227.348559 C1053.6,232.348559 1060.1,239.448559 1064.7,242.248559 C1072.8,247.248559 1083.2,248.248559 1093.6,245.048559 Z M1302.5,243.748559 C1313.4,238.748559 1322,224.848559 1324.5,208.448559 C1324.9,206.048559 1325.7,204.148559 1326.3,204.148559 C1327,204.148559 1338.1,205.248559 1351,206.648559 C1363.9,208.048559 1375.3,209.148559 1376.3,209.148559 C1377.9,209.148559 1378,207.048559 1378,178.648559 C1378,161.848559 1377.8,148.148559 1377.5,148.148559 C1377.3,148.148559 1369.1,149.048559 1359.3,150.248559 C1330.7,153.548559 1327.9,153.848559 1327.5,153.248559 C1327.3,152.848559 1326.9,150.848559 1326.5,148.648559 C1324.4,136.048559 1317.4,122.748559 1310.3,117.848559 C1303.6,113.248559 1299,111.748559 1291,111.748559 C1277.7,111.748559 1268,118.348559 1261.1,132.048559 C1254.5,145.048559 1251.4,168.748559 1253.1,192.448559 C1255.3,221.748559 1264,238.848559 1279.6,244.548559 C1285.9,246.948559 1296.6,246.548559 1302.5,243.748559 Z" id="Shape" fill="#ffffff"></path>
                <path d="M0,213.648559 L0,73.1485588 L100,73.1485588 L200,73.1485588 L200.2,91.9485588 C200.4,103.648559 200.8,109.948559 201.4,108.648559 C206.9,95.9485588 210.4,90.0485588 215.4,84.9485588 C226.8,73.4485588 238.4,69.1485588 260,68.4485588 C276.8,67.8485588 284.2,69.1485588 295.6,74.6485588 C304.5,78.9485588 316.2,89.6485588 322.2,98.9485588 L326.5,105.648559 L326.8,89.3485588 L327,73.1485588 L355,73.1485588 L383,73.1485588 L383,177.148559 L383,281.148559 L353.1,281.148559 L323.1,281.148559 L322.8,214.948559 C322.4,152.648559 322.3,148.248559 320.4,141.548559 C315,122.148559 301.6,111.348559 283.9,112.348559 C274.8,112.848559 269.1,115.648559 264.3,121.948559 C257.4,131.048559 257.6,128.648559 257.2,208.948559 L256.9,281.148559 L226.9,281.148559 L196.9,281.148559 L197.2,202.648559 L197.5,124.148559 L130,124.348559 L62.5,124.648559 L62.5,159.648559 L62.5,194.648559 L117.3,194.948559 L172,195.148559 L172,218.648559 L172,242.148559 L117.3,242.348559 L62.5,242.648559 L62.5,273.148559 L62.5,303.648559 L130.3,303.948559 L198,304.148559 L198,329.148559 L198,354.148559 L99,354.148559 L0,354.148559 L0,213.648559 Z" id="Path" fill="#ffffff"></path>
                <path d="M494.2,285.648559 C475.8,281.648559 462.1,268.948559 454.5,249.048559 C452.9,244.948559 451.3,241.248559 450.8,240.748559 C450.4,240.148559 450,249.048559 450,260.448559 L450,281.148559 L423.5,281.148559 L397,281.148559 L397,177.148559 L397,73.1485588 L426.9,73.1485588 L456.9,73.1485588 L457.2,132.448559 L457.5,191.648559 L460.2,198.948559 C465.2,212.748559 472,220.748559 483.5,226.148559 C492.1,230.148559 507,232.348559 513.7,230.548559 L515.8,229.948559 L513.3,223.348559 C501.6,192.348559 502.8,153.248559 516.3,124.748559 C522.1,112.548559 527.2,105.148559 535.7,96.8485588 C555.7,77.1485588 579.1,68.1485588 610,68.1485588 C637.4,68.1485588 662.5,76.7485588 681.3,92.4485588 L684.2,94.8485588 L681.2,100.248559 C679.5,103.248559 677.1,109.048559 675.8,113.148559 C673.8,119.748559 673.5,122.648559 673.6,136.648559 C673.6,157.348559 673.8,158.348559 690.3,220.148559 C692.3,227.548559 694.6,235.848559 695.4,238.548559 C696.9,243.348559 696.8,243.448559 694.2,247.048559 C683.7,261.148559 666.5,274.048559 650.5,279.848559 C634.5,285.548559 613.8,288.048559 597.7,286.248559 C565.1,282.548559 539.4,267.548559 523.1,242.648559 L518.5,235.648559 L518.2,260.748559 L518,285.848559 L514.2,286.548559 C508.5,287.448559 501.1,287.148559 494.2,285.648559 Z M624.4,242.748559 C636.6,237.348559 644.5,224.748559 649.1,203.648559 C650.9,195.448559 650.9,158.548559 649.1,151.148559 C645.3,134.948559 642.1,127.648559 635.6,120.548559 C629,113.148559 621,109.748559 610.5,109.848559 C593,110.048559 581.8,118.748559 575.3,137.248559 C569,155.448559 568.1,190.748559 573.5,211.748559 C577.9,228.648559 587.4,240.348559 600,244.248559 C601.4,244.648559 606.2,245.048559 610.7,245.048559 C617.4,245.148559 620,244.648559 624.4,242.748559 Z" id="Shape" fill="#ffffff"></path>
            </g>
        </g>
    </g>
</svg>
