<?xml version="1.0" encoding="UTF-8" standalone="no"?>
<svg
 xmlns:svg="http://www.w3.org/2000/svg"
 xmlns="http://www.w3.org/2000/svg"
 version="1.0"
 width="415"
 height="200"
 id="svg2"><defs
 id="defs4" /><path
 d="M 0,0 L 0,40 L 0,75 L 0,115 L 0,200 L 53,200 L 53,115 L 135,115 L 135,75 L 53,75 L 53,40 L 135,40 L 135,0 L 53,0 L 0,0 z"
 id="F"
 style="fill:#b70002" /><path
 d="M 145,0 L 145,200 L 220,200 L 220,199.1875 C 192,195 178,170 185,140 L 220,0 L 145,0 z"
 id="I"
 style="fill:#b70002" /><path
 d="M 250,0 L 225,140 C 221,162 222,172 235,170 C 248,168 249,153 260,155 C 271,157 276,165 275,175 C 274,185 266,200 230,200 L 295,200 L 295,120 L 365,120 L 365,200 L 415,200 L 415,0 L 365,0 L 365,75 L 295,75 L 295,0 L 250,0 z M 230,200 L 230,200 z"
 id="H"
 style="fill:#003884" />
</svg>
