<?xml version="1.0" encoding="UTF-8" standalone="no"?>
<svg width="1498px" height="965px" viewBox="0 0 1498 965" version="1.1" xmlns="http://www.w3.org/2000/svg" xmlns:xlink="http://www.w3.org/1999/xlink">
    <g id="Page-1" stroke="none" stroke-width="1" fill="none" fill-rule="evenodd">
        <g id="Artboard">
            <rect id="Background" fill="#FFCC33" x="0" y="0" width="1498" height="965"></rect>
            <path d="M1496.3418,396.082031 L1496.3418,405.657227 C1489.78581,406.174805 1484.26497,407.986328 1479.7793,411.091797 C1475.29362,414.197266 1471.32552,418.941732 1467.875,425.325195 C1466.83984,427.395508 1461.40527,440.766276 1451.57129,465.4375 L1341.58594,755.022461 L1331.49316,755.022461 L1244.54004,528.84082 L1148.78809,755.022461 L1139.21289,755.022461 L1023.79297,468.542969 C1012.0612,439.73112 1003.86621,422.30599 999.208008,416.267578 C994.549805,410.229167 986.69987,406.692383 975.658203,405.657227 L975.658203,396.082031 L1127.82617,396.082031 L1127.82617,405.657227 C1115.57682,406.002279 1107.42497,407.856934 1103.37061,411.221191 C1099.31624,414.585449 1097.28906,418.769206 1097.28906,423.772461 C1097.28906,430.328451 1101.51595,444.216797 1109.96973,465.4375 L1178.80762,635.720703 L1233.92969,502.703125 L1219.4375,465.4375 C1211.5013,445.079427 1205.37663,431.493001 1201.06348,424.678223 C1196.75033,417.863444 1191.7902,412.989583 1186.18311,410.056641 C1180.57601,407.123698 1172.33789,405.657227 1161.46875,405.657227 L1161.46875,396.082031 L1331.49316,396.082031 L1331.49316,405.657227 C1319.58887,405.829753 1311.04883,406.778646 1305.87305,408.503906 C1302.25,409.711589 1299.40332,411.73877 1297.33301,414.585449 C1295.2627,417.432129 1294.22754,420.666992 1294.22754,424.290039 C1294.22754,428.258138 1298.10938,440.421224 1305.87305,460.779297 L1369.79395,626.921875 L1426.98633,476.56543 C1433.02474,461.038086 1436.73405,450.427734 1438.11426,444.734375 C1439.49447,439.041016 1440.18457,433.778971 1440.18457,428.948242 C1440.18457,421.874674 1437.76921,416.31071 1432.93848,412.256348 C1428.10775,408.201986 1418.8776,406.002279 1405.24805,405.657227 L1405.24805,396.082031 L1496.3418,396.082031 Z" id="Path" fill="#1B1A1C" fill-rule="nonzero"></path>
            <path d="M918.756836,560.930664 C952.054362,568.694336 975.431641,578.097005 988.888672,589.138672 C1008.21159,604.838542 1017.87305,625.196615 1017.87305,650.212891 C1017.87305,676.609375 1007.2627,698.433919 986.041992,715.686523 C959.99056,736.562174 922.121094,747 872.433594,747 L694.12793,747 L694.12793,737.424805 C710.345378,737.424805 721.343913,735.915202 727.123535,732.895996 C732.903158,729.87679 736.95752,725.951823 739.286621,721.121094 C741.615723,716.290365 742.780273,704.386068 742.780273,685.408203 L742.780273,457.673828 C742.780273,438.695964 741.615723,426.748535 739.286621,421.831543 C736.95752,416.914551 732.860026,412.989583 726.994141,410.056641 C721.128255,407.123698 710.172852,405.657227 694.12793,405.657227 L694.12793,396.082031 L862.34082,396.082031 C902.539388,396.082031 931.006185,399.661947 947.741211,406.821777 C964.476237,413.981608 977.674479,424.678223 987.335938,438.911621 C996.997396,453.14502 1001.82812,468.28418 1001.82812,484.329102 C1001.82812,501.236654 995.703451,516.289551 983.454102,529.487793 C971.204753,542.686035 949.638997,553.166992 918.756836,560.930664 Z M824.557617,553.943359 C849.056315,553.943359 867.128418,551.182943 878.773926,545.662109 C890.419434,540.141276 899.347656,532.377604 905.558594,522.371094 C911.769531,512.364583 914.875,499.597656 914.875,484.070312 C914.875,468.542969 911.812663,455.819173 905.687988,445.898926 C899.563314,435.978678 890.807617,428.430664 879.420898,423.254883 C868.03418,418.079102 849.746419,415.577474 824.557617,415.75 L824.557617,553.943359 Z M824.557617,574.128906 L824.557617,686.702148 L824.298828,699.641602 C824.298828,708.958008 826.671061,715.988444 831.415527,720.73291 C836.159993,725.477376 843.19043,727.849609 852.506836,727.849609 C866.308919,727.849609 879.032715,724.787272 890.678223,718.662598 C902.32373,712.537923 911.251953,703.652832 917.462891,692.007324 C923.673828,680.361816 926.779297,667.379232 926.779297,653.05957 C926.779297,636.669596 922.983724,621.961751 915.392578,608.936035 C907.801432,595.910319 897.363607,586.80957 884.079102,581.633789 C870.794596,576.458008 850.954102,573.95638 824.557617,574.128906 Z" id="Shape" fill="#1B1A1C" fill-rule="nonzero"></path>
            <path d="M162.921875,578.269531 L162.921875,686.960938 C162.921875,704.903646 163.9139,716.117839 165.897949,720.603516 C167.881999,725.089193 171.763835,729.01416 177.543457,732.378418 C183.323079,735.742676 191.129883,737.424805 200.963867,737.424805 L212.609375,737.424805 L212.609375,747 L29.1279297,747 L29.1279297,737.424805 L40.7734375,737.424805 C50.952474,737.424805 59.1474609,735.613281 65.3583984,731.990234 C69.8440755,729.57487 73.2945964,725.434245 75.7099609,719.568359 C77.6077474,715.427734 78.5566406,704.558594 78.5566406,686.960938 L78.5566406,456.121094 C78.5566406,438.178385 77.6077474,426.964193 75.7099609,422.478516 C73.8121745,417.992839 69.9734701,414.067871 64.1938477,410.703613 C58.4142253,407.339355 50.6074219,405.657227 40.7734375,405.657227 L29.1279297,405.657227 L29.1279297,396.082031 L212.609375,396.082031 L212.609375,405.657227 L200.963867,405.657227 C190.784831,405.657227 182.589844,407.46875 176.378906,411.091797 C171.893229,413.507161 168.356445,417.647786 165.768555,423.513672 C163.870768,427.654297 162.921875,438.523438 162.921875,456.121094 L162.921875,555.496094 L286.881836,555.496094 L286.881836,456.121094 C286.881836,438.178385 285.932943,426.964193 284.035156,422.478516 C282.13737,417.992839 278.255534,414.067871 272.389648,410.703613 C266.523763,407.339355 258.673828,405.657227 248.839844,405.657227 L237.453125,405.657227 L237.453125,396.082031 L420.675781,396.082031 L420.675781,405.657227 L409.289062,405.657227 C398.9375,405.657227 390.742513,407.46875 384.704102,411.091797 C380.218424,413.507161 376.681641,417.647786 374.09375,423.513672 C372.195964,427.654297 371.24707,438.523438 371.24707,456.121094 L371.24707,686.960938 C371.24707,704.903646 372.195964,716.117839 374.09375,720.603516 C375.991536,725.089193 379.873372,729.01416 385.739258,732.378418 C391.605143,735.742676 399.455078,737.424805 409.289062,737.424805 L420.675781,737.424805 L420.675781,747 L237.453125,747 L237.453125,737.424805 L248.839844,737.424805 C259.191406,737.424805 267.386393,735.613281 273.424805,731.990234 C277.910482,729.57487 281.447266,725.434245 284.035156,719.568359 C285.932943,715.427734 286.881836,704.558594 286.881836,686.960938 L286.881836,578.269531 L162.921875,578.269531 Z" id="Path" fill="#1B1A1C" fill-rule="nonzero"></path>
            <path d="M457.517048,79.1513856 C461.66217,80.3830419 464.834457,85.3624525 468.094864,88.9483319 C474.724945,96.2432564 480.932054,103.921754 487.646729,111.135741 C495.175624,119.218925 500.920989,127.935533 499.41944,139.565888 C498.189297,149.063718 501.731736,151.556108 511.713867,150.69043 C534.794021,148.688108 557.116299,155.32757 575.15604,169.104525 C585.558928,177.051474 594.876452,186.717487 604.101279,196.438593 L606.228892,198.682146 C608.710241,201.298998 611.190406,203.910565 613.688759,206.484375 C622.729778,215.799216 631.101092,225.799426 640.596806,234.699022 C641.207765,235.271449 641.820406,235.843548 642.433905,236.415845 L644.27615,238.133856 C651.34162,244.725878 658.411354,251.413706 664.230347,258.997842 C672.460671,269.72029 672.305581,281.684951 666.077323,294.085971 C664.195099,297.837244 664.41716,304.551531 666.606038,308.116296 C679.150672,328.547715 687.962582,349.767394 684.399046,374.316064 L684.320089,374.860018 L684.320089,374.860018 L684.082898,376.489757 C681.544495,393.854767 678.599258,410.570114 661.896953,422.252128 C653.122987,428.388675 645.356969,435.948487 637.589561,443.526327 L635.470385,445.592402 C631.935839,449.033085 628.382048,452.451099 624.71422,455.714471 C618.398156,461.330824 621.512599,464.939685 625.325673,468.242628 L625.627997,468.502782 C625.982031,468.805626 626.340042,469.106254 626.695208,469.405997 L626.99878,469.662733 C627.150059,469.791024 627.300457,469.919222 627.449437,470.047431 C641.862196,482.444932 656.514639,494.571468 670.98027,506.912665 C678.093243,512.979452 685.14982,518.440968 693.655076,523.145895 C705.797887,529.863701 718.624502,538.956843 719.153217,557.062191 C719.395464,565.296374 721.22068,573.479254 723.141012,581.66343 L723.690981,584.001846 C724.607626,587.899418 725.513707,591.798419 726.248567,595.704529 C730.266797,617.079044 717.729212,644.548499 699.160757,655.263909 C685.985189,662.868507 676.961794,658.043934 676.306188,642.767876 C675.587136,625.932894 675.097194,609.083835 674.734143,592.231258 C674.219528,568.372315 660.321384,555.302682 639.525277,547.004838 C627.111059,542.053579 614.897753,536.412593 603.188487,530.004461 C598.539324,527.460211 595.708938,521.776997 591.666034,517.923672 C586.844157,513.334873 582.142122,512.553651 580.097759,520.478479 C577.084086,532.151062 574.147958,543.862354 571.87801,555.689774 C571.384543,558.244581 573.411282,561.650991 575.032674,564.184684 C586.347166,581.857193 594.020576,600.384823 593.530634,622.051417 C593.157009,638.615435 597.083596,654.201166 611.313068,665.310706 C612.895687,666.545881 613.177668,669.66725 613.688759,671.993321 C614.883653,677.468913 615.419418,683.120456 617.002037,688.472883 C620.519751,700.363645 617.84798,707.746545 606.561686,712.462029 C598.715562,715.741754 590.16096,717.346426 582.314836,720.62967 C577.214502,722.765714 572.988311,726.893522 568.060691,729.557419 C567.04435,730.105782 566.024074,730.689307 564.999097,731.283263 L563.972526,731.879779 L563.972526,731.879779 L562.942651,732.477752 C558.644392,734.964713 554.255701,737.346514 549.721345,737.834149 C536.031162,739.312137 522.111869,739.093958 508.308894,738.742056 C505.277597,738.661119 500.286532,735.472888 499.874134,733.083475 C499.373618,730.173247 501.960795,725.626676 504.593793,723.473037 C519.274435,711.483742 534.296978,699.909692 549.354769,688.388426 C557.539271,682.125454 555.23738,675.14988 552.450723,668.787441 L552.226946,668.279779 C552.152136,668.111011 552.07717,667.942704 552.002239,667.774884 L551.777739,667.272906 C551.740403,667.189495 551.703123,667.106211 551.665923,667.023059 L551.443868,666.525741 C550.855286,665.203885 550.299265,663.917175 549.872909,662.67848 C547.727824,656.448219 544.246033,650.69974 540.717187,644.946099 L539.602754,643.128421 C537.376777,639.490449 535.18618,635.829972 533.355866,632.024314 C529.591418,624.198018 526.891449,615.752375 524.639125,607.338402 C521.65365,596.179596 519.193365,584.848358 517.219497,573.471372 C515.788443,565.212237 514.984797,556.759556 514.836757,548.380774 C514.516003,529.997423 514.237547,511.578883 514.991847,493.220165 C515.647453,477.342356 517.667141,461.499638 519.108771,445.667674 C519.562012,440.690186 521.733122,434.042549 521.274902,430.375732 C518.317625,431.646098 511.632747,436.778635 509.024421,438.555739 C499.627401,444.939238 490.484164,451.692233 481.171738,458.205936 C472.70878,464.128443 462.568989,469.886442 457.517048,478.87207 C449.450195,493.220165 438.627838,511.821695 415.138812,508.549008 C412.458409,508.174987 409.459168,510.54188 406.378505,513.008518 L405.482046,513.725047 C403.984853,514.915954 402.473976,516.070371 400.976311,516.889081 C385.558994,525.310091 293.347647,594.757913 278.83972,605.955428 C259.196211,621.115358 239.298919,627.076365 222.549241,616.748047 C211.414512,609.882443 205.303946,592.500573 209.808594,583.196289 C211.73664,579.21628 213.767322,575.529875 217.708008,574.727539 C220.570116,574.146901 227.236328,572.890734 229.94043,581.194336 C234.522393,595.264368 241.046875,601.546875 262.333251,586.470625 C265.984645,583.884495 294.250668,564.577684 323.394399,544.576766 L327.04022,542.074196 C357.431536,521.208637 387.70205,500.314506 391.022378,497.506329 C396.133285,493.184975 402.78804,490.545712 407.461876,485.868937 L407.970076,485.360064 C411.361255,481.961611 411.352084,481.870557 413.629883,476.939453 C414.443398,475.178536 414.542427,473.042386 414.554954,470.891773 L414.556823,470.085319 C414.557805,467.131005 414.543656,464.234606 416.146894,462.333984 C437.411795,437.123739 449.410091,401.665872 455.856884,370.585905 C459.194835,354.493435 462.591076,340.846353 450.114258,327.366211 C444.09082,320.858398 449.469302,307.155954 446.695312,301.588867 C442.021476,292.221241 434.422644,287.53704 429.079102,278.493164 C426.88709,274.784158 424.37341,272.001681 421.808565,269.285304 L421.277267,268.723956 C421.188625,268.630461 421.099944,268.536974 421.011236,268.44346 L420.478745,267.881767 C420.389971,267.788002 420.301192,267.69414 420.212418,267.600145 L419.679933,267.034296 C414.978489,262.016866 410.355394,256.42742 407.461876,245.013672 C404.022412,231.446387 407.805823,224.194184 412.588208,217.347494 L413.000428,216.76149 C413.069491,216.663943 413.138721,216.566443 413.208101,216.468975 L413.626027,215.8844 C413.905647,215.494748 414.187077,215.105041 414.469156,214.714178 L414.892615,214.126878 C416.234194,212.263474 417.577314,210.361528 418.797517,208.302868 C422.650084,201.796203 421.187307,198.273666 417.102105,192.579895 C415.128777,189.828975 412.822533,187.56031 410.508023,185.44597 L409.904263,184.897688 C403.869064,179.445563 397.969727,174.849605 397.969727,165.288086 C397.969727,158.944336 396.002869,155.591496 394.388527,155.000301 C380.540224,149.944739 379.680687,139.593373 380.153406,129.290614 L380.195019,128.444031 L380.195019,128.444031 L380.241195,127.598327 L380.241195,127.598327 L380.315865,126.33286 C380.486013,123.526203 380.672261,120.761663 380.634899,118.149144 C380.321195,96.3840171 399.901258,79.42235 420.073481,75.9772313 C433.182078,73.7426548 445.427108,75.5619872 457.517048,79.1513856 Z M495.848344,297 C494.78129,297.604868 493.710714,298.209736 492.64366,298.818141 C495.598308,312.666436 497.831023,326.723427 501.73299,340.299354 C505.018672,351.742326 506.18081,362.789126 501.497041,373.743958 C494.094572,391.055211 486.12512,408.122393 478.44092,425.31338 C476.532196,429.589903 474.806597,433.95132 473,438.27029 L473,438.27029 L475.338363,440 L475.338363,440 L520.925881,405.770129 C521.595906,402.297196 522.383825,398.814834 523.210754,395.326246 L523.567311,393.830766 L523.567311,393.830766 L523.927265,392.334579 C524.107861,391.586318 524.289214,390.837813 524.470547,390.089096 L525.01371,387.84234 C525.134055,387.342933 525.254046,386.843446 525.373453,386.343887 L525.729694,384.845009 C529.978051,366.856137 533.171861,348.787315 524.581334,331.074233 C520.347927,322.346093 513.228417,315.029742 506.042696,307.746736 L504.810736,306.49829 C504.605477,306.290184 504.400295,306.082042 504.195256,305.87383 L502.96727,304.62347 C500.516839,302.120061 498.105981,299.597423 495.848344,297 Z" id="Combined-Shape" fill="#969065"></path>
        </g>
    </g>
</svg>