<?xml version="1.0" encoding="UTF-8" standalone="no"?>
<!DOCTYPE svg PUBLIC "-//W3C//DTD SVG 1.1//EN" "http://www.w3.org/Graphics/SVG/1.1/DTD/svg11.dtd">
<svg width="500px" height="500px" viewBox="0 0 500 500" version="1.1" xmlns="http://www.w3.org/2000/svg" xmlns:xlink="http://www.w3.org/1999/xlink">
    <g id="Lion">
        <path d="M95.054,80.131 C95.68,105.588 99.518,262.773 99.518,262.8 C99.518,307.905 114.956,348.53 142.988,377.184 C170.323,405.123 208.158,420.502 249.523,420.502 C290.877,420.502 328.717,405.123 356.052,377.184 C384.084,348.531 399.517,307.906 399.517,262.767 C399.517,262.767 403.62,95.688 404.014,80.077 C408.484,78.976 90.471,79.1 95.054,80.131 Z" id="path2936" fill="#231F20"></path>
        <path d="M346.728,235.195 L341.26,232.043 C329.816,225.079 312.85,202.969 312.85,186.699 C312.85,185.706 312.882,184.756 312.931,183.816 C312.542,183.816 303.798,183.816 301.617,183.816 C300.813,186.607 299.334,190.067 297.067,193.046 C295.733,194.79 294.028,199.254 294.028,205.154 C294.028,206.109 294.076,207.092 294.174,208.112 L294.358,210.088 L292.425,210.515 C289.651,211.114 286.584,210.515 284.058,209.413 C284.123,212.441 285.516,215.777 286.644,217.24 L287.669,218.579 L286.67,219.939 C285.796,221.131 284.673,222.179 283.372,223.048 C285.779,225.65 288.122,227.734 290.223,229.105 C295.626,232.646 301.386,235.884 306.967,239.015 C323.533,248.311 339.172,257.099 339.172,271.101 C339.172,273.584 338.681,275.722 337.801,277.455 C340.014,278.777 342.291,279.311 345.665,279.311 C358.113,279.311 367.149,270.14 367.149,257.503 C367.149,246.687 356.763,240.852 346.728,235.195" id="path2938" fill="#00529F"></path>
        <path d="M249.256,135.542 C248.765,134.457 247.718,133.043 246.778,132.18 C244.699,130.237 242.135,129.205 240.289,128.8 C239.949,130.506 239.145,132.417 237.73,134.064 C237.023,134.878 236.478,135.775 235.922,136.174 C238.135,135.655 240.537,135.256 243.047,135.256 C245.131,135.256 247.35,135.375 249.249,135.542" id="path2940" fill="#00529F"></path>
        <path d="M0,0 L0,500 L500,500 L500,0 L0,0 Z M380.428,252.187 C380.606,254.066 380.806,256.328 380.806,258.827 C380.806,263.173 380.163,268.241 377.669,273.359 C379.969,273.116 382.263,273.515 384.287,274.649 L387.148,276.247 L384.616,278.347 C381.378,281.025 379.618,283.308 377.75,285.715 L376.293,287.572 C373.361,291.194 369.615,292.818 364.126,292.818 C362.074,292.818 360.056,292.1 358.258,290.789 C354.858,293.035 349.605,294.4 343.959,294.4 C336.596,294.4 330.15,292.241 326.971,290.966 C320.515,294.237 317.33,298.745 317.33,304.737 C317.33,311.733 323.101,318.535 329.184,319.026 C331.538,316.996 334.997,315.712 338.663,315.712 C345.616,315.712 351.272,321.931 351.272,329.553 C351.272,332.866 350.657,335.285 350.069,337.607 C349.48,339.928 348.929,342.109 348.929,345.332 C348.929,347.539 350.338,348.959 350.938,349.472 L352.39,350.687 L351.434,352.323 C349.42,355.766 344.611,357.019 338.84,355.832 C338.349,358.186 337.383,359.686 335.515,361.229 L334.705,361.904 L333.664,361.688 C331.915,361.337 330.463,360.473 329.367,359.205 C327.494,362.277 324.789,365.554 321.788,368.053 C323.1,369.419 323.883,371.038 323.883,372.733 C323.883,373.937 323.58,375.135 323.078,376.134 C324.319,377.618 324.957,379.216 324.957,380.911 C324.957,384.959 320.18,390.033 317.06,390.271 L315.521,390.384 L314.917,389.056 C313.52,386.308 312.245,385.148 311.247,384.7 C309.633,385.234 307.397,385.176 304.996,383.416 C304.024,385.229 302.566,386.902 300.866,387.955 C300.893,388.203 300.941,388.446 300.941,388.711 C300.941,390.174 300.531,391.734 299.727,393.245 C298.566,395.421 296.682,397.299 294.199,398.189 C293.011,401.585 290.837,404.883 287.435,406.74 L284.423,408.397 L284.158,404.942 C284.017,402.983 283.348,400.235 281.702,397.261 C280.239,396.699 278.761,395.587 277.832,394.453 C275.359,395.916 272.644,396.456 269.573,395.975 C267.894,396.65 266.048,398.156 263.608,401.308 L262.442,402.815 L260.79,401.897 C258.426,400.585 256.764,397.449 256.764,394.264 C256.764,390.62 257.832,387.878 260.618,386.281 C260.554,385.908 260.483,385.088 260.483,384.872 C260.483,381.714 261.692,379.268 264.203,377.267 C263.268,376.204 262.589,374.999 262.227,373.699 C260.974,373.974 259.895,374.584 259.004,375.523 L255.792,378.94 L255.192,374.276 C254.572,369.499 255.376,365.683 257.508,363.232 C259.138,361.348 261.502,360.366 264.315,360.366 C267.041,360.366 268.693,361.165 269.751,361.964 C270.761,361.661 271.781,361.505 272.774,361.505 C275.267,361.505 276.779,362.353 277.988,363.049 C279.16,363.713 280.077,364.237 282.123,364.237 C284.687,364.237 290.841,361.754 295.91,356.41 C298.345,353.835 301.076,349.954 302.187,344.853 C301.448,345.927 300.692,347.13 299.861,348.685 L298.997,350.327 L297.249,349.77 C293.578,348.625 290.76,345.198 289.399,340.664 C288.288,341.587 286.83,342.375 284.795,342.964 L281.961,343.774 L281.961,340.805 C281.961,334.652 280.957,333.604 275.381,327.796 L272.79,325.075 C264.207,315.973 262.496,308.373 262.496,299.078 C262.496,298.117 262.539,297.145 262.647,296.174 C261.362,296.12 260.212,296.099 259.224,296.099 C252.417,296.099 248.245,302.35 248.245,306.829 C248.245,308.589 248.747,309.528 249.509,310.948 C250.718,313.188 252.224,315.979 252.224,322.425 C252.224,334.618 244.704,341.431 237.358,346.494 L234.147,348.707 L233.877,344.67 C233.791,343.32 233.715,342.203 233.499,341.188 C231.275,343.564 228.5,345.561 225.796,346.591 L223.939,347.315 C223.939,347.315 222.465,344.427 221.904,343.336 C217.143,346.052 210.697,348.442 206.633,349.663 C206.665,349.992 206.719,350.332 206.719,350.65 C206.719,353.673 205.154,356.356 204.187,357.706 L204.198,357.937 C204.198,362.671 199.707,365.548 195.248,365.926 L191.966,366.207 L192.927,363.044 C193.71,360.533 191.475,359.19 191.475,359.19 C189.143,358.191 186.644,356.307 185.505,354.051 C184.625,354.38 183.696,354.601 182.768,354.737 C182.719,358.618 181.386,361.112 180.177,362.564 C178.569,364.48 176.075,365.797 173.419,366.229 C172.339,368.361 171.098,370.121 169.29,371.605 L168.151,372.55 L166.85,371.848 C164.297,370.488 160.939,366.904 160.821,363.449 L160.788,362.996 C159.558,362.121 158.548,360.566 158.121,359.045 C157.943,358.375 157.851,357.651 157.851,356.912 C157.851,355.778 158.083,354.575 158.477,353.382 C158.185,353.382 157.905,353.393 157.602,353.393 C155.864,353.393 154.32,352.654 153.062,351.471 C151.761,352.367 150.411,353.598 149.607,355.169 L148.09,358.138 L145.942,355.595 C144.495,353.879 142.827,351.374 142.827,347.12 C142.827,341.943 146.481,337.971 151.842,337.161 C153.683,334.964 156.414,333.636 158.967,333.636 C160.009,333.636 160.964,333.734 161.882,333.868 C161.882,333.841 161.882,333.808 161.877,333.776 C160.641,333.28 159.107,333.08 157.31,333.188 L154.794,333.334 L154.967,330.808 C155.221,326.695 159.015,322.106 163.696,322.106 C166.848,322.106 168.387,322.943 169.866,324.288 C170.638,324.158 171.437,324.083 172.225,324.083 C175.944,324.083 177.855,325.718 179.388,327.03 C180.614,328.066 181.347,328.692 182.946,328.692 C186.212,328.692 196.414,326.452 200.721,321.362 C199.491,320.967 198.33,320.401 197.385,319.667 L195.469,318.177 L197.115,316.374 C199.733,313.519 200.246,312.056 200.246,301.621 C200.246,292.52 204.759,283.943 212.958,277.492 C221.185,271.004 232.278,267.441 244.207,267.441 L251.602,267.587 L259.505,267.728 C259.651,267.728 260.746,267.636 262.835,265.229 C246.366,263.798 232.088,259.771 217.8,247.14 C216.936,249.553 215.425,251.367 213.352,252.381 L212.256,252.915 L211.225,252.272 C207.738,250.14 204.752,248.51 199.7,247.83 C198.982,251.296 196.353,254.557 194.145,255.781 L192.445,256.737 L190.28,253.757 C188.65,251.495 187.084,249.331 185.686,248.435 C185.022,250.287 183.834,251.895 182.134,253.061 L180.92,253.887 L178.788,252.516 C174.459,249.731 171.328,247.712 164.775,247.712 C161.682,247.712 158.864,248.629 157.169,249.412 C157.617,250.416 157.785,251.501 157.833,252.812 C157.833,252.872 157.833,252.925 157.833,252.985 C157.833,255.219 156.521,257.32 155.377,258.459 C154.972,258.864 154.108,259.463 153.574,259.7 C152.85,261.827 151.793,264.543 148.165,266.912 L146.535,267.986 L145.261,266.485 C143.906,264.882 143.096,263.457 142.475,262.006 C140.964,261.65 138.896,260.623 137.698,259.275 C137.266,260.042 136.866,261.18 136.866,262.761 C136.866,265.401 134.431,267.911 131.986,268.753 C131.376,270.718 131.063,272.369 131.117,273.466 L131.225,275.673 L129.055,275.819 C126.961,275.965 124.742,275.144 122.955,273.573 C121.292,272.099 120.272,270.177 120.148,268.283 L120.148,267.662 C118.27,266.367 117.287,264.1 117.287,261.034 C117.287,260.375 117.341,259.674 117.428,258.939 C117.061,258.809 116.699,258.68 116.354,258.475 C116.17,258.372 115.955,258.221 115.733,258.042 C114.351,258.68 113.293,259.91 112.559,261.734 L111.371,264.752 L108.812,262.377 C107.127,260.833 104.602,258.496 104.602,254.27 C104.602,251.176 106.232,248.575 109.136,246.928 C109.125,246.74 109.104,246.55 109.104,246.345 C109.104,245.072 109.444,243.69 110.329,242.426 C111.285,241.05 112.753,240.121 114.599,239.538 C113.606,238.264 112.871,236.774 112.623,235.117 C111.133,234.378 109.476,234 107.716,234 L104.402,234 L105.659,230.901 C106.992,227.64 110.334,223.83 115.376,223.83 C116.412,223.83 118.69,223.835 120.958,224.877 C121.444,224.774 121.935,224.715 122.426,224.715 C124.558,224.715 126.253,225.924 127.889,227.096 C129.432,228.202 130.89,229.249 132.553,229.249 C133.659,229.238 138.194,227.316 141.19,226.048 C144.618,224.597 148.165,223.107 150.529,222.507 C153.595,221.736 159.5,218.588 166.901,213.784 C166.453,213.012 166.053,212.213 165.713,211.371 L164.865,209.309 L166.906,208.445 C167.899,208.035 168.677,207.592 169.324,207.085 C169.254,205.293 168.816,202.972 167.494,200.316 C164.941,202.642 161.016,203.716 157.756,203.187 L155.094,202.755 L156.023,200.196 C157.292,196.736 157.923,193.362 157.923,189.907 C157.923,187.942 157.696,185.94 157.292,183.884 C155.138,185.692 152.412,185.713 151.17,185.713 C151.165,185.713 148.93,185.713 148.93,185.713 L148.919,183.495 C148.871,177.433 147.753,169.881 140.773,159.787 C140.552,159.905 140.303,160.003 140.071,160.089 C137.944,163.7 134.009,166.21 130.252,166.21 C126.095,166.21 123.186,163.608 121.836,161.158 L120.362,158.47 L123.347,157.876 C125.188,157.509 126.554,156.618 127.547,155.663 C125.927,153.601 124.913,151.128 124.643,148.748 C122.165,148.202 120.13,147.279 118.56,146.011 C116.768,146.993 115.473,148.473 114.733,150.449 L113.389,153.969 L110.971,151.097 C109.519,149.38 107.851,146.866 107.851,142.633 C107.851,137.742 111.246,133.818 116.223,132.777 C117.913,130.337 120.866,129.198 123.802,129.198 C124.185,129.198 124.525,129.23 124.882,129.247 C122.809,127.93 120.223,126.078 120.223,122.197 C120.223,121.215 120.472,120.248 120.871,119.336 C119.996,118.883 118.998,118.559 117.848,118.402 L115.937,118.127 L115.926,116.135 C116.002,112.735 119.856,107.698 125.043,107.698 C128.914,107.698 131.985,109.636 133.61,113.042 C134.63,113.415 135.553,113.986 136.325,114.731 C137.275,115.643 137.912,116.782 138.246,118.008 C138.187,117.517 138.143,117.009 138.143,116.486 C138.143,116.292 138.143,116.097 138.154,115.914 C138.187,115.267 138.327,114.672 138.553,114.117 C137.7,113.011 136.453,111.709 134.645,110.592 L132.821,109.469 L133.868,107.585 C135.277,105.048 138.424,103.585 142.499,103.585 C147.098,103.585 150.871,107.499 151.735,111.412 C153.835,112.524 155.492,114.403 155.492,117.134 C155.492,119.185 154.926,121.274 154.434,123.126 C154.061,124.508 153.705,125.809 153.689,126.726 C153.646,129.83 156.167,132.723 159.999,137.112 C162.364,139.817 165.306,143.179 168.372,147.476 C170.601,150.607 184.631,159.406 194.844,164.647 C196.366,161.452 198.617,158.844 200.674,157.187 L202.142,156.01 L203.545,157.279 C206.773,160.211 209.229,162.375 216.29,162.758 C216.29,160.167 216.29,153.678 216.29,153.678 L218.509,153.678 C220.139,153.678 221.834,154.677 224.177,156.043 C227.734,158.137 232.603,160.998 238.611,160.998 C241.051,160.998 245.197,160.215 245.197,157.327 C245.197,154.854 244.106,154.568 243.297,154.568 C242.288,154.568 240.598,157.278 237.181,157.278 C232.674,157.278 228.658,154.012 228.658,150.05 C228.658,149.305 228.814,148.641 229.084,148.069 C228.679,147.065 228.604,146.38 228.852,145.478 C225.019,146.806 219.648,148.318 215.168,148.318 C206.747,148.318 197.678,143.821 197.678,133.954 C197.678,127.325 202.256,123.762 206.569,123.762 C208.145,123.762 209.592,124.226 210.623,125.068 L212.113,126.277 L210.898,127.314 C209.419,129.106 208.798,131.141 208.798,133.046 C208.798,136.177 212.312,139.562 220.048,139.562 C221.943,139.562 224.658,139.238 227.114,138.736 C226.844,138.277 226.66,137.818 226.563,137.403 C226.201,137.349 225.851,137.273 225.521,137.149 C220.943,135.53 217.618,131.708 217.618,127.314 C217.618,126.148 217.802,124.615 218.444,123.157 C218.444,123.157 217.316,122.234 217.316,119.357 C217.316,113.414 227.151,106.969 231.011,104.648 C233.273,100.19 241.526,90.867 258.368,90.608 C261.52,88.497 265.153,88.184 268.03,88.184 C269.467,88.184 271.216,88.362 273.132,88.886 C275.232,87.488 277.375,86.824 279.377,86.824 C281.796,86.824 285.909,89.971 286.8,95.029 C288.802,96.233 293.261,97.863 295.712,98.192 L298.228,98.516 L297.569,100.983 C297.202,102.397 296.392,103.752 295.345,104.945 C296.932,105.938 298.303,106.959 299.631,107.946 C301.693,109.511 303.647,110.98 306.389,112.259 L308.819,113.387 L307.275,115.595 C306.12,117.214 305.029,118.321 303.895,119.12 C306.794,122.477 308.543,127.778 309.11,129.732 C310.406,134.191 314.681,139.454 317.229,141.916 L319.663,144.253 L316.581,145.592 C314.659,146.423 312.57,146.963 310.001,147.255 C310.304,149.015 310.471,151.185 310.471,153.846 C310.471,158.758 309.958,165.203 308.922,173.117 C308.852,173.619 308.819,174.095 308.819,174.569 C308.819,177.192 309.763,179.233 310.649,180.561 L312.926,184.015 C313.914,165.457 324.127,155.816 330.41,150.359 C330.269,149.037 330.183,147.752 330.183,146.543 C330.183,128.713 343.926,122.506 349.378,120.039 L349.998,119.758 C351.358,119.121 353.399,117.971 355.208,116.951 L360.638,113.933 L361.383,116.681 C361.853,118.43 362.041,120.071 362.041,121.593 C362.041,122.883 361.88,124.054 361.642,125.161 C367.882,122.23 374.289,117.269 376.995,110.365 L379.181,104.778 L381.157,110.446 C382.615,114.64 383.192,118.667 383.192,124.8 C383.192,139.034 374.286,155.574 349.277,159.304 C339.776,160.724 333.698,164.637 329.59,172.167 C333.751,169.852 337.725,169.015 342.415,168.643 L349.443,168.076 L344.002,172.6 C343.829,172.746 343.716,172.864 343.57,173.004 C346.96,172.06 350.188,172.017 353.345,171.979 C358.652,171.904 363.672,171.844 369.513,167.39 L374.56,163.536 L373.01,169.722 C370.829,178.467 362.15,181.576 353.761,184.577 C343.747,188.173 334.296,191.552 334.296,203.762 C334.296,208.815 336.563,213.338 340.347,216.253 C340.244,215.087 340.206,213.927 340.206,212.787 C340.206,208.819 344.477,201.408 354.749,201.408 C357.507,201.408 360.212,202.072 362.603,202.666 C364.498,203.13 366.285,203.562 367.677,203.562 C370.457,203.562 372.249,202.584 373.89,200.193 L377.945,194.255 L377.945,201.461 C377.945,209.008 371.386,211.733 366.118,213.903 C360.801,216.117 357.535,217.666 357.535,221.466 C357.535,226.739 362.658,230.675 367.332,233.87 C368.391,230.248 371.516,227.252 374.965,225.784 L377.902,224.78 C379.916,224.164 381.508,223.678 383.862,221.374 L385.962,219.328 L387.36,221.913 C388.526,224.046 388.623,226.021 388.623,228.191 C388.623,232.121 386.442,235.44 384.337,238.669 C382.205,241.935 380.191,245.017 380.191,248.66 C380.191,249.589 380.299,250.793 380.423,252.18" id="path2942" fill="#00529F"></path>
        <path d="M234.703,145.291 C238.336,145.291 239.756,145.869 242.568,145.869 C244.527,145.869 248.57,145.761 249.888,142.954 C247.453,142.474 244.792,142.22 241.947,142.22 C238.374,142.22 235.637,142.997 233.17,143.78 C233.354,144.482 233.817,144.973 234.212,145.313 C234.374,145.307 234.536,145.291 234.703,145.291" id="path2944" fill="#00529F"></path>
        <path d="M372.056,277.941 C381.291,266.665 377.885,254.379 377.885,248.712 C377.885,240.464 386.306,235.076 386.306,228.253 C386.306,226.358 386.252,224.75 385.324,223.039 C381.492,226.79 379.154,226.472 375.737,227.919 C371.861,229.554 368.251,233.522 369.184,237.97 C363.748,234.186 355.225,229.333 355.225,221.528 C355.225,210.338 375.64,213.431 375.64,201.512 C373.605,204.481 371.138,205.857 367.576,205.857 C364.023,205.857 359.328,203.704 354.658,203.704 C345.887,203.704 342.34,209.82 342.34,212.843 C342.34,215.866 342.378,218.295 343.809,220.773 C337.24,218.398 331.987,212.126 331.987,203.824 C331.987,179.074 366.481,186.366 370.766,169.227 C358.594,178.517 349.514,170.453 338.19,177.913 C338.778,174.987 339.869,173.109 342.498,170.928 C335.383,171.49 330.558,173.11 324.317,178.75 C329.024,164.046 337.229,158.885 348.867,157.142 C370.642,153.893 380.866,139.971 380.866,124.857 C380.866,119.189 380.397,115.335 378.971,111.254 C375.462,120.198 366.264,126.384 357.827,129.148 C359.36,126.265 360.461,122.185 359.144,117.321 C357.395,118.201 353.227,120.754 350.82,121.855 C345.697,124.192 329.897,130.47 332.634,151.355 C326.086,157.006 314.977,166.696 314.977,186.982 C314.977,202.511 331.447,223.796 342.302,230.403 C353.162,237.01 369.27,243.413 369.27,257.782 C369.27,271.72 359.166,281.83 345.573,281.83 C341.007,281.83 338.006,281.005 334.626,278.359 C336.095,276.837 336.845,274.376 336.845,271.38 C336.845,254.355 310.989,245.086 288.91,231.268 C285.984,229.432 283.82,227.543 281.348,224.612 C279.302,225.767 275.389,226.015 272.22,226.015 C269.478,226.015 265.176,225.124 260.777,223.591 C252.48,230.333 239.611,237.022 221.377,237.022 C211.779,237.022 205.62,233.535 197.113,233.535 C192.827,233.535 188.136,234.637 185.07,238.68 C180.142,237.142 177.556,229.444 180.142,223.021 C175.635,222.039 171.521,220.041 168.185,215.615 C163.246,218.789 155.845,223.517 150.976,224.743 C146.14,225.946 135.289,231.539 132.461,231.539 C128.088,231.539 125.449,227.005 122.335,227.005 C118.632,227.005 114.659,231.361 114.659,233.99 C114.659,237.121 117.364,239.992 120.003,241.179 C113.234,240.974 111.042,242.998 111.317,247.09 C115.144,247.689 117.53,252.784 116.607,255.883 C116.915,256.682 118.383,257.482 119.954,257.033 C119.468,259.057 118.286,263.37 121.412,265.89 C122.616,263.634 124.219,262.868 126.513,262.868 C128.824,262.868 130.794,265.022 131.35,266.582 C132.856,266.236 134.551,264.811 134.551,262.814 C134.551,258.863 136.565,256.19 138.281,256.098 C138.815,258.528 140.948,259.316 142.697,259.882 C142.416,255.559 145.325,254.171 147.237,254.171 C150.281,254.171 151.577,255.488 152.721,257.686 C154.486,257.016 155.587,255.094 155.523,252.935 C155.447,250.776 155.08,249.874 153.903,248.832 C154.842,247.796 159.506,245.528 164.672,245.528 C172.354,245.528 175.84,248.092 180.791,251.251 C182.308,250.22 183.749,248.465 183.927,245.82 C187.295,245.448 189.805,249.534 192.985,253.874 C194.95,252.789 198.038,248.887 197.547,245.421 C204.354,245.912 207.981,247.769 212.289,250.414 C215.128,249.032 216.149,245.767 216.305,242.856 C231.776,257.825 246.826,262.019 266.367,263.309 C281.255,264.287 289.929,272.939 291.203,277.29 C288.877,276.08 285.962,275.481 282.237,275.481 C272.494,275.481 264.623,287.265 264.623,299.125 C264.623,307.519 265.978,314.741 274.302,323.577 C282.059,331.815 284.094,332.819 284.094,340.856 C288.365,339.626 289.492,337.558 290.642,334.81 C290.718,341.013 293.557,346.351 297.816,347.69 C300.116,343.339 302.081,340.721 304.823,338.994 C305.6,356.63 288.219,366.54 282.033,366.54 C277.055,366.54 276.705,363.793 272.689,363.793 C268.715,363.793 264.057,367.048 264.057,371.631 C264.057,374.465 265.887,376.441 267.835,377.574 C263.085,380.046 262.513,382.551 262.863,386.016 C268.785,384.828 271.209,390.334 270.145,393.897 C273.789,394.68 276.466,392.99 278.372,391.306 C278.955,393.081 280.629,394.76 282.642,395.3 C283.911,393.136 285.881,391.554 288.316,391.554 C290.751,391.554 292.769,392.488 293.8,395.819 C296.553,395.263 299.824,390.226 298.215,386.761 C301.001,386.016 303.786,382.07 303.938,379.376 C305.805,381.772 308.256,383.635 310.875,382.442 C310.621,377.827 314.562,374.474 317.19,374.474 C318.734,374.474 319.997,374.668 320.985,375.187 C321.303,374.593 321.573,373.729 321.573,372.779 C321.573,370.609 319.711,368.925 318.038,368.035 C323.106,364.828 327.937,358.302 329.4,354.075 C329.805,356.828 331.203,358.982 334.01,359.544 C335.926,357.962 336.606,356.623 336.887,353.131 C342.145,354.793 347.553,354.453 349.426,351.241 C348.018,350.053 346.619,348.035 346.619,345.389 C346.619,338.539 348.957,335.829 348.957,329.6 C348.957,323.231 344.374,318.016 338.57,318.016 C334.743,318.016 331.451,319.528 329.772,321.412 C322.505,321.412 315.013,313.499 315.013,304.792 C315.013,296.506 320.346,291.566 326.776,288.555 C330.7,290.255 337.124,292.209 343.866,292.209 C350.602,292.209 355.79,290.255 358.224,287.987 C359.169,288.932 361.215,290.633 364.027,290.633 C368.913,290.633 372.038,289.24 374.472,286.217 C376.907,283.195 378.828,280.215 383.115,276.662 C379.752,274.778 375.52,275.329 372.06,277.936" id="path2946" fill="#FFFFFF"></path>
        <path d="M175.082,197.387 C179.028,189.689 186.202,181.803 194.25,179.897 C193.813,177.673 193.381,176.076 193.381,172.162 C193.381,170.662 193.835,168.227 194.266,166.846 C184.766,161.966 169.5,152.843 166.607,148.784 C158.386,137.27 151.396,132.958 151.498,126.69 C151.546,124.094 153.306,120.401 153.306,117.12 C153.306,113.849 149.247,112.38 146.666,112.38 C143.676,112.38 140.54,113.287 140.41,116.018 C140.27,118.755 141.371,121.168 141.76,122.587 C142.273,124.471 142.019,127.143 141.695,129.222 C138.991,126.29 136.346,122.917 136.346,119.921 C136.346,116.86 133.658,114.647 130.537,114.782 C127.428,114.917 122.478,118.625 122.478,122.193 C122.478,125.318 124.815,126.533 126.991,127.926 C128.416,128.827 129.96,129.934 130.856,133.221 C128.475,131.894 126.672,131.435 123.833,131.435 C120.983,131.435 117.059,132.763 117.059,137.675 C117.059,143.828 121.653,146.193 126.797,146.873 C126.392,151.386 130.408,158.344 137.491,158.344 C139.056,158.344 140.6,157.588 141.28,156.573 C149.825,168.054 151.115,176.708 151.175,183.471 C154.398,183.471 157.302,182.617 157.939,177.733 C161.108,186.855 160.654,194.078 158.144,200.965 C161.523,201.511 166.468,199.907 167.688,196.215 C170.846,201.451 171.11,203.13 171.197,205.716 C173.247,202.93 173.053,201.343 175.082,197.387" id="path2948" fill="#FFFFFF"></path>
        <path d="M286.562,274.001 C281.941,268.636 272.343,265.71 265.456,265.451 C265.43,265.472 265.456,265.424 265.392,265.521 C273.64,267.501 277.089,270.622 279.383,273.725 C282.675,273.208 285.477,273.515 286.562,274.001" id="path2950" fill="#FFFFFF"></path>
        <path d="M263.988,267.248 C262.568,268.873 260.97,270.239 259.486,270.239 C253.553,270.239 249.662,269.936 244.188,269.936 C220.156,269.936 202.456,284.83 202.456,301.887 C202.456,312.294 202.002,314.599 198.737,318.161 C200.168,319.273 202.386,319.997 204.286,319.937 C201.085,328.428 186.456,331.197 182.932,331.197 C177.966,331.197 177.836,326.593 172.222,326.593 C168.584,326.593 163.99,328.235 163.99,332.385 C163.99,334.275 164.449,336.342 165.161,337.519 C163.137,336.402 160.859,336.148 158.964,336.148 C155.579,336.148 151.839,339.236 151.839,343.446 C151.839,347.409 154.446,351.425 157.593,351.425 C159.412,351.425 160.859,351.296 162.354,350.897 C159.547,354.718 158.926,358.21 161.912,361.05 C162.495,359.668 164.471,357.449 168.335,357.449 C171.202,357.449 174.294,360.127 173.582,364.153 C176.745,363.392 181.296,360.839 180.448,352.936 C182.931,352.936 185.565,352.24 186.656,351.025 C187.239,353.594 188.804,356.164 191.935,357.346 C192.793,355.764 195.06,353.26 197.727,353.26 C200.669,353.26 202.045,354.555 202.904,355.91 C204.426,353.837 205.322,352.077 204.021,348.331 C208.361,347.257 217.737,343.845 222.768,340.423 L224.987,344.769 C228.577,343.387 232.037,340.289 234.002,337.26 C235.762,339.635 235.891,341.935 236.091,344.898 C243.076,340.088 249.986,333.837 249.986,322.674 C249.986,312.493 246.003,312.596 246.003,307.09 C246.003,301.584 251.056,294.113 259.212,294.113 C261.025,294.113 261.857,294.151 262.839,294.205 C264.178,285.196 270.094,276.774 276.81,274.373 C274.092,271.048 269.531,268.629 263.988,267.248" id="path2952" fill="#FFFFFF"></path>
        <path d="M228.388,137.22 C228.507,137.576 228.75,138.116 228.901,138.311 C228.901,138.3 230.758,137.831 230.742,137.826 C230.78,137.647 230.796,137.243 230.796,137.015 C229.915,137.286 229.1,137.254 228.388,137.22" id="path2954" fill="#FFFFFF"></path>
        <path d="M230.39,146.796 C230.876,146.095 231.524,145.749 232.582,145.527 C232.22,145.004 232.02,144.642 231.88,144.173 C231.88,144.156 230.325,144.75 230.325,144.735 C230.185,145.231 230.061,145.831 230.39,146.796" id="path2956" fill="#FFFFFF"></path>
        <path d="M306.61,172.902 C308.824,156.054 308.338,148.233 307.086,145.329 C310.314,145.156 313.083,144.714 315.604,143.618 C312.813,140.94 308.306,135.347 306.881,130.446 C305.693,126.403 302.967,120.001 299.626,118.754 C301.833,118.052 303.437,117.086 305.348,114.377 C299.626,111.705 297.154,108.298 291.378,105.4 C293.196,104.358 294.8,102.474 295.329,100.493 C292.333,100.099 289.467,98.976 286.633,97.61 C286.157,99.823 285.354,101.864 282.957,104.509 L281.294,103.122 C282.8,101.4 284.56,98.706 284.56,96.531 C284.56,93.525 282.099,90.555 280.41,89.6 C278.569,88.542 276.928,88.715 273.068,91.306 C271.772,92.213 268.76,94.923 267.044,96.386 L265.835,94.977 C267.524,93.369 269.657,91.674 270.693,90.799 C269.576,90.572 268.641,90.524 267.934,90.524 C264.679,90.524 261.511,90.956 258.974,92.904 C242.752,92.904 234.396,102.005 232.631,106.318 C226.407,109.956 219.53,115.479 219.53,119.441 C219.53,120.488 219.676,121.158 219.913,121.633 C221.581,120.769 223.211,119.365 224.674,118.075 L225.662,119.165 C224.41,120.423 221.84,122.426 220.755,123.111 C219.94,124.169 219.746,125.907 219.746,127.397 C219.746,131.824 224.388,135.624 229.214,135.624 C236.086,135.624 238.52,129.336 238.121,126.447 C241.84,126.156 252.442,129.881 252.442,140.595 C252.442,147.294 245.02,147.995 242.418,147.995 C239.805,147.995 237.873,147.207 234.985,147.207 C232.113,147.207 230.78,148.212 230.78,150.139 C230.78,152.725 233.814,155.062 237.112,155.062 C240.367,155.062 240.593,152.416 243.19,152.416 C244.707,152.416 247.32,153.21 247.32,157.41 C247.32,161.566 242.893,163.32 238.51,163.32 C228.345,163.32 221.355,156.001 218.403,156.001 L218.403,165.156 C208.989,165.156 205.863,162.57 201.955,159.023 C198.738,161.614 195.191,166.602 195.191,172.249 C195.191,176.168 195.531,179.38 196.33,181.62 C188.287,182.759 179.996,190.51 176.039,199.568 C173.529,205.343 172.827,208.41 167.662,210.596 C170.577,217.651 177,221.235 183.111,221.462 C179.252,225.791 181.508,235.237 184.337,235.642 C188.067,232.269 192.024,231.524 196.31,231.524 C206.21,231.524 211.549,234.99 221.141,234.99 C239.375,234.99 251.008,228.852 259.818,221.192 C263.856,223.103 269.717,224.129 272.455,224.129 C277.837,224.129 282.435,222.121 284.778,218.915 C282.926,216.507 280.649,210.553 282.268,206.229 C284.492,208.01 288.638,209.328 291.855,208.625 C291.164,201.272 293.043,194.817 295.197,191.988 C297.675,188.75 299.24,184.588 299.806,181.786 L308.793,181.786 C307.479,179.827 306.092,176.837 306.61,172.902 L306.61,172.902 L306.61,172.902 Z M245.834,112.53 C245.834,112.53 244.9,110.954 243.896,110.036 C243.475,111.202 241.775,112.891 240.042,112.891 C237.57,112.891 236.004,110.673 236.004,108.664 C236.004,107.72 236.468,106.246 237.202,105.425 C240.16,105.706 244.095,107.314 247.135,111.519 C247.129,111.515 245.834,112.53 245.834,112.53" id="path2958" fill="#FFFFFF"></path>
        <path d="M237.127,108.795 C237.127,110.231 238.142,111.775 240.009,111.775 C241.467,111.775 242.697,110.21 243,109.384 C241.985,108.277 239.788,106.966 237.672,106.766 C237.305,107.251 237.127,108.12 237.127,108.795 L237.127,108.795 Z" id="path2960" fill="#FFFFFF"></path>
        <path d="M250.174,137.54 C248.716,137.329 246.988,137.162 243.01,137.162 C238.082,137.162 233.596,138.711 230.174,139.699 C226.746,140.686 224.819,141.459 220.004,141.459 C210.568,141.459 206.881,136.8 206.881,133.043 C206.881,130.576 207.745,128.579 209.402,126.544 C208.635,125.918 207.556,125.664 206.525,125.664 C203.28,125.664 199.54,128.411 199.54,133.944 C199.54,142.473 207.399,146.408 215.135,146.408 C222.239,146.408 229.008,143.429 232.02,142.365 C235.038,141.297 239.253,140.319 241.898,140.319 C246.627,140.319 248.337,140.654 250.443,141.15 C250.475,140.94 250.529005,140.508 250.529005,140.146 C250.53,139.002 250.369,138.247 250.174,137.54" id="path2962" fill="#FFFFFF"></path>
        <path d="M145.317,110.554 C146.91,110.554 148.156,110.619 149.317,110.959 C148.065,107.661 145.905,105.669 142.192,105.669 C138.619,105.669 136.562,107.099 135.44,108.88 C137.739,110.143 138.938,111.136 139.893,112.653 C141.399,111.143 143.461,110.554 145.317,110.554" id="path2964" fill="#EFCF4D"></path>
        <path d="M131.18,113.091 C129.739,110.743 127.607,109.799 124.848,109.799 C120.735,109.799 118.198,113.27 117.793,116.654 C119.71,116.74 120.892,117.129 122.095,117.868 C123.644,115.785 127.083,112.853 131.18,113.101" id="path2966" fill="#EFCF4D"></path>
        <path d="M115.639,134.948 C112.503,135.563 109.696,138.678 109.696,142.867 C109.696,146.252 111.536,148.891 112.886,150.489 C113.663,147.272 115.553,145.28 117.302,144.498 C115.618,142.262 114.462,138.873 115.639,134.948" id="path2968" fill="#EFCF4D"></path>
        <path d="M129.059,156.902 C127.585,158.128 126.781,158.916 123.143,159.638 C123.936,161.053 126.63,164.265 130.171,164.265 C132.87,164.265 135.893,162.856 137.76,160.081 C133.053,160.125 130.797,158.478 129.059,156.902" id="path2970" fill="#EFCF4D"></path>
        <path d="M110.241,248.668 C107.834,249.543 106.646,251.707 106.646,253.947 C106.646,256.943 108.352,259.324 110.884,261.548 C111.699,258.293 113.551,256.895 114.679,256.242 C115.467,253.947 113.982,249.24 110.241,248.668" id="path2972" fill="#EFCF4D"></path>
        <path d="M118.63,226.083 C117.998,225.927 116.967,225.711 115.715,225.711 C111.332,225.711 108.709,228.69 107.262,232.026 C109.664,231.929 111.337,232.269 112.671,232.955 C112.902,230.947 114.867,227.756 118.63,226.083" id="path2974" fill="#EFCF4D"></path>
        <path d="M126.003,264.802 C123.487,264.802 122.672,266.929 122.349,267.625 C122.003,270.756 125.41,274.136 129.102,273.979 C128.935,272.031 129.307,269.904 129.885,268.447 C129.15,266.282 127.823,264.802 126.003,264.802" id="path2976" fill="#EFCF4D"></path>
        <path d="M147.294,255.751 C143.834,255.751 144.082,259.227 144.195,261.214 C144.627,262.477 145.852,264.345 146.991,265.608 C150.499,263.152 151.061,261.721 151.552,259.551 C150.775,257.056 149.317,255.751 147.294,255.751" id="path2978" fill="#EFCF4D"></path>
        <path d="M167.768,325.169 C167.131,324.689 166.067,324.101 164.081,324.101 C159.757,324.101 157.452,327.836 157.134,331.431 C158.424,331.215 160.778,331.166 162.116,331.728 C162.084,328.391 164.502,326.399 167.768,325.169" id="path2980" fill="#EFCF4D"></path>
        <path d="M151.05,339.344 C148.67,339.765 144.842,342.448 144.842,347.057 C144.842,350.437 146.369,352.925 147.854,354.701 C148.988,351.889 150.499,350.847 151.859,349.891 C149.658,346.798 149.269,342.102 151.05,339.344" id="path2982" fill="#EFCF4D"></path>
        <path d="M168.011,359.268 C164.902,359.268 163.325,361.799 163.002,362.976 C162.942,365.767 165.717,368.661 167.877,369.816 C169.534,368.65 170.884,366.42 171.439,365.249 C172.265,363.122 171.509,359.268 168.011,359.268" id="path2984" fill="#EFCF4D"></path>
        <path d="M197.959,354.987 C195.292,354.987 193.581,358.216 193.565,358.21 C195.023,359.662 195.703,360.985 194.574,364.1 C198.39,363.992 202.536,361.153 202.148,358.21 C202.148,358.21 200.669,354.987 197.959,354.987" id="path2986" fill="#EFCF4D"></path>
        <path d="M267.367,363.149 C266.778,362.803 265.554,362.523 264.403,362.523 C258.681,362.523 256.15,367.521 257.44,374.128 C258.886,372.347 260.377,371.726 261.947,371.354 C261.564,368.234 264.138,364.385 267.367,363.149" id="path2988" fill="#EFCF4D"></path>
        <path d="M264.074,387.634 C263.367,387.634 262.346,387.764 261.327,388.136 C259.977,389.232 258.919,390.733 258.919,394.112 C258.919,396.8 260.36,399.31 262.034,400.045 C264.263,396.542 266.665,394.911 267.875,394.269 C269.018,391.1 267.615,387.634 264.074,387.634" id="path2990" fill="#EFCF4D"></path>
        <path d="M288.23,393.335 C286.373,393.335 284.991,394.609 283.722,396.779 C285.082,399.705 286.038,402.587 286.162,405.335 C289.498,403.278 291.495,400.525 292.078,397.719 C291.884,395.677 290.665,393.335 288.23,393.335" id="path2992" fill="#EFCF4D"></path>
        <path d="M312.959,383.132 C314.298,383.747 315.464,384.697 316.894,388.007 C318.94,387.677 322.536,384.33 322.536,381.21 C322.536,380.563 322.255,378.938 321.315,377.772 C320.268,376.941 318.46,376.569 317.218,376.569 C315.652,376.569 312.634,378.976 312.959,383.132" id="path2994" fill="#EFCF4D"></path>
        <path d="M360.164,154.138 C374.199,148.481 380.865,137.053 380.865,124.854 C380.865,123.877 380.854,122.964 380.822,122.084 L370.76,122.084 C366.857,125.307 362.241,127.698 357.831,129.145 C358.83,127.267 359.645,124.875 359.721,122.084 C359.759,120.605 359.597,119.007 359.155,117.318 C357.4,118.209 353.238,120.751 350.826,121.852 C350.658,121.922 350.491,121.998 350.302,122.084 C344.721,124.61 329.99,131.131 332.635,151.341 C331.679,152.173 330.605,153.112 329.493,154.138 L360.17,154.138" id="path2996" fill="#E1393E"></path>
        <path d="M126.802,146.878 C126.597,149.075 127.461,151.86 129.22,154.139 L172.874,154.139 C169.873,152.023 167.557,150.133 166.607,148.795 C158.386,137.27 151.396,132.957 151.498,126.69 C151.519,125.368 151.983,123.775 152.442,122.086 L141.614,122.086 C141.657,122.27 141.711,122.432 141.76,122.588 C142.283,124.472 142.019,127.144 141.695,129.223 C139.622,126.988 137.593,124.483 136.756,122.086 L122.489,122.086 C122.489,122.124 122.484,122.172 122.484,122.205 C122.484,125.32 124.827,126.535 126.991,127.927 C128.416,128.834 129.96,129.946 130.856,133.222 C128.475,131.895 126.683,131.436 123.838,131.436 C120.983,131.436 117.058,132.764 117.058,137.676 C117.059,143.828 121.653,146.198 126.802,146.878" id="path2998" fill="#E1393E"></path>
        <path d="M229.213,135.623 C236.079,135.623 238.514,129.335 238.12,126.446 C241.839,126.155 252.441,129.88 252.441,140.594 C252.441,147.293 245.019,147.994 242.417,147.994 C239.804,147.994 237.867,147.206 234.984,147.206 C232.112,147.206 230.779,148.211 230.779,150.138 C230.779,151.73 231.929,153.22 233.57,154.138 C234.606,154.721 235.842,155.061 237.111,155.061 C238.412,155.061 239.221,154.645 239.896,154.138 C240.917,153.376 241.624,152.415 243.189,152.415 C244.177,152.415 245.618,152.756 246.503,154.138 L308.149,154.138 C308.165,149.56 307.722,146.802 307.086,145.328 C310.314,145.155 313.083,144.713 315.599,143.617 C312.813,140.939 308.306,135.346 306.881,130.445 C306.152,127.967 304.851,124.61 303.178,122.084 L222.192,122.084 C221.625,122.516 221.107,122.888 220.756,123.11 C219.941,124.168 219.747,125.906 219.747,127.396 C219.746,131.817 224.388,135.623 229.213,135.623" id="path3000" fill="#E1393E"></path>
        <path d="M230.795,137.015 C229.926,137.286 229.1,137.253 228.388,137.22 C228.507,137.576 228.75,138.116 228.901,138.311 C228.901,138.3 230.758,137.831 230.742,137.826 C230.779,137.647 230.795,137.243 230.795,137.015" id="path3002" fill="#ED1C24"></path>
        <path d="M232.582,145.528 C232.22,145.005 232.02,144.643 231.88,144.174 C231.88,144.157 230.325,144.751 230.325,144.736 C230.184,145.232 230.06,145.832 230.389,146.803 C230.876,146.095 231.524,145.75 232.582,145.528" id="path3004" fill="#ED1C24"></path>
        <path d="M346.815,184.826 L315.026,184.826 C314.999,185.528 314.983,186.246 314.983,186.98 C314.983,196.345 320.974,207.799 328.105,216.874 L337.519,216.874 C334.189,213.705 331.986,209.192 331.986,203.822 C331.986,192.788 338.841,188.124 346.82,184.826" id="path3006" fill="#E1393E"></path>
        <path d="M356.838,216.874 C361.648,210.958 375.64,211.379 375.64,201.512 C373.605,204.481 371.138,205.857 367.576,205.857 C364.023,205.857 359.328,203.704 354.658,203.704 C345.887,203.704 342.34,209.82 342.34,212.843 C342.34,214.3 342.351,215.617 342.529,216.875 L356.838,216.875" id="path3008" fill="#E1393E"></path>
        <path d="M158.143,200.965 C161.533,201.511 166.472,199.907 167.687,196.215 C170.85,201.451 171.109,203.13 171.196,205.716 C173.253,202.93 173.053,201.349 175.082,197.387 C177.409,192.841 180.885,188.226 184.988,184.825 L159.752,184.825 C160.702,190.78 159.968,195.962 158.143,200.965" id="path3010" fill="#E1393E"></path>
        <path d="M176.038,199.568 C173.522,205.343 172.826,208.415 167.661,210.607 C168.719,213.144 170.23,215.222 172.006,216.874 L283.551,216.874 C282.114,213.976 281.003,209.608 282.266,206.229 C284.49,208.015 288.636,209.328 291.847,208.625 C291.161,201.272 293.04,194.817 295.195,191.988 C296.874,189.791 298.132,187.168 298.952,184.825 L188.307,184.825 C183.201,188.134 178.667,193.554 176.038,199.568" id="path3012" fill="#E1393E"></path>
        <path d="M372.056,277.941 C381.291,266.665 377.885,254.379 377.885,248.712 C377.885,248.323 377.896,247.945 377.945,247.567 L366.047,247.567 C368.045,250.471 369.276,253.829 369.276,257.78 C369.276,267.831 364.012,275.896 355.98,279.609 L379.926,279.609 C380.838,278.665 381.869,277.688 383.111,276.662 C379.748,274.778 375.516,275.329 372.056,277.941" id="path3014" fill="#E1393E"></path>
        <path d="M317.147,247.567 L221.591,247.567 C235.259,258.741 249.045,262.163 266.362,263.307 C281.25,264.285 289.924,272.937 291.198,277.293 C288.872,276.078 285.962,275.48 282.232,275.48 C278.674,275.48 275.387,277.05 272.624,279.609 L336.439,279.609 C335.845,279.243 335.241,278.838 334.625,278.357 C336.094,276.835 336.844,274.374 336.844,271.378 C336.844,261.671 328.451,254.498 317.147,247.567" id="path3016" fill="#E1393E"></path>
        <path d="M155.52,252.932 C155.444,250.773 155.077,249.871 153.9,248.829 C154.202,248.495 154.893,248.036 155.865,247.566 L112.767,247.566 C115.714,249.012 117.409,253.191 116.605,255.878 C116.913,256.677 118.381,257.477 119.952,257.028 C119.466,259.052 118.284,263.365 121.41,265.885 C122.614,263.629 124.217,262.863 126.511,262.863 C128.822,262.863 130.792,265.017 131.348,266.577 C132.854,266.231 134.549,264.806 134.549,262.809 C134.549,258.858 136.563,256.185 138.279,256.093 C138.813,258.523 140.946,259.311 142.695,259.877 C142.414,255.554 145.323,254.166 147.235,254.166 C150.279,254.166 151.575,255.483 152.719,257.681 C154.483,257.013 155.585,255.091 155.52,252.932" id="path3018" fill="#E1393E"></path>
        <path d="M212.285,250.412 C213.581,249.786 214.477,248.755 215.114,247.567 L206.958,247.567 C208.804,248.344 210.493,249.305 212.285,250.412" id="path3020" fill="#E1393E"></path>
        <path d="M183.589,247.567 L174.553,247.567 C176.68,248.554 178.591,249.845 180.788,251.249 C181.943,250.465 183.05,249.256 183.589,247.567" id="path3022" fill="#E1393E"></path>
        <path d="M192.982,253.872 C194.547,253.003 196.82,250.352 197.43,247.567 L188.01,247.567 C189.635,249.089 191.206,251.443 192.982,253.872" id="path3024" fill="#E1393E"></path>
        <path d="M279.382,273.725 C282.675,273.207 285.477,273.515 286.562,274 C281.941,268.635 272.343,265.709 265.456,265.45 C265.43,265.471 265.456,265.423 265.392,265.52 C273.639,267.502 277.088,270.622 279.382,273.725" id="path3026" fill="#E1393E"></path>
        <path d="M276.808,274.374 C274.092,271.049 269.531,268.63 263.988,267.248 C262.568,268.873 260.97,270.239 259.486,270.239 C253.553,270.239 249.662,269.936 244.188,269.936 C232.113,269.936 221.635,273.704 214.197,279.609 L269.554,279.609 C271.696,277.159 274.19,275.302 276.808,274.374" id="path3028" fill="#E1393E"></path>
        <path d="M338.566,318.016 C334.739,318.016 331.447,319.528 329.768,321.412 C324.078,321.412 318.264,316.57 315.997,310.292 L266.049,310.292 C267.371,314.54 269.822,318.826 274.303,323.576 C282.054,331.814 284.089,332.818 284.089,340.855 C288.36,339.635 289.487,337.557 290.637,334.809 C290.664,337.595 291.258,340.197 292.279,342.345 L301.158,342.345 C302.27,340.936 303.453,339.857 304.818,338.992 C304.861,340.142 304.839,341.254 304.748,342.345 L346.777,342.345 C347.317,337.573 348.953,334.809 348.953,329.606 C348.953,323.231 344.37,318.016 338.566,318.016" id="path3030" fill="#E1393E"></path>
        <path d="M202.186,310.292 C201.787,314.076 200.842,315.857 198.737,318.157 C200.168,319.274 202.386,319.998 204.286,319.938 C201.085,328.429 186.456,331.198 182.932,331.198 C177.966,331.198 177.836,326.594 172.222,326.594 C168.584,326.594 163.99,328.236 163.99,332.386 C163.99,334.276 164.449,336.343 165.161,337.52 C163.137,336.403 160.859,336.138 158.964,336.138 C155.892,336.138 152.524,338.707 151.946,342.346 L219.518,342.346 C220.717,341.714 221.818,341.067 222.768,340.424 L223.75,342.346 L229.208,342.346 C231.141,340.877 232.83,339.053 234.001,337.261 C235.227,338.907 235.658,340.522 235.874,342.346 L239.556,342.346 C245.191,337.855 249.985,331.971 249.985,322.675 C249.985,314.935 247.685,313.137 246.579,310.292 L202.186,310.292" id="path3032" fill="#E1393E"></path>
        <path d="M267.831,377.573 C263.081,380.045 262.509,382.55 262.859,386.015 C268.781,384.827 271.205,390.333 270.141,393.896 C273.785,394.679 276.462,392.989 278.368,391.305 C278.951,393.086 280.619,394.759 282.638,395.299 C283.907,393.135 285.877,391.553 288.312,391.553 C290.747,391.553 292.765,392.487 293.791,395.818 C296.55,395.262 299.821,390.225 298.212,386.765 C300.998,386.015 303.783,382.069 303.935,379.375 C305.802,381.771 308.253,383.634 310.872,382.446 C310.618,377.826 314.559,374.473 317.187,374.473 C318.731,374.473 319.994,374.667 320.982,375.186 C321.3,374.592 321.565,373.749 321.57,372.805 L264.174,372.805 C264.592,375.019 266.152,376.601 267.831,377.573" id="path3034" fill="#E1393E"></path>
        <path d="M250.174,137.54 C248.716,137.329 246.988,137.162 243.01,137.162 C238.082,137.162 233.596,138.711 230.174,139.699 C226.746,140.686 224.819,141.459 220.004,141.459 C210.568,141.459 206.881,136.8 206.881,133.043 C206.881,130.576 207.745,128.579 209.402,126.544 C208.635,125.918 207.556,125.664 206.525,125.664 C203.28,125.664 199.54,128.411 199.54,133.944 C199.54,142.473 207.399,146.408 215.135,146.408 C222.239,146.408 229.008,143.429 232.02,142.365 C235.038,141.297 239.253,140.319 241.898,140.319 C246.627,140.319 248.337,140.654 250.443,141.15 C250.475,140.94 250.529005,140.508 250.529005,140.146 C250.53,139.002 250.369,138.247 250.174,137.54" id="path3036" fill="#E1393E"></path>
    </g>
</svg>
