<?xml version="1.0" encoding="utf-8"?>
<!-- Generator: Adobe Illustrator 26.2.1, SVG Export Plug-In . SVG Version: 6.00 Build 0)  -->
<svg version="1.1" id="Ebene_1" xmlns="http://www.w3.org/2000/svg" xmlns:xlink="http://www.w3.org/1999/xlink" x="0px" y="0px"
	 viewBox="0 0 566.9 566.9" style="enable-background:new 0 0 566.9 566.9;" xml:space="preserve">
<style type="text/css">
	.st0{fill:#FFFFFF;}
	.st1{clip-path:url(#SVGID_00000113321544539038525290000012680386742025994918_);}
	.st2{filter:url(#Adobe_OpacityMaskFilter);}
	.st3{clip-path:url(#SVGID_00000081647732959615119400000014172094271647353278_);fill:#FFFFFF;}
	.st4{clip-path:url(#SVGID_00000081647732959615119400000014172094271647353278_);}
	.st5{clip-path:url(#SVGID_00000139281820757879116180000017731904700494503344_);}
	
		.st6{clip-path:url(#SVGID_00000081647732959615119400000014172094271647353278_);mask:url(#SVGID_00000044872362768390693740000002348708349761239936_);}
	.st7{clip-path:url(#SVGID_00000031165008604858129850000001418368763582979750_);fill:#CD1719;}
	.st8{clip-path:url(#SVGID_00000031165008604858129850000001418368763582979750_);}
	.st9{clip-path:url(#SVGID_00000078758013410968979030000016087094510652043922_);}
	.st10{clip-path:url(#SVGID_00000165204208743733482160000007813069524972387491_);fill:#003761;}
	.st11{filter:url(#Adobe_OpacityMaskFilter_00000137810443334770744110000008405328354453154998_);}
	.st12{display:none;opacity:0.75;clip-path:url(#SVGID_00000031165008604858129850000001418368763582979750_);}
	.st13{clip-path:url(#SVGID_00000113321544539038525290000012680386742025994918_);fill:#FFFFFF;}
	.st14{clip-path:url(#SVGID_00000011717000263901710800000000473651954585866892_);fill:#FFFFFF;}
	.st15{clip-path:url(#SVGID_00000133496975529526052850000009289314265793219751_);fill:#FFFFFF;}
	.st16{filter:url(#Adobe_OpacityMaskFilter_00000183226345453030557090000018405772742380775053_);}
	
		.st17{clip-path:url(#SVGID_00000133496975529526052850000009289314265793219751_);mask:url(#SVGID_00000008150695266542146050000003510775015023163071_);}
	.st18{clip-path:url(#SVGID_00000139976399754181593730000003483821376574064302_);fill:#FFFFFF;}
	.st19{filter:url(#Adobe_OpacityMaskFilter_00000163763767627048083940000006455373022415543698_);}
	.st20{clip-path:url(#SVGID_00000139976399754181593730000003483821376574064302_);}
	.st21{display:none;opacity:0.75;clip-path:url(#SVGID_00000139976399754181593730000003483821376574064302_);}
</style>
<rect x="281.4" y="37.1" class="st0" width="3.8" height="17.8"/>
<rect x="277.2" y="41.3" class="st0" width="12.2" height="3.8"/>
<g>
	<defs>
		<rect id="SVGID_1_" x="0" y="0" width="566.9" height="566.9"/>
	</defs>
	<clipPath id="SVGID_00000140004430997934725800000006941174267204190888_">
		<use xlink:href="#SVGID_1_"  style="overflow:visible;"/>
	</clipPath>
	<g style="clip-path:url(#SVGID_00000140004430997934725800000006941174267204190888_);">
		<defs>
			<rect id="SVGID_00000161634011538564190190000014326452757749482128_" x="0" y="0" width="566.9" height="566.9"/>
		</defs>
		<clipPath id="SVGID_00000137826802751399189450000000776165441155188915_">
			<use xlink:href="#SVGID_00000161634011538564190190000014326452757749482128_"  style="overflow:visible;"/>
		</clipPath>
		<defs>
			<filter id="Adobe_OpacityMaskFilter" filterUnits="userSpaceOnUse" x="-8.7" y="-7.2" width="584" height="646">
				<feColorMatrix  type="matrix" values="1 0 0 0 0  0 1 0 0 0  0 0 1 0 0  0 0 0 1 0"/>
			</filter>
		</defs>
		
			<mask maskUnits="userSpaceOnUse" x="-8.7" y="-7.2" width="584" height="646" id="SVGID_00000007430921965185143910000007866144017643319480_">
			<g class="st2">
				<path style="clip-path:url(#SVGID_00000137826802751399189450000000776165441155188915_);fill:#FFFFFF;" d="M283.5,566.9
					C126.9,566.9,0,440,0,283.5C0,126.9,126.9,0,283.5,0C440,0,566.9,126.9,566.9,283.5c0,10.7-0.6,21.3-1.8,31.7L309.2,460.1
					c-14.3,8.6-28.7,17.2-42.9,26c-5.6,3.5-11.6,5.3-17.8,5.3c-1.5,0-3-0.1-4.6-0.3c-6.5-0.8-10.3-4.9-10.3-10.5
					c0-1.2,0.2-2.6,0.6-3.9c1.2-4.2,3.6-8,5.2-12c2.4-5.7,4.6-11.5,4.6-17.6c0-2.6-0.4-5.2-1.4-7.9c-4.4-12.3-16.2-19.4-28.3-19.4
					c-6.2,0-12.4,1.9-17.8,5.9c-14,10.5-22.6,24.5-26,41.6c-1.2,6-1.9,11.9-1.9,17.6c0,17.8,6.1,34,20.4,47.5
					c14.9,14.1,32.7,19.5,52.1,19.5c3.8,0,7.8-0.2,11.7-0.6c17.3-1.7,32.4-9.2,46.9-17.8c40.9-24.2,81.6-48.7,122.2-73.4
					c42.6-26,85.1-52.2,127.6-78.5C509.7,489.7,405.6,566.9,283.5,566.9"/>
				<g>
					<defs>
						<path id="SVGID_00000060735105811439452750000002212854653392144041_" d="M309.2,460.1c-14.3,8.6-28.7,17.2-42.9,26
							c-5.6,3.5-11.6,5.3-17.8,5.3c-1.5,0-3-0.1-4.6-0.3c-6.5-0.8-10.3-4.9-10.3-10.5c0-1.2,0.2-2.6,0.6-3.9c1.2-4.2,3.6-8,5.2-12
							c2.4-5.7,4.6-11.5,4.6-17.6c0-2.6-0.4-5.2-1.4-7.9c-4.4-12.3-16.2-19.4-28.3-19.4c-6.2,0-12.4,1.9-17.8,5.9
							c-14,10.5-22.6,24.5-26,41.6c-1.2,6-1.9,11.9-1.9,17.6c0,17.8,6.1,34,20.4,47.4c14.9,14.1,32.7,19.5,52.1,19.5
							c3.8,0,7.8-0.2,11.7-0.6c17.3-1.7,32.4-9.2,46.9-17.8c40.9-24.2,81.6-48.7,122.2-73.4c42.6-26,85.1-52.2,127.6-78.5
							c7.7-21,13.1-43.2,15.6-66.2L309.2,460.1z"/>
					</defs>
					
						<clipPath id="SVGID_00000041265002995724331530000002485260158795763384_" style="clip-path:url(#SVGID_00000137826802751399189450000000776165441155188915_);">
						<use xlink:href="#SVGID_00000060735105811439452750000002212854653392144041_"  style="overflow:visible;"/>
					</clipPath>
					<g>
						<defs>
							
								<rect id="SVGID_00000103242048551012781410000004836397406419722681_" x="188.6" y="256.3" transform="matrix(0.342 -0.9397 0.9397 0.342 -159.7054 615.2465)" width="341.8" height="330.7"/>
						</defs>
						
							<clipPath id="SVGID_00000122710308230959640590000002449655868687015848_" style="clip-path:url(#SVGID_00000041265002995724331530000002485260158795763384_);">
							<use xlink:href="#SVGID_00000103242048551012781410000004836397406419722681_"  style="overflow:visible;"/>
						</clipPath>
						<g style="clip-path:url(#SVGID_00000122710308230959640590000002449655868687015848_);">
							
								<image style="overflow:visible;" width="689" height="712" xlink:href="5011F6F4A88D1C4B.png"  transform="matrix(0.4511 0.1642 -0.1642 0.4511 262.5357 204.5336)">
							</image>
						</g>
					</g>
				</g>
			</g>
		</mask>
		
			<g style="clip-path:url(#SVGID_00000137826802751399189450000000776165441155188915_);mask:url(#SVGID_00000007430921965185143910000007866144017643319480_);">
			<g>
				<defs>
					<rect id="SVGID_00000148619655031226789330000009584910226865761159_" x="-8.7" y="-7.2" width="584" height="575"/>
				</defs>
				<clipPath id="SVGID_00000010296815087464282790000018128255535287496875_">
					<use xlink:href="#SVGID_00000148619655031226789330000009584910226865761159_"  style="overflow:visible;"/>
				</clipPath>
				<path style="clip-path:url(#SVGID_00000010296815087464282790000018128255535287496875_);fill:#CD1719;" d="M283.5,566.9
					C126.9,566.9,0,440,0,283.5C0,126.9,126.9,0,283.5,0C440,0,566.9,126.9,566.9,283.5c0,10.7-0.6,21.3-1.8,31.7L309.2,460.1
					c-14.3,8.6-28.7,17.2-42.9,26c-5.6,3.5-11.6,5.3-17.8,5.3c-1.5,0-3-0.1-4.6-0.3c-6.5-0.8-10.3-4.9-10.3-10.5
					c0-1.2,0.2-2.6,0.6-3.9c1.2-4.2,3.6-8,5.2-12c2.4-5.7,4.6-11.5,4.6-17.6c0-2.6-0.4-5.2-1.4-7.9c-4.4-12.3-16.2-19.4-28.3-19.4
					c-6.2,0-12.4,1.9-17.8,5.9c-14,10.5-22.6,24.5-26,41.6c-1.2,6-1.9,11.9-1.9,17.6c0,17.8,6.1,34,20.4,47.5
					c14.9,14.1,32.7,19.5,52.1,19.5c3.8,0,7.8-0.2,11.7-0.6c17.3-1.7,32.4-9.2,46.9-17.8c40.9-24.2,81.6-48.7,122.2-73.4
					c42.6-26,85.1-52.2,127.6-78.5C509.7,489.7,405.6,566.9,283.5,566.9"/>
				<g style="clip-path:url(#SVGID_00000010296815087464282790000018128255535287496875_);">
					<defs>
						<path id="SVGID_00000030466161230699176550000015591713455704066442_" d="M309.2,460.1c-14.3,8.6-28.7,17.2-42.9,26
							c-5.6,3.5-11.6,5.3-17.8,5.3c-1.5,0-3-0.1-4.6-0.3c-6.5-0.8-10.3-4.9-10.3-10.5c0-1.2,0.2-2.6,0.6-3.9c1.2-4.2,3.6-8,5.2-12
							c2.4-5.7,4.6-11.5,4.6-17.6c0-2.6-0.4-5.2-1.4-7.9c-4.4-12.3-16.2-19.4-28.3-19.4c-6.2,0-12.4,1.9-17.8,5.9
							c-14,10.5-22.6,24.5-26,41.6c-1.2,6-1.9,11.9-1.9,17.6c0,17.8,6.1,34,20.4,47.4c14.9,14.1,32.7,19.5,52.1,19.5
							c3.8,0,7.8-0.2,11.7-0.6c17.3-1.7,32.4-9.2,46.9-17.8c40.9-24.2,81.6-48.7,122.2-73.4c42.6-26,85.1-52.2,127.6-78.5
							c7.7-21,13.1-43.2,15.6-66.2L309.2,460.1z"/>
					</defs>
					<clipPath id="SVGID_00000031166582233949153160000016527175284781316281_">
						<use xlink:href="#SVGID_00000030466161230699176550000015591713455704066442_"  style="overflow:visible;"/>
					</clipPath>
					<g style="clip-path:url(#SVGID_00000031166582233949153160000016527175284781316281_);">
						<defs>
							
								<rect id="SVGID_00000167388701814054397930000006368123415577156762_" x="188.6" y="256.3" transform="matrix(0.342 -0.9397 0.9397 0.342 -159.7054 615.2465)" width="341.8" height="330.7"/>
						</defs>
						<clipPath id="SVGID_00000028287665679304301930000012528045286971220112_">
							<use xlink:href="#SVGID_00000167388701814054397930000006368123415577156762_"  style="overflow:visible;"/>
						</clipPath>
						<g style="clip-path:url(#SVGID_00000028287665679304301930000012528045286971220112_);">
							
								<image style="overflow:visible;" width="689" height="712" xlink:href="5011F6F4A88D1C49.png"  transform="matrix(0.4511 0.1642 -0.1642 0.4511 262.5357 204.5336)">
							</image>
						</g>
						
							<rect x="0" y="0" style="clip-path:url(#SVGID_00000028287665679304301930000012528045286971220112_);fill:#003761;" width="566.9" height="566.9"/>
					</g>
				</g>
				<defs>
					
						<filter id="Adobe_OpacityMaskFilter_00000178169744148962018150000013915933577138527678_" filterUnits="userSpaceOnUse" x="-8.7" y="-7.2" width="583.7" height="576.5">
						<feColorMatrix  type="matrix" values="1 0 0 0 0  0 1 0 0 0  0 0 1 0 0  0 0 0 1 0"/>
					</filter>
				</defs>
				
					<mask maskUnits="userSpaceOnUse" x="-8.7" y="-7.2" width="583.7" height="576.5" id="SVGID_00000007430921965185143910000007866144017643319480_">
					<g style="filter:url(#Adobe_OpacityMaskFilter_00000178169744148962018150000013915933577138527678_);">
						<g>
							<defs>
								<rect id="SVGID_00000057129086113316906350000002564832132842996133_" x="-8.7" y="-7.2" width="583.7" height="576.5"/>
							</defs>
							
								<clipPath id="SVGID_00000183949314268193632070000014083173830026710407_" style="clip-path:url(#SVGID_00000010296815087464282790000018128255535287496875_);">
								<use xlink:href="#SVGID_00000057129086113316906350000002564832132842996133_"  style="overflow:visible;"/>
							</clipPath>
							<g style="clip-path:url(#SVGID_00000183949314268193632070000014083173830026710407_);">
								
									<image style="overflow:visible;" width="1216" height="1201" xlink:href="5011F6F4A88D1C4F.jpg"  transform="matrix(0.48 0 0 0.48 -8.7087 -7.1813)">
								</image>
							</g>
						</g>
					</g>
				</mask>
				
					<rect x="-8.7" y="-7.2" style="display:none;opacity:0.75;clip-path:url(#SVGID_00000010296815087464282790000018128255535287496875_);" width="583.7" height="576.5"/>
			</g>
		</g>
	</g>
	
		<rect x="225.5" y="83" style="clip-path:url(#SVGID_00000140004430997934725800000006941174267204190888_);fill:#FFFFFF;" width="30.8" height="52.8"/>
	
		<rect x="229.2" y="135.2" style="clip-path:url(#SVGID_00000140004430997934725800000006941174267204190888_);fill:#FFFFFF;" width="7" height="12.8"/>
	
		<rect x="314" y="135.2" style="clip-path:url(#SVGID_00000140004430997934725800000006941174267204190888_);fill:#FFFFFF;" width="7" height="12.8"/>
	
		<rect x="271.6" y="135.2" style="clip-path:url(#SVGID_00000140004430997934725800000006941174267204190888_);fill:#FFFFFF;" width="7" height="12.8"/>
	
		<rect x="245.6" y="135.2" style="clip-path:url(#SVGID_00000140004430997934725800000006941174267204190888_);fill:#FFFFFF;" width="7" height="12.8"/>
	
		<rect x="330.4" y="135.2" style="clip-path:url(#SVGID_00000140004430997934725800000006941174267204190888_);fill:#FFFFFF;" width="7" height="12.8"/>
	
		<rect x="288" y="135.2" style="clip-path:url(#SVGID_00000140004430997934725800000006941174267204190888_);fill:#FFFFFF;" width="7" height="12.8"/>
	<polygon style="clip-path:url(#SVGID_00000140004430997934725800000006941174267204190888_);fill:#FFFFFF;" points="349.1,157.2 
		349.1,140.6 340.2,140.6 340.2,150.7 327.8,150.7 327.8,140.6 323.7,140.6 323.7,150.7 311.3,150.7 311.3,140.6 297.8,140.6 
		297.8,150.7 285.3,150.7 285.3,140.6 281.3,140.6 281.3,150.7 268.8,150.7 268.8,140.6 255.4,140.6 255.4,150.7 242.9,150.7 
		242.9,140.6 238.9,140.6 238.9,150.7 226.4,150.7 226.4,140.6 217.8,140.6 217.8,157.2 	"/>
	<polygon style="clip-path:url(#SVGID_00000140004430997934725800000006941174267204190888_);fill:#FFFFFF;" points="259.8,80 
		259.8,65.6 255.2,65.6 255.2,72.8 249,72.8 249,65.6 244,65.6 244,72.8 237.8,72.8 237.8,65.6 232.8,65.6 232.8,72.8 226.6,72.8 
		226.6,65.6 222,65.6 222,80 	"/>
	<polygon style="clip-path:url(#SVGID_00000140004430997934725800000006941174267204190888_);fill:#FFFFFF;" points="344.7,80 
		344.7,65.6 340.1,65.6 340.1,72.8 333.8,72.8 333.8,65.6 328.9,65.6 328.9,72.8 322.6,72.8 322.6,65.6 317.6,65.6 317.6,72.8 
		311.4,72.8 311.4,65.6 306.8,65.6 306.8,80 	"/>
	
		<rect x="267.9" y="83" style="clip-path:url(#SVGID_00000140004430997934725800000006941174267204190888_);fill:#FFFFFF;" width="30.8" height="52.8"/>
	
		<rect x="264.6" y="76.6" style="clip-path:url(#SVGID_00000140004430997934725800000006941174267204190888_);fill:#FFFFFF;" width="37.4" height="3.5"/>
	
		<rect x="310.4" y="83" style="clip-path:url(#SVGID_00000140004430997934725800000006941174267204190888_);fill:#FFFFFF;" width="30.8" height="52.8"/>
	<g style="clip-path:url(#SVGID_00000140004430997934725800000006941174267204190888_);">
		<defs>
			<rect id="SVGID_00000129885073194814929750000000483134144965492900_" x="0" y="0" width="566.9" height="566.9"/>
		</defs>
		<clipPath id="SVGID_00000174572823025115002470000014041190425779138697_">
			<use xlink:href="#SVGID_00000129885073194814929750000000483134144965492900_"  style="overflow:visible;"/>
		</clipPath>
		<path style="clip-path:url(#SVGID_00000174572823025115002470000014041190425779138697_);fill:#FFFFFF;" d="M299.7,74.3
			c0-9-7.3-16.2-16.2-16.2c-9,0-16.2,7.3-16.2,16.2"/>
	</g>
	<polygon style="clip-path:url(#SVGID_00000140004430997934725800000006941174267204190888_);fill:#FFFFFF;" points="251.5,44.2 
		244.3,44.3 240.9,38 237.4,44.3 230.2,44.2 234,50.3 230.2,56.5 237.4,56.3 240.9,62.6 244.3,56.3 251.5,56.5 247.8,50.3 	"/>
	<polygon style="clip-path:url(#SVGID_00000140004430997934725800000006941174267204190888_);fill:#FFFFFF;" points="336.4,44.2 
		329.2,44.3 325.7,38 322.3,44.3 315.1,44.2 318.8,50.3 315.1,56.5 322.3,56.3 325.7,62.6 329.2,56.3 336.4,56.5 332.7,50.3 	"/>
	
		<rect x="281.4" y="37.1" style="clip-path:url(#SVGID_00000140004430997934725800000006941174267204190888_);fill:#FFFFFF;" width="3.8" height="17.8"/>
	
		<rect x="277.2" y="41.3" style="clip-path:url(#SVGID_00000140004430997934725800000006941174267204190888_);fill:#FFFFFF;" width="12.2" height="3.8"/>
	<g style="clip-path:url(#SVGID_00000140004430997934725800000006941174267204190888_);">
		<defs>
			<rect id="SVGID_00000035494129656187095630000005492848409534220172_" x="0" y="0" width="566.9" height="566.9"/>
		</defs>
		<clipPath id="SVGID_00000065053798729353684090000000676508605943448201_">
			<use xlink:href="#SVGID_00000035494129656187095630000005492848409534220172_"  style="overflow:visible;"/>
		</clipPath>
		<path style="clip-path:url(#SVGID_00000065053798729353684090000000676508605943448201_);fill:#FFFFFF;" d="M461.2,362.5v37.2
			h20.1v-37.2l28.5-40.2h-24.1l-14.5,21l-14.5-21h-24.1L461.2,362.5z M428.7,339.3v-17h-44v77.4h44v-17h-23.9v-13.3h22.7v-17h-22.7
			v-12.9H428.7z M327.2,354.2H327v-31.9h-20.1v77.4H327v-33.6h0.2l26,33.6h26.1l-33.6-40.8l30.8-36.6h-24.9L327.2,354.2z
			 M294.4,324.1c-6-2.5-11.9-3.9-18.4-3.9c-10.9,0-21.9,4.7-29.5,12.5c-7.4,7.6-11.4,17.8-11.4,28.3c0,11.5,3.9,21.6,12.4,29.3
			c8,7.3,18.3,11.4,29.1,11.4c6.3,0,11.1-1.5,17.8-3.6V374c-4.2,5-10.8,8.2-17.3,8.2c-12.5,0-20.9-8.8-20.9-21
			c0-12,8.3-21.5,20.6-21.5c6.9,0,13.5,3,17.7,8.5V324.1z M187,339.2c12,0,21.9,9.8,21.9,20.4c0,13.3-9.9,23.1-21.9,23.1
			c-12,0-21.9-9.8-21.9-23.1C165.1,349,175,339.2,187,339.2 M187,319.7c-22.3,0-42.8,16.4-42.8,39.8c0,25,18,42.7,42.8,42.7
			s42.8-17.7,42.8-42.7C229.8,336.1,209.2,319.7,187,319.7 M85.8,352.2v-29.9H65.6v77.4h20.1V368h29.1v31.7h20.1v-77.4h-20.1v29.9
			H85.8z"/>
		<path style="clip-path:url(#SVGID_00000065053798729353684090000000676508605943448201_);fill:#FFFFFF;" d="M475.1,277.6v4.2h25.3
			c-0.3,7.7-2.5,13.6-8.6,18.8c-5.8,4.7-13.2,7.8-20.8,7.8c-17.6,0-32.1-14.6-32.1-32.1c0-17,14.8-32.1,32.1-32.1
			c11.5,0,21,5.8,27.3,15.2l3.7-2.9c-7.4-10.1-17.8-16.5-30.7-16.5c-20.3,0-36.9,16.3-36.9,36.6c0,19.5,16.7,36,36.3,36
			c9.9,0,20.1-4.1,26.8-11.4c6.3-6.9,7.6-14.6,7.4-23.6H475.1z M397.3,274v-28.8h2.9c4.1,0,8.9-0.2,12.7,1.6
			c5.1,2.3,7.5,7.5,7.5,12.8c0,4.2-1.6,8.4-5,11.2c-3.6,3.1-8,3.3-12.4,3.3H397.3z M404.6,278.2c11.7,0.2,20.3-6.2,20.3-18.5
			c0-6-2.1-11.6-7.1-15.2c-4.8-3.5-10.4-3.6-16.1-3.6h-8.8v70.8h4.5v-33.5h2.3l23.1,33.5h5.2L404.6,278.2z M373.7,283.7
			c0,6.4,0,13.1-3.7,17.8c-3.5,4.5-10.4,6.9-15.9,6.9c-5.4,0-12.4-2.3-15.9-6.9c-3.7-4.7-3.7-11.4-3.7-17.8v-42.8h-4.5V285
			c0,7.2,0,13.4,4.8,19.3c4.8,5.4,12.1,8.3,19.2,8.3c7.1,0,14.5-2.8,19.2-8.3c4.8-5.9,4.8-12.1,4.8-19.3v-44.1h-4.5V283.7z
			 M282.3,245.2h7.8c4.1,0,8.5,0,12.1,2.3c4,2.5,5.8,7,5.8,11.6c0,4.9-1.2,8.4-5.3,11.4c-4,2.9-7.9,2.6-12.7,2.6h-7.8V245.2z
			 M295.9,311.7c6.3,0,11.5-0.8,16.5-5.1c4.4-3.8,6.6-8.9,6.6-14.6c0-9-5.9-16-14.6-17.8c5.6-3.2,8.2-8,8.2-14.5
			c0-5.6-1.6-10.9-5.9-14.6c-4.2-3.8-9.3-4.1-14.6-4.1h-14.2v70.8H295.9z M282.3,277.2h9.9c4.7,0,10.6,0.1,14.9,2.3
			c4.8,2.3,7.3,7.5,7.3,12.7c0,5.3-2.6,9.7-6.9,12.6c-4.3,2.9-9.5,2.7-14.5,2.7h-10.8V277.2z M265,311.7h4.3l-15.2-73.1L228,303
			l-26-64.4l-15.2,73.1h4.3l12.1-58.6h0.2L228,314l24.7-60.9h0.2L265,311.7z M169.8,284.2h-27.7L156,250L169.8,284.2z M171.5,288.4
			l9.5,23.3h4.6L156,238.6l-29.7,73.1h4.6l9.5-23.3H171.5z M70.7,271v-30h-4.5v70.8h4.5v-36.5h43v36.5h4.5v-70.8h-4.5v30H70.7z"/>
		<defs>
			
				<filter id="Adobe_OpacityMaskFilter_00000111904463791382754800000012700296210783793561_" filterUnits="userSpaceOnUse" x="133.9" y="454.8" width="88" height="77.8">
				<feColorMatrix  type="matrix" values="1 0 0 0 0  0 1 0 0 0  0 0 1 0 0  0 0 0 1 0"/>
			</filter>
		</defs>
		
			<mask maskUnits="userSpaceOnUse" x="133.9" y="454.8" width="88" height="77.8" id="SVGID_00000070833900260031177410000013706394676657544876_">
			<g style="filter:url(#Adobe_OpacityMaskFilter_00000111904463791382754800000012700296210783793561_);">
				<path style="clip-path:url(#SVGID_00000065053798729353684090000000676508605943448201_);fill:#FFFFFF;" d="M178.4,530.2
					c19.1,0,34.6-15.5,34.6-34.6c0-19.1-15.5-34.6-34.6-34.6s-34.6,15.5-34.6,34.6C143.8,514.8,159.3,530.2,178.4,530.2"/>
			</g>
		</mask>
		
			<g style="clip-path:url(#SVGID_00000065053798729353684090000000676508605943448201_);mask:url(#SVGID_00000070833900260031177410000013706394676657544876_);">
			<g>
				<defs>
					<rect id="SVGID_00000134218436974868415880000012129486987572192404_" x="133.9" y="454.8" width="88" height="77"/>
				</defs>
				<clipPath id="SVGID_00000043450426838490335430000000360912070676500894_">
					<use xlink:href="#SVGID_00000134218436974868415880000012129486987572192404_"  style="overflow:visible;"/>
				</clipPath>
				<path style="clip-path:url(#SVGID_00000043450426838490335430000000360912070676500894_);fill:#FFFFFF;" d="M178.4,530.2
					c19.1,0,34.6-15.5,34.6-34.6c0-19.1-15.5-34.6-34.6-34.6s-34.6,15.5-34.6,34.6C143.8,514.8,159.3,530.2,178.4,530.2"/>
				<defs>
					
						<filter id="Adobe_OpacityMaskFilter_00000051358515602692873620000001377995583163896979_" filterUnits="userSpaceOnUse" x="133.9" y="454.8" width="87.8" height="77.8">
						<feColorMatrix  type="matrix" values="1 0 0 0 0  0 1 0 0 0  0 0 1 0 0  0 0 0 1 0"/>
					</filter>
				</defs>
				
					<mask maskUnits="userSpaceOnUse" x="133.9" y="454.8" width="87.8" height="77.8" id="SVGID_00000070833900260031177410000013706394676657544876_">
					<g style="filter:url(#Adobe_OpacityMaskFilter_00000051358515602692873620000001377995583163896979_);">
						<g>
							<defs>
								<rect id="SVGID_00000127028664091002600920000015569284203761851043_" x="133.9" y="454.8" width="87.8" height="77.8"/>
							</defs>
							
								<clipPath id="SVGID_00000033341981218435098300000006999520054986342064_" style="clip-path:url(#SVGID_00000043450426838490335430000000360912070676500894_);">
								<use xlink:href="#SVGID_00000127028664091002600920000015569284203761851043_"  style="overflow:visible;"/>
							</clipPath>
							<g style="clip-path:url(#SVGID_00000033341981218435098300000006999520054986342064_);">
								
									<image style="overflow:visible;" width="183" height="162" xlink:href="5011F6F4A88D1C49.jpg"  transform="matrix(0.48 0 0 0.48 133.8893 454.7854)">
								</image>
							</g>
						</g>
					</g>
				</mask>
				
					<rect x="133.9" y="454.8" style="display:none;opacity:0.75;clip-path:url(#SVGID_00000043450426838490335430000000360912070676500894_);" width="87.8" height="77.8"/>
			</g>
		</g>
		<path style="clip-path:url(#SVGID_00000065053798729353684090000000676508605943448201_);fill:#FFFFFF;" d="M199.9,222.3
			c1.1-2.7,2.1-5.3,3.2-7.9c2.2-4.9,4.6-9.8,6.7-14.7c2.4-5.5,4.9-11,7-16.6c1.4-4,2.3-8.1,3.1-12.1c0.6-2.7,0.6-5.5,0.9-8.2
			c0-0.3,0.1-0.5,0.1-0.8h125.2c0.1,0.4,0.2,0.8,0.2,1.1c-0.1,7.5,1.8,14.8,4.6,21.9c1.9,4.9,4.1,9.7,6.3,14.6
			c1.9,4.3,3.9,8.5,5.8,12.7c1.3,2.9,2.5,5.9,3.7,8.9c0.1,0.3,0.1,0.6,0.2,1.1c-0.8,0-1.5,0-2.2,0c-16.8,0-35.4,0-52.2,0
			c-1.8,0-1.8,0-1.8,0c0-10.3,0.1-13,0-23.3c0-5.2-2.9-9.4-7.7-13c-3.9-2.9-6.7-4.7-11.9-5.6c-3.8-0.6-7.7-0.6-11.6-0.4
			c-5.4,0.4-8.3,1.8-12.6,4.2c-5.2,2.9-8.8,6.7-10,11.6c-0.4,1.9-0.6,3.9-0.7,5.8c-0.1,9.5,0,11.2,0,20.8c0,0-1.9,0-3.1,0
			c-17.2,0-34.3,0-51.5,0C201.2,222.3,200.7,222.3,199.9,222.3"/>
	</g>
</g>
</svg>
