<?xml version="1.0" encoding="UTF-8" standalone="no"?>
<!DOCTYPE svg PUBLIC "-//W3C//DTD SVG 1.1//EN" "http://www.w3.org/Graphics/SVG/1.1/DTD/svg11.dtd">
<svg version="1.1" id="Ebene_1" xmlns="http://www.w3.org/2000/svg" xmlns:xlink="http://www.w3.org/1999/xlink" x="0px" y="0px"
	 viewBox="0 0 566.9 566.9" style="enable-background:new 0 0 566.9 566.9;" xml:space="preserve">
<style type="text/css">
	.st0{fill:#CD191E;}
	.st1{fill:#FFFFFF;}
	.st2{fill:#14395D;}
</style>
<g>
	<path class="st0" d="M0,295.1c0-7.8,0-15.6,0-23.5C2.3,255,3.2,238.4,6.9,222c3.5-15.8,8.3-31.2,14.4-46.1
		c12.5-30.5,30.4-58.7,52.6-83.1C156,2.5,291.2-25.1,402,26.2c108.6,50.3,177.2,169.1,162.3,288.7c-13.8,6.3-26.9,15.1-40.2,22.5
		c-14.2,8-28.4,16.1-42.7,24c7.6-13.9,18.8-26.6,27.9-39.6c-8.4,0-16.4,0-24.4,0c-4.8,6.9-9.5,13.7-14.3,20.8
		c-4.9-7.1-9.6-13.9-14.2-20.7c-8.1,0-16.1,0-24.4,0c5.3,8.1,11.1,15.8,16.7,23.7c3.1,4.4,6.5,8.7,9.4,13.3c3,4.8,2.2,9.1,2.2,14.7
		c-10.6,6-21.3,12-31.9,18c0-3.1,0-6.2,0-9.5c-8.2,0-16,0-23.9,0c0-4.5,0-8.8,0-13.3c7.6,0,15.1,0,22.5,0c0-5.8,0-11.4,0-17.2
		c-7.6,0-15,0-22.6,0c0-4.3,0-8.3,0-12.6c7.9,0,15.8,0,23.6,0c0.4-4,0.3-15.5-0.2-17.1c-14.6,0-29.1,0-43.7,0
		c-0.5,4.5-0.3,75.6,0.2,77.4c9.9,0,19.9,0,29.8,0.1c-24,15.8-50.6,28.6-75.6,42.8c-23,13-45.7,26.6-68.3,40.3
		c-8.8,5.4-22,12.1-32.2,5.8c-9.9-6.2-1.2-19.1,1.9-26.7c4.1-9.7,5.5-20.3-0.8-29.5c-5.6-8.3-15.2-13.3-25.2-13.3
		c-21.4,0.1-37.6,23-42.5,41.8c-8.6,4-15.9,5.9-21.8,14.2c-5.3,7.5-7.3,16.9-5.8,25.9c3.6,21,22.6,30.2,42.1,27.9
		c20.3,21,50.3,26.2,78.1,19.5c25.4-6.1,48.3-23.5,70.5-36.7c23.7-14.2,47.4-28.4,71.1-42.8c47.8-28.9,95.1-58.5,142.8-87.6
		c-3.5,13.5-11.2,27.1-17.9,39.3c-6.7,12-14.2,23.5-22.6,34.4c-17.1,22.3-37.4,42.1-60.2,58.4c-84.9,60.8-200.2,69.6-293.2,22.1
		c-43.5-22.2-80.9-55.7-107.8-96.5c-13.9-21.1-25-44-32.8-68c-4-12.1-7.1-24.5-9.3-37.1c-1.3-7-2.3-14-2.9-21
		C1.2,307.4,2,300.2,0,295.1z M256.3,222.2c0-8.9-2.4-22,2.1-30.1c4.7-8.4,15.7-12.2,24.7-12.2c9.5-0.1,19.6,3.3,24.9,11.8
		c5,8,1.8,21.5,2.4,30.5c18.8,0,37.4,0,56.2,0c-2.6-10.2-8.4-20.1-12.6-29.8c-2.1-4.9-4.4-9.7-5.9-14.8c-1.5-5.2-1.4-10.4-2.2-15.7
		c-41.7,0-83.4,0-125,0c-1.2,4.7-1,9.7-2.2,14.5c-1.4,5.4-3.8,10.6-6,15.7c-4.3,10.1-8.8,20-13.1,30.1
		C218.7,222.2,237.4,222.2,256.3,222.2z M185.6,319.4c-19.5-0.9-38,15-41.1,33.9c-2.7,16.7,5.2,34.8,20.1,43
		c16.2,9,38.8,7.6,52.4-5.5c12.3-11.8,16.5-31.6,9.5-47.3C219.3,327.6,202.4,319.3,185.6,319.4z M65.8,321.9c0,25.9,0,51.6,0,77.4
		c6.8,0,13.4,0,20.4,0c0-10.5,0-20.9,0-31.3c5.8-0.5,26.9-0.3,28.8,0.3c0,10.3,0,20.6,0,31c6.8,0,13.4,0,20,0c0-25.8,0-51.6,0-77.3
		c-4-0.4-18.4-0.3-20.3,0.3c0,9.7,0,19.5,0,29.3c-5,0.4-26.9,0.3-28.7-0.3c0-9.7,0-19.5,0-29.3C79.2,321.9,72.6,321.9,65.8,321.9z
		 M306.6,321.9c0,25.9,0,51.6,0,77.4c6.7,0,13.3,0,20.2,0c0-11,0-21.8,0-32.7c4.2,2,8,9.7,10.9,13.3c3.6,4.7,7.2,9.3,10.8,14
		c1.9,2.4,3,4.8,6.1,5.5c2,0.5,5.4,0,7.5,0c5.7,0,11.4,0,17.1,0c-11.4-13.9-22.5-27.4-33.6-40.9c10.1-12.1,21.7-23.8,30.6-36.7
		c-5.9,0-11.7,0.1-17.6,0c-7-0.1-8.1,0.7-12.2,6.1c-6.3,8.4-12.3,17.9-19.6,25.4c0-10.8,0-21.1,0-31.4
		C319.9,321.9,313.3,321.9,306.6,321.9z M294.1,323.6c-27.6-11.4-59,6.4-59,37.3c0,14.5,7,26.8,19.4,34.5c12.2,7.5,26.4,7,39.6,2.5
		c0.5-6.3,0.3-22.4-0.3-23.8c-12.7,13.5-36.6,7.9-37.6-11.9c-1.1-21.5,24.5-29.6,38-14.3C294.1,339.4,294.1,331.6,294.1,323.6z
		 M252.6,148c0-4.1,0-8,0-11.9c1.3-0.1,2.4-0.2,3.4-0.3c0.5-4.7,0.3-51.1-0.2-52.7c-10.1,0-20.2,0-30.4,0c0,17.6,0,35.1,0,52.7
		c1.2,0.1,2.3,0.2,3.5,0.3c0,4,0,7.9,0,11.8c2.5,0,4.9,0,7.4,0c0-4,0-7.9,0-11.8c3.1,0,6,0,9.1,0c0,4,0,7.9,0,11.9
		C247.8,148,250,148,252.6,148z M340.8,135.8c0-17.8,0-35.2,0-52.7c-10.3,0-20.5,0-30.7,0c0,17.7,0,35.2,0,52.7
		c1.2,0.1,2.3,0.2,3.6,0.3c0,4,0,7.9,0,11.8c2.5,0,4.7,0,7.2,0c0-4.1,0-7.9,0-11.9c3.1,0,6-0.1,9.1,0.1c0,4.1,0,8,0,12
		c2.5,0,4.7,0.2,7.2-0.2c0-4.1,0-7.9,0-11.8C338.5,136,339.6,135.9,340.8,135.8z M287.9,136.1c0,4.1,0,8,0,11.9c2.5,0,4.7,0,7.1,0
		c0-4,0-7.9,0-11.9c1.3-0.1,2.3-0.2,3.4-0.2c0.5-5.9,0.3-51-0.2-52.7c-10.1,0-20.2,0-30.3,0c-0.4,4.6-0.2,51,0.3,52.9
		c0.9,0,1.9,0,3.1,0c0,4.1,0,8,0,11.9c2.5,0,4.7,0,7.2,0c0-4,0-7.9,0-11.9C281.6,136.1,284.5,136.1,287.9,136.1z M226.4,150.7
		c0-3.5,0-6.8,0-10.3c-3.1,0-5.9-0.1-8.9,0.1c0,5.5,0,11,0,16.5c43.9,0,87.5,0,131.1,0c0.4-4.2,0.3-14.8-0.2-16.5
		c-2.8,0-5.7,0-8.8,0c0,3.4,0,6.8,0,10.1c-4.1,0-8,0-12.1,0c0-3.4,0-6.7,0-10.1c-1.6,0-2.9,0-4.2,0c-0.1,3.5,0.1,6.8-0.1,10.1
		c-4.2,0-8.1,0-12.2,0c0-3.4,0-6.7,0-10.1c-4.6,0-9,0-13.6,0c0,3.4,0,6.7,0,10.1c-4.2,0-8.1,0-12.3,0c0-3.5,0-6.8,0-10.1
		c-1.4,0-2.6,0-4,0c0,3.4,0,6.8,0,10.1c-4.2,0-8.1,0-12.1,0c-0.2-3.5,0.1-6.8-0.2-10.1c-4.7,0-9.1,0-13.8,0c0,3.4,0,6.7,0,10.2
		c-3.7,0-8.3,0.7-11.9-0.3c-0.2-3.4,0.1-6.8-0.2-10c-1.5,0-2.8,0-4.3,0c0,3.5,0,6.8,0,10.1C234.5,150.7,230.7,150.7,226.4,150.7z
		 M252.3,254c0.2,0,0.4,0.1,0.5,0.1c3.9,19.1,7.9,38.1,11.8,57.2c1.6,0,3,0,4.6,0c-5-24.3-10.1-48.4-15.1-72.5c-0.2,0-0.3,0-0.5-0.1
		c-8.6,21.2-16.9,42.4-25.8,63.5c-8.7-21.5-17.2-42.5-25.6-63.5c-0.2,0-0.3,0.1-0.5,0.1c-5,24.1-10,48.3-15.1,72.5
		c1.7,0,3.1,0,4.6,0c4-19.1,7.9-38.2,11.9-57.2c0.2,0,0.3,0,0.5,0c8,19.9,16,39.7,24.3,60.1C236.2,293.7,244.2,273.9,252.3,254z
		 M501.3,256.5c-3.1-7.1-12.8-13-20-15.2c-7.8-2.4-16.7-1.9-24.3,1c-15.3,6-25,22.1-22.9,38.4c2.3,18.3,18.9,32.5,37.4,31.7
		c8.6-0.4,17.1-3.4,23.5-9.3c7.7-7,9.5-15.8,9.5-25.9c-10.2,0-20,0-29.9,0c0,1.7,0,3,0,4.5c8.4,0,16.7,0,25,0
		c0.9,15.6-15.4,26.2-29.5,26.1c-14.5,0-27.6-10.9-30.7-24.9c-3.4-15.2,5.5-31.3,20.1-36.8c15.4-5.9,28.6,1.3,38.3,13.1
		C498.9,258.3,500.1,257.4,501.3,256.5z M277.6,240.4c0,23.9,0,47.4,0,71.1c12.1,0,29.2,3.3,37.5-8c8.6-11.6,1.8-24.8-10.2-29.7
		c8-6.4,10.3-18,3.7-26.7C301.8,238,287.5,240.6,277.6,240.4z M392.3,240.6c0,23.7,0,47.1,0,70.6c1.6,0,3.1,0,4.7,0
		c0-11.1,0-22,0-32.8c3.6-1.6,12.6,15.2,14.6,18.1c2.7,3.9,5.2,7.8,8,11.6c2.5,3.4,3.6,3.2,7.8,3.2c-7.7-11.2-15.2-22-22.9-33.1
		c13.2-1.6,23.4-10.1,19.1-24.9C419.6,239.2,404.2,240.6,392.3,240.6z M66.6,240.6c0,23.6,0,47.1,0,70.6c1.5,0,2.9,0,4.4,0
		c0-12.1,0-24.1,0-36c14.3,0,28.3,0,42.6,0c0,12.1,0,24.1,0,36.1c1.6,0,3.1,0,4.7,0c0-23.6,0-47.1,0-70.6c-1.8,0-3.2,0-4.8,0
		c0,10.1,0,20,0,29.9c-5.3,0.5-40.7,0.3-42.7-0.3c0-9.8,0-19.7,0-29.6C69.4,240.6,68.1,240.6,66.6,240.6z M185.3,311.3
		c-0.6-2.9-28.5-71.4-29.6-72.7c-9.8,24.2-19.6,48.4-29.5,72.7c1.8,0,3.3,0,4.9,0c3.1-7.7,6.3-15.4,9.4-23c10.4,0,20.6,0,30.8,0
		c3.1,7.7,6.3,15.3,9.4,22.9C182.3,311.3,183.8,311.3,185.3,311.3z M329.6,240.6c0,15.8-0.5,31.7,0.1,47.5
		c0.4,13.5,8.4,23.7,22.6,24.3c14.2,0.6,25-8.5,25.5-22.7c0.6-16.2,0.7-32.9-0.1-49.1c-1.5,0-2.9,0-4.5,0c0,14.6,0.2,29.3,0,43.9
		c-0.2,12.4-4.5,23-18.7,23.4c-15.4,0.4-20-11.2-20-24.4c0-14.3,0-28.6,0-43C332.7,240.6,331.4,240.6,329.6,240.6z M232.3,65.8
		c0,2.5,0,4.7,0,6.9c-2,0-3.8,0-5.7,0c0-2.4,0-4.6,0-6.9c-1.7,0-3.2,0-4.8,0c0,4.9,0,9.6,0,14.5c12.6,0,25.1,0,37.6,0
		c0.5-2.7,0.4-12.8-0.1-14.4c-1.4,0-2.8,0-4.5,0c0,2.4,0,4.7,0,6.9c-2.1,0-3.9,0-5.9,0c0-2.4,0-4.7,0-6.9c-1.8,0-3.4,0-5.2,0
		c0,2.4,0,4.6,0,6.9c-2.1,0-3.9,0-6.1,0c0-2.4,0-4.6,0-6.9C235.8,65.8,234.2,65.8,232.3,65.8z M333.4,72.8c0-2.4,0-4.6,0-6.9
		c-1.8,0-3.2,0-5,0c0,2.4,0,4.7,0,6.9c-2.1,0-3.9,0-6,0c0-2.4,0-4.6,0-6.9c-1.9,0-3.5,0-5.3,0c0,2.4,0,4.6,0,6.8c-2.1,0-3.9,0-5.9,0
		c0-2.4,0-4.6,0-6.8c-1.7,0-3.1,0-4.7,0c0,4.9-0.1,9.7,0.1,14.3c12.8,0,25.3,0,37.9,0c0-4.7,0.4-9.7-0.1-14.4c-1.7,0-3.2,0-4.9,0
		c0,2.4,0,4.6,0,6.9C337.4,72.8,335.5,72.8,333.4,72.8z M299.5,74.6c-0.4-21.1-32.7-21.2-32.5,0C277.9,74.6,288.5,74.6,299.5,74.6z
		 M247.9,50.6c1.2-2,2.3-3.9,3.5-6.1c-2.6,0-4.8,0-7.1,0c-1.2-2.1-2.4-4.2-3.7-6.4c-0.9,1.7-2,5-3.8,6c-1.6,1-5,0.4-6.9,0.5
		c1.4,2.3,2.5,4.2,3.6,6c-1.2,2.1-2.3,4-3.7,6.4c2.7-0.1,5-0.2,7.2-0.4c1.2,2.2,2.4,4.2,3.7,6.5c1.3-2.3,2.5-4.3,3.7-6.5
		c2.3,0.1,4.5,0.2,7.2,0.4C250.3,54.6,249.1,52.7,247.9,50.6z M325.4,38c-1.4,2.4-2.5,4.4-3.8,6.6c-2.3,0-4.4,0-6.9,0
		c1.3,2.2,2.4,4.1,3.5,5.9c-1.2,2.1-2.4,4-3.7,6.4c2.7-0.1,4.9-0.3,7.2-0.4c1.2,2.2,2.4,4.2,3.7,6.5c1.3-2.3,2.5-4.4,3.7-6.5
		c2.3,0.1,4.5,0.2,7.1,0.4c-1.4-2.4-2.5-4.4-3.7-6.4c1.2-2,2.3-3.9,3.5-6.1c-1.8,0-5.4,0.7-7-0.3C327.5,43.2,326.3,39.6,325.4,38z
		 M264.5,80.3c12.5,0,24.8,0,37.3,0c0.1-1.1,0.1-2.3,0-3.4c-12.5,0-24.8,0-37.2,0C264.5,78,264.5,79.1,264.5,80.3z M277.1,41.2
		c0,1.6,0,2.8,0,4.1c1.4,0.1,2.6,0.2,4.1,0.2c0,3.3,0,6.4,0,9.4c1.4,0,2.6,0,3.9,0c0-3.2,0-6.3,0-9.5c1.4-0.1,2.7-0.2,4-0.2
		c0-1.4,0-2.6,0-3.9c-1.4-0.1-2.6-0.2-4-0.2c0-1.3,0-2.5,0-3.7c-1.4,0-2.6,0-3.9,0c-0.1,1.3-0.1,2.5-0.2,3.8
		C279.7,41.2,278.5,41.2,277.1,41.2z"/>
	<path class="st1" d="M564.3,314.9c15-119.5-53.6-238.4-162.3-288.7C291.2-25.1,156,2.5,73.9,92.8c-22.2,24.4-40.1,52.6-52.6,83.1
		c-6.1,14.9-10.9,30.4-14.4,46.1c-3.7,16.4-4.6,33-6.9,49.6C0,181.1,0,90.5,0,0c189,0,378.1,0,567.1,0c0,189,0,378.1,0,567.1
		c-189,0-378.1,0-567.1,0c0-90.7,0-181.4,0-272.1c2,5.2,1.2,12.3,1.8,17.8c0.7,7,1.7,14.1,2.9,21c2.3,12.6,5.4,25,9.3,37.1
		c7.8,24,18.9,47,32.8,68c27,40.8,64.3,74.2,107.8,96.5c93,47.5,208.3,38.7,293.2-22.1c22.8-16.3,43.2-36.1,60.2-58.4
		c8.3-10.9,15.9-22.4,22.6-34.4c6.7-12.1,14.5-25.7,17.9-39.3C557,360.1,561.9,337.5,564.3,314.9z"/>
	<path class="st2" d="M564.3,314.9c-2.3,22.6-7.3,45.2-15.6,66.4c-47.7,29.1-95,58.6-142.8,87.6c-23.6,14.3-47.3,28.6-71.1,42.8
		c-22.1,13.2-45.1,30.6-70.5,36.7c-27.8,6.7-57.8,1.5-78.1-19.5c17.4-5.7,29.1-20.5,26.3-39.5c-1.3-8.9-6.3-16.7-13.4-22.1
		c-8.4-6.4-17.4-7-27.5-6.5c4.9-18.7,21.1-41.7,42.5-41.8c10,0,19.6,5,25.2,13.3c6.2,9.2,4.8,19.8,0.8,29.5
		c-3.2,7.6-11.9,20.5-1.9,26.7c10.2,6.3,23.4-0.4,32.2-5.8c22.6-13.7,45.3-27.3,68.3-40.3c25-14.2,51.6-27,75.6-42.8
		c4.6,0,9.2,0,14.1,0c0-2.8,0-5.4,0-7.9c10.6-6,21.3-12,31.9-18c0.1,8.6,0.1,17.1,0.2,25.6c5.7,0.4,18.5,0.2,20.4-0.3
		c0-11.9-2-25.9,0.6-37.5c14.3-8,28.5-16,42.7-24C537.3,330,550.4,321.2,564.3,314.9z"/>
	<path class="st1" d="M256.3,222.2c-19,0-37.7,0-56.7,0c4.3-10.1,8.8-20.1,13.1-30.1c2.2-5.1,4.6-10.3,6-15.7
		c1.2-4.8,1-9.7,2.2-14.5c41.7,0,83.3,0,125,0c0.8,5.3,0.7,10.4,2.2,15.7c1.5,5.1,3.7,9.9,5.9,14.8c4.2,9.6,10,19.6,12.6,29.8
		c-18.8,0-37.4,0-56.2,0c-0.6-9,2.7-22.5-2.4-30.5c-5.3-8.4-15.4-11.8-24.9-11.8c-9.1,0.1-20.1,3.8-24.7,12.2
		C254,200.2,256.3,213.3,256.3,222.2z"/>
	<path class="st1" d="M185.6,319.4c16.8-0.1,33.7,8.2,40.9,24.1c7,15.7,2.8,35.4-9.5,47.3c-13.6,13.1-36.3,14.5-52.4,5.5
		c-14.8-8.3-22.8-26.3-20.1-43C147.6,334.3,166.1,318.5,185.6,319.4z M187.1,339c-10.6-0.3-22,8.4-21.9,20.4
		c0.1,13.6,10.1,22.5,21.4,22.7c11.5,0.2,22-8.8,22-22.8C208.6,347.1,197.3,338.9,187.1,339z"/>
	<path class="st1" d="M171.8,460.8c10.1-0.5,19.1,0.1,27.5,6.5c7.1,5.4,12,13.2,13.4,22.1c2.8,18.9-8.9,33.8-26.3,39.5
		c-19.5,2.2-38.5-7-42.1-27.9c-1.5-9,0.5-18.4,5.8-25.9C155.9,466.7,163.1,464.8,171.8,460.8z"/>
	<path class="st1" d="M65.8,321.9c6.8,0,13.4,0,20.2,0c0,9.8,0,19.6,0,29.3c1.9,0.5,23.7,0.7,28.7,0.3c0-9.8,0-19.5,0-29.3
		c1.8-0.5,16.2-0.7,20.3-0.3c0,25.7,0,51.4,0,77.3c-6.7,0-13.3,0-20,0c0-10.4,0-20.7,0-31c-1.9-0.6-23-0.8-28.8-0.3
		c0,10.4,0,20.8,0,31.3c-6.9,0-13.6,0-20.4,0C65.8,373.5,65.8,347.8,65.8,321.9z"/>
	<path class="st1" d="M306.6,321.9c6.7,0,13.3,0,20.1,0c0,10.4,0,20.6,0,31.4c7.4-7.5,13.3-17,19.6-25.4c4.1-5.4,5.2-6.2,12.2-6.1
		c5.9,0,11.7,0,17.6,0c-9,13-20.5,24.7-30.6,36.7c11.1,13.5,22.2,27,33.6,40.9c-5.7,0-11.4,0-17.1,0c-2.1,0-5.5,0.5-7.5,0
		c-3.1-0.7-4.2-3-6.1-5.5c-3.6-4.7-7.2-9.4-10.8-14c-2.8-3.6-6.6-11.3-10.9-13.3c0,10.9,0,21.7,0,32.7c-6.9,0-13.5,0-20.2,0
		C306.6,373.5,306.6,347.8,306.6,321.9z"/>
	<path class="st1" d="M428.4,391.6c0,2.5,0,5,0,7.9c-4.9,0-9.5,0-14.1,0c-9.9-0.1-19.9-0.1-29.8-0.1c-0.5-1.9-0.7-72.9-0.2-77.4
		c14.5,0,29.1,0,43.7,0c0.4,1.6,0.6,13,0.2,17.1c-7.9,0-15.8,0-23.6,0c0,4.3,0,8.3,0,12.6c7.5,0,15,0,22.6,0c0,5.8,0,11.4,0,17.2
		c-7.4,0-14.9,0-22.5,0c0,4.5,0,8.8,0,13.3c7.8,0,15.7,0,23.9,0C428.4,385.5,428.4,388.5,428.4,391.6z"/>
	<path class="st1" d="M294.1,323.6c0,8,0,15.8,0,24.2c-13.5-15.3-39.1-7.2-38,14.3c1,19.8,24.9,25.4,37.6,11.9
		c0.6,1.4,0.8,17.6,0.3,23.8c-13.2,4.5-27.4,5.1-39.6-2.5c-12.4-7.6-19.4-20-19.4-34.5C235.1,330,266.5,312.2,294.1,323.6z"/>
	<path class="st1" d="M481.4,361.5c-2.6,11.6-0.6,25.6-0.6,37.5c-1.8,0.5-14.6,0.7-20.4,0.3c-0.1-8.5-0.1-17.1-0.2-25.6
		c0.1-5.6,0.8-9.9-2.2-14.7c-2.9-4.6-6.3-8.9-9.4-13.3c-5.6-7.9-11.4-15.6-16.7-23.7c8.3,0,16.3,0,24.4,0
		c4.7,6.8,9.4,13.6,14.2,20.7c4.8-7,9.6-13.8,14.3-20.8c8,0,16,0,24.4,0C500.2,334.9,489,347.6,481.4,361.5z"/>
	<path class="st1" d="M252.6,148c-2.6,0-4.8,0-7.2,0c0-3.9,0-7.8,0-11.9c-3.1,0-6,0-9.1,0c0,3.9,0,7.8,0,11.8c-2.5,0-4.9,0-7.4,0
		c0-3.9,0-7.8,0-11.8c-1.3-0.1-2.3-0.2-3.5-0.3c0-17.6,0-35.1,0-52.7c10.2,0,20.3,0,30.4,0c0.5,1.7,0.7,48,0.2,52.7
		c-1,0.1-2.1,0.2-3.4,0.3C252.6,140,252.6,143.8,252.6,148z"/>
	<path class="st1" d="M340.8,135.8c-1.2,0.1-2.3,0.1-3.6,0.2c0,3.9,0,7.8,0,11.8c-2.4,0.4-4.7,0.2-7.2,0.2c0-4,0-7.8,0-12
		c-3.1-0.2-6-0.1-9.1-0.1c0,4,0,7.9,0,11.9c-2.5,0-4.7,0-7.2,0c0-3.9,0-7.7,0-11.8c-1.3-0.1-2.3-0.2-3.6-0.3c0-17.5,0-35.1,0-52.7
		c10.2,0,20.4,0,30.7,0C340.8,100.6,340.8,118.1,340.8,135.8z"/>
	<path class="st1" d="M287.9,136.1c-3.4,0-6.3,0-9.5,0c0,4,0,7.9,0,11.9c-2.5,0-4.7,0-7.2,0c0-4,0-7.8,0-11.9c-1.2,0-2.2,0-3.1,0
		c-0.5-1.9-0.7-48.3-0.3-52.9c10.1,0,20.2,0,30.3,0c0.5,1.7,0.7,46.8,0.2,52.7c-1,0.1-2.1,0.1-3.4,0.2c0,4,0,7.9,0,11.9
		c-2.4,0-4.6,0-7.1,0C287.9,144.1,287.9,140.2,287.9,136.1z"/>
	<path class="st1" d="M226.4,150.7c4.3,0,8.1,0,12.1,0c0-3.4,0-6.7,0-10.1c1.5,0,2.7,0,4.3,0c0.3,3.2,0,6.5,0.2,10
		c3.6,1,8.2,0.3,11.9,0.3c0-3.5,0-6.8,0-10.2c4.7,0,9.1,0,13.8,0c0.3,3.3,0,6.6,0.2,10.1c4,0,7.9,0,12.1,0c0-3.3,0-6.6,0-10.1
		c1.4,0,2.6,0,4,0c0,3.3,0,6.6,0,10.1c4.2,0,8.1,0,12.3,0c0-3.4,0-6.7,0-10.1c4.6,0,9,0,13.6,0c0,3.4,0,6.7,0,10.1c4.1,0,8,0,12.2,0
		c0.2-3.2,0-6.6,0.1-10.1c1.4,0,2.7,0,4.2,0c0,3.3,0,6.6,0,10.1c4.1,0,8,0,12.1,0c0-3.3,0-6.7,0-10.1c3.1,0,5.9,0,8.8,0
		c0.5,1.7,0.6,12.3,0.2,16.5c-43.6,0-87.2,0-131.1,0c0-5.5,0-11,0-16.5c2.9-0.2,5.8-0.1,8.9-0.1
		C226.4,143.9,226.4,147.2,226.4,150.7z"/>
	<path class="st1" d="M252.3,254c-8.1,19.9-16.1,39.7-24.4,60.1c-8.2-20.4-16.3-40.3-24.3-60.1c-0.2,0-0.3,0-0.5,0
		c-3.9,19.1-7.9,38.1-11.9,57.2c-1.5,0-2.9,0-4.6,0c5-24.3,10.1-48.4,15.1-72.5c0.2,0,0.3-0.1,0.5-0.1c8.5,21,17,42,25.6,63.5
		c8.9-21,17.2-42.3,25.8-63.5c0.2,0,0.3,0,0.5,0.1c5,24.1,10,48.3,15.1,72.5c-1.6,0-3,0-4.6,0c-3.9-19.1-7.9-38.2-11.8-57.2
		C252.7,254.1,252.5,254,252.3,254z"/>
	<path class="st1" d="M501.3,256.5c-1.2,1-2.3,1.8-3.6,2.9c-9.7-11.7-22.9-18.9-38.3-13.1c-14.6,5.6-23.5,21.6-20.1,36.8
		c3.1,14,16.2,24.9,30.7,24.9c14.1,0,30.4-10.6,29.5-26.1c-8.3,0-16.6,0-25,0c0-1.6,0-2.9,0-4.5c9.8,0,19.7,0,29.9,0
		c0,10-1.8,18.8-9.5,25.9c-6.4,5.9-14.8,8.9-23.5,9.3c-18.5,0.8-35-13.5-37.4-31.7c-2.1-16.3,7.6-32.4,22.9-38.4
		c7.6-3,16.5-3.4,24.3-1C488.4,243.4,498.1,249.4,501.3,256.5z"/>
	<path class="st1" d="M277.6,240.4c9.9,0.3,24.2-2.3,31.1,6.7c6.6,8.7,4.3,20.3-3.7,26.7c12,4.8,18.8,18.1,10.2,29.7
		c-8.4,11.3-25.4,8-37.5,8C277.6,287.8,277.6,264.3,277.6,240.4z M282.3,277.3c0,10.1,0,19.8,0,29.7c11.4,0,30.3,2.1,31.7-13.9
		C315.6,275.2,294,277.3,282.3,277.3z M282.3,272.4c4.6,1.5,14.3,1,18.5-1.3c4.9-2.6,7.2-8,6.7-13.4c-1.3-13.6-14.7-12.5-25.2-12.5
		C282.3,254.4,282.3,263.4,282.3,272.4z"/>
	<path class="st1" d="M392.3,240.6c11.9,0,27.2-1.4,31.3,12.8c4.3,14.8-5.9,23.2-19.1,24.9c7.6,11.1,15.1,21.9,22.9,33.1
		c-4.2,0-5.3,0.2-7.8-3.2c-2.8-3.8-5.3-7.7-8-11.6c-2-3-11.1-19.7-14.6-18.1c0,10.8,0,21.7,0,32.8c-1.6,0-3.1,0-4.7,0
		C392.3,287.8,392.3,264.3,392.3,240.6z M397.1,245.2c0,9.7,0,19,0,28.3c10.4,0,22.8-0.7,22.5-14.4
		C419.4,245.7,407.3,245.5,397.1,245.2z"/>
	<path class="st1" d="M66.6,240.6c1.4,0,2.7,0,4.3,0c0,9.9,0,19.8,0,29.6c1.9,0.6,37.3,0.8,42.7,0.3c0-9.9,0-19.8,0-29.9
		c1.7,0,3.1,0,4.8,0c0,23.5,0,47,0,70.6c-1.6,0-3.1,0-4.7,0c0-12,0-24,0-36.1c-14.3,0-28.3,0-42.6,0c0,12,0,23.9,0,36
		c-1.6,0-2.9,0-4.4,0C66.6,287.7,66.6,264.3,66.6,240.6z"/>
	<path class="st1" d="M185.3,311.3c-1.5,0-3,0-4.6,0c-3.1-7.6-6.2-15.3-9.4-22.9c-10.2,0-20.4,0-30.8,0c-3.1,7.6-6.2,15.3-9.4,23
		c-1.6,0-3.1,0-4.9,0c9.9-24.3,19.7-48.5,29.5-72.7C156.8,239.9,184.7,308.4,185.3,311.3z M142.4,283.8c9.3,0,18.1,0,27.2,0
		c-4.6-11.1-8.9-22.2-13.6-33.5C151.3,261.7,146.9,272.6,142.4,283.8z"/>
	<path class="st1" d="M329.6,240.6c1.8,0,3.1,0,4.8,0c0,14.3,0,28.6,0,43c0,13.2,4.6,24.8,20,24.4c14.3-0.4,18.5-11,18.7-23.4
		c0.3-14.6,0-29.3,0-43.9c1.6,0,3,0,4.5,0c0.7,16.2,0.7,32.9,0.1,49.1c-0.6,14.2-11.3,23.3-25.5,22.7c-14.2-0.6-22.2-10.9-22.6-24.3
		C329.2,272.3,329.6,256.4,329.6,240.6z"/>
	<path class="st1" d="M232.3,65.8c1.9,0,3.5,0,5.3,0c0,2.3,0,4.6,0,6.9c2.2,0,4,0,6.1,0c0-2.3,0-4.5,0-6.9c1.8,0,3.3,0,5.2,0
		c0,2.2,0,4.5,0,6.9c2.1,0,3.9,0,5.9,0c0-2.2,0-4.4,0-6.9c1.7,0,3.1,0,4.5,0c0.5,1.6,0.6,11.7,0.1,14.4c-12.5,0-25,0-37.6,0
		c0-4.9,0-9.6,0-14.5c1.6,0,3.1,0,4.8,0c0,2.3,0,4.5,0,6.9c2,0,3.8,0,5.7,0C232.3,70.5,232.3,68.3,232.3,65.8z"/>
	<path class="st1" d="M333.4,72.8c2.2,0,4,0,6.1,0c0-2.3,0-4.5,0-6.9c1.7,0,3.1,0,4.9,0c0.6,4.7,0.1,9.6,0.1,14.4
		c-12.6,0-25.1,0-37.9,0c-0.1-4.7,0-9.4-0.1-14.3c1.6,0,3,0,4.7,0c0,2.2,0,4.4,0,6.8c2,0,3.9,0,5.9,0c0-2.2,0-4.4,0-6.8
		c1.8,0,3.4,0,5.3,0c0,2.2,0,4.5,0,6.9c2.1,0,3.9,0,6,0c0-2.3,0-4.5,0-6.9c1.7,0,3.2,0,5,0C333.4,68.1,333.4,70.4,333.4,72.8z"/>
	<path class="st1" d="M299.5,74.6c-11,0-21.6,0-32.5,0C266.8,53.4,299,53.5,299.5,74.6z"/>
	<path class="st1" d="M247.9,50.6c1.2,2.1,2.4,4,3.8,6.4c-2.7-0.1-4.9-0.3-7.2-0.4c-1.2,2.2-2.4,4.2-3.7,6.5
		c-1.3-2.3-2.4-4.3-3.7-6.5c-2.2,0.1-4.4,0.2-7.2,0.4c1.4-2.3,2.5-4.3,3.7-6.4c-1.1-1.9-2.2-3.7-3.6-6c1.9,0,5.3,0.5,6.9-0.5
		c1.7-1,2.8-4.3,3.8-6c1.3,2.3,2.4,4.3,3.7,6.4c2.2,0,4.4,0,7.1,0C250.2,46.7,249.1,48.6,247.9,50.6z"/>
	<path class="st1" d="M325.4,38c0.9,1.6,2,5.2,3.7,6.1c1.6,0.9,5.2,0.3,7,0.3c-1.3,2.2-2.4,4.1-3.5,6.1c1.1,2,2.3,4,3.7,6.4
		c-2.7-0.1-4.8-0.3-7.1-0.4c-1.2,2.1-2.3,4.2-3.7,6.5c-1.3-2.3-2.5-4.3-3.7-6.5c-2.3,0.1-4.5,0.2-7.2,0.4c1.4-2.3,2.5-4.3,3.7-6.4
		c-1.1-1.8-2.2-3.7-3.5-5.9c2.5,0,4.6,0,6.9,0C322.9,42.5,324.1,40.4,325.4,38z"/>
	<path class="st1" d="M264.5,80.3c0-1.2,0-2.3,0-3.4c12.4,0,24.8,0,37.2,0c0.2,1.1,0.2,2.3,0,3.4C289.3,80.3,276.9,80.3,264.5,80.3z
		"/>
	<path class="st1" d="M277.1,41.2c1.4,0,2.6,0,3.9,0c0.1-1.3,0.1-2.5,0.2-3.8c1.3,0,2.5,0,3.9,0c0,1.2,0,2.4,0,3.7
		c1.4,0.1,2.6,0.2,4,0.2c0,1.3,0,2.5,0,3.9c-1.3,0.1-2.5,0.2-4,0.2c0,3.2,0,6.2,0,9.5c-1.3,0-2.5,0-3.9,0c0-3,0-6.2,0-9.4
		c-1.5-0.1-2.7-0.2-4.1-0.2C277.1,44,277.1,42.8,277.1,41.2z"/>
	<path class="st0" d="M187.1,339c10.2-0.1,21.5,8,21.5,20.3c0,14-10.5,22.9-22,22.8c-11.2-0.1-21.3-9.1-21.4-22.7
		C165.2,347.5,176.5,338.7,187.1,339z"/>
	<path class="st0" d="M282.3,277.3c11.6,0,33.3-2.1,31.7,15.8c-1.4,16-20.3,13.9-31.7,13.9C282.3,297.2,282.3,287.4,282.3,277.3z"/>
	<path class="st0" d="M282.3,272.4c0-9,0-17.9,0-27.2c10.5,0,23.9-1.1,25.2,12.5c0.5,5.4-1.8,10.8-6.7,13.4
		C296.6,273.3,286.9,273.9,282.3,272.4z"/>
	<path class="st0" d="M397.1,245.2c10.1,0.4,22.2,0.6,22.5,13.8c0.3,13.7-12.1,14.4-22.5,14.4C397.1,264.1,397.1,254.8,397.1,245.2z
		"/>
	<path class="st0" d="M142.4,283.8c4.6-11.2,9-22.1,13.6-33.5c4.8,11.3,9,22.3,13.6,33.5C160.4,283.8,151.6,283.8,142.4,283.8z"/>
</g>
</svg>
