<?xml version="1.0" encoding="UTF-8"?>
<svg width="655px" height="467px" viewBox="0 0 655 467" version="1.1" xmlns="http://www.w3.org/2000/svg" xmlns:xlink="http://www.w3.org/1999/xlink">
    <g id="Associations" stroke="none" stroke-width="1" fill="none" fill-rule="evenodd">
        <g id="associations/hockeyliga_white">
            <path d="M13.705919,264.290228 L3.77742275,264.290228 C0.961371105,264.290228 0,265.260107 0,267.982574 L0,323.018943 C0,325.741409 0.969878814,326.711288 3.77742275,326.711288 L38.5909675,326.711288 C41.3134344,326.711288 42.2833132,325.741409 42.2833132,323.018943 L42.2833132,315.021696 C42.2833132,312.205645 41.3134344,311.329351 38.5909675,311.329351 L17.3982647,311.329351 L17.3982647,267.982574 C17.3982647,265.260107 16.5219707,264.290228 13.705919,264.290228 L13.705919,264.290228 L13.705919,264.290228 Z M51.0207302,267.803912 L51.0207302,323.189097 C51.0207302,325.826486 51.8970243,326.702781 54.534414,326.702781 L64.9053111,326.702781 C67.5427009,326.702781 68.4189949,325.826486 68.4189949,323.189097 L68.4189949,267.803912 C68.4189949,265.166522 67.5427009,264.290228 64.9053111,264.290228 L54.534414,264.290228 C51.8970243,264.290228 51.0207302,265.166522 51.0207302,267.803912 L51.0207302,267.803912 L51.0207302,267.803912 Z M130.882594,290.842788 L108.643443,290.842788 C105.920976,290.842788 104.951097,291.812666 104.951097,294.62021 L104.951097,301.205177 C104.951097,304.021229 105.920976,304.897523 108.643443,304.897523 L117.091598,304.897523 L117.091598,306.658618 C117.091598,310.444549 113.484329,312.648045 107.588487,312.648045 C100.637689,312.648045 97.9067139,309.653332 97.9067139,303.493751 L97.9067139,287.499258 C97.9067139,281.339677 100.637689,278.344963 107.588487,278.344963 C112.51445,278.344963 115.15184,280.106059 116.742781,284.062144 C117.71266,286.793118 118.767616,287.320596 121.490083,286.435794 L130.891101,283.092265 C133.528491,282.215971 134.141046,280.888768 133.264752,278.336455 C129.572406,268.493036 121.141267,262.963025 107.596994,262.963025 C90.2752991,262.963025 80.516957,272.364044 80.516957,287.584335 L80.516957,303.408674 C80.516957,318.628965 90.2752991,328.029983 107.596994,328.029983 C124.91869,328.029983 134.583447,318.628965 134.583447,306.224725 L134.583447,294.628718 C134.583447,291.812666 133.707153,290.851295 130.891101,290.851295 L130.891101,290.851295 L130.882594,290.842788 Z M198.14454,323.10402 L177.845147,267.191357 C176.968853,264.902783 175.820312,264.290228 173.276507,264.290228 L163.254426,264.290228 C160.702113,264.290228 159.56208,264.817706 158.685786,267.370019 L138.47147,323.10402 C137.595176,325.47767 138.122654,326.711288 140.845121,326.711288 L150.075985,326.711288 C154.465963,326.711288 155.614503,325.741409 156.490797,323.018943 L158.515632,316.689207 L177.496331,316.689207 L179.521165,323.018943 C180.227305,325.741409 181.546,326.711288 186.11464,326.711288 L195.609243,326.711288 C198.246633,326.711288 199.03785,325.47767 198.161556,323.10402 L198.161556,323.10402 L198.14454,323.10402 Z M170.281794,292.595376 L173.531738,302.889703 L162.548286,302.889703 L165.798231,292.510298 C167.559327,286.614456 167.465742,280.284721 167.465742,280.284721 L168.342036,280.284721 C168.342036,280.284721 168.520698,286.622964 170.273286,292.603883 L170.273286,292.603883 L170.281794,292.595376 Z" id="Shape" fill="#FFFFFF" fill-rule="nonzero"></path>
            <path d="M29.5387653,187.261432 L3.77742275,187.261432 C0.961371105,187.261432 -5.68434189e-14,188.231311 -5.68434189e-14,191.038854 L-5.68434189e-14,246.075223 C-5.68434189e-14,248.79769 0.969878814,249.767569 3.77742275,249.767569 L29.8960891,249.767569 C42.2918209,249.767569 51.5141774,243.701573 51.5141774,232.360797 C51.5141774,224.703859 48.2642326,219.692818 42.640637,217.23409 L42.640637,216.885274 C47.1241996,213.813991 48.9618647,209.857907 48.9618647,203.953557 C48.9618647,193.233843 41.6707582,187.252924 29.5387653,187.252924 L29.5387653,187.252924 L29.5387653,187.261432 Z M31.299861,206.335715 C31.299861,209.772829 29.4536882,211.091524 25.9314967,211.091524 L17.3982647,211.091524 L17.3982647,201.409752 L25.9314967,201.409752 C29.4536882,201.409752 31.299861,202.907108 31.299861,206.335715 L31.299861,206.335715 L31.299861,206.335715 Z M33.2311109,230.335962 C33.2311109,234.036815 31.3849381,235.534172 27.5990077,235.534172 L17.389757,235.534172 L17.389757,225.231337 L27.5990077,225.231337 C31.3849381,225.231337 33.2311109,226.81377 33.2311109,230.335962 L33.2311109,230.335962 Z M77.9306135,227.613495 L77.9306135,191.038854 C77.9306135,188.316388 76.9607347,187.346509 74.1531907,187.346509 L64.2246944,187.346509 C61.4086428,187.346509 60.5323488,188.316388 60.5323488,191.038854 L60.5323488,226.830786 C60.5323488,241.600168 69.6696281,251.086264 86.9913234,251.086264 C104.313019,251.086264 113.543883,241.600168 113.543883,226.830786 L113.543883,191.038854 C113.543883,188.316388 112.574004,187.346509 109.76646,187.346509 L99.8379639,187.346509 C97.0219122,187.346509 96.1456182,188.316388 96.1456182,191.038854 L96.1456182,227.613495 C96.1456182,232.803197 93.0658276,235.704326 86.9913234,235.704326 C80.9168193,235.704326 77.9306135,232.803197 77.9306135,227.613495 L77.9306135,227.613495 Z M173.965631,187.338001 L165.007014,187.338001 C162.190962,187.338001 161.314668,188.30788 161.314668,191.030347 L161.314668,205.450913 C161.314668,214.418039 161.27213,218.552785 161.27213,218.552785 C161.27213,218.552785 161.050929,217.676491 157.179922,211.610495 L142.750848,189.107605 C141.959631,187.873987 141.083337,187.346509 139.058502,187.346509 L128.687605,187.346509 C125.880061,187.346509 124.910182,188.316388 124.910182,191.038854 L124.910182,246.075223 C124.910182,248.79769 125.880061,249.767569 128.687605,249.767569 L137.561145,249.767569 C140.377197,249.767569 141.338568,248.79769 141.338568,246.075223 L141.338568,218.527262 C141.338568,218.527262 146.877086,227.171094 146.877086,227.171094 L160.429867,248.006473 C161.221084,249.240091 162.190962,249.767569 164.028627,249.767569 L173.957124,249.767569 C176.679591,249.767569 177.649469,248.79769 177.649469,246.075223 L177.649469,191.038854 C177.649469,188.316388 176.679591,187.346509 173.957124,187.346509 L173.957124,187.346509 L173.965631,187.338001 Z M214.683526,187.338001 L193.235592,187.338001 C190.41954,187.338001 189.458169,188.30788 189.458169,191.030347 L189.458169,246.066716 C189.458169,248.789182 190.428048,249.759061 193.235592,249.759061 L214.683526,249.759061 C232.005222,249.759061 241.669979,240.272966 241.669979,225.146259 L241.669979,211.950803 C241.669979,196.739019 232.005222,187.338001 214.683526,187.338001 L214.683526,187.338001 L214.683526,187.338001 Z M224.271714,212.214542 L224.271714,224.88252 C224.271714,231.127179 221.191924,234.385631 214.062463,234.385631 L206.847926,234.385631 L206.847926,202.719939 L214.062463,202.719939 C221.191924,202.719939 224.271714,205.969884 224.271714,212.22305 L224.271714,212.22305 L224.271714,212.214542 Z M292.588617,187.338001 L255.758745,187.338001 C252.951201,187.338001 251.981322,188.30788 251.981322,191.030347 L251.981322,246.066716 C251.981322,248.789182 252.951201,249.759061 255.758745,249.759061 L293.388341,249.759061 C296.110808,249.759061 297.080687,248.789182 297.080687,246.066716 L297.080687,238.069469 C297.080687,235.261925 296.110808,234.377124 293.388341,234.377124 L269.379587,234.377124 L269.379587,225.928969 L287.9349,225.928969 C290.750951,225.928969 291.712323,224.95909 291.712323,222.151546 L291.712323,214.239377 C291.712323,211.51691 290.742444,210.547031 287.9349,210.547031 L269.379587,210.547031 L269.379587,202.711431 L292.597124,202.711431 C295.413176,202.711431 296.383055,201.741552 296.383055,198.934008 L296.383055,191.021839 C296.383055,188.299372 295.413176,187.329493 292.597124,187.329493 L292.597124,187.329493 L292.588617,187.338001 Z M305.724519,205.706145 C305.724519,222.772609 320.136578,224.618782 330.422398,226.022553 C336.233163,226.81377 340.716726,227.783649 340.716726,231.212256 C340.716726,234.998186 337.194534,236.223296 331.298692,236.223296 C326.372729,236.223296 322.944122,234.640863 321.361688,231.561072 C320.042993,229.008759 318.809375,228.74502 316.180493,229.629822 L307.919508,232.616028 C305.375703,233.585907 304.575978,234.811017 305.545857,237.448407 C308.889387,246.585686 318.026666,251.069248 331.128538,251.069248 C346.697645,251.069248 358.378729,243.956804 358.378729,231.033594 C358.378729,214.409531 345.200288,211.950803 334.999545,210.538523 C328.661302,209.747306 323.4716,208.956089 323.4716,205.170159 C323.4716,202.090368 325.845251,200.593012 331.834678,200.593012 C335.884347,200.593012 339.049215,201.826629 340.716726,205.170159 C342.120498,207.722472 343.090377,208.071288 345.464027,207.016332 L354.252491,203.230401 C356.88988,202.175445 357.59602,200.856751 356.362402,198.304438 C352.236164,189.864791 344.851472,186.002291 331.834678,186.002291 C315.04046,186.002291 305.724519,194.084614 305.724519,205.689129 L305.724519,205.689129 L305.724519,205.706145 Z" id="Shape" fill="#FFFFFF" fill-rule="nonzero"></path>
            <path d="M125.412137,133.705404 L125.412137,149.538251 C125.412137,164.750034 135.161971,174.151052 152.483666,174.151052 C166.027939,174.151052 174.467586,168.612534 178.159932,158.777622 C179.036226,156.22531 178.423671,154.906615 175.786281,154.030321 L166.376755,150.686791 C163.739365,149.716912 162.684409,150.337975 161.629454,153.060442 C160.225682,156.846372 157.40963,158.777622 152.483666,158.777622 C145.541376,158.777622 142.810401,155.791417 142.810401,149.631835 L142.810401,133.620327 C142.810401,127.460746 145.532868,124.47454 152.483666,124.47454 C157.40963,124.47454 160.04702,126.235636 161.629454,130.19172 C162.599332,132.914187 163.654288,133.356588 166.376755,132.565371 L175.786281,129.221842 C178.423671,128.345548 179.036226,127.026853 178.159932,124.47454 C174.467586,114.631121 166.027939,109.10111 152.483666,109.10111 C135.170479,109.10111 125.412137,118.502128 125.412137,133.713912 L125.412137,133.713912 L125.412137,133.705404 Z" id="Path" fill="#FFFFFF" fill-rule="nonzero"></path>
            <path d="M239.653652,168.527457 L228.049137,146.543537 C226.55178,143.557331 224.884269,141.362342 222.68928,139.779908 L238.692281,114.282305 C240.096053,111.993731 239.219759,110.411297 236.582369,110.411297 L226.466703,110.411297 C221.898063,110.411297 221.106846,110.938775 219.430828,113.661242 L206.771357,133.620327 L204.840107,133.620327 L204.840107,114.103643 C204.840107,111.381176 203.963813,110.411297 201.147761,110.411297 L191.219265,110.411297 C188.411721,110.411297 187.441842,111.381176 187.441842,114.103643 L187.441842,169.140012 C187.441842,171.862479 188.411721,172.832357 191.219265,172.832357 L201.147761,172.832357 C203.963813,172.832357 204.840107,171.862479 204.840107,169.140012 L204.840107,149.002265 L206.422541,149.002265 C209.76607,149.002265 210.991181,150.584699 212.40346,153.40075 L220.051891,169.140012 C221.549247,172.219802 223.216758,172.832357 227.878983,172.832357 L237.373586,172.832357 C240.274715,172.832357 240.88727,170.901108 239.66216,168.518949 L239.66216,168.518949 L239.653652,168.527457 Z" id="Path" fill="#FFFFFF" fill-rule="nonzero"></path>
            <path d="M291.09126,110.411297 L254.261388,110.411297 C251.445336,110.411297 250.483965,111.381176 250.483965,114.103643 L250.483965,169.140012 C250.483965,171.862479 251.453844,172.832357 254.261388,172.832357 L291.882477,172.832357 C294.604944,172.832357 295.574822,171.862479 295.574822,169.140012 L295.574822,161.142765 C295.574822,158.335222 294.604944,157.45042 291.882477,157.45042 L267.873722,157.45042 L267.873722,149.002265 L286.429035,149.002265 C289.245087,149.002265 290.206458,148.032386 290.206458,145.224842 L290.206458,137.312673 C290.206458,134.590206 289.236579,133.620327 286.429035,133.620327 L267.873722,133.620327 L267.873722,125.784727 L291.082752,125.784727 C293.898804,125.784727 294.860175,124.814848 294.860175,122.007305 L294.860175,114.103643 C294.860175,111.381176 293.890296,110.411297 291.082752,110.411297 L291.082752,110.411297 L291.09126,110.411297 Z" id="Path" fill="#FFFFFF" fill-rule="nonzero"></path>
            <path d="M359.093377,110.411297 L348.977711,110.411297 C344.67281,110.411297 343.439193,110.589959 341.771682,113.661242 L332.106924,131.595492 L322.705906,113.661242 C321.038395,110.581451 319.804777,110.411297 315.406292,110.411297 L304.856733,110.411297 C302.134266,110.411297 301.776942,112.078808 303.01056,114.103643 L323.233384,148.653449 L323.233384,169.140012 C323.233384,171.862479 324.203263,172.832357 327.010807,172.832357 L336.939303,172.832357 C339.746847,172.832357 340.631649,171.862479 340.631649,169.140012 L340.631649,148.653449 L360.93955,114.103643 C362.079583,112.078808 361.730767,110.411297 359.093377,110.411297 L359.093377,110.411297 L359.093377,110.411297 Z" id="Path" fill="#FFFFFF" fill-rule="nonzero"></path>
            <path d="M403.129278,157.186681 C409.365429,157.186681 414.419008,152.133102 414.419008,145.896951 C414.419008,139.6608 409.365429,134.607221 403.129278,134.607221 C396.893128,134.607221 391.839549,139.6608 391.839549,145.896951 C391.839549,152.133102 396.893128,157.186681 403.129278,157.186681 L403.129278,157.186681 Z" id="Path" fill="#84E772" fill-rule="nonzero"></path>
            <path d="M405.188144,191.770517 C411.517879,191.770517 416.648028,186.317076 416.648028,179.595986 C416.648028,172.874896 411.517879,167.421455 405.188144,167.421455 C398.858408,167.421455 393.72826,172.874896 393.72826,179.595986 C393.72826,186.317076 398.858408,191.770517 405.188144,191.770517 L405.188144,191.770517 Z" id="Path" fill="#84E772" fill-rule="nonzero"></path>
            <path d="M398.433023,227.468864 C404.669174,227.468864 409.722753,222.415285 409.722753,216.179134 C409.722753,209.942984 404.669174,204.889405 398.433023,204.889405 C392.196872,204.889405 387.143293,209.942984 387.143293,216.179134 C387.143293,222.415285 392.196872,227.468864 398.433023,227.468864 L398.433023,227.468864 Z" id="Path" fill="#84E772" fill-rule="nonzero"></path>
            <path d="M382.430022,261.287007 C388.666173,261.287007 393.719752,255.833565 393.719752,249.112475 C393.719752,242.391385 388.666173,236.937944 382.430022,236.937944 C376.193872,236.937944 371.140293,242.391385 371.140293,249.112475 C371.140293,255.833565 376.193872,261.287007 382.430022,261.287007 L382.430022,261.287007 Z" id="Path" fill="#84E772" fill-rule="nonzero"></path>
            <path d="M391.839549,123.538692 C398.075699,123.538692 403.129278,118.485113 403.129278,112.248962 C403.129278,106.012812 398.075699,100.959233 391.839549,100.959233 C385.603398,100.959233 380.549819,106.012812 380.549819,112.248962 C380.549819,118.485113 385.603398,123.538692 391.839549,123.538692 L391.839549,123.538692 Z" id="Path" fill="#84E772" fill-rule="nonzero"></path>
            <path d="M371.531647,100.133985 C377.546598,100.133985 382.430022,95.2590678 382.430022,89.2526253 C382.430022,83.2461828 377.555105,78.3712656 371.531647,78.3712656 C365.508189,78.3712656 360.633272,83.2376751 360.633272,89.2526253 C360.633272,95.2675755 365.508189,100.133985 371.531647,100.133985 L371.531647,100.133985 Z" id="Path" fill="#84E772" fill-rule="nonzero"></path>
            <path d="M343.013807,82.684674 C349.037265,84.3011387 355.026692,81.4765794 356.396433,76.371954 C357.757667,71.2758364 353.988752,65.8309027 347.965294,64.214438 C341.941836,62.5979733 335.952409,65.4225327 334.582668,70.527158 C333.212927,75.6232757 336.990349,81.0682093 343.013807,82.684674 L343.013807,82.684674 Z" id="Path" fill="#84E772" fill-rule="nonzero"></path>
            <path d="M318.179805,76.2783692 C324.322371,75.1978902 328.601748,70.3570038 327.74247,65.4735789 C326.883191,60.590154 321.208549,57.5103634 315.065983,58.5908424 C308.923418,59.6713215 304.64404,64.5122078 305.503319,69.3956327 C306.362597,74.2790576 312.037239,77.3588483 318.179805,76.2783692 L318.179805,76.2783692 Z" id="Path" fill="#84E772" fill-rule="nonzero"></path>
            <path d="M289.032394,80.5407314 C294.375235,77.3333251 296.859486,71.6331602 294.562405,67.8217066 C292.273831,64.010253 286.080219,63.5253136 280.737378,66.7412276 C275.394537,69.9571415 272.918794,75.6487988 275.207367,79.4602524 C277.495941,83.2717059 283.689553,83.7566454 289.032394,80.5407314 L289.032394,80.5407314 Z" id="Path" fill="#84E772" fill-rule="nonzero"></path>
            <path d="M270.698282,280.344275 C266.444427,275.784143 260.506046,274.405894 257.434763,277.272992 C254.36348,280.14009 255.324852,286.15504 259.578706,290.715172 C263.83256,295.275304 269.770941,296.653553 272.842224,293.786455 C275.913507,290.919357 274.952136,284.904407 270.698282,280.344275 L270.698282,280.344275 Z" id="Path" fill="#84E772" fill-rule="nonzero"></path>
            <path d="M301.07931,287.065365 C297.412487,282.020293 291.193352,280.293229 287.177714,283.202865 C283.162075,286.121009 282.881321,292.569852 286.548143,297.614924 C290.214966,302.659995 296.434101,304.38706 300.44974,301.468916 C304.465378,298.550772 304.746133,292.101928 301.07931,287.056857 L301.07931,287.056857 L301.07931,287.065365 Z" id="Path" fill="#84E772" fill-rule="nonzero"></path>
            <path d="M333.476665,282.352094 C329.537596,276.932683 322.433659,275.392788 317.601281,278.897964 C312.768902,282.40314 312.045747,289.643201 315.984816,295.062611 C319.923885,300.482022 327.027822,302.021917 331.860201,298.516741 C336.692579,295.011565 337.415735,287.771505 333.476665,282.352094 L333.476665,282.352094 Z" id="Path" fill="#84E772" fill-rule="nonzero"></path>
            <path d="M364.819065,270.67101 C360.879996,265.251599 353.776059,263.711704 348.94368,267.21688 C344.111302,270.722056 343.388146,277.962116 347.327216,283.381527 C351.266285,288.800937 358.370222,290.340833 363.2026,286.835657 C368.034979,283.330481 368.758134,276.09042 364.819065,270.67101 L364.819065,270.67101 Z" id="Path" fill="#84E772" fill-rule="nonzero"></path>
            <path d="M232.354038,88.2146848 C235.740106,83.8757533 237.909571,79.9111609 237.203432,79.3496521 C236.488784,78.7966511 233.16227,81.8594263 229.776202,86.1983578 C226.390134,90.5372893 224.220668,94.5018817 224.935315,95.0633905 C225.649963,95.6163916 228.976477,92.5536163 232.362545,88.2146848 L232.362545,88.2146848 L232.354038,88.2146848 Z" id="Path" fill="#84E772" fill-rule="nonzero"></path>
            <path d="M249.250347,88.6826088 C253.21494,84.1224768 254.984543,79.179498 253.206432,77.6310949 C251.428321,76.0826919 246.774604,78.5244044 242.81852,83.0845364 C238.853927,87.6446683 237.084324,92.5876472 238.862435,94.1360502 C240.640546,95.6844532 245.294263,93.2427408 249.250347,88.6826088 L249.250347,88.6826088 Z" id="Path" fill="#84E772" fill-rule="nonzero"></path>
            <path d="M255.14619,63.0658973 C259.102274,59.245936 261.68011,55.4855287 260.897401,54.6772964 C260.114692,53.869064 256.269207,56.3107765 252.313123,60.1307378 C248.357038,63.950699 245.779202,67.7111064 246.561911,68.5193387 C247.344621,69.3275711 251.190105,66.8858586 255.14619,63.0658973 L255.14619,63.0658973 Z" id="Path" fill="#84E772" fill-rule="nonzero"></path>
            <path d="M281.273364,43.8044444 C285.833496,40.7246538 288.921794,37.3130625 288.1561,36.1815372 C287.390406,35.0500119 283.076998,36.6324458 278.508358,39.7037287 C273.948226,42.7835193 270.868436,46.1951106 271.625622,47.3266359 C272.391316,48.4581612 276.704724,46.8757273 281.273364,43.8044444 L281.273364,43.8044444 Z" id="Path" fill="#84E772" fill-rule="nonzero"></path>
            <path d="M270.970528,65.2523785 C276.04963,61.8237718 279.180467,57.5954405 277.972373,55.8003139 C276.764278,54.0051874 271.66816,55.3323899 266.589058,58.7524889 C261.509956,62.1725879 258.379119,66.4094269 259.587214,68.2045535 C260.795308,69.9996801 265.891426,68.6724775 270.970528,65.2523785 L270.970528,65.2523785 Z" id="Path" fill="#84E772" fill-rule="nonzero"></path>
            <path d="M302.466067,53.3075552 C307.970554,50.5000113 311.25453,45.9058485 309.791204,43.0387506 C308.327878,40.1716527 302.678759,40.1206064 297.174272,42.9281504 C291.669784,45.7356943 288.385808,50.3298571 289.849134,53.196955 C291.31246,56.0640529 296.953071,56.1150992 302.466067,53.3075552 L302.466067,53.3075552 Z" id="Path" fill="#84E772" fill-rule="nonzero"></path>
            <path d="M334.939991,50.0491027 C340.750757,47.9391909 344.417579,43.3620435 343.132915,39.839852 C341.848251,36.3176606 336.105548,35.1776276 330.294782,37.2875394 C324.484017,39.3974512 320.817195,43.9745986 322.101859,47.49679 C323.386523,51.0189815 329.129226,52.1590145 334.939991,50.0491027 L334.939991,50.0491027 Z" id="Path" fill="#84E772" fill-rule="nonzero"></path>
            <path d="M214.44531,280.157105 C212.471522,275.511896 210.055333,272.100305 209.034408,272.534198 C208.013482,272.968091 208.787684,277.077315 210.761472,281.722524 C212.735261,286.367733 215.159958,289.779324 216.172375,289.345431 C217.1933,288.911538 216.419099,284.802314 214.44531,280.157105 L214.44531,280.157105 Z" id="Path" fill="#84E772" fill-rule="nonzero"></path>
            <path d="M227.538674,274.405894 C224.714115,269.318284 220.902661,266.042816 219.022458,267.089264 C217.142254,268.135712 217.89944,273.104214 220.715492,278.191824 C223.540051,283.279434 227.351505,286.554902 229.231708,285.508454 C231.111912,284.462006 230.354726,279.493504 227.538674,274.405894 L227.538674,274.405894 Z" id="Path" fill="#84E772" fill-rule="nonzero"></path>
            <path d="M222.17031,306.803249 C219.796659,302.694026 217.584655,299.529158 217.227331,299.733343 C216.870007,299.937528 218.511995,303.434197 220.885646,307.54342 C223.259297,311.652643 225.471301,314.826019 225.820117,314.621834 C226.177441,314.417649 224.535453,310.920981 222.161802,306.803249 L222.161802,306.803249 L222.17031,306.803249 Z" id="Path" fill="#84E772" fill-rule="nonzero"></path>
            <path d="M247.174466,295.726212 C243.754368,291.021449 239.100651,288.571229 236.778046,290.264263 C234.455442,291.94879 235.348751,297.129984 238.760342,301.843255 C242.180441,306.548018 246.834158,308.998238 249.156763,307.305204 C251.479367,305.620678 250.586058,300.430975 247.174466,295.726212 L247.174466,295.726212 Z" id="Path" fill="#84E772" fill-rule="nonzero"></path>
            <path d="M232.719869,305.220816 C229.563509,300.362914 226.03281,297.061923 224.833223,297.836124 C223.633636,298.618833 225.21607,303.187473 228.37243,308.045375 C231.52879,312.903277 235.059489,316.204268 236.259076,315.430066 C237.458663,314.647357 235.876229,310.078717 232.719869,305.220816 L232.719869,305.220816 Z" id="Path" fill="#84E772" fill-rule="nonzero"></path>
            <path d="M273.922703,310.750826 C269.005248,306.91385 262.998805,306.394879 260.489031,309.602286 C257.987764,312.809692 259.93603,318.518365 264.853486,322.355341 C269.770941,326.192318 275.785891,326.711288 278.287158,323.503882 C280.788424,320.296476 278.840159,314.587803 273.922703,310.750826 L273.922703,310.750826 Z" id="Path" fill="#84E772" fill-rule="nonzero"></path>
            <path d="M258.719427,326.940996 C254.542142,322.610573 249.811856,320.398568 248.161361,321.98951 C246.510865,323.580451 248.561223,328.387307 252.747016,332.717731 C256.924301,337.048155 261.654587,339.260159 263.305083,337.669217 C264.955578,336.078276 262.90522,331.27142 258.727935,326.949504 L258.727935,326.949504 L258.719427,326.940996 Z" id="Path" fill="#84E772" fill-rule="nonzero"></path>
            <path d="M244.307369,332.190253 C240.7001,328.038491 237.075816,325.264978 236.225045,326.005148 C235.374274,326.745319 237.611802,330.709911 241.21907,334.870181 C244.826339,339.021943 248.450623,341.795456 249.301394,341.055285 C250.152165,340.315115 247.914637,336.350522 244.307369,332.190253 L244.307369,332.190253 Z" id="Path" fill="#84E772" fill-rule="nonzero"></path>
            <path d="M300.841094,317.693117 C295.489745,315.421559 289.97675,316.331883 288.530439,319.734967 C287.084129,323.13805 290.257504,327.732213 295.608853,330.003772 C300.960202,332.27533 306.473197,331.365005 307.919508,327.961921 C309.365818,324.558838 306.192443,319.964675 300.832586,317.693117 L300.832586,317.693117 L300.841094,317.693117 Z" id="Path" fill="#84E772" fill-rule="nonzero"></path>
            <path d="M333.306511,314.570788 C327.061853,314.026294 321.659458,317.42087 321.24258,322.159664 C320.825702,326.898458 325.555989,331.177835 331.800647,331.722329 C338.045305,332.266822 343.4477,328.872246 343.864578,324.133452 C344.281456,319.394659 339.55117,315.115281 333.306511,314.56228 L333.306511,314.56228 L333.306511,314.570788 Z" id="Path" fill="#84E772" fill-rule="nonzero"></path>
            <path d="M267.354752,350.796612 C263.01582,347.410544 258.82152,345.53034 257.979257,346.610819 C257.136994,347.682791 259.978568,351.307075 264.308992,354.693143 C268.647924,358.079211 272.842224,359.959415 273.684487,358.878936 C274.526751,357.806964 271.685176,354.18268 267.354752,350.796612 L267.354752,350.796612 Z" id="Path" fill="#84E772" fill-rule="nonzero"></path>
            <path d="M284.761524,340.502284 C279.546299,337.490555 274.118381,337.150247 272.629531,339.728083 C271.140682,342.305919 274.152411,346.840527 279.367637,349.852256 C284.582862,352.863985 290.010781,353.204294 291.49963,350.626458 C292.988479,348.048622 289.97675,343.514013 284.761524,340.502284 L284.761524,340.502284 Z" id="Path" fill="#84E772" fill-rule="nonzero"></path>
            <path d="M296.816948,363.600714 C291.193352,360.350769 285.697372,359.329844 284.548832,361.31214 C283.400291,363.294436 287.033083,367.539783 292.656678,370.789728 C298.280274,374.039673 303.776254,375.060598 304.924794,373.078302 C306.073335,371.096006 302.440543,366.850659 296.80844,363.600714 L296.80844,363.600714 L296.816948,363.600714 Z" id="Path" fill="#84E772" fill-rule="nonzero"></path>
            <path d="M317.78845,346.678881 C312.249932,344.330753 306.643352,345.045401 305.273611,348.286838 C303.903869,351.528275 307.272922,356.054376 312.819948,358.402504 C318.358467,360.750632 323.965047,360.035984 325.334788,356.803055 C326.704529,353.561617 323.335476,349.035516 317.796958,346.687389 L317.796958,346.687389 L317.78845,346.678881 Z" id="Path" fill="#84E772" fill-rule="nonzero"></path>
            <path d="M349.811467,344.994355 C343.694424,344.781662 338.615322,347.903991 338.470691,351.970676 C338.32606,356.037361 343.175454,359.508506 349.292496,359.721199 C355.409539,359.933891 360.488641,356.811562 360.633272,352.744877 C360.777903,348.678193 355.928509,345.207047 349.811467,344.994355 L349.811467,344.994355 Z" id="Path" fill="#84E772" fill-rule="nonzero"></path>
            <path d="M359.050838,369.088186 C353.308135,368.177861 348.23754,370.015526 347.735586,373.188902 C347.233631,376.362277 351.478978,379.680284 357.230189,380.590609 C362.972892,381.500933 368.043487,379.663268 368.545442,376.489893 C369.047396,373.30801 364.80205,369.998511 359.050838,369.088186 L359.050838,369.088186 Z" id="Path" fill="#84E772" fill-rule="nonzero"></path>
            <path d="M324.934926,369.802834 C318.988037,368.756386 313.781319,370.07508 313.313395,372.763516 C312.845471,375.443445 317.277988,378.472189 323.224876,379.518637 C329.171765,380.565086 334.378483,379.246391 334.846407,376.566462 C335.314331,373.886534 330.881814,370.85779 324.934926,369.811341 L324.934926,369.811341 L324.934926,369.802834 Z" id="Path" fill="#84E772" fill-rule="nonzero"></path>
            <path d="M324.458494,385.065664 C319.234761,383.857569 314.725675,384.1128 314.376859,385.618665 C314.028043,387.133037 317.97562,389.336533 323.199353,390.53612 C328.414579,391.744215 332.932172,391.488984 333.280988,389.983119 C333.629804,388.477255 329.682227,386.273758 324.467002,385.065664 L324.467002,385.065664 L324.458494,385.065664 Z" id="Path" fill="#84E772" fill-rule="nonzero"></path>
            <path d="M296.612763,378.114865 C292.42697,375.97943 288.777163,374.75432 288.462378,375.383891 C288.147593,376.004954 291.278429,378.242481 295.464222,380.377916 C299.650015,382.513351 303.299822,383.729953 303.614607,383.10889 C303.929393,382.487828 300.798556,380.2503 296.612763,378.123373 L296.612763,378.123373 L296.612763,378.114865 Z" id="Path" fill="#84E772" fill-rule="nonzero"></path>
            <path d="M352.661549,399.392645 C347.284677,398.15052 342.758576,397.844242 342.554391,398.712029 C342.358714,399.579815 346.553014,401.281357 351.938394,402.523482 C357.323774,403.765608 361.841367,404.071885 362.045552,403.204099 C362.249737,402.336313 358.046929,400.626263 352.661549,399.384138 L352.661549,399.384138 L352.661549,399.392645 Z" id="Path" fill="#84E772" fill-rule="nonzero"></path>
            <path d="M354.099352,387.600961 C348.713972,386.648097 344.068763,387.439314 343.728455,389.362057 C343.388146,391.284799 347.480354,393.615911 352.874242,394.560267 C358.268129,395.51313 362.904831,394.721913 363.245139,392.799171 C363.585447,390.876429 359.493239,388.545316 354.099352,387.600961 L354.099352,387.600961 Z" id="Path" fill="#84E772" fill-rule="nonzero"></path>
            <path d="M388.581096,362.052311 C382.574654,362.469189 377.920937,365.795703 378.176168,369.479541 C378.431399,373.163379 383.510502,375.809276 389.516944,375.392399 C395.523386,374.975521 400.177103,371.649007 399.921872,367.965169 C399.666641,364.281331 394.587538,361.635433 388.589604,362.052311 L388.589604,362.052311 L388.581096,362.052311 Z" id="Path" fill="#84E772" fill-rule="nonzero"></path>
            <path d="M416.605489,346.321557 C411.194586,348.958947 408.378535,354.301788 410.301277,358.257873 C412.232527,362.213957 418.179415,363.277421 423.58181,360.640031 C428.992713,358.002642 431.808765,352.6598 429.886023,348.703716 C427.954773,344.747631 422.007884,343.684167 416.605489,346.321557 L416.605489,346.321557 Z" id="Path" fill="#84E772" fill-rule="nonzero"></path>
            <path d="M417.575368,372.908148 C411.688033,374.158781 407.510748,377.961727 408.242411,381.398841 C408.974074,384.835955 414.333931,386.614067 420.221265,385.363433 C426.1086,384.1128 430.285885,380.309854 429.554222,376.864232 C428.822559,373.427118 423.462702,371.649007 417.575368,372.89964 L417.575368,372.89964 L417.575368,372.908148 Z" id="Path" fill="#84E772" fill-rule="nonzero"></path>
            <path d="M385.722506,385.873896 C379.945771,386.282266 375.428178,388.97921 375.632363,391.905861 C375.836548,394.832513 380.685942,396.874363 386.462676,396.474501 C392.239411,396.074639 396.757004,393.369187 396.552819,390.442536 C396.348634,387.515884 391.49924,385.474034 385.722506,385.873896 L385.722506,385.873896 Z" id="Path" fill="#84E772" fill-rule="nonzero"></path>
            <path d="M383.14467,402.463928 C377.784813,402.370343 373.420359,403.374253 373.394723,404.709963 C373.369312,406.045674 377.699736,407.202722 383.059593,407.296307 C388.41945,407.389892 392.792412,406.385982 392.80954,405.050272 C392.83495,403.714561 388.504527,402.557513 383.14467,402.463928 L383.14467,402.463928 Z" id="Path" fill="#84E772" fill-rule="nonzero"></path>
            <path d="M414.776332,393.964727 C408.778397,394.381605 404.022588,396.295839 404.158711,398.235597 C404.294834,400.175355 409.263336,401.408972 415.261271,400.983587 C421.259206,400.566709 426.015015,398.652475 425.878892,396.712717 C425.742768,394.772959 420.774266,393.539342 414.776332,393.964727 L414.776332,393.964727 Z" id="Path" fill="#84E772" fill-rule="nonzero"></path>
            <path d="M411.636987,404.68444 C405.75816,405.09281 401.036382,405.943581 401.07892,406.573152 C401.121459,407.21123 405.919807,407.389892 411.798634,406.973014 C417.67746,406.564644 422.399239,405.713873 422.3567,405.084303 C422.314162,404.446224 417.515814,404.267562 411.636987,404.68444 L411.636987,404.68444 Z" id="Path" fill="#84E772" fill-rule="nonzero"></path>
            <path d="M445.778423,357.245455 C440.36752,359.882845 437.185637,364.604624 438.674486,367.795014 C440.163335,370.985405 445.7529,371.427806 451.155295,368.790416 C456.566198,366.153027 459.748081,361.431248 458.259232,358.240857 C456.770383,355.050467 451.180818,354.608066 445.778423,357.245455 L445.778423,357.245455 Z" id="Path" fill="#84E772" fill-rule="nonzero"></path>
            <path d="M443.889712,383.40666 C437.789684,384.699832 433.195521,387.56693 433.629415,389.804457 C434.063308,392.041985 439.36361,392.799171 445.463638,391.505999 C451.563665,390.212827 456.157828,387.34573 455.723935,385.108202 C455.290041,382.870675 449.989739,382.113489 443.889712,383.40666 L443.889712,383.40666 Z" id="Path" fill="#84E772" fill-rule="nonzero"></path>
            <path d="M444.842575,398.712029 C439.618842,399.920123 435.552157,401.647188 435.76485,402.574528 C435.977542,403.501869 440.384535,403.272161 445.616776,402.064066 C450.84051,400.855971 454.907195,399.128906 454.694502,398.201566 C454.481809,397.274226 450.074816,397.503934 444.842575,398.712029 L444.842575,398.712029 Z" id="Path" fill="#84E772" fill-rule="nonzero"></path>
            <path d="M469.914793,383.8916 C464.742106,386.418389 461.151853,389.702365 461.900531,391.24226 C462.64921,392.773648 467.447557,391.973923 472.628752,389.447134 C477.801439,386.920344 481.391692,383.636368 480.643014,382.096473 C479.894336,380.565086 475.095988,381.36481 469.914793,383.8916 L469.914793,383.8916 Z" id="Path" fill="#84E772" fill-rule="nonzero"></path>
            <path d="M471.429165,365.838241 C466.256478,368.365031 462.887425,372.116931 463.916858,374.218335 C464.946291,376.319739 469.974347,375.97943 475.147034,373.461149 C480.319721,370.942867 483.688774,367.182459 482.659341,365.081055 C481.629908,362.979651 476.601852,363.31996 471.429165,365.838241 L471.429165,365.838241 Z" id="Path" fill="#84E772" fill-rule="nonzero"></path>
            <path d="M497.139461,366.306165 C492.153944,369.181771 488.972061,373.01024 490.035525,374.856413 C491.098988,376.702586 496.007936,375.860323 500.993454,372.984717 C505.978971,370.109111 509.160854,366.280642 508.097391,364.434469 C507.033927,362.588297 502.124979,363.43056 497.139461,366.306165 L497.139461,366.306165 Z" id="Path" fill="#84E772" fill-rule="nonzero"></path>
            <path d="M364.699957,306.862803 C358.642468,308.147467 354.524737,312.920292 355.503124,317.505947 C356.48151,322.10011 362.181675,324.780038 368.239164,323.495374 C374.296653,322.21071 378.414384,317.437886 377.435997,312.843723 C376.457611,308.24956 370.757446,305.569632 364.699957,306.854296 L364.699957,306.854296 L364.699957,306.862803 Z" id="Path" fill="#84E772" fill-rule="nonzero"></path>
            <path d="M383.672148,333.942841 C377.504059,335.363628 373.301251,339.991822 374.296653,344.262692 C375.283547,348.542069 381.085804,350.856166 387.253893,349.426871 C393.421982,348.006084 397.624791,343.37789 396.629389,339.10702 C395.642494,334.827643 389.840237,332.513546 383.672148,333.942841 L383.672148,333.942841 Z" id="Path" fill="#84E772" fill-rule="nonzero"></path>
            <path d="M389.355298,287.405673 C383.85081,290.085601 381.341036,296.270706 383.757225,301.213685 C386.164907,306.156664 392.579719,307.985821 398.084207,305.297385 C403.588694,302.617457 406.098469,296.432352 403.690787,291.489373 C401.283105,286.546395 394.868293,284.717237 389.363805,287.405673 L389.363805,287.405673 L389.355298,287.405673 Z" id="Path" fill="#84E772" fill-rule="nonzero"></path>
            <path d="M413.278975,310.852919 C407.927626,313.464785 405.341283,319.198981 407.519256,323.648513 C409.697229,328.106552 415.797257,329.603909 421.148606,326.992043 C426.508462,324.380176 429.086298,318.64598 426.908325,314.187941 C424.738859,309.729901 418.630324,308.232545 413.270467,310.844411 L413.270467,310.844411 L413.278975,310.852919 Z" id="Path" fill="#84E772" fill-rule="nonzero"></path>
            <path d="M445.523192,322.738188 C439.916611,325.469163 437.083544,331.203359 439.193456,335.533782 C441.303368,339.864206 447.565042,341.157378 453.171622,338.426403 C458.778202,335.695429 461.611269,329.961233 459.501357,325.630809 C457.391446,321.300385 451.129772,320.007214 445.523192,322.738188 L445.523192,322.738188 Z" id="Path" fill="#84E772" fill-rule="nonzero"></path>
            <path d="M472.798906,335.899614 C467.558158,339.175082 465.056891,344.628523 467.209342,348.074145 C469.361792,351.519767 475.359727,351.664398 480.600475,348.38893 C485.841224,345.113463 488.34249,339.660021 486.19004,336.214399 C484.03759,332.768777 478.039655,332.624146 472.798906,335.899614 L472.798906,335.899614 Z" id="Path" fill="#84E772" fill-rule="nonzero"></path>
            <path d="M520.935523,343.667152 C516.264791,348.184745 513.925171,353.348925 515.720298,355.203605 C517.515424,357.066794 522.764681,354.914343 527.435413,350.39675 C532.106145,345.879156 534.445765,340.714977 532.650638,338.860297 C530.855512,336.997108 525.606255,339.149559 520.935523,343.667152 L520.935523,343.667152 Z" id="Path" fill="#84E772" fill-rule="nonzero"></path>
            <path d="M494.65521,309.823486 C490.622556,314.630342 489.907909,320.662307 493.055761,323.299697 C496.203614,325.937087 502.022886,324.184499 506.05554,319.377643 C510.088194,314.570788 510.802842,308.538822 507.65499,305.901432 C504.507137,303.264043 498.687865,305.016631 494.65521,309.814978 L494.65521,309.814978 L494.65521,309.823486 Z" id="Path" fill="#84E772" fill-rule="nonzero"></path>
            <path d="M498.100833,342.595181 C493.523685,346.304542 491.49885,351.383644 493.574731,353.944464 C495.650612,356.505285 501.0445,355.577944 505.621647,351.877091 C510.198795,348.16773 512.223629,343.088628 510.147748,340.527807 C508.071867,337.966987 502.67798,338.894327 498.100833,342.595181 L498.100833,342.595181 Z" id="Path" fill="#84E772" fill-rule="nonzero"></path>
            <path d="M412.538804,275.920266 C417.97523,277.477177 423.820026,274.014539 425.598137,268.186759 C427.376249,262.358978 424.415566,256.369551 418.987648,254.81264 C413.551222,253.25573 407.706426,256.718367 405.928314,262.546148 C404.150203,268.373928 407.110886,274.363355 412.538804,275.920266 L412.538804,275.920266 Z" id="Path" fill="#84E772" fill-rule="nonzero"></path>
            <path d="M435.050202,300.235298 C439.304056,302.694026 445.293483,300.447991 448.432828,295.224258 C451.572173,290.000524 450.670356,283.772881 446.416501,281.322661 C442.162647,278.863933 436.17322,281.109969 433.033875,286.333702 C429.89453,291.557435 430.796348,297.785078 435.050202,300.235298 L435.050202,300.235298 Z" id="Path" fill="#84E772" fill-rule="nonzero"></path>
            <path d="M468.017574,312.341768 C472.535167,314.953635 478.745795,312.835215 481.885139,307.611482 C485.024484,302.387748 483.901466,296.040998 479.383873,293.429131 C474.86628,290.817264 468.655652,292.935684 465.516308,298.159417 C462.376963,303.38315 463.499981,309.729901 468.017574,312.341768 L468.017574,312.341768 Z" id="Path" fill="#84E772" fill-rule="nonzero"></path>
            <path d="M517.413332,316.927423 C513.729494,321.998017 513.287093,327.970429 516.443453,330.259003 C519.591305,332.547577 525.129824,330.284526 528.813662,325.213931 C532.4975,320.143337 532.939901,314.170925 529.792048,311.882352 C526.644196,309.593778 521.105677,311.856828 517.413332,316.927423 L517.413332,316.927423 Z" id="Path" fill="#84E772" fill-rule="nonzero"></path>
            <path d="M540.528777,317.565501 C537.329878,322.687142 537.151216,328.353276 540.137422,330.216464 C543.123628,332.079653 548.134669,329.442263 551.333567,324.320622 C554.532466,319.198981 554.711128,313.532847 551.724922,311.669659 C548.738716,309.806471 543.727675,312.44386 540.528777,317.565501 L540.528777,317.565501 Z" id="Path" fill="#84E772" fill-rule="nonzero"></path>
            <path d="M566.775059,308.36016 C563.754822,313.201047 562.163881,317.659086 563.235852,318.331195 C564.307823,318.994796 567.617322,315.617236 570.646066,310.776349 C573.666303,305.935463 575.257245,301.477424 574.185273,300.805315 C573.113302,300.141713 569.803803,303.519274 566.775059,308.351652 L566.775059,308.351652 L566.775059,308.36016 Z" id="Path" fill="#84E772" fill-rule="nonzero"></path>
            <path d="M544.901739,341.284994 C541.234917,345.657956 538.725143,349.58001 539.286651,350.056441 C539.84816,350.532873 543.285275,347.376513 546.952097,343.003551 C550.61892,338.630588 553.137201,334.708535 552.567185,334.232103 C552.005676,333.755671 548.568562,336.912031 544.901739,341.284994 L544.901739,341.284994 Z" id="Path" fill="#84E772" fill-rule="nonzero"></path>
            <path d="M582.727013,278.719302 C581.016963,283.687804 580.47247,288.00972 581.518918,288.367044 C582.565366,288.724368 584.802894,284.989484 586.512943,280.020982 C588.222993,275.05248 588.767486,270.730564 587.721038,270.37324 C586.67459,270.015916 584.437062,273.7508 582.727013,278.719302 L582.727013,278.719302 Z" id="Path" fill="#84E772" fill-rule="nonzero"></path>
            <path d="M557.467625,286.308179 C555.306667,291.94879 555.766083,297.3682 558.505566,298.423156 C561.245048,299.478112 565.218148,295.760243 567.379106,290.119632 C569.540064,284.479021 569.080648,279.059611 566.341166,278.004655 C563.601683,276.949699 559.628583,280.667568 557.459118,286.308179 L557.459118,286.308179 L557.467625,286.308179 Z" id="Path" fill="#84E772" fill-rule="nonzero"></path>
            <path d="M535.926106,287.014319 C532.727208,292.135959 532.395407,297.700001 535.194443,299.452589 C537.99348,301.205177 542.851381,298.465695 546.05028,293.344054 C549.249178,288.222413 549.580979,282.658372 546.781943,280.905784 C543.982907,279.161703 539.125005,281.892678 535.926106,287.014319 L535.926106,287.014319 Z" id="Path" fill="#84E772" fill-rule="nonzero"></path>
            <path d="M593.106418,243.803665 C592.179078,249.086952 592.306693,253.519469 593.39568,253.715146 C594.484667,253.910823 596.126654,249.784584 597.053995,244.501297 C597.981335,239.21801 597.853719,234.785494 596.764733,234.589816 C595.675746,234.394139 594.033758,238.520378 593.106418,243.803665 L593.106418,243.803665 Z" id="Path" fill="#84E772" fill-rule="nonzero"></path>
            <path d="M597.428334,210.776739 C597.14758,216.128088 597.641027,220.509558 598.525828,220.560604 C599.41063,220.603143 600.363493,216.298242 600.63574,210.946893 C600.916495,205.587037 600.423047,201.214074 599.538246,201.163028 C598.653444,201.12049 597.709088,205.42539 597.428334,210.776739 L597.428334,210.776739 Z" id="Path" fill="#84E772" fill-rule="nonzero"></path>
            <path d="M596.696671,176.779934 C597.351765,182.10576 598.59389,186.334091 599.478692,186.223491 C600.363493,186.112891 600.542155,181.714406 599.887062,176.38858 C599.231968,171.062754 597.989843,166.834423 597.105041,166.945023 C596.220239,167.055623 596.041577,171.454109 596.696671,176.779934 L596.696671,176.779934 Z" id="Path" fill="#84E772" fill-rule="nonzero"></path>
            <path d="M589.218395,143.770024 C590.783813,148.900172 592.629986,152.88178 593.336126,152.669087 C594.042266,152.456395 593.336126,148.117463 591.770708,142.987315 C590.205289,137.857166 588.359116,133.875558 587.652976,134.088251 C586.946837,134.300944 587.652976,138.639875 589.209887,143.770024 L589.209887,143.770024 L589.218395,143.770024 Z" id="Path" fill="#84E772" fill-rule="nonzero"></path>
            <path d="M434.003754,241.319414 C439.703919,241.821369 444.766006,237.184668 445.301991,230.97404 C445.846485,224.763413 441.669199,219.318479 435.969035,218.825032 C430.26887,218.331585 425.206783,222.959778 424.670797,229.170406 C424.126304,235.381033 428.303589,240.825967 434.003754,241.319414 L434.003754,241.319414 Z" id="Path" fill="#84E772" fill-rule="nonzero"></path>
            <path d="M457.978477,266.638356 C462.819364,268.399451 468.47699,265.081445 470.612425,259.219634 C472.74786,253.357822 470.544363,247.181225 465.703477,245.42013 C460.862591,243.659034 455.204964,246.97704 453.069529,252.838852 C450.934094,258.700663 453.137591,264.87726 457.978477,266.646863 L457.978477,266.646863 L457.978477,266.638356 Z" id="Path" fill="#84E772" fill-rule="nonzero"></path>
            <path d="M491.09048,277.349561 C495.931367,279.110657 501.588993,275.79265 503.724428,269.930839 C505.859863,264.069028 503.656366,257.892431 498.81548,256.122828 C493.966086,254.361732 488.316967,257.679738 486.181532,263.54155 C484.046097,269.403361 486.249594,275.579958 491.09048,277.349561 L491.09048,277.349561 Z" id="Path" fill="#84E772" fill-rule="nonzero"></path>
            <path d="M514.682357,291.115034 C518.86815,293.250469 524.559807,290.468448 527.384367,284.912914 C530.217434,279.357381 529.119939,273.12123 524.934146,270.985795 C520.748354,268.85036 515.065204,271.632381 512.232137,277.187915 C509.39907,282.743449 510.496564,288.979599 514.682357,291.115034 L514.682357,291.115034 Z" id="Path" fill="#84E772" fill-rule="nonzero"></path>
            <path d="M548.619608,256.965091 C546.654327,262.673763 547.590175,268.178251 550.703997,269.250222 C553.817818,270.322194 557.944057,266.561786 559.909338,260.853114 C561.874618,255.144441 560.93877,249.639953 557.824949,248.567982 C554.70262,247.496011 550.584889,251.256418 548.619608,256.965091 L548.619608,256.965091 Z" id="Path" fill="#84E772" fill-rule="nonzero"></path>
            <path d="M571.131006,252.804821 C569.66768,258.666632 570.739651,263.975443 573.53018,264.673075 C576.3122,265.370707 579.757823,261.176407 581.221148,255.323103 C582.684474,249.461291 581.612503,244.152481 578.821975,243.454849 C576.039954,242.757217 572.594332,246.94301 571.131006,252.804821 L571.131006,252.804821 Z" id="Path" fill="#84E772" fill-rule="nonzero"></path>
            <path d="M526.559119,244.816082 C525.095793,250.677894 526.975997,256.190889 530.753419,257.126737 C534.530842,258.071093 538.776189,254.080977 540.239515,248.219166 C541.702841,242.357355 539.822637,236.844359 536.045214,235.900003 C532.267792,234.955648 528.022445,238.945763 526.559119,244.807575 L526.559119,244.807575 L526.559119,244.816082 Z" id="Path" fill="#84E772" fill-rule="nonzero"></path>
            <path d="M442.196677,204.880897 C447.752211,204.880897 452.252789,199.827318 452.252789,193.591167 C452.252789,187.355017 447.752211,182.301437 442.196677,182.301437 C436.641144,182.301437 432.140566,187.355017 432.140566,193.591167 C432.140566,199.827318 436.641144,204.880897 442.196677,204.880897 L442.196677,204.880897 Z" id="Path" fill="#84E772" fill-rule="nonzero"></path>
            <path d="M475.538389,227.383787 C481.051384,228.064404 486.138994,223.589349 486.89618,217.404244 C487.653366,211.210632 483.799374,205.646591 478.294886,204.974482 C472.781891,204.293865 467.694281,208.76892 466.937095,214.954024 C466.179909,221.147636 470.025393,226.711678 475.538389,227.383787 L475.538389,227.383787 Z" id="Path" fill="#84E772" fill-rule="nonzero"></path>
            <path d="M507.442297,240.44312 C512.44483,241.055675 517.12407,236.538082 517.881256,230.34447 C518.638442,224.159365 515.201327,218.637862 510.190287,218.025307 C505.179246,217.412752 500.508514,221.930345 499.751328,228.123958 C498.994142,234.31757 502.431256,239.830565 507.442297,240.44312 L507.442297,240.44312 Z" id="Path" fill="#84E772" fill-rule="nonzero"></path>
            <path d="M561.304602,236.257327 C565.218148,237.014513 569.352895,232.675582 570.543974,226.550031 C571.735053,220.424481 569.523049,214.851932 565.61801,214.086238 C561.704464,213.329052 557.569718,217.676491 556.378639,223.793534 C555.187559,229.919084 557.399564,235.491633 561.304602,236.257327 L561.304602,236.257327 L561.304602,236.257327 Z" id="Path" fill="#84E772" fill-rule="nonzero"></path>
            <path d="M582.301628,230.897471 C585.075141,231.144194 587.746561,226.413908 588.274039,220.347912 C588.801517,214.281915 586.989375,209.160274 584.22437,208.922059 C581.450857,208.683843 578.779436,213.405621 578.24345,219.471618 C577.715972,225.537614 579.528114,230.659255 582.301628,230.897471 L582.301628,230.897471 Z" id="Path" fill="#84E772" fill-rule="nonzero"></path>
            <path d="M585.772773,193.574152 C588.537778,193.28489 590.264843,188.137726 589.626765,182.080237 C588.988687,176.022748 586.232189,171.343508 583.467184,171.632771 C580.702178,171.922033 578.975113,177.069196 579.613191,183.126685 C580.25127,189.184174 583.007767,193.863414 585.772773,193.574152 L585.772773,193.574152 Z" id="Path" fill="#84E772" fill-rule="nonzero"></path>
            <path d="M582.709998,156.752788 C585.37291,155.936048 586.07905,150.559176 584.300939,144.731395 C582.522828,138.903614 578.915559,134.845437 576.261154,135.65367 C573.598241,136.461902 572.892101,141.847282 574.670213,147.675062 C576.448324,153.502843 580.047085,157.56102 582.709998,156.752788 L582.709998,156.752788 Z" id="Path" fill="#84E772" fill-rule="nonzero"></path>
            <path d="M446.288885,167.310854 C452.116666,166.494114 456.140812,160.819473 455.273026,154.642876 C454.40524,148.466279 448.977321,144.127348 443.141033,144.944088 C437.313253,145.760828 433.289106,151.43547 434.156893,157.612066 C435.024679,163.788663 440.452597,168.127594 446.288885,167.310854 L446.288885,167.310854 Z" id="Path" fill="#84E772" fill-rule="nonzero"></path>
            <path d="M482.73591,187.074262 C488.563691,186.257522 492.587837,180.58288 491.720051,174.406284 C490.852265,168.229687 485.424346,163.890755 479.588058,164.707495 C473.760277,165.524236 469.727623,171.198877 470.603917,177.375474 C471.471704,183.552071 476.899622,187.891002 482.73591,187.074262 L482.73591,187.074262 L482.73591,187.074262 Z" id="Path" fill="#84E772" fill-rule="nonzero"></path>
            <path d="M513.797555,201.367213 C518.910689,201.460798 523.13902,196.47528 523.24962,190.23913 C523.36022,184.002979 519.302043,178.872831 514.18891,178.787754 C509.075777,178.702677 504.847446,183.679686 504.736846,189.915837 C504.626245,196.151988 508.684422,201.282136 513.797555,201.367213 L513.797555,201.367213 Z" id="Path" fill="#84E772" fill-rule="nonzero"></path>
            <path d="M541.217901,219.931034 C545.956695,220.262835 550.142488,215.49001 550.584889,209.262367 C551.018782,203.043232 547.530621,197.725914 542.800335,197.402621 C538.061541,197.07082 533.875748,201.843645 533.433348,208.071288 C532.999454,214.290423 536.487615,219.607741 541.217901,219.939542 L541.217901,219.939542 L541.217901,219.931034 Z" id="Path" fill="#84E772" fill-rule="nonzero"></path>
            <path d="M515.558651,164.46928 C520.603723,163.669555 523.913221,158.028944 522.934835,151.869363 C521.956448,145.709782 517.073023,141.362342 512.027952,142.162067 C506.982881,142.961792 503.68189,148.602403 504.651768,154.761984 C505.630155,160.921565 510.51358,165.269004 515.558651,164.46928 L515.558651,164.46928 Z" id="Path" fill="#84E772" fill-rule="nonzero"></path>
            <path d="M545.837587,182.335468 C550.499812,181.510221 553.409448,175.86961 552.328969,169.727044 C551.24849,163.584478 546.586266,159.271069 541.915533,160.096317 C537.253309,160.921565 534.343672,166.570684 535.424152,172.704742 C536.504631,178.847308 541.166855,183.160716 545.837587,182.335468 L545.837587,182.335468 Z" id="Path" fill="#84E772" fill-rule="nonzero"></path>
            <path d="M567.881061,198.755346 C571.684007,198.355484 574.244827,193.004135 573.589734,186.802015 C572.93464,180.599896 569.327371,175.895133 565.515918,176.294995 C561.712972,176.694857 559.152152,182.046206 559.807245,188.248326 C560.462339,194.450446 564.069607,199.155209 567.881061,198.755346 L567.881061,198.755346 Z" id="Path" fill="#84E772" fill-rule="nonzero"></path>
            <path d="M567.319552,164.307633 C571.028913,163.380293 572.815532,157.722666 571.309668,151.673685 C569.803803,145.624704 565.566964,141.464435 561.857603,142.391775 C558.148242,143.319115 556.353115,148.976742 557.867488,155.025723 C559.373352,161.074704 563.610191,165.234973 567.319552,164.307633 L567.319552,164.307633 Z" id="Path" fill="#84E772" fill-rule="nonzero"></path>
            <path d="M479.57955,144.893041 C485.407331,143.761516 489.142215,137.780597 487.925613,131.535938 C486.70901,125.29128 481.008845,121.148026 475.181065,122.279551 C469.353284,123.411077 465.6184,129.391996 466.835002,135.636654 C468.051605,141.881313 473.75177,146.024567 479.57955,144.893041 L479.57955,144.893041 Z" id="Path" fill="#84E772" fill-rule="nonzero"></path>
            <path d="M542.604658,141.489958 C546.696866,140.001109 548.330346,134.190344 546.262973,128.498686 C544.195599,122.815537 539.201574,119.412453 535.109366,120.901302 C531.017158,122.390151 529.383678,128.209424 531.451051,133.892574 C533.518425,139.575723 538.51245,142.978807 542.604658,141.489958 L542.604658,141.489958 Z" id="Path" fill="#84E772" fill-rule="nonzero"></path>
            <path d="M561.321617,130.08112 C564.792763,128.464656 565.532933,122.704937 562.980621,117.225972 C560.4198,111.747008 555.536375,108.607663 552.06523,110.232635 C548.594085,111.8491 547.853914,117.608819 550.406227,123.087784 C552.967047,128.575256 557.850472,131.706093 561.321617,130.08112 L561.321617,130.08112 L561.321617,130.08112 Z" id="Path" fill="#84E772" fill-rule="nonzero"></path>
            <path d="M574.814844,123.377046 C576.763109,122.381644 576.150554,117.268511 573.436595,111.942685 C570.722636,106.625367 566.945213,103.111683 564.996948,104.107085 C563.048682,105.102487 563.661237,110.224128 566.375196,115.541446 C569.089156,120.858764 572.866578,124.372448 574.814844,123.377046 L574.814844,123.377046 Z" id="Path" fill="#84E772" fill-rule="nonzero"></path>
            <path d="M562.308512,93.1916945 C563.703776,92.0261384 561.712972,87.3724216 557.875995,82.7952742 C554.039019,78.2181269 549.80218,75.4616292 548.406915,76.6271853 C547.011651,77.7927414 549.002455,82.4464582 552.839432,87.0236056 C556.676408,91.600753 560.913247,94.3572506 562.308512,93.1916945 L562.308512,93.1916945 Z" id="Path" fill="#84E772" fill-rule="nonzero"></path>
            <path d="M543.021536,65.090732 C543.965891,64.0357761 541.141332,59.9435682 536.700308,55.9534527 C532.267792,51.9548295 527.894829,49.572671 526.950473,50.6276269 C526.006118,51.6825828 528.830677,55.7747908 533.271701,59.7649063 C537.712725,63.7635295 542.07718,66.1456879 543.021536,65.090732 L543.021536,65.090732 L543.021536,65.090732 Z" id="Path" fill="#84E772" fill-rule="nonzero"></path>
            <path d="M297.386964,27.4611356 C301.802465,25.0109154 305.128979,22.5777107 304.822702,22.0162019 C304.516424,21.4546931 300.679448,22.9860807 296.263947,25.4363009 C291.848446,27.886521 288.521932,30.3197258 288.828209,30.8812346 C289.134487,31.4427434 292.971463,29.9113558 297.386964,27.4611356 L297.386964,27.4611356 L297.386964,27.4611356 Z" id="Path" fill="#84E772" fill-rule="nonzero"></path>
            <path d="M324.415956,17.7538398 C329.682227,15.8396053 333.629804,13.4064005 333.23845,12.3259215 C332.847095,11.2454425 328.252932,11.9175515 322.98666,13.8402937 C317.720389,15.7545282 313.772812,18.1877329 314.164166,19.2682119 C314.555521,20.348691 319.149684,19.676582 324.415956,17.7538398 L324.415956,17.7538398 Z" id="Path" fill="#84E772" fill-rule="nonzero"></path>
            <path d="M310.182559,32.7274074 C315.219122,30.2686795 318.749821,27.1378427 318.069205,25.7340707 C317.38008,24.3302987 312.743379,25.1810696 307.706815,27.6397975 C302.670252,30.0985254 299.139552,33.2293622 299.820169,34.6331342 C300.500786,36.0369062 305.145995,35.1861353 310.182559,32.7274074 L310.182559,32.7274074 Z" id="Path" fill="#84E772" fill-rule="nonzero"></path>
            <path d="M342.171544,26.6358878 C348.024848,25.6064551 352.465872,23.0541424 352.10004,20.9442306 C351.725701,18.8343188 346.68063,17.9580248 340.827326,18.9959653 C334.974022,20.025398 330.532998,22.5777107 330.89883,24.6876225 C331.273169,26.7975343 336.31824,27.6738283 342.171544,26.6358878 L342.171544,26.6358878 Z" id="Path" fill="#84E772" fill-rule="nonzero"></path>
            <path d="M355.85194,12.1812904 C361.705244,11.1518577 366.197314,8.8973148 365.891036,7.14472677 C365.584759,5.39213874 360.590734,4.81361453 354.73743,5.84304731 C348.884126,6.87248008 344.392056,9.13553065 344.698334,10.879611 C345.004611,12.632199 350.007144,13.2107232 355.85194,12.1812904 L355.85194,12.1812904 Z" id="Path" fill="#84E772" fill-rule="nonzero"></path>
            <path d="M366.716284,56.2001762 C372.85885,55.5535904 377.504059,51.7506445 377.078674,47.7094828 C376.653288,43.668321 371.327462,40.9118234 365.176389,41.5584092 C359.033823,42.2049951 354.397122,46.007941 354.822507,50.0491027 C355.247893,54.0902644 360.573718,56.8467621 366.716284,56.2001762 L366.716284,56.2001762 Z" id="Path" fill="#84E772" fill-rule="nonzero"></path>
            <path d="M393.983491,68.4768002 C400.160088,68.5874004 405.230682,65.3374556 405.298744,61.2197245 C405.366806,57.1019934 400.415319,53.6818944 394.238722,53.5712942 C388.062126,53.460694 382.991531,56.7106388 382.92347,60.8283699 C382.855408,64.946101 387.798387,68.3662 393.983491,68.4768002 L393.983491,68.4768002 L393.983491,68.4768002 Z" id="Path" fill="#84E772" fill-rule="nonzero"></path>
            <path d="M418.672862,95.1314521 C424.849459,95.2420524 429.928561,91.541199 430.005131,86.8704668 C430.0817,82.1997346 425.138721,78.3287271 418.962124,78.2266346 C412.785528,78.1160344 407.706426,81.8168877 407.629856,86.4876199 C407.553287,91.1583521 412.487758,95.0293596 418.672862,95.1314521 L418.672862,95.1314521 Z" id="Path" fill="#84E772" fill-rule="nonzero"></path>
            <path d="M437.083544,127.937178 C443.124018,128.03927 448.101027,123.785416 448.194612,118.425559 C448.288197,113.065702 443.464326,108.633186 437.423853,108.531094 C431.383379,108.429001 426.40637,112.682856 426.312785,118.042712 C426.2192,123.402569 431.043071,127.835085 437.083544,127.937178 L437.083544,127.937178 Z" id="Path" fill="#84E772" fill-rule="nonzero"></path>
            <path d="M369.787567,30.9748194 C375.964164,31.0854196 381.026251,28.4395221 381.085804,25.0619617 C381.145358,21.692909 376.185364,18.8683496 370.00026,18.7662571 C363.823663,18.6556569 358.761576,21.3015544 358.702022,24.6706071 C358.642468,28.0396598 363.602463,30.8642192 369.787567,30.9663117 L369.787567,30.9663117 L369.787567,30.9748194 Z" id="Path" fill="#84E772" fill-rule="nonzero"></path>
            <path d="M401.393706,40.9713773 C407.459702,42.1539489 413.006728,39.8823906 413.78093,35.9007828 C414.555131,31.9191751 410.267246,27.74189 404.20125,26.5593185 C398.135253,25.3767469 392.588227,27.6483052 391.814025,31.629913 C391.039824,35.6115207 395.336217,39.7888058 401.402213,40.9713773 L401.402213,40.9713773 L401.393706,40.9713773 Z" id="Path" fill="#84E772" fill-rule="nonzero"></path>
            <path d="M425.878892,57.7996255 C431.553534,59.977599 437.423853,58.4377037 438.989271,54.3625111 C440.55469,50.2873186 437.219668,45.2082164 431.545026,43.0302429 C425.870384,40.8522694 420.000065,42.3921647 418.434647,46.4673573 C416.869228,50.5510575 420.20425,55.621652 425.878892,57.7996255 L425.878892,57.7996255 Z" id="Path" fill="#84E772" fill-rule="nonzero"></path>
            <path d="M445.080791,79.7410068 C450.0578,83.2291674 456.132305,83.152598 458.633571,79.5708526 C461.143345,75.9891071 459.135526,70.263419 454.150008,66.7752584 C449.164491,63.2870978 443.098495,63.3636671 440.58872,66.9454126 C438.078946,70.527158 440.086766,76.2528461 445.072283,79.7410068 L445.072283,79.7410068 L445.080791,79.7410068 Z" id="Path" fill="#84E772" fill-rule="nonzero"></path>
            <path d="M459.178064,106.455213 C462.836379,111.313114 468.88536,112.929579 472.671291,110.070989 C476.465729,107.212399 476.576329,100.959233 472.918014,96.101331 C469.259699,91.2434292 463.210718,89.6269645 459.424788,92.4855547 C455.63035,95.3441449 455.51975,101.597311 459.178064,106.455213 L459.178064,106.455213 Z" id="Path" fill="#84E772" fill-rule="nonzero"></path>
            <path d="M501.537947,122.347613 C505.196262,127.205515 510.990012,129.009149 514.48668,126.380267 C517.974841,123.751385 517.838717,117.676881 514.180402,112.827487 C510.522088,107.969585 504.728338,106.165951 501.231669,108.794833 C497.743509,111.423715 497.879632,117.489711 501.537947,122.347613 L501.537947,122.347613 Z" id="Path" fill="#84E772" fill-rule="nonzero"></path>
            <path d="M485.866747,90.3245966 C489.856863,94.9102517 495.761213,96.3140237 499.062204,93.4384181 C502.363195,90.5713202 501.801686,84.5308469 497.81157,79.9366841 C493.821455,75.351029 487.917105,73.947257 484.616114,76.8143549 C481.315123,79.6814528 481.876632,85.7219261 485.866747,90.3160889 L485.866747,90.3160889 L485.866747,90.3245966 Z" id="Path" fill="#84E772" fill-rule="nonzero"></path>
            <path d="M466.290509,61.058078 C470.663471,65.2864093 476.508267,66.3328575 479.332827,63.397698 C482.165894,60.4710461 480.906753,54.6687886 476.533791,50.4404573 C472.160828,46.2206337 466.316032,45.1656778 463.491473,48.1008374 C460.658406,51.0274892 461.909039,56.8297467 466.290509,61.058078 L466.290509,61.058078 Z" id="Path" fill="#84E772" fill-rule="nonzero"></path>
            <path d="M441.550092,40.8692848 C446.807856,43.5492131 452.618621,42.6814268 454.532855,38.9295272 C456.44709,35.1776276 453.733131,29.962402 448.475367,27.2824737 C443.217603,24.6025454 437.406837,25.4703317 435.492603,29.2222313 C433.578368,32.974131 436.292327,38.1893565 441.550092,40.8692848 L441.550092,40.8692848 Z" id="Path" fill="#84E772" fill-rule="nonzero"></path>
            <path d="M418.094338,23.300866 C423.87958,24.117606 428.899128,22.365018 429.316006,19.4043353 C429.732884,16.4351449 425.385445,13.3723697 419.600203,12.5641373 C413.814961,11.7473973 408.795412,13.4999853 408.378535,16.460668 C407.961657,19.4298584 412.309096,22.4926336 418.094338,23.300866 L418.094338,23.300866 L418.094338,23.300866 Z" id="Path" fill="#84E772" fill-rule="nonzero"></path>
            <path d="M387.926002,14.9207727 C393.753783,14.6144952 398.381977,12.4195063 398.254361,10.0118247 C398.126745,7.60414305 393.302874,5.90260127 387.466586,6.20037108 C381.638806,6.5066486 377.010612,8.7101452 377.138228,11.1178268 C377.265843,13.5255084 382.089714,15.2270502 387.926002,14.9207727 L387.926002,14.9207727 Z" id="Path" fill="#84E772" fill-rule="nonzero"></path>
            <path d="M381.706867,3.19714984 C387.313447,2.70370272 391.805518,1.64874682 391.737456,0.832006768 C391.669394,0.0152667145 387.058216,-0.239964552 381.451636,0.244974855 C375.836548,0.73842197 371.352985,1.79337787 371.421047,2.61011793 C371.489109,3.42685798 376.100287,3.68208925 381.706867,3.19714984 L381.706867,3.19714984 Z" id="Path" fill="#84E772" fill-rule="nonzero"></path>
            <path d="M444.178974,8.11460558 C449.640923,9.475839 454.235086,9.93525528 454.430763,9.14403836 C454.62644,8.35282143 450.35557,6.60874111 444.893621,5.23899998 C439.431672,3.87776655 434.837509,3.40984256 434.641832,4.2095672 C434.446155,5.00078413 438.717025,6.74486445 444.178974,8.11460558 L444.178974,8.11460558 L444.178974,8.11460558 Z" id="Path" fill="#84E772" fill-rule="nonzero"></path>
            <path d="M513.159477,39.4144666 C517.770656,42.647396 521.922417,44.6807384 522.424372,43.9660909 C522.926327,43.2514433 519.591305,40.0525448 514.980127,36.8196154 C510.368949,33.586686 506.217187,31.5533436 505.715232,32.2679911 C505.213277,32.9826387 508.548299,36.1815372 513.159477,39.4144666 L513.159477,39.4144666 Z" id="Path" fill="#84E772" fill-rule="nonzero"></path>
            <path d="M488.929522,22.9520499 C493.676824,25.3682392 497.760524,26.8570883 498.058294,26.2785641 C498.356064,25.7000399 494.748795,23.2668351 490.001494,20.8506458 C485.254192,18.4344565 481.170492,16.9456074 480.872722,17.5241316 C480.574952,18.1026558 484.182221,20.5358606 488.929522,22.9520499 L488.929522,22.9520499 Z" id="Path" fill="#84E772" fill-rule="nonzero"></path>
            <path d="M484.497006,23.853867 C485.118069,22.5777107 481.451246,19.5149355 476.31259,17.0051614 C471.173934,14.4953873 466.503202,13.4999853 465.882139,14.7676339 C465.261076,16.0437903 468.927899,19.1065655 474.066555,21.6163396 C479.205211,24.1261137 483.884451,25.1215157 484.505514,23.853867 L484.505514,23.853867 L484.497006,23.853867 Z" id="Path" fill="#84E772" fill-rule="nonzero"></path>
            <path d="M474.90031,30.1410639 C475.700035,28.5075838 472.177844,25.1555465 467.03068,22.6457724 C461.892024,20.1359982 457.07666,19.4298584 456.276936,21.0633385 C455.477211,22.6968186 458.999403,26.0488559 464.146566,28.5586301 C469.285223,31.0684042 474.100586,31.774544 474.90031,30.1410639 L474.90031,30.1410639 Z" id="Path" fill="#84E772" fill-rule="nonzero"></path>
            <path d="M449.8366,16.1033442 C450.381093,14.4188179 446.527101,11.6538125 441.226799,9.93525528 C435.926496,8.21669809 431.179194,8.18266725 430.634701,9.86719361 C430.090208,11.55172 433.9442,14.3167254 439.244502,16.0352826 C444.544805,17.7623475 449.292107,17.7878706 449.8366,16.1033442 L449.8366,16.1033442 Z" id="Path" fill="#84E772" fill-rule="nonzero"></path>
            <path d="M420.748743,4.8816762 C420.79979,3.46939653 416.205627,2.15920936 410.488446,1.95502434 C404.771266,1.75934704 400.100534,2.73773356 400.049488,4.15852095 C399.998441,5.57080062 404.592604,6.88098779 410.309785,7.08517281 C416.026965,7.28085011 420.706205,6.30246359 420.748743,4.8816762 L420.748743,4.8816762 Z" id="Path" fill="#84E772" fill-rule="nonzero"></path>
            <path d="M509.798932,42.792027 C510.81135,41.2861626 507.791113,37.474709 503.052319,34.2758104 C498.313525,31.0769119 493.642793,29.7071708 492.621868,31.2130352 C491.600943,32.7188997 494.629687,36.5303533 499.368481,39.7292518 C504.115783,42.9281504 508.778007,44.2978915 509.798932,42.792027 L509.798932,42.792027 Z" id="Path" fill="#84E772" fill-rule="nonzero"></path>
            <path d="M532.106145,67.9663376 C533.569471,66.3413652 531.30642,61.9173566 527.061074,58.0888876 C522.807219,54.2604186 518.179026,52.4737998 516.7157,54.0987722 C515.252374,55.7237445 517.515424,60.1477532 521.760771,63.9677145 C526.014625,67.7961835 530.642819,69.5828023 532.106145,67.9578299 L532.106145,67.9578299 L532.106145,67.9663376 Z" id="Path" fill="#84E772" fill-rule="nonzero"></path>
            <path d="M549.589487,95.5653453 C551.461183,94.2041119 550.091442,89.1250097 546.535219,84.2160616 C542.970489,79.3071136 538.563496,76.4400157 536.683292,77.8012491 C534.803089,79.1624826 536.17283,84.2415848 539.73756,89.1505328 C543.30229,94.0594808 547.709283,96.9265787 549.589487,95.5653453 L549.589487,95.5653453 Z" id="Path" fill="#84E772" fill-rule="nonzero"></path>
            <path d="M531.561652,105.570411 C534.343672,103.545576 533.714102,97.9304884 530.149372,93.0215403 C526.584642,88.1125923 521.437478,85.7814801 518.655457,87.8063148 C515.873436,89.8311495 516.503007,95.4462374 520.067737,100.355185 C523.632467,105.264133 528.779631,107.595246 531.570159,105.570411 L531.570159,105.570411 L531.561652,105.570411 Z" id="Path" fill="#84E772" fill-rule="nonzero"></path>
            <path d="M516.477484,76.8228626 C518.927704,74.6874277 517.872748,69.4636944 514.120848,65.150286 C510.368949,60.8368776 505.340893,59.0587664 502.882165,61.1942014 C500.431945,63.3211286 501.486901,68.5533696 505.2388,72.866778 C508.9907,77.1801864 514.018756,78.9582975 516.477484,76.8228626 L516.477484,76.8228626 Z" id="Path" fill="#84E772" fill-rule="nonzero"></path>
            <path d="M498.747418,51.1040586 C500.508514,48.6878693 498.10934,43.9405677 493.387562,40.511961 C488.665783,37.0833544 483.416527,36.2666143 481.655431,38.6828036 C479.894336,41.098993 482.302017,45.8462945 487.015288,49.2749012 C491.737066,52.7035079 496.986323,53.5202479 498.738911,51.1040586 L498.738911,51.1040586 L498.747418,51.1040586 Z" id="Path" fill="#84E772" fill-rule="nonzero"></path>
            <path d="M517.75364,366.80812 C513.627401,370.15165 510.632688,373.290994 511.066581,373.82698 C511.500474,374.362966 515.19282,372.0829 519.319059,368.73937 C523.445297,365.395841 526.440011,362.256496 526.006118,361.72051 C525.572225,361.184525 521.879879,363.464591 517.745132,366.80812 L517.745132,366.80812 L517.75364,366.80812 Z" id="Path" fill="#84E772" fill-rule="nonzero"></path>
            <path d="M489.040123,385.363433 C484.437452,388.017839 480.99183,390.655228 481.332138,391.250768 C481.672447,391.846308 485.679578,390.178797 490.282248,387.524391 C494.884919,384.869986 498.330541,382.232596 497.990232,381.637057 C497.649924,381.041517 493.642793,382.709028 489.040123,385.371941 L489.040123,385.371941 L489.040123,385.363433 Z" id="Path" fill="#84E772" fill-rule="nonzero"></path>
            <path d="M246.927743,263.643642 C243.26092,258.598571 238.011664,256.165366 235.212628,258.198709 C232.405084,260.240559 233.102716,265.983262 236.769539,271.028334 C240.436361,276.073405 245.685617,278.50661 248.484654,276.473267 C251.292198,274.431417 250.594565,268.688714 246.927743,263.643642 L246.927743,263.643642 Z" id="Path" fill="#84E772" fill-rule="nonzero"></path>
            <path d="M36.0726857,133.53525 L17.3982647,133.53525 L17.3982647,114.103643 C17.3982647,111.287591 16.5219707,110.32622 13.705919,110.32622 L3.77742275,110.32622 C0.961371105,110.32622 1.42108547e-14,111.296099 1.42108547e-14,114.103643 L1.42108547e-14,169.140012 C1.42108547e-14,171.862479 0.969878814,172.832357 3.77742275,172.832357 L13.705919,172.832357 C16.5219707,172.832357 17.3982647,171.862479 17.3982647,169.140012 L17.3982647,148.917188 L35.2048994,148.917188 L36.064178,133.543758 L36.064178,133.543758 L36.0726857,133.53525 Z" id="Path" fill="#FFFFFF" fill-rule="nonzero"></path>
            <path d="M72.6898648,151.290839 C72.1453714,150.754853 71.5328164,150.303944 70.8777228,149.989159 C70.4268142,149.776466 69.9588902,149.61482 69.4739508,149.50422 C67.219408,148.976742 65.4838354,149.674374 65.1775578,149.776466 C64.8712803,149.878559 63.4249698,150.669776 62.0722441,151.979963 L62.0722441,151.979963 C61.3916274,152.618041 60.7365338,153.281642 60.0814402,153.936736 C59.5199314,154.498245 58.975438,155.187369 58.3203445,155.62977 L58.3203445,155.62977 C57.750328,156.012617 56.9761265,156.284864 56.2784943,156.191279 C55.7084778,156.106202 55.2830924,155.706339 54.8321838,155.391554 C54.5854603,155.2214 53.8708127,154.506753 53.5475198,153.792105 C53.2157191,153.077457 53.0115341,152.405348 52.7733183,150.678284 C52.5351024,148.951219 52.3819637,145.04618 52.3819637,145.04618 L52.1607632,135.449485 L52.0416553,125.733681 C52.0416553,125.733681 51.9480705,116.179524 51.9480705,114.146182 C51.9480705,110.156066 49.8721895,110.156066 48.1536323,110.156066 L38.1825975,110.156066 C36.4640403,110.156066 34.515775,110.156066 34.515775,114.146182 L34.515775,148.211048 C34.515775,148.211048 34.515775,152.66058 35.2644534,156.420987 C35.8089467,159.279577 36.4895634,161.261873 37.2552572,163.218646 L37.2552572,163.218646 C37.8252737,164.69048 38.4973827,166.162314 39.3821845,167.481009 L39.3821845,167.481009 C40.301017,168.842242 41.5261271,170.041829 42.7172064,171.156339 L42.7172064,171.156339 C43.9678396,172.321895 45.4226578,173.283266 46.9625531,174.023437 L46.9625531,174.023437 C48.1536323,174.601961 49.421281,174.984808 50.6974373,175.291085 C51.9991168,175.605871 53.3178116,175.818563 54.6535219,175.878117 L54.6535219,175.878117 C56.3380483,175.954687 58.0225747,175.767517 59.6815779,175.49527 L59.6815779,175.49527 C61.2810272,175.231531 62.8039071,174.499868 64.2502176,173.793729 C65.4923431,173.189681 66.6578992,172.432495 67.7468859,171.581724 L67.7468859,171.581724 C68.9805037,170.620353 70.2056138,169.607936 71.2435543,168.425364 L71.2435543,168.425364 C72.5622492,166.928007 73.6001896,165.141389 74.3658834,163.303724 C74.5870839,162.767738 74.7912689,162.214737 74.9358999,161.653228 C75.225162,160.555734 75.2677006,159.449731 75.2677006,158.318206 C75.2677006,156.55711 75.0039616,154.898107 74.1957293,153.341196 L74.1957293,153.341196 C73.8213901,152.618041 73.2939121,151.911901 72.6728494,151.299346 L72.6728494,151.299346 L72.6898648,151.290839 Z" id="Path" fill="#FFFFFF" fill-rule="nonzero"></path>
            <path d="M96.1371105,151.392931 C105.801868,151.392931 113.637468,143.557331 113.637468,133.892574 C113.637468,124.227817 105.801868,116.392217 96.1371105,116.392217 C86.4723532,116.392217 78.6367533,124.227817 78.6367533,133.892574 C78.6367533,143.557331 86.4723532,151.392931 96.1371105,151.392931 L96.1371105,151.392931 Z" id="Path" fill="#84E772" fill-rule="nonzero"></path>
            <path d="M96.1371105,151.392931 C105.801868,151.392931 113.637468,143.557331 113.637468,133.892574 C113.637468,124.227817 105.801868,116.392217 96.1371105,116.392217 C86.4723532,116.392217 78.6367533,124.227817 78.6367533,133.892574 C78.6367533,143.557331 86.4723532,151.392931 96.1371105,151.392931 L96.1371105,151.392931 Z" id="Path" stroke="#FFFFFF" stroke-width="17.24"></path>
            <path d="M202.874826,375.23926 L221.328047,362.53725 L211.816428,386.682128 L236.276091,377.715003 L223.072127,395.7003 L227.045227,399.724446 L250.118134,367.242013 L220.817584,377.936203 L232.200899,349.09507 L198.876203,371.198098 L202.883334,375.247767 L202.883334,375.247767 L202.874826,375.23926 Z M276.253815,391.880338 L259.919014,380.097162 L238.564665,409.695481 L254.899466,421.478658 L257.928211,417.284357 L246.059957,408.725602 L253.197924,398.831137 L264.717362,407.143168 L267.746107,402.948868 L256.226669,394.636836 L261.356817,387.524391 L273.225071,396.083147 L276.253815,391.888846 L276.253815,391.888846 L276.253815,391.880338 Z M289.56838,400.41357 L284.684955,397.869765 L267.797153,430.224582 L272.680578,432.776895 L280.567224,417.667204 L294.519866,424.949803 L286.63322,440.059494 L291.516645,442.603299 L308.404447,410.248482 L303.521022,407.704677 L296.91904,420.364148 L282.966398,413.081549 L289.56838,400.422078 L289.56838,400.422078 L289.56838,400.41357 Z M330.337321,436.801041 C332.319617,435.482346 333.697866,433.593635 334.489083,431.134907 C335.5015,427.987055 335.186715,425.085926 333.553235,422.448536 C332.064386,420.066378 329.027134,418.143636 324.441479,416.663294 L318.298913,414.689506 L307.136799,449.434989 L312.377547,451.119515 L316.946187,436.894626 L317.890543,437.200904 L323.250399,454.607676 L329.665212,456.666542 L323.658769,438.400491 C326.126005,438.647214 328.355025,438.111228 330.328813,436.792534 L330.328813,436.792534 L330.337321,436.801041 Z M321.957228,421.299996 L323.828924,421.895535 C328.661302,423.443938 330.507475,426.004759 329.367442,429.552473 C328.15084,433.346911 325.054034,434.452914 320.094039,432.853464 L318.426528,432.317479 L321.965735,421.291488 L321.965735,421.291488 L321.957228,421.299996 Z M390.767577,466.186668 L396.782527,466.561007 L381.825975,426.761945 L361.373443,464.340495 L367.294808,464.714834 L371.905987,456.122048 L387.500617,457.100435 L390.767577,466.186668 L390.767577,466.186668 L390.767577,466.186668 Z M374.517853,451.1025 L380.958189,439.0726 L385.586382,451.800132 L374.517853,451.1025 L374.517853,451.1025 Z M406.481316,430.071444 L409.671706,466.424884 L425.844861,465.004096 L425.393952,459.848425 L414.699762,460.784273 L411.96028,429.586504 L406.472808,430.071444 L406.472808,430.071444 L406.481316,430.071444 Z M442.043539,425.128465 C438.989271,425.783558 436.641144,427.246884 434.98214,429.501427 C433.323137,431.747462 432.778644,434.20619 433.357168,436.886118 C434.207939,440.859218 437.304745,443.351977 442.630571,444.364395 L446.38247,445.053519 C447.360857,445.249196 448.211628,445.487412 448.951798,445.768166 C449.691969,446.048921 450.313032,446.389229 450.832002,446.789092 C451.342465,447.188954 451.759342,447.656878 452.074127,448.192864 C452.388913,448.728849 452.627129,449.341404 452.77176,450.039036 C453.146099,451.766101 452.899375,453.305997 452.031589,454.675738 C451.163803,456.036971 449.887646,456.904757 448.211628,457.262081 C446.0847,457.721497 444.298082,457.296112 442.860279,455.994433 C442.069062,455.330831 441.328891,453.969598 440.631259,451.927748 L435.433049,454.301398 C436.641144,457.52582 438.43627,459.839917 440.818429,461.243689 C443.234618,462.638953 445.982608,463.004785 449.079414,462.341183 C452.346374,461.635044 454.847641,459.967533 456.583213,457.338651 C458.310278,454.726784 458.820741,451.783117 458.114601,448.499141 C457.587123,446.048921 456.472613,444.126179 454.771071,442.730914 C453.069529,441.33565 450.644832,440.357264 447.49698,439.81277 L443.625973,439.123646 C440.809921,438.621691 439.210472,437.498673 438.836132,435.754593 C438.563886,434.486944 438.836132,433.338404 439.635857,432.291956 C440.435582,431.237 441.59263,430.539368 443.081479,430.216075 C444.298082,429.952336 445.34453,429.986366 446.220824,430.318167 C447.054579,430.590414 448.032966,431.3476 449.155983,432.589725 L452.967437,429.059026 C449.794061,425.55385 446.152762,424.243663 442.035031,425.128465 L442.035031,425.128465 L442.043539,425.128465 Z M499.530128,406.334936 L481.247061,414.774583 L496.543922,447.903601 L514.826988,439.463954 L512.657523,434.767699 L499.376989,440.901757 L494.263856,429.833228 L507.161543,423.877831 L504.992077,419.181576 L492.09439,425.136972 L488.41906,417.173757 L501.699593,411.039699 L499.530128,406.343443 L499.530128,406.343443 L499.530128,406.334936 Z M509.39907,401.00911 L528.575446,432.062247 L533.263193,429.169626 L514.086818,398.116489 L509.39907,401.00911 L509.39907,401.00911 Z M552.269415,417.046141 L535.87506,397.44438 L574.108704,401.672711 L549.266194,371.9723 L545.04637,375.502999 L561.31311,394.960129 L523.036927,390.672244 L548.041084,420.568333 L552.269415,417.037634 L552.269415,417.037634 L552.269415,417.046141 Z M576.022938,340.868116 C574.236319,343.420428 573.496149,346.091849 573.819442,348.87387 C574.125719,351.647383 575.401876,353.825356 577.647911,355.399283 C580.974425,357.730395 584.939017,357.458148 589.53318,354.582543 L592.757602,352.540692 C593.608373,352.021722 594.39959,351.613352 595.131253,351.315582 C595.862915,351.02632 596.55204,350.847658 597.198626,350.788104 C597.845212,350.72855 598.466274,350.788104 599.061814,350.966766 C599.657354,351.145428 600.244386,351.43469 600.831417,351.84306 C602.277728,352.855478 603.145514,354.157157 603.434776,355.748099 C603.724038,357.33904 603.375222,358.836397 602.388328,360.240169 C601.137695,362.01828 599.546753,362.920097 597.606996,362.94562 C596.577563,362.988159 595.105729,362.50322 593.20851,361.482294 L591.013521,366.757074 C594.093312,368.296969 596.977425,368.773401 599.682877,368.186369 C602.405344,367.573814 604.676902,365.965857 606.489044,363.371006 C608.403278,360.640031 609.109418,357.713379 608.590448,354.599558 C608.079985,351.51126 606.455013,349.001486 603.707023,347.078743 C601.656665,345.640941 599.529738,344.985847 597.326241,345.12197 C595.122745,345.249586 592.68954,346.193942 590.001104,347.929514 L586.691605,350.056441 C584.283924,351.596337 582.352674,351.860076 580.889348,350.839151 C579.834392,350.09898 579.238852,349.069547 579.128252,347.75936 C579.000636,346.440665 579.374976,345.147493 580.25127,343.89686 C580.965917,342.875935 581.757134,342.186811 582.616413,341.829487 C583.416137,341.463655 584.641247,341.353055 586.308758,341.506194 L586.708621,336.324999 C581.99535,335.908122 578.43062,337.422494 576.014431,340.868116 L576.014431,340.868116 L576.022938,340.868116 Z M611.474561,326.762334 C613.26118,323.410297 613.822689,320.287968 613.15058,317.395347 C612.478471,314.502726 610.674837,312.265199 607.722662,310.69978 C604.966164,309.227946 602.192651,308.938684 599.402122,309.823486 C597.794165,310.325441 596.432932,311.167704 595.318422,312.358783 C594.21242,313.532847 592.936264,315.472605 591.498461,318.169548 L588.563301,323.674036 L620.764979,340.8511 L623.359831,335.993199 L610.283482,329.016877 L611.483069,326.762334 L611.483069,326.762334 L611.474561,326.762334 Z M595.633207,321.206801 L596.492486,319.598844 C598.942706,314.996173 601.835327,313.583893 605.161841,315.353497 C608.598956,317.182654 609.126434,320.330507 606.744275,324.797054 L605.774396,326.609196 L595.641715,321.198293 L595.641715,321.198293 L595.633207,321.206801 Z M633.985959,304.667814 C638.256829,302.12401 641.123927,298.610326 642.59576,294.135271 C644.254764,289.073184 643.931471,284.181251 641.617374,279.459473 C639.311785,274.75471 635.670485,271.581335 630.684968,269.947854 C625.733481,268.322882 620.901103,268.705729 616.204847,271.087887 C611.508592,273.461538 608.352232,277.119853 606.735767,282.062832 C605.09378,287.065365 605.442596,291.923267 607.773708,296.636537 C610.10482,301.366823 613.712089,304.531691 618.587006,306.13114 C624.14254,307.95179 629.281196,307.466851 633.994467,304.667814 L633.994467,304.667814 L633.985959,304.667814 Z M612.393394,294.126763 C610.691852,290.817264 610.436621,287.354627 611.619192,283.747358 C612.810272,280.123074 615.064814,277.5027 618.382821,275.86922 C621.69232,274.218724 625.197496,274.006032 628.898349,275.214126 C632.548156,276.413713 635.2451,278.676764 636.963657,282.020293 C638.656691,285.346808 638.911922,288.826461 637.712336,292.46776 C636.614841,295.819797 634.402837,298.37211 631.093338,300.124698 C627.775332,301.885794 624.202094,302.141025 620.373625,300.881884 C616.723818,299.682297 614.060905,297.436262 612.384886,294.135271 L612.384886,294.135271 L612.393394,294.126763 Z M634.521945,240.017735 C632.888465,238.29067 630.795568,237.244222 628.234748,236.886898 C624.95928,236.427481 622.151736,237.218698 619.829131,239.277564 C617.736235,241.14926 616.349478,244.467266 615.677369,249.240091 L614.775552,255.62938 L650.907792,260.742513 L651.681994,255.289072 L636.887088,253.196176 L637.023211,252.217789 L653.272935,243.990835 L654.217291,237.320791 L637.235904,246.330455 C637.057242,243.854711 636.155425,241.753307 634.521945,240.026242 L634.521945,240.026242 L634.521945,240.017735 Z M620.662887,250.899094 L620.935134,248.959337 C621.649781,243.939788 623.853278,241.685246 627.545623,242.204216 C631.4932,242.765725 633.101157,245.624315 632.369494,250.788494 L632.122771,252.524067 L620.654379,250.899094 L620.654379,250.899094 L620.662887,250.899094 Z M623.785216,205.331805 L618.612529,205.263744 L618.331775,227.528418 L623.504462,227.59648 L623.615062,219.207879 L654.931938,219.607741 L655,214.103253 L623.683124,213.703391 L623.793724,205.340313 L623.793724,205.340313 L623.785216,205.331805 Z" id="Shape" fill="#FFFFFF" fill-rule="nonzero"></path>
        </g>
    </g>
</svg>