<?xml version="1.0" encoding="UTF-8"?>
<svg id="Layer_2" data-name="Layer 2" xmlns="http://www.w3.org/2000/svg" viewBox="0 0 769.89 548.39">
  <defs>
    <style>
      .cls-1 {
        fill: none;
        stroke: #231f20;
        stroke-width: 17.24px;
      }

      .cls-2 {
        fill: #84e772;
      }

      .cls-3 {
        fill: #231f20;
      }
    </style>
  </defs>
  <g id="Layer_1-2" data-name="Layer 1">
    <g>
      <path class="cls-3" d="M16.11,310.64H4.44c-3.31,0-4.44,1.14-4.44,4.34v64.69c0,3.2,1.14,4.34,4.44,4.34H45.36c3.2,0,4.34-1.14,4.34-4.34v-9.4c0-3.31-1.14-4.34-4.34-4.34H20.45v-50.95c0-3.2-1.03-4.34-4.34-4.34h0Zm43.86,4.13v65.1c0,3.1,1.03,4.13,4.13,4.13h12.19c3.1,0,4.13-1.03,4.13-4.13v-65.1c0-3.1-1.03-4.13-4.13-4.13h-12.19c-3.1,0-4.13,1.03-4.13,4.13h0Zm93.87,27.08h-26.14c-3.2,0-4.34,1.14-4.34,4.44v7.74c0,3.31,1.14,4.34,4.34,4.34h9.93v2.07c0,4.45-4.24,7.04-11.17,7.04-8.17,0-11.38-3.52-11.38-10.76v-18.8c0-7.24,3.21-10.76,11.38-10.76,5.79,0,8.89,2.07,10.76,6.72,1.14,3.21,2.38,3.83,5.58,2.79l11.05-3.93c3.1-1.03,3.82-2.59,2.79-5.59-4.34-11.57-14.25-18.07-30.17-18.07-20.36,0-31.83,11.05-31.83,28.94v18.6c0,17.89,11.47,28.94,31.83,28.94s31.72-11.05,31.72-25.63v-13.63c0-3.31-1.03-4.44-4.34-4.44h0Zm79.06,37.92l-23.86-65.72c-1.03-2.69-2.38-3.41-5.37-3.41h-11.78c-3,0-4.34,.62-5.37,3.62l-23.76,65.51c-1.03,2.79-.41,4.24,2.79,4.24h10.85c5.16,0,6.51-1.14,7.54-4.34l2.38-7.44h22.31l2.38,7.44c.83,3.2,2.38,4.34,7.75,4.34h11.16c3.1,0,4.03-1.45,3-4.24h0Zm-32.75-35.86l3.82,12.1h-12.91l3.82-12.2c2.07-6.93,1.96-14.37,1.96-14.37h1.03s.21,7.45,2.27,14.48h0Z"/>
      <path class="cls-3" d="M34.72,220.1H4.44c-3.31,0-4.44,1.14-4.44,4.44v64.69c0,3.2,1.14,4.34,4.44,4.34h30.7c14.57,0,25.41-7.13,25.41-20.46,0-9-3.82-14.89-10.43-17.78v-.41c5.27-3.61,7.43-8.26,7.43-15.2,0-12.6-8.57-19.63-22.83-19.63h0Zm2.07,22.42c0,4.04-2.17,5.59-6.31,5.59h-10.03v-11.38h10.03c4.14,0,6.31,1.76,6.31,5.79h0Zm2.27,28.21c0,4.35-2.17,6.11-6.62,6.11h-12v-12.11h12c4.45,0,6.62,1.86,6.62,6h0Zm52.54-3.2v-42.99c0-3.2-1.14-4.34-4.44-4.34h-11.67c-3.31,0-4.34,1.14-4.34,4.34v42.07c0,17.36,10.74,28.51,31.1,28.51s31.21-11.15,31.21-28.51v-42.07c0-3.2-1.14-4.34-4.44-4.34h-11.67c-3.31,0-4.34,1.14-4.34,4.34v42.99c0,6.1-3.62,9.51-10.76,9.51s-10.65-3.41-10.65-9.51h0Zm112.88-47.34h-10.53c-3.31,0-4.34,1.14-4.34,4.34v16.95c0,10.54-.05,15.4-.05,15.4,0,0-.26-1.03-4.81-8.16l-16.96-26.45c-.93-1.45-1.96-2.07-4.34-2.07h-12.19c-3.3,0-4.44,1.14-4.44,4.34v64.69c0,3.2,1.14,4.34,4.44,4.34h10.43c3.31,0,4.44-1.14,4.44-4.34v-32.38s6.51,10.16,6.51,10.16l15.93,24.49c.93,1.45,2.07,2.07,4.23,2.07h11.67c3.2,0,4.34-1.14,4.34-4.34v-64.69c0-3.2-1.14-4.34-4.34-4.34h0Zm47.86,0h-25.21c-3.31,0-4.44,1.14-4.44,4.34v64.69c0,3.2,1.14,4.34,4.44,4.34h25.21c20.36,0,31.72-11.15,31.72-28.93v-15.51c0-17.88-11.36-28.93-31.72-28.93h0Zm11.27,29.24v14.89c0,7.34-3.62,11.17-12,11.17h-8.48v-37.22h8.48c8.38,0,12,3.82,12,11.17h0Zm80.3-29.24h-43.29c-3.3,0-4.44,1.14-4.44,4.34v64.69c0,3.2,1.14,4.34,4.44,4.34h44.23c3.2,0,4.34-1.14,4.34-4.34v-9.4c0-3.3-1.14-4.34-4.34-4.34h-28.22v-9.93h21.81c3.31,0,4.44-1.14,4.44-4.44v-9.3c0-3.2-1.14-4.34-4.44-4.34h-21.81v-9.21h27.29c3.31,0,4.45-1.14,4.45-4.44v-9.3c0-3.2-1.14-4.34-4.45-4.34h0Zm15.44,21.59c0,20.06,16.94,22.23,29.03,23.88,6.83,.93,12.1,2.07,12.1,6.1,0,4.45-4.14,5.89-11.07,5.89-5.79,0-9.82-1.86-11.68-5.48-1.55-3-3-3.31-6.09-2.27l-9.71,3.51c-2.99,1.14-3.93,2.58-2.79,5.68,3.93,10.74,14.67,16.01,30.07,16.01,18.3,0,32.03-8.36,32.03-23.55,0-19.54-15.49-22.43-27.48-24.09-7.45-.93-13.55-1.86-13.55-6.31,0-3.62,2.79-5.38,9.83-5.38,4.76,0,8.48,1.45,10.44,5.38,1.65,3,2.79,3.41,5.58,2.17l10.33-4.45c3.1-1.24,3.93-2.79,2.48-5.79-4.85-9.92-13.53-14.46-28.83-14.46-19.74,0-30.69,9.5-30.69,23.14h0Z"/>
      <path class="cls-3" d="M147.41,157.15v18.61c0,17.88,11.46,28.93,31.82,28.93,15.92,0,25.84-6.51,30.18-18.07,1.03-3,.31-4.55-2.79-5.58l-11.06-3.93c-3.1-1.14-4.34-.41-5.58,2.79-1.65,4.45-4.96,6.72-10.75,6.72-8.16,0-11.37-3.51-11.37-10.75v-18.82c0-7.24,3.2-10.75,11.37-10.75,5.79,0,8.89,2.07,10.75,6.72,1.14,3.2,2.38,3.72,5.58,2.79l11.06-3.93c3.1-1.03,3.82-2.58,2.79-5.58-4.34-11.57-14.26-18.07-30.18-18.07-20.35,0-31.82,11.05-31.82,28.93h0Z"/>
      <path class="cls-3" d="M281.69,198.08l-13.64-25.84c-1.76-3.51-3.72-6.09-6.3-7.95l18.81-29.97c1.65-2.69,.62-4.55-2.48-4.55h-11.89c-5.37,0-6.3,.62-8.27,3.82l-14.88,23.46h-2.27v-22.94c0-3.2-1.03-4.34-4.34-4.34h-11.67c-3.3,0-4.44,1.14-4.44,4.34v64.69c0,3.2,1.14,4.34,4.44,4.34h11.67c3.31,0,4.34-1.14,4.34-4.34v-23.67h1.86c3.93,0,5.37,1.86,7.03,5.17l8.99,18.5c1.76,3.62,3.72,4.34,9.2,4.34h11.16c3.41,0,4.13-2.27,2.69-5.07h0Z"/>
      <path class="cls-3" d="M342.15,129.77h-43.29c-3.31,0-4.44,1.14-4.44,4.34v64.69c0,3.2,1.14,4.34,4.44,4.34h44.22c3.2,0,4.34-1.14,4.34-4.34v-9.4c0-3.3-1.14-4.34-4.34-4.34h-28.22v-9.93h21.81c3.31,0,4.44-1.14,4.44-4.44v-9.3c0-3.2-1.14-4.34-4.44-4.34h-21.81v-9.21h27.28c3.31,0,4.44-1.14,4.44-4.44v-9.29c0-3.2-1.14-4.34-4.44-4.34h0Z"/>
      <path class="cls-3" d="M422.08,129.77h-11.89c-5.06,0-6.51,.21-8.47,3.82l-11.36,21.08-11.05-21.08c-1.96-3.62-3.41-3.82-8.58-3.82h-12.4c-3.2,0-3.62,1.96-2.17,4.34l23.77,40.61v24.08c0,3.2,1.14,4.34,4.44,4.34h11.67c3.3,0,4.34-1.14,4.34-4.34v-24.08l23.87-40.61c1.34-2.38,.93-4.34-2.17-4.34h0Z"/>
      <path class="cls-2" d="M473.84,184.75c7.33,0,13.27-5.94,13.27-13.27s-5.94-13.27-13.27-13.27-13.27,5.94-13.27,13.27,5.94,13.27,13.27,13.27h0Z"/>
      <path class="cls-2" d="M476.26,225.4c7.44,0,13.47-6.41,13.47-14.31s-6.03-14.31-13.47-14.31-13.47,6.41-13.47,14.31,6.03,14.31,13.47,14.31h0Z"/>
      <path class="cls-2" d="M468.32,267.36c7.33,0,13.27-5.94,13.27-13.27s-5.94-13.27-13.27-13.27-13.27,5.94-13.27,13.27,5.94,13.27,13.27,13.27h0Z"/>
      <path class="cls-2" d="M449.51,307.11c7.33,0,13.27-6.41,13.27-14.31s-5.94-14.31-13.27-14.31-13.27,6.41-13.27,14.31,5.94,14.31,13.27,14.31h0Z"/>
      <path class="cls-2" d="M460.57,145.2c7.33,0,13.27-5.94,13.27-13.27s-5.94-13.27-13.27-13.27-13.27,5.94-13.27,13.27,5.94,13.27,13.27,13.27h0Z"/>
      <path class="cls-2" d="M436.7,117.69c7.07,0,12.81-5.73,12.81-12.79s-5.73-12.79-12.81-12.79-12.81,5.72-12.81,12.79,5.73,12.79,12.81,12.79h0Z"/>
      <path class="cls-2" d="M403.18,97.18c7.08,1.9,14.12-1.42,15.73-7.42,1.6-5.99-2.83-12.39-9.91-14.29-7.08-1.9-14.12,1.42-15.73,7.42-1.61,5.99,2.83,12.39,9.91,14.29h0Z"/>
      <path class="cls-2" d="M373.99,89.65c7.22-1.27,12.25-6.96,11.24-12.7-1.01-5.74-7.68-9.36-14.9-8.09-7.22,1.27-12.25,6.96-11.24,12.7,1.01,5.74,7.68,9.36,14.9,8.09h0Z"/>
      <path class="cls-2" d="M339.73,94.66c6.28-3.77,9.2-10.47,6.5-14.95-2.69-4.48-9.97-5.05-16.25-1.27-6.28,3.78-9.19,10.47-6.5,14.95,2.69,4.48,9.97,5.05,16.25,1.27h0Z"/>
      <path class="cls-2" d="M318.18,329.51c-5-5.36-11.98-6.98-15.59-3.61-3.61,3.37-2.48,10.44,2.52,15.8,5,5.36,11.98,6.98,15.59,3.61,3.61-3.37,2.48-10.44-2.52-15.8h0Z"/>
      <path class="cls-2" d="M353.89,337.41c-4.31-5.93-11.62-7.96-16.34-4.54-4.72,3.43-5.05,11.01-.74,16.94,4.31,5.93,11.62,7.96,16.34,4.53,4.72-3.43,5.05-11.01,.74-16.94h0Z"/>
      <path class="cls-2" d="M391.97,331.87c-4.63-6.37-12.98-8.18-18.66-4.06-5.68,4.12-6.53,12.63-1.9,19,4.63,6.37,12.98,8.18,18.66,4.06,5.68-4.12,6.53-12.63,1.9-19h0Z"/>
      <path class="cls-2" d="M428.81,318.14c-4.63-6.37-12.98-8.18-18.66-4.06-5.68,4.12-6.53,12.63-1.9,19s12.98,8.18,18.66,4.06c5.68-4.12,6.53-12.63,1.9-19h0Z"/>
      <path class="cls-2" d="M273.11,103.68c3.98-5.1,6.53-9.76,5.7-10.42-.84-.65-4.75,2.95-8.73,8.05-3.98,5.1-6.53,9.76-5.69,10.42,.84,.65,4.75-2.95,8.73-8.05h0Z"/>
      <path class="cls-2" d="M292.97,104.23c4.66-5.36,6.74-11.17,4.65-12.99-2.09-1.82-7.56,1.05-12.21,6.41-4.66,5.36-6.74,11.17-4.65,12.99,2.09,1.82,7.56-1.05,12.21-6.41h0Z"/>
      <path class="cls-2" d="M299.9,74.12c4.65-4.49,7.68-8.91,6.76-9.86-.92-.95-5.44,1.92-10.09,6.41-4.65,4.49-7.68,8.91-6.76,9.86,.92,.95,5.44-1.92,10.09-6.41h0Z"/>
      <path class="cls-2" d="M330.61,51.48c5.36-3.62,8.99-7.63,8.09-8.96-.9-1.33-5.97,.53-11.34,4.14-5.36,3.62-8.98,7.63-8.09,8.96,.9,1.33,5.97-.53,11.34-4.14h0Z"/>
      <path class="cls-2" d="M318.5,76.69c5.97-4.03,9.65-9,8.23-11.11-1.42-2.11-7.41-.55-13.38,3.47-5.97,4.02-9.65,9-8.23,11.11,1.42,2.11,7.41,.55,13.38-3.47h0Z"/>
      <path class="cls-2" d="M355.52,62.65c6.47-3.3,10.33-8.7,8.61-12.07-1.72-3.37-8.36-3.43-14.83-.13-6.47,3.3-10.33,8.7-8.61,12.07,1.72,3.37,8.35,3.43,14.83,.13h0Z"/>
      <path class="cls-2" d="M393.69,58.82c6.83-2.48,11.14-7.86,9.63-12-1.51-4.14-8.26-5.48-15.09-3-6.83,2.48-11.14,7.86-9.63,12,1.51,4.14,8.26,5.48,15.09,3h0Z"/>
      <path class="cls-2" d="M252.06,329.29c-2.32-5.46-5.16-9.47-6.36-8.96-1.2,.51-.29,5.34,2.03,10.8,2.32,5.46,5.17,9.47,6.36,8.96,1.2-.51,.29-5.34-2.03-10.8h0Z"/>
      <path class="cls-2" d="M267.45,322.53c-3.32-5.98-7.8-9.83-10.01-8.6-2.21,1.23-1.32,7.07,1.99,13.05,3.32,5.98,7.8,9.83,10.01,8.6,2.21-1.23,1.32-7.07-1.99-13.05h0Z"/>
      <path class="cls-2" d="M261.14,360.61c-2.79-4.83-5.39-8.55-5.81-8.31-.42,.24,1.51,4.35,4.3,9.18,2.79,4.83,5.39,8.56,5.8,8.32,.42-.24-1.51-4.35-4.3-9.19h0Z"/>
      <path class="cls-2" d="M290.53,347.59c-4.02-5.53-9.49-8.41-12.22-6.42-2.73,1.98-1.68,8.07,2.33,13.61,4.02,5.53,9.49,8.41,12.22,6.42,2.73-1.98,1.68-8.08-2.33-13.61h0Z"/>
      <path class="cls-2" d="M273.54,358.75c-3.71-5.71-7.86-9.59-9.27-8.68-1.41,.92,.45,6.29,4.16,12,3.71,5.71,7.86,9.59,9.27,8.68,1.41-.92-.45-6.29-4.16-12h0Z"/>
      <path class="cls-2" d="M321.97,365.25c-5.78-4.51-12.84-5.12-15.79-1.35-2.94,3.77-.65,10.48,5.13,14.99,5.78,4.51,12.85,5.12,15.79,1.35,2.94-3.77,.65-10.48-5.13-14.99h0Z"/>
      <path class="cls-2" d="M304.1,384.28c-4.91-5.09-10.47-7.69-12.41-5.82-1.94,1.87,.47,7.52,5.39,12.61,4.91,5.09,10.47,7.69,12.41,5.82,1.94-1.87-.47-7.52-5.38-12.6h0Z"/>
      <path class="cls-2" d="M287.16,390.45c-4.24-4.88-8.5-8.14-9.5-7.27-1,.87,1.63,5.53,5.87,10.42,4.24,4.88,8.5,8.14,9.5,7.27,1-.87-1.63-5.53-5.87-10.42h0Z"/>
      <path class="cls-2" d="M353.61,373.41c-6.29-2.67-12.77-1.6-14.47,2.4-1.7,4,2.03,9.4,8.32,12.07,6.29,2.67,12.77,1.6,14.47-2.4s-2.03-9.4-8.33-12.07h0Z"/>
      <path class="cls-2" d="M391.77,369.74c-7.34-.64-13.69,3.35-14.18,8.92-.49,5.57,5.07,10.6,12.41,11.24,7.34,.64,13.69-3.35,14.18-8.92,.49-5.57-5.07-10.6-12.41-11.25h0Z"/>
      <path class="cls-2" d="M314.25,412.32c-5.1-3.98-10.03-6.19-11.02-4.92-.99,1.26,2.35,5.52,7.44,9.5,5.1,3.98,10.03,6.19,11.02,4.92,.99-1.26-2.35-5.52-7.44-9.5h0Z"/>
      <path class="cls-2" d="M334.71,400.22c-6.13-3.54-12.51-3.94-14.26-.91-1.75,3.03,1.79,8.36,7.92,11.9,6.13,3.54,12.51,3.94,14.26,.91,1.75-3.03-1.79-8.36-7.92-11.9h0Z"/>
      <path class="cls-2" d="M348.88,427.37c-6.61-3.82-13.07-5.02-14.42-2.69-1.35,2.33,2.92,7.32,9.53,11.14,6.61,3.82,13.07,5.02,14.42,2.69,1.35-2.33-2.92-7.32-9.54-11.14h0Z"/>
      <path class="cls-2" d="M373.53,407.48c-6.51-2.76-13.1-1.92-14.71,1.89s2.35,9.13,8.87,11.89c6.51,2.76,13.1,1.92,14.71-1.88,1.61-3.81-2.35-9.13-8.86-11.89h0Z"/>
      <path class="cls-2" d="M411.17,405.5c-7.19-.25-13.16,3.42-13.33,8.2s5.53,8.86,12.72,9.11c7.19,.25,13.16-3.42,13.33-8.2,.17-4.78-5.53-8.86-12.72-9.11h0Z"/>
      <path class="cls-2" d="M422.03,433.82c-6.75-1.07-12.71,1.09-13.3,4.82-.59,3.73,4.4,7.63,11.16,8.7,6.75,1.07,12.71-1.09,13.3-4.82,.59-3.74-4.4-7.63-11.16-8.7h0Z"/>
      <path class="cls-2" d="M381.93,434.66c-6.99-1.23-13.11,.32-13.66,3.48-.55,3.15,4.66,6.71,11.65,7.94,6.99,1.23,13.11-.32,13.66-3.47,.55-3.15-4.66-6.71-11.65-7.94h0Z"/>
      <path class="cls-2" d="M381.37,452.6c-6.14-1.42-11.44-1.12-11.85,.65-.41,1.78,4.23,4.37,10.37,5.78,6.13,1.42,11.44,1.12,11.85-.65,.41-1.77-4.23-4.36-10.36-5.78h0Z"/>
      <path class="cls-2" d="M348.64,444.43c-4.92-2.51-9.21-3.95-9.58-3.21-.37,.73,3.31,3.36,8.23,5.87,4.92,2.51,9.21,3.94,9.58,3.21,.37-.73-3.31-3.36-8.23-5.86h0Z"/>
      <path class="cls-2" d="M414.52,469.44c-6.32-1.46-11.64-1.82-11.88-.8-.23,1.02,4.7,3.02,11.03,4.48s11.64,1.82,11.88,.8c.24-1.02-4.7-3.03-11.03-4.49h0Z"/>
      <path class="cls-2" d="M416.21,455.58c-6.33-1.12-11.79-.19-12.19,2.07-.4,2.26,4.41,5,10.75,6.11,6.34,1.12,11.79,.19,12.19-2.07,.4-2.26-4.41-5-10.75-6.11h0Z"/>
      <path class="cls-2" d="M456.74,425.55c-7.06,.49-12.53,4.4-12.23,8.73,.3,4.33,6.27,7.44,13.33,6.95,7.06-.49,12.53-4.4,12.23-8.73-.3-4.33-6.27-7.44-13.32-6.95h0Z"/>
      <path class="cls-2" d="M489.68,407.06c-6.36,3.1-9.67,9.38-7.41,14.03,2.27,4.65,9.26,5.9,15.61,2.8,6.36-3.1,9.67-9.38,7.41-14.03-2.27-4.65-9.26-5.9-15.61-2.8h0Z"/>
      <path class="cls-2" d="M490.82,438.31c-6.92,1.47-11.83,5.94-10.97,9.98,.86,4.04,7.16,6.13,14.08,4.66,6.92-1.47,11.83-5.94,10.97-9.99-.86-4.04-7.16-6.13-14.08-4.66h0Z"/>
      <path class="cls-2" d="M453.38,453.55c-6.79,.48-12.1,3.65-11.86,7.09,.24,3.44,5.94,5.84,12.73,5.37,6.79-.47,12.1-3.65,11.86-7.09-.24-3.44-5.94-5.84-12.73-5.37h0Z"/>
      <path class="cls-2" d="M450.35,473.05c-6.3-.11-11.43,1.07-11.46,2.64-.03,1.57,5.06,2.93,11.36,3.04,6.3,.11,11.44-1.07,11.46-2.64,.03-1.57-5.06-2.93-11.36-3.04h0Z"/>
      <path class="cls-2" d="M487.53,463.06c-7.05,.49-12.64,2.74-12.48,5.02,.16,2.28,6,3.73,13.05,3.23,7.05-.49,12.64-2.74,12.48-5.02-.16-2.28-6-3.73-13.05-3.23h0Z"/>
      <path class="cls-2" d="M483.84,475.66c-6.91,.48-12.46,1.48-12.41,2.22,.05,.75,5.69,.96,12.6,.47,6.91-.48,12.46-1.48,12.41-2.22-.05-.75-5.69-.96-12.6-.47h0Z"/>
      <path class="cls-2" d="M523.97,419.9c-6.36,3.1-10.1,8.65-8.35,12.4,1.75,3.75,8.32,4.27,14.67,1.17,6.36-3.1,10.1-8.65,8.35-12.4-1.75-3.75-8.32-4.27-14.67-1.17h0Z"/>
      <path class="cls-2" d="M521.75,450.65c-7.17,1.52-12.57,4.89-12.06,7.52,.51,2.63,6.74,3.52,13.91,2,7.17-1.52,12.57-4.89,12.06-7.52-.51-2.63-6.74-3.52-13.91-2h0Z"/>
      <path class="cls-2" d="M522.87,468.64c-6.14,1.42-10.92,3.45-10.67,4.54,.25,1.09,5.43,.82,11.58-.6,6.14-1.42,10.92-3.45,10.67-4.54-.25-1.09-5.43-.82-11.58,.6h0Z"/>
      <path class="cls-2" d="M552.34,451.22c-6.08,2.97-10.3,6.83-9.42,8.64,.88,1.8,6.52,.86,12.61-2.11,6.08-2.97,10.3-6.83,9.42-8.64-.88-1.8-6.52-.86-12.61,2.11h0Z"/>
      <path class="cls-2" d="M554.12,430c-6.08,2.97-10.04,7.38-8.83,9.85,1.21,2.47,7.12,2.07,13.2-.89s10.04-7.38,8.83-9.85c-1.21-2.47-7.12-2.07-13.2,.89h0Z"/>
      <path class="cls-2" d="M584.34,430.55c-5.86,3.38-9.6,7.88-8.35,10.05,1.25,2.17,7.02,1.18,12.88-2.2,5.86-3.38,9.6-7.88,8.35-10.05-1.25-2.17-7.02-1.18-12.88,2.2h0Z"/>
      <path class="cls-2" d="M428.67,360.68c-7.12,1.51-11.96,7.12-10.81,12.51,1.15,5.4,7.85,8.55,14.97,7.04,7.12-1.51,11.96-7.12,10.81-12.52-1.15-5.4-7.85-8.55-14.97-7.04h0Z"/>
      <path class="cls-2" d="M450.97,392.51c-7.25,1.67-12.19,7.11-11.02,12.13,1.16,5.03,7.98,7.75,15.23,6.07,7.25-1.67,12.19-7.11,11.02-12.13-1.16-5.03-7.98-7.75-15.23-6.07h0Z"/>
      <path class="cls-2" d="M457.65,337.81c-6.47,3.15-9.42,10.42-6.58,16.23,2.83,5.81,10.37,7.96,16.84,4.8,6.47-3.15,9.42-10.42,6.59-16.23-2.83-5.81-10.37-7.96-16.84-4.8h0Z"/>
      <path class="cls-2" d="M485.77,365.37c-6.29,3.07-9.33,9.81-6.77,15.04,2.56,5.24,9.73,7,16.02,3.93,6.3-3.07,9.33-9.81,6.77-15.05-2.55-5.24-9.73-7-16.03-3.93h0Z"/>
      <path class="cls-2" d="M523.67,379.34c-6.59,3.21-9.92,9.95-7.44,15.04,2.48,5.09,9.84,6.61,16.43,3.4,6.59-3.21,9.92-9.95,7.44-15.04-2.48-5.09-9.84-6.61-16.43-3.4h0Z"/>
      <path class="cls-2" d="M555.73,394.81c-6.16,3.85-9.1,10.26-6.57,14.31,2.53,4.05,9.58,4.22,15.74,.37,6.16-3.85,9.1-10.26,6.57-14.31-2.53-4.05-9.58-4.22-15.74-.37h0Z"/>
      <path class="cls-2" d="M612.31,403.94c-5.49,5.31-8.24,11.38-6.13,13.56,2.11,2.19,8.28-.34,13.77-5.65,5.49-5.31,8.24-11.38,6.13-13.56-2.11-2.19-8.28,.34-13.77,5.65h0Z"/>
      <path class="cls-2" d="M581.42,364.16c-4.74,5.65-5.58,12.74-1.88,15.84,3.7,3.1,10.54,1.04,15.28-4.61,4.74-5.65,5.58-12.74,1.88-15.84-3.7-3.1-10.54-1.04-15.28,4.6h0Z"/>
      <path class="cls-2" d="M585.47,402.68c-5.38,4.36-7.76,10.33-5.32,13.34,2.44,3.01,8.78,1.92,14.16-2.43,5.38-4.36,7.76-10.33,5.32-13.34-2.44-3.01-8.78-1.92-14.16,2.43h0Z"/>
      <path class="cls-2" d="M484.9,324.31c6.39,1.83,13.26-2.24,15.35-9.09,2.09-6.85-1.39-13.89-7.77-15.72-6.39-1.83-13.26,2.24-15.35,9.09-2.09,6.85,1.39,13.89,7.77,15.72h0Z"/>
      <path class="cls-2" d="M511.36,352.89c5,2.89,12.04,.25,15.73-5.89,3.69-6.14,2.63-13.46-2.37-16.34-5-2.89-12.04-.25-15.73,5.89-3.69,6.14-2.63,13.46,2.37,16.34h0Z"/>
      <path class="cls-2" d="M550.11,367.12c5.31,3.07,12.61,.58,16.3-5.56,3.69-6.14,2.37-13.6-2.94-16.67-5.31-3.07-12.61-.58-16.3,5.56-3.69,6.14-2.37,13.6,2.94,16.67h0Z"/>
      <path class="cls-2" d="M608.17,372.51c-4.33,5.96-4.85,12.98-1.14,15.67,3.7,2.69,10.21,.03,14.54-5.93,4.33-5.96,4.85-12.98,1.15-15.67-3.7-2.69-10.21-.03-14.55,5.93h0Z"/>
      <path class="cls-2" d="M635.34,373.26c-3.76,6.02-3.97,12.68-.46,14.87,3.51,2.19,9.4-.91,13.16-6.93,3.76-6.02,3.97-12.68,.46-14.87-3.51-2.19-9.4,.91-13.16,6.93h0Z"/>
      <path class="cls-2" d="M666.19,362.44c-3.55,5.69-5.42,10.93-4.16,11.72,1.26,.78,5.15-3.19,8.71-8.88,3.55-5.69,5.42-10.93,4.16-11.72-1.26-.78-5.15,3.19-8.71,8.87h0Z"/>
      <path class="cls-2" d="M640.48,401.14c-4.31,5.14-7.26,9.75-6.6,10.31,.66,.56,4.7-3.15,9.01-8.29,4.31-5.14,7.27-9.75,6.6-10.31-.66-.56-4.7,3.15-9.01,8.29h0Z"/>
      <path class="cls-2" d="M684.94,327.6c-2.01,5.84-2.65,10.92-1.42,11.34,1.23,.42,3.86-3.97,5.87-9.81,2.01-5.84,2.65-10.92,1.42-11.34-1.23-.42-3.86,3.97-5.87,9.81h0Z"/>
      <path class="cls-2" d="M655.25,336.52c-2.54,6.63-2,13,1.22,14.24,3.22,1.24,7.89-3.13,10.43-9.76,2.54-6.63,2-13-1.22-14.24-3.22-1.24-7.89,3.13-10.44,9.76h0Z"/>
      <path class="cls-2" d="M629.93,337.35c-3.76,6.02-4.15,12.56-.86,14.62s9-1.16,12.76-7.18c3.76-6.02,4.15-12.56,.86-14.62-3.29-2.05-9,1.16-12.76,7.18h0Z"/>
      <path class="cls-2" d="M697.14,286.56c-1.09,6.21-.94,11.42,.34,11.65,1.28,.23,3.21-4.62,4.3-10.83,1.09-6.21,.94-11.42-.34-11.65-1.28-.23-3.21,4.62-4.3,10.83h0Z"/>
      <path class="cls-2" d="M702.22,247.74c-.33,6.29,.25,11.44,1.29,11.5,1.04,.05,2.16-5.01,2.48-11.3,.33-6.3-.25-11.44-1.29-11.5-1.04-.05-2.15,5.01-2.48,11.3h0Z"/>
      <path class="cls-2" d="M701.36,207.78c.77,6.26,2.23,11.23,3.27,11.1,1.04-.13,1.25-5.3,.48-11.56-.77-6.26-2.23-11.23-3.27-11.1-1.04,.13-1.25,5.3-.48,11.56h0Z"/>
      <path class="cls-2" d="M692.57,168.98c1.84,6.03,4.01,10.71,4.84,10.46,.83-.25,0-5.35-1.84-11.38-1.84-6.03-4.01-10.71-4.84-10.46-.83,.25,0,5.35,1.83,11.38h0Z"/>
      <path class="cls-2" d="M510.13,283.64c6.7,.59,12.65-4.86,13.28-12.16,.64-7.3-4.27-13.7-10.97-14.28-6.7-.58-12.65,4.86-13.28,12.16-.64,7.3,4.27,13.7,10.97,14.28h0Z"/>
      <path class="cls-2" d="M538.31,313.4c5.69,2.07,12.34-1.83,14.85-8.72,2.51-6.89-.08-14.15-5.77-16.22-5.69-2.07-12.34,1.83-14.85,8.72-2.51,6.89,.08,14.15,5.77,16.23h0Z"/>
      <path class="cls-2" d="M577.23,325.99c5.69,2.07,12.34-1.83,14.85-8.72,2.51-6.89-.08-14.15-5.77-16.23-5.7-2.07-12.34,1.83-14.85,8.72-2.51,6.89,.08,14.15,5.77,16.23h0Z"/>
      <path class="cls-2" d="M604.96,342.17c4.92,2.51,11.61-.76,14.93-7.29,3.33-6.53,2.04-13.86-2.88-16.37-4.92-2.51-11.6,.76-14.93,7.29-3.33,6.53-2.04,13.86,2.88,16.37h0Z"/>
      <path class="cls-2" d="M644.85,302.03c-2.31,6.71-1.21,13.18,2.45,14.44,3.66,1.26,8.51-3.16,10.82-9.87,2.31-6.71,1.21-13.18-2.45-14.44-3.67-1.26-8.51,3.16-10.82,9.87h0Z"/>
      <path class="cls-2" d="M671.31,297.14c-1.72,6.89-.46,13.13,2.82,13.95,3.27,.82,7.32-4.11,9.04-10.99,1.72-6.89,.46-13.13-2.82-13.95-3.27-.82-7.32,4.1-9.04,10.99h0Z"/>
      <path class="cls-2" d="M618.92,287.75c-1.72,6.89,.49,13.37,4.93,14.47,4.44,1.11,9.43-3.58,11.15-10.47,1.72-6.89-.49-13.37-4.93-14.48-4.44-1.11-9.43,3.58-11.15,10.47h0Z"/>
      <path class="cls-2" d="M519.76,240.81c6.53,0,11.82-5.94,11.82-13.27s-5.29-13.27-11.82-13.27-11.82,5.94-11.82,13.27,5.29,13.27,11.82,13.27h0Z"/>
      <path class="cls-2" d="M558.95,267.26c6.48,.8,12.46-4.46,13.35-11.73,.89-7.28-3.64-13.82-10.11-14.61-6.48-.8-12.46,4.46-13.35,11.73-.89,7.28,3.63,13.82,10.11,14.61h0Z"/>
      <path class="cls-2" d="M596.45,282.61c5.88,.72,11.38-4.59,12.27-11.87,.89-7.27-3.15-13.76-9.04-14.48-5.89-.72-11.38,4.59-12.27,11.87-.89,7.28,3.15,13.76,9.04,14.48h0Z"/>
      <path class="cls-2" d="M659.76,277.69c4.6,.89,9.46-4.21,10.86-11.41,1.4-7.2-1.2-13.75-5.79-14.65-4.6-.89-9.46,4.22-10.86,11.41-1.4,7.2,1.2,13.75,5.79,14.65h0Z"/>
      <path class="cls-2" d="M684.44,271.39c3.26,.29,6.4-5.27,7.02-12.4,.62-7.13-1.51-13.15-4.76-13.43-3.26-.28-6.4,5.27-7.03,12.4-.62,7.13,1.51,13.15,4.77,13.43h0Z"/>
      <path class="cls-2" d="M688.52,227.52c3.25-.34,5.28-6.39,4.53-13.51-.75-7.12-3.99-12.62-7.24-12.28-3.25,.34-5.28,6.39-4.53,13.51,.75,7.12,3.99,12.62,7.24,12.28h0Z"/>
      <path class="cls-2" d="M684.92,184.24c3.13-.96,3.96-7.28,1.87-14.13-2.09-6.85-6.33-11.62-9.45-10.67-3.13,.95-3.96,7.28-1.87,14.13,2.09,6.85,6.32,11.62,9.45,10.67h0Z"/>
      <path class="cls-2" d="M524.57,196.65c6.85-.96,11.58-7.63,10.56-14.89-1.02-7.26-7.4-12.36-14.26-11.4-6.85,.96-11.58,7.63-10.56,14.89,1.02,7.26,7.4,12.36,14.26,11.4h0Z"/>
      <path class="cls-2" d="M567.41,219.88c6.85-.96,11.58-7.63,10.56-14.89-1.02-7.26-7.4-12.36-14.26-11.4-6.85,.96-11.59,7.63-10.56,14.89,1.02,7.26,7.4,12.36,14.26,11.4h0Z"/>
      <path class="cls-2" d="M603.92,236.68c6.01,.11,10.98-5.75,11.11-13.08,.13-7.33-4.64-13.36-10.65-13.46-6.01-.1-10.98,5.75-11.11,13.08-.13,7.33,4.64,13.36,10.65,13.46h0Z"/>
      <path class="cls-2" d="M636.15,258.5c5.57,.39,10.49-5.22,11.01-12.54,.51-7.31-3.59-13.56-9.15-13.94-5.57-.39-10.49,5.22-11.01,12.54-.51,7.31,3.59,13.56,9.15,13.95h0Z"/>
      <path class="cls-2" d="M605.99,193.31c5.93-.94,9.82-7.57,8.67-14.81-1.15-7.24-6.89-12.35-12.82-11.41-5.93,.94-9.81,7.57-8.67,14.81,1.15,7.24,6.89,12.35,12.82,11.41h0Z"/>
      <path class="cls-2" d="M641.58,214.31c5.48-.97,8.9-7.6,7.63-14.82-1.27-7.22-6.75-12.29-12.24-11.32-5.48,.97-8.9,7.61-7.63,14.82,1.27,7.22,6.75,12.29,12.24,11.32h0Z"/>
      <path class="cls-2" d="M667.49,233.61c4.47-.47,7.48-6.76,6.71-14.05-.77-7.29-5.01-12.82-9.49-12.35-4.47,.47-7.48,6.76-6.71,14.05,.77,7.29,5.01,12.82,9.49,12.35h0Z"/>
      <path class="cls-2" d="M666.83,193.12c4.36-1.09,6.46-7.74,4.69-14.85-1.77-7.11-6.75-12-11.11-10.91-4.36,1.09-6.47,7.74-4.69,14.85,1.77,7.11,6.75,12,11.11,10.91h0Z"/>
      <path class="cls-2" d="M563.7,170.3c6.85-1.33,11.24-8.36,9.81-15.7-1.43-7.34-8.13-12.21-14.98-10.88-6.85,1.33-11.24,8.36-9.81,15.7,1.43,7.34,8.13,12.21,14.98,10.88h0Z"/>
      <path class="cls-2" d="M637.78,166.3c4.81-1.75,6.73-8.58,4.3-15.27-2.43-6.68-8.3-10.68-13.11-8.93-4.81,1.75-6.73,8.59-4.3,15.27,2.43,6.68,8.3,10.68,13.11,8.93h0Z"/>
      <path class="cls-2" d="M659.78,152.89c4.08-1.9,4.95-8.67,1.95-15.11-3.01-6.44-8.75-10.13-12.83-8.22-4.08,1.9-4.95,8.67-1.95,15.11,3.01,6.45,8.75,10.13,12.83,8.22h0Z"/>
      <path class="cls-2" d="M675.64,145.01c2.29-1.17,1.57-7.18-1.62-13.44-3.19-6.25-7.63-10.38-9.92-9.21-2.29,1.17-1.57,7.19,1.62,13.44,3.19,6.25,7.63,10.38,9.92,9.21h0Z"/>
      <path class="cls-2" d="M660.94,109.53c1.64-1.37-.7-6.84-5.21-12.22-4.51-5.38-9.49-8.62-11.13-7.25-1.64,1.37,.7,6.84,5.21,12.22,4.51,5.38,9.49,8.62,11.13,7.25h0Z"/>
      <path class="cls-2" d="M638.27,76.5c1.11-1.24-2.21-6.05-7.43-10.74-5.21-4.7-10.35-7.5-11.46-6.26-1.11,1.24,2.21,6.05,7.43,10.74,5.22,4.7,10.35,7.5,11.46,6.26h0Z"/>
      <path class="cls-2" d="M349.55,32.27c5.19-2.88,9.1-5.74,8.74-6.4s-4.87,1.14-10.06,4.02c-5.19,2.88-9.1,5.74-8.74,6.4,.36,.66,4.87-1.14,10.06-4.02h0Z"/>
      <path class="cls-2" d="M381.32,20.86c6.19-2.25,10.83-5.11,10.37-6.38-.46-1.27-5.86-.48-12.05,1.78-6.19,2.25-10.83,5.11-10.37,6.38,.46,1.27,5.86,.48,12.05-1.78h0Z"/>
      <path class="cls-2" d="M364.59,38.46c5.92-2.89,10.07-6.57,9.27-8.22-.81-1.65-6.26-.65-12.18,2.24-5.92,2.89-10.07,6.57-9.27,8.22s6.26,.65,12.18-2.24h0Z"/>
      <path class="cls-2" d="M402.19,31.3c6.88-1.21,12.1-4.21,11.67-6.69-.44-2.48-6.37-3.51-13.25-2.29-6.88,1.21-12.1,4.21-11.67,6.69,.44,2.48,6.37,3.51,13.25,2.29h0Z"/>
      <path class="cls-2" d="M418.27,14.31c6.88-1.21,12.16-3.86,11.8-5.92-.36-2.06-6.23-2.74-13.11-1.53-6.88,1.21-12.16,3.87-11.8,5.92,.36,2.06,6.24,2.74,13.11,1.53h0Z"/>
      <path class="cls-2" d="M431.04,66.05c7.22-.76,12.68-5.23,12.18-9.98-.5-4.75-6.76-7.99-13.99-7.23-7.22,.76-12.67,5.23-12.17,9.98,.5,4.75,6.76,7.99,13.98,7.23h0Z"/>
      <path class="cls-2" d="M463.09,80.48c7.26,.13,13.22-3.69,13.3-8.53,.08-4.84-5.74-8.86-13-8.99-7.26-.13-13.22,3.69-13.3,8.53-.08,4.84,5.73,8.86,13,8.99h0Z"/>
      <path class="cls-2" d="M492.11,111.81c7.26,.13,13.23-4.22,13.32-9.71,.09-5.49-5.72-10.04-12.98-10.16-7.26-.13-13.23,4.22-13.32,9.71-.09,5.49,5.71,10.04,12.98,10.16h0Z"/>
      <path class="cls-2" d="M513.75,150.37c7.1,.12,12.95-4.88,13.06-11.18,.11-6.3-5.56-11.51-12.66-11.63-7.1-.12-12.95,4.88-13.06,11.18-.11,6.3,5.56,11.51,12.66,11.63h0Z"/>
      <path class="cls-2" d="M434.65,36.4c7.26,.13,13.21-2.98,13.28-6.95,.07-3.96-5.76-7.28-13.03-7.4-7.26-.13-13.21,2.98-13.28,6.94-.07,3.96,5.76,7.28,13.03,7.4h0Z"/>
      <path class="cls-2" d="M471.8,48.15c7.13,1.39,13.65-1.28,14.56-5.96,.91-4.68-4.13-9.59-11.26-10.98-7.13-1.39-13.65,1.28-14.56,5.96-.91,4.68,4.14,9.59,11.27,10.98h0Z"/>
      <path class="cls-2" d="M500.58,67.93c6.67,2.56,13.57,.75,15.41-4.04,1.84-4.79-2.08-10.76-8.75-13.32-6.67-2.56-13.57-.75-15.41,4.04-1.84,4.8,2.08,10.76,8.75,13.32h0Z"/>
      <path class="cls-2" d="M523.15,93.72c5.85,4.1,12.99,4.01,15.93-.2,2.95-4.21,.59-10.94-5.27-15.04-5.86-4.1-12.99-4.01-15.94,.2-2.95,4.21-.59,10.94,5.27,15.04h0Z"/>
      <path class="cls-2" d="M539.72,125.12c4.3,5.71,11.41,7.61,15.86,4.25,4.46-3.36,4.59-10.71,.29-16.42-4.3-5.71-11.41-7.61-15.86-4.25-4.46,3.36-4.59,10.71-.29,16.42h0Z"/>
      <path class="cls-2" d="M589.51,143.8c4.3,5.71,11.11,7.83,15.22,4.74,4.1-3.09,3.94-10.23-.36-15.93-4.3-5.71-11.11-7.83-15.22-4.74-4.1,3.09-3.94,10.22,.36,15.93h0Z"/>
      <path class="cls-2" d="M571.09,106.16c4.69,5.39,11.63,7.04,15.51,3.66,3.88-3.37,3.22-10.47-1.47-15.87-4.69-5.39-11.63-7.04-15.51-3.67-3.88,3.37-3.22,10.47,1.47,15.87h0Z"/>
      <path class="cls-2" d="M548.08,71.76c5.14,4.97,12.01,6.2,15.33,2.75,3.33-3.44,1.85-10.26-3.29-15.23-5.14-4.96-12.01-6.2-15.33-2.75-3.33,3.44-1.86,10.26,3.29,15.23h0Z"/>
      <path class="cls-2" d="M519,48.03c6.18,3.15,13.01,2.13,15.26-2.28,2.25-4.41-.94-10.54-7.12-13.69-6.18-3.15-13.01-2.13-15.26,2.28-2.25,4.41,.94,10.54,7.12,13.69h0Z"/>
      <path class="cls-2" d="M491.43,27.38c6.8,.96,12.7-1.1,13.19-4.58,.49-3.49-4.62-7.09-11.42-8.04-6.8-.96-12.7,1.1-13.19,4.58-.49,3.49,4.62,7.09,11.42,8.04h0Z"/>
      <path class="cls-2" d="M455.97,17.53c6.85-.36,12.29-2.94,12.14-5.77-.15-2.83-5.82-4.83-12.68-4.48-6.85,.36-12.29,2.95-12.14,5.78,.15,2.83,5.82,4.83,12.68,4.47h0Z"/>
      <path class="cls-2" d="M448.66,3.75c6.59-.58,11.87-1.82,11.79-2.78-.08-.96-5.5-1.26-12.09-.69-6.6,.58-11.87,1.82-11.79,2.78,.08,.96,5.5,1.26,12.09,.69h0Z"/>
      <path class="cls-2" d="M522.09,9.53c6.42,1.6,11.82,2.14,12.05,1.21,.23-.93-4.79-2.98-11.21-4.59-6.42-1.6-11.82-2.15-12.05-1.21-.23,.93,4.79,2.98,11.21,4.59h0Z"/>
      <path class="cls-2" d="M603.17,46.32c5.42,3.8,10.3,6.19,10.89,5.35,.59-.84-3.33-4.6-8.75-8.4-5.42-3.8-10.3-6.19-10.89-5.35-.59,.84,3.33,4.6,8.75,8.4h0Z"/>
      <path class="cls-2" d="M574.69,26.97c5.58,2.84,10.38,4.59,10.73,3.91,.35-.68-3.89-3.54-9.47-6.38-5.58-2.84-10.38-4.59-10.73-3.91-.35,.68,3.89,3.54,9.47,6.38h0Z"/>
      <path class="cls-2" d="M569.48,28.03c.73-1.5-3.58-5.1-9.62-8.05-6.04-2.95-11.53-4.12-12.26-2.63-.73,1.5,3.58,5.1,9.62,8.05,6.04,2.95,11.54,4.12,12.27,2.63h0Z"/>
      <path class="cls-2" d="M558.2,35.42c.94-1.92-3.2-5.86-9.25-8.81-6.04-2.95-11.7-3.78-12.64-1.86-.94,1.92,3.2,5.86,9.25,8.81,6.04,2.95,11.7,3.78,12.64,1.86h0Z"/>
      <path class="cls-2" d="M528.74,18.92c.64-1.98-3.89-5.23-10.12-7.25-6.23-2.02-11.81-2.06-12.45-.08-.64,1.98,3.89,5.23,10.12,7.25,6.23,2.03,11.81,2.06,12.45,.08h0Z"/>
      <path class="cls-2" d="M494.55,5.73c.06-1.66-5.34-3.2-12.06-3.44-6.72-.23-12.21,.92-12.27,2.59-.06,1.66,5.34,3.2,12.06,3.44,6.72,.23,12.22-.92,12.27-2.59h0Z"/>
      <path class="cls-2" d="M599.22,50.29c1.19-1.77-2.36-6.25-7.93-10.01-5.57-3.76-11.06-5.37-12.26-3.6-1.2,1.77,2.36,6.25,7.93,10.01,5.58,3.76,11.06,5.37,12.26,3.6h0Z"/>
      <path class="cls-2" d="M625.44,79.88c1.72-1.91-.94-7.11-5.93-11.61-5-4.5-10.44-6.6-12.16-4.69-1.72,1.91,.94,7.11,5.93,11.6,5,4.5,10.44,6.6,12.16,4.69h0Z"/>
      <path class="cls-2" d="M645.99,112.32c2.2-1.6,.59-7.57-3.59-13.34-4.19-5.77-9.37-9.14-11.58-7.54-2.21,1.6-.6,7.57,3.59,13.34,4.19,5.77,9.37,9.14,11.58,7.54h0Z"/>
      <path class="cls-2" d="M624.8,124.08c3.27-2.38,2.53-8.98-1.66-14.75-4.19-5.77-10.24-8.51-13.51-6.13-3.27,2.38-2.53,8.98,1.66,14.75,4.19,5.77,10.24,8.51,13.52,6.13h0Z"/>
      <path class="cls-2" d="M607.07,90.29c2.88-2.51,1.64-8.65-2.77-13.72-4.41-5.07-10.32-7.16-13.21-4.65-2.88,2.5-1.64,8.65,2.77,13.72,4.41,5.07,10.32,7.16,13.21,4.65h0Z"/>
      <path class="cls-2" d="M586.23,60.06c2.07-2.84-.75-8.42-6.3-12.45-5.55-4.03-11.72-4.99-13.79-2.15-2.07,2.84,.76,8.42,6.3,12.45,5.55,4.03,11.72,4.99,13.78,2.15h0Z"/>
      <path class="cls-2" d="M608.57,431.14c-4.85,3.93-8.37,7.62-7.86,8.25,.51,.63,4.85-2.05,9.7-5.98,4.85-3.93,8.37-7.62,7.86-8.25-.51-.63-4.85,2.05-9.71,5.98h0Z"/>
      <path class="cls-2" d="M574.82,452.95c-5.41,3.12-9.46,6.22-9.06,6.92,.4,.7,5.11-1.26,10.52-4.38,5.41-3.12,9.46-6.22,9.06-6.92-.4-.7-5.11,1.26-10.52,4.39h0Z"/>
      <path class="cls-2" d="M290.24,309.88c-4.31-5.93-10.48-8.79-13.77-6.4-3.3,2.4-2.48,9.15,1.83,15.08,4.31,5.93,10.48,8.79,13.77,6.4,3.3-2.4,2.48-9.15-1.83-15.08h0Z"/>
      <path class="cls-3" d="M42.4,156.95H20.45v-22.84c0-3.31-1.03-4.44-4.34-4.44H4.44c-3.31,0-4.44,1.14-4.44,4.44v64.69c0,3.2,1.14,4.34,4.44,4.34h11.67c3.31,0,4.34-1.14,4.34-4.34v-23.77h20.93l1.01-18.07h0Z"/>
      <path class="cls-3" d="M85.44,177.82c-.64-.63-1.36-1.16-2.13-1.53-.53-.25-1.08-.44-1.65-.57-2.65-.62-4.69,.2-5.05,.32-.36,.12-2.06,1.05-3.65,2.59h0c-.8,.75-1.57,1.53-2.34,2.3-.66,.66-1.3,1.47-2.07,1.99h0c-.67,.45-1.58,.77-2.4,.66-.67-.1-1.17-.57-1.7-.94-.29-.2-1.13-1.04-1.51-1.88-.39-.84-.63-1.63-.91-3.66-.28-2.03-.46-6.62-.46-6.62l-.26-11.28-.14-11.42s-.11-11.23-.11-13.62c0-4.69-2.44-4.69-4.46-4.69h-11.72c-2.02,0-4.31,0-4.31,4.69v40.04s0,5.23,.88,9.65c.64,3.36,1.44,5.69,2.34,7.99h0c.67,1.73,1.46,3.46,2.5,5.01h0c1.08,1.6,2.52,3.01,3.92,4.32h0c1.47,1.37,3.18,2.5,4.99,3.37h0c1.4,.68,2.89,1.13,4.39,1.49,1.53,.37,3.08,.62,4.65,.69h0c1.98,.09,3.96-.13,5.91-.45h0c1.88-.31,3.67-1.17,5.37-2,1.46-.71,2.83-1.6,4.11-2.6h0c1.45-1.13,2.89-2.32,4.11-3.71h0c1.55-1.76,2.77-3.86,3.67-6.02,.26-.63,.5-1.28,.67-1.94,.34-1.29,.39-2.59,.39-3.92,0-2.07-.31-4.02-1.26-5.85h0c-.44-.85-1.06-1.68-1.79-2.4h0Z"/>
      <path class="cls-2" d="M113,177.94c11.36,0,20.57-9.21,20.57-20.57s-9.21-20.57-20.57-20.57-20.57,9.21-20.57,20.57,9.21,20.57,20.57,20.57h0Z"/>
      <path class="cls-1" d="M113,177.94c11.36,0,20.57-9.21,20.57-20.57s-9.21-20.57-20.57-20.57-20.57,9.21-20.57,20.57,9.21,20.57,20.57,20.57h0Z"/>
      <path class="cls-3" d="M238.46,441.05l21.69-14.93-11.18,28.38,28.75-10.54-15.52,21.14,4.67,4.73,27.12-38.18-34.44,12.57,13.38-33.9-39.17,25.98,4.71,4.76h0Zm86.25,19.56l-19.2-13.85-25.1,34.79,19.2,13.85,3.56-4.93-13.95-10.06,8.39-11.63,13.54,9.77,3.56-4.93-13.54-9.77,6.03-8.36,13.95,10.06,3.56-4.93h0Zm15.65,10.03l-5.74-2.99-19.85,38.03,5.74,3,9.27-17.76,16.4,8.56-9.27,17.76,5.74,2.99,19.85-38.03-5.74-2.99-7.76,14.88-16.4-8.56,7.76-14.88h0Zm47.92,42.77c2.33-1.55,3.95-3.77,4.88-6.66,1.19-3.7,.82-7.11-1.1-10.21-1.75-2.8-5.32-5.06-10.71-6.8l-7.22-2.32-13.12,40.84,6.16,1.98,5.37-16.72,1.11,.36,6.3,20.46,7.54,2.42-7.06-21.47c2.9,.29,5.52-.34,7.84-1.89h0Zm-9.85-18.22l2.2,.7c5.68,1.82,7.85,4.83,6.51,9-1.43,4.46-5.07,5.76-10.9,3.88l-1.96-.63,4.16-12.96h0Zm80.88,52.76l7.07,.44-17.58-46.78-24.04,44.17,6.96,.44,5.42-10.1,18.33,1.15,3.84,10.68h0Zm-19.1-17.73l7.57-14.14,5.44,14.96-13.01-.82h0Zm37.57-24.72l3.75,42.73,19.01-1.67-.53-6.06-12.57,1.1-3.22-36.67-6.45,.57h0Zm41.8-5.81c-3.59,.77-6.35,2.49-8.3,5.14-1.95,2.64-2.59,5.53-1.91,8.68,1,4.67,4.64,7.6,10.9,8.79l4.41,.81c1.15,.23,2.15,.51,3.02,.84,.87,.33,1.6,.73,2.21,1.2,.6,.47,1.09,1.02,1.46,1.65,.37,.63,.65,1.35,.82,2.17,.44,2.03,.15,3.84-.87,5.45-1.02,1.6-2.52,2.62-4.49,3.04-2.5,.54-4.6,.04-6.29-1.49-.93-.78-1.8-2.38-2.62-4.78l-6.11,2.79c1.42,3.79,3.53,6.51,6.33,8.16,2.84,1.64,6.07,2.07,9.71,1.29,3.84-.83,6.78-2.79,8.82-5.88,2.03-3.07,2.63-6.53,1.8-10.39-.62-2.88-1.93-5.14-3.93-6.78-2-1.64-4.85-2.79-8.55-3.43l-4.55-.81c-3.31-.59-5.19-1.91-5.63-3.96-.32-1.49,0-2.84,.94-4.07,.94-1.24,2.3-2.06,4.05-2.44,1.43-.31,2.66-.27,3.69,.12,.98,.32,2.13,1.21,3.45,2.67l4.48-4.15c-3.73-4.12-8.01-5.66-12.85-4.62h0Zm67.57-22.09l-21.49,9.92,17.98,38.94,21.49-9.92-2.55-5.52-15.61,7.21-6.01-13.01,15.16-7-2.55-5.52-15.16,7-4.32-9.36,15.61-7.21-2.55-5.52h0Zm11.6-6.26l22.54,36.5,5.51-3.4-22.54-36.5-5.51,3.4h0Zm50.39,18.85l-19.27-23.04,44.94,4.97-29.2-34.91-4.96,4.15,19.12,22.87-44.99-5.04,29.39,35.14,4.97-4.15h0Zm27.92-89.54c-2.1,3-2.97,6.14-2.59,9.41,.36,3.26,1.86,5.82,4.5,7.67,3.91,2.74,8.57,2.42,13.97-.96l3.79-2.4c1-.61,1.93-1.09,2.79-1.44,.86-.34,1.67-.55,2.43-.62,.76-.07,1.49,0,2.19,.21,.7,.21,1.39,.55,2.08,1.03,1.7,1.19,2.72,2.72,3.06,4.59,.34,1.87-.07,3.63-1.23,5.28-1.47,2.09-3.34,3.15-5.62,3.18-1.21,.05-2.94-.52-5.17-1.72l-2.58,6.2c3.62,1.81,7.01,2.37,10.19,1.68,3.2-.72,5.87-2.61,8-5.66,2.25-3.21,3.08-6.65,2.47-10.31-.6-3.63-2.51-6.58-5.74-8.84-2.41-1.69-4.91-2.46-7.5-2.3-2.59,.15-5.45,1.26-8.61,3.3l-3.89,2.5c-2.83,1.81-5.1,2.12-6.82,.92-1.24-.87-1.94-2.08-2.07-3.62-.15-1.55,.29-3.07,1.32-4.54,.84-1.2,1.77-2.01,2.78-2.43,.94-.43,2.38-.56,4.34-.38l.47-6.09c-5.54-.49-9.73,1.29-12.57,5.34h0Zm41.67-16.58c2.1-3.94,2.76-7.61,1.97-11.01-.79-3.4-2.91-6.03-6.38-7.87-3.24-1.73-6.5-2.07-9.78-1.03-1.89,.59-3.49,1.58-4.8,2.98-1.3,1.38-2.8,3.66-4.49,6.83l-3.45,6.47,37.85,20.19,3.05-5.71-15.37-8.2,1.41-2.65h0Zm-18.62-6.53l1.01-1.89c2.88-5.41,6.28-7.07,10.19-4.99,4.04,2.15,4.66,5.85,1.86,11.1l-1.14,2.13-11.91-6.36h0Zm45.08-19.44c5.02-2.99,8.39-7.12,10.12-12.38,1.95-5.95,1.57-11.7-1.15-17.25-2.71-5.53-6.99-9.26-12.85-11.18-5.82-1.91-11.5-1.46-17.02,1.34-5.52,2.79-9.23,7.09-11.13,12.9-1.93,5.88-1.52,11.59,1.22,17.13,2.74,5.56,6.98,9.28,12.71,11.16,6.53,2.14,12.57,1.57,18.11-1.72h0Zm-25.38-12.39c-2-3.89-2.3-7.96-.91-12.2,1.4-4.26,4.05-7.34,7.95-9.26,3.89-1.94,8.01-2.19,12.36-.77,4.29,1.41,7.46,4.07,9.48,8,1.99,3.91,2.29,8,.88,12.28-1.29,3.94-3.89,6.94-7.78,9-3.9,2.07-8.1,2.37-12.6,.89-4.29-1.41-7.42-4.05-9.39-7.93h0Zm26.01-63.6c-1.92-2.03-4.38-3.26-7.39-3.68-3.85-.54-7.15,.39-9.88,2.81-2.46,2.2-4.09,6.1-4.88,11.71l-1.06,7.51,42.47,6.01,.91-6.41-17.39-2.46,.16-1.15,19.1-9.67,1.11-7.84-19.96,10.59c-.21-2.91-1.27-5.38-3.19-7.41h0Zm-16.29,12.79l.32-2.28c.84-5.9,3.43-8.55,7.77-7.94,4.64,.66,6.53,4.02,5.67,10.09l-.29,2.04-13.48-1.91h0Zm3.67-53.56l-6.08-.08-.33,26.17,6.08,.08,.13-9.86,36.81,.47,.08-6.47-36.81-.47,.13-9.83h0Z"/>
    </g>
  </g>
</svg>