<?xml version="1.0" encoding="UTF-8"?>
<svg width="250px" height="133px" viewBox="0 0 250 133" version="1.1" xmlns="http://www.w3.org/2000/svg" xmlns:xlink="http://www.w3.org/1999/xlink">
    <g id="Associations" stroke="none" stroke-width="1" fill="none" fill-rule="evenodd">
        <g id="associations/hockeyliga_white-copy">
            <g id="Group" transform="translate(27.000000, 19.000000)">
                <path d="M2.78303394,53.6650387 L0.767018665,53.6650387 C0.195209705,53.6650387 0,53.8619759 0,54.4147821 L0,65.5901059 C0,66.1429121 0.196937225,66.3398494 0.767018665,66.3398494 L7.83602852,66.3398494 C8.38883477,66.3398494 8.58577199,66.1429121 8.58577199,65.5901059 L8.58577199,63.9662375 C8.58577199,63.3944286 8.38883477,63.2164941 7.83602852,63.2164941 L3.53277741,63.2164941 L3.53277741,54.4147821 C3.53277741,53.8619759 3.3548429,53.6650387 2.78303394,53.6650387 L2.78303394,53.6650387 L2.78303394,53.6650387 Z M10.3599345,54.3785042 L10.3599345,65.6246563 C10.3599345,66.1601873 10.537869,66.3381218 11.0734001,66.3381218 L13.1792464,66.3381218 C13.7147774,66.3381218 13.8927119,66.1601873 13.8927119,65.6246563 L13.8927119,54.3785042 C13.8927119,53.8429732 13.7147774,53.6650387 13.1792464,53.6650387 L11.0734001,53.6650387 C10.537869,53.6650387 10.3599345,53.8429732 10.3599345,54.3785042 L10.3599345,54.3785042 L10.3599345,54.3785042 Z M26.5761602,59.0566271 L22.0604242,59.0566271 C21.507618,59.0566271 21.3106807,59.2535643 21.3106807,59.8236458 L21.3106807,61.1607459 C21.3106807,61.7325548 21.507618,61.9104893 22.0604242,61.9104893 L23.7758511,61.9104893 L23.7758511,62.2680859 C23.7758511,63.0368321 23.0433828,63.4842596 21.8462118,63.4842596 C20.4348284,63.4842596 19.8802946,62.8761727 19.8802946,61.6254486 L19.8802946,58.3777119 C19.8802946,57.1269878 20.4348284,56.5189009 21.8462118,56.5189009 C22.8464456,56.5189009 23.3819766,56.8764975 23.7050228,57.679794 C23.90196,58.2343278 24.1161724,58.341434 24.6689787,58.161772 L26.5778878,57.4828568 C27.1134188,57.3049223 27.2378002,57.0354293 27.0598657,56.5171734 C26.3101222,54.5184333 24.5981504,53.3955456 21.8479393,53.3955456 C18.3307096,53.3955456 16.3492447,55.3044547 16.3492447,58.3949871 L16.3492447,61.6081734 C16.3492447,64.6987058 18.3307096,66.6076149 21.8479393,66.6076149 C25.3651691,66.6076149 27.3276312,64.6987058 27.3276312,62.1799824 L27.3276312,59.8253733 C27.3276312,59.2535643 27.1496967,59.0583546 26.5778878,59.0583546 L26.5778878,59.0583546 L26.5761602,59.0566271 Z M40.2339295,65.6073811 L36.112068,54.2541228 C35.9341334,53.7894201 35.7009183,53.6650387 35.18439,53.6650387 L33.149372,53.6650387 C32.6311161,53.6650387 32.3996285,53.7721449 32.221694,54.2904007 L28.1171076,65.6073811 C27.9391731,66.089359 28.0462793,66.3398494 28.5990856,66.3398494 L30.4734443,66.3398494 C31.3648443,66.3398494 31.5980595,66.1429121 31.775994,65.5901059 L32.1871436,64.3048314 L36.0412397,64.3048314 L36.4523893,65.5901059 C36.5957734,66.1429121 36.8635389,66.3398494 37.7912169,66.3398494 L39.7191287,66.3398494 C40.2546598,66.3398494 40.4153191,66.089359 40.2373846,65.6073811 L40.2373846,65.6073811 L40.2339295,65.6073811 Z M34.5763031,59.4124961 L35.2362156,61.5027947 L33.0059879,61.5027947 L33.6659003,59.3952209 C34.0234969,58.1980499 34.0044941,56.9127754 34.0044941,56.9127754 L34.1824287,56.9127754 C34.1824287,56.9127754 34.2187066,58.1997774 34.5745756,59.4142236 L34.5745756,59.4142236 L34.5763031,59.4124961 Z" id="Shape" fill="#FFFFFF" fill-rule="nonzero"></path>
                <path d="M5.99794776,38.024077 L0.767018665,38.024077 C0.195209705,38.024077 0,38.2210142 0,38.7910956 L0,49.9664194 C0,50.5192256 0.196937225,50.7161629 0.767018665,50.7161629 L6.07050358,50.7161629 C8.58749951,50.7161629 10.4601307,49.4844414 10.4601307,47.1816579 C10.4601307,45.6268904 9.80021821,44.6093814 8.65832781,44.1101282 L8.65832781,44.0392999 C9.5687306,43.4156654 9.94187481,42.6123688 9.94187481,41.4134703 C9.94187481,39.2367957 8.46139059,38.0223495 5.99794776,38.0223495 L5.99794776,38.0223495 L5.99794776,38.024077 Z M6.3555443,41.8971757 C6.3555443,42.5950936 5.98067256,42.8628591 5.26547948,42.8628591 L3.53277741,42.8628591 L3.53277741,40.8969419 L5.26547948,40.8969419 C5.98067256,40.8969419 6.3555443,41.2009854 6.3555443,41.8971757 L6.3555443,41.8971757 L6.3555443,41.8971757 Z M6.74769123,46.7705083 C6.74769123,47.5219793 6.37281949,47.8260227 5.60407331,47.8260227 L3.53104989,47.8260227 L3.53104989,45.7339966 L5.60407331,45.7339966 C6.37281949,45.7339966 6.74769123,46.0553152 6.74769123,46.7705083 L6.74769123,46.7705083 Z M15.8240788,46.217702 L15.8240788,38.7910956 C15.8240788,38.2382894 15.6271415,38.0413522 15.0570601,38.0413522 L13.0410448,38.0413522 C12.4692359,38.0413522 12.2913014,38.2382894 12.2913014,38.7910956 L12.2913014,46.0587702 C12.2913014,49.0577441 14.1466573,50.9839284 17.663887,50.9839284 C21.1811168,50.9839284 23.0554755,49.0577441 23.0554755,46.0587702 L23.0554755,38.7910956 C23.0554755,38.2382894 22.8585382,38.0413522 22.2884568,38.0413522 L20.2724415,38.0413522 C19.7006326,38.0413522 19.522698,38.2382894 19.522698,38.7910956 L19.522698,46.217702 C19.522698,47.2714889 18.897336,47.8605731 17.663887,47.8605731 C16.4304381,47.8605731 15.8240788,47.2714889 15.8240788,46.217702 L15.8240788,46.217702 Z M35.3243191,38.0396247 L33.505241,38.0396247 C32.933432,38.0396247 32.7554975,38.2365619 32.7554975,38.7893681 L32.7554975,41.7175137 C32.7554975,43.5383193 32.7468599,44.3778938 32.7468599,44.3778938 C32.7468599,44.3778938 32.7019444,44.1999593 31.9159231,42.9682378 L28.98605,38.3989487 C28.8253906,38.1484584 28.6474561,38.0413522 28.2363065,38.0413522 L26.1304602,38.0413522 C25.5603788,38.0413522 25.3634415,38.2382894 25.3634415,38.7910956 L25.3634415,49.9664194 C25.3634415,50.5192256 25.5603788,50.7161629 26.1304602,50.7161629 L27.9322631,50.7161629 C28.504072,50.7161629 28.6992817,50.5192256 28.6992817,49.9664194 L28.6992817,44.3727112 C28.6992817,44.3727112 29.8238969,46.127871 29.8238969,46.127871 L32.5758355,50.3585663 C32.7364948,50.6090567 32.933432,50.7161629 33.3065763,50.7161629 L35.3225915,50.7161629 C35.8753978,50.7161629 36.072335,50.5192256 36.072335,49.9664194 L36.072335,38.7910956 C36.072335,38.2382894 35.8753978,38.0413522 35.3225915,38.0413522 L35.3225915,38.0413522 L35.3243191,38.0396247 Z M43.5922275,38.0396247 L39.2371508,38.0396247 C38.6653418,38.0396247 38.4701321,38.2365619 38.4701321,38.7893681 L38.4701321,49.9646919 C38.4701321,50.5174981 38.6670693,50.7144353 39.2371508,50.7144353 L43.5922275,50.7144353 C47.1094572,50.7144353 49.0719194,48.7882511 49.0719194,45.7167214 L49.0719194,43.0373386 C49.0719194,39.9485337 47.1094572,38.0396247 43.5922275,38.0396247 L43.5922275,38.0396247 L43.5922275,38.0396247 Z M45.539142,43.0908917 L45.539142,45.6631683 C45.539142,46.9311676 44.9137799,47.5928076 43.4661185,47.5928076 L42.001182,47.5928076 L42.001182,41.1629799 L43.4661185,41.1629799 C44.9137799,41.1629799 45.539142,41.8228924 45.539142,43.0926192 L45.539142,43.0926192 L45.539142,43.0908917 Z M59.4111237,38.0396247 L51.9326917,38.0396247 C51.3626102,38.0396247 51.165673,38.2365619 51.165673,38.7893681 L51.165673,49.9646919 C51.165673,50.5174981 51.3626102,50.7144353 51.9326917,50.7144353 L59.5735105,50.7144353 C60.1263167,50.7144353 60.323254,50.5174981 60.323254,49.9646919 L60.323254,48.3408235 C60.323254,47.7707421 60.1263167,47.5910801 59.5735105,47.5910801 L54.6984504,47.5910801 L54.6984504,45.8756532 L58.4661705,45.8756532 C59.0379795,45.8756532 59.2331892,45.678716 59.2331892,45.1086345 L59.2331892,43.5020414 C59.2331892,42.9492351 59.0362519,42.7522979 58.4661705,42.7522979 L54.6984504,42.7522979 L54.6984504,41.1612524 L59.4128512,41.1612524 C59.9846601,41.1612524 60.1815974,40.9643152 60.1815974,40.3942338 L60.1815974,38.7876406 C60.1815974,38.2348344 59.9846601,38.0378971 59.4128512,38.0378971 L59.4128512,38.0378971 L59.4111237,38.0396247 Z M62.0784138,41.7693393 C62.0784138,45.2347434 65.0048319,45.6096152 67.093403,45.8946559 C68.2732988,46.0553152 69.1837016,46.2522524 69.1837016,46.9484428 C69.1837016,47.717189 68.4685085,47.9659518 67.2713375,47.9659518 C66.2711037,47.9659518 65.5749133,47.6446332 65.2535947,47.0192711 C64.9858291,46.5010152 64.7353388,46.4474621 64.2015353,46.6271242 L62.5241138,47.2334835 C62.0075855,47.4304207 61.8451987,47.6791836 62.0421359,48.2147146 C62.7210511,50.0700706 64.576407,50.9804733 67.2367871,50.9804733 C70.3981478,50.9804733 72.7700321,49.536267 72.7700321,46.9121649 C72.7700321,43.5365918 70.0941044,43.0373386 68.0228085,42.7505704 C66.7358064,42.5899111 65.6820195,42.4292517 65.6820195,41.6605056 C65.6820195,41.0351435 66.1639975,40.7311001 67.3801712,40.7311001 C68.2024705,40.7311001 68.8451077,40.9815904 69.1837016,41.6605056 C69.4687423,42.1787614 69.6656795,42.2495897 70.1476575,42.0353773 L71.9321851,41.2666311 C72.4677162,41.0524187 72.6111003,40.7846532 72.36061,40.2663973 C71.522763,38.552698 70.0232761,37.7684041 67.3801712,37.7684041 C63.9700477,37.7684041 62.0784138,39.4095476 62.0784138,41.7658843 L62.0784138,41.7658843 L62.0784138,41.7693393 Z" id="Shape" fill="#FFFFFF" fill-rule="nonzero"></path>
                <path d="M25.4653652,27.1493416 L25.4653652,30.3642554 C25.4653652,33.4530603 27.4451025,35.3619694 30.9623323,35.3619694 C33.7125434,35.3619694 35.4262427,34.2373542 36.1759862,32.2403416 C36.3539207,31.7220858 36.2295393,31.4543203 35.6940082,31.2763858 L33.7833717,30.5974706 C33.2478406,30.4005334 33.0336282,30.5266423 32.8194158,31.0794485 C32.534375,31.8481947 31.9625661,32.2403416 30.9623323,32.2403416 C29.5526764,32.2403416 28.9981426,31.6339823 28.9981426,30.3832582 L28.9981426,27.1320664 C28.9981426,25.8813423 29.5509488,25.274983 30.9623323,25.274983 C31.9625661,25.274983 32.4980971,25.6325795 32.8194158,26.4358761 C33.016353,26.9886823 33.2305654,27.0785133 33.7833717,26.917854 L35.6940082,26.2389388 C36.2295393,26.0610043 36.3539207,25.7932388 36.1759862,25.274983 C35.4262427,23.2762429 33.7125434,22.1533552 30.9623323,22.1533552 C27.4468301,22.1533552 25.4653652,24.0622643 25.4653652,27.1510691 L25.4653652,27.1510691 L25.4653652,27.1493416 Z" id="Path" fill="#FFFFFF" fill-rule="nonzero"></path>
                <path d="M48.6624972,34.220079 L46.3061606,29.7561686 C46.0021172,29.1498092 45.6635234,28.7041092 45.2178233,28.3827906 L48.4672875,23.2054146 C48.7523283,22.7407118 48.5743937,22.4193932 48.0388627,22.4193932 L45.984842,22.4193932 C45.057164,22.4193932 44.8965047,22.5264994 44.5561834,23.0793057 L41.9856343,27.1320664 L41.5934874,27.1320664 L41.5934874,23.1691367 C41.5934874,22.6163304 41.4155529,22.4193932 40.8437439,22.4193932 L38.8277286,22.4193932 C38.2576472,22.4193932 38.06071,22.6163304 38.06071,23.1691367 L38.06071,34.3444604 C38.06071,34.8972667 38.2576472,35.0942039 38.8277286,35.0942039 L40.8437439,35.0942039 C41.4155529,35.0942039 41.5934874,34.8972667 41.5934874,34.3444604 L41.5934874,30.2554217 L41.914806,30.2554217 C42.5937212,30.2554217 42.842484,30.5767403 43.1292522,31.1485493 L44.6822923,34.3444604 C44.9863357,34.9698225 45.3249295,35.0942039 46.2716102,35.0942039 L48.199522,35.0942039 C48.7886062,35.0942039 48.9129876,34.702057 48.6642248,34.2183515 L48.6642248,34.2183515 L48.6624972,34.220079 Z" id="Path" fill="#FFFFFF" fill-rule="nonzero"></path>
                <path d="M59.1070802,22.4193932 L51.6286482,22.4193932 C51.0568393,22.4193932 50.8616296,22.6163304 50.8616296,23.1691367 L50.8616296,34.3444604 C50.8616296,34.8972667 51.0585668,35.0942039 51.6286482,35.0942039 L59.2677395,35.0942039 C59.8205458,35.0942039 60.017483,34.8972667 60.017483,34.3444604 L60.017483,32.7205921 C60.017483,32.1505106 59.8205458,31.9708486 59.2677395,31.9708486 L54.3926795,31.9708486 L54.3926795,30.2554217 L58.1603995,30.2554217 C58.7322085,30.2554217 58.9274182,30.0584845 58.9274182,29.4884031 L58.9274182,27.8818099 C58.9274182,27.3290037 58.730481,27.1320664 58.1603995,27.1320664 L54.3926795,27.1320664 L54.3926795,25.541021 L59.1053527,25.541021 C59.6771617,25.541021 59.8723714,25.3440837 59.8723714,24.7740023 L59.8723714,23.1691367 C59.8723714,22.6163304 59.6754342,22.4193932 59.1053527,22.4193932 L59.1053527,22.4193932 L59.1070802,22.4193932 Z" id="Path" fill="#FFFFFF" fill-rule="nonzero"></path>
                <path d="M72.9151437,22.4193932 L70.861123,22.4193932 C69.9869981,22.4193932 69.7365078,22.4556711 69.397914,23.0793057 L67.4354518,26.7209168 L65.5265428,23.0793057 C65.1879489,22.4539436 64.9374586,22.4193932 64.044331,22.4193932 L61.9022068,22.4193932 C61.3494006,22.4193932 61.2768447,22.757987 61.5273351,23.1691367 L65.633649,30.1845934 L65.633649,34.3444604 C65.633649,34.8972667 65.8305862,35.0942039 66.4006676,35.0942039 L68.4166829,35.0942039 C68.9867643,35.0942039 69.1664264,34.8972667 69.1664264,34.3444604 L69.1664264,30.1845934 L73.2900155,23.1691367 C73.5215031,22.757987 73.4506748,22.4193932 72.9151437,22.4193932 L72.9151437,22.4193932 L72.9151437,22.4193932 Z" id="Path" fill="#FFFFFF" fill-rule="nonzero"></path>
                <path d="M81.8567847,31.9172955 C83.1230565,31.9172955 84.1492031,30.8911489 84.1492031,29.6248771 C84.1492031,28.3586053 83.1230565,27.3324587 81.8567847,27.3324587 C80.5905129,27.3324587 79.5643663,28.3586053 79.5643663,29.6248771 C79.5643663,30.8911489 80.5905129,31.9172955 81.8567847,31.9172955 L81.8567847,31.9172955 Z" id="Path" fill="#84E772" fill-rule="nonzero"></path>
                <path d="M82.2748445,38.9396623 C83.560119,38.9396623 84.6018132,37.8323223 84.6018132,36.4675819 C84.6018132,35.1028415 83.560119,33.9955015 82.2748445,33.9955015 C80.9895699,33.9955015 79.9478757,35.1028415 79.9478757,36.4675819 C79.9478757,37.8323223 80.9895699,38.9396623 82.2748445,38.9396623 L82.2748445,38.9396623 Z" id="Path" fill="#84E772" fill-rule="nonzero"></path>
                <path d="M80.903194,46.1883342 C82.1694658,46.1883342 83.1956124,45.1621876 83.1956124,43.8959158 C83.1956124,42.629644 82.1694658,41.6034974 80.903194,41.6034974 C79.6369222,41.6034974 78.6107756,42.629644 78.6107756,43.8959158 C78.6107756,45.1621876 79.6369222,46.1883342 80.903194,46.1883342 L80.903194,46.1883342 Z" id="Path" fill="#84E772" fill-rule="nonzero"></path>
                <path d="M77.6537298,53.0552243 C78.9200016,53.0552243 79.9461482,51.9478843 79.9461482,50.5831439 C79.9461482,49.2184034 78.9200016,48.1110634 77.6537298,48.1110634 C76.3874579,48.1110634 75.3613114,49.2184034 75.3613114,50.5831439 C75.3613114,51.9478843 76.3874579,53.0552243 77.6537298,53.0552243 L77.6537298,53.0552243 Z" id="Path" fill="#84E772" fill-rule="nonzero"></path>
                <path d="M79.5643663,25.0849558 C80.8306381,25.0849558 81.8567847,24.0588092 81.8567847,22.7925374 C81.8567847,21.5262656 80.8306381,20.500119 79.5643663,20.500119 C78.2980945,20.500119 77.2719479,21.5262656 77.2719479,22.7925374 C77.2719479,24.0588092 78.2980945,25.0849558 79.5643663,25.0849558 L79.5643663,25.0849558 Z" id="Path" fill="#84E772" fill-rule="nonzero"></path>
                <path d="M75.4407773,20.3325496 C76.6621336,20.3325496 77.6537298,19.3426809 77.6537298,18.1230522 C77.6537298,16.9034234 76.6638611,15.9135547 75.4407773,15.9135547 C74.2176934,15.9135547 73.2278248,16.9016959 73.2278248,18.1230522 C73.2278248,19.3444085 74.2176934,20.3325496 75.4407773,20.3325496 L75.4407773,20.3325496 Z" id="Path" fill="#84E772" fill-rule="nonzero"></path>
                <path d="M69.6501318,16.7894071 C70.8732157,17.1176358 72.0893894,16.5440993 72.36752,15.5075876 C72.6439232,14.4728034 71.878632,13.3671909 70.6555482,13.0389622 C69.4324644,12.7107335 68.2162906,13.28427 67.93816,14.3207817 C67.6600294,15.3555659 68.427048,16.4611784 69.6501318,16.7894071 L69.6501318,16.7894071 Z" id="Path" fill="#84E772" fill-rule="nonzero"></path>
                <path d="M64.6075024,15.4885849 C65.8547715,15.2691899 66.7237138,14.2862313 66.5492343,13.2946351 C66.3747548,12.3030389 65.2224993,11.6776768 63.9752302,11.8970718 C62.7279611,12.1164668 61.8590188,13.0994254 62.0334983,14.0910216 C62.2079778,15.0826178 63.3602333,15.7079799 64.6075024,15.4885849 L64.6075024,15.4885849 Z" id="Path" fill="#84E772" fill-rule="nonzero"></path>
                <path d="M58.6890205,16.3540722 C59.7739028,15.7027973 60.2783385,14.5453592 59.8119082,13.7714305 C59.3472054,12.9975018 58.0895712,12.8990331 57.004689,13.5520355 C55.9198067,14.2050379 55.4170985,15.3607485 55.8818013,16.1346772 C56.346504,16.9086059 57.6041383,17.0070746 58.6890205,16.3540722 L58.6890205,16.3540722 Z" id="Path" fill="#84E772" fill-rule="nonzero"></path>
                <path d="M54.966216,56.924868 C54.1024562,55.9989175 52.8966476,55.7190594 52.273013,56.3012335 C51.6493785,56.8834075 51.8445882,58.1047638 52.7083479,59.0307143 C53.5721077,59.9566648 54.7779163,60.2365229 55.4015509,59.6543488 C56.0251854,59.0721748 55.8299757,57.8508185 54.966216,56.924868 L54.966216,56.924868 Z" id="Path" fill="#84E772" fill-rule="nonzero"></path>
                <path d="M61.1351881,58.2896084 C60.3906272,57.2651893 59.1278105,56.9145029 58.3124213,57.5053146 C57.497032,58.0978538 57.4400239,59.4073135 58.1845848,60.4317326 C58.9291457,61.4561517 60.1919625,61.8068382 61.0073517,61.214299 C61.8227409,60.6217598 61.8797491,59.3123 61.1351881,58.2878809 L61.1351881,58.2878809 L61.1351881,58.2896084 Z" id="Path" fill="#84E772" fill-rule="nonzero"></path>
                <path d="M67.7135825,57.3325626 C66.9137409,56.2321327 65.4712621,55.9194516 64.490031,56.6311897 C63.5088,57.3429277 63.3619608,58.8130468 64.1618023,59.9134768 C64.9616439,61.0139067 66.4041227,61.3265877 67.3853538,60.6148497 C68.3665848,59.9031116 68.513424,58.4329925 67.7135825,57.3325626 L67.7135825,57.3325626 Z" id="Path" fill="#84E772" fill-rule="nonzero"></path>
                <path d="M74.0777644,54.9606783 C73.2779228,53.8602484 71.835444,53.5475674 70.8542129,54.2593054 C69.8729819,54.9710434 69.7261427,56.4411625 70.5259842,57.5415925 C71.3258258,58.6420224 72.7683046,58.9547034 73.7495356,58.2429654 C74.7307667,57.5312274 74.8776059,56.0611082 74.0777644,54.9606783 L74.0777644,54.9606783 Z" id="Path" fill="#84E772" fill-rule="nonzero"></path>
                <path d="M47.1802855,17.9122948 C47.8678383,17.0312598 48.3083557,16.2262357 48.1649716,16.1122194 C48.01986,15.9999307 47.3443998,16.6218377 46.6568471,17.5028727 C45.9692943,18.3839076 45.5287768,19.1889317 45.6738885,19.302948 C45.8190001,19.4152368 46.4944602,18.7933297 47.182013,17.9122948 L47.182013,17.9122948 L47.1802855,17.9122948 Z" id="Path" fill="#84E772" fill-rule="nonzero"></path>
                <path d="M50.6111393,18.0073084 C51.4161633,17.0813579 51.7754874,16.0776691 51.4144358,15.7632605 C51.0533842,15.4488519 50.1084311,15.9446501 49.3051345,16.8706005 C48.5001104,17.796551 48.1407863,18.8002398 48.5018379,19.1146484 C48.8628895,19.4290569 49.8078427,18.9332588 50.6111393,18.0073084 L50.6111393,18.0073084 Z" id="Path" fill="#84E772" fill-rule="nonzero"></path>
                <path d="M51.8083103,12.8057471 C52.6116069,12.0300908 53.1350453,11.2665272 52.9761135,11.1024128 C52.8171817,10.9382985 52.0363429,11.4340966 51.2330463,12.2097529 C50.4297497,12.9854091 49.9063113,13.7489727 50.0652431,13.9130871 C50.2241749,14.0772015 51.0050137,13.5814034 51.8083103,12.8057471 L51.8083103,12.8057471 Z" id="Path" fill="#84E772" fill-rule="nonzero"></path>
                <path d="M57.1135227,8.89464291 C58.0394732,8.26928084 58.6665628,7.57654552 58.511086,7.34678542 C58.3556092,7.11702532 57.4797568,7.43834395 56.5520789,8.0619785 C55.6261284,8.68734056 55.0007663,9.38007589 55.1545156,9.60983599 C55.3099923,9.83959608 56.1858447,9.51827745 57.1135227,8.89464291 L57.1135227,8.89464291 Z" id="Path" fill="#84E772" fill-rule="nonzero"></path>
                <path d="M55.0214966,13.2497196 C56.0528257,12.5535292 56.6885529,11.694952 56.4432451,11.3304454 C56.1979374,10.9659388 55.1631532,11.2354319 54.131824,11.9298947 C53.1004949,12.6243575 52.4647677,13.4846623 52.7100755,13.8491689 C52.9553832,14.2136755 53.9901674,13.9441825 55.0214966,13.2497196 L55.0214966,13.2497196 Z" id="Path" fill="#84E772" fill-rule="nonzero"></path>
                <path d="M61.4167738,10.8242822 C62.534479,10.2542008 63.2013015,9.32134023 62.9041681,8.73916615 C62.6070348,8.15699207 61.4599618,8.14662696 60.3422567,8.7167084 C59.2245516,9.28678984 58.557729,10.2196504 58.8548624,10.8018245 C59.1519957,11.3839985 60.2973412,11.3943636 61.4167738,10.8242822 L61.4167738,10.8242822 Z" id="Path" fill="#84E772" fill-rule="nonzero"></path>
                <path d="M68.0107158,10.1626422 C69.1906116,9.73421739 69.9351726,8.80481189 69.6743171,8.08961881 C69.4134617,7.37442573 68.247386,7.14293812 67.0674902,7.57136296 C65.8875943,7.9997878 65.1430334,8.9291933 65.4038889,9.64438638 C65.6647443,10.3595795 66.83082,10.5910671 68.0107158,10.1626422 L68.0107158,10.1626422 Z" id="Path" fill="#84E772" fill-rule="nonzero"></path>
                <path d="M43.5438569,56.8868626 C43.1430724,55.9436369 42.6524568,55.2509016 42.4451545,55.3390051 C42.2378522,55.4271086 42.3950564,56.2615005 42.795841,57.2047262 C43.1966255,58.1479518 43.6889686,58.8406871 43.8945434,58.7525837 C44.1018457,58.6644802 43.9446414,57.8300882 43.5438569,56.8868626 L43.5438569,56.8868626 Z" id="Path" fill="#84E772" fill-rule="nonzero"></path>
                <path d="M46.2025094,55.7190594 C45.628973,54.6860027 44.8550442,54.0209077 44.4732624,54.2333926 C44.0914806,54.4458775 44.2452298,55.4547489 44.8170388,56.4878056 C45.3905753,57.5208622 46.164504,58.1859573 46.5462858,57.9734723 C46.9280676,57.7609874 46.7743184,56.7521161 46.2025094,55.7190594 L46.2025094,55.7190594 Z" id="Path" fill="#84E772" fill-rule="nonzero"></path>
                <path d="M45.1124446,62.2974537 C44.6304667,61.4630618 44.1813116,60.8204245 44.1087558,60.861885 C44.0362,60.9033454 44.3696112,61.613356 44.8515892,62.4477479 C45.3335671,63.2821398 45.7827222,63.9265046 45.8535505,63.8850441 C45.9261063,63.8435837 45.5926951,63.1335731 45.1107171,62.2974537 L45.1107171,62.2974537 L45.1124446,62.2974537 Z" id="Path" fill="#84E772" fill-rule="nonzero"></path>
                <path d="M50.1896245,60.0482233 C49.4951616,59.092905 48.5502085,58.5953794 48.0785956,58.9391558 C47.6069828,59.2812046 47.7883724,60.333264 48.4811077,61.2903098 C49.1755705,62.2456281 50.1205237,62.7431537 50.5921365,62.3993773 C51.0637494,62.0573285 50.8823598,61.0035416 50.1896245,60.0482233 L50.1896245,60.0482233 Z" id="Path" fill="#84E772" fill-rule="nonzero"></path>
                <path d="M47.2545688,61.9761351 C46.6136591,60.9897214 45.8967385,60.3194439 45.6531582,60.4766481 C45.409578,60.6355799 45.7308966,61.5632579 46.3718064,62.5496715 C47.0127161,63.5360852 47.7296367,64.2063628 47.973217,64.0491585 C48.2167972,63.8902267 47.8954786,62.9625487 47.2545688,61.9761351 L47.2545688,61.9761351 Z" id="Path" fill="#84E772" fill-rule="nonzero"></path>
                <path d="M55.6209458,63.0990228 C54.6224396,62.3199115 53.4028108,62.2145328 52.8931925,62.8658076 C52.3853018,63.5170825 52.7809038,64.6762481 53.77941,65.4553594 C54.7779163,66.2344707 55.9992726,66.3398494 56.5071634,65.6885745 C57.0150541,65.0372996 56.6194521,63.8781341 55.6209458,63.0990228 L55.6209458,63.0990228 Z" id="Path" fill="#84E772" fill-rule="nonzero"></path>
                <path d="M52.5338685,66.3864924 C51.6856564,65.507185 50.7251555,65.0580299 50.3900168,65.381076 C50.054878,65.7041222 50.4712102,66.6801707 51.3211498,67.5594781 C52.1693619,68.4387856 53.1298627,68.8879407 53.4650015,68.5648945 C53.8001403,68.2418484 53.3838081,67.2657998 52.535596,66.3882199 L52.535596,66.3882199 L52.5338685,66.3864924 Z" id="Path" fill="#84E772" fill-rule="nonzero"></path>
                <path d="M49.6074504,67.4523719 C48.8749821,66.6093424 48.1390588,66.046171 47.9663069,66.1964652 C47.7935549,66.3467594 48.2478926,67.1517835 48.9803608,67.9965406 C49.7128291,68.8395701 50.4487524,69.4027415 50.6215044,69.2524473 C50.7942563,69.1021531 50.3399187,68.297129 49.6074504,67.4523719 L49.6074504,67.4523719 Z" id="Path" fill="#84E772" fill-rule="nonzero"></path>
                <path d="M61.0868176,64.5086787 C60.0002078,64.047431 58.8807752,64.2322756 58.5870969,64.9232834 C58.2934185,65.6142912 58.9377833,66.5471517 60.0243931,67.0083994 C61.1110029,67.4696471 62.2304355,67.2848025 62.5241138,66.5937947 C62.8177922,65.9027869 62.1734274,64.9699264 61.0850901,64.5086787 L61.0850901,64.5086787 L61.0868176,64.5086787 Z" id="Path" fill="#84E772" fill-rule="nonzero"></path>
                <path d="M67.6790321,63.874679 C66.4110327,63.7641178 65.3140579,64.4533981 65.2294094,65.4156264 C65.1447609,66.3778548 66.1052618,67.2467971 67.3732611,67.3573584 C68.6412604,67.4679196 69.7382353,66.7786393 69.8228838,65.816411 C69.9075322,64.8541826 68.9470314,63.9852403 67.6790321,63.8729515 L67.6790321,63.8729515 L67.6790321,63.874679 Z" id="Path" fill="#84E772" fill-rule="nonzero"></path>
                <path d="M54.2873008,71.2304571 C53.4062658,70.5429043 52.5545987,70.1611225 52.3835743,70.3805175 C52.2125498,70.598185 52.7895414,71.3341083 53.6688488,72.0216611 C54.5498837,72.7092138 55.4015509,73.0909956 55.5725753,72.8716007 C55.7435997,72.6539332 55.1666082,71.9180099 54.2873008,71.2304571 L54.2873008,71.2304571 Z" id="Path" fill="#84E772" fill-rule="nonzero"></path>
                <path d="M57.8218057,69.1401585 C56.7628362,68.5286166 55.6606788,68.4595158 55.3583629,68.9829542 C55.056047,69.5063926 55.6675889,70.4271605 56.7265583,71.0387024 C57.7855278,71.6502444 58.8876853,71.7193451 59.1900012,71.1959067 C59.4923171,70.6724683 58.8807752,69.7517004 57.8218057,69.1401585 L57.8218057,69.1401585 Z" id="Path" fill="#84E772" fill-rule="nonzero"></path>
                <path d="M60.2697009,73.830374 C59.1278105,73.1704615 58.0118329,72.9631592 57.7786177,73.3656712 C57.5454026,73.7681833 58.2830534,74.6302155 59.4249438,75.290128 C60.5668342,75.9500404 61.6828118,76.1573428 61.916027,75.7548307 C62.1492421,75.3523187 61.4115913,74.4902864 60.2679733,73.830374 L60.2679733,73.830374 L60.2697009,73.830374 Z" id="Path" fill="#84E772" fill-rule="nonzero"></path>
                <path d="M64.5280365,70.3943377 C63.4034213,69.9175423 62.2649859,70.0626539 61.9868553,70.7208389 C61.7087246,71.3790238 62.3928224,72.2980642 63.5191651,72.7748596 C64.6437803,73.2516549 65.7822156,73.1065433 66.0603463,72.4500859 C66.3384769,71.791901 65.6543792,70.8728606 64.529764,70.3960652 L64.529764,70.3960652 L64.5280365,70.3943377 Z" id="Path" fill="#84E772" fill-rule="nonzero"></path>
                <path d="M71.0304199,70.0522888 C69.7883334,70.0091008 68.7570042,70.6431005 68.7276364,71.4688548 C68.6982686,72.2946091 69.6829547,72.9994371 70.9250412,73.0426251 C72.1671278,73.0858131 73.1984569,72.4518134 73.2278248,71.6260591 C73.2571926,70.8003048 72.2725065,70.0954768 71.0304199,70.0522888 L71.0304199,70.0522888 Z" id="Path" fill="#84E772" fill-rule="nonzero"></path>
                <path d="M72.9065061,74.9446241 C71.7404305,74.7597795 70.7108288,75.1329237 70.6089052,75.7772885 C70.5069815,76.4216533 71.3690138,77.0953859 72.5368169,77.2802305 C73.7028926,77.465075 74.7324943,77.0919308 74.8344179,76.4475661 C74.9363416,75.8014738 74.0743093,75.1294687 72.9065061,74.9446241 L72.9065061,74.9446241 Z" id="Path" fill="#84E772" fill-rule="nonzero"></path>
                <path d="M65.9791529,75.0897357 C64.7716167,74.8772508 63.7143748,75.1450163 63.6193612,75.6909125 C63.5243476,76.2350812 64.4243853,76.8500781 65.6319214,77.062563 C66.8394576,77.2750479 67.8966995,77.0072824 67.9917131,76.4631137 C68.0867267,75.9189451 67.186689,75.3039481 65.9791529,75.0914632 L65.9791529,75.0914632 L65.9791529,75.0897357 Z" id="Path" fill="#84E772" fill-rule="nonzero"></path>
                <path d="M65.8824118,78.1889057 C64.8217148,77.943598 63.9061294,77.9954235 63.8353011,78.3011945 C63.7644728,78.608693 64.5660419,79.0561205 65.6267389,79.2997008 C66.6857083,79.5450085 67.6030212,79.493183 67.6738495,79.187412 C67.7446778,78.881641 66.9431088,78.4342135 65.8841393,78.1889057 L65.8841393,78.1889057 L65.8824118,78.1889057 Z" id="Path" fill="#84E772" fill-rule="nonzero"></path>
                <path d="M60.2282404,76.7775223 C59.3783008,76.3439149 58.6371949,76.0951521 58.5732767,76.2229885 C58.5093585,76.3490974 59.1450857,76.8034351 59.9950253,77.2370425 C60.8449649,77.6706499 61.5860707,77.9176852 61.649989,77.7915762 C61.7139072,77.6654673 61.07818,77.2111297 60.2282404,76.7792498 L60.2282404,76.7792498 L60.2282404,76.7775223 Z" id="Path" fill="#84E772" fill-rule="nonzero"></path>
                <path d="M71.609139,81.0980486 C70.5173466,80.8458307 69.5983063,80.78364 69.5568458,80.959847 C69.5171128,81.136054 70.36878,81.4815579 71.4622998,81.7337758 C72.5558197,81.9859936 73.4731325,82.0481843 73.514593,81.8719773 C73.5560535,81.6957703 72.7026588,81.3485389 71.609139,81.0963211 L71.609139,81.0963211 L71.609139,81.0980486 Z" id="Path" fill="#84E772" fill-rule="nonzero"></path>
                <path d="M71.9010898,78.7037065 C70.8075699,78.5102244 69.8643443,78.6708837 69.7952435,79.0613031 C69.7261427,79.4517225 70.5570796,79.9250628 71.652327,80.1168175 C72.7475743,80.3102997 73.6890725,80.1496404 73.7581732,79.759221 C73.827274,79.3688016 72.9963371,78.8954612 71.9010898,78.7037065 L71.9010898,78.7037065 Z" id="Path" fill="#84E772" fill-rule="nonzero"></path>
                <path d="M78.9027264,73.5159654 C77.6830976,73.6006139 76.7381444,74.276074 76.78997,75.02409 C76.8417956,75.7721059 77.8731247,76.3093645 79.0927535,76.224716 C80.3123823,76.1400676 81.2573355,75.4646074 81.2055099,74.7165915 C81.1536843,73.9685755 80.1223551,73.431317 78.9044539,73.5159654 L78.9044539,73.5159654 L78.9027264,73.5159654 Z" id="Path" fill="#84E772" fill-rule="nonzero"></path>
                <path d="M84.5931756,70.3217818 C83.4944732,70.8573129 82.9226643,71.9421952 83.3130837,72.7454917 C83.7052306,73.5487883 84.9127668,73.7647282 86.0097417,73.2291972 C87.1084441,72.6936661 87.680253,71.6087839 87.2898336,70.8054873 C86.8976867,70.0021907 85.6901505,69.7862508 84.5931756,70.3217818 L84.5931756,70.3217818 Z" id="Path" fill="#84E772" fill-rule="nonzero"></path>
                <path d="M84.7901129,75.7202803 C83.5946694,75.9742257 82.7464573,76.7464269 82.895024,77.4443448 C83.0435906,78.1422627 84.1319279,78.5033143 85.3273714,78.2493689 C86.5228149,77.9954235 87.371027,77.2232223 87.2224604,76.5235769 C87.0738937,75.825659 85.9855564,75.4646074 84.7901129,75.7185528 L84.7901129,75.7185528 L84.7901129,75.7202803 Z" id="Path" fill="#84E772" fill-rule="nonzero"></path>
                <path d="M78.3222798,78.3530201 C77.1492941,78.435941 76.2319812,78.9835647 76.2734417,79.5778314 C76.3149021,80.1720981 77.2995883,80.5867028 78.472574,80.5055094 C79.6455598,80.424316 80.5628726,79.8749648 80.5214121,79.2806981 C80.4799517,78.6864313 79.4952656,78.2718267 78.3222798,78.3530201 L78.3222798,78.3530201 Z" id="Path" fill="#84E772" fill-rule="nonzero"></path>
                <path d="M77.7988414,81.7216831 C76.7105041,81.7026804 75.8242866,81.9065277 75.8190812,82.1777483 C75.8139215,82.4489688 76.6932289,82.6839115 77.7815662,82.7029142 C78.8699035,82.7219169 79.7578485,82.5180696 79.7613264,82.2468491 C79.7664861,81.9756285 78.8871787,81.7406858 77.7988414,81.7216831 L77.7988414,81.7216831 Z" id="Path" fill="#84E772" fill-rule="nonzero"></path>
                <path d="M84.221759,79.9958911 C83.0038577,80.0805396 82.0381743,80.4692315 82.0658146,80.8631059 C82.0934549,81.2569804 83.1023263,81.5074707 84.3202276,81.4210947 C85.5381288,81.3364463 86.5038122,80.9477544 86.4761719,80.5538799 C86.4485316,80.1600055 85.4396602,79.9095152 84.221759,79.9958911 L84.221759,79.9958911 Z" id="Path" fill="#84E772" fill-rule="nonzero"></path>
                <path d="M83.5843043,82.1725657 C82.3905883,82.2554867 81.4318149,82.4282386 81.4404525,82.5560751 C81.4490901,82.685639 82.4234111,82.7219169 83.6171271,82.6372685 C84.8108431,82.5543475 85.7696164,82.3815956 85.7609788,82.2537591 C85.7523412,82.1241952 84.7780202,82.0879173 83.5843043,82.1725657 L83.5843043,82.1725657 Z" id="Path" fill="#84E772" fill-rule="nonzero"></path>
                <path d="M90.5168401,72.5399169 C89.4181377,73.075448 88.7720454,74.0342213 89.0743613,74.6820411 C89.3766772,75.3298609 90.5116575,75.4196919 91.6086324,74.8841609 C92.7073348,74.3486298 93.3534271,73.3898565 93.0511112,72.7420367 C92.7487953,72.0942169 91.613815,72.0043859 90.5168401,72.5399169 L90.5168401,72.5399169 Z" id="Path" fill="#84E772" fill-rule="nonzero"></path>
                <path d="M90.1333307,77.8520394 C88.8946992,78.1146224 87.9618387,78.6967965 88.0499422,79.1511341 C88.1380457,79.6054717 89.2142904,79.759221 90.4529218,79.496638 C91.6915533,79.234055 92.6244139,78.651881 92.5363104,78.1975433 C92.4482069,77.7432057 91.3719622,77.5894565 90.1333307,77.8520394 L90.1333307,77.8520394 Z" id="Path" fill="#84E772" fill-rule="nonzero"></path>
                <path d="M90.3268129,80.959847 C89.2661159,81.2051548 88.4403616,81.5558413 88.4835496,81.7441409 C88.5267376,81.9324405 89.4215927,81.8857975 90.4840172,81.6404897 C91.5447142,81.3951819 92.3704685,81.0444955 92.3272805,80.8561959 C92.2840925,80.6678962 91.3892374,80.7145393 90.3268129,80.959847 L90.3268129,80.959847 Z" id="Path" fill="#84E772" fill-rule="nonzero"></path>
                <path d="M95.4178129,77.950508 C94.3674811,78.4635813 93.6384678,79.1304039 93.7904896,79.4430849 C93.9425113,79.7540384 94.9168323,79.5916516 95.9688917,79.0785783 C97.0192235,78.565505 97.7482368,77.8986824 97.596215,77.5860014 C97.4441933,77.2750479 96.4698723,77.4374347 95.4178129,77.950508 L95.4178129,77.950508 Z" id="Path" fill="#84E772" fill-rule="nonzero"></path>
                <path d="M95.7253114,74.2847116 C94.6749795,74.7977849 93.9908818,75.559621 94.1999117,75.9863183 C94.4089415,76.4130157 95.4299056,76.3439149 96.4802374,75.8325691 C97.5305693,75.3212233 98.214667,74.5576597 98.0056372,74.1309624 C97.7966073,73.7042651 96.7756433,73.7733658 95.7253114,74.2847116 L95.7253114,74.2847116 Z" id="Path" fill="#84E772" fill-rule="nonzero"></path>
                <path d="M100.945875,74.3797252 C99.9335489,74.9636268 99.2874566,75.7410106 99.5033966,76.1158823 C99.7193365,76.490754 100.716115,76.3197296 101.728442,75.735828 C102.740768,75.1519264 103.38686,74.3745426 103.170921,73.9996709 C102.954981,73.6247992 101.958202,73.7958236 100.945875,74.3797252 L100.945875,74.3797252 Z" id="Path" fill="#84E772" fill-rule="nonzero"></path>
                <path d="M74.0535791,62.3095463 C72.8235852,62.5704018 71.9874657,63.5395402 72.1861305,64.4706732 C72.3847952,65.4035338 73.5422333,65.9477024 74.7722272,65.686847 C76.0022211,65.4259915 76.8383405,64.4568531 76.6396758,63.5239926 C76.4410111,62.591132 75.283573,62.0469634 74.0535791,62.3078188 L74.0535791,62.3078188 L74.0535791,62.3095463 Z" id="Path" fill="#84E772" fill-rule="nonzero"></path>
                <path d="M77.9059476,67.808241 C76.653496,68.0967367 75.8001013,69.0365073 76.0022211,69.9037221 C76.2026134,70.7726644 77.3807817,71.2425498 78.6332333,70.9523265 C79.885685,70.6638307 80.7390796,69.7240601 80.5369598,68.8568453 C80.3365676,67.987903 79.1583993,67.5180177 77.9059476,67.808241 L77.9059476,67.808241 Z" id="Path" fill="#84E772" fill-rule="nonzero"></path>
                <path d="M79.0599306,58.3587092 C77.9422255,58.9028778 77.4326073,60.1587845 77.9232228,61.1624734 C78.4121108,62.1661622 79.7146605,62.5375789 80.8323657,61.9916827 C81.9500708,61.4475141 82.459689,60.1916074 81.970801,59.1879186 C81.481913,58.1842297 80.1793633,57.812813 79.0616582,58.3587092 L79.0616582,58.3587092 L79.0599306,58.3587092 Z" id="Path" fill="#84E772" fill-rule="nonzero"></path>
                <path d="M83.9177155,63.119753 C82.8311057,63.6501015 82.3059398,64.8144496 82.7481848,65.7179423 C83.1904298,66.6231626 84.4290613,66.927206 85.5156711,66.3968575 C86.6040084,65.866509 87.1274468,64.7021609 86.6852018,63.7969406 C86.2446843,62.8917204 85.0043253,62.587677 83.915988,63.1180255 L83.915988,63.1180255 L83.9177155,63.119753 Z" id="Path" fill="#84E772" fill-rule="nonzero"></path>
                <path d="M90.4650145,65.5330978 C89.3265791,66.0876315 88.7513151,67.2519797 89.17974,68.1312871 C89.6081648,69.0105945 90.8796192,69.2731775 92.0180545,68.7186437 C93.1564899,68.16411 93.7317539,66.9997618 93.303329,66.1204544 C92.8749042,65.241147 91.6034498,64.978564 90.4650145,65.5330978 L90.4650145,65.5330978 Z" id="Path" fill="#84E772" fill-rule="nonzero"></path>
                <path d="M96.0034421,68.2055704 C94.93929,68.8706655 94.4313993,69.9780055 94.8684617,70.6776509 C95.3055242,71.3772963 96.5234254,71.4066641 97.5875774,70.7415691 C98.6517295,70.0764741 99.1596202,68.9691341 98.7225578,68.2694887 C98.2854953,67.5698433 97.0675941,67.5404754 96.0034421,68.2055704 L96.0034421,68.2055704 Z" id="Path" fill="#84E772" fill-rule="nonzero"></path>
                <path d="M105.777747,69.7827958 C104.829339,70.7001086 104.354271,71.748713 104.718778,72.1253122 C105.083285,72.503639 106.149164,72.0665766 107.097572,71.1492637 C108.045981,70.2319508 108.521048,69.1833465 108.156542,68.8067472 C107.792035,68.4284205 106.726156,68.8654829 105.777747,69.7827958 L105.777747,69.7827958 Z" id="Path" fill="#84E772" fill-rule="nonzero"></path>
                <path d="M100.44144,62.9107231 C99.6225954,63.8867717 99.4774838,65.111583 100.116666,65.647114 C100.755848,66.1826451 101.937472,65.8267761 102.756316,64.8507275 C103.57516,63.874679 103.720272,62.6498677 103.08109,62.1143366 C102.441907,61.5788056 101.260284,61.9346746 100.44144,62.9089956 L100.44144,62.9089956 L100.44144,62.9107231 Z" id="Path" fill="#84E772" fill-rule="nonzero"></path>
                <path d="M101.141085,69.5651283 C100.21168,70.3183268 99.8005299,71.349656 100.222045,71.8696393 C100.643559,72.3896227 101.738807,72.2013231 102.668212,71.4498521 C103.597618,70.6966536 104.008767,69.6653244 103.587253,69.1453411 C103.165738,68.6253577 102.070491,68.8136573 101.141085,69.5651283 L101.141085,69.5651283 Z" id="Path" fill="#84E772" fill-rule="nonzero"></path>
                <path d="M83.7674213,56.0265579 C84.8713063,56.3426939 86.0581122,55.6395935 86.4191638,54.4562426 C86.7802154,53.2728917 86.1790386,52.056718 85.0768811,51.7405819 C83.9729961,51.4244459 82.7861902,52.1275463 82.4251387,53.3108972 C82.0640871,54.494248 82.6652639,55.7104218 83.7674213,56.0265579 L83.7674213,56.0265579 Z" id="Path" fill="#84E772" fill-rule="nonzero"></path>
                <path d="M88.338438,60.9638086 C89.2021977,61.4630618 90.4183715,61.0069966 91.0558262,59.9462996 C91.6932809,58.8856027 91.5101638,57.6210584 90.646404,57.1235327 C89.7826443,56.6242796 88.5664705,57.0803448 87.9290158,58.1410417 C87.2915611,59.2017387 87.4746782,60.466283 88.338438,60.9638086 L88.338438,60.9638086 Z" id="Path" fill="#84E772" fill-rule="nonzero"></path>
                <path d="M95.0325761,63.4220689 C95.9498889,63.9524174 97.2109782,63.522265 97.8484329,62.4615681 C98.4858876,61.4008711 98.257855,60.1121415 97.3405422,59.581793 C96.4232293,59.0514445 95.16214,59.4815969 94.5246853,60.5422939 C93.8872306,61.6029909 94.1152632,62.8917204 95.0325761,63.4220689 L95.0325761,63.4220689 Z" id="Path" fill="#84E772" fill-rule="nonzero"></path>
                <path d="M105.062554,64.3532019 C104.314538,65.3828036 104.224707,66.5955223 104.865617,67.060225 C105.504799,67.5249278 106.629415,67.0654076 107.377431,66.0358059 C108.125446,65.0062043 108.215278,63.7934856 107.576095,63.3287828 C106.936913,62.8640801 105.812298,63.3236003 105.062554,64.3532019 L105.062554,64.3532019 Z" id="Path" fill="#84E772" fill-rule="nonzero"></path>
                <path d="M109.756225,64.4827659 C109.106678,65.5227326 109.0704,66.6732606 109.676759,67.0515874 C110.283118,67.4299142 111.300627,66.8943831 111.950175,65.8544164 C112.599722,64.8144496 112.636,63.6639216 112.029641,63.2855949 C111.423281,62.9072681 110.405772,63.4427991 109.756225,64.4827659 L109.756225,64.4827659 Z" id="Path" fill="#84E772" fill-rule="nonzero"></path>
                <path d="M115.085623,62.6135898 C114.472353,63.5965484 114.149307,64.5017686 114.366975,64.6382426 C114.584642,64.7729892 115.256647,64.0871639 115.871644,63.1042053 C116.484913,62.1212467 116.80796,61.2160265 116.590292,61.0795524 C116.372625,60.9448059 115.70062,61.6306312 115.085623,62.6118622 L115.085623,62.6118622 L115.085623,62.6135898 Z" id="Path" fill="#84E772" fill-rule="nonzero"></path>
                <path d="M110.64417,69.2990903 C109.899609,70.1870353 109.389991,70.9834218 109.504007,71.0801629 C109.618023,71.176904 110.315941,70.5359943 111.060502,69.6480492 C111.805063,68.7601042 112.316409,67.9637177 112.200665,67.8669766 C112.086649,67.7702355 111.388731,68.4111453 110.64417,69.2990903 L110.64417,69.2990903 Z" id="Path" fill="#84E772" fill-rule="nonzero"></path>
                <path d="M118.324722,56.5949118 C117.97749,57.6037832 117.866929,58.4813631 118.079414,58.5539189 C118.291899,58.6264747 118.746236,57.8680937 119.093468,56.8592223 C119.440699,55.8503509 119.551261,54.972771 119.338776,54.9002151 C119.126291,54.8276593 118.671953,55.5860404 118.324722,56.5949118 L118.324722,56.5949118 Z" id="Path" fill="#84E772" fill-rule="nonzero"></path>
                <path d="M113.195716,58.1358592 C112.756926,59.2812046 112.850212,60.3816346 113.406474,60.595847 C113.962735,60.8100594 114.769487,60.0551334 115.208277,58.9097879 C115.647066,57.7644425 115.55378,56.6640126 114.997519,56.4498001 C114.441258,56.2355877 113.634506,56.9905137 113.193989,58.1358592 L113.193989,58.1358592 L113.195716,58.1358592 Z" id="Path" fill="#84E772" fill-rule="nonzero"></path>
                <path d="M108.821637,58.2792433 C108.17209,59.3192101 108.104716,60.4490078 108.67307,60.8048768 C109.241424,61.1607459 110.227838,60.6044846 110.877385,59.5645178 C111.526932,58.5245511 111.594306,57.3947533 111.025952,57.0388843 C110.457598,56.6847428 109.471184,57.2392766 108.821637,58.2792433 L108.821637,58.2792433 Z" id="Path" fill="#84E772" fill-rule="nonzero"></path>
                <path d="M120.432296,49.5051717 C120.243996,50.5779613 120.269909,51.477999 120.491031,51.5177319 C120.712154,51.5574649 121.045565,50.7196179 121.233865,49.6468283 C121.422164,48.5740387 121.396251,47.674001 121.175129,47.634268 C120.954006,47.5945351 120.620595,48.4323821 120.432296,49.5051717 L120.432296,49.5051717 Z" id="Path" fill="#84E772" fill-rule="nonzero"></path>
                <path d="M121.309875,42.7989409 C121.252867,43.8855507 121.353063,44.7752232 121.532725,44.7855884 C121.712387,44.794226 121.90587,43.9201011 121.96115,42.8334913 C122.018158,41.745154 121.917962,40.857209 121.7383,40.8468439 C121.558638,40.8382063 121.366884,41.7123311 121.309875,42.7989409 L121.309875,42.7989409 Z" id="Path" fill="#84E772" fill-rule="nonzero"></path>
                <path d="M121.161309,35.8957729 C121.294328,36.9772002 121.546546,37.8357774 121.726208,37.8133196 C121.90587,37.7908618 121.942148,36.8977343 121.809129,35.816307 C121.67611,34.7348798 121.423892,33.8763026 121.24423,33.8987604 C121.064568,33.9212181 121.02829,34.8143457 121.161309,35.8957729 L121.161309,35.8957729 Z" id="Path" fill="#84E772" fill-rule="nonzero"></path>
                <path d="M119.642819,29.1929972 C119.960683,30.2346915 120.335554,31.0431706 120.478939,30.9999826 C120.622323,30.9567946 120.478939,30.0757597 120.161075,29.0340654 C119.843211,27.9923712 119.46834,27.183892 119.324956,27.22708 C119.181571,27.270268 119.324956,28.1513029 119.641092,29.1929972 L119.641092,29.1929972 L119.642819,29.1929972 Z" id="Path" fill="#84E772" fill-rule="nonzero"></path>
                <path d="M88.1259531,49.000736 C89.2833911,49.1026596 90.3112652,48.1611615 90.420099,46.9000723 C90.5306602,45.638983 89.6824481,44.5333705 88.5250101,44.4331744 C87.367572,44.3329783 86.3396979,45.2727489 86.2308641,46.5338381 C86.1203029,47.7949274 86.968515,48.9005399 88.1259531,49.000736 L88.1259531,49.000736 Z" id="Path" fill="#84E772" fill-rule="nonzero"></path>
                <path d="M92.9941031,54.1418341 C93.9770617,54.4994306 95.1258621,53.825698 95.5594695,52.635437 C95.9930769,51.4451761 95.5456494,50.1909969 94.5626908,49.8334004 C93.5797322,49.4758039 92.4309317,50.1495365 91.9973243,51.3397974 C91.5637169,52.5300584 92.0111444,53.7842375 92.9941031,54.1435616 L92.9941031,54.1435616 L92.9941031,54.1418341 Z" id="Path" fill="#84E772" fill-rule="nonzero"></path>
                <path d="M99.717609,56.3167811 C100.700568,56.6743777 101.849368,56.0006451 102.282975,54.8103841 C102.716583,53.6201232 102.269155,52.365944 101.286197,52.0066199 C100.301511,51.6490234 99.1544376,52.322756 98.7208302,53.513017 C98.2872229,54.7032779 98.7346504,55.9574571 99.717609,56.3167811 L99.717609,56.3167811 Z" id="Path" fill="#84E772" fill-rule="nonzero"></path>
                <path d="M104.508021,59.1119077 C105.35796,59.5455151 106.513671,58.9806162 107.087207,57.852546 C107.662471,56.7244757 107.439621,55.4582039 106.589682,55.0245965 C105.739742,54.5909891 104.585759,55.155888 104.010495,56.2839583 C103.435231,57.4120285 103.658081,58.6783003 104.508021,59.1119077 L104.508021,59.1119077 Z" id="Path" fill="#84E772" fill-rule="nonzero"></path>
                <path d="M111.399096,52.1776444 C111.000039,53.33681 111.190066,54.4545151 111.822338,54.6721826 C112.45461,54.88985 113.292457,54.1262864 113.691514,52.9671208 C114.090571,51.8079552 113.900544,50.6902501 113.268272,50.4725826 C112.634272,50.2549152 111.798153,51.0184788 111.399096,52.1776444 L111.399096,52.1776444 Z" id="Path" fill="#84E772" fill-rule="nonzero"></path>
                <path d="M115.970113,51.3328873 C115.672979,52.5231483 115.890647,53.6011205 116.457273,53.7427771 C117.022172,53.8844337 117.721817,53.0327665 118.018951,51.8442331 C118.316084,50.6539722 118.098417,49.576 117.53179,49.4343434 C116.966891,49.2926868 116.267246,50.1426264 115.970113,51.3328873 L115.970113,51.3328873 Z" id="Path" fill="#84E772" fill-rule="nonzero"></path>
                <path d="M106.919638,49.7107465 C106.622505,50.9010075 107.004286,52.0204401 107.771305,52.2104672 C108.538324,52.4022219 109.400356,51.5920153 109.697489,50.4017543 C109.994623,49.2114934 109.612841,48.0920607 108.845822,47.9003061 C108.078803,47.7085514 107.216771,48.518758 106.919638,49.709019 L106.919638,49.709019 L106.919638,49.7107465 Z" id="Path" fill="#84E772" fill-rule="nonzero"></path>
                <path d="M89.7895544,41.6017699 C90.9176246,41.6017699 91.8314824,40.5756233 91.8314824,39.3093515 C91.8314824,38.0430797 90.9176246,37.0169331 89.7895544,37.0169331 C88.6614841,37.0169331 87.7476263,38.0430797 87.7476263,39.3093515 C87.7476263,40.5756233 88.6614841,41.6017699 89.7895544,41.6017699 L89.7895544,41.6017699 Z" id="Path" fill="#84E772" fill-rule="nonzero"></path>
                <path d="M96.5597033,46.171059 C97.679136,46.3092606 98.7121927,45.4005853 98.8659419,44.1446786 C99.0196911,42.8870444 98.2371248,41.7572467 97.1194197,41.6207726 C95.999987,41.4825711 94.9669303,42.3912463 94.8131811,43.647153 C94.6594319,44.9047872 95.4402707,46.034585 96.5597033,46.171059 L96.5597033,46.171059 Z" id="Path" fill="#84E772" fill-rule="nonzero"></path>
                <path d="M103.037902,48.8228015 C104.053683,48.9471829 105.003819,48.02987 105.157568,46.7722358 C105.311317,45.5163291 104.613399,44.395169 103.59589,44.2707876 C102.578381,44.1464061 101.629973,45.063719 101.476224,46.3213532 C101.322475,47.5789874 102.020393,48.6984201 103.037902,48.8228015 L103.037902,48.8228015 Z" id="Path" fill="#84E772" fill-rule="nonzero"></path>
                <path d="M113.974828,47.9728619 C114.769487,48.1266111 115.609061,47.2455762 115.850914,46.0017621 C116.092766,44.7579481 115.643611,43.6264228 114.85068,43.470946 C114.056021,43.3171968 113.216447,44.1999593 112.974594,45.4420458 C112.732741,46.6858598 113.181896,47.8173851 113.974828,47.9728619 L113.974828,47.9728619 L113.974828,47.9728619 Z" id="Path" fill="#84E772" fill-rule="nonzero"></path>
                <path d="M118.238346,46.8845246 C118.801517,46.9346226 119.343958,45.9741218 119.451064,44.7424004 C119.558171,43.510679 119.190209,42.4707122 118.628765,42.4223417 C118.065594,42.3739711 117.523153,43.3327445 117.414319,44.5644659 C117.307213,45.7961873 117.675174,46.836154 118.238346,46.8845246 L118.238346,46.8845246 Z" id="Path" fill="#84E772" fill-rule="nonzero"></path>
                <path d="M118.943174,39.3058965 C119.504618,39.2471608 119.855304,38.2020115 119.72574,36.9720176 C119.596176,35.7420237 119.03646,34.791888 118.475016,34.8506236 C117.913572,34.9093593 117.562886,35.9545086 117.69245,37.1845025 C117.822014,38.4144964 118.38173,39.3646321 118.943174,39.3058965 L118.943174,39.3058965 Z" id="Path" fill="#84E772" fill-rule="nonzero"></path>
                <path d="M118.321267,31.829192 C118.86198,31.6633501 119.005364,30.5715578 118.644313,29.3882069 C118.283261,28.2048561 117.550793,27.3808292 117.011807,27.5449436 C116.471093,27.709058 116.327709,28.8025778 116.688761,29.9859287 C117.049812,31.1692795 117.780553,31.9933064 118.321267,31.829192 L118.321267,31.829192 Z" id="Path" fill="#84E772" fill-rule="nonzero"></path>
                <path d="M90.6204912,33.9730437 C91.8038421,33.8072018 92.6209588,32.6549463 92.4447518,31.4007672 C92.2685449,30.146588 91.1663874,29.265553 89.981309,29.4313949 C88.7979581,29.5972368 87.9808414,30.7494923 88.1570484,32.0036715 C88.3332554,33.2578506 89.4354129,34.1388856 90.6204912,33.9730437 L90.6204912,33.9730437 Z" id="Path" fill="#84E772" fill-rule="nonzero"></path>
                <path d="M98.0211848,37.9860716 C99.2045357,37.8202297 100.021652,36.6679742 99.8454455,35.413795 C99.6692385,34.1596158 98.567081,33.2785809 97.3820026,33.4444227 C96.1986518,33.6102646 95.3798075,34.7625201 95.557742,36.0166993 C95.733949,37.2708785 96.8361065,38.1519134 98.0211848,37.9860716 L98.0211848,37.9860716 L98.0211848,37.9860716 Z" id="Path" fill="#84E772" fill-rule="nonzero"></path>
                <path d="M104.328359,40.8883043 C105.366598,40.9073071 106.225175,39.8949806 106.247633,38.6287088 C106.270091,37.362437 105.446064,36.3207427 104.407824,36.3034675 C103.369585,36.2861923 102.511008,37.2967913 102.48855,38.5630631 C102.466093,39.8293349 103.290119,40.8710291 104.328359,40.8883043 L104.328359,40.8883043 Z" id="Path" fill="#84E772" fill-rule="nonzero"></path>
                <path d="M109.896154,44.6577519 C110.858382,44.7251252 111.708322,43.7559867 111.798153,42.4914424 C111.886256,41.2286257 111.177973,40.148926 110.217473,40.0832802 C109.255244,40.015907 108.405305,40.9850454 108.315474,42.2495897 C108.22737,43.5124065 108.935653,44.5921062 109.896154,44.6594794 L109.896154,44.6594794 L109.896154,44.6577519 Z" id="Path" fill="#84E772" fill-rule="nonzero"></path>
                <path d="M104.685955,33.3960522 C105.710374,33.2336654 106.382379,32.0883199 106.183715,30.8375958 C105.98505,29.5868717 104.993454,28.7041092 103.969035,28.866496 C102.944615,29.0288829 102.274338,30.1742283 102.471275,31.4249524 C102.66994,32.6756766 103.661536,33.558439 104.685955,33.3960522 L104.685955,33.3960522 Z" id="Path" fill="#84E772" fill-rule="nonzero"></path>
                <path d="M110.834197,37.0238432 C111.780878,36.8562738 112.371689,35.7109283 112.152294,34.4636593 C111.9329,33.2163902 110.986219,32.3405378 110.037811,32.5081072 C109.09113,32.6756766 108.500318,33.8227495 108.719713,35.0682911 C108.939108,36.3155602 109.885789,37.1914126 110.834197,37.0238432 L110.834197,37.0238432 Z" id="Path" fill="#84E772" fill-rule="nonzero"></path>
                <path d="M115.3102,40.3579558 C116.082401,40.2767624 116.602385,39.1901527 116.469366,37.9307909 C116.336347,36.6714292 115.603878,35.7161109 114.82995,35.7973043 C114.057749,35.8784977 113.537765,36.9651075 113.670784,38.2244692 C113.803803,39.483831 114.536271,40.4391493 115.3102,40.3579558 L115.3102,40.3579558 Z" id="Path" fill="#84E772" fill-rule="nonzero"></path>
                <path d="M115.196184,33.3632293 C115.949382,33.1749297 116.312161,32.0261292 116.006391,30.7978628 C115.70062,29.5695965 114.840315,28.7248394 114.087116,28.9131391 C113.333918,29.1014387 112.969411,30.2502392 113.27691,31.4785055 C113.582681,32.7067719 114.442985,33.551529 115.196184,33.3632293 L115.196184,33.3632293 Z" id="Path" fill="#84E772" fill-rule="nonzero"></path>
                <path d="M97.3802751,29.4210298 C98.563626,29.1912697 99.322007,27.9768235 99.0749717,26.7088242 C98.8279365,25.4408248 97.6704984,24.5995228 96.4871475,24.8292829 C95.3037966,25.059043 94.5454156,26.2734892 94.7924509,27.5414886 C95.0394862,28.8094879 96.1969242,29.6507899 97.3802751,29.4210298 L97.3802751,29.4210298 Z" id="Path" fill="#84E772" fill-rule="nonzero"></path>
                <path d="M110.17774,28.730022 C111.008677,28.4277061 111.34036,27.2478102 110.920573,26.0920997 C110.500786,24.9381166 109.486732,24.2471088 108.655795,24.5494248 C107.824858,24.8517407 107.493174,26.033364 107.912962,27.1873471 C108.332749,28.3413301 109.346803,29.0323379 110.17774,28.730022 L110.17774,28.730022 Z" id="Path" fill="#84E772" fill-rule="nonzero"></path>
                <path d="M113.978283,26.4134183 C114.683111,26.0851896 114.833405,24.9156589 114.315149,23.8031363 C113.795166,22.6906138 112.803569,22.0531591 112.098741,22.3831153 C111.393913,22.711344 111.243619,23.8808747 111.761875,24.9933973 C112.281858,26.1076474 113.273455,26.7433745 113.978283,26.4134183 L113.978283,26.4134183 L113.978283,26.4134183 Z" id="Path" fill="#84E772" fill-rule="nonzero"></path>
                <path d="M116.718129,25.0521329 C117.113731,24.8500132 116.989349,23.8117739 116.43827,22.7303467 C115.887192,21.650647 115.120173,20.9371815 114.724571,21.1393012 C114.328969,21.341421 114.45335,22.3813878 115.004429,23.4610875 C115.555508,24.5407872 116.322527,25.2542527 116.718129,25.0521329 L116.718129,25.0521329 Z" id="Path" fill="#84E772" fill-rule="nonzero"></path>
                <path d="M114.178675,18.9228937 C114.461988,18.6862235 114.057749,17.7412703 113.278637,16.8118648 C112.499526,15.8824593 111.639221,15.322743 111.355908,15.5594132 C111.072595,15.7960834 111.476834,16.7410365 112.255946,17.670442 C113.035057,18.5998475 113.895362,19.1595639 114.178675,18.9228937 L114.178675,18.9228937 Z" id="Path" fill="#84E772" fill-rule="nonzero"></path>
                <path d="M110.262388,13.2168967 C110.454143,13.0026843 109.880606,12.1717474 108.978841,11.3615408 C108.078803,10.5496066 107.190858,10.0659011 106.999104,10.2801136 C106.807349,10.494326 107.380886,11.3252629 108.282651,12.1354695 C109.184416,12.9474037 110.070633,13.4311092 110.262388,13.2168967 L110.262388,13.2168967 L110.262388,13.2168967 Z" id="Path" fill="#84E772" fill-rule="nonzero"></path>
                <path d="M60.3854447,5.57607792 C61.2820273,5.0785523 61.9574874,4.58448171 61.8952967,4.47046543 C61.833106,4.35644914 61.0539947,4.66740265 60.1574121,5.16492827 C59.2608295,5.66245389 58.5853693,6.15652447 58.64756,6.27054076 C58.7097507,6.38455705 59.488862,6.07360354 60.3854447,5.57607792 L60.3854447,5.57607792 L60.3854447,5.57607792 Z" id="Path" fill="#84E772" fill-rule="nonzero"></path>
                <path d="M65.8737742,3.60497815 C66.9431088,3.21628626 67.7446778,2.72221568 67.6652119,2.5028207 C67.585746,2.28342572 66.6528855,2.41989976 65.5835509,2.81031917 C64.5142163,3.19901106 63.7126473,3.69308164 63.7921132,3.91247662 C63.8715791,4.1318716 64.8044396,3.99539756 65.8737742,3.60497815 L65.8737742,3.60497815 Z" id="Path" fill="#84E772" fill-rule="nonzero"></path>
                <path d="M62.983634,6.6454125 C64.0063256,6.14615936 64.7232462,5.51043218 64.5850446,5.22539146 C64.4451155,4.94035073 63.5036174,5.11310269 62.4809258,5.61235583 C61.4582343,6.11160897 60.7413137,6.74733615 60.8795153,7.03237687 C61.0177168,7.31741759 61.9609425,7.14466564 62.983634,6.6454125 L62.983634,6.6454125 Z" id="Path" fill="#84E772" fill-rule="nonzero"></path>
                <path d="M69.4791074,5.40850852 C70.6676408,5.19947866 71.569406,4.68122281 71.4951227,4.25279797 C71.4191118,3.82437313 70.3946927,3.64643862 69.2061593,3.857196 C68.0176259,4.06622586 67.1158607,4.58448171 67.190144,5.01290655 C67.2661549,5.44133139 68.290574,5.6192659 69.4791074,5.40850852 L69.4791074,5.40850852 Z" id="Path" fill="#84E772" fill-rule="nonzero"></path>
                <path d="M72.2569588,2.47345287 C73.4454922,2.264423 74.3576225,1.80663033 74.2954318,1.45076131 C74.2332411,1.09489229 73.2191872,0.977420966 72.0306537,1.18645083 C70.8421203,1.39548069 69.92999,1.85500088 69.9921807,2.20914238 C70.0543714,2.5650114 71.0701529,2.68248273 72.2569588,2.47345287 L72.2569588,2.47345287 Z" id="Path" fill="#84E772" fill-rule="nonzero"></path>
                <path d="M74.4630012,11.4116388 C75.7102703,11.2803474 76.653496,10.5081461 76.56712,9.68757436 C76.480744,8.86700259 75.3993168,8.30728627 74.1503202,8.43857775 C72.9030511,8.56986924 71.9615529,9.34207046 72.0479289,10.1626422 C72.1343049,10.983214 73.2157321,11.5429303 74.4630012,11.4116388 L74.4630012,11.4116388 Z" id="Path" fill="#84E772" fill-rule="nonzero"></path>
                <path d="M79.9997013,13.9044495 C81.2538804,13.9269073 82.2834821,13.2669948 82.2973022,12.4308754 C82.3111224,11.5947559 81.305706,10.9002931 80.0515268,10.8778353 C78.7973477,10.8553776 77.767746,11.51529 77.7539259,12.3514095 C77.7401057,13.1875289 78.7437946,13.8819917 79.9997013,13.9044495 L79.9997013,13.9044495 L79.9997013,13.9044495 Z" id="Path" fill="#84E772" fill-rule="nonzero"></path>
                <path d="M85.0129629,19.3167681 C86.2671421,19.3392259 87.2984712,18.5877549 87.3140189,17.6393467 C87.3295666,16.6909385 86.3258777,15.9049171 85.0716986,15.8841869 C83.8175194,15.8617291 82.7861902,16.6132001 82.7706426,17.5616083 C82.7550949,18.5100165 83.7570562,19.2960379 85.0129629,19.3167681 L85.0129629,19.3167681 Z" id="Path" fill="#84E772" fill-rule="nonzero"></path>
                <path d="M88.7513151,25.9780834 C89.977854,25.9988136 90.9884529,25.1350539 91.0074556,24.0467166 C91.0264583,22.9583793 90.0469548,22.0583416 88.8204159,22.0376114 C87.593877,22.0168811 86.5832781,22.8806409 86.5642754,23.9689782 C86.5452727,25.0573155 87.5247763,25.9573532 88.7513151,25.9780834 L88.7513151,25.9780834 Z" id="Path" fill="#84E772" fill-rule="nonzero"></path>
                <path d="M75.0866358,6.28954348 C76.3408149,6.31200123 77.368689,5.77474266 77.3807817,5.08891741 C77.3928743,4.40481969 76.3857304,3.83128321 75.1298237,3.81055297 C73.8756446,3.78809522 72.8477705,4.32535379 72.8356778,5.00945152 C72.8235852,5.69354924 73.8307291,6.26708572 75.0866358,6.28781596 L75.0866358,6.28781596 L75.0866358,6.28954348 Z" id="Path" fill="#84E772" fill-rule="nonzero"></path>
                <path d="M81.5043708,8.31937891 C82.7360922,8.55950412 83.8624349,8.09825641 84.0196392,7.28977728 C84.1768434,6.48129814 83.3061736,5.63308606 82.0744522,5.39296085 C80.8427308,5.15283564 79.7163881,5.61408335 79.5591838,6.42256248 C79.4019795,7.23104161 80.2743769,8.0792537 81.5060983,8.31937891 L81.5060983,8.31937891 L81.5043708,8.31937891 Z" id="Path" fill="#84E772" fill-rule="nonzero"></path>
                <path d="M86.4761719,11.7364125 C87.6284274,12.1786575 88.8204159,11.8659765 89.1382795,11.0384946 C89.4561431,10.2110128 88.7789554,9.17968363 87.6266999,8.73743863 C86.4744444,8.29519363 85.2824559,8.60787467 84.9645923,9.43535651 C84.6467288,10.2645659 85.3239164,11.2941675 86.4761719,11.7364125 L86.4761719,11.7364125 Z" id="Path" fill="#84E772" fill-rule="nonzero"></path>
                <path d="M90.3751835,16.1916853 C91.3857824,16.8999683 92.6192313,16.8844207 93.1271221,16.157135 C93.6367403,15.4298492 93.2290457,14.2672286 92.2167193,13.5589456 C91.2043928,12.8506626 89.9726714,12.8662103 89.4630532,13.593496 C88.9534349,14.3207817 89.3611295,15.4834023 90.3734559,16.1916853 L90.3734559,16.1916853 L90.3751835,16.1916853 Z" id="Path" fill="#84E772" fill-rule="nonzero"></path>
                <path d="M93.2376833,21.6160966 C93.9805167,22.6025103 95.2087831,22.930739 95.9775293,22.3502924 C96.748003,21.7698459 96.7704607,20.500119 96.0276273,19.5137054 C95.2847939,18.5272917 94.0565276,18.199063 93.2877814,18.7795096 C92.5173077,19.3599561 92.4948499,20.629683 93.2376833,21.6160966 L93.2376833,21.6160966 Z" id="Path" fill="#84E772" fill-rule="nonzero"></path>
                <path d="M101.839003,24.8431031 C102.581836,25.8295167 103.758277,26.1957509 104.468288,25.6619473 C105.176571,25.1281438 105.14893,23.8946949 104.406097,22.9100087 C103.663264,21.9235951 102.486823,21.557361 101.776812,22.0911645 C101.068529,22.624968 101.09617,23.8566894 101.839003,24.8431031 L101.839003,24.8431031 Z" id="Path" fill="#84E772" fill-rule="nonzero"></path>
                <path d="M98.656912,18.3407196 C99.4671187,19.2718526 100.666017,19.5568934 101.336295,18.9729918 C102.006572,18.3908177 101.892556,17.1642788 101.082349,16.2314183 C100.272143,15.3002853 99.0732442,15.0152446 98.4029667,15.5974186 C97.7326891,16.1795927 97.8467054,17.4061316 98.656912,18.3389921 L98.656912,18.3389921 L98.656912,18.3407196 Z" id="Path" fill="#84E772" fill-rule="nonzero"></path>
                <path d="M94.6818896,12.3980525 C95.5698347,13.2566297 96.7566406,13.4691146 97.330177,12.8731204 C97.905441,12.2788536 97.6497681,11.1006853 96.7618231,10.2421081 C95.8738781,9.38525845 94.6870722,9.17104603 94.1135357,9.76704026 C93.5382717,10.361307 93.7922171,11.5394753 94.6818896,12.3980525 L94.6818896,12.3980525 Z" id="Path" fill="#84E772" fill-rule="nonzero"></path>
                <path d="M89.6582629,8.29864867 C90.7258699,8.84281732 91.9057658,8.66661033 92.2944576,7.90477422 C92.6831495,7.14293812 92.1320708,6.08396865 91.0644638,5.53980001 C89.9968567,4.99563136 88.8169609,5.17183835 88.428269,5.93367446 C88.0395771,6.69551056 88.5906558,7.75448003 89.6582629,8.29864867 L89.6582629,8.29864867 Z" id="Path" fill="#84E772" fill-rule="nonzero"></path>
                <path d="M84.8954916,4.73132087 C86.0702048,4.89716275 87.0894413,4.54129373 87.1740898,3.94011694 C87.2587383,3.33721262 86.3759758,2.7153056 85.2012625,2.55119124 C84.0265492,2.38534937 83.0073127,2.74121839 82.9226643,3.34239518 C82.8380158,3.94529949 83.7207783,4.56720652 84.8954916,4.73132087 L84.8954916,4.73132087 L84.8954916,4.73132087 Z" id="Path" fill="#84E772" fill-rule="nonzero"></path>
                <path d="M78.7697074,3.02971415 C79.9530582,2.96752345 80.8928288,2.52182341 80.8669161,2.03293539 C80.8410033,1.54404737 79.8614997,1.19854346 78.6764213,1.25900665 C77.4930704,1.32119735 76.5532998,1.7686249 76.5792126,2.25751293 C76.6051254,2.74640095 77.584629,3.09190485 78.7697074,3.02971415 L78.7697074,3.02971415 Z" id="Path" fill="#84E772" fill-rule="nonzero"></path>
                <path d="M77.5068906,0.649192258 C78.645326,0.548996126 79.5574563,0.334783706 79.5436361,0.168941832 C79.5298159,0.00309995883 78.5935004,-0.0487256266 77.455065,0.0497429858 C76.3149021,0.149939118 75.4044993,0.364151538 75.4183195,0.529993411 C75.4321397,0.695835285 76.3684552,0.74766087 77.5068906,0.649192258 L77.5068906,0.649192258 Z" id="Path" fill="#84E772" fill-rule="nonzero"></path>
                <path d="M90.1920664,1.64769854 C91.3011339,1.92410166 92.2339945,2.01738771 92.2737274,1.8567284 C92.3134604,1.69606908 91.4462456,1.34192758 90.337178,1.06379694 C89.2281105,0.787393819 88.29525,0.692380246 88.255517,0.85476708 C88.2157841,1.0154264 89.0829989,1.3695679 90.1920664,1.64769854 L90.1920664,1.64769854 L90.1920664,1.64769854 Z" id="Path" fill="#84E772" fill-rule="nonzero"></path>
                <path d="M104.198795,8.00324284 C105.13511,8.65970025 105.97814,9.07257742 106.080063,8.92746578 C106.181987,8.78235414 105.504799,8.1328068 104.568484,7.47634938 C103.632168,6.81989197 102.789139,6.4070148 102.687215,6.55212644 C102.585291,6.69723808 103.262479,7.34678542 104.198795,8.00324284 L104.198795,8.00324284 Z" id="Path" fill="#84E772" fill-rule="nonzero"></path>
                <path d="M99.2788191,4.66049257 C100.242775,5.15110812 101.071984,5.45342403 101.132447,5.3359527 C101.192911,5.21848138 100.460442,4.7244108 99.4964865,4.23379525 C98.5325306,3.74317971 97.7033213,3.4408638 97.6428581,3.55833512 C97.5823949,3.67580645 98.3148632,4.16987703 99.2788191,4.66049257 L99.2788191,4.66049257 Z" id="Path" fill="#84E772" fill-rule="nonzero"></path>
                <path d="M98.3787814,4.84360964 C98.5048903,4.58448171 97.7603294,3.96257469 96.7169076,3.45295643 C95.6734858,2.94333817 94.7250776,2.74121839 94.5989687,2.9986188 C94.4728598,3.25774673 95.2174207,3.87965375 96.2608425,4.38927201 C97.3042642,4.89889027 98.2544,5.10101005 98.3805089,4.84360964 L98.3805089,4.84360964 L98.3787814,4.84360964 Z" id="Path" fill="#84E772" fill-rule="nonzero"></path>
                <path d="M96.4301394,6.12024656 C96.5925262,5.78856282 95.8773331,5.10792013 94.8321838,4.59830187 C93.788762,4.08868361 92.810986,3.94529949 92.6485992,4.27698324 C92.4862123,4.60866699 93.2014054,5.28930968 94.2465547,5.79892793 C95.2899765,6.30854619 96.2677525,6.45193031 96.4301394,6.12024656 L96.4301394,6.12024656 Z" id="Path" fill="#84E772" fill-rule="nonzero"></path>
                <path d="M91.3408669,3.26983936 C91.4514281,2.9277905 90.6688618,2.36634666 89.5926171,2.01738771 C88.5163725,1.66842877 87.5524166,1.66151869 87.4418553,2.00356756 C87.3312941,2.34561642 88.1138604,2.90706026 89.1901051,3.25601921 C90.2663497,3.60670567 91.2303056,3.61188823 91.3408669,3.26983936 L91.3408669,3.26983936 Z" id="Path" fill="#84E772" fill-rule="nonzero"></path>
                <path d="M85.4344777,0.991241122 C85.4448428,0.704472882 84.5119822,0.438434877 83.3510891,0.396974408 C82.190196,0.35724146 81.2417878,0.555906204 81.2314227,0.844401963 C81.2210576,1.1311702 82.1539181,1.39720821 83.3148112,1.43866868 C84.4757043,1.47840163 85.4258401,1.27973688 85.4344777,0.991241122 L85.4344777,0.991241122 Z" id="Path" fill="#84E772" fill-rule="nonzero"></path>
                <path d="M103.516424,8.68906808 C103.721999,8.38329713 103.10873,7.60936839 102.146501,6.95982105 C101.184273,6.31027371 100.235865,6.03214307 100.028563,6.33791402 C99.8212602,6.64368498 100.436257,7.41761372 101.398485,8.06716106 C102.362441,8.7167084 103.309122,8.99483904 103.516424,8.68906808 L103.516424,8.68906808 Z" id="Path" fill="#84E772" fill-rule="nonzero"></path>
                <path d="M108.045981,13.8007983 C108.343114,13.4708421 107.883594,12.572532 107.021562,11.7951482 C106.157802,11.0177644 105.218031,10.6549853 104.920898,10.9849415 C104.623764,11.3148977 105.083285,12.2132079 105.945317,12.9888642 C106.809077,13.7662479 107.748847,14.129027 108.045981,13.7990708 L108.045981,13.7990708 L108.045981,13.8007983 Z" id="Path" fill="#84E772" fill-rule="nonzero"></path>
                <path d="M111.596033,19.4048716 C111.976087,19.1284685 111.697957,18.0971394 110.975854,17.1003606 C110.252023,16.1035818 109.357168,15.5214078 108.975386,15.7978109 C108.593604,16.074214 108.871735,17.1055432 109.595566,18.1023219 C110.319396,19.0991007 111.214251,19.6812748 111.596033,19.4048716 L111.596033,19.4048716 Z" id="Path" fill="#84E772" fill-rule="nonzero"></path>
                <path d="M107.935419,21.4364346 C108.500318,21.0252849 108.372482,19.8851221 107.648651,18.8883433 C106.92482,17.8915645 105.879671,17.4182242 105.314772,17.8293738 C104.749873,18.2405235 104.87771,19.3806864 105.60154,20.3774651 C106.325371,21.3742439 107.37052,21.8475842 107.937147,21.4364346 L107.937147,21.4364346 L107.935419,21.4364346 Z" id="Path" fill="#84E772" fill-rule="nonzero"></path>
                <path d="M104.872527,15.5991461 C105.370053,15.1655387 105.15584,14.1048418 104.394004,13.2289894 C103.632168,12.353137 102.611204,11.9920854 102.111951,12.4256928 C101.614425,12.8575727 101.828638,13.9199972 102.590474,14.7958496 C103.35231,15.671702 104.373274,16.0327535 104.872527,15.5991461 L104.872527,15.5991461 Z" id="Path" fill="#84E772" fill-rule="nonzero"></path>
                <path d="M101.272377,10.3768547 C101.629973,9.88623911 101.142813,8.92228322 100.184039,8.22609285 C99.2252659,7.52990249 98.1593864,7.36406062 97.8017899,7.85467616 C97.4441933,8.3452917 97.9330813,9.30924759 98.8901272,10.005438 C99.8489005,10.7016283 100.91478,10.8674702 101.270649,10.3768547 L101.270649,10.3768547 L101.272377,10.3768547 Z" id="Path" fill="#84E772" fill-rule="nonzero"></path>
                <path d="M105.131655,74.4816488 C104.293808,75.160564 103.685721,75.7980187 103.773825,75.9068524 C103.861928,76.0156862 104.611672,75.5527109 105.449519,74.8737958 C106.287366,74.1948806 106.895453,73.5574259 106.807349,73.4485922 C106.719246,73.3397584 105.969502,73.8027337 105.129928,74.4816488 L105.129928,74.4816488 L105.131655,74.4816488 Z" id="Path" fill="#84E772" fill-rule="nonzero"></path>
                <path d="M99.3012768,78.2493689 C98.3666887,78.788355 97.6670433,79.323886 97.7361441,79.4448124 C97.8052449,79.5657388 98.6189066,79.227145 99.5534947,78.6881589 C100.488083,78.1491728 101.187728,77.6136417 101.118627,77.4927154 C101.049527,77.371789 100.235865,77.7103828 99.3012768,78.2510964 L99.3012768,78.2510964 L99.3012768,78.2493689 Z" id="Path" fill="#84E772" fill-rule="nonzero"></path>
                <path d="M50.1395264,53.5337472 C49.3949655,52.5093281 48.329086,52.0152575 47.7607321,52.4281347 C47.1906506,52.8427394 47.3323072,54.0088151 48.0768681,55.0332341 C48.821429,56.0576532 49.8873086,56.5517238 50.4556625,56.1388466 C51.0257439,55.7242419 50.8840873,54.5581663 50.1395264,53.5337472 L50.1395264,53.5337472 Z" id="Path" fill="#84E772" fill-rule="nonzero"></path>
                <path d="M7.32468275,27.1147912 L3.53277741,27.1147912 L3.53277741,23.1691367 C3.53277741,22.5973277 3.3548429,22.402118 2.78303394,22.402118 L0.767018665,22.402118 C0.195209705,22.402118 4.61690059e-14,22.5990552 4.61690059e-14,23.1691367 L4.61690059e-14,34.3444604 C4.61690059e-14,34.8972667 0.196937225,35.0942039 0.767018665,35.0942039 L2.78303394,35.0942039 C3.3548429,35.0942039 3.53277741,34.8972667 3.53277741,34.3444604 L3.53277741,30.2381465 L7.14847576,30.2381465 L7.32295523,27.1165188 L7.32295523,27.1165188 L7.32468275,27.1147912 Z" id="Path" fill="#FFFFFF" fill-rule="nonzero"></path>
                <path d="M14.7599267,30.7201245 C14.6493655,30.6112907 14.5249841,30.5197322 14.3919651,30.455814 C14.3004066,30.412626 14.205393,30.3798031 14.1069244,30.3573454 C13.6491317,30.2502392 13.2967177,30.3918958 13.234527,30.412626 C13.1723363,30.4333562 12.878658,30.5940155 12.6039824,30.8600535 L12.6039824,30.8600535 C12.4657808,30.9896175 12.3327618,31.124364 12.1997428,31.257383 C12.0857265,31.3713993 11.9751653,31.5113284 11.8421463,31.6011594 L11.8421463,31.6011594 C11.7264025,31.6788978 11.5691982,31.7341784 11.4275416,31.7151757 C11.3117978,31.6979005 11.2254218,31.6167071 11.1338633,31.5527889 C11.0837652,31.5182385 10.9386536,31.3731268 10.8730078,31.2280152 C10.8056346,31.0829036 10.7641741,30.9464295 10.7158036,30.5957431 C10.667433,30.2450566 10.6363377,29.4521251 10.6363377,29.4521251 L10.5914222,27.5034831 L10.5672369,25.5306558 C10.5672369,25.5306558 10.5482342,23.5906514 10.5482342,23.1777743 C10.5482342,22.3675676 10.1267194,22.3675676 9.77776046,22.3675676 L7.75310759,22.3675676 C7.40414864,22.3675676 7.00854668,22.3675676 7.00854668,23.1777743 L7.00854668,30.0947624 C7.00854668,30.0947624 7.00854668,30.9982551 7.16056839,31.7618187 C7.27112964,32.3422653 7.4093312,32.7447773 7.56480796,33.1421068 L7.56480796,33.1421068 C7.68055177,33.4409677 7.81702581,33.7398286 7.99668784,34.0075941 L7.99668784,34.0075941 C8.18325995,34.2839972 8.43202276,34.5275775 8.67387549,34.7538825 L8.67387549,34.7538825 C8.92782086,34.9905527 9.22322669,35.1857624 9.53590773,35.3360566 L9.53590773,35.3360566 C9.77776046,35.4535279 10.0351609,35.5312663 10.2942888,35.593457 C10.5585993,35.6573752 10.8263648,35.7005632 11.0975854,35.7126559 L11.0975854,35.7126559 C11.4396342,35.7282035 11.7816831,35.6901981 12.1185494,35.6349175 L12.1185494,35.6349175 C12.4433231,35.5813644 12.7525491,35.4327977 13.0462274,35.2894136 C13.2984452,35.1667597 13.5351154,35.0130105 13.7562379,34.8402585 L13.7562379,34.8402585 C14.0067282,34.6450488 14.255491,34.439474 14.4662484,34.1993488 L14.4662484,34.1993488 C14.734014,33.8953053 14.9447713,33.5325262 15.1002481,33.159382 C15.1451636,33.0505483 15.1866241,32.9382595 15.2159919,32.8242432 C15.2747276,32.6013932 15.2833652,32.3768157 15.2833652,32.1470556 C15.2833652,31.789459 15.2298121,31.4525927 15.0656977,31.1364567 L15.0656977,31.1364567 C14.9896868,30.9896175 14.8825806,30.8462334 14.7564717,30.721852 L14.7564717,30.721852 L14.7599267,30.7201245 Z" id="Path" fill="#FFFFFF" fill-rule="nonzero"></path>
                <path d="M19.5209705,30.7408547 C21.4834327,30.7408547 23.0744782,29.1498092 23.0744782,27.1873471 C23.0744782,25.2248849 21.4834327,23.6338394 19.5209705,23.6338394 C17.5585084,23.6338394 15.9674629,25.2248849 15.9674629,27.1873471 C15.9674629,29.1498092 17.5585084,30.7408547 19.5209705,30.7408547 L19.5209705,30.7408547 Z" id="Path" fill="#84E772" fill-rule="nonzero"></path>
                <path d="M19.5209705,30.7408547 C21.4834327,30.7408547 23.0744782,29.1498092 23.0744782,27.1873471 C23.0744782,25.2248849 21.4834327,23.6338394 19.5209705,23.6338394 C17.5585084,23.6338394 15.9674629,25.2248849 15.9674629,27.1873471 C15.9674629,29.1498092 17.5585084,30.7408547 19.5209705,30.7408547 L19.5209705,30.7408547 Z" id="Path" stroke="#FFFFFF" stroke-width="3.24"></path>
                <path d="M41.1944304,76.1936207 L44.9414202,73.614434 L43.0100534,78.5171344 L47.976672,76.6963289 L45.2955617,80.3483051 L46.1023133,81.1654218 L50.7873462,74.5697523 L44.837769,76.7412444 L47.1491901,70.8849532 L40.3824962,75.3730489 L41.1961579,76.1953482 L41.1961579,76.1953482 L41.1944304,76.1936207 Z M56.0942862,79.5726489 L52.7774487,77.1800343 L48.4413747,83.1900747 L51.7582122,85.5826893 L52.3732092,84.7310221 L49.9633194,82.9931375 L51.4127083,80.9840323 L53.7517697,82.6718189 L54.3667667,81.8201517 L52.0277053,80.1323652 L53.0693995,78.6881589 L55.4792892,80.4260435 L56.0942862,79.5743764 L56.0942862,79.5743764 L56.0942862,79.5726489 Z M58.7978542,81.3053509 L57.806258,80.7888226 L54.3771318,87.3585793 L55.368728,87.8768352 L56.9701386,84.8087605 L59.8032706,86.2875172 L58.20186,89.3555919 L59.1934562,89.8721202 L62.6225824,83.3023635 L61.6309862,82.7858352 L60.2904311,85.3563842 L57.4572991,83.8776275 L58.7978542,81.3070784 L58.7978542,81.3070784 L58.7978542,81.3053509 Z M67.0761278,88.6939519 C67.4786398,88.4261864 67.758498,88.042677 67.9191573,87.5434239 C68.1247321,86.9042417 68.0608139,86.3151575 67.7291301,85.7796265 C67.4268142,85.295921 66.8100898,84.9055016 65.8789567,84.6049132 L64.6316876,84.2041287 L62.365182,91.2593184 L63.4293341,91.6013672 L64.357012,88.7129546 L64.5487667,88.7751453 L65.637104,92.3096502 L66.9396537,92.72771 L65.7200249,89.0187256 C66.2210056,89.0688236 66.6736157,88.9599899 67.0744002,88.6922244 L67.0744002,88.6922244 L67.0761278,88.6939519 Z M65.374521,85.5464113 L65.7545753,85.6673377 C66.7358064,85.9817463 67.1106781,86.5017296 66.8791905,87.2221053 C66.6321552,87.992579 66.0033381,88.2171565 64.9961943,87.8923828 L64.6576004,87.7835491 L65.3762486,85.5446838 L65.3762486,85.5446838 L65.374521,85.5464113 Z M79.3466989,94.6608043 L80.5680552,94.7368152 L77.5310759,86.6554789 L73.378119,94.2859326 L74.5804725,94.3619434 L75.5167881,92.6171487 L78.6833314,92.8158135 L79.3466989,94.6608043 L79.3466989,94.6608043 L79.3466989,94.6608043 Z M76.0471366,91.5979122 L77.3548689,89.1551996 L78.2946395,91.7395688 L76.0471366,91.5979122 L76.0471366,91.5979122 Z M82.5374274,87.327484 L83.1852472,94.7091749 L86.4692618,94.4206791 L86.3777033,93.3738023 L84.2062113,93.5638294 L83.64995,87.2290153 L82.5356999,87.327484 L82.5356999,87.327484 L82.5374274,87.327484 Z M89.758459,86.3237951 C89.1382795,86.4568141 88.6614841,86.7539475 88.3246178,87.2117402 C87.9877515,87.6678053 87.8771902,88.1670584 87.9946616,88.7112271 C88.1674135,89.5179787 88.7962306,90.0241419 89.8776578,90.2297167 L90.639494,90.3696458 C90.8381587,90.4093788 91.0109106,90.4577493 91.1612048,90.5147575 C91.311499,90.5717656 91.437608,90.6408664 91.5429867,90.7220598 C91.6466378,90.8032532 91.7312863,90.8982668 91.7952045,91.0071005 C91.8591227,91.1159343 91.9074933,91.2403157 91.9368611,91.3819723 C92.012872,91.7326587 91.9627739,92.0453398 91.7865669,92.3234704 C91.6103599,92.5998735 91.351232,92.7760805 91.0109106,92.8486363 C90.5790308,92.9419224 90.2162517,92.8555464 89.9243009,92.5912359 C89.7636416,92.4564894 89.6133474,92.1800863 89.4716908,91.7654816 L88.4161763,92.2474595 C88.6614841,92.9021894 89.0259907,93.3720747 89.5096962,93.6571155 C90.0003117,93.9404287 90.5583005,94.014712 91.1871176,93.8799655 C91.8504851,93.7365814 92.3583759,93.3979875 92.7107899,92.864184 C93.0614763,92.3338355 93.1651275,91.7361138 93.0217434,91.0692912 C92.9146372,90.5717656 92.6883321,90.1813462 92.3428282,89.898033 C91.9973243,89.6147198 91.5049812,89.4160551 90.865799,89.3054938 L90.0797776,89.1655647 C89.5079687,89.0636411 89.183195,88.8356085 89.1071841,88.481467 C89.0519035,88.2240666 89.1071841,87.9908515 89.269571,87.7783666 C89.4319578,87.5641541 89.6669005,87.4224975 89.9692164,87.3568518 C90.2162517,87.3032987 90.4287366,87.3102088 90.6066711,87.377582 C90.775968,87.4328627 90.9746327,87.5866119 91.2026653,87.8388297 L91.9765941,87.1219091 C91.3322293,86.4101711 90.5928509,86.1441331 89.7567315,86.3237951 L89.7567315,86.3237951 L89.758459,86.3237951 Z M101.431308,82.5077045 L97.7188689,84.2214039 L100.824949,90.9483649 L104.537388,89.2346655 L104.096871,88.2810747 L101.400213,89.5266163 L100.361974,87.2791134 L102.980893,86.0698498 L102.540376,85.116259 L99.9214563,86.3255226 L99.1751679,84.7085644 L101.871826,83.4630228 L101.431308,82.509432 L101.431308,82.509432 L101.431308,82.5077045 Z M103.435231,81.4262773 L107.32906,87.7317235 L108.280923,87.1443669 L104.387094,80.8389207 L103.435231,81.4262773 L103.435231,81.4262773 Z M112.140202,84.6826516 L108.811272,80.7024466 L116.574744,81.5610238 L111.530387,75.5302532 L110.673538,76.2471738 L113.976555,80.1980109 L106.204445,79.3273411 L111.281625,85.3978447 L112.140202,84.6809241 L112.140202,84.6809241 L112.140202,84.6826516 Z M116.963436,69.2144418 C116.600657,69.7326977 116.450363,70.2751388 116.516009,70.8400377 C116.578199,71.4032091 116.837327,71.8454541 117.293393,72.1650452 C117.968853,72.6383855 118.773877,72.5831049 119.706737,71.9992033 L120.361467,71.5845986 C120.534219,71.4792199 120.694878,71.396299 120.843445,71.3358358 C120.992012,71.2771001 121.131941,71.2408222 121.263232,71.2287296 C121.394524,71.216637 121.520633,71.2287296 121.641559,71.2650075 C121.762486,71.3012854 121.881684,71.3600211 122.000883,71.442942 C122.294562,71.6485168 122.470769,71.9128273 122.529504,72.2358735 C122.58824,72.5589196 122.517412,72.8629631 122.317019,73.1480038 C122.063074,73.5090554 121.740028,73.6921724 121.346153,73.697355 C121.137123,73.7059926 120.838263,73.607524 120.453026,73.4002216 L120.007326,74.4712837 C120.632688,74.7839648 121.218317,74.8807059 121.767668,74.761507 C122.320474,74.6371256 122.781722,74.3106244 123.149684,73.783731 C123.538376,73.2291972 123.68176,72.6349305 123.576381,72.0026583 C123.47273,71.3755688 123.142774,70.8659505 122.584785,70.4755311 C122.168453,70.1835803 121.736573,70.0505613 121.289145,70.0782016 C120.841718,70.1041144 120.347647,70.2958691 119.801751,70.648283 L119.129746,71.0801629 C118.640858,71.3928439 118.248711,71.4463971 117.951577,71.2390947 C117.737365,71.0888005 117.616439,70.8797707 117.593981,70.6137326 C117.568068,70.3459671 117.644079,70.0833842 117.822014,69.8294388 C117.967125,69.6221364 118.127784,69.4822074 118.302264,69.4096515 C118.464651,69.3353682 118.713414,69.3129105 119.052007,69.3440058 L119.133201,68.2919464 C118.176155,68.207298 117.452324,68.5147964 116.961709,69.2144418 L116.961709,69.2144418 L116.963436,69.2144418 Z M124.16201,66.3502145 C124.524789,65.6695718 124.638806,65.0355721 124.502332,64.4482155 C124.365857,63.8608589 123.999623,63.4065212 123.400174,63.0886576 C122.840458,62.7897968 122.277286,62.7310611 121.71066,62.9107231 C121.384159,63.0126468 121.107756,63.1836712 120.881451,63.4255239 C120.656873,63.6639216 120.397745,64.0577961 120.105794,64.6054198 L119.5098,65.7231249 L126.048461,69.2109868 L126.575355,68.2245732 L123.920157,66.8080072 L124.163738,66.3502145 L124.163738,66.3502145 L124.16201,66.3502145 Z M120.945369,65.2221442 L121.119848,64.895643 C121.617374,63.961055 122.204731,63.6742868 122.880191,64.0336108 C123.578109,64.4050275 123.685215,65.0442097 123.201509,65.9511575 L123.004572,66.3191191 L120.947096,65.2204167 L120.947096,65.2204167 L120.945369,65.2221442 Z M128.733027,61.8638463 C129.600242,61.347318 130.182416,60.6338524 130.481277,59.7251771 C130.818143,58.697303 130.752497,57.7039793 130.282612,56.745206 C129.814454,55.7898877 129.075076,55.1455229 128.062749,54.8138392 C127.057333,54.4838829 126.076102,54.5616213 125.122511,55.0453268 C124.16892,55.5273047 123.52801,56.2701381 123.199782,57.2738269 C122.866371,58.2896084 122.937199,59.2760221 123.410539,60.2330679 C123.88388,61.1935687 124.616348,61.836206 125.606216,62.1609797 C126.734287,62.5306688 127.777709,62.4322002 128.734754,61.8638463 L128.734754,61.8638463 L128.733027,61.8638463 Z M124.348582,59.7234496 C124.003078,59.0514445 123.951253,58.3483441 124.191378,57.6158758 C124.433231,56.8799525 124.891023,56.3478765 125.564756,56.0161927 C126.236761,55.681054 126.948499,55.637866 127.69997,55.8831737 C128.441076,56.126754 128.9887,56.5862742 129.337659,57.2651893 C129.681435,57.9406495 129.733261,58.647205 129.48968,59.3865833 C129.26683,60.067226 128.817675,60.5854819 128.14567,60.9413509 C127.471938,61.2989474 126.746379,61.350773 125.968996,61.0951001 C125.22789,60.8515199 124.687176,60.3954547 124.346855,59.7251771 L124.346855,59.7251771 L124.348582,59.7234496 Z M128.841861,48.7364255 C128.510177,48.385739 128.085207,48.1732541 127.565224,48.1006983 C126.900129,48.0074123 126.330047,48.1680716 125.858434,48.5861313 C125.433465,48.9661856 125.151879,49.6399182 125.015405,50.6090567 L124.832288,51.9064238 L132.169063,52.944663 L132.326267,51.837323 L129.322111,51.4123532 L129.349751,51.2136885 L132.649314,49.5431771 L132.841068,48.1888018 L129.392939,50.018245 C129.356661,49.5155368 129.173544,49.0888395 128.841861,48.738153 L128.841861,48.738153 L128.841861,48.7364255 Z M126.027731,50.945923 L126.083012,50.5520485 C126.228123,49.532812 126.675551,49.0750193 127.425295,49.180398 C128.226864,49.2944143 128.553365,49.8748609 128.404798,50.9234652 L128.3547,51.2758792 L126.026004,50.945923 L126.026004,50.945923 L126.027731,50.945923 Z M126.661731,41.6933284 L125.611399,41.6795083 L125.554391,46.2004268 L126.604723,46.214247 L126.627181,44.5109128 L132.98618,44.5921062 L133,43.4744011 L126.641001,43.3932076 L126.663458,41.695056 L126.663458,41.695056 L126.661731,41.6933284 Z" id="Shape" fill="#FFFFFF" fill-rule="nonzero"></path>
            </g>
            <rect id="Rectangle" x="0" y="0" width="186" height="133"></rect>
        </g>
    </g>
</svg>