<?xml version="1.0" encoding="UTF-8" standalone="no"?>
<!-- Created with Inkscape (http://www.inkscape.org/) -->

<svg
   xmlns:dc="http://purl.org/dc/elements/1.1/"
   xmlns:cc="http://creativecommons.org/ns#"
   xmlns:rdf="http://www.w3.org/1999/02/22-rdf-syntax-ns#"
   xmlns:svg="http://www.w3.org/2000/svg"
   xmlns="http://www.w3.org/2000/svg"
   xmlns:sodipodi="http://sodipodi.sourceforge.net/DTD/sodipodi-0.dtd"
   xmlns:inkscape="http://www.inkscape.org/namespaces/inkscape"
   width="340.43158"
   height="187.2121"
   id="svg2"
   version="1.1"
   inkscape:version="0.48.5 r10040"
   sodipodi:docname="Logo.svg">
  <defs
     id="defs4" />
  <sodipodi:namedview
     id="base"
     pagecolor="#ffffff"
     bordercolor="#666666"
     borderopacity="1.0"
     inkscape:pageopacity="0.0"
     inkscape:pageshadow="2"
     inkscape:zoom="1.4"
     inkscape:cx="187.9797"
     inkscape:cy="138.73085"
     inkscape:document-units="px"
     inkscape:current-layer="layer1"
     showgrid="false"
     inkscape:window-width="1920"
     inkscape:window-height="1053"
     inkscape:window-x="1911"
     inkscape:window-y="-9"
     inkscape:window-maximized="1"
     fit-margin-top="0"
     fit-margin-left="0"
     fit-margin-right="0"
     fit-margin-bottom="0" />
  <metadata
     id="metadata7">
    <rdf:RDF>
      <cc:Work
         rdf:about="">
        <dc:format>image/svg+xml</dc:format>
        <dc:type
           rdf:resource="http://purl.org/dc/dcmitype/StillImage" />
        <dc:title />
      </cc:Work>
    </rdf:RDF>
  </metadata>
  <g
     inkscape:label="Layer 1"
     inkscape:groupmode="layer"
     id="layer1"
     transform="translate(-218.67136,-177.91093)">
    <g
       id="g3849"
       transform="translate(-297.14286,-177.14286)">
      <g
         style="fill:#ffff00"
         id="g3844">
        <path
           style="fill:#000000;fill-opacity:1;stroke:#000000;stroke-width:1px;stroke-linecap:butt;stroke-linejoin:miter;stroke-opacity:1"
           d="m 532.44081,355.55379 22.14286,0.17857 17.85714,41.07143 9.46428,-41.25 17.55731,0.0557 -16.66752,71.8471 -16.03617,-0.0631 -21.65514,-49.68688 -10.60661,49.37121 -18.18274,-0.12627 z"
           id="path3062"
           inkscape:connector-curvature="0" />
        <path
           style="fill:#000000;fill-opacity:1;stroke:#000000;stroke-width:1px;stroke-linecap:butt;stroke-linejoin:miter;stroke-opacity:1"
           d="m 617.2032,355.98827 -16.92005,71.08949 20.07678,0 7.32361,-31.94608 27.77919,-0.12627 -8.20749,32.07235 19.82425,0 16.41497,-71.4683 -19.19289,0.25254 -5.93465,26.1377 -28.91562,0.12627 7.82869,-26.39024 z"
           id="path3840"
           inkscape:connector-curvature="0" />
        <path
           style="fill:#000000;fill-opacity:1;stroke:#000000;stroke-width:1px;stroke-linecap:butt;stroke-linejoin:miter;stroke-opacity:1"
           d="m 693.34345,355.862 19.95051,0.25254 5.05077,50.88643 28.158,-51.26524 21.2132,0.37881 -43.18402,71.34202 -20.83439,-0.50507 z"
           id="path3842"
           inkscape:connector-curvature="0" />
      </g>
      <g
         transform="matrix(1.017623,0,0,1.017623,354.64174,-64.223122)"
         id="g2996">
        <path
           sodipodi:nodetypes="sssssss"
           inkscape:connector-curvature="0"
           id="path3004"
           d="m 323.1995,535.97406 c -8.51923,-4.49434 -13.25846,-11.30068 -14.1964,-20.38846 -1.84505,-17.87684 15.84104,-31.96129 32.67581,-26.02164 6.06651,2.14039 11.21985,6.60308 14.05256,12.16925 3.32794,6.53927 3.43532,16.92553 0.23763,22.98579 -2.72379,5.16215 -9.48385,11.04865 -14.18944,12.35585 -6.09715,1.69377 -14.192,1.21419 -18.58016,-1.10079 z"
           style="fill:#f60837" />
        <path
           sodipodi:nodetypes="ssssssscsscccsssss"
           inkscape:connector-curvature="0"
           id="path2998"
           d="m 318.21431,594.84242 c -7.99546,-1.53295 -22.17603,-6.77762 -26.05416,-9.63611 -12.31413,-9.07651 -23.04868,-19.75673 -25.38322,-25.25476 -2.20949,-5.20352 -4.02933,-14.79847 -3.41608,-18.01102 2.18804,-11.46232 11.24842,-20.23526 22.24309,-21.53741 5.8573,-0.69371 9.28664,0.91112 14.65602,6.85859 2.14244,2.37311 7.04701,6.89128 10.89903,10.04038 7.8869,6.44769 12.89527,8.05962 25.05532,8.06398 8.07535,0.003 12.5155,-1.62082 20.21508,-7.39244 11.30491,-8.4742 20.53782,-21.98911 56.46162,-82.64718 l 25.02191,-42.25 27.50224,0 27.50223,0 -2.35154,3.83498 c -2.68328,4.376 -29.21806,48.768 -56.94097,95.26079 -10.36203,17.37767 -21.38849,35.15267 -24.50323,39.5 -16.95913,23.67027 -34.53721,37.45019 -54.18165,42.47439 -8.28781,2.11966 -27.40964,2.48195 -36.72569,0.69581 z"
           style="fill:#010101" />
      </g>
    </g>
  </g>
</svg>
