<?xml version="1.0" standalone="no"?>
<!DOCTYPE svg PUBLIC "-//W3C//DTD SVG 20010904//EN"
 "http://www.w3.org/TR/2001/REC-SVG-20010904/DTD/svg10.dtd">
<svg width="169px" height="57px" viewBox="0 0 169 57" version="1.1" xmlns="http://www.w3.org/2000/svg" xmlns:xlink="http://www.w3.org/1999/xlink">
    <g id="Verbände" stroke="none" stroke-width="1" fill="none" fill-rule="evenodd">
        <g id="OHV">
            <path d="M136.665648,-0.098011017 L150.265648,-0.098011017 L169.265648,56.901989 L154.565648,56.901989 C147.365648,35.5686556 143.665648,24.901989 143.465648,24.901989 C143.265648,24.901989 139.565648,35.5686556 132.365648,56.901989 L117.665648,56.901989 L136.665648,-0.098011017 Z" id="V" fill="#016666" fill-rule="nonzero" transform="translate(143.465648, 28.401989) scale(1, -1) translate(-143.465648, -28.401989) "></path>
            <polygon id="H" fill="#016666" fill-rule="nonzero" transform="translate(87.958126, 28.451989) scale(1, -1) translate(-87.958126, -28.451989) " points="64 0.00198898295 79.1 0.00198898295 79.1 20.901989 96.8 20.901989 96.8 0.101988983 111.916252 0.00198898295 111.916252 56.901989 96.8 56.901989 96.8 36.001989 79.1 36.001989 79.1 56.901989 64 56.901989"></polygon>
            <circle id="O" fill="#CE3434" cx="28.5" cy="28.5" r="28.5"></circle>
            <path d="M53.5901921,2.27619188 C39.1865789,20.9554394 30.6532776,31.587135 27.9902881,34.1712787 C26.9822782,35.1494434 26.1212628,34.85915 25.8199855,34.7704366 C21.1724817,33.4007445 23.9023825,29.2916681 23.6296825,28.1982408 C23.3569825,27.1048135 22.8347911,24.7405678 19.8031797,24.3625212 C15.434178,23.8158075 14.067777,28.4715976 13.519476,32.0310523 C12.9740761,35.5934151 15.2090059,42.8282173 21.2925362,44.1775531 C28.9426408,47.4665591 35.3789899,38.8795131 35.3789899,38.8795131 C35.3789899,38.8795131 44.0219984,27.0851934 61.3080155,3.49655408 L53.5901921,2.27619188 Z" id="Stick" fill="#FFFFFF" transform="translate(37.374116, 23.602109) rotate(-9.000000) translate(-37.374116, -23.602109) "></path>
            <circle id="Ball" stroke="#CE3434" fill="#FFFFFF" cx="31" cy="47" r="6"></circle>
        </g>
    </g>
</svg>