<?xml version="1.0" encoding="utf-8"?>
<!-- Generator: Adobe Illustrator 22.1.0, SVG Export Plug-In . SVG Version: 6.00 Build 0)  -->
<svg version="1.1" id="Ebene_1" xmlns="http://www.w3.org/2000/svg" xmlns:xlink="http://www.w3.org/1999/xlink" x="0px" y="0px"
	 viewBox="0 0 404 379" style="enable-background:new 0 0 404 379;" xml:space="preserve">
<style type="text/css">
	.st0{fill:#FFFFFF;}
	.st1{fill:none;stroke:#000000;stroke-width:4;stroke-miterlimit:3.864;}
	.st2{fill:#FFD000;}
	.st3{clip-path:url(#SVGID_2_);}
	.st4{clip-path:url(#SVGID_2_);fill:#009640;}
	.st5{fill:none;stroke:#000000;stroke-width:6;stroke-miterlimit:3.864;}
	.st6{fill:#009640;}
</style>
<path d="M48.2,304.4c0-12.6,10.2-22.8,22.8-22.8c12.6,0,22.8,10.2,22.8,22.8c0,12.6-10.2,22.8-22.8,22.8
	C58.4,327.3,48.2,317,48.2,304.4"/>
<path class="st0" d="M305.5,120.8l51.4-44.5c16.1-14,33.1,6.2,16.9,20.2L322.4,141C306.3,155,289.3,134.8,305.5,120.8z"/>
<path class="st1" d="M305.5,120.8l51.4-44.5c16.1-14,33.1,6.2,16.9,20.2L322.4,141C306.3,155,289.3,134.8,305.5,120.8z"/>
<path class="st0" d="M123.1,292.1l-31.8,29.4c-3.2,3-6.6,5-11.7,4.5c-9.6-1-12.5-20.2-26.4-13.8c-6.3,2.9-9.5,10.4-6.7,16.7
	c6.5,14.7,24.7,24.3,34.6,23.2c9.6-1.1,16.5-3.6,24.1-10.6l32.6-30.2L123.1,292.1z"/>
<path class="st1" d="M123.1,292.1l-31.8,29.4c-3.2,3-6.6,5-11.7,4.5c-9.6-1-12.5-20.2-26.4-13.8c-6.3,2.9-9.5,10.4-6.7,16.7
	c6.5,14.7,24.7,24.3,34.6,23.2c9.6-1.1,16.5-3.6,24.1-10.6l32.6-30.2L123.1,292.1z"/>
<path class="st2" d="M102.2,48.4h225v167.2c0,66.7-44,129.4-110.7,130.5c-67.7,1.1-114.3-62.8-114.3-130.5V48.4"/>
<g>
	<defs>
		<path id="SVGID_1_" d="M102.2,48.4h225v167.2c0,66.7-44,129.4-110.7,130.5c-67.7,1.1-114.3-62.8-114.3-130.5V48.4"/>
	</defs>
	<clipPath id="SVGID_2_">
		<use xlink:href="#SVGID_1_"  style="overflow:visible;"/>
	</clipPath>
	<rect x="102.2" y="110.9" class="st3" width="225" height="20.7"/>
	<rect x="102.2" y="158.6" class="st3" width="225" height="20.7"/>
	<rect x="102.2" y="207.8" class="st3" width="225" height="20.7"/>
	<rect x="110.7" y="256.3" class="st3" width="216.5" height="20.7"/>
	<rect x="136.1" y="305.5" class="st3" width="191.1" height="20.7"/>
	<polyline class="st4" points="73.6,90.3 341.8,368.3 331.2,378.5 63.1,100.5 73.6,90.3 	"/>
</g>
<path class="st5" d="M102.2,48.4h225v167.2c0,66.7-44,129.4-110.7,130.5c-67.7,1.1-114.3-62.8-114.3-130.5V48.4z"/>
<path class="st6" d="M131.1,139.7c0-4.8,3.9-8.7,8.7-8.7c4.8,0,8.7,3.9,8.7,8.7c0,4.8-3.9,8.7-8.7,8.7
	C135,148.5,131.1,144.6,131.1,139.7"/>
<path class="st6" d="M144.7,152.9c0-4.8,3.9-8.7,8.7-8.7c4.8,0,8.7,3.9,8.7,8.7c0,4.8-3.9,8.7-8.7,8.7
	C148.7,161.6,144.7,157.7,144.7,152.9"/>
<path class="st6" d="M145.3,139.2c0-4.8,3.9-8.7,8.7-8.7c4.8,0,8.7,3.9,8.7,8.7c0,4.8-3.9,8.7-8.7,8.7
	C149.2,147.9,145.3,144,145.3,139.2"/>
<polyline class="st6" points="141.3,139.7 151.6,149 139.1,162.9 128.8,153.6 141.3,139.7 "/>
<path class="st6" d="M168.8,178c0-4.8,3.9-8.7,8.7-8.7s8.7,3.9,8.7,8.7c0,4.8-3.9,8.7-8.7,8.7S168.8,182.8,168.8,178"/>
<path class="st6" d="M182.5,191.1c0-4.8,3.9-8.7,8.7-8.7s8.7,3.9,8.7,8.7c0,4.8-3.9,8.7-8.7,8.7S182.5,196,182.5,191.1"/>
<path class="st6" d="M183,177.4c0-4.8,3.9-8.7,8.7-8.7c4.8,0,8.7,3.9,8.7,8.7c0,4.8-3.9,8.7-8.7,8.7
	C186.9,186.2,183,182.3,183,177.4"/>
<polyline class="st6" points="179,177.9 189.4,187.2 176.8,201.1 166.5,191.8 179,177.9 "/>
<path class="st6" d="M204.8,214.7c0-4.8,3.9-8.7,8.7-8.7s8.7,3.9,8.7,8.7c0,4.8-3.9,8.7-8.7,8.7S204.8,219.5,204.8,214.7"/>
<path class="st6" d="M218.5,227.9c0-4.8,3.9-8.7,8.7-8.7c4.8,0,8.7,3.9,8.7,8.7c0,4.8-3.9,8.7-8.7,8.7
	C222.4,236.6,218.5,232.7,218.5,227.9"/>
<path class="st6" d="M219,214.2c0-4.8,3.9-8.7,8.7-8.7s8.7,3.9,8.7,8.7c0,4.8-3.9,8.7-8.7,8.7S219,219,219,214.2"/>
<polyline class="st6" points="215.1,214.6 225.4,223.9 212.8,237.9 202.5,228.6 215.1,214.6 "/>
<path class="st6" d="M241,250.1c0-4.8,3.9-8.7,8.7-8.7c4.8,0,8.7,3.9,8.7,8.7c0,4.8-3.9,8.7-8.7,8.7
	C244.9,258.8,241,254.9,241,250.1"/>
<path class="st6" d="M254.6,263.2c0-4.8,3.9-8.7,8.7-8.7c4.8,0,8.7,3.9,8.7,8.7c0,4.8-3.9,8.7-8.7,8.7
	C258.6,272,254.6,268.1,254.6,263.2"/>
<path class="st6" d="M255.2,249.6c0-4.8,3.9-8.7,8.7-8.7c4.8,0,8.7,3.9,8.7,8.7c0,4.8-3.9,8.7-8.7,8.7
	C259.1,258.3,255.2,254.4,255.2,249.6"/>
<polyline class="st6" points="251.2,250 261.5,259.3 249,273.2 238.7,263.9 251.2,250 "/>
<path d="M181.3,73c-0.1-7.7-8.1-12.2-21.7-12.2c-13.1,0-22.1,4.7-22.1,11.6c0,3.2,1.4,5.7,4.1,7.4c2.7,1.6,5.7,2.5,14.8,4.5
	c9.6,2,10.9,2.5,10.9,4.1c0,2-2.5,3.2-6.7,3.2c-5.7,0-8.2-1.5-8.5-4.9h-16.6c0.2,8.5,9.4,13.5,24.6,13.5c14.4,0,23.6-5,23.6-12.8
	c0-3.6-2.2-6.5-6.4-8.5c-2.7-1.3-5.9-2.2-12.2-3.4l-1.4-0.2l-2.8-0.6c-0.4-0.1-0.9-0.2-1.3-0.2c-2.9-0.6-3.7-0.7-4.5-1
	c-1-0.3-1.5-0.9-1.5-1.6c0-1.5,2-2.3,5.4-2.3c4.2,0,6.8,1.4,6.8,3.6H181.3"/>
<polyline points="239,61.6 222.5,61.6 222.5,74.6 206.7,74.6 206.7,61.6 190.3,61.6 190.3,99.2 206.7,99.2 206.7,84.4 222.5,84.4 
	222.5,99.2 239,99.2 239,61.6 "/>
<path d="M294.5,61.6h-17l-2.7,6.8c-1.6,4.2-3.4,9.2-4.5,12.3c-0.8,2.8-1.1,4.1-1.8,7c-0.5-2.9-0.8-4.2-1.5-6.8
	c-1.1-3.7-2.8-8.1-4.5-12.6l-2.8-6.7H243l16.1,37.6h18.7L294.5,61.6"/>
<path class="st6" d="M138.1,145.7c0-4.8,3.9-8.7,8.7-8.7c4.8,0,8.7,3.9,8.7,8.7c0,4.8-3.9,8.7-8.7,8.7
	C142,154.5,138.1,150.6,138.1,145.7"/>
<path class="st6" d="M174.9,183.9c0-4.8,3.9-8.7,8.7-8.7c4.8,0,8.7,3.9,8.7,8.7c0,4.8-3.9,8.7-8.7,8.7
	C178.8,192.6,174.9,188.7,174.9,183.9"/>
<path class="st6" d="M210.3,220.2c0-4.8,3.9-8.7,8.7-8.7c4.8,0,8.7,3.9,8.7,8.7c0,4.8-3.9,8.7-8.7,8.7
	C214.2,229,210.3,225.1,210.3,220.2"/>
<path class="st6" d="M246.4,256.1c0-4.8,3.9-8.7,8.7-8.7c4.8,0,8.7,3.9,8.7,8.7c0,4.8-3.9,8.7-8.7,8.7
	C250.3,264.8,246.4,260.9,246.4,256.1"/>
</svg>
