
<svg width="65px" height="123px" viewBox="0 0 65 123" version="1.1" xmlns="http://www.w3.org/2000/svg" xmlns:xlink="http://www.w3.org/1999/xlink">
    <g id="Symbols" stroke="none" stroke-width="1" fill="none" fill-rule="evenodd">
        <g id="TEAM-D" fill="#FFFFFF" fill-rule="nonzero">
            <path d="M20.586,103.102 C20.586,97.4173331 15.9776669,92.809 10.293,92.809 C4.60833307,92.809 7.10542736e-15,97.4173331 7.10542736e-15,103.102 C7.10542736e-15,108.786667 4.60833307,113.395 10.293,113.395 C10.593,113.395 10.8896667,113.382 11.183,113.356 C11.161,113.086 11.15,112.813 11.15,112.537 C11.15,112.232333 11.163,111.932333 11.189,111.637 C10.8899982,111.667898 10.5895939,111.683252 10.289,111.683 C5.81810244,111.680087 2.10045811,108.241064 1.74996184,103.783926 C1.39946557,99.326787 4.53386899,95.3489391 8.94935697,94.6472274 C13.364845,93.9455156 17.5780037,96.755685 18.6265397,101.101891 C19.6750758,105.448097 17.2067261,109.870201 12.957,111.259 C12.8941059,111.683096 12.8626867,112.111266 12.863,112.54 C12.863,112.717333 12.8683333,112.893667 12.879,113.069 C17.4134984,111.886061 20.5778881,107.791258 20.579,103.105" id="Blue"></path>
            <path d="M65.186,103.102 C65.1825061,108.60896 60.8451314,113.137612 55.3434462,113.378609 C49.841761,113.619605 45.125012,109.487561 44.64,104.002 C45.242063,104.064312 45.8357576,104.190695 46.411,104.379 C47.0901345,108.892193 51.1825407,112.084595 55.7253161,111.644907 C60.2680916,111.205219 63.6722943,107.287232 63.4732814,102.727569 C63.2742685,98.1679055 59.5416493,94.5614151 54.9778404,94.5191967 C50.4140315,94.4769783 46.6153317,98.0137989 46.332,102.569 C45.7744444,102.424944 45.2057819,102.327937 44.632,102.279 C45.0739523,96.7730506 49.7830651,92.5975319 55.3023325,92.8177333 C60.8215998,93.0379347 65.1830943,97.5753421 65.185,103.099" id="Red"></path>
            <path d="M43.744,103.959 C47.9875404,103.959982 51.5929311,107.062947 52.226,111.259 C52.8013193,111.44702 53.3949831,111.573395 53.997,111.636 C53.5280563,106.322613 49.0780406,102.247591 43.744,102.247 C43.444,102.247 43.1473333,102.259667 42.854,102.285 C42.876,102.555667 42.8866667,102.829 42.886,103.105 C42.886,103.409667 42.873,103.709667 42.847,104.005 C43.1460191,103.974327 43.4464118,103.958973 43.747,103.959 M52.309,113.066 C52.0412468,117.378023 48.6084322,120.818009 44.2969769,121.094759 C39.9855216,121.37151 36.1410691,118.398649 35.3242109,114.156246 C34.5073528,109.913844 36.9730376,105.725991 41.079,104.382 C41.1439608,103.95806 41.1773859,103.529885 41.179,103.101 C41.179,102.924 41.173,102.747 41.163,102.572 C36.0888975,103.890429 32.8162047,108.811668 33.5626562,114.000847 C34.3091078,119.190026 38.8362234,122.989281 44.0762111,122.824051 C49.3161988,122.658822 53.5949602,118.581898 54.013,113.356 C53.4392044,113.307171 52.8705329,113.210162 52.313,113.066" id="Green"></path>
            <path d="M20.546,104.006 C20.572,103.707333 20.585,103.407333 20.585,103.106 C20.585,102.83 20.5743333,102.556667 20.553,102.286 C20.8463333,102.260667 21.143,102.247667 21.443,102.247 C26.7772251,102.247117 31.2275127,106.322388 31.696,111.636 C31.0939465,111.573627 30.5002582,111.447247 29.925,111.259 C29.2919311,107.062947 25.6865404,103.959982 21.443,103.959 C21.1424055,103.958723 20.8419999,103.974077 20.543,104.005 M31.701,113.355 C31.2823158,118.579977 27.0039487,122.655782 21.7648203,122.820745 C16.5256919,122.985708 11.999386,119.187134 11.2528218,113.998847 C10.5062575,108.81056 13.7779169,103.889904 18.851,102.571 C18.8616667,102.746333 18.867,102.923 18.867,103.101 C18.8653492,103.529884 18.8319244,103.958056 18.767,104.382 C14.6606994,105.725532 12.1944829,109.913351 13.0110759,114.155987 C13.827669,118.398623 17.6721834,121.371796 21.9838215,121.095102 C26.2954597,120.818408 29.728404,117.378212 29.996,113.066 C30.5535448,113.210107 31.1222115,113.307115 31.696,113.356" id="Yellow"></path>
            <path d="M32.593,92.809 C27.2264283,92.8091486 22.7605322,96.9324853 22.333,102.282 C22.9068191,102.330645 23.4755059,102.427657 24.033,102.572 C24.3000905,98.2596177 27.7328286,94.8189542 32.0445835,94.5419196 C36.3563384,94.2648851 40.2011655,97.2379578 41.0179313,101.480701 C41.8346971,105.723445 39.3684425,109.911457 35.262,111.255 C35.1967963,111.678912 35.1633699,112.107105 35.162,112.536 C35.162,112.713 35.167,112.89 35.178,113.065 C40.1919321,111.761864 43.4562931,106.935673 42.7995266,101.796963 C42.1427601,96.6582537 37.7695096,92.8082085 32.589,92.808 M32.589,111.678 C28.3454596,111.677018 24.7400689,108.574053 24.107,104.378 C23.5317576,104.189695 22.938063,104.063312 22.336,104.001 C22.8049746,109.314217 27.2551263,113.389 32.589,113.389 C32.889,113.389 33.1856667,113.376333 33.479,113.351 C33.4576667,113.084333 33.447,112.811 33.447,112.531 C33.447,112.231 33.46,111.925 33.487,111.631 C33.1880167,111.662246 32.8876116,111.677934 32.587,111.678" id="Black"></path>
            <path d="M41.783,64.133 C41.7824478,67.5164581 39.0394582,70.259 35.656,70.259 L23.404,70.259 L23.404,45.753 C23.4322028,43.5455597 22.2707058,41.4936246 20.3635684,40.3816828 C18.4564309,39.269741 16.0985691,39.269741 14.1914316,40.3816828 C12.2842942,41.4936246 11.1227972,43.5455597 11.151,45.753 L11.151,76.386 C11.151,79.7694582 13.8935419,82.5124478 17.277,82.513 L23.404,82.513 C33.5549937,82.513 41.784,74.2839937 41.784,64.133" id="D-Left" fill-opacity="0.6"></path>
            <path d="M35.656,35.542 C45.8069937,35.542 54.036,43.7710063 54.036,53.922 L54.036,64.134 C54.036,74.2849937 45.8069937,82.514 35.656,82.514 L23.403,82.514 C28.2776791,82.514 32.952704,80.5775413 36.3996226,77.1306226 C39.8465413,73.683704 41.783,69.0086791 41.783,64.134 L41.783,41.668 C41.7824478,38.2845419 39.0394582,35.542 35.656,35.542" id="D-Right" fill-opacity="0.8"></path>
            <path d="M17.276,35.542 C13.8924275,35.542 11.1495,32.7990725 11.1495,29.4155 C11.1495,26.0319275 13.8924275,23.289 17.276,23.289 L35.656,23.289 C40.5305871,23.289 45.2056146,25.2249711 48.652562,28.6717309 C52.0995094,32.1184907 54.036,36.7934129 54.036,41.668 L54.036,53.921 C54.036,43.7700063 45.8069937,35.541 35.656,35.541 L17.276,35.542 Z" id="D-Top"></path>
            <path d="M63.471,1.488 C63.4707276,0.833254424 63.0416727,0.255948961 62.4148197,0.0668797785 C61.7879667,-0.122189404 61.1112563,0.121599036 60.749,0.667 C60.74,0.679 58.018,4.932 58.018,4.932 C57.8954903,5.09358184 57.7037504,5.18766815 57.5009859,5.18569765 C57.2982214,5.18372715 57.1083463,5.08593223 56.989,4.922 L54.277,0.675 C53.9176748,0.125536462 53.2400141,-0.122522026 52.6108734,0.0651123955 C51.9817326,0.252746816 51.5506522,0.831475331 51.5509998,1.488 L51.5509998,11.932 C51.5509998,12.5052716 52.0157284,12.97 52.589,12.97 L53.482,12.97 C54.0552716,12.97 54.52,12.5052716 54.52,11.932 L54.52,5.804 L56.258,8.528 C56.4928017,8.89556192 56.8988422,9.11799826 57.335,9.118 L57.676,9.118 C58.1119633,9.11821636 58.5179619,8.89617997 58.753,8.529 L60.501,5.793 L60.501,11.932 C60.501,12.5052716 60.9657284,12.97 61.539,12.97 L62.432,12.97 C63.0052716,12.97 63.47,12.5052716 63.47,11.932 L63.471,1.488 Z M44.461,11.976 C44.461,11.962 44.447,11.932 44.447,11.932 L40.306,0.875 L40.306,0.867 C40.0564801,0.339687978 39.5253679,0.00343396254 38.942,0.00343396254 C38.3586321,0.00343396254 37.8275199,0.339687978 37.578,0.867 L33.434,11.933 C33.424,11.958 33.41,12.018 33.41,12.019 C33.3195151,12.3963345 33.523941,12.7820438 33.887,12.919 C33.9723086,12.9513305 34.0627705,12.968 34.154,12.968 L35.254,12.968 C35.5718644,12.9645137 35.8548219,12.7658076 35.966,12.468 C36.112,12.077 35.949,12.513 36.166,11.93 L36.735,10.409 L41.154,10.409 L41.725,11.93 C41.943,12.513 41.779,12.077 41.925,12.468 C42.0359427,12.7659894 42.3190445,12.9647968 42.637,12.968 L43.728,12.968 C43.8208606,12.968 43.912973,12.9513942 44,12.919 C44.3799175,12.7758282 44.5837082,12.3625618 44.466,11.974 M37.698,7.839 L38.943,4.512 L40.189,7.839 L37.698,7.839 Z M17.781,11.932 L17.781,1.042 C17.781,0.766266718 17.8906029,0.501841343 18.0856695,0.306962275 C18.2807362,0.112083206 18.5452668,0.00273461667 18.821,0.00299951807 L25.221,0.00299951807 C25.7948239,0.00299951807 26.2600005,0.468176145 26.2600005,1.042 L26.2600005,1.522 C26.2600005,2.09598584 25.7949856,2.56144809 25.221,2.562 L20.752,2.562 L20.752,5.138 L25.031,5.138 C25.6049858,5.13799973 26.0704481,5.60301442 26.071,6.177 L26.071,6.657 C26.071,7.23137614 25.6053761,7.697 25.031,7.697 L20.752,7.697 L20.752,10.411 L25.221,10.411 C25.7949856,10.4115519 26.2600005,10.8770142 26.2600005,11.451 L26.2600005,11.93 C26.2602654,12.2057332 26.1509168,12.4702638 25.9560377,12.6653305 C25.7611587,12.8603971 25.4967333,12.97 25.221,12.97 L18.821,12.97 C18.2477284,12.97 17.783,12.5052716 17.783,11.932 M3.512,2.559 L1.042,2.559 C0.766266718,2.55900013 0.501841343,2.44939711 0.306962275,2.25433048 C0.112083206,2.05926384 0.00273461667,1.79473315 0.00299951807,1.519 L0.00299951807,1.039 C0.00299951807,0.465176145 0.468176145,0 1.042,0 L8.956,0 C9.52982386,0 9.99500048,0.465176145 9.99500048,1.039 L9.99500048,1.519 C9.99526538,1.79473315 9.88591679,2.05926384 9.69103773,2.25433048 C9.49615866,2.44939711 9.23173328,2.55900013 8.956,2.559 L6.486,2.559 L6.486,11.927 C6.486,12.5013761 6.02037614,12.967 5.446,12.967 L4.552,12.967 C3.97762386,12.967 3.512,12.5013761 3.512,11.927 L3.512,2.559 Z" id="Team"></path>
        </g>
    </g>
</svg>
