<?xml version="1.0" encoding="UTF-8" standalone="no"?>
<!DOCTYPE svg PUBLIC "-//W3C//DTD SVG 1.1//EN" "http://www.w3.org/Graphics/SVG/1.1/DTD/svg11.dtd">
<svg version="1.1" id="Ebene_1" xmlns="http://www.w3.org/2000/svg" xmlns:xlink="http://www.w3.org/1999/xlink" x="0px" y="0px"
	 viewBox="0 0 454.8 493" style="enable-background:new 0 0 454.8 493;" xml:space="preserve">
<style type="text/css">
	.st0{fill:#55A932;}
	.st1{fill:#AFCB37;}
	.st2{fill:#008244;}
</style>
<path d="M373.9,451c-0.8-0.8-1.7-1.1-2.8-1.1c-1.1,0-2.1,0.4-2.8,1.1c-0.8,0.8-1.2,1.7-1.2,2.9c0,1.2,0.4,2.1,1.2,2.9
	c0.8,0.8,1.7,1.2,2.8,1.2c1.1,0,2.1-0.4,2.9-1.2c0.8-0.8,1.1-1.7,1.1-2.9C375.1,452.7,374.7,451.8,373.9,451 M357.5,457.6l9.4-33.2
	H360l-3.8,15.2c-0.4,1.6-0.7,3.2-0.9,4.8c-0.3,1.6-0.4,3.3-0.5,5c-0.2-1.8-0.4-3.6-0.6-5.3c-0.3-1.7-0.6-3.2-1-4.7l-3.9-15h-6.7
	l9.5,33.2H357.5z M341.1,451c-0.8-0.8-1.7-1.1-2.8-1.1c-1.1,0-2.1,0.4-2.8,1.1c-0.8,0.8-1.2,1.7-1.2,2.9c0,1.2,0.4,2.1,1.2,2.9
	c0.8,0.8,1.7,1.2,2.8,1.2c1.1,0,2.1-0.4,2.9-1.2c0.8-0.8,1.1-1.7,1.1-2.9C342.2,452.7,341.8,451.8,341.1,451 M332.2,448.1v-1.1
	c0-4-0.8-7-2.3-9.1s-3.7-3.1-6.7-3.1c-2.8,0-5,1-6.6,3.1c-1.6,2.1-2.5,4.9-2.5,8.5c0,3.5,0.8,6.3,2.5,8.4c1.6,2.1,3.8,3.1,6.6,3.1
	c2.2,0,4.1-0.6,5.6-1.9c1.5-1.3,2.5-3,3-5.2h-5.3c-0.3,0.9-0.7,1.5-1.2,1.9c-0.5,0.4-1.1,0.6-1.8,0.6c-1.1,0-1.9-0.4-2.5-1.3
	c-0.6-0.9-0.9-2.2-0.9-3.8v-0.2H332.2z M320.2,444.6c0-1.6,0.3-2.8,0.8-3.6c0.6-0.8,1.4-1.2,2.4-1.2c1.1,0,1.9,0.4,2.4,1.2
	c0.5,0.8,0.8,2,0.9,3.6L320.2,444.6z M300.6,422.4h-6v16.1c-0.7-1.1-1.4-2-2.2-2.5c-0.8-0.6-1.7-0.8-2.6-0.8c-2.1,0-3.7,1-4.9,3
	c-1.2,2-1.7,4.8-1.7,8.4c0,3.7,0.6,6.5,1.7,8.6c1.1,2,2.7,3,4.8,3c1.1,0,2-0.3,2.9-0.9c0.8-0.6,1.5-1.5,2.1-2.8v3.3h6V422.4z
	 M294,451.1c-0.4,1-1.1,1.5-2,1.5c-0.9,0-1.6-0.5-2-1.6c-0.4-1.1-0.7-2.7-0.7-4.8c0-2.2,0.2-3.7,0.6-4.7c0.4-1,1-1.4,1.9-1.4
	c1,0,1.7,0.5,2.1,1.4c0.4,0.9,0.6,2.5,0.6,4.6C294.6,448.5,294.4,450.1,294,451.1 M279.7,457.6v-15.2c0-2.9-0.3-4.8-1-5.8
	c-0.7-1-1.9-1.5-3.6-1.5c-1.3,0-2.4,0.3-3.4,0.9c-1,0.6-1.9,1.5-2.7,2.8v-3.5h-5.7v22.3h6.2v-13.2c0-1.3,0.2-2.2,0.5-2.8
	c0.3-0.6,0.9-0.8,1.7-0.8c0.7,0,1.2,0.2,1.5,0.7c0.3,0.5,0.5,1.4,0.5,2.6v13.5H279.7z M258.7,435.3h-5.8v3.4
	c-0.7-1.2-1.5-2.2-2.3-2.8c-0.8-0.6-1.7-0.9-2.7-0.9c-2.1,0-3.7,1-4.9,3c-1.2,2-1.7,4.8-1.7,8.4c0,3.7,0.6,6.6,1.7,8.6
	c1.1,2,2.8,3,4.9,3c1,0,1.9-0.3,2.8-0.9c0.8-0.6,1.6-1.5,2.2-2.8v3.3h5.8V435.3z M252.3,451c-0.4,1-1.1,1.5-2.1,1.5
	c-0.9,0-1.6-0.5-2-1.6c-0.4-1.1-0.7-2.6-0.7-4.8c0-2.1,0.2-3.7,0.6-4.6c0.4-0.9,1-1.4,1.9-1.4c1,0,1.7,0.5,2.2,1.5
	c0.5,1,0.7,2.5,0.7,4.5C252.9,448.4,252.7,450,252.3,451 M227.1,457.6v-3.3c0.6,1.2,1.3,2.1,2.1,2.8c0.8,0.6,1.8,0.9,2.9,0.9
	c2,0,3.5-1,4.7-2.9c1.1-2,1.7-4.7,1.7-8.2c0-3.9-0.6-6.8-1.7-8.8c-1.1-2-2.7-3-4.9-3c-1,0-1.9,0.3-2.6,0.8c-0.8,0.6-1.5,1.4-2.2,2.5
	v-16.1h-5.9v35.2H227.1z M231.8,441.5c0.4,0.9,0.6,2.5,0.6,4.5c0,2.2-0.2,3.9-0.6,4.9c-0.4,1.1-1.1,1.6-2,1.6c-1,0-1.6-0.5-2.1-1.5
	c-0.4-1-0.6-2.6-0.6-4.9c0-2.1,0.2-3.6,0.7-4.6c0.4-1,1.2-1.4,2.1-1.4C230.7,440.1,231.4,440.6,231.8,441.5 M213.9,457.6v-10.5
	c0-2.7,0.3-4.5,0.9-5.2c0.6-0.8,1.7-1.1,3.3-1.1h0.4v-5.9c-1.2,0-2.2,0.4-3,1.1c-0.8,0.7-1.5,1.8-2,3.3v-4h-5.7v22.3H213.9z
	 M204.6,448.1v-1.1c0-4-0.8-7-2.3-9.1s-3.7-3.1-6.7-3.1c-2.8,0-5,1-6.6,3.1c-1.6,2.1-2.5,4.9-2.5,8.5c0,3.5,0.8,6.3,2.5,8.4
	c1.6,2.1,3.8,3.1,6.6,3.1c2.2,0,4.1-0.6,5.6-1.9c1.5-1.3,2.5-3,3-5.2H199c-0.3,0.9-0.7,1.5-1.2,1.9c-0.5,0.4-1.1,0.6-1.8,0.6
	c-1.1,0-1.9-0.4-2.5-1.3c-0.6-0.9-0.9-2.2-0.9-3.8v-0.2H204.6z M192.6,444.6c0-1.6,0.3-2.8,0.8-3.6c0.6-0.8,1.4-1.2,2.4-1.2
	c1.1,0,1.9,0.4,2.4,1.2c0.5,0.8,0.8,2,0.9,3.6L192.6,444.6z M177.1,457.6l9.4-33.2h-6.9l-3.8,15.2c-0.4,1.6-0.7,3.2-0.9,4.8
	c-0.3,1.6-0.4,3.3-0.5,5c-0.2-1.8-0.4-3.6-0.6-5.3c-0.3-1.7-0.6-3.2-1-4.7l-3.9-15h-6.7l9.5,33.2H177.1z M161.2,442.9h-11.7v7.2
	h11.7V442.9z M139.6,466.6l8.4-31.3h-6l-2,9.5c-0.1,0.3-0.2,0.8-0.2,1.3c-0.1,0.5-0.2,1.6-0.4,3.3c0-0.7-0.1-1.4-0.1-2.2
	c-0.1-0.7-0.2-1.4-0.3-2l-2.2-9.9h-6l5.8,22.3l-2.8,9H139.6z M129.7,448.1v-1.1c0-4-0.8-7-2.2-9.1c-1.5-2-3.7-3.1-6.7-3.1
	c-2.8,0-5,1-6.6,3.1c-1.6,2.1-2.5,4.9-2.5,8.5c0,3.5,0.8,6.3,2.5,8.4c1.6,2.1,3.8,3.1,6.6,3.1c2.2,0,4.1-0.6,5.6-1.9
	c1.5-1.3,2.5-3,3-5.2h-5.3c-0.3,0.9-0.7,1.5-1.2,1.9c-0.5,0.4-1.1,0.6-1.8,0.6c-1.1,0-1.9-0.4-2.5-1.3c-0.6-0.9-0.9-2.2-0.9-3.8
	v-0.2H129.7z M117.7,444.6c0-1.6,0.3-2.8,0.8-3.6c0.6-0.8,1.4-1.2,2.4-1.2c1.1,0,1.9,0.4,2.4,1.2c0.5,0.8,0.8,2,0.9,3.6L117.7,444.6
	z M99.5,422.4h-6.2v35.2h6.2v-12.2l5,12.2h6.8l-6-13l5.6-9.3H104l-3.2,6.3c-0.1,0.1-0.2,0.3-0.3,0.5c-0.5,1.1-0.9,1.9-1,2.3V422.4z
	 M90.3,435.8c-0.7-0.3-1.4-0.5-2.1-0.6c-0.7-0.1-1.4-0.2-2.2-0.2c-2.6,0-4.7,1-6.2,3.1c-1.5,2.1-2.3,4.9-2.3,8.4
	c0,3.6,0.8,6.4,2.3,8.5c1.5,2.1,3.6,3.1,6.2,3.1c0.8,0,1.5-0.1,2.2-0.3c0.7-0.2,1.4-0.5,2-1v-5.9c-0.4,0.4-0.8,0.7-1.2,0.9
	c-0.4,0.2-0.9,0.3-1.4,0.3c-1.3,0-2.3-0.5-3-1.5c-0.7-1-1.1-2.4-1.1-4.2c0-1.7,0.3-3.1,1-4.1c0.7-1,1.6-1.5,2.8-1.5
	c0.5,0,0.9,0.1,1.4,0.3c0.5,0.2,0.9,0.4,1.4,0.8V435.8z M72.8,438c-1.7-2.1-3.9-3.1-6.8-3.1c-2.8,0-5.1,1-6.8,3.1
	c-1.7,2.1-2.5,4.9-2.5,8.4c0,3.6,0.8,6.4,2.5,8.5c1.7,2.1,3.9,3.1,6.8,3.1c2.8,0,5.1-1,6.8-3.1c1.7-2.1,2.5-4.9,2.5-8.5
	C75.3,442.9,74.5,440.1,72.8,438 M63.5,451c-0.6-1.1-0.9-2.6-0.9-4.6c0-2,0.3-3.5,0.9-4.6c0.6-1.1,1.4-1.6,2.5-1.6
	c1.1,0,1.9,0.5,2.5,1.6c0.6,1.1,0.9,2.6,0.9,4.6c0,2-0.3,3.5-0.9,4.6c-0.6,1.1-1.4,1.6-2.5,1.6C64.9,452.6,64.1,452.1,63.5,451
	 M39.1,457.6v-14.4h7.4v14.4h6.6v-33.2h-6.6v12.3h-7.4v-12.3h-6.5v33.2H39.1z"/>
<path d="M264.5,401.8v-10.5c0-2.7,0.3-4.5,0.9-5.2c0.6-0.8,1.7-1.1,3.3-1.1h0.4v-5.9c-1.2,0-2.2,0.4-3,1.1c-0.8,0.7-1.5,1.8-2,3.3
	v-4h-5.7v22.3H264.5z M255.1,392.3v-1.1c0-4-0.8-7-2.3-9.1c-1.5-2-3.7-3.1-6.7-3.1c-2.8,0-5,1-6.6,3.1c-1.6,2.1-2.5,4.9-2.5,8.5
	c0,3.5,0.8,6.3,2.5,8.4c1.6,2.1,3.8,3.1,6.6,3.1c2.2,0,4.1-0.6,5.6-1.9c1.5-1.3,2.5-3,3-5.2h-5.3c-0.3,0.9-0.7,1.5-1.2,1.9
	c-0.5,0.4-1.1,0.6-1.8,0.6c-1.1,0-1.9-0.4-2.5-1.3c-0.6-0.9-0.9-2.2-0.9-3.8v-0.2H255.1z M243.2,388.7c0-1.6,0.3-2.7,0.8-3.6
	c0.6-0.8,1.4-1.2,2.4-1.2c1.1,0,1.9,0.4,2.4,1.2c0.5,0.8,0.8,2,0.9,3.6L243.2,388.7z M234,401.8v-15.2c0-2.9-0.3-4.9-1-5.8
	c-0.7-1-1.9-1.5-3.6-1.5c-1.1,0-2.1,0.2-3.1,0.7c-0.9,0.5-1.8,1.2-2.6,2.2v-15.6h-6.2v35.2h6.2v-13.2c0-1.3,0.2-2.2,0.5-2.8
	c0.3-0.6,0.9-0.8,1.7-0.8c0.7,0,1.2,0.2,1.5,0.7c0.3,0.5,0.5,1.4,0.5,2.6v13.5H234z M214.5,379.9c-0.7-0.3-1.4-0.5-2.1-0.6
	c-0.7-0.1-1.4-0.2-2.2-0.2c-2.6,0-4.7,1-6.2,3.1c-1.5,2.1-2.3,4.9-2.3,8.4c0,3.6,0.8,6.4,2.3,8.5c1.5,2.1,3.6,3.1,6.2,3.1
	c0.8,0,1.5-0.1,2.2-0.3c0.7-0.2,1.4-0.5,2-1V395c-0.4,0.4-0.8,0.7-1.2,0.9c-0.4,0.2-0.9,0.3-1.4,0.3c-1.3,0-2.3-0.5-3-1.5
	c-0.7-1-1.1-2.4-1.1-4.2c0-1.7,0.3-3.1,1-4.1c0.7-1,1.6-1.5,2.8-1.5c0.5,0,0.9,0.1,1.4,0.3c0.5,0.2,0.9,0.4,1.4,0.8V379.9z
	 M188.5,401.6c1,0.4,2.1,0.6,3.2,0.6c2.3,0,4.2-0.7,5.6-2c1.4-1.3,2.1-3.1,2.1-5.3c0-1.3-0.3-2.5-0.9-3.5c-0.6-1-1.7-2-3.3-3.1
	c-0.2-0.2-0.6-0.4-1-0.7c-1.4-0.9-2.1-1.6-2.1-2.3c0-0.4,0.2-0.8,0.5-1.1c0.3-0.3,0.7-0.4,1.2-0.4c0.4,0,0.9,0.1,1.4,0.4
	c0.5,0.2,1.1,0.6,1.6,1.1l2.6-4.4c-0.9-0.7-1.9-1.1-2.9-1.4c-1-0.3-2.1-0.5-3.2-0.5c-2.2,0-4,0.6-5.3,1.8c-1.3,1.2-2,2.9-2,5
	c0,1.3,0.3,2.4,0.9,3.3c0.6,0.9,1.6,1.9,3.1,2.9c0.2,0.1,0.5,0.3,0.9,0.6c1.5,0.9,2.3,1.8,2.3,2.6c0,0.5-0.2,0.8-0.5,1.1
	c-0.3,0.3-0.7,0.5-1.2,0.5c-0.5,0-1-0.1-1.5-0.4c-0.6-0.2-1.2-0.6-2-1.1l-2.5,4.5C186.5,400.7,187.4,401.2,188.5,401.6 M182,401.8
	v-17.5h2.4v-4.8H182V373h-6.1v6.4h-2.4v4.8h2.4v17.5H182z M164.9,379.5v14.3c0,1.1-0.2,1.9-0.5,2.3c-0.3,0.4-0.9,0.6-1.7,0.6
	c-0.8,0-1.4-0.2-1.7-0.6c-0.3-0.4-0.5-1.2-0.5-2.4v-14.3h-6V391c0,4.5,0.6,7.4,1.8,8.9c1.2,1.5,3.3,2.2,6.4,2.2
	c3.1,0,5.2-0.7,6.4-2.2c1.2-1.5,1.8-4.5,1.8-8.9v-11.5H164.9z M151.5,392.3v-1.1c0-4-0.8-7-2.3-9.1c-1.5-2-3.7-3.1-6.7-3.1
	c-2.8,0-5,1-6.6,3.1c-1.6,2.1-2.5,4.9-2.5,8.5c0,3.5,0.8,6.3,2.5,8.4c1.6,2.1,3.8,3.1,6.6,3.1c2.2,0,4.1-0.6,5.6-1.9
	c1.5-1.3,2.5-3,3-5.2H146c-0.3,0.9-0.7,1.5-1.2,1.9c-0.5,0.4-1.1,0.6-1.8,0.6c-1.1,0-1.9-0.4-2.5-1.3c-0.6-0.9-0.9-2.2-0.9-3.8v-0.2
	H151.5z M139.6,388.7c0-1.6,0.3-2.7,0.8-3.6c0.6-0.8,1.4-1.2,2.4-1.2c1.1,0,1.9,0.4,2.4,1.2c0.5,0.8,0.8,2,0.9,3.6L139.6,388.7z
	 M130.2,366.5h-6v16.1c-0.7-1.1-1.4-2-2.2-2.5c-0.8-0.6-1.7-0.8-2.6-0.8c-2.1,0-3.7,1-4.9,3c-1.2,2-1.7,4.8-1.7,8.4
	c0,3.7,0.6,6.5,1.7,8.6c1.1,2,2.7,3,4.8,3c1.1,0,2-0.3,2.9-0.9c0.8-0.6,1.5-1.5,2.1-2.8v3.3h6V366.5z M123.6,395.2
	c-0.4,1-1.1,1.5-2,1.5c-0.9,0-1.6-0.5-2-1.6c-0.4-1.1-0.7-2.7-0.7-4.8c0-2.2,0.2-3.7,0.6-4.7c0.4-1,1-1.4,1.9-1.4
	c1,0,1.7,0.5,2.1,1.4c0.4,0.9,0.6,2.5,0.6,4.6C124.2,392.6,124,394.3,123.6,395.2 M108.5,401.8v-17.5h2.4v-4.8h-2.4V373h-6.1v6.4
	h-2.4v4.8h2.4v17.5H108.5z M87.4,401.6c1,0.4,2.1,0.6,3.2,0.6c2.3,0,4.2-0.7,5.6-2c1.4-1.3,2.1-3.1,2.1-5.3c0-1.3-0.3-2.5-0.9-3.5
	c-0.6-1-1.7-2-3.3-3.1c-0.2-0.2-0.6-0.4-1-0.7c-1.4-0.9-2.1-1.6-2.1-2.3c0-0.4,0.2-0.8,0.5-1.1c0.3-0.3,0.7-0.4,1.2-0.4
	c0.4,0,0.9,0.1,1.4,0.4c0.5,0.2,1.1,0.6,1.6,1.1l2.6-4.4c-0.9-0.7-1.9-1.1-2.9-1.4c-1-0.3-2.1-0.5-3.2-0.5c-2.2,0-4,0.6-5.3,1.8
	c-1.3,1.2-2,2.9-2,5c0,1.3,0.3,2.4,0.9,3.3c0.6,0.9,1.6,1.9,3.1,2.9c0.2,0.1,0.5,0.3,0.9,0.6c1.5,0.9,2.3,1.8,2.3,2.6
	c0,0.5-0.2,0.8-0.5,1.1c-0.3,0.3-0.7,0.5-1.2,0.5c-0.5,0-1-0.1-1.5-0.4c-0.6-0.2-1.2-0.6-2-1.1l-2.5,4.5
	C85.4,400.7,86.4,401.2,87.4,401.6 M83,392.3v-1.1c0-4-0.8-7-2.3-9.1c-1.5-2-3.7-3.1-6.7-3.1c-2.8,0-5,1-6.6,3.1
	c-1.6,2.1-2.5,4.9-2.5,8.5c0,3.5,0.8,6.3,2.5,8.4c1.6,2.1,3.8,3.1,6.6,3.1c2.2,0,4.1-0.6,5.6-1.9c1.5-1.3,2.5-3,3-5.2h-5.3
	c-0.3,0.9-0.7,1.5-1.2,1.9c-0.5,0.4-1.1,0.6-1.8,0.6c-1.1,0-1.9-0.4-2.5-1.3c-0.6-0.9-0.9-2.2-0.9-3.8v-0.2H83z M71,388.7
	c0-1.6,0.3-2.7,0.8-3.6c0.6-0.8,1.4-1.2,2.4-1.2c1.1,0,1.9,0.4,2.4,1.2c0.5,0.8,0.8,2,0.9,3.6L71,388.7z M36.7,401.8h6l3.7-18.3
	c0.1-0.7,0.3-1.7,0.4-3c0.2-1.3,0.3-2.8,0.5-4.4c0.1,1.5,0.2,2.9,0.3,4.2c0.1,1.3,0.3,2.4,0.5,3.3l3.5,18.3h5.8l6.7-33.2h-6.5
	L55,384.5c-0.3,1.6-0.4,3.1-0.6,4.7c-0.1,1.5-0.2,3-0.2,4.5l-4.3-25.1h-5.5L40,393.7c-0.1-2-0.3-3.9-0.4-5.6
	c-0.2-1.7-0.4-3.2-0.6-4.5l-2.4-15H30L36.7,401.8z"/>
<g>
	<path class="st0" d="M136.6,157.6c0,0,50.1-84.5,74.3-124.9h100.2c-12.2,23.1-25.3,45.3-38.3,67.6h18.4c14-22,27.5-44.9,40.6-67.6
		h100.1l0.5,0.8c-39.3,69.3-79.6,139.1-119.5,207.9H210.5c2.3-6.6,41.7-71.8,55.4-98.1h-17.9c-17.5,28.6-31.6,53.6-48.4,82.1
		c-10.3,13.9-21.2,16.2-44.8,16c1.4-26.5-16.8-50.1-39.2-59.7c-23.8-10.2-52.7-5.4-71.3,11.1c-3,2.8-10,9.8-14.8,19.1V32.7h101.1
		v125.4L136.6,157.6z"/>
	<path class="st1" d="M136.7,212.6c6.1,9.3,9.4,17,9.2,28.7H29.4c0-23.1,14-40.6,33.1-50.1c17-8.5,38.5-7.4,54.4,1.9
		C125.4,198,131.1,204.5,136.7,212.6"/>
	<path class="st2" d="M307.1,254.4c-27.1,54.9-87.3,87.5-151.5,87.3c-46.2-2-101.2-12.3-118.5-55.8c0,0-7.5-15-7.7-31.4H307.1z"/>
</g>
</svg>
