<svg id="Ebene_1" data-name="Ebene 1" xmlns="http://www.w3.org/2000/svg" viewBox="0 0 403 436.66">
    <defs>
    <style>.cls-1{fill:#fff;}</style>
    </defs>
    <title>Logo_Hockeyverband_weiss</title>
    <path class="cls-1" d="M24.5,197.64V19.39H125.25V144.14h6.5L206.13,19H306L267.63,86.39h18.5L327,19.14H427.5l-119.37,208H205.63l55.5-97.5H243L197.13,207s-7.88,19.5-33.13,20.12H149.88s3.62-43.25-45.75-62C104.13,165.14,56.38,147.64,24.5,197.64Z" transform="translate(-24.5 -19.02)"/>
    <path class="cls-1" d="M24.67,227.39H140.83s1.67-25.25-23.66-43.67c-26.38-19.17-67-11.16-83,14.17C34.17,197.89,24.67,212.06,24.67,227.39Z" transform="translate(-24.5 -19.02)"/>
    <path class="cls-1" d="M25.67,240.56s-4,87,119.66,87,157-87,157-87Z" transform="translate(-24.5 -19.02)"/>
    <path class="cls-1" d="M31.38,355.23l2.82,15.86c.4,2.33.48,4.71.7,7H35c.31-2.33.49-4.71,1-7l3.31-15.86h5.19l4.23,22.9h.09c.22-2.33.27-4.62.66-7L52,355.23h6.87L52,388.44H46.36L43,370.91c-.22-2-.62-4.05-.93-6.08H42c-.35,2-.57,4.05-1.05,6.08l-3.79,17.53H31.38l-6.7-33.21Z" transform="translate(-24.5 -19.02)"/>
    <path class="cls-1" d="M75.58,379H65.76c0,1.63-.05,5.15,2.33,5.15,1.59,0,2-1.23,2-2.55h5.29a9.74,9.74,0,0,1-2,5.2,6.17,6.17,0,0,1-5,2.11c-6.3,0-8.54-5.59-8.54-11.1,0-5.33,1.93-12,8.41-12,4.1,0,7.88,3.65,7.53,10.66Zm-5.24-4.36c0-1.45-.31-4.1-2.25-4.1s-2.29,2.56-2.29,4v.66h4.54Z" transform="translate(-24.5 -19.02)"/>
    <path class="cls-1" d="M90.13,372.19a4.32,4.32,0,0,0-3-1.46,1.51,1.51,0,0,0-1.67,1.63c.09,2.6,7.09,2.07,7.09,8.73,0,4.4-2.55,7.79-7.13,7.79a10.83,10.83,0,0,1-6.7-2.55l2.73-4.41a4.71,4.71,0,0,0,3.09,1.46,1.77,1.77,0,0,0,1.8-1.85c.09-3-7.09-2.21-7.09-9.26,0-4.22,3.52-6.51,7.44-6.51a9.58,9.58,0,0,1,6,1.89Z" transform="translate(-24.5 -19.02)"/>
    <path class="cls-1" d="M104.43,360v6.17H107v5.11h-2.55v17.13H98.22V371.31H96.06V366.2h2.16V360Z" transform="translate(-24.5 -19.02)"/>
    <path class="cls-1" d="M120.24,385.93h-.09c-.84,1.67-2.12,2.95-4.1,2.95-5,0-6-8-6-11.58,0-3.84.75-11.54,5.94-11.54a4.49,4.49,0,0,1,4.19,3.17h.09v-16h6.21v35.55h-6.21Zm.44-8.72c0-1.23-.14-5.95-2.25-5.95s-2.2,4.67-2.2,5.95.09,6,2.29,6C120.5,383.2,120.68,378.4,120.68,377.21Z" transform="translate(-24.5 -19.02)"/>
    <path class="cls-1" d="M146.07,379h-9.83c0,1.63,0,5.15,2.34,5.15,1.58,0,2-1.23,2-2.55h5.29a9.9,9.9,0,0,1-2,5.2,6.17,6.17,0,0,1-5,2.11c-6.3,0-8.55-5.59-8.55-11.1,0-5.33,1.94-12,8.41-12,4.1,0,7.89,3.65,7.54,10.66Zm-5.25-4.36c0-1.45-.3-4.1-2.24-4.1s-2.29,2.56-2.29,4v.66h4.53Z" transform="translate(-24.5 -19.02)"/>
    <path class="cls-1" d="M156.11,366.2v12.2c0,1.23-.48,4.67,1.59,4.67,1.67,0,1.54-2.21,1.54-3.31l0-13.56h6.16v14.18c0,5.15-2.42,8.5-7.93,8.5-7,0-7.62-5.28-7.62-9.34V366.2Z" transform="translate(-24.5 -19.02)"/>
    <path class="cls-1" d="M177.43,360v6.17H180v5.11h-2.55v17.13h-6.21V371.31h-2.16V366.2h2.16V360Z" transform="translate(-24.5 -19.02)"/>
    <path class="cls-1" d="M194.51,372.19a4.32,4.32,0,0,0-3-1.46,1.51,1.51,0,0,0-1.67,1.63c.09,2.6,7.09,2.07,7.09,8.73,0,4.4-2.55,7.79-7.14,7.79a10.8,10.8,0,0,1-6.69-2.55l2.73-4.41a4.69,4.69,0,0,0,3.08,1.46,1.78,1.78,0,0,0,1.81-1.85c.09-3-7.09-2.21-7.09-9.26,0-4.22,3.52-6.51,7.44-6.51a9.6,9.6,0,0,1,6,1.89Z" transform="translate(-24.5 -19.02)"/>
    <path class="cls-1" d="M212,388.09a8.27,8.27,0,0,1-3.57.79c-6,0-8.15-6.34-8.15-11.41,0-5.59,2.2-11.71,8.63-11.71a7.53,7.53,0,0,1,3.09.66v5.46a2.37,2.37,0,0,0-1.81-.71c-3,0-3.7,3.66-3.7,5.95s.48,5.95,3.61,5.95a3.36,3.36,0,0,0,1.9-.66Z" transform="translate(-24.5 -19.02)"/>
    <path class="cls-1" d="M222.15,352.89v16.74h.08a5.74,5.74,0,0,1,5.16-3.87c4.58,0,4.18,5.1,4.18,8.32v14.36h-6.21v-12.2c0-1.15.44-4.23-1.54-4.23-1.41,0-1.67,1.45-1.67,2.56v13.87h-6.22V352.89Z" transform="translate(-24.5 -19.02)"/>
    <path class="cls-1" d="M251.1,379h-9.83c0,1.63,0,5.15,2.34,5.15,1.58,0,2-1.23,2-2.55h5.29a9.82,9.82,0,0,1-2,5.2,6.17,6.17,0,0,1-5,2.11c-6.3,0-8.55-5.59-8.55-11.1,0-5.33,1.94-12,8.42-12,4.09,0,7.88,3.65,7.53,10.66Zm-5.24-4.36c0-1.45-.31-4.1-2.25-4.1s-2.29,2.56-2.29,4v.66h4.54Z" transform="translate(-24.5 -19.02)"/>
    <path class="cls-1" d="M261.3,366.2v2.68h.09a6.34,6.34,0,0,1,5.07-3.52v6a7.32,7.32,0,0,0-1-.08c-4.14,0-4.19,2.73-4.19,6v11.1h-6.21V366.2Z" transform="translate(-24.5 -19.02)"/>
    <path class="cls-1" d="M33.23,411.49v13h6.65v-13h6.57v33.22H39.88v-14H33.23v14H26.67V411.49Z" transform="translate(-24.5 -19.02)"/>
    <path class="cls-1" d="M67.72,433.61c0,5.68-1.8,11.54-8.45,11.54s-8.46-5.86-8.46-11.54S52.61,422,59.27,422,67.72,427.93,67.72,433.61Zm-10.7,0c0,1.28.09,6,2.25,6s2.24-4.71,2.24-6-.09-6-2.24-6S57,432.33,57,433.61Z" transform="translate(-24.5 -19.02)"/>
    <path class="cls-1" d="M82.69,444.36a8.23,8.23,0,0,1-3.56.79c-6,0-8.15-6.34-8.15-11.41,0-5.59,2.2-11.72,8.63-11.72a7.45,7.45,0,0,1,3.08.66v5.47a2.34,2.34,0,0,0-1.8-.71c-3,0-3.7,3.66-3.7,5.95s.48,5.95,3.61,5.95a3.27,3.27,0,0,0,1.89-.67Z" transform="translate(-24.5 -19.02)"/>
    <path class="cls-1" d="M92.88,409.16v21.1H93l3.39-7.8h6.74l-5,9.08,6.13,13.17H97.38L93,434.4h-.09v10.31H86.67V409.16Z" transform="translate(-24.5 -19.02)"/>
    <path class="cls-1" d="M121.5,435.24h-9.82c0,1.63-.05,5.15,2.33,5.15,1.59,0,2-1.23,2-2.55h5.29a9.8,9.8,0,0,1-2,5.2,6.17,6.17,0,0,1-5,2.11c-6.3,0-8.54-5.59-8.54-11.1,0-5.33,1.93-12,8.41-12,4.1,0,7.88,3.66,7.53,10.66Zm-5.24-4.36c0-1.46-.31-4.1-2.25-4.1s-2.29,2.56-2.29,4v.67h4.54Z" transform="translate(-24.5 -19.02)"/>
    <path class="cls-1" d="M129.94,422.46l2.33,9,.75,3.7h.09L136,422.46h6.25l-9.56,33.22h-6.12l3.57-11.41-6.48-21.81Z" transform="translate(-24.5 -19.02)"/>
    <path class="cls-1" d="M155.84,427.22v5.86h-11v-5.86Z" transform="translate(-24.5 -19.02)"/>
    <path class="cls-1" d="M163.73,411.49l4,15.95c.58,1.9.8,3.79,1.19,5.68H169c.35-1.94.49-3.83,1-5.77l4-15.86h6.88l-9.21,33.22h-5.38l-9.6-33.22Z" transform="translate(-24.5 -19.02)"/>
    <path class="cls-1" d="M196.8,435.24H187c.05,1.63,0,5.15,2.34,5.15,1.58,0,2-1.23,2-2.55h5.28a9.88,9.88,0,0,1-2,5.2,6.17,6.17,0,0,1-5,2.11c-6.3,0-8.55-5.59-8.55-11.1,0-5.33,1.94-12,8.41-12,4.1,0,7.89,3.66,7.54,10.66Zm-5.24-4.36c0-1.46-.31-4.1-2.24-4.1s-2.29,2.56-2.29,4v.67h4.53Z" transform="translate(-24.5 -19.02)"/>
    <path class="cls-1" d="M207,422.46v2.69h.09a6.33,6.33,0,0,1,5.07-3.52v6a7.27,7.27,0,0,0-1-.09c-4.14,0-4.19,2.73-4.19,6v11.1H200.8V422.46Z" transform="translate(-24.5 -19.02)"/>
    <path class="cls-1" d="M215.52,409.16h6.21v16h.09A4.47,4.47,0,0,1,226,422c5.24,0,5.95,7.71,5.95,11.54,0,3.57-.93,11.59-6,11.59a4.48,4.48,0,0,1-4.09-2.95h-.09v2.51h-6.21Zm10.17,24.32c0-1.28-.17-6-2.2-6s-2.2,4.71-2.2,6,.13,6,2.16,6S225.69,434.89,225.69,433.48Z" transform="translate(-24.5 -19.02)"/>
    <path class="cls-1" d="M245.54,442.2h-.08c-.84,1.67-2.12,2.95-4.1,2.95-5,0-6-8-6-11.59,0-3.83.74-11.54,5.94-11.54a4.5,4.5,0,0,1,4.19,3.17h.08v-2.73h6.22v22.25h-6.22Zm.45-8.72c0-1.24-.14-6-2.25-6s-2.2,4.67-2.2,6,.08,6,2.29,6C245.81,439.47,246,434.67,246,433.48Z" transform="translate(-24.5 -19.02)"/>
    <path class="cls-1" d="M262.41,425.9h.09a5.74,5.74,0,0,1,5.15-3.88c4.58,0,4.19,5.11,4.19,8.33v14.36h-6.21v-12.2c0-1.15.44-4.23-1.55-4.23-1.41,0-1.67,1.45-1.67,2.55v13.88H256.2V422.46h6.21Z" transform="translate(-24.5 -19.02)"/>
    <path class="cls-1" d="M285.92,442.2h-.08c-.84,1.67-2.12,2.95-4.1,2.95-5,0-6-8-6-11.59,0-3.83.74-11.54,5.94-11.54a4.5,4.5,0,0,1,4.19,3.17h.08v-16h6.22v35.55h-6.22Zm.45-8.72c0-1.24-.14-6-2.25-6s-2.2,4.67-2.2,6,.08,6,2.29,6C286.19,439.47,286.37,434.67,286.37,433.48Z" transform="translate(-24.5 -19.02)"/>
    <path class="cls-1" d="M324,435.24h-9.82c0,1.63,0,5.15,2.33,5.15,1.59,0,2-1.23,2-2.55h5.29a9.88,9.88,0,0,1-2,5.2,6.21,6.21,0,0,1-5,2.11c-6.3,0-8.54-5.59-8.54-11.1,0-5.33,1.94-12,8.41-12,4.1,0,7.89,3.66,7.53,10.66Zm-5.24-4.36c0-1.46-.31-4.1-2.25-4.1s-2.29,2.56-2.29,4v.67h4.54Z" transform="translate(-24.5 -19.02)"/>
    <path class="cls-1" d="M335.59,441.05a4.19,4.19,0,1,1-4.19-4.18A4.19,4.19,0,0,1,335.59,441.05Z" transform="translate(-24.5 -19.02)"/>
    <path class="cls-1" d="M341.82,411.49l4,15.95c.57,1.9.79,3.79,1.19,5.68h.09c.35-1.94.48-3.83,1-5.77l4-15.86H359l-9.21,33.22h-5.37l-9.6-33.22Z" transform="translate(-24.5 -19.02)"/>
    <path class="cls-1" d="M366.75,441.05a4.19,4.19,0,1,1-4.18-4.18A4.19,4.19,0,0,1,366.75,441.05Z" transform="translate(-24.5 -19.02)"/>
</svg>