<?xml version="1.0" standalone="no"?>
<!DOCTYPE svg PUBLIC "-//W3C//DTD SVG 20010904//EN"
 "http://www.w3.org/TR/2001/REC-SVG-20010904/DTD/svg10.dtd">
<svg version="1.0" xmlns="http://www.w3.org/2000/svg"
 width="300.000000pt" height="173.000000pt" viewBox="0 0 300.000000 173.000000"
 preserveAspectRatio="xMidYMid meet">

<g transform="translate(0.000000,173.000000) scale(0.100000,-0.100000)"
fill="#000000" stroke="none">
<path d="M1315 1617 c-104 -63 -266 -159 -360 -214 -93 -55 -336 -198 -540
-318 -203 -120 -381 -224 -394 -232 -20 -13 -21 -17 -10 -28 8 -7 106 -64 219
-125 113 -62 304 -167 425 -233 121 -66 353 -193 515 -283 163 -89 307 -168
321 -174 23 -10 61 9 454 227 237 131 571 317 743 412 172 96 311 179 309 185
-2 6 -91 63 -198 127 -922 550 -1289 769 -1291 769 -2 0 -88 -51 -193 -113z
m918 -350 c383 -230 697 -420 697 -423 0 -2 -223 -4 -495 -4 l-495 0 0 28 c0
42 41 105 80 124 70 35 157 10 179 -52 10 -29 12 -30 72 -30 l62 0 -7 32 c-12
59 -52 112 -108 144 -46 25 -63 29 -133 29 -95 0 -139 -19 -202 -88 -37 -41
-50 -68 -79 -175 -3 -10 -68 -12 -301 -10 l-298 3 -3 133 -3 132 -59 0 -60 0
0 -105 c0 -63 -4 -105 -10 -106 -5 0 -56 -1 -112 -1 l-103 -1 -3 106 -3 107
-64 0 -64 0 -3 -132 -3 -133 -325 -3 c-192 -1 -320 1 -315 7 6 5 100 62 210
126 254 149 886 523 1070 632 77 45 149 82 160 80 11 -1 334 -190 718 -420z"/>
<path d="M1290 1195 l0 -285 153 0 c83 0 170 5 191 10 77 17 126 73 134 149 5
55 -20 108 -64 138 l-24 15 30 35 c56 64 32 177 -45 209 -25 10 -79 14 -205
14 l-170 0 0 -285z m310 165 c25 -25 25 -51 1 -81 -17 -21 -30 -24 -100 -27
l-81 -4 0 66 0 66 80 0 c67 0 83 -3 100 -20z m20 -220 c30 -30 27 -83 -6 -109
-22 -17 -41 -21 -110 -21 l-84 0 0 75 0 75 90 0 c77 0 93 -3 110 -20z"/>
</g>
</svg>
