<?xml version="1.0" standalone="no"?>
<!DOCTYPE svg PUBLIC "-//W3C//DTD SVG 20010904//EN"
 "http://www.w3.org/TR/2001/REC-SVG-20010904/DTD/svg10.dtd">
<svg version="1.0" xmlns="http://www.w3.org/2000/svg"
 width="6618.000000pt" height="3970.000000pt" viewBox="0 0 6618.000000 3970.000000"
 preserveAspectRatio="xMidYMid meet">

<g transform="translate(0.000000,3970.000000) scale(0.100000,-0.100000)"
fill="#000000" stroke="none">
<path d="M29420 37499 c-2016 -1210 -9458 -5675 -16537 -9922 -7080 -4247
-12873 -7724 -12873 -7727 0 -3 2751 -1655 6113 -3672 3361 -2017 10804 -6482
16539 -9922 l10428 -6255 9702 5820 c21194 12713 23378 14024 23378 14029 0 3
-2863 1723 -6362 3822 -19234 11538 -26719 16028 -26721 16027 -1 0 -1651
-991 -3667 -2200z m11363 -2537 c4225 -2535 11604 -6961 16397 -9837 4793
-2875 8717 -5229 8719 -5231 2 -2 -4994 -4 -11103 -4 l-11107 0 6 213 c24 821
109 1389 289 1912 153 447 346 771 636 1069 375 385 762 611 1265 736 501 126
1085 117 1555 -21 368 -109 698 -302 978 -573 208 -201 344 -390 477 -661 97
-197 150 -344 215 -592 l11 -43 1176 0 1176 0 -6 183 c-28 842 -307 1567 -833
2172 -702 807 -1588 1324 -2631 1534 -419 85 -791 121 -1251 121 -1354 0
-2515 -375 -3432 -1109 -249 -199 -532 -475 -729 -711 -833 -996 -1272 -2290
-1341 -3955 -5 -132 -10 -248 -10 -258 0 -16 -383 -17 -7952 -15 l-7953 3 -3
2923 -2 2922 -1185 0 -1185 0 -2 -2317 -3 -2318 -2330 0 -2330 0 -3 2318 -2
2317 -1190 0 -1190 0 0 -2925 0 -2925 -7817 0 c-6459 0 -7814 2 -7798 13 11 7
3802 2282 8425 5055 4623 2773 11994 7194 16380 9826 4386 2632 7981 4785
7988 4785 7 1 3470 -2073 7695 -4607z"/>
<path d="M28730 27390 l0 -5892 2668 5 c1573 3 2811 9 3017 16 744 23 1122 44
1338 76 772 114 1366 395 1847 875 667 665 1053 1690 992 2632 -29 443 -113
769 -287 1123 -351 711 -959 1211 -1810 1490 l-129 42 104 53 c295 147 518
309 742 536 235 239 392 462 538 766 208 435 299 927 261 1418 -46 588 -241
1072 -629 1560 -423 531 -1043 906 -1728 1045 -300 61 -602 93 -1209 127 -134
7 -1108 12 -2957 15 l-2758 4 0 -5891z m4904 3920 c613 -11 804 -21 984 -51
586 -98 947 -426 1058 -960 23 -114 30 -440 10 -564 -41 -272 -146 -491 -318
-666 -228 -231 -514 -366 -897 -424 -256 -38 -961 -54 -2408 -55 l-953 0 0
1365 0 1365 988 0 c543 0 1234 -5 1536 -10z m171 -4690 c717 -26 1122 -76
1370 -170 446 -167 747 -471 886 -894 85 -257 102 -624 43 -916 -113 -560
-530 -957 -1134 -1080 -306 -62 -572 -71 -2327 -77 l-1533 -5 0 1576 0 1576
1213 0 c666 0 1334 -5 1482 -10z"/>
</g>
</svg>
