<?xml version="1.0" encoding="utf-8"?>
<!-- Generator: Adobe Illustrator 16.0.0, SVG Export Plug-In . SVG Version: 6.00 Build 0)  -->
<!DOCTYPE svg PUBLIC "-//W3C//DTD SVG 1.1 Tiny//EN" "http://www.w3.org/Graphics/SVG/1.1/DTD/svg11-tiny.dtd">
<svg version="1.1" baseProfile="tiny" id="Ebene_1" xmlns="http://www.w3.org/2000/svg" xmlns:xlink="http://www.w3.org/1999/xlink"
	 x="0px" y="0px" width="130px" height="134.089px" viewBox="0 0 130 134.089" xml:space="preserve">
<path d="M17.217,53.132h-0.064c0.224-1.216,0.32-2.623,0.32-3.519h-3.263V65.51h3.422v-6.461c0-4.766,1.689-7.073,4.856-6.498
	l0.006-3.258C19.521,49.005,17.921,50.989,17.217,53.132z"/>
<rect x="55.957" y="24.454" width="4.871" height="15.716"/>
<g>
	<path fill="none" d="M71.044,36.548c1.564,0,2.599-0.876,2.599-2.16c0-1.377-1.222-2.286-2.911-3.132h-0.032
		c-1.252,0.783-2.285,1.754-2.285,3.007C68.414,35.64,69.447,36.548,71.044,36.548z"/>
	<path fill="none" d="M106.684,35.78v-6.875l-4.439,6.87C102.26,35.774,106.695,35.804,106.684,35.78z"/>
	<path fill="none" d="M71.201,26.78h0.03c1.408-0.939,2.191-1.753,2.191-2.912c0-1.033-0.814-1.941-2.41-1.941
		c-1.535,0-2.411,0.877-2.411,2.035C68.602,25.121,69.604,25.903,71.201,26.78z"/>
	<path d="M63.373,34.763c0,3.538,2.787,5.824,7.296,5.824c4.413,0,8.044-2.254,8.044-6.449c0-2.724-1.848-4.383-3.725-5.479
		c2.128-1.472,3.35-2.974,3.35-5.229c0-3.318-2.755-5.416-7.2-5.416c-4.32,0-7.545,2.378-7.545,6.167
		c0,2.287,1.283,3.946,3.287,5.134l0.032,0.033C65.314,30.412,63.373,31.978,63.373,34.763z M71.013,21.927
		c1.596,0,2.41,0.908,2.41,1.941c0,1.159-0.783,1.973-2.191,2.912h-0.03c-1.598-0.877-2.6-1.66-2.6-2.818
		C68.602,22.804,69.478,21.927,71.013,21.927z M70.699,31.256h0.032c1.689,0.846,2.911,1.754,2.911,3.132
		c0,1.284-1.034,2.16-2.599,2.16c-1.597,0-2.63-0.908-2.63-2.285C68.414,33.011,69.447,32.04,70.699,31.256z"/>
	<path d="M111.393,24.307h-6.118L97.52,36.229l0.003,3.941h9.064v4.417h4.806V40.17h2.619v-4.39h-2.619V24.307z M106.684,35.78
		c0.012,0.023-4.424-0.006-4.439-0.006l4.439-6.87V35.78z"/>
	<path d="M15.904,28.019h8.204c0,6.714,5.439,12.133,12.152,12.133c2.688-0.005,15.488,0,15.488,0V24.456h-15.51v3.563h12.071v8.552
		H36.237c-4.67,0-8.426-3.882-8.426-8.552v-3.563H12.135V36.57H3.578c0,0,0.039-3.791,0.001-5.634L3.578,11.531
		c0.001-0.568,0.168-1.169,0.288-1.711c0.843-3.148,4.317-6.114,7.329-6.114h12.909v8.543H12.135v3.591h15.676V3.706h8.426v12.135
		h15.51V12.25H39.759V0H12.12c-1.768,0-3.199,0.496-4.634,1.077C3.161,2.834,0.143,7.301,0.021,11.908L0.017,21.93L0,40.151h15.904
		V28.019z"/>
</g>
<polygon points="0.055,43.92 0.055,65.509 3.541,65.509 3.541,56.042 10.897,56.042 10.897,53.196 3.541,53.196 3.541,46.863 
	11.838,46.863 11.838,43.92 "/>
<g>
	<path fill="none" d="M60.869,57.098c0-3.198-0.992-4.957-3.135-4.957c-2.56,0-3.935,2.975-3.935,5.661v4.925
		c0.704,0.225,1.503,0.319,2.495,0.319C59.013,63.046,60.869,61.384,60.869,57.098z"/>
	<path fill="none" d="M100.694,68.387c0,1.697,1.6,2.655,3.902,2.655c2.975,0,4.638-1.279,4.638-3.006
		c0-1.375-0.929-2.271-2.943-2.271h-2.975c-0.287,0-0.607,0-0.861-0.032C101.365,66.341,100.694,67.301,100.694,68.387z"/>
	<path fill="none" d="M89.171,35.78v-6.875l-4.44,6.87C84.745,35.774,89.183,35.804,89.171,35.78z"/>
	<path fill="none" d="M104.693,51.821c-2.271,0-3.614,1.375-3.614,3.326c0,2.079,1.28,3.294,3.582,3.294
		c2.143,0,3.55-1.184,3.55-3.262C108.211,53.067,106.9,51.821,104.693,51.821z"/>
	<path fill="none" d="M31.16,51.821c-1.919,0-3.262,1.407-3.55,3.55h6.749C34.422,53.196,33.175,51.821,31.16,51.821z"/>
	<path d="M37.781,56.17c0-3.774-1.951-6.876-6.493-6.876c-4.638,0-7.26,3.582-7.26,8.38c0,5.597,2.718,8.155,7.676,8.155
		c1.951,0,3.902-0.352,5.5-1.023l-0.319-2.718c-1.311,0.639-3.007,1.023-4.638,1.023c-3.167,0-4.797-1.663-4.702-5.342h10.139
		C37.749,57.162,37.781,56.618,37.781,56.17z M27.61,55.371c0.289-2.143,1.631-3.55,3.55-3.55c2.015,0,3.262,1.375,3.198,3.55H27.61
		z"/>
	<path d="M43.696,42.961c-1.216,0-2.207,0.959-2.207,2.142c0,1.184,0.991,2.144,2.207,2.144c1.184,0,2.176-0.959,2.176-2.144
		C45.872,43.888,44.879,42.961,43.696,42.961z"/>
	<rect x="41.969" y="49.614" width="3.422" height="15.896"/>
	<path d="M53.799,42.162h-3.421v22.932c1.727,0.449,3.421,0.671,5.661,0.671c5.278,0,8.443-3.485,8.443-8.986
		c0-4.798-2.079-7.484-5.853-7.484c-2.335,0-4.222,1.248-5.053,3.23h-0.064c0.193-0.832,0.288-2.111,0.288-3.039V42.162z
		 M53.799,57.802c0-2.687,1.375-5.661,3.935-5.661c2.143,0,3.135,1.759,3.135,4.957c0,4.287-1.855,5.948-4.575,5.948
		c-0.992,0-1.791-0.094-2.495-0.319V57.802z"/>
	<path d="M81.877,65.51V49.614h-3.423v7.676c0,3.166-1.759,5.693-4.158,5.693c-1.822,0-2.366-1.151-2.366-3.134V49.614h-3.391v11.13
		c0,2.814,1.119,5.085,4.733,5.085c2.687,0,4.606-1.407,5.534-3.454l0.03,0.032c-0.158,0.895-0.223,2.271-0.223,3.103H81.877z"/>
	<path d="M87.175,49.614V65.51h3.423v-6.461c0-4.766,1.688-7.073,4.854-6.498l0.007-3.258c-2.975-0.288-4.573,1.696-5.277,3.839
		h-0.063c0.224-1.216,0.318-2.623,0.318-3.519H87.175z"/>
	<path d="M112.85,49.614h-5.373c-0.865-0.192-1.665-0.321-2.624-0.321c-4.542,0-7.101,2.814-7.101,6.173
		c0,1.983,0.8,3.614,2.367,4.478c-1.119,0.479-1.823,1.567-1.823,2.718c0,1.057,0.607,1.888,1.567,2.368
		c-1.376,0.703-2.559,2.207-2.559,3.998c0,3.07,2.591,4.669,6.748,4.669c5.117,0,8.572-2.718,8.572-6.109
		c0-2.975-1.952-4.605-5.405-4.605h-2.72c-1.918,0-2.622-0.321-2.622-1.119c0-0.448,0.288-0.929,0.928-1.184
		c0.48,0.096,1.215,0.16,1.822,0.16c4.479,0,6.877-2.431,6.877-5.885c0-1.15-0.416-2.111-1.086-2.654h2.431V49.614z M102.455,65.733
		c0.254,0.032,0.574,0.032,0.861,0.032h2.975c2.015,0,2.943,0.896,2.943,2.271c0,1.727-1.663,3.006-4.638,3.006
		c-2.303,0-3.902-0.958-3.902-2.655C100.694,67.301,101.365,66.341,102.455,65.733z M104.661,58.441
		c-2.302,0-3.582-1.215-3.582-3.294c0-1.951,1.343-3.326,3.614-3.326c2.207,0,3.518,1.246,3.518,3.358
		C108.211,57.258,106.804,58.441,104.661,58.441z"/>
	<path d="M96.501,35.78h-2.62V24.307h-6.12l-7.754,11.922l0.002,3.941h9.065v4.417h4.807V40.17h2.62V35.78z M89.171,35.78
		c0.012,0.023-4.426-0.006-4.44-0.006l4.44-6.87V35.78z"/>
	<path d="M126.457,69.09c0,33.938-27.518,61.565-61.457,61.565c-33.938,0-61.44-27.627-61.44-61.565H0
		c0,35.898,29.101,64.999,65,64.999c35.899,0,65-29.101,65-64.999V24.308h-3.543V69.09z"/>
</g>
</svg>
