<?xml version="1.0" encoding="UTF-8" standalone="no"?>
<!DOCTYPE svg PUBLIC "-//W3C//DTD SVG 1.1//EN" "http://www.w3.org/Graphics/SVG/1.1/DTD/svg11.dtd">
<svg xmlns:svg="http://www.w3.org/2000/svg" xmlns="http://www.w3.org/2000/svg" version="1.0" width="800" height="800" id="svg2">
  <defs id="defs4"/>
  <g id="layer1">
    <path d="M 489.92399,427.50626 L 452.07355,451.14382 L 412.6776,430.18315 L 411.1321,385.58493 L 448.98254,361.94737 L 488.37849,382.90803 L 489.92399,427.50626 z" transform="matrix(9.5517205,0.2987929,-0.3399511,8.3952837,-3768.2689,-3146.435)" id="path3315" style="opacity:1;fill:#000000;fill-opacity:1;fill-rule:evenodd;stroke:none;stroke-width:0.2;stroke-linecap:square;stroke-linejoin:round;stroke-miterlimit:4;stroke-dasharray:none;stroke-dashoffset:0;stroke-opacity:1"/>
    <path d="M 489.92399,427.50626 L 452.07355,451.14382 L 412.6776,430.18315 L 411.1321,385.58493 L 448.98254,361.94737 L 488.37849,382.90803 L 489.92399,427.50626 z" transform="matrix(8.6769126,0.2714275,-0.3088162,7.6263896,-3386.8011,-2821.5156)" id="path3311" style="opacity:1;fill:none;fill-opacity:1;fill-rule:evenodd;stroke:#ffffff;stroke-width:2.33532763;stroke-linecap:square;stroke-linejoin:round;stroke-miterlimit:4;stroke-dasharray:none;stroke-dashoffset:0;stroke-opacity:1"/>
    <path d="M 396.85667,152.54315 C 299.08669,152.54315 218.55561,250.52851 208.34835,376.09976 L 159.04312,376.09976 L 159.04312,253.33174 L 114.68823,253.33174 L 114.68823,543.02467 L 159.04312,543.02467 L 159.04312,420.45466 L 207.5563,420.45466 C 214.35825,550.55861 296.63037,653.5159 396.85667,653.5159 C 481.45908,653.5159 553.23216,580.18109 577.6425,479.06649 L 544.77235,479.06649 C 523.83378,565.31124 468.30405,626.98216 403.19308,626.98216 C 324.10038,626.98223 259.4623,535.94519 253.4953,420.45466 L 304.97866,420.45466 L 304.97866,543.02467 L 349.33356,543.02467 L 349.33356,253.33174 L 304.97866,253.33174 L 304.97866,376.09976 L 254.08934,376.09976 C 263.01075,265.15061 326.2796,179.07689 403.19308,179.07689 C 463.34244,179.07689 515.34635,231.76778 539.426,307.7853 L 572.29615,307.7853 C 543.86992,216.75048 475.98701,152.54315 396.85667,152.54315 z M 435.46919,253.33174 L 435.46919,543.02467 L 479.82409,543.02467 L 479.82409,420.45466 L 625.75964,420.45466 L 625.75964,543.02467 L 670.11454,543.02467 L 670.11454,253.33174 L 625.75964,253.33174 L 625.75964,376.09976 L 479.82409,376.09976 L 479.82409,253.33174 L 435.46919,253.33174 z" id="path3317" style="fill:#ffffff;fill-opacity:1;fill-rule:evenodd;stroke:none;stroke-width:7;stroke-linecap:butt;stroke-linejoin:miter;stroke-miterlimit:4;stroke-dasharray:none;stroke-opacity:1"/>
  </g>
</svg>
