<?xml version="1.0" encoding="UTF-8" standalone="no"?>
<!-- Created with Inkscape (http://www.inkscape.org/) -->
<svg xmlns:dc="http://purl.org/dc/elements/1.1/" xmlns:cc="http://creativecommons.org/ns#" xmlns:rdf="http://www.w3.org/1999/02/22-rdf-syntax-ns#" xmlns:svg="http://www.w3.org/2000/svg" xmlns="http://www.w3.org/2000/svg" version="1.1" width="800" height="1400" id="svg2">
  <defs id="defs4"/>
  <metadata id="metadata7">
    <rdf:RDF>
      <cc:Work rdf:about="">
        <dc:format>image/svg+xml</dc:format>
        <dc:type rdf:resource="http://purl.org/dc/dcmitype/StillImage"/>
        <dc:title/>
      </cc:Work>
    </rdf:RDF>
  </metadata>
  <g transform="translate(0,348)" id="layer1">
    <rect width="810.2" height="1400" x="-4.99" y="-347.8" id="rect3144" style="fill:#0b3d92;fill-opacity:1;stroke:none"/>
    <path d="m 227.5,368.1 344.7,0 c 0,36 -42.6,137.1 -171.8,137.1 -128.9,0 -172.9,-102.1 -172.9,-137.1 z" id="path2996" style="fill:#e60005;fill-opacity:1;stroke:none"/>
    <path d="M 609,395.9 712.9,724.5 C 677.9,735.2 569,725.6 530.6,601.9 491,479 575.5,406 609,395.9 z" id="path2996-0" style="fill:#e60005;fill-opacity:1;stroke:none"/>
    <path d="M 190,395.9 86.21,724.5 C 121.2,735.2 230.1,725.6 268.4,601.9 307.9,479 223.4,406 190,395.9 z" id="path2996-0-8" style="fill:#e60005;fill-opacity:1;stroke:none"/>
    <path d="M 700.7,766.6 423.2,970.5 c -21.7,-29.3 -47.5,-136.3 57.3,-212 103.8,-77 199.9,-20.3 220.2,8.1 z" id="path2996-0-5" style="fill:#e60005;fill-opacity:1;stroke:none"/>
    <path d="M 97.34,766.6 374.6,970.5 c 21.8,-29.3 47.6,-136.3 -57.1,-212 -103.7,-77 -199.9,-20.3 -220.16,8.1 z" id="path2996-0-5-7" style="fill:#e60005;fill-opacity:1;stroke:none"/>
    <path d="m 126.7,-273.8 0,318.77 56.3,0 0,-119.4 c 0,-10.7 15.1,-23.86 33.3,-23.86 18.2,0 32,13.16 32,23.86 l 0,119.4 56.1,0 0,-139.1 c 0,-48.07 -52.1,-53.07 -68.3,-53.07 -36,0 -38,8.5 -54.2,21.1 l 0,-147.7 z" id="path3065" style="fill:#ffffff;stroke:none"/>
    <path d="m 467.7,-129.6 -28.2,38.07 c -12.8,-11.27 -50.2,-24.87 -50.2,-0.6 0,23.4 87.1,7.6 87.1,75.9 0,36.91 -24.8,71.39 -81.5,71.39 -40,0 -57.7,-20.27 -73.3,-35.97 l 31.2,-35.42 c 9.7,14.598 33.5,26.3 42.5,26.3 17.4,0 19.8,-11.202 19.8,-20.8 0,-28.8 -82,-14.6 -82,-77.4 0,-36.87 22.9,-59.07 70.4,-60.17 26.8,-0.6 47.1,5.6 64.2,18.7 z" id="path3067" style="fill:#ffffff;stroke:none"/>
    <path d="m 496.2,-273.8 0,318.77 56.2,0 0,-15.7 c 14.1,12.72 31.9,25.33 58.1,25.33 49.7,0 94.7,-45.032 92.8,-104.73 -2.1,-59.67 -36.5,-98.17 -93.3,-98.17 -28.3,0 -41.4,11.1 -58.1,22.2 l 0,-147.7 -55.7,0 z m 98.2,176.11 c 28.3,0 49.1,22.26 49.1,48.06 0,25.7 -16.7,49.0977 -47.1,49.0977 -30.5,0 -49.6,-16.6977 -49.6,-45.4977 0,-28.9 19.1,-51.66 47.6,-51.66 z" id="path3069" style="fill:#ffffff;stroke:none"/>
    <path d="m 121.7,95.2 70.9,0 0,207.6 -45.7,0 0,-167.2 -25.2,0 z" id="path3076" style="fill:#ffffff;stroke:none"/>
    <path d="m 291.8,213.2 c 16.7,0 30.3,13.7 30.3,30.4 0,16.7 -13.6,30.4 -30.3,30.4 -16.8,0 -30.3,-13.7 -30.3,-30.4 0,-16.7 13.5,-30.4 30.3,-30.4 z m -3.1,-87.7 c 1,0 1.5,0 2.5,0 13.8,0 24.9,11.2 24.9,24.9 0,13.6 -11.1,24.7 -24.9,24.7 -13.6,0 -24.8,-11.1 -24.8,-24.7 0,-12.7 9.7,-23.4 22.3,-24.9 z m 3.6,-35.34 c -39.6,0 -64.3,21.74 -64.3,59.64 0,20.8 10.1,32.5 20.3,44.1 -17.8,7.6 -31,21.8 -31,50.2 0,43.1 26.3,63.8 75,63.8 48.4,0 72.7,-20.4 72.7,-63.8 0,-28.9 -18.2,-40.5 -30.8,-50.2 11.6,-10.6 25.7,-23.3 25.7,-44.1 0,-36.4 -28.3,-59.64 -67.6,-59.64 z" id="path3078" style="fill:#ffffff;stroke:none"/>
    <path d="m 470.8,90.16 -95.6,146.74 0,30.4 95.6,0 0,35.9 41,0 0,-35.9 25.4,0 0,-35.4 -25.4,0 0,-141.74 -41,0 z m 0,75.34 0,66.4 -42,0 42,-66.4 z" id="path3111" style="fill:#ffffff;stroke:none"/>
    <path d="M 627.3,86.03 C 586.2,131.2 536.2,187.9 536.2,233 c 0,37.4 21.1,74.9 81,74.9 50.6,0 76.3,-31 76.3,-74.9 0,-49.3 -30.3,-68.5 -77.8,-66 l 44,-53.6 -32.4,-27.37 z M 615.7,203 c 18.2,0 32.9,14.7 32.9,32.9 0,18.4 -14.7,33 -32.9,33 -18.4,0 -33,-14.6 -33,-33 0,-18.2 14.6,-32.9 33,-32.9 z" id="path3116" style="fill:#ffffff;stroke:none"/>
  </g>
</svg>