<?xml version="1.0" encoding="UTF-8" ?>
<svg
  version="1.1"
  width="850px"
  height="312px"
  viewBox="0 0 850.0 312.0"
  xmlns="http://www.w3.org/2000/svg"
  xmlns:xlink="http://www.w3.org/1999/xlink"
><defs><clipPath id="95451211214545575498109"><path
        d="M850,0 L850,312 L0,312 L0,0 L850,0 Z"
      /></clipPath><clipPath id="11411410712210311312110154120"><path
        d="M37.2626657,0 C44.0773322,0 49.6133321,3.8333279 49.8253321,12.3505277 C50.0386654,17.4614876 49.8253321,30.8744206 50.6773321,34.7077538 C51.7605005,39.9257651 56.7584437,46.9646 61.8194856,53.8670006 L62.5256994,54.8290438 C68.1724853,62.5151553 73.6746648,69.9178217 73.6746648,74.3145528 C73.6746648,79.637486 69.6293316,82.6172193 61.5359985,82.6172193 C53.8706653,82.6172193 49.3999988,79.4240193 46.2053322,74.9520195 C41.307999,68.138553 40.243999,65.157353 36.4119991,65.157353 C34.3543388,65.157353 32.2193954,68.0294135 30.1946952,71.0552266 L29.8164017,71.6237047 C28.622853,73.4253879 27.4723012,75.2213805 26.4039993,76.4426861 C22.5706661,80.9145526 17.4613329,82.6172193 11.7106664,82.6172193 C2.76799993,82.6172193 0,78.571886 0,74.3145528 C0,70.4616251 5.04072684,63.2632686 10.4452175,55.7174017 L11.1675613,54.70949 L11.8917527,53.6990388 L12.6153283,52.6876273 C18.1540844,44.9338264 23.4213327,37.234584 23.4213327,32.7921538 C23.4213327,14.0530876 21.0813328,0 37.2626657,0 Z"
      /></clipPath><clipPath id="12297121541065610610395104"><path
        d="M61.7506651,9.38666636 C61.7506651,19.288475 45.2853292,17.9348249 44.5218089,17.9049032 L44.5026656,17.9044128 C28.5333326,17.9044128 23.2106661,18.5429461 23.2106661,25.5694793 C23.2106661,30.0413458 25.978666,32.8096124 37.9026657,32.8096124 L38.6732159,32.8099584 C38.9327047,32.8103043 39.1946663,32.8109961 39.4586028,32.8123797 L39.9889617,32.8161719 C40.6104418,32.8219115 41.2408677,32.8326731 41.8739159,32.8528512 L42.4170232,32.8725553 C48.847902,33.1354341 55.3626653,34.4962185 55.3626653,41.5402789 C55.3626653,49.2868886 48.263598,50.6306539 40.9312239,50.8612334 L40.3519926,50.8772207 C39.9656822,50.8864657 39.5792259,50.8930126 39.1936249,50.8976327 L38.6159898,50.9032141 C38.5198659,50.9039357 38.4238268,50.9045609 38.327888,50.9051018 L37.7535848,50.9074324 C37.65811,50.9076844 37.5627669,50.9078762 37.4675711,50.90802 L35.7733324,50.908012 C28.7466659,50.908012 25.126666,52.185612 25.126666,56.0189452 C25.126666,58.7866785 28.7466659,60.7044117 35.7733324,60.7044117 L36.5634999,60.7047545 C49.1239477,60.716967 57.7053319,61.1119464 57.7053319,70.4976115 C57.7053319,75.183078 52.5946654,78.8028113 46.6319988,78.8028113 L11.4986664,78.8028113 C4.68533322,78.8028113 0,73.6924114 0,66.8773449 L0,13.8590796 C0,0.577081513 6.46996664,0.0272093904 21.6816932,0.0175401477 L41.5226656,0.0173999266 C42.0180126,0.0173999266 42.6953437,0.00462405021 43.5026643,0.000967165839 L44.1317153,0.000276420886 C50.142753,0.0159844539 61.7506651,0.729811746 61.7506651,9.38666636 Z"
      /></clipPath><clipPath id="504910111210453106110107116"><path
        d="M64.7319984,0 C70.0546649,0 74.7399981,2.7677106 74.7399981,8.51719045 C74.7399981,12.9890037 73.6746648,13.841137 56.0013319,43.4386029 C55.149332,44.9280695 54.7239986,46.4187362 54.7239986,48.3359361 C54.7239986,52.594736 57.2786652,54.935936 62.6013318,60.6864691 C71.1186649,70.0547356 71.9706649,71.5452689 71.9706649,75.3771354 C71.9706649,82.8307353 60.8986651,82.1906019 56.6386653,82.1906019 C53.233332,82.1906019 49.6133321,80.913002 45.1413322,78.1452687 C40.8826656,75.5906021 34.4946658,65.157269 30.2359992,65.157269 C27.6813326,65.157269 26.8293327,67.9255356 25.9773327,71.7572689 C24.2746661,78.5719354 21.5066661,81.978602 13.413333,81.978602 C4.68533322,81.978602 0.213333328,76.6547354 0.213333328,66.2214023 L0,18.9520702 C0,8.73072378 1.70266662,0 13.201333,0 C21.0799995,0 26.4039993,4.04531057 26.4039993,14.6922036 C26.4039993,21.9318035 28.9586659,26.6171367 33.2173325,26.6171367 L33.3814546,26.6152424 C36.0315554,26.5516384 37.2537591,24.8029463 47.2706655,8.94375044 C50.8906654,2.98124393 55.3613319,0 64.7319984,0 Z"
      /></clipPath><clipPath id="11449110999911948100119107"><path
        d="M40.031999,0 C53.021332,0 67.7133316,9.79478909 67.7133316,17.8870289 C67.7133316,22.1452954 63.2413318,25.977562 57.7053319,25.977562 L57.3905697,25.9770036 C55.9443141,25.9694644 54.0784354,25.8601459 51.1053321,24.2750287 C46.2066655,21.7203621 44.5026656,19.5895622 37.6893324,19.5895622 C29.1719993,19.5895622 20.2293328,30.0228952 22.3586661,45.9936949 C24.2759994,60.2603612 34.2826658,62.3879611 38.5413324,62.3879611 C40.6706656,62.3879611 44.0773322,61.7510278 46.4199988,60.2603612 L52.3826654,56.6400946 C53.873332,55.7879613 55.5759986,55.3630279 57.4933319,55.3630279 C62.6039984,55.3630279 67.5,58.9827612 67.5,64.5176944 C67.5,67.925561 61.9639985,74.3135608 55.5759986,77.7203607 C50.6786654,80.2750273 46.8453322,81.9786273 36.4119991,81.9786273 C26.6173327,81.9786273 16.8226662,77.7203607 9.58266643,69.4160943 C3.19466659,62.1760944 0,52.381828 0,40.4562283 C0,17.8870289 16.3959996,0 40.031999,0 Z"
      /></clipPath><clipPath id="102104114100119555112297105"><path
        d="M39.391999,0 C61.7493318,0 78.9973314,16.8213329 78.9973314,41.5213323 C78.9973314,64.944265 61.1106651,82.6171979 40.0306657,82.6171979 C26.8293327,82.6171979 16.8213329,77.7187981 9.58133309,69.2015983 C3.40666658,61.9625318 0,51.5291987 0,39.6041323 C0,17.4598662 17.6733329,0 39.391999,0 Z M38.9653324,20.0161328 C29.1719993,20.0161328 21.9306661,27.468266 21.9306661,42.5854656 C21.9306661,54.8291986 29.1719993,63.2401318 38.7533324,63.2401318 C51.529332,63.2401318 56.8519986,51.7426654 56.8519986,41.3078656 C56.8519986,28.5317326 49.6133321,20.0161328 38.9653324,20.0161328 Z"
      /></clipPath><clipPath id="10110511257451055111612295"><path
        d="M59.8346652,0 C66.6479983,0 70.0546649,4.68542655 70.0546649,14.2650796 L70.0546649,59.1948119 C70.0546649,73.6745448 67.286665,77.7197447 57.9173319,77.7197447 C52.1679987,77.7197447 47.9093321,73.8864115 47.9093321,66.221345 C47.9093321,55.5760119 45.7813322,51.3156121 34.9213325,51.3156121 C25.9773327,51.3156121 22.7839994,54.722412 22.7839994,64.0916117 C22.7839994,72.3958782 19.8026662,77.9317447 10.8599997,77.9317447 C4.89733321,77.9317447 0.425333323,73.4614782 0.425333323,65.3692117 L0.425333323,44.7145455 L0.213333328,36.1984124 L0,18.5249462 C0,7.45209315 1.27866663,0 11.7119997,0 C19.3773328,0 21.9319995,4.47187989 22.5706661,13.6281463 C23.4226661,29.3838793 24.9133327,31.3010792 35.5599991,31.3010792 C45.3546655,31.3010792 46.8453322,28.7453459 47.6973321,15.5437463 C48.1226655,3.19479992 50.8906654,0 59.8346652,0 Z"
      /></clipPath><clipPath id="561114511655112114108119102"><path
        d="M42.0386656,0 C46.5253322,0 49.1239988,1.65319996 50.0679987,5.19586654 L60.9293318,45.5786655 C63.2906651,55.0239986 67.0693317,54.0799986 67.3053317,54.0799986 C70.3746649,54.0799986 72.0279982,49.8293321 72.0279982,41.091999 L72.0306649,5.66773319 C72.0306649,1.88906662 74.1559981,0 78.407998,0 C82.6573313,0 84.7839979,1.88906662 84.7826652,5.66773319 L84.7799979,70.3759982 C84.7799979,74.6253315 82.8906646,76.7506647 79.111998,76.7506647 L67.3039983,76.7506647 C62.5813318,76.7506647 59.9839985,75.0973315 59.0386652,71.5559982 L49.1226654,31.4093325 C47.4693321,25.0333327 45.3453322,21.9625328 42.5106656,21.9625328 C37.3146657,21.9625328 36.6066658,27.3947993 36.6066658,27.3947993 L26.2133327,70.1386649 C24.5895232,76.4008076 21.3709008,76.7402783 19.2442338,76.7504054 L5.19466654,76.7506647 C1.65333329,76.7506647 0,74.8613315 0,71.0826649 L0.0026666666,6.37613317 C0.0026666666,1.65319996 1.65599996,0.235999994 7.32399982,0.235999994 C10.3946664,0.235999994 12.0466664,2.12559995 12.0466664,5.66773319 L12.045333,41.327999 C12.045333,50.0653321 13.697333,54.3159986 17.2413329,54.3159986 C19.6013328,54.3159986 21.4919995,51.9546654 22.6719994,47.7039988 L34.0093325,5.90426652 C35.4266658,0.473466655 38.7333324,0 42.0386656,0 Z"
      /></clipPath><clipPath id="111118491151001071195255119"><path
        d="M12.4577828,0 C18.359116,0 19.671116,3.71519991 19.671116,11.364133 L19.6684493,61.8495985 L19.6680296,62.9845202 C19.6579576,71.9110147 19.406156,77.1469314 13.1111161,77.1469314 L6.33644964,77.1469314 C2.18311641,77.1469314 0.216449795,74.0869315 0.217783129,67.968265 L0.000449800644,15.9537329 L0.000986422269,13.4706917 C0.0215782951,4.93489726 0.434888814,0 7.43244961,0 L12.4577828,0 Z"
      /></clipPath><clipPath id="1051171145755111951171160"><path
        d="M49.9559988,0 C55.5813319,0 58.5079985,2.02493328 58.5066657,5.85053319 C58.5066657,9.90106642 56.2559986,11.924933 51.7559987,11.924933 L26.1039993,11.924933 C20.0279995,11.924933 16.4279996,14.850533 16.4279996,20.9265328 L16.4279996,24.0754661 C16.4266663,31.0517326 19.3519995,34.4277325 25.4279994,34.4277325 L45.9039989,34.4277325 C50.4039987,34.4277325 52.6546654,36.4530658 52.6546654,40.278399 C52.6546654,44.3277322 50.4039987,46.3530655 45.9039989,46.3530655 L25.4279994,46.3530655 C19.5759995,46.3530655 16.6519996,49.9530654 16.6519996,55.5797319 C16.6506663,61.4290651 20.4759995,64.3557317 25.426666,64.3557317 L48.3786655,64.3557317 C52.8786653,64.3557317 55.1279986,66.3797317 55.1279986,70.2050649 C55.1279986,74.2557315 52.8786653,76.2810648 48.3786655,76.2810648 L6.52399984,76.2810648 C2.24933328,76.2810648 0,73.6943982 0,68.9677316 L0.0026666666,7.87546647 C0.0026666666,2.24893328 2.25199994,0 6.97733316,0 L49.9559988,0 Z"
      /></clipPath><clipPath id="1039810610801211191139855"><path
        d="M10.3386664,0 C14.2426663,0 16.3093329,2.52813327 16.3093329,7.8103998 L16.3093329,25.495866 C16.3079996,30.5493326 19.9839995,34.2239991 25.0373327,34.2239991 L38.9987888,34.2230334 C44.4374111,34.1959626 50.9919987,33.5371613 50.9919987,24.5770661 L50.9933321,7.8103998 C50.9933321,2.52813327 52.8306653,0 56.5066653,0 L61.3293318,0 C65.2333317,0 67.2999983,2.52813327 67.2999983,7.8103998 L67.2973317,66.3813317 C67.2973317,75.9014007 65.2826972,77.1447123 59.4893179,77.1754004 L59.2586652,77.1759981 C51.9079987,77.1759981 50.9906654,75.5679981 50.9906654,65.002665 C50.9906654,50.7613321 49.6133321,48.0053321 39.047999,48.0053321 L27.3333327,48.0053321 C20.6733328,48.0053321 16.3079996,50.9906654 16.3079996,56.7333319 L16.3066663,69.1359983 C16.3066663,74.4199981 14.469333,76.9453314 10.7933331,76.9453314 L5.05199987,76.9453314 C1.60666663,76.9453314 0,74.4199981 0,69.1359983 L0.0026666666,10.5666664 C0.0026666666,0.919866644 1.15066664,0 10.3386664,0 Z"
      /></clipPath><clipPath id="5309710911411510999116103"><path
        d="M56.0479986,0 C62.9373318,0 64.774665,2.52653327 64.774665,7.34893315 L64.7719984,67.5277316 C64.7719984,75.3370648 63.3946651,76.9463981 57.1933319,76.9463981 C52.5999987,76.9463981 50.7626654,74.4183981 50.7626654,69.5957316 L50.7639987,41.3437323 C50.7639987,36.0610658 49.6146654,32.1570659 46.1693322,32.1570659 C45.9397322,32.1570659 45.7193055,32.1616525 45.5034602,32.1788659 L45.3194648,32.1968999 C43.4580735,32.4154969 41.8449513,33.7673896 37.4413324,41.5730656 C17.7928262,75.6862914 18.6426614,76.9225293 10.4209408,76.9480702 L9.88354544,76.9483613 C9.60840298,76.9479897 9.32337977,76.9470712 9.02751458,76.9466352 L8.31178987,76.9461935 C3.88787747,76.9396482 0,76.7236506 0,69.5957316 L0.0026666666,9.41706643 C0.0039999999,1.60613329 1.84133329,0.229066661 6.89466649,0.229066661 C12.177333,0.229066661 14.0146663,2.52653327 14.0146663,7.34893315 L14.013333,36.5197324 C14.013333,40.4250657 14.7026663,44.3290656 18.8359995,44.3290656 C21.5933328,44.3290656 23.8893327,40.8837323 24.8093327,39.2757324 L45.2519989,4.82386655 C47.0906655,1.60613329 50.0759987,0 56.0479986,0 Z"
      /></clipPath><clipPath id="121511201181161034598120113"><path
        d="M56.0466653,0 C62.9373318,0 64.774665,2.52653327 64.774665,7.34893315 L64.7719984,67.5277316 C64.7719984,75.3370648 63.3933317,76.9463981 57.1919986,76.9463981 C52.597332,76.9463981 50.7599987,74.4183981 50.7599987,69.5957316 L50.7613321,41.3437323 C50.7626654,36.0610658 49.6146654,32.1570659 46.1693322,32.1570659 C43.8719989,32.1570659 42.4933323,32.6157325 37.4399991,41.5730656 C17.7902396,75.6862914 18.6411777,76.9225293 10.4207014,76.9480702 L9.88338561,76.9483613 C9.60828302,76.9479897 9.32329978,76.9470712 9.02747458,76.9466352 L8.31178987,76.9461935 C3.88787747,76.9396482 0,76.7236506 0,69.5957316 L0.0026666666,9.41706643 C0.0026666666,1.60613329 1.83999995,0.229066661 6.89333316,0.229066661 C12.1759997,0.229066661 14.013333,2.52653327 14.013333,7.34893315 L14.0119996,36.5197324 C14.0119996,40.4250657 14.6999996,44.3290656 18.8359995,44.3290656 C21.5906661,44.3290656 23.8879994,40.8837323 24.8079994,39.2757324 L45.2519989,4.82386655 C47.0879988,1.60613329 50.0746654,0 56.0466653,0 Z"
      /></clipPath><clipPath id="11210111810910510911211597109"><path
        d="M9.21119343,0 C14.1925266,0 15.3245266,1.81199995 17.5898599,5.20946654 C21.5990401,11.8913024 23.4165515,12.4381425 29.5096136,12.454276 L38.4231927,12.4546664 C43.8578592,12.4546664 47.4818591,12.2291997 48.8405258,11.5494664 C51.1045257,10.6437331 52.2365257,9.28546643 54.0485256,5.88799985 C56.5391923,1.58546663 58.5778589,0 61.2951921,0 L66.731192,0 C70.3525252,0 73.5231918,1.81199995 71.9391919,5.88799985 L47.4791925,70.6546649 C45.6671925,75.6359981 42.7231926,76.7693314 39.552526,76.7693314 L31.6258595,76.7693314 C28.2298596,76.7693314 25.5125264,74.5039981 23.9271931,70.2013316 L0.604526983,7.24693315 C-0.526139655,3.85053324 -0.526139655,0 4.68186021,0 L9.21119343,0 Z M38.648526,24.2307994 L32.7618595,24.2307994 C28.6845263,24.2307994 25.2885264,28.534666 26.4205263,32.6093325 L30.7218596,47.3293322 C31.8538595,51.405332 33.6658595,53.4439987 35.9298594,53.4439987 C38.1951927,53.4439987 40.0071927,51.8586654 41.3658593,46.8759988 L45.4418592,33.0626658 C46.8005258,28.534666 43.6311926,24.2307994 38.648526,24.2307994 Z"
      /></clipPath><clipPath id="10012011010610410955100105122"><path
        d="M42.0386656,0 C46.5253322,0 49.1226654,1.65319996 50.0679987,5.19586654 L60.9293318,45.5786655 C63.2906651,55.0239986 67.0693317,54.0799986 67.3053317,54.0799986 C70.3746649,54.0799986 72.0293315,49.8293321 72.0293315,41.091999 L72.0306649,5.66773319 C72.0306649,1.88906662 74.1559981,0 78.4066647,0 C82.6573313,0 84.7826645,1.88906662 84.7826645,5.66773319 L84.7799979,70.3759982 C84.7799979,74.6253315 82.8906646,76.7506647 79.111998,76.7506647 L67.3039983,76.7506647 C62.5813318,76.7506647 59.9839985,75.0973315 59.0386652,71.5559982 L49.1213321,31.4093325 C47.4693321,25.0333327 45.3439989,21.9625328 42.5093323,21.9625328 C37.3146657,21.9625328 36.6066658,27.3947993 36.6066658,27.3947993 L26.2133327,70.1386649 C24.5895232,76.4008076 21.372187,76.7402783 19.2430395,76.7504054 L5.19599987,76.7506647 C1.65333329,76.7506647 0,74.8613315 0,71.0839982 L0.0026666666,6.37613317 C0.0026666666,1.65319996 1.65599996,0.235999994 7.32399982,0.235999994 C10.3933331,0.235999994 12.0466664,2.12559995 12.0466664,5.66773319 L12.045333,41.327999 C12.045333,50.0653321 13.6986663,54.3159986 17.2399996,54.3159986 C19.6013328,54.3159986 21.4906661,51.9546654 22.6719994,47.7039988 L34.0093325,5.90426652 C35.4266658,0.473466655 38.731999,0 42.0386656,0 Z"
      /></clipPath><clipPath id="10553531031121144910553109"><path
        d="M35.9429901,0 C42.5429899,0 48.5056564,3.40666658 50.8469897,10.4333331 C70.2549092,66.3573583 70.8466724,64.4089616 70.8625798,72.323847 L70.8629892,72.8213315 C70.8629892,77.0799981 67.4563226,80.2746647 60.4296561,80.2746647 C53.616323,80.2746647 49.1443231,77.2933314 47.2283231,71.3319982 C45.6908432,66.4771183 44.4070259,62.4831512 43.3155426,59.1982112 L42.9771856,58.1842534 C38.6044466,45.1394653 37.4451901,44.0759989 35.0909901,44.0759989 C32.5349902,44.0759989 29.9803236,53.657332 24.0176571,71.7573315 C22.3149904,76.8679981 17.6296572,80.699998 9.96432407,80.699998 C3.57632423,80.699998 -2.17167563,76.2293314 0.809657633,66.8599983 L17.8429905,15.5426663 C22.1016571,3.40666658 25.721657,0 35.9429901,0 Z"
      /></clipPath><clipPath id="1041011151161151035111951104"><path
        d="M32.1533325,0 C57.7039986,0 66.8613317,14.4786663 66.8613317,27.254666 C66.8613317,34.2813325 64.3053317,39.8173323 58.5559985,44.2906656 C48.1226655,51.9546654 41.095999,51.1039987 34.7079991,52.381332 C28.9586659,53.4466653 26.6159993,55.7879986 26.6159993,58.7693319 C26.6159993,61.5373318 30.0239992,63.0279984 34.4946658,63.0279984 C40.243999,63.0279984 45.1413322,57.4906652 50.8906654,57.4906652 C58.5559985,57.4906652 62.8146651,63.0279984 62.8146651,67.7119983 C62.8146651,74.9519981 48.5479988,82.6173313 32.1533325,82.6173313 C20.6546662,82.6173313 12.989333,78.571998 8.30533313,74.3133315 C2.98133326,69.4159983 0.425333323,63.2399984 0.425333323,56.0013319 C0.425333323,48.7613321 3.40666658,42.5853323 9.58266643,38.327999 C15.5439996,34.0693325 22.3586661,32.7906658 31.5133325,31.5146659 C37.4759991,30.6613326 41.7346656,28.106666 41.7346656,24.6999994 C41.7346656,21.9319995 38.1146657,19.1639995 32.1533325,19.1639995 C21.7199995,19.1639995 18.0986662,25.1253327 11.4986664,25.1253327 C6.17466651,25.1253327 0,21.5066661 0,16.3946663 C0,7.23999982 14.6919996,0 32.1533325,0 Z"
      /></clipPath><clipPath id="105531221091085697116102107"><path
        d="M30.2359992,0 C35.9853324,0 40.8826656,3.40799991 40.8826656,13.841333 L40.8826656,51.529332 C40.8826656,57.9173319 43.0133323,60.8986651 51.3173321,62.3893318 C56.8533319,63.4546651 59.4079985,66.8613317 59.4079985,70.9066649 C59.4079985,77.0813314 55.3626653,80.0626647 45.5679989,80.0626647 L13.4146663,80.0626647 C4.47199989,80.0626647 0,77.0813314 0,71.1199982 C0,66.8613317 2.76799993,63.8799984 8.30533313,62.3893318 C16.3959996,60.2599985 18.5253329,57.9173319 18.5253329,51.529332 L18.5253329,14.053333 C18.5253329,4.47199989 22.1453328,0 30.2359992,0 Z"
      /></clipPath><clipPath id="1141071204854999898114106"><path
        d="M3.86133324,0 L4.06010919,0.00502546293 C6.10106105,0.108467198 7.72399981,1.79582662 7.72399981,3.86249324 L7.72399981,286.213073 C7.72399981,288.345073 5.99466652,290.074406 3.86133324,290.074406 L3.66267842,290.06938 C1.62293876,289.96593 0,288.278448 0,286.213073 L0,3.86249324 C0,1.72915996 1.72933329,0 3.86133324,0 Z"
      /></clipPath><clipPath id="99109106531171144511912198"><path
        d="M0.0734730325,27.420448 C1.21252634,11.1835018 15.298526,-1.05920994 31.5365256,0.0725553648 C47.7734585,1.20588867 60.0130582,15.287115 58.8745249,31.5245812 C57.7359916,47.7605808 43.6494586,60.0043139 27.413059,58.8715139 C11.1745261,57.7376473 -1.06559361,43.6579143 0.0734730325,27.420448 Z"
      /></clipPath><clipPath id="451151009895100955111849"><path
        d="M87.4087858,40.7349926 C93.2005189,14.0912599 111.229185,-27.381139 148.142651,25.617793 C173.405317,66.8735253 181.671983,116.727124 168.193317,120.270857 C157.777317,122.936457 153.933317,117.576057 150.481318,107.241658 C149.760744,104.439099 149.485282,103.678216 149.268658,103.093999 L149.160493,102.799725 C148.851759,101.940309 148.526737,100.765133 146.918651,93.1579246 C146.891984,93.1459246 145.017318,83.2964582 139.415984,75.5401917 C132.970785,67.2213919 126.304118,58.9255255 117.671318,73.7083251 C117.680252,73.6604584 91.4895857,111.361524 99.4505188,223.273655 C99.6583855,227.296321 98.1687855,228.720321 95.2567856,223.294988 C90.5879857,214.674988 83.9874525,185.941656 81.3723859,148.85499 C80.8671859,153.512323 80.2811859,158.173656 79.6349193,162.721656 C74.8021194,195.194989 62.909853,234.169654 43.0603869,269.08832 C34.5119871,283.942987 32.7515871,288.953653 30.4838538,287.918986 C28.1619872,286.942986 31.5963872,281.146987 35.8125204,267.88432 C56.4510532,200.496322 57.2671865,162.309656 55.5693199,150.608323 C53.03172,133.925657 40.0650536,140.208323 34.5177204,146.068323 C23.5745207,159.71899 16.7010542,162.277656 7.78696108,158.772323 C0.185405272,155.29899 -2.47865199,144.35499 2.62706788,134.27899 C13.9718543,111.153657 43.3406535,83.3057915 66.5541196,84.5188582 C71.7021195,85.1307248 78.1578527,88.5416581 80.7802526,94.9255246 C81.6765192,77.1401917 83.7270525,58.7459255 87.4087858,40.7349926 Z"
      /></clipPath></defs><g clip-path="url(#95451211214545575498109)"><g
      clip-path="url(#95451211214545575498109)"
    ><polygon
        points="0,0 850,0 850,312 0,312 0,0"
        stroke="none"
        fill="#FFFFFF"
      /></g><g transform="translate(263.8559937286001 218.59999999999997)"><g
        transform="translate(374.9519906262 82.82919792927001) scale(1.0 -1.0)"
      ><g clip-path="url(#11411410712210311312110154120)"><polygon
            points="0,0 73.6746648,0 73.6746648,82.6172193 0,82.6172193 0,0"
            stroke="none"
            fill="#ED1B24"
          /></g></g><g
        transform="translate(310.8706588949 81.23333130250003) scale(1.0 -1.0)"
      ><g clip-path="url(#12297121541065610610395104)"><polygon
            points="0,-1.38777878e-17 61.7506651,-1.38777878e-17 61.7506651,78.8028113 0,78.8028113 0,-1.38777878e-17"
            stroke="none"
            fill="#ED1B24"
          /></g></g><g
        transform="translate(231.6813275413 83.26841950923333) scale(1.0 -1.0)"
      ><g clip-path="url(#504910111210453106110107116)"><polygon
            points="0,0 74.7399981,0 74.7399981,82.2043569 0,82.2043569 0,0"
            stroke="none"
            fill="#ED1B24"
          /></g></g><g
        transform="translate(158.2546627103 82.51039793724) scale(1.0 -1.0)"
      ><g clip-path="url(#11449110999911948100119107)"><polygon
            points="0,0 67.7133316,0 67.7133316,81.9786273 0,81.9786273 0,0"
            stroke="none"
            fill="#ED1B24"
          /></g></g><g
        transform="translate(75.24799811879996 82.61719793457002) scale(1.0 -1.0)"
      ><g clip-path="url(#102104114100119555112297105)"><polygon
            points="0,0 78.9973314,0 78.9973314,82.6171979 0,82.6171979 0,0"
            stroke="none"
            fill="#ED1B24"
          /></g></g><g
        transform="translate(-2.842170943040401e-14 80.59319798517001) scale(1.0 -1.0)"
      ><g clip-path="url(#10110511257451055111612295)"><polygon
            points="0,0 70.0546649,0 70.0546649,77.9317447 0,77.9317447 0,0"
            stroke="none"
            fill="#ED1B24"
          /></g></g></g><g
      transform="translate(263.82932706259993 119.14999999999999)"
    ><g
        transform="translate(487.8693211366001 77.33093140006008) scale(1.0 -1.0)"
      ><g clip-path="url(#561114511655112114108119102)"><polygon
            points="0,0 84.7826658,0 84.7826658,76.7506647 0,76.7506647 0,0"
            stroke="none"
            fill="#221F20"
          /></g></g><g
        transform="translate(459.1662053868563 77.75013138958005) scale(1.0 -1.0)"
      ><g clip-path="url(#111118491151001071195255119)"><polygon
            points="5.8833743e-14,0 19.671116,0 19.671116,77.1469314 5.8833743e-14,77.1469314 5.8833743e-14,0"
            stroke="none"
            fill="#221F20"
          /></g></g><g
        transform="translate(394.2719901432001 76.28106475964) scale(1.0 -1.0)"
      ><g clip-path="url(#1051171145755111951171160)"><polygon
            points="0,0 58.5066661,0 58.5066661,76.2810648 0,76.2810648 0,0"
            stroke="none"
            fill="#221F20"
          /></g></g><g
        transform="translate(318.1079920472999 77.75626472276006) scale(1.0 -1.0)"
      ><g clip-path="url(#1039810610801211191139855)"><polygon
            points="0,0 67.2999983,0 67.2999983,77.1759981 0,77.1759981 0,0"
            stroke="none"
            fill="#221F20"
          /></g></g><g
        transform="translate(244.1773272289001 77.75785568140358) scale(1.0 -1.0)"
      ><g clip-path="url(#5309710911411510999116103)"><polygon
            points="0,0 64.774665,0 64.774665,76.9485224 0,76.9485224 0,0"
            stroke="none"
            fill="#221F20"
          /></g></g><g
        transform="translate(170.2493290771001 77.75785568140358) scale(1.0 -1.0)"
      ><g clip-path="url(#121511201181161034598120113)"><polygon
            points="0,0 64.774665,0 64.774665,76.9485224 0,76.9485224 0,0"
            stroke="none"
            fill="#221F20"
          /></g></g><g
        transform="translate(91.27013738683121 77.34959806626007) scale(1.0 -1.0)"
      ><g clip-path="url(#11210111810910510911211597109)"><polygon
            points="2.13162821e-14,0 72.3575253,0 72.3575253,76.7693314 2.13162821e-14,76.7693314 2.13162821e-14,0"
            stroke="none"
            fill="#221F20"
          /></g></g><g
        transform="translate(2.842170943040401e-14 77.33093140006014) scale(1.0 -1.0)"
      ><g clip-path="url(#10012011010610410955100105122)"><polygon
            points="0,0 84.7826645,0 84.7826645,76.7506647 0,76.7506647 0,0"
            stroke="none"
            fill="#221F20"
          /></g></g></g><g transform="translate(260.65332714199974 10.0)"><g
        transform="translate(130.1156724268818 80.69999798250004) scale(1.0 -1.0)"
      ><g clip-path="url(#10553531031121144910553109)"><polygon
            points="2.48689958e-14,0 70.8629892,0 70.8629892,80.699998 2.48689958e-14,80.699998 2.48689958e-14,0"
            stroke="none"
            fill="#ED1B24"
          /></g></g><g
        transform="translate(61.622665126100074 83.46933124660004) scale(1.0 -1.0)"
      ><g clip-path="url(#1041011151161151035111951104)"><polygon
            points="0,0 66.8613317,0 66.8613317,82.6173313 0,82.6173313 0,0"
            stroke="none"
            fill="#ED1B24"
          /></g></g><g
        transform="translate(1.7763568394002505e-14 80.59599798510007) scale(1.0 -1.0)"
      ><g clip-path="url(#105531221091085697116102107)"><polygon
            points="0,0 59.4079985,0 59.4079985,80.0626647 0,80.0626647 0,0"
            stroke="none"
            fill="#ED1B24"
          /></g></g></g><g
      transform="translate(219.47866150470003 300.3744060814731) scale(1.0 -1.0)"
    ><g clip-path="url(#1141071204854999898114106)"><polygon
          points="0,0 7.72399981,0 7.72399981,290.074406 0,290.074406 0,0"
          stroke="none"
          fill="#D5D3D5"
        /></g></g><g
      transform="translate(13.000012056339088 13.073744887848335)"
    ><g
        transform="translate(8.81506135563842 286.89044669270015) scale(1.0 -1.0)"
      ><g clip-path="url(#99109106531171144511912198)"><polygon
            points="-5.96744876e-16,-5.55111512e-17 58.9479347,-5.55111512e-17 58.9479347,58.9441916 -5.96744876e-16,58.9441916 -5.96744876e-16,-5.55111512e-17"
            stroke="none"
            fill="#ED1B24"
          /></g></g><g
        transform="translate(0.0 288.0495103839643) scale(1.0 -1.0)"
      ><g clip-path="url(#451151009895100955111849)"><polygon
            points="-4.4408921e-16,-3.55271368e-15 174.608382,-3.55271368e-15 174.608382,288.04951 -4.4408921e-16,288.04951 -4.4408921e-16,-3.55271368e-15"
            stroke="none"
            fill="#ED1B24"
          /></g></g></g></g></svg>
