<?xml version="1.0" encoding="UTF-8" standalone="no"?>
<!DOCTYPE svg PUBLIC "-//W3C//DTD SVG 1.1//EN" "http://www.w3.org/Graphics/SVG/1.1/DTD/svg11.dtd">

<svg width="824px" height="292px" viewBox="0 0 824 292" version="1.1" xmlns="http://www.w3.org/2000/svg" xmlns:xlink="http://www.w3.org/1999/xlink">
    <g id="Page-1" stroke="none" stroke-width="1" fill="none" fill-rule="evenodd">
        <g id="Artboard">
            <g id="Hockey" transform="translate(250.855994, 208.600000)" fill="#ED1C24">
                <path d="M401.35599,76.6546648 C397.522657,81.1265313 392.413324,82.8291979 386.662657,82.8291979 C377.719991,82.8291979 374.951991,78.7838647 374.951991,74.5265315 C374.951991,66.2213317 398.373323,42.3718656 398.373323,33.0041325 C398.373323,14.2650663 396.033323,0.211978661 412.214656,0.211978661 C419.029323,0.211978661 424.565323,4.04530657 424.777323,12.5625064 C424.990656,17.6734662 424.777323,31.0863992 425.629323,34.9197325 C427.971989,46.2051988 448.626655,66.007865 448.626655,74.5265315 C448.626655,79.8494647 444.581322,82.8291979 436.487989,82.8291979 C428.822656,82.8291979 424.351989,79.635998 421.157323,75.1639981 C416.25999,68.3505316 415.19599,65.3693317 411.36399,65.3693317 C407.95599,65.3693317 404.33599,73.2478648 401.35599,76.6546648 L401.35599,76.6546648" id="y" fill-rule="nonzero" transform="translate(411.789323, 41.520588) scale(1, -1) translate(-411.789323, -41.520588) "></path>
                <path d="M352.393325,2.44791994 C356.438658,2.44791994 372.621324,1.59583996 372.621324,11.8171864 C372.621324,21.8254661 355.799991,20.3349328 355.373324,20.3349328 C339.403992,20.3349328 334.081325,20.9734661 334.081325,27.9999993 C334.081325,32.4718659 336.849325,35.2401325 348.773325,35.2401325 C356.225324,35.2401325 366.233324,35.2401325 366.233324,43.9707989 C366.233324,53.552132 355.373324,53.338532 346.643991,53.338532 C339.617325,53.338532 335.997325,54.616132 335.997325,58.4494652 C335.997325,61.2171985 339.617325,63.1349318 346.643991,63.1349318 C359.633324,63.1349318 368.575991,63.3469317 368.575991,72.9281315 C368.575991,77.6135981 363.465324,81.2333313 357.502658,81.2333313 L322.369325,81.2333313 C315.555992,81.2333313 310.870659,76.1229314 310.870659,69.3078649 L310.870659,16.2895996 C310.870659,2.87343993 317.471992,2.44791994 333.015992,2.44791994 L352.393325,2.44791994 L352.393325,2.44791994" id="e" fill-rule="nonzero" transform="translate(341.745991, 41.831926) scale(1, -1) translate(-341.745991, -41.831926) "></path>
                <path d="M303.651992,76.4411981 C303.651992,83.8947979 292.579993,83.2546646 288.319993,83.2546646 C284.91466,83.2546646 281.29466,81.9770646 276.82266,79.2093314 C272.563993,76.6546648 266.175993,66.2213317 261.917327,66.2213317 C259.36266,66.2213317 258.51066,68.9895983 257.65866,72.8213315 C255.955994,79.635998 253.187994,83.0426646 245.094661,83.0426646 C236.366661,83.0426646 231.894661,77.7187981 231.894661,67.285465 L231.681328,20.0161328 C231.681328,9.79478642 233.383994,1.06406264 244.882661,1.06406264 C252.761327,1.06406264 258.085327,5.10937321 258.085327,15.7562663 C258.085327,22.9958661 260.639993,27.6811993 264.89866,27.6811993 C267.66666,27.6811993 268.73066,26.190666 278.951993,10.0078131 C282.571993,4.04530657 287.042659,1.06406264 296.413326,1.06406264 C301.735992,1.06406264 306.421326,3.83177324 306.421326,9.58125309 C306.421326,14.0530663 305.355992,14.9051996 287.682659,44.5026656 C286.830659,45.9921322 286.405326,47.4827988 286.405326,49.3999988 C286.405326,53.6587987 288.959993,55.9999986 294.282659,61.7505318 C302.799992,71.1187982 303.651992,72.6093315 303.651992,76.4411981 L303.651992,76.4411981" id="k" fill-rule="nonzero" transform="translate(269.051327, 42.166241) scale(1, -1) translate(-269.051327, -42.166241) "></path>
                <path d="M195.943995,20.1213328 C187.426662,20.1213328 178.483996,30.5546659 180.613329,46.5254655 C182.530662,60.7921318 192.537329,62.9197318 196.795995,62.9197318 C198.925328,62.9197318 202.331995,62.2827984 204.674662,60.7921318 L210.637328,57.1718652 C212.127995,56.3197319 213.830661,55.8947986 215.747995,55.8947986 C220.858661,55.8947986 225.754663,59.5145318 225.754663,65.049465 C225.754663,68.4573316 220.218661,74.8453315 213.830661,78.2521314 C208.933328,80.806798 205.099995,82.5103979 194.666662,82.5103979 C184.871995,82.5103979 175.077329,78.2521314 167.837329,69.9478649 C161.449329,62.7078651 158.254663,52.9135987 158.254663,40.987999 C158.254663,18.4187995 174.650662,0.531770653 198.286662,0.531770653 C211.275995,0.531770653 225.967994,10.3265597 225.967994,18.4187995 C225.967994,22.6770661 221.495994,26.5093327 215.959995,26.5093327 C214.469328,26.5093327 212.553328,26.5093327 209.359995,24.8067994 C204.461328,22.2521328 202.757328,20.1213328 195.943995,20.1213328 L195.943995,20.1213328" id="c" fill-rule="nonzero" transform="translate(192.111329, 41.521084) scale(1, -1) translate(-192.111329, -41.521084) "></path>
                <path d="M97.1786642,42.5854656 C97.1786642,54.8291986 104.419997,63.2401318 114.00133,63.2401318 C126.77733,63.2401318 132.099997,51.7426654 132.099997,41.3078656 C132.099997,28.5317326 124.86133,20.0161328 114.21333,20.0161328 C104.419997,20.0161328 97.1786642,27.468266 97.1786642,42.5854656 L97.1786642,42.5854656 Z M154.245329,41.5213323 C154.245329,64.944265 136.358663,82.6171979 115.278664,82.6171979 C102.077331,82.6171979 92.069331,77.7187981 84.8293312,69.2015983 C78.6546647,61.9625318 75.2479981,51.5291987 75.2479981,39.6041323 C75.2479981,17.4598662 92.921331,0 114.639997,0 C136.99733,0 154.245329,16.8213329 154.245329,41.5213323 L154.245329,41.5213323" id="o" transform="translate(114.746664, 41.308599) scale(1, -1) translate(-114.746664, -41.308599) "></path>
                <path d="M22.7839994,66.753065 C22.7839994,75.0573315 19.8026662,80.593198 10.8599997,80.593198 C4.89733321,80.593198 0.425333323,76.1229314 0.425333323,68.030665 L0.425333323,47.3759988 L0.213333328,38.8598657 L-2.84217094e-14,21.1863995 C-2.84217094e-14,10.1135464 1.27866663,2.66145327 11.7119997,2.66145327 C19.3773328,2.66145327 21.9319995,7.13333315 22.5706661,16.2895996 C23.4226661,32.0453325 24.9133327,33.9625325 35.5599991,33.9625325 C45.3546655,33.9625325 46.8453322,31.4067992 47.6973321,18.2051995 C48.1226655,5.85625319 50.8906654,2.66145327 59.8346652,2.66145327 C66.6479983,2.66145327 70.0546649,7.34687982 70.0546649,16.9265329 L70.0546649,61.8562651 C70.0546649,76.3359981 67.286665,80.381198 57.9173319,80.381198 C52.1679987,80.381198 47.9093321,76.5478648 47.9093321,68.8827983 C47.9093321,58.2374652 45.7813322,53.9770653 34.9213325,53.9770653 C25.9773327,53.9770653 22.7839994,57.3838652 22.7839994,66.753065 L22.7839994,66.753065" id="H" fill-rule="nonzero" transform="translate(35.027332, 41.627326) scale(1, -1) translate(-35.027332, -41.627326) "></path>
            </g>
            <g id="Mannheim" transform="translate(250.829327, 109.150000)" fill="#231F20">
                <path d="M506.998654,77.3309314 L493.063988,77.3309314 C489.522654,77.3309314 487.869321,75.4415981 487.869321,71.6629315 L487.871988,6.95639983 C487.871988,2.23346661 489.525321,0.816266646 495.193321,0.816266646 C498.263988,0.816266646 499.915988,2.7058666 499.915988,6.24799984 L499.914654,41.9082656 C499.914654,50.6455987 501.566654,54.8962653 505.110654,54.8962653 C507.470654,54.8962653 509.361321,52.534932 510.541321,48.2842655 L521.878654,6.48453317 C523.295987,1.05373331 526.602654,0.580266652 529.907987,0.580266652 C534.394653,0.580266652 536.99332,2.23346661 537.93732,5.77613319 L548.798653,46.1589322 C551.159986,55.6042653 554.938653,54.6602653 555.174653,54.6602653 C558.243986,54.6602653 559.897319,50.4095987 559.897319,41.6722656 L559.899986,6.24799984 C559.899986,2.46933327 562.025319,0.580266652 566.277319,0.580266652 C570.526652,0.580266652 572.653319,2.46933327 572.651986,6.24799984 L572.649319,70.9562649 C572.649319,75.2055981 570.759986,77.3309314 566.981319,77.3309314 L555.173319,77.3309314 C550.450653,77.3309314 547.85332,75.6775981 546.907986,72.1362649 L536.991987,31.9895992 C535.338653,25.6135994 533.214653,22.5427994 530.379987,22.5427994 C525.183987,22.5427994 524.475987,27.975066 524.475987,27.975066 L514.082654,70.7189316 C512.429321,77.0949314 509.122654,77.3309314 506.998654,77.3309314 L506.998654,77.3309314" id="m" fill-rule="nonzero" transform="translate(530.260654, 38.955599) scale(1, -1) translate(-530.260654, -38.955599) "></path>
                <path d="M472.277322,77.7501314 L465.502655,77.7501314 C461.349322,77.7501314 459.382655,74.6901315 459.383989,68.571465 L459.166655,16.5569329 C459.167989,6.5022665 458.947989,0.603199985 466.598655,0.603199985 L471.623988,0.603199985 C477.525321,0.603199985 478.837321,4.31839989 478.837321,11.967333 L478.834655,62.4527984 C478.834655,72.0687982 478.834655,77.7501314 472.277322,77.7501314 L472.277322,77.7501314" id="i" fill-rule="nonzero" transform="translate(469.001763, 39.176666) scale(1, -1) translate(-469.001763, -39.176666) "></path>
                <path d="M442.650656,76.2810648 L400.79599,76.2810648 C396.521323,76.2810648 394.27199,73.6943982 394.27199,68.9677316 L394.274657,7.87546647 C394.274657,2.24893328 396.52399,0 401.249323,0 L444.227989,0 C449.853322,0 452.779989,2.02493328 452.778656,5.85053319 C452.778656,9.90106642 450.527989,11.924933 446.027989,11.924933 L420.375989,11.924933 C414.29999,11.924933 410.69999,14.850533 410.69999,20.9265328 L410.69999,24.0754661 C410.698656,31.0517326 413.62399,34.4277325 419.69999,34.4277325 L440.175989,34.4277325 C444.675989,34.4277325 446.926655,36.4530658 446.926655,40.278399 C446.926655,44.3277322 444.675989,46.3530655 440.175989,46.3530655 L419.69999,46.3530655 C413.84799,46.3530655 410.92399,49.9530654 410.92399,55.5797319 C410.922656,61.4290651 414.74799,64.3557317 419.698656,64.3557317 L442.650656,64.3557317 C447.150655,64.3557317 449.399989,66.3797317 449.399989,70.2050649 C449.399989,74.2557315 447.150655,76.2810648 442.650656,76.2810648 L442.650656,76.2810648" id="e" fill-rule="nonzero" transform="translate(423.525323, 38.140532) scale(1, -1) translate(-423.525323, -38.140532) "></path>
                <path d="M328.901325,77.5255981 L323.159992,77.5255981 C319.714659,77.5255981 318.107992,75.0002648 318.107992,69.7162649 L318.110659,11.1469331 C318.110659,1.5001333 319.258659,0.580266652 328.446658,0.580266652 C332.350658,0.580266652 334.417325,3.10839992 334.417325,8.39066646 L334.417325,26.0761327 C334.415992,31.1295992 338.091992,34.8042658 343.145325,34.8042658 L356.695991,34.8042658 C362.209324,34.8042658 369.099991,34.3442658 369.099991,25.1573327 L369.101324,8.39066646 C369.101324,3.10839992 370.938657,0.580266652 374.614657,0.580266652 L379.437324,0.580266652 C383.341324,0.580266652 385.40799,3.10839992 385.40799,8.39066646 L385.405324,66.9615983 C385.405324,76.6069314 383.337324,77.7562647 377.366657,77.7562647 C370.015991,77.7562647 369.098657,76.1482648 369.098657,65.5829317 C369.098657,51.3415987 367.721324,48.5855988 357.155991,48.5855988 L345.441325,48.5855988 C338.781325,48.5855988 334.415992,51.570932 334.415992,57.3135986 L334.414658,69.7162649 C334.414658,75.0002648 332.577325,77.5255981 328.901325,77.5255981 L328.901325,77.5255981" id="h" fill-rule="nonzero" transform="translate(351.757991, 39.168266) scale(1, -1) translate(-351.757991, -39.168266) "></path>
                <path d="M281.61866,42.3823989 C260.715993,78.6730647 263.011993,77.7557314 252.905327,77.7557314 C248.311994,77.7557314 244.177327,77.7557314 244.177327,70.4050649 L244.179994,10.2263997 C244.181327,2.41546661 246.018661,1.03839997 251.071994,1.03839997 C256.35466,1.03839997 258.191994,3.33586658 258.191994,8.15826646 L258.19066,37.3290657 C258.19066,41.234399 258.879994,45.1383989 263.013327,45.1383989 C265.77066,45.1383989 268.06666,41.6930656 268.98666,40.0850657 L289.429326,5.63319986 C291.267993,2.41546661 294.253326,0.809333313 300.225326,0.809333313 C307.114659,0.809333313 308.951992,3.33586658 308.951992,8.15826646 L308.949326,68.337065 C308.949326,76.1463981 307.571992,77.7557314 301.370659,77.7557314 C296.777326,77.7557314 294.939993,75.2277315 294.939993,70.4050649 L294.941326,42.1530656 C294.941326,36.8703991 293.791993,32.9663992 290.346659,32.9663992 C288.050659,32.9663992 286.671993,33.4250658 281.61866,42.3823989 L281.61866,42.3823989" id="n" fill-rule="nonzero" transform="translate(276.564660, 39.283594) scale(1, -1) translate(-276.564660, -39.283594) "></path>
                <path d="M207.689328,42.3823989 C186.785329,78.6730647 189.082662,77.7557314 178.977329,77.7557314 C174.383996,77.7557314 170.249329,77.7557314 170.249329,70.4050649 L170.251996,10.2263997 C170.251996,2.41546661 172.089329,1.03839997 177.142662,1.03839997 C182.425329,1.03839997 184.262662,3.33586658 184.262662,8.15826646 L184.261329,37.3290657 C184.261329,41.234399 184.949329,45.1383989 189.085329,45.1383989 C191.839995,45.1383989 194.137328,41.6930656 195.057328,40.0850657 L215.501328,5.63319986 C217.337328,2.41546661 220.323994,0.809333313 226.295994,0.809333313 C233.186661,0.809333313 235.023994,3.33586658 235.023994,8.15826646 L235.021327,68.337065 C235.021327,76.1463981 233.642661,77.7557314 227.441328,77.7557314 C222.846661,77.7557314 221.009328,75.2277315 221.009328,70.4050649 L221.010661,42.1530656 C221.011994,36.8703991 219.863995,32.9663992 216.418661,32.9663992 C214.121328,32.9663992 212.742661,33.4250658 207.689328,42.3823989 L207.689328,42.3823989" id="n" fill-rule="nonzero" transform="translate(202.636662, 39.283594) scale(1, -1) translate(-202.636662, -39.283594) "></path>
                <path d="M136.711997,33.6429325 C138.070663,29.1149326 134.90133,24.811066 129.918663,24.811066 L124.031997,24.811066 C119.954664,24.811066 116.558664,29.1149326 117.690664,33.1895992 L121.991997,47.9095988 C123.123997,51.9855987 124.935997,54.0242653 127.199997,54.0242653 C129.46533,54.0242653 131.27733,52.438932 132.635997,47.4562655 L136.711997,33.6429325 L136.711997,33.6429325 Z M152.56533,0.580266652 L158.001329,0.580266652 C161.622663,0.580266652 164.793329,2.39226661 163.209329,6.4682665 L138.74933,71.2349316 C136.93733,76.2162648 133.99333,77.3495981 130.822663,77.3495981 L122.895997,77.3495981 C119.499997,77.3495981 116.782664,75.0842648 115.19733,70.7815982 L91.8746644,7.8271998 C90.7439977,4.43079989 90.7439977,0.580266652 95.9519976,0.580266652 L100.481331,0.580266652 C105.462664,0.580266652 106.594664,2.39226661 108.859997,5.78973319 C112.935997,12.582933 114.746664,13.034933 121.087997,13.034933 L129.69333,13.034933 C135.127997,13.034933 138.751997,12.8094663 140.110663,12.129733 C142.374663,11.2239997 143.506663,9.86573309 145.318663,6.4682665 C147.80933,2.16573328 149.847996,0.580266652 152.56533,0.580266652 L152.56533,0.580266652" id="a" transform="translate(127.448900, 38.964932) scale(1, -1) translate(-127.448900, -38.964932) "></path>
                <path d="M19.1279995,77.3309314 L5.19599987,77.3309314 C1.65333329,77.3309314 2.84217094e-14,75.4415981 2.84217094e-14,71.6642649 L0.0026666666,6.95639983 C0.0026666666,2.23346661 1.65599996,0.816266646 7.32399982,0.816266646 C10.3933331,0.816266646 12.0466664,2.7058666 12.0466664,6.24799984 L12.045333,41.9082656 C12.045333,50.6455987 13.6986663,54.8962653 17.2399996,54.8962653 C19.6013328,54.8962653 21.4906661,52.534932 22.6719994,48.2842655 L34.0093325,6.48453317 C35.4266658,1.05373331 38.731999,0.580266652 42.0386656,0.580266652 C46.5253322,0.580266652 49.1226654,2.23346661 50.0679987,5.77613319 L60.9293318,46.1589322 C63.2906651,55.6042653 67.0693317,54.6602653 67.3053317,54.6602653 C70.3746649,54.6602653 72.0293315,50.4095987 72.0293315,41.6722656 L72.0306649,6.24799984 C72.0306649,2.46933327 74.1559981,0.580266652 78.4066647,0.580266652 C82.6573313,0.580266652 84.7826645,2.46933327 84.7826645,6.24799984 L84.7799979,70.9562649 C84.7799979,75.2055981 82.8906646,77.3309314 79.111998,77.3309314 L67.3039983,77.3309314 C62.5813318,77.3309314 59.9839985,75.6775981 59.0386652,72.1362649 L49.1213321,31.9895992 C47.4693321,25.6135994 45.3439989,22.5427994 42.5093323,22.5427994 C37.3146657,22.5427994 36.6066658,27.975066 36.6066658,27.975066 L26.2133327,70.7189316 C24.5599994,77.0949314 21.2546661,77.3309314 19.1279995,77.3309314 L19.1279995,77.3309314" id="M" fill-rule="nonzero" transform="translate(42.391332, 38.955599) scale(1, -1) translate(-42.391332, -38.955599) "></path>
            </g>
            <g id="TSV" transform="translate(247.653327, 0.000000)" fill="#ED1C24" fill-rule="nonzero">
                <path d="M154.133329,71.7573315 C152.430663,76.8679981 147.74533,80.699998 140.079996,80.699998 C133.691997,80.699998 127.943997,76.2293314 130.92533,66.8599983 L147.958663,15.5426663 C152.21733,3.40666658 155.837329,0 166.058663,0 C172.658662,0 178.621329,3.40666658 180.962662,10.4333331 C200.766662,67.498665 200.978662,64.3053317 200.978662,72.8213315 C200.978662,77.0799981 197.571995,80.2746647 190.545329,80.2746647 C183.731995,80.2746647 179.259996,77.2933314 177.343996,71.3319982 C169.251996,45.7799989 168.186662,44.0759989 165.206663,44.0759989 C162.650663,44.0759989 160.095996,53.657332 154.133329,71.7573315 L154.133329,71.7573315" id="V" transform="translate(165.547167, 40.349999) scale(1, -1) translate(-165.547167, -40.349999) "></path>
                <path d="M103.357331,25.5519994 C103.357331,22.7839994 99.7373308,20.0159995 93.7759977,20.0159995 C83.3426646,20.0159995 79.7213313,25.9773327 73.1213315,25.9773327 C67.7973316,25.9773327 61.6226651,22.3586661 61.6226651,17.2466662 C61.6226651,8.0919998 76.3146648,0.851999979 93.7759977,0.851999979 C119.326664,0.851999979 128.483997,15.3306663 128.483997,28.106666 C128.483997,35.1333325 125.927997,40.6693323 120.178664,45.1426655 C109.745331,52.8066653 102.718664,51.9559987 96.3306643,53.233332 C90.5813311,54.2986653 88.2386645,56.6399986 88.2386645,59.6213318 C88.2386645,62.3893318 91.6466644,63.8799984 96.1173309,63.8799984 C101.866664,63.8799984 106.763997,58.3426652 112.513331,58.3426652 C120.178664,58.3426652 124.43733,63.8799984 124.43733,68.5639983 C124.43733,75.8039981 110.170664,83.4693312 93.7759977,83.4693312 C82.2773313,83.4693312 74.6119981,79.423998 69.9279983,75.1653315 C64.6039984,70.2679982 62.0479984,64.0919984 62.0479984,56.8533319 C62.0479984,49.6133321 65.0293317,43.4373322 71.2053316,39.179999 C77.1666647,34.9213325 83.9813312,33.6426658 93.1359977,32.3666659 C99.0986642,31.5133325 103.357331,28.9586659 103.357331,25.5519994 L103.357331,25.5519994" id="S" transform="translate(95.053331, 42.160666) scale(1, -1) translate(-95.053331, -42.160666) "></path>
                <path d="M18.5253329,14.5866663 C18.5253329,5.00533321 22.1453328,0.53333332 30.2359992,0.53333332 C35.9853324,0.53333332 40.8826656,3.94133323 40.8826656,14.3746663 C40.8826656,24.8079994 40.8826656,42.2679989 40.8826656,52.0626654 C40.8826656,58.4506652 43.0133323,61.4319985 51.3173321,62.9226651 C56.8533319,63.9879984 59.4079985,67.394665 59.4079985,71.4399982 C59.4079985,77.6146647 55.3626653,80.595998 45.5679989,80.595998 L13.4146663,80.595998 C4.47199989,80.595998 1.77635684e-14,77.6146647 1.77635684e-14,71.6533315 C1.77635684e-14,67.394665 2.76799993,64.4133317 8.30533313,62.9226651 C16.3959996,60.7933318 18.5253329,58.4506652 18.5253329,52.0626654 L18.5253329,14.5866663 L18.5253329,14.5866663" id="T" transform="translate(29.703999, 40.564666) scale(1, -1) translate(-29.703999, -40.564666) "></path>
            </g>
            <path d="M210.339995,290.374406 L210.339995,290.374406 C212.473328,290.374406 214.202661,288.645073 214.202661,286.513073 L214.202661,4.16249324 C214.202661,2.02915996 212.473328,0.3 210.339995,0.3 L210.339995,0.3 C208.207995,0.3 206.478662,2.02915996 206.478662,4.16249324 L206.478662,286.513073 C206.478662,288.645073 208.207995,290.374406 210.339995,290.374406 L210.339995,290.374406" id="Dash" fill="#D5D4D5" fill-rule="nonzero" transform="translate(210.340661, 145.337203) scale(1, -1) translate(-210.340661, -145.337203) "></path>
            <g id="Sticks" transform="translate(0.000012, 3.073745)" fill="#ED1C24" fill-rule="nonzero">
                <path d="M8.88853439,255.366703 C7.74946775,271.604169 19.9895874,285.683902 36.2281204,286.817769 C52.46452,287.950569 66.5510529,275.706836 67.6895863,259.470836 C68.8281196,243.23337 56.5885199,229.152144 40.3515869,228.01881 C24.1135873,226.887045 10.0275877,239.129757 8.88853439,255.366703 L8.88853439,255.366703" id="Ball" transform="translate(38.289029, 257.418351) scale(1, -1) translate(-38.289029, -257.418351) "></path>
                <path d="M80.7802526,94.9255246 C78.1578527,88.5416581 71.7021195,85.1307248 66.5541196,84.5188582 C43.3406535,83.3057915 13.9718543,111.153657 2.62706788,134.27899 C-2.47865199,144.35499 0.185405272,155.29899 7.78696108,158.772323 C16.7010542,162.277656 23.5745207,159.71899 34.5177204,146.068323 C40.0650536,140.208323 53.03172,133.925657 55.5693199,150.608323 C57.2671865,162.309656 56.4510532,200.496322 35.8125204,267.88432 C31.5963872,281.146987 28.1619872,286.942986 30.4838538,287.918986 C32.7515871,288.953653 34.5119871,283.942987 43.0603869,269.08832 C62.909853,234.169654 74.8021194,195.194989 79.6349193,162.721656 C80.2811859,158.173656 80.8671859,153.512323 81.3723859,148.85499 C83.9874525,185.941656 90.5879857,214.674988 95.2567856,223.294988 C98.1687855,228.720321 99.6583855,227.296321 99.4505188,223.273655 C91.4895857,111.361524 117.680252,73.6604584 117.671318,73.7083251 C126.304118,58.9255255 132.970785,67.2213919 139.415984,75.5401917 C145.017318,83.2964582 146.891984,93.1459246 146.918651,93.1579246 C149.794651,106.763124 148.566651,99.7948578 150.481318,107.241658 C153.933317,117.576057 157.777317,122.936457 168.193317,120.270857 C181.671983,116.727124 173.405317,66.8735253 148.142651,25.617793 C111.229185,-27.381139 93.2005189,14.0912599 87.4087858,40.7349926 C83.7270525,58.7459255 81.6765192,77.1401917 80.7802526,94.9255246 L80.7802526,94.9255246" transform="translate(87.304191, 144.024755) scale(1, -1) translate(-87.304191, -144.024755) "></path>
            </g>
        </g>
    </g>
</svg>