<?xml version="1.0" encoding="UTF-8" standalone="no"?>
<!DOCTYPE svg PUBLIC "-//W3C//DTD SVG 1.1//EN" "http://www.w3.org/Graphics/SVG/1.1/DTD/svg11.dtd">
<svg width="200px" height="71px" viewBox="0 0 200 71" version="1.1" xmlns="http://www.w3.org/2000/svg" xmlns:xlink="http://www.w3.org/1999/xlink">
    <g id="HBW" stroke="none" stroke-width="1" fill="none" fill-rule="evenodd">
        <g id="357-TSVMH">
            <path d="M2.15896414,63.7624654 C1.88209083,59.8188828 4.85483581,56.3992545 8.79874225,56.1240004 C12.7423249,55.8487462 16.1632484,58.8224627 16.4397979,62.7657215 C16.7163473,66.7093041 13.7436024,70.1292561 9.80034358,70.4045103 C5.85643714,70.6794406 2.43551362,67.706048 2.15896414,63.7624654" id="Fill-1" fill="#D8232A"></path>
            <path d="M19.6191454,47.5091927 C18.9821749,49.0596832 17.4141976,49.8880363 16.163896,50.0366736 C10.5260431,50.3313574 3.39339811,43.5678769 0.637942006,37.9513966 C-0.60199705,35.5042252 0.0450121517,32.8462414 1.89115803,32.0026683 C4.0562749,31.1513234 5.72561046,31.7727502 8.38327038,35.0881056 C9.73072047,36.5113316 12.8799519,38.0372111 13.4961974,33.9854698 C13.908431,31.1435515 13.710248,21.8691053 8.69770778,5.50249267 C7.67376229,2.28137128 6.83990408,0.873689102 7.40368938,0.636646692 C7.95419771,0.385355831 8.38197506,1.60230307 10.4580391,5.2100756 C15.2791968,13.6908183 18.1674225,23.1566471 19.3409768,31.0434885 C19.4980336,32.1480673 19.6401942,33.2801715 19.7629252,34.4113042 C20.3982766,25.4040164 22.0012273,18.4255138 23.1349506,16.331963 C23.8421919,15.0143051 24.2042321,15.3601539 24.1537149,16.3371443 C22.2201353,43.5173596 28.5810972,52.6739323 28.5788304,52.6622745 C30.6756194,56.2525603 32.2947616,54.2376998 33.8601482,52.2173342 C35.2205514,50.3336242 35.6758542,47.9415036 35.6823308,47.9385892 C36.3808287,44.6342439 36.0825827,46.3265713 36.5476004,44.5179895 C37.3859922,42.0079953 38.3195895,40.706205 40.8493372,41.3535381 C44.1229188,42.214274 42.1151825,54.322219 35.9796053,64.3421183 C27.0144152,77.2139745 22.6356072,67.141615 21.2292203,60.6705515 C20.3348062,56.2962771 19.8367581,51.8287401 19.6191454,47.5091927" id="Fill-3" fill="#D8232A"></path>
            <path d="M66.4593085,54.6726014 C66.4593085,52.6557979 65.7352282,51.3112623 63.5633109,51.3112623 C62.1151502,51.3112623 61.0290296,52.397059 61.0290296,54.3623737 L61.0290296,59.3787999 L60.9775409,61.4470921 L60.9257283,65.7394379 C60.9257283,68.428833 61.2362798,70.2387101 63.7702373,70.2387101 C65.6319269,70.2387101 66.2523822,69.1525896 66.407496,66.9288598 C66.6144223,63.1021792 66.9764625,62.6365139 69.5622325,62.6365139 C71.9410762,62.6365139 72.3031164,63.257293 72.5100427,66.4635183 C72.613344,69.4628172 73.2856118,70.2387101 75.4578529,70.2387101 C77.1126162,70.2387101 77.9399978,69.100777 77.9399978,66.7740698 L77.9399978,55.8620232 C77.9399978,52.3452464 77.26773,51.362751 74.9921876,51.362751 C73.5958395,51.362751 72.5615314,52.2937577 72.5615314,54.1554474 C72.5615314,56.7408935 72.0447013,57.7755254 69.4071187,57.7755254 C67.2348776,57.7755254 66.4593085,56.9481437 66.4593085,54.6726014" id="Fill-5" fill="#D8232A"></path>
            <path d="M84.5276396,60.5423155 C84.5276396,57.568599 86.2863518,55.5258893 88.6133829,55.5258893 C91.7163069,55.5258893 93.00903,58.3182618 93.00903,60.8525431 C93.00903,63.9554671 91.2509654,66.0237593 88.6648716,66.0237593 C86.2863518,66.0237593 84.5276396,64.2138822 84.5276396,60.5423155 Z M98.3874963,60.8007306 C98.3874963,55.1120365 94.043338,50.8196907 88.9236105,50.8196907 C85.7173852,50.8196907 83.286729,52.0094364 81.5283407,54.0780524 C80.0286912,55.8361169 79.2013096,58.3700744 79.2013096,61.2663958 C79.2013096,66.6445384 83.4936554,70.8850717 88.7684967,70.8850717 C94.1984518,70.8850717 98.3874963,66.7996522 98.3874963,60.8007306 L98.3874963,60.8007306 Z" id="Fill-6" fill="#D8232A"></path>
            <path d="M108.514907,65.9981768 C106.446291,65.9981768 104.274373,63.4642194 104.791527,59.5854025 C105.257193,56.1204383 107.687525,55.6036081 108.721833,55.6036081 C109.238987,55.6036081 110.066369,55.7583981 110.635335,56.1204383 L112.083496,56.9996325 C112.445536,57.2065588 112.859065,57.3098601 113.32473,57.3098601 C114.565965,57.3098601 115.755063,56.4306659 115.755063,55.0864541 C115.755063,54.2587486 114.410527,52.7072866 112.859065,51.879905 C111.669643,51.2594497 110.738636,50.845597 108.204679,50.845597 C105.825835,50.845597 103.446992,51.879905 101.688603,53.8967084 C100.137141,55.6550968 99.3612484,58.0339405 99.3612484,60.9302619 C99.3612484,66.4117058 103.343367,70.7558641 109.083873,70.7558641 C112.23861,70.7558641 115.806875,68.3770205 115.806875,66.4117058 C115.806875,65.3773977 114.720755,64.4467148 113.376219,64.4467148 C113.014179,64.4467148 112.548837,64.4467148 111.773268,64.8602437 C110.583523,65.480699 110.16967,65.9981768 108.514907,65.9981768" id="Fill-7" fill="#D8232A"></path>
            <path d="M134.674091,52.319664 C134.674091,50.5094631 131.98502,50.6649007 130.950388,50.6649007 C130.12333,50.6649007 129.244136,50.9751284 128.158015,51.6473962 C127.123707,52.2678514 125.572245,54.8018089 124.537937,54.8018089 C123.917482,54.8018089 123.710556,54.1295411 123.503629,53.1988582 C123.0901,51.5437711 122.417833,50.7163894 120.452194,50.7163894 C118.332413,50.7163894 117.246293,52.0094364 117.246293,54.5433938 L117.19448,66.0237593 C117.19448,68.506228 117.608009,70.6266566 120.400705,70.6266566 C122.314207,70.6266566 123.607254,69.6441611 123.607254,67.0583911 C123.607254,65.3000028 124.22771,64.1620697 125.262018,64.1620697 C125.934285,64.1620697 126.192701,64.5241098 128.675169,68.4544155 C129.554364,69.9025762 130.64016,70.6266566 132.916026,70.6266566 C134.20875,70.6266566 135.346683,69.9543888 135.346683,68.5580406 C135.346683,67.47192 135.087944,67.2649937 130.795598,60.0766502 C130.588672,59.7149338 130.48537,59.3528936 130.48537,58.8872284 C130.48537,57.8529204 131.105826,57.2842776 132.398549,55.8876056 C134.467165,53.6123871 134.674091,53.2503469 134.674091,52.319664" id="Fill-8" fill="#D8232A"></path>
            <path d="M146.511963,70.2905227 C147.494458,70.2905227 151.424764,70.497449 151.424764,68.0149803 C151.424764,65.5843241 147.339345,65.9463643 147.23572,65.9463643 C143.357226,65.9463643 142.064503,65.7912505 142.064503,64.0846747 C142.064503,62.9985541 142.736771,62.3262863 145.632769,62.3262863 C147.442646,62.3262863 149.873302,62.3262863 149.873302,60.2058577 C149.873302,57.8788266 147.23572,57.9306392 145.115615,57.9306392 C143.409039,57.9306392 142.529845,57.6204116 142.529845,56.6894048 C142.529845,56.017137 143.409039,55.5514717 145.115615,55.5514717 C148.270351,55.5514717 150.442269,55.499983 150.442269,53.1729519 C150.442269,52.0350188 149.201034,51.1558246 147.752874,51.1558246 L139.219994,51.1558246 C137.565231,51.1558246 136.427298,52.397059 136.427298,54.0521461 L136.427298,66.9288598 C136.427298,70.1872214 138.030573,70.2905227 141.805764,70.2905227 L146.511963,70.2905227" id="Fill-9" fill="#D8232A"></path>
            <path d="M158.403591,52.2678514 C157.472584,51.1817309 156.231673,50.768202 154.835001,50.768202 C152.663084,50.768202 151.990816,51.7506974 151.990816,52.7846816 C151.990816,54.8018089 157.679186,60.594128 157.679186,62.8693466 C157.679186,67.4204313 157.110868,70.833583 161.040849,70.833583 C162.695936,70.833583 164.040472,69.9025762 164.091961,67.8339602 C164.143773,66.5927258 164.091961,63.3350118 164.298887,62.4040051 C164.867854,59.6631213 169.88428,54.8536215 169.88428,52.7846816 C169.88428,51.4919585 168.901784,50.768202 166.936146,50.768202 C165.074456,50.768202 163.98866,51.5437711 163.212767,52.6298916 C162.023345,54.2846549 161.76493,55.0087353 160.834247,55.0087353 C160.006541,55.0087353 159.127347,53.0952331 158.403591,52.2678514" id="Fill-10" fill="#D8232A"></path>
            <path d="M65.5648944,26.6112488 L62.1812112,26.6112488 C61.320799,26.6112488 60.9192518,27.0701137 60.9192518,27.9875197 L60.9198994,43.7032372 C60.9198994,44.8502374 61.3214467,45.1944671 62.6980413,45.1944671 C63.4434944,45.1944671 63.8450416,44.7356022 63.8450416,43.87519 L63.8447178,35.2143987 C63.8447178,33.092351 64.246265,32.059986 65.1063534,32.059986 C65.6798535,32.059986 66.1387184,32.6334861 66.4256304,33.6658512 L69.1791435,43.8178724 C69.5233731,45.1368256 70.3261438,45.2517847 71.1292383,45.2517847 C72.218921,45.2517847 72.8497388,44.8502374 73.0793331,43.9898253 L75.7172395,34.1820337 C76.2907396,31.8880331 77.2084694,32.1173036 77.265787,32.1173036 C78.0112401,32.1173036 78.4131112,33.1496686 78.4131112,35.2717163 L78.413435,43.87519 C78.413435,44.7929198 78.9296175,45.2517847 79.9619825,45.2517847 C80.9943476,45.2517847 81.5105301,44.7929198 81.5105301,43.87519 L81.5098824,28.1597964 C81.5098824,27.1274313 81.0510175,26.6112488 80.1332878,26.6112488 L77.2654632,26.6112488 C76.1184629,26.6112488 75.4876451,27.0127961 75.2580508,27.8728844 L72.8494149,37.6233584 C72.4481915,39.1719059 71.932009,39.9176828 71.2435497,39.9176828 C69.9819142,39.9176828 69.8099613,38.5984058 69.8099613,38.5984058 L67.2857187,28.217114 C66.8841714,26.6685665 66.0814008,26.6112488 65.5648944,26.6112488" id="Fill-11" fill="#6F8F9D"></path>
            <path d="M94.1226759,37.2218111 C94.4526571,38.3215325 93.6829169,39.3668507 92.4727701,39.3668507 L91.0430676,39.3668507 C90.0528002,39.3668507 89.2280092,38.3215325 89.5029396,37.3319128 L90.5476101,33.7568469 C90.8225404,32.7669034 91.2626232,32.2717698 91.8124839,32.2717698 C92.3626684,32.2717698 92.8027512,32.6568018 93.1327324,33.8669486 L94.1226759,37.2218111 Z M97.9729959,45.2517847 L99.2932445,45.2517847 C100.172762,45.2517847 100.942826,44.8117019 100.558118,43.8217584 L94.6174858,28.0917924 C94.1774029,26.8819694 93.4623898,26.6070391 92.6923258,26.6070391 L90.7671657,26.6070391 C89.9423747,26.6070391 89.2824124,27.1568997 88.8973804,28.2018941 L83.2329735,43.4917772 C82.958367,44.3165682 82.958367,45.2517847 84.2232408,45.2517847 L85.323286,45.2517847 C86.533109,45.2517847 86.8080394,44.8117019 87.3582239,43.986587 C88.3481674,42.3366812 88.7879264,42.2269033 90.3280544,42.2269033 L92.4180431,42.2269033 C93.7379677,42.2269033 94.6181334,42.2816303 94.9481146,42.4467828 C95.4979753,42.6666623 95.7729056,42.9966435 96.2129884,43.8217584 C96.8178999,44.8667527 97.3130336,45.2517847 97.9729959,45.2517847 L97.9729959,45.2517847 Z" id="Fill-12" fill="#6F8F9D"></path>
            <path d="M111.361035,35.2105128 C106.284053,26.3965506 106.842009,26.6196684 104.387713,26.6196684 C103.272124,26.6196684 102.267932,26.6196684 102.267932,28.4046107 L102.26858,43.020283 C102.26858,44.9172699 102.714816,45.2517847 103.942125,45.2517847 C105.225134,45.2517847 105.671369,44.6938283 105.671369,43.5225409 L105.671045,36.4378225 C105.671045,35.489329 105.838141,34.5411594 106.842657,34.5411594 C107.511686,34.5411594 108.069643,35.3779321 108.293084,35.7684691 L113.258345,44.1358719 C113.704257,44.9172699 114.429633,45.3074832 115.88006,45.3074832 C117.553606,45.3074832 117.999841,44.6938283 117.999841,43.5225409 L117.999194,28.9068686 C117.999194,27.0102055 117.664355,26.6196684 116.158229,26.6196684 C115.042316,26.6196684 114.596081,27.2333232 114.596081,28.4046107 L114.596405,35.2662113 C114.596728,36.5492195 114.317912,37.4973891 113.481139,37.4973891 C112.923183,37.4973891 112.588344,37.3859922 111.361035,35.2105128" id="Fill-13" fill="#6F8F9D"></path>
            <path d="M129.31635,35.2105128 C124.239691,26.3965506 124.797324,26.6196684 122.342704,26.6196684 C121.227115,26.6196684 120.222923,26.6196684 120.222923,28.4046107 L120.223571,43.020283 C120.223895,44.9172699 120.670131,45.2517847 121.89744,45.2517847 C123.180449,45.2517847 123.626684,44.6938283 123.626684,43.5225409 L123.62636,36.4378225 C123.62636,35.489329 123.79378,34.5411594 124.797648,34.5411594 C125.467325,34.5411594 126.024957,35.3779321 126.248399,35.7684691 L131.213337,44.1358719 C131.659896,44.9172699 132.384948,45.3074832 133.835375,45.3074832 C135.508597,45.3074832 135.954832,44.6938283 135.954832,43.5225409 L135.954185,28.9068686 C135.954185,27.0102055 135.61967,26.6196684 134.113544,26.6196684 C132.997955,26.6196684 132.551719,27.2333232 132.551719,28.4046107 L132.552043,35.2662113 C132.552043,36.5492195 132.272903,37.4973891 131.436131,37.4973891 C130.878498,37.4973891 130.543659,37.3859922 129.31635,35.2105128" id="Fill-14" fill="#6F8F9D"></path>
            <path d="M140.799953,26.5639699 L139.405548,26.5639699 C138.568775,26.5639699 138.178562,27.1773009 138.178562,28.460633 L138.17921,42.6854444 C138.17921,45.0283431 138.458026,45.2517847 140.689528,45.2517847 C141.637698,45.2517847 142.139632,44.637806 142.139632,43.3547978 L142.139632,39.0595375 C142.139308,37.8322277 143.032103,36.9397566 144.259412,36.9397566 L147.550481,36.9397566 C148.889511,36.9397566 150.563057,37.0514774 150.563057,39.2826553 L150.563381,43.3547978 C150.563381,44.637806 151.009616,45.2517847 151.902411,45.2517847 L153.073698,45.2517847 C154.021868,45.2517847 154.523802,44.637806 154.523802,43.3547978 L154.523155,29.1299864 C154.523155,26.7870877 154.020897,26.5079476 152.570793,26.5079476 C150.785527,26.5079476 150.562733,26.8984846 150.562733,29.4645011 C150.562733,32.9233126 150.228218,33.5926659 147.662202,33.5926659 L144.817045,33.5926659 C143.199522,33.5926659 142.139308,32.8676141 142.139308,31.472885 L142.138984,28.460633 C142.138984,27.1773009 141.692748,26.5639699 140.799953,26.5639699" id="Fill-15" fill="#6F8F9D"></path>
            <path d="M168.426404,26.5843711 L158.261106,26.5843711 C157.222912,26.5843711 156.676614,27.212922 156.676614,28.36057 L156.677261,43.1980648 C156.677261,44.5646208 157.22356,45.1109193 158.371208,45.1109193 L168.809493,45.1109193 C170.175725,45.1109193 170.886529,44.6190239 170.886205,43.6899602 C170.886205,42.7061694 170.339583,42.2145979 169.246662,42.2145979 L163.016527,42.2145979 C161.54084,42.2145979 160.666504,41.5041183 160.666504,40.0284321 L160.666504,39.2635494 C160.66618,37.569279 161.376659,36.7493455 162.852346,36.7493455 L167.825379,36.7493455 C168.9183,36.7493455 169.464922,36.2574501 169.464922,35.3283863 C169.464922,34.3449194 168.9183,33.853024 167.825379,33.853024 L162.852346,33.853024 C161.431063,33.853024 160.720907,32.9786872 160.720907,31.6124551 C160.720583,30.1914959 161.649647,29.4810164 162.852022,29.4810164 L168.426404,29.4810164 C169.519325,29.4810164 170.065624,28.989121 170.065624,28.0600572 C170.065624,27.0762665 169.519325,26.5843711 168.426404,26.5843711" id="Fill-16" fill="#6F8F9D"></path>
            <g id="Group-20" transform="translate(172.437558, 26.520253)">
                <mask id="mask-2" fill="white">
                    <use xlink:href="#path-1"></use>
                </mask>
                <g id="Clip-18"></g>
                <path d="M3.18431419,0 L1.53894194,0 C0.530216382,0 0.0525694492,0.743186245 0.0528932776,2.22955874 L0.00010924368,14.8624296 C0.000433072109,17.3044198 -0.0529986187,18.7370367 1.80512891,18.7370367 L3.02563826,18.7370367 C4.45890289,18.7370367 4.77755006,17.8348507 4.77755006,15.977047 L4.7769024,3.7156074 C4.7769024,1.38015677 4.7769024,0 3.18431419,0" id="Fill-17" fill="#6F8F9D" mask="url(#mask-2)"></path>
                <path d="M11.6171303,0.0909957886 L8.2327994,0.0909957886 C7.37271109,0.0909957886 6.97116384,0.549860673 6.97116384,1.46759044 L6.9718115,17.1829841 C6.9718115,18.3299844 7.37335875,18.674214 8.7499534,18.674214 C9.49573027,18.674214 9.8969537,18.2153491 9.8969537,17.354937 L9.89662987,8.69414567 C9.89662987,6.57209797 10.2978533,5.53973294 11.1585893,5.53973294 C11.7317656,5.53973294 12.1909543,6.11323309 12.4775425,7.14559812 L15.2310556,17.2976194 C15.5752852,18.6165726 16.3783797,18.7315317 17.1811504,18.7315317 C18.270833,18.7315317 18.9019747,18.3299844 19.1312452,17.4695723 L21.7691516,7.66178064 C22.3426517,5.36778004 23.2603815,5.59705057 23.3176991,5.59705057 C24.0631522,5.59705057 24.4646994,6.6294156 24.4646994,8.7514633 L24.4653471,17.354937 C24.4653471,18.2726668 24.9815296,18.7315317 26.0142184,18.7315317 C27.0462597,18.7315317 27.562766,18.2726668 27.5624423,17.354937 L27.5617945,1.63954334 C27.5617945,0.607178305 27.1029296,0.0909957886 26.1851999,0.0909957886 L23.3173753,0.0909957886 C22.170375,0.0909957886 21.5395572,0.492543041 21.3099629,1.35263135 L18.9016508,11.1031054 C18.5001036,12.6516529 17.9842449,13.3974298 17.2957856,13.3974298 C16.0338263,13.3974298 15.8618734,12.0781528 15.8618734,12.0781528 L13.3376308,1.69686097 C12.9360835,0.148313421 12.132989,0.0909957886 11.6171303,0.0909957886" id="Fill-19" fill="#6F8F9D" mask="url(#mask-2)"></path>
            </g>
            <path d="M64.6471646,16.5748343 C64.6471646,18.9018654 65.5263588,19.987986 67.4913497,19.987986 C68.8876979,19.987986 70.0771197,19.1602805 70.0771197,16.626323 C70.0771197,14.0923656 70.0771197,9.8518323 70.0771197,7.47298866 C70.0771197,5.92152666 70.5945976,5.19744629 72.611401,4.83540611 C73.9559367,4.57666719 74.5763919,3.74928555 74.5763919,2.7667901 C74.5763919,1.26714064 73.5938965,0.543060276 71.2150528,0.543060276 L63.4059303,0.543060276 C61.234013,0.543060276 60.1478924,1.26714064 60.1478924,2.71497755 C60.1478924,3.74928555 60.8201603,4.47336592 62.1650197,4.83540611 C64.1300106,5.35256011 64.6471646,5.92152666 64.6471646,7.47298866 L64.6471646,16.5748343" id="Fill-21" fill="#D8232A"></path>
            <path d="M85.2504246,14.0664593 C85.2504246,14.7387271 84.3712304,15.4109949 82.9233935,15.4109949 C80.3894361,15.4109949 79.5099181,13.963158 77.9069673,13.963158 C76.6139204,13.963158 75.114271,14.8420284 75.114271,16.0835866 C75.114271,18.3069926 78.6825364,20.065381 82.9233935,20.065381 C89.1289177,20.065381 91.3529714,16.5486042 91.3529714,13.446004 C91.3529714,11.7391044 90.7321923,10.3948926 89.3358441,9.30877203 C86.8018866,7.44708239 85.0953108,7.65368492 83.5438488,7.34345729 C82.1475006,7.08471837 81.5785341,6.51607565 81.5785341,5.79199529 C81.5785341,5.11972747 82.4062395,4.75768728 83.4920362,4.75768728 C84.8883844,4.75768728 86.0778063,6.10254675 87.4741544,6.10254675 C89.3358441,6.10254675 90.3701521,4.75768728 90.3701521,3.62007801 C90.3701521,1.86201347 86.9051879,0 82.9233935,0 C80.1306972,0 78.2690075,0.982495454 77.1313982,2.01680346 C75.8383513,3.20622528 75.2175722,4.70619856 75.2175722,6.4642631 C75.2175722,8.22265147 75.9416526,9.72230093 77.4416259,10.7566089 C78.8894628,11.7912408 80.5445499,12.1014684 82.7679559,12.411696 C84.2161166,12.6186224 85.2504246,13.2390777 85.2504246,14.0664593" id="Fill-22" fill="#D8232A"></path>
            <path d="M97.5824589,2.43065619 C97.16893,1.18942182 96.0309969,0.258738915 94.1693072,0.258738915 C92.6178452,0.258738915 91.2218209,1.34453564 91.9459012,3.62007801 L96.0828094,16.0835866 C97.1171174,19.031073 97.9963116,19.8584546 100.47878,19.8584546 C102.081731,19.8584546 103.529892,19.031073 104.098535,17.3244971 C108.908358,3.46496419 108.959847,4.24053328 108.959847,2.1722411 C108.959847,1.1379331 108.132465,0.362040184 106.425889,0.362040184 C104.771126,0.362040184 103.685006,1.08612055 103.219664,2.53395746 C101.254349,8.73980548 100.995611,9.15365821 100.271854,9.15365821 C99.6510749,9.15365821 99.0306196,6.82662712 97.5824589,2.43065619" id="Fill-23" fill="#D8232A"></path>
            <path d="M51.0855539,0.0725375681 L51.0855539,0.0725375681 C51.6036793,0.0725375681 52.0236848,0.492543041 52.0236848,1.01066853 L52.0236848,69.5852244 C52.0236848,70.1033498 51.6036793,70.5233553 51.0855539,70.5233553 C50.5677522,70.5233553 50.1477467,70.1033498 50.1477467,69.5852244 L50.1477467,1.01066853 C50.1477467,0.492543041 50.5677522,0.0725375681 51.0855539,0.0725375681" id="Fill-24" fill="#CDCECD"></path>
        </g>
    </g>
</svg>