<?xml version="1.0" encoding="UTF-8" standalone="no"?>
<!DOCTYPE svg PUBLIC "-//W3C//DTD SVG 1.1//EN" "http://www.w3.org/Graphics/SVG/1.1/DTD/svg11.dtd">

<svg width="174px" height="174px" viewBox="0 0 174 174" version="1.1" xmlns="http://www.w3.org/2000/svg" xmlns:xlink="http://www.w3.org/1999/xlink">
    <g id="HBW" stroke="none" stroke-width="1" fill="none" fill-rule="evenodd">
        <g id="358-MHC">
            <path d="M86.5291978,170.079996 C40.458399,170.079996 2.97655993,132.59733 2.97655993,86.5265312 C2.97655993,40.4578657 40.458399,2.97759993 86.5291978,2.97759993 C132.598397,2.97759993 170.078662,40.4578657 170.078662,86.5265312 C170.078662,132.59733 132.598397,170.079996 86.5291978,170.079996 Z" id="Background-white" fill="#FFFFFF" fill-rule="nonzero"></path>
            <g id="Background" transform="translate(0.000000, 0.000000)" fill-rule="nonzero">
                <path d="M37.3843991,28.14 C22.8379994,50.7478661 25.4573327,81.1951987 45.2401322,100.979598 C65.025065,120.763998 95.4718643,123.382664 118.080264,108.835998 L37.3843991,28.14" id="background-blue" fill="#1959A6" transform="translate(73.109713, 73.110793) scale(1, -1) translate(-73.109713, -73.110793) "></path>
                <path d="M135.671997,144.921273 C150.21733,122.313407 147.599996,91.8655408 127.81453,72.0816747 C108.030664,52.2962085 77.5838647,49.6800752 54.976532,64.2254082 L135.671997,144.921273" id="backgroud-red" fill="#D91920" transform="translate(99.946736, 99.950636) scale(1, -1) translate(-99.946736, -99.950636) "></path>
                <path d="M86.5291978,170.079996 C40.458399,170.079996 2.97655993,132.59733 2.97655993,86.5265312 C2.97655993,40.4578657 40.458399,2.97759993 86.5291978,2.97759993 C132.598397,2.97759993 170.078662,40.4578657 170.078662,86.5265312 C170.078662,132.59733 132.598397,170.079996 86.5291978,170.079996 Z M86.5291978,0 C38.817199,0 0,38.8161324 0,86.5265312 C0,134.238663 38.817199,173.055996 86.5291978,173.055996 C134.239997,173.055996 173.055996,134.238663 173.055996,86.5265312 C173.055996,38.8161324 134.239997,0 86.5291978,0" id="Circle" fill="#231F20"></path>
            </g>
            <g id="1907" transform="translate(86.141665, 156.655445) scale(1, -1) translate(-86.141665, -156.655445) translate(65.497332, 148.530000)" fill="#231F20">
                <polyline id="path56" fill-rule="nonzero" points="-5.32907052e-15 3.00137002 2.83599993 13.5790231 1.23079997 14.0107564 1.81413329 16.1856897 5.71306652 15.1404897 2.29533328 2.38574337 -5.32907052e-15 3.00137002"></polyline>
                <path d="M10.7807997,0.709703413 L14.067733,4.87115664 L13.6223997,4.90970331 C12.4114664,5.00448997 11.4714664,5.50142329 10.8021331,6.40288994 C10.1349331,7.30448992 9.85106642,8.33782322 9.95159975,9.50035653 C10.0671997,10.8044898 10.5859997,11.8842231 11.5099997,12.7336898 C12.433333,13.5867564 13.5594663,13.9534231 14.8886663,13.8388898 C15.5166663,13.7831564 16.1053329,13.6096898 16.6542663,13.3164898 C17.2026662,13.0216898 17.6766662,12.6388898 18.0761329,12.1618231 C18.4865329,11.6466231 18.7630662,11.1039565 18.9037329,10.5378232 C19.0447995,9.96808985 19.0881329,9.36288986 19.0329329,8.72422321 C18.9917329,8.24822322 18.8958662,7.82275657 18.7499995,7.44662324 C18.6037329,7.06955659 18.4187995,6.70808993 18.1979995,6.35502327 C18.0881329,6.19875661 17.9755996,6.04408995 17.8610662,5.89355662 C17.7453329,5.74302329 17.6271996,5.57995662 17.5042662,5.41235663 L13.5567997,0.466996753 L10.7807997,0.709703413 Z M14.6515996,11.5456898 C14.0567996,11.5856898 13.536533,11.4003565 13.086533,10.9908898 C12.6386664,10.5831565 12.390133,10.0883565 12.3386664,9.50555653 C12.282933,8.86542321 12.436533,8.30555656 12.8015997,7.82422324 C13.1666663,7.34302325 13.6750663,7.07635659 14.3271996,7.01902326 C14.955733,6.96182326 15.4922663,7.14822325 15.9365329,7.57115658 C16.3797329,7.99515656 16.6281329,8.50808988 16.6813329,9.11648987 C16.7354662,9.74822319 16.5682663,10.2976898 16.1791996,10.7643565 C15.7901329,11.2295565 15.281333,11.4908898 14.6515996,11.5456898" id="path58"></path>
                <path d="M30.8067992,9.49355653 L31.1974659,5.02688997 C31.2479992,4.43366332 31.2271992,3.85606333 31.1333326,3.29773002 C31.0386659,2.73886336 30.8094659,2.21907671 30.4447992,1.73106339 C30.1037326,1.27219673 29.6777326,0.898770075 29.1698659,0.616476749 C28.664666,0.332103423 28.1333326,0.148250094 27.5777326,0.0628234294 C27.531866,0.0498100964 27.4849326,0.0362634301 27.437066,0.0336634301 C27.388666,0.0294900969 27.3433326,0.024290097 27.2963993,0.0216767638 C26.676666,-0.0345632348 26.078666,0.0190767638 25.4979994,0.177410093 C24.914666,0.337823423 24.3797327,0.609703416 23.8911994,0.996156739 C23.3390661,1.42689006 22.9641328,1.92949005 22.7651994,2.50449004 C22.5646661,3.07897002 22.4365328,3.69199667 22.3797328,4.34303666 L21.9953328,8.72422321 C21.9458661,9.29195653 21.9682661,9.85862318 22.0619994,10.4242232 C22.1567994,10.9867565 22.3797328,11.5055565 22.7338661,11.9790231 C23.0761328,12.4404898 23.5021327,12.8123564 24.0083994,13.0976898 C24.5162661,13.3799564 25.0447994,13.5680898 25.5995994,13.6670231 C25.669866,13.6842231 25.7375994,13.6962231 25.802666,13.7014231 C25.8677327,13.7071564 25.930266,13.7132898 25.989066,13.7175564 C26.0125327,13.7190231 26.038666,13.7242231 26.069866,13.7268898 C26.0985327,13.7268898 26.1255993,13.7284898 26.149066,13.7320898 C26.7209327,13.7575564 27.2807993,13.6894231 27.8261326,13.5284898 C28.3719993,13.3680898 28.8666659,13.1028898 29.3042659,12.7336898 C29.8053326,12.3242231 30.1687992,11.8362231 30.3911992,11.2695565 C30.6151992,10.7028898 30.7521326,10.1055565 30.8078659,9.47475653 L30.8067992,9.49355653 Z M24.3666661,8.89515654 L24.739066,4.64043665 C24.7453327,4.55762332 24.7531994,4.48000999 24.7583994,4.40814332 C24.766266,4.33782332 24.7781327,4.26282332 24.797466,4.17740999 C24.830266,3.94147667 24.8859994,3.70814334 24.966666,3.47637001 C25.0463994,3.24303668 25.1777327,3.04043669 25.361466,2.86543669 C25.543866,2.6893967 25.7557327,2.55501003 25.9979994,2.45345004 C26.239066,2.35606337 26.4849327,2.30710337 26.7365327,2.30449004 C26.7739993,2.29615671 26.813066,2.29355671 26.8537327,2.29615671 C26.893866,2.29877004 26.9329327,2.30449004 26.9709327,2.30710337 C27.2781327,2.33210337 27.568266,2.4216767 27.8443993,2.5695967 C28.116666,2.7216767 28.3381326,2.92273002 28.5083993,3.17637002 C28.6854659,3.44407668 28.7911993,3.72689 28.8182659,4.02845 C28.8469326,4.33210332 28.8469326,4.63366332 28.8182659,4.94407664 L28.4343993,9.34048986 C28.3807993,9.95608985 28.1557326,10.4680898 27.761066,10.8774232 C27.3677326,11.2842231 26.8365327,11.4602231 26.175066,11.4014231 C26.149066,11.3987565 26.1297327,11.3976898 26.111466,11.3962231 C26.0943993,11.3935565 26.0723993,11.3935565 26.0499993,11.3919565 C25.7781327,11.3430231 25.5203994,11.2414231 25.2791994,11.0908898 C25.0343994,10.9372898 24.8329327,10.7534232 24.671466,10.5347565 C24.5021327,10.2706232 24.4057327,10.0014232 24.3729327,9.72955652 C24.3433327,9.45502319 24.3417327,9.1722232 24.3677327,8.87742321 L24.3666661,8.89515654" id="path60"></path>
                <polyline id="path62" fill-rule="nonzero" points="36.7417324 1.64563672 38.877199 13.4654231 33.7469325 12.1856898 33.2010658 14.3711564 40.742799 16.2508897 41.2886656 14.0670231 39.3078657 2.28418337 36.7417324 1.64563672"></polyline>
            </g>
            <g id="Hockeyclub" transform="translate(129.461731, 73.255064) scale(1, -1) translate(-129.461731, -73.255064) translate(93.559331, 8.420000)" fill="#231F20">
                <polyline id="path36" fill-rule="nonzero" points="-7.99360578e-15 114.818128 2.88653326 129.670128 5.63906653 129.135461 4.48279989 123.186128 9.78906642 122.154128 10.9453331 128.102128 13.6979997 127.568794 10.8125331 112.715461 8.0583998 113.251461 9.2709331 119.480795 3.96466657 120.512795 2.75373326 114.282128 7.16463887e-15 114.818128"></polyline>
                <path d="M28.1379993,122.286128 C30.0947992,121.315461 31.4255992,119.802128 32.1302659,117.742128 C32.8343992,115.683461 32.7057325,113.664795 31.7406659,111.690128 C30.7849326,109.728795 29.2761326,108.403462 27.214666,107.714128 C25.156266,107.024795 23.1573328,107.152795 21.2198661,108.098128 C19.2942662,109.036795 17.9661329,110.531461 17.2327996,112.582128 C16.5010663,114.631461 16.6157329,116.639461 17.5713329,118.602128 C18.5365329,120.575461 20.0469328,121.919461 22.1026661,122.634128 C24.1589327,123.347461 26.166666,123.224794 28.128666,122.267461 L28.1379993,122.286128 Z M26.9453327,119.838128 C25.6745327,120.443461 24.3761327,120.510128 23.0469328,120.042128 C21.7187995,119.575461 20.7422661,118.703461 20.1182662,117.427461 C19.5037328,116.163461 19.4203995,114.848795 19.8698662,113.482128 C20.3203995,112.118128 21.1651995,111.132795 22.4046661,110.527461 C23.6433327,109.922128 24.9385327,109.864795 26.294266,110.352795 C27.649466,110.842128 28.6327993,111.718128 29.2499993,112.984795 C29.8750659,114.263461 29.9661326,115.570128 29.5234659,116.904795 C29.0791993,118.238128 28.2223993,119.216795 26.9453327,119.838128" id="path38"></path>
                <path d="M42.1966656,98.1747951 L44.5779989,95.9538618 C43.2273323,95.3461285 41.8046656,95.1898618 40.305999,95.4867952 C38.808399,95.7810618 37.5261324,96.4174618 36.4583991,97.3929285 C36.4490658,97.4029285 36.4359991,97.4147951 36.4218658,97.4278618 C36.4062658,97.4425285 36.3933324,97.4543951 36.3838658,97.4638618 C34.7953325,98.9434618 33.9766658,100.776795 33.9255992,102.960795 C33.8709325,105.148795 34.5818658,107.028795 36.0531991,108.606128 C37.5130657,110.174128 39.3318657,110.998128 41.5073323,111.078128 C43.6819989,111.158128 45.5379989,110.483461 47.0739988,109.048795 C48.1806655,108.016795 48.9446654,106.739462 49.3673321,105.218128 C49.7873321,103.695462 49.7273321,102.216795 49.1886654,100.779462 L46.8673322,102.972795 C46.9073322,103.698128 46.7873322,104.427462 46.4993322,105.162128 C46.2166655,105.895462 45.7913322,106.523462 45.2326655,107.043462 C44.2246656,107.983462 43.0139989,108.407462 41.6033323,108.315462 C40.1913323,108.222128 39.0026657,107.656795 38.0338657,106.618128 C37.1234657,105.640795 36.6729324,104.434128 36.6885324,103.002128 C36.7067991,101.566128 37.2083991,100.390128 38.196399,99.4674617 C38.7458657,98.9567951 39.361999,98.5967951 40.045999,98.3874618 C40.7273323,98.1805284 41.4406656,98.1034618 42.1819989,98.1586618 L42.1966656,98.1747951" id="path40" fill-rule="nonzero"></path>
                <polyline id="path42" fill-rule="nonzero" points="43.6153322 90.281462 56.3033319 98.5207951 57.8313319 96.1690618 52.3379987 92.6013286 60.3966652 92.2190619 62.2246651 89.403462 52.8806653 90.1461286 49.5366654 81.1622622 47.7086655 83.9799955 50.7059987 91.5414619 45.1433322 87.929462 43.6153322 90.281462"></polyline>
                <polyline id="path44" fill-rule="nonzero" points="50.6779987 78.5570623 64.7059984 84.2247955 67.7513316 76.6882623 65.2259984 75.668529 63.2326651 80.6038622 60.0059985 79.2997289 61.9166651 74.5731957 59.3913318 73.5529291 57.4806652 78.2789289 54.2526653 76.9762623 56.2486653 72.0409291 53.7219987 71.0201291 50.6779987 78.5570623"></polyline>
                <polyline id="path46" fill-rule="nonzero" points="55.4379986 63.8601293 60.9566651 64.7351959 69.6033316 71.1414624 70.0859982 68.0871959 63.7259984 63.7434626 71.1153316 61.5758627 71.5966649 58.5439961 61.3953318 61.9658627 55.8766653 61.0914627 55.4379986 63.8601293"></polyline>
                <path d="M60.2619985,42.5961298 L60.0353318,39.3471966 C58.7126652,40.0153299 57.6966652,41.0231965 56.9833319,42.3731965 C56.2699986,43.7237298 55.9579986,45.1205298 56.0459986,46.5633297 C56.0459986,46.5778631 56.0486653,46.5945297 56.0486653,46.6153297 C56.0513319,46.6351964 56.0513319,46.6534631 56.0513319,46.6663964 C56.2046653,48.831463 57.1113319,50.6221296 58.7779985,52.0377296 C60.4446652,53.4534629 62.3513318,54.0862629 64.5033317,53.9367962 C66.640665,53.7857295 68.4259983,52.8909296 69.8579983,51.2529296 C71.2886649,49.6127963 71.9299982,47.7455964 71.7846649,45.6481298 C71.6779982,44.1362631 71.1673316,42.7403965 70.2499982,41.4554632 C69.3326649,40.1715966 68.1433316,39.2887966 66.6873317,38.8018633 L66.9299983,41.9851965 C67.5219983,42.4086632 68.0113316,42.9643965 68.400665,43.6491965 C68.7899983,44.3305298 69.0126649,45.0554631 69.0659983,45.8185297 C69.1633316,47.1925297 68.7299983,48.4007964 67.7713316,49.438263 C66.8099983,50.4783963 65.6233317,51.045063 64.2059984,51.1450629 C62.8713318,51.2382629 61.6526651,50.8267963 60.5486652,49.913863 C59.4433318,48.9981297 58.8433319,47.8669297 58.7513319,46.5205297 C58.6993319,45.7705297 58.8059985,45.0647964 59.0753319,44.4043965 C59.3433318,43.7403965 59.7326652,43.1387965 60.2419985,42.5971965 L60.2619985,42.5961298" id="path48" fill-rule="nonzero"></path>
                <polyline id="path50" fill-rule="nonzero" points="55.0019986 36.68053 69.4713316 32.2575968 68.6499983 29.5737302 56.7859986 33.2013301 55.4339986 28.7767968 52.8299987 29.5737302 55.0019986 36.68053"></polyline>
                <path d="M65.6579984,20.6169304 L64.4273317,18.0961304 L55.9446653,22.235197 C55.8953319,22.257597 55.8566653,22.276797 55.8259986,22.2925303 C55.7926653,22.3081303 55.7673319,22.3201303 55.7419986,22.3314637 C55.7059986,22.3513303 55.6699986,22.367997 55.6406653,22.3810637 C55.6099986,22.3966637 55.5819986,22.411197 55.5593319,22.4242637 C55.3019986,22.5477303 55.0446653,22.6570637 54.7859986,22.7534637 C54.5286653,22.847197 54.2526653,22.8929303 53.9606653,22.883597 C53.527332,22.8669303 53.127332,22.7549303 52.7606653,22.5466637 C52.391332,22.336797 52.1126654,22.038797 51.9219987,21.645597 C51.911332,21.6205304 51.9006654,21.5997304 51.891332,21.5814637 C51.883332,21.5622637 51.8739987,21.5466637 51.867332,21.5346637 C51.7366654,21.2038637 51.683332,20.8538637 51.7086654,20.4841304 C51.7339987,20.1153304 51.8459987,19.7758637 52.0446654,19.4658637 C52.2486654,19.1387971 52.5086654,18.8783971 52.8259987,18.6871971 C53.1419987,18.4945304 53.471332,18.3147971 53.815332,18.1466638 C53.8286653,18.1414638 53.8419987,18.1351971 53.8606653,18.1247971 C53.879332,18.1153304 53.8939987,18.1075971 53.907332,18.1023971 L62.4086651,13.9554639 L61.1779985,11.4357306 L52.6966653,15.5726638 C52.0086654,15.9086638 51.383332,16.2810638 50.8166654,16.6934638 C50.2526654,17.1075971 49.8073321,17.6647971 49.4819988,18.3705304 C49.1699988,19.0685304 49.0113321,19.8158637 49.0019988,20.609197 C48.9939988,21.4034637 49.1593321,22.1414637 49.4926654,22.8289303 C49.5246654,22.8914637 49.5566654,22.9538637 49.5966654,23.017997 C49.6353321,23.0830637 49.6699988,23.145597 49.6993321,23.2065303 C50.0486654,23.766397 50.5033321,24.245597 51.0646654,24.6507969 C51.6246654,25.0518636 52.2126654,25.3382636 52.827332,25.5086636 C53.6299987,25.7237303 54.3766653,25.7403969 55.0606653,25.5581303 C55.7473319,25.3758636 56.4433319,25.1117303 57.1579986,24.7638636 L65.6579984,20.6169304" id="path52" fill-rule="nonzero"></path>
                <path d="M45.1366655,14.7534639 L56.8926652,5.22999743 L55.1659986,3.09666415 C55.1219986,3.06333082 55.083332,3.02893082 55.0499986,2.98359749 C55.0139986,2.94093082 54.9806653,2.89919749 54.9446653,2.85813082 C54.9206653,2.82373082 54.891332,2.79146416 54.8619986,2.75293082 C54.831332,2.71533083 54.803332,2.68199749 54.7766653,2.65026416 C54.4086653,2.19559751 54.0206653,1.75706418 53.611332,1.34093086 C53.2046653,0.923730871 52.7206653,0.591464212 52.167332,0.336797552 C51.5286654,0.0477308926 50.8419987,-0.0565357715 50.1113321,0.028930893 C49.3793321,0.110130891 48.7366654,0.374264218 48.1873321,0.822130873 C47.7286655,1.1914642 47.3819988,1.64866419 47.1379988,2.19813084 C46.8979988,2.74346416 46.8473322,3.31959748 46.9873322,3.92626413 C46.2606655,3.44199747 45.5019989,3.23826415 44.7086655,3.31013081 C43.9139989,3.38106414 43.1819989,3.68719747 42.5153323,4.22999745 C41.9406656,4.69146411 41.517999,5.24293076 41.2433323,5.87839741 C40.9673323,6.5127974 40.8446656,7.19773071 40.873999,7.92786403 C40.8993323,8.52426401 41.0433323,9.083064 41.301999,9.61173065 C41.5606656,10.1377306 41.8673323,10.636264 42.2139989,11.1117306 C42.2979989,11.2377306 42.3846656,11.3565306 42.4753323,11.4669306 C42.5646656,11.5778639 42.6593323,11.6925306 42.7513323,11.8081306 L45.1366655,14.7534639 Z M45.4873322,10.8591973 L44.7526655,9.95293064 C44.4833322,9.64146399 44.2513322,9.32106399 44.0526656,8.99039734 C43.8553322,8.65866401 43.7353322,8.27159735 43.6953322,7.83146403 C43.6686656,7.51906404 43.7166656,7.23773071 43.8326656,6.99559739 C43.9526656,6.74973073 44.1313322,6.5283974 44.3753322,6.33053074 C44.6633322,6.09973074 44.9539989,5.97106408 45.2539989,5.95026408 C45.5513322,5.92946408 45.8739989,5.98933074 46.2166655,6.13106407 C46.5206655,6.27053074 46.7846655,6.45293073 47.0033322,6.68053073 C47.2219988,6.90706405 47.4353321,7.14666405 47.6406655,7.40186404 C47.6499988,7.41226404 47.6606655,7.42679737 47.6713321,7.44253071 C47.6833321,7.45919737 47.6966655,7.47106404 47.7046655,7.48146404 L48.4779988,8.43573068 L45.4873322,10.8591973 Z M50.6086654,6.70919739 L50.2739987,6.29773074 C50.2473321,6.2819974 50.2273321,6.26906407 50.2139987,6.25346407 C50.2019987,6.23773074 50.1913321,6.2247974 50.1819987,6.21333074 C50.1113321,6.12839741 50.0393321,6.03986408 49.9619988,5.94253075 C49.8846654,5.84719741 49.8139988,5.74719742 49.7473321,5.64399742 C49.6259988,5.49453076 49.5206654,5.33933076 49.4326654,5.1742641 C49.3406654,5.0086641 49.2779988,4.84719744 49.2366654,4.68879744 C49.1606654,4.39919745 49.1739988,4.11279746 49.2806654,3.8341308 C49.3886654,3.55386414 49.5539988,3.32213081 49.7753321,3.14506415 C50.0193321,2.94453082 50.2873321,2.84199749 50.5806654,2.83253082 C50.8726654,2.82626416 51.1473321,2.89293082 51.403332,3.03826415 C51.5139987,3.08879748 51.6219987,3.15959748 51.723332,3.25293081 C51.8259987,3.34613081 51.927332,3.44773081 52.0326654,3.55546414 C52.051332,3.57679747 52.071332,3.59919747 52.0926654,3.6273308 C52.1126654,3.65386414 52.1379987,3.68359747 52.1619987,3.71439747 C52.2059987,3.76586413 52.2499987,3.8237308 52.2979987,3.88199746 C52.343332,3.9409308 52.3886654,3.99559746 52.4326654,4.04613079 C52.463332,4.11013079 52.5019987,4.16586412 52.5459987,4.22053079 C52.5899987,4.27266412 52.631332,4.32626412 52.675332,4.37946412 L52.9966653,4.77839744 L50.6086654,6.70919739" id="path54"></path>
            </g>
            <g id="Mannheimer" transform="translate(46.108306, 73.267170) scale(1, -1) translate(-46.108306, -73.267170) translate(7.685413, 8.470000)" fill="#231F20">
                <polyline id="path16" fill-rule="nonzero" points="31.3072526 8.67906645 18.9135195 -1.0658141e-14 16.7161862 3.13746659 23.8676527 13.0931997 12.0323197 9.83013309 9.84631975 12.948933 22.2400528 21.6270661 23.8500527 19.3290662 14.5593863 12.8223997 26.0932527 16.1259996 27.4552526 14.1790663 20.4067195 4.47079989 29.6989859 10.9759997 31.3072526 8.67906645"></polyline>
                <path d="M20.9708528,24.3447994 L4.63437322,25.6661327 L3.95677323,27.749466 L16.3791196,38.481199 L17.3333862,35.5410658 L14.1219196,32.7754658 L15.7785863,27.6729326 L20.0172528,27.2847993 L20.9708528,24.3447994 Z M12.872453,27.8057326 L11.872453,30.8811992 L8.0119198,27.9265326 L12.872453,27.8057326" id="path18"></path>
                <polyline id="path20" fill-rule="nonzero" points="15.9489863 41.3369323 0.854693312 40.2806657 0.635426651 43.4281322 11.2239197 50.4885321 0.195319995 49.7171988 7.10542736e-15 52.5150654 15.0927196 53.5707987 15.3109863 50.4666654 4.76458655 43.3666656 15.7541863 44.1347989 15.9489863 41.3369323"></polyline>
                <polyline id="path22" fill-rule="nonzero" points="15.5229863 57.8609319 0.669279983 60.7489318 1.27083997 63.8431984 13.3271197 67.9233316 2.47395994 70.0333316 3.00937326 72.7858648 17.8609862 69.8999983 17.2687196 66.8447983 5.24479987 62.7155984 16.0567196 60.6134652 15.5229863 57.8609319"></polyline>
                <polyline id="path24" fill-rule="nonzero" points="19.3307195 73.8295982 5.61822653 80.2233313 6.8041865 82.7639979 12.2957864 80.203598 14.5801863 85.1030645 9.08965311 87.6634645 10.2733864 90.2062644 23.9864527 83.8109312 22.8005861 81.2697313 17.0484529 83.9519979 14.7645863 79.051998 20.5172528 76.3702648 19.3307195 73.8295982"></polyline>
                <polyline id="path26" fill-rule="nonzero" points="26.2896527 87.1426645 14.2063196 96.2483976 19.0979195 102.739997 21.2724528 101.101331 18.0681862 96.8499976 20.8489861 94.7546643 23.9156527 98.8266642 26.090586 97.1879976 23.0229861 93.1166643 25.802586 91.0223977 29.0052526 95.272931 31.1812526 93.6338643 26.2896527 87.1426645"></polyline>
                <polyline id="path28" fill-rule="nonzero" points="33.6463192 95.9519976 23.1359194 106.835997 25.1536527 108.783997 35.6651191 97.9014642 33.6463192 95.9519976"></polyline>
                <polyline id="path30" fill-rule="nonzero" points="38.3484524 100.966664 30.3307192 113.79733 33.5781858 115.82533 43.1448523 108.163997 40.5041857 120.154664 43.7339189 122.17333 51.7505854 109.341331 49.3729854 107.855997 43.3624522 117.47333 46.0567188 105.782664 44.0427189 104.525331 34.7161858 112.070664 40.7260523 102.451997 38.3484524 100.966664"></polyline>
                <polyline id="path32" fill-rule="nonzero" points="55.4843186 110.615997 50.8093854 125.003997 58.5396519 127.515997 59.3801852 124.926664 54.3181853 123.28133 55.3932519 119.971997 60.2411185 121.547997 61.0833851 118.95733 56.2343186 117.38133 57.3099186 114.071997 62.3719184 115.715997 63.2151184 113.126664 55.4843186 110.615997"></polyline>
                <path d="M66.6864517,113.979997 L64.8427184,128.998663 L69.1916516,129.530663 C69.9119183,129.591997 70.6072516,129.60933 71.2776516,129.58133 C71.9479182,129.55333 72.5968515,129.33733 73.2244515,128.934663 C73.8224515,128.55333 74.3161848,128.05333 74.7083181,127.435997 C75.1005848,126.815997 75.3396514,126.154664 75.4271181,125.44933 C75.4489848,125.27333 75.4577848,125.08933 75.4531181,124.894664 C75.4500514,124.703997 75.4391181,124.50933 75.4208514,124.314664 C75.3624514,123.894664 75.2629848,123.483997 75.1176515,123.08133 C74.9760515,122.678664 74.7989848,122.326664 74.5896515,122.02533 C74.2719181,121.587997 73.9031182,121.226664 73.4843182,120.94133 C73.0651182,120.65733 72.6057849,120.426664 72.1036515,120.25733 L76.8457847,115.227997 L73.4119182,114.806664 L68.8047183,120.07733 L68.7645849,120.071997 L69.4708516,114.322664 L66.6864517,113.979997 Z M68.5047183,122.18533 L70.0285849,122.37333 C70.1515182,122.37333 70.2823182,122.386664 70.4156516,122.410664 C70.5505849,122.43333 70.6921849,122.46133 70.8385849,122.49333 C71.0905849,122.566664 71.3380515,122.66133 71.5771182,122.78133 C71.8167182,122.899997 72.0145849,123.05733 72.1692515,123.255997 C72.3719182,123.50133 72.5145849,123.76933 72.5957849,124.06133 C72.6771182,124.351997 72.6995182,124.654664 72.6604515,124.96533 C72.6208515,125.291997 72.5129849,125.59733 72.3405849,125.88533 C72.1681849,126.17333 71.9348515,126.395997 71.6396515,126.551997 C71.2853849,126.755997 70.9385849,126.862663 70.6009849,126.86933 C70.2629849,126.874663 69.8984516,126.854663 69.5063183,126.80533 L67.9604516,126.615997 L68.5047183,122.18533" id="path34"></path>
            </g>
            <g id="MHC" transform="translate(62.939598, 66.230000)" fill="#231F20" fill-rule="nonzero">
                <path d="M10.6978664,-3.55271368e-15 L0,10.6967997 L2.7062666,13.407733 L13.752533,8.09373313 L8.48226645,19.1837329 L11.1749331,21.8765328 L21.8743995,11.1785331 L19.8906662,9.19426644 L11.869733,17.2134662 L17.1254662,6.42853317 L15.4453329,4.74893321 L4.65986655,10.0066664 L12.6822663,1.98333328 L10.6978664,-3.55271368e-15 Z M25.1797327,14.4806663 L14.480133,25.1785327 L16.4630663,27.1629327 L20.7478661,22.8770661 L24.5702661,26.699466 L20.2843995,30.9847992 L22.2682661,32.9686658 L32.9671992,22.2697328 L30.9827992,20.2863995 L26.4973327,24.773866 L22.6739994,20.9519995 L27.1625327,16.4661329 L25.1797327,14.4806663 Z M41.2458656,36.3379991 C43.5478656,38.639999 43.5338656,38.6557324 43.5338656,38.6557324 C44.0910656,37.2853324 44.1989322,35.8551991 43.8515989,34.3697325 C43.5035989,32.8842658 42.8239989,31.6238659 41.8109323,30.5910659 C40.201599,28.9858659 38.3437324,28.229066 36.1562658,28.2535993 C33.9697325,28.2781326 32.1145325,29.0519993 30.5910659,30.5781326 C29.0739993,32.0931992 28.315066,33.9385325 28.3098487,36.1139991 C28.3057326,38.291599 29.0442659,40.122399 30.5338659,41.608799 C31.6015992,42.6817323 32.9073325,43.3999989 34.4410658,43.7670656 C35.9765324,44.1327989 37.4505324,44.0227989 38.870799,43.4317322 L36.5989324,41.1890656 C35.8734658,41.2577323 35.1406658,41.1598656 34.3983991,40.900399 C33.6535992,40.6394657 33.0114658,40.2385323 32.4723992,39.696799 C31.4958659,38.722799 31.0311992,37.5281324 31.0739992,36.1139991 C31.1182659,34.7009325 31.6431992,33.4921325 32.6467992,32.4890659 C33.5910658,31.5415992 34.7811991,31.0509326 36.2161324,31.0186659 C37.6483991,30.9837326 38.8410657,31.4451992 39.796799,32.4009325 C40.3281323,32.9311992 40.7109323,33.5353325 40.9410656,34.2123991 C41.174399,34.8869325 41.274399,35.5957324 41.2458656,36.3379991" transform="translate(22.025348, 21.988820) scale(1, -1) translate(-22.025348, -21.988820) "></path>
                <polyline id="M" transform="translate(10.937200, 33.038266) scale(1, -1) translate(-10.937200, -33.038266) " points="10.6978664 22.1 0 32.7967997 2.7062666 35.507733 13.752533 30.1937331 8.48226645 41.2837329 11.1749331 43.9765328 21.8743995 33.2785331 19.8906662 31.2942664 11.869733 39.3134662 17.1254662 28.5285332 15.4453329 26.8489332 4.65986655 32.1066664 12.6822663 24.0833333 10.6978664 22.1"></polyline>
                <polyline id="H" transform="translate(23.723666, 20.254000) scale(1, -1) translate(-23.723666, -20.254000) " points="25.1797327 11.01 14.480133 21.7078664 16.4630663 23.6922663 20.7478661 19.4063998 24.5702661 23.2287997 20.2843995 27.5141329 22.2682661 29.4979995 32.9671992 18.7990665 30.9827992 16.8157332 26.4973327 21.3031997 22.6739994 17.4813332 27.1625327 12.9954666 25.1797327 11.01"></polyline>
                <path d="M41.2317323,8.1011109 L43.5338656,10.4027108 C44.0910656,9.03231088 44.1989322,7.60217758 43.8515989,6.11671095 C43.5035989,4.63124432 42.8239989,3.37084435 41.8109323,2.33804438 C41.7994656,2.32977771 41.7901323,2.31831105 41.774399,2.30164438 C41.760399,2.28644438 41.748399,2.27511105 41.739599,2.26511105 C40.201599,0.732844418 38.3437324,-0.0239555626 36.1562658,0.00057777013 C33.9697325,0.0251111028 32.1145325,0.79897775 30.5910659,2.32511105 C29.0739993,3.84017767 28.315066,5.68551096 28.3098487,7.86097757 C28.3057326,10.0385775 29.0442659,11.8693775 30.5338659,13.3557774 C31.6015992,14.4287107 32.9073325,15.1469774 34.4410658,15.514044 C35.9765324,15.8797774 37.4505324,15.7697774 38.870799,15.1787107 L36.5989324,12.9360441 C35.8734658,13.0047108 35.1406658,12.9068441 34.3983991,12.6473775 C33.6535992,12.3864441 33.0114658,11.9855108 32.4723992,11.4437775 C31.4958659,10.4697775 31.0311992,9.27511087 31.0739992,7.86097757 C31.1182659,6.44791094 31.6431992,5.23911097 32.6467992,4.23604433 C33.5910658,3.28857769 34.7811991,2.79791103 36.2161324,2.76564437 C37.6483991,2.73071104 38.8410657,3.19217769 39.796799,4.147911 C40.3281323,4.67817765 40.7109323,5.28231097 40.9410656,5.95937762 C41.174399,6.63391094 41.274399,7.34271092 41.2458656,8.08497757 L41.2317323,8.1011109" id="C" transform="translate(36.180273, 7.862309) scale(1, -1) translate(-36.180273, -7.862309) "></path>
            </g>
        </g>
    </g>
</svg>