<?xml version="1.0" encoding="UTF-8" standalone="no"?>
<!DOCTYPE svg PUBLIC "-//W3C//DTD SVG 1.1//EN" "http://www.w3.org/Graphics/SVG/1.1/DTD/svg11.dtd">
<svg version="1.1" xmlns="http://www.w3.org/2000/svg" x="0" y="0" viewBox="0 0 44 54" xml:space="preserve">
    <path d="M26.5 9.3c-.9 0-1.7.4-2 .8-.2.2-.3.5-.3.7 0 .6 1.2 1.2 2.3 1.2 1.2 0 2.3-.6 2.3-1.2 0-.3-.2-.5-.3-.7-.4-.3-1.1-.8-2-.8zm.1 2.1c.3-.1.5-.3.5-.6 0-.4-.3-.6-.6-.6-.4 0-.6.3-.6.6s.2.6.5.6c-.8 0-1.3-.4-1.5-.5.1-.2.7-.7 1.6-.7.8 0 1.5.5 1.6.8-.2 0-.7.3-1.5.4zM18 9.3c-.9 0-1.7.4-2 .8-.2.2-.3.5-.3.7 0 .6 1.2 1.2 2.3 1.2 1.2 0 2.3-.6 2.3-1.2 0-.2-.1-.4-.3-.6-.3-.4-1-.9-2-.9zm.4 2c.2-.1.3-.3.3-.5 0-.4-.3-.6-.6-.6-.4 0-.6.3-.6.6 0 .2.1.4.3.5-.7-.1-1.2-.4-1.3-.5.1-.2.7-.7 1.6-.7.8 0 1.5.5 1.6.7-.2.1-.7.4-1.3.5z"></path>
    <path d="M43.3 22.6c-.1.1-2.1 1.5-3.5 4.4.1-2.4-.1-5.6-1.2-7.8l-.3-.7-.3.7c-.1.2-2.6 5.8-1.3 10.8-.3-.1-.7 0-1 .2-.4.3-.7.8-.8 1.3 0 .5.2 1 .6 1.4.2.2.5.3.8.4l-1.8 3.3-2.1-1.9c.2-.5 1.4-3.1 2.1-6.6.9-4.9.3-9.2-1.9-12.3.2-1.3-.1-2.4-.4-3.3.5.3 1 .4 1.3.4.3 0 .5-.2.5-.3l.1-.1v-.1c-.6-4.3-4-6.4-5.1-7 .6-1.8.2-4.3.2-4.4l-.1-.4-.4.1c-.1 0-3.1.5-3.9 2.9-1-.6-3.8-1.7-6.4-.1-.9-2.1-4.4-3-4.6-3l-.6-.1.1.6c0 .1.5 2.3 1.4 4-1.1.7-4.6 3.3-4.6 7.8v.3h.3s.8.1 1.6-.3c-.2.7-.3 1.7.1 2.9-5.8 8-.6 18.7-.6 18.8l-2.2 2-1.6-2.9c.6-.2.9-.7.9-1.3 0-.4 0-.9-.4-1.3-.2-.2-.6-.4-1-.3-.2 0-.3.1-.5.1 1.4-5.1-.6-11.4-.7-11.7l-.3-.8-.4.7C4 21.5 4 25.1 4.2 27.6 2.8 25.2.9 23.9.7 23.8l-.6-.4v.7c.3 6.8 4.2 8.7 5 9.1.3.5 1.2 2.2 2.4 4.2-2.5-2.3-4.9-3.4-5-3.5l-.7-.3.2.8c.8 2.9 2.4 4.7 3.8 5.7L1.6 44h14.2c.1.6.5 2.9 2.6 4.2-.1 2.5-1.4 4.5-1.4 4.6l-.5.8.9-.2c2.2-.5 4.4-2.4 5.2-3.1.6.6 2.7 2.8 5.1 3.4l.7.2-.3-.9s-1.2-2.8-1.3-5.4c1.6-1.2 2-3.2 2.1-3.7h13.6l-4.7-4.3c3.1-2.3 4-5.2 4-5.3l.2-.5-.6.1c-.1 0-1.9.3-4.2 2.4.6-1 1.2-2.1 1.6-2.8.7-.4 4.9-3.4 5.1-10.5v-.7l-.6.3zm-30.6-6.4c.3-.1 1.2-.2 1.9-.7 0 .7 0 1.4.1 1.6l.1.3h.3s.9 0 1.7-.5c0 .5.1 1 .2 1.4l.1.3.3-.1s.9-.3 1.6-.8c.1.6.2 1.4.3 1.9l.1.5.4-.2s.9-.5 1.6-1.3c.2.5.5 1 .8 1.3l.1.1h.1c.5-.1 1.3-.9 1.8-1.4.4.5.9 1 .9 1l.2.1.2-.1c.6-.2 1.1-1.1 1.4-1.7.7.6 1.2.6 1.3.6h.2l.1-.2c.1-.3.3-.7.4-.9.7.6 1.2.4 1.3.3h.1v-.1c.3-.5.3-1.4.3-2.1.6.4 1.1.6 1.3.6 1.4 2 2 4.3 2.1 6.5h-.1s-.2.6-.9 1.4c-.1-.9-.5-2.4-1.5-3.5l-.3-.4-1.2 2.3c-.8-.6-1.5-1.8-1.5-1.8l-.3-.6-.3.7s-1.1 2.5-3.1 3.8c-1.5-1.5-2-2.5-2-2.5l-.3-.7-.4.6c-.9 1.5-1.7 2.3-2.1 2.6-1-.7-2.4-3.2-2.8-4.1l-.3-.6-.3.6c-.4.8-1.2 1.7-1.7 2.2l-1.4-2.1-.3.5c-.9 1.3-1.6 3.2-1.9 4.1-.5-.6-.9-1.8-1-2.3.2-2.3 1-4.5 2.4-6.6zm-1.8-3.8c.2-4.6 4.5-7 4.5-7l.3-.2-.2-.3c-.6-1.2-1.1-2.7-1.3-3.5 1.1.4 3.3 1.3 3.6 2.8l.2.6.5-.4c2.9-2.2 6.5-.1 6.5-.1l.5.3.1-.5c.3-1.8 2.2-2.5 3-2.7.1.8.3 2.7-.3 3.9l-.1.3.3.1s4.2 2 4.9 6.3c-.2 0-.9-.2-2.3-1.5l-.5.5s1.7 1.8 1.5 4.2c-.4-.2-1-.5-1.5-1l-.9-1 .2 1.3c.1.7.2 1.9 0 2.4-.1 0-.4-.2-.8-.5l-.4-.4-.2.5s-.2.6-.5 1.1c-.2-.1-.5-.2-.9-.6l-.4-.4-.2.5c-.2.5-.7 1.3-1.1 1.6-.2-.2-.6-.6-.8-1l-.3-.5-.3.4c-.6.7-1.2 1.3-1.5 1.4-.2-.3-.5-1-.6-1.4l-.2-.7-.4.6c-.4.6-1 1-1.4 1.3-.1-.9-.3-2.1-.3-2.1l-.2-.7-.5.7c-.4.5-1 .8-1.4 1-.1-.5-.1-1.3 0-1.6l.1-1.3-.7 1.1c-.4.6-1 .7-1.4.8v-2.9l-.7.7c-.4.5-1.1.7-1.6.9l-.3-.3c-.4-1.6.3-2.7.6-3.1 0 0 .1-.1.1-.2l-.6-.4s-.1.1-.1.2c-.7.6-1.5.8-2 .8zm-.7 12.2c.3.6.7 1.1 1.1 1.4l.4.2.1-.4s.8-2.3 1.7-4l1.3 1.9.3-.3c0-.1 1-1.1 1.7-2.1.6 1.1 2 3.4 3 4l.2.1.2-.1s1-.7 2.2-2.4c.3.5.9 1.4 2 2.3l.2.2.2-.1c1.7-1 2.9-2.7 3.4-3.6.4.6 1 1.3 1.7 1.7l.3.1 1.2-2c1 1.5 1.1 3.4 1.1 3.4v.8l.6-.5c.5-.4.8-.8 1.1-1.2 0 4.7-1.8 9.1-2.3 10.2l-1.4-1.3c1.5-4.4 1.1-6.9 1.1-7l-.1-.7-2.5 2.4c-.3-.3-.8-.9-.9-1.6l-.2-.9-.5.8s-.7 1.2-2 2.2L22 25l-3.3 3c-.9-.8-1.7-2.4-1.7-2.5l-.3-.7-1.5 3.2c-.5-.6-1.1-1.7-1.3-2.1l-.3-.7-.3.7c0 .1-1 2.3.3 7l-1.3 1.2c-.5-.9-2.2-4.9-2.1-9.5zm19.7 7.7L26 28.6c.8-.6 1.4-1.3 1.7-1.7.4.9 1.1 1.5 1.2 1.5l.3.2 1.8-1.9c-.1 1-.2 2.9-1.1 5.6zm-15.8 0c-.7-2.6-.6-4.4-.4-5.3.4.6.9 1.5 1.4 1.9l.4.3 1.3-2.6c.3.6.9 1.4 1.5 2l-4.2 3.7zm-8.5.3h-.1c-.2-.1-4-1.4-4.6-7.7 1 .8 3 2.8 3.6 5.7l.7-.2c0-.1-1.2-6.2.3-10.1.5 2.1 1.6 7.1.4 11.1 0 .1 0 .3.1.4 0 .1 0 .1.1.1.1.2.4.2.5 0 .5-.4.7-.4.7-.4.2 0 .4 0 .5.1.2.2.2.5.2.8 0 .3-.2.7-.7.7h-.7l2.3 4.1-.5.5C7 35 5.7 32.8 5.7 32.8l-.1-.2zM2.9 35c1 .6 2.8 1.7 4.6 3.5l-1.2 1.1c-1.1-.9-2.6-2.3-3.4-4.6zm13.6 8.9h3.3c.1 2.1-.7 3.2-1.1 3.5-1.7-1.1-2.1-2.9-2.2-3.5zm4 0h4.2c-.4 2.5-1.7 3.7-2.1 4-.5-.2-1.9-1.2-2.1-4zm2.5 5.6l-.3-.5-.3.3s-2.1 2-4.3 2.9c.4-.9 1-2.4 1.1-4.2.3-.2.8-.8 1.1-1.9.8 2 2.2 2.5 2.2 2.6l.2.1.1-.1c.1 0 1.4-.9 2.2-2.9.3 1.1.8 1.7 1.1 1.9.1 1.9.7 3.9 1.1 4.9-2.2-.9-4.1-2.9-4.2-3.1zm3.4-2.6c-.3-.3-.9-1.1-.9-3.1h2.6c-.1.6-.5 2.2-1.7 3.1zm14.2-3.7H3.3L22 26l18.6 17.2zm.2-8.5c-.4 1-1.5 2.8-3.6 4.4l-.9-.9c1.9-2.3 3.6-3.2 4.5-3.5zm-2.4-1.9l-.1.1c-.1.2-2 3.4-2.7 4.6l-.5-.5 2.2-4 .3-.7-.7.1h-.2c-.3.1-.6-.1-.7-.2-.2-.2-.4-.5-.4-.7 0-.3.2-.6.4-.7.2-.1.4-.2.6-.1.1 0 .1 0 .2.1.1 0 .2.1.2.1l.7.3-.2-.8c-1.3-3.9.1-8.4.7-10.2 1.4 3.7.6 9.7.6 9.8l.7.1c.6-3.5 2.5-5.6 3.5-6.6-.3 6.7-4.6 9.3-4.6 9.3z"></path>
    <path d="M14.8 9.6c.2.1.4 0 .5-.2.5-.9 1.9-1.7 3.3-1.4 1.1.2 3.1 1.4 3.4 6.4h.7s.1-4.6 2.3-5.9c.9-.6 2.2-.5 3.7.3.2.1.4 0 .5-.2.1-.2 0-.4-.2-.5-1.7-.9-3.2-1-4.4-.3-1.3.8-2 2.4-2.3 3.8-.8-3.2-2.5-4.1-3.6-4.4-1.7-.2-3.4.7-4.1 1.9-.1.2 0 .4.2.5zM38.3 42.3L22 27 5.7 42.3h32.6zM20 41.6l2-2 2 2h-4zm16.5 0h-8.6l4.1-4.1 4.5 4.1zm-6.2-5.8l-4.4 4.4-2.2-2.2 4.3-4.3 2.3 2.1zM22 28l4.2 4-4.2 4.2-4.2-4.2 4.2-4zm-6 5.6l4.3 4.3-2.2 2.2-4.4-4.4 2.3-2.1zm-2.8 2.6l4.9 4.9 3.3-3.3-4.8-4.8.7-.7 4.8 4.8 4.8-4.8.7.7-4.8 4.8 3.3 3.3 4.9-4.9.7.7-4.6 4.6H25l-3-3-3 3h-1.9l-4.6-4.6.7-.7zm2.9 5.4H7.5l4.4-4.1 4.2 4.1z"></path>
</svg>