<?xml version="1.0" encoding="UTF-8" standalone="no"?>
<!DOCTYPE svg PUBLIC "-//W3C//DTD SVG 1.1//EN" "http://www.w3.org/Graphics/SVG/1.1/DTD/svg11.dtd">
<svg width="331px" height="203px" viewBox="0 0 331 203" version="1.1" xmlns="http://www.w3.org/2000/svg" xmlns:xlink="http://www.w3.org/1999/xlink">
    <g id="HBW" stroke="none" stroke-width="1" fill="none" fill-rule="evenodd">
        <g id="453-HTC-Kickers" transform="translate(0.000000, 1.000000)">
            <g id="Logo" transform="translate(165.500000, 101.000000) scale(1, -1) translate(-165.500000, -101.000000) translate(0.000000, 0.000000)">
                <path d="M125.307291,202 L205.691994,202 C213.038698,202 218.993862,196.047956 218.993862,188.704386 L218.993862,90.8401436 C218.993862,83.4965733 213.038698,77.5438145 205.691994,77.5438145 L125.307291,77.5438145 C117.960586,77.5438145 112.006138,83.4965733 112.006138,90.8401436 L112.006138,188.704386 C112.006138,196.047956 117.960586,202 125.307291,202 L125.307291,202 L125.307291,202" id="path14" fill="#112E51" fill-rule="nonzero"></path>
                <path d="M125.307291,202 L205.691994,202 C213.038698,202 218.993862,196.047956 218.993862,188.704386 L218.993862,90.8401436 C218.993862,83.4965733 213.038698,77.5438145 205.691994,77.5438145 L125.307291,77.5438145 C117.960586,77.5438145 112.006138,83.4965733 112.006138,90.8401436 L112.006138,188.704386 C112.006138,196.047956 117.960586,202 125.307291,202 L125.307291,202 Z" id="path16" stroke="#FFFFFF" stroke-width="1.68181326"></path>
                <path d="M125.240074,199.32058 L205.75206,199.32058 C211.469819,199.32058 216.104235,194.687877 216.104235,188.973114 L216.104235,90.7722469 C216.104235,85.057484 211.469819,80.4254958 205.75206,80.4254958 L125.240074,80.4254958 C119.522315,80.4254958 114.887184,85.057484 114.887184,90.7722469 L114.887184,188.973114 C114.887184,194.687877 119.522315,199.32058 125.240074,199.32058 L125.240074,199.32058 L125.240074,199.32058" id="path18" fill="#FFFFFF" fill-rule="nonzero"></path>
                <path d="M136.253695,181.903275 L194.814953,181.903275 C197.264808,181.903275 199.251292,179.918545 199.251292,177.469259 L199.251292,101.860859 C199.251292,99.4115732 197.264808,97.4261291 194.814953,97.4261291 L136.253695,97.4261291 C133.803125,97.4261291 131.81664,99.4115732 131.81664,101.860859 L131.81664,177.469259 C131.81664,179.918545 133.803125,181.903275 136.253695,181.903275 L136.253695,181.903275 L136.253695,181.903275" id="path20" fill="#112E51" fill-rule="nonzero"></path>
                <path d="M153.4985,164.402349 C157.675266,168.206712 162.797365,172.231917 162.797365,172.231917 C162.797365,172.231917 172.97077,165.938245 179.491561,164.986261 C175.173209,161.474927 172.977206,158.255906 172.977206,158.255906 C172.977206,158.255906 158.478298,160.450043 153.4985,164.402349 L153.4985,164.402349" id="path22" fill="#FFFFFF" fill-rule="nonzero"></path>
                <polyline id="path24" fill="#FFFFFF" fill-rule="nonzero" points="137.492924 148.084972 133.955436 148.084972 135.690214 144.927415 133.976889 141.770573 137.425706 141.770573 139.249154 138.703069 141.073316 141.792729 144.610088 141.792729 142.896763 144.994597 144.587921 148.062101 141.184868 148.062101 139.360706 151.174632 137.492924 148.084972 137.492924 148.084972"></polyline>
                <polyline id="path26" fill="#FFFFFF" fill-rule="nonzero" points="163.057653 119.273876 159.520166 119.273876 161.255659 116.117034 159.542333 112.959478 162.991151 112.959478 164.814598 109.891974 166.638046 112.981634 170.174103 112.981634 168.462208 116.184216 170.151936 119.25172 166.749598 119.25172 164.925435 122.363536 163.057653 119.273876 163.057653 119.273876"></polyline>
                <polyline id="path28" fill="#FFFFFF" fill-rule="nonzero" points="188.884101 147.954181 185.345899 147.954181 187.080676 144.798054 185.368781 141.639783 188.816884 141.639783 190.641046 138.572993 192.464493 141.662653 196.001266 141.662653 194.287226 144.864521 195.978383 147.932025 192.576761 147.932025 190.751168 151.043841 188.884101 147.954181 188.884101 147.954181"></polyline>
                <path d="M157.121796,161.174752 L148.121833,154.460835 L154.38305,127.47509 L146.817532,131.711847 C146.817532,131.711847 141.926403,128.71367 138.795795,125.258797 C142.969701,123.172579 150.208429,119.653383 150.208429,119.653383 C150.274216,119.653383 164.556455,129.821459 164.556455,129.821459 L160.773696,146.117395 C165.273678,140.707096 172.96934,136.27451 172.96934,136.27451 L165.404537,129.430516 C172.448049,123.499199 182.100163,118.870784 182.100163,118.870784 C185.427417,121.543057 191.491273,127.735956 191.491273,127.735956 C191.491273,127.735956 177.664538,133.537198 173.687278,136.4053 C176.752814,139.534269 182.100163,144.357797 182.100163,144.357797 C182.100163,144.357797 175.507865,149.061256 170.166237,155.242719 C162.428385,147.284505 160.708624,146.704166 160.708624,146.704166 L157.121796,161.174752 L157.121796,161.174752" id="path30" fill="#FFFFFF" fill-rule="nonzero"></path>
                <path d="M132.704051,86.7484706 C132.704051,88.5516656 131.637156,89.531523 129.790111,89.7916748 C129.602761,89.8202629 129.444013,89.848851 129.313869,89.863145 C128.015289,90.0789853 127.481841,90.3534311 127.481841,91.0166752 C127.481841,91.5505581 127.799335,91.9250624 128.809025,91.9250624 C129.559141,91.9250624 130.222733,91.363306 130.425099,90.7865409 C130.453703,90.714356 130.497322,90.6850532 130.598148,90.72865 L132.285731,91.4061882 C132.372255,91.435491 132.430176,91.4926672 132.386557,91.6513312 C132.011856,92.8627523 130.829118,93.7711395 128.909851,93.7711395 C126.356309,93.7711395 125.072031,92.4589453 125.072031,90.5842801 C125.072031,88.7960939 126.284087,87.8155218 128.030305,87.6425637 C128.131131,87.6282697 128.274862,87.6139756 128.376403,87.5996816 C129.703586,87.4410176 130.121907,87.0657986 130.121907,86.4747395 C130.121907,85.8114954 129.659967,85.5084614 128.664579,85.5084614 C127.755716,85.5084614 127.092124,86.1431174 126.919075,86.6770004 C126.890472,86.7920675 126.890472,86.7920675 126.760328,86.7484706 L124.985506,86.0273356 C124.88468,85.9844534 124.870379,85.9115538 124.9283,85.7536045 C125.418843,84.3406372 126.645201,83.5473172 128.607373,83.5473172 C130.872023,83.5473172 132.704051,84.528604 132.704051,86.7484706 L132.704051,86.7484706" id="path32" fill="#112E51" fill-rule="nonzero"></path>
                <path d="M141.171282,91.5648522 C141.171282,92.3717516 141.171282,92.4446512 141.171282,93.4252233 C141.171282,93.5402905 141.15698,93.5695933 141.056154,93.5695933 L133.424134,93.5695933 C133.309006,93.5695933 133.309006,93.5402905 133.309006,93.4252233 C133.309006,92.4446512 133.309006,92.3717516 133.309006,91.5648522 C133.309006,91.4783732 133.309006,91.4640791 133.409832,91.4640791 L135.949072,91.4926672 C135.949072,91.4926672 135.949072,85.7107223 135.949072,83.9225361 C135.949072,83.7781662 135.949072,83.7924602 136.092802,83.7924602 C136.987364,83.7924602 137.507225,83.7924602 138.47401,83.7924602 C138.589137,83.7924602 138.603439,83.8067543 138.603439,83.9225361 C138.603439,85.0467635 138.603439,91.4926672 138.603439,91.4926672 L141.070456,91.4640791 C141.15698,91.4640791 141.171282,91.4783732 141.171282,91.5648522 L141.171282,91.5648522" id="path34" fill="#112E51" fill-rule="nonzero"></path>
                <path d="M150.558817,87.3395298 L150.558817,93.4681055 C150.558817,93.5695933 150.558817,93.5695933 150.486594,93.5695933 C149.707875,93.5695933 148.813313,93.5695933 148.121118,93.5695933 C148.034594,93.5695933 148.034594,93.5545845 148.034594,93.4681055 L148.034594,87.0372105 C148.034594,86.0566384 147.21154,85.6671254 146.519345,85.6671254 C145.812848,85.6671254 145.004811,86.0709325 145.004811,87.0372105 L145.004811,93.4538115 C145.004811,93.5695933 145.004811,93.5695933 144.90327,93.5695933 C144.211075,93.5695933 143.273609,93.5695933 142.479873,93.5695933 C142.40765,93.5695933 142.40765,93.5695933 142.40765,93.4823996 L142.40765,87.4846144 C142.40765,85.1046544 143.734834,83.5473172 146.490742,83.5473172 C149.361062,83.5473172 150.558817,85.0174607 150.558817,87.3395298 L150.558817,87.3395298" id="path36" fill="#112E51" fill-rule="nonzero"></path>
                <path d="M159.642444,91.5648522 C159.642444,92.3717516 159.642444,92.4446512 159.642444,93.4252233 C159.642444,93.5402905 159.628143,93.5695933 159.527317,93.5695933 L151.895296,93.5695933 C151.779454,93.5695933 151.779454,93.5402905 151.779454,93.4252233 C151.779454,92.4446512 151.779454,92.3717516 151.779454,91.5648522 C151.779454,91.4783732 151.779454,91.4640791 151.880995,91.4640791 L154.420234,91.4926672 C154.420234,91.4926672 154.420234,85.7107223 154.420234,83.9225361 C154.420234,83.7781662 154.420234,83.7924602 154.56468,83.7924602 C155.459242,83.7924602 155.978388,83.7924602 156.944457,83.7924602 C157.0603,83.7924602 157.074601,83.8067543 157.074601,83.9225361 C157.074601,85.0467635 157.074601,91.4926672 157.074601,91.4926672 L159.541618,91.4640791 C159.628143,91.4640791 159.642444,91.4783732 159.642444,91.5648522 L159.642444,91.5648522" id="path38" fill="#112E51" fill-rule="nonzero"></path>
                <path d="M168.005273,91.5648522 C168.005273,92.3717516 168.005273,92.4446512 168.005273,93.4252233 C168.005273,93.5402905 167.991687,93.5695933 167.889431,93.5695933 L160.258841,93.5695933 C160.142998,93.5695933 160.142998,93.5402905 160.142998,93.4252233 C160.142998,92.4446512 160.142998,92.3717516 160.142998,91.5648522 C160.142998,91.4783732 160.142998,91.4640791 160.243824,91.4640791 L162.783064,91.4926672 C162.783064,91.4926672 162.783064,85.7107223 162.783064,83.9225361 C162.783064,83.7781662 162.783064,83.7924602 162.927509,83.7924602 C163.822071,83.7924602 164.341217,83.7924602 165.308002,83.7924602 C165.423129,83.7924602 165.437431,83.8067543 165.437431,83.9225361 C165.437431,85.0467635 165.437431,91.4926672 165.437431,91.4926672 L167.905163,91.4640791 C167.991687,91.4640791 168.005273,91.4783732 168.005273,91.5648522 L168.005273,91.5648522" id="path40" fill="#112E51" fill-rule="nonzero"></path>
                <path d="M178.156511,83.6052081 C178.156511,85.0174607 178.156511,86.5469245 178.156511,87.8877068 C178.156511,87.9598917 178.127193,87.9884798 178.039954,87.9884798 L175.875415,87.9884798 C175.818208,87.9884798 175.775304,87.9313036 175.761002,87.8448246 C175.587953,86.8206556 174.938663,86.0137563 173.696574,86.0137563 C172.226375,86.0137563 171.287478,86.9943284 171.287478,88.6381446 C171.287478,90.2097759 172.169169,91.2911211 173.741624,91.2911211 C174.692677,91.2911211 175.357699,90.8151291 175.673048,90.166179 C175.717382,90.0789853 175.78889,90.007515 175.891146,90.0503972 L178.010635,90.8587259 C178.111461,90.887314 178.097875,90.9880871 178.039954,91.118163 C177.347759,92.6033152 176.034877,93.7711395 173.712306,93.7711395 C170.840555,93.7711395 168.590922,91.7092221 168.590922,88.6524387 C168.590922,85.6242433 170.553094,83.5473172 173.639368,83.5473172 C175.068092,83.5473172 175.688064,84.0090152 176.280863,84.528604 L177.881206,83.5909141 C177.924111,83.57662 177.967731,83.5473172 178.024937,83.5473172 C178.156511,83.5473172 178.156511,83.6052081 178.156511,83.6052081 L178.156511,83.6052081" id="path42" fill="#112E51" fill-rule="nonzero"></path>
                <path d="M185.069879,87.0657986 L183.064087,87.0657986 L184.044458,89.2577919 L185.069879,87.0657986 Z M189.297416,83.9947211 C187.709229,87.1815805 185.675549,91.3197092 184.361237,93.8862066 C184.347651,93.9298035 184.274713,93.9155094 184.188188,93.9155094 C184.101664,93.9155094 184.030156,93.9155094 184.01514,93.8862066 C182.891038,91.7814071 180.611372,87.1815805 179.111855,83.9947211 C179.052503,83.8503512 179.066805,83.7924602 179.182647,83.7924602 C180.13513,83.7924602 180.625673,83.7924602 181.578156,83.7924602 C181.764791,83.7924602 181.79411,83.8360571 181.837729,83.9518389 C181.98146,84.2977551 182.16881,84.7873264 182.341859,85.1918481 L185.833581,85.1918481 C185.977312,84.8309233 186.195411,84.2977551 186.367029,83.9082421 C186.410649,83.8067543 186.469285,83.7924602 186.540078,83.7924602 C187.650593,83.7924602 188.54587,83.7924602 189.23878,83.7924602 C189.368209,83.7924602 189.38394,83.8067543 189.297416,83.9947211 L189.297416,83.9947211" id="path44" fill="#112E51" fill-rule="nonzero"></path>
                <path d="M195.725961,90.0789853 C195.725961,89.2434978 195.292624,88.6667327 194.513905,88.6381446 L193.070879,88.5945477 L193.070879,91.4197675 L194.499604,91.4197675 C195.336244,91.4197675 195.725961,90.8437172 195.725961,90.0789853 Z M199.159047,84.1826879 C198.322407,85.5377643 197.499353,86.9943284 197.125368,87.5846728 C198.004913,88.0034886 198.466138,88.9404638 198.466138,90.2669521 C198.466138,92.0408442 197.28483,93.5695933 195.062369,93.5695933 L190.588846,93.5695933 C190.545941,93.5695933 190.474433,93.5838873 190.474433,93.4395174 C190.474433,89.9925062 190.474433,87.6425637 190.474433,83.9225361 C190.474433,83.7781662 190.474433,83.7924602 190.588846,83.7924602 C191.454804,83.7924602 192.031872,83.7924602 192.955037,83.7924602 C193.056578,83.7924602 193.070879,83.8067543 193.070879,83.9225361 C193.070879,85.0467635 193.070879,86.6476976 193.070879,86.6476976 L194.729858,86.6770004 C194.729858,86.6770004 195.783167,85.0174607 196.27371,84.0812001 C196.403139,83.8217631 196.461776,83.7924602 196.576188,83.7924602 L199.131159,83.7924602 C199.288476,83.7924602 199.332096,83.893948 199.159047,84.1826879 L199.159047,84.1826879" id="path46" fill="#112E51" fill-rule="nonzero"></path>
                <path d="M207.129299,91.5648522 C207.129299,92.3717516 207.129299,92.4446512 207.129299,93.4252233 C207.129299,93.5402905 207.115713,93.5695933 207.013457,93.5695933 L199.382152,93.5695933 C199.266309,93.5695933 199.266309,93.5402905 199.266309,93.4252233 C199.266309,92.4446512 199.266309,92.3717516 199.266309,91.5648522 C199.266309,91.4783732 199.266309,91.4640791 199.368565,91.4640791 L201.90709,91.4926672 C201.90709,91.4926672 201.90709,85.7107223 201.90709,83.9225361 C201.90709,83.7781662 201.90709,83.7924602 202.051535,83.7924602 C202.945382,83.7924602 203.464528,83.7924602 204.431313,83.7924602 C204.547155,83.7924602 204.560742,83.8067543 204.560742,83.9225361 C204.560742,85.0467635 204.560742,91.4926672 204.560742,91.4926672 L207.029189,91.4640791 C207.115713,91.4640791 207.129299,91.4783732 207.129299,91.5648522 L207.129299,91.5648522" id="path48" fill="#112E51" fill-rule="nonzero"></path>
                <path d="M153.351909,184.536239 C153.351909,189.440529 153.351909,192.375813 153.351909,196.569689 C153.351909,196.751938 153.351909,196.73407 153.187441,196.73407 C152.11125,196.73407 151.399748,196.73407 150.250618,196.73407 C150.086866,196.73407 150.068274,196.715488 150.068274,196.569689 C150.068274,195.14743 150.068274,192.266464 150.068274,192.266464 L145.927261,192.266464 C145.927261,192.266464 145.927261,195.14743 145.927261,196.569689 C145.927261,196.715488 145.909384,196.73407 145.781385,196.73407 C144.632256,196.73407 143.884285,196.73407 142.807378,196.73407 C142.643626,196.73407 142.643626,196.751938 142.643626,196.569689 C142.643626,192.212146 142.643626,189.238983 142.643626,184.536239 C142.643626,184.353275 142.643626,184.371858 142.807378,184.371858 C143.884285,184.371858 144.632256,184.371858 145.781385,184.371858 C145.909384,184.371858 145.927261,184.389725 145.927261,184.536239 C145.927261,185.957783 145.927261,189.349047 145.927261,189.349047 L150.068274,189.349047 C150.068274,189.349047 150.068274,185.957783 150.068274,184.536239 C150.068274,184.389725 150.086866,184.371858 150.250618,184.371858 C151.399748,184.371858 152.11125,184.371858 153.187441,184.371858 C153.351909,184.371858 153.351909,184.353275 153.351909,184.536239 L153.351909,184.536239" id="path50" fill="#112E51" fill-rule="nonzero"></path>
                <path d="M170.251331,194.221176 C170.251331,195.235339 170.251331,195.326106 170.251331,196.557539 C170.251331,196.701909 170.233454,196.738359 170.106171,196.738359 L160.520559,196.738359 C160.376113,196.738359 160.376113,196.701909 160.376113,196.557539 C160.376113,195.326106 160.376113,195.235339 160.376113,194.221176 C160.376113,194.112541 160.376113,194.093959 160.502682,194.093959 L163.691927,194.130408 C163.691927,194.130408 163.691927,186.868314 163.691927,184.622718 C163.691927,184.441899 163.691927,184.459766 163.872842,184.459766 C164.996228,184.459766 165.648379,184.459766 166.863295,184.459766 C167.008456,184.459766 167.024902,184.477634 167.024902,184.622718 C167.024902,186.035686 167.024902,194.130408 167.024902,194.130408 L170.124048,194.093959 C170.233454,194.093959 170.251331,194.112541 170.251331,194.221176 L170.251331,194.221176" id="path52" fill="#112E51" fill-rule="nonzero"></path>
                <path d="M188.443614,187.872472 C188.480083,187.982536 188.463636,188.073303 188.280576,188.109753 L185.54469,188.857332 C185.398814,188.893782 185.379507,188.820882 185.325161,188.7294 C184.888249,187.799572 184.012279,187.198507 182.772335,187.198507 C181.239925,187.198507 179.726106,188.237685 179.726106,190.515442 C179.726106,192.466581 180.895257,193.906707 182.717274,193.906707 C183.975811,193.906707 184.85178,193.341377 185.379507,192.247167 C185.415976,192.1564 185.435283,192.11995 185.54469,192.1564 L188.261984,193.213445 C188.334922,193.249895 188.40786,193.322794 188.317045,193.541493 C187.495421,195.40115 185.653382,197.023525 182.645052,197.023525 C179.069665,197.023525 176.260841,194.27049 176.260841,190.534024 C176.260841,187.034125 178.851566,184.099556 182.735866,184.099556 C185.580444,184.099556 187.624135,185.885598 188.443614,187.872472 L188.443614,187.872472" id="path54" fill="#112E51" fill-rule="nonzero"></path>
                <path d="M172.187046,160.197753 C165.730612,160.587981 156.388127,164.901927 156.388127,164.901927 C158.551236,167.030311 161.855608,169.969169 162.393347,169.690435 C162.943956,169.433856 162.555669,168.984308 163.06838,168.744883 C163.612553,168.491164 163.819926,168.98145 164.356949,168.730589 C164.893972,168.480443 164.540724,167.900104 165.090618,167.644241 C165.631932,167.391236 165.851461,167.875804 166.378472,167.629947 C166.91335,167.380516 166.671654,166.906668 167.217973,166.652233 C167.7457,166.406376 168.023865,166.863785 168.506543,166.638654 C169.026404,166.395655 168.797579,165.916804 169.344613,165.660941 C169.858754,165.421515 170.206281,166.004713 170.739014,165.756711 C171.263881,165.512283 171.044352,165.027714 171.57637,164.779712 C172.118398,164.526708 172.319335,165.019852 172.865654,164.765418 C173.376934,164.526708 173.163126,164.039995 173.703725,163.787705 C174.225731,163.544706 174.453841,164.024986 174.990149,163.77484 C175.565786,163.157337 173.221763,161.824417 172.187046,160.197753 L172.187046,160.197753" id="path56" fill="#112E51" fill-rule="nonzero"></path>
                <path d="M155.796043,157.733458 C156.160017,157.590518 155.406326,156.801486 155.497141,156.374094 C155.630145,155.748729 156.192911,155.868084 156.323055,155.25344 C156.45892,154.61521 155.894009,154.509434 156.024868,153.894075 C156.160017,153.257275 156.722068,153.376631 156.850782,152.773422 C156.987362,152.130904 156.424596,152.011548 156.55188,151.414057 C156.687029,150.779401 157.24479,150.918768 157.377794,150.292688 C157.510799,149.667324 156.943027,149.574412 157.079607,148.933324 C157.214041,148.301527 157.774662,148.428029 157.905521,147.81267 C158.037811,147.188735 157.471469,147.090106 157.606619,146.453306 C157.737478,145.837946 158.313115,145.896552 158.432533,145.332652 C158.561962,144.725154 157.998481,144.612231 158.134346,143.973287 C158.26163,143.373652 158.827971,143.472281 158.96026,142.852633 C159.089689,142.240133 158.529069,142.114345 158.661358,141.493269 C158.795792,140.862186 159.352123,141.0087 159.487272,140.372615 C159.613841,139.776553 159.05465,139.643618 159.18837,139.01325 C159.317799,138.405038 159.881995,138.515817 160.014999,137.891167 C160.146574,137.270805 159.625282,136.959195 159.716097,136.531088 C159.849101,135.905723 160.411152,136.025078 160.542011,135.410434 C160.677876,134.772204 160.112965,134.666428 160.243824,134.051069 C160.378974,133.414269 160.941024,133.533625 161.069738,132.930416 C161.206318,132.288613 160.644267,132.168542 160.770836,131.571051 C160.905986,130.93711 161.463746,131.076477 161.59675,130.450397 C161.59675,130.450397 161.511656,129.467681 160.922432,129.124624 C160.333924,128.780852 156.552595,126.229363 156.552595,126.229363 L150.071134,154.006998 L155.276182,157.786346 C155.276182,157.786346 155.432069,157.876399 155.796043,157.733458 L155.796043,157.733458" id="path58" fill="#112E51" fill-rule="nonzero"></path>
                <path d="M170.079713,151.709229 C170.415799,151.417631 170.139779,150.981662 170.56239,150.600011 C170.979995,150.223362 171.311076,150.599296 171.719385,150.232653 C172.1327,149.861008 171.783027,149.500798 172.204923,149.121291 C172.613232,148.753934 172.988647,149.089844 173.361918,148.753934 C173.765221,148.391579 173.424129,148.023507 173.848885,147.642571 C174.245753,147.285219 174.594711,147.644715 175.005165,147.275214 C175.412044,146.910001 175.079533,146.534067 175.491418,146.163851 C175.909023,145.787203 176.227233,146.175286 176.647698,145.796494 C177.043136,145.440572 176.716345,145.06035 177.135381,144.685131 C177.537254,144.322062 177.876916,144.690134 178.291661,144.317774 C178.291661,144.317774 178.643479,144.076919 178.363169,143.796041 C178.080713,143.515877 175.031623,140.065293 173.022256,138.660902 C169.492634,140.867904 163.955075,146.282492 163.955075,146.282492 L169.45259,151.738532 C169.45259,151.738532 169.741481,152.000113 170.079713,151.709229 L170.079713,151.709229" id="path60" fill="#112E51" fill-rule="nonzero"></path>
                <path d="M173.302566,133.346373 C173.627211,133.285623 173.809556,132.462285 174.207854,132.272889 C174.792072,131.99487 175.040204,132.518032 175.612981,132.245016 C176.207925,131.961993 175.945492,131.444549 176.518269,131.171532 C177.111783,130.88851 177.361345,131.411672 177.922681,131.143659 C178.520486,130.858492 178.272354,130.336045 178.827969,130.070175 C179.418623,129.788582 179.648878,130.321036 180.233096,130.042302 C180.815169,129.764997 180.542009,129.25327 181.138384,128.968818 C181.727607,128.688655 181.970734,129.213961 182.542796,128.94166 C183.124153,128.664355 182.854569,128.150484 183.448083,127.867462 C184.022291,127.594445 184.327629,128.090449 184.85178,127.840303 C185.418837,127.570145 185.162839,127.050556 185.757783,126.766819 C186.316974,126.500235 186.586558,127.014107 187.16291,126.738946 C187.732827,126.467359 187.190798,125.984935 187.190798,125.984935 C187.190798,125.984935 184.98407,123.338391 182.454841,121.292197 C181.372929,121.773192 173.42556,125.183038 168.368533,129.835753 C170.375755,131.641807 172.222084,133.125529 172.222084,133.125529 C172.222084,133.125529 172.978636,133.406408 173.302566,133.346373 L173.302566,133.346373" id="path62" fill="#112E51" fill-rule="nonzero"></path>
                <path d="M146.263347,128.829451 C146.696684,128.671502 146.61016,128.097596 146.914068,127.921779 C147.358131,127.665201 147.589101,128.064005 148.025298,127.812429 C148.479372,127.550848 148.239106,127.157047 148.676733,126.904757 C149.128662,126.643176 149.359632,127.042695 149.787963,126.795408 C150.244898,126.531682 150.013928,126.132878 150.438684,125.887735 C150.889898,125.627583 151.105851,126.034964 151.550629,125.777671 C151.995407,125.521093 151.745845,125.133009 152.201349,124.870713 C152.650418,124.611276 152.876382,125.012939 153.313295,124.760649 C153.756643,124.504785 153.587169,123.769356 153.381942,123.564237 C153.176715,123.358402 150.460136,121.491599 150.460136,121.491599 L141.746919,125.799827 L145.376651,128.647917 C145.376651,128.647917 145.829295,128.988115 146.263347,128.829451 L146.263347,128.829451" id="path64" fill="#112E51" fill-rule="nonzero"></path>
                <path d="M32.8904823,5.66904332 C32.8904823,8.86145594 31.0000324,10.5976832 27.7290542,11.0572371 C27.3975443,11.1086242 27.1165189,11.1594396 26.8857635,11.1850974 C24.5863608,11.5681066 23.6411001,12.0533182 23.6411001,13.2284324 C23.6411001,14.1726262 24.2031509,14.8373712 25.9914163,14.8373712 C27.3209595,14.8373712 28.4955456,13.8409327 28.8530842,12.819694 C28.9047843,12.6924054 28.9812976,12.6410183 29.1600669,12.7174915 L32.1500198,13.9174058 C32.3027603,13.968793 32.4050163,14.0709955 32.3287891,14.3513019 C31.6642677,16.4959817 29.5690197,18.104849 26.1706862,18.104849 C21.6481081,18.104849 19.3741622,15.781279 19.3741622,12.4623426 C19.3741622,9.29535196 21.5198947,7.55883879 24.6121036,7.25280309 C24.7908729,7.22714526 25.0470136,7.20148743 25.2249249,7.17497196 C27.5763137,6.89465126 28.3167762,6.23075677 28.3167762,5.18383166 C28.3167762,4.00959655 27.4994428,3.47272617 25.7360621,3.47272617 C24.1265661,3.47272617 22.9517655,4.59615306 22.6444968,5.54174048 C22.5933688,5.74553796 22.5933688,5.74553796 22.3640435,5.66904332 L19.2213501,4.39262717 C19.0425808,4.31473887 19.0166235,4.18827222 19.118808,3.90713677 C19.9875555,1.40427647 22.1593169,0 25.6338776,0 C29.6455329,0 32.8904823,1.73594856 32.8904823,5.66904332 L32.8904823,5.66904332" id="path66" fill="#112E51" fill-rule="nonzero"></path>
                <path d="M47.761588,14.1991416 C47.761588,15.6285471 47.761588,15.7564074 47.761588,17.4932064 C47.761588,17.6975399 47.7356307,17.7474977 47.5573619,17.7474977 L34.0404697,17.7474977 C33.8360291,17.7474977 33.8360291,17.6975399 33.8360291,17.4932064 C33.8360291,15.7564074 33.8360291,15.6285471 33.8360291,14.1991416 C33.8360291,14.0453376 33.8360291,14.0196083 34.0153705,14.0196083 L38.5124918,14.0709955 C38.5124918,14.0709955 38.5124918,3.83007752 38.5124918,0.663891634 C38.5124918,0.408720611 38.5124918,0.4338467 38.7677744,0.4338467 C40.3515992,0.4338467 41.2711171,0.4338467 42.9839419,0.4338467 C43.188454,0.4338467 43.2132672,0.459531686 43.2132672,0.663891634 C43.2132672,2.65584956 43.2132672,14.0709955 43.2132672,14.0709955 L47.5828187,14.0196083 C47.7356307,14.0196083 47.761588,14.0453376 47.761588,14.1991416 L47.761588,14.1991416" id="path68" fill="#112E51" fill-rule="nonzero"></path>
                <path d="M64.2664309,6.71597559 L64.2664309,17.568822 C64.2664309,17.7474977 64.2664309,17.7474977 64.1393617,17.7474977 C62.7591909,17.7474977 61.1754376,17.7474977 59.9491515,17.7474977 C59.7952669,17.7474977 59.7952669,17.7231978 59.7952669,17.568822 L59.7952669,6.17994856 C59.7952669,4.4431638 58.339727,3.75358289 57.1123682,3.75358289 C55.8609829,3.75358289 54.4299702,4.46912895 54.4299702,6.17994856 L54.4299702,17.5445221 C54.4299702,17.7474977 54.4299702,17.7474977 54.2512008,17.7474977 C53.0244142,17.7474977 51.3637901,17.7474977 49.9587346,17.7474977 C49.8308073,17.7474977 49.8308073,17.7474977 49.8308073,17.5953374 L49.8308073,6.9719821 C49.8308073,2.75802346 52.1811235,0 57.0617408,0 C62.1463696,0 64.2664309,2.60447673 64.2664309,6.71597559 L64.2664309,6.71597559" id="path70" fill="#112E51" fill-rule="nonzero"></path>
                <path d="M80.2102241,14.1991416 C80.2102241,15.6285471 80.2102241,15.7564074 80.2102241,17.4932064 C80.2102241,17.6975399 80.1844813,17.7474977 80.005712,17.7474977 L66.4885337,17.7474977 C66.2840216,17.7474977 66.2840216,17.6975399 66.2840216,17.4932064 C66.2840216,15.7564074 66.2840216,15.6285471 66.2840216,14.1991416 C66.2840216,14.0453376 66.2840216,14.0196083 66.463363,14.0196083 L70.9599838,14.0709955 C70.9599838,14.0709955 70.9599838,3.83007752 70.9599838,0.663891634 C70.9599838,0.408720611 70.9599838,0.4338467 71.2158384,0.4338467 C72.7998777,0.4338467 73.7194672,0.4338467 75.4320774,0.4338467 C75.6365895,0.4338467 75.6616172,0.459531686 75.6616172,0.663891634 C75.6616172,2.65584956 75.6616172,14.0709955 75.6616172,14.0709955 L80.0307397,14.0196083 C80.1844813,14.0196083 80.2102241,14.0453376 80.2102241,14.1991416 L80.2102241,14.1991416" id="path72" fill="#112E51" fill-rule="nonzero"></path>
                <path d="M94.9007728,14.1991416 C94.9007728,15.6285471 94.9007728,15.7564074 94.9007728,17.4932064 C94.9007728,17.6975399 94.8757451,17.7474977 94.6969757,17.7474977 L81.180584,17.7474977 C80.9760719,17.7474977 80.9760719,17.6975399 80.9760719,17.4932064 C80.9760719,15.7564074 80.9760719,15.6285471 80.9760719,14.1991416 C80.9760719,14.0453376 80.9760719,14.0196083 81.1548412,14.0196083 L85.6519626,14.0709955 C85.6519626,14.0709955 85.6519626,3.83007752 85.6519626,0.663891634 C85.6519626,0.408720611 85.6519626,0.4338467 85.9072452,0.4338467 C87.4918565,0.4338467 88.411446,0.4338467 90.1233411,0.4338467 C90.3278532,0.4338467 90.3528809,0.459531686 90.3528809,0.663891634 C90.3528809,2.65584956 90.3528809,14.0709955 90.3528809,14.0709955 L94.7220034,14.0196083 C94.8757451,14.0196083 94.9007728,14.0453376 94.9007728,14.1991416 L94.9007728,14.1991416" id="path74" fill="#112E51" fill-rule="nonzero"></path>
                <path d="M112.761259,0.102180332 C112.761259,2.60447673 112.761259,5.31169197 112.761259,7.6866991 C112.761259,7.81455941 112.709774,7.86537478 112.556747,7.86537478 L108.723933,7.86537478 C108.621677,7.86537478 108.545163,7.76317229 108.519421,7.61015444 C108.213367,5.79691079 107.063523,4.3669479 104.86609,4.3669479 C102.259634,4.3669479 100.598509,6.10205311 100.598509,9.01447379 C100.598509,11.7981694 102.157378,13.7136441 104.942604,13.7136441 C106.628756,13.7136441 107.804343,12.8710811 108.366394,11.7219821 C108.442907,11.5681066 108.570906,11.4402463 108.749675,11.5172912 L112.505977,12.9475543 C112.684746,12.9983696 112.659003,13.1770453 112.556747,13.4071081 C111.330389,16.0377858 109.004958,18.104849 104.891118,18.104849 C99.8069183,18.104849 95.8210773,14.4540046 95.8210773,9.04013162 C95.8210773,3.67708826 99.295638,0 104.763834,0 C107.293063,0 108.391422,0.816883755 109.439725,1.73594856 L112.275722,0.0764953456 C112.352235,0.0508109314 112.428748,0 112.531004,0 C112.761259,0 112.761259,0.102180332 112.761259,0.102180332 L112.761259,0.102180332" id="path76" fill="#112E51" fill-rule="nonzero"></path>
                <path d="M124.846066,6.23075677 L121.294277,6.23075677 L123.031915,10.1130433 L124.846066,6.23075677 L124.846066,6.23075677 Z M132.332211,0.792033541 C129.521957,6.43511886 125.919397,13.7644595 123.593966,18.3106119 C123.568223,18.3865848 123.440939,18.3614273 123.287198,18.3614273 C123.134171,18.3614273 123.006172,18.3614273 122.980429,18.3106119 C120.987509,14.5821508 116.950897,6.43511886 114.292955,0.792033541 C114.190699,0.536027031 114.217157,0.4338467 114.420954,0.4338467 C116.107821,0.4338467 116.975925,0.4338467 118.662077,0.4338467 C118.994588,0.4338467 119.046074,0.51034276 119.122587,0.714702708 C119.37787,1.32806057 119.710381,2.19631716 120.016434,2.91101987 L126.200423,2.91101987 C126.455705,2.27281179 126.838987,1.32806057 127.145755,0.638207363 C127.222268,0.459531686 127.324524,0.4338467 127.451808,0.4338467 C129.419701,0.4338467 131.003597,0.4338467 132.229955,0.4338467 C132.46021,0.4338467 132.485952,0.459531686 132.332211,0.792033541 L132.332211,0.792033541" id="path78" fill="#112E51" fill-rule="nonzero"></path>
                <path d="M143.571796,11.5681066 C143.571796,10.0873855 142.805233,9.06528915 141.425849,9.01447379 L138.870878,8.9380006 L138.870878,13.9431351 L141.400106,13.9431351 C142.881747,13.9431351 143.571796,12.9210388 143.571796,11.5681066 L143.571796,11.5681066 Z M149.652814,1.12342689 C148.171174,3.524099 146.714561,6.10205311 146.050254,7.15067207 C147.609123,7.8910326 148.426456,9.55050082 148.426456,11.9006577 C148.426456,15.0417047 146.33128,17.7474977 142.396924,17.7474977 L134.476013,17.7474977 C134.398784,17.7474977 134.2715,17.7740131 134.2715,17.5188643 C134.2715,11.4151602 134.2715,7.25280309 134.2715,0.663891634 C134.2715,0.408720611 134.2715,0.4338467 134.476013,0.4338467 C136.009138,0.4338467 137.030984,0.4338467 138.666366,0.4338467 C138.845135,0.4338467 138.870878,0.459531686 138.870878,0.663891634 C138.870878,2.65584956 138.870878,5.49036765 138.870878,5.49036765 L141.809131,5.54174048 C141.809131,5.54174048 143.674052,2.60447673 144.542871,0.944751216 C144.773126,0.485215957 144.874667,0.4338467 145.079179,0.4338467 L149.602043,0.4338467 C149.883069,0.4338467 149.959582,0.612522377 149.652814,1.12342689 L149.652814,1.12342689" id="path80" fill="#112E51" fill-rule="nonzero"></path>
                <path d="M163.629715,14.1991416 C163.629715,15.6285471 163.629715,15.7564074 163.629715,17.4932064 C163.629715,17.6975399 163.603972,17.7474977 163.425203,17.7474977 L149.908811,17.7474977 C149.704299,17.7474977 149.704299,17.6975399 149.704299,17.4932064 C149.704299,15.7564074 149.704299,15.6285471 149.704299,14.1991416 C149.704299,14.0453376 149.704299,14.0196083 149.883069,14.0196083 L154.38019,14.0709955 C154.38019,14.0709955 154.38019,3.83007752 154.38019,0.663891634 C154.38019,0.408720611 154.38019,0.4338467 154.635473,0.4338467 C156.220084,0.4338467 157.139673,0.4338467 158.851569,0.4338467 C159.056081,0.4338467 159.081108,0.459531686 159.081108,0.663891634 C159.081108,2.65584956 159.081108,14.0709955 159.081108,14.0709955 L163.450946,14.0196083 C163.603972,14.0196083 163.629715,14.0453376 163.629715,14.1991416 L163.629715,14.1991416" id="path82" fill="#112E51" fill-rule="nonzero"></path>
                <path d="M178.192265,0.792033541 C178.192265,1.8381296 178.192265,2.80883882 178.192265,4.08581244 C178.192265,4.41747738 178.192265,4.41747738 177.911955,4.41747738 L170.42581,4.34098275 L170.42581,7.30361845 L177.579444,7.30361845 C177.809699,7.30361845 177.834726,7.35500557 177.834726,7.6609698 C177.834726,8.6822085 177.834726,9.52562917 177.834726,10.7763589 C177.834726,11.0834667 177.809699,11.1337103 177.579444,11.1337103 L170.42581,11.1337103 L170.42581,14.0196083 L177.733185,13.9431351 C177.936982,13.9431351 178.013496,14.0709955 178.013496,14.3013441 C178.013496,15.399056 178.013496,16.1394166 178.013496,17.4166618 C178.013496,17.7231978 177.988468,17.7474977 177.733185,17.7474977 L166.183971,17.7474977 C165.928689,17.7474977 165.953717,17.7231978 165.953717,17.4932064 C165.953717,12.5902029 165.953717,5.26088375 165.953717,0.792033541 C165.953717,0.485215957 165.978744,0.4338467 166.236172,0.4338467 L177.911955,0.4338467 C178.167237,0.4338467 178.192265,0.485215957 178.192265,0.792033541 L178.192265,0.792033541" id="path84" fill="#112E51" fill-rule="nonzero"></path>
                <path d="M190.203419,11.5681066 C190.203419,10.0873855 189.436856,9.06528915 188.056757,9.01447379 L185.502501,8.9380006 L185.502501,13.9431351 L188.031729,13.9431351 C189.513369,13.9431351 190.203419,12.9210388 190.203419,11.5681066 L190.203419,11.5681066 Z M196.284437,1.12342689 C194.802796,3.524099 193.347614,6.10205311 192.682592,7.15067207 C194.241461,7.8910326 195.058079,9.55050082 195.058079,11.9006577 C195.058079,15.0417047 192.963617,17.7474977 189.029262,17.7474977 L181.107635,17.7474977 C181.030407,17.7474977 180.903123,17.7740131 180.903123,17.5188643 C180.903123,11.4151602 180.903123,7.25280309 180.903123,0.663891634 C180.903123,0.408720611 180.903123,0.4338467 181.107635,0.4338467 C182.640761,0.4338467 183.663322,0.4338467 185.297273,0.4338467 C185.476043,0.4338467 185.502501,0.459531686 185.502501,0.663891634 C185.502501,2.65584956 185.502501,5.49036765 185.502501,5.49036765 L188.440753,5.54174048 C188.440753,5.54174048 190.305675,2.60447673 191.175924,0.944751216 C191.404749,0.485215957 191.507005,0.4338467 191.712232,0.4338467 L196.232951,0.4338467 C196.514691,0.4338467 196.59049,0.612522377 196.284437,1.12342689 L196.284437,1.12342689" id="path86" fill="#112E51" fill-rule="nonzero"></path>
                <path d="M219.099694,0.792033541 C217.464312,3.60003616 213.630782,10.4190076 213.630782,10.4190076 C213.630782,10.4190076 217.003802,15.1181779 218.715697,17.4423911 C218.869439,17.6718821 218.819384,17.7474977 218.561956,17.7474977 L213.938266,17.7474977 C213.809552,17.7474977 213.733754,17.7231978 213.630782,17.5953374 C212.225656,15.2717675 208.673866,9.85646505 208.673866,9.85646505 C208.673866,9.85646505 208.673866,15.5269163 208.673866,17.5188643 C208.673866,17.7231978 208.648839,17.7474977 208.445042,17.7474977 C206.80966,17.7474977 205.812127,17.7474977 204.305459,17.7474977 C204.075204,17.7474977 204.075204,17.7740131 204.075204,17.5188643 C204.075204,11.4151602 204.075204,7.25280309 204.075204,0.663891634 C204.075204,0.408720611 204.075204,0.4338467 204.305459,0.4338467 C205.812127,0.4338467 206.80966,0.4338467 208.445042,0.4338467 C208.648839,0.4338467 208.673866,0.459531686 208.673866,0.663891634 C208.673866,2.65584956 208.673866,3.80495572 208.673866,3.80495572 L210.769043,6.76762 C210.769043,6.76762 213.170988,2.27281179 213.964724,0.740389124 C214.117035,0.485215957 214.091292,0.4338467 214.295804,0.4338467 L218.920925,0.4338467 C219.150464,0.4338467 219.252005,0.485215957 219.099694,0.792033541 L219.099694,0.792033541" id="path88" fill="#112E51" fill-rule="nonzero"></path>
                <path d="M225.996615,0.663891634 C225.996615,4.67264769 225.996615,13.5606262 225.996615,17.5188643 C225.996615,17.7231978 225.973017,17.7474977 225.742047,17.7474977 C224.05518,17.7474977 223.111278,17.7474977 221.500924,17.7474977 C221.270669,17.7474977 221.270669,17.7740131 221.270669,17.5188643 C221.270669,11.4151602 221.270669,7.25280309 221.270669,0.663891634 C221.270669,0.408720611 221.270669,0.4338467 221.500924,0.4338467 C223.111278,0.4338467 224.05518,0.4338467 225.742047,0.4338467 C225.973017,0.4338467 225.996615,0.459531686 225.996615,0.663891634 L225.996615,0.663891634" id="path90" fill="#112E51" fill-rule="nonzero"></path>
                <path d="M246.004478,5.28600555 C246.056679,5.43955943 246.030221,5.56602608 245.774224,5.61823511 L241.942124,6.66543896 C241.738327,6.71597559 241.711154,6.61379454 241.634641,6.48676328 C241.02325,5.18383166 239.795462,4.34098275 238.057824,4.34098275 C235.911162,4.34098275 233.790958,5.79691079 233.790958,8.98881596 C233.790958,11.7219821 235.426339,13.7387302 237.981311,13.7387302 C239.744691,13.7387302 240.971049,12.9475543 241.711154,11.4151602 C241.763355,11.2872999 241.788382,11.2364845 241.942124,11.2872999 L245.749196,12.7688786 C245.851452,12.819694 245.952993,12.9210388 245.825709,13.2284324 C244.67515,15.8328806 242.095866,18.104849 237.879055,18.104849 C232.870653,18.104849 228.936298,14.2496711 228.936298,9.01447379 C228.936298,4.11093424 232.5646,0 238.007769,0 C241.99218,0 244.855349,2.50229568 246.004478,5.28600555 L246.004478,5.28600555" id="path92" fill="#112E51" fill-rule="nonzero"></path>
                <path d="M263.252144,0.792033541 C261.616047,3.60003616 257.783947,10.4190076 257.783947,10.4190076 C257.783947,10.4190076 261.156967,15.1181779 262.868862,17.4423911 C263.021174,17.6718821 262.971118,17.7474977 262.715836,17.7474977 L258.091431,17.7474977 C257.962717,17.7474977 257.887633,17.7231978 257.783947,17.5953374 C256.37882,15.2717675 252.827031,9.85646505 252.827031,9.85646505 C252.827031,9.85646505 252.827031,15.5269163 252.827031,17.5188643 C252.827031,17.7231978 252.802004,17.7474977 252.596776,17.7474977 C250.961394,17.7474977 249.965292,17.7474977 248.457194,17.7474977 C248.228369,17.7474977 248.228369,17.7740131 248.228369,17.5188643 C248.228369,11.4151602 248.228369,7.25280309 248.228369,0.663891634 C248.228369,0.408720611 248.228369,0.4338467 248.457194,0.4338467 C249.965292,0.4338467 250.961394,0.4338467 252.596776,0.4338467 C252.802004,0.4338467 252.827031,0.459531686 252.827031,0.663891634 C252.827031,2.65584956 252.827031,3.80495572 252.827031,3.80495572 L254.922208,6.76762 C254.922208,6.76762 257.324153,2.27281179 258.116458,0.740389124 C258.2702,0.485215957 258.245172,0.4338467 258.448969,0.4338467 L263.073374,0.4338467 C263.303629,0.4338467 263.40517,0.485215957 263.252144,0.792033541 L263.252144,0.792033541" id="path94" fill="#112E51" fill-rule="nonzero"></path>
                <path d="M277.662382,0.792033541 C277.662382,1.8381296 277.662382,2.80883882 277.662382,4.08581244 C277.662382,4.41747738 277.662382,4.41747738 277.381357,4.41747738 L269.895927,4.34098275 L269.895927,7.30361845 L277.048846,7.30361845 C277.279816,7.30361845 277.304843,7.35500557 277.304843,7.6609698 C277.304843,8.6822085 277.304843,9.52562917 277.304843,10.7763589 C277.304843,11.0834667 277.279816,11.1337103 277.048846,11.1337103 L269.895927,11.1337103 L269.895927,14.0196083 L277.202587,13.9431351 C277.406384,13.9431351 277.483613,14.0709955 277.483613,14.3013441 C277.483613,15.399056 277.483613,16.1394166 277.483613,17.4166618 C277.483613,17.7231978 277.458585,17.7474977 277.202587,17.7474977 L265.652658,17.7474977 C265.398091,17.7474977 265.423833,17.7231978 265.423833,17.4932064 C265.423833,12.5902029 265.423833,5.26088375 265.423833,0.792033541 C265.423833,0.485215957 265.448861,0.4338467 265.704144,0.4338467 L277.381357,0.4338467 C277.637354,0.4338467 277.662382,0.485215957 277.662382,0.792033541 L277.662382,0.792033541" id="path96" fill="#112E51" fill-rule="nonzero"></path>
                <path d="M289.673536,11.5681066 C289.673536,10.0873855 288.906258,9.06528915 287.526874,9.01447379 L284.972618,8.9380006 L284.972618,13.9431351 L287.501846,13.9431351 C288.983486,13.9431351 289.673536,12.9210388 289.673536,11.5681066 L289.673536,11.5681066 Z M295.754553,1.12342689 C294.272198,3.524099 292.815586,6.10205311 292.152709,7.15067207 C293.709432,7.8910326 294.528196,9.55050082 294.528196,11.9006577 C294.528196,15.0417047 292.433019,17.7474977 288.497234,17.7474977 L280.577037,17.7474977 C280.500524,17.7474977 280.37181,17.7740131 280.37181,17.5188643 C280.37181,11.4151602 280.37181,7.25280309 280.37181,0.663891634 C280.37181,0.408720611 280.37181,0.4338467 280.577037,0.4338467 C282.110878,0.4338467 283.131293,0.4338467 284.766675,0.4338467 C284.945445,0.4338467 284.972618,0.459531686 284.972618,0.663891634 C284.972618,2.65584956 284.972618,5.49036765 284.972618,5.49036765 L287.90944,5.54174048 C287.90944,5.54174048 289.775077,2.60447673 290.643896,0.944751216 C290.874151,0.485215957 290.976407,0.4338467 291.180204,0.4338467 L295.702353,0.4338467 C295.984808,0.4338467 296.059892,0.612522377 295.754553,1.12342689 L295.754553,1.12342689" id="path98" fill="#112E51" fill-rule="nonzero"></path>
                <path d="M310.856272,5.66904332 C310.856272,8.86145594 308.963462,10.5976832 305.694128,11.0572371 C305.361617,11.1086242 305.081307,11.1594396 304.850337,11.1850974 C302.552079,11.5681066 301.604601,12.0533182 301.604601,13.2284324 C301.604601,14.1726262 302.167367,14.8373712 303.95649,14.8373712 C305.285104,14.8373712 306.459261,13.8409327 306.81823,12.819694 C306.869,12.6924054 306.945514,12.6410183 307.124283,12.7174915 L310.114736,13.9174058 C310.268478,13.968793 310.370019,14.0709955 310.293506,14.3513019 C309.628484,16.4959817 307.533307,18.104849 304.13526,18.104849 C299.611681,18.104849 297.33845,15.781279 297.33845,12.4623426 C297.33845,9.29535196 299.484397,7.55883879 302.577106,7.25280309 C302.755876,7.22714526 303.011158,7.20148743 303.189928,7.17497196 C305.540387,6.89465126 306.280492,6.23075677 306.280492,5.18383166 C306.280492,4.00959655 305.463873,3.47272617 303.699778,3.47272617 C302.090854,3.47272617 300.915982,4.59615306 300.609213,5.54174048 C300.558443,5.74553796 300.558443,5.74553796 300.328188,5.66904332 L297.186138,4.39262717 C297.007369,4.31473887 296.980911,4.18827222 297.082452,3.90713677 C297.951271,1.40427647 300.122961,0 303.597522,0 C307.610536,0 310.856272,1.73594856 310.856272,5.66904332 L310.856272,5.66904332" id="path100" fill="#112E51" fill-rule="nonzero"></path>
                <path d="M14.998461,26.2025022 C14.998461,33.0728678 14.998461,37.184624 14.998461,43.0580508 C14.998461,43.3137715 14.998461,43.2881136 14.7682776,43.2881136 C13.2610376,43.2881136 12.2641483,43.2881136 10.6546522,43.2881136 C10.4247549,43.2881136 10.3993696,43.2623843 10.3993696,43.0580508 C10.3993696,41.0661029 10.3993696,37.0316776 10.3993696,37.0316776 L4.59911996,37.0316776 C4.59911996,37.0316776 4.59911996,41.0661029 4.59911996,43.0580508 C4.59911996,43.2623843 4.57369896,43.2881136 4.39492963,43.2881136 C2.78516899,43.2881136 1.73741624,43.2881136 0.230165516,43.2881136 C0,43.2881136 0,43.3137715 0,43.0580508 C0,36.9543468 0,32.7919897 0,26.2025022 C0,25.9479251 0,25.9738688 0.230165516,25.9738688 C1.73741624,25.9738688 2.78516899,25.9738688 4.39492963,25.9738688 C4.57369896,25.9738688 4.59911996,25.9987404 4.59911996,26.2025022 C4.59911996,28.1950218 4.59911996,32.9450075 4.59911996,32.9450075 L10.3993696,32.9450075 C10.3993696,32.9450075 10.3993696,28.1950218 10.3993696,26.2025022 C10.3993696,25.9987404 10.4247549,25.9738688 10.6546522,25.9738688 C12.2641483,25.9738688 13.2610376,25.9738688 14.7682776,25.9738688 C14.998461,25.9738688 14.998461,25.9479251 14.998461,26.2025022 L14.998461,26.2025022" id="path102" fill="#112E51" fill-rule="nonzero"></path>
                <path d="M31.2988632,34.5793182 C31.2988632,31.9494266 29.7148239,29.9066634 27.0061825,29.9066634 C24.2466991,29.9066634 22.7135018,31.9494266 22.7135018,34.5793182 C22.7135018,37.2103533 24.2466991,39.2779167 27.0061825,39.2779167 C29.7148239,39.2779167 31.2988632,37.2103533 31.2988632,34.5793182 L31.2988632,34.5793182 Z M36.0767954,34.5793182 C36.0767954,39.5853104 32.1676107,43.645465 27.0061825,43.645465 C21.8447543,43.645465 17.9355696,39.5853104 17.9355696,34.5793182 C17.9355696,29.5744695 21.8447543,25.5391866 27.0061825,25.5391866 C32.1676107,25.5391866 36.0767954,29.5744695 36.0767954,34.5793182 L36.0767954,34.5793182" id="path104" fill="#112E51" fill-rule="nonzero"></path>
                <path d="M55.1852348,30.825771 C55.2366489,30.9787174 55.2112637,31.1065777 54.9559095,31.1582507 L51.1227375,32.204647 C50.9182254,32.2559626 50.8928402,32.1538316 50.8163269,32.0259713 C50.2023615,30.7235686 48.9760754,29.8810055 47.238652,29.8810055 C45.0929194,29.8810055 42.971714,31.3360688 42.971714,34.5287887 C42.971714,37.2611686 44.6071674,39.2779167 47.1618527,39.2779167 C48.9255194,39.2779167 50.1518055,38.4867408 50.8928402,36.9543468 C50.9433961,36.8272726 50.9690674,36.7750993 51.1227375,36.8272726 L54.9299522,38.3080652 C55.0324943,38.3594523 55.1346789,38.4615833 55.0064655,38.767619 C53.8567642,41.3726389 51.2757641,43.645465 47.0598826,43.645465 C42.0518386,43.645465 38.1169825,39.7896439 38.1169825,34.5544465 C38.1169825,29.6509427 41.7454279,25.5391866 47.18781,25.5391866 C51.1738655,25.5391866 54.0355335,28.042004 55.1852348,30.825771 L55.1852348,30.825771" id="path106" fill="#112E51" fill-rule="nonzero"></path>
                <path d="M72.4330431,26.3312201 C70.7973752,29.1397874 66.9647752,35.9587659 66.9647752,35.9587659 C66.9647752,35.9587659 70.337652,40.6579362 72.0497616,42.9815777 C72.2035032,43.211569 72.1520177,43.2881136 71.8967351,43.2881136 L67.2714719,43.2881136 C67.1443311,43.2881136 67.0667452,43.2623843 66.9647752,43.134524 C65.5594337,40.8109541 62.0077876,35.397081 62.0077876,35.397081 C62.0077876,35.397081 62.0077876,41.0661029 62.0077876,43.0580508 C62.0077876,43.2623843 61.9826884,43.2881136 61.7784623,43.2881136 C60.143009,43.2881136 59.1461197,43.2881136 57.6388797,43.2881136 C57.4089823,43.2881136 57.4089823,43.3137715 57.4089823,43.0580508 C57.4089823,36.9543468 57.4089823,32.7919897 57.4089823,26.2030739 C57.4089823,25.9479251 57.4089823,25.9738688 57.6388797,25.9738688 C59.1461197,25.9738688 60.143009,25.9738688 61.7784623,25.9738688 C61.9826884,25.9738688 62.0077876,25.9987404 62.0077876,26.2030739 C62.0077876,28.1950218 62.0077876,29.3444067 62.0077876,29.3444067 L64.1030357,32.306778 C64.1030357,32.306778 66.5049805,27.8120127 67.2971431,26.2795471 C67.4502412,26.0238265 67.4242839,25.9738688 67.6295826,25.9738688 L72.2542737,25.9738688 C72.4845286,25.9738688 72.5867847,26.0238265 72.4330431,26.3312201 L72.4330431,26.3312201" id="path108" fill="#112E51" fill-rule="nonzero"></path>
                <path d="M86.8432814,26.3312201 C86.8432814,27.3781167 86.8432814,28.3480397 86.8432814,29.6258567 C86.8432814,29.9574787 86.8432814,29.9574787 86.562256,29.9574787 L79.0753964,29.8810055 L79.0753964,32.842805 L86.2297451,32.842805 C86.46,32.842805 86.4857427,32.8941922 86.4857427,33.2001564 C86.4857427,34.2219668 86.4857427,35.0648158 86.4857427,36.3161173 C86.4857427,36.6229391 86.46,36.6734686 86.2297451,36.6734686 L79.0753964,36.6734686 L79.0753964,39.5596526 L86.3834867,39.4831079 C86.5879988,39.4831079 86.6645121,39.6109682 86.6645121,39.8404592 C86.6645121,40.9388144 86.6645121,41.6794608 86.6645121,42.9564201 C86.6645121,43.2623843 86.6387693,43.2881136 86.3834867,43.2881136 L74.8342727,43.2881136 C74.5789901,43.2881136 74.6040178,43.2623843 74.6040178,43.0328933 C74.6040178,38.1293895 74.6040178,30.8000417 74.6040178,26.3312201 C74.6040178,26.0238265 74.6297606,25.9738688 74.8857583,25.9738688 L86.562256,25.9738688 C86.8175386,25.9738688 86.8432814,26.0238265 86.8432814,26.3312201 L86.8432814,26.3312201" id="path110" fill="#112E51" fill-rule="nonzero"></path>
                <path d="M103.990121,42.6490265 C104.245403,43.211569 104.16889,43.2881136 103.631867,43.2881136 L99.8762808,43.2881136 C99.5695126,43.2881136 99.4929994,43.211569 99.3392577,42.8285598 C98.5219244,40.7087516 96.1457224,35.4735542 96.1457224,35.4735542 C96.1457224,35.4735542 93.8202909,40.7595669 92.7727026,42.8785175 C92.6196761,43.1859112 92.51742,43.2881136 92.1083958,43.2881136 L87.7900438,43.2881136 C87.4839907,43.2881136 87.4582479,43.2881136 87.6370172,42.9564201 C90.1154753,37.9763716 93.7945481,31.3617981 93.7945481,31.3617981 L93.7945481,26.3312201 C93.7945481,25.9987404 93.8202909,25.9738688 93.9740325,25.9738688 C95.4814156,25.9738688 96.6820304,25.9738688 98.2151562,25.9738688 C98.4961816,25.9738688 98.4961816,25.9987404 98.4961816,26.3312201 L98.4961816,31.4899443 C98.4961816,31.4899443 101.741202,37.6690495 103.990121,42.6490265 L103.990121,42.6490265" id="path112" fill="#112E51" fill-rule="nonzero"></path>
                <path d="M125.649813,32.2559626 L125.649813,43.109438 C125.649813,43.2881136 125.649813,43.2881136 125.522529,43.2881136 C124.14243,43.2881136 122.558534,43.2881136 121.332176,43.2881136 C121.178434,43.2881136 121.178434,43.2623843 121.178434,43.109438 L121.178434,31.7191494 C121.178434,29.983208 119.722537,29.2935914 118.496179,29.2935914 C117.244079,29.2935914 115.813209,30.0082941 115.813209,31.7191494 L115.813209,43.0837087 C115.813209,43.2881136 115.813209,43.2881136 115.63444,43.2881136 C114.408082,43.2881136 112.746958,43.2881136 111.341831,43.2881136 C111.213832,43.2881136 111.213832,43.2881136 111.213832,43.134524 L111.213832,32.511183 C111.213832,28.2980105 113.564291,25.5391866 118.444694,25.5391866 C123.529609,25.5391866 125.649813,28.1442065 125.649813,32.2559626 L125.649813,32.2559626" id="path114" fill="#112E51" fill-rule="nonzero"></path>
                <path d="M143.79061,25.8451508 C143.867123,31.1582507 143.892866,38.0021009 143.79061,42.9815777 C143.79061,43.2358689 143.79061,43.2881136 143.534612,43.2881136 C141.924973,43.2881136 141.184153,43.2881136 139.651027,43.2881136 C139.446515,43.2881136 139.446515,43.2623843 139.446515,42.9815777 L139.446515,35.3199646 C139.446515,35.3199646 133.186728,41.11749 129.532683,43.7219382 C129.45617,43.7727536 129.379656,43.7989831 129.328171,43.747596 C129.2774,43.7219382 129.251658,43.6711228 129.251658,43.5432625 C129.149401,36.8016148 129.124374,32.7411743 129.251658,26.2287318 C129.251658,26.1266007 129.328171,25.9738688 129.507655,25.9738688 C131.040066,25.9738688 131.755858,25.9738688 133.365497,25.9738688 C133.595752,25.9738688 133.595752,25.9738688 133.595752,26.2030739 L133.595752,34.0176333 C133.595752,34.0176333 139.625284,28.4766862 143.483842,25.5905737 C143.586098,25.514029 143.662611,25.4877995 143.713381,25.514029 C143.79061,25.5391866 143.79061,25.6664751 143.79061,25.8451508 L143.79061,25.8451508" id="path116" fill="#112E51" fill-rule="nonzero"></path>
                <path d="M157.997766,34.7074644 C157.997766,31.7191494 157.026691,29.6509427 154.471005,29.6509427 L152.120546,29.6509427 L152.120546,39.6617836 L154.52249,39.6617836 C156.744951,39.6617836 157.997766,37.4903738 157.997766,34.7074644 L157.997766,34.7074644 Z M162.775198,34.6301336 C162.775198,40.2491977 159.836945,43.2881136 154.931515,43.2881136 L147.827936,43.2881136 C147.649167,43.2881136 147.623424,43.2358689 147.623424,43.0328933 C147.623424,36.5464659 147.623424,32.6390433 147.623424,26.2030739 C147.623424,25.9987404 147.649167,25.9738688 147.827936,25.9738688 L154.343721,25.9738688 C159.402893,25.9738688 162.775198,29.0892579 162.775198,34.6301336 L162.775198,34.6301336" id="path118" fill="#112E51" fill-rule="nonzero"></path>
                <path d="M183.491703,39.7383282 C183.491703,41.1683054 183.491703,41.2961657 183.491703,43.0328933 C183.491703,43.2358689 183.46596,43.2881136 183.285761,43.2881136 L169.769369,43.2881136 C169.565572,43.2881136 169.565572,43.2358689 169.565572,43.0328933 C169.565572,41.2961657 169.565572,41.1683054 169.565572,39.7383282 C169.565572,39.5853104 169.565572,39.5596526 169.744341,39.5596526 L174.241463,39.6109682 C174.241463,39.6109682 174.241463,29.3700646 174.241463,26.2025022 C174.241463,25.9479251 174.241463,25.9738688 174.496745,25.9738688 C176.080642,25.9738688 177.000946,25.9738688 178.712126,25.9738688 C178.917353,25.9738688 178.942381,25.9987404 178.942381,26.2025022 C178.942381,28.1950218 178.942381,39.6109682 178.942381,39.6109682 L183.312934,39.5596526 C183.46596,39.5596526 183.491703,39.5853104 183.491703,39.7383282 L183.491703,39.7383282" id="path120" fill="#112E51" fill-rule="nonzero"></path>
                <path d="M198.055683,26.3312201 C198.055683,27.3781167 198.055683,28.3480397 198.055683,29.6258567 C198.055683,29.9574787 198.055683,29.9574787 197.773228,29.9574787 L190.287083,29.8810055 L190.287083,32.842805 L197.440717,32.842805 C197.671687,32.842805 197.698144,32.8941922 197.698144,33.2001564 C197.698144,34.2219668 197.698144,35.0648158 197.698144,36.3161173 C197.698144,36.6229391 197.671687,36.6734686 197.440717,36.6734686 L190.287083,36.6734686 L190.287083,39.5596526 L197.594458,39.4831079 C197.799685,39.4831079 197.876914,39.6109682 197.876914,39.8404592 C197.876914,40.9388144 197.876914,41.6794608 197.876914,42.9564201 C197.876914,43.2623843 197.850456,43.2881136 197.594458,43.2881136 L186.045959,43.2881136 C185.789962,43.2881136 185.815704,43.2623843 185.815704,43.0328933 C185.815704,38.1293895 185.815704,30.8000417 185.815704,26.3312201 C185.815704,26.0238265 185.842162,25.9738688 186.096015,25.9738688 L197.773228,25.9738688 C198.029225,25.9738688 198.055683,26.0238265 198.055683,26.3312201 L198.055683,26.3312201" id="path122" fill="#112E51" fill-rule="nonzero"></path>
                <path d="M215.329091,25.8451508 C215.405604,31.1582507 215.431347,38.0021009 215.329091,42.9815777 C215.329091,43.2358689 215.329091,43.2881136 215.073809,43.2881136 C213.463454,43.2881136 212.722634,43.2881136 211.189508,43.2881136 C210.985711,43.2881136 210.985711,43.2623843 210.985711,42.9815777 L210.985711,35.3199646 C210.985711,35.3199646 204.724494,41.11749 201.071164,43.7219382 C200.993936,43.7727536 200.918853,43.7989831 200.866652,43.747596 C200.815167,43.7219382 200.790139,43.6711228 200.790139,43.5432625 C200.687883,36.8016148 200.662855,32.7411743 200.790139,26.2287318 C200.790139,26.1266007 200.866652,25.9738688 201.045421,25.9738688 C202.579262,25.9738688 203.29434,25.9738688 204.903264,25.9738688 C205.133519,25.9738688 205.133519,25.9738688 205.133519,26.2030739 L205.133519,34.0176333 C205.133519,34.0176333 211.164481,28.4766862 215.021608,25.5905737 C215.123864,25.514029 215.200377,25.4877995 215.252578,25.514029 C215.329091,25.5391866 215.329091,25.6664751 215.329091,25.8451508 L215.329091,25.8451508" id="path124" fill="#112E51" fill-rule="nonzero"></path>
                <path d="M233.726601,25.8451508 C233.802399,31.1582507 233.828857,38.0021009 233.726601,42.9815777 C233.726601,43.2358689 233.726601,43.2881136 233.469888,43.2881136 C231.860964,43.2881136 231.119429,43.2881136 229.587018,43.2881136 C229.383221,43.2881136 229.383221,43.2623843 229.383221,42.9815777 L229.383221,35.3199646 C229.383221,35.3199646 223.122004,41.11749 219.468674,43.7219382 C219.392161,43.7727536 219.314932,43.7989831 219.264877,43.747596 C219.213391,43.7219382 219.187648,43.6711228 219.187648,43.5432625 C219.086107,36.8016148 219.06108,32.7411743 219.187648,26.2287318 C219.187648,26.1266007 219.264877,25.9738688 219.443646,25.9738688 C220.976772,25.9738688 221.691849,25.9738688 223.300773,25.9738688 C223.531743,25.9738688 223.531743,25.9738688 223.531743,26.2030739 L223.531743,34.0176333 C223.531743,34.0176333 229.56056,28.4766862 233.419832,25.5905737 C233.521373,25.514029 233.598602,25.4877995 233.650087,25.514029 C233.726601,25.5391866 233.726601,25.6664751 233.726601,25.8451508 L233.726601,25.8451508" id="path126" fill="#112E51" fill-rule="nonzero"></path>
                <path d="M242.286791,26.2025022 C242.286791,30.2126276 242.286791,39.0992411 242.286791,43.0580508 C242.286791,43.2623843 242.260334,43.2881136 242.031509,43.2881136 C240.343926,43.2881136 239.398594,43.2881136 237.78967,43.2881136 C237.560845,43.2881136 237.560845,43.3137715 237.560845,43.0580508 C237.560845,36.9543468 237.560845,32.7919897 237.560845,26.2025022 C237.560845,25.9479251 237.560845,25.9738688 237.78967,25.9738688 C239.398594,25.9738688 240.343926,25.9738688 242.031509,25.9738688 C242.260334,25.9738688 242.286791,25.9987404 242.286791,26.2025022 L242.286791,26.2025022" id="path128" fill="#112E51" fill-rule="nonzero"></path>
                <path d="M258.895893,31.2082085 C258.895893,34.4006425 257.004513,36.1374416 253.733749,36.5964237 C253.401238,36.648597 253.120928,36.6991264 252.889958,36.7251416 C250.590984,37.1081508 249.645652,37.5933625 249.645652,38.767619 C249.645652,39.7131707 250.206988,40.377058 251.996111,40.377058 C253.326155,40.377058 254.500312,39.3809769 254.857851,38.3594523 C254.910051,38.231592 254.985135,38.1807766 255.163904,38.2572498 L258.154357,39.4565924 C258.307384,39.5088372 258.40964,39.6109682 258.333127,39.8918464 C257.668105,42.0368121 255.572928,43.645465 252.174881,43.645465 C247.652732,43.645465 245.378786,41.3221094 245.378786,38.0021009 C245.378786,34.8353247 247.524018,33.0985257 250.616727,32.7919897 C250.795497,32.7669036 251.050779,32.7411743 251.229548,32.7155165 C253.580008,32.4346383 254.321543,31.770751 254.321543,30.7235686 C254.321543,29.5487402 253.504925,29.0127132 251.740829,29.0127132 C250.130475,29.0127132 248.955603,30.1361544 248.650265,31.0809199 C248.598064,31.2852534 248.598064,31.2852534 248.367809,31.2082085 L245.225759,29.9318209 C245.04699,29.8552762 245.021247,29.7274159 245.123503,29.4466092 C245.992322,26.9442921 248.164012,25.5391866 251.638573,25.5391866 C255.650157,25.5391866 258.895893,27.275128 258.895893,31.2082085 L258.895893,31.2082085" id="path130" fill="#112E51" fill-rule="nonzero"></path>
                <path d="M283.318644,30.825771 C283.370129,30.9787174 283.345102,31.1065777 283.089819,31.1582507 L279.257004,32.204647 C279.051777,32.2559626 279.02675,32.1538316 278.950236,32.0259713 C278.3367,30.7235686 277.110342,29.8810055 275.373419,29.8810055 C273.226757,29.8810055 271.105123,31.3360688 271.105123,34.5287887 C271.105123,37.2611686 272.740505,39.2779167 275.296191,39.2779167 C277.058857,39.2779167 278.285214,38.4867408 279.02675,36.9543468 C279.078235,36.8272726 279.103978,36.7750993 279.257004,36.8272726 L283.064791,38.3080652 C283.166332,38.3594523 283.268588,38.4615833 283.139874,38.767619 C281.990745,41.3726389 279.409316,43.645465 275.19465,43.645465 C270.186248,43.645465 266.250463,39.7896439 266.250463,34.5544465 C266.250463,29.6509427 269.878765,25.5391866 275.321219,25.5391866 C279.307775,25.5391866 282.169514,28.042004 283.318644,30.825771 L283.318644,30.825771" id="path132" fill="#112E51" fill-rule="nonzero"></path>
                <path d="M296.78498,26.2025022 C296.78498,28.1950218 296.78498,28.9105822 296.78498,29.9066634 C296.78498,30.1104966 296.759952,30.1618837 296.556155,30.1618837 L290.141196,30.0339519 C290.141196,30.0339519 290.141196,40.377058 290.141196,43.0580508 C290.141196,43.2623843 290.116169,43.2881136 289.912372,43.2881136 C288.328475,43.2881136 287.279457,43.2881136 285.772789,43.2881136 C285.543249,43.2881136 285.543249,43.3137715 285.543249,43.0580508 C285.543249,36.9543468 285.543249,32.7919897 285.543249,26.2025022 C285.543249,25.9479251 285.543249,25.9738688 285.772789,25.9738688 C287.279457,25.9738688 294.970829,25.9738688 296.581183,25.9738688 C296.78498,25.9738688 296.78498,25.9987404 296.78498,26.2025022 L296.78498,26.2025022" id="path134" fill="#112E51" fill-rule="nonzero"></path>
                <path d="M312.654691,32.2559626 L312.654691,43.109438 C312.654691,43.2881136 312.654691,43.2881136 312.528122,43.2881136 C311.146593,43.2881136 309.562697,43.2881136 308.336339,43.2881136 C308.184028,43.2881136 308.184028,43.2623843 308.184028,43.109438 L308.184028,31.7191494 C308.184028,29.983208 306.727415,29.2935914 305.501773,29.2935914 C304.248957,29.2935914 302.818802,30.0082941 302.818802,31.7191494 L302.818802,43.0837087 C302.818802,43.2881136 302.818802,43.2881136 302.640033,43.2881136 C301.413675,43.2881136 299.751836,43.2881136 298.346709,43.2881136 C298.217995,43.2881136 298.217995,43.2881136 298.217995,43.134524 L298.217995,32.511183 C298.217995,28.2980105 300.568454,25.5391866 305.449572,25.5391866 C310.535202,25.5391866 312.654691,28.1442065 312.654691,32.2559626 L312.654691,32.2559626" id="path136" fill="#112E51" fill-rule="nonzero"></path>
                <path d="M326.246881,31.4133996 C326.246881,30.2126276 325.556831,29.5487402 324.484215,29.5487402 L320.804427,29.5487402 L320.804427,33.3029306 L324.484215,33.3029306 C325.505346,33.3029306 326.246881,32.511183 326.246881,31.4133996 L326.246881,31.4133996 Z M325.862884,38.0780024 C325.862884,37.0564778 325.275091,36.4442634 324.227503,36.4442634 L320.804427,36.4442634 L320.804427,39.7131707 L324.227503,39.7131707 C325.275091,39.7131707 325.862884,39.1506282 325.862884,38.0780024 Z M331,30.6721814 C331,32.6898587 329.644928,34.6818066 327.448211,34.9117979 C329.441131,35.4735542 330.513747,36.8778021 330.513747,38.7418897 C330.513747,41.6029876 328.623083,43.2881136 325.480318,43.2881136 C322.133756,43.2881136 319.349245,43.2881136 316.537561,43.2881136 C316.307306,43.2881136 316.231508,43.2358689 316.231508,43.0328933 C316.231508,36.5712661 316.231508,32.7919897 316.231508,26.3312201 C316.231508,25.9987404 316.257251,25.9738688 316.461048,25.9738688 C320.165863,25.9738688 322.491295,25.9738688 326.120312,25.9738688 C329.160106,25.9738688 331,27.8633283 331,30.6721814 L331,30.6721814" id="path138" fill="#112E51" fill-rule="nonzero"></path>
            </g>
        </g>
    </g>
</svg>