<?xml version="1.0" encoding="UTF-8" standalone="no"?><!DOCTYPE svg PUBLIC "-//W3C//DTD SVG 1.1//EN" "http://www.w3.org/Graphics/SVG/1.1/DTD/svg11.dtd"><svg width="100%" height="100%" viewBox="0 0 233 53" version="1.1" xmlns="http://www.w3.org/2000/svg" xmlns:xlink="http://www.w3.org/1999/xlink" xml:space="preserve" xmlns:serif="http://www.serif.com/" style="fill-rule:evenodd;clip-rule:evenodd;stroke-linejoin:round;stroke-miterlimit:1.41421;"><g><path d="M0.007,39.314l-0.007,-11.798l2.482,-0.002l0.003,4.573l7.755,-0.005l-0.003,-4.572l2.502,-0.002l0.007,11.799l-2.502,0.001l-0.003,-5.075l-7.755,0.004l0.003,5.076l-2.482,0.001Z" style="fill:#00427a;fill-rule:nonzero;"/><path d="M20.458,37.084l8.189,-0.005l-0.004,-7.476l-8.189,0.005l0.004,7.476Zm-2.485,-6.789c-0.001,-1.097 0.185,-1.836 0.557,-2.219c0.372,-0.38 1.068,-0.572 2.088,-0.572l7.859,-0.004c1.019,-0.002 1.715,0.19 2.088,0.571c0.372,0.38 0.559,1.119 0.559,2.216l0.004,6.219c0.001,1.098 -0.185,1.838 -0.557,2.219c-0.372,0.381 -1.068,0.572 -2.088,0.572l-7.858,0.005c-1.021,0.001 -1.717,-0.189 -2.089,-0.571c-0.372,-0.38 -0.559,-1.119 -0.559,-2.217l-0.004,-6.219Z" style="fill:#00427a;fill-rule:nonzero;"/><path d="M45.311,29.594l-6.701,0.004l0.004,7.477l6.7,-0.004l-0.001,-2.539l2.482,0.57l0.001,1.394c0.001,1.098 -0.185,1.838 -0.557,2.219c-0.373,0.381 -1.068,0.572 -2.088,0.572l-6.369,0.004c-1.02,0.001 -1.718,-0.189 -2.09,-0.57c-0.372,-0.381 -0.558,-1.119 -0.559,-2.217l-0.004,-6.219c0,-1.097 0.185,-1.837 0.557,-2.218c0.373,-0.381 1.069,-0.573 2.089,-0.573l6.369,-0.003c1.02,-0.001 1.716,0.189 2.089,0.57c0.372,0.381 0.559,1.119 0.559,2.217l0.001,1.121l-2.482,0.435l0,-2.24Z" style="fill:#00427a;fill-rule:nonzero;"/><path d="M52.927,39.284l-0.007,-11.798l2.502,-0.001l0.003,4.916l5.912,-4.92l3.597,-0.002l-7.069,5.56l7.946,6.237l-3.992,0.003l-6.393,-5.187l0.003,5.19l-2.502,0.002Z" style="fill:#00427a;fill-rule:nonzero;"/><path d="M69.346,39.274l-0.007,-11.797l10.919,-0.007l0.001,2.013l-8.438,0.004l0.001,2.63l4.922,-0.003l0.002,2.011l-4.922,0.003l0.001,2.927l8.541,-0.005l0.002,2.218l-11.022,0.006Z" style="fill:#00427a;fill-rule:nonzero;"/><path d="M87.936,39.264l-0.003,-5.282l-5.546,-6.513l3.309,-0.002l3.662,4.525l3.679,-4.529l2.916,-0.002l-5.518,6.451l0.003,5.35l-2.502,0.002Z" style="fill:#00427a;fill-rule:nonzero;"/><path d="M107.803,29.558l-6.7,0.004l0.004,7.476l6.7,-0.004l-0.001,-2.538l2.482,0.571l0,1.394c0.001,1.098 -0.184,1.837 -0.556,2.219c-0.373,0.381 -1.069,0.572 -2.088,0.572l-6.369,0.004c-1.021,0 -1.718,-0.189 -2.09,-0.57c-0.373,-0.381 -0.559,-1.12 -0.56,-2.218l-0.004,-6.219c0,-1.097 0.186,-1.837 0.558,-2.217c0.372,-0.381 1.068,-0.573 2.089,-0.574l6.369,-0.004c1.02,-0.001 1.716,0.191 2.089,0.572c0.372,0.381 0.559,1.119 0.559,2.216l0.001,1.121l-2.482,0.436l-0.001,-2.241Z" style="fill:#00427a;fill-rule:nonzero;"/><path d="M115.419,39.248l-0.006,-11.798l2.481,-0.001l0.005,9.58l8.003,-0.005l0.002,2.218l-10.485,0.006Z" style="fill:#00427a;fill-rule:nonzero;"/><path d="M132.018,27.441l0.005,9.58l7.072,-0.005l-0.005,-9.58l2.481,0l0.005,9.008c0.001,1.097 -0.184,1.837 -0.557,2.217c-0.372,0.382 -1.066,0.573 -2.087,0.574l-6.741,0.004c-1.021,0 -1.718,-0.19 -2.09,-0.571c-0.372,-0.381 -0.559,-1.12 -0.56,-2.218l-0.004,-9.008l2.481,-0.001Z" style="fill:#00427a;fill-rule:nonzero;"/><path d="M155.142,34.104l-5.666,0.003l0,2.995l5.667,-0.003c0.414,-0.001 0.703,-0.054 0.868,-0.161c0.22,-0.153 0.331,-0.449 0.331,-0.892l-0.001,-0.891c0,-0.442 -0.111,-0.74 -0.331,-0.891c-0.165,-0.107 -0.454,-0.16 -0.868,-0.16Zm-0.003,-4.756l-5.666,0.004l0.001,2.811l5.666,-0.003c0.757,0 1.137,-0.283 1.137,-0.847l-0.001,-1.119c0,-0.565 -0.38,-0.846 -1.137,-0.846Zm-8.101,9.882l-0.007,-11.798l9.141,-0.005c1.598,-0.001 2.398,0.761 2.399,2.285l0.001,1.441c0.001,1.158 -0.612,1.821 -1.839,1.99c1.283,0.182 1.924,0.935 1.924,2.262l0.001,1.509c0.001,1.539 -1.046,2.31 -3.141,2.311l-8.479,0.005Z" style="fill:#00427a;fill-rule:nonzero;"/><path d="M211.036,32.576c-4.738,5.14 -9.95,8.169 -15.752,8.467c-6.723,0.345 -7.006,-4.748 -5.237,-8.651c1.176,-2.598 -0.015,-5.072 -2.634,-5.423c-8.46,-1.129 -17.876,25.878 -0.293,26.03c10.545,0.091 18.79,-5.382 27.061,-15.431c6.697,-8.139 16.53,-28.715 18.518,-35.176c0.798,-2.591 -0.256,-3.47 -1.778,-0.134c-4.397,9.632 -10.391,20.019 -19.885,30.318Z" style="fill:#004182;fill-rule:nonzero;"/><path d="M202.933,23.036c1.372,2.504 0.292,5.735 -2.412,7.218c-2.704,1.483 -6.008,0.655 -7.38,-1.848c-1.373,-2.502 -0.293,-5.734 2.41,-7.217c2.705,-1.482 6.009,-0.655 7.382,1.847Z" style="fill:#f5821f;fill-rule:nonzero;"/><path d="M1.711,48.295l-1.711,0.001l0,-1.084l4.869,-0.003l0.001,1.084l-1.73,0.001l0.003,4.624l-1.429,0.001l-0.003,-4.624Z" style="fill:#004182;fill-rule:nonzero;"/><path d="M7.789,51.587c0.376,0.178 0.978,0.355 1.589,0.355c0.659,-0.001 1.006,-0.247 1.006,-0.619c0,-0.357 -0.302,-0.56 -1.063,-0.795c-1.053,-0.339 -1.748,-0.864 -1.749,-1.694c0,-0.973 0.911,-1.712 2.395,-1.713c0.724,0 1.241,0.128 1.617,0.288l-0.318,1.034c-0.245,-0.11 -0.705,-0.271 -1.316,-0.27c-0.62,0 -0.921,0.263 -0.921,0.55c0,0.364 0.348,0.525 1.176,0.804c1.118,0.373 1.635,0.896 1.636,1.701c0,0.957 -0.807,1.771 -2.547,1.772c-0.723,0 -1.437,-0.176 -1.795,-0.354l0.29,-1.059Z" style="fill:#004182;fill-rule:nonzero;"/><path d="M20.306,52.646c-0.441,0.137 -1.278,0.323 -2.115,0.324c-1.155,0 -1.992,-0.262 -2.576,-0.762c-0.574,-0.498 -0.893,-1.244 -0.894,-2.082c0.008,-1.897 1.539,-2.982 3.616,-2.983c0.819,-0.001 1.449,0.143 1.759,0.27l-0.301,1.042c-0.347,-0.144 -0.77,-0.246 -1.465,-0.245c-1.195,0 -2.106,0.603 -2.105,1.848c0.001,1.185 0.828,1.87 2.003,1.87c0.319,0 0.583,-0.035 0.695,-0.077l-0.001,-1.202l-0.977,0.001l0,-1.008l2.359,-0.002l0.002,3.006Z" style="fill:#004182;fill-rule:nonzero;"/><path d="M29.148,47.196l0.002,2.193l2.359,-0.001l-0.002,-2.193l1.429,-0.001l0.004,5.708l-1.429,0.001l-0.002,-2.388l-2.359,0.001l0.002,2.388l-1.429,0.001l-0.004,-5.708l1.429,-0.001Z" style="fill:#004182;fill-rule:nonzero;"/><path d="M40.151,50.485l-2.331,0.001l0.001,1.354l2.603,-0.001l0.001,1.059l-4.032,0.002l-0.004,-5.708l3.901,-0.002l0,1.058l-2.471,0.001l0.001,1.186l2.331,-0.001l0,1.051Z" style="fill:#004182;fill-rule:nonzero;"/><path d="M45.032,47.187l0.004,5.708l-1.429,0.001l-0.004,-5.708l1.429,-0.001Z" style="fill:#004182;fill-rule:nonzero;"/><path d="M48.478,47.185l1.429,-0.001l0.003,4.624l2.518,-0.001l0.001,1.084l-3.947,0.002l-0.004,-5.708Z" style="fill:#004182;fill-rule:nonzero;"/><path d="M56.888,51.973c0.141,0.018 0.31,0.018 0.554,0.018c0.649,0 1.223,-0.23 1.223,-0.832c-0.001,-0.567 -0.575,-0.794 -1.29,-0.794l-0.488,0l0.001,1.608Zm-0.001,-2.531l0.47,0c0.762,0 1.156,-0.282 1.155,-0.704c0,-0.432 -0.367,-0.661 -1.015,-0.661c-0.32,0 -0.499,0.018 -0.611,0.035l0.001,1.33Zm-1.422,-2.185c0.376,-0.058 1.128,-0.119 1.852,-0.119c0.874,0 1.41,0.075 1.881,0.32c0.442,0.212 0.752,0.601 0.752,1.126c0,0.499 -0.327,0.966 -1.042,1.212l0,0.017c0.723,0.17 1.259,0.668 1.26,1.396c0,0.526 -0.263,0.933 -0.658,1.221c-0.46,0.33 -1.23,0.517 -2.49,0.518c-0.704,0.001 -1.231,-0.042 -1.551,-0.084l-0.004,-5.607Z" style="fill:#004182;fill-rule:nonzero;"/><path d="M64.759,49.708l0.564,-0.001c0.715,0 1.137,-0.321 1.136,-0.821c0,-0.517 -0.394,-0.788 -1.052,-0.788c-0.348,0.001 -0.545,0.019 -0.649,0.044l0.001,1.566Zm-1.422,-2.455c0.461,-0.068 1.138,-0.119 1.909,-0.12c0.94,0 1.597,0.126 2.049,0.447c0.386,0.272 0.593,0.678 0.593,1.204c0.001,0.719 -0.572,1.219 -1.118,1.398l0,0.025c0.442,0.16 0.686,0.533 0.848,1.058c0.197,0.651 0.385,1.397 0.507,1.617l-1.465,0.001c-0.094,-0.169 -0.255,-0.627 -0.434,-1.329c-0.179,-0.721 -0.452,-0.906 -1.044,-0.915l-0.423,0.001l0.002,2.244l-1.42,0.001l-0.004,-5.632Z" style="fill:#004182;fill-rule:nonzero;"/><path d="M72.292,50.034c0.001,1.126 0.583,1.914 1.542,1.913c0.968,0 1.523,-0.83 1.522,-1.94c-0.001,-1.033 -0.536,-1.914 -1.524,-1.914c-0.977,0.001 -1.541,0.831 -1.54,1.941Zm4.578,-0.07c0.001,1.88 -1.248,3.006 -3.11,3.007c-1.87,0.002 -2.98,-1.276 -2.981,-2.911c-0.001,-1.71 1.219,-2.989 3.081,-2.991c1.945,-0.001 3.009,1.311 3.01,2.895Z" style="fill:#004182;fill-rule:nonzero;"/><path d="M80.004,52.875l-0.004,-5.708l1.673,-0.001l1.319,2.091c0.376,0.602 0.742,1.313 1.035,1.956l0.018,0c-0.086,-0.753 -0.114,-1.524 -0.115,-2.388l-0.001,-1.66l1.317,-0.001l0.003,5.708l-1.503,0.001l-1.356,-2.202c-0.376,-0.608 -0.799,-1.346 -1.1,-2.014l-0.039,0c0.049,0.762 0.068,1.567 0.069,2.499l0.001,1.718l-1.317,0.001Z" style="fill:#004182;fill-rule:nonzero;"/><path d="M88.683,52.87l-0.004,-5.708l1.674,-0.001l1.317,2.091c0.376,0.602 0.743,1.313 1.036,1.955l0.018,0c-0.086,-0.752 -0.113,-1.523 -0.114,-2.386l-0.001,-1.661l1.315,-0.001l0.004,5.708l-1.504,0.001l-1.355,-2.202c-0.376,-0.608 -0.799,-1.345 -1.101,-2.014l-0.038,0c0.048,0.762 0.068,1.567 0.068,2.499l0.001,1.718l-1.316,0.001Z" style="fill:#004182;fill-rule:nonzero;"/></g></svg>