<svg id="Ebene_1" data-name="Ebene 1" xmlns="http://www.w3.org/2000/svg" xmlns:xlink="http://www.w3.org/1999/xlink" viewBox="0 0 102.59 120.56"><defs><style>.cls-1,.cls-4,.cls-6{fill:none;}.cls-2,.cls-9{fill:#1d1d1b;}.cls-3{clip-path:url(#clip-path);}.cls-4,.cls-6{stroke:#1d1d1b;}.cls-4{stroke-width:1.75px;}.cls-5{fill:#d20a11;}.cls-6{stroke-width:0.58px;}.cls-7{clip-path:url(#clip-path-2);}.cls-8{fill:#00569d;}.cls-9{fill-rule:evenodd;}</style><clipPath id="clip-path" transform="translate(-14 -3.5)"><rect class="cls-1" x="14" y="3.5" width="102.59" height="120.56"/></clipPath><clipPath id="clip-path-2" transform="translate(-14 -3.5)"><path class="cls-1" d="M28.13,22.88V73a37.13,37.13,0,0,0,37.13,37.13V22.88Z"/></clipPath></defs><polygon class="cls-2" points="10.87 21.69 10.87 26.35 9.45 26.35 9.45 23.42 7.7 23.42 7.7 26.16 6.3 26.16 6.3 23.42 3.22 23.42 3.22 21.69 10.87 21.69 10.87 21.69"/><polygon class="cls-2" points="6.46 35.62 6.46 32.8 4.64 32.8 4.64 35.95 3.22 35.95 3.22 31.08 10.87 31.08 10.87 35.79 9.45 35.79 9.45 32.8 7.86 32.8 7.86 35.62 6.46 35.62 6.46 35.62"/><path class="cls-2" d="M24.87,45.75H20.48c-1.33,0-2,.51-2,1.39s.64,1.4,2,1.4h4.39v1.73H20.58c-2.36,0-3.48-1.19-3.48-3.19s1.08-3,3.5-3h4.27v1.72Z" transform="translate(-14 -3.5)"/><path class="cls-2" d="M18.53,56.9a2.69,2.69,0,0,0,0,.6,2.38,2.38,0,0,0,2.68,2.6,2.21,2.21,0,0,0,2.43-2.42,3.79,3.79,0,0,0-.07-.78Zm6.22-1.73a14.34,14.34,0,0,1,.17,2.33,5,5,0,0,1-.81,3.14,3.39,3.39,0,0,1-2.88,1.29,3.89,3.89,0,0,1-3.1-1.26,5.51,5.51,0,0,1-1-3.54,14.06,14.06,0,0,1,.12-2Z" transform="translate(-14 -3.5)"/><polygon class="cls-2" points="6.46 67.51 6.46 64.7 4.64 64.7 4.64 67.84 3.22 67.84 3.22 62.98 10.87 62.98 10.87 67.68 9.45 67.68 9.45 64.7 7.86 64.7 7.86 67.51 6.46 67.51 6.46 67.51"/><path class="cls-2" d="M17.28,77l7.56-1.11.29,2-2.54,2a24.73,24.73,0,0,1-2.41,1.62v0a31.35,31.35,0,0,1,3.14-.6l2.2-.32.23,1.57-7.56,1.11-.26-1.8,2.68-2a24.62,24.62,0,0,1,2.48-1.7v0c-1,.21-2.06.38-3.3.56l-2.28.34L17.28,77Z" transform="translate(-14 -3.5)"/><polygon class="cls-2" points="13.79 84.75 11.11 85.95 12.27 88.55 14.95 87.35 15.65 88.92 8.67 92.04 7.97 90.47 10.89 89.16 9.73 86.56 6.81 87.87 6.11 86.3 13.09 83.18 13.79 84.75 13.79 84.75"/><polygon class="cls-2" points="17.61 99.25 15.86 97.05 14.44 98.18 16.39 100.64 15.29 101.52 12.26 97.72 18.24 92.95 21.17 96.64 20.06 97.52 18.2 95.19 16.96 96.17 18.71 98.38 17.61 99.25 17.61 99.25"/><polygon class="cls-2" points="25.82 100.97 20.88 106.8 19.56 105.69 24.5 99.86 25.82 100.97 25.82 100.97"/><path class="cls-2" d="M47.26,114.54c.38-.83.85-1.84,1.35-2.84h0c-.66.76-1.43,1.59-2.1,2.26l-2.17,2.25-1.2-.6.59-3c.18-.93.45-2,.72-3h0c-.49.91-1.06,1.94-1.53,2.77l-1.43,2.53L40,114.19l3.86-6.62,2.06,1-.48,2.62c-.17.9-.39,1.85-.64,2.73l0,0c.58-.7,1.26-1.48,1.88-2.13l1.85-1.91,2,1-3.06,7-1.5-.75,1.2-2.67Z" transform="translate(-14 -3.5)"/><polygon class="cls-2" points="45.05 114.04 42.29 113.51 41.95 115.29 45.04 115.88 44.77 117.27 39.99 116.36 41.43 108.85 46.05 109.74 45.78 111.13 42.85 110.57 42.56 112.13 45.32 112.66 45.05 114.04 45.05 114.04"/><path class="cls-2" d="M66.52,116.89l.68,0c.86,0,1.35-.49,1.32-1.16s-.53-1-1.32-1a3.5,3.5,0,0,0-.78.09l.1,2.1Zm-1.87-3.21a16.8,16.8,0,0,1,2.29-.27,3.89,3.89,0,0,1,2.5.49,1.93,1.93,0,0,1,.79,1.57A2,2,0,0,1,69,117.4v0a1.87,1.87,0,0,1,1.09,1.36c.28.86.56,1.85.72,2.14L69,121a10.35,10.35,0,0,1-.61-1.75c-.26-1-.6-1.19-1.31-1.16l-.51,0,.14,3-1.71.08-.36-7.53Z" transform="translate(-14 -3.5)"/><polygon class="cls-2" points="67.5 106.65 68.78 109.3 71.34 108.06 70.07 105.42 71.62 104.67 74.93 111.56 73.38 112.31 71.99 109.42 69.43 110.66 70.81 113.54 69.26 114.28 65.95 107.4 67.5 106.65 67.5 106.65"/><path class="cls-2" d="M93.25,107.44c1,1.13,2.22,1.45,3.09.69s.64-2-.35-3.16-2.18-1.49-3.07-.71-.66,2.07.33,3.18Zm4.07-3.73c1.67,1.89,1.54,4-.14,5.51a3.58,3.58,0,0,1-5.28-.54,3.71,3.71,0,0,1,.13-5.47,3.57,3.57,0,0,1,5.29.5Z" transform="translate(-14 -3.5)"/><path class="cls-2" d="M106.92,96.91a5,5,0,0,1-.8,1.81,3.64,3.64,0,0,1-5.4,1.23,3.9,3.9,0,0,1-1.09-5.72A4.33,4.33,0,0,1,101,92.85l.94,1.05a3.6,3.6,0,0,0-1,1.06,2.52,2.52,0,0,0,4.21,2.75,4.09,4.09,0,0,0,.59-1.35l1.27.55Z" transform="translate(-14 -3.5)"/><path class="cls-2" d="M102.63,88.84l.56-1.62,3.19,1.11v0c-.22-.25-.42-.51-.62-.77l-1.84-2.46.7-2,2.25,3.45,5-1.07-.65,1.9-3.73.7.55.87,2.35.82-.55,1.61-7.23-2.49Z" transform="translate(-14 -3.5)"/><polygon class="cls-2" points="96.16 71.36 95.9 74.17 97.71 74.33 97.99 71.2 99.41 71.33 98.97 76.17 91.35 75.48 91.78 70.8 93.19 70.92 92.92 73.9 94.5 74.04 94.75 71.24 96.16 71.36 96.16 71.36"/><path class="cls-2" d="M113.37,67.84h-3.13l-4.52,2.41v-2l1.84-.77c.55-.24,1-.41,1.46-.59v0c-.48-.17-.92-.35-1.46-.57l-1.84-.78V63.6l4.46,2.51h3.19v1.73Z" transform="translate(-14 -3.5)"/><path class="cls-2" d="M113.16,54.31a5,5,0,0,1,.33,1.95,3.64,3.64,0,0,1-3.83,4,3.89,3.89,0,0,1-4-4.17A4.37,4.37,0,0,1,106,54.2l1.36.37A3.57,3.57,0,0,0,107,56a2.51,2.51,0,0,0,5,0,4,4,0,0,0-.25-1.45l1.36-.25Z" transform="translate(-14 -3.5)"/><polygon class="cls-2" points="91.72 46.24 91.72 44.52 97.91 44.52 97.91 41.48 99.37 41.48 99.37 46.24 91.72 46.24 91.72 46.24"/><path class="cls-2" d="M105.72,39.18h4.39c1.33,0,2-.51,2-1.38s-.64-1.41-2-1.41h-4.39V34.67H110c2.36,0,3.48,1.19,3.48,3.18s-1.08,3-3.5,3h-4.27V39.18Z" transform="translate(-14 -3.5)"/><path class="cls-2" d="M112.14,28.06a6.24,6.24,0,0,0,0-.67c0-.79-.3-1.48-1.11-1.48S110,26.6,110,27.47v.59Zm-3.39,0v-.57c0-.92-.38-1.4-.94-1.4s-.89.45-.89,1.23a4.79,4.79,0,0,0,0,.74Zm-2.93,1.71a15.05,15.05,0,0,1-.16-2.24,4.23,4.23,0,0,1,.44-2.26,1.64,1.64,0,0,1,1.5-.91,1.73,1.73,0,0,1,1.63,1.26h0a1.89,1.89,0,0,1,1.87-1.52,2,2,0,0,1,1.63.79,4.8,4.8,0,0,1,.69,3,13,13,0,0,1-.11,1.87Z" transform="translate(-14 -3.5)"/><g class="cls-3"><path class="cls-4" d="M14.88,4.38V72.89h0a50.42,50.42,0,0,0,100.83,0h0V4.38Z" transform="translate(-14 -3.5)"/></g><polygon class="cls-2" points="13.51 4.51 27.2 4.51 27.2 6.56 18.58 6.56 18.58 9.09 26.64 9.09 26.64 11.13 18.58 11.13 18.58 15.58 13.51 15.58 13.51 4.51 13.51 4.51"/><polygon class="cls-2" points="46.12 4.51 46.12 8.76 54.48 8.76 54.48 4.51 59.54 4.51 59.54 15.58 54.48 15.58 54.48 10.95 46.12 10.95 46.12 15.58 41.05 15.58 41.05 4.51 46.12 4.51 46.12 4.51"/><path class="cls-2" d="M104.41,18.79a29.32,29.32,0,0,1-5.73.47c-7.76,0-11.76-2.4-11.76-5.55,0-3.78,5.47-5.87,12.26-5.87a24.13,24.13,0,0,1,5.53.5l-1.07,2a20.79,20.79,0,0,0-4.26-.41c-4,0-7.13,1.2-7.13,3.66,0,2.22,2.67,3.62,7.16,3.62a24,24,0,0,0,4.27-.36l.73,2Z" transform="translate(-14 -3.5)"/><path class="cls-5" d="M102.46,73V22.8H65.29v87.33A37.17,37.17,0,0,0,102.46,73Z" transform="translate(-14 -3.5)"/><path class="cls-2" d="M102.46,73a37.17,37.17,0,0,1-74.33,0V22.84h74.33V73ZM27.1,21.72V73.1h0a38.2,38.2,0,0,0,76.39,0h0V21.72Z" transform="translate(-14 -3.5)"/><path class="cls-6" d="M102.46,73a37.17,37.17,0,0,1-74.33,0V22.84h74.33V73ZM27.1,21.72V73.1h0a38.2,38.2,0,0,0,76.39,0h0V21.72Z" transform="translate(-14 -3.5)"/><g class="cls-7"><polygon class="cls-8" points="42.06 89.87 51.35 82.44 51.34 69.81 42.06 77.23 42.06 89.87 42.06 89.87"/><polygon class="cls-8" points="32.78 109.93 42.06 102.5 42.06 89.87 32.77 97.29 32.78 109.93 32.78 109.93"/><polygon class="cls-8" points="42.07 115.14 51.35 107.71 51.35 95.08 42.06 102.5 42.07 115.14 42.07 115.14"/><polygon class="cls-8" points="14.18 23.7 23.47 16.28 23.47 3.64 14.18 11.06 14.18 23.7 14.18 23.7"/><polygon class="cls-8" points="23.47 28.91 32.76 21.49 32.76 8.85 23.47 16.28 23.47 28.91 23.47 28.91"/><polygon class="cls-8" points="14.19 48.97 23.47 41.54 23.47 28.91 14.19 36.33 14.19 48.97 14.19 48.97"/><polygon class="cls-8" points="32.76 34.12 42.05 26.7 42.05 14.06 32.76 21.49 32.76 34.12 32.76 34.12"/><polygon class="cls-8" points="42.05 39.33 51.34 31.91 51.34 19.27 42.05 26.7 42.05 39.33 42.05 39.33"/><polygon class="cls-8" points="23.48 54.18 32.76 46.75 32.76 34.12 23.47 41.54 23.48 54.18 23.48 54.18"/><polygon class="cls-8" points="42.06 64.6 51.34 57.17 51.34 44.54 42.05 51.97 42.06 64.6 42.06 64.6"/><polygon class="cls-8" points="32.77 59.39 42.05 51.97 42.05 39.33 32.76 46.75 32.77 59.39 32.77 59.39"/><polygon class="cls-8" points="14.19 74.24 23.48 66.81 23.48 54.18 14.19 61.6 14.19 74.24 14.19 74.24"/><polygon class="cls-8" points="23.48 79.45 32.77 72.02 32.77 59.39 23.48 66.81 23.48 79.45 23.48 79.45"/><polygon class="cls-8" points="32.77 84.66 42.06 77.23 42.06 64.6 32.77 72.02 32.77 84.66 32.77 84.66"/><polygon class="cls-8" points="14.2 99.51 23.48 92.08 23.48 79.45 14.2 86.87 14.2 99.51 14.2 99.51"/><polygon class="cls-8" points="23.49 104.72 32.77 97.29 32.77 84.66 23.48 92.08 23.49 104.72 23.49 104.72"/></g><path class="cls-9" d="M91.79,22.88H88.72C88,26.45,87.22,30,86.39,33.76s-1.67,7.37-2.51,11.05C83,41.13,82.2,37.5,81.36,33.76S79.77,26.45,79,22.88H76c.91,5.25,1.74,10.65,2.6,16.21,1,6.46,1.87,11.61,2.8,17-1.3,6.09-2.6,12.72-4,18.86-.48,2.15-1,5.5-2.31,5.64-1.6.16-1.6-2.39-3.45-2.73a2,2,0,0,0-2.38,1.5A4.88,4.88,0,0,0,69,80.8c.21,4,6.32,5.91,9.59,3.91,2.35-1.43,3.52-5.61,4.28-9.93.29-1.69.64-3.43,1-5.18.35,1.75.69,3.49,1,5.18.76,4.32,1.92,8.5,4.27,9.93,3.28,2,9.38.11,9.59-3.91a4.88,4.88,0,0,0-.26-1.46,2,2,0,0,0-2.38-1.5c-1.85.34-1.84,2.89-3.45,2.73-1.36-.14-1.83-3.49-2.3-5.64-1.36-6.14-2.66-12.77-4-18.86.93-5.37,1.79-10.52,2.8-17,.87-5.56,1.69-11,2.61-16.21Z" transform="translate(-14 -3.5)"/><path class="cls-2" d="M73.1,96.08v-.7l.63-.57c1.08-1,1.6-1.52,1.61-2.1,0-.4-.23-.72-.8-.72a1.84,1.84,0,0,0-1.06.4l-.32-.82a2.71,2.71,0,0,1,1.61-.51A1.53,1.53,0,0,1,76.5,92.6a3.06,3.06,0,0,1-1.32,2.14l-.45.38H76.6v1Z" transform="translate(-14 -3.5)"/><path class="cls-2" d="M78.39,93.62c0,1.13.27,1.67.71,1.67s.69-.56.69-1.69-.23-1.67-.7-1.67-.7.54-.7,1.69Zm2.55,0c0,1.52-.61,2.57-1.86,2.57S77.24,95,77.23,93.62s.6-2.56,1.88-2.56,1.83,1.18,1.83,2.53Z" transform="translate(-14 -3.5)"/><polygon class="cls-2" points="68.99 88.67 68.97 88.67 68.03 89.12 67.84 88.25 69.15 87.64 70.1 87.64 70.1 92.58 68.99 92.58 68.99 88.67 68.99 88.67"/><path class="cls-2" d="M86.81,93.62c0,1.13.28,1.67.72,1.67s.69-.56.69-1.69-.24-1.67-.7-1.67-.71.54-.71,1.69Zm2.56,0c0,1.52-.61,2.57-1.87,2.57S85.67,95,85.66,93.62s.6-2.56,1.87-2.56,1.84,1.18,1.84,2.53Z" transform="translate(-14 -3.5)"/></svg>