<?xml version="1.0" encoding="UTF-8" standalone="no"?>
<!DOCTYPE svg PUBLIC "-//W3C//DTD SVG 1.1//EN" "http://www.w3.org/Graphics/SVG/1.1/DTD/svg11.dtd">

<svg width="139px" height="162px" viewBox="0 0 139 162" version="1.1" xmlns="http://www.w3.org/2000/svg" xmlns:xlink="http://www.w3.org/1999/xlink">
    <g id="HBW" stroke="none" stroke-width="1" fill="none" fill-rule="evenodd">
        <g id="551-FHC" transform="translate(-18.000000, -6.000000)">
            <g id="Group" transform="translate(19.000000, 7.000000)">
                <path d="M0,0 L0,92.7220851 L0,92.7220851 C0.527526542,130.030934 31.0409721,160 68.5,160 C105.959028,160 136.472473,130.030934 137,92.7220851 L137,92.7220851 L137,0 L0,0 Z" id="Background" fill="#FFFFFF"></path>
                <path d="M0,0 L0,92.7220851 L0,92.7220851 C0.527526542,130.030934 31.0409721,160 68.5,160 C105.959028,160 136.472473,130.030934 137,92.7220851 L137,92.7220851 L137,0 L0,0 Z" id="Path" stroke="#1D1D1B" stroke-width="1.75"></path>
                <path d="M118,92.5545632 L118,23 L68,23 L68,144 C95.5932383,144 117.970306,120.976056 118,92.5545632 L118,92.5545632 Z" id="Path" fill="#D20A11" fill-rule="nonzero"></path>
                <g transform="translate(17.000000, 2.000000)" fill="#00569D" fill-rule="nonzero" id="Path">
                    <polygon points="38 120 51 109.629113 50.9860065 92 38 102.356929 38 120"></polygon>
                    <polygon points="25.0139935 147 38 136.629113 38 119 25 129.356929 25.0139935 147"></polygon>
                    <polygon points="38.0139935 155 51 144.629113 51 127 38 137.356929 38.0139935 155"></polygon>
                    <polygon points="0 28 13 17.6430708 13 0 0 10.3569292 0 28"></polygon>
                    <polygon points="13 36 26 25.6430708 26 8 13 18.3708873 13 36"></polygon>
                    <polygon points="0 63 13 52.6291127 13 35 0 45.3569292 0 63"></polygon>
                    <polygon points="25 43 38 32.6430708 38 15 25 25.3708873 25 43"></polygon>
                    <polygon points="38 50 51 39.6430708 51 22 38 32.3708873 38 50"></polygon>
                    <polygon points="13.0139935 70 26 59.6291127 26 42 13 52.3569292 13.0139935 70"></polygon>
                    <polygon points="38.0139935 85 51 74.6291127 51 57 38 67.3708873 38.0139935 85"></polygon>
                    <polygon points="25.0139935 78 38 67.6430708 38 50 25 60.3569292 25.0139935 78"></polygon>
                    <polygon points="0 98 13 87.6291127 13 70 0 80.3569292 0 98"></polygon>
                    <polygon points="13 105 26 94.6291127 26 77 13 87.3569292 13 105"></polygon>
                    <polygon points="25 113 38 102.629113 38 85 25 95.3569292 25 113"></polygon>
                    <polygon points="0 133 13 122.629113 13 105 0 115.356929 0 133"></polygon>
                    <polygon points="13.0139935 140 26 129.629113 26 112 13 122.356929 13.0139935 140"></polygon>
                </g>
                <path d="M117.611206,92.747565 C117.162473,120.341925 94.8588874,142.474462 67.5,142.474462 C40.1411126,142.474462 17.8375269,120.341925 17.3887943,92.747565 L17.3887943,24.5233478 L117.611206,24.5233478 L117.611206,92.747565 L117.611206,92.747565 Z M16,23 L16,92.8835782 L16,92.8835782 C16.45498,121.247197 39.3785201,144 67.5,144 C95.6214799,144 118.54502,121.247197 119,92.8835782 L119,92.8835782 L119,23 L16,23 Z" id="Shape" fill="#1D1D1B" fill-rule="nonzero"></path>
                <path d="M117.611206,92.747565 C117.162473,120.341925 94.8588874,142.474462 67.5,142.474462 C40.1411126,142.474462 17.8375269,120.341925 17.3887943,92.747565 L17.3887943,24.5233478 L117.611206,24.5233478 L117.611206,92.747565 L117.611206,92.747565 Z M16,23 L16,92.8835782 L16,92.8835782 C16.45498,121.247197 39.3785201,144 67.5,144 C95.6214799,144 118.54502,121.247197 119,92.8835782 L119,92.8835782 L119,23 L16,23 Z" id="Shape" stroke="#1D1D1B" stroke-width="0.58"></path>
                <path d="M137,0 L137,92.7220851 L136.975201,93.839126 C135.86151,130.627319 105.584438,160 68.5,160 C31.0409721,160 0.527526542,130.030934 0,92.7220851 L0,92.7220851 L0,0 L137,0 Z M119,23 L16,23 L16,92.8835782 C16.45498,121.247197 39.3785201,144 67.5,144 C95.6214799,144 118.54502,121.247197 119,92.8835782 L119,23 Z" id="Combined-Shape" fill="#FFFFFF"></path>
                <polygon id="Path" fill="#1D1D1B" fill-rule="nonzero" points="14 29 14 35 12.1437908 35 12.1437908 31.2274678 9.85620915 31.2274678 9.85620915 34.7553648 8.02614379 34.7553648 8.02614379 31.2274678 4 31.2274678 4 29 14 29"></polygon>
                <polygon id="Path" fill="#1D1D1B" fill-rule="nonzero" points="8.23529412 47.5256674 8.23529412 43.4722793 5.85620915 43.4722793 5.85620915 48 4 48 4 41 14 41 14 47.7700205 12.1437908 47.7700205 12.1437908 43.4722793 10.0653595 43.4722793 10.0653595 47.5256674 8.23529412 47.5256674"></polygon>
                <path d="M14,57.1583199 L8.35006435,57.1583199 C6.63835264,57.1583199 5.77606178,57.8174475 5.77606178,58.9547658 C5.77606178,60.092084 6.5997426,60.7641357 8.35006435,60.7641357 L14,60.7641357 L14,63 L8.47876448,63 C5.44144144,63 4,61.4620355 4,58.8772213 C4,56.2924071 5.38996139,55 8.5045045,55 L14,55 L14,57.2229402 L14,57.1583199 Z" id="Path" fill="#1D1D1B" fill-rule="nonzero"></path>
                <path d="M5.80592339,71.3403262 C5.77729954,71.6039424 5.77729954,71.8700408 5.80592339,72.1336571 C5.71181291,73.0910387 6.04670824,74.0403013 6.71497561,74.7103705 C7.38324297,75.3804396 8.31141751,75.6976523 9.23444676,75.5714243 C10.0808068,75.6634384 10.9222446,75.3565227 11.5252528,74.7358493 C12.128261,74.115176 12.4286817,73.2467823 12.3431452,72.3716563 C12.3478319,72.0256059 12.3178214,71.6799845 12.2535942,71.3403262 L5.80592339,71.3403262 Z M13.7631679,69.0528887 C13.9166107,70.0719889 13.9893457,71.10233 13.9806489,72.1336571 C14.0910977,73.5981299 13.7265029,75.0589135 12.9444161,76.2854221 C12.0628098,77.4461338 10.6849379,78.0840107 9.26003276,77.9910835 C7.76272536,78.0818152 6.30568901,77.4697326 5.29420348,76.3250886 C4.36157944,74.9624027 3.9099647,73.3100522 4.01490372,71.6444363 C4.00516512,70.760306 4.05646733,69.876584 4.16841969,69 L13.7631679,69.0528887 Z" id="Shape" fill="#1D1D1B" fill-rule="nonzero"></path>
                <polygon id="Path" fill="#1D1D1B" fill-rule="nonzero" points="8.23529412 91.5246914 8.23529412 87.4773663 5.85620915 87.4773663 5.85620915 92 4 92 4 85 14 85 14 91.7695473 12.1437908 91.7695473 12.1437908 87.4773663 10.0653595 87.4773663 10.0653595 91.5246914 8.23529412 91.5246914"></polygon>
                <path d="M3,99.504065 L13.7107438,98 L14.1216057,100.710027 L10.5230224,103.420054 C9.43082662,104.215094 8.29072703,104.948065 7.10861865,105.615176 L7.10861865,105.615176 C8.57607806,105.271992 10.0608887,105.000637 11.5572609,104.802168 L14.674144,104.368564 L15,106.495935 L4.2892562,108 L3.92089728,105.560976 L7.71782763,102.850949 C8.83885735,102.015362 10.0122374,101.246087 11.231405,100.547425 L11.231405,100.547425 C9.81463991,100.831978 8.31286895,101.062331 6.55608028,101.306233 L3.32585596,101.766938 L3,99.504065 Z" id="Path" fill="#1D1D1B" fill-rule="nonzero"></path>
                <polygon id="Path" fill="#1D1D1B" fill-rule="nonzero" points="17.4654088 113.126411 13.8134172 114.751693 15.39413 118.273138 19.0461216 116.647856 20 118.774266 10.4884696 123 9.53459119 120.873589 13.5136268 119.099323 11.932914 115.577878 7.95387841 117.352144 7 115.225734 16.5115304 111 17.4654088 113.126411"></polygon>
                <polygon id="Path" fill="#1D1D1B" fill-rule="nonzero" points="23.2053872 133.82147 20.8484848 130.740957 18.9360269 132.323221 21.5622896 135.767795 20.0808081 137 16 131.679113 24.0538721 125 28 130.166861 26.5050505 131.399067 24 128.136523 22.3299663 129.508751 24.6868687 132.603267 23.2053872 133.82147"></polygon>
                <polygon id="Path" fill="#1D1D1B" fill-rule="nonzero" points="34 136.439481 27.686901 144 26 142.560519 32.313099 135 34 136.439481"></polygon>
                <path d="M44.6524217,149.464597 C45.1576448,148.337536 45.7825261,146.966052 46.4472934,145.608147 L46.4472934,145.608147 C45.5698006,146.640155 44.5460589,147.767216 43.6552707,148.677013 L40.7701804,151.732299 L39.1747388,150.917556 L39.9591643,146.843841 C40.1984805,145.580989 40.5574549,144.128031 40.9164292,142.770126 L40.9164292,142.770126 C40.2649573,144.00582 39.5071225,145.404462 38.8822412,146.531523 L36.9810066,149.967022 L35,148.989331 L40.1320038,140 L42.8708452,141.357905 L42.2326686,144.915616 C42.0066477,146.13773 41.71415,147.42774 41.3817664,148.622696 L41.3817664,148.622696 C42.1528965,147.672163 43.0569801,146.612997 43.8812915,145.730359 L46.3409307,143.13676 L49,144.494665 L44.9316239,154 L42.9373219,152.981571 L44.5327635,149.355965 L44.6524217,149.464597 Z" id="Path" fill="#1D1D1B" fill-rule="nonzero"></path>
                <polygon id="Path" fill="#1D1D1B" fill-rule="nonzero" points="59.679868 153.396675 56.0363036 152.64133 55.5874587 155.178147 59.6666667 156.019002 59.310231 158 53 156.703088 54.9009901 146 61 147.268409 60.6435644 149.249406 56.7755776 148.451306 56.3927393 150.674584 60.0363036 151.429929 59.679868 153.396675"></polygon>
                <path d="M69.4376013,151.511482 L70.3192869,151.511482 C71.4343598,151.511482 72.0696921,150.883123 72.0307942,150.023939 C71.9918963,149.164756 71.3435981,148.741575 70.3192869,148.741575 C69.978862,148.742408 69.6396127,148.781122 69.3079417,148.856988 L69.4376013,151.549953 L69.4376013,151.511482 Z M67.012966,147.395093 C67.9935154,147.21256 68.9855868,147.096875 69.9821718,147.048855 C71.1033521,146.892525 72.2451075,147.113852 73.2236629,147.677213 C73.8721776,148.146701 74.2532344,148.895678 74.2479741,149.690525 C74.2933195,150.76454 73.6566554,151.752567 72.6531605,152.165487 L72.6531605,152.165487 C73.3861227,152.480884 73.9148193,153.133301 74.0664506,153.909503 C74.4294976,155.012336 74.7925446,156.281876 75,156.653762 L72.6531605,156.781998 C72.3221977,156.058849 72.0574955,155.307793 71.8622366,154.537861 C71.5251216,153.255497 71.0842788,153.011848 70.1636953,153.050319 L69.5024311,153.050319 L69.6839546,156.897411 L67.4667747,157 L67,147.343799 L67.012966,147.395093 Z" id="Shape" fill="#1D1D1B" fill-rule="nonzero"></path>
                <polygon id="Path" fill="#1D1D1B" fill-rule="nonzero" points="90.0712695 142.67846 91.7817372 146.263267 95.2026726 144.585848 93.5055679 141.014568 95.5768374 140 100 149.320499 97.9287305 150.335068 96.0712695 146.425598 92.6503341 148.103018 94.4944321 151.998959 92.4231626 153 88 143.693028 90.0712695 142.67846"></polygon>
                <path d="M106.213426,140.572198 C107.504069,142.007015 109.078654,142.413334 110.201513,141.448325 C111.324373,140.483316 111.027525,138.908827 109.749788,137.435919 C108.472051,135.96301 106.936186,135.543993 105.787513,136.534397 C104.638841,137.524801 104.935689,139.162777 106.213426,140.572198 L106.213426,140.572198 Z M111.466344,135.836035 C113.621718,138.235861 113.453935,140.915031 111.285654,142.832351 C110.315859,143.691446 109.022019,144.107016 107.723787,143.976392 C106.425554,143.845768 105.244008,143.181132 104.471057,142.146687 C103.502695,141.231477 102.96945,139.958293 103.001354,138.637599 C103.033258,137.316905 103.627379,136.07008 104.638841,135.201161 C105.600518,134.328397 106.893997,133.89901 108.196555,134.020132 C109.499113,134.141254 110.687911,134.801462 111.466344,135.836035 L111.466344,135.836035 Z" id="Shape" fill="#1D1D1B" fill-rule="nonzero"></path>
                <path d="M124.868068,126.190799 C124.657831,127.022613 124.259113,127.809395 123.695336,128.504923 C122.970772,129.711805 121.676264,130.581188 120.153278,130.883744 C118.630293,131.186301 117.031782,130.891647 115.7794,130.077505 C114.380735,129.346836 113.406285,128.130107 113.101094,126.733285 C112.795903,125.336464 113.189008,123.892448 114.181554,122.76436 C114.688957,122.051049 115.375707,121.447716 116.189856,121 L117.567816,122.342448 C116.978358,122.70231 116.479501,123.163502 116.101902,123.697681 C115.150834,125.17613 115.67606,127.044468 117.30337,127.971555 C118.930681,128.898643 121.103345,128.567307 122.2734,127.213616 C122.67911,126.688685 122.97216,126.103864 123.138289,125.487612 L125,126.190799 L124.868068,126.190799 Z" id="Path" fill="#1D1D1B" fill-rule="nonzero"></path>
                <path d="M118.028078,114.318841 L118.814255,111.971014 L123.292657,113.57971 L123.292657,113.57971 C122.983801,113.217391 122.703024,112.84058 122.422246,112.463768 L119.839093,108.898551 L120.821814,106 L123.980562,111 L131,109.449275 L130.087473,112.202899 L124.850972,113.217391 L125.62311,114.478261 L128.922246,115.666667 L128.150108,118 L118,114.391304 L118.028078,114.318841 Z" id="Path" fill="#1D1D1B" fill-rule="nonzero"></path>
                <polygon id="Path" fill="#1D1D1B" fill-rule="nonzero" points="128.967742 95.7299814 128.645161 99.3929236 130.890819 99.6014898 131.238213 95.5214153 133 95.6908752 132.454094 102 123 101.100559 123.533499 95 125.282878 95.1564246 124.947891 99.0409683 126.908189 99.2234637 127.218362 95.5735568 128.967742 95.7299814"></polygon>
                <path d="M133,85.7383459 L128.908497,85.7383459 L123,89 L123,86.2932331 L125.405229,85.2511278 C126.124183,84.9263158 126.712418,84.6962406 127.313725,84.4526316 L127.313725,84.4526316 C126.686275,84.2225564 126.111111,83.9789474 125.405229,83.681203 L123,82.6255639 L123,80 L128.830065,83.3969925 L133,83.3969925 L133,85.7383459 Z" id="Path" fill="#1D1D1B" fill-rule="nonzero"></path>
                <path d="M132.55659,67.1450713 C132.860377,67.9647831 133.003141,68.8391239 132.976506,69.7167903 C133.112817,71.1148119 132.651299,72.504543 131.713671,73.5194612 C130.776044,74.5343793 129.456454,75.0725767 128.102926,74.9921113 C126.701853,75.0370119 125.348105,74.4641329 124.377758,73.4156948 C123.40741,72.3672567 122.911459,70.9415771 123.013025,69.4925892 C122.977137,68.6387565 123.124918,67.7873388 123.445666,67 L125.176233,67.4879672 C124.898565,68.0767177 124.74254,68.7190611 124.718142,69.3738944 C124.8656,71.0808797 126.245755,72.3889642 127.89933,72.3889642 C129.552905,72.3889642 130.93306,71.0808797 131.080518,69.3738944 C131.089483,68.7215561 130.981619,68.0731536 130.762399,67.4615906 L132.492966,67.131883 L132.55659,67.1450713 Z" id="Path" fill="#1D1D1B" fill-rule="nonzero"></path>
                <polygon id="Path" fill="#1D1D1B" fill-rule="nonzero" points="123 61 123 58.4705882 131.091503 58.4705882 131.091503 54 133 54 133 61 123 61"></polygon>
                <path d="M123.01287,47.8381877 L128.662806,47.8381877 C130.374517,47.8381877 131.236808,47.1779935 131.236808,46.0517799 C131.236808,44.9255663 130.413127,44.2265372 128.662806,44.2265372 L123.01287,44.2265372 L123.01287,42 L128.521236,42 C131.558559,42 133,43.5404531 133,46.1165049 C133,48.6925566 131.610039,50 128.495495,50 L123,50 L123,47.8381877 L123.01287,47.8381877 Z" id="Path" fill="#1D1D1B" fill-rule="nonzero"></path>
                <path d="M131.327756,32.5874499 C131.343141,32.2725878 131.343141,31.9570437 131.327756,31.6421817 C131.327756,30.5276117 130.943083,29.5541266 129.904467,29.5541266 C128.865852,29.5541266 128.583759,30.5276117 128.583759,31.7550495 L128.583759,32.5874499 L131.327756,32.5874499 Z M126.980957,32.5874499 L126.980957,31.7832665 C126.980957,30.4852863 126.493705,29.8080792 125.77565,29.8080792 C125.057595,29.8080792 124.634455,30.4429609 124.634455,31.5434223 C124.609987,31.8909108 124.609987,32.2399614 124.634455,32.5874499 L126.980957,32.5874499 Z M123.223989,35 C123.084168,33.9536586 123.015591,32.8972853 123.018831,31.8397004 C122.935328,30.7399079 123.130626,29.6361787 123.583017,28.6511839 C123.944713,27.8501556 124.693617,27.3502517 125.506379,27.3673121 C126.48274,27.389071 127.331324,28.1108233 127.596433,29.1449807 L127.596433,29.1449807 C127.824174,27.8894872 128.830715,26.9892767 129.994224,27.0004917 C130.812649,26.983701 131.589187,27.3978083 132.084278,28.1150616 C132.793508,29.3807753 133.104419,30.8681439 132.969025,32.3476057 C132.97973,33.229622 132.932592,34.1113391 132.827978,34.9858915 L123.223989,35 Z" id="Shape" fill="#1D1D1B" fill-rule="nonzero"></path>
                <polygon id="Path" fill="#1D1D1B" fill-rule="nonzero" points="17 5 36 5 36 7.77777778 24.036523 7.77777778 24.036523 11.2059621 35.2227904 11.2059621 35.2227904 13.9701897 24.036523 13.9701897 24.036523 20 17 20 17 5"></polygon>
                <polygon id="Path" fill="#1D1D1B" fill-rule="nonzero" points="61.1292591 5 61.1292591 10.7588076 72.8848026 10.7588076 72.8848026 5 80 5 80 20 72.8848026 20 72.8848026 13.7262873 61.1292591 13.7262873 61.1292591 20 54 20 54 5 61.1292591 5"></polygon>
                <path d="M121.595278,19.3781374 C119.045544,19.8295235 116.456371,20.0360877 113.865093,19.9948518 C103.39629,19.9948518 98,16.8456721 98,12.7123737 C98,7.7524156 105.379427,5.01000492 114.539629,5.01000492 C117.04409,4.94875337 119.54745,5.16890356 122,5.66608403 L120.556492,8.29040047 C118.664938,7.91925969 116.739053,7.73897644 114.809444,7.7524156 C109.413153,7.7524156 105.190556,9.32700547 105.190556,12.5549147 C105.190556,15.4679059 108.79258,17.3049274 114.849916,17.3049274 C116.780736,17.3148484 118.708598,17.1567595 120.610455,16.8325505 L121.595278,19.4568669 L121.595278,19.3781374 Z" id="Path" fill="#1D1D1B" fill-rule="nonzero"></path>
                <path d="M104.429196,25.0271331 L100.195425,25.0271331 C99.2024891,29.8703941 98.1268079,34.6865219 96.9821729,39.7875474 C95.8375378,44.888573 94.679112,49.7861002 93.5206862,54.7785933 C92.3070972,49.7861002 91.2038345,44.8614399 90.0454087,39.7875474 C88.8869828,34.713655 87.8526741,29.8703941 86.7907837,25.0271331 L82.6535486,25.0271331 C83.9085099,32.1495757 85.053145,39.4755166 86.2391524,47.0185225 C87.6182307,55.7825185 88.8180289,62.7692955 90.1005718,70.0816699 C88.3077699,78.3437033 86.514968,87.3383308 84.5842583,95.6681969 C83.9223007,98.5850068 83.20518,103.129803 81.3985873,103.319735 C79.1920619,103.5368 79.1920619,100.077328 76.6407669,99.6160651 C75.1646682,99.2948819 73.7008277,100.20247 73.3585604,101.651049 C73.1399104,102.280814 73.0190317,102.939411 73,103.604633 C73.2896065,109.031256 81.7157753,111.622468 86.2253616,108.909157 C89.4661958,106.969139 91.0797175,101.298318 92.127817,95.4375655 C92.5277497,93.1448173 93.0104272,90.7842363 93.5068954,88.4100888 C93.9895728,90.7842363 94.4584595,93.1448173 94.8859738,95.4375655 C95.9340733,101.298318 97.5338042,106.969139 100.774638,108.909157 C105.298015,111.622468 113.710394,109.058389 114,103.604633 C113.98375,102.93028 113.862835,102.26233 113.64144,101.623916 C113.299172,100.175337 111.835332,99.2677487 110.359233,99.588932 C107.807938,100.050195 107.821729,103.509667 105.601413,103.292602 C103.725866,103.10267 103.077699,98.5578736 102.429532,95.6410638 C100.553986,87.3111976 98.761184,78.3165702 96.913219,70.0545368 C98.1957619,62.7692955 99.3817693,55.7825185 100.774638,46.9913894 C101.974437,39.4483835 103.105281,32.0681763 104.374033,25 L104.429196,25.0271331 Z" id="Path" fill="#1D1D1B"></path>
                <path d="M79,123.944808 L79,122.97894 L79.9,122.192448 C81.4428571,120.812638 82.1857143,120.095137 82.2,119.294847 C82.2,118.742923 81.8714286,118.301383 81.0571429,118.301383 C80.5048431,118.326946 79.9749539,118.520079 79.5428571,118.853307 L79.0857143,117.721863 C79.7552046,117.256657 80.5610142,117.010113 81.3857143,117.01816 C82.0155689,116.937876 82.6504215,117.126263 83.1249594,117.534266 C83.5994974,117.942269 83.8667562,118.529507 83.8571429,119.143068 C83.6956077,120.342823 83.008974,121.418006 81.9714286,122.095862 L81.3285714,122.62019 L84,122.62019 L84,124 L79,123.944808 Z" id="Path" fill="#1D1D1B" fill-rule="nonzero"></path>
                <path d="M85.5634543,120.493177 C85.5634543,122.035088 85.9273239,122.77193 86.5202965,122.77193 C87.1132691,122.77193 87.4501853,122.007797 87.4501853,120.465887 C87.4501853,118.923977 87.1402224,118.187135 86.5068198,118.187135 C85.8734173,118.187135 85.5634543,118.923977 85.5634543,120.493177 L85.5634543,120.493177 Z M89,120.493177 C89,122.567251 88.1779244,124 86.4933432,124 C84.808762,124 84.0136396,122.376218 84.000163,120.493177 C83.9866863,118.610136 84.808762,117 86.5337731,117 C88.2587843,117 89,118.610136 89,120.452242 L89,120.493177 Z" id="Shape" fill="#1D1D1B" fill-rule="nonzero"></path>
                <polygon id="Path" fill="#1D1D1B" fill-rule="nonzero" points="92.5265487 118.459514 92.5 118.459514 91.2522124 119.097166 91 117.864372 92.7389381 117 94 117 94 124 92.5265487 124 92.5265487 118.459514"></polygon>
                <path d="M97.5499777,120.493177 C97.5499777,122.035088 97.9273239,122.77193 98.5202965,122.77193 C99.1132691,122.77193 99.4501853,122.007797 99.4501853,120.465887 C99.4501853,118.923977 99.1267457,118.187135 98.5068198,118.187135 C97.8868939,118.187135 97.5499777,118.923977 97.5499777,120.493177 Z M101,120.493177 C101,122.567251 100.177924,124 98.4798665,124 C96.7818087,124 96.0136396,122.376218 96.000163,120.493177 C95.9866863,118.610136 96.808762,117 98.5202965,117 C100.231831,117 101,118.610136 101,120.452242 L101,120.493177 Z" id="Shape" fill="#1D1D1B" fill-rule="nonzero"></path>
            </g>
        </g>
    </g>
</svg>