<?xml version="1.0" encoding="UTF-8" standalone="no"?>
<svg
   xmlns:dc="http://purl.org/dc/elements/1.1/"
   xmlns:cc="http://creativecommons.org/ns#"
   xmlns:rdf="http://www.w3.org/1999/02/22-rdf-syntax-ns#"
   xmlns:svg="http://www.w3.org/2000/svg"
   xmlns="http://www.w3.org/2000/svg"
   viewBox="0 0 195.37334 133.06667"
   height="133.06667"
   width="195.37334"
   xml:space="preserve"
   id="svg2"
   version="1.1"><metadata
     id="metadata8"><rdf:RDF><cc:Work
         rdf:about=""><dc:format>image/svg+xml</dc:format><dc:type
           rdf:resource="http://purl.org/dc/dcmitype/StillImage" /></cc:Work></rdf:RDF></metadata><defs
     id="defs6" /><g
     transform="matrix(1.3333333,0,0,-1.3333333,0,133.06667)"
     id="g10"><g
       transform="scale(0.1)"
       id="g12"><path
         id="path14"
         style="fill:#ffffff;fill-opacity:1;fill-rule:evenodd;stroke:none"
         d="M 0,997.969 H 1465.32 V 0 H 0 v 997.969 0" /><path
         id="path16"
         style="fill:#ed1d29;fill-opacity:1;fill-rule:evenodd;stroke:none"
         d="M 33.0977,966.348 H 770.832 V 39.2188 H 33.0977 v 927.1292 0" /><path
         id="path18"
         style="fill:#ffffff;fill-opacity:1;fill-rule:nonzero;stroke:none"
         d="m 594.844,391.172 -65.77,188.262 h 54.188 l 47.707,-145.918 46.57,145.918 h 51.094 L 663.711,391.172 h -68.867 z m -244.727,0 v 42.344 h 115.168 v 30.468 H 421.25 c -18.262,0 -30.105,0.274 -35.566,0.86 -5.457,0.547 -11.289,2.246 -17.508,5.078 -8.086,3.75 -14.297,10.019 -18.625,18.75 -4.324,8.769 -6.492,19.629 -6.492,32.617 0,11.484 2.078,21.641 6.211,30.488 4.14,8.848 9.968,15.43 17.5,19.746 5.085,3.008 10.73,5.079 16.933,6.211 6.211,1.133 15.527,1.7 27.949,1.7 h 91.453 V 537.09 H 394.719 v -30.762 h 55.886 c 11.29,0 20.274,-0.664 26.954,-1.992 6.679,-1.289 12.656,-3.652 17.921,-7.031 14.493,-9.219 21.739,-24.766 21.739,-46.582 0,-11.289 -1.887,-21.231 -5.645,-29.785 -3.769,-8.555 -9.23,-15.196 -16.379,-19.883 -5.449,-3.594 -11.757,-6.133 -18.906,-7.637 -7.148,-1.504 -16.934,-2.246 -29.355,-2.246 h -96.817 z m -251.492,0 v 188.262 h 83.543 l 30.195,-138.301 29.934,138.301 h 81.844 V 391.172 H 275.879 V 548.379 L 236.641,391.172 H 185.559 L 146.602,546.406 V 391.172 H 98.625 v 0" /><path
         id="path20"
         style="fill:#1e2222;fill-opacity:1;fill-rule:evenodd;stroke:none"
         d="M 766.984,963.32 H 1432.63 V 41.1719 H 766.984 v 922.1481 0" /><path
         id="path22"
         style="fill:none;stroke:#231f20;stroke-width:4.32000017;stroke-linecap:butt;stroke-linejoin:miter;stroke-miterlimit:2.61310005;stroke-dasharray:none;stroke-opacity:1"
         d="M 766.984,963.32 H 1432.63 V 41.1719 H 766.984 V 963.32 Z" /><path
         id="path24"
         style="fill:#ed1d29;fill-opacity:1;fill-rule:nonzero;stroke:none"
         d="M 920.988,765.43 H 809.523 v 49.804 l 89.747,32.735 h -89.747 v 29.258 h 111.465 v -48.125 l -88.066,-34.434 h 88.066 V 765.43 Z m 0,-100.43 H 809.523 v 89.395 h 25.059 V 695.41 h 17.559 v 56.66 h 25.058 v -56.66 h 18.711 v 58.985 h 25.078 V 665 Z m 0,-109.121 h -34.101 l -52.305,61.152 v -59.316 h -25.059 v 92.91 h 32.09 l 54.297,-63.008 v 66.172 h 25.078 v -97.91 z m 0,-78.711 H 834.582 V 441.25 h -25.059 v 103.438 h 25.059 v -37.11 h 86.406 v -30.41 z M 809.523,331.445 v 30.43 h 87.051 v 43.438 h -87.051 v 30.41 l 43.106,0.175 c 19.394,0 31.797,-0.234 37.187,-0.664 5.411,-0.449 10.391,-1.738 14.961,-3.867 6.446,-3.105 10.918,-7.969 13.36,-14.609 2.461,-6.641 3.672,-17.129 3.672,-31.504 0,-14.473 -0.664,-24.707 -1.993,-30.664 -1.328,-5.957 -4.121,-10.84 -8.359,-14.629 -3.223,-2.891 -7.617,-5.039 -13.203,-6.426 -5.566,-1.387 -12.461,-2.09 -20.703,-2.09 h -68.028 z m 65.684,-80.195 v 30.078 l -44.629,-15.215 44.629,-14.863 z m 45.781,-45.293 -111.465,39.277 v 42.93 l 111.465,39.453 v -30.762 l -20.722,-7.187 v -46.621 l 20.722,-7.852 v -29.238 z m -68.183,-81.055 v 41.934 H 833.41 v -41.934 h 19.395 z m 43.105,0 v 43.457 H 875.871 V 124.902 H 895.91 Z M 920.988,94.4922 H 809.523 v 67.4998 c 0,23.281 9.317,34.922 27.911,34.922 11.582,0 19.336,-4.726 23.222,-14.18 4.004,10.801 13.496,16.211 28.418,16.211 5.449,0 10.469,-1.015 15.039,-3.007 4.571,-2.012 8.125,-4.805 10.684,-8.36 4.121,-5.703 6.191,-14.492 6.191,-26.406 v -66.6798 0" /><path
         id="path26"
         style="fill:#ffffff;fill-opacity:1;fill-rule:nonzero;stroke:none"
         d="m 1297.41,470.781 v 74.707 L 1223,470.781 h 74.41 z m 0,-76.953 v 34.375 h -112.18 v 65.879 l 88.61,89.18 h 75.27 V 470.781 h 36.92 v -42.578 h -36.92 v -34.375 h -51.7 z m -251.35,41.465 h 74.42 V 542.07 h -74.42 V 435.293 Z m 44.3,149.102 c 13.63,0 23.67,-0.274 30.12,-0.84 6.44,-0.586 12.3,-1.719 17.6,-3.418 14.39,-4.727 23.84,-12.676 28.41,-23.848 4.54,-11.172 6.8,-32.109 6.8,-62.773 0,-26.7 -0.94,-45.547 -2.83,-56.524 -1.9,-10.976 -5.76,-19.59 -11.66,-25.84 -6.6,-7.207 -15.66,-12.129 -27.11,-14.765 -11.45,-2.657 -29.69,-3.985 -54.69,-3.985 -21.38,0 -37.15,1.426 -47.26,4.278 -10.14,2.832 -18.32,8.125 -24.57,15.898 -4.55,6.055 -7.775,14.61 -9.65,25.703 -1.915,11.074 -2.852,27.578 -2.852,49.551 0,26.133 0.937,44.356 2.852,54.668 1.875,10.332 5.99,18.75 12.34,25.273 6.33,6.543 15.04,10.938 26.13,13.223 11.06,2.266 29.87,3.399 56.37,3.399 v 0" /></g></g></svg>