<?xml version="1.0" encoding="utf-8"?>
<!-- Generator: Adobe Illustrator 25.4.1, SVG Export Plug-In . SVG Version: 6.00 Build 0)  -->
<svg version="1.1" id="Ebene_1" xmlns="http://www.w3.org/2000/svg" xmlns:xlink="http://www.w3.org/1999/xlink" x="0px" y="0px"
	 viewBox="0 0 163 205" style="enable-background:new 0 0 163 205;" xml:space="preserve">
<style type="text/css">
	.st0{fill:#E30613;}
</style>
<rect x="57.7" y="129.7" class="st0" width="7.7" height="20.8"/>
<polygon class="st0" points="46.2,142.8 52.2,142.8 52.2,137.3 46.2,137.3 46.2,135.1 53.3,135.1 53.3,129.7 46.2,129.7 42.9,129.7 
	38.5,129.7 38.5,150.5 42.9,150.5 46.2,150.5 53.9,150.5 53.9,145 46.2,145 "/>
<polygon class="st0" points="28.1,129.7 20.4,129.7 20.4,150.5 24.8,150.5 28.1,150.5 35.2,150.5 35.2,145 28.1,145 "/>
<path class="st0" d="M79.1,129.7h-1.6h-3.3h-4.4v20.8h7.7V145h1.6c6.6,0,9.9-2.2,9.9-7.7C89,131.8,85.7,129.7,79.1,129.7
	 M79.1,140.1h-1.6v-5.5h1.6c1.6,0,2.7,1.1,2.7,2.7C81.9,139,80.8,140.1,79.1,140.1"/>
<path class="st0" d="M141.1,137.9h-6.6v4.9h2.2v2.7c-3.8,0-7.1-1.6-7.1-5.5c0-3.8,3.3-5.5,7.1-5.5c1.6,0,3.8,0.5,5.5,1.1v-5.5
	c-2.2-0.5-4.4-1.1-6.6-1.1c-7.7,0-13.2,3.8-13.2,11c0,6.6,4.9,11,13.2,11c2.2,0,4.9-0.5,7.1-1.1v-1.1v-4.4v-6.6H141.1z"/>
<path class="st0" d="M153.7,9.5H151H11.6H10H5.6v117.4c0,29.6,7.7,46.1,21.9,56.5c14.8,10.4,34.6,15.9,53.8,15.9s38.9-5.5,53.8-15.9
	c14.3-10.4,21.9-26.9,21.9-56.5V9.5H153.7z M151,120.9H11.6V15H151V120.9z M131.2,179c-13.2,9.9-34,14.8-49.9,14.8
	s-36.8-4.9-49.9-14.8c-6.6-5-11.5-11.3-14.8-19.7h129.5C142.8,167.7,137.8,174.1,131.2,179 M147.9,153.8H14.7
	c-2.1-7.4-3.1-16.2-3.1-26.9v-0.5H151v0.5C151,137.6,149.9,146.4,147.9,153.8"/>
<polygon class="st0" points="108.7,129.7 104.9,129.7 100.5,129.7 90.6,129.7 90.6,135.1 97.8,135.1 90.1,150.5 95.6,150.5 
	98.3,150.5 109.3,150.5 109.3,145 101,145 "/>
<rect x="112" y="129.7" class="st0" width="7.7" height="20.8"/>
<path d="M94.9,163.1H91h-0.6h-2.7l-8.1,11v4.9h9.2v3.8h6V179h2.7v-4.4h-2.7V163.1z M85,174.6l3.9-5.6v5.6H85z"/>
<path d="M44.4,167.5l2.2,4.4c1.4-0.6,2.9-1.1,4.4-1.8v12.8h6.6v-19.7h-4.9C49.9,165.3,47.2,166.4,44.4,167.5"/>
<path d="M106.4,170.2v-1.6h7.1v-5.5h-13.2v12.6c3.3-1.6,8.2-1.2,8.2,1c0,1.5-2.2,1.8-4.4,1.8c-1.4,0-3.3-0.3-4.4-0.7v5.1
	c2.1,0.4,4.9,0.5,6.6,0.5c5.5,0,8.8-2.3,8.8-6.7S112.4,170.2,106.4,170.2"/>
<path d="M74.6,172.5c1.6-0.7,2.7-2,2.7-3.9c0-4.4-3.8-6-8.2-6c-4.4,0-8.2,1.6-8.2,6c0,1.9,1.1,3.2,2.7,3.9c-1.9,0.9-3.3,2.5-3.3,4.8
	c0,4.4,3.3,6,8.8,6c5.5,0,8.8-1.6,8.8-6C77.9,175,76.5,173.5,74.6,172.5 M69.1,166.4c1.1,0,2.2,0.5,2.2,2.2c0,1.6-1.1,2.2-2.2,2.2
	c-1.1,0-2.2-0.5-2.2-2.2C66.9,167,68,166.4,69.1,166.4 M69.1,179.6c-1.1,0-2.2-0.5-2.2-2.2c0-1.6,1.1-2.2,2.2-2.2
	c1.1,0,2.2,0.5,2.2,2.2C71.3,179,70.2,179.6,69.1,179.6"/>
<path d="M135.6,46.8c-2.2,0.5-4.9,0.5-7.7,0.5c-2.2,0-4.9,0-8.2-0.5c7.7,10.4,10.4,24.7,10.4,39.5c0,13.7-4.4,17-9.9,17
	c-5.5,0-7.1-2.2-7.1-9.9V56.2c0-3.3,1.1-6.6,3.8-9.3c-3.8,0.5-8.2,1.1-11.5,1.1c-3.3,0-7.1-0.5-11-1.1c2.7,2.7,4.4,5.5,4.4,9.3v30.7
	c0,15.4-0.5,25.2-2.7,29.1c3.8-1.1,7.1-1.6,11-1.6c6,0,11,1.6,17,1.6c14.3,0,20.8-9.3,20.8-27.4S141.1,55.1,135.6,46.8"/>
<path d="M62.7,74.3c0-15.4,0-24.1,2.2-28c-6,1.6-14.3,1.6-23,1.6c-6.6,0-14.3-0.5-18.6-1.1l-6,17c3.3-2.7,8.8-3.8,14.3-3.8
	c-9.3,9.3-13.2,22.5-13.2,35.7c0,6.6,1.1,13.2,3.8,20.3c2.7-0.5,4.9-1.1,7.7-1.1c2.7,0,5.5,0.5,8.2,1.1c-2.2-2.7-4.9-6.6-4.9-10.4
	c0-11,11.5-14.3,15.9-17.6v1.1c0,15.4-0.5,23-2.7,26.9c3.3-1.1,6-1.6,9.9-1.6c2.7,0,6,0.5,9.3,1.6c-2.2-3.8-2.7-13.7-2.7-29.1V74.3z
	 M32.6,85.4c0.8-12.6,9-25.9,13.6-25.9c2.2,0,2.7,1.6,2.7,3.8V71C48.9,76.3,39,79.1,32.6,85.4"/>
<path d="M89.5,46.3c0-3.8,0.5-6.6,2.2-8.2c1.6-1.6,4.9-2.2,8.2-2.2h25.8c7.1,0,12.6,2.2,17,6.6c-2.7-6-6-15.4-7.1-21.9
	c-4.4,1.6-9.9,2.2-14.8,2.2H39.6c-4.9,0-10.4-0.5-14.8-2.2c-1.1,6.6-4.4,15.9-7.1,21.9c4.4-4.4,9.9-6.6,17-6.6h26.9
	c3.3,0,6.6,0.5,8.2,2.2c1.6,1.6,2.2,4.4,2.2,8.2v58.1c0,3.8-0.5,7.7-3.8,11.5c3.3-1.1,8.2-1.6,13.2-1.6c4.9,0,8.8,0.5,12.1,1.6
	c-3.3-3.8-3.8-7.7-3.8-11.5V46.3z"/>
</svg>
