<?xml version="1.0" encoding="UTF-8" standalone="no"?>
<!DOCTYPE svg PUBLIC "-//W3C//DTD SVG 1.1//EN" "http://www.w3.org/Graphics/SVG/1.1/DTD/svg11.dtd">
<svg width="152px" height="190px" viewBox="0 0 152 190" version="1.1" xmlns="http://www.w3.org/2000/svg" xmlns:xlink="http://www.w3.org/1999/xlink">
    <g id="Sachsen" stroke="none" stroke-width="1" fill="none" fill-rule="evenodd">
        <g id="Artboard" transform="translate(-24.000000, -5.000000)" fill-rule="nonzero">
            <g id="Group" transform="translate(24.000000, 5.000000)">
                <path d="M148.1,0 L145.4,0 L6,0 L4.4,0 L0,0 L0,117.4 C0,147 7.7,163.5 21.9,173.9 C36.7,184.3 56.5,189.8 75.7,189.8 C94.9,189.8 114.6,184.3 129.5,173.9 C143.8,163.5 151.4,147 151.4,117.4 L151.4,0 L148.1,0 Z" id="Background" fill="#FFFFFF"></path>
                <rect id="Rectangle" fill="#E30613" x="52.1" y="120.2" width="7.7" height="20.8"></rect>
                <polygon id="Path" fill="#E30613" points="40.6 133.3 46.6 133.3 46.6 127.8 40.6 127.8 40.6 125.6 47.7 125.6 47.7 120.2 40.6 120.2 37.3 120.2 32.9 120.2 32.9 141 37.3 141 40.6 141 48.3 141 48.3 135.5 40.6 135.5"></polygon>
                <polygon id="Path" fill="#E30613" points="22.5 120.2 14.8 120.2 14.8 141 19.2 141 22.5 141 29.6 141 29.6 135.5 22.5 135.5"></polygon>
                <path d="M73.5,120.2 L71.9,120.2 L68.6,120.2 L64.2,120.2 L64.2,141 L71.9,141 L71.9,135.5 L73.5,135.5 C80.1,135.5 83.4,133.3 83.4,127.8 C83.4,122.3 80.1,120.2 73.5,120.2 M73.5,130.6 L71.9,130.6 L71.9,125.1 L73.5,125.1 C75.1,125.1 76.2,126.2 76.2,127.8 C76.3,129.5 75.2,130.6 73.5,130.6" id="Shape" fill="#E30613"></path>
                <path d="M135.5,128.4 L128.9,128.4 L128.9,133.3 L131.1,133.3 L131.1,136 C127.3,136 124,134.4 124,130.5 C124,126.7 127.3,125 131.1,125 C132.7,125 134.9,125.5 136.6,126.1 L136.6,120.6 C134.4,120.1 132.2,119.5 130,119.5 C122.3,119.5 116.8,123.3 116.8,130.5 C116.8,137.1 121.7,141.5 130,141.5 C132.2,141.5 134.9,141 137.1,140.4 L137.1,139.3 L137.1,134.9 L137.1,128.3 L135.5,128.3 L135.5,128.4 Z" id="Path" fill="#E30613"></path>
                <path d="M148.1,0 L145.4,0 L6,0 L4.4,0 L0,0 L0,117.4 C0,147 7.7,163.5 21.9,173.9 C36.7,184.3 56.5,189.8 75.7,189.8 C94.9,189.8 114.6,184.3 129.5,173.9 C143.8,163.5 151.4,147 151.4,117.4 L151.4,0 L148.1,0 Z M145.4,111.4 L6,111.4 L6,5.5 L145.4,5.5 L145.4,111.4 Z M125.6,169.5 C112.4,179.4 91.6,184.3 75.7,184.3 C59.8,184.3 38.9,179.4 25.8,169.5 C19.2,164.5 14.3,158.2 11,149.8 L140.5,149.8 C137.2,158.2 132.2,164.6 125.6,169.5 M142.3,144.3 L9.1,144.3 C7,136.9 6,128.1 6,117.4 L6,116.9 L145.4,116.9 L145.4,117.4 C145.4,128.1 144.3,136.9 142.3,144.3" id="Shape" fill="#E30613"></path>
                <polygon id="Path" fill="#E30613" points="103.1 120.2 99.3 120.2 94.9 120.2 85 120.2 85 125.6 92.2 125.6 84.5 141 90 141 92.7 141 103.7 141 103.7 135.5 95.4 135.5"></polygon>
                <rect id="Rectangle" fill="#E30613" x="106.4" y="120.2" width="7.7" height="20.8"></rect>
                <path d="M89.3,153.6 L85.4,153.6 L84.8,153.6 L82.1,153.6 L74,164.6 L74,169.5 L83.2,169.5 L83.2,173.3 L89.2,173.3 L89.2,169.5 L91.9,169.5 L91.9,165.1 L89.2,165.1 L89.2,153.6 L89.3,153.6 Z M79.4,165.1 L83.3,159.5 L83.3,165.1 L79.4,165.1 Z" id="Shape" fill="#000000"></path>
                <path d="M38.8,158 L41,162.4 C42.4,161.8 43.9,161.3 45.4,160.6 L45.4,173.4 L52,173.4 L52,153.7 L47.1,153.7 C44.3,155.8 41.6,156.9 38.8,158" id="Path" fill="#000000"></path>
                <path d="M100.8,160.7 L100.8,159.1 L107.9,159.1 L107.9,153.6 L94.7,153.6 L94.7,166.2 C98,164.6 102.9,165 102.9,167.2 C102.9,168.7 100.7,169 98.5,169 C97.1,169 95.2,168.7 94.1,168.3 L94.1,173.4 C96.2,173.8 99,173.9 100.7,173.9 C106.2,173.9 109.5,171.6 109.5,167.2 C109.5,162.8 106.8,160.7 100.8,160.7" id="Path" fill="#000000"></path>
                <path d="M69,163 C70.6,162.3 71.7,161 71.7,159.1 C71.7,154.7 67.9,153.1 63.5,153.1 C59.1,153.1 55.3,154.7 55.3,159.1 C55.3,161 56.4,162.3 58,163 C56.1,163.9 54.7,165.5 54.7,167.8 C54.7,172.2 58,173.8 63.5,173.8 C69,173.8 72.3,172.2 72.3,167.8 C72.3,165.5 70.9,164 69,163 M63.5,156.9 C64.6,156.9 65.7,157.4 65.7,159.1 C65.7,160.7 64.6,161.3 63.5,161.3 C62.4,161.3 61.3,160.8 61.3,159.1 C61.3,157.5 62.4,156.9 63.5,156.9 M63.5,170.1 C62.4,170.1 61.3,169.6 61.3,167.9 C61.3,166.3 62.4,165.7 63.5,165.7 C64.6,165.7 65.7,166.2 65.7,167.9 C65.7,169.5 64.6,170.1 63.5,170.1" id="Shape" fill="#000000"></path>
                <path d="M130,37.3 C127.8,37.8 125.1,37.8 122.3,37.8 C120.1,37.8 117.4,37.8 114.1,37.3 C121.8,47.7 124.5,62 124.5,76.8 C124.5,90.5 120.1,93.8 114.6,93.8 C109.1,93.8 107.5,91.6 107.5,83.9 L107.5,46.7 C107.5,43.4 108.6,40.1 111.3,37.4 C107.5,37.9 103.1,38.5 99.8,38.5 C96.5,38.5 92.7,38 88.8,37.4 C91.5,40.1 93.2,42.9 93.2,46.7 L93.2,77.4 C93.2,92.8 92.7,102.6 90.5,106.5 C94.3,105.4 97.6,104.9 101.5,104.9 C107.5,104.9 112.5,106.5 118.5,106.5 C132.8,106.5 139.3,97.2 139.3,79.1 C139.3,61 135.5,45.6 130,37.3" id="Path" fill="#000000"></path>
                <path d="M57.1,64.8 C57.1,49.4 57.1,40.7 59.3,36.8 C53.3,38.4 45,38.4 36.3,38.4 C29.7,38.4 22,37.9 17.7,37.3 L11.7,54.3 C15,51.6 20.5,50.5 26,50.5 C16.7,59.8 12.8,73 12.8,86.2 C12.8,92.8 13.9,99.4 16.6,106.5 C19.3,106 21.5,105.4 24.3,105.4 C27,105.4 29.8,105.9 32.5,106.5 C30.3,103.8 27.6,99.9 27.6,96.1 C27.6,85.1 39.1,81.8 43.5,78.5 L43.5,79.6 C43.5,95 43,102.6 40.8,106.5 C44.1,105.4 46.8,104.9 50.7,104.9 C53.4,104.9 56.7,105.4 60,106.5 C57.8,102.7 57.3,92.8 57.3,77.4 L57.3,64.8 L57.1,64.8 Z M27,75.9 C27.8,63.3 36,50 40.6,50 C42.8,50 43.3,51.6 43.3,53.8 L43.3,61.5 C43.3,66.8 33.4,69.6 27,75.9" id="Shape" fill="#000000"></path>
                <path d="M83.9,36.8 C83.9,33 84.4,30.2 86.1,28.6 C87.7,27 91,26.4 94.3,26.4 L120.1,26.4 C127.2,26.4 132.7,28.6 137.1,33 C134.4,27 131.1,17.6 130,11.1 C125.6,12.7 120.1,13.3 115.2,13.3 L34,13.3 C29.1,13.3 23.6,12.8 19.2,11.1 C18.1,17.7 14.8,27 12.1,33 C16.5,28.6 22,26.4 29.1,26.4 L56,26.4 C59.3,26.4 62.6,26.9 64.2,28.6 C65.8,30.2 66.4,33 66.4,36.8 L66.4,94.9 C66.4,98.7 65.9,102.6 62.6,106.4 C65.9,105.3 70.8,104.8 75.8,104.8 C80.7,104.8 84.6,105.3 87.9,106.4 C84.6,102.6 84.1,98.7 84.1,94.9 L84.1,36.8 L83.9,36.8 Z" id="Path" fill="#000000"></path>
            </g>
        </g>
    </g>
</svg>