<?xml version="1.0" encoding="UTF-8" standalone="no"?>
<!DOCTYPE svg PUBLIC "-//W3C//DTD SVG 1.1//EN" "http://www.w3.org/Graphics/SVG/1.1/DTD/svg11.dtd">
<svg width="100%" height="100%" viewBox="0 0 1989 1989" version="1.1" xmlns="http://www.w3.org/2000/svg" xmlns:xlink="http://www.w3.org/1999/xlink" xml:space="preserve" xmlns:serif="http://www.serif.com/" style="fill-rule:evenodd;clip-rule:evenodd;stroke-linecap:round;stroke-linejoin:round;stroke-miterlimit:1.5;">
    <g>
        <g transform="matrix(1.39761,0,0,1.39761,-794.25,-734.438)">
            <circle cx="1279.79" cy="1237" r="709.266" style="fill:white;stroke:black;stroke-width:4.47px;"/>
        </g>
        <g transform="matrix(6.24377,-6.24377,5.54153,5.54153,-1018.39,794.682)">
            <path d="M228.776,197.783C227.883,146.49 190.723,105.435 145.191,105.435C99.658,105.435 62.498,146.49 61.606,197.783L228.776,197.783Z" style="fill:rgb(208,38,48);"/>
        </g>
        <g transform="matrix(-6.24377,6.24377,-5.54153,-5.54153,3007.19,1194.12)">
            <path d="M228.776,197.783C227.883,146.49 190.723,105.435 145.191,105.435C99.658,105.435 62.498,146.49 61.606,197.783L228.776,197.783Z" style="fill:rgb(36,55,134);"/>
        </g>
        <g transform="matrix(1,0,0,1,-509.194,-466.118)">
            <g>
                <g transform="matrix(0.91637,0.400333,-0.400333,0.91637,1009.93,-242.187)">
                    <text x="1084.63px" y="2296.14px" style="font-family:'Futura-Medium', 'Futura', sans-serif;font-weight:500;font-size:191.667px;">1</text>
                </g>
                <g transform="matrix(0.960819,0.277178,-0.277178,0.960819,695.438,-237.559)">
                    <text x="1188px" y="2341.07px" style="font-family:'Futura-Medium', 'Futura', sans-serif;font-weight:500;font-size:191.667px;">9</text>
                </g>
                <g transform="matrix(0.989773,0.142654,-0.142654,0.989773,352.333,-162.722)">
                    <text x="1311.01px" y="2375.86px" style="font-family:'Futura-Medium', 'Futura', sans-serif;font-weight:500;font-size:191.667px;">0</text>
                </g>
                <g transform="matrix(0.999975,0.00713526,-0.00713526,0.999975,17.1143,-10.1972)">
                    <text x="1437.67px" y="2393.43px" style="font-family:'Futura-Medium', 'Futura', sans-serif;font-weight:500;font-size:191.667px;">6</text>
                </g>
                <g transform="matrix(0.980818,-0.194925,0.194925,0.980818,-433.807,364.311)">
                    <text x="1634.16px" y="2386.32px" style="font-family:'Futura-Medium', 'Futura', sans-serif;font-weight:500;font-size:191.667px;">e</text>
                </g>
                <g transform="matrix(0.956514,-0.291686,0.291686,0.956514,-613.001,612.443)">
                    <text x="1747.51px" y="2362.1px" style="font-family:'Futura-Medium', 'Futura', sans-serif;font-weight:500;font-size:191.667px;">.</text>
                </g>
                <g transform="matrix(0.917894,-0.396825,0.396825,0.917894,-781.027,912.11)">
                    <text x="1813.64px" y="2343.44px" style="font-family:'Futura-Medium', 'Futura', sans-serif;font-weight:500;font-size:191.667px;">V</text>
                </g>
                <g transform="matrix(0.875518,-0.483186,0.483186,0.875518,-867.803,1216.76)">
                    <text x="1927.57px" y="2292.6px" style="font-family:'Futura-Medium', 'Futura', sans-serif;font-weight:500;font-size:191.667px;">.</text>
                </g>
            </g>
        </g>
        <g transform="matrix(1,0,0,1,-370.415,-327.338)">
            <g>
                <g transform="matrix(0.282396,-0.959298,0.959298,0.282396,-700.147,1395.49)">
                    <text x="582.674px" y="1165.72px" style="font-family:'Futura-Medium', 'Futura', sans-serif;font-weight:500;font-size:191.667px;">A</text>
                </g>
                <g transform="matrix(0.442511,-0.896763,0.896763,0.442511,-565.627,1131.94)">
                    <text x="627.595px" y="1020.9px" style="font-family:'Futura-Medium', 'Futura', sans-serif;font-weight:500;font-size:191.667px;">a</text>
                </g>
                <g transform="matrix(0.567995,-0.823032,0.823032,0.567995,-453.395,956.214)">
                    <text x="684.166px" y="909.998px" style="font-family:'Futura-Medium', 'Futura', sans-serif;font-weight:500;font-size:191.667px;">c</text>
                </g>
                <g transform="matrix(0.677294,-0.735712,0.735712,0.677294,-365.104,813.557)">
                    <text x="744.831px" y="822.965px" style="font-family:'Futura-Medium', 'Futura', sans-serif;font-weight:500;font-size:191.667px;">h</text>
                </g>
                <g transform="matrix(0.775942,-0.630804,0.630804,0.775942,-281.67,684.792)">
                    <text x="823.135px" y="738.898px" style="font-family:'Futura-Medium', 'Futura', sans-serif;font-weight:500;font-size:191.667px;">e</text>
                </g>
                <g transform="matrix(0.858591,-0.512661,0.512661,0.858591,-212.526,562.486)">
                    <text x="913.349px" y="666.486px" style="font-family:'Futura-Medium', 'Futura', sans-serif;font-weight:500;font-size:191.667px;">n</text>
                </g>
                <g transform="matrix(0.923863,-0.382722,0.382722,0.923863,-155.683,433.742)">
                    <text x="1012.32px" y="608.164px" style="font-family:'Futura-Medium', 'Futura', sans-serif;font-weight:500;font-size:191.667px;">e</text>
                </g>
                <g transform="matrix(0.966726,-0.255813,0.255813,0.966726,-107.303,305.237)">
                    <text x="1119.7px" y="565.098px" style="font-family:'Futura-Medium', 'Futura', sans-serif;font-weight:500;font-size:191.667px;">r</text>
                </g>
                <g transform="matrix(0.999364,-0.0356599,0.0356599,0.999364,-18.1214,45.476)">
                    <text x="1265.8px" y="530.75px" style="font-family:'Futura-Medium', 'Futura', sans-serif;font-weight:500;font-size:191.667px;">H</text>
                </g>
                <g transform="matrix(0.990759,0.135633,-0.135633,0.990759,84.6052,-187.223)">
                    <text x="1416.29px" y="527.287px" style="font-family:'Futura-Medium', 'Futura', sans-serif;font-weight:500;font-size:191.667px;">o</text>
                </g>
                <g transform="matrix(0.961034,0.276431,-0.276431,0.961034,210.839,-404.365)">
                    <text x="1539.73px" y="545.674px" style="font-family:'Futura-Medium', 'Futura', sans-serif;font-weight:500;font-size:191.667px;">c</text>
                </g>
                <g transform="matrix(0.911407,0.411506,-0.411506,0.911407,382.204,-624.551)">
                    <text x="1641.59px" y="575.376px" style="font-family:'Futura-Medium', 'Futura', sans-serif;font-weight:500;font-size:191.667px;">k</text>
                </g>
                <g transform="matrix(0.851755,0.52394,-0.52394,0.851755,580.558,-817.508)">
                    <text x="1734.93px" y="617.176px" style="font-family:'Futura-Medium', 'Futura', sans-serif;font-weight:500;font-size:191.667px;">e</text>
                </g>
                <g transform="matrix(0.77074,0.63715,-0.63715,0.77074,850.574,-1011.08)">
                    <text x="1830.26px" y="676.399px" style="font-family:'Futura-Medium', 'Futura', sans-serif;font-weight:500;font-size:191.667px;">y</text>
                </g>
                <g transform="matrix(0.697569,0.716518,-0.716518,0.697569,1120.12,-1147.45)">
                    <text x="1919.33px" y="753.162px" style="font-family:'Futura-Medium', 'Futura', sans-serif;font-weight:500;font-size:191.667px;">-</text>
                </g>
                <g transform="matrix(0.604972,0.796247,-0.796247,0.604972,1401.1,-1246.72)">
                    <text x="1957.04px" y="788.716px" style="font-family:'Futura-Medium', 'Futura', sans-serif;font-weight:500;font-size:191.667px;">C</text>
                </g>
                <g transform="matrix(0.499972,0.866042,-0.866042,0.499972,1804.58,-1315.27)">
                    <text x="2041.3px" y="905.122px" style="font-family:'Futura-Medium', 'Futura', sans-serif;font-weight:500;font-size:191.667px;">l</text>
                </g>
                <g transform="matrix(0.403483,0.914987,-0.914987,0.403483,2108.57,-1325.55)">
                    <text x="2070.91px" y="954.375px" style="font-family:'Futura-Medium', 'Futura', sans-serif;font-weight:500;font-size:191.667px;">u</text>
                </g>
                <g transform="matrix(0.258447,0.966025,-0.966025,0.258447,2592.65,-1259.66)">
                    <text x="2116.81px" y="1058.9px" style="font-family:'Futura-Medium', 'Futura', sans-serif;font-weight:500;font-size:191.667px;">b</text>
                </g>
            </g>
        </g>
    </g>
</svg>
