<?xml version="1.0" encoding="UTF-8"?>
<svg version="1.1" id="Ebene_1" xmlns="http://www.w3.org/2000/svg" xmlns:xlink="http://www.w3.org/1999/xlink" x="0px" y="0px" viewBox="0 0 410.8 410.8" style="enable-background:new 0 0 410.8 410.8;" xml:space="preserve">
<style type="text/css">
	.st0{fill:#FFFFFF;}
	.st1{fill:none;}
	.st2{fill:#038ed5;}
</style>
<g>
	<circle class="st0" cx="205.4" cy="205.4" r="205.4"/>
	<g>
		<g>
			<path d="M74.9,206.1c0-72.4,58.9-131.3,131.3-131.3c72.4,0,131.3,58.9,131.3,131.3c0,72.4-58.9,131.3-131.3,131.3     C133.8,337.4,74.9,278.5,74.9,206.1z M70.4,206.1c0,74.9,60.9,135.8,135.8,135.8c74.9,0,135.8-60.9,135.8-135.8     c0-74.9-60.9-135.8-135.8-135.8C131.3,70.3,70.4,131.2,70.4,206.1z"/>
		</g>
		<g>
			<path class="st1" d="M128.6,66.7c-4.8,0.8-7.7,1.8-12.2,3.8c-1.4,0.5-2.2,1-3.5,1.6c-0.7,0.3-1.7,0.3-1.9,1     c-0.3,0.9,1.5,0.5,2.4,0.8c8.6-0.1,13.5-0.3,22.2-0.3c6.9,0,11.1-0.3,17.7-2.4c2-0.6,3-1.7,4.9-2.5c2.6-1,8.3-2.8,9.8-5.1     c-5,0-11.7,1-16.7,1C142.4,64.8,137.3,65.2,128.6,66.7z"/>
			<path class="st1" d="M134.3,48.2c3.6-1.8,5.9-2.5,9.3-4.6c6.5-4.1,9.7-7.3,15.2-12.7c-8.4,4.1-13.8,3.9-22.8,6.5     c-7.3,2.1-11.7,4.1-17.1,9.5c-1.8,1.8-2.5,3.3-4.4,5.2c-2.7,2.7-4.5,4.2-6.5,7.6c5.6-2.3,8.8-3.7,14.6-5.6     C127.4,52.3,129.7,50.4,134.3,48.2z"/>
			<path class="st1" d="M286.8,43.3c-12-6-20.3-5.2-32.5-10.3c2.1,3.6,4.4,4.9,7.6,7.6c5.1,4.3,8.8,5.6,14.9,8.2     c5.3,2.2,7.8,4.6,13.1,6.8c5.2,2.1,8.9,2,13,5.9c-1.1-2-2.1-3-3.5-4.8C294.9,50.9,293.3,46.5,286.8,43.3z"/>
			<path class="st1" d="M261.9,64.5c-5.2,0-8.2,0.2-13.3,0.3l-1.6,0.8c4.3,1.7,6.9,2.2,11.1,4c8.1,3.5,13.1,6,21.8,6     c6.4,0,13.8-1.2,20.2-1.4c-5.4-1.4-11.2-4.1-16.5-5.7C275.2,66.1,270.4,64.5,261.9,64.5z"/>
			<path class="st2" d="M328.6,84.5c0.9-0.9,1.7-1.8,2.4-2.8h0c0.8-1.2,1.4-2.4,1.4-3.4c0-3.9-3.6-6.4-7.3-6.4     c-1.3,0-3.3,0.6-4.2,1.1c-4.2-11.7-17-30.4-31.1-38c-12.2-6.5-27.3-7.9-39.3-10.6c-6.9-1.5-17.6-8.4-18.9-8.4h-2.3v1.9     c1,4.3,8.5,6.6,10.5,9.8c1.5,2.5,2.7,5.8,5.1,7.9c4,3.6,9.2,6.5,12.3,9.5c13.7,12.7,29.6,13.3,41.8,20.5     c-19.4-4-20.6-7.2-35.7-7.2c-4.5,0-8.1,0.1-13.2-0.4c0.5-0.3,1.1-0.4,1-0.8c5.2,0.1,10.1-0.5,14.6-1.8c-5-1.9-10.1-2.3-14.7-4.2     c-3-1.3-5.4-4.1-7.6-4c-6.2,0.2-15.4-4.8-20.7-8.9l5.6-0.4c7.3,1.4,15.4,4.4,22.3,5.2c-5.2-4.6-11.9-8.1-12.5-14.3     c-2.4,1.1-5,3.2-6.3,3.2c-1.3,0-1.9-0.9-8.3-0.5c-2.2,0.1-4.8,1.6-7,1.6c-17.2,0.5-17.7,0.5-19.1,0.5c-1.3,0-5.1-1.9-7.2-2     c-3.8-0.3-8.1,0.5-11.8,0.2c-1.8-0.1-3.7-2.5-5-3c-0.3,7.1-9.2,11.2-12.5,14.3c8.3,0.3,16.4-5.2,24.4-5.2c1.3,0,2.6,0,3.5,0.3     c-7,6.1-14.6,7.4-22.4,9.5c-6.8,1.9-14.1,5.8-20.1,7c4.1,3.1,11.4,1.1,14.5,3.8c-0.9,0.3-1.9-1-22.8-0.2     c-5.7,0.2-22.9,7.5-24.7,7.5c-1.3,0-0.8-0.3-0.8-0.3c17.7-9.4,38.1-11.6,56.1-32c1.6-1.8,2.1-5,4-7c1.4-1.5,9.7-5.8,9.7-8.8V16     h-2.3c-1.3,0-10.6,5.6-15.7,7.3c-4.6,1.5-9.5,2.5-14.4,2.7c-17.7,0.7-47.1,17.6-55.8,40.1c-1.1,2.8-1.9,5.3-3.4,6.8     c-1.5-0.5-2.9-1.1-4.2-1.1c-2.1,0-7.3,1.6-7.3,5.9c0,0.2,0.9,2.1,1.9,3.9h0c0.7,1.2,1.4,2.3,1.9,2.8c-4.6,5-7.4,11.2-9.6,15.8     c2.5-1.6,4.6-1.6,6.6-2.4c1.1-2.8,3-6.7,6.4-8.9c1.9,1.9,4.4,3.8,5.4,3.8c8.4,0,2.7-7.6,5.6-11.2h0c0.8-1.1,2.5-1.7,5.4-1.7     l24.7,1.1c16.8,0,33.1-2.9,52-17.1c1.7-1.3,4.3-0.4,5.8-0.8c3.3-1.1,6.4-2.5,9.9-3.8c-1.7-1.3-3.9-2.9-5.6-3     c-9.7-0.9-14-1.1-17.5-0.9c2.1-1.9,3.5-3.7,5.2-4.3c7.4-2.7,26.2-15.2,28.4-15.2c0.7,0,29.1,15.2,33.1,19.5     c-5.1-0.2-8.4,0.4-17,0.9c-1.6,0.1-4.2,1.9-5.1,3.6c3.9,1.2,7.7,2.5,11.4,3.7c1,0.3,2.9-0.4,3.7,0.3c6.2,5.8,28.5,16.6,36.8,16.6     h36.4c0.1,0,7.9-2.1,9.3,1.2h0c0.1,0.3,0.2,0.8,0.2,1.2c0,2.9-1.9,9.9,5.1,9.9c1.8,0,4.6-3.1,5.4-4.3c3.8,3.2,5,6.3,6.2,9.6     c2.3,0.7,4.3-0.4,6.8,2.2C336.2,94.7,331.8,89.2,328.6,84.5z M114.5,52c1.8-1.8,2.5-3.3,4.4-5.2c5.4-5.4,9.7-7.3,17.1-9.5     c9-2.6,14.4-2.4,22.8-6.5c-5.4,5.4-8.6,8.6-15.2,12.7c-3.4,2.1-5.6,2.9-9.3,4.6c-4.6,2.2-6.9,4.1-11.6,5.7c-5.8,2-9,3.3-14.6,5.6     C110,56.2,111.8,54.7,114.5,52z M158.2,68.9c-1.9,0.8-2.9,1.8-4.9,2.5c-6.6,2-10.8,2.4-17.7,2.4c-8.6,0-13.5,0.2-22.2,0.3     c-0.9-0.3-2.7,0.1-2.4-0.8c0.2-0.7,1.2-0.7,1.9-1c1.3-0.6,2.1-1.1,3.5-1.6c4.6-2,7.4-3,12.2-3.8c8.7-1.5,13.8-1.9,22.7-1.9     c5,0,11.7-1,16.7-1C166.5,66.1,160.7,67.9,158.2,68.9z M279.8,75.6c-8.8,0-13.7-2.4-21.8-6c-4.2-1.8-6.8-2.3-11.1-4l1.6-0.8     c5.2-0.1,8.2-0.3,13.3-0.3c8.6,0,13.3,1.6,21.6,4c5.4,1.6,11.1,4.3,16.5,5.7C293.6,74.4,286.2,75.6,279.8,75.6z M289.8,55.6     c-5.3-2.2-7.8-4.6-13.1-6.8c-6.1-2.5-9.8-3.9-14.9-8.2c-3.2-2.7-5.4-3.9-7.6-7.6c12.2,5.1,20.5,4.3,32.5,10.3     c6.5,3.2,8.1,7.6,12.5,13.3c1.4,1.8,2.4,2.8,3.5,4.8C298.7,57.6,295,57.7,289.8,55.6z"/>
		</g>
		<g>
			<path class="st2" d="M360.9,147.3c-2.5-10.1-5.9-15.5-12.7-23.3c-4.3-5-6.7-7.8-12.2-11.4c-5-3.1-7.8-5-13-7.6     c0,0.5,0.8,3.6,1.6,4.9c1.2,1.8,1.8,3.1,3,4.8c3.8,5.5,6.6,8,11.4,12.8C346.6,135.2,360.9,147.3,360.9,147.3L360.9,147.3z      M338.4,62.7c18.1,22.2,40.1,47.9,40.1,71.7c0,5.4,0.5,7.3,0.5,8.6c0,3.5-3.2,16.7-3.2,17.7c0,1.6,7,2.8,7,7.2c0,3-3.4,4.3-6,5.4     c-0.5,1.9-2.6,5.3-2.6,6.7c0,1.3,1.6,4.6,1.6,5.9c0,1.3-3.3,7.7-6.2,11.5c-0.7-5.6-0.2-11-0.7-16.2c-4.1-2-8.1-2.8-8.1-6.6     c0-1.3,4.3-9.7,4.3-11c0-3.4-16.4-17.9-17.6-18.7c-8.9-5.9-23.6-17.7-29.5-27.6c-3.6-6-4.3-14.1-11.4-20.2     c-1.5-1.3-6-1.8-6.5-4.2c1.2-0.7,3.2-1.2,4.5-1.2c10.1,0,27.5,8.6,35.4,14.1c19.5,13.6,29.3,33.3,32.8,49.8     c0.3-0.9,1.3-2.2,1.3-3.5c0-1.3-4.8-12.2-5.8-18.2c-2.6-15.6-8.1-32.8-21.9-49.2c-0.3,0.5-0.3-0.3-0.3,1.1     c0,7.9,10.2,24.1,12.8,29.8v1.9c-5.7-3-19.6-12.8-18.9-19.6c0.1-1-1.5-1.5-1.8-2.6c-0.7-2.6-1.8-7.9-1.8-9.2     C336.6,84.8,337.2,80.2,338.4,62.7L338.4,62.7z"/>
		</g>
		<g>
			<path class="st2" d="M49.7,145.9l-0.6,4c6.7-4.2,10.9-10.2,16.5-15.8c8.1-8.1,14.3-10.6,20.7-20c1.8-2.6,4.3-7.4,5.7-10.3     c-10,6.6-17.6,9.4-25.8,18.2c-3.1,3.2-4.7,5.5-7.8,8.7C54.1,135,51.5,140.1,49.7,145.9L49.7,145.9z M73.2,63.3L74.5,85     c0,13.2-4.6,21.7-21.9,32.4c4.2-10,9.1-20.2,12.6-30.3v-2.4c-5.4,6.9-11.1,16.3-14.6,23.3c-2.9,5.9-4.4,13.8-5.9,19.5     c-1.8,6.9-6.8,19.6-6.8,20.9v6.2c0.3-0.1,0.5,0.5,0.8,1c2.2-9.3,7-19.5,12-28.3c3.9-7,14-16.5,21.8-22     c6.4-4.5,24.4-13.6,32.9-13.6c1.3,0,4.4,0.5,6.7,1.3c-13.2,3.5-13.6,18.4-20.1,26.8c-4.4,5.6-11.1,12.2-17,17.2     c-1,0.9-28.4,20.5-28.4,26.6c0,0.8,1.7,6.1,4,8.3c0.2,0.4,0.3,1.4,0.3,2.7c0,3.2-1.4,5.6-7.6,6.1c-0.3,0.6-1.5,5.1-0.6,17.2     c-1.2-1-6.3-12.7-6.3-13.4c0-1.3,1.1-3.5,1.1-4.8c0-6.9-8.6-7-8.6-12.4c0-4.1,5.4-5,7.5-6.3c-3.8-11-3.2-10.7-3.2-19     C33.1,111.5,45,96.9,73.2,63.3L73.2,63.3z"/>
		</g>
		<g>
			<path class="st2" d="M38.8,237.3c-0.3-7.8-0.5-11.4-3-18.9c-1.2-3.5-2.4-6.3-3.3-9.8c-2.7-10.2-2.7-16.6-8.4-25.7l-0.5-1.1     c-0.2,1.4-0.8,6.4-0.8,7.8c0,8.6,1,9.4,1,18c0,7.8,2.6,12.4,6.9,18.9C33.5,230.6,35,234.3,38.8,237.3L38.8,237.3z M42.1,215.8     c0.3-0.5,0.2-1.4,0.2-8.4c2.4-14.7,8-27.2,16.8-41.5c1.9-3.1,5.4-5.7,8.4-5.9c-1.6,6.2-3.7,13.9-3.7,15.2     c0,1.3,2.4,10.2,2.7,15.6c0.7,9.1,0.5,12.1,0.5,13.4c0,14.2-15.5,45.1-14.1,52.3c-4.6-1.6-4.2-9.2-4.2-12.6     c0-15,6.7-36.6,10-52.1v-5.1c-7.1,7.3-5.9,17.6-8.1,24.3c-0.9,2.8-1.4,6.2-2.7,9.4c-0.7,1.6-2.5,3.4-2.5,4.7     c0,1.3,1.6,9.1,1.6,10.5c0,1.3-1.1,7.3-1.1,8.6c0,1.3,2.1,10.4,3.1,16.1c4.4-1.8,9.8,2.7,9.8,7c0,1.3-2.7,4.6-2.7,5.9     c0,1.3,4.3,8.8,5.8,13.4c-3.5-2.1-6.7-3.7-10-5.5c4.2-11-13-7.5-13-14.9c0-2.3,3.5-4.7,5.4-5.7c-20.1-25.2-28.5-46-28.5-69     c0-1.3,1.1-12.9,1.1-14.2c0-3-3.2-15.4-3.2-16.4c0-2.5,4.2,1.8,8.1,8.2c4.1,5.4,10.6,11,12.1,16.2C37,195.7,39,205.8,42.1,215.8     L42.1,215.8z"/>
		</g>
		<g>
			<path class="st2" d="M372.5,235.7c3.4-4.9,6.7-8,8.9-13.5c1.3-3.3,1.6-5.3,2.7-8.7c0.8-2.7,1.8-4.1,2.2-6.8     c1-6.3,1.4-9.9,1.4-16.2v-8l0.2-0.7l-0.2-1.1v1.8L372.5,235.7L372.5,235.7z M344.5,160c2.9,1.4,7.1,3.7,8.5,6.6     c7.1,13.6,14,26.9,16.5,40.4v8.9c4.6-11.4,3.7-26.2,12.1-37c2.4-3.1,5.7-6.4,8.1-9.7c1.8-2.5,3.5-8.6,7.6-9.2     c-1.5,7.2-2.6,15.2-2.6,16.6s1.1,13.2,1.1,14.5c0,25.1-9.7,45.2-28.5,69.5c2.2,2.1,5.4,4,5.4,5.9c0,5-10.5,7.4-11.4,7.9     c-2.5,1.4-1.4,5.1-1.7,6.8c-2.6,1.2-5.8,2.7-9.3,4.9c1-4.6,5.3-11.5,5.3-12.8c0-1.3-2.7-4.6-2.7-5.9c0-1.8,1.9-6.4,5.1-6.8     c1.1-0.1,2.7-0.1,4.2-0.3c0.1-0.3,3.6-14,3.6-16.2c0-1.3-1.1-7-1.1-8.3c0-1.3,1.6-9.1,1.6-10.5c0-1.3-2-3.1-2.5-4.8     c-1.5-4.7-2.2-9.8-3-14.5c-0.1-1-0.2-2.2-0.5-3.2c-0.1-0.5-0.2-1.7-0.5-2.7c-0.1-0.5-0.3-1.7-0.5-2.7c-0.7-2.8-3.1-7.1-5.9-10.5     c-0.3,0.9-0.3,1.9-0.3,3.2c0,12,10.2,35.8,10.2,54.3c0,4.3,0.6,7.9-4.1,11.8c-1.8-7.7-2.9-16.1-5.7-23.3     c-3.8-9.7-8.4-20.2-8.4-30.2c0-1.3-0.1-4.3,0.5-11.3c0.4-4.8,2.7-13.7,2.7-15c0-3.8-1.7-9.2-3.4-13.9L344.5,160L344.5,160z"/>
		</g>
		<g>
			<path class="st2" d="M347,242.2c4,3.8,3.6,12,3.6,16.1c0,21.2-9.8,51.4-28.5,69.4c18.5-10,40.1-31,54.6-50.7     c-12,4.7-23.5,24.5-35.7,30.7c2.1-5.1,4.3-10.9,7.6-15.9c1.3-1.9,34.3-26.4,39.4-26.4h3.4c-11.9,22.6-34.5,58.2-63,69     c-5.2,1.9-11.3,4-16.6,6.2c-0.8,1.5-0.8,4.3-1.2,5.1c-1,2.4-5.2,4.5-6.5,4.5c-1.3,0-4.6-2.7-5.9-2.7c-1.3,0-13.2,4.8-14.5,4.8     c-1.3,0-1.7-0.6-2.9-1.2v-1.9c3.9-1.7,8.1-4.4,12.3-6.9c-0.5-0.9-1.1-2.1-1.1-3.4c0-4.7,3.8-7,7-7c2.1,0,3.6-0.2,5.1,2.1     c1.4-1.5,4-4.4,6.2-6.3c0.9-0.7,2.5-0.1,3.2-0.9c15.7-15.1,20.3-32.2,26.6-47.5c2.1-5.1,3.4-10.7,5-16c0,0,0.1-0.4-0.2-0.8     c-11.9,18.7-18.5,39.3-28.5,58.9c-0.6,1.1-2.6,2.8-5,3.9c-0.1-0.8-0.7-1-0.7-2.4c0-1.3,2.7-5.9,3-9.2     c2.2-21.3,16.2-42.2,26.4-54.4C343.9,255.1,345.5,247.8,347,242.2L347,242.2z"/>
		</g>
		<g>
			<path class="st2" d="M64.6,242.7c1.5,4.1,2,11.8,5.6,15.1c12.4,11.1,15.1,21,21.7,33c3,5.2,3.3,12.4,4.7,18.7     c0.7,3.7,4.2,10.6,4.2,11.9v2.7l-1.3,1.2c-4.6-2.4-5.8-8.4-7.4-12c-7.6-15.9-13.8-34.1-24.8-49.8c-0.3,0.5-0.2-0.3-0.2,1.1     c0,1.3,5.5,17,8.7,24.9c4.2,10.3,8.6,20.5,16.3,30.1c4.9,6.2,8.5,7.1,15.6,14.3c2.4-2.4,3.8-2.1,5.1-2.1c4.7,0,7,3.7,7,7.3     c0,1.3-0.6,2.3-1.1,3.1c4.2,2.5,8.5,5.2,12.9,7.5c-0.6,1.3-2.1,2.5-3.5,2.5c-1.3,0-13.4-4.8-14.8-4.8c-1.3,0-4.3,2.7-5.6,2.7     c-3.8,0-8.5-4.7-6.7-8.8c-17.1-6.6-34.1-15-50.1-31.1c-14.3-14.4-19.7-29.8-31-44.9c0.8-0.1,0.2-0.7,1.6-0.7     c8.9,0,38.8,23.1,41.3,26.4c3.3,4.4,4.9,9.7,7.5,14.6v1.9c-12.4-9.1-20.9-25.7-35.4-30.2c14.7,16.6,35.9,42,55.9,49.7     c-22-20.1-25.4-40.6-29.6-61.1c0-8.1-0.5-8.4-0.5-9.7C60.5,253.5,62.4,244.8,64.6,242.7L64.6,242.7z"/>
		</g>
		<g>
			<path class="st2" d="M109.8,358.3c-4-0.3-9.7,0.3-9.7,0.3c9.1,3.1,13.3,5.1,22.3,8.5c3.7,1.4,7.8,1.9,11.5,3.4     c7.3,2.9,11.3,2.2,19.2,2.2c7.8,0,14.9,0.3,22.2-3c-6.2-2.5-13-3.4-20.7-5.9c-5.6-1.8-11.4-2.9-17.3-3.3     c-3.4-0.2-5.3-0.8-8.7-0.8h-8C116.3,359.6,114,358.7,109.8,358.3L109.8,358.3z M257.7,365.7c-5,1.4-22.1,3.7-22.1,3.7     c3.9,1,6.3,1.6,10.3,1.6c3.4,0,19.7,2.3,22,2.3c1.6,0,9.9-1.1,11.5-1.2c5.4-0.5,8.9,0.2,13.8-2.2c3.3-1.6,5.6-2.1,8.8-3.9     c3.2-1.8,7.6-5.4,10.9-7.3c-2.7,1.1-6.8,2-9.8,2c-8.5,0-14,1.2-22.5,1.2C271.5,361.8,266.5,363.3,257.7,365.7L257.7,365.7z      M109.4,318h2c25.2,22.7,52.8,14,77.8,43.4c0.9-0.5,1.3-2.2,3-3.6c0.9-0.7,2.6-0.7,3.9-0.7c3.6,0,7.2,2.4,7.2,6.7     c0,1.3-1.2,4-2.7,5.4c1,1.4,3.8,4.5,5.1,4.5c1.3,0,3.6-2.6,5.1-4c-1.6-2-2.7-5.4-2.7-6.7c0-3.9,5.2-6.4,7.2-6.4     c1.4,0,5,2.5,6.5,4.3c7.2-4.1,17.2-15.2,24.6-18.1c7-2.7,13.9-5.8,21-8.1c9.9-3.2,22.5-5,32.7-16.7h2     c-7.6,9.1-20.5,34.8-34.9,34.8c-1.3,0-3,0-4.8-0.8c4.4-1,13.2-4.8,15.1-12.1c-5.6,3.2-11.4,7-17.5,9.5     c-11.1,4.6-22.5,7.1-33.7,16.6c0.5,0.3,0,0.8,1.3,0.8c1.3,0,10.6-4.8,16-6.3c8.9-2.5,20.5-4.2,29.6-5.5l12.9-0.5     c17.8-1.3,37.9-2.6,51.2-11.2v2c-14.6,15.7-39,32.9-56.1,32.9h-36.9c-1.3,0-9.3-1-13.5-1.8c-2-0.3-6.7-2.4-8.6-4.6     c-3.6,1.6-7.3,3.2-10.9,5.1c8.2,4.7,18.8,10.3,24.7,16.2c-4-0.2-7.6,2.5-11.6,4.4c-2.8-3.4-3-9-8.7-12.2c-3-1.7-8.7-4.9-10.1-4.9     c-1.7,0-14,8.5-14.7,9.5c-1.3,2-2.3,4.8-3,7c0,0,0.3,0.6-1.1,0.6c-3,0-5.4-3.8-11.5-4.5c6.7-6.2,19.5-13.6,24.7-16.2     c-3.1-1.4-9.1-4.6-10.5-4.6c-1.3,0-4.8,2.9-7.4,3.6c-5.3,1.4-11.3,1.8-16.7,2.4l-27.4,0.5c-20.5,0.9-45.3-13.4-64.1-33.5v-2     c14.4,9.8,26.1,7.6,38.3,10.2l13.4,0.5c18.7,1.3,39.9,4.1,58.5,12.9l0.9-0.8c-17.1-14.4-34.3-13-51.2-26.6c0,0-0.3-0.5-0.3,0.8     c0,3.2,11,11.1,15.6,11.8c-1.8,0.8-3.5,0.8-4.8,0.8C130.8,352.8,117.8,329.5,109.4,318L109.4,318z"/>
		</g>
		<path class="st2" d="M329.6,176.7c-0.6-0.8-0.7-1-1.2-0.7c-0.4,0.2-1.5,0.7-5.1-0.4c-4.2-1.2-7.4-3-10.5-4.8    c-4.4-2.5-8.6-4.9-14.9-5.1c-6.4-0.3-12.7,2.6-17.7,5c-3.5,1.6-6.5,3-8.6,2.9c-5.1-0.2-6.9-2-9.3-4.2c-3.2-2.9-7.1-6.6-20.2-8.9    c-7-1.2-12.9-0.6-18.6,0.1c-4.6,0.5-8.9,1-13.6,0.5l-2.2-0.2c-4.6-0.4-6.5-0.6-13.3-4.7l-0.3-0.2l0,0.3l0.8,7.2l0,0.1    c0,0,0.1,0,0.1,0l2.8,0.6c4.5,1,7.8,1.7,13.1,1.8c4.5,0.1,8.9-0.3,13.1-0.7c6.5-0.6,12.6-1.2,18.8,0c4.2,0.8,6.5,2.3,9.9,4.6    l1.1,0.7l8.7,61.3c-5.2-0.4-8.2-0.4-13.4,0.2c-6.2,0.7-10.6,3.2-14.9,5.5c-4.2,2.3-8.5,4.7-14.5,5.5c-6.2,0.9-9.8,1-16.1,0.4    l-0.2,0l0,0.2l0.3,4.8l0,0.1l0.1,0c13.5,3.2,23-1.6,31.4-5.8c4.2-2.1,8.2-4.1,12.2-4.8l0,0l0,0c3.9-1.4,8.5-1.4,13.3-1.3    c7.4,0.1,14.9,0.2,21.8-4.8c6-4.3,7-6.2,8.7-9.3c1.3-2.4,2.9-5.3,7.2-10.5c2.8-3.4,9.3-5,14-6.1c2.3-0.6,4.2-1,5.2-1.5    c7.7-4.2,13.1-10.3,14.5-16.1C333,184.4,332.2,180.4,329.6,176.7z"/>
		<g>
			<path d="M224.3,189.3c-0.7,3.5-1,4.6-1.6,8.9c-0.1,0.7,0.1,0.8,0.4,1.3c0.8,1.2,3.3,0.8,5.4,0.6c1.9-0.1,4.2,0.7,4.8-1.2     c0.2-0.5,0.2-1.1,0.1-1.4c-1.2-4.8-0.2-4.6-2.4-9.8c-0.6-1.5-4.7-2.4-6.1-0.4C224.4,188,224.5,188.4,224.3,189.3L224.3,189.3z      M206.5,227c3.5-19.9,4.1-27.8,6.9-46.1c0.3-2.2,1-3.9,2.5-5.5c1.8-2,6.8-1.5,11.5-1.4c5.3,0.1,11.9-0.9,13,2.1     c0.3,0.9,0.8,1.8,1.1,2.7c5.8,16.7,7.6,28.2,12.4,42c0.5,1.4,0.5,2.1,0,3.3c-0.9,2.3-3.3,2.2-5.8,2.8c-2.2,0.5-3.7,1.3-5.8,0.3     c-1.1-0.5-2-0.7-2.4-1.9c-1.1-3.6-1.1-11.3-3-11.1c-3.7,0.4-14.2-0.7-15,0.9c-1.1,2.4-2,12.3-3,13.5c-1.3,1.7-3.1,1.3-5.2,1.5     c-2.8,0.3-6.6,0.3-7.2-1C206.3,228.3,206.3,228,206.5,227L206.5,227z"/>
		</g>
		<g>
			<path d="M112.9,271.9c-1.9,1.8-4.4,7.3-4.1,11.9c0.2,2.3,1,4,2.5,5.1c0.6,0.5,1.3,0.6,1.9,0.5c1.7-0.3,3.4-2.7,5.5-6.1l-1.3-15.9     C116,268.8,114.5,270.3,112.9,271.9z"/>
			<path d="M204,248.5l-9.9-92.5l0,0l0,0c-1.6-4.7-4-8.6-7.5-11.8c-3.2-3-7.3-5.4-12.6-7.5c-8.1-3.1-18.4-3.2-29.9-0.4     c-9.8,2.4-20.2,7-29.2,12.8l-0.1,0l0,0.1l-0.4,8l0,0.1l0.1,0c17.8,5.2,18.9,25.6,19.9,43.7l0.2,3.3c1,16.7,0.9,29.1-2.2,39.4     c-1.7,5.5-4.3,10.5-8.3,15.8l1.4,13.5c6.6-8.9,17-18.9,35.1-23.4l2.1-0.5c14.8-3.7,20.3-5.1,41.1-0.6l0.2,0.1L204,248.5z"/>
		</g>
		<g>
			<path class="st1" d="M114.4,136.3c-0.3-2.3-2.8-3.8-5.6-3.5c-2.8,0.4-4.9,2.5-4.6,4.7c0.3,2.3,2.8,3.8,5.6,3.5     C112.6,140.7,114.6,138.6,114.4,136.3z"/>
			<path d="M110.9,144.8c0.2,0,0.4-0.1,0.7-0.1l16,170.6l4.5-0.4L115.9,143c3-1.8,4.9-4.7,4.5-7.8c-0.6-4.5-5.7-7.6-11.5-6.9     c-5.8,0.7-10.1,5-9.5,9.5c0.3,2.7,2.3,4.8,5,6l15.6,163.9l2.3-0.2l-15.5-162.9C108.1,144.9,109.5,144.9,110.9,144.8z      M104.1,137.6c-0.3-2.3,1.8-4.4,4.6-4.7c2.8-0.4,5.3,1.2,5.6,3.5c0.3,2.3-1.8,4.4-4.6,4.7C106.9,141.4,104.4,139.9,104.1,137.6z"/>
		</g>
	</g>
</g>
</svg>