<?xml version="1.0" encoding="UTF-8" standalone="no"?>
<!DOCTYPE svg PUBLIC "-//W3C//DTD SVG 1.0//EN" "http://www.w3.org/TR/2001/REC-SVG-20010904/DTD/svg10.dtd">
<!-- Created with Inkscape (http://www.inkscape.org/) -->
<svg xmlns:svg="http://www.w3.org/2000/svg" xmlns="http://www.w3.org/2000/svg" version="1.0" width="800" height="800" id="svg2">
  <defs id="defs4"/>
  <g id="layer1">
    <path d="M 395,210.53572 A 29.642857,29.642857 0 1 1 335.71429,210.53572 A 29.642857,29.642857 0 1 1 395,210.53572 z" transform="matrix(12.783133,0,0,12.783133,-4280.7661,-2299.1632)" id="path3817" style="opacity:1;fill:#592883;fill-opacity:1;fill-rule:evenodd;stroke:none;stroke-width:2;stroke-linecap:square;stroke-linejoin:miter;stroke-miterlimit:4;stroke-dasharray:none;stroke-dashoffset:0;stroke-opacity:1"/>
    <path d="M 389.59583,65.645131 C 383.96538,65.645131 378.41425,66.019527 372.85356,66.30169 L 372.85356,718.26518 C 378.41425,718.54734 383.96538,718.59346 389.59583,718.59346 C 398.09643,718.59346 406.53569,718.24784 414.87336,717.60862 L 414.87336,411.32366 L 482.82726,411.32366 L 482.82726,705.13399 C 497.32767,700.82349 511.26563,695.57228 524.84706,689.37656 L 524.84706,94.862024 C 511.28591,88.675554 497.30476,83.739908 482.82726,79.432878 L 482.82726,369.30385 L 414.87336,369.30385 L 414.87336,66.958249 C 406.53243,66.318603 398.09979,65.645131 389.59583,65.645131 z M 348.88914,68.271368 C 303.29545,73.977657 260.58663,89.076107 222.82974,111.60429 L 222.82974,169.05324 L 268.13234,150.66957 L 268.13234,694.95732 C 281.67112,700.39563 295.78883,705.14082 310.15214,708.74507 L 310.15214,133.92731 L 348.88914,118.16988 L 348.88914,68.271368 z M 571.1345,120.79612 L 571.1345,618.79643 L 571.1345,619.12471 L 571.1345,663.44247 C 658.51604,604.85352 715.90595,505.31828 715.90585,392.28343 C 715.90585,356.67291 710.37762,322.28002 699.82014,290.18845 L 661.7397,290.18845 L 663.05282,294.1278 C 699.22998,394.90725 678.32134,500.74043 613.1543,577.76146 L 613.1543,154.60893 C 600.09266,142.32286 586.0801,130.81711 571.1345,120.79612 z M 161.11315,179.55819 L 82.326026,268.52199 L 82.326026,531.80231 L 226.44082,663.44247 L 226.44082,610.26115 L 226.44082,394.25311 L 213.30963,381.77848 L 189.67349,359.45546 L 242.52652,299.70856 L 161.11315,179.55819 z M 157.1738,247.51209 L 188.68865,297.08232 L 124.34583,370.28869 L 124.34583,284.60769 L 157.1738,247.51209 z M 161.76971,391.29859 L 184.42101,412.63677 L 184.42101,570.53931 L 124.34583,513.74692 L 124.34583,433.64668 L 161.76971,391.29859 z" id="path3899" style="opacity:1;fill:#ffffff;fill-opacity:1;fill-rule:evenodd;stroke:none;stroke-width:2;stroke-linecap:square;stroke-linejoin:miter;stroke-miterlimit:4;stroke-dasharray:none;stroke-dashoffset:0;stroke-opacity:1"/>
  </g>
</svg>