<?xml version="1.0" encoding="UTF-8" standalone="no"?>
<!DOCTYPE svg PUBLIC "-//W3C//DTD SVG 1.1//EN" "http://www.w3.org/Graphics/SVG/1.1/DTD/svg11.dtd">
<svg xmlns:svg="http://www.w3.org/2000/svg" xmlns="http://www.w3.org/2000/svg" version="1.1" width="672.15625" height="335.1832" id="svg5484">
  <defs id="defs5486"/>
  <g transform="translate(-72.4933,-296.19915)" id="layer1">
    <path d="m 417.96575,296.19915 c -92.59309,0 -167.66628,75.08628 -167.66628,167.66627 0,13.0031 1.49227,25.61737 4.29455,37.75622 L 72.4933,629.50371 306.42682,471.32123 100.22892,620.67603 329.39071,464.58118 129.27675,611.90809 356.41057,455.7535 157.01237,603.13996 384.14619,445.61359 183.37612,595.02804 407.11009,440.18576 209.73986,586.91612 543.70054,352.9826 C 512.98021,318.17671 468.04013,296.19915 417.96575,296.19915 z M 744.64955,297.8096 511.25285,453.24834 716.25782,306.81622 483.75582,462.73214 686.9714,316.24037 459.83758,469.53183 658.57967,325.30663 436.87368,475.79472 631.55981,333.83608 405.32069,487.9626 608.11874,340.63578 284.47691,565.56268 c 27.14545,35.40825 68.24415,60.10991 116.13171,64.95512 61.82038,6.25915 119.17673,-21.94858 153.05288,-69.01108 L 512.86331,541.4655 c -25.2729,30.91673 -65.07917,48.99658 -107.7812,44.67531 -17.74341,-1.80715 -33.83811,-7.10719 -48.3733,-15.44854 L 744.64955,297.8096 z m -326.6838,43.00512 c 17.84815,0 34.79526,3.7947 50.10304,10.61707 L 295.21328,472.63345 c -0.20952,-2.89395 -0.29823,-5.82171 -0.29823,-8.76803 0,-67.94874 55.10195,-123.0507 123.0507,-123.0507 z" id="path1754" style="fill:#003571;fill-opacity:1;fill-rule:nonzero;stroke:none"/>
  </g>
</svg>
