
<svg width="272px" height="275px" viewBox="0 0 272 275" version="1.1" xmlns="http://www.w3.org/2000/svg" xmlns:xlink="http://www.w3.org/1999/xlink">
    <g id="WHV" stroke="none" stroke-width="1" fill="none" fill-rule="evenodd">
        <g id="Artboard" fill="#283569">
            <path d="M54.545,253.399 L46.137,253.399 L46.137,274.953 L54.545,274.953 C60.488,274.953 64.768,270.15 64.768,264.177 C64.768,258.202 60.488,253.399 54.545,253.399 L54.545,253.399 Z M54.545,272.242 L49.002,272.242 L49.002,256.11 L54.545,256.11 C58.979,256.11 62.026,259.618 62.026,264.177 C62.026,268.734 58.979,272.242 54.545,272.242 L54.545,272.242 Z M79.931,275.353 C86.182,275.353 91.107,270.365 91.107,264.177 C91.107,257.955 86.182,252.999 79.931,252.999 C73.68,252.999 68.785,257.955 68.785,264.177 C68.785,270.365 73.68,275.353 79.931,275.353 L79.931,275.353 Z M79.931,272.553 C75.221,272.553 71.617,268.887 71.617,264.177 C71.617,259.436 75.221,255.77 79.931,255.77 C84.641,255.77 88.246,259.436 88.246,264.177 C88.246,268.887 84.641,272.553 79.931,272.553 L79.931,272.553 Z M109.088,274.953 L112.257,274.953 L107.178,266.331 C109.764,265.408 111.642,262.915 111.642,260.08 C111.642,256.385 108.624,253.399 104.929,253.399 L96.308,253.399 L96.308,274.953 L99.172,274.953 L99.172,266.702 L104.253,266.702 L109.088,274.953 Z M99.172,256.078 L104.929,256.078 C107.054,256.078 108.777,257.863 108.777,260.08 C108.777,262.297 107.054,264.114 104.929,264.114 L99.172,264.114 L99.172,256.078 Z M130.412,253.399 L114.863,253.399 L114.863,256.11 L121.207,256.11 L121.207,274.953 L124.039,274.953 L124.039,256.11 L130.412,256.11 L130.412,253.399 Z M154.835,253.399 L151.603,253.399 L144.765,264.793 L137.899,253.399 L134.666,253.399 L134.666,274.953 L137.531,274.953 L137.531,258.141 L144.583,269.842 L144.951,269.842 L152.003,258.109 L152.003,274.953 L154.835,274.953 L154.835,253.399 Z M169.218,275.353 C173.928,275.353 177.285,272.399 177.285,267.718 L177.285,253.399 L174.45,253.399 L174.45,267.593 C174.45,270.582 172.665,272.553 169.218,272.553 C165.767,272.553 163.983,270.582 163.983,267.593 L163.983,253.399 L161.118,253.399 L161.118,267.718 C161.118,272.399 164.505,275.353 169.218,275.353 L169.218,275.353 Z M196.961,253.399 L196.961,269.474 L185.878,253.399 L183.568,253.399 L183.568,274.953 L186.432,274.953 L186.432,258.849 L197.515,274.953 L199.825,274.953 L199.825,253.399 L196.961,253.399 Z M214.678,253.399 L206.274,253.399 L206.274,274.953 L214.678,274.953 C220.621,274.953 224.902,270.15 224.902,264.177 C224.902,258.202 220.621,253.399 214.678,253.399 L214.678,253.399 Z M214.678,272.242 L209.138,272.242 L209.138,256.11 L214.678,256.11 C219.112,256.11 222.162,259.618 222.162,264.177 C222.162,268.734 219.112,272.242 214.678,272.242 L214.678,272.242 Z" id="Dortmund"></path>
            <path d="M7.778,230.665 L7.778,224.591 L20.025,224.591 L20.025,217.145 L7.778,217.145 L7.778,211.463 L21.249,211.463 L21.249,203.92 L-0.06,203.92 L-0.06,238.21 L21.493,238.21 L21.493,230.665 L7.778,230.665 Z M29.297,238.21 L37.135,238.21 L37.135,203.92 L29.297,203.92 L29.297,238.21 Z M64.989,203.92 L64.989,222.534 L51.761,203.92 L45.885,203.92 L45.885,238.21 L53.72,238.21 L53.72,219.594 L66.947,238.21 L72.827,238.21 L72.827,203.92 L64.989,203.92 Z M103.832,203.92 L78.361,203.92 L78.361,211.463 L87.178,211.463 L87.178,238.21 L95.016,238.21 L95.016,211.463 L103.832,211.463 L103.832,203.92 Z M127.37,238.21 L135.795,238.21 L128.496,225.619 C132.269,223.709 134.817,219.887 134.817,215.676 C134.817,209.161 129.576,203.92 123.061,203.92 L109.343,203.92 L109.343,238.21 L117.181,238.21 L117.181,226.942 L120.905,226.942 L127.37,238.21 Z M117.181,211.268 L123.061,211.268 C125.214,211.268 126.979,213.178 126.979,215.676 C126.979,218.175 125.214,220.084 123.061,220.084 L117.181,220.084 L117.181,211.268 Z M164.731,238.21 L173.303,238.21 L161.646,203.92 L151.652,203.92 L139.994,238.21 L148.567,238.21 L150.279,232.821 L163.016,232.821 L164.731,238.21 Z M152.632,225.474 L156.649,212.885 L160.665,225.474 L152.632,225.474 Z M193.824,238.895 C200.092,238.895 205.58,235.808 208.519,230.958 L201.758,227.041 C200.289,229.684 197.3,231.254 193.824,231.254 C187.75,231.254 183.829,227.189 183.829,221.065 C183.829,214.942 187.75,210.876 193.824,210.876 C197.3,210.876 200.24,212.443 201.758,215.087 L208.519,211.169 C205.53,206.32 200.043,203.232 193.824,203.232 C183.487,203.232 175.991,210.972 175.991,221.065 C175.991,231.156 183.487,238.895 193.824,238.895 L193.824,238.895 Z M233.564,203.92 L233.564,217.046 L222.789,217.046 L222.789,203.92 L214.95,203.92 L214.95,238.21 L222.789,238.21 L222.789,224.591 L233.564,224.591 L233.564,238.21 L241.402,238.21 L241.402,203.92 L233.564,203.92 Z M272.41,203.92 L246.936,203.92 L246.936,211.463 L255.753,211.463 L255.753,238.21 L263.591,238.21 L263.591,211.463 L272.41,211.463 L272.41,203.92 L272.41,203.92 Z" id="Eintracht"></path>
            <path d="M113.495,154.002 L88.021,154.002 L88.021,161.547 L96.841,161.547 L96.841,188.292 L104.679,188.292 L104.679,161.547 L113.495,161.547 L113.495,154.002 Z M131.131,188.977 C138.574,188.977 143.865,185.059 143.865,178.446 C143.865,171.197 138.038,169.383 132.843,167.816 C127.503,166.199 126.67,165.123 126.67,163.556 C126.67,162.183 127.895,160.958 130.344,160.958 C133.481,160.958 135.098,162.476 136.273,164.925 L142.887,161.057 C140.388,156.01 135.98,153.317 130.344,153.317 C124.418,153.317 118.835,157.136 118.835,163.75 C118.835,170.314 123.829,172.764 128.925,174.186 C134.068,175.605 136.029,176.438 136.029,178.544 C136.029,179.868 135.098,181.336 131.375,181.336 C127.503,181.336 125.399,179.427 124.175,176.586 L117.413,180.503 C119.323,185.55 123.928,188.977 131.131,188.977 L131.131,188.977 Z M166.448,188.977 C172.717,188.977 178.204,185.892 181.144,181.043 L174.382,177.122 C172.914,179.769 169.925,181.336 166.448,181.336 C160.374,181.336 156.454,177.27 156.454,171.147 C156.454,165.024 160.374,160.958 166.448,160.958 C169.925,160.958 172.865,162.525 174.382,165.172 L181.144,161.251 C178.155,156.402 172.667,153.317 166.448,153.317 C156.111,153.317 148.615,161.057 148.615,171.147 C148.615,181.238 156.111,188.977 166.448,188.977 L166.448,188.977 Z" id="TSC"></path>
            <path d="M116.457,103.276 C121.924,106.413 127.981,108.401 134.659,109.077 C150.724,110.705 165.704,103.912 175.208,92.278 L190.563,99.829 C177.817,117.534 156.229,128.132 132.967,125.779 C114.948,123.953 99.495,114.658 89.283,101.335 L211.054,16.703 L134.751,72.149 L219.873,14.158 L146.621,67.57 L230.045,10.937 L155.266,65.199 L240.727,7.548 L164.256,62.657 L251.749,3.987 L174.599,59.096 L262.431,0.594 L116.457,103.276" id="e-unten"></path>
            <path d="M61.159,109.371 L135.427,54.178 L51.24,112.424 L126.779,56.212 L41.321,115.477 L116.352,60.025 L30.894,118.782 L106.178,63.337 L19.956,122.088 L97.533,65.879 L9.526,125.393 L78.028,77.298 C76.975,72.73 76.421,67.971 76.421,63.078 C76.421,28.242 104.66,0 139.499,0 C158.342,0 175.252,8.262 186.81,21.362 L61.159,109.371 Z M158.35,20.787 C152.59,18.216 146.211,16.785 139.499,16.785 C113.932,16.785 93.206,37.512 93.206,63.078 C93.206,64.187 93.244,65.287 93.322,66.378 L158.35,20.787 L158.35,20.787 Z" id="e-oben"></path>
        </g>
    </g>
</svg>