<?xml version="1.0" encoding="utf-8"?>
<!-- Generator: Adobe Illustrator 24.3.0, SVG Export Plug-In . SVG Version: 6.00 Build 0)  -->
<svg version="1.1" id="Ebene_1" xmlns="http://www.w3.org/2000/svg" xmlns:xlink="http://www.w3.org/1999/xlink" x="0px" y="0px"
	 viewBox="0 0 419.53 419.53" style="enable-background:new 0 0 419.53 419.53;" xml:space="preserve">
<style type="text/css">
	.st0{clip-path:url(#SVGID_2_);fill:#FFFFFF;}
	.st1{clip-path:url(#SVGID_2_);fill:none;stroke:#000000;stroke-width:0.903;stroke-linejoin:round;stroke-miterlimit:2.613;}
	.st2{clip-path:url(#SVGID_2_);}
	.st3{fill:#FFFFFF;}
	.st4{clip-path:url(#SVGID_4_);fill:#FFFFFF;}
	.st5{clip-path:url(#SVGID_6_);fill:#FFFFFF;}
	.st6{clip-path:url(#SVGID_8_);fill:#FFFFFF;}
</style>
<g>
	<defs>
		<rect id="SVGID_1_" width="419.53" height="419.53"/>
	</defs>
	<clipPath id="SVGID_2_">
		<use xlink:href="#SVGID_1_"  style="overflow:visible;"/>
	</clipPath>
	<path class="st0" d="M28.96,209.94c0-99.94,81.02-180.97,180.97-180.97c99.94,0,180.97,81.02,180.97,180.97
		S309.87,390.9,209.93,390.9C109.99,390.9,28.96,309.88,28.96,209.94"/>
	<circle class="st1" cx="209.93" cy="209.94" r="180.97"/>
	<path class="st2" d="M46.11,210.39c0-90.73,73.54-164.27,164.27-164.27c90.73,0,164.27,73.54,164.27,164.27
		s-73.54,164.27-164.27,164.27C119.66,374.66,46.11,301.12,46.11,210.39"/>
	<path class="st0" d="M93.5,209.94c0-64.31,52.12-116.43,116.43-116.43s116.43,52.12,116.43,116.43
		c0,64.31-52.12,116.43-116.43,116.43S93.5,274.25,93.5,209.94"/>
	<path class="st2" d="M98.01,209.94c0-61.81,50.11-111.92,111.92-111.92s111.92,50.11,111.92,111.92
		c0,61.81-50.11,111.92-111.92,111.92S98.01,271.75,98.01,209.94"/>
	<path class="st0" d="M107.94,209.94c0,56.33,45.66,101.99,101.99,101.99c10.69,0,21-1.64,30.69-4.69v-25.98
		c-9.41,4.05-19.78,6.3-30.69,6.3c-42.87,0-77.62-34.75-77.62-77.62c0-29.47,16.42-55.1,40.61-68.25c0.58,0.96,0.91,2.08,0.91,3.27
		c0,1.23-0.34,2.37-0.95,3.34c-1.07,0.52-1.98,1.35-2.61,2.35c-0.58,0.28-1.2,0.48-1.86,0.57v0.06h1.51
		c-0.39,0.82-0.61,1.74-0.61,2.71c0,3.49,2.83,6.32,6.32,6.32c3.49,0,6.32-2.83,6.32-6.32c0-0.62-0.09-1.24-0.26-1.81h0.26v-14.66
		v-7.91v-17.78C139.22,124,107.94,163.31,107.94,209.94 M283.03,183.76h-68.59v-18.95v-25.13v-7.23
		C246.16,134.27,272.78,155.13,283.03,183.76 M214.44,209.04h17.37l38.51,83.1c7.16-5.26,13.59-11.45,19.15-18.36l-30.4-64.74h28.47
		h3.62h20.75c-0.48-55.91-45.95-101.09-101.98-101.09c-7.11,0-14.05,0.72-20.76,2.11v0.6v24.47v7.53v22.16v112.42
		c6.56,2.03,13.53,3.11,20.76,3.11c1.52,0,3.02-0.05,4.51-0.14V209.04z"/>
	<path class="st0" d="M139.72,342.84l2.86,1.34c2.58,1.2,4.46,1.9,5.63,2.11c1.16,0.21,2.45,0.18,3.85-0.08
		c1.08-0.54,2.22-1.41,3.42-2.6c1.19-1.19,2.22-2.71,3.08-4.55c0.89-1.89,1.39-3.65,1.53-5.33c0.13-1.66-0.02-3.11-0.44-4.34
		c-0.62-1.2-1.42-2.2-2.4-3.01c-0.98-0.81-2.91-1.89-5.78-3.22l-0.43-0.2l-1.7-0.79L139.72,342.84z M135.45,344.09l12.09-25.91
		l4.3,2.01c3.53,1.64,5.97,3,7.32,4.05c1.35,1.07,2.36,2.28,3.05,3.65c0.92,1.84,1.34,3.84,1.25,5.99
		c-0.08,2.15-0.66,4.38-1.73,6.68c-1.08,2.31-2.42,4.2-4.02,5.66c-1.61,1.46-3.39,2.41-5.33,2.84c-1.54,0.34-3.12,0.36-4.72,0.06
		c-1.6-0.31-3.98-1.19-7.13-2.66l-0.78-0.36L135.45,344.09z"/>
	<path class="st0" d="M170.02,339.56l-2.28,8.49c-0.65,2.42-0.78,4.18-0.38,5.29c0.4,1.1,1.37,1.86,2.91,2.27
		c1.53,0.42,2.75,0.23,3.67-0.54c0.92-0.77,1.71-2.35,2.35-4.73l2.27-8.49l2.99,0.79l-2.58,9.66c-0.7,2.64-1.86,4.48-3.47,5.53
		c-1.61,1.06-3.6,1.26-5.96,0.63c-2.38-0.64-4.02-1.82-4.89-3.54c-0.88-1.71-0.96-3.89-0.25-6.53l2.58-9.65L170.02,339.56z"/>
	<path class="st0" d="M188.04,337.44c0.09-0.58,0.38-1.04,0.86-1.39c0.49-0.35,1.03-0.48,1.63-0.39c0.59,0.1,1.07,0.39,1.44,0.88
		c0.36,0.49,0.49,1.02,0.4,1.59c-0.09,0.61-0.39,1.09-0.87,1.43c-0.49,0.35-1.03,0.48-1.65,0.38c-0.6-0.1-1.08-0.39-1.44-0.87
		C188.07,338.59,187.94,338.05,188.04,337.44 M184.87,361.09l2.75-17.41l3.17,0.51l-2.75,17.41L184.87,361.09z"/>
	<path class="st0" d="M194.11,358.93l2.94-1.32c0.38,1.08,0.87,1.86,1.46,2.33c0.6,0.47,1.36,0.73,2.29,0.8
		c0.88,0.06,1.6-0.11,2.13-0.51c0.53-0.4,0.82-0.96,0.88-1.7c0.08-1.1-0.92-2.15-2.99-3.13c-0.23-0.1-0.42-0.2-0.61-0.29
		c-1.75-0.84-2.98-1.68-3.68-2.53c-0.7-0.86-1.01-1.89-0.93-3.09c0.11-1.54,0.74-2.75,1.9-3.67c1.16-0.92,2.6-1.32,4.32-1.19
		c1.44,0.1,2.66,0.51,3.65,1.22c0.98,0.7,1.68,1.77,2.07,3.17l-2.86,1.23c-0.28-0.92-0.68-1.58-1.21-1.99
		c-0.52-0.41-1.2-0.64-2.01-0.7c-0.7-0.04-1.3,0.12-1.77,0.49c-0.48,0.37-0.73,0.85-0.78,1.44c-0.04,0.61,0.15,1.12,0.59,1.56
		c0.43,0.43,1.46,0.99,3.08,1.66c1.81,0.78,3.01,1.59,3.66,2.46c0.63,0.86,0.9,2.01,0.8,3.43c-0.12,1.67-0.8,2.96-2.06,3.87
		c-1.25,0.9-2.87,1.29-4.83,1.15c-1.53-0.11-2.81-0.54-3.85-1.31C195.24,361.56,194.51,360.42,194.11,358.93"/>
	<path class="st0" d="M226.02,353.86c-0.15-2.11-0.74-3.72-1.79-4.83c-1.04-1.11-2.37-1.62-3.99-1.5c-1.63,0.12-2.88,0.75-3.73,1.92
		c-0.85,1.16-1.2,2.74-1.06,4.7c0.15,2.18,0.75,3.85,1.78,4.99c1.04,1.14,2.37,1.64,4.01,1.53c1.67-0.12,2.92-0.76,3.75-1.91
		C225.83,357.62,226.17,355.98,226.02,353.86 M216.12,363.23l-3.13,0.22l-2.1-30.15l3.13-0.22l1.08,15.58
		c0.02-1.11,0.55-2.04,1.61-2.78c1.05-0.75,2.33-1.17,3.84-1.27c2.43-0.17,4.46,0.58,6.11,2.26c1.65,1.68,2.57,3.91,2.76,6.68
		c0.2,2.83-0.42,5.16-1.84,7.01c-1.43,1.85-3.4,2.86-5.93,3.04c-1.43,0.1-2.71-0.15-3.83-0.77c-1.11-0.61-1.74-1.51-1.9-2.66
		L216.12,363.23z"/>
	<path class="st0" d="M235.8,343.3l1.83,8.6c0.51,2.46,1.21,4.08,2.07,4.88c0.85,0.81,2.07,1.05,3.63,0.71
		c1.54-0.33,2.55-1.05,3.02-2.15c0.48-1.11,0.45-2.87-0.06-5.29l-1.82-8.6l3.03-0.64l2.08,9.77c0.57,2.67,0.37,4.84-0.58,6.51
		c-0.96,1.67-2.64,2.75-5.03,3.27c-2.42,0.52-4.4,0.2-5.97-0.93c-1.56-1.14-2.63-3.03-3.2-5.7l-2.08-9.78L235.8,343.3z"/>
	<path class="st0" d="M256.49,341.26c-0.13-1.39,0.12-2.55,0.71-3.48c0.6-0.93,1.45-1.61,2.56-2.04c0.32-0.12,0.67-0.22,1.04-0.28
		c0.37-0.06,0.83-0.1,1.38-0.09l0.15,2.94l-1.12,0.22c-0.24,0.05-0.46,0.11-0.68,0.19c-1.18,0.46-1.99,1.43-2.42,2.91
		c-0.42,1.48-0.3,3.1,0.37,4.85l3.12,8.12l-2.93,1.12l-6.32-16.45l2.93-1.13L256.49,341.26z"/>
	<path class="st0" d="M278.54,327.79l6.28,12.87c0.97,1.99,1.66,3.55,2.08,4.69c0.42,1.15,0.63,2.05,0.63,2.73
		c0.03,1.47-0.39,2.78-1.25,3.92c-0.86,1.14-2.14,2.13-3.85,2.96c-2.09,1.02-3.94,1.41-5.53,1.16c-1.61-0.25-3-1.28-4.2-3.09
		l3.29-1.61c0.68,0.93,1.46,1.44,2.32,1.56c0.86,0.11,1.88-0.12,3.04-0.69c0.88-0.43,1.59-0.97,2.12-1.61
		c0.54-0.63,0.86-1.38,0.96-2.25c0.04-0.29-0.01-0.69-0.13-1.21c-0.13-0.51-0.43-1.28-0.92-2.29l-0.4-0.8l-0.94-1.91
		c0.45,1.02,0.32,2.11-0.38,3.27c-0.7,1.15-1.71,2.05-3.02,2.68c-2.25,1.1-4.41,1.19-6.51,0.29c-2.09-0.91-3.77-2.66-5.04-5.25
		c-1.24-2.55-1.56-4.94-0.97-7.18c0.6-2.24,2.02-3.9,4.28-5c1.26-0.62,2.58-0.85,3.94-0.7c1.35,0.15,2.26,0.7,2.69,1.62l-1.36-2.8
		L278.54,327.79z M271.94,333.53c-1.45,0.71-2.35,1.8-2.68,3.26c-0.33,1.45-0.04,3.12,0.88,5.01c0.92,1.89,2.03,3.15,3.33,3.77
		c1.29,0.62,2.64,0.6,4.05-0.09c1.5-0.73,2.44-1.86,2.83-3.38c0.38-1.53,0.12-3.23-0.8-5.12c-0.89-1.82-2.01-3.04-3.35-3.64
		C274.84,332.74,273.43,332.81,271.94,333.53"/>
	<path class="st0" d="M76.58,151.4c-1.58,1.16-2.81,2.27-3.7,3.3c-0.89,1.05-1.56,2.23-2.02,3.55c-1.03,3-0.92,5.76,0.33,8.27
		c1.25,2.52,3.41,4.3,6.47,5.36c1.55,0.53,3.02,0.79,4.41,0.75c1.39-0.04,2.62-0.23,3.69-0.56c1.44-0.88,2.61-1.83,3.5-2.86
		c0.89-1.02,1.58-2.21,2.05-3.58c0.45-1.33,0.68-2.71,0.66-4.12c-0.02-1.43-0.24-3.06-0.69-4.9l3.07,1.06
		c0.35,1.6,0.5,3.12,0.43,4.6c-0.06,1.47-0.32,2.87-0.78,4.2c-0.61,1.78-1.52,3.37-2.72,4.77c-1.19,1.41-2.56,2.49-4.12,3.26
		c-1.6,0.79-3.29,1.22-5.06,1.29c-1.79,0.07-3.61-0.21-5.48-0.85c-1.82-0.63-3.42-1.53-4.78-2.71c-1.37-1.17-2.43-2.55-3.18-4.15
		c-0.73-1.54-1.14-3.23-1.22-5.08c-0.07-1.85,0.19-3.65,0.79-5.41c0.53-1.55,1.25-2.93,2.15-4.12c0.89-1.2,2.01-2.23,3.34-3.09
		L76.58,151.4z"/>
</g>
<rect x="86.57" y="131.06" transform="matrix(0.4694 -0.883 0.883 0.4694 -81.1417 154.5651)" class="st3" width="2.92" height="27.47"/>
<g>
	<defs>
		<rect id="SVGID_3_" width="419.53" height="419.53"/>
	</defs>
	<clipPath id="SVGID_4_">
		<use xlink:href="#SVGID_3_"  style="overflow:visible;"/>
	</clipPath>
	<path class="st4" d="M92.82,132.2l6.55,4.59c1.87,1.3,3.33,1.96,4.4,1.96c1.07,0.01,2.02-0.59,2.86-1.78
		c0.82-1.18,1.05-2.28,0.68-3.3c-0.37-1.03-1.47-2.18-3.31-3.48l-6.55-4.58l1.62-2.31l7.45,5.22c2.03,1.42,3.24,2.98,3.65,4.67
		c0.4,1.71-0.05,3.47-1.32,5.3c-1.29,1.83-2.8,2.86-4.54,3.08c-1.74,0.22-3.63-0.39-5.66-1.81l-7.45-5.22L92.82,132.2z"/>
	<path class="st4" d="M120.17,112.61c-1.34-1.38-2.69-2.16-4.06-2.33c-1.37-0.16-2.59,0.26-3.65,1.3c-1.07,1.03-1.56,2.2-1.47,3.51
		c0.09,1.31,0.76,2.61,2,3.9c1.39,1.43,2.77,2.25,4.16,2.43c1.38,0.19,2.61-0.24,3.68-1.27c1.1-1.06,1.6-2.23,1.5-3.52
		C122.23,115.34,121.51,114,120.17,112.61 M118.75,124.92l-2.05,1.99l-19.09-19.77l2.06-1.98l9.86,10.21
		c-0.64-0.78-0.81-1.73-0.51-2.87c0.3-1.13,0.94-2.18,1.93-3.13c1.59-1.53,3.45-2.2,5.58-1.99c2.13,0.21,4.07,1.22,5.82,3.04
		c1.79,1.84,2.73,3.84,2.82,5.96c0.09,2.12-0.69,3.98-2.36,5.59c-0.94,0.9-1.98,1.47-3.11,1.69c-1.14,0.23-2.1-0.02-2.9-0.73
		L118.75,124.92z"/>
	<path class="st4" d="M133.53,83.35l4.33,7.5l1.69-0.97c1.77-1.02,2.83-1.99,3.19-2.92c0.35-0.92,0.14-2.06-0.63-3.4
		c-0.81-1.41-1.73-2.2-2.76-2.39c-1.03-0.18-2.4,0.23-4.12,1.22L133.53,83.35z M156.47,96.99l-2.9,1.67l-13.71-6l-0.72,0.41
		l6.03,10.44l-2.63,1.52l-13-22.51l4.34-2.51c2.45-1.42,4.6-1.96,6.44-1.63c1.85,0.32,3.38,1.52,4.58,3.61
		c1.03,1.8,1.31,3.53,0.84,5.18c-0.48,1.66-1.53,2.97-3.19,3.92L156.47,96.99z"/>
	<path class="st4" d="M158.9,87.72c0.71,1.79,1.65,2.98,2.8,3.6c1.14,0.61,2.43,0.63,3.85,0.05c1.38-0.56,2.26-1.51,2.66-2.85
		c0.39-1.35,0.22-2.94-0.53-4.78c-0.67-1.66-1.59-2.8-2.76-3.4c-1.17-0.61-2.45-0.64-3.83-0.09c-1.37,0.56-2.26,1.5-2.67,2.82
		C158.01,84.38,158.18,85.93,158.9,87.72 M170.75,91.42l-1.05-2.59c0.33,1,0.15,1.99-0.51,2.93c-0.67,0.96-1.62,1.68-2.84,2.17
		c-2.15,0.87-4.16,0.83-6.07-0.11c-1.9-0.95-3.33-2.61-4.3-5c-0.95-2.35-1.08-4.53-0.41-6.56c0.68-2.02,2.04-3.45,4.1-4.28
		c1.26-0.51,2.48-0.68,3.66-0.5c1.16,0.19,1.98,0.73,2.44,1.62l-1.03-2.55l2.64-1.07l6,14.86L170.75,91.42z"/>
	<path class="st4" d="M180.94,88.68l-2.81-13.24l-2.8,0.6l-0.51-2.44l2.79-0.6l-0.85-4.02c-0.66-3.06-0.79-5.15-0.38-6.26
		c0.41-1.1,1.43-1.83,3.05-2.18c0.38-0.08,0.76-0.13,1.15-0.14c0.38-0.01,0.82,0.03,1.32,0.12l0.01,2.46l-1.19-0.08
		c-0.24-0.01-0.45,0-0.63,0.04c-0.59,0.13-0.96,0.46-1.11,1c-0.15,0.55-0.07,1.57,0.25,3.08l1.14,5.38l3.29-0.7l0.52,2.44l-3.29,0.7
		l2.82,13.24L180.94,88.68z"/>
	<path class="st4" d="M191.94,86.6l-1.89-13.41l-2.83,0.4l-0.34-2.46l2.82-0.4l-0.57-4.07c-0.43-3.1-0.41-5.2,0.06-6.27
		c0.48-1.07,1.54-1.72,3.19-1.96c0.39-0.05,0.77-0.07,1.15-0.05c0.39,0.02,0.82,0.09,1.32,0.22l-0.17,2.45l-1.18-0.16
		c-0.23-0.03-0.44-0.03-0.63,0c-0.59,0.08-0.98,0.39-1.18,0.92c-0.19,0.54-0.17,1.57,0.04,3.09l0.76,5.45l3.34-0.47l0.34,2.46
		l-3.33,0.47l1.88,13.4L191.94,86.6z"/>
	<path class="st4" d="M213.03,75.11c-0.12-1.08-0.56-1.97-1.33-2.67c-0.77-0.7-1.81-1.03-3.13-1.01c-1.19,0.03-2.18,0.42-2.97,1.17
		c-0.79,0.76-1.24,1.65-1.35,2.66L213.03,75.11z M216.33,77.54l-12.17,0.22c0.08,1.68,0.57,3.03,1.45,4.09
		c0.89,1.05,2.07,1.55,3.51,1.53c1.04-0.02,1.96-0.32,2.73-0.9c0.78-0.59,1.48-1.56,2.1-2.93l2.52,1.28
		c-0.8,1.82-1.8,3.13-2.98,3.93c-1.17,0.79-2.63,1.2-4.34,1.23c-2.36,0.04-4.27-0.71-5.75-2.27c-1.48-1.54-2.25-3.59-2.29-6.15
		c-0.04-2.59,0.64-4.7,2.05-6.35c1.42-1.64,3.29-2.49,5.62-2.53c2.23-0.04,4.03,0.68,5.4,2.15c1.37,1.48,2.08,3.44,2.12,5.89
		L216.33,77.54z"/>
</g>
<polygon class="st3" points="225.37,86.22 222.47,85.87 225.81,58.59 228.72,58.96 "/>
<g>
	<defs>
		<rect id="SVGID_5_" width="419.53" height="419.53"/>
	</defs>
	<clipPath id="SVGID_6_">
		<use xlink:href="#SVGID_5_"  style="overflow:visible;"/>
	</clipPath>
	<path class="st5" d="M246.42,82.4c0.46-1.87,0.4-3.43-0.18-4.68c-0.59-1.24-1.6-2.06-3.04-2.41c-1.45-0.36-2.7-0.16-3.76,0.61
		c-1.07,0.77-1.82,2.02-2.25,3.76c-0.48,1.93-0.43,3.54,0.15,4.81c0.57,1.28,1.58,2.09,3.03,2.45c1.47,0.37,2.74,0.17,3.78-0.6
		C245.19,85.58,245.95,84.26,246.42,82.4 M235.23,87.71l-2.76-0.69l6.64-26.65l2.77,0.69l-3.44,13.78c0.32-0.96,1.05-1.61,2.17-1.96
		c1.12-0.34,2.34-0.35,3.67-0.02c2.15,0.53,3.7,1.76,4.65,3.67c0.96,1.91,1.13,4.1,0.51,6.54c-0.62,2.5-1.8,4.35-3.56,5.54
		c-1.75,1.2-3.75,1.52-5.99,0.96c-1.26-0.32-2.29-0.89-3.09-1.74c-0.78-0.84-1.09-1.79-0.9-2.83L235.23,87.71z"/>
	<path class="st5" d="M266.92,87.71c0.35-1.03,0.33-2.02-0.08-2.98c-0.41-0.96-1.21-1.71-2.41-2.24c-1.09-0.49-2.16-0.55-3.2-0.2
		c-1.03,0.36-1.81,0.98-2.34,1.84L266.92,87.71z M268.87,91.31l-11.11-4.95c-0.64,1.55-0.78,3-0.41,4.32
		c0.36,1.33,1.21,2.28,2.53,2.87c0.96,0.42,1.91,0.53,2.86,0.33c0.96-0.2,2.01-0.79,3.15-1.77l1.74,2.23
		c-1.5,1.31-2.95,2.07-4.36,2.29c-1.4,0.23-2.89-0.02-4.45-0.71c-2.16-0.96-3.57-2.46-4.26-4.49c-0.69-2.03-0.51-4.21,0.52-6.53
		c1.06-2.38,2.56-4,4.54-4.89c1.98-0.89,4.03-0.87,6.17,0.08c2.03,0.91,3.36,2.32,3.98,4.23c0.62,1.91,0.43,3.99-0.57,6.23
		L268.87,91.31z"/>
	<path class="st5" d="M280.54,91.61c0.96-0.83,1.93-1.27,2.93-1.34c1.01-0.05,1.97,0.21,2.87,0.8c0.26,0.16,0.51,0.37,0.77,0.61
		c0.24,0.24,0.52,0.57,0.8,0.97l-2.09,1.7l-0.76-0.71c-0.16-0.15-0.32-0.28-0.5-0.4c-0.97-0.62-2.12-0.7-3.44-0.23
		c-1.32,0.49-2.44,1.43-3.37,2.87l-4.3,6.63l-2.39-1.55l8.73-13.45l2.39,1.55L280.54,91.61z"/>
	<path class="st5" d="M303.23,104.23l-8.02,10.25c-1.24,1.59-2.24,2.78-3,3.57c-0.77,0.8-1.43,1.34-1.98,1.6
		c-1.19,0.61-2.43,0.79-3.7,0.55c-1.28-0.25-2.6-0.9-3.96-1.97c-1.67-1.31-2.72-2.66-3.15-4.06c-0.44-1.41-0.15-2.96,0.85-4.66
		l2.63,2.05c-0.49,0.93-0.61,1.77-0.35,2.52c0.25,0.75,0.84,1.49,1.77,2.21c0.7,0.55,1.42,0.91,2.16,1.1
		c0.73,0.18,1.47,0.14,2.22-0.12c0.25-0.08,0.56-0.27,0.94-0.59c0.37-0.31,0.88-0.87,1.5-1.67l0.51-0.64l1.19-1.52
		c-0.66,0.78-1.61,1.1-2.83,0.99c-1.22-0.12-2.36-0.59-3.39-1.4c-1.79-1.4-2.73-3.13-2.83-5.21c-0.09-2.07,0.67-4.13,2.28-6.2
		c1.59-2.03,3.41-3.25,5.47-3.66c2.07-0.41,4,0.09,5.79,1.5c1.01,0.79,1.72,1.77,2.14,2.94c0.42,1.17,0.33,2.12-0.25,2.85l1.74-2.23
		L303.23,104.23z M295.9,101.12c-1.16-0.9-2.4-1.21-3.73-0.89c-1.33,0.31-2.57,1.22-3.75,2.72c-1.17,1.51-1.76,2.91-1.76,4.22
		c0.01,1.31,0.57,2.39,1.69,3.27c1.2,0.94,2.49,1.25,3.9,0.97c1.4-0.3,2.69-1.2,3.86-2.7c1.13-1.45,1.68-2.85,1.63-4.19
		C297.71,103.17,297.08,102.05,295.9,101.12"/>
	<path class="st5" d="M321.17,133.62c0.82-0.71,1.29-1.59,1.43-2.63c0.13-1.03-0.2-2.08-0.97-3.14c-0.7-0.97-1.59-1.55-2.66-1.76
		c-1.07-0.22-2.06-0.07-2.95,0.42L321.17,133.62z M321.07,137.71l-7.16-9.84c-1.33,1.02-2.16,2.2-2.51,3.54
		c-0.34,1.33-0.09,2.57,0.76,3.75c0.62,0.85,1.38,1.42,2.31,1.72c0.93,0.3,2.13,0.32,3.61,0.05l0.4,2.8
		c-1.96,0.38-3.6,0.32-4.92-0.19c-1.33-0.51-2.5-1.46-3.51-2.85c-1.38-1.9-1.86-3.91-1.44-6.01c0.42-2.1,1.67-3.91,3.73-5.4
		c2.1-1.53,4.22-2.18,6.38-1.97c2.15,0.22,3.92,1.26,5.29,3.16c1.31,1.8,1.75,3.68,1.34,5.65c-0.43,1.97-1.62,3.67-3.61,5.11
		L321.07,137.71z"/>
	<path class="st5" d="M319.68,146.86c0.51-0.28,1.04-0.34,1.59-0.19c0.56,0.16,0.99,0.51,1.27,1.04c0.29,0.52,0.36,1.06,0.2,1.62
		c-0.16,0.55-0.49,0.98-0.99,1.26c-0.52,0.29-1.07,0.35-1.62,0.19c-0.56-0.15-0.98-0.5-1.27-1.02c-0.3-0.53-0.36-1.07-0.2-1.62
		C318.81,147.57,319.15,147.15,319.68,146.86"/>
</g>
<polygon class="st3" points="325.32,165.08 346.82,145.83 348,148.89 331.31,162.83 353.17,162.38 354.3,165.31 "/>
<g>
	<defs>
		<rect id="SVGID_7_" width="419.53" height="419.53"/>
	</defs>
	<clipPath id="SVGID_8_">
		<use xlink:href="#SVGID_7_"  style="overflow:visible;"/>
	</clipPath>
	<path class="st6" d="M331.28,173.82c0.57-0.14,1.09-0.08,1.6,0.21c0.5,0.29,0.82,0.72,0.98,1.31c0.15,0.59,0.09,1.13-0.21,1.62
		c-0.29,0.51-0.71,0.83-1.26,0.98c-0.58,0.15-1.12,0.09-1.62-0.2c-0.51-0.29-0.83-0.73-0.98-1.31c-0.16-0.58-0.09-1.12,0.2-1.62
		C330.27,174.3,330.7,173.98,331.28,173.82"/>
</g>
</svg>
