<?xml version="1.0" encoding="utf-8"?><!-- Generator: Adobe Illustrator 16.0.3, SVG Export Plug-In . SVG Version: 6.00 Build 0)  --><!DOCTYPE svg PUBLIC "-//W3C//DTD SVG 1.1//EN" "http://www.w3.org/Graphics/SVG/1.1/DTD/svg11.dtd"><svg version="1.1" id="Ebene_1" xmlns="http://www.w3.org/2000/svg" xmlns:xlink="http://www.w3.org/1999/xlink" x="0px" y="0px"	 width="199.333px" height="153.071px" viewBox="0 0 199.333 153.071" enable-background="new 0 0 199.333 153.071"	 xml:space="preserve"><g>	<g>		<path fill="#1A1A18" d="M125.395,83.562c0,0.029,4.664,2.305,6.035,3.396c1.18,0.938-0.561,2.969-1.705,3.176			c-0.045,0.008,0.395-1.955,0.396-2.006l-3.912-1.738c-0.012,0.012,2.018,2.197,2.803,3.787c0.73,1.49-1.441,2.75-2.225,2.4			c-0.025-0.01,0.76-1.609,0.77-1.59l-3.139-3.84c-0.01,0.02,1.098,2.93,1.008,4.648c-0.086,1.648-2.529,1.727-3.697,1.393			c-0.031-0.01,1.863-1.375,1.875-1.369l-1.76-3.908l-7.139-0.037c0.018,0.047,1.527,1.891,1.514,1.891			c-2.348-0.1-5.084-2.604-2.631-3.555c1.334-0.518,4.281-0.313,4.355-0.334l-13.391-14.048l3.602,16.123H89.392l3.468-16.196			L79.365,85.911c0.074,0.021,3.021-0.188,4.355,0.332c2.452,0.953-0.283,3.457-2.629,3.557c-0.016,0,1.493-1.846,1.512-1.893			l-7.139,0.039l-1.759,3.906c0.011-0.004,1.907,1.361,1.875,1.369c-1.168,0.336-3.614,0.26-3.7-1.391			c-0.089-1.721,1.021-4.627,1.01-4.648l-3.14,3.84c0.01-0.021,0.794,1.578,0.771,1.588c-0.784,0.35-2.958-0.908-2.225-2.396			c0.784-1.59,2.813-3.777,2.802-3.791l-3.914,1.738c0.004,0.053,0.444,2.014,0.396,2.006c-1.142-0.207-2.884-2.236-1.702-3.176			c1.371-1.09,6.036-3.365,6.035-3.396c0,0,2.271-8.964,5.645-21.061c-4.349,4.146-8.139,6.056-12.255,4.104			c-0.042-0.02,2.221-2.806,5.405-6.697c-5.521,3.082-9.782,4.128-13.1,1.417c-0.047-0.038,5.689-4.138,12.497-8.987			c-11.765,5.785-19.781,9.375-23.935,4.692c-0.047-0.053,9.696-5.061,19.453-10.07c-15.047,5.771-25.184,10.102-29.117,4.499			c-0.044-0.063,12.715-5.202,24.085-9.784c-18.164,5.042-30.547,9.77-34.007,3.333c-0.036-0.065,13.411-4.149,25.352-7.776			c-17.61,3.636-29.683,7.01-32.322,0.591c-0.031-0.075,16.782-3.885,29.808-6.845c-20.648,2.526-35.226,6.196-37.321-0.98			c-0.018-0.061,10.688-1.72,21.744-3.428c-15.22-0.199-25.502-0.332-25.765-6.372c-0.002-0.052,7.81-0.075,17.039-0.087			c-9.356-1.057-17.544-2.883-16.778-5.715C8.377,14.3,90.378,5.191,80.48,25.512c0,0-3.384,4.922,2.607,4.925			c0,0,2.477,0.998,4.979-2.633c1.063-3.167,2.132-6.223,3.189-9.085l-2.118-1.002l-0.973-0.052c0.025,0.01-0.793,1.384-0.793,1.384			c-0.322-1.452-0.526-2.097-0.498-3.163c0.014-0.551,0.319-1.218,0.72-1.598c1.154-1.1,2.516-1.694,4.331-1.91			c2.108-0.252,2.41-0.359,4.518-0.124c1.3,0.145,2.49,0.613,3.633,1.101c2.172,0.927,5.241,6.345,8.515,14.008			c2.596,4.151,5.27,3.074,5.27,3.074c5.992-0.003,2.604-4.925,2.604-4.925c-9.896-20.321,72.105-11.212,72.139-11.084			c0.768,2.832-7.42,4.658-16.775,5.715c9.227,0.012,17.039,0.035,17.039,0.087c-0.264,6.041-10.547,6.173-25.766,6.372			c11.055,1.708,21.76,3.367,21.744,3.428c-2.096,7.176-16.672,3.506-37.32,0.98c13.023,2.96,29.838,6.77,29.807,6.845			c-2.641,6.418-14.713,3.045-32.322-0.591c11.939,3.627,25.385,7.71,25.35,7.776c-3.459,6.437-15.842,1.709-34.006-3.333			c11.371,4.582,24.129,9.721,24.086,9.784c-3.934,5.603-14.072,1.272-29.117-4.499c9.756,5.009,19.5,10.018,19.453,10.07			c-4.154,4.683-12.172,1.093-23.936-4.692c6.807,4.849,12.543,8.949,12.498,8.987c-3.318,2.71-7.582,1.664-13.1-1.417			c3.184,3.892,5.445,6.677,5.404,6.697c-3.957,1.876-7.611,0.185-11.75-3.631C123.188,74.846,125.395,83.562,125.395,83.562"/>	</g>	<g>		<path fill="#BF0000" d="M50.516,140.271V97.679h10.545c6.789,0,11.6,1.619,14.432,4.854c2.832,3.236,4.248,8.672,4.248,16.307			c0,8.803-2.009,14.842-6.025,18.115c-2.731,2.211-6.949,3.316-12.654,3.316H50.516z M57.708,102.776v32.396h3.353			c3.825,0,6.532-1.086,8.123-3.26c1.752-2.416,2.628-6.773,2.628-13.074c0-5.615-0.675-9.59-2.023-11.926			c-1.591-2.758-4.5-4.137-8.728-4.137H57.708z"/>		<path fill="#BF0000" d="M109.596,98.175v6.656c-4.629-1.822-8.191-2.734-10.686-2.734c-4.287,0-6.43,1.75-6.43,5.246			c0,2.01,1.76,4.039,5.28,6.088c6.134,3.578,9.392,5.516,9.774,5.816c3.518,2.734,5.279,5.93,5.279,9.586			c0,3.879-1.457,6.893-4.369,9.043c-2.791,2.051-6.569,3.074-11.33,3.074c-2.832,0-6.76-0.602-11.78-1.805v-7.463			c4.519,2.781,8.536,4.17,12.051,4.17c2.592,0,4.539-0.643,5.847-1.928c1.063-1.045,1.596-2.381,1.596-4.01			c0-2.512-1.748-4.883-5.243-7.113c-3.254-1.93-6.518-3.859-9.791-5.787c-3.496-2.592-5.242-5.598-5.242-9.014			c0-3.615,1.426-6.4,4.279-8.35c2.61-1.768,6.057-2.652,10.336-2.652C102.22,96.999,105.697,97.392,109.596,98.175z"/>		<path fill="#BF0000" d="M119.135,140.271V97.679h10.545c6.789,0,11.6,1.619,14.432,4.854c2.832,3.236,4.248,8.672,4.248,16.307			c0,8.803-2.008,14.842-6.025,18.115c-2.73,2.211-6.949,3.316-12.654,3.316H119.135z M126.328,102.776v32.396h3.352			c3.826,0,6.531-1.086,8.123-3.26c1.752-2.416,2.629-6.773,2.629-13.074c0-5.615-0.676-9.59-2.023-11.926			c-1.592-2.758-4.502-4.137-8.729-4.137H126.328z"/>	</g></g></svg>