<?xml version="1.0" encoding="UTF-8" standalone="no"?>
<!-- Created with Inkscape (http://www.inkscape.org/) -->
<svg xmlns:dc="http://purl.org/dc/elements/1.1/" xmlns:cc="http://creativecommons.org/ns#" xmlns:rdf="http://www.w3.org/1999/02/22-rdf-syntax-ns#" xmlns:svg="http://www.w3.org/2000/svg" xmlns="http://www.w3.org/2000/svg" version="1.1" width="400" height="565" id="svg2" xml:space="preserve"><metadata id="metadata8"><rdf:RDF><cc:Work rdf:about=""><dc:format>image/svg+xml</dc:format><dc:type rdf:resource="http://purl.org/dc/dcmitype/StillImage"/><dc:title/></cc:Work></rdf:RDF></metadata><defs id="defs6"/><g transform="matrix(1.25,0,0,1.25,35.433125,76.070956)" id="g10"><g transform="matrix(5.7097555,0,0,5.7097555,-823.83931,937.19469)" id="g5810"><path d="m 193.68667,-128.8693 c 0,0 0.89284,16.14923 -8.34908,24.46008 0,0 -6.79654,6.982351 -17.77881,6.982351 0,0 -11.0497,0.435371 -19.4441,-8.423581 0,0 -7.13387,-7.61318 -7.13387,-17.34316 l 0,-46.60844 c 0,0 -0.22517,-3.20595 3.18069,-3.20595 l 46.20962,0 c 0,0 3.22548,-0.15013 3.30083,3.19064 l 0.0147,40.94806" id="path226" style="fill:#ee2922;fill-opacity:1;fill-rule:nonzero;stroke:none"/><path d="m 193.68667,-128.8693 c 0,0 0.89284,16.14923 -8.34908,24.46008 0,0 -6.79654,6.982351 -17.77881,6.982351 0,0 -11.0497,0.435371 -19.4441,-8.423581 0,0 -7.13387,-7.61318 -7.13387,-17.34316 l 0,-46.60844 c 0,0 -0.22517,-3.20595 3.18069,-3.20595 l 46.20962,0 c 0,0 3.22548,-0.15013 3.30083,3.19064 l 0.0147,40.94806 z" id="path228" style="fill:none;stroke:#ee2922;stroke-width:0.50986797;stroke-linecap:butt;stroke-linejoin:miter;stroke-miterlimit:3.86400008;stroke-opacity:1;stroke-dasharray:none"/><path d="m 193.68667,-128.8693 c 0,0 0.89284,16.14923 -8.34908,24.46008 0,0 -6.79654,6.982351 -17.77881,6.982351 0,0 -11.0497,0.435371 -19.4441,-8.423581 0,0 -7.13387,-7.61318 -7.13387,-17.34316 l 0,-46.60844 c 0,0 -0.22517,-3.20595 3.18069,-3.20595 l 46.20962,0 c 0,0 3.22548,-0.15013 3.30083,3.19064 l 0.0147,40.94806" id="path230" style="fill:#28466c;fill-opacity:1;fill-rule:nonzero;stroke:none"/><path d="m 193.68667,-128.8693 c 0,0 0.89284,16.14923 -8.34908,24.46008 0,0 -6.79654,6.982351 -17.77881,6.982351 0,0 -11.0497,0.435371 -19.4441,-8.423581 0,0 -7.13387,-7.61318 -7.13387,-17.34316 l 0,-46.60844 c 0,0 -0.22517,-3.20595 3.18069,-3.20595 l 46.20962,0 c 0,0 3.22548,-0.15013 3.30083,3.19064 l 0.0147,40.94806 z" id="path234" style="fill:none;stroke:#ef3125;stroke-width:0.28325999;stroke-linecap:butt;stroke-linejoin:miter;stroke-miterlimit:3.86400008;stroke-opacity:1;stroke-dasharray:none"/><path d="m 168.74422,-145.95752 0.66736,1.17156 0.65999,-0.83363 0.56284,0.92343 0.61524,-0.76565 0.50987,0.84836 c 0,0 0.96762,-1.08857 0.93787,-1.1336 -0.0374,-0.0527 -2.04032,-0.87868 -2.04032,-0.87868 l -1.91285,0.66821" id="path236" style="fill:#ffffff;fill-opacity:1;fill-rule:nonzero;stroke:none"/><path d="m 168.74422,-145.95752 0.66736,1.17156 0.65999,-0.83363 0.56284,0.92343 0.61524,-0.76565 0.50987,0.84836 c 0,0 0.96762,-1.08857 0.93787,-1.1336 -0.0374,-0.0527 -2.04032,-0.87868 -2.04032,-0.87868 l -1.91285,0.66821 z" id="path238" style="fill:none;stroke:#2c426e;stroke-width:0.03143903;stroke-linecap:butt;stroke-linejoin:miter;stroke-miterlimit:3.86400008;stroke-opacity:1;stroke-dasharray:none"/><path d="m 168.90171,-142.39864 0.77245,-0.90105 0.44274,0.60845 0.62997,-0.57842 0.68265,0.93107 -1.15513,0.31527 -1.37268,-0.37532" id="path240" style="fill:#ffffff;fill-opacity:1;fill-rule:nonzero;stroke:none"/><path d="m 168.90171,-142.39864 0.77245,-0.90105 0.44274,0.60845 0.62997,-0.57842 0.68265,0.93107 -1.15513,0.31527 -1.37268,-0.37532 z" id="path242" style="fill:none;stroke:#2c426e;stroke-width:0.03143903;stroke-linecap:butt;stroke-linejoin:miter;stroke-miterlimit:3.86400008;stroke-opacity:1;stroke-dasharray:none"/><path d="m 159.99715,-109.34191 c 0,0 0.84015,1.40412 1.62789,1.46417 0,0 -0.03,-2.12502 1.15542,-1.67407 l -1.61288,-1.29167 -1.17043,1.50157" id="path244" style="fill:#ffffff;fill-opacity:1;fill-rule:nonzero;stroke:none"/><path d="m 159.99715,-109.34191 c 0,0 0.84015,1.40412 1.62789,1.46417 0,0 -0.03,-2.12502 1.15542,-1.67407 l -1.61288,-1.29167 -1.17043,1.50157 z" id="path246" style="fill:none;stroke:#2c426e;stroke-width:0.0580683;stroke-linecap:butt;stroke-linejoin:miter;stroke-miterlimit:3.86400008;stroke-opacity:1;stroke-dasharray:none"/><path d="m 148.87239,-145.71703 1.07271,1.49391 7.70411,35.37691 c 0,0 1.00529,2.65047 -1.77038,3.52857 0,0 -2.27288,0.6532 -3.21812,-1.50156 0,0 -0.5702,-1.18629 -1.77037,-0.37503 0,0 -1.13276,0.59286 -0.12747,2.34227 0,0 1.64291,2.65018 5.43095,2.34256 0,0 5.14627,-0.81126 4.20103,-5.64594 l -8.17659,-39.49862 -3.34587,1.93693" id="path248" style="fill:#ffffff;fill-opacity:1;fill-rule:nonzero;stroke:none"/><path d="m 148.87239,-145.71703 1.07271,1.49391 7.70411,35.37691 c 0,0 1.00529,2.65047 -1.77038,3.52857 0,0 -2.27288,0.6532 -3.21812,-1.50156 0,0 -0.5702,-1.18629 -1.77037,-0.37503 0,0 -1.13276,0.59286 -0.12747,2.34227 0,0 1.64291,2.65018 5.43095,2.34256 0,0 5.14627,-0.81126 4.20103,-5.64594 l -8.17659,-39.49862 -3.34587,1.93693 z" id="path250" style="fill:none;stroke:#2c426e;stroke-width:0.0580683;stroke-linecap:butt;stroke-linejoin:miter;stroke-miterlimit:3.86400008;stroke-opacity:1;stroke-dasharray:none"/><path d="m 180.35193,-115.26516 c 0.17165,0.25833 0.33396,0.53961 0.38722,0.74299 0,0 0.16513,0.60816 0.84779,0.26286 0,0 0.75744,-0.54046 2.14541,0.17279 0,0 0.0975,0.26258 -0.24757,0.50279 l 0.007,0.81834 c 0,0 0.44274,0.75064 1.25286,0.0227 0,0 0.25493,-0.15778 0.20253,0.13483 0,0 0.0824,1.48655 -1.93551,1.27637 0,0 -0.43509,0.96875 0.91521,1.96724 0,0 -0.49514,0.93844 -1.89784,-0.11982 0,0 -0.50251,-0.42064 -0.56256,0.33028 0,0 -0.12747,0.71297 0.60731,0.87074 0,0 -0.12746,0.91607 -1.20017,0.45038 0,0 -0.31498,-0.18751 -0.39005,0.30819 0,0 -0.14248,0.95317 -0.69002,1.37353 0,0 -0.30762,0.36031 -0.3977,-0.0751 0,0 -0.0824,-0.43566 -0.32235,-0.0824 0,0 -0.37532,0.73563 -0.72033,1.05089 0,0 -0.28496,0.31555 -0.35266,-0.11273 0,0 -0.10509,-0.43537 -0.36002,-0.43537 0,0 -0.40506,0.0453 -0.43509,0.93107 0,0 0.0377,1.62931 -0.72005,2.18479 0,0 -0.24756,0.30025 -0.48012,0.0824 0,0 -0.43537,-0.46539 -1.38798,0.78123 0,0 -0.79482,-0.34585 -0.20989,-1.70465 0,0 -0.69767,-1.02852 0.47276,-1.23105 0,0 0.62997,-0.20281 0.50222,-0.55576 0,0 -0.29232,-0.48805 -1.20725,0.1051 0,0 -0.48041,0.27815 -0.62289,1.04381 0,0 -0.21755,0.69058 -1.04268,0.69058 0,0 -0.89283,0.57078 -1.07271,1.80947 0,0 -0.96025,-0.6532 -0.44273,-1.99698 0,0 0.22519,-0.12804 -0.007,-0.33029 0,0 -0.49514,-0.26286 0.0748,-0.841 0,0 0.58522,-0.66056 1.37297,-0.40562 0,0 0.47247,0.20253 0.51751,-0.28553 0,0 0.15778,-0.32235 -0.57757,-0.87074 0,0 -0.52488,-0.29261 -0.78009,0.0527 0,0 -0.28525,0.32293 -0.62997,0.0297 0,0 -0.57021,-0.36739 -1.04296,0.30819 0,0 -0.80277,-1.70467 1.48541,-2.59013 0,0 1.70296,-0.5484 2.07035,0.60787 0,0 -0.0974,0.68322 0.47276,0.60787 0,0 0.67529,0.098 1.10244,-1.14833 0,0 0.35266,-1.67407 1.81542,-2.67284 0,0 0.44273,-0.16486 0.1878,-0.53338 0,0 -0.50279,-0.30734 -0.015,-0.5702 l 0.48748,-0.33028 c 0,0 -0.52742,-2.03721 -2.53574,-2.62639 l 5.35928,-0.001 z m -23.04348,0 c 0.11613,0.0532 0.45321,0.19318 0.74582,0.1201 0,0 1.06534,-0.33085 1.66528,0.71325 l 0.4501,0.87839 c 0,0 0.0527,0.29289 0.54018,0.2623 0,0 3.77331,0.0156 6.46654,-1.80919 0,0 0.1,-0.0635 0.22775,-0.16372 l 4.06931,-10e-4 c 0.0396,0.20649 0.0765,0.47418 0.0612,0.71325 0,0 -0.17251,0.8104 0.36738,1.75649 0,0 0.50279,0.7209 0,1.74942 0,0 -0.15721,0.23284 -0.0521,0.52544 0,0 -0.48777,0.0377 -1.01294,-1.00557 0,0 -1.13275,0.007 -1.23784,1.4112 0,0 -0.62261,-0.0754 -0.66765,-0.75857 0,0 -0.12718,-0.43537 -0.45746,-0.11217 0,0 -1.14012,1.05118 -1.04268,1.48598 0,0 -0.70532,-0.0974 -0.47248,-1.31347 0,0 -0.0677,-0.45096 -0.48777,-0.0751 0,0 -0.84015,1.30611 -1.34294,1.71174 0,0 -0.42744,-0.12803 -0.29997,-0.841 0,0 0.015,-0.57813 -0.48749,-0.0598 0,0 0.015,0.60788 -0.69767,1.17129 0,0 -0.39005,0.27759 -0.47248,0.46511 -0.0977,-0.73563 -0.69767,-1.26844 -0.69767,-1.26844 -0.96025,-1.14919 -2.09301,0.31527 -2.09301,0.31527 -0.2249,0.45746 -0.69767,0.36002 -0.69767,0.36002 -0.37503,-0.0297 -0.9002,-0.59286 -0.9002,-0.59286 -0.51751,-0.27788 -1.01265,0.20253 -1.01265,0.20253 -0.40507,0.15749 -0.78775,0.0147 -0.78775,0.0147 0,0 -0.47248,-0.0745 -0.73506,-0.63791 0,0 -0.72769,-0.0674 -1.15513,0.42065 0,0 -0.64527,-0.85601 0.29997,-1.73441 0,0 0.20253,-0.0603 0.28496,-0.29289 0,0 0.81777,-0.51836 1.87546,-0.24048 l -0.4501,-0.67558 c 0,0 -1.53782,-0.86309 -2.52072,0.15041 0,0 -0.70504,-1.1336 0.8104,-1.8698 0,0 0.17222,-0.71721 0.85119,-0.97384 l 1.06592,-0.002" id="path252" style="fill:#ee2922;fill-opacity:1;fill-rule:nonzero;stroke:none"/><path d="m 251.1875,62.875 c -0.50169,0.04691 -0.73708,0.441741 -0.84375,0.8125 -0.0533,0.18538 -0.0539,0.363897 -0.0625,0.5 -0.009,0.136103 -0.0312,0.21875 -0.0312,0.21875 -1.21908,-0.384875 -1.46875,0.625 -1.46875,0.625 -0.0751,0.45045 0.34375,0.3125 0.34375,0.3125 0.51554,-0.206413 0.6875,0.3125 0.6875,0.3125 0.0751,1.24805 -0.9375,1.1875 -0.9375,1.1875 -1.42516,-0.328587 -0.90625,-2.40625 -0.90625,-2.40625 0.0184,-0.300263 -0.375,-0.25 -0.375,-0.25 -0.88129,0 -1.09375,1.0625 -1.09375,1.0625 -0.45959,-0.384938 -1.46875,-0.5 -1.46875,-0.5 -0.92845,-0.112587 -0.875,0.625 -0.875,0.625 0.35656,0.0092 0.8125,0.46875 0.8125,0.46875 0.30025,0.18765 2.1875,2.8125 2.1875,2.8125 0.27192,1.511212 -1.6875,1.46875 -1.6875,1.46875 -0.2367,0.007 -0.41656,0.02997 -0.53125,0.09375 -0.0573,0.03189 -0.0903,0.08623 -0.125,0.125 -0.10408,0.116317 -0.13049,0.253319 -0.125,0.34375 0.004,0.06029 0.0312,0.09375 0.0312,0.09375 l 0.0937,0.84375 c -0.18757,0.288581 -0.21778,0.513724 -0.15625,0.6875 0.0308,0.08689 0.0572,0.155231 0.125,0.21875 0.33881,0.317596 1.0625,0.375 1.0625,0.375 0.85331,0 1.15639,-0.49675 1.8125,-0.46875 0.48543,0.0072 0.5374,0.229828 0.78125,0.34375 0.0813,0.03797 0.1938,0.05781 0.34375,0.0625 0.59095,0.01876 0.5188,-0.165 0.875,-0.15625 0.35655,0.02834 0.49996,0.25625 0.96875,0.21875 0.47835,-0.03753 0.25,0.46875 0.25,0.46875 l -0.71875,0.9375 c -0.49678,0.150125 -3.3125,-0.15625 -3.3125,-0.15625 C 245.03444,74.353463 242.375,74 242.375,74 c -1.14401,-0.140563 -2.1875,-0.84375 -2.1875,-0.84375 -1.16279,-0.713463 -0.84375,-2.09375 -0.84375,-2.09375 0.11259,-0.525438 -0.25,-0.28125 -0.25,-0.28125 -0.44532,0.459856 -0.65509,0.924951 -0.75,1.34375 -0.0949,0.418799 -0.0649,0.79653 0.0312,1.125 0.0961,0.32847 0.24725,0.592379 0.375,0.78125 0.13387,0.201411 0.21875,0.3125 0.21875,0.3125 1.62236,1.379488 4.28125,1.21875 4.28125,1.21875 1.89395,0 4.21875,-0.25 4.21875,-0.25 1.1812,0.0563 2.15625,0.34375 2.15625,0.34375 0.4784,0.10305 0.46875,0.4375 0.46875,0.4375 -0.0188,0.253525 -0.21875,0.65625 -0.21875,0.65625 -0.0938,0.281525 -0.375,0.3125 -0.375,0.3125 -0.38374,0.03306 -0.74807,0.03419 -1.0625,0.03125 -2.2517,-0.02783 -2.8125,-0.875 -2.8125,-0.875 L 245,77.125 c -0.81543,1.06045 0.5,1.53125 0.5,1.53125 0.4217,0.431975 -0.15625,0.875 -0.15625,0.875 -0.11839,0.0798 -0.24614,0.132884 -0.375,0.15625 C 244.06674,79.851063 243,78.78125 243,78.78125 242.59688,78.359019 242.23834,78.182933 241.96875,78.09375 241.69916,78.004567 241.53125,78 241.53125,78 241.33438,77.9906 241.15293,78.02818 241,78.0625 c -0.45878,0.102967 -0.71875,0.34375 -0.71875,0.34375 -0.59095,0.0563 -0.875,-0.15625 -0.875,-0.15625 -0.37502,-0.178512 -0.4375,0.0625 -0.4375,0.0625 -0.0421,0.09861 0.0371,0.219866 0.125,0.3125 0.0879,0.09263 0.1875,0.15625 0.1875,0.15625 0.0657,0.08684 0.0885,0.156693 0.0937,0.21875 0.0159,0.186173 -0.1875,0.28125 -0.1875,0.28125 -0.0844,0.02226 -0.17028,0.02703 -0.25,0.03125 -0.55799,0.02952 -0.9687,-0.3125 -0.9687,-0.3125 -0.34703,-0.412825 -0.4375,-0.125 -0.4375,-0.125 -0.27197,0.215987 0.125,0.59375 0.125,0.59375 0.0445,0.124369 0.0321,0.194979 0,0.25 -0.0321,0.05502 -0.0912,0.08258 -0.15625,0.09375 -0.13008,0.02235 -0.28125,0 -0.28125,0 -0.77825,-0.253525 -3.78125,-1.78125 -3.78125,-1.78125 -0.59777,-0.274497 -1.08286,-0.617269 -1.5,-0.96875 -1.25142,-1.05444 -1.75,-2.21875 -1.75,-2.21875 -0.8905,-1.4078 -0.5,-2.125 -0.5,-2.125 0.3562,-0.863587 0,-1.5625 0,-1.5625 -0.0598,-0.130211 -0.11711,-0.249963 -0.1875,-0.34375 -0.0704,-0.09379 -0.14293,-0.15563 -0.21875,-0.21875 -0.0758,-0.06312 -0.17391,-0.118042 -0.25,-0.15625 -0.38047,-0.191044 -0.71875,-0.125 -0.71875,-0.125 -0.57212,0.04675 -0.65625,-0.28125 -0.65625,-0.28125 -0.71275,-1.69845 -2.0625,-1.625 -2.0625,-1.625 -1.02186,0.02797 -1.28125,1 -1.28125,1 -0.67521,0.356562 -0.59375,0.84375 -0.59375,0.84375 0,0.08683 -0.007,0.165523 -0.0312,0.21875 -0.0246,0.05323 -0.0609,0.0662 -0.0937,0.09375 -0.0656,0.0551 -0.125,0.09375 -0.125,0.09375 -0.68478,0 -1.1875,0.46875 -1.1875,0.46875 -1.08736,0.215987 -1.21875,1.21875 -1.21875,1.21875 0,1.5204 1.09375,1.3125 1.09375,1.3125 0.0188,-0.124281 0.0556,-0.251834 0.125,-0.34375 0.20833,-0.275748 0.5625,-0.40625 0.5625,-0.40625 0.24395,-0.112625 0.71875,0.125 0.71875,0.125 0.39368,-0.159687 0.46875,-0.375 0.46875,-0.375 0.0398,-0.09972 0.0886,-0.217168 0.15625,-0.3125 0.0677,-0.09533 0.16384,-0.192612 0.25,-0.28125 0.51694,-0.531828 1.28125,-0.90625 1.28125,-0.90625 l 1.8125,8.78125 0.15625,0.8125 0.1875,-0.03125 c 0.60016,-0.131362 0.78125,0.375 0.78125,0.375 0.007,0.05391 0.0529,0.124614 0.0937,0.1875 0.0409,0.06289 0.074,0.09936 0.125,0.15625 0.10795,0.123434 0.21875,0.21875 0.21875,0.21875 0.1218,-0.271888 0.59375,-0.15625 0.59375,-0.15625 -0.0563,0.347338 0.375,0.28125 0.375,0.28125 0.35659,0 0.375,0.40625 0.375,0.40625 l 0.40625,1.34375 c 0.0938,0.394088 0.375,0.1875 0.375,0.1875 0.0305,-0.0598 0.0658,-0.09564 0.0937,-0.125 0.19552,-0.20554 0.3125,0.25 0.3125,0.25 0.0984,0.290844 0.2347,0.308648 0.34375,0.25 0.0545,-0.02932 0.0903,-0.08483 0.125,-0.125 0.0347,-0.04017 0.0625,-0.0625 0.0625,-0.0625 0.59055,-0.656813 0.53125,0.25 0.53125,0.25 0,0.63805 0.34375,0.3125 0.34375,0.3125 0.015,-0.03945 0.0391,-0.07389 0.0625,-0.09375 0.0922,-0.05952 0.21875,-0.03125 0.21875,-0.03125 0.0539,0.03873 0.095,0.08149 0.125,0.125 0.2102,0.304531 -0.0937,0.6875 -0.0937,0.6875 -0.11605,0.0833 -0.23619,0.166788 -0.34375,0.21875 -0.21513,0.103923 -0.42288,0.141796 -0.59375,0.15625 -0.0854,0.0072 -0.14696,0.0062 -0.21875,0 -0.14358,-0.01235 -0.26508,-0.03242 -0.34375,-0.0625 -0.0787,-0.03009 -0.125,-0.0625 -0.125,-0.0625 -0.51589,-0.215637 -0.5,0.125 -0.5,0.125 -0.0984,0.833958 0.10685,1.351887 0.40625,1.65625 0.1996,0.202909 0.44025,0.311084 0.65625,0.375 0.324,0.09587 0.59375,0.09375 0.59375,0.09375 C 233.66281,87.63785 234,86.625 234,86.625 c 0.23475,-0.506275 0.5625,-0.59375 0.5625,-0.59375 0.1218,-0.0655 0.65625,-0.53125 0.65625,-0.53125 0.4596,0.02797 0.125,0.59375 0.125,0.59375 -0.28136,0.348408 -0.30323,0.538383 -0.25,0.625 0.0177,0.02887 0.0279,0.05106 0.0625,0.0625 0.0691,0.02288 0.17472,0.01187 0.25,0 0.0753,-0.01187 0.125,-0.03125 0.125,-0.03125 l 2.125,-0.71875 c 0.68479,-0.18765 0.40625,0.4375 0.40625,0.4375 -0.40088,0.330614 -0.51325,0.505805 -0.46875,0.59375 0.0148,0.02931 0.0557,0.0496 0.0937,0.0625 0.15238,0.05161 0.4375,0 0.4375,0 0.1126,-0.02797 0.43036,-0.18893 0.71875,-0.34375 0.28839,-0.154819 0.5625,-0.3125 0.5625,-0.3125 0.66566,-0.272288 0.5,0.34375 0.5,0.34375 -0.0515,0.1781 -0.19641,0.339691 -0.3125,0.46875 -0.11604,0.129059 -0.2187,0.21875 -0.2187,0.21875 -0.60936,-0.08461 -1.71875,0.875 -1.71875,0.875 -0.10408,0.09615 -0.1856,0.138589 -0.25,0.15625 -0.0128,0.0036 -0.0198,0.03002 -0.0312,0.03125 -0.20428,0.03036 -0.1875,-0.28125 -0.1875,-0.28125 -0.0386,-0.365948 -0.24428,-0.588941 -0.46875,-0.71875 -0.22447,-0.129811 -0.48633,-0.17514 -0.65625,-0.1875 -0.11328,-0.0082 -0.1875,0 -0.1875,0 -1.14395,0.03789 -1.1875,0.90625 -1.1875,0.90625 0,0.190005 0.0205,0.35812 0.0625,0.5 0.009,0.03 0.0206,0.06573 0.0312,0.09375 0.038,0.09846 0.10207,0.1743 0.15625,0.25 0.0134,0.01852 0.0171,0.04524 0.0312,0.0625 0.0621,0.07619 0.14554,0.13345 0.21875,0.1875 0.0116,0.0084 0.0195,0.02335 0.0312,0.03125 0.0795,0.05427 0.16658,0.0909 0.25,0.125 0.0705,0.02872 0.11942,0.04517 0.1875,0.0625 0.31147,0.08335 0.59375,0.0625 0.59375,0.0625 1.01265,0.08428 2.40625,-0.5 2.40625,-0.5 0.73116,-0.03754 0.21875,0.5625 0.21875,0.5625 -0.61892,0.544212 -1.7686,0.724244 -2.78125,0.75 -0.50633,0.01288 -0.97144,-0.0069 -1.3125,-0.03125 -0.34106,-0.02435 -0.5625,-0.0625 -0.5625,-0.0625 -1.15656,-0.256897 -2.03211,-0.528354 -2.71875,-0.78125 -0.093,-0.03464 -0.19574,-0.05952 -0.28125,-0.09375 -0.49455,-0.194247 -0.80813,-0.389213 -1.09375,-0.5625 -0.11917,-0.07217 -0.25384,-0.12069 -0.34375,-0.1875 -0.41263,-0.305022 -0.52276,-0.52142 -0.5625,-0.65625 -0.0362,-0.09779 -0.0312,-0.15625 -0.0312,-0.15625 -0.0188,-0.328212 -0.25,-0.5 -0.25,-0.5 -0.068,-0.06817 -0.10874,-0.108249 -0.125,-0.15625 -0.0163,-0.048 -0.0123,-0.09508 0,-0.125 0.0246,-0.05983 0.0625,-0.09375 0.0625,-0.09375 0.63307,-0.766931 0.34881,-1.179703 0.15625,-1.34375 -0.0642,-0.05468 -0.125,-0.09375 -0.125,-0.09375 0.21563,-0.591313 -0.21875,-0.53125 -0.21875,-0.53125 l -1.28125,-0.0625 c -0.90964,-0.0096 -0.9375,0.8125 -0.9375,0.8125 l -0.0625,0.59375 c -0.13366,0.0048 -0.24797,-0.0084 -0.375,-0.03125 -0.12703,-0.02284 -0.2412,-0.06091 -0.34375,-0.09375 -0.2051,-0.06568 -0.34375,-0.125 -0.34375,-0.125 -0.78746,-0.309813 -1.125,0.21875 -1.125,0.21875 -0.35656,0.309763 -0.84375,0.34375 -0.84375,0.34375 -1.41593,0.0747 -1.40625,1.53125 -1.40625,1.53125 -0.14066,0.095 -0.2636,0.186891 -0.375,0.28125 -0.0469,0.04011 -0.0831,0.08511 -0.125,0.125 -0.0551,0.05214 -0.1091,0.104578 -0.15625,0.15625 -0.0336,0.03725 -0.064,0.08805 -0.0937,0.125 -0.0591,0.07353 -0.11171,0.146683 -0.15625,0.21875 -0.0124,0.02036 -0.0199,0.04228 -0.0312,0.0625 -0.0508,0.08976 -0.094,0.163336 -0.125,0.25 -0.008,0.0216 0.007,0.04111 0,0.0625 -0.039,0.124242 -0.0879,0.259376 -0.0937,0.375 -0.001,0.03151 -7.2e-4,0.06299 0,0.09375 0.006,0.267198 0.0876,0.492581 0.1875,0.6875 0.005,0.0088 -0.005,0.02263 0,0.03125 0.17313,0.326096 0.40625,0.53125 0.40625,0.53125 0.0563,-0.185359 0.18465,-0.379962 0.34375,-0.5625 0.1591,-0.182538 0.34726,-0.349296 0.53125,-0.5 0.36797,-0.301408 0.71875,-0.5 0.71875,-0.5 0.14305,0.08215 0.25059,0.0858 0.375,0.0625 0.12441,-0.0233 0.24939,-0.08411 0.34375,-0.15625 0.18872,-0.144286 0.3125,-0.34375 0.3125,-0.34375 0.37496,-0.656787 0.75,-0.625 0.75,-0.625 0.10552,0.0023 0.20303,0.01562 0.28125,0.03125 0.0782,0.01563 0.13255,0.03744 0.1875,0.0625 0.32973,0.150372 0.28125,0.4375 0.28125,0.4375 0.0422,0.457538 -0.31542,0.505857 -0.5,0.5 -0.0615,-0.002 -0.125,-0.03125 -0.125,-0.03125 -0.39621,0.03063 -0.67324,0.164186 -0.875,0.3125 -0.10088,0.07416 -0.18581,0.162089 -0.25,0.25 -0.32095,0.439554 -0.21875,0.96875 -0.21875,0.96875 -0.75029,1.754437 0.9375,2.53125 0.9375,2.53125 0.1218,-0.8165 1.03125,-1.5625 1.03125,-1.5625 0.84411,-0.140913 0.6875,-1.03125 0.6875,-1.03125 0.43126,-0.591325 0.65625,0.03125 0.65625,0.03125 0.13178,0.659906 0.7378,0.575366 0.8125,0.5625 0.12658,0 0.27529,-0.05144 0.375,-0.09375 0.0997,-0.04231 0.15625,-0.09375 0.15625,-0.09375 0.35626,-0.02761 0.40625,0.21875 0.40625,0.21875 0.1972,0.375313 -0.125,0.96875 -0.125,0.96875 -0.0141,0.225278 0.0278,0.406289 0.0937,0.53125 0.0329,0.06248 0.0816,0.113349 0.125,0.15625 0.21696,0.214505 0.53125,0.21875 0.53125,0.21875 0.41267,0 0.64294,-0.115538 0.78125,-0.21875 0.13831,-0.103212 0.1875,-0.21875 0.1875,-0.21875 0.0867,0.1172 0.17795,0.211774 0.28125,0.28125 0.3099,0.208427 0.625,0.25 0.625,0.25 0.51589,0.23475 0.25,0.6875 0.25,0.6875 l -0.125,0.6875 c -0.0563,0.3192 0.0609,0.384428 0.1875,0.375 0.12658,-0.0094 0.25,-0.09375 0.25,-0.09375 0.34699,-0.309812 0.875,-0.46875 0.875,-0.46875 0.75028,-0.328237 1.125,0.0625 1.125,0.0625 0.37496,0.196863 -0.15625,0.9375 -0.15625,0.9375 -0.2907,0.52545 0.21875,0.34375 0.21875,0.34375 0.1126,-0.01874 0.5,-0.15625 0.5,-0.15625 0.39368,-0.141275 0.3125,0.1875 0.3125,0.1875 -0.0375,0.30025 -0.59375,0.8125 -0.59375,0.8125 -0.39372,0.544562 0.25,0.40625 0.25,0.40625 0.1665,-0.02354 0.33955,-0.08409 0.5,-0.15625 0.16045,-0.07216 0.30682,-0.165553 0.4375,-0.25 0.26135,-0.168894 0.4375,-0.34375 0.4375,-0.34375 0.53465,-0.328575 0.375,0.21875 0.375,0.21875 l -0.25,0.375 c -0.0328,0.06448 -0.0532,0.113288 -0.0625,0.15625 -0.0647,0.300733 0.375,0.125 0.375,0.125 0.14774,-0.06108 0.30655,-0.143511 0.46875,-0.25 0.48661,-0.319467 0.96875,-0.75 0.96875,-0.75 0.35625,-0.281487 0.40625,0.15625 0.40625,0.15625 0.0846,0.450038 -0.3125,0.90625 -0.3125,0.90625 -0.18766,0.450025 0.3125,0.25 0.3125,0.25 0.29548,-0.187838 0.62294,-0.521584 0.875,-0.8125 0.25206,-0.290916 0.4375,-0.53125 0.4375,-0.53125 0.3749,-0.469525 0.4375,0.03125 0.4375,0.03125 0.0468,0.196875 -0.0596,0.5557 -0.0312,0.78125 0.0117,0.08675 0.026,0.131218 0.0625,0.15625 0.10934,0.0751 0.3125,-0.0625 0.3125,-0.0625 0.40329,-0.215987 0.90625,-0.9375 0.90625,-0.9375 0.13136,-0.262775 0.28125,-0.1875 0.28125,-0.1875 0.2252,-0.0088 0.15625,0.53125 0.15625,0.53125 -0.0352,0.42289 0.24708,0.129529 0.28125,0.09375 0.13243,-0.09153 0.28102,-0.196755 0.40625,-0.3125 0.87664,-0.810215 1.53125,-2.09375 1.53125,-2.09375 0.2999,-0.54465 0.6875,0 0.6875,0 0.48774,0.727444 1.30376,1.168802 2,1.4375 0.34812,0.134349 0.64439,0.225953 0.875,0.28125 0.23061,0.0553 0.375,0.0625 0.375,0.0625 1.56573,1.210237 4.28125,2.46875 4.28125,2.46875 0.0269,0.07219 0.0539,0.153178 0.0625,0.21875 0.002,0.01893 -6.6e-4,0.04412 0,0.0625 0.002,0.04229 0.005,0.08551 0,0.125 -0.006,0.04111 -0.0185,0.08684 -0.0312,0.125 -0.008,0.0226 -0.0215,0.04091 -0.0312,0.0625 -0.0225,0.04965 -0.0609,0.08052 -0.0937,0.125 -0.0648,0.08802 -0.15604,0.180895 -0.25,0.25 -0.14164,0.101827 -0.30491,0.184839 -0.46875,0.25 -0.40985,0.16074 -0.8125,0.21875 -0.8125,0.21875 -2.03486,0.39408 -3.40625,1.25 -3.40625,1.25 -0.65646,0.30981 -1.25,0.96875 -1.25,0.96875 -0.53431,0.45109 -0.5625,1.84375 -0.5625,1.84375 -0.0445,0.20173 -0.0925,0.41076 -0.15625,0.59375 -0.0637,0.18299 -0.12481,0.32564 -0.1875,0.46875 -0.13001,0.29968 -0.21875,0.5 -0.21875,0.5 -0.48792,1.36106 0.0625,1.9375 0.0625,1.9375 l 0.78125,1.375 c 0.39372,0.61964 0.15625,1 0.15625,1 -0.0142,0.12437 -0.0648,0.2523 -0.15625,0.375 -0.0257,0.0353 -0.0644,0.0596 -0.0937,0.0937 -0.28139,0.32412 -0.6875,0.59375 -0.6875,0.59375 -3.36654,2.28099 -8.09375,2.28125 -8.09375,2.28125 -0.60935,0.0382 -0.65625,-0.34375 -0.65625,-0.34375 l -0.5625,-1.09375 C 234.34383,110.81988 233,111.25 233,111.25 c -0.42287,0.10546 -0.87898,-0.12566 -0.9375,-0.15625 -0.0333,-0.0159 -0.0312,-0.0312 -0.0312,-0.0312 -0.14969,-0.0364 -0.27429,-0.0506 -0.40625,-0.0625 -0.22662,-0.0244 -0.38302,-0.001 -0.5625,0.0312 -1.09857,0.19688 -1.375,1.28125 -1.375,1.28125 -1.8943,0.92025 -1.03125,2.34375 -1.03125,2.34375 1.22862,-1.26687 3.15625,-0.1875 3.15625,-0.1875 l 0.5625,0.84375 c -1.32211,-0.34735 -2.34375,0.28125 -2.34375,0.28125 -0.10304,0.29074 -0.34375,0.375 -0.34375,0.375 -1.18155,1.098 -0.375,2.15625 -0.375,2.15625 0.5343,-0.61006 1.4375,-0.53125 1.4375,-0.53125 0.32823,0.70426 0.90625,0.8125 0.90625,0.8125 0,0 0.49366,0.16561 1,-0.0312 0,0 0.60311,-0.59735 1.25,-0.25 0,0 0.65621,0.71287 1.125,0.75 0,0 0.59388,0.13432 0.875,-0.4375 0,0 1.42469,-1.84273 2.625,-0.40625 0,0 0.75288,0.67423 0.875,1.59375 0.10304,-0.2344 0.59375,-0.59375 0.59375,-0.59375 0.89084,-0.70426 0.84375,-1.46875 0.84375,-1.46875 0.62811,-0.64791 0.625,0.0937 0.625,0.0937 -0.15934,0.89121 0.375,1.03125 0.375,1.03125 0.62849,-0.50704 1.6875,-2.125 1.6875,-2.125 0.52509,-0.46981 0.59375,0.0937 0.59375,0.0937 -0.29105,1.5201 0.59375,1.625 0.59375,1.625 -0.1218,-0.54351 1.3125,-1.84375 1.3125,-1.84375 0.41285,-0.40399 0.5625,0.125 0.5625,0.125 0.0563,0.85397 0.84375,0.96875 0.84375,0.96875 0.13136,-1.75526 1.53125,-1.78125 1.53125,-1.78125 0.65646,1.30409 1.28125,1.25 1.28125,1.25 -0.13139,-0.36575 0.0625,-0.65625 0.0625,-0.65625 0.62849,-1.28565 0,-2.1875 0,-2.1875 -0.67486,-1.18261 -0.46875,-2.1875 -0.46875,-2.1875 0.0188,-0.29565 -0.0133,-0.61803 -0.0625,-0.875 -0.0489,-0.2521 -0.0937,-0.4375 -0.0937,-0.4375 C 249.47185,110.009 249.34375,109 249.34375,109 c -0.0211,-0.18301 -0.042,-0.33371 -0.0312,-0.5 0.01,-0.17713 0.0574,-0.34353 0.0937,-0.5 0.20574,-0.88684 0.75,-1.40625 0.75,-1.40625 1.2566,-1.46411 2.53125,-1.40625 2.53125,-1.40625 0.73117,-0.10304 0.875,0.28125 0.875,0.28125 0.44083,0.85404 -0.3125,1 -0.3125,1 -0.75029,0.29105 -0.46875,1.21875 -0.46875,1.21875 l 0.0625,1.875 c 0.005,0.17824 0.0243,0.33023 0.0625,0.46875 0.25745,0.99444 1.21875,1.03125 1.21875,1.03125 0.0124,0.004 0.05,0.0288 0.0625,0.0312 2.48651,0.74808 3.15625,3.28125 3.15625,3.28125 L 256.75,114.7812 c -0.60974,0.32859 0,0.71875 0,0.71875 0.31866,0.46066 -0.21875,0.65625 -0.21875,0.65625 -1.82845,1.24852 -2.28125,3.3438 -2.28125,3.3438 -0.53395,1.55792 -1.375,1.4375 -1.375,1.4375 -0.71271,0.0942 -0.59375,-0.75 -0.59375,-0.75 -0.45924,-1.44534 -2.59375,-0.78125 -2.59375,-0.78125 -2.86021,1.10684 -1.84375,3.25 -1.84375,3.25 0.59095,-0.84448 1.28125,-0.375 1.28125,-0.375 0.43091,0.36652 0.8125,-0.0625 0.8125,-0.0625 0.31903,-0.43162 0.96875,-0.0625 0.96875,-0.0625 0.91917,0.6855 0.71875,1.09375 0.71875,1.09375 -0.0563,0.61007 -0.65625,0.375 -0.65625,0.375 -0.98469,-0.31867 -1.71875,0.5 -1.71875,0.5 -0.71242,0.72266 -0.0937,1.03125 -0.0937,1.03125 0.29024,0.2528 0.0312,0.4375 0.0312,0.4375 -0.64689,1.67972 0.53125,2.5 0.53125,2.5 0.22484,-1.54836 1.34375,-2.28125 1.34375,-2.28125 1.03141,0 1.3125,-0.84375 1.3125,-0.84375 0.1781,-0.95706 0.78125,-1.3125 0.78125,-1.3125 1.14366,-0.74144 1.5,-0.125 1.5,-0.125 0.15969,0.44118 -0.625,0.6875 -0.625,0.6875 -1.46304,0.25316 -0.59375,1.53125 -0.59375,1.53125 -0.73117,1.6985 0.28125,2.125 0.28125,2.125 1.19076,-1.55829 1.71875,-0.96875 1.71875,-0.96875 0.29069,0.27231 0.59375,-0.0937 0.59375,-0.0937 0.94719,-0.69434 0.90625,-2.75 0.90625,-2.75 0.0375,-1.10722 0.53125,-1.15625 0.53125,-1.15625 0.31866,0 0.46875,0.5625 0.46875,0.5625 0.0846,0.53536 0.4375,0.125 0.4375,0.125 0.43126,-0.39409 0.90625,-1.3125 0.90625,-1.3125 0.29994,-0.44156 0.40625,0.0937 0.40625,0.0937 0.1126,0.54425 0.5,0.0937 0.5,0.0937 0.68443,-0.52545 0.84375,-1.71875 0.84375,-1.71875 0.0938,-0.61964 0.5,-0.375 0.5,-0.375 1.34087,0.5821 1.5,-0.5625 1.5,-0.5625 -0.91848,-0.19723 -0.75,-1.09375 -0.75,-1.09375 0.0751,-0.93866 0.6875,-0.40625 0.6875,-0.40625 1.75339,1.32283 2.375,0.15625 2.375,0.15625 C 263.65587,117.22064 264.1875,116 264.1875,116 c 2.5224,0.26272 2.4375,-1.59375 2.4375,-1.59375 0.0655,-0.36575 -0.25,-0.15625 -0.25,-0.15625 -1.01265,0.90993 -1.5625,-0.0312 -1.5625,-0.0312 l -0.0312,-1.03125 c 0.43121,-0.30025 0.3125,-0.625 0.3125,-0.625 -1.73496,-0.89156 -2.6875,-0.21875 -2.6875,-0.21875 -0.85333,0.43161 -1.0625,-0.34375 -1.0625,-0.34375 -0.15969,-0.60971 -1.09375,-1.78125 -1.09375,-1.78125 -0.67523,-0.61964 -0.5,-1.0625 -0.5,-1.0625 -0.0375,-0.77861 0.3125,-2.65625 0.3125,-2.65625 0.131,-0.52474 0.46875,-0.21875 0.46875,-0.21875 1.51898,1.53951 4.28125,1.53125 4.28125,1.53125 0.21214,0 0.40004,-0.006 0.59375,-0.0312 0.19371,-0.0249 0.38953,-0.0511 0.5625,-0.0937 1.03781,-0.25623 1.65625,-0.78125 1.65625,-0.78125 0.70665,-0.4468 1.15493,-0.989 1.40625,-1.5 0.0838,-0.17033 0.1374,-0.34313 0.1875,-0.5 0.2004,-0.62746 0.15625,-1.09375 0.15625,-1.09375 -0.10343,-1.4549 0.0625,-3.84375 0.0625,-3.84375 0.0113,-0.526181 0.0797,-1.018651 0.15625,-1.5 0.0515,-0.327232 0.11378,-0.633971 0.1875,-0.9375 0.0242,-0.100025 0.0363,-0.215227 0.0625,-0.3125 0.0851,-0.315021 0.18095,-0.590902 0.28125,-0.875 0.0284,-0.08044 0.0333,-0.172187 0.0625,-0.25 0.0791,-0.210577 0.16741,-0.403416 0.25,-0.59375 0.0631,-0.145559 0.12414,-0.30447 0.1875,-0.4375 0.0112,-0.02351 0.0201,-0.03939 0.0312,-0.0625 0.12526,-0.25907 0.25913,-0.48158 0.375,-0.6875 0.12123,-0.215699 0.24642,-0.41011 0.34375,-0.5625 0.009,-0.01369 -0.008,-0.01809 0,-0.03125 0.19997,-0.311636 0.34375,-0.46875 0.34375,-0.46875 1.71584,-2.102137 1.3125,-3.6875 1.3125,-3.6875 -0.59095,0.356913 -0.46875,-0.3125 -0.46875,-0.3125 0.0305,-0.07276 0.0471,-0.184057 0.0625,-0.28125 0.002,-0.01037 -0.002,-0.02078 0,-0.03125 0.0125,-0.08737 0.0266,-0.167021 0.0312,-0.25 0.005,-0.09553 0.0315,-0.19351 0.0312,-0.25 -1e-4,-0.0066 10e-5,-0.0267 0,-0.03125 0,-0.0485 0,-0.0625 0,-0.0625 0.0177,-0.425822 -0.0429,-0.582398 -0.125,-0.625 -0.0821,-0.0426 -0.21115,0.02138 -0.28125,0.09375 -0.0467,0.04825 -0.0625,0.09375 -0.0625,0.09375 -0.3282,0.290338 -0.3125,-0.15625 -0.3125,-0.15625 0.0662,-0.741425 -0.0937,-1.34375 -0.0937,-1.34375 -0.0843,-0.544225 -0.46875,-0.21875 -0.46875,-0.21875 -0.35655,0.112588 -0.59375,0.78125 -0.59375,0.78125 -0.0363,0.08564 -0.0577,0.141176 -0.0937,0.1875 -0.036,0.04632 -0.0592,0.07857 -0.0937,0.09375 -0.0345,0.01518 -0.0932,0.0078 -0.125,0 -0.0954,-0.02337 -0.16967,-0.135822 -0.21875,-0.21875 -0.0327,-0.05528 -0.0625,-0.09375 -0.0625,-0.09375 -1.59369,-3.52835 -2.71875,-4.75 -2.71875,-4.75 -0.0774,-0.09154 -0.10169,-0.187061 -0.125,-0.25 -0.0233,-0.06294 -0.0389,-0.08685 -0.0312,-0.125 0.0152,-0.0763 0.0625,-0.125 0.0625,-0.125 0.17306,-0.308409 0.36424,-0.603544 0.5625,-0.90625 0.0425,-0.06496 0.082,-0.123386 0.125,-0.1875 0.15821,-0.235762 0.31118,-0.43827 0.46875,-0.65625 0.47831,-0.661686 0.74406,-1.003462 1,-1.3125 0.26281,-0.325219 0.40625,-0.53125 0.40625,-0.53125 l 1.15615,-0.7189 c 0.8434,-0.46915 1.375,-1.28125 1.375,-1.28125 1.16278,-1.829862 0.59375,-4.0625 0.59375,-4.0625 C 272.96575,72.387763 272.625,72.5 272.625,72.5 c -0.46885,0.150125 -0.375,-0.6875 -0.375,-0.6875 -0.39409,-0.197225 -0.15625,-0.5625 -0.15625,-0.5625 0.43121,-0.647613 0.125,-1.0625 0.125,-1.0625 -0.15934,0.33815 -0.75,0.90625 -0.75,0.90625 -0.4033,0.41285 -0.40625,-0.25 -0.40625,-0.25 0.2252,-2.027075 -0.25,-2.4375 -0.25,-2.4375 -0.0984,0.01876 -0.24488,0.196722 -0.375,0.375 -0.13012,0.178278 -0.21875,0.34375 -0.21875,0.34375 -0.0587,0.07734 -0.11182,0.109678 -0.15625,0.125 -0.1333,0.04596 -0.21875,-0.125 -0.21875,-0.125 -0.43126,-1.248113 0.3125,-2.25 0.3125,-2.25 0.43161,-0.66635 0.9375,-0.09375 0.9375,-0.09375 0.0984,0.08905 0.31367,0.336112 0.5,0.5625 0.18633,0.226388 0.34375,0.4375 0.34375,0.4375 0.94715,-2.477462 -1.40625,-2.5 -1.40625,-2.5 -1.83836,0.04709 -2.8125,1.9375 -2.8125,1.9375 -0.66787,1.182516 -0.35968,2.595836 -0.15625,3.21875 0.0678,0.207638 0.125,0.3125 0.125,0.3125 -0.0184,0.215988 -0.34375,0.96875 -0.34375,0.96875 -0.0982,0.239356 -0.13628,0.639017 -0.15625,0.96875 -0.02,0.329733 -0.0312,0.59375 -0.0312,0.59375 0,1.322825 0.375,2.25 0.375,2.25 0.39411,1.163837 -0.0312,1.75 -0.0312,1.75 -0.0694,0.09843 -0.29544,0.579369 -0.5625,1.125 -0.35258,0.716517 -0.60184,1.219702 -0.75,1.53125 -0.0342,0.07194 -0.15625,0.34375 -0.15625,0.34375 -0.21824,-0.06306 -0.45799,-0.303411 -0.6875,-0.59375 -0.0317,-0.04015 -0.0622,-0.08217 -0.0937,-0.125 -0.0899,-0.123291 -0.19491,-0.26788 -0.28125,-0.40625 -0.007,-0.01191 -0.0239,-0.01927 -0.0312,-0.03125 -0.0455,-0.07376 -0.0811,-0.143017 -0.125,-0.21875 -0.11904,-0.205301 -0.21028,-0.393117 -0.3125,-0.59375 -0.0784,-0.153547 -0.0914,-0.175806 -0.15625,-0.3125 -0.23468,-0.486617 -0.40625,-0.875 -0.40625,-0.875 -0.25311,-0.506675 -0.0625,-0.875 -0.0625,-0.875 0.0453,-0.07914 0.065,-0.15105 0.0937,-0.25 0.0273,-0.08815 0.0465,-0.152566 0.0625,-0.25 0.0961,-0.584604 0.0312,-1.28125 0.0312,-1.28125 0.0379,-0.769762 0.5,-0.96875 0.5,-0.96875 0.1685,-0.309813 0.0312,-0.53125 0.0312,-0.53125 -0.67062,0.182875 -1.10661,0.667931 -1.375,1.09375 -0.26839,0.425819 -0.375,0.8125 -0.375,0.8125 -0.0375,0.121978 -0.0533,0.195462 -0.0937,0.25 -0.0404,0.05454 -0.0899,0.08202 -0.125,0.09375 -0.0703,0.02346 -0.125,0 -0.125,0 -0.26277,-0.103037 -0.21875,-0.59375 -0.21875,-0.59375 -0.0659,-0.741075 1.65625,-2.71875 1.65625,-2.71875 C 264.70655,71.033812 264.40625,70.25 264.40625,70.25 264.20902,69.724137 264,70.3125 264,70.3125 c -0.01,0.798088 -1.96875,2.75 -1.96875,2.75 -0.21564,0.160088 -0.375,-0.03125 -0.375,-0.03125 -0.27197,-0.29105 0.125,-0.84375 0.125,-0.84375 1.73468,-1.923687 1.8125,-3.6875 1.8125,-3.6875 0.42206,-1.773563 -0.5625,-2.65625 -0.5625,-2.65625 -0.26237,-0.09843 -0.37341,0.01595 -0.40625,0.125 -0.0328,0.109055 0,0.21875 0,0.21875 0.0751,1.10755 -0.1875,2.625 -0.1875,2.625 -0.0948,0.746081 -0.2849,1.283907 -0.5,1.6875 -0.0717,0.134531 -0.14754,0.272949 -0.21875,0.375 -0.28485,0.408203 -0.5625,0.5625 -0.5625,0.5625 -0.88129,0.319025 -0.625,-0.5625 -0.625,-0.5625 l 0.6875,-1.90625 c 0.76905,-2.0455 0.3125,-2.9375 0.3125,-2.9375 -0.27193,-0.835225 -1.15625,-0.8125 -1.15625,-0.8125 -0.50668,0.0563 -0.15625,0.5 -0.15625,0.5 0.18763,0.140912 0.15625,0.59375 0.15625,0.59375 -0.0283,0.5258 -0.3125,1.25 -0.3125,1.25 l -1.40625,3.96875 c -0.1079,0.344959 -0.20252,0.655495 -0.25,0.9375 -0.14246,0.846016 -0.0625,1.375 -0.0625,1.375 0.0938,1.501625 1.75,2.09375 1.75,2.09375 0.80659,0.24395 1.15625,1.125 1.15625,1.125 0.10118,0.24555 0.2161,0.502164 0.34375,0.75 0.38948,0.75577 0.85535,1.487733 1.3125,2.125 0.37425,0.52385 0.7085,0.961919 0.96875,1.28125 0.25452,0.31193 0.4375,0.5 0.4375,0.5 0.53429,0.57255 0.0312,0.8125 0.0312,0.8125 -1.85676,2.139675 -2.03125,4.1875 -2.03125,4.1875 -0.0234,0.304856 -0.0847,0.440161 -0.15625,0.5 -0.0358,0.02992 -0.0996,0.02786 -0.125,0.03125 -0.007,-6e-4 -0.0312,0 -0.0312,0 -0.0562,0.0082 -0.10805,0.01298 -0.15625,0 -0.0482,-0.01298 -0.0846,-0.03411 -0.125,-0.0625 -0.24263,-0.170337 -0.34375,-0.5625 -0.34375,-0.5625 -0.24396,-0.741075 -0.59375,-0.5625 -0.59375,-0.5625 0.1593,0.197212 0.1875,2.21875 0.1875,2.21875 -0.31808,0.05536 -0.54533,0.206314 -0.71875,0.375 -0.0276,0.02626 -0.0693,0.0356 -0.0937,0.0625 -0.0295,0.0333 -0.0687,0.06064 -0.0937,0.09375 -0.0367,0.04777 -0.0658,0.111523 -0.0937,0.15625 -0.0933,0.158038 -0.125,0.3125 -0.125,0.3125 -0.0305,0.110294 -0.0594,0.196338 -0.0625,0.28125 -0.003,0.08491 -0.0111,0.160681 0,0.21875 0.0223,0.116138 0.0625,0.1875 0.0625,0.1875 0.16889,0.29135 0.375,0.09375 0.375,0.09375 0.26272,-0.262738 0.59375,-0.15625 0.59375,-0.15625 0.52544,0.131362 0.34375,0.90625 0.34375,0.90625 -0.27194,3.894825 3.28125,5.4375 3.28125,5.4375 0.35744,0.187659 0.66923,0.45781 0.9375,0.75 0.0958,0.104017 0.19589,0.200605 0.28125,0.3125 0.0322,0.04256 0.063,0.0816 0.0937,0.125 0.0577,0.08079 0.10344,0.167021 0.15625,0.25 0.0599,0.09467 0.13377,0.185208 0.1875,0.28125 0.12673,0.225446 0.21756,0.468151 0.3125,0.6875 0.0388,0.09034 0.0912,0.194364 0.125,0.28125 0.0442,0.114092 0.089,0.23852 0.125,0.34375 0.0549,0.162883 0.11973,0.338329 0.15625,0.46875 0.0872,0.31216 0.125,0.53125 0.125,0.53125 0.86289,3.63211 -1.59375,4.15625 -1.59375,4.15625 -0.2047,0.0884 -0.41686,0.13927 -0.625,0.15625 -0.19259,0.0143 -0.39996,0.008 -0.59375,-0.0312 -0.0192,-0.004 -0.0433,0.004 -0.0625,0 -0.0757,-0.0175 -0.14307,-0.0689 -0.21875,-0.0937 -0.11367,-0.0374 -0.2304,-0.0721 -0.34375,-0.125 -0.0346,-0.0163 -0.0592,-0.0449 -0.0937,-0.0625 -0.17715,-0.0896 -0.35617,-0.19023 -0.53125,-0.3125 -0.2518,-0.17761 -0.50579,-0.39341 -0.75,-0.625 -0.1872,-0.17719 -0.3817,-0.36167 -0.5625,-0.5625 -0.31771,-0.35256 -0.61554,-0.72937 -0.90625,-1.125 -0.43012,-0.58694 -0.84222,-1.20545 -1.1875,-1.78125 -0.40951,-0.682019 -0.63004,-1.11635 -0.875,-1.59375 -0.31782,-0.61225 -0.53125,-1.0625 -0.53125,-1.0625 -2.05364,-4.21385 -4.59375,-6.375 -4.59375,-6.375 C 253.16848,90.571475 253.5,90.375 253.5,90.375 c 0.15935,-0.140212 0.53125,-0.6875 0.53125,-0.6875 0.31866,-0.404062 0.5625,-0.09375 0.5625,-0.09375 1.28459,0.6384 2.46875,-0.15625 2.46875,-0.15625 0.11351,-0.05886 0.22099,-0.145641 0.3125,-0.21875 0.0681,-0.05476 0.13065,-0.09499 0.1875,-0.15625 0.0205,-0.02182 0.0434,-0.03995 0.0625,-0.0625 0.14437,-0.172391 0.26762,-0.361919 0.34375,-0.5625 0.0423,-0.111759 0.0682,-0.228943 0.0937,-0.34375 0.002,-0.01023 -0.002,-0.02102 0,-0.03125 0.004,-0.02021 -0.004,-0.04228 0,-0.0625 0.0196,-0.104752 0.0537,-0.209453 0.0625,-0.3125 0.004,-0.04463 -0.002,-0.0811 0,-0.125 0.009,-0.170963 0.0102,-0.349295 0,-0.5 -0.016,-0.221659 -0.0364,-0.271478 -0.0625,-0.40625 -0.036,-0.230917 -0.0625,-0.375 -0.0625,-0.375 -0.35655,0.938337 -1.34375,0.84375 -1.34375,0.84375 -0.10726,-0.0094 -0.21905,-0.0326 -0.3125,-0.0625 -0.0935,-0.0299 -0.16942,-0.04615 -0.25,-0.09375 -0.0806,-0.0476 -0.15008,-0.125012 -0.21875,-0.1875 -0.0687,-0.06249 -0.1298,-0.112937 -0.1875,-0.1875 -0.23079,-0.298252 -0.37556,-0.683597 -0.46875,-1.0625 -0.0466,-0.189452 -0.0702,-0.386648 -0.0937,-0.5625 -0.0707,-0.527555 -0.0625,-0.9375 -0.0625,-0.9375 -0.001,-0.07976 -0.0109,-0.136448 0,-0.1875 0.0762,-0.357367 0.40625,-0.09375 0.40625,-0.09375 1.50976,1.3511 3.25,-0.09375 3.25,-0.09375 1.46269,-1.46375 0.4375,-2.96875 0.4375,-2.96875 -0.25351,1.0792 -1.625,0.96875 -1.625,0.96875 -0.35435,-0.02986 -0.64307,-0.13059 -0.875,-0.25 -0.0931,-0.04871 -0.17404,-0.09662 -0.25,-0.15625 -0.0589,-0.04582 -0.1068,-0.105016 -0.15625,-0.15625 -0.0943,-0.09818 -0.18619,-0.199701 -0.25,-0.3125 -0.1154,-0.208869 -0.18159,-0.431298 -0.21875,-0.65625 -0.005,-0.03073 0.004,-0.06317 0,-0.09375 -0.004,-0.03262 -0.0282,-0.06142 -0.0312,-0.09375 -0.0301,-0.317425 -7.1e-4,-0.623025 0.0312,-0.84375 0.032,-0.220725 0.0625,-0.375 0.0625,-0.375 3.1973,-0.83525 1.96875,-3.1875 1.96875,-3.1875 -0.2344,0.891587 -1.09375,0.78125 -1.09375,0.78125 -0.24139,0 -0.4311,-0.08501 -0.5625,-0.21875 -0.0657,-0.06687 -0.11184,-0.135162 -0.15625,-0.21875 -0.13322,-0.250765 -0.17144,-0.549388 -0.1875,-0.75 -0.0107,-0.133741 -0.0312,-0.25 -0.0312,-0.25 0,-0.229881 -0.0177,-0.412046 -0.0625,-0.5625 -0.0448,-0.150454 -0.0965,-0.258086 -0.15625,-0.34375 -0.1195,-0.171328 -0.25,-0.21875 -0.25,-0.21875 0.36209,-0.140742 0.57737,-0.378696 0.6875,-0.625 0.0367,-0.0821 0.0435,-0.170244 0.0625,-0.25 0.0762,-0.319023 0.0312,-0.59375 0.0312,-0.59375 -0.11262,-0.34735 -0.0625,-0.84375 -0.0625,-0.84375 0.1314,-0.628838 0.21875,-1.53125 0.21875,-1.53125 0,-1.248113 -1.46875,-1.125 -1.46875,-1.125 0,-0.797725 1.0625,-2.28125 1.0625,-2.28125 0.089,-0.146623 0.18769,-0.291937 0.28125,-0.40625 0.28069,-0.342938 0.57164,-0.532196 0.8125,-0.65625 0.32115,-0.165405 0.53125,-0.1875 0.53125,-0.1875 0.41244,-0.309812 -0.0312,-0.625 -0.0312,-0.625 -0.92837,-0.63805 -1.75,0.0625 -1.75,0.0625 -0.7124,-0.628838 -1.3125,-0.40625 -1.3125,-0.40625 -0.32806,0.178456 -0.35937,0.331986 -0.3125,0.4375 0.0234,0.05276 0.0557,0.09659 0.0937,0.125 0.0381,0.02841 0.0625,0.03125 0.0625,0.03125 0.2999,0.431975 0.15625,0.9375 0.15625,0.9375 -0.0797,0.459919 -0.32686,0.680333 -0.5625,0.78125 -0.11782,0.05046 -0.22911,0.0534 -0.3125,0.0625 -0.0834,0.0091 -0.15625,0 -0.15625,0 -0.93761,-0.02832 -0.96875,-0.625 -0.96875,-0.625 -0.0282,-0.3801 0.10939,-0.641612 0.25,-0.78125 0.0703,-0.06982 0.13301,-0.09639 0.1875,-0.125 0.0545,-0.02861 0.0937,-0.03125 0.0937,-0.03125 0.35656,-0.01876 0.375,-0.4375 0.375,-0.4375 -0.21112,-0.668681 -0.66403,-0.525487 -0.875,-0.40625 -0.0703,0.03975 -0.0937,0.09375 -0.0937,0.09375 -0.1102,0.05631 -0.21926,0.06339 -0.28125,0.0625 -0.062,-8.92e-4 -0.0975,-0.03316 -0.125,-0.0625 -0.0551,-0.05868 -0.0625,-0.125 -0.0625,-0.125 l 0,-0.6875 c -0.0234,-0.150225 -0.0582,-0.286983 -0.125,-0.375 -0.13358,-0.176034 -0.32729,-0.224191 -0.4375,-0.25 -0.0551,-0.01291 -0.0937,-0.03125 -0.0937,-0.03125 z" transform="matrix(0.8,0,0,0.8,-28.3465,-204.13245)" id="path254" style="fill:#ef3125;fill-opacity:1;fill-rule:nonzero;stroke:none"/><path d="m 170.75423,-147.49647 c 0,0 -0.26995,-0.0977 -0.1048,-0.40535 0,0 0.35265,-0.50306 0.58521,-0.67585 0,0 0.39741,-0.40535 0.75772,-0.06 l 0.7801,0.96082 0.015,0.46567 c 0,0 -0.43509,-0.21782 -0.81012,0.0374 0,0 -0.31499,0.24785 -0.47277,-0.11983 0,0 -0.0674,-0.15777 0.0824,-0.32291 0,0 0.33028,-0.19517 0.23255,-0.36795 0,0 -0.0297,-0.11246 -0.19488,-0.0751 0,0 -0.30762,0.008 -0.5702,0.19517 0,0 -0.26995,0.16514 -0.30026,0.36795" id="path264" style="fill:#ffffff;fill-opacity:1;fill-rule:nonzero;stroke:none"/><path d="m 170.75423,-147.49647 c 0,0 -0.26995,-0.0977 -0.1048,-0.40535 0,0 0.35265,-0.50306 0.58521,-0.67585 0,0 0.39741,-0.40535 0.75772,-0.06 l 0.7801,0.96082 0.015,0.46567 c 0,0 -0.43509,-0.21782 -0.81012,0.0374 0,0 -0.31499,0.24785 -0.47277,-0.11983 0,0 -0.0674,-0.15777 0.0824,-0.32291 0,0 0.33028,-0.19517 0.23255,-0.36795 0,0 -0.0297,-0.11246 -0.19488,-0.0751 0,0 -0.30762,0.008 -0.5702,0.19517 0,0 -0.26995,0.16514 -0.30026,0.36795 z" id="path266" style="fill:none;stroke:#2c426e;stroke-width:0.0580683;stroke-linecap:butt;stroke-linejoin:miter;stroke-miterlimit:3.86400008;stroke-opacity:1;stroke-dasharray:none"/><path d="m 217.46875,45.25 0,14.125 6.8125,0 c 0,0 5.72179,-0.305925 6.03125,-6.78125 0,0 0.0138,-6.564787 -6.53125,-7.34375 l -6.3125,0 z m 5.3125,3.375 c 4.154,0.52545 3.78125,3.78125 3.78125,3.78125 0,3.547488 -3.90625,3.625 -3.90625,3.625 l -1.6875,0 0,-7.375 1.8125,-0.03125 z" transform="matrix(0.8,0,0,0.8,-28.3465,-204.13245)" id="path270" style="fill:#ef3125;fill-opacity:1;stroke:#ef3125;stroke-width:0.14481667;stroke-linecap:butt;stroke-linejoin:miter;stroke-miterlimit:3.86400008;stroke-opacity:1;stroke-dasharray:none"/><path d="m 162.47284,-167.58754 0,11.11173 2.90313,0 0,-4.18177 4.04326,0 0,4.21179 3.00057,0 0,-11.04402 -2.97055,0 0,4.0543 -4.03589,0 0,-4.15203 -2.94052,0" id="path276" style="fill:#ee2922;fill-opacity:1;fill-rule:nonzero;stroke:none"/><path d="m 162.47284,-167.58754 0,11.11173 2.90313,0 0,-4.18177 4.04326,0 0,4.21179 3.00057,0 0,-11.04402 -2.97055,0 0,4.0543 -4.03589,0 0,-4.15203 -2.94052,0 z" id="path278" style="fill:#ef3125;fill-opacity:1;stroke:#ef3125;stroke-width:0.11585334;stroke-linecap:butt;stroke-linejoin:miter;stroke-miterlimit:3.86400008;stroke-opacity:1;stroke-dasharray:none"/><path d="m 187.06293,-163.62331 2.17515,-1.40384 c 0,0 -1.31999,-2.52271 -4.63583,-2.52271 0,0 -5.27346,-0.12775 -5.64849,5.61591 0,0 -0.2252,5.24031 5.64849,5.79578 0,0 2.90313,0.0977 4.44831,-2.14711 l -2.04769,-1.74913 c 0,0 -0.9526,1.15599 -2.37032,1.15599 0,0 -2.9408,0.0227 -3.00085,-3.05553 0,0 0.03,-2.77793 2.90313,-2.90568 0,0 1.38769,-0.03 2.5281,1.21632" id="path280" style="fill:#ee2922;fill-opacity:1;fill-rule:nonzero;stroke:none"/><path d="m 187.06293,-163.62331 2.17515,-1.40384 c 0,0 -1.31999,-2.52271 -4.63583,-2.52271 0,0 -5.27346,-0.12775 -5.64849,5.61591 0,0 -0.2252,5.24031 5.64849,5.79578 0,0 2.90313,0.0977 4.44831,-2.14711 l -2.04769,-1.74913 c 0,0 -0.9526,1.15599 -2.37032,1.15599 0,0 -2.9408,0.0227 -3.00085,-3.05553 0,0 0.03,-2.77793 2.90313,-2.90568 0,0 1.38769,-0.03 2.5281,1.21632 z" id="path282" style="fill:#ef3125;fill-opacity:1;stroke:#ef3125;stroke-width:0.11585334;stroke-linecap:butt;stroke-linejoin:miter;stroke-miterlimit:3.86400008;stroke-opacity:1;stroke-dasharray:none"/><path d="m 153.11817,-135.97204 c 0,0 -0.24756,-0.72061 0.48778,-0.90076 0,0 1.12511,0.0901 0.97499,-0.87839 0,0 0.75771,0.21018 0.6379,1.11094 0,0 -0.0751,0.5331 -0.42773,0.81098 l -1.67294,-0.14277" id="path284" style="fill:#ffffff;fill-opacity:1;fill-rule:nonzero;stroke:none"/><path d="m 153.11817,-135.97204 c 0,0 -0.24756,-0.72061 0.48778,-0.90076 0,0 1.12511,0.0901 0.97499,-0.87839 0,0 0.75771,0.21018 0.6379,1.11094 0,0 -0.0751,0.5331 -0.42773,0.81098 l -1.67294,-0.14277 z" id="path286" style="fill:none;stroke:#2c426e;stroke-width:0.0580683;stroke-linecap:butt;stroke-linejoin:miter;stroke-miterlimit:3.86400008;stroke-opacity:1;stroke-dasharray:none"/><path d="m 184.45977,-136.94787 c 0,0 -2.078,2.28988 -1.75537,5.45785 0,0 0.31499,2.89832 2.27288,2.80825 0,0 2.40063,0.0598 2.11567,-2.93543 0,0 -0.045,-1.14125 -0.48778,-1.89982 0,0 -1.20016,-2.35729 -2.1454,-3.43085" id="path288" style="fill:#2c426e;fill-opacity:1;fill-rule:nonzero;stroke:none"/><path d="m 184.45977,-136.94787 c 0,0 -2.078,2.28988 -1.75537,5.45785 0,0 0.31499,2.89832 2.27288,2.80825 0,0 2.40063,0.0598 2.11567,-2.93543 0,0 -0.045,-1.14125 -0.48778,-1.89982 0,0 -1.20016,-2.35729 -2.1454,-3.43085 z" id="path290" style="fill:none;stroke:#ee2922;stroke-width:0.11585334;stroke-linecap:butt;stroke-linejoin:miter;stroke-miterlimit:3.86400008;stroke-opacity:1;stroke-dasharray:none"/><path d="m 153.79347,-144.92135 -0.36002,-1.77944 -0.008,-0.007 c 0.51015,-0.29289 1.16278,-0.0977 1.45539,0.41271 l -1.08772,1.3741" id="path292" style="fill:#ffffff;fill-opacity:1;fill-rule:nonzero;stroke:none"/><path d="m 153.79347,-144.92135 -0.36002,-1.77944 -0.008,-0.007 c 0.51015,-0.29289 1.16278,-0.0977 1.45539,0.41271 l -1.08772,1.3741 z" id="path294" style="fill:none;stroke:#2c426e;stroke-width:0.0580683;stroke-linecap:butt;stroke-linejoin:miter;stroke-miterlimit:3.86400008;stroke-opacity:1;stroke-dasharray:none"/><path d="m 150.50029,-131.18182 c 0,0 -0.18015,-1.1186 1.08772,-1.21661 0,0 0.53253,0.098 0.48749,-0.39004 0,0 0.0751,-0.40564 -0.60023,-0.42037 0,0 -0.29997,-0.015 -0.59994,0.51044 0,0 -0.37504,0.59315 -0.83279,0.33028" id="path296" style="fill:none;stroke:#2c426e;stroke-width:0.03143903;stroke-linecap:butt;stroke-linejoin:miter;stroke-miterlimit:3.86400008;stroke-opacity:1;stroke-dasharray:none"/><path d="m 150.04254,-132.36812 c 0,0 -1.08743,0.66793 -1.26759,1.26107 0,0 -1.24549,-1.11094 0.29998,-2.28987 0.42772,0.31527 0.65262,0.4957 0.93759,0.93108 l 0.03,0.0977" id="path298" style="fill:#ffffff;fill-opacity:1;fill-rule:nonzero;stroke:none"/><path d="m 150.04254,-132.36812 c 0,0 -1.08743,0.66793 -1.26759,1.26107 0,0 -1.24549,-1.11094 0.29998,-2.28987 0.42772,0.31527 0.65262,0.4957 0.93759,0.93108 l 0.03,0.0977 z" id="path300" style="fill:none;stroke:#2c426e;stroke-width:0.0580683;stroke-linecap:butt;stroke-linejoin:miter;stroke-miterlimit:3.86400008;stroke-opacity:1;stroke-dasharray:none"/><path d="m 152.0755,-130.41618 c 0,0 -0.72005,0.59315 -0.81749,1.24635 0,0 -1.35795,-0.60845 -0.75772,-2.01199 0.40506,0 0.75007,-0.12011 1.05005,0.0674 0.2926,0.18044 0.25521,0.51072 0.41271,0.60079 l 0.11245,0.0974" id="path302" style="fill:#ffffff;fill-opacity:1;fill-rule:nonzero;stroke:none"/><path d="m 152.0755,-130.41618 c 0,0 -0.72005,0.59315 -0.81749,1.24635 0,0 -1.35795,-0.60845 -0.75772,-2.01199 0.40506,0 0.75007,-0.12011 1.05005,0.0674 0.2926,0.18044 0.25521,0.51072 0.41271,0.60079 l 0.11245,0.0974 z" id="path304" style="fill:none;stroke:#2c426e;stroke-width:0.0580683;stroke-linecap:butt;stroke-linejoin:miter;stroke-miterlimit:3.86400008;stroke-opacity:1;stroke-dasharray:none"/><path d="m 155.6763,-111.65417 c 0,0 0.81777,-0.51836 1.87546,-0.24048 l -0.4501,-0.67558 c 0,0 -0.41271,-0.22519 -0.94523,-0.30762" id="path306" style="fill:none;stroke:#2c426e;stroke-width:0.03143903;stroke-linecap:butt;stroke-linejoin:miter;stroke-miterlimit:3.86400008;stroke-opacity:1;stroke-dasharray:none"/><path d="m 156.15643,-112.87785 c -0.49514,-0.0824 -1.10274,-0.0297 -1.57549,0.45803 0,0 -0.70504,-1.1336 0.8104,-1.8698 0.68266,0.053 1.02767,0.82599 0.76509,1.41177" id="path308" style="fill:#ffffff;fill-opacity:1;fill-rule:nonzero;stroke:none"/><path d="m 156.15643,-112.87785 c -0.49514,-0.0824 -1.10274,-0.0297 -1.57549,0.45803 0,0 -0.70504,-1.1336 0.8104,-1.8698 0.68266,0.053 1.02767,0.82599 0.76509,1.41177 z" id="path310" style="fill:none;stroke:#2c426e;stroke-width:0.0580683;stroke-linecap:butt;stroke-linejoin:miter;stroke-miterlimit:3.86400008;stroke-opacity:1;stroke-dasharray:none"/><path d="m 156.2465,-110.04752 c 0,0 -0.72769,-0.0674 -1.15513,0.42065 0,0 -0.64527,-0.85601 0.29997,-1.73441 0,0 0.20253,-0.0603 0.28496,-0.29289 0.59258,0.12804 1.05769,1.01379 0.5702,1.60665" id="path312" style="fill:#ffffff;fill-opacity:1;fill-rule:nonzero;stroke:none"/><path d="m 156.2465,-110.04752 c 0,0 -0.72769,-0.0674 -1.15513,0.42065 0,0 -0.64527,-0.85601 0.29997,-1.73441 0,0 0.20253,-0.0603 0.28496,-0.29289 0.59258,0.12804 1.05769,1.01379 0.5702,1.60665 z" id="path314" style="fill:none;stroke:#2c426e;stroke-width:0.0580683;stroke-linecap:butt;stroke-linejoin:miter;stroke-miterlimit:3.86400008;stroke-opacity:1;stroke-dasharray:none"/><path d="m 174.40772,-103.53083 c 0,0 -0.69767,-1.02852 0.47276,-1.23105 0,0 0.62997,-0.20281 0.50222,-0.55576 0,0 -0.29232,-0.48805 -1.20725,0.1051 0,0 -0.48041,0.27815 -0.62289,1.04381 0,0 -0.21755,0.69058 -1.04268,0.69058 m -1.51545,-0.18751 c 0,0 0.22519,-0.12804 -0.007,-0.33029 0,0 -0.49514,-0.26286 0.0748,-0.841 0,0 0.58521,-0.66056 1.37296,-0.40562 0,0 0.47248,0.20253 0.51752,-0.28553 0,0 0.15777,-0.32235 -0.57757,-0.87074 0,0 -0.52488,-0.29261 -0.7801,0.0527 0,0 -0.28524,0.32293 -0.62997,0.0297" id="path316" style="fill:none;stroke:#2c426e;stroke-width:0.03143903;stroke-linecap:butt;stroke-linejoin:miter;stroke-miterlimit:3.86400008;stroke-opacity:1;stroke-dasharray:none"/><path d="m 170.96469,-106.31641 c 0,0 -0.5702,-0.36739 -1.04296,0.30819 0,0 -0.80276,-1.70467 1.48541,-2.59013 0.1575,0.45009 -0.99027,1.92191 -0.5025,2.18449 l 0.06,0.0974" id="path318" style="fill:#ffffff;fill-opacity:1;fill-rule:nonzero;stroke:none"/><path d="m 170.96469,-106.31641 c 0,0 -0.5702,-0.36739 -1.04296,0.30819 0,0 -0.80276,-1.70467 1.48541,-2.59013 0.1575,0.45009 -0.99027,1.92191 -0.5025,2.18449 l 0.06,0.0974 z" id="path320" style="fill:none;stroke:#2c426e;stroke-width:0.0580683;stroke-linecap:butt;stroke-linejoin:miter;stroke-miterlimit:3.86400008;stroke-opacity:1;stroke-dasharray:none"/><path d="m 172.50988,-103.47815 c 0,0 -0.89284,0.57078 -1.07271,1.80947 0,0 -0.96025,-0.6532 -0.44274,-1.99698 0.44274,-0.33029 1.05798,-0.16543 1.2979,0.18015 l 0.21755,0.007" id="path322" style="fill:#ffffff;fill-opacity:1;fill-rule:nonzero;stroke:none"/><path d="m 172.50988,-103.47815 c 0,0 -0.89284,0.57078 -1.07271,1.80947 0,0 -0.96025,-0.6532 -0.44274,-1.99698 0.44274,-0.33029 1.05798,-0.16543 1.2979,0.18015 l 0.21755,0.007 z" id="path324" style="fill:none;stroke:#2c426e;stroke-width:0.0580683;stroke-linecap:butt;stroke-linejoin:miter;stroke-miterlimit:3.86400008;stroke-opacity:1;stroke-dasharray:none"/><path d="m 176.00559,-102.60741 c 0,0 -0.43537,-0.46539 -1.38798,0.78123 0,0 -0.79483,-0.34585 -0.20989,-1.70465 1.12539,-0.37504 0.9526,0.14276 1.33529,0.68322 l 0.26258,0.2402" id="path326" style="fill:#ffffff;fill-opacity:1;fill-rule:evenodd;stroke:none"/><path d="m 176.00559,-102.60741 c 0,0 -0.43537,-0.46539 -1.38798,0.78123 0,0 -0.79483,-0.34585 -0.20989,-1.70465 1.12539,-0.37504 0.9526,0.14276 1.33529,0.68322 l 0.26258,0.2402 z" id="path328" style="fill:none;stroke:#2c426e;stroke-width:0.0580683;stroke-linecap:butt;stroke-linejoin:miter;stroke-miterlimit:3.86400008;stroke-opacity:1;stroke-dasharray:none"/><path d="m 175.36797,-149.20821 -5.96376,0 c 0,0 -1.54518,-2.09471 -1.78538,-2.24483 0,0 -0.36002,-0.36796 -0.64527,-0.37533 0,0 -0.0448,-0.59314 0.69796,-0.50307 0,0 0.80247,0.0974 1.17014,0.40535 0,0 0.18752,-0.85601 0.89255,-0.85601 0,0 0.29997,-0.0374 0.28524,0.20281 0,0 -0.41271,1.65169 0.72742,1.91456 0,0 0.81777,0.06 0.75771,-0.93844 0,0 -0.12746,-0.41299 -0.53989,-0.24786 0,0 -0.34529,0.0975 -0.28524,-0.26286 0,0 0.2099,-0.79568 1.18516,-0.48778 0,0 -0.06,-1.1489 0.74271,-1.22396 0,0 0.45775,0.03 0.53253,0.51072 l 0,0.54782 c 0,0 0,0.27788 0.35265,0.0977 0,0 0.56256,-0.45804 0.78775,0.25522 0,0 -0.015,0.33028 -0.30025,0.34529 0,0 -0.47248,0.14276 -0.42744,0.75092 0,0 0.03,0.49542 0.78009,0.51808 0,0 0.69031,0.045 0.81778,-0.69087 0,0 0.12746,-0.39033 -0.11246,-0.73591 0,0 -0.41243,-0.19488 0.11246,-0.48041 0,0 0.48777,-0.1725 1.05769,0.33057 0,0 0.64527,-0.57814 1.38797,-0.0677 0,0 0.37475,0.25522 0.0448,0.50307 0,0 -0.74271,0.0601 -1.31263,0.99849 0,0 -0.8478,1.20131 -0.8478,1.83949 0,0 -0.0719,-0.0609 -0.11245,-0.10509" id="path330" style="fill:#ffffff;fill-opacity:1;fill-rule:nonzero;stroke:none"/><path d="m 175.36797,-149.20821 -5.96376,0 c 0,0 -1.54518,-2.09471 -1.78538,-2.24483 0,0 -0.36002,-0.36796 -0.64527,-0.37533 0,0 -0.0448,-0.59314 0.69796,-0.50307 0,0 0.80247,0.0974 1.17014,0.40535 0,0 0.18752,-0.85601 0.89255,-0.85601 0,0 0.29997,-0.0374 0.28524,0.20281 0,0 -0.41271,1.65169 0.72742,1.91456 0,0 0.81777,0.06 0.75771,-0.93844 0,0 -0.12746,-0.41299 -0.53989,-0.24786 0,0 -0.34529,0.0975 -0.28524,-0.26286 0,0 0.2099,-0.79568 1.18516,-0.48778 0,0 -0.06,-1.1489 0.74271,-1.22396 0,0 0.45775,0.03 0.53253,0.51072 l 0,0.54782 c 0,0 0,0.27788 0.35265,0.0977 0,0 0.56256,-0.45804 0.78775,0.25522 0,0 -0.015,0.33028 -0.30025,0.34529 0,0 -0.47248,0.14276 -0.42744,0.75092 0,0 0.03,0.49542 0.78009,0.51808 0,0 0.69031,0.045 0.81778,-0.69087 0,0 0.12746,-0.39033 -0.11246,-0.73591 0,0 -0.41243,-0.19488 0.11246,-0.48041 0,0 0.48777,-0.1725 1.05769,0.33057 0,0 0.64527,-0.57814 1.38797,-0.0677 0,0 0.37475,0.25522 0.0448,0.50307 0,0 -0.74271,0.0601 -1.31263,0.99849 0,0 -0.8478,1.20131 -0.8478,1.83949 0,0 -0.0719,-0.0609 -0.11245,-0.10509 z" id="path332" style="fill:none;stroke:#2c426e;stroke-width:0.03143903;stroke-linecap:butt;stroke-linejoin:miter;stroke-miterlimit:3.86400008;stroke-opacity:1;stroke-dasharray:none"/></g></g></svg>