<?xml version="1.0" encoding="UTF-8" standalone="no"?>
<!DOCTYPE svg PUBLIC "-//W3C//DTD SVG 1.0//EN" "http://www.w3.org/TR/2001/REC-SVG-20010904/DTD/svg10.dtd">
<!-- Created with Inkscape (http://www.inkscape.org/) -->
<svg xmlns:svg="http://www.w3.org/2000/svg" xmlns="http://www.w3.org/2000/svg" version="1.0" width="800" height="900" id="svg2">
  <defs id="defs4"/>
  <g id="layer1">
    <path d="M 41.92995,49.588284 L 41.92995,207.08365 C 100.43385,223.97957 143.24656,277.92636 143.24656,341.84773 C 143.24656,389.7457 119.19129,431.9762 82.521541,457.29023 C 135.5029,610.96243 240.28345,743.86145 396.53808,856.22438 C 631.46197,687.29031 750.02974,471.81384 751.14619,209.35678 L 751.14619,49.588284 L 41.92995,49.588284 z" id="path4721" style="fill:#ffffff;fill-rule:evenodd;stroke:#000000;stroke-width:15.5871706;stroke-linecap:butt;stroke-linejoin:miter;stroke-miterlimit:4;stroke-dasharray:none;stroke-opacity:1"/>
    <path d="M 174.01083,87.595187 L 174.01083,147.32954 L 184.01286,147.32954 C 194.70942,147.32956 202.83606,144.8059 208.39281,139.75855 C 213.94942,134.71127 216.72775,127.27921 216.72784,117.46236 C 216.72775,107.64561 213.94942,100.21356 208.39281,95.166168 C 202.83606,90.118926 194.70942,87.595268 184.01286,87.595187 L 174.01083,87.595187 z M 145.60229,66.827082 L 184.42961,66.827082 C 194.06114,66.827184 202.03729,67.359699 208.35808,68.424629 C 214.67873,69.489759 220.01546,71.179915 224.36828,73.495103 C 231.96231,77.477483 237.72737,83.219384 241.66345,90.720822 C 245.59933,98.222414 247.56732,107.18256 247.56743,117.60128 C 247.56732,127.97379 245.59933,136.88763 241.66345,144.34282 C 237.72737,151.79805 231.96231,157.53995 224.36828,161.56854 C 219.92284,163.88383 214.55139,165.57398 208.25389,166.63901 C 201.95625,167.70404 194.01483,168.23656 184.42961,168.23656 L 145.60229,168.23656 L 145.60229,66.827082 z M 353.28334,96.138588 L 324.94425,96.138588 C 324.94418,91.276567 323.27718,87.49108 319.94324,84.782116 C 316.60916,82.073319 311.9786,80.718879 306.05153,80.718791 C 301.60613,80.718879 298.00587,81.772332 295.25072,83.879155 C 292.4955,85.986146 291.1179,88.637145 291.11794,91.832158 C 291.1179,97.157384 298.45735,101.16282 313.1363,103.84849 C 317.85942,104.68205 321.56387,105.37664 324.24967,105.93224 C 335.82601,108.29389 344.19575,111.88258 349.35893,116.69832 C 354.52191,121.51416 357.10345,128.06641 357.10356,136.35509 C 357.10345,146.63497 352.64653,155.01629 343.73279,161.49908 C 334.81886,167.98188 323.09195,171.22327 308.55203,171.22327 C 293.1785,171.22327 281.27795,168.27129 272.85034,162.36731 C 264.4227,156.46335 260.20888,148.0936 260.20889,137.25805 L 260.20889,136.63292 L 288.82581,136.63292 L 288.82581,138.36938 C 288.82577,143.37042 290.51593,147.17906 293.89628,149.79531 C 297.27655,152.4116 302.20811,153.71974 308.69095,153.71972 C 314.61802,153.71974 319.37593,152.51579 322.96468,150.10788 C 326.5533,147.7 328.34765,144.55122 328.34772,140.66151 C 328.34765,139.08715 327.98878,137.66325 327.27111,136.38981 C 326.5533,135.11644 325.54615,134.10929 324.24967,133.36837 C 321.7954,131.97923 316.97961,130.74056 309.80229,129.65234 C 302.62486,128.56419 297.23025,127.5802 293.61845,126.70035 C 282.31983,123.92205 274.35526,120.29863 269.72471,115.83009 C 265.09413,111.36164 262.77885,105.16826 262.77885,97.249925 C 262.77885,86.784919 266.84217,78.600395 274.96883,72.696329 C 283.09545,66.792455 294.33615,63.840469 308.69095,63.840365 C 322.25845,63.840469 332.92033,66.641961 340.67661,72.244849 C 348.43272,77.847928 352.63496,85.8125 353.28334,96.138588 L 353.28334,96.138588 z M 474.21066,99.40314 L 443.50999,99.40314 C 442.16704,94.49481 439.9791,90.84824 436.94615,88.463419 C 433.91306,86.078758 429.98866,84.886387 425.17293,84.886304 C 417.71766,84.886387 411.75581,87.838372 407.28736,93.742268 C 402.81882,99.646313 400.58457,107.553 400.58461,117.46236 C 400.58457,127.27921 402.92301,135.16275 407.59992,141.113 C 412.27675,147.0633 418.41225,150.03844 426.00643,150.03842 C 431.23891,150.03844 435.58006,148.5335 439.02991,145.52361 C 442.47961,142.51377 444.50548,138.46202 445.10753,133.36837 L 475.66929,133.36837 C 473.49282,145.03743 467.79722,154.26383 458.58249,161.0476 C 449.36757,167.83138 437.95323,171.22327 424.33943,171.22327 C 416.51371,171.22327 409.39422,170.06563 402.98093,167.75035 C 396.56755,165.43507 390.76777,161.93899 385.58156,157.26211 C 380.21008,152.44633 376.21622,146.78546 373.59996,140.27949 C 370.98368,133.77358 369.67555,126.21418 369.67555,117.60128 C 369.67555,101.02391 374.76917,87.919407 384.95643,78.287742 C 395.14366,68.656257 408.91959,63.840469 426.28427,63.840365 C 439.15718,63.840469 449.7959,66.954524 458.20047,73.182539 C 466.60485,79.410744 471.94158,88.150936 474.21066,99.40314 L 474.21066,99.40314 z M 534.15338,145.59307 L 560.06141,145.59307 C 560.94119,148.64927 562.36509,151.01086 564.33311,152.67784 C 566.30107,154.34486 568.67423,155.17836 571.45262,155.17835 C 576.36097,155.17836 580.16961,153.01357 582.87855,148.68398 C 585.58737,144.35442 587.03442,138.13788 587.2197,130.03436 C 584.02455,133.22949 580.50533,135.60265 576.66201,137.15386 C 572.81859,138.70513 568.58162,139.48075 563.95109,139.48072 C 554.31948,139.48075 546.59801,136.54034 540.78667,130.65948 C 534.9753,124.7787 532.06962,116.90674 532.06962,107.04358 C 532.06962,95.745062 535.83195,86.71546 543.35663,79.954747 C 550.88129,73.194211 561.05695,69.813898 573.88366,69.8138 C 586.29353,69.813898 596.15663,74.270817 603.473,83.18457 C 610.78922,92.098492 614.44737,104.24215 614.44745,119.61558 C 614.44737,135.7763 610.54612,148.37143 602.74369,157.40102 C 594.94111,166.43064 584.04771,170.94544 570.06344,170.94544 C 560.10769,170.94544 551.98105,168.71119 545.6835,164.24269 C 539.38591,159.7742 535.54254,153.55767 534.15338,145.59307 L 534.15338,145.59307 z M 573.328,86.692226 C 569.16044,86.692308 565.76855,88.39404 563.15232,91.797429 C 560.53601,95.200971 559.22788,99.634737 559.22791,105.09874 C 559.22788,110.33134 560.47813,114.55673 562.97867,117.77492 C 565.47914,120.99322 568.74369,122.60234 572.77233,122.60229 C 576.66196,122.60234 579.85705,120.97006 582.35761,117.70547 C 584.85806,114.44097 586.10831,110.19242 586.10837,104.95982 C 586.10831,99.634737 584.89279,95.258853 582.46179,91.832158 C 580.03069,88.405617 576.9861,86.692308 573.328,86.692226 L 573.328,86.692226 z M 626.95001,145.59307 L 652.85805,145.59307 C 653.73782,148.64927 655.16172,151.01086 657.12975,152.67784 C 659.0977,154.34486 661.47086,155.17836 664.24925,155.17835 C 669.1576,155.17836 672.96624,153.01357 675.67518,148.68398 C 678.384,144.35442 679.83105,138.13788 680.01634,130.03436 C 676.82119,133.22949 673.30196,135.60265 669.45864,137.15386 C 665.61522,138.70513 661.37825,139.48075 656.74772,139.48072 C 647.11611,139.48075 639.39464,136.54034 633.5833,130.65948 C 627.77193,124.7787 624.86625,116.90674 624.86625,107.04358 C 624.86625,95.745062 628.62858,86.71546 636.15327,79.954747 C 643.67792,73.194211 653.85358,69.813898 666.6803,69.8138 C 679.09016,69.813898 688.95327,74.270817 696.26964,83.18457 C 703.58585,92.098492 707.244,104.24215 707.24409,119.61558 C 707.244,135.7763 703.34275,148.37143 695.54032,157.40102 C 687.73774,166.43064 676.84434,170.94544 662.86008,170.94544 C 652.90432,170.94544 644.77768,168.71119 638.48013,164.24269 C 632.18254,159.7742 628.33917,153.55767 626.95001,145.59307 L 626.95001,145.59307 z M 666.12463,86.692226 C 661.95707,86.692308 658.56518,88.39404 655.94895,91.797429 C 653.33264,95.200971 652.02451,99.634737 652.02454,105.09874 C 652.02451,110.33134 653.27476,114.55673 655.7753,117.77492 C 658.27577,120.99322 661.54032,122.60234 665.56896,122.60229 C 669.45859,122.60234 672.65368,120.97006 675.15424,117.70547 C 677.65469,114.44097 678.90494,110.19242 678.905,104.95982 C 678.90494,99.634737 677.68942,95.258853 675.25843,91.832158 C 672.82732,88.405617 669.78273,86.692308 666.12463,86.692226 L 666.12463,86.692226 z" transform="scale(0.9298676,1.075422)" id="text4717" style="font-size:142.25109863px;font-style:normal;font-variant:normal;font-weight:bold;font-stretch:normal;text-align:start;line-height:100%;writing-mode:lr-tb;text-anchor:start;fill:#000000;fill-opacity:1;stroke:none;stroke-width:1px;stroke-linecap:butt;stroke-linejoin:miter;stroke-opacity:1;font-family:Folio Bk BT;-inkscape-font-specification:Folio Bk BT Bold"/>
    <path d="M 394.58969,207.40839 L 394.58969,493.82266 L 688.79751,493.82266 L 716.07506,427.57719 L 735.55902,357.4349 L 747.2494,271.70546 L 749.1978,207.40839 L 394.58969,207.40839 z" id="path4741" style="fill:#000000;fill-rule:evenodd;stroke:none;stroke-width:1px;stroke-linecap:butt;stroke-linejoin:miter;stroke-opacity:1"/>
    <path d="M 394.58969,493.82266 L 394.58969,850.37919 L 308.86025,788.03051 L 242.61477,719.83664 L 172.4725,632.1588 L 121.8142,548.37776 L 94.536651,493.82266 L 394.58969,493.82266 z" id="path4743" style="fill:#000000;fill-rule:evenodd;stroke:none;stroke-width:1px;stroke-linecap:butt;stroke-linejoin:miter;stroke-opacity:1"/>
    <path d="M 41.92995,207.08365 C 100.43385,223.97957 143.24656,277.92636 143.24656,341.84773 C 143.24656,389.7457 119.19129,431.9762 82.521541,457.29023 C 135.5029,610.96243 240.28345,743.86145 396.53808,856.22438 C 631.46197,687.29031 750.02974,471.81384 751.14619,209.35678 L 41.92995,207.08365 z" id="path4733" style="fill:none;fill-rule:evenodd;stroke:#000000;stroke-width:15.5871706;stroke-linecap:butt;stroke-linejoin:miter;stroke-miterlimit:4;stroke-dasharray:none;stroke-opacity:1"/>
  </g>
</svg>