<svg id="Ebene_1" data-name="Ebene 1" xmlns="http://www.w3.org/2000/svg" viewBox="0 0 700 700"><defs><style>.cls-1{fill:#ff9900;}.cls-2{fill:#fff;}.cls-3{fill:#0c603f;}</style></defs><rect class="cls-1" width="700" height="700" fill-opacity="0.0"/><circle class="cls-2" cx="350" cy="350" r="350"/><path class="cls-3" d="M350,9.34C161.86,9.34,9.34,161.86,9.34,350S161.86,690.66,350,690.66,690.66,538.14,690.66,350,538.14,9.34,350,9.34ZM350,678C168.26,678,20.93,530.71,20.93,349S168.26,19.9,350,19.9,679.07,167.23,679.07,349,531.74,678,350,678Z" transform="translate(0 0)"/><path class="cls-3" d="M349,350.19l2-.38Z" transform="translate(0 0)"/><path class="cls-3" d="M411.1,465.28H388.23c-15.36,0-27.36,1.14-27.36,18.29V490c0,11.61,6.08,16.66,19.3,16.66h31.3c6.38,0,13.38-1,15.91-8.61h.2v18.18c0,9.09-7.95,11-14.23,11H385.52c-12.18,0-15.18-3.67-15.18-9.19v-4.13h-8.62v3c0,11,4.95,17.8,25.28,17.8h27.65c9.19,0,21.56-3.75,21.56-17.8V485.07C436.21,466.69,423.19,465.28,411.1,465.28Zm-4.6,33.85H393.38c-22.59,0-23.9-1-23.9-12.65,0-13.69,5.91-13.69,23-13.69H405c15.84,0,22.58,0,22.58,13.21C427.58,496,425.16,499.13,406.5,499.13Z" transform="translate(0 0)"/><path class="cls-3" d="M214.05,370.23c30.76-.24,32.83-.6,38.26-6.6,3.6-4,4.83-8,4.83-15.73v-5.81H235.91l-1.24,4.09c-1.78,5.93-3.82,6.43-25.08,6.09-19.53-.31-20.85-.76-23-7.68-1.48-4.89-.88-19,1-23.29,2.17-5,4.43-5.51,24.82-5.51,16.12,0,18,.16,19.56,1.6a9.07,9.07,0,0,1,2.32,4.1l.54,2.5h21.67l-.51-6c-.91-10.86-4.37-15.74-13.27-18.7-3.41-1.13-22-1.91-37.63-2-9.37,0-17.65.2-20.93.78-10.61,1.84-16,5.83-18.86,13.88-1.81,5.11-1.83,38.67,0,43.77,2.61,7.4,7.82,11.63,16.85,13.64C185.48,370.12,195,370.38,214.05,370.23Z" transform="translate(0 0)"/><path class="cls-3" d="M316.75,465.28H293.88c-15.36,0-27.36,1.14-27.36,18.29V490c0,11.61,6.08,16.66,19.3,16.66h31.3c6.38,0,13.38-1,15.91-8.61h.2v18.18c0,9.09-8,11-14.23,11H291.17C279,527.15,276,523.48,276,518v-4.13h-8.62v3c0,11,4.95,17.8,25.28,17.8H320.3c9.19,0,21.56-3.75,21.56-17.8V485.07C341.86,466.69,328.84,465.28,316.75,465.28Zm-4.6,34.56H299c-22.59,0-23.9-1-23.9-12.66,0-13.68,5.91-13.68,23-13.68h12.55c15.84,0,22.58,0,22.58,13.21C333.23,496.73,330.81,499.84,312.15,499.84Z" transform="translate(0 0)"/><path class="cls-3" d="M373.26,653.73c-2.56,1.55-4.54,1.67-26.9,1.67-21.52,0-24.59-.17-28.32-1.61-4.72-1.82-6.59-4.88-6.59-10.76,0-3.83-.84-4.43-6.22-4.43h-3.49l.42,5.9c.82,11.5,6.61,16.81,19.82,18.2,3.45.36,15.41.71,26.57.78,27.26.15,33-1.33,36.89-9.59,4.09-8.6,3.13-20.6-2.07-25.95-4.95-5.1-8.87-5.84-34.92-6.62-28-.83-30.57-1.16-33.84-4.43-2.36-2.37-2.47-2.78-2.16-8.86.6-11.88,3.75-13,33.91-12.26,26.86.67,29.59,1.57,30.4,10.06l.42,4.32h9.5l-.47-5.15c-1.14-12.63-8.56-16.71-36.54-17.14-4-.07-8.41-.05-13.29,0-19.13.29-19.38.31-24.22,2.7-6.6,3.23-9.34,8.38-9.29,17.37.08,12.88,4.53,18.11,17.29,20.28,3,.52,15.6,1.26,27.92,1.64,29.49.91,30.2,1.2,30.12,12.65C378.16,648.25,376.65,651.68,373.26,653.73Z" transform="translate(0 0)"/><path class="cls-3" d="M308.61,251.9c.33.33,5.27.49,11,.35L330,252l.24-13.57.24-13.58H377v27.58h21.55V180H377V205.9h-46.5l-.24-12.72L330,180.47l-11-.24L308,180v35.65c0,19.61.27,35.93.6,36.26Z" transform="translate(0 0)"/><path class="cls-3" d="M566.58,557.65l18.54.07,5-4.45c2.73-2.44,5-4.8,5-5.24,0-.76-48.8-53.57-49.94-54-.3-.12-2,1.28-3.8,3.11L538,500.44l21.6,23.17c11.88,12.75,21.6,23.53,21.6,24s-19.43.5-46.78.13l-46.8-.63-5.36,5-5.37,5,25.14,26.94c13.84,14.81,25.4,26.93,25.7,26.93s2-1.45,3.68-3.23l3.13-3.23-20.84-22.28c-11.46-12.26-21.41-23.08-22.11-24.06l-1.28-1.77,28.86.57C535.07,557.33,556.39,557.61,566.58,557.65Z" transform="translate(0 0)"/><path class="cls-3" d="M557.37,147.93l2.84,2.26a12.17,12.17,0,0,0,3.64,2.27c.44,0,2.24-2.08,4-4.63,5.14-7.47,5.23-14.61.24-21.17-2.22-2.92-13.28-12.27-30-25.32L533,97.27c-8-6.33-14.18-9.44-19.83-9.51-4.39-.05-8.5,1.73-13,5.27-3.58,2.84-18,20.4-23.5,28.63-6.42,9.62-6.76,17.22-1.12,25,3.23,4.46,6,6.92,21.12,18.74,18.48,14.45,23.6,18.19,27.27,19.88,4.12,1.9,10,2.08,13.2.41a39.51,39.51,0,0,0,7-6.08l4.62-4.88-2.05-2.18c-3.83-4.1-4.49-4.06-9.14.59-3.59,3.59-4.8,4.28-7.46,4.28-4.06,0-8.13-2.1-15.26-7.88-3.13-2.53-9.7-7.71-14.6-11.51-16.07-12.45-18.93-15.77-18.93-22.05,0-4.38,2.71-8.82,13.62-22.32,11.28-14,14.19-16.4,19.56-16.4s8.8,2.24,28.13,17.64c21.6,17.2,23,19.41,17.71,28.17Z" transform="translate(0 0)"/><path class="cls-3" d="M581.11,298.93c6.67,28.49,8.67,33.51,14.78,37.06a15,15,0,0,0,7.33,1.75c3.74,0,59.38-12.09,60.42-13.12.58-.59-1.44-9.25-2.16-9.25-.34,0-6.61,1.36-13.93,3l-26.66,6.11c-17.45,4-20.29,4.05-23.29.45s-3.38-5-8.72-28.14c-6.1-26.42-6-31.55,1-34.19,2.69-1,53.81-12.78,55.59-12.78.73,0,1.33-.41,1.33-.92a79.62,79.62,0,0,0-2.1-9.16,18,18,0,0,0-3.53.65c-5.73,1.36-37.4,8.57-45.66,10.39-9.58,2.11-14.49,4.4-17,7.95-1.73,2.42-1.94,3.72-1.9,11.78C576.58,278.33,577.22,282.29,581.11,298.93Z" transform="translate(0 0)"/><path class="cls-3" d="M571.42,255c1.64,0,6.31-3.72,5.79-4.6-.33-.55-2.62-4.11-5.08-7.9C550.93,209.9,546.76,203,547.82,202c.6-.55,9.43-6.36,19.63-12.89,30.64-19.66,34.48-22.16,34.48-22.52s-4.1-7.08-4.74-7.88c-.17-.2-61.39,38.93-62.25,39.79-.25.26,7.89,13.11,32.17,50.74C569.17,252.41,571.11,255,571.42,255Z" transform="translate(0 0)"/><path class="cls-3" d="M159,506.72c.33,0,8.68,8.22,18.55,18.27s19.66,20,21.75,22l3.81,3.74,2.44-2.34a11.49,11.49,0,0,0,2.43-2.83c0-.93-6.33-7.54-28.22-29.64l-22-22.25L148.19,503c-26.18,25.54-42.74,42.15-42.74,42.85,0,.43,11.34,12.17,25.2,26.09s25.42,25.29,25.69,25.29c.81,0,5.48-5.12,5.07-5.56-.2-.22-10.25-10.31-22.33-22.42l-22-22,9.38-9.4,9.37-9.41,21.41,21.65L178.7,571.7l2.59-2.48a11.82,11.82,0,0,0,2.6-3.07c0-.31-7.69-8.29-17.08-17.72S148,529.42,146,527.14L142.2,523l8.12-8.14C154.78,510.38,158.69,506.72,159,506.72Z" transform="translate(0 0)"/><path class="cls-3" d="M62.31,430.52C54,431.79,47.14,432.93,47,433.06a22.12,22.12,0,0,0,.32,5.11c.58,4.68.69,4.84,2.87,4.37,1.25-.26,17.57-2.82,36.29-5.69s34.17-5.37,34.36-5.56.08-2.47-.24-5.08c-.38-3-1-4.61-1.61-4.41-2.14.67-32.54,5-32.84,4.66a94.74,94.74,0,0,1-1.64-9.38c-.74-5-3-19.65-4.94-32.59s-3.4-23.73-3.16-24,7.75-1.6,16.67-3,16.28-2.65,16.36-2.74c.34-.38-1.16-8.41-1.65-8.91s-71.4,10-72.27,10.8c-.57.54.39,8.4,1.12,9.13.22.22,6.52-.56,14-1.73,14.36-2.25,17.78-2.53,17.74-1.48,0,.35,2.18,15.09,4.88,32.75s4.74,32.28,4.52,32.5S70.59,429.25,62.31,430.52Z" transform="translate(0 0)"/><path class="cls-3" d="M72.16,232.75c-7.73.25-13,3.91-16.68,11.39-3.22,6.63-15.54,54.77-15.54,60.71,0,8.67,3.54,14.4,11.32,18.33,4.67,2.36,24.84,8.21,35.08,10.18h0c5.71,1.09,8.33,1.09,12.68,0,5.06-1.28,10.88-6.49,13.16-11.77,3.15-7.34,14.82-54.54,14.82-60,0-8.46-3.64-14.36-11.21-18.19-6.66-3.38-31.15-9.83-40.17-10.58A27.22,27.22,0,0,0,72.16,232.75Zm40.63,57.52c-5.92,23.41-8.64,30.42-12.6,32.47s-11.47,1.35-28-2.92-19.32-5.52-22-9.89-2.1-9.61,3.93-33.3,8.13-29.46,11.68-32a10.78,10.78,0,0,1,7.69-2.13c3.53.17,8.59,1.25,17,3.33C122.21,253.73,122.09,253.5,112.79,290.27Z" transform="translate(0 0)"/><path class="cls-3" d="M374.06,114.5a18.71,18.71,0,0,0,4.44,1c2.23.31,4.28.62,4.55.68s1.18-6,2-13.46,1.79-14.65,2.1-16c.4-1.7,3.3-4.54,10.14-9.92,27.85-21.88,36.56-28.9,36.25-29.2a36.67,36.67,0,0,0-6.24-1.06l-5.91-.71-18.78,15c-10.33,8.25-19.14,14.78-19.57,14.51C382.35,74.92,367,55.45,358,43.55c-4.24-5.6-5.18-6.13-12.32-6.84-.92-.09-1.69-.15-2.3-.18a10.89,10.89,0,0,0-1.15,0c-.92,0-1.16.28-.9.71.81,1.31,4.21,5.73,13,17,3.91,5,8.56,10.93,10.32,13.23s5.24,6.7,7.73,9.77c5.25,6.48,5.15,5.63,2.85,24C374.4,108.28,373.84,114.28,374.06,114.5Z" transform="translate(0 0)"/><path class="cls-3" d="M587.14,433.36c2.72,1.94,13.35,4.4,19,4.4a13.6,13.6,0,0,0,6-1.72c3-1.84,6.23-6.39,6.24-8.84,0-.83.39-1.51.87-1.51s.86,1.19.86,2.63c0,6,3.94,9.83,11.39,11.07s10.26,1.06,14-.76,6.46-5.34,8.1-10.35c1-3.12,11.6-67.27,11.16-67.69-.13-.13-11.3-2-24.81-4.22l-36-5.84c-4.7-.77-8.88-1.31-10.78-1.43a2.69,2.69,0,0,0-1.07,0c-1,1-10.76,64.43-10.75,69.68C581.28,425.52,583.35,430.66,587.14,433.36Zm46.07-67.48c4.54.17,21.25,2.59,22,3.31.42.42-7.28,48.86-8.45,53.15a17.92,17.92,0,0,1-2.63,5.39c-1.54,2-2.41,2.26-6.25,2.19-9.92-.17-14.36-3.05-14.39-9.33,0-4.65,7.71-53.62,8.63-54.63A2.42,2.42,0,0,1,633.21,365.88Zm-35.14-5.57a1.22,1.22,0,0,1,.59-.08c2.37,0,11.29,1.2,19.43,2.64,4.48.79,5.38,1.24,5.38,2.66,0,3.89-8.68,54.34-9.82,57.07a9,9,0,0,1-3,3.89c-1.69.91-9.15,1.11-12.62.35-6.13-1.35-9.06-4.45-9.06-9.6C589,414.29,597.51,360.87,598.07,360.31Z" transform="translate(0 0)"/><path class="cls-3" d="M412.32,623.29C420.8,646.65,424.18,655,425.17,655c3,0,66.87-23.93,67.1-25.12a9.21,9.21,0,0,0-.86-3.89l-1.12-2.65L461,634c-16.11,5.86-29.53,10.66-29.81,10.67-.89,0-9.4-23.61-8.74-24.26.35-.35,13-5.15,28.21-10.69s27.7-10.17,27.84-10.29a13.67,13.67,0,0,0-1.19-3.82c-1.09-2.71-1.79-3.47-2.84-3.06-4.74,1.86-53.34,19.34-54.34,19.55s-2.37-2.77-4.95-9.66c-2.05-5.45-3.73-10.52-3.73-11.26,0-1,7.72-4.15,29.3-12C456.86,573.32,470,568.3,470,568a30.36,30.36,0,0,0-1.5-3.69L467,561.16l-30.6,11.11c-16.82,6.11-32.24,11.73-34.24,12.49l-3.65,1.39,1.14,2.73C400.3,590.39,406,605.87,412.32,623.29Z" transform="translate(0 0)"/><path class="cls-3" d="M281.52,122.32l35.75-6.53,27.8-5.07,0-2.62c0-5.46,1.06-5.47-31.26.28-16.36,2.91-30.3,5.29-31,5.29-.91,0-1.82-3.23-3.46-12.28-1.23-6.76-2-12.55-1.66-12.89s9.3-2.16,20-4.07c33.54-6,38.11-6.85,38.48-7.23.2-.2.1-2-.22-4-.54-3.36-.76-3.61-2.83-3.2-14.39,2.84-57,10.28-57.34,10-.76-.76-4.19-22.39-3.64-22.94.32-.32,14-3,30.4-6s30-5.6,30.25-5.83c.58-.58-.65-7.42-1.34-7.4-2.34,0-70.07,12.73-70.54,13.2s10.87,66.38,12.29,71.34C273.53,123.66,274.23,123.65,281.52,122.32Z" transform="translate(0 0)"/><path class="cls-3" d="M189.48,130.05l4.71-2.69,14.89.91c8.18.5,18.76,1.1,23.5,1.33s11.81.67,15.7,1l7.09.51,7.57-4.6,7.57-4.6-4.31-.22c-2.37-.12-17.87-.81-34.43-1.54s-30.27-1.45-30.43-1.61,5.73-13,13.1-28.56,13.26-28.4,13.1-28.56-1.61.6-3.22,1.69-4.55,2.89-6.51,4c-3.1,1.75-4.09,3.13-7.67,10.74-9.31,19.79-14,29.76-16.8,35.95s-3.37,6.76-8.49,9.8c-4.39,2.6-5.64,3-6.27,2.08-.43-.65-4.1-6.7-8.16-13.45-8.12-13.51-7.31-13-13.42-8.7l-2.32,1.63,19.07,31.76,19.08,31.76,4.15-2.56c2.28-1.4,4-2.81,3.86-3.12s-4.08-6.86-8.7-14.54-8.17-14.35-7.88-14.82A27.72,27.72,0,0,1,189.48,130.05Z" transform="translate(0 0)"/><path class="cls-3" d="M274.93,599c-.48,1.06.32,1.8,3.51,3.2l4.14,1.81,1.61-3.56c4-8.79,1.06-16.2-8.94-22.82-6.38-4.23-37.19-18.06-44.67-20a29.9,29.9,0,0,0-8.13-1,15.45,15.45,0,0,0-6.46,1.26c-5.3,2.74-10.64,11.6-11.85,19.64-.82,5.51,1.73,10.53,7.55,14.86,3.65,2.72,26.09,14.31,27.69,14.31,1.39,0,21.12,9.91,22.73,11.42,3.81,3.57,1.79,13.51-3.77,18.54-2.59,2.34-7.78,2.57-13.36.61-2.07-.74-11.71-4.9-21.42-9.27-24.09-10.83-26.93-13.82-22.5-23.59l1.63-3.58-4.29-1.78-4.29-1.78-1.8,4.05c-3.88,8.78-2.36,16.34,4.36,21.63,5.31,4.19,34.82,18.08,47.12,22.18,6.67,2.22,13.71,2.64,17.41,1s7.07-5.67,10-11.89c7-15,1.75-22.29-23.92-33.58-30.45-13.39-34.71-16.26-33.68-22.7,1.24-7.75,5.68-12.67,11.42-12.67,7.63,0,44.54,16.43,49.11,21.86,1.79,2.13,2.1,3.26,1.81,6.52A23,23,0,0,1,274.93,599Z" transform="translate(0 0)"/><path class="cls-3" d="M110.59,149.56c-3.54,4.68-6.65,8.7-6.91,8.93-2.3,2.12-15.5,20.5-17.56,24.46-4.85,9.36-3.15,17.68,5.25,25.65,4.57,4.34,22.93,18.41,27.57,21.12a42.06,42.06,0,0,0,7.44,3.35c6.3,1.94,13.46,0,18.72-5a142.22,142.22,0,0,0,12.06-14.4c1.66-2.26,7-9.32,11.75-15.69,12.5-16.6,14.73-21.52,12.77-28.18-1.26-4.27-2.62-6-8.44-10.61l-4.18-3.33-2.56,3.53L163.94,163l4.37,4.19c3.9,3.73,4.37,4.58,4.37,7.82s-3,10.19-5.1,12c-.28.24-4.74,6.06-9.91,12.94C140.92,222.11,138.88,224,131.72,224c-4.29,0-6.88-1.52-20.67-12.1-13.28-10.2-16.25-13-17.61-16.62-2.4-6.33-.64-9.74,16.49-32.05,10.81-14.06,14-17.6,17.1-19.2,4.51-2.31,6.63-2,11.79,1.53l3.63,2.51,2.6-3.15,2.6-3.16-1.85-2c-2.77-2.95-10.08-6.3-13.74-6.3C125,133.49,119.85,137.33,110.59,149.56Z" transform="translate(0 0)"/><path class="cls-3" d="M505.39,399.47c-6.12,0-9.22,1.22-13.28,5.24-4.29,4.25-5,7.14-4.89,20.49.08,10.68-.11,12.46-1.62,14.91-3.07,5-9.76,4.93-17.74-.17-2.74-1.76-11-9.1-18.42-16.31s-25.65-24.69-40.59-38.84-28.85-27.38-30.94-29.4l-3.79-3.66,49.82-52c63.82-66.63,70.18-73.09,71.47-72.6.59.23,2-.31,3.07-1.2,1.69-1.37,1.9-2.09,1.37-4.87-1.08-5.8-13.22-16.87-18.48-16.87a5.28,5.28,0,0,0-5.29,5.24c0,1.74-1,3.28-3.77,5.69-2.08,1.81-30.17,28.4-62.44,59.09L351.19,330l-62.32-59.13c-54.29-51.51-62.39-59.52-62.84-62.13-.92-5.24-5.06-6-11.16-2.06C208.1,211,202,218.55,202,222.51a5.06,5.06,0,0,0,4.55,4.46c1.71,0,14.45,12.88,61.51,62,32.65,34.07,59.46,62.22,59.59,62.55s-13.42,13.57-30.12,29.42-37,35.22-45.1,43C236.69,439.14,230,443.8,224,443.8c-7.12,0-9.43-4.34-9.09-17.12.34-13.4.16-14.87-2.4-19-4.34-7-13.14-10-22-7.42-9.76,2.83-16.67,10.47-19.09,21.08-1.72,7.59-1.75,19.72,0,26.38,5.18,20.29,23.1,35.6,44.81,38.27,14.36,1.77,24.89-1.27,38.33-11.07,2.86-2.08,25.59-25.06,50.53-51.06s45.65-47.29,46-47.29,18.63,18.72,40.52,41.59c47.46,49.59,52.23,54.31,60.28,59.66,9.25,6.15,16.69,8.5,26.79,8.45s17.13-1.75,26.64-6.51c13.26-6.63,23.47-19.89,26-33.8,1.47-8.08.53-23.11-1.83-29.26C525.47,406.15,516.13,399.49,505.39,399.47Zm-22.91-191c3.7,0,15.56,12.24,13.68,14.12-1.43,1.43-4.51-.23-10-5.41-2.89-2.71-5.75-6.81-5.75-8.23C480.39,208.7,481.33,208.48,482.48,208.48Zm-12.12,10.35c2.21,0,15.21,12.62,15.21,14.78a3.52,3.52,0,0,1-1.13,2.32c-.87.72-2.93-.9-8.95-7C467.79,221.11,466.63,218.83,470.36,218.83Zm-8.77,7.08a2.65,2.65,0,0,1,1.56-.89c1.69-.22,4.06,1.72,9.5,7.18,6,6.08,7.13,7.58,6.38,8.78a4.71,4.71,0,0,1-1.73,1.72c-.45.15-4.4-3.33-8.78-7.73C462.26,228.68,460.76,226.73,461.59,225.91ZM457,231.76c1.61,0,15.66,13.65,15.66,15.21a3,3,0,0,1-1.12,1.89c-.87.72-3-.93-9.16-7.13C454.72,234.07,453.48,231.76,457,231.76Zm-8,6.9,1.73-1.73,8,8c5.62,5.64,7.83,8.43,7.46,9.41-1.14,3-3,1.95-10.81-5.88l-8.08-8.11Zm-6.91,6.87a1.18,1.18,0,0,1,1-.32c1.18.16,3.2,2,8.47,7.23,6.77,6.74,8,8.32,7.24,9.64-.46.86-1.16,1.57-1.54,1.57-.76,0-15.88-15.12-16.29-16.28C440.79,247,441.3,246.16,442.06,245.53Zm-7.35,7.34a2.93,2.93,0,0,1,1.18-.8,1.16,1.16,0,0,1,.46,0c1.16.2,3,2.07,8.45,7.47,7.56,7.57,8.16,8.41,6.91,9.66a4.66,4.66,0,0,1-2.09,1.37c-.39,0-4.32-3.61-8.71-8l-8-8Zm-6.89,6.9A2.84,2.84,0,0,1,429,259a1,1,0,0,1,.46,0c1.17.2,3.07,2.09,8.53,7.58,7.95,8,8.28,8.46,6.69,9.65a7.14,7.14,0,0,1-2.17,1.25c-.27,0-4.1-3.61-8.49-8l-8-8Zm-8,8.2a2.44,2.44,0,0,1,1.52-1.28,1.8,1.8,0,0,1,.65,0c1.56.31,4,2.44,8.69,7.16,6.88,6.91,7.53,7.84,6.65,9.5-.54,1-1.27,1.82-1.6,1.82s-4.24-3.59-8.67-8C420.83,271.05,419.21,269,419.85,268Zm-6.67,6.44a3.18,3.18,0,0,1,1.17-.82,1.18,1.18,0,0,1,.46,0c1.14.17,3,2,8.24,7.34,6.6,6.67,7.91,8.42,7.24,9.66a2.73,2.73,0,0,1-1.88,1.52c-.58,0-4.66-3.61-9.05-8l-8-8ZM406,281.57a2.05,2.05,0,0,1,1-.74c1.06-.23,2.7,1.35,8.5,7.12,4.41,4.39,8,8.43,8,9a3,3,0,0,1-1.1,1.9c-.84.7-3.13-1.07-9.49-7.36C404.9,283.55,404.6,283.12,406,281.57ZM211.35,214.5c4-4,7.8-6.37,9.54-6.05a1.1,1.1,0,0,1,.61.3c1.49,1.49-3.12,7.27-9.52,11.94C204.57,226.09,204.13,221.72,211.35,214.5Zm6.34,21.41c-2-2-1-3.79,5.72-10.5,4.54-4.51,6.68-6.23,8.17-6.44a2,2,0,0,1,.6,0c1.1.16,2.12.68,2.28,1.17s-3.31,4.46-7.72,8.84C220.46,235.24,218.51,236.73,217.69,235.91Zm6.42,6.48c-1.5-1.5-.05-3.87,6.12-10,4.66-4.62,7.46-6.69,9.3-6.7a2.06,2.06,0,0,1,1.56.65c.33.33-3,4.21-7.38,8.62C225.65,243,225.14,243.43,224.11,242.39Zm13-4c4.68-4.66,7.73-6.85,9.51-6.78a1.61,1.61,0,0,1,1.36.82c.59.95-16.2,17.62-17,16.85C229.26,247.54,230.89,244.62,237.13,238.42ZM236.9,255c-1.62-1.78-1.58-1.85,6.42-9.87,5.28-5.3,7.28-7.13,8.54-7.34a1.5,1.5,0,0,1,1.11.25c.88.55,1.59,1.4,1.59,1.88s-3.61,4.49-8,8.88l-8,8Zm6.46,5.63c0-1.23,14.84-16,16.07-16A3.55,3.55,0,0,1,261.5,246c1,1.15,0,2.49-7,9.48-4.45,4.48-8.32,8.14-8.59,8.14C245.08,263.65,243.36,261.63,243.36,260.66Zm7.71,8.53c-1-1.16,0-2.5,7.26-9.69,6-6,7.75-7.64,8.76-7.42.33.07.59.36.89.76,1.18,1.58.74,2.22-6.71,9.7-4.38,4.4-8.22,8-8.52,8A3.8,3.8,0,0,1,251.07,269.19Zm6.89,6.9c-1-1.16,0-2.48,7.09-9.55,5.85-5.85,7.58-7.5,8.68-7.36a1.78,1.78,0,0,1,1,.65c1.42,1.42,1.09,1.9-6.53,9.55-4.41,4.44-8.27,8.06-8.58,8.06A3.94,3.94,0,0,1,258,276.09Zm7.55,7.57c-1.34-1.47-.94-2,7.09-10,5.38-5.36,7.37-7.3,8.39-7.49a.83.83,0,0,1,.39,0c.3.11.5.44.75.9,1.14,2.13.82,2.6-7.31,10.56C266.33,285.94,267.11,285.43,265.51,283.66Zm6.29,5.44c0-1.22,14.84-16,16.07-16a3.62,3.62,0,0,1,2.08,1.35c.95,1.15,0,2.48-7,9.48-4.45,4.47-8.32,8.13-8.59,8.13C273.53,292.09,271.8,290.07,271.8,289.1Zm18.42,2.24c-4.18,4.21-8.05,7.65-8.6,7.65a3.6,3.6,0,0,1-2.1-1.35c-1-1.15,0-2.48,7-9.48,4.45-4.47,8.39-8.13,8.73-8.13s1.08.82,1.62,1.83C297.74,283.51,297.09,284.44,290.22,291.34ZM327.45,323c1.23-2.08,4.23-5,5.12-5,.47,0,4.15,3.28,8.16,7.29l7.31,7.29-3,3c-1.62,1.67-3.16,3-3.42,3s-3.73-3.3-7.7-7.24C328.93,326.33,327,323.82,327.45,323Zm-5.62,52.7c-8.25,7.82-17,16.16-19.46,18.53s-7.72,7.4-11.7,11.17-12.08,11.56-18,17.32c-22.82,22.19-29.47,27.95-35.84,31.1-11,5.43-20.31,4.55-27.45-2.6-4.85-4.85-5.73-8.43-5.6-22.69.06-6.54-.29-12.9-.78-14.14-2.1-5.39-10-7.89-17.7-5.58-5.68,1.71-3.93-.23,3-3.35,8.7-3.91,16-2.45,20.94,4.2,1.62,2.17,1.75,3.39,1.51,13.46-.31,13,.61,17.32,4.5,21.2,3.6,3.6,7.59,4.35,13.71,2.58s12.47-6.62,24.84-18.7c5.39-5.26,16.35-15.83,24.36-23.49l18.63-17.8c7.5-7.19,18.46-17.59,32.66-31,7.77-7.35,16.12-15.3,18.57-17.67,8.46-8.2,19-18.12,20.55-19.32a2.31,2.31,0,0,1,1.29-.64c.67,0,1.39.53,2.8,1.88s2.56,2.9,2.56,3.43C375.24,324.68,360.84,338.73,321.83,375.7Zm198.74,34.24c-.27.27-1,.09-1.59-.39-3.61-2.87-14.57-1.63-18,2-2,2.09-2,2.7-2.14,16.11-.08,11-.4,14.67-1.55,17.39a20.14,20.14,0,0,1-9.49,10.09,26,26,0,0,1-8.19,2.1c-9,.67-18-4.09-31-16.38-15.19-14.39-27.5-26.15-35.87-34.26C398.36,392.72,376,371.2,370.49,366l-5.17-4.88,3-3.08c1.64-1.69,3.26-3,3.6-2.85s6.91,6.24,14.59,13.59S401.17,382.76,402,383.5c1.71,1.48,32.23,30.72,46.9,44.92,12.93,12.51,14.82,14.08,20.2,16.81,5.95,3,12.58,3.29,16.17.67a19.2,19.2,0,0,0,4.45-5.6c1.9-3.6,2-4.5,1.57-15-.52-12.74.18-15.34,5.19-19.16,3.51-2.67,9.76-3.52,14.62-2C515,405.36,521.29,409.22,520.57,409.94Z" transform="translate(0 0)"/><polygon class="cls-3" points="482.12 352.43 482.12 346.84 482.12 341.25 508.62 341.02 535.12 340.79 535.38 333.68 535.62 326.57 508.87 326.57 482.12 326.57 482.12 320.54 482.12 314.5 510.13 314.5 538.14 314.5 538.14 306.31 538.14 298.13 498.92 298.13 459.7 298.13 459.7 333.9 459.7 369.67 499.79 369.67 539.86 369.67 539.86 361.05 539.86 352.43 510.99 352.43 482.12 352.43"/><path class="cls-3" d="M350,125.74c-123.86,0-224.26,100.4-224.26,224.26S226.14,574.26,350,574.26,574.26,473.86,574.26,350,473.86,125.74,350,125.74Zm0,441.33c-119.89,0-217.07-97.18-217.07-217.07S230.11,132.93,350,132.93,567.07,230.11,567.07,350,469.89,567.07,350,567.07Z" transform="translate(0 0)"/></svg>