<?xml version="1.0" standalone="no"?>
<!DOCTYPE svg PUBLIC "-//W3C//DTD SVG 20010904//EN"
 "http://www.w3.org/TR/2001/REC-SVG-20010904/DTD/svg10.dtd">
<svg width="197px" height="197px" viewBox="0 0 197 197" version="1.1" xmlns="http://www.w3.org/2000/svg" xmlns:xlink="http://www.w3.org/1999/xlink">
    <g id="WHV" stroke="none" stroke-width="1" fill="none" fill-rule="evenodd">
        <g id="325-SWK" transform="translate(-1.000000, -1.000000)">
            <g id="logo_kkht-vektor" transform="translate(7.000000, 7.000000)">
                <path d="M185,92.5 C185,143.586335 143.586335,185 92.5,185 C41.4136647,185 0,143.586335 0,92.5 C0,41.4136647 41.4136647,0 92.5,0 C143.586335,0 185,41.4136647 185,92.5 Z" id="Fill-1" fill="#FFFFFE"></path>
                <path d="M185,92.5 C185,143.586335 143.586335,185 92.5,185 C41.4136647,185 0,143.586335 0,92.5 C0,41.4136647 41.4136647,0 92.5,0 C143.586335,0 185,41.4136647 185,92.5 Z" id="Stroke-2" stroke="#1A1919" stroke-width="12" stroke-linecap="round"></path>
                <path d="M40.3771889,81.0943611 L74.8461497,39.7501494 C74.8461497,39.7501494 81.8522743,37 89,37 L39.2743391,96 C39.2743391,96 38.1751532,88.0863406 40.3771889,81.0943611" id="Fill-3" fill="#FFFFFE"></path>
                <path d="M147,93 C147,124.480317 122.375827,150 92.0001089,150 C61.6243912,150 37,124.480317 37,93 C37,61.5196832 61.6243912,36 92.0001089,36 C122.375827,36 147,61.5196832 147,93" id="Fill-4" fill="#1A1919"></path>
                <path d="M42,109.847016 L102.192249,38 C102.192249,38 106.016433,38.111094 113,41.4954219 L46.4342567,120 C46.4342567,120 43.1085097,114.007911 42,109.847016" id="Fill-5" fill="#FFFFFE"></path>
                <path d="M53,129.307173 L122.466427,47 C122.466427,47 126.953447,50.0423129 130,53.4166885 L60.1467607,136 C60.1467607,136 54.4947288,132.017641 53,129.307173" id="Fill-6" fill="#FFFFFE"></path>
                <path d="M69,141.509309 L136.026807,61 C136.026807,61 139.342269,65.2664722 141,70.3089441 L78.0620888,145 C78.0620888,145 70.2157998,142.506556 69,141.509309" id="Fill-7" fill="#FFFFFE"></path>
                <path d="M90,146.788607 L144.562399,83 C144.562399,83 145.508794,90.5466459 144.618031,98.1485509 L103.919087,145.246123 C103.919087,145.246123 94.4533806,147.725193 90,146.788607" id="Fill-8" fill="#FFFFFE"></path>
                <path d="M40.3771889,81.0943611 L74.8461497,39.7501494 C74.8461497,39.7501494 81.8522743,37 89,37 L39.2743391,96 C39.2743391,96 38.1751532,88.0863406 40.3771889,81.0943611" id="Fill-9" fill="#FFFFFE"></path>
                <path d="M42,109.847016 L102.192249,38 C102.192249,38 106.016433,38.111094 113,41.4954219 L46.4342567,120 C46.4342567,120 43.1085097,114.007911 42,109.847016" id="Fill-10" fill="#FFFFFE"></path>
                <path d="M53,129.307173 L122.466427,47 C122.466427,47 126.953447,50.0423129 130,53.4166885 L60.1467607,136 C60.1467607,136 54.4947288,132.017641 53,129.307173" id="Fill-11" fill="#FFFFFE"></path>
                <path d="M69,141.509309 L136.026807,61 C136.026807,61 139.342269,65.2664722 141,70.3089441 L78.0620888,145 C78.0620888,145 70.2157998,142.506556 69,141.509309" id="Fill-12" fill="#FFFFFE"></path>
                <path d="M90,146.788607 L144.562399,83 C144.562399,83 145.508794,90.5466459 144.618031,98.1485509 L103.919087,145.246123 C103.919087,145.246123 94.4533806,147.725193 90,146.788607" id="Fill-13" fill="#FFFFFE"></path>
                <path d="M64.8877747,162.447779 C64.6322944,162.944251 64.0251082,163.139198 63.5415125,162.894959 C63.0462532,162.644947 62.8609795,162.035459 63.1106279,161.550755 C63.3542202,161.077818 63.949967,160.848011 64.4683295,161.109792 C64.9521495,161.353809 65.1403391,161.957524 64.8877747,162.447779" id="Fill-14" fill="#1A1919"></path>
                <polyline id="Fill-15" fill="#1A1919" points="74.1875933 158.161119 71.7930079 157.329557 72.2097634 156 76 157.316098 71.3952249 172 70 171.515464 74.1875933 158.161119"></polyline>
                <path d="M85.4790749,160.382849 C83.4212487,160.117277 81.7600148,161.626503 81.4970338,163.741579 C81.2416878,165.796847 82.4736689,167.73941 84.5317071,168.004766 C86.3736344,168.242053 88.2306195,166.920455 88.5186261,164.60566 C88.7222242,162.969477 87.8505695,160.688365 85.4790749,160.382849 Z M81.7417758,173.787974 L85.7157578,169.211283 L85.6790677,169.186237 C85.2402712,169.352922 84.7376382,169.389411 84.2869652,169.33133 C81.4450739,168.965143 79.6945537,166.388015 80.044276,163.574895 C80.361974,161.020653 82.4897871,158.639142 85.6453468,159.045489 C88.7029248,159.43996 90.3060484,162.079055 89.9514483,164.932335 C89.7404272,166.628325 88.7415237,167.776762 87.6690278,169.037474 L83.3879519,174 L81.7417758,173.787974 L81.7417758,173.787974 Z" id="Fill-16" fill="#1A1919"></path>
                <path d="M91.4458569,173.605429 L96.3678064,168.063186 C97.9955975,166.223383 99.0180869,165.070792 98.920129,163.46849 C98.8241217,161.887007 97.4524948,160.283587 95.4981052,160.410284 C95.2161513,160.428416 92.2971368,160.659651 92.5086564,164.469089 L91.0176163,164.566239 L91.0150156,164.52438 C90.7707711,160.508106 93.5595363,159.136144 95.4939875,159.010789 C98.5564713,158.812236 100.291106,161.39499 100.412686,163.392382 C100.52278,165.203085 99.7120274,166.509012 97.9687241,168.439922 L93.4604949,173.474926 L100.915479,172.991192 L101,174.385762 L91.5305948,175 L91.4458569,173.605429" id="Fill-17" fill="#1A1919"></path>
                <path d="M110.320542,162.730465 C110.290885,162.61558 109.856757,160.930963 109.018158,160.190692 C108.13623,159.359532 106.841839,159.208972 105.950867,159.442988 C105.059684,159.677004 104.002339,160.445094 103.633204,161.605192 C103.258179,162.66421 103.692518,164.349039 103.721964,164.463711 L104.649534,168.062713 C104.762904,168.503139 105.191353,170.087099 105.910483,170.756656 C106.821647,171.620943 107.911804,171.845616 109.068427,171.541735 C110.225261,171.238066 111.068697,170.505227 111.447087,169.302233 C111.75186,168.363621 111.361481,166.769892 111.247901,166.329467 L110.320542,162.730465 Z M112.705301,166.171474 C113.07065,167.588099 113.076119,168.710823 112.832553,169.571924 C112.296203,171.654496 110.498484,172.535559 109.399071,172.824362 C108.299238,173.113378 106.304647,173.228263 104.831052,171.673608 C104.202576,171.041637 103.665595,170.058643 103.300456,168.642019 L102.234908,164.506819 C101.95874,163.434848 101.945279,162.518534 102.095036,161.763822 C102.518437,159.792738 104.103299,158.558952 105.620433,158.160573 C107.137357,157.761981 109.116804,158.059704 110.438118,159.572525 C110.932822,160.157777 111.363374,160.964516 111.639752,162.036487 L112.705301,166.171474 L112.705301,166.171474 Z" id="Fill-18" fill="#1A1919"></path>
                <path d="M118.908302,162.594897 C119.140503,163.102024 118.915033,163.692564 118.420119,163.913739 C117.91354,164.140238 117.316997,163.903091 117.090405,163.408164 C116.869421,162.924552 117.060117,162.321145 117.590702,162.083998 C118.085391,161.862823 118.679242,162.093981 118.908302,162.594897" id="Fill-19" fill="#1A1919"></path>
                <path d="M12.4761052,104 L12.3855736,101.93855 L19.8710413,101.590397 L19.8680018,101.518936 C19.250346,101.120313 18.6789329,100.719903 18.154414,100.340932 L12.1126761,95.7314227 L12,93.1724202 L18.8415425,98.646841 L27.5041385,92 L27.6111699,94.4404206 L20.2179706,100.030743 L21.9901761,101.491467 L27.9094684,101.216339 L28,103.277566 L12.4761052,104" id="Fill-20" fill="#1A1919"></path>
                <path d="M12,89.1583396 L12.2483552,87.2243115 L19.7906025,88.11256 L19.7991892,88.0459203 C19.2472155,87.5745918 18.741478,87.1089573 18.279555,86.6709488 L12.9956224,81.4005061 L13.3038647,79 L19.2450137,85.2050858 L29,80.4194682 L28.706069,82.7090487 L20.3938766,86.7169218 L21.9258405,88.3639351 L27.8901078,89.0661828 L27.6417526,91 L12,89.1583396" id="Fill-21" fill="#1A1919"></path>
                <polyline id="Fill-22" fill="#1A1919" points="14.6097035 73.2152637 20.6854281 75.2342815 22.9448049 67.9779273 16.8690803 65.9589096 17.4787839 64 32 68.8260469 31.3900833 70.7847363 24.5821178 68.5222034 22.322741 75.7785576 29.1309197 78.0413106 28.521003 80 14 75.1741733 14.6097035 73.2152637"></polyline>
                <polyline id="Fill-23" fill="#1A1919" points="22.7716571 56.6010998 20.5120292 60.6535533 19 59.8642132 24.500315 50 26.0121257 50.7891286 23.741568 54.8614636 36 61.2603638 35.0300891 63 22.7716571 56.6010998"></polyline>
                <path d="M40.1445779,51.4898252 C41.1488402,51.1974214 42.3055144,50.5202072 43.2008809,49.4842125 C44.5288592,47.947357 44.5273732,46.3480294 43.361359,45.295983 C42.313793,44.3506596 41.1511752,44.4081425 39.2190687,45.4610567 C36.9016871,46.750627 34.9069601,47.0404279 33.3187354,45.6070417 C31.5443475,44.0061957 31.5243939,41.3144751 33.4790014,39.0524668 C34.4936651,37.8782961 35.5250984,37.2416453 36.2451275,37 L37.0867889,38.4971597 C36.5537721,38.6613658 35.5611847,39.1487778 34.6509592,40.2019089 C33.2781913,41.7906075 33.6855427,43.233755 34.4626733,43.935047 C35.5272211,44.8957715 36.6628803,44.6604168 38.6588809,43.6033812 C41.1201834,42.3209691 42.8833208,42.1602337 44.5562423,43.6697577 C46.3136484,45.2554195 46.7171789,47.9553829 44.3446064,50.7008988 C43.3749445,51.8232264 41.977553,52.744472 41.0348498,53 L40.1445779,51.4898252" id="Fill-24" fill="#1A1919"></path>
                <path d="M55,40.0542005 C54.7640493,40.5883811 54.1359581,41.6415358 53.029718,42.5991071 C50.5450509,44.7499497 47.5299633,44.3919466 45.4255663,41.7464602 C43.3211693,39.1011911 43.5179685,35.6634491 46.2069318,33.3357773 C47.0920072,32.5698071 48.0585096,32.1229549 48.650573,32 L49.2563811,33.4843659 C48.7434538,33.5984143 48.0124856,33.8712613 47.195509,34.5785781 C45.3062373,36.2139222 45.4574291,38.5713552 46.8839624,40.3644119 C48.465436,42.3527628 50.6654212,42.5169923 52.2993745,41.1027933 C53.1502965,40.3661498 53.5426452,39.6670879 53.8127494,39.1033634 L55,40.0542005" id="Fill-25" fill="#1A1919"></path>
                <path d="M49,25.0030591 L50.711996,24 L54.1082693,29.9535994 L54.1472023,29.9308708 C54.1385271,29.2786037 54.3078012,28.5744468 54.6755491,27.9905798 C55.0014018,27.3788381 55.5032995,26.8481474 56.1452716,26.4720539 C57.4097491,25.7314455 59.8828438,25.3347676 61.76094,28.6267654 L65,34.3044056 L63.288004,35.3072503 L60.1612997,29.8268769 C59.2730338,28.2695409 57.9778753,27.318586 56.363212,28.2646092 C55.254255,28.9140889 54.8482087,30.2040425 55.0572623,31.3441163 C55.0947142,31.637658 55.2214581,31.9054692 55.4129495,32.2406084 L58.6968671,37.9969409 L56.9850827,39 L49,25.0030591" id="Fill-26" fill="#1A1919"></path>
                <path d="M64.0482371,22.3589897 L67.266286,27.4848971 C67.945365,28.6241376 68.6028931,29.6949877 69.162544,30.771237 L69.2310131,30.749865 C69.1335849,29.5541574 69.1288707,28.2542894 69.1167483,26.9316996 L69.1692787,20.7590137 L70.8533947,20.2330374 L74.2777489,25.2190143 C75.0917458,26.3911002 75.7793554,27.4776981 76.377394,28.5170526 L76.4456386,28.4956806 C76.2801903,27.321345 76.2141905,26.0655708 76.1737825,24.6516438 L76.0200076,18.6186634 L78,18 L77.8839392,30.1487492 L76.0631095,30.7172446 L72.7397752,25.9749085 C71.9625945,24.8415172 71.3032705,23.8460316 70.6257629,22.6314266 L70.5801917,22.6455996 C70.7187013,24.0539025 70.7391298,25.3236247 70.7211707,26.6304667 L70.5781713,32.4312796 L68.7573415,33 L62,22.9990251 L64.0482371,22.3589897" id="Fill-27" fill="#1A1919"></path>
                <path d="M87.3824328,22.6223362 C85.211231,22.7846594 82.786427,23.4202223 82.9838866,25.6214401 C83.1055644,26.9795959 84.0179346,27.5055408 85.0109963,27.4096527 C86.4557602,27.2703604 87.2972583,26.2443803 87.5271653,25.2538323 C87.5760499,25.0365894 87.5777577,24.8000802 87.5587589,24.5894808 L87.3824328,22.6223362 Z M89.5986767,25.5027426 C89.6866263,26.4862042 89.8181237,27.4417631 90,28.2037742 L88.2170999,28.3758412 L87.908209,26.9649802 L87.8405391,26.9714022 C87.3333347,27.9176602 86.2085621,28.8293718 84.6508726,28.9797367 C82.4388981,29.1932149 81.165337,27.6862444 81.0184698,26.0470679 C80.772766,23.307504 82.9860213,21.5824047 87.2090953,21.1984096 L87.1879617,20.9643364 C87.1040681,20.0276009 86.7027448,18.3423627 84.4700637,18.5813078 C83.4317464,18.6814034 82.3979119,19.0882079 81.678732,19.70074 L81.1034308,18.3629576 C81.9538946,17.6904125 83.2500835,17.1638032 84.626964,17.0309329 C87.9901814,16.7062865 89.0150501,18.9929842 89.2187004,21.2641804 L89.5986767,25.5027426 L89.5986767,25.5027426 Z" id="Fill-28" fill="#1A1919"></path>
                <path d="M93.3716071,20.4235399 C93.4310642,19.1420055 93.4597156,18.0393391 93.4379578,17.0246233 L95.1977596,17.1038847 L95.1900043,19.2439433 L95.2585093,19.2469103 C95.8291685,17.8081246 97.1064196,16.9421829 98.4547609,17.0030065 C98.6604912,17.0121195 98.8192589,17.0417895 99,17.0949837 L98.9140457,18.9385537 C98.6867729,18.9059166 98.4821198,18.8741273 98.2078845,18.8618354 C96.7910383,18.7978328 95.7361051,19.8091578 95.3937958,21.2581161 C95.3343386,21.5484587 95.2968548,21.8621136 95.2813442,22.1992926 L95.0112021,28 L93,27.9092944 L93.3716071,20.4235399" id="Fill-29" fill="#1A1919"></path>
                <path d="M99.2136694,27.1160217 L105.458863,21.3385947 C106.079343,20.7967495 106.614179,20.3363051 107.253421,19.8219694 L107.261809,19.7750681 L101.196292,18.6492117 L101.489425,17 L110,18.5795362 L109.769555,19.8754098 L103.582855,25.5903769 C103.012702,26.1173399 102.446743,26.6208523 101.838624,27.0921201 L101.830236,27.1392469 L108.357306,28.3507883 L108.064173,30 L99,28.3176418 L99.2136694,27.1160217" id="Fill-30" fill="#1A1919"></path>
                <polyline id="Fill-31" fill="#1A1919" points="116 25.6522885 115.543852 27 110 25.3477115 110.456148 24 116 25.6522885"></polyline>
                <path d="M118,33.7571726 L122.155433,18 L124.038635,19.0465351 L121.802773,26.9443218 C121.246673,28.9138029 120.672278,30.8192824 120.179657,32.2877861 L120.220654,32.3105177 C121.206778,31.0627089 122.545122,29.6619585 124.00403,28.1407087 L129.70808,22.196513 L131.570343,23.231572 L129.364016,31.1728356 C128.832823,33.048742 128.304274,34.8725645 127.702108,36.4412636 L127.743325,36.4639952 C128.870293,35.1067217 130.110993,33.7856422 131.494962,32.3032348 L137.178513,26.3475629 L139,27.3598903 L127.435409,39 L125.572705,37.9651617 L127.808346,29.8257141 C128.366871,27.8041491 128.829957,26.2923892 129.418238,24.7965193 L129.377241,24.7735671 C128.379655,26.0421212 127.313962,27.1921622 125.814056,28.6906804 L119.862484,34.7920108 L118,33.7571726" id="Fill-32" fill="#1A1919"></path>
                <path d="M140.296031,40.5160238 C141.142933,39.5881745 142.057665,37.7185151 140.373336,36.2440508 C138.826388,34.8898633 136.936416,35.7238538 135.896145,36.6641604 L140.296031,40.5160238 Z M134.928657,37.7292541 C133.1681,39.7993031 133.718059,41.7677613 135.230338,43.0916648 C136.313029,44.0397035 137.14938,44.4379055 137.895291,44.6965005 L137.235297,46 C136.491109,45.7736219 135.306781,45.2525658 133.983133,44.0940428 C131.439627,41.8672044 131.386224,38.8160406 133.573355,36.3303923 C135.790848,33.8103793 139.020833,33.1477832 141.444183,35.2693794 C144.15974,37.6465638 142.767616,40.6461804 141.425019,42.1719771 C141.153485,42.4806159 140.925232,42.7057053 140.739831,42.8468157 L134.928657,37.7292541 L134.928657,37.7292541 Z" id="Fill-33" fill="#1A1919"></path>
                <path d="M149.645507,40.2055192 C149.130733,39.6268319 149.240868,38.8332417 149.781415,38.3469406 C150.321741,37.8606395 151.116702,37.871717 151.646675,38.4681282 C152.176869,39.0643178 152.084134,39.842178 151.543588,40.3287007 C151.003262,40.8147802 150.206759,40.8367136 149.660926,40.2230216 L149.645507,40.2055192 Z M139,48.4566863 L147.438606,40.865072 L148.810898,42.4081641 L140.372072,50 L139,48.4566863 L139,48.4566863 Z" id="Fill-34" fill="#1A1919"></path>
                <path d="M143,52.7774353 L151.402179,46.6577249 C153.521259,45.114073 155.055919,44.7790638 156.374741,45.1232976 C157.47985,45.3914849 158.409483,46.106276 159.176601,47.2874701 C160.404074,49.1773807 160.368172,51.6101906 158.323658,53.0993951 C157.691651,53.5599483 156.961923,53.7435396 156.505391,53.757039 C155.576608,53.1284187 154.711131,52.9761009 154.079124,53.4364291 C153.447118,53.8965324 153.312432,54.5748753 153.114226,55.6183759 C152.881817,56.947388 152.625191,58.3231979 151.286825,59.2980767 C149.539513,60.5708415 147.461646,60.1120882 146.042978,57.9269916 C145.556917,57.178902 145.169853,56.3297922 145.078292,55.5558288 L146.528189,54.9636569 C146.618688,55.6514493 146.846635,56.2973937 147.230087,56.8879908 C148.048403,58.1481562 149.189413,58.3027238 150.044268,57.6801783 C150.825195,57.1114052 151.102852,56.3581409 151.268767,55.2223946 C151.475471,53.8540094 151.70278,52.6442416 152.743945,51.8860275 C153.691635,51.1955352 154.905937,51.2101595 156.168038,51.9728734 C156.46779,51.9283255 156.766479,51.7978317 157.082376,51.5678926 C158.364871,50.6335118 158.55904,49.2455525 157.779176,48.0445593 C156.794733,46.5285811 155.241166,46.4131615 152.60161,48.3359205 L144.125078,54.5100783 L143,52.7774353" id="Fill-35" fill="#1A1919"></path>
                <path d="M165.348012,61 L166.043252,62.9096867 L159.124688,65.5871332 L159.148455,65.6529159 C159.845835,65.8337081 160.500821,66.0310564 161.104846,66.222886 L168.136892,68.6599385 L169,71.0301044 L160.961816,68.0312496 L154.803369,77 L153.980515,74.7393248 L159.260866,67.1619459 L157.165941,66.3449594 L151.695025,68.4623694 L151,66.5529035 L165.348012,61" id="Fill-36" fill="#1A1919"></path>
                <path d="M168.657602,82.2116552 C168.536346,81.5744804 168.981025,81.0212304 169.605925,80.9056975 C170.230603,80.7903826 170.854172,81.1696793 170.980305,81.8295247 C171.097571,82.4438109 170.679715,83.0155898 170.032204,83.1352644 C169.407526,83.2507973 168.792602,82.9170598 168.662036,82.2343258 L168.657602,82.2116552 Z M167.866447,78.0707818 C167.740314,77.4111544 168.185436,76.8576864 168.810336,76.7421535 C169.434792,76.6268386 170.062574,77.0290239 170.184273,77.6659807 C170.30176,78.280267 169.884348,78.8522638 169.236394,78.9719384 C168.611494,79.0872533 167.997013,78.7532979 167.87088,78.0936704 L167.866447,78.0707818 Z M156.643302,82.2650619 C157.008843,84.1761504 159.110314,85.271751 161.655135,84.801336 C163.552445,84.4508135 165.756995,83.077498 165.305001,80.7112535 C164.857219,78.3678976 162.440305,77.7544833 160.311789,78.1479491 C157.859185,78.6013612 156.269559,80.3084143 156.63909,82.2423913 L156.643302,82.2650619 Z M155.103331,82.4791248 C154.538061,79.5212647 156.315667,76.7903286 159.855362,76.1361508 C163.603651,75.4431714 166.266846,77.4713187 166.845194,80.4974086 C167.449478,83.6597402 165.521355,86.2302381 162.120429,86.8589115 C157.955835,87.6286221 155.607861,85.1182885 155.107543,82.5017954 L155.103331,82.4791248 L155.103331,82.4791248 Z" id="Fill-37" fill="#1A1919"></path>
                <polyline id="Fill-38" fill="#1A1919" points="173.867748 89 174 90.9864404 157.132252 92 157 90.0137725 173.867748 89"></polyline>
                <path d="M164.902328,95.4832316 C166.106224,95.5526097 167.051442,95.5844446 168,95.5690761 L167.891587,97.3845429 L166.020295,97.3931053 L166.017401,97.4394306 C167.045877,98.0594425 168.030275,99.4248298 167.919191,101.286841 C167.826361,102.846312 166.738002,105.212193 162.820221,104.984738 L156,104.589546 L156.121992,102.541356 L162.706242,102.923155 C164.547259,103.029856 166.145181,102.444973 166.260273,100.513144 C166.339301,99.1863975 165.434153,98.083154 164.300158,97.643613 C164.045933,97.5355939 163.671051,97.4668745 163.340692,97.4479931 L156.449457,97.0479712 L156.571672,95 L164.902328,95.4832316" id="Fill-39" fill="#1A1919"></path>
                <path d="M74.8461497,39.7501494 C74.8461497,39.7501494 81.8522743,37 89,37 L39.2743391,96 C39.2743391,96 38.1751532,88.0863406 40.3771889,81.0943611" id="Fill-40" fill="#FFFFFE"></path>
                <path d="M42,109.847016 L102.192249,38 C102.192249,38 106.016433,38.111094 113,41.4954219 L46.4342567,120 C46.4342567,120 43.1085097,114.007911 42,109.847016" id="Fill-41" fill="#FFFFFE"></path>
                <path d="M53,129.307173 L122.466427,47 C122.466427,47 126.953447,50.0423129 130,53.4166885 L60.1467607,136 C60.1467607,136 54.4947288,132.017641 53,129.307173" id="Fill-42" fill="#FFFFFE"></path>
                <path d="M69,141.509309 L136.026807,61 C136.026807,61 139.342269,65.2664722 141,70.3089441 L78.0620888,145 C78.0620888,145 70.2157998,142.506556 69,141.509309" id="Fill-43" fill="#FFFFFE"></path>
                <path d="M90,146.788607 L144.562399,83 C144.562399,83 145.508794,90.5466459 144.618031,98.1485509 L103.919087,145.246123 C103.919087,145.246123 94.4533806,147.725193 90,146.788607" id="Fill-44" fill="#FFFFFE"></path>
            </g>
        </g>
    </g>
</svg>