<?xml version="1.0" standalone="no"?>
<!DOCTYPE svg PUBLIC "-//W3C//DTD SVG 20010904//EN"
 "http://www.w3.org/TR/2001/REC-SVG-20010904/DTD/svg10.dtd">
<svg width="200px" height="200px" viewBox="0 0 200 200" version="1.1" xmlns="http://www.w3.org/2000/svg" xmlns:xlink="http://www.w3.org/1999/xlink">
    <g id="WHV" stroke="none" stroke-width="1" fill="none" fill-rule="evenodd">
        <g id="logo_kkht-vektor" transform="translate(0.000000, 0.000000)">
            <path d="M200,100 C200,155.228471 155.228471,200 100,200 C44.7715294,200 0,155.228471 0,100 C0,44.7715294 44.7715294,0 100,0 C155.228471,0 200,44.7715294 200,100 Z" id="Fill-1" fill="#FFFFFE"></path>
            <path d="M200,100 C200,155.228471 155.228471,200 100,200 C44.7715294,200 0,155.228471 0,100 C0,44.7715294 44.7715294,0 100,0 C155.228471,0 200,44.7715294 200,100 Z" id="Stroke-2" stroke="#1A1919" stroke-width="12" stroke-linecap="round"></path>
            <path d="M43.6847059,88.044 L81.3150588,43.6192941 C81.3150588,43.6192941 88.9637647,40.6642353 96.7670588,40.6642353 L42.4807059,104.060235 C42.4807059,104.060235 41.2807059,95.5569412 43.6847059,88.044" id="Fill-3" fill="#FFFFFE"></path>
            <path d="M159.040471,100 C159.040471,134.046824 132.444941,161.647059 99.6374118,161.647059 C66.8298824,161.647059 40.2341176,134.046824 40.2341176,100 C40.2341176,65.9531765 66.8298824,38.3529412 99.6374118,38.3529412 C132.444941,38.3529412 159.040471,65.9531765 159.040471,100" id="Fill-4" fill="#1A1919"></path>
            <path d="M45.2684706,118.795765 L110.224235,41.3411765 C110.224235,41.3411765 114.351059,41.4609412 121.887294,45.1094118 L50.0536471,129.741176 C50.0536471,129.741176 46.4647059,123.281412 45.2684706,118.795765" id="Fill-5" fill="#FFFFFE"></path>
            <path d="M57.1708235,139.729882 L132.174824,50.7312941 C132.174824,50.7312941 137.019529,54.0209412 140.308941,57.6696471 L64.8872941,146.966824 C64.8872941,146.966824 58.7847059,142.660706 57.1708235,139.729882" id="Fill-6" fill="#FFFFFE"></path>
            <path d="M74.7564706,153.246824 L147.307294,66.3416471 C147.307294,66.3416471 150.896,70.9470588 152.690353,76.3901176 L84.5654118,157.014824 C84.5654118,157.014824 76.0724706,154.323294 74.7564706,153.246824" id="Fill-7" fill="#FFFFFE"></path>
            <path d="M98.0235294,159.168235 L156.639529,89.9068235 C156.639529,89.9068235 157.656235,98.1009412 156.699294,106.355059 L112.976706,157.493412 C112.976706,157.493412 102.807765,160.185176 98.0235294,159.168235" id="Fill-8" fill="#FFFFFE"></path>
            <path d="M43.6847059,88.044 L81.3150588,43.6192941 C81.3150588,43.6192941 88.9637647,40.6642353 96.7670588,40.6642353 L42.4807059,104.060235 C42.4807059,104.060235 41.2807059,95.5569412 43.6847059,88.044" id="Fill-9" fill="#FFFFFE"></path>
            <path d="M45.2684706,118.795765 L110.224235,41.3411765 C110.224235,41.3411765 114.351059,41.4609412 121.887294,45.1094118 L50.0536471,129.741176 C50.0536471,129.741176 46.4647059,123.281412 45.2684706,118.795765" id="Fill-10" fill="#FFFFFE"></path>
            <path d="M57.1708235,139.729882 L132.174824,50.7312941 C132.174824,50.7312941 137.019529,54.0209412 140.308941,57.6696471 L64.8872941,146.966824 C64.8872941,146.966824 58.7847059,142.660706 57.1708235,139.729882" id="Fill-11" fill="#FFFFFE"></path>
            <path d="M74.7564706,153.246824 L147.307294,66.3416471 C147.307294,66.3416471 150.896,70.9470588 152.690353,76.3901176 L84.5654118,157.014824 C84.5654118,157.014824 76.0724706,154.323294 74.7564706,153.246824" id="Fill-12" fill="#FFFFFE"></path>
            <path d="M98.0235294,159.168235 L156.639529,89.9068235 C156.639529,89.9068235 157.656235,98.1009412 156.699294,106.355059 L112.976706,157.493412 C112.976706,157.493412 102.807765,160.185176 98.0235294,159.168235" id="Fill-13" fill="#FFFFFE"></path>
            <path d="M70.2214118,175.241882 C69.9534118,175.768 69.3164706,175.974588 68.8091765,175.715765 C68.2896471,175.450824 68.0952941,174.804941 68.3571765,174.291294 C68.6127059,173.790118 69.2376471,173.546588 69.7814118,173.824 C70.2889412,174.082588 70.4863529,174.722353 70.2214118,175.241882" id="Fill-14" fill="#1A1919"></path>
            <polyline id="Fill-15" fill="#1A1919" points="80.7254118 171.365412 78.0823529 170.493176 78.5423529 169.098588 82.7258824 170.479059 77.6432941 185.881176 76.1032941 185.372941 80.7254118 171.365412"></polyline>
            <path d="M92.1414118,173.708 C89.8583529,173.418588 88.0152941,175.063294 87.7235294,177.368235 C87.4402353,179.608 88.8070588,181.724941 91.0903529,182.014118 C93.1338824,182.272706 95.1941176,180.832471 95.5136471,178.309882 C95.7395294,176.526824 94.7724706,174.040941 92.1414118,173.708 Z M87.9950588,188.316471 L92.404,183.328941 L92.3632941,183.301647 C91.8764706,183.483294 91.3188235,183.523059 90.8188235,183.459765 C87.6658824,183.060706 85.7237647,180.252235 86.1117647,177.186588 C86.4642353,174.403059 88.8249412,171.807765 92.3258824,172.250588 C95.7181176,172.680471 97.4967059,175.556471 97.1032941,178.665882 C96.8691765,180.514118 95.7609412,181.765647 94.5710588,183.139529 L89.8214118,188.547529 L87.9950588,188.316471 L87.9950588,188.316471 Z" id="Fill-16" fill="#1A1919"></path>
            <path d="M99.1155294,187.905412 L104.459294,182.079765 C106.226588,180.145882 107.336706,178.934353 107.230353,177.250118 C107.126118,175.587765 105.636941,173.902353 103.515059,174.035529 C103.208941,174.054588 100.039765,174.297647 100.269412,178.301882 L98.6505882,178.404 L98.6477647,178.36 C98.3825882,174.138353 101.410353,172.696235 103.510588,172.564471 C106.835529,172.355765 108.718824,175.070588 108.850824,177.170118 C108.970353,179.073412 108.090118,180.446118 106.197412,182.475765 L101.302824,187.768235 L109.396706,187.259765 L109.488471,188.725647 L99.2075294,189.371294 L99.1155294,187.905412" id="Fill-17" fill="#1A1919"></path>
            <path d="M119.495765,175.901412 C119.462588,175.774118 118.976941,173.907529 118.038824,173.087294 C117.052235,172.166353 115.604235,171.999529 114.607529,172.258824 C113.610588,172.518118 112.427765,173.369176 112.014824,174.654588 C111.595294,175.828 112.081176,177.694824 112.114118,177.821882 L113.151765,181.809647 C113.278588,182.297647 113.757882,184.052706 114.562353,184.794588 C115.581647,185.752235 116.801176,186.001176 118.095059,185.664471 C119.389176,185.328 120.332706,184.516 120.756,183.183059 C121.096941,182.143059 120.660235,180.377176 120.533176,179.889176 L119.495765,175.901412 Z M122.163529,179.714118 C122.572235,181.283765 122.578353,182.527765 122.305882,183.481882 C121.705882,185.789412 119.694824,186.765647 118.464941,187.085647 C117.234588,187.405882 115.003294,187.533176 113.354824,185.810588 C112.651765,185.110353 112.051059,184.021176 111.642588,182.451529 L110.450588,177.869647 C110.141647,176.681882 110.126588,175.666588 110.294118,174.830353 C110.767765,172.646353 112.540706,171.279294 114.237882,170.837882 C115.934824,170.396235 118.149176,170.726118 119.627294,172.402353 C120.180706,173.050824 120.662353,173.944706 120.971529,175.132471 L122.163529,179.714118 L122.163529,179.714118 Z" id="Fill-18" fill="#1A1919"></path>
            <path d="M128.178588,175.691294 C128.422118,176.229176 128.185647,176.855529 127.666588,177.090118 C127.135294,177.330353 126.509647,177.078824 126.272,176.553882 C126.040235,176.040941 126.240235,175.400941 126.796706,175.149412 C127.315529,174.914824 127.938353,175.16 128.178588,175.691294" id="Fill-19" fill="#1A1919"></path>
            <path d="M12.9710588,112.200941 L12.8729412,110.028941 L20.9856471,109.662118 L20.9823529,109.586824 C20.3129412,109.166824 19.6936471,108.744941 19.1251765,108.345647 L12.5771765,103.488941 L12.4550588,100.792706 L19.8698824,106.560706 L29.2583529,99.5574118 L29.3743529,102.128706 L21.3616471,108.018824 L23.2823529,109.557882 L29.6976471,109.268 L29.7957647,111.439765 L12.9710588,112.200941" id="Fill-20" fill="#1A1919"></path>
            <path d="M12.7538824,96.5863529 L13.0192941,94.4284706 L21.0795294,95.4195294 L21.0887059,95.3451765 C20.4988235,94.8192941 19.9583529,94.2997647 19.4647059,93.8110588 L13.8178824,87.9305882 L14.1472941,85.2522353 L20.4964706,92.1755294 L30.9214118,86.836 L30.6072941,89.3905882 L21.7242353,93.8623529 L23.3614118,95.7 L29.7352941,96.4835294 L29.4698824,98.6411765 L12.7538824,96.5863529" id="Fill-21" fill="#1A1919"></path>
            <polyline id="Fill-22" fill="#1A1919" points="15.8089412 78.7736471 22.5171765 80.9312941 25.0117647 73.1767059 18.3035294 71.0190588 18.9767059 68.9256471 35.0096471 74.0830588 34.3362353 76.1762353 26.8195294 73.7583529 24.3249412 81.5129412 31.8418824 83.9310588 31.1684706 86.0242353 15.1357647 80.8670588 15.8089412 78.7736471"></polyline>
            <polyline id="Fill-23" fill="#1A1919" points="24.6661176 61.4776471 22.2338824 65.9858824 20.6063529 65.1077647 26.5268235 54.1341176 28.1541176 55.012 25.7101176 59.5423529 38.9049412 66.6609412 37.8609412 68.5962353 24.6661176 61.4776471"></polyline>
            <path d="M42.9138824,55.6174118 C44.0270588,55.3002353 45.3091765,54.5656471 46.3016471,53.4418824 C47.7736471,51.7748235 47.772,50.04 46.4795294,48.8988235 C45.3183529,47.8734118 44.0296471,47.9357647 41.888,49.0778824 C39.3192941,50.4767059 37.1082353,50.7910588 35.3477647,49.2362353 C33.3809412,47.4997647 33.3588235,44.58 35.5254118,42.1263529 C36.6501176,40.8527059 37.7934118,40.1621176 38.5915294,39.9 L39.5244706,41.524 C38.9336471,41.7021176 37.8334118,42.2308235 36.8244706,43.3731765 C35.3028235,45.0964706 35.7543529,46.6618824 36.6157647,47.4225882 C37.7957647,48.4647059 39.0545882,48.2094118 41.2670588,47.0628235 C43.9952941,45.6717647 45.9496471,45.4974118 47.804,47.1348235 C49.752,48.8548235 50.1992941,51.7835294 47.5694118,54.7616471 C46.4945882,55.9790588 44.9456471,56.9783529 43.9007059,57.2555294 L42.9138824,55.6174118" id="Fill-24" fill="#1A1919"></path>
            <path d="M59.3103529,42.8352941 C59.0437647,43.4138824 58.3341176,44.5545882 57.0842353,45.5917647 C54.2769412,47.9214118 50.8703529,47.5336471 48.4927059,44.6682353 C46.1150588,41.8030588 46.3374118,38.0795294 49.3755294,35.5583529 C50.3755294,34.7287059 51.4675294,34.2447059 52.1364706,34.1115294 L52.8209412,35.7192941 C52.2414118,35.8428235 51.4155294,36.1383529 50.4924706,36.9044706 C48.3578824,38.6757647 48.5287059,41.2291765 50.1404706,43.1712941 C51.9272941,45.3249412 54.4129412,45.5028235 56.2590588,43.9710588 C57.2204706,43.1731765 57.6637647,42.416 57.9689412,41.8054118 L59.3103529,42.8352941" id="Fill-25" fill="#1A1919"></path>
            <path d="M52.2270588,26.7089412 L54.1308235,25.6082353 L57.9075294,32.1414118 L57.9508235,32.1164706 C57.9411765,31.4007059 58.1294118,30.628 58.5383529,29.9872941 C58.9007059,29.316 59.4588235,28.7336471 60.1727059,28.3209412 C61.5788235,27.5082353 64.3289412,27.0729412 66.4174118,30.6854118 L70.0192941,36.9157647 L68.1155294,38.0162353 L64.6385882,32.0023529 C63.6508235,30.2934118 62.2105882,29.2498824 60.4150588,30.288 C59.1818824,31.0007059 58.7303529,32.4162353 58.9628235,33.6672941 C59.0044706,33.9894118 59.1454118,34.2832941 59.3583529,34.6510588 L63.0101176,40.9677647 L61.1065882,42.0684706 L52.2270588,26.7089412" id="Fill-26" fill="#1A1919"></path>
            <path d="M69.5915294,23.8129412 L72.9644706,29.1741176 C73.6762353,30.3656471 74.3654118,31.4856471 74.952,32.6112941 L75.0237647,32.5889412 C74.9216471,31.3383529 74.9167059,29.9788235 74.904,28.5955294 L74.9590588,22.1395294 L76.7242353,21.5894118 L80.3134118,26.8042353 C81.1665882,28.0301176 81.8872941,29.1665882 82.5141176,30.2536471 L82.5856471,30.2312941 C82.4122353,29.0030588 82.3430588,27.6896471 82.3007059,26.2108235 L82.1395294,19.9009412 L84.2148235,19.2538824 L84.0931765,31.9602353 L82.1847059,32.5548235 L78.7014118,27.5948235 C77.8868235,26.4094118 77.1957647,25.3682353 76.4856471,24.0978824 L76.4378824,24.1127059 C76.5830588,25.5856471 76.6044706,26.9136471 76.5856471,28.2804706 L76.4357647,34.3475294 L74.5272941,34.9423529 L67.4447059,24.4823529 L69.5915294,23.8129412" id="Fill-27" fill="#1A1919"></path>
            <path d="M94.8477647,24.3058824 C92.4545882,24.4783529 89.7818824,25.1536471 89.9995294,27.4924706 C90.1336471,28.9355294 91.1392941,29.4943529 92.2338824,29.3924706 C93.8263529,29.2444706 94.7538824,28.1543529 95.0072941,27.1018824 C95.0611765,26.8710588 95.0630588,26.6197647 95.0421176,26.396 L94.8477647,24.3058824 Z M97.2905882,27.3663529 C97.3875294,28.4112941 97.5324706,29.4265882 97.7329412,30.2362353 L95.7677647,30.4190588 L95.4272941,28.92 L95.3527059,28.9268235 C94.7936471,29.9322353 93.5538824,30.9009412 91.8369412,31.0607059 C89.3988235,31.2875294 87.9950588,29.6863529 87.8331765,27.9447059 C87.5623529,25.0338824 90.0018824,23.2009412 94.6567059,22.7929412 L94.6334118,22.5442353 C94.5409412,21.5489412 94.0985882,19.7583529 91.6376471,20.0122353 C90.4931765,20.1185882 89.3536471,20.5508235 88.5609412,21.2016471 L87.9268235,19.7802353 C88.8642353,19.0656471 90.2929412,18.5061176 91.8105882,18.3649412 C95.5176471,18.02 96.6472941,20.4496471 96.8717647,22.8628235 L97.2905882,27.3663529 L97.2905882,27.3663529 Z" id="Fill-28" fill="#1A1919"></path>
            <path d="M100.884,22.0167059 C100.948941,20.5938824 100.980235,19.3696471 100.956471,18.2430588 L102.878588,18.3310588 L102.870118,20.7070588 L102.944941,20.7103529 C103.568235,19.1129412 104.963294,18.1515294 106.436,18.2190588 C106.660706,18.2291765 106.834118,18.2621176 107.031529,18.3211765 L106.937647,20.368 C106.689412,20.3317647 106.465882,20.2964706 106.166353,20.2828235 C104.618824,20.2117647 103.466588,21.3345882 103.092706,22.9432941 C103.027765,23.2656471 102.986824,23.6138824 102.969882,23.9882353 L102.674824,30.4284706 L100.478118,30.3277647 L100.884,22.0167059" id="Fill-29" fill="#1A1919"></path>
            <path d="M107.173882,29.3228235 L113.831059,23.2941176 C114.492471,22.7287059 115.062588,22.2482353 115.744,21.7115294 L115.752941,21.6625882 L109.287294,20.4877647 L109.599765,18.7668235 L118.671765,20.4150588 L118.426118,21.7672941 L111.831294,27.7308235 C111.223529,28.2807059 110.620235,28.8061176 109.972,29.2978824 L109.963059,29.3470588 L116.920706,30.6112941 L116.608235,32.3322353 L106.946118,30.5767059 L107.173882,29.3228235" id="Fill-30" fill="#1A1919"></path>
            <polyline id="Fill-31" fill="#1A1919" points="125.363294 27.276 124.879294 28.8002353 118.996941 26.9315294 119.480941 25.4072941 125.363294 27.276"></polyline>
            <path d="M127.422588,36.0395294 L131.858588,19.24 L133.868941,20.3557647 L131.482118,28.776 C130.888471,30.8757647 130.275294,32.9072941 129.749412,34.4729412 L129.793176,34.4971765 C130.845882,33.1668235 132.274588,31.6734118 133.832,30.0515294 L139.921176,23.7141176 L141.909176,24.8176471 L139.553882,33.2842353 C138.986824,35.2842353 138.422588,37.2287059 137.779765,38.9011765 L137.823765,38.9254118 C139.026824,37.4783529 140.351294,36.0698824 141.828706,34.4894118 L147.896,28.1397647 L149.840471,29.2190588 L137.495059,41.6291765 L135.506588,40.5258824 L137.893176,31.848 C138.489412,29.6927059 138.983765,28.0809412 139.611765,26.4861176 L139.568,26.4616471 C138.503059,27.8141176 137.365412,29.0402353 135.764235,30.6378824 L129.410824,37.1428235 L127.422588,36.0395294" id="Fill-32" fill="#1A1919"></path>
            <path d="M152.043765,44.2232941 C152.969176,43.2068235 153.968706,41.1585882 152.128235,39.5432941 C150.437882,38.0597647 148.372706,38.9734118 147.236,40.0035294 L152.043765,44.2232941 Z M146.178824,41.1703529 C144.255059,43.4381176 144.856,45.5945882 146.508471,47.0449412 C147.691529,48.0835294 148.605412,48.5197647 149.420471,48.8030588 L148.699294,50.2310588 C147.886118,49.9830588 146.592,49.4122353 145.145647,48.1430588 C142.366353,45.7035294 142.308,42.3609412 144.697882,39.6378824 C147.120941,36.8771765 150.650353,36.1512941 153.298353,38.4755294 C156.265647,41.0797647 154.744471,44.3658824 153.277412,46.0374118 C152.980706,46.3755294 152.731294,46.6221176 152.528706,46.7767059 L146.178824,41.1703529 L146.178824,41.1703529 Z" id="Fill-33" fill="#1A1919"></path>
            <path d="M161.617176,44.0435294 C161.067294,43.4289412 161.184941,42.5861176 161.762353,42.0696471 C162.339529,41.5531765 163.188706,41.5649412 163.754824,42.1983529 C164.321176,42.8315294 164.222118,43.6576471 163.644706,44.1743529 C163.067529,44.6905882 162.216706,44.7138824 161.633647,44.0621176 L161.617176,44.0435294 Z M150.245647,52.8065882 L159.259765,44.744 L160.725647,46.3828235 L151.711294,54.4456471 L150.245647,52.8065882 L150.245647,52.8065882 Z" id="Fill-34" fill="#1A1919"></path>
            <path d="M153.84,56.7517647 L163.146118,50.3517647 C165.493176,48.7374118 167.192941,48.3870588 168.653647,48.7470588 C169.877647,49.0275294 170.907294,49.7750588 171.756941,51.0103529 C173.116471,52.9868235 173.076706,55.5310588 170.812235,57.0884706 C170.112235,57.5701176 169.304,57.7621176 168.798353,57.7762353 C167.769647,57.1188235 166.811059,56.9595294 166.111059,57.4409412 C165.411059,57.9221176 165.261882,58.6315294 165.042353,59.7228235 C164.784941,61.1127059 164.500706,62.5515294 163.018353,63.5710588 C161.083059,64.9021176 158.781647,64.4223529 157.210353,62.1371765 C156.672,61.3548235 156.243294,60.4668235 156.141882,59.6574118 L157.747765,59.0381176 C157.848,59.7574118 158.100471,60.4329412 158.525176,61.0505882 C159.431529,62.3684706 160.695294,62.5301176 161.642118,61.8790588 C162.507059,61.2842353 162.814588,60.4964706 162.998353,59.3087059 C163.227294,57.8776471 163.479059,56.6124706 164.632235,55.8195294 C165.681882,55.0974118 167.026824,55.1127059 168.424706,55.9103529 C168.756706,55.8637647 169.087529,55.7272941 169.437412,55.4868235 C170.857882,54.5096471 171.072941,53.0581176 170.209176,51.8021176 C169.118824,50.2167059 167.398118,50.096 164.474588,52.1068235 L155.086118,58.5637647 L153.84,56.7517647" id="Fill-35" fill="#1A1919"></path>
            <path d="M178.986824,66.2272941 L179.750824,68.2628235 L172.148,71.1167059 L172.174118,71.1868235 C172.940471,71.3795294 173.660235,71.5898824 174.324,71.7943529 L182.051529,74.392 L183,76.9183529 L174.166824,73.7218824 L167.399294,83.2816471 L166.495059,80.872 L172.297647,72.7952941 L169.995529,71.9244706 L163.983529,74.1814118 L163.219765,72.1461176 L178.986824,66.2272941" id="Fill-36" fill="#1A1919"></path>
            <path d="M182.486588,88.7482353 C182.357882,88.0604706 182.829882,87.4632941 183.493176,87.3385882 C184.156235,87.2141176 184.818118,87.6235294 184.952,88.3357647 C185.076471,88.9988235 184.632941,89.616 183.945647,89.7451765 C183.282588,89.8698824 182.629882,89.5096471 182.491294,88.7727059 L182.486588,88.7482353 Z M181.646824,84.2785882 C181.512941,83.5665882 181.985412,82.9691765 182.648706,82.8444706 C183.311529,82.72 183.977882,83.1541176 184.107059,83.8416471 C184.231765,84.5047059 183.788706,85.1221176 183.100941,85.2512941 C182.437647,85.3757647 181.785412,85.0152941 181.651529,84.3032941 L181.646824,84.2785882 Z M169.734118,88.8058824 C170.122118,90.8687059 172.352706,92.0512941 175.053882,91.5435294 C177.067765,91.1651765 179.407765,89.6828235 178.928,87.1287059 C178.452706,84.5992941 175.887294,83.9371765 173.628,84.3618824 C171.024706,84.8512941 169.337412,86.6938824 169.729647,88.7814118 L169.734118,88.8058824 Z M168.099529,89.0369412 C167.499529,85.8442353 169.386353,82.8964706 173.143529,82.1903529 C177.122118,81.4423529 179.948941,83.6315294 180.562824,86.8978824 C181.204235,90.3112941 179.157647,93.0858824 175.547765,93.7644706 C171.127294,94.5952941 168.635059,91.8856471 168.104,89.0614118 L168.099529,89.0369412 L168.099529,89.0369412 Z" id="Fill-37" fill="#1A1919"></path>
            <polyline id="Fill-38" fill="#1A1919" points="187.172706 96.0496471 187.311529 98.2442353 169.605647 99.364 169.466824 97.1696471 187.172706 96.0496471"></polyline>
            <path d="M178.661882,103.019294 C179.934353,103.093647 180.933412,103.127765 181.936,103.111294 L181.821412,105.056941 L179.843529,105.066118 L179.840471,105.115765 C180.927529,105.780235 181.968,107.243529 181.850588,109.239059 C181.752471,110.910353 180.602118,113.445882 176.461176,113.202118 L169.252471,112.778588 L169.381412,110.583529 L176.340706,110.992706 C178.286588,111.107059 179.975529,110.480235 180.097176,108.409882 C180.180706,106.988 179.224,105.805647 178.025412,105.334588 C177.756706,105.218824 177.360471,105.145176 177.011294,105.124941 L169.727529,104.696235 L169.856706,102.501412 L178.661882,103.019294" id="Fill-39" fill="#1A1919"></path>
            <path d="M81.3150588,43.6192941 C81.3150588,43.6192941 88.9637647,40.6642353 96.7670588,40.6642353 L42.4807059,104.060235 C42.4807059,104.060235 41.2807059,95.5569412 43.6847059,88.044" id="Fill-40" fill="#FFFFFE"></path>
            <path d="M45.2684706,118.795765 L110.224235,41.3411765 C110.224235,41.3411765 114.351059,41.4609412 121.887294,45.1094118 L50.0536471,129.741176 C50.0536471,129.741176 46.4647059,123.281412 45.2684706,118.795765" id="Fill-41" fill="#FFFFFE"></path>
            <path d="M57.1708235,139.729882 L132.174824,50.7312941 C132.174824,50.7312941 137.019529,54.0209412 140.308941,57.6696471 L64.8872941,146.966824 C64.8872941,146.966824 58.7847059,142.660706 57.1708235,139.729882" id="Fill-42" fill="#FFFFFE"></path>
            <path d="M74.7564706,153.246824 L147.307294,66.3416471 C147.307294,66.3416471 150.896,70.9470588 152.690353,76.3901176 L84.5654118,157.014824 C84.5654118,157.014824 76.0724706,154.323294 74.7564706,153.246824" id="Fill-43" fill="#FFFFFE"></path>
            <path d="M98.0235294,159.168235 L156.639529,89.9068235 C156.639529,89.9068235 157.656235,98.1009412 156.699294,106.355059 L112.976706,157.493412 C112.976706,157.493412 102.807765,160.185176 98.0235294,159.168235" id="Fill-44" fill="#FFFFFE"></path>
        </g>
    </g>
</svg>