<?xml version="1.0" encoding="UTF-8" standalone="no"?>
<svg width="228px" height="228px" viewBox="0 0 228 228" version="1.1" xmlns="http://www.w3.org/2000/svg" xmlns:xlink="http://www.w3.org/1999/xlink">
    <g id="Bundesliga" stroke="none" stroke-width="1" fill="none" fill-rule="evenodd">
        <g id="Logo_KTHC_4c" transform="translate(0.000000, 0.000000)">
            <g id="Group-3">
                <mask id="mask-2" fill="white">
                    <use xlink:href="#path-1"></use>
                </mask>
                <g id="Clip-2"></g>
                <path d="M0,113.656 C0,50.885 50.885,0 113.656,0 C176.428,0 227.312,50.885 227.312,113.656 C227.312,176.428 176.428,227.313 113.656,227.313 C50.885,227.313 0,176.428 0,113.656" id="Fill-1" fill="#FFFFFE" mask="url(#mask-2)"></path>
            </g>
            <path d="M6.557,113.656 C6.557,54.506 54.506,6.557 113.656,6.557 C172.806,6.557 220.755,54.506 220.755,113.656 C220.755,172.807 172.806,220.756 113.656,220.756 C54.506,220.756 6.557,172.807 6.557,113.656" id="Fill-4" fill="#FFFFFE"></path>
            <path d="M6.557,113.656 C6.557,54.506 54.506,6.557 113.656,6.557 C172.806,6.557 220.755,54.506 220.755,113.656 C220.755,172.807 172.806,220.756 113.656,220.756 C54.506,220.756 6.557,172.807 6.557,113.656 Z" id="Stroke-5" stroke="#1A1919" stroke-width="2"></path>
            <path d="M32.445,113.658 C32.445,68.799 68.797,32.436 113.656,32.436 C158.514,32.436 194.877,68.799 194.877,113.658 L32.445,113.658" id="Fill-6" fill="#D92A32"></path>
            <polyline id="Fill-7" fill="#6F8F9D" points="27.081 106.71 27.451 104.084 20.281 103.076 28.053 99.795 28.513 96.525 20.054 100.313 14.373 94.935 13.942 98.002 19.463 102.961 13.424 102.112 13.055 104.739 27.081 106.71"></polyline>
            <path d="M15.027,87.648 L15.537,85.978 L13.317,85.299 L12.807,86.969 L15.027,87.648 Z M15.887,84.833 L16.398,83.163 L14.178,82.484 L13.667,84.154 L15.887,84.833 Z M22.717,90.822 C21.174,90.351 19.767,89.706 19.031,88.747 C18.48,88.06 18.259,87.168 18.549,86.219 C18.919,85.007 19.959,84.234 21.783,84.255 C22.686,84.262 23.642,84.5 24.3,84.702 C26.463,85.364 27.392,86.095 27.949,86.694 C28.65,87.428 28.849,88.258 28.534,89.29 C28.174,90.468 27.462,90.913 26.787,91.1 C25.519,91.482 24.015,91.219 22.717,90.822 Z M22.001,93.502 C23.242,93.882 25.55,94.409 27.525,93.599 C29.154,92.915 30.193,91.533 30.669,89.978 C30.969,88.996 31.31,87.006 30.017,85.179 C29.07,83.834 27.124,82.666 25.148,82.062 C23.813,81.654 21.611,81.249 19.571,82.003 C17.71,82.705 16.841,84.336 16.456,85.597 C15.155,89.852 18.388,92.398 22.001,93.502 L22.001,93.502 Z" id="Fill-8" fill="#6F8F9D"></path>
            <polyline id="Fill-9" fill="#6F8F9D" points="32.789 82.25 36.046 74.933 33.836 73.948 31.678 78.795 20.913 74.002 19.813 76.473 32.789 82.25"></polyline>
            <polyline id="Fill-10" fill="#6F8F9D" points="36.71 73.275 38.035 71.156 28.024 64.901 40.574 67.092 42.506 64.001 30.443 56.463 29.137 58.553 38.63 64.485 26.68 62.486 24.648 65.738 36.71 73.275"></polyline>
            <polyline id="Fill-11" fill="#6F8F9D" points="44.057 61.964 49.388 55.38 47.554 53.894 43.892 58.417 40.91 56.002 44.228 51.906 42.423 50.445 39.106 54.542 36.477 52.412 40.02 48.037 38.216 46.575 33.002 53.013 44.057 61.964"></polyline>
            <path d="M44.452,43.375 L45.753,42.161 C46.367,41.589 46.73,41.25 47.258,41.214 C47.554,41.181 48.163,41.231 48.821,41.937 C49.505,42.67 49.477,43.369 49.447,43.612 C49.402,44.191 48.952,44.612 48.727,44.822 L47.162,46.281 L44.452,43.375 Z M50.707,53.922 L52.685,52.078 L48.767,47.877 L50.47,46.29 C50.795,45.986 51.271,45.543 51.996,45.969 C52.497,46.255 55.228,48.631 55.852,49.125 L57.992,47.129 C57.731,47.05 57.549,47.005 57.019,46.638 C56.689,46.409 56.144,45.975 54.866,44.88 C53.442,43.68 52.509,42.881 51.011,44.009 C51.315,43.457 52.338,41.643 50.526,39.7 C49.896,39.024 48.96,38.472 47.873,38.436 C46.476,38.394 45.462,39.338 44.474,40.287 L41.007,43.52 L50.707,53.922 L50.707,53.922 Z" id="Fill-12" fill="#6F8F9D"></path>
            <polyline id="Fill-13" fill="#6F8F9D" points="65.377 41.788 67.616 40.334 61.156 30.385 64.242 28.381 62.956 26.401 54.544 31.863 55.831 33.843 58.917 31.839 65.377 41.788"></polyline>
            <polyline id="Fill-14" fill="#6F8F9D" points="72.13 37.607 79.744 33.894 78.71 31.771 73.479 34.323 71.797 30.874 76.535 28.564 75.518 26.477 70.78 28.788 69.296 25.747 74.357 23.278 73.34 21.192 65.895 24.823 72.13 37.607"></polyline>
            <polyline id="Fill-15" fill="#6F8F9D" points="81.72 32.996 84.097 32.224 80.449 20.998 88.654 30.743 92.122 29.617 87.726 16.089 85.382 16.851 88.841 27.497 80.971 18.284 77.325 19.469 81.72 32.996"></polyline>
            <polyline id="Fill-16" fill="#6F8F9D" points="94.736 29.067 97.204 28.676 95.357 17.018 101.937 27.927 105.538 27.356 103.313 13.308 100.878 13.693 102.629 24.749 96.297 14.418 92.511 15.019 94.736 29.067"></polyline>
            <polyline id="Fill-17" fill="#6F8F9D" points="107.858 27.289 110.51 27.196 110.012 12.942 107.361 13.035 107.858 27.289"></polyline>
            <path d="M112.278,22.47 C112.247,23.847 112.159,27.348 116.896,27.514 C120.318,27.633 122.237,25.633 122.326,23.077 C122.423,20.305 120.343,19.563 118.226,18.898 C116.464,18.325 115.565,18.058 115.611,16.74 C115.652,15.58 116.483,14.841 117.715,14.885 C119.545,14.948 119.623,16.624 119.64,17.117 L122.188,17.206 C122.205,16.734 122.245,15.594 121.579,14.547 C120.702,13.178 119.192,12.791 117.909,12.746 C114.471,12.626 112.945,14.639 112.863,16.979 C112.777,19.437 114.35,20.495 117.263,21.443 C118.821,21.931 119.584,22.174 119.539,23.433 C119.498,24.632 118.563,25.387 117.127,25.336 C114.852,25.257 114.957,23.233 114.98,22.564 L112.278,22.47" id="Fill-18" fill="#6F8F9D"></path>
            <polyline id="Fill-19" fill="#6F8F9D" points="124.308 23.65 128.511 24.241 128.82 22.04 124.617 21.449 124.308 23.65"></polyline>
            <path d="M138.922,15.999 L136.301,24.068 C135.894,25.32 135.586,26.377 135.822,27.589 C136.267,29.988 138.318,30.985 139.49,31.366 C141.866,32.138 145.069,31.752 146.375,27.734 L149.112,19.31 L146.654,18.511 L144.032,26.581 C143.589,27.944 143.289,28.425 142.911,28.756 C141.884,29.703 140.657,29.325 140.25,29.193 C137.792,28.394 138.295,26.513 138.775,25.037 L141.445,16.818 L138.922,15.999" id="Fill-20" fill="#6F8F9D"></path>
            <polyline id="Fill-21" fill="#6F8F9D" points="147.37 33.795 149.615 34.891 154.79 24.281 153.923 36.991 157.199 38.589 163.435 25.806 161.22 24.725 156.313 34.786 157.051 22.692 153.605 21.011 147.37 33.795"></polyline>
            <path d="M168.317,31.865 C169.61,32.674 170.129,33.158 170.476,33.617 C171.53,35.004 170.961,36.862 169.81,38.506 C169.415,39.07 168.14,40.771 166.597,41.156 C165.458,41.439 164.603,40.96 163.678,40.312 C163.425,40.135 163.071,39.864 162.845,39.681 L168.317,31.865 Z M159.301,40.058 L162.455,42.266 C163.479,42.983 163.933,43.229 164.368,43.414 C166.571,44.356 169.548,43.654 172.053,40.077 C173.215,38.417 174.053,36.266 173.533,34.293 C173.035,32.408 171.336,31.193 170.775,30.801 L167.437,28.439 L159.301,40.058 L159.301,40.058 Z" id="Fill-22" fill="#6F8F9D"></path>
            <polyline id="Fill-23" fill="#6F8F9D" points="173.057 50.533 174.866 52.473 179.428 48.22 182.637 51.662 178.076 55.916 179.886 57.856 190.288 48.155 188.455 46.19 184.297 50.067 181.11 46.65 185.27 42.773 183.46 40.833 173.057 50.533"></polyline>
            <path d="M188.652,57.697 C189.975,56.772 191.349,56.06 192.557,56.071 C193.438,56.06 194.276,56.434 194.846,57.248 C195.572,58.285 195.543,59.58 194.402,61.005 C193.842,61.712 193.064,62.318 192.501,62.713 C190.647,64.011 189.5,64.292 188.684,64.362 C187.674,64.463 186.897,64.108 186.279,63.225 C185.572,62.216 185.66,61.381 185.928,60.734 C186.408,59.499 187.541,58.476 188.652,57.697 Z M186.981,55.482 C185.918,56.228 184.082,57.722 183.504,59.777 C183.04,61.481 183.489,63.151 184.422,64.483 C185.012,65.325 186.369,66.818 188.605,66.924 C190.248,67.007 192.367,66.191 194.059,65.007 C195.203,64.206 196.877,62.72 197.539,60.648 C198.132,58.75 197.381,57.06 196.625,55.981 C194.072,52.335 190.076,53.316 186.981,55.482 L186.981,55.482 Z" id="Fill-24" fill="#6F8F9D"></path>
            <path d="M201.973,75.632 C204.519,74.39 205.384,71.855 204.198,69.424 C202.675,66.301 199.027,65.643 194.979,67.618 C191.813,69.162 189.167,71.994 191.035,75.825 C191.53,76.84 192.403,77.957 194.051,78.372 C195.547,78.747 196.762,78.23 197.545,77.906 L196.321,75.398 C194.602,76.18 193.411,75.58 192.924,74.58 C191.791,72.257 195.415,70.489 196.176,70.118 C198.811,68.834 201.292,68.537 202.155,70.306 C202.943,71.921 201.207,72.939 200.787,73.201 L201.973,75.632" id="Fill-25" fill="#6F8F9D"></path>
            <polyline id="Fill-26" fill="#6F8F9D" points="194.069 81.547 194.933 84.056 201.778 81.699 196.343 88.15 197.418 91.273 203.235 84.058 210.738 86.271 209.73 83.342 202.56 81.43 208.326 79.444 207.462 76.936 194.069 81.547"></polyline>
            <polyline id="Fill-27" fill="#6F8F9D" points="197.743 92.71 199.359 101.026 201.677 100.576 200.566 94.863 204.332 94.131 205.338 99.306 207.617 98.863 206.611 93.689 209.933 93.043 211.007 98.57 213.286 98.127 211.705 89.996 197.743 92.71"></polyline>
            <polyline id="Fill-28" fill="#6F8F9D" points="213.752 101.158 205.114 105.948 199.913 106.312 200.096 108.924 205.258 108.563 214.518 112.102 214.327 109.387 207.689 107.244 213.969 104.249 213.752 101.158"></polyline>
            <polyline id="Fill-29" fill="#6F8F9D" points="204.244 110.824 204.318 115.068 206.542 115.029 206.468 110.786 204.244 110.824"></polyline>
            <path d="M208.931,127.564 C211.753,127.811 213.8,126.082 214.035,123.389 C214.338,119.928 211.55,117.484 207.063,117.092 C203.555,116.785 199.827,117.852 199.456,122.096 C199.357,123.223 199.53,124.629 200.729,125.832 C201.817,126.924 203.125,127.107 203.963,127.232 L204.206,124.453 C202.329,124.238 201.618,123.111 201.715,122.002 C201.94,119.428 205.959,119.779 206.801,119.854 C209.722,120.107 212.001,121.133 211.83,123.094 C211.673,124.883 209.66,124.861 209.166,124.871 L208.931,127.564" id="Fill-30" fill="#6F8F9D"></path>
            <polyline id="Fill-31" fill="#6F8F9D" points="199 128.59 197.335 136.426 199.701 136.928 200.805 131.738 212.331 134.188 212.894 131.543 199 128.59"></polyline>
            <path d="M210.255,142.678 L202.232,139.916 C200.988,139.486 199.937,139.162 198.721,139.377 C196.314,139.779 195.281,141.813 194.88,142.977 C194.066,145.34 194.396,148.549 198.392,149.924 L206.767,152.809 L207.608,150.365 L199.585,147.602 C198.23,147.135 197.755,146.828 197.43,146.443 C196.501,145.4 196.9,144.18 197.039,143.775 C197.881,141.332 199.753,141.867 201.22,142.373 L209.392,145.186 L210.255,142.678" id="Fill-32" fill="#6F8F9D"></path>
            <path d="M196.318,155.846 L195.603,157.191 C195.008,158.311 194.261,159.715 192.472,158.764 C190.787,157.867 191.43,156.658 192,155.586 L192.844,154 L196.318,155.846 Z M201.442,158.57 L200.599,160.158 C200.188,160.928 199.578,162.076 198.015,161.246 C196.399,160.387 197.042,159.178 197.396,158.514 L198.264,156.881 L201.442,158.57 Z M192.019,150.691 L189.849,154.771 C189.624,155.195 188.836,156.676 188.891,157.789 C188.927,158.895 189.515,160.178 190.991,160.963 C192.312,161.664 194.047,161.752 195.277,160.275 L195.313,160.293 C195.166,161.029 195.441,161.854 195.505,161.984 C195.799,162.859 196.574,163.369 197.043,163.617 C197.773,164.006 199.109,164.426 200.369,163.816 C201.401,163.299 202.053,162.074 202.391,161.439 L204.56,157.359 L192.019,150.691 L192.019,150.691 Z" id="Fill-33" fill="#6F8F9D"></path>
            <path d="M187.114,167.955 C186.048,167.082 183.344,164.857 180.296,168.49 C178.096,171.111 178.49,173.855 180.449,175.5 C182.574,177.283 184.439,176.1 186.267,174.84 C187.803,173.805 188.566,173.262 189.576,174.109 C190.466,174.855 190.536,175.965 189.744,176.91 C188.567,178.313 187.198,177.342 186.799,177.053 L185.16,179.006 C185.521,179.309 186.396,180.043 187.631,180.162 C189.249,180.314 190.484,179.363 191.31,178.379 C193.521,175.744 192.874,173.301 191.08,171.797 C189.196,170.217 187.394,170.803 184.854,172.516 C183.51,173.443 182.85,173.895 181.885,173.084 C180.965,172.313 180.945,171.113 181.869,170.012 C183.333,168.268 184.863,169.596 185.376,170.025 L187.114,167.955" id="Fill-34" fill="#6F8F9D"></path>
            <polyline id="Fill-35" fill="#6F8F9D" points="173.956 175.869 172.003 177.691 180.094 186.367 177.402 188.877 179.013 190.604 186.348 183.762 184.737 182.035 182.046 184.545 173.956 175.869"></polyline>
            <path d="M170.226,186.176 L172.409,192.117 L167.396,188.309 L170.226,186.176 Z M175.294,193.441 L170.302,179.395 L168.278,180.918 L169.387,183.926 L165.478,186.871 L162.92,184.957 L160.788,186.563 L172.778,195.338 L175.294,193.441 L175.294,193.441 Z" id="Fill-36" fill="#6F8F9D"></path>
            <path d="M162.734,199.105 C161.439,199.912 160.778,200.166 160.214,200.277 C158.504,200.617 157.083,199.291 156.11,197.535 C155.776,196.934 154.807,195.041 155.138,193.486 C155.382,192.338 156.188,191.779 157.176,191.23 C157.445,191.082 157.845,190.883 158.108,190.76 L162.734,199.105 Z M159.323,187.408 L155.955,189.275 C154.862,189.883 154.442,190.182 154.086,190.492 C152.273,192.061 151.599,195.043 153.716,198.863 C154.698,200.635 156.265,202.33 158.266,202.729 C160.178,203.107 162.014,202.113 162.612,201.781 L166.2,199.814 L159.323,187.408 L159.323,187.408 Z" id="Fill-37" fill="#6F8F9D"></path>
            <polyline id="Fill-38" fill="#6F8F9D" points="148.318 193.133 145.858 194.125 151.202 207.35 153.661 206.355 148.318 193.133"></polyline>
            <path d="M143.658,202.518 C144.13,204.061 144.382,205.588 143.998,206.732 C143.736,207.574 143.121,208.256 142.172,208.547 C140.961,208.916 139.738,208.488 138.735,206.965 C138.236,206.211 137.9,205.285 137.698,204.627 C137.037,202.463 137.124,201.285 137.311,200.488 C137.526,199.496 138.104,198.867 139.134,198.551 C140.313,198.191 141.079,198.533 141.612,198.988 C142.638,199.826 143.261,201.219 143.658,202.518 Z M146.28,201.613 C145.9,200.371 145.047,198.164 143.271,196.979 C141.793,196.01 140.066,195.922 138.512,196.396 C137.529,196.697 135.688,197.527 134.897,199.621 C134.312,201.158 134.432,203.426 135.035,205.4 C135.444,206.736 136.339,208.787 138.105,210.057 C139.729,211.207 141.566,211.016 142.827,210.629 C147.083,209.328 147.385,205.225 146.28,201.613 L146.28,201.613 Z" id="Fill-39" fill="#6F8F9D"></path>
            <polyline id="Fill-40" fill="#6F8F9D" points="130.673 198.822 128.198 199.17 129.841 210.859 123.452 199.838 119.843 200.344 121.822 214.43 124.263 214.086 122.704 203.002 128.855 213.441 132.652 212.908 130.673 198.822"></polyline>
            <path d="M109.302,212.248 L107.526,212.123 C106.689,212.064 106.194,212.031 105.808,211.668 C105.582,211.475 105.203,210.994 105.271,210.033 C105.34,209.033 105.87,208.576 106.068,208.434 C106.523,208.07 107.138,208.113 107.445,208.135 L109.579,208.283 L109.302,212.248 Z M112.75,200.479 L110.052,200.291 L109.651,206.021 L107.33,205.859 C106.885,205.828 106.237,205.783 106.054,204.961 C105.922,204.4 105.797,200.781 105.733,199.988 L102.813,199.785 C102.933,200.029 103.024,200.193 103.117,200.832 C103.175,201.23 103.23,201.924 103.301,203.605 C103.394,205.465 103.445,206.691 105.292,207.018 C104.681,207.172 102.657,207.662 102.471,210.311 C102.407,211.234 102.642,212.295 103.356,213.113 C104.278,214.164 105.661,214.262 107.028,214.338 L111.758,214.668 L112.75,200.479 L112.75,200.479 Z" id="Fill-41" fill="#6F8F9D"></path>
            <path d="M97.429,206.08 C97.094,207.658 96.574,209.117 95.683,209.932 C95.046,210.541 94.178,210.84 93.207,210.633 C91.968,210.369 91.106,209.402 90.968,207.582 C90.897,206.684 91.051,205.711 91.194,205.037 C91.665,202.824 92.312,201.834 92.861,201.227 C93.531,200.465 94.341,200.193 95.396,200.418 C96.601,200.674 97.105,201.346 97.351,202.002 C97.842,203.232 97.711,204.752 97.429,206.08 Z M100.162,206.561 C100.432,205.291 100.755,202.945 99.776,201.049 C98.953,199.484 97.485,198.57 95.896,198.232 C94.891,198.018 92.879,197.852 91.171,199.299 C89.914,200.359 88.919,202.4 88.49,204.422 C88.2,205.787 87.989,208.016 88.918,209.982 C89.779,211.775 91.48,212.498 92.769,212.773 C97.122,213.697 99.377,210.256 100.162,206.561 L100.162,206.561 Z" id="Fill-42" fill="#6F8F9D"></path>
            <polyline id="Fill-43" fill="#6F8F9D" points="86.105 195.959 83.581 195.09 79.718 206.307 76.239 205.107 75.47 207.34 84.954 210.605 85.722 208.373 82.243 207.176 86.105 195.959"></polyline>
            <polyline id="Fill-44" fill="#6F8F9D" points="79.998 198.086 76.12 196.359 75.216 198.391 79.094 200.117 79.998 198.086"></polyline>
            <polyline id="Fill-45" fill="#6F8F9D" points="69.303 204.666 74.036 190.939 71.454 189.389 63.792 197.453 67.463 186.99 64.94 185.475 54.925 196.027 57.097 197.332 64.295 189.24 60.676 199.482 63.244 201.025 70.794 193.145 66.955 203.256 69.303 204.666"></polyline>
            <polyline id="Fill-46" fill="#6F8F9D" points="61.008 182.744 54.518 177.299 53.001 179.107 57.458 182.848 54.993 185.787 50.955 182.398 49.462 184.176 53.501 187.564 51.326 190.156 47.012 186.537 45.52 188.316 51.865 193.641 61.008 182.744"></polyline>
            <polyline id="Fill-47" fill="#6F8F9D" points="53.384 176.051 51.476 174.207 41.567 184.467 43.476 186.311 53.384 176.051"></polyline>
            <path d="M46.742,175.902 C47.786,175.004 50.447,172.729 47.399,169.096 C45.199,166.475 42.428,166.385 40.469,168.029 C38.344,169.813 39.185,171.855 40.108,173.873 C40.86,175.566 41.263,176.412 40.253,177.26 C39.364,178.006 38.259,177.883 37.467,176.939 C36.29,175.535 37.483,174.355 37.837,174.014 L36.198,172.061 C35.836,172.363 34.962,173.098 34.63,174.291 C34.199,175.859 34.922,177.242 35.747,178.225 C37.959,180.861 40.476,180.646 42.27,179.143 C44.153,177.563 43.888,175.684 42.643,172.885 C41.963,171.4 41.633,170.672 42.598,169.863 C43.517,169.092 44.703,169.279 45.627,170.381 C47.091,172.125 45.516,173.402 45.004,173.832 L46.742,175.902" id="Fill-48" fill="#6F8F9D"></path>
            <path d="M38.965,166.414 C40.124,165.67 43.075,163.785 40.563,159.764 C38.749,156.861 36.018,156.389 33.849,157.744 C31.497,159.213 32.044,161.354 32.678,163.48 C33.188,165.262 33.468,166.156 32.35,166.854 C31.366,167.469 30.289,167.193 29.636,166.148 C28.665,164.596 30.011,163.594 30.41,163.303 L29.058,161.141 C28.658,161.391 27.69,161.996 27.195,163.133 C26.55,164.625 27.073,166.094 27.754,167.184 C29.577,170.1 32.1,170.24 34.085,169 C36.17,167.695 36.169,165.801 35.326,162.855 C34.858,161.291 34.634,160.523 35.702,159.855 C36.719,159.219 37.868,159.572 38.629,160.791 C39.836,162.721 38.099,163.766 37.532,164.121 L38.965,166.414" id="Fill-49" fill="#6F8F9D"></path>
            <polyline id="Fill-50" fill="#6F8F9D" points="34.53 149.357 31.356 141.502 29.168 142.387 31.348 147.781 27.791 149.219 25.816 144.33 23.664 145.201 25.638 150.088 22.501 151.355 20.392 146.135 18.239 147.004 21.342 154.686 34.53 149.357"></polyline>
            <polyline id="Fill-51" fill="#6F8F9D" points="30.849 139.572 30.213 137.494 27.711 138.26 28.347 140.338 30.849 139.572"></polyline>
            <polyline id="Fill-52" fill="#6F8F9D" points="15.717 138.697 28.752 131.525 28.201 128.688 13.427 126.92 13.927 129.492 25.498 130.555 15.165 135.859 15.717 138.697"></polyline>
            <polyline id="Fill-53" fill="#6F8F9D" points="27.669 125.129 27.404 122.973 24.808 123.291 25.072 125.449 27.669 125.129"></polyline>
            <path d="M32.434,113.658 C32.434,68.799 68.797,32.436 113.656,32.436 C158.514,32.436 194.877,68.799 194.877,113.658 C194.877,158.516 158.514,194.879 113.656,194.879 C68.797,194.879 32.434,158.516 32.434,113.658 Z" id="Stroke-54" stroke="#1A1919" stroke-width="2"></path>
        </g>
    </g>
</svg>