<?xml version="1.0" encoding="UTF-8" standalone="no"?>
<svg
   xmlns:dc="http://purl.org/dc/elements/1.1/"
   xmlns:cc="http://creativecommons.org/ns#"
   xmlns:rdf="http://www.w3.org/1999/02/22-rdf-syntax-ns#"
   xmlns:svg="http://www.w3.org/2000/svg"
   xmlns="http://www.w3.org/2000/svg"
   viewBox="0 0 1511.9067 742.61334"
   height="742.61334"
   width="1511.9067"
   xml:space="preserve"
   id="svg2"
   version="1.1"><metadata
     id="metadata8"><rdf:RDF><cc:Work
         rdf:about=""><dc:format>image/svg+xml</dc:format><dc:type
           rdf:resource="http://purl.org/dc/dcmitype/StillImage" /></cc:Work></rdf:RDF></metadata><defs
     id="defs6" /><g
     transform="matrix(1.3333333,0,0,-1.3333333,0,742.61333)"
     id="g10"><g
       transform="scale(0.1)"
       id="g12"><path
         id="path14"
         style="fill:#134785;fill-opacity:1;fill-rule:nonzero;stroke:none"
         d="M 3011.57,2099.6 H 659.887 c 0,0 -659.887,0 -659.887,660 v 15.9 c 0,0 0,660 659.887,660 H 3011.67 c 0,0 -79.45,-278.58 -79.45,-665.04 0,-360.55 79.35,-670.86 79.35,-670.86 v 0" /><path
         id="path16"
         style="fill:#134785;fill-opacity:1;fill-rule:nonzero;stroke:none"
         d="m 8327.75,2099.6 h 2351.65 c 0,0 659.9,0 659.9,660 v 15.9 c 0,0 0,660 -659.9,660 H 8327.65 c 0,0 79.43,-278.58 79.43,-665.04 0,-360.55 -79.33,-670.86 -79.33,-670.86 v 0" /><path
         id="path18"
         style="fill:#ffffff;fill-opacity:1;fill-rule:nonzero;stroke:none"
         d="M 5651.05,5510.02 C 7093.71,5508.45 8262.67,4290.63 8262.67,2788.5 8262.67,1286.51 7093.71,68.6992 5651.05,67.1406 v 5442.8794 0" /><path
         id="path20"
         style="fill:#134785;fill-opacity:1;fill-rule:nonzero;stroke:none"
         d="m 3035.7,2759.97 v 0 c 0,1515.86 1180.56,2744.85 2636.81,2744.85 V 50.4414 C 4216.26,50.4414 3035.7,1244.08 3035.7,2759.97" /><g
         transform="scale(10)"
         id="g22"><text
           id="text28"
           style="font-variant:normal;font-weight:900;font-size:75px;font-family:Interstate;-inkscape-font-specification:Interstate-Black;writing-mode:lr-tb;fill:#ffffff;fill-opacity:1;fill-rule:nonzero;stroke:none"
           transform="matrix(1,0,0,-1,39.623,252.529)"><tspan
             id="tspan24"
             y="0"
             x="0 61.049362 122.719 174.16875">KHTC</tspan><tspan
             id="tspan26"
             y="0.273047"
             x="823.836 861.11041 916.75012 973.8996">1930</tspan></text>
</g><path
         id="path30"
         style="fill:none;stroke:#134785;stroke-width:80;stroke-linecap:butt;stroke-linejoin:miter;stroke-miterlimit:3.86400008;stroke-dasharray:none;stroke-opacity:1"
         d="m 3033.27,2784.68 c 0,1515.91 1180.55,2744.89 2636.81,2744.89 1456.46,0 2636.87,-1228.98 2636.87,-2744.89 C 8306.95,1268.8 7126.54,40 5670.08,40 4213.82,40 3033.27,1268.8 3033.27,2784.68 Z" /><path
         id="path32"
         style="fill:#ffffff;fill-opacity:1;fill-rule:nonzero;stroke:none"
         d="m 3313.22,1929.47 c 62.9,-15.92 126.12,-30.1 189.6,-43.14 81.24,-12.19 95.72,101.9 91.7,164.07 -15.31,185.86 -24.21,372.18 -26.94,558.9 -1.14,56.75 -0.56,136.43 -50.72,171.4 39.98,39.42 50.72,93.01 52.73,149.2 5.31,193.01 17.05,385.92 35.82,578.07 4.89,60.91 -8.31,172.82 -88.85,158.5 -63.47,-14.62 -126.67,-30.8 -189.43,-48.74 -73.97,-560.03 -78.24,-1126.93 -13.91,-1688.26 m 83.13,1538.96 c 33.08,7.03 66.35,13.43 99.59,20.07 -20.79,-204.37 -33.11,-409.15 -37.55,-614.79 -33.26,-1.14 -66.63,-2.47 -99.87,-3.86 4.43,200.03 16.88,399.66 37.83,598.58 m -39.43,-781.74 c 33.4,-0.42 66.64,-0.57 100.05,-0.86 1.14,-206.65 10.29,-413.01 27.92,-618.78 -33.37,5.29 -66.48,11 -99.72,16.89 -17.63,200.47 -26.95,401.41 -28.25,602.75" /><path
         id="path34"
         style="fill:#ffffff;fill-opacity:1;fill-rule:nonzero;stroke:none"
         d="m 3747.79,1869.71 c 131.69,-22.65 263.84,-41.42 396.24,-57.9 -16.32,202.78 -27.24,405.98 -32.97,609.33 -47.71,2.03 -95.58,4.18 -143.29,6.46 4.01,-133.97 10.46,-267.97 19.35,-401.71 -44.28,4.9 -88.41,9.9 -132.7,15.35 -38.84,566.07 -30.53,1134.55 28.1,1698.47 -40.87,-7.17 -81.57,-14.47 -122.24,-22.5 -66.81,-613.5 -70.53,-1232.85 -12.49,-1847.5" /><path
         id="path36"
         style="fill:#ffffff;fill-opacity:1;fill-rule:nonzero;stroke:none"
         d="m 4280,1804.51 c 49.15,-5.89 98.17,-11.18 147.34,-16.34 -19.65,297.8 -29.69,596.16 -30.83,894.79 52.6,-0.13 105.32,-0.27 158.06,-0.44 1,-303.52 10.19,-606.75 28.25,-909.41 54.29,-4.88 108.61,-9.31 162.93,-13.62 -30.38,586.69 -32.67,1174.83 -7.88,1761.97 2.7,148.73 -83.55,298.93 -223.71,283.45 -137.99,-15.35 -231.71,-170.24 -244.48,-321.15 -32.53,-559.33 -29.37,-1120.5 10.32,-1679.25 m 142.74,1777.42 c 51.88,5 103.89,9.59 155.78,14.03 -12.77,-232.86 -20.37,-465.89 -23.08,-699.04 -52.6,-0.85 -105.32,-1.89 -157.92,-2.88 3,229.58 11.18,458.89 25.22,687.89" /><path
         id="path38"
         style="fill:#ffffff;fill-opacity:1;fill-rule:nonzero;stroke:none"
         d="m 5467.04,3822.08 c -57.76,-2.16 -115.53,-4.59 -173.29,-7.46 -20.46,-619.92 -23.2,-1240.58 -9.59,-1860.68 -57.17,1.86 -114.53,4.01 -171.67,6.59 -16.78,614.93 -13.33,1230.29 12.18,1844.64 -54.91,-3.59 -109.62,-7.31 -164.38,-11.47 -28.78,-578.65 -33.69,-1158.5 -17.06,-1737.87 9.48,-167.52 118.65,-316.52 261.25,-323.72 143.59,-7.18 251.78,137.86 253.8,306.24 -8.45,594.57 -5.91,1189.45 8.76,1783.73" /><path
         id="path40"
         style="fill:#134785;fill-opacity:1;fill-rule:nonzero;stroke:none"
         d="m 5852.44,1751.24 c 55.86,0.29 111.75,0.7 167.65,1.55 64.63,352.27 130.28,701.63 152.78,1062.19 1.71,0 3.28,-0.13 5.04,-0.13 23.18,-356.13 82.96,-703.77 134.82,-1054.9 53.89,1.88 107.91,4.02 161.8,6.33 39.57,675.7 56.89,1352.95 50.86,2030.07 -58.01,3.16 -115.79,6 -173.81,8.45 8.14,-366.29 6.31,-732.71 6.31,-1099.03 0,-134.26 3.84,-268.56 2.53,-402.95 -1.69,-0.15 -3.26,-0.15 -4.7,-0.15 -22.93,273.87 -69.65,542.54 -106.06,813.81 -50.6,0.59 -101.01,1.03 -151.46,1.6 -33.24,-273.7 -80.94,-544.41 -108.48,-819.28 H 5985 c 0.56,135.71 5.7,271.26 5.7,406.97 -0.1,369.9 -9.03,739.61 -15.45,1109.35 -60.47,0.86 -121,1.28 -181.47,1.44 21.23,-688.45 40.88,-1376.89 58.66,-2065.32" /><path
         id="path42"
         style="fill:#134785;fill-opacity:1;fill-rule:nonzero;stroke:none"
         d="m 7114.58,3753.31 c -101.99,11.17 -203.75,20.92 -305.93,29.23 -91.14,3.72 -154.9,-81.84 -153.77,-188.46 19.51,-537.39 20.64,-1075.49 4.61,-1613.17 -0.73,-107.5 63.18,-196.04 155.74,-193.16 102.62,7.28 205.08,15.89 307.56,25.78 3.98,65.49 7.58,130.83 10.74,196.16 -103.2,-7.72 -206.5,-14.59 -309.71,-20.32 8.46,231.28 12.78,462.88 13.34,694.57 79.24,0.15 158.21,0.46 237.44,0.72 0.16,69.08 -0.09,138.15 -0.72,207.23 -79.24,1.45 -158.32,2.44 -237.28,3.6 -2.13,229.7 -7.99,459.3 -18.05,688.74 102.71,-6.59 205.51,-14.78 308.22,-23.8 -3.42,64.19 -7.71,128.68 -12.19,192.88" /><path
         id="path44"
         style="fill:#134785;fill-opacity:1;fill-rule:nonzero;stroke:none"
         d="m 7230.39,1817.53 c 45.84,5.03 91.58,10.16 137.26,15.77 43.61,627.68 41.02,1258.36 -9.28,1885.47 -45.58,6.29 -91.15,12.32 -136.75,17.9 47.05,-638.43 49.49,-1280.16 8.77,-1919.14" /><path
         id="path46"
         style="fill:#134785;fill-opacity:1;fill-rule:nonzero;stroke:none"
         d="m 7497.87,2102.5 c -3.58,-113.77 42.42,-278.42 159.76,-258.5 112.13,19.07 170.47,176.26 180.31,297.91 11.06,178.44 16.82,357.14 17.48,536.26 -1.15,78.82 -30.64,182.87 -106.3,189.59 -38.01,1.15 -75.98,2.43 -113.93,3.57 -3.48,212.25 -12.75,424.23 -28.53,635.59 37.65,-5.6 75.41,-11.33 112.89,-17.35 7.32,-93.16 13.49,-186.29 18.2,-279.71 35.17,-3.61 69.96,-7.47 104.92,-11.62 -3.59,66.17 -7.73,132.39 -12.62,198.33 -11.6,122.25 -71.91,276.71 -183.26,298.06 -115.94,22.36 -160.8,-138.27 -156.07,-250.77 11.76,-189.3 19.08,-379.2 21.93,-569.21 2.85,-87 41.52,-194.46 123.67,-198.19 37.95,0.15 75.98,0.41 113.93,0.72 -1.04,-209.07 -8.28,-418.04 -22.09,-626.38 -37.7,-5.18 -75.35,-10.2 -113.05,-14.93 6.02,96.3 10.74,192.6 14.32,288.9 -40.7,-2.86 -81.52,-5.58 -122.38,-8.31 -2.29,-71.34 -5.45,-142.71 -9.18,-213.96" /><path
         id="path48"
         style="fill:#134785;fill-opacity:1;fill-rule:nonzero;stroke:none"
         d="m 7896.03,2166.84 c -4,-76.39 11.62,-254.65 113.65,-229.74 95.74,23.52 131.57,177.85 140.18,272.28 12.19,159.52 18.46,319.57 19.45,479.81 -0.68,57.45 -13.34,162.66 -77.54,170.09 -28.36,1.42 -56.56,2.59 -84.82,3.86 -3.83,191.87 -14.88,383.51 -33.09,574.26 28.21,-5.91 56.47,-12.18 84.42,-18.77 8.39,-83.85 15.19,-167.68 20.58,-251.8 25.59,-3.87 50.88,-7.89 76.29,-12.36 -3.89,59.48 -8.61,118.83 -14.04,178.03 -10.49,95.7 -48.69,246.73 -143.85,273.13 -101.23,27.95 -114.82,-147.48 -109.94,-222.26 14.3,-171.7 22.91,-343.97 26.33,-516.34 2.18,-64.79 23.08,-175.69 94.74,-179.58 28.23,0.31 56.49,0.57 84.69,0.85 -1.13,-188 -9.28,-375.88 -24.78,-563.03 -28.27,-5.6 -56.47,-11.05 -84.69,-16.05 7.15,86.83 12.75,173.98 16.76,260.97 -30.96,-3.16 -62.19,-6.17 -93.3,-9.02 -3.01,-64.8 -6.59,-129.54 -11.04,-194.33" /><path
         id="path50"
         style="fill:#ffffff;fill-opacity:1;fill-rule:nonzero;stroke:none"
         d="m 10942.5,2702.11 c 0,12.67 -9.4,21.7 -22.1,21.7 -12.7,0 -22.1,-9.03 -22.1,-21.7 0,-12.66 9.4,-22.07 22.1,-22.07 12.7,0 22.1,9.41 22.1,22.07 z m -108.6,73.09 h -43.2 c 1.7,14.99 8.3,23.04 20.1,23.04 15.3,0 20.5,-7.77 23.1,-23.04 z m 45.8,-22.19 c 0,56.18 -25.9,83.55 -67.4,83.55 -39.8,0 -69.2,-26.78 -69.2,-78.94 0,-46.38 25.1,-78.65 70.6,-78.65 23.7,0 43,6.34 61.7,17.29 l -19.9,33.13 c -15,-7.78 -25.9,-10.66 -39.2,-10.66 -14.1,0 -23.9,7.49 -25.6,24.2 h 88.7 c 0.3,2.59 0.3,5.76 0.3,10.08 v 0" /><path
         id="path52"
         style="fill:#ffffff;fill-opacity:1;fill-rule:nonzero;stroke:none"
         d="m 11131.5,2701.05 c 0,12.67 -9.4,21.69 -22.1,21.69 -12.7,0 -22.1,-9.02 -22.1,-21.69 0,-12.67 9.4,-22.08 22.1,-22.08 12.7,0 22.1,9.41 22.1,22.08 z m -5.2,181.69 h -62.3 l -14.7,-54.16 c -6.9,-25.35 -16.7,-65.98 -20.4,-85.28 -3.8,19.3 -13.6,60.22 -20.5,85.28 l -14.7,54.16 h -62.8 l 69.5,-201.67 h 56.4 l 69.5,201.67 v 0" /></g></g></svg>