<?xml version="1.0" encoding="UTF-8" standalone="no"?>
<!DOCTYPE svg PUBLIC "-//W3C//DTD SVG 1.1//EN" "http://www.w3.org/Graphics/SVG/1.1/DTD/svg11.dtd">
<svg width="543px" height="543px" viewBox="0 0 543 543" version="1.1" xmlns="http://www.w3.org/2000/svg" xmlns:xlink="http://www.w3.org/1999/xlink">
    <g id="WHV" stroke="none" stroke-width="1" fill="none" fill-rule="evenodd">
        <g id="Artboard">
            <g id="Background">
                <path d="M271.047993,446.246656 C174.525329,446.246656 95.9994643,367.693324 95.9994643,271.139993 C95.9994643,174.585329 174.525329,96.0291976 271.047993,96.0291976 C367.571991,96.0291976 446.099989,174.585329 446.099989,271.139993 C446.099989,367.693324 367.571991,446.246656 271.047993,446.246656 Z M271.047993,73.6666648 C162.198663,73.6666648 73.6431982,162.253329 73.6431982,271.139993 C73.6431982,380.025324 162.198663,468.609322 271.047993,468.609322 C379.899991,468.609322 468.457322,380.025324 468.457322,271.139993 C468.457322,162.253329 379.899991,73.6666648 271.047993,73.6666648 Z M271.047993,519.91332 C133.918663,519.91332 22.3573328,408.313323 22.3573328,271.139993 C22.3573328,133.962663 133.918663,22.3639994 271.047993,22.3639994 C408.181323,22.3639994 519.743987,133.962663 519.743987,271.139993 C519.743987,408.313323 408.181323,519.91332 271.047993,519.91332 Z M271.047993,0 C121.593197,0 0,121.630664 0,271.139993 C0,420.645323 121.593197,542.27732 271.047993,542.27732 C420.507989,542.27732 542.099986,420.645323 542.099986,271.139993 C542.099986,121.630664 420.507989,0 271.047993,0" id="path14" fill="#171812" fill-rule="nonzero"></path>
                <path d="M271.037327,8.48 C126.023997,8.48 8.0468798,126.477344 8.0468798,271.515873 C8.0468798,416.55187 126.023997,534.547867 271.037327,534.547867 C416.053323,534.547867 534.030653,416.55187 534.030653,271.515873 C534.030653,126.477344 416.053323,8.48 271.037327,8.48 L271.037327,8.48" id="path16" fill="#FBD217" fill-rule="nonzero"></path>
                <path d="M271.081327,74.7066652 C162.383996,74.7066652 74.2682648,162.823863 74.2682648,271.51986 C74.2682648,380.215858 162.383996,468.331855 271.081327,468.331855 C379.775991,468.331855 467.893322,380.215858 467.893322,271.51986 C467.893322,162.823863 379.775991,74.7066652 271.081327,74.7066652 Z M271.081327,526.998521 C129.983863,526.998521 15.6015996,412.61719 15.6015996,271.51986 C15.6015996,130.423864 129.983863,16.04 271.081327,16.04 C412.177323,16.04 526.559987,130.423864 526.559987,271.51986 C526.559987,412.61719 412.177323,526.998521 271.081327,526.998521" id="path22" fill="#171812" fill-rule="nonzero"></path>
                <path d="M270.14666,457.791857 C167.506662,457.791857 84.0026646,374.287859 84.0026646,271.647862 C84.0026646,169.005198 167.506662,85.5 270.14666,85.5 C372.789324,85.5 456.294655,169.005198 456.294655,271.647862 C456.294655,374.287859 372.789324,457.791857 270.14666,457.791857 Z" id="path24" stroke="#171812" stroke-width="7.9999998"></path>
            </g>
            <g id="1920" transform="translate(99.066913, 420.590000)">
                <path d="M158.895748,93.3070644 C151.257081,93.7855977 149.870414,83.026798 149.501081,77.1335981 C149.153081,71.5669316 149.297081,60.7669319 156.501081,60.3163986 C163.975747,59.8470652 165.502414,70.2137316 165.867747,76.0522648 C166.223747,81.726798 166.262414,92.8455977 158.895748,93.3070644 Z M156.305081,56.3283987 C145.229081,57.0231986 143.846415,69.0507983 144.417081,78.1627981 C144.974415,87.0575979 148.607748,97.8403976 159.138414,97.1814643 C169.833081,96.5111977 171.598414,85.3351979 171.034414,76.3309315 C170.466414,67.2737317 167.163747,55.649732 156.305081,56.3283987" id="path130" fill="#FFFFFF" fill-rule="nonzero" transform="translate(157.718384, 76.755126) scale(1, -1) translate(-157.718384, -76.755126) "></path>
                <path d="M158.895748,93.3070644 C151.257081,93.7855977 149.870414,83.026798 149.501081,77.1335981 C149.153081,71.5669316 149.297081,60.7669319 156.501081,60.3163986 C163.975747,59.8470652 165.502414,70.2137316 165.867747,76.0522648 C166.223747,81.726798 166.262414,92.8455977 158.895748,93.3070644 Z M156.305081,56.3283987 C145.229081,57.0231986 143.846415,69.0507983 144.417081,78.1627981 C144.974415,87.0575979 148.607748,97.8403976 159.138414,97.1814643 C169.833081,96.5111977 171.598414,85.3351979 171.034414,76.3309315 C170.466414,67.2737317 167.163747,55.649732 156.305081,56.3283987 Z" id="path132" stroke="#FFFFFF" stroke-width="1.3333333" transform="translate(157.718384, 76.755126) scale(1, -1) translate(-157.718384, -76.755126) "></path>
                <path d="M99.9864157,56.2931998 L101.131749,60.9103997 C107.225082,64.1290663 119.809082,70.8093328 124.015748,75.959866 C125.007748,77.234266 125.722415,78.5223993 126.117082,80.1145326 C127.143748,84.2530658 125.082415,87.5238657 121.209082,88.484799 C117.017082,89.5249324 113.481082,87.3051991 112.375749,82.8478659 L107.334415,84.0983992 C109.283749,91.499999 115.697082,93.9639989 122.329082,92.3197323 C128.377082,90.8181323 133.041082,86.2249324 131.315748,79.2743993 C130.210415,74.8181327 125.815748,70.7265328 120.849082,67.2822662 C118.333082,65.5426663 115.737082,63.931733 113.247749,62.5223997 C110.823749,61.1530664 106.571749,58.7702665 106.571749,58.7702665 L125.514415,54.0718666 L124.553082,50.2 L99.9864157,56.2931998" id="path126" fill="#FFFFFF" fill-rule="nonzero" transform="translate(115.832501, 71.503424) scale(1, -1) translate(-115.832501, -71.503424) "></path>
                <path d="M99.9864157,56.2931998 L101.131749,60.9103997 C107.225082,64.1290663 119.809082,70.8093328 124.015748,75.959866 C125.007748,77.234266 125.722415,78.5223993 126.117082,80.1145326 C127.143748,84.2530658 125.082415,87.5238657 121.209082,88.484799 C117.017082,89.5249324 113.481082,87.3051991 112.375749,82.8478659 L107.334415,84.0983992 C109.283749,91.499999 115.697082,93.9639989 122.329082,92.3197323 C128.377082,90.8181323 133.041082,86.2249324 131.315748,79.2743993 C130.210415,74.8181327 125.815748,70.7265328 120.849082,67.2822662 C118.333082,65.5426663 115.737082,63.931733 113.247749,62.5223997 C110.823749,61.1530664 106.571749,58.7702665 106.571749,58.7702665 L125.514415,54.0718666 L124.553082,50.2 L99.9864157,56.2931998 Z" id="path128" stroke="#FFFFFF" stroke-width="1.3333333" transform="translate(115.832501, 71.503424) scale(1, -1) translate(-115.832501, -71.503424) "></path>
                <path d="M85.2517494,72.0032174 C80.7690828,74.0308174 76.3210829,72.0256174 74.225083,67.3922842 C72.1957497,62.9110843 73.113083,58.1750844 77.5957496,56.1454845 C82.5757494,53.8922845 86.770416,56.1334845 88.9344159,60.9152177 C90.9637492,65.3974842 89.6344159,70.0188175 85.2517494,72.0032174 Z M69.3757498,38.3829516 C63.3490832,41.1110849 60.0290833,45.9736181 62.6744166,52.8777512 L67.3557498,50.7589513 C65.7024165,46.7069514 67.4344165,43.6417515 71.0210831,42.0204182 C79.0890829,38.3668183 83.9090827,48.4870847 86.746416,54.2240179 C83.3037494,51.5230846 79.3037495,51.1725513 75.4197496,52.9297512 C69.0944164,55.7938845 66.6984165,62.6974843 69.7197498,69.3709508 C72.8304163,76.245484 80.2517495,78.5854839 86.9250827,75.5668173 C96.8864157,71.0573508 95.1730824,61.572551 91.2504159,52.9058846 C87.2157493,43.9906848 80.2330828,33.4693517 69.3757498,38.3829516" id="path122" fill="#FFFFFF" fill-rule="nonzero" transform="translate(78.048379, 56.995612) scale(1, -1) translate(-78.048379, -56.995612) "></path>
                <path d="M85.2517494,72.0032174 C80.7690828,74.0308174 76.3210829,72.0256174 74.225083,67.3922842 C72.1957497,62.9110843 73.113083,58.1750844 77.5957496,56.1454845 C82.5757494,53.8922845 86.770416,56.1334845 88.9344159,60.9152177 C90.9637492,65.3974842 89.6344159,70.0188175 85.2517494,72.0032174 Z M69.3757498,38.3829516 C63.3490832,41.1110849 60.0290833,45.9736181 62.6744166,52.8777512 L67.3557498,50.7589513 C65.7024165,46.7069514 67.4344165,43.6417515 71.0210831,42.0204182 C79.0890829,38.3668183 83.9090827,48.4870847 86.746416,54.2240179 C83.3037494,51.5230846 79.3037495,51.1725513 75.4197496,52.9297512 C69.0944164,55.7938845 66.6984165,62.6974843 69.7197498,69.3709508 C72.8304163,76.245484 80.2517495,78.5854839 86.9250827,75.5668173 C96.8864157,71.0573508 95.1730824,61.572551 91.2504159,52.9058846 C87.2157493,43.9906848 80.2330828,33.4693517 69.3757498,38.3829516 Z" id="path124" stroke="#FFFFFF" stroke-width="1.3333333" transform="translate(78.048379, 56.995612) scale(1, -1) translate(-78.048379, -56.995612) "></path>
                <path d="M37.9464172,27.2034666 L56.6304167,56.0737325 C53.1810835,55.3753326 49.7530836,55.5111992 46.2730837,56.0701325 L48.7677503,59.9247991 C52.6450835,59.1737325 56.0250834,59.2658658 59.92775,60.0617324 L63.5530832,57.7154658 L42.0770838,24.53 L37.9464172,27.2034666" id="path118" fill="#FFFFFF" fill-rule="nonzero" transform="translate(50.749750, 42.295866) scale(1, -1) translate(-50.749750, -42.295866) "></path>
                <path d="M37.9464172,27.2034666 L56.6304167,56.0737325 C53.1810835,55.3753326 49.7530836,55.5111992 46.2730837,56.0701325 L48.7677503,59.9247991 C52.6450835,59.1737325 56.0250834,59.2658658 59.92775,60.0617324 L63.5530832,57.7154658 L42.0770838,24.53 L37.9464172,27.2034666 Z" id="path120" stroke="#FFFFFF" stroke-width="1.3333333" transform="translate(50.749750, 42.295866) scale(1, -1) translate(-50.749750, -42.295866) "></path>
                <path d="M2.30241811,2.51074972 C-0.837181816,5.78008297 -0.762781818,11.0030162 2.50655143,14.1415494 C5.74295135,17.2508827 10.9653512,17.1123494 14.1049511,13.8431494 C17.2122844,10.6055495 17.1388177,5.38261631 13.9018845,2.27488306 C10.6648179,-0.832983532 5.44148469,-0.7584502 2.30241811,2.51074972" id="path114" fill="#FFFFFF" fill-rule="nonzero"></path>
                <path d="M2.30241811,2.51074972 C-0.837181816,5.78008297 -0.762781818,11.0030162 2.50655143,14.1415494 C5.74295135,17.2508827 10.9653512,17.1123494 14.1049511,13.8431494 C17.2122844,10.6055495 17.1388177,5.38261631 13.9018845,2.27488306 C10.6648179,-0.832983532 5.44148469,-0.7584502 2.30241811,2.51074972 L2.30241811,2.51074972 Z" id="path116" stroke="#FFFFFF" stroke-width="1.3333333"></path>
            </g>
            <g id="e.V." transform="translate(307.472258, 420.590000)">
                <path d="M10.753067,88.9096888 C5.78240049,87.8419555 4.1970672,83.2523556 4.73173385,78.6710224 L19.6984001,81.8846223 C18.7984002,86.3310222 15.6704002,89.9643555 10.753067,88.9096888 L10.753067,88.9096888 Z M5.29040051,75.5482225 L5.4064005,75.0138225 C6.47306714,70.0430226 10.1210671,66.0736894 15.5717336,67.2444894 C19.4210668,68.069556 21.4277334,70.9616893 21.2010668,74.8830225 L25.6904,75.8455558 C25.9877333,69.2564893 22.0210668,65.3310227 15.8757336,64.0111561 C7.48506712,62.2096895 2.21840058,66.9482227 0.497067292,74.9658225 C-1.236266,83.0362223 1.45973393,90.2695554 10.225067,92.1512887 C19.2584002,94.089822 23.3264001,87.6392888 25.0130667,79.7815557 L5.29040051,75.5482225" id="path134" fill="#FFFFFF" fill-rule="nonzero" transform="translate(12.853020, 78.064442) scale(1, -1) translate(-12.853020, -78.064442) "></path>
                <path d="M10.753067,88.9096888 C5.78240049,87.8419555 4.1970672,83.2523556 4.73173385,78.6710224 L19.6984001,81.8846223 C18.7984002,86.3310222 15.6704002,89.9643555 10.753067,88.9096888 L10.753067,88.9096888 Z M5.29040051,75.5482225 L5.4064005,75.0138225 C6.47306714,70.0430226 10.1210671,66.0736894 15.5717336,67.2444894 C19.4210668,68.069556 21.4277334,70.9616893 21.2010668,74.8830225 L25.6904,75.8455558 C25.9877333,69.2564893 22.0210668,65.3310227 15.8757336,64.0111561 C7.48506712,62.2096895 2.21840058,66.9482227 0.497067292,74.9658225 C-1.236266,83.0362223 1.45973393,90.2695554 10.225067,92.1512887 C19.2584002,94.089822 23.3264001,87.6392888 25.0130667,79.7815557 L5.29040051,75.5482225 Z" id="path136" stroke="#FFFFFF" stroke-width="1.3333333" transform="translate(12.853020, 78.064442) scale(1, -1) translate(-12.853020, -78.064442) "></path>
                <polyline id="path138" fill="#FFFFFF" fill-rule="nonzero" transform="translate(45.232400, 80.325533) scale(1, -1) translate(-45.232400, -80.325533) " points="43.5383995 76.85 41.7237329 81.9499999 46.9277328 83.8010665 48.7410661 78.7010666 43.5383995 76.85"></polyline>
                <polygon id="path140" stroke="#FFFFFF" stroke-width="1.3333333" transform="translate(45.232400, 80.325533) scale(1, -1) translate(-45.232400, -80.325533) " points="43.5383995 76.85 41.7237329 81.9499999 46.9277328 83.8010665 48.7410661 78.7010666"></polygon>
                <polyline id="path142" fill="#FFFFFF" fill-rule="nonzero" transform="translate(58.491066, 49.936733) scale(1, -1) translate(-58.491066, -49.936733) " points="76.6983987 30.2510666 71.4223989 27.6 40.283733 56.1879993 45.2663995 58.6937326 72.0463988 33.4202665 67.7370656 69.9895989 72.2797322 72.2734655 76.6983987 30.2510666"></polyline>
                <polygon id="path144" stroke="#FFFFFF" stroke-width="1.3333333" transform="translate(58.491066, 49.936733) scale(1, -1) translate(-58.491066, -49.936733) " points="76.6983987 30.2510666 71.4223989 27.6 40.283733 56.1879993 45.2663995 58.6937326 72.0463988 33.4202665 67.7370656 69.9895989 72.2797322 72.2734655"></polygon>
                <polyline id="path146" fill="#FFFFFF" fill-rule="nonzero" transform="translate(98.708398, 53.462067) scale(1, -1) translate(-98.708398, -53.462067) " points="97.9157315 49.68 94.9103983 54.1785332 99.5010648 57.2441331 102.506398 52.7441333 97.9157315 49.68"></polyline>
                <polygon id="path148" stroke="#FFFFFF" stroke-width="1.3333333" transform="translate(98.708398, 53.462067) scale(1, -1) translate(-98.708398, -53.462067) " points="97.9157315 49.68 94.9103983 54.1785332 99.5010648 57.2441331 102.506398 52.7441333"></polygon>
                <path d="M133.347731,2.53937296 C130.209064,-0.72982696 124.987731,-0.867293624 121.718398,2.27123963 C118.481064,5.37950622 118.406398,10.6019061 121.546398,13.8712393 C124.654398,17.1087059 129.875731,17.2472393 133.111731,14.1393727 C136.349064,11.0316394 136.487731,5.80870621 133.347731,2.53937296" id="path150" fill="#FFFFFF" fill-rule="nonzero" transform="translate(127.431648, 8.193624) scale(1, -1) translate(-127.431648, -8.193624) "></path>
                <path d="M133.347731,2.53937296 C130.209064,-0.72982696 124.987731,-0.867293624 121.718398,2.27123963 C118.481064,5.37950622 118.406398,10.6019061 121.546398,13.8712393 C124.654398,17.1087059 129.875731,17.2472393 133.111731,14.1393727 C136.349064,11.0316394 136.487731,5.80870621 133.347731,2.53937296 Z" id="path152" stroke="#FFFFFF" stroke-width="1.3333333" transform="translate(127.431648, 8.193624) scale(1, -1) translate(-127.431648, -8.193624) "></path>
            </g>
            <g id="Marienburger-Sport-Club" transform="translate(25.130666, 25.550000)">
                <polyline id="path26" fill="#FFFFFF" fill-rule="nonzero" transform="translate(39.060466, 336.826666) scale(1, -1) translate(-39.060466, -336.826666) " points="50.6151987 359.649332 18.0338662 345.317332 56.2286653 346.886666 58.1219985 342.582666 31.1255992 315.417333 63.7573317 329.769333 65.6281317 325.516 29.4433326 309.6 26.1417327 317.106666 51.4818654 342.469333 15.7947996 340.630666 12.4927997 348.138666 48.6786654 364.053332 50.6151987 359.649332"></polyline>
                <polygon id="path28" stroke="#FFFFFF" stroke-width="1.3333333" transform="translate(39.060466, 336.826666) scale(1, -1) translate(-39.060466, -336.826666) " points="50.6151987 359.649332 18.0338662 345.317332 56.2286653 346.886666 58.1219985 342.582666 31.1255992 315.417333 63.7573317 329.769333 65.6281317 325.516 29.4433326 309.6 26.1417327 317.106666 51.4818654 342.469333 15.7947996 340.630666 12.4927997 348.138666 48.6786654 364.053332"></polygon>
                <path d="M8.35373312,274.794666 C15.4833329,273.032 22.9406661,271.936 30.1766659,270.524 L27.4277326,286.417333 L8.35373312,274.794666 Z M40.5734657,294.461333 L30.9823992,288.641333 L34.2438658,269.785333 L45.2234655,267.578667 L46.1083988,262.46 L4.41826656,271.562666 L3.45839991,277.112 L39.567199,300.279999 L40.5734657,294.461333" id="path30" fill="#FFFFFF" fill-rule="nonzero" transform="translate(24.783399, 281.370000) scale(1, -1) translate(-24.783399, -281.370000) "></path>
                <path d="M8.35373312,274.794666 C15.4833329,273.032 22.9406661,271.936 30.1766659,270.524 L27.4277326,286.417333 L8.35373312,274.794666 Z M40.5734657,294.461333 L30.9823992,288.641333 L34.2438658,269.785333 L45.2234655,267.578667 L46.1083988,262.46 L4.41826656,271.562666 L3.45839991,277.112 L39.567199,300.279999 L40.5734657,294.461333 Z" id="path32" stroke="#FFFFFF" stroke-width="1.3333333" transform="translate(24.783399, 281.370000) scale(1, -1) translate(-24.783399, -281.370000) "></path>
                <path d="M4.31573323,238.417333 L4.0859999,230.602667 L17.4739996,230.208 L17.6619996,236.602666 C17.8089329,241.574666 17.2089329,247.226666 10.9791997,247.409333 C5.45999986,247.571999 4.44959989,242.952 4.31573323,238.417333 Z M40.175599,247.042666 C37.0234657,245.877333 33.6881325,245.921333 30.4015992,245.743999 C24.5927994,245.367999 21.7963995,245.122666 21.6015995,238.509333 L21.3542661,230.094667 L39.6610657,229.556 L39.509999,224.42 L1.33475453e-11,225.581333 L0.414666656,239.68 C0.604266652,246.127999 2.77293326,252.901333 10.5329331,252.673333 C15.7786663,252.518666 18.4739995,249.322666 19.6458662,244.529333 C20.8870661,249.525333 23.7651994,250.698666 28.040666,251.009333 C30.6714659,251.205333 33.4605325,251.178666 36.4818658,251.637333 C37.9651991,251.866666 39.2865324,252.155999 40.3458657,252.835999 L40.175599,247.042666" id="path34" fill="#FFFFFF" fill-rule="nonzero" transform="translate(20.172933, 238.628000) scale(1, -1) translate(-20.172933, -238.628000) "></path>
                <path d="M4.31573323,238.417333 L4.0859999,230.602667 L17.4739996,230.208 L17.6619996,236.602666 C17.8089329,241.574666 17.2089329,247.226666 10.9791997,247.409333 C5.45999986,247.571999 4.44959989,242.952 4.31573323,238.417333 Z M40.175599,247.042666 C37.0234657,245.877333 33.6881325,245.921333 30.4015992,245.743999 C24.5927994,245.367999 21.7963995,245.122666 21.6015995,238.509333 L21.3542661,230.094667 L39.6610657,229.556 L39.509999,224.42 L4.61852778e-14,225.581333 L0.414666656,239.68 C0.604266652,246.127999 2.77293326,252.901333 10.5329331,252.673333 C15.7786663,252.518666 18.4739995,249.322666 19.6458662,244.529333 C20.8870661,249.525333 23.7651994,250.698666 28.040666,251.009333 C30.6714659,251.205333 33.4605325,251.178666 36.4818658,251.637333 C37.9651991,251.866666 39.2865324,252.155999 40.3458657,252.835999 L40.175599,247.042666 Z" id="path36" stroke="#FFFFFF" stroke-width="1.3333333" transform="translate(20.172933, 238.628000) scale(1, -1) translate(-20.172933, -238.628000) "></path>
                <polyline id="path38" fill="#FFFFFF" fill-rule="nonzero" transform="translate(23.485999, 206.484667) scale(1, -1) translate(-23.485999, -206.484667) " points="42.4999989 200.52 3.57866658 207.389333 4.47199989 212.449333 43.3933322 205.58 42.4999989 200.52"></polyline>
                <polygon id="path40" stroke="#FFFFFF" stroke-width="1.3333333" transform="translate(23.485999, 206.484667) scale(1, -1) translate(-23.485999, -206.484667) " points="42.4999989 200.52 3.57866658 207.389333 4.47199989 212.449333 43.3933322 205.58"></polygon>
                <polyline id="path42" fill="#FFFFFF" fill-rule="nonzero" transform="translate(31.384733, 175.455333) scale(1, -1) translate(-31.384733, -175.455333) " points="46.3042655 157.72 8.69173312 169.885333 16.2291996 193.190666 20.0277328 191.962666 14.0542663 173.494666 26.5395993 169.457333 32.2599992 187.143999 36.0583991 185.915999 30.3375992 168.228 44.0709322 163.786667 50.2791987 182.982666 54.077732 181.754666 46.3042655 157.72"></polyline>
                <polygon id="path44" stroke="#FFFFFF" stroke-width="1.3333333" transform="translate(31.384733, 175.455333) scale(1, -1) translate(-31.384733, -175.455333) " points="46.3042655 157.72 8.69173312 169.885333 16.2291996 193.190666 20.0277328 191.962666 14.0542663 173.494666 26.5395993 169.457333 32.2599992 187.143999 36.0583991 185.915999 30.3375992 168.228 44.0709322 163.786667 50.2791987 182.982666 54.077732 181.754666"></polygon>
                <polyline id="path46" fill="#FFFFFF" fill-rule="nonzero" transform="translate(49.103132, 135.053333) scale(1, -1) translate(-49.103132, -135.053333) " points="70.5865316 132.907333 31.0881326 132.667333 60.9381318 115.816667 58.6537319 111.77 24.2333327 131.200666 27.619866 137.199333 67.213065 137.385999 37.2682657 154.291332 39.553199 158.336666 73.9729315 138.905999 70.5865316 132.907333"></polyline>
                <polygon id="path48" stroke="#FFFFFF" stroke-width="1.3333333" transform="translate(49.103132, 135.053333) scale(1, -1) translate(-49.103132, -135.053333) " points="70.5865316 132.907333 31.0881326 132.667333 60.9381318 115.816667 58.6537319 111.77 24.2333327 131.200666 27.619866 137.199333 67.213065 137.385999 37.2682657 154.291332 39.553199 158.336666 73.9729315 138.905999"></polygon>
                <path d="M77.5510647,99.9526661 L72.0223982,93.6739996 L82.8974646,84.0993332 L87.3777311,89.187333 C90.8463977,93.1273329 94.193331,97.7566662 89.2286644,102.128666 C84.8375979,105.993999 80.9474646,103.809999 77.5510647,99.9526661 L77.5510647,99.9526661 Z M64.866265,111.195332 L59.3015985,104.875333 L69.1906649,96.1673329 L74.2495981,101.912666 C77.2843981,105.359333 78.6141314,109.433999 74.7157315,112.867332 C71.2687982,115.901999 67.6119983,114.313999 64.866265,111.195332 Z M91.390131,87.6219998 L82.6094646,77.65 L52.940132,103.773999 L62.1542651,114.237999 C66.237065,118.875332 72.5162649,121.869999 77.8927981,117.136666 C81.5854646,113.884666 81.8406646,109.871333 79.744398,105.671333 C84.0599979,109.083333 88.5015978,109.907333 92.9338643,106.004666 C99.6223975,100.115333 96.1953309,93.0793329 91.390131,87.6219998" id="path50" fill="#FFFFFF" fill-rule="nonzero" transform="translate(74.801975, 98.589089) scale(1, -1) translate(-74.801975, -98.589089) "></path>
                <path d="M77.5510647,99.9526661 L72.0223982,93.6739996 L82.8974646,84.0993332 L87.3777311,89.187333 C90.8463977,93.1273329 94.193331,97.7566662 89.2286644,102.128666 C84.8375979,105.993999 80.9474646,103.809999 77.5510647,99.9526661 L77.5510647,99.9526661 Z M64.866265,111.195332 L59.3015985,104.875333 L69.1906649,96.1673329 L74.2495981,101.912666 C77.2843981,105.359333 78.6141314,109.433999 74.7157315,112.867332 C71.2687982,115.901999 67.6119983,114.313999 64.866265,111.195332 Z M91.390131,87.6219998 L82.6094646,77.65 L52.940132,103.773999 L62.1542651,114.237999 C66.237065,118.875332 72.5162649,121.869999 77.8927981,117.136666 C81.5854646,113.884666 81.8406646,109.871333 79.744398,105.671333 C84.0599979,109.083333 88.5015978,109.907333 92.9338643,106.004666 C99.6223975,100.115333 96.1953309,93.0793329 91.390131,87.6219998 L91.390131,87.6219998 Z" id="path52" stroke="#FFFFFF" stroke-width="1.3333333" transform="translate(74.801975, 98.589089) scale(1, -1) translate(-74.801975, -98.589089) "></path>
                <path d="M123.059997,43.6902127 C114.65333,37.4048795 107.318264,38.2688795 100.836531,46.9382126 L86.2698645,66.4208788 L90.5599977,69.6288787 L104.702131,50.7142125 C106.404264,48.4382126 108.215997,46.1062126 110.958664,45.0862127 C114.290664,43.823546 117.890664,44.9448793 120.647997,47.0062126 C123.887997,49.4288792 125.959997,53.2302125 124.94933,57.320879 C124.383997,59.628879 122.987997,61.5888789 121.579997,63.4715455 L107.504264,82.2968784 L111.663997,85.407545 L126.295997,65.8368788 C132.351997,57.736879 131.202663,49.7795459 123.059997,43.6902127" id="path54" fill="#FFFFFF" fill-rule="nonzero" transform="translate(108.199621, 62.503772) scale(1, -1) translate(-108.199621, -62.503772) "></path>
                <path d="M123.059997,43.6902127 C114.65333,37.4048795 107.318264,38.2688795 100.836531,46.9382126 L86.2698645,66.4208788 L90.5599977,69.6288787 L104.702131,50.7142125 C106.404264,48.4382126 108.215997,46.1062126 110.958664,45.0862127 C114.290664,43.823546 117.890664,44.9448793 120.647997,47.0062126 C123.887997,49.4288792 125.959997,53.2302125 124.94933,57.320879 C124.383997,59.628879 122.987997,61.5888789 121.579997,63.4715455 L107.504264,82.2968784 L111.663997,85.407545 L126.295997,65.8368788 C132.351997,57.736879 131.202663,49.7795459 123.059997,43.6902127 L123.059997,43.6902127 Z" id="path56" stroke="#FFFFFF" stroke-width="1.3333333" transform="translate(108.199621, 62.503772) scale(1, -1) translate(-108.199621, -62.503772) "></path>
                <path d="M144.51733,58.1073324 L137.42133,54.8286658 L143.038663,42.6713328 L148.843996,45.3539994 C153.359996,47.440666 158.149329,50.4966659 155.535996,56.1539991 C153.219996,61.165999 148.635996,60.0113323 144.51733,58.1073324 Z M168.226662,29.8619998 C165.778663,32.163333 164.330663,35.167333 162.706663,38.0299996 C159.779996,43.0606661 158.311996,45.4539994 152.307996,42.6793328 L144.666663,39.1486662 L152.347996,22.5259999 L147.682663,20.37 L131.10533,56.2473324 L143.907996,62.161999 C149.763996,64.8673322 156.791996,65.9473322 160.047996,58.9006657 C162.249329,54.1366658 160.589329,50.2993326 156.822663,47.1139993 C161.846663,48.2313326 164.179996,46.1779994 166.365329,42.4913328 C167.714662,40.2233328 168.933329,37.7153329 170.690662,35.215333 C171.558662,33.991333 172.405329,32.9366664 173.486662,32.2926664 L168.226662,29.8619998" id="path58" fill="#FFFFFF" fill-rule="nonzero" transform="translate(152.295996, 42.302640) scale(1, -1) translate(-152.295996, -42.302640) "></path>
                <path d="M144.51733,58.1073324 L137.42133,54.8286658 L143.038663,42.6713328 L148.843996,45.3539994 C153.359996,47.440666 158.149329,50.4966659 155.535996,56.1539991 C153.219996,61.165999 148.635996,60.0113323 144.51733,58.1073324 Z M168.226662,29.8619998 C165.778663,32.163333 164.330663,35.167333 162.706663,38.0299996 C159.779996,43.0606661 158.311996,45.4539994 152.307996,42.6793328 L144.666663,39.1486662 L152.347996,22.5259999 L147.682663,20.37 L131.10533,56.2473324 L143.907996,62.161999 C149.763996,64.8673322 156.791996,65.9473322 160.047996,58.9006657 C162.249329,54.1366658 160.589329,50.2993326 156.822663,47.1139993 C161.846663,48.2313326 164.179996,46.1779994 166.365329,42.4913328 C167.714662,40.2233328 168.933329,37.7153329 170.690662,35.215333 C171.558662,33.991333 172.405329,32.9366664 173.486662,32.2926664 L168.226662,29.8619998 Z" id="path60" stroke="#FFFFFF" stroke-width="1.3333333" transform="translate(152.295996, 42.302640) scale(1, -1) translate(-152.295996, -42.302640) "></path>
                <path d="M201.307995,5.62369918 C189.217329,2.83836592 180.922662,9.62236575 178.261329,21.1796988 C175.746662,32.0996985 179.745329,42.4996983 191.462662,45.1983649 C198.493328,46.8183648 205.154662,44.9303649 207.547995,37.4610317 L202.327995,36.2583651 C200.502662,40.774365 196.750662,42.2090316 192.170662,41.154365 C183.327995,39.118365 181.813329,30.3556986 183.579995,22.6850321 C185.517329,14.2703656 191.131995,7.4303658 200.559995,9.60103242 C203.329328,10.2396991 206.013328,11.2503657 208.491995,12.6623657 L205.854662,24.1130321 L196.639995,21.9916988 L195.769328,25.773032 L209.830661,29.0116986 L214.026661,10.7956991 C209.981328,8.63036577 205.781328,6.65436582 201.307995,5.62369918" id="path62" fill="#FFFFFF" fill-rule="nonzero" transform="translate(195.784145, 25.368117) scale(1, -1) translate(-195.784145, -25.368117) "></path>
                <path d="M201.307995,5.62369918 C189.217329,2.83836592 180.922662,9.62236575 178.261329,21.1796988 C175.746662,32.0996985 179.745329,42.4996983 191.462662,45.1983649 C198.493328,46.8183648 205.154662,44.9303649 207.547995,37.4610317 L202.327995,36.2583651 C200.502662,40.774365 196.750662,42.2090316 192.170662,41.154365 C183.327995,39.118365 181.813329,30.3556986 183.579995,22.6850321 C185.517329,14.2703656 191.131995,7.4303658 200.559995,9.60103242 C203.329328,10.2396991 206.013328,11.2503657 208.491995,12.6623657 L205.854662,24.1130321 L196.639995,21.9916988 L195.769328,25.773032 L209.830661,29.0116986 L214.026661,10.7956991 C209.981328,8.63036577 205.781328,6.65436582 201.307995,5.62369918 Z" id="path64" stroke="#FFFFFF" stroke-width="1.3333333" transform="translate(195.784145, 25.368117) scale(1, -1) translate(-195.784145, -25.368117) "></path>
                <polyline id="path66" fill="#FFFFFF" fill-rule="nonzero" transform="translate(240.322661, 20.128666) scale(1, -1) translate(-240.322661, -20.128666) " points="228.302661 6.06329786e-14 227.095994 39.5106657 251.577327 40.2573323 251.699994 36.2679991 232.299994 35.6759991 232.699994 22.5599994 251.281327 23.1279994 251.401327 19.1386662 232.822661 18.5706662 233.262661 4.1439999 253.42666 4.75999988 253.549327 0.770666647 228.302661 0"></polyline>
                <polygon id="path68" stroke="#FFFFFF" stroke-width="1.3333333" transform="translate(240.322661, 20.128666) scale(1, -1) translate(-240.322661, -20.128666) " points="228.302661 2.84217094e-14 227.095994 39.5106657 251.577327 40.2573323 251.699994 36.2679991 232.299994 35.6759991 232.699994 22.5599994 251.281327 23.1279994 251.401327 19.1386662 232.822661 18.5706662 233.262661 4.1439999 253.42666 4.75999988 253.549327 0.770666647"></polygon>
                <path d="M283.773326,38.8339991 L276.051993,40.0526657 L273.96266,26.824666 L280.281326,25.8273327 C285.19466,25.0513327 290.874659,24.9286661 291.846659,31.0846659 C292.707993,36.5379991 288.254659,38.1273324 283.773326,38.8339991 L283.773326,38.8339991 Z M287.781326,2.17399998 C287.023993,5.44866656 287.490659,8.74999981 287.731993,12.0326664 C288.095993,17.8406663 288.206659,20.6459995 281.671993,21.6779995 L273.357327,22.9913328 L270.50266,4.90199991 L265.42666,5.70333322 L271.589327,44.7419989 L285.519993,42.5433323 C291.893326,41.5366657 298.334659,38.5273324 297.123993,30.8606659 C296.305326,25.6766661 292.793326,23.4086661 287.891993,22.8539995 C292.687993,20.9913328 293.486659,17.9859996 293.253326,13.707333 C293.115993,11.0726664 292.733326,8.30999982 292.805326,5.25533323 C292.843993,3.75399994 292.963993,2.4073333 293.505326,1.27 L287.781326,2.17399998" id="path70" fill="#FFFFFF" fill-rule="nonzero" transform="translate(281.349192, 23.005999) scale(1, -1) translate(-281.349192, -23.005999) "></path>
                <path d="M283.773326,38.8339991 L276.051993,40.0526657 L273.96266,26.824666 L280.281326,25.8273327 C285.19466,25.0513327 290.874659,24.9286661 291.846659,31.0846659 C292.707993,36.5379991 288.254659,38.1273324 283.773326,38.8339991 L283.773326,38.8339991 Z M287.781326,2.17399998 C287.023993,5.44866656 287.490659,8.74999981 287.731993,12.0326664 C288.095993,17.8406663 288.206659,20.6459995 281.671993,21.6779995 L273.357326,22.9913328 L270.50266,4.90199991 L265.42666,5.70333322 L271.589327,44.7419989 L285.519993,42.5433323 C291.893326,41.5366657 298.334659,38.5273324 297.123993,30.8606659 C296.305326,25.6766661 292.793326,23.4086661 287.891993,22.8539995 C292.687993,20.9913328 293.486659,17.9859996 293.253326,13.707333 C293.115993,11.0726664 292.733326,8.30999982 292.805326,5.25533323 C292.843993,3.75399994 292.963993,2.4073333 293.505326,1.27 L287.781326,2.17399998 Z" id="path72" stroke="#FFFFFF" stroke-width="1.3333333" transform="translate(281.349192, 23.005999) scale(1, -1) translate(-281.349192, -23.005999) "></path>
                <path d="M333.239992,23.511735 C326.565325,26.6610683 322.385325,32.0210682 325.343992,39.5704013 L330.163992,37.3557347 C328.263992,32.6917348 330.890658,29.0344016 335.091992,27.0504016 C339.047992,25.183735 344.435991,24.8170683 346.582658,29.3650682 C347.655991,31.6397348 347.070658,33.7290681 345.681325,35.6544014 C344.142658,37.7704014 341.847991,39.6997346 339.901325,41.4664013 C335.555992,45.4504012 331.374658,49.7824011 334.290658,55.9624009 C337.627992,63.0330674 345.311991,62.7904007 351.491991,59.8730675 C357.375991,57.0970675 362.131991,52.1917343 358.987991,45.2730678 L354.290658,47.4890678 C355.855991,51.8290677 353.543991,54.6130676 349.785325,56.3877342 C346.077325,58.1370675 341.181325,58.3930675 339.173325,54.1410676 C338.218658,52.114401 338.873325,50.1730677 340.261325,48.2477344 C341.775991,46.2037345 344.193325,44.1557345 346.018658,42.3864012 C350.317325,38.3024013 354.618658,34.0957348 351.585325,27.6677349 C348.038658,20.1544018 339.766658,20.4317351 333.239992,23.511735" id="path74" fill="#FFFFFF" fill-rule="nonzero" transform="translate(342.183099, 41.636680) scale(1, -1) translate(-342.183099, -41.636680) "></path>
                <path d="M333.239992,23.511735 C326.565325,26.6610683 322.385325,32.0210682 325.343992,39.5704013 L330.163992,37.3557347 C328.263992,32.6917348 330.890658,29.0344016 335.091992,27.0504016 C339.047992,25.183735 344.435991,24.8170683 346.582658,29.3650682 C347.655991,31.6397348 347.070658,33.7290681 345.681325,35.6544014 C344.142658,37.7704014 341.847991,39.6997346 339.901325,41.4664013 C335.555992,45.4504012 331.374658,49.7824011 334.290658,55.9624009 C337.627992,63.0330674 345.311991,62.7904007 351.491991,59.8730675 C357.375991,57.0970675 362.131991,52.1917343 358.987991,45.2730678 L354.290658,47.4890678 C355.855991,51.8290677 353.543991,54.6130676 349.785325,56.3877342 C346.077325,58.1370675 341.181325,58.3930675 339.173325,54.1410676 C338.218658,52.114401 338.873325,50.1730677 340.261325,48.2477344 C341.775991,46.2037345 344.193325,44.1557345 346.018658,42.3864012 C350.317325,38.3024013 354.618658,34.0957348 351.585325,27.6677349 C348.038658,20.1544018 339.766658,20.4317351 333.239992,23.511735 L333.239992,23.511735 Z" id="path76" stroke="#FFFFFF" stroke-width="1.3333333" transform="translate(342.183099, 41.636680) scale(1, -1) translate(-342.183099, -41.636680) "></path>
                <path d="M387.91599,64.834666 L382.33599,68.8733326 L373.710657,56.9599996 L378.094657,53.785333 C382.56799,50.5466664 387.421324,48.1133331 391.397324,53.605333 C394.893323,58.4333329 392.034657,61.8519995 387.91599,64.834666 Z M383.67199,46.1026665 C381.53999,46.7013332 379.341324,47.9546665 377.259991,49.4613331 C377.259991,49.4613331 373.141324,52.4439997 371.369324,53.7266663 L361.461324,40.04 L357.298658,43.0533333 L380.47999,75.0773325 L390.357324,67.926666 C393.10399,65.938666 395.905323,63.8426661 397.174657,60.5613328 C398.569323,56.9853329 397.694657,53.165333 395.513323,50.1533331 C392.69199,46.2559998 388.309324,44.7706665 383.67199,46.1026665" id="path78" fill="#FFFFFF" fill-rule="nonzero" transform="translate(377.573620, 57.558666) scale(1, -1) translate(-377.573620, -57.558666) "></path>
                <path d="M387.91599,64.834666 L382.33599,68.8733326 L373.710657,56.9599996 L378.094657,53.785333 C382.56799,50.5466664 387.421324,48.1133331 391.397324,53.605333 C394.893323,58.4333329 392.034657,61.8519995 387.91599,64.834666 Z M383.67199,46.1026665 C381.53999,46.7013332 379.341324,47.9546665 377.259991,49.4613331 C377.259991,49.4613331 373.141324,52.4439997 371.369324,53.7266663 L361.461324,40.04 L357.298658,43.0533333 L380.47999,75.0773325 L390.357324,67.926666 C393.10399,65.938666 395.905323,63.8426661 397.174657,60.5613328 C398.569323,56.9853329 397.694657,53.165333 395.513323,50.1533331 C392.69199,46.2559998 388.309324,44.7706665 383.67199,46.1026665 L383.67199,46.1026665 Z" id="path80" stroke="#FFFFFF" stroke-width="1.3333333" transform="translate(377.573620, 57.558666) scale(1, -1) translate(-377.573620, -57.558666) "></path>
                <path d="M420.785323,100.922066 C414.38799,107.586066 406.118657,104.042066 400.401323,98.5527329 C394.645323,93.0247331 390.61599,84.9100666 397.089323,78.1674001 C403.562657,71.4247336 411.833323,75.0460668 417.629323,80.6127334 C423.505323,86.2527332 427.374656,94.0620664 420.785323,100.922066 L420.785323,100.922066 Z M394.17199,75.3647335 C385.57599,84.3153999 388.373324,94.5033997 396.574657,102.379399 C404.617323,110.103399 415.338656,112.515399 423.781323,103.722066 C432.450656,94.6940664 429.815989,84.8100666 421.495989,76.8220668 C413.294656,68.946067 402.80399,66.3754004 394.17199,75.3647335" id="path82" fill="#FFFFFF" fill-rule="nonzero" transform="translate(409.033623, 89.501849) scale(1, -1) translate(-409.033623, -89.501849) "></path>
                <path d="M420.785323,100.922066 C414.38799,107.586066 406.118657,104.042066 400.401323,98.5527329 C394.645323,93.0247331 390.61599,84.9100666 397.089323,78.1674001 C403.562657,71.4247336 411.833323,75.0460668 417.629323,80.6127334 C423.505323,86.2527332 427.374656,94.0620664 420.785323,100.922066 L420.785323,100.922066 Z M394.17199,75.3647335 C385.57599,84.3153999 388.373324,94.5033997 396.574657,102.379399 C404.617323,110.103399 415.338656,112.515399 423.781323,103.722066 C432.450656,94.6940664 429.815989,84.8100666 421.495989,76.8220668 C413.294656,68.946067 402.80399,66.3754004 394.17199,75.3647335 L394.17199,75.3647335 Z" id="path84" stroke="#FFFFFF" stroke-width="1.3333333" transform="translate(409.033623, 89.501849) scale(1, -1) translate(-409.033623, -89.501849) "></path>
                <path d="M450.439989,136.024666 L446.267989,142.635332 L434.942656,135.487333 L438.355989,130.079333 C441.009322,125.872666 444.662656,121.519333 449.931989,124.845999 C454.601322,127.792666 452.859989,132.188666 450.439989,136.024666 Z M425.510656,108.85 C427.474656,111.576666 430.265323,113.402 432.893323,115.384666 C437.501322,118.939333 439.682656,120.703333 436.153322,126.296666 L431.661323,133.415333 L416.174656,123.642 L413.433323,127.987333 L446.851989,149.080666 L454.379989,137.153999 C457.822655,131.699333 459.805322,124.871333 453.241322,120.728666 C448.803989,117.928666 444.783989,119.075333 441.135989,122.396666 C442.895989,117.560666 441.163989,114.979333 437.790656,112.334 C435.718656,110.703333 433.390656,109.168667 431.138656,107.102 C430.037323,106.083333 429.102656,105.106 428.603989,103.95 L425.510656,108.85" id="path86" fill="#FFFFFF" fill-rule="nonzero" transform="translate(435.501543, 126.515333) scale(1, -1) translate(-435.501543, -126.515333) "></path>
                <path d="M450.439989,136.024666 L446.267989,142.635332 L434.942656,135.487333 L438.355989,130.079333 C441.009322,125.872666 444.662656,121.519333 449.931989,124.845999 C454.601322,127.792666 452.859989,132.188666 450.439989,136.024666 Z M425.510656,108.85 C427.474656,111.576666 430.265323,113.402 432.893323,115.384666 C437.501322,118.939333 439.682656,120.703333 436.153322,126.296666 L431.661323,133.415333 L416.174656,123.642 L413.433323,127.987333 L446.851989,149.080666 L454.379989,137.153999 C457.822655,131.699333 459.805322,124.871333 453.241322,120.728666 C448.803989,117.928666 444.783989,119.075333 441.135989,122.396666 C442.895989,117.560666 441.163989,114.979333 437.790656,112.334 C435.718656,110.703333 433.390656,109.168667 431.138656,107.102 C430.037323,106.083333 429.102656,105.106 428.603989,103.95 L425.510656,108.85 Z" id="path88" stroke="#FFFFFF" stroke-width="1.3333333" transform="translate(435.501543, 126.515333) scale(1, -1) translate(-435.501543, -126.515333) "></path>
                <polyline id="path90" fill="#FFFFFF" fill-rule="nonzero" transform="translate(457.070655, 153.534000) scale(1, -1) translate(-457.070655, -153.534000) " points="470.134655 151.413333 437.375989 137.8 435.425322 142.493333 468.183988 156.106666 463.359988 167.715999 467.094655 169.267999 478.715988 141.305333 474.979988 139.753333 470.134655 151.413333"></polyline>
                <polygon id="path92" stroke="#FFFFFF" stroke-width="1.3333333" transform="translate(457.070655, 153.534000) scale(1, -1) translate(-457.070655, -153.534000) " points="470.134655 151.413333 437.375989 137.8 435.425322 142.493333 468.183988 156.106666 463.359988 167.715999 467.094655 169.267999 478.715988 141.305333 474.979988 139.753333"></polygon>
                <polyline id="path94" fill="#FFFFFF" fill-rule="nonzero" transform="translate(457.725989, 183.504000) scale(1, -1) translate(-457.725989, -183.504000) " points="453.979989 189.839333 457.442655 190.858 461.471988 177.168667 458.009322 176.15 453.979989 189.839333"></polyline>
                <polygon id="path96" stroke="#FFFFFF" stroke-width="1.3333333" transform="translate(457.725989, 183.504000) scale(1, -1) translate(-457.725989, -183.504000) " points="453.979989 189.839333 457.442655 190.858 461.471988 177.168667 458.009322 176.15"></polygon>
                <path d="M449.910655,213.071468 C448.314655,225.158134 456.421322,231.412801 467.477322,232.874134 C478.155988,234.284801 488.833321,229.850134 490.386654,218.088801 C491.245321,211.584801 488.863988,204.156801 481.466655,202.958135 L480.758655,208.324801 C485.199988,209.352801 486.757321,213.418134 486.206655,217.591468 C485.038655,226.426134 475.937321,228.531467 468.402655,227.536801 C460.707988,226.519467 452.902655,222.566134 454.098655,213.515468 C454.765322,208.474135 458.034655,205.431468 462.189322,205.704801 L462.911988,200.231468 C454.599989,200.126135 450.885322,205.700801 449.910655,213.071468" id="path98" fill="#FFFFFF" fill-rule="nonzero" transform="translate(470.131618, 216.678459) scale(1, -1) translate(-470.131618, -216.678459) "></path>
                <path d="M449.910655,213.071468 C448.314655,225.158134 456.421322,231.412801 467.477322,232.874134 C478.155988,234.284801 488.833321,229.850134 490.386654,218.088801 C491.245321,211.584801 488.863988,204.156801 481.466655,202.958135 L480.758655,208.324801 C485.199988,209.352801 486.757321,213.418134 486.206655,217.591468 C485.038655,226.426134 475.937321,228.531467 468.402655,227.536801 C460.707988,226.519467 452.902655,222.566134 454.098655,213.515468 C454.765322,208.474135 458.034655,205.431468 462.189322,205.704801 L462.911988,200.231468 C454.599989,200.126135 450.885322,205.700801 449.910655,213.071468 L449.910655,213.071468 Z" id="path100" stroke="#FFFFFF" stroke-width="1.3333333" transform="translate(470.131618, 216.678459) scale(1, -1) translate(-470.131618, -216.678459) "></path>
                <polyline id="path102" fill="#FFFFFF" fill-rule="nonzero" transform="translate(471.449322, 258.846666) scale(1, -1) translate(-471.449322, -258.846666) " points="452.341322 271.203333 491.807988 269.188666 491.546654 264.056666 456.063989 265.868666 455.074655 246.49 451.090655 246.694 452.341322 271.203333"></polyline>
                <polygon id="path104" stroke="#FFFFFF" stroke-width="1.3333333" transform="translate(471.449322, 258.846666) scale(1, -1) translate(-471.449322, -258.846666) " points="452.341322 271.203333 491.807988 269.188666 491.546654 264.056666 456.063989 265.868666 455.074655 246.49 451.090655 246.694"></polygon>
                <path d="M445.219989,308.977999 C447.774655,319.157999 454.007989,323.117999 464.506655,320.481999 L488.099988,314.561999 L486.795988,309.364666 L463.891988,315.113999 C461.134655,315.804666 458.258655,316.469999 455.486655,315.531333 C452.105322,314.408666 450.019989,311.268666 449.181322,307.927333 C448.197322,304.004666 448.989322,299.747333 452.354655,297.212666 C454.249322,295.779333 456.567989,295.140666 458.847989,294.568666 L481.646655,288.847333 L480.382655,283.81 L456.682655,289.758 C446.874655,292.219333 442.743989,299.118 445.219989,308.977999" id="path106" fill="#FFFFFF" fill-rule="nonzero" transform="translate(466.308892, 302.542553) scale(1, -1) translate(-466.308892, -302.542553) "></path>
                <path d="M445.219989,308.977999 C447.774655,319.157999 454.007989,323.117999 464.506655,320.481999 L488.099988,314.561999 L486.795988,309.364666 L463.891988,315.113999 C461.134655,315.804666 458.258655,316.469999 455.486655,315.531333 C452.105322,314.408666 450.019989,311.268666 449.181322,307.927333 C448.197322,304.004666 448.989322,299.747333 452.354655,297.212666 C454.249322,295.779333 456.567989,295.140666 458.847989,294.568666 L481.646655,288.847333 L480.382655,283.81 L456.682655,289.758 C446.874655,292.219333 442.743989,299.118 445.219989,308.977999 Z" id="path108" stroke="#FFFFFF" stroke-width="1.3333333" transform="translate(466.308892, 302.542553) scale(1, -1) translate(-466.308892, -302.542553) "></path>
                <path d="M462.839988,335.054178 L466.542655,342.614178 L454.711989,348.410177 L451.343989,341.538178 C449.325322,337.414178 449.115989,333.132844 453.779989,330.848845 C457.902655,328.828845 461.010655,331.322178 462.839988,335.054178 L462.839988,335.054178 Z M447.645322,342.558178 L451.323989,350.070177 L438.314656,356.442177 L435.333322,350.355511 C433.023989,345.642177 431.013323,340.295511 436.953322,337.384844 C442.206656,334.812844 445.385322,337.943511 447.645322,342.558178 L447.645322,342.558178 Z M431.050656,350.808844 L436.894656,362.738177 L472.387988,345.351511 L466.255988,332.832844 C463.538655,327.284845 458.270655,322.744845 451.839989,325.894178 C447.421322,328.058178 446.117322,331.862178 447.034655,336.466178 C443.770656,332.039511 439.702656,330.074178 434.399989,332.670178 C426.398656,336.591511 427.851989,344.279511 431.050656,350.808844" id="path110" fill="#FFFFFF" fill-rule="nonzero" transform="translate(450.441304, 343.799089) scale(1, -1) translate(-450.441304, -343.799089) "></path>
                <path d="M462.839988,335.054178 L466.542655,342.614178 L454.711989,348.410177 L451.343989,341.538178 C449.325322,337.414178 449.115989,333.132844 453.779989,330.848845 C457.902655,328.828845 461.010655,331.322178 462.839988,335.054178 L462.839988,335.054178 Z M447.645322,342.558178 L451.323989,350.070177 L438.314656,356.442177 L435.333322,350.355511 C433.023989,345.642177 431.013323,340.295511 436.953322,337.384844 C442.206656,334.812844 445.385322,337.943511 447.645322,342.558178 L447.645322,342.558178 Z M431.050656,350.808844 L436.894656,362.738177 L472.387988,345.351511 L466.255988,332.832844 C463.538655,327.284845 458.270655,322.744845 451.839989,325.894178 C447.421322,328.058178 446.117322,331.862178 447.034655,336.466178 C443.770656,332.039511 439.702656,330.074178 434.399989,332.670178 C426.398656,336.591511 427.851989,344.279511 431.050656,350.808844 L431.050656,350.808844 Z" id="path112" stroke="#FFFFFF" stroke-width="1.3333333" transform="translate(450.441304, 343.799089) scale(1, -1) translate(-450.441304, -343.799089) "></path>
            </g>
            <polyline id="CapitalM" fill="#171812" fill-rule="nonzero" transform="translate(271.078660, 253.036660) scale(1, -1) translate(-271.078660, -253.036660) " points="382.006657 121.126664 343.863991 121.126664 343.863991 270.595993 313.421325 317.554659 271.081327 259.189327 228.737328 317.554659 198.293328 270.595993 198.293328 121.126664 160.150663 121.126664 160.150663 281.87866 226.969328 384.945324 271.079993 324.143992 315.187992 384.946657 382.006657 281.87866 382.006657 121.126664 382.006657 121.126664"></polyline>
            <polygon id="CapitalM" stroke="#171812" stroke-width="3.9999999" stroke-linejoin="round" transform="translate(271.078660, 253.036660) scale(1, -1) translate(-271.078660, -253.036660) " points="382.006657 121.126664 343.863991 121.126664 343.863991 270.595993 313.421325 317.554659 271.081327 259.189327 228.737328 317.554659 198.293328 270.595993 198.293328 121.126664 160.150663 121.126664 160.150663 281.87866 226.969328 384.945324 271.079993 324.143992 315.187992 384.946657 382.006657 281.87866 382.006657 121.126664"></polygon>
        </g>
    </g>
</svg>