<?xml version="1.0" encoding="UTF-8" standalone="no"?>
<!DOCTYPE svg PUBLIC "-//W3C//DTD SVG 1.1//EN" "http://www.w3.org/Graphics/SVG/1.1/DTD/svg11.dtd">
<svg width="435px" height="434px" viewBox="0 0 435 434" version="1.1" xmlns="http://www.w3.org/2000/svg" xmlns:xlink="http://www.w3.org/1999/xlink">
    <g id="WHV" stroke="none" stroke-width="1" fill="none" fill-rule="evenodd">
        <g id="333-Crefelder-HTC">
            <path d="M0,217.249 C0,337.032 97.457,434.499 217.25,434.499 C337.042,434.499 434.5,337.032 434.5,217.249 C434.5,97.457 337.042,0 217.25,0 C97.457,0 0,97.457 0,217.249" id="Fill-1-Copy" fill="#FFFFFE"></path>
            <path d="M8.476,217.249 C8.476,102.128 102.129,8.465 217.25,8.465 C332.37,8.465 426.023,102.128 426.023,217.249 C426.023,332.37 332.37,426.023 217.25,426.023 C102.129,426.023 8.476,332.37 8.476,217.249 Z M0,217.249 C0,337.032 97.457,434.499 217.25,434.499 C337.042,434.499 434.5,337.032 434.5,217.249 C434.5,97.457 337.042,0 217.25,0 C97.457,0 0,97.457 0,217.249 L0,217.249 Z" id="Fill-3-Copy" fill="#DB3E37"></path>
            <path d="M60.692,264.66 C61.85,265.713 63.865,268.525 65.436,272.474 C69.943,283.812 65.168,292.484 55.772,296.214 C44.568,300.67 35.214,295.15 31.267,285.218 C29.737,281.373 29.355,278.137 29.509,276.556 L35.969,275.792 C35.917,277.498 36.166,279.833 37.23,282.5 C39.555,288.349 44.931,291.511 52.279,288.577 C58.853,285.972 61.437,280.432 58.822,273.859 C57.912,271.564 56.506,269.311 55.276,268.05 L60.692,264.66" id="Fill-5" fill="#010000"></path>
            <path d="M43.866,263.14 C40.186,263.967 37.788,264.556 35.68,265.197 L34.191,258.542 L38.77,257.197 L38.729,256.991 C34.76,256.536 32.548,253.87 32,251.41 C31.835,250.696 31.814,250.334 31.783,249.745 L39.101,248.102 C39.142,248.784 39.184,249.424 39.37,250.293 C40.021,253.167 41.933,254.768 44.506,254.737 C45.033,254.717 45.612,254.645 46.274,254.489 L58.904,251.657 L60.641,259.429 L43.866,263.14" id="Fill-6" fill="#010000"></path>
            <path d="M39.607,226.024 C37.726,226.168 34.501,227.264 34.78,230.862 C35.039,234.262 38.222,235.388 40.331,235.43 L39.607,226.024 Z M45.757,234.965 C49.075,234.458 50.398,231.088 50.119,227.389 C49.912,224.67 49.374,222.5 48.486,220.422 L53.778,218.954 C55.08,221.487 55.845,224.639 56.103,228.081 C56.765,236.753 52.135,242.106 44.083,242.706 C37.612,243.202 30.14,239.678 29.468,230.851 C28.837,222.592 35.029,218.975 41.343,218.489 C42.708,218.386 43.917,218.458 44.558,218.51 L45.757,234.965 L45.757,234.965 Z" id="Fill-7" fill="#010000"></path>
            <path d="M55.256,211.611 L35.545,210.36 L35.328,213.766 L29.479,213.394 L29.695,209.988 L28.693,209.926 C25.613,209.73 22.274,208.572 20.32,206.195 C18.574,204.035 18.067,201.27 18.212,198.918 C18.326,197.192 18.667,195.854 18.998,194.769 L25.095,195.472 C24.848,196.138 24.641,196.965 24.568,198.009 C24.403,200.624 26.377,201.854 28.889,202.009 L30.191,202.091 L30.511,196.97 L36.372,197.342 L36.051,202.412 L55.763,203.662 L55.256,211.611" id="Fill-8" fill="#010000"></path>
            <path d="M44.062,176.645 C42.212,176.268 38.812,176.422 38.088,179.968 C37.406,183.301 40.155,185.254 42.17,185.879 L44.062,176.645 Z M47.524,186.924 C50.852,187.337 53.044,184.469 53.798,180.826 C54.336,178.159 54.419,175.926 54.129,173.678 L59.627,173.735 C60.187,176.521 60.052,179.756 59.359,183.141 C57.623,191.663 51.69,195.528 43.794,193.911 C37.426,192.608 31.214,187.167 32.992,178.495 C34.646,170.387 41.592,168.598 47.803,169.87 C49.137,170.144 50.285,170.536 50.883,170.764 L47.524,186.924 L47.524,186.924 Z" id="Fill-9" fill="#010000"></path>
            <polyline id="Fill-10" fill="#010000" points="27.607 155.953 30.212 148.428 65.364 160.567 62.77 168.092 27.607 155.953"></polyline>
            <path d="M61.87,132.805 C61.457,132.588 60.992,132.351 60.517,132.227 C58.398,131.668 56.072,132.418 54.945,134.608 C53.272,137.875 55.328,140.986 58.915,142.826 C62.739,144.784 66.15,144.113 67.649,141.177 C68.703,139.126 68.165,136.733 66.377,135.286 C65.954,134.95 65.416,134.619 64.858,134.33 L61.87,132.805 Z M45.499,115.467 L71.804,128.939 C74.408,130.278 77.116,131.544 78.708,132.242 L75.483,138.537 L72.021,137.12 L71.959,137.26 C73.756,139.948 73.622,143.415 72.124,146.35 C69.354,151.761 62.511,153.735 55.432,150.102 C47.752,146.232 45.736,139.136 48.537,133.678 C49.995,130.835 52.114,129.218 54.181,128.981 L54.232,128.887 L41.871,122.558 L45.499,115.467 L45.499,115.467 Z" id="Fill-11" fill="#010000"></path>
            <path d="M79.038,105.286 C77.54,104.139 74.418,102.795 72.217,105.663 C70.139,108.367 71.762,111.333 73.302,112.769 L79.038,105.286 Z M77.653,116.045 C80.475,117.875 83.7,116.258 85.964,113.302 C87.627,111.141 88.672,109.172 89.395,107.022 L94.315,109.472 C93.592,112.221 92.062,115.074 89.964,117.818 C84.672,124.723 77.653,125.611 71.245,120.702 C66.098,116.749 62.884,109.142 68.269,102.112 C73.302,95.544 80.33,96.971 85.364,100.826 C86.449,101.658 87.307,102.516 87.741,102.981 L77.653,116.045 L77.653,116.045 Z" id="Fill-12" fill="#010000"></path>
            <path d="M87.638,93.311 C85.002,90.603 83.256,88.873 81.612,87.405 L86.501,82.661 L90.046,85.865 L90.191,85.721 C88.506,82.098 89.633,78.821 91.431,77.07 C91.959,76.558 92.258,76.34 92.744,76.015 L97.963,81.389 C97.405,81.788 96.878,82.149 96.238,82.77 C94.128,84.816 93.767,87.292 95.142,89.462 C95.431,89.912 95.793,90.36 96.268,90.847 L105.282,100.134 L99.566,105.678 L87.638,93.311" id="Fill-13" fill="#010000"></path>
            <polyline id="Fill-14" fill="#010000" points="111.524 50.464 118.439 62.201 129.767 55.524 122.852 43.788 129.716 39.747 147.637 70.17 140.785 74.211 133.302 61.529 121.974 68.207 129.447 80.888 122.594 84.929 104.661 54.506 111.524 50.464"></polyline>
            <path d="M163.658,58.867 C166.635,57.86 167.483,54.309 166.004,49.943 C164.795,46.372 162.169,43.168 158.738,44.325 C155.172,45.534 155.017,49.679 156.248,53.302 C157.643,57.42 160.433,59.957 163.616,58.883 L163.658,58.867 Z M165.343,64.326 C158.242,66.728 151.213,63.912 148.558,56.067 C145.901,48.227 149.363,41.467 157.209,38.816 C164.599,36.315 171.296,39.747 173.777,47.09 C176.774,55.922 171.844,62.129 165.395,64.31 L165.343,64.326 L165.343,64.326 Z" id="Fill-15" fill="#010000"></path>
            <path d="M201.952,54.961 C200.66,55.86 198.107,56.795 195.1,57.276 C186.934,58.573 180.909,54.388 179.637,46.424 C178.459,39.023 182.563,32.16 191.979,30.661 C194.045,30.331 196.381,30.331 198.139,30.687 L197.828,36.733 C196.825,36.47 195.378,36.33 193.301,36.656 C189.167,37.318 186.945,40.692 187.658,44.827 C188.402,49.483 191.896,51.473 195.73,50.862 C197.591,50.563 198.986,50.026 200.092,49.317 L201.952,54.961" id="Fill-16" fill="#010000"></path>
            <path d="M214.696,40.403 L214.8,40.403 C215.389,39.313 216.04,38.274 216.681,37.344 L221.994,29.674 L231.575,29.829 L222.241,40.052 L232.473,55.467 L222.676,55.307 L216.619,44.676 L214.583,47.209 L214.449,55.173 L206.49,55.043 L207.1,17.85 L215.058,17.979 L214.696,40.403" id="Fill-17" fill="#010000"></path>
            <path d="M252.144,42.806 C252.464,40.95 252.196,37.555 248.629,36.945 C245.269,36.372 243.41,39.194 242.851,41.224 L252.144,42.806 Z M241.983,46.604 C241.683,49.953 244.62,52.046 248.289,52.672 C250.975,53.131 253.199,53.136 255.44,52.774 L255.565,58.274 C252.805,58.914 249.56,58.894 246.148,58.314 C237.58,56.853 233.519,51.059 234.872,43.106 C235.968,36.703 241.208,30.31 249.931,31.804 C258.085,33.193 260.102,40.072 259.038,46.319 C258.811,47.664 258.458,48.827 258.242,49.431 L241.983,46.604 L241.983,46.604 Z" id="Fill-18" fill="#010000"></path>
            <path d="M274.779,38.537 L274.242,51.669 C274.137,53.245 274.013,55.199 273.86,56.584 L274.013,56.64 C274.809,55.472 275.844,53.777 276.67,52.516 L283.781,41.68 L291.843,44.49 L280.65,58.454 C273.838,66.842 270.189,69.84 266.624,71.317 C263.254,72.692 260.194,72.567 258.19,72.092 L258.82,65.209 C259.823,65.337 261.167,65.307 262.531,65.064 C263.875,64.868 265.59,64.077 266.696,63.131 C267.088,62.821 267.358,62.527 267.471,62.181 C267.564,61.933 267.648,61.52 267.605,60.842 L266.417,35.622 L274.779,38.537" id="Fill-19" fill="#010000"></path>
            <path d="M320.619,81.425 C318.778,84.231 317.372,86.568 316.277,88.418 L310.5,84.624 L312.173,81.4 L312.039,81.317 C310.344,82.082 306.892,82.95 303.038,80.422 C298.666,77.55 297.291,72.764 301.631,66.149 L309.879,53.576 L316.536,57.947 L308.981,69.467 C306.934,72.578 306.707,75.122 309.073,76.671 C310.914,77.881 312.845,77.328 313.92,76.537 C314.354,76.258 314.757,75.835 315.14,75.26 L323.502,62.516 L330.159,66.883 L320.619,81.425" id="Fill-20" fill="#010000"></path>
            <path d="M333.31,79.813 C335.532,77.518 337.32,75.524 338.839,73.798 L343.812,78.604 L341.601,81.421 L341.714,81.529 C343.636,81.054 347.192,81.069 350.271,84.056 C354.044,87.699 354.426,92.955 349.176,98.377 L338.643,109.255 L332.928,103.72 L342.8,93.519 C345.094,91.147 345.828,88.723 343.76,86.723 C342.179,85.188 340.184,85.369 338.748,86.025 C338.231,86.252 337.683,86.743 337.177,87.271 L326.902,97.891 L321.176,92.351 L333.31,79.813" id="Fill-21" fill="#010000"></path>
            <path d="M364.535,119.431 C364.927,119.156 365.352,118.857 365.683,118.501 C367.162,116.877 367.584,114.47 366.167,112.459 C364.059,109.457 360.35,109.823 357.052,112.139 C353.539,114.609 352.536,117.932 354.437,120.635 C355.76,122.521 358.126,123.162 360.246,122.252 C360.732,122.035 361.28,121.715 361.796,121.358 L364.535,119.431 Z M387.511,113.033 L363.325,130.01 C360.928,131.693 358.541,133.498 357.187,134.578 L353.125,128.789 L355.988,126.392 L355.894,126.268 C352.68,126.604 349.671,124.877 347.77,122.175 C344.277,117.198 345.724,110.232 352.246,105.659 C359.245,100.676 366.458,102.201 369.983,107.219 C371.822,109.834 372.266,112.469 371.512,114.408 L371.575,114.49 L382.934,106.517 L387.511,113.033 L387.511,113.033 Z" id="Fill-22" fill="#010000"></path>
            <polyline id="Fill-23" fill="#010000" points="393.363 144.123 389.888 135.24 396.141 132.8 406.013 158.076 399.771 160.515 396.267 151.539 369.621 161.947 366.715 154.531 393.363 144.123"></polyline>
            <path d="M391.667,182.381 C393.507,181.962 396.536,180.412 395.74,176.888 C394.985,173.564 391.667,172.924 389.579,173.182 L391.667,182.381 Z M384.276,174.443 C381.062,175.446 380.255,178.96 381.073,182.588 C381.681,185.244 382.531,187.306 383.719,189.238 L378.696,191.456 C377.042,189.146 375.812,186.148 375.046,182.779 C373.125,174.298 376.918,168.33 384.784,166.537 C391.12,165.094 399.026,167.487 400.99,176.123 C402.83,184.189 397.238,188.686 391.058,190.092 C389.735,190.397 388.525,190.51 387.884,190.546 L384.276,174.443 L384.276,174.443 Z" id="Fill-24" fill="#010000"></path>
            <path d="M395.988,197.017 C399.18,196.877 401.847,196.649 404.143,196.443 L404.453,203.353 L400.908,203.879 L400.917,204.035 C402.632,205.006 405.207,207.46 405.403,211.756 C405.63,216.991 402.302,221.063 394.758,221.404 L379.636,222.076 L379.285,214.117 L393.465,213.498 C396.762,213.342 398.964,212.091 398.84,209.212 C398.736,207.017 397.166,205.776 395.667,205.265 C395.14,205.079 394.406,205.058 393.672,205.089 L378.912,205.745 L378.561,197.792 L395.988,197.017" id="Fill-25" fill="#010000"></path>
            <path d="M396.587,231.11 C399.75,231.564 402.416,231.854 404.711,232.081 L403.718,238.923 L400.142,238.768 L400.122,238.923 C401.63,240.206 403.698,243.099 403.077,247.346 C402.333,252.536 398.292,255.916 390.83,254.84 L375.842,252.67 L376.98,244.794 L391.037,246.82 C394.302,247.295 396.701,246.479 397.103,243.625 C397.423,241.446 396.111,239.936 394.737,239.151 C394.25,238.872 393.527,238.717 392.803,238.614 L378.179,236.495 L379.326,228.608 L396.587,231.11" id="Fill-26" fill="#010000"></path>
            <path d="M400.669,270.572 C401.414,268.008 403.708,266.872 405.972,267.533 C408.288,268.205 409.559,270.427 408.793,273.042 C408.028,275.657 405.806,276.752 403.482,276.132 C401.207,275.47 399.884,273.29 400.659,270.624 L400.669,270.572 Z M373.952,258.716 L398.55,265.859 L396.329,273.507 L371.728,266.355 L373.952,258.716 L373.952,258.716 Z" id="Fill-27" fill="#010000"></path>
            <path d="M376.195,275.161 C374.799,276.174 372.701,278.592 371.792,280.762 C370.851,282.975 371.191,284.194 372.401,284.71 C373.651,285.239 374.541,284.752 376.598,282.438 C380.255,278.189 383.759,277.445 386.489,278.654 C390.934,280.515 392.68,285.683 390.219,291.533 C389.063,294.283 387.367,296.411 386.035,297.559 L381.539,294.189 C382.52,293.352 384.163,291.594 385,289.61 C385.755,287.833 385.455,286.509 384.297,286.024 C383.14,285.539 382.167,286.21 379.936,288.68 C376.546,292.546 373.455,293.393 370.013,292.008 C365.57,290.126 363.781,285.342 366.624,278.582 C367.925,275.492 369.807,273.052 371.523,271.667 L376.195,275.161" id="Fill-28" fill="#010000"></path>
            <path d="M57.323,318.159 C55.897,315.905 56.579,313.175 58.925,311.688 C61.364,310.148 64.083,310.716 65.571,313.073 C67.028,315.368 66.346,318.024 63.938,319.605 C61.592,321.093 58.863,320.597 57.344,318.199 L57.323,318.159" id="Fill-29" fill="#010000"></path>
            <path d="M81.002,360.762 C79.545,360.183 76.661,358.271 73.798,355.14 C65.55,346.148 66.935,336.348 74.387,329.506 C83.276,321.362 93.984,323.202 101.209,331.078 C104,334.137 105.509,337.01 105.922,338.561 L100.155,341.568 C99.597,339.946 98.543,337.858 96.589,335.739 C92.341,331.109 86.191,330.065 80.361,335.409 C75.152,340.194 74.698,346.292 79.483,351.501 C81.147,353.32 83.266,354.933 84.857,355.657 L81.002,360.762" id="Fill-30" fill="#010000"></path>
            <path d="M356.846,358.241 L323.543,341.91 L329.61,335.605 L343.346,342.861 C347.244,344.938 350.871,346.902 354.633,349.351 L354.738,349.238 C352.298,345.652 350.035,341.952 347.966,338.292 L340.215,324.587 L346.095,318.468 L363.305,351.512 L356.846,358.241" id="Fill-39" fill="#010000"></path>
            <path d="M375.399,320.867 C373.941,323.109 371.161,323.604 368.845,322.085 C366.436,320.503 365.838,317.786 367.358,315.47 C368.845,313.197 371.553,312.701 373.982,314.251 C376.308,315.76 376.98,318.468 375.429,320.825 L375.399,320.867" id="Fill-40" fill="#010000"></path>
            <path d="M67.246,217.249 C67.246,134.402 134.387,67.24 217.25,67.24 C300.112,67.24 367.253,134.402 367.253,217.249 L67.246,217.249" id="Fill-41" fill="#007F57"></path>
            <path d="M67.246,217.249 C67.246,300.091 134.387,367.252 217.25,367.252 C300.112,367.252 367.253,300.091 367.253,217.249 L67.246,217.249" id="Fill-42" fill="#DB3E37"></path>
            <path d="M214.572,205.006 C224.009,210.117 230.375,219.678 230.375,230.592 C230.375,230.696 230.365,230.81 230.345,230.945 C221.756,225.581 215.688,216.071 214.572,205.006 Z M339.812,236.711 C334.262,243.264 326.014,247.43 316.793,247.43 C300.174,247.43 286.644,233.901 286.644,217.291 C286.644,200.666 300.174,187.146 316.793,187.146 C325.301,187.146 332.99,190.681 338.468,196.376 L352.266,185.156 C343.502,175.482 330.841,169.394 316.793,169.394 C290.385,169.394 268.909,190.882 268.909,217.291 C268.909,219.906 269.125,222.49 269.539,225.011 C264.02,231.171 256.361,235.12 247.842,235.512 C248.019,233.901 248.112,232.256 248.112,230.592 C248.112,210.851 235.42,193.895 217.477,186.805 C221.994,176.639 231.078,169.208 241.901,167.564 L289.796,167.564 L289.796,149.824 L190.428,149.824 L190.428,167.564 L208.722,167.564 C204.919,172.175 201.87,177.487 199.792,183.301 C199.451,183.291 199.11,183.276 198.78,183.276 C191.544,183.276 184.681,184.778 178.49,187.477 L178.49,150.097 L160.753,150.097 L160.753,246.903 L148.175,236.711 C142.635,243.264 134.376,247.43 125.157,247.43 C108.537,247.43 95.008,233.901 95.008,217.291 C95.008,200.666 108.537,187.146 125.157,187.146 C133.653,187.146 141.354,190.681 146.832,196.376 L160.63,185.156 C151.865,175.482 139.204,169.394 125.157,169.394 C98.759,169.394 77.271,190.882 77.271,217.291 C77.271,243.688 98.759,265.176 125.157,265.176 C139.265,265.176 151.979,259.016 160.753,249.258 L160.753,259.698 L178.49,259.698 L178.49,207.958 C183.472,204.04 189.766,201.518 196.67,201.094 C196.67,201.187 196.661,201.291 196.661,201.394 C196.661,221.756 207.968,239.418 224.36,247.917 C218.614,255.327 209.301,260.174 198.78,260.174 C196.485,260.174 194.252,259.936 192.092,259.491 L192.092,277.465 C194.284,277.755 196.516,277.91 198.78,277.91 C217.487,277.91 233.796,267.864 242.149,253.115 C243.575,253.228 244.991,253.311 246.438,253.311 C257.663,253.311 268.008,249.424 276.339,242.861 C284.835,256.256 299.792,265.176 316.793,265.176 C331.575,265.176 344.804,258.437 353.589,247.895 L339.812,236.711 L339.812,236.711 Z" id="Fill-43" fill="#110F12"></path>
            <polyline id="Fill-31" fill="#010000" points="112.372 339.677 118.542 344.721 95.039 373.538 88.868 368.514 112.372 339.677"></polyline>
            <path d="M130.222,386.747 C128.495,389.62 127.193,392.018 126.18,393.919 L120.237,390.364 L121.777,387.078 L121.643,386.995 C119.989,387.842 116.568,388.855 112.62,386.489 C108.113,383.801 106.542,379.078 110.604,372.287 L118.315,359.377 L125.147,363.46 L118.087,375.294 C116.175,378.478 116.051,381.042 118.48,382.489 C120.371,383.615 122.273,382.985 123.328,382.137 C123.751,381.847 124.133,381.403 124.485,380.814 L132.299,367.729 L139.142,371.822 L130.222,386.747" id="Fill-32" fill="#010000"></path>
            <path d="M148.02,391.542 C147.844,392.039 147.731,392.494 147.679,392.927 C147.441,395.078 148.578,397.279 150.749,398.075 C153.943,399.252 156.815,397.528 158.407,393.207 C159.792,389.476 159.214,385.899 155.72,384.617 C153.705,383.874 151.275,384.7 149.984,386.685 C149.725,387.088 149.508,387.511 149.333,388.007 L148.02,391.542 Z M149.674,364.112 L157.136,366.881 L152.071,380.586 L152.175,380.628 C154.356,379.078 157.353,378.684 160.691,379.924 C166.449,382.043 168.857,388.359 166.087,395.708 C162.893,404.359 155.833,406.664 150.335,404.627 C147.535,403.594 145.157,401.547 144.547,398.075 L144.443,398.034 L142.915,401.279 L136.579,398.922 C137.26,397.393 138.429,394.53 139.431,391.832 L149.674,364.112 L149.674,364.112 Z" id="Fill-33" fill="#010000"></path>
            <polyline id="Fill-34" fill="#010000" points="193.808 387.026 193.704 387.015 186.883 389.28 186.314 383.191 195.823 380.153 202.325 380.959 198.128 414.747 190.49 413.805 193.808 387.026"></polyline>
            <path d="M222.179,386.292 C219.46,386.365 218.149,388.235 218.21,390.333 C218.273,392.638 220.361,394.043 223.099,394.809 C224.919,394.23 226.5,392.514 226.438,390.406 C226.376,388.266 225.116,386.209 222.231,386.292 L222.179,386.292 Z M222.975,410.581 C225.755,410.498 227.586,408.618 227.513,406.208 C227.43,403.221 225.125,401.506 222.014,400.762 C219.419,401.568 217.953,403.49 218.024,405.951 C218.045,408.421 219.989,410.665 222.923,410.581 L222.975,410.581 Z M222.284,380.886 C230.251,380.659 233.672,385.176 233.796,389.31 C233.879,392.246 232.392,395.17 229.033,396.938 L229.042,397.103 C232.422,398.261 235.44,401.01 235.564,405.351 C235.741,411.533 230.676,415.874 222.768,416.101 C214.127,416.338 210.004,411.583 209.88,406.974 C209.756,402.892 212.041,399.997 215.709,398.261 L215.699,398.157 C212.361,396.525 210.655,393.795 210.572,390.819 C210.407,385.052 215.482,381.083 222.231,380.886 L222.284,380.886 L222.284,380.886 Z" id="Fill-35" fill="#010000"></path>
            <path d="M250.757,383.46 C248.143,383.998 246.675,386.747 247.379,390.24 C247.968,393.114 250.055,395.263 253.188,394.623 C255.399,394.167 256.639,392.908 257.167,391.563 C257.322,391.005 257.322,390.468 257.115,389.496 C256.453,385.94 254.355,382.737 250.81,383.45 L250.757,383.46 Z M246.056,407.935 C247.11,407.883 247.925,407.667 249.445,407.253 C251.833,406.653 254.108,405.455 255.648,403.853 C257.569,401.961 258.551,399.459 258.615,396.834 L258.5,396.804 C257.27,398.654 255.286,399.977 252.205,400.596 C246.562,401.745 241.043,398.798 239.72,392.276 C238.397,385.754 242.52,379.201 249.859,377.713 C258.438,375.976 263.822,381.723 265.414,389.516 C266.831,396.503 265.642,401.981 262.727,406.054 C260.133,409.631 256.03,412.06 250.84,413.332 C249.58,413.692 248.237,413.91 247.296,414.053 L246.056,407.935 L246.056,407.935 Z" id="Fill-36" fill="#010000"></path>
            <path d="M287.47,396.948 C290.355,395.822 290.509,391.605 287.677,384.38 C284.939,377.362 281.973,374.241 278.996,375.398 C276.215,376.493 275.853,380.731 278.655,387.905 C281.465,395.243 284.598,398.075 287.43,396.968 L287.47,396.948 Z M289.57,402.602 C281.374,405.805 274.882,399.852 271.327,390.881 C267.718,381.662 268.753,372.938 276.95,369.735 C285.394,366.426 291.719,372.679 295.11,381.373 C298.923,391.129 297.622,399.45 289.622,402.581 L289.57,402.602 L289.57,402.602 Z" id="Fill-37" fill="#010000"></path>
            <path d="M327.822,362.623 C326.716,361.093 324.102,358.902 321.176,361.021 C318.407,363.016 319.109,366.323 320.163,368.142 L327.822,362.623 Z M323.389,372.525 C325.57,375.098 329.115,374.467 332.143,372.297 C334.345,370.706 335.916,369.125 337.239,367.274 L341.238,371.037 C339.75,373.465 337.465,375.75 334.666,377.775 C327.606,382.861 320.628,381.682 315.916,375.14 C312.112,369.869 311.234,361.651 318.417,356.483 C325.135,351.646 331.451,355.036 335.161,360.183 C335.957,361.28 336.535,362.354 336.814,362.933 L323.389,372.525 L323.389,372.525 Z" id="Fill-38" fill="#010000"></path>
        </g>
    </g>
</svg>