<?xml version="1.0" encoding="UTF-8" standalone="no"?>
<!DOCTYPE svg PUBLIC "-//W3C//DTD SVG 1.1//EN" "http://www.w3.org/Graphics/SVG/1.1/DTD/svg11.dtd">
<svg width="600" height="300" version="1.1" viewBox="0 0 600 300" xmlns="http://www.w3.org/2000/svg">
	<path d="m557.1 1.636h-209.2c-11.05 0-21.44 4.379-29.27 12.32-7.789 7.939-12.11 18.5-12.11 29.75v212.7c0 11.24 4.317 21.8 12.11 29.77 7.828 7.932 18.21 12.3 29.27 12.3h209.2c11.04 0 21.43-4.368 29.25-12.3 7.817-7.967 12.11-18.52 12.11-29.77v-212.7c0-11.24-4.295-21.81-12.11-29.75-7.817-7.943-18.2-12.32-29.25-12.32" fill="#fff"/>
	<path d="m252.1 1.636h-209.2c-11.05 0-21.44 4.379-29.27 12.32-7.789 7.939-12.11 18.5-12.11 29.75v212.7c0 11.24 4.317 21.8 12.11 29.77 7.828 7.932 18.21 12.3 29.27 12.3h209.2c11.04 0 21.43-4.368 29.25-12.3 7.817-7.967 12.11-18.52 12.11-29.77v-212.7c0-11.24-4.295-21.81-12.11-29.75-7.817-7.943-18.2-12.32-29.25-12.32" fill="#fff"/>
	<g fill="#0068b4">
		<path d="m444.9 122.4h-60.43c-1.106 0-1.994 0.7255-1.994 1.665v12.53c0 0.9323 0.8882 1.665 1.994 1.665h20.7v37.39c0 1.125 0.8882 2.017 1.994 2.017h15.05c1.102 0 1.994-0.8924 1.994-2.017v-37.39h20.7c1.088 0 2.012-0.7328 2.012-1.665v-12.53c0-0.9395-0.9239-1.665-2.012-1.665"/>
		<path d="m519.3 122.4h-15.05c-1.106 0-1.994 0.896-1.994 1.999v17.11h-35.13v-17.11c0-1.103-0.9239-1.999-2.026-1.999h-15.06c-1.102 0-1.994 0.896-1.994 1.999v51.25c0 1.125 0.8918 2.017 1.994 2.017h15.06c1.102 0 2.026-0.8924 2.026-2.017v-16.11h35.13v16.11c0 1.125 0.8882 2.017 1.994 2.017h15.05c1.102 0 2.012-0.8924 2.012-2.017v-51.25c0-1.103-0.9096-1.999-2.012-1.999"/>
		<path d="m575.4 144.8h15.06c1.102 0 2.008-0.9323 2.008-2.035v-7.052c0-7.389-5.889-13.36-13.15-13.36h-43.28c-7.223 0-13.08 5.891-13.17 13.19v28.71h0.0214c0.0143 7.375 5.889 13.36 13.15 13.36h43.28l0.1427-0.0254c7.191-0.0544 13.01-6.018 13.01-13.36v-7.048c0-1.121-0.9061-2.035-2.008-2.035h-15.06c-1.102 0-1.994 0.9141-1.994 2.035v2.126c0 1.339-1.084 2.427-2.401 2.427l-26.7 0.0181h0.0178c-1.334-0.0181-2.404-1.143-2.404-2.499v-18.65c0-1.241 0.9631-2.282 2.155-2.398h26.95c1.334 0.0181 2.383 1.103 2.383 2.463v2.089c0 1.103 0.8918 2.035 1.994 2.035"/>
		<path d="m381.7 151.2v-19.9c0-4.922-3.917-8.913-8.775-8.913l-6.282 0.0181h-52.07c-1.106 0-1.994 0.896-1.994 1.999v51.25c0 1.121 0.8882 2.017 1.994 2.017h15.05c1.106 0 2.012-0.896 2.012-2.017v-11.15h28.76c1.316 0 2.404 1.077 2.422 2.434v8.717c0 1.121 0.8704 2.017 1.973 2.017h15.73v-17.22c0-2.108-1.602-3.809-3.61-4.026v-0.0181c2.668-0.1886 4.787-2.463 4.787-5.213m-47.87-2.568c-1.159-0.0834-2.101-1.023-2.19-2.209v-5.945c0.0892-1.157 0.9774-2.089 2.133-2.209h26.89c1.191 0.1197 2.137 1.161 2.155 2.398v5.557c-0.0178 1.284-0.981 2.307-2.208 2.409z"/>
		<path d="m20.28 291c6.196 4.335 14.23 7.084 22.3 7.084l211.4-0.4498c21.23 0 38.45-17.5 38.45-39.08v-75.78z"/>
		<path d="m253.9 2.8h-211.4c-21.23 0-39.87 17.58-39.87 39.16l0.503 78.45 274.6-109.2c-6.546-5.263-14.84-8.405-23.85-8.405"/>
		<path d="m253.2 3.5c21.22 0 38.41 17.49 38.41 39.06v215c0 21.57-17.19 39.07-38.41 39.07h-211.4c-21.22 0-38.42-17.5-38.42-39.07v-215c0-21.57 17.2-39.06 38.42-39.06zm0-3.457h-211.4c-11.17 0-21.67 4.426-29.58 12.45-7.873 8.024-12.24 18.7-12.24 30.07v215c0 11.36 4.363 22.03 12.24 30.09 7.912 8.017 18.41 12.43 29.58 12.43h211.4c11.16 0 21.66-4.415 29.56-12.43 7.901-8.053 12.24-18.72 12.24-30.09v-215c0-11.36-4.341-22.04-12.24-30.07-7.901-8.028-18.4-12.45-29.56-12.45"/>
		<path d="m558.2 3.5c21.23 0 38.42 17.49 38.42 39.06v215c0 21.57-17.19 39.07-38.42 39.07h-211.4c-21.23 0-38.44-17.5-38.44-39.07v-215c0-21.57 17.21-39.06 38.44-39.06zm0-3.457h-211.4c-11.18 0-21.68 4.426-29.58 12.45-7.901 8.024-12.24 18.7-12.24 30.07v215c0 11.36 4.341 22.03 12.24 30.09 7.901 8.017 18.4 12.43 29.58 12.43h211.4c11.16 0 21.68-4.415 29.58-12.43 7.887-8.053 12.25-18.72 12.25-30.09v-215c0-11.36-4.359-22.04-12.25-30.07-7.898-8.028-18.42-12.45-29.58-12.45"/>
		<path d="m148.4 210.7c-32.56 0-59.03-26.96-59.03-60.03 0-33.13 26.47-60.05 59.03-60.05s59.04 26.92 59.04 60.05c0 33.07-26.48 60.03-59.04 60.03m0-116.6c-30.67 0-55.61 25.37-55.61 56.59 0 31.19 24.93 56.56 55.61 56.56 30.67 0 55.63-25.37 55.63-56.56 0-31.21-24.96-56.59-55.63-56.59"/>
		<path d="m136.5 138.5 9.139-19.5h5.369l9.389 19.52h-4.769l-1.534-3.25h-11.29l-1.712 3.232zm8.212-7.545h7.352l-3.692-7.621z"/>
		<path d="m143.1 167.5h14.97v-4.317h-19.2v19.52h19.18v-4.28h-15.04v-3.33h15.05v-4.299h-14.97z"/>
		<path d="m159.1 110.5c0 3.21-2.608 5.844-5.287 5.844h-14.99v-19.52h14.45c2.64 0 5.269 1.629 5.269 5.898 0 0.9976-0.5422 2.887-1.573 3.82 1.231 0.9032 2.133 2.481 2.133 3.954m-6.382-9.319h-9.671v3.21h9.767c2.058 0 2.001-3.21-0.0963-3.21m0.717 7.509h-10.36v3.359h10.32c2.254 0 2.315-3.359 0.0392-3.359"/>
		<path d="m116.4 154.6c0 3.192-2.6 5.826-5.276 5.826h-15.54v-19.52h15c2.618 0 5.265 1.647 5.265 5.891 0 1.001-0.5422 2.887-1.577 3.852 1.227 0.8887 2.13 2.456 2.13 3.947m-6.382-9.348h-10.19v3.214h10.28c2.065 0 2.015-3.214-0.0892-3.214m0.717 7.531h-10.9v3.348h10.86c2.247 0 2.315-3.348 0.0392-3.348"/>
		<path d="m117 160.4 9.128-19.5h5.379l9.378 19.52h-4.766l-1.534-3.228h-11.31l-1.694 3.21zm8.208-7.545h7.334l-3.678-7.61z"/>
		<path d="m202.2 147.1c0 3.21-2.048 6.17-5.069 6.17l5.126 7.168h-5.226l-5.037-7.066h-4.769v7.048h-4.188v-19.5h14.07c3.039 0 5.087 2.699 5.094 6.181m-6.189-1.901h-8.786v3.838h8.861c2.533 0 2.533-3.838-0.0749-3.838"/>
		<path d="m135.7 141h5.889l6.842 7.937 6.863-7.937h5.918l-10.67 11.93v7.563h-4.227v-7.563z"/>
		<path d="m166 145.3h12.81v-4.299h-17.03v19.49h17.02v-4.299h-12.86v-3.294h12.87v-4.299h-12.81z"/>
		<path d="m158.6 191.6c0.0107 3.232-2.03 6.17-5.062 6.17l5.13 7.168-5.237 0.0181-5.037-7.066h-5.294v7.048h-4.195v-19.5h14.61c3.029 0 5.072 2.688 5.083 6.163m-6.189-1.901h-9.31v3.838h9.378c2.54 0 2.54-3.838-0.0678-3.838"/>
	</g>
</svg>
