<?xml version="1.0" encoding="UTF-8" standalone="no"?>
<!-- Created with Inkscape (http://www.inkscape.org/) -->
<svg xmlns:ns="http://ns.adobe.com/SaveForWeb/1.0/" xmlns:dc="http://purl.org/dc/elements/1.1/" xmlns:cc="http://creativecommons.org/ns#" xmlns:rdf="http://www.w3.org/1999/02/22-rdf-syntax-ns#" xmlns:svg="http://www.w3.org/2000/svg" xmlns="http://www.w3.org/2000/svg" version="1.1" width="481.634" height="603.46503" viewBox="0 0 481.63398 603.46502" id="svg2" xml:space="preserve"><defs id="defs3579"/>
<metadata id="metadata3549">
	<ns:sfw>
		<ns:slices/>
		<ns:sliceSourceBounds x="64.712" y="166.173" width="481.634" height="603.466" bottomLeftOrigin="true"/>
	</ns:sfw>
<rdf:RDF><cc:Work rdf:about=""><dc:format>image/svg+xml</dc:format><dc:type rdf:resource="http://purl.org/dc/dcmitype/StillImage"/><dc:title/></cc:Work></rdf:RDF></metadata>
<path d="M 14.123601,105.83171 V 15.167527 H 467.51038 v 90.664183 255.77336 c 0,125.20002 -101.49435,226.69339 -226.69339,226.69339 -125.19904,0 -226.693389,-101.49337 -226.693389,-226.69339 V 105.83171 z" id="path3551" style="fill:#ffffff"/>
<path d="m 319.60819,367.97991 c -15.78478,-17.3033 -15.42701,-46.98674 -1.72689,-72.05662 -8.89786,-3.18251 -15.42996,-13.61265 -15.42996,-26.01835 0,-3.30045 -0.2064,-11.44052 -0.40396,-22.11146 -11.51719,-0.21722 -20.80524,-12.22092 -20.80524,-27.0189 0,-3.44494 -0.22508,-12.16195 -0.42951,-23.52581 -2.96825,0.15922 -5.80675,0.22999 -8.42019,0.22999 -20.16048,0 -37.04115,-18.83558 -41.47878,-44.1384 -4.43762,25.30282 -21.31927,44.1384 -41.47878,44.1384 -2.61539,0 -5.4539,-0.0708 -8.42215,-0.22999 -0.20443,11.36386 -0.42951,20.08087 -0.42951,23.52581 0,14.79798 -9.28805,26.80267 -20.80524,27.0189 -0.19657,10.67094 -0.40297,18.81101 -0.40297,22.11146 0,12.40668 -6.53408,22.83584 -15.42997,26.01835 13.69915,25.06988 14.05592,54.75332 -1.7259,72.05662 -3.78108,4.14474 -8.21477,7.4275 -13.1055,9.88662 17.70333,11.11323 31.35922,31.75139 44.99546,51.37523 15.25895,21.95715 31.38085,43.10541 48.94952,50.59778 v 76.19841 h 15.7091 v -76.19841 c 17.56966,-7.49237 33.69156,-28.64161 48.94854,-50.59778 13.63624,-19.62483 27.29312,-40.26298 44.99546,-51.37523 -4.88876,-2.45912 -9.32344,-5.74188 -13.10353,-9.88662 z" id="path3553" style="fill:#007900"/>
<g transform="matrix(0.98286287,0,0,0.98286287,-59.476119,-65.841997)" id="g3555">
	<path d="m 183.528,581.687 -31.284,-18.539 7.071,-11.932 55.75,-25.492 10.83,6.418 -27.927,47.129 10.127,6 -4.813,8.121 -10.126,-6 -8.913,15.039 -9.626,-5.703 8.911,-15.041 z m 5.113,-7.943 21.688,-36.6 -45.652,22.4 23.964,14.2 z" id="path3557" style="fill:#007900"/>
	<path d="m 232.22,560.55 c 3.684,-6.217 15.442,-16.457 33.691,-5.641 14.639,8.674 18.367,21.588 12.069,32.215 -4.041,6.82 -12.671,11.322 -23.468,7.365 3.458,3.537 12.705,13.082 4.743,26.52 -5.645,9.523 -18.681,16.432 -35.926,6.211 -5.917,-3.504 -12.221,-8.867 -14.501,-16.451 -1.689,-5.607 -1.006,-12.248 2.143,-17.561 2.733,-4.613 7.389,-8.357 12.86,-9.586 5.271,-1.348 9.474,-0.211 13.176,0.627 -8.037,-7.47 -8.887,-16.781 -4.787,-23.699 z m -4.197,58.75 c 11.129,6.596 18.472,0.379 21.562,-4.836 4.576,-7.721 1.831,-16.121 -6.091,-20.816 -8.522,-5.049 -17.524,-2.66 -21.863,4.658 -3.208,5.414 -3.936,14.873 6.392,20.994 z m 33.891,-56.734 c -7.419,-4.396 -15.749,-3.371 -19.849,3.547 -3.981,6.717 -1.04,14.557 6.18,18.836 7.62,4.514 15.949,3.49 19.989,-3.326 3.744,-6.319 2.002,-14.125 -6.32,-19.057 z" id="path3559" style="fill:#007900"/>
</g>
<g transform="matrix(0.98286287,0,0,0.98286287,-59.476119,-65.841997)" id="g3561">
	<path d="m 346.745,566.597 c -4.705,-8.186 -12.062,-7.018 -16.538,-4.518 -10.177,5.682 -9.77,16.934 -0.229,36.17 0.42,-4.506 1.106,-12.363 11.384,-18.102 11.5,-6.42 25.529,-4.242 33.881,10.719 9.148,16.385 2.048,31.16 -10.064,37.92 -6.817,3.807 -15.169,4.865 -21.661,2.084 -9.054,-4.023 -15.9,-13.416 -20.899,-22.369 -8.58,-15.369 -18.45,-41.895 3.837,-54.338 9.262,-5.17 16.724,-3.998 20.644,-2.713 5.892,2.184 8.493,6.604 10.129,9.295 l -10.484,5.852 z m 19.239,30.637 c -2.784,-4.986 -10.174,-14.875 -21.877,-8.342 -9.465,5.285 -9.726,15.574 -5.237,23.615 5.112,9.158 14.562,12.693 22.397,8.318 6.31,-3.523 11.137,-12.089 4.717,-23.591 z" id="path3563" style="fill:#007900"/>
	<path d="m 417.979,577.287 -31.752,17.727 -6.761,-12.113 5.985,-61.006 10.99,-6.137 26.705,47.832 10.278,-5.738 4.6,8.242 -10.276,5.738 8.521,15.266 -9.77,5.453 -8.52,-15.264 z m -4.296,-8.414 -20.739,-37.145 -3.584,50.725 24.323,-13.58 z" id="path3565" style="fill:#007900"/>
</g>
<path d="M 240.81699,598.29417 C 110.30558,598.29417 4.1269023,492.11648 4.1269023,361.60507 V 5.1708285 H 477.50708 V 361.60507 c 9.8e-4,130.51141 -106.17868,236.6891 -236.69009,236.6891 z M 24.120299,25.164225 V 361.60507 c 0,119.48664 97.210051,216.69669 216.696691,216.69669 119.48762,0 216.69767,-97.20907 216.69767,-216.69669 V 25.164225 H 24.120299 z" id="path3567" style="fill:#e00000;fill-opacity:1"/>
<path d="M 321.053,142.96427 H 275.56709 V 40.693458 H 321.053 V 142.96427 z M 204.20535,64.75689 c 0,-1.118498 -0.90522,-2.024697 -2.02372,-2.024697 h -42.31224 c -1.11654,0 -2.02372,0.906199 -2.02372,2.024697 v 17.438936 c 0,1.118498 0.9062,2.024698 2.02372,2.024698 h 42.31224 c 1.1185,0 2.02372,-0.9062 2.02372,-2.024698 V 64.75689 z m 58.38893,0 c 0,-1.118498 -0.90325,-2.024697 -2.02273,-2.024697 h -42.31126 c -1.11654,0 -2.02372,0.906199 -2.02372,2.024697 v 17.438936 c 0,1.118498 0.9062,2.024698 2.02372,2.024698 h 42.31126 c 1.11948,0 2.02273,-0.9062 2.02273,-2.024698 V 64.75689 z M 99.493104,142.96427 H 144.98 V 82.195826 71.340106 64.75689 c 0,-1.118498 -0.90522,-2.024697 -2.02372,-2.024697 H 86.71687 V 40.693458 H 43.543635 V 142.96427 H 86.71687 V 84.219541 l 10.750554,-0.0059 c 1.118498,0 2.02568,0.905216 2.02568,2.024697 V 142.96427 z M 216.23756,92.817625 c 0,13.776785 0,27.630245 0,27.631225 0,3.32208 -2.69403,6.01512 -6.01611,6.01512 -3.32207,0 -6.0161,-2.69304 -6.0161,-6.01512 V 92.817625 h -46.3587 v 40.027095 c 0,5.58954 4.531,10.11955 10.11956,10.11955 h 84.50753 c 5.59053,0 10.12153,-4.531 10.12153,-10.11955 V 92.817625 h -46.35771 z m 124.44911,50.146645 h 88.7938 c 5.59052,0 10.12152,-4.531 10.12152,-10.11955 v -29.93014 c 0,-5.588563 -4.53296,-10.119561 -10.11956,-10.119561 v 0.002 h -44.90307 c -2.37165,0 -4.29511,-1.923463 -4.29511,-4.296094 0,-2.372631 1.92346,-4.29511 4.29511,-4.29511 h 44.90111 c 5.59052,0 10.12152,-4.525101 10.12152,-10.115625 v -1.238407 c 0,-5.588559 -4.53296,-10.119556 -10.11956,-10.119556 H 344.9749 c -5.59052,0 -10.1225,4.530997 -10.1225,10.119556 v 29.914407 c 0,5.58856 4.53198,10.11956 10.12053,10.11956 v 0.004 h 41.17508 c 2.73629,0 4.95559,2.21832 4.95559,4.95461 0,2.73629 -2.2193,4.9556 -4.95559,4.9556 h -45.45839 c -5.59053,0 -10.12251,4.49365 -10.12251,10.0822 -9.8e-4,5.58856 4.531,10.08221 10.11956,10.08221 z" id="path3569" style="fill:#01009c"/>
<path d="M 113.23942,396.46623 H 79.090837 L 33.74351,183.82876 H 70.474078 L 96.908175,313.40252 122.4862,183.82876 h 36.18311 l -45.42989,212.63747 z" id="path3571" style="fill:#e00000"/>
<path d="m 246.70925,420.55325 h -28.73301 v -78.3155 h -10.39967 v -28.14821 h 10.39967 v -9.98588 c 0,-7.97004 0.71454,-13.88294 2.18294,-18.07682 1.62664,-4.64009 4.63321,-8.4536 8.94012,-11.33142 4.22434,-2.8218 9.49839,-4.25089 15.67764,-4.25089 5.9247,0 11.8032,1.10671 17.46843,3.29063 l 3.76731,1.45267 -4.04153,25.7058 -5.46177,-1.60207 c -2.51613,-0.73715 -4.93594,-1.1126 -7.19751,-1.1126 -1.28755,0 -1.778,0.26636 -1.84876,0.35973 -0.0147,0.0246 -0.75484,1.24037 -0.75484,5.9758 v 9.57505 h 14.00481 v 28.14821 h -14.00481 v 78.3155 z" id="path3573" style="fill:#790102"/>
<path d="M 382.02392,396.46623 H 335.84509 V 183.82876 h 53.32522 c 10.11956,0 17.56671,0.71749 22.76704,2.19375 5.62197,1.6001 10.66996,4.92316 15.01028,9.87876 4.11623,4.70398 7.55821,10.95204 10.23357,18.57217 2.64881,7.53856 3.99239,16.07178 3.99239,25.35983 0,10.06943 -1.6522,19.46265 -4.90744,27.92117 -2.33233,6.05542 -5.30942,11.14173 -8.89098,15.19506 5.56006,4.15063 10.03405,9.89251 13.3463,17.14702 4.24007,9.27233 6.39156,20.24895 6.39156,32.62319 0,9.64975 -1.35832,19.16976 -4.03564,28.29367 -2.74513,9.3431 -6.60091,16.98092 -11.46215,22.70217 -5.16887,6.08195 -11.65183,9.87679 -19.27,11.28327 -4.41404,0.79808 -14.3154,1.2787 -30.29086,1.46643 h -0.0305 z m -11.77077,-44.13939 h 17.59816 c 11.4474,0 14.44022,-0.73715 15.08596,-0.9632 l 0.19756,-0.0629 c 2.3284,-0.71061 4.26366,-2.55937 5.91388,-5.65539 1.8812,-3.53438 2.83556,-8.5342 2.83556,-14.85794 0,-5.39002 -0.75975,-9.95443 -2.2596,-13.56646 -1.34161,-3.23263 -3.14909,-5.47454 -5.52369,-6.85645 -1.15093,-0.66933 -5.31925,-2.22618 -19.13732,-2.22618 h -14.71051 v 44.18853 z m 0,-87.91119 h 11.0002 c 11.99191,0 15.6403,-0.3725 16.74798,-0.59365 2.80018,-0.55531 4.87697,-2.11708 6.54292,-4.91431 1.91265,-3.20512 2.88274,-7.66928 2.88274,-13.26865 0,-5.41656 -0.84625,-9.77162 -2.51711,-12.94529 -1.35734,-2.57804 -3.18939,-4.02285 -5.76842,-4.54868 -1.12145,-0.2123 -5.28879,-0.59071 -19.86759,-0.59071 h -9.0217 v 36.86129 z" id="path3575" style="fill:#e00000"/>
</svg>