<svg id="Ebene_1" data-name="Ebene 1" xmlns="http://www.w3.org/2000/svg" viewBox="0 0 340.16 253.21"><defs><style>.cls-1,.cls-3{fill:#c9070a;}.cls-1{stroke:#c9070a;stroke-miterlimit:22.93;stroke-width:1.42px;}.cls-2{fill:#000003;}.cls-2,.cls-3{fill-rule:evenodd;}</style></defs><title>2017 GHTC logo ROT</title><ellipse class="cls-1" cx="170.08" cy="126.6" rx="144.88" ry="101.35"/><path class="cls-2" d="M232.23,228c-1.72-7.92-5.14-24.88-7-32.79-.5-2.1-4.68-2.57-5.05,2.09-.36,4.39,0,8.07-7.08,6.2s-41.59-3.93-46.22,41.1c-5,48.48,24.4,62.54,39.73,62.83,13.11.25,33.69-4.61,34.1-27.6s0-35.23,0-35.23H205.63v23a3.83,3.83,0,0,0,.3,1.54.84.84,0,0,0,1.44-.33c2.35-5.19,5-5.23,7.32-5.29,1.69-.05,6.92.65,7.05,6.51.12,5.64,2.16,23.52-14.44,23.28-14.33-.2-16-16.62-16.52-38.13-1-42.92,24.75-41.82,31.25-36.39,2.46,2.06,3.74,3.79,6.2,8.81C229.51,231.3,232.66,230,232.23,228Z" transform="translate(-127.56 -127.12)"/><path class="cls-2" d="M320.18,228s2.34-15.45,4.51-22.17c.05-.15-7.54-5.19-17.58-5.57l.94,27.43,12.13.31Zm-43.85,0s-2.35-15.45-4.51-22.17c-.05-.15,7.54-5.19,17.58-5.57l-.94,27.43-12.13.31Zm21.94,107.1H276.2c16.8-26.14,12.38-90.56,12.38-90.56h-10.9c-1.18,52.54-16.8,96.89-16.8,96.89L232,326.37s40.08-39.94,22.69-107.4c-.07-.28-3.54,1.78-7.66,8-.17.25-14.44-21.59-14.44-21.59s7.66-8,12.37-11.84c.23-.19-10-16.27-10-16.27l18.86-14.5,12.68,21.3s10.6-5.67,31.79-5.67,31.8,5.67,31.8,5.67l12.67-21.3,18.87,14.5s-10.26,16.08-10,16.27c4.72,3.84,12.38,11.84,12.38,11.84S349.68,227.21,349.52,227c-4.13-6.21-7.59-8.27-7.66-8-17.39,67.46,22.69,107.4,22.69,107.4l-28.88,15.1s-15.62-44.35-16.8-96.89H308s-4.42,64.42,12.38,90.56Z" transform="translate(-127.56 -127.12)"/><path class="cls-2" d="M414.82,238.51c0-11.69,0-23.54,0-34.55,0-3.26-3.57-2.6-4-1.23a8.35,8.35,0,0,1-3.25,4.09c-2.66,1.09-6.1,1.11-11.53-.37-9.31-2.54-33.83.77-38.41,41.5-4.26,37.91,17.41,56.65,31.33,58.75,12.83,1.95,23.36-2.44,31-14.53.08-.12-10.1-7.56-10.1-7.56s-6.3,8.81-13.39,8.16c-3.15-.29-14.82-1.13-14.63-32.49.15-25.57,7.22-32.83,17.23-33.28,5.61-.25,8.15,3.05,10.46,5.88,1.34,1.64,2,4.05,2.53,5.62C412.82,240.59,414.82,240.47,414.82,238.51Z" transform="translate(-127.56 -127.12)"/><path class="cls-2" d="M297.64,127.12c93.93,0,170.08,56.68,170.08,126.61s-76.15,126.6-170.08,126.6-170.08-56.68-170.08-126.6,76.15-126.61,170.08-126.61Zm0,25.25c-80,0-144.88,45.38-144.88,101.36s64.86,101.36,144.88,101.36,144.88-45.38,144.88-101.36S377.65,152.37,297.64,152.37Z" transform="translate(-127.56 -127.12)"/><path class="cls-3" d="M153.58,300.35l1.72-.87L153,295l-2,1,1.08,2.13-.42.21a3.62,3.62,0,0,1-1,.34,2.12,2.12,0,0,1-.94,0,2.31,2.31,0,0,1-1.49-1.25,2.15,2.15,0,0,1-.14-1.82,1.58,1.58,0,0,1,.29-.51,2.39,2.39,0,0,1,.51-.47,6.44,6.44,0,0,1,.86-.56c.35-.2.83-.46,1.44-.77s1.1-.55,1.47-.71a6.91,6.91,0,0,1,1-.37,2.86,2.86,0,0,1,.68-.13,2.14,2.14,0,0,1,2,1.24,2.52,2.52,0,0,1,.33,1.22,5.28,5.28,0,0,1-.29,1.4l2.4.78a6,6,0,0,0,.35-2.25,5.94,5.94,0,0,0-.69-2.21,5,5,0,0,0-3-2.57,3.85,3.85,0,0,0-2.3-.07,19.22,19.22,0,0,0-3.09,1.33,18.44,18.44,0,0,0-2.89,1.72,4,4,0,0,0-1.3,1.9,4.91,4.91,0,0,0,.33,3.91,5,5,0,0,0,3.09,2.65,3.88,3.88,0,0,0,1.94.11,8.64,8.64,0,0,0,2.31-.87Zm-1,8.24-.78-1.16a2.74,2.74,0,0,1-.52-2.25,2.93,2.93,0,0,1,1.25-1.71l8.84-6,1.37,2L154,305.42a.78.78,0,0,0-.25,1.22l.53.79-1.73,1.16Zm6,7.94,5.19-3.91q2.79-2.08.25-5.45a6,6,0,0,0-1.47-1.47,3.77,3.77,0,0,0-1.76-.55l-.28,2.17a2.32,2.32,0,0,1,1,.27,2.54,2.54,0,0,1,.8.76,2.15,2.15,0,0,1,.56,1.35,1.53,1.53,0,0,1-.69,1.05l-.4.29-1.4-1.86a3.6,3.6,0,0,0-2.15-1.52,2.71,2.71,0,0,0-2.16.55,3.08,3.08,0,0,0-1.28,2,3.42,3.42,0,0,0,.82,2.53,3.61,3.61,0,0,0,1,1,3.26,3.26,0,0,0,1.21.4l-.68.51,1.45,1.92Zm1.42-4.15a1.68,1.68,0,0,1-1.21.46,1.53,1.53,0,0,1-.69-.28,3.45,3.45,0,0,1-.62-.67,1.63,1.63,0,0,1-.4-1,1.05,1.05,0,0,1,.45-.79c.59-.45,1.17-.3,1.72.43l1.18,1.56-.43.32Zm6,12.18-1.64-1.76.68-.63a3.07,3.07,0,0,1-1.33-.24,3.55,3.55,0,0,1-1.1-.84,3.82,3.82,0,0,1-.76-1.16,2.71,2.71,0,0,1-.24-1.22,3.57,3.57,0,0,1,.79-1.93c.2-.26.43-.51.67-.77s.55-.55.9-.87a14,14,0,0,1,2-1.58,3,3,0,0,1,1.76-.52,2.85,2.85,0,0,1,1.19.33,3.76,3.76,0,0,1,1.1.82,4,4,0,0,1,.76,1.15,2.85,2.85,0,0,1,.16,1.29l3.28-3.07,1.68,1.81-9.86,9.19Zm1.93-5.17a10.17,10.17,0,0,1-.89.75,2.73,2.73,0,0,1-.78.42,1.39,1.39,0,0,1-1.55-.47,1.57,1.57,0,0,1-.44-.77,1.24,1.24,0,0,1,.08-.78,2.67,2.67,0,0,1,.48-.76,10.39,10.39,0,0,1,.82-.84,10.16,10.16,0,0,1,.9-.76,2.49,2.49,0,0,1,.78-.42,1.27,1.27,0,0,1,.77,0,1.6,1.6,0,0,1,.75.49,1.42,1.42,0,0,1,.36,1.58,2.58,2.58,0,0,1-.46.74,8.93,8.93,0,0,1-.82.84Zm9.94,9.15a15.14,15.14,0,0,0,1.52-2,2.89,2.89,0,0,0,.08-3,4,4,0,0,0-.87-1.07,3.67,3.67,0,0,0-1.16-.7,2.74,2.74,0,0,0-1.29-.12l2.95-3.39-1.86-1.61-8.85,10.17,1.8,1.57.61-.7A3,3,0,0,0,171,329a3.55,3.55,0,0,0,.88,1.08,3.87,3.87,0,0,0,1.18.71,3,3,0,0,0,1.22.2,3.47,3.47,0,0,0,1.9-.86,7,7,0,0,0,.75-.7c.25-.26.52-.57.84-.93Zm-1.86-1.62a10.72,10.72,0,0,0,.73-.92,2.81,2.81,0,0,0,.39-.8,1.26,1.26,0,0,0,0-.77,1.63,1.63,0,0,0-.52-.73,1.59,1.59,0,0,0-.79-.41,1.29,1.29,0,0,0-.77.1,2.88,2.88,0,0,0-.73.5,8.52,8.52,0,0,0-.82.85,10.41,10.41,0,0,0-.72.92,2.77,2.77,0,0,0-.4.81,1.3,1.3,0,0,0,0,.78,1.69,1.69,0,0,0,.52.73,1.72,1.72,0,0,0,.79.41,1.28,1.28,0,0,0,.77-.11,2.63,2.63,0,0,0,.75-.51,9.87,9.87,0,0,0,.81-.85Zm6.51,11.67-1.89-1.48.52-.67a3.26,3.26,0,0,1-1.27-.08,3.56,3.56,0,0,1-1.22-.67,3.4,3.4,0,0,1-1.45-2.24,3.08,3.08,0,0,1,.72-2.25,2.7,2.7,0,0,1,1.95-1.08,3.51,3.51,0,0,1,2.47.91l1.84,1.43.3-.39a1.46,1.46,0,0,0,.39-1.19,2.09,2.09,0,0,0-.88-1.16,2.7,2.7,0,0,0-1-.53,2.54,2.54,0,0,0-1,0l-.29-2.17a3.87,3.87,0,0,1,1.84.07,6.29,6.29,0,0,1,1.81,1q3.3,2.6,1.16,5.34l-4,5.12Zm.3-4.38.33-.42-1.54-1.2c-.72-.57-1.32-.56-1.78,0a1,1,0,0,0-.22.87,1.62,1.62,0,0,0,.64.9,3.58,3.58,0,0,0,.78.48,1.61,1.61,0,0,0,.74.1,1.7,1.7,0,0,0,1.05-.76Zm8.86,9-.5-2.29a2.81,2.81,0,0,1-1,.09,1.84,1.84,0,0,1-.79-.3,1.72,1.72,0,0,1-.83-1.31,4.67,4.67,0,0,1,2.38-3.67,1.75,1.75,0,0,1,1.53.23,1.72,1.72,0,0,1,.6.6,2.77,2.77,0,0,1,.31.91l2.31-.49a4.33,4.33,0,0,0-.66-1.62,4.83,4.83,0,0,0-1.35-1.26,5.05,5.05,0,0,0-1.46-.66,3.85,3.85,0,0,0-3.35.67,7.68,7.68,0,0,0-2.63,4.05,4.1,4.1,0,0,0,0,1.88,4,4,0,0,0,.74,1.46,5,5,0,0,0,1.19,1.06,4.31,4.31,0,0,0,3.46.65Zm8.32,6.57-2.11-1.27,3.1-5.16a1.72,1.72,0,0,0,.28-1.38,1.67,1.67,0,0,0-.76-.94,1.63,1.63,0,0,0-1.19-.22,1.7,1.7,0,0,0-1.07.89L195,346.86l-2.11-1.26L199.88,334l2.11,1.27-2.33,3.88a3.19,3.19,0,0,1,2.55.34,3,3,0,0,1,1.58,2.1,3.86,3.86,0,0,1-.6,2.68l-3.29,5.47Zm11.9,1.2.49-1a5,5,0,0,0,.46-3.55,4.39,4.39,0,0,0-5.65-2.75,5.37,5.37,0,0,0-2.68,2.82,7.16,7.16,0,0,0-.74,2.35,3.79,3.79,0,0,0,.22,1.85,3.66,3.66,0,0,0,.94,1.36,6.24,6.24,0,0,0,1.46,1,5.21,5.21,0,0,0,2,.59,5.57,5.57,0,0,0,2-.34l-.7-2a3.44,3.44,0,0,1-1.19.21,3.09,3.09,0,0,1-1.23-.36,2.06,2.06,0,0,1-1.15-1.23,2.21,2.21,0,0,1,.18-1.69L211.8,351Zm-1.44-2.58L207,346.76a3.48,3.48,0,0,1,.31-.47,3.2,3.2,0,0,1,.36-.39,1.73,1.73,0,0,1,.9-.39,2,2,0,0,1,1.83.89,1.66,1.66,0,0,1,.23,1,2,2,0,0,1-.07.52,3.14,3.14,0,0,1-.19.53Zm12.31,2.13-2.46,1a2,2,0,0,0-.36-.66,1.63,1.63,0,0,0-.6-.41,1.51,1.51,0,0,0-1.2,0,1.83,1.83,0,0,0-1,1l-2.42,5.43-2.25-1,4-9,2.19,1-.38.86a2.9,2.9,0,0,1,1.27-.26,3.69,3.69,0,0,1,2.52,1,2.75,2.75,0,0,1,.66,1.08Zm11.3,13.6,4.39-12.75-2.48-.86-1.8,5.21-4.31-1.49,1.79-5.21-2.49-.85-4.39,12.74,2.49.86,1.84-5.33,4.31,1.48-1.83,5.34,2.48.86Zm12.24-1.55a9.57,9.57,0,0,1-.9,2.13,3.62,3.62,0,0,1-1.3,1.22,4,4,0,0,1-1.47.46,4.55,4.55,0,0,1-1.82-.2,4.28,4.28,0,0,1-1.6-.85,4.16,4.16,0,0,1-1-1.2,3.52,3.52,0,0,1-.39-1.74,8.94,8.94,0,0,1,.45-2.26,9.05,9.05,0,0,1,.89-2.12,3.55,3.55,0,0,1,1.3-1.22,3.85,3.85,0,0,1,1.47-.47,4.51,4.51,0,0,1,1.8.21,4.4,4.4,0,0,1,1.61.85,3.85,3.85,0,0,1,1,1.2,3.43,3.43,0,0,1,.4,1.74,9.25,9.25,0,0,1-.44,2.25Zm-2.36-.72a7.74,7.74,0,0,0,.33-1.45,1.54,1.54,0,0,0-1.15-1.75,1.55,1.55,0,0,0-1.22.08,1.8,1.8,0,0,0-.7.74,8.28,8.28,0,0,0-.54,1.38,8.38,8.38,0,0,0-.32,1.44,1.87,1.87,0,0,0,.16,1,1.6,1.6,0,0,0,1,.75,1.57,1.57,0,0,0,1.23-.08,1.74,1.74,0,0,0,.72-.75,8.37,8.37,0,0,0,.53-1.38Zm11,6.33-1.28-2a2.85,2.85,0,0,1-.87.42,1.87,1.87,0,0,1-.85,0,1.74,1.74,0,0,1-1.24-.92,3.56,3.56,0,0,1-.08-2.27,3.47,3.47,0,0,1,1-2,1.73,1.73,0,0,1,1.51-.34,1.76,1.76,0,0,1,.77.35,2.66,2.66,0,0,1,.62.74l2-1.29a4.22,4.22,0,0,0-1.2-1.28,4.87,4.87,0,0,0-1.71-.69,5.39,5.39,0,0,0-1.6-.09,3.88,3.88,0,0,0-2.89,1.82,7.69,7.69,0,0,0-1,4.72,4.07,4.07,0,0,0,.68,1.75,3.82,3.82,0,0,0,1.21,1.1,5.05,5.05,0,0,0,1.5.57,4.31,4.31,0,0,0,3.46-.63Zm10.92,3.11L263,364.84l4.16-3.3-2.93-.52-3.93,3.41,1.33-7.54-2.42-.43-2.34,13.28,2.42.43.51-2.89,1.23-1,1.67,4.46,3,.53Zm10.47-2.71.16-1.09a5,5,0,0,0-.66-3.52,4,4,0,0,0-2.94-1.74,4,4,0,0,0-3.28.87,5.41,5.41,0,0,0-1.68,3.52,6.92,6.92,0,0,0,0,2.46,4.07,4.07,0,0,0,.78,1.69,3.88,3.88,0,0,0,1.31,1,6,6,0,0,0,1.7.49,5.32,5.32,0,0,0,2.14-.07,5.48,5.48,0,0,0,1.79-.95l-1.28-1.65a3.36,3.36,0,0,1-1.06.57,3.12,3.12,0,0,1-1.28,0,2.09,2.09,0,0,1-1.48-.82,2.25,2.25,0,0,1-.35-1.66l6.11.86Zm-2.16-2-3.71-.53a3,3,0,0,1,.14-.54,2.26,2.26,0,0,1,.23-.47,1.61,1.61,0,0,1,.73-.66,2,2,0,0,1,2,.29,1.64,1.64,0,0,1,.51.82,2.71,2.71,0,0,1,.09.52,3.72,3.72,0,0,1,0,.57Zm12.76-3.06-2.59-.18-2.39,5.94-1.61-6.22-2.59-.18,2.72,9.37-.5,1.18a1.42,1.42,0,0,1-.49.68,1.39,1.39,0,0,1-.8.13l-.56,0-.16,2.21,1,.07a3.87,3.87,0,0,0,1.19-.09,2.14,2.14,0,0,0,1-.52,3.55,3.55,0,0,0,.83-1.22l5-11.13Zm6.76,5.75.08-2.29-5.83-.21-.08,2.29,5.83.21Zm14.83,4.22-.17-9.86-2.46,0,.1,6a1.74,1.74,0,0,1-.46,1.37,1.64,1.64,0,0,1-1.15.45,1.67,1.67,0,0,1-1.16-.41,1.79,1.79,0,0,1-.5-1.36l-.11-6-2.46,0,.11,6.31a4.94,4.94,0,0,0,.25,1.55,3.08,3.08,0,0,0,.8,1.23,3.15,3.15,0,0,0,2.35.83,3.44,3.44,0,0,0,2.44-1.06l0,.91,2.4-.05Zm11.55-1-.66-6.27a5.05,5.05,0,0,0-.38-1.52,3.09,3.09,0,0,0-.92-1.17,3.16,3.16,0,0,0-2.4-.62,3.52,3.52,0,0,0-1.31.41,3.11,3.11,0,0,0-1,.87l-.1-.91-2.39.25,1,9.82,2.45-.26-.63-5.93a1.77,1.77,0,0,1,.34-1.41,1.71,1.71,0,0,1,1.12-.56,1.66,1.66,0,0,1,1.18.32,1.72,1.72,0,0,1,.62,1.3l.63,5.94,2.45-.26Zm10.72-1.42-1.88-13.35-2.44.34.63,4.44a2.9,2.9,0,0,0-1.15-.6,3.64,3.64,0,0,0-1.37,0,3.81,3.81,0,0,0-1.31.43,2.76,2.76,0,0,0-.95.79,3.05,3.05,0,0,0-.59,1.74,15.3,15.3,0,0,0,.17,2.51q.11.71.21,1.23c.07.35.15.68.24,1a3.61,3.61,0,0,0,1.13,1.75,2.83,2.83,0,0,0,1.14.5,4,4,0,0,0,1.38.05,3.6,3.6,0,0,0,1.32-.43,3.09,3.09,0,0,0,1-.95l.13.92,2.38-.33Zm-3.13-4.55a10.93,10.93,0,0,1,.11,1.16,2.65,2.65,0,0,1-.11.88,1.38,1.38,0,0,1-1.27,1,1.69,1.69,0,0,1-.89-.08,1.33,1.33,0,0,1-.59-.51,3.14,3.14,0,0,1-.35-.83c-.08-.32-.15-.71-.22-1.16a9.22,9.22,0,0,1-.1-1.17,2.7,2.7,0,0,1,.1-.88,1.31,1.31,0,0,1,.43-.65,1.61,1.61,0,0,1,.83-.32,1.39,1.39,0,0,1,1.5.61,2.54,2.54,0,0,1,.34.8,8.15,8.15,0,0,1,.22,1.15Zm16.51-9.27-.49-2.3-9.46,2,.49,2.3,3.44-.73,2.32,10.89,2.57-.55L340.61,358l3.44-.73Zm10.2,4.65-.29-1.06a5,5,0,0,0-2-3,4.38,4.38,0,0,0-6.06,1.63,5.47,5.47,0,0,0-.17,3.89,7.08,7.08,0,0,0,1,2.26,3.62,3.62,0,0,0,3,1.66,6.09,6.09,0,0,0,1.76-.21,5.1,5.1,0,0,0,1.93-.91,5.71,5.71,0,0,0,1.29-1.56l-1.83-1a3.23,3.23,0,0,1-.75.94,3.13,3.13,0,0,1-1.16.54,2.11,2.11,0,0,1-1.69-.18,2.23,2.23,0,0,1-1-1.38l6-1.6Zm-2.78-1-3.62,1a3.27,3.27,0,0,1-.08-.56,1.93,1.93,0,0,1,0-.53,1.61,1.61,0,0,1,.42-.88,1.84,1.84,0,0,1,.91-.53,1.91,1.91,0,0,1,1.06,0,1.69,1.69,0,0,1,.79.56,2.55,2.55,0,0,1,.29.44,4.88,4.88,0,0,1,.21.53Zm14.38,1.71-2.05-6a4.91,4.91,0,0,0-.72-1.39,3,3,0,0,0-1.15-.93,3.16,3.16,0,0,0-2.48-.07,3.82,3.82,0,0,0-1.19.69,3.27,3.27,0,0,0-.81,1.08l-.29-.86-2.28.79,3.22,9.33,2.32-.81-1.94-5.64a1.74,1.74,0,0,1,0-1.44,1.75,1.75,0,0,1,2.19-.75,1.7,1.7,0,0,1,.9,1.13l1.94,5.64,2.33-.8Zm10.61-3.92-2.3.89L372,354a1.71,1.71,0,0,0-.94-1.1,1.61,1.61,0,0,0-1.22,0,1.7,1.7,0,0,0-.94.82,1.79,1.79,0,0,0,0,1.45l2.14,5.57-2.3.88-3.53-9.21,2.24-.86.33.85a3.13,3.13,0,0,1,.77-1.11,3.51,3.51,0,0,1,1.16-.73,3.17,3.17,0,0,1,2.49,0,3.21,3.21,0,0,1,1.18.88,5.16,5.16,0,0,1,.76,1.38l2.26,5.88Zm.23-13.78a1.49,1.49,0,0,0-.85-.82,1.47,1.47,0,0,0-1.18,0,1.52,1.52,0,0,0-.82.85,1.43,1.43,0,0,0,0,1.18,1.48,1.48,0,0,0,.86.82,1.54,1.54,0,0,0,1.19,0,1.49,1.49,0,0,0,.81-.86,1.51,1.51,0,0,0,0-1.18Zm4.87,11.68-4-9-2.25,1,4,9,2.25-1Zm8.12-7.36a2.71,2.71,0,0,1,0,2.66,5,5,0,0,1-2.34,2.06,8.64,8.64,0,0,1-2.25.78,4.26,4.26,0,0,1-2.15-.21l.74-2.15a2.8,2.8,0,0,0,1.42.13,5.64,5.64,0,0,0,1.35-.45,2.73,2.73,0,0,0,1-.77.8.8,0,0,0,.13-.91.83.83,0,0,0-.5-.46,1.39,1.39,0,0,0-.84.1l-.71.26-.75.28a3.64,3.64,0,0,1-2.27.22,2.49,2.49,0,0,1-1.53-1.44,2.75,2.75,0,0,1,0-2.57,4.41,4.41,0,0,1,2.06-1.93,8.21,8.21,0,0,1,2.07-.71,3.75,3.75,0,0,1,1.83.1l-.69,2a2.3,2.3,0,0,0-1.11,0,5.14,5.14,0,0,0-1.24.44,1.67,1.67,0,0,0-.83.71.85.85,0,0,0,0,.76.82.82,0,0,0,.44.4,1.24,1.24,0,0,0,.86-.09l.73-.27.73-.27a3.35,3.35,0,0,1,2.36-.17,2.74,2.74,0,0,1,1.55,1.49Zm6.56-4.92-1.08-2L390,345l1.08,2,5.15-2.74Zm10.88-3.51a5.58,5.58,0,0,1-.76,1.88,5.12,5.12,0,0,1-1.53,1.46,5,5,0,0,1-3.86.74,4,4,0,0,1-2-1.1,17.86,17.86,0,0,1-2-2.69,19.22,19.22,0,0,1-1.64-2.94,3.87,3.87,0,0,1-.18-2.29,4.94,4.94,0,0,1,2.25-3.22,5.12,5.12,0,0,1,2-.81,5.86,5.86,0,0,1,2,.07l-.51,2.41a3.89,3.89,0,0,0-1.17-.1,2.31,2.31,0,0,0-1,.4,2.06,2.06,0,0,0-1,1.5,2,2,0,0,0,0,.59,3.18,3.18,0,0,0,.2.66c.11.25.27.55.47.91s.49.83.86,1.39.67,1,.92,1.34.46.61.64.81a3.32,3.32,0,0,0,.52.45,2.15,2.15,0,0,0,2.33-.09,2.35,2.35,0,0,0,.79-.78,4,4,0,0,0,.37-1.11l2.41.52Zm6.24-2.78-1.23-1.68-.76.55a.77.77,0,0,1-1.23-.2L404,328.17l-2,1.45,6.27,8.63a3,3,0,0,0,1.76,1.18,2.72,2.72,0,0,0,2.22-.59l1.14-.83Zm8.31-6.47-1.87,1.51-.57-.7a3.33,3.33,0,0,1-.39,1.29,3.43,3.43,0,0,1-.88,1.05,3.1,3.1,0,0,1-3.76.31,5.14,5.14,0,0,1-1.14-1.07l-4-4.9,1.91-1.55,3.76,4.64a1.73,1.73,0,0,0,1.23.75,1.6,1.6,0,0,0,1.16-.38,1.65,1.65,0,0,0,.64-1.07,1.77,1.77,0,0,0-.49-1.36l-3.75-4.64,1.91-1.55,6.21,7.67Zm5-11.3a15.27,15.27,0,0,0-1.86-1.69A2.91,2.91,0,0,0,423,318a3,3,0,0,0-1.21.26,3.89,3.89,0,0,0-1.14.77,3.71,3.71,0,0,0-.8,1.09,2.81,2.81,0,0,0-.23,1.28l-3.12-3.23-1.77,1.71,9.37,9.7,1.71-1.66-.64-.66a3.16,3.16,0,0,0,1.34-.18,3.65,3.65,0,0,0,1.15-.79,3.6,3.6,0,0,0,.81-1.11,2.66,2.66,0,0,0,.3-1.2,3.37,3.37,0,0,0-.68-2,8.13,8.13,0,0,0-.63-.82c-.24-.26-.52-.57-.86-.91ZM424.87,322a8.73,8.73,0,0,0-.86-.81,2.66,2.66,0,0,0-.76-.46,1.27,1.27,0,0,0-.77-.06,1.95,1.95,0,0,0-1.25,1.21,1.27,1.27,0,0,0,0,.77,2.8,2.8,0,0,0,.44.78,10.48,10.48,0,0,0,.77.88,10,10,0,0,0,.86.81,2.75,2.75,0,0,0,.77.47,1.36,1.36,0,0,0,.77.07,1.93,1.93,0,0,0,1.26-1.21,1.39,1.39,0,0,0,0-.78,3.31,3.31,0,0,0-.44-.79c-.21-.26-.46-.55-.78-.88Zm11.82-12-.84-.71a5,5,0,0,0-3.34-1.3,4.38,4.38,0,0,0-4,4.81,5.46,5.46,0,0,0,2.09,3.29,7.36,7.36,0,0,0,2.1,1.28,3.82,3.82,0,0,0,1.84.23,3.69,3.69,0,0,0,1.55-.58,6,6,0,0,0,1.32-1.18,5.26,5.26,0,0,0,1.07-1.85,5.66,5.66,0,0,0,.15-2l-2.08.21a3.51,3.51,0,0,1-.08,1.2,3.12,3.12,0,0,1-.65,1.11,2.1,2.1,0,0,1-1.48.82,2.26,2.26,0,0,1-1.59-.58l4-4.73Zm-2.85.77-2.41,2.88c-.15-.15-.28-.29-.38-.41a2.46,2.46,0,0,1-.28-.45,1.64,1.64,0,0,1-.17-1,1.83,1.83,0,0,1,.44-.95,1.86,1.86,0,0,1,.87-.61,1.69,1.69,0,0,1,1,0,2.51,2.51,0,0,1,.49.19,4.17,4.17,0,0,1,.47.31Zm8-3.74a1.67,1.67,0,0,0-2.3.46,1.65,1.65,0,0,0,1.68,2.54,1.58,1.58,0,0,0,1.05-.69,1.66,1.66,0,0,0,.26-1.25,1.64,1.64,0,0,0-.69-1.06Zm-3.53-16.67-1.42,2.36L443,299.5l-8.93-2.2-1.4,2.34,13.85,3.13,1-1.69-9.26-10.78Zm11.53,3.12a1.57,1.57,0,0,1,.81,1,1.62,1.62,0,0,1-.1,1.26,1.65,1.65,0,0,1-2.22.72,1.57,1.57,0,0,1-.82-1,1.6,1.6,0,0,1,.1-1.25,1.63,1.63,0,0,1,1-.83A1.54,1.54,0,0,1,449.8,293.42Z" transform="translate(-127.56 -127.12)"/></svg>