<?xml version="1.0" encoding="UTF-8" standalone="no"?>
<!DOCTYPE svg PUBLIC "-//W3C//DTD SVG 1.1//EN" "http://www.w3.org/Graphics/SVG/1.1/DTD/svg11.dtd">
<svg xmlns:dc="http://purl.org/dc/elements/1.1/" xmlns:cc="http://creativecommons.org/ns#" xmlns:rdf="http://www.w3.org/1999/02/22-rdf-syntax-ns#" xmlns:svg="http://www.w3.org/2000/svg" xmlns="http://www.w3.org/2000/svg" version="1.1" width="134.3" height="135.2" id="svg2985" xml:space="preserve"><metadata id="metadata2991"><rdf:RDF><cc:Work rdf:about=""><dc:format>image/svg+xml</dc:format><dc:type rdf:resource="http://purl.org/dc/dcmitype/StillImage"/><dc:title/></cc:Work></rdf:RDF></metadata><defs id="defs2989"><clipPath id="clipPath2999"><path d="m -14,856 623,0 0,-870 -623,0 0,870 z" id="path3001"/></clipPath><clipPath id="clipPath3005"><path d="M 0.03,842 595,842 595,0 0.03,0 l 0,842 z" id="path3007"/></clipPath><clipPath id="clipPath3015"><path d="m 496.6,828 71.3,0 0,-63.7 -71.3,0 0,63.7 z" id="path3017"/></clipPath><clipPath id="clipPath3021"><path d="m -14,856 623,0 0,-870 -623,0 0,870 z" id="path3023"/></clipPath><clipPath id="clipPath3027"><path d="M 0.03,842 595,842 595,0 0.03,0 l 0,842 z" id="path3029"/></clipPath><clipPath id="clipPath3135"><path d="m -14,856 623,0 0,-870 -623,0 0,870 z" id="path3137"/></clipPath><clipPath id="clipPath3141"><path d="M 0.03,842 595,842 595,0 0.03,0 l 0,842 z" id="path3143"/></clipPath><clipPath id="clipPath3151"><path d="m 0,692.1 595.3,0 0,-347.6 -595.3,0 0,347.6 z" id="path3153"/></clipPath><clipPath id="clipPath3157"><path d="m -14,856 623,0 0,-870 -623,0 0,870 z" id="path3159"/></clipPath><clipPath id="clipPath3163"><path d="M 0.03,842 595,842 595,0 0.03,0 l 0,842 z" id="path3165"/></clipPath><clipPath id="clipPath3171"><path d="m 0,344.5 595.3,0 0,347.6 -595.3,0 0,-347.6 z" id="path3173"/></clipPath><clipPath id="clipPath3179"><path d="m 0,692.1 595.3,0 0,-347.6 -595.3,0 0,347.6 z" id="path3181"/></clipPath><clipPath id="clipPath3185"><path d="m -14,856 623,0 0,-870 -623,0 0,870 z" id="path3187"/></clipPath><clipPath id="clipPath3191"><path d="M 0.03,842 595,842 595,0 0.03,0 l 0,842 z" id="path3193"/></clipPath><clipPath id="clipPath3203"><path d="m -14,856 623,0 0,-870 -623,0 0,870 z" id="path3205"/></clipPath><clipPath id="clipPath3209"><path d="M 0.03,842 595,842 595,0 0.03,0 l 0,842 z" id="path3211"/></clipPath><clipPath id="clipPath3319"><path d="m -14,856 623,0 0,-870 -623,0 0,870 z" id="path3321"/></clipPath><clipPath id="clipPath3325"><path d="M 0.03,842 595,842 595,0 0.03,0 l 0,842 z" id="path3327"/></clipPath><clipPath id="clipPath3387"><path d="m 173.2,332.4 69.6,0 4.8,0 3.8,0.1 4,0 7.4,-0.1 2.5,-0.2 0.8,-0.2 0.4,-0.1 0.7,-1 0.6,-1 1.1,-2.2 2.1,-3.6 1.1,-2 0.4,-0.9 0.2,-0.8 0.2,-4 0,-7.5 0,-24.3 47,0 0.6,0 0.3,0.1 0.1,0.2 0.2,0 0,6 0.2,11.8 0,5.9 0,8 0.2,4.5 0.2,0.9 0.4,0.9 0.9,1.8 2,3.5 0.9,2 0.5,1 0.4,0.4 0.3,0.3 0.5,0.3 0.6,0.1 1.6,0 3.1,-0.1 4.6,0 4.6,0 4.7,0 4.6,0 4.4,0 4.4,-0.1 4.3,0 4.3,0 4.4,0 4.3,0 4.3,0 4.3,-0.1 4.4,0 4.3,0 4.3,0 4.3,0 4.4,-0.1 4.3,0 4.4,0 4.3,0 0,-13.4 0.1,-22.4 0.1,-76 0,-18 0.1,-13.4 -0.1,-1 0.1,-1 0.2,-0.9 0.3,-0.4 0.3,-0.3 0.8,-0.6 0.4,-0.3 0.2,-0.4 0.3,-0.7 0.1,-0.9 -0.1,-1.7 -243.6,0 -4.5,0 -4.5,0 -1.9,-0.1 -1,0.1 -0.8,0.2 -1,0.6 -0.9,0.6 -1.9,1.6 -3.6,3.2 -12.4,10.4 -0.8,0.6 -0.3,0.4 -0.3,0.4 -0.2,1.1 0,1.9 0.1,1.7 0.1,0.6 0.1,0.1 0.1,0.1 0.5,0.1 0.5,0.1 1.2,0.1 2.3,-0.1 0.5,0.2 0.5,0.1 1.1,0 2.4,-0.1 0.9,0.3 1.1,0.1 2.2,-0.1 0.5,0.1 0.5,0.1 1.1,0.1 2.4,-0.1 0.9,0.3 1.1,0 2.2,-0.1 0.9,0.2 1.4,0.1 1.3,0 0.5,-0.1 0.1,-0.2 0.3,1 0.1,0.9 0,2.2 -0.1,4.2 0,18.6 0,4.4 0,4.4 0,4.4 0,4.4 0.1,8.8 0.1,22 0,4.4 0,4.4 0,4.5 0,4.4 0,4.4 0,21.7 -0.1,4.2 0,2.2 0.1,1 0.3,0.8" id="path3389"/></clipPath><clipPath id="clipPath3399"><path d="m -14,856 623,0 0,-870 -623,0 0,870 z" id="path3401"/></clipPath><clipPath id="clipPath3405"><path d="M 0.03,842 595,842 595,0 0.03,0 l 0,842 z" id="path3407"/></clipPath><clipPath id="clipPath3423"><path d="m 56.32,83.33 19.39,0 3.53,0 2.05,0 1.02,-0.14 0.38,-0.56 0.3,-0.6 0.6,-1.01 0.29,-0.54 0.18,-0.49 0,-1.11 0,-2.1 0,-6.75 13.1,0 0.17,0 0.1,0.1 0.1,0 0.1,6.62 0,2.23 0,1.23 0.16,0.5 0.26,0.52 0.56,0.97 0.25,0.55 0.15,0.28 0.19,0.21 0.3,0.1 0.45,0 0.85,0 5.2,0 4.8,0 4.9,0 4.8,0 4.8,0 0,-4.98 0,-4.99 0.1,-19.93 0,-5 0,-5 0,-0.55 0.1,-0.26 0.1,-0.19 0.2,-0.15 0.2,-0.2 0.1,-0.45 0,-0.49 -67.89,0 -2.49,0 -0.55,0 -0.49,0.1 -0.53,0.34 -0.53,0.43 -1,0.9 -3.47,2.89 -0.2,0.17 -0.16,0.21 -0.1,0.84 0,0.48 0.11,0.21 0.6,0.1 0.65,0 0.59,0.1 0.65,0 0.56,0.1 0.62,0 0.6,0.1 0.65,0 0.56,0.1 0.61,0 0.64,0.1 0.38,0 0.16,-0.1 0.1,0.53 0,0.59 0,1.17 0,5.18 0,4.92 0,9.8 0,4.93 0,6.03 0,1.19 0,0.62 0.1,0.49" id="path3425"/></clipPath><clipPath id="clipPath3429"><path d="m 56.31,83.32 19.36,0 c 0.86,0 6.32,0.12 6.59,-0.15 0.31,-0.3 0.47,-0.78 0.68,-1.16 0.3,-0.55 0.93,-1.45 1.06,-2.04 l 0,-1.1 0,-8.85 13.09,0 c 0.1,0 0.26,0 0.26,0.1 l 0.1,0 0.1,6.61 0,2.23 0,1.24 c 0.13,0.64 0.67,1.4 0.98,1.99 0.16,0.31 0.31,0.81 0.6,1.04 0.23,0.19 1.17,0.1 1.57,0.1 l 5.2,0 19.3,-0.1 0.1,-39.9 c 0,-0.36 -0.1,-0.8 0.2,-1.01 l 0.1,-0.1 0,-1.2 -70.65,0 c -0.1,0 -0.2,0 -0.28,0.1 -0.7,0.36 -1.44,1.15 -2.06,1.67 l -3.46,2.89 c -0.12,0.12 -0.3,0.23 -0.36,0.38 0,0.1 -0.1,0.35 -0.1,0.64 l 0,0.45 c 0,0.25 0.1,0.45 0.13,0.45 0.3,0.15 0.87,0.1 1.24,0.1 0.31,0.16 0.87,0.1 1.25,0.1 0.28,0.14 0.82,0.1 1.17,0.1 0.3,0.16 0.87,0.1 1.25,0.1 0.28,0.15 0.82,0.1 1.17,0.1 0.12,0.1 1.18,0.12 1.18,0 0.19,0.64 0.1,1.57 0.1,2.29 l 0,5.17 0.1,19.66 0,6.03 c 0,0.63 -0.13,1.77 0.1,2.29" id="path3431"/></clipPath><clipPath id="clipPath3441"><path d="m -14,856 623,0 0,-870 -623,0 0,870 z" id="path3443"/></clipPath><clipPath id="clipPath3447"><path d="M 0.03,842 595,842 595,0 0.03,0 l 0,842 z" id="path3449"/></clipPath><clipPath id="clipPath3479"><path d="m 460.6,237.2 1.5,0.1 0.8,-0.1 0.6,-0.3 0.2,-0.3 0.2,-0.4 0.5,-1.5 1,-4.2 1.6,-7.2 11.5,-48.7 -6.9,-0.9 -6.8,-0.9 -6.9,-0.8 -13.6,-1.8 -34.3,-4.4 -6.8,-0.9 -13.7,-1.7 -6.8,-0.9 -6.9,-0.9 -6.8,-0.9 -2,0.2 -2,0.4 -1.9,0.7 -1.9,0.8 -1.9,1 -1.8,1 -3.5,1.9 -4.1,2 -4.2,2 -4,2.1 -2,1.2 -2,1.2 -1,0.7 -0.5,0.4 -0.2,0.3 0,0.3 0.4,0 1.2,0.5 1.4,0.3 1.5,0.2 1.4,0.1 1.4,0.2 1.4,0.3 1.4,0.2 1.3,0.2 1.4,0.3 1.6,0.2 1.4,0.2 1.6,0.3 1.6,0.2 1.4,0.2 3.2,0.5 1.6,0.2 1.6,0.2 0.4,0.1 0.5,0.1 0.5,0.1 0.2,0.1 0,0.1 0.2,0 -0.3,3.3 -0.5,3.2 -1.2,6.4 -5.1,31.1 -0.4,2 -0.1,1.1 0,0.5 0.1,0.5 0.2,0.2 0.4,0.2 1,0.2 2,-0.1 0.8,0.2 0.9,0.1 1.8,0 2.4,0.3 2.6,0.1 0.9,0.2 1,0.1 2,0 0.8,0.2 1,0 1.9,0 0.9,0.2 1,0.1 2,-0.1 0.9,0.2 1,0.1 2,-0.1 0.8,0.3 1,0 1.9,0 0.8,0.2 0.9,0 2,0 0.6,0.2 0.7,0 1.4,0 0.7,0.2 0.8,0.1 1.7,0 0.8,0.2 0.9,0 1.8,0 0.5,0.2 0.7,0 1.3,0 0.7,0.2 0.9,0.1 1.8,-0.1 0.8,0.3 0.9,0 1.8,0 0.7,0.2 0.8,0 1.7,0 0.7,0.2 0.9,0.1 1.8,-0.1 0.8,0.2 0.9,0.1 1.8,0 0.7,0.2 0.8,0 1.7,0 0.7,0.2 0.9,0.1 1.8,-0.1 0.8,0.2 0.9,0.1 1.8,0 0.6,0.1 0.7,0.1 1.4,0 0.7,0.2 0.9,0 1.6,0 0.8,0.2 0.9,0.1 1.8,-0.1 0.7,0.2 0.9,0.1 1.8,0 0.8,0.2 0.9,0 1.8,0 0.7,0.2 0.8,0.1 1.7,-0.1 0.7,0.2 0.9,0.1 1.8,0 0.8,0.2 0.9,0 1.7,0 3.3,0.4" id="path3481"/></clipPath><clipPath id="clipPath3485"><path d="m 460.4,236.9 c 0.9,0 2.3,0.2 3,-0.3 0.9,-0.7 3,-11.6 3.5,-13.6 l 11.4,-48.5 -109.3,-14 c -5.3,-0.1 -10.7,3.7 -15,5.9 -5.4,2.8 -11.2,5.2 -16.3,8.5 -0.5,0.3 -1.7,1 -1.7,1.7 l 0.4,0 c 1.4,0.8 3.8,1.1 5.5,1.1 l 1.4,0.3 1.4,0.2 1.3,0.2 1.4,0.2 1.4,0.3 1.6,0.2 1.4,0.2 1.6,0.3 1.6,0.2 1.4,0.2 1.6,0.2 1.6,0.3 1.6,0.2 1.6,0.2 c 0.3,0.2 1.6,0.1 1.6,0.5 l 0.2,0 c -0.3,4.4 -1.2,8.6 -2,12.8 l -5.2,31.1 c -0.1,1.1 -0.7,2.8 -0.3,4 0.3,0.8 2.7,0.5 3.6,0.5 0.9,0.5 2.4,0.3 3.4,0.3 1.7,0.1 3.2,0.4 5.1,0.4 1,0.5 2.7,0.3 3.9,0.3 0.9,0.4 2.5,0.2 3.7,0.2 1,0.4 2.6,0.2 3.9,0.2 1,0.5 2.6,0.2 3.9,0.2 0.9,0.5 2.5,0.3 3.6,0.3 1,0.4 2.5,0.2 3.7,0.2 0.7,0.3 1.8,0.2 2.7,0.2 0.9,0.4 2.2,0.3 3.3,0.3 0.8,0.4 2.3,0.2 3.4,0.2 0.7,0.3 1.7,0.2 2.5,0.2 0.9,0.4 2.4,0.2 3.5,0.2 0.8,0.4 2.3,0.3 3.4,0.3 0.8,0.4 2.2,0.2 3.2,0.2 0.9,0.4 2.4,0.2 3.4,0.2 0.9,0.4 2.4,0.3 3.5,0.3 0.8,0.3 2.2,0.2 3.2,0.2 0.9,0.4 2.4,0.2 3.4,0.2 0.9,0.4 2.4,0.2 3.5,0.2 0.7,0.4 1.8,0.3 2.7,0.3 0.9,0.4 2.2,0.2 3.2,0.2 0.9,0.4 2.4,0.2 3.5,0.2 0.8,0.4 2.3,0.3 3.4,0.3 0.9,0.4 2.4,0.2 3.4,0.2 0.9,0.4 2.2,0.2 3.3,0.2 0.9,0.4 2.3,0.2 3.4,0.2 0.9,0.4 2.4,0.3 3.4,0.3 l 3.2,0.4" id="path3487"/></clipPath></defs><g transform="matrix(1.25,0,0,-1.25,-811.2,1098)" id="g2993"><g transform="translate(192.5,68.5)" id="g3493"><path d="m 467.4,778.4 19.8,19.8 c 12.7,12.7 33.4,12.7 46.1,0 l 19.6,-19.6 c 12.7,-12.7 12.7,-33.4 0,-46.1 l -19.8,-19.8 c -12.8,-12.7 -33.4,-12.7 -46.2,0 l -19.5,19.5 c -12.7,12.8 -12.7,33.5 0,46.2 z" id="path3215" style="fill:#000000;fill-opacity:1;fill-rule:nonzero;stroke:#000000;stroke-width:0.48;stroke-linecap:butt;stroke-linejoin:miter;stroke-miterlimit:3.864;stroke-opacity:1;stroke-dasharray:none"/><path d="m 555,808.7 c 0.1,0 0,0 0,-0.1 l -0.1,0.1 c 0,0 0.1,0 0.1,0" id="path3217" style="fill:#000000;fill-opacity:1;fill-rule:nonzero;stroke:none"/><path d="m 490.2,794 0,0 c -0.1,-0.1 -0.2,0.1 -0.1,0.1 0.1,0.1 0.1,0 0.1,-0.1" id="path3219" style="fill:#000000;fill-opacity:1;fill-rule:nonzero;stroke:none"/><path d="m 508.2,792.8 c 0.3,-0.2 0.4,-0.7 0.1,-0.9 l -1.2,-1.4 -0.4,0 c -1,0.4 -2,1.2 -3.3,0.7 -0.5,-0.3 -0.8,-0.8 -0.9,-1.3 0.3,-1.8 2.2,-2.7 3.5,-4 1.7,-1.4 3.6,-3.5 2.7,-5.9 -0.5,-1.3 -1.8,-2.3 -3.1,-2.6 -2,-0.4 -3.9,0.4 -5.5,1.4 -0.3,0.2 -0.7,0.5 -0.7,0.9 0.4,0.7 0.9,1.5 1.7,2 0.5,-0.2 1,-0.8 1.6,-1 0.7,-0.4 1.7,-0.6 2.3,0 0.3,0.3 0.5,0.8 0.4,1.3 -1.2,2 -3.3,2.8 -4.9,4.4 -1.1,1.3 -1.9,3.1 -1.2,4.8 0.9,1.8 2.8,3 4.8,2.9 1.6,0 2.9,-0.5 4.1,-1.3" id="path3221" style="fill:#ffffff;fill-opacity:1;fill-rule:nonzero;stroke:none"/><path d="m 520.6,792.7 c 2,-1.2 2.5,-3.4 2.3,-5.6 -0.2,-1.9 -2,-3.6 -3.8,-4.1 -0.8,-0.1 -1.7,-0.2 -2.6,-0.3 l -0.2,-0.3 0,-4.1 c 0,-0.4 0,-0.9 -0.5,-1 -0.8,0 -1.7,-0.1 -2.4,0.2 l -0.2,0.7 c 0.1,5.1 -0.1,10 0.1,15 0.1,0.5 0.6,0.4 0.9,0.5 2.2,-0.3 4.7,0.2 6.4,-1" id="path3223" style="fill:#ffffff;fill-opacity:1;fill-rule:nonzero;stroke:none"/><path d="m 475.2,791.3 -0.1,0 0,0.1 c 0.1,0 0.1,0 0.1,-0.1" id="path3225" style="fill:#000000;fill-opacity:1;fill-rule:nonzero;stroke:none"/><path d="m 519.7,789.5 c 0.4,-0.8 0.4,-2 -0.3,-2.7 -0.7,-0.9 -1.8,-1 -2.9,-0.9 l -0.2,0.3 c 0,1.5 -0.1,3 0.1,4.5 0.5,0.3 1,0.1 1.5,0 0.7,-0.1 1.4,-0.5 1.8,-1.2" id="path3227" style="fill:#000000;fill-opacity:1;fill-rule:nonzero;stroke:none"/><path d="m 559,789.3 0,0 0,-0.1 0,0.1" id="path3229" style="fill:#000000;fill-opacity:1;fill-rule:nonzero;stroke:none"/><path d="m 548.6,774.1 c -0.2,0 -0.4,0 -0.4,0.1 l 0.4,-0.1" id="path3231" style="fill:#000000;fill-opacity:1;fill-rule:nonzero;stroke:none"/><path d="m 486.1,771.3 c 1,-2.2 0.2,-4.8 -0.9,-6.7 -1,-1.7 -2.7,-3.4 -4.4,-4.5 l 0.1,-0.5 c 1.5,-2.3 3.3,-4.5 4.8,-6.9 -0.5,-0.8 -1.3,-1.6 -2.1,-2.3 -0.7,0.5 -1.1,1.4 -1.6,2 -1.4,1.9 -2.6,3.8 -4.1,5.7 -0.8,-0.1 -1.5,-0.7 -2.2,-1 l -0.2,-0.4 0,-6 c 0,-0.1 -0.2,-0.4 -0.4,-0.4 -0.8,0 -1.8,0.1 -2.6,0.4 0,0 -0.8,13 -0.8,15.2 0.3,1 1.1,1.8 1.7,2.6 1.6,1.9 3.5,4 5.8,5 1.5,0.5 3.5,0.8 5,-0.1 0.8,-0.5 1.6,-1.2 1.9,-2.1" id="path3233" style="fill:#ffffff;fill-opacity:1;fill-rule:nonzero;stroke:none"/><path d="m 535,771.8 c 1.3,-2.5 2.5,-5.1 3.7,-7.7 1.1,-2.6 2,-5.4 3,-8.1 0.1,-0.1 0.3,-0.2 0.4,0 1,3.7 1.9,7.4 3,11 0.2,0.2 0.1,0.6 0.5,0.8 l 0.2,-0.1 c 0.7,-1.3 2.8,-2.5 1.6,-4.1 -1.4,-4.6 -2.7,-9.2 -4,-13.8 l -0.2,-0.2 -2.1,-0.1 -0.2,0.3 c -1.1,3.2 -2.4,6.3 -3.6,9.5 -0.5,0.7 -0.4,1.7 -1.1,2.4 -1.2,2.6 -2.3,5.1 -3.7,7.6 l -1.6,3.4 c -0.1,0.1 0.1,0.3 0.3,0.3 1.3,-0.3 3.2,0.5 3.8,-1.2" id="path3235" style="fill:#ffffff;fill-opacity:1;fill-rule:nonzero;stroke:none"/><path d="m 495.7,772.3 c 0.1,-0.3 0,-0.8 0.4,-0.8 0.4,0 0.7,0.1 0.8,0.5 0,0.4 0.2,0.7 0.6,0.7 0.3,-0.1 0.6,-0.1 0.6,-0.5 l -0.1,-2.3 -0.3,-0.3 c -2,0.1 -3.8,0 -5.8,0.1 l -0.2,0.4 0.1,2.4 c 0.2,0.3 0.6,0.2 0.9,0.2 0.4,-0.4 0.4,-1.6 1.3,-1.1 0.4,0.3 0.1,1 0.6,1.1 0.4,0 1,0.2 1.1,-0.4" id="path3237" style="fill:#ffffff;fill-opacity:1;fill-rule:nonzero;stroke:none"/><path d="m 508.7,771.1 c 0.4,0 0.8,0 0.9,0.4 0.1,0.3 0,0.6 0.4,0.8 0.3,0 0.8,0 0.9,-0.4 0,-0.4 0.1,-0.9 0.5,-0.8 0.4,-0.1 0.7,0.2 0.7,0.5 0,0.3 0.1,0.6 0.3,0.6 0.4,0 1.1,0.1 1,-0.6 0,-0.7 0.1,-1.5 -0.2,-2.3 -2,-0.1 -4.1,-0.1 -6,0.2 -0.3,0.6 -0.1,1.4 -0.2,2.1 0,0.3 0.1,0.6 0.4,0.8 1.1,0.3 0.5,-1.2 1.3,-1.3" id="path3239" style="fill:#ffffff;fill-opacity:1;fill-rule:nonzero;stroke:none"/><path d="m 524.2,771.4 c 0,-0.2 0.2,-0.4 0.4,-0.5 0.4,0 0.7,0.3 0.8,0.6 0,0.2 0.1,0.3 0.3,0.4 0.3,0 0.9,-0.1 0.8,-0.5 -0.1,-0.8 0.2,-1.7 -0.2,-2.3 -1.8,-0.2 -3.7,0 -5.6,0 -0.5,0.6 -0.3,1.5 -0.3,2.3 0,0.2 0,0.6 0.3,0.6 0.4,0 0.7,0 0.8,-0.4 0,-0.2 0.2,-0.5 0.4,-0.6 0.4,0 0.8,0 0.8,0.4 0,0.2 0.2,0.5 0.4,0.6 0.5,0.1 1.1,-0.1 1.1,-0.6" id="path3241" style="fill:#ffffff;fill-opacity:1;fill-rule:nonzero;stroke:none"/><path d="m 482.9,770.2 c 0.9,-1 0.3,-2.5 0,-3.6 -1.1,-2.4 -3.6,-3.8 -5.7,-5.1 -0.5,-0.2 -1,-0.8 -1.6,-0.6 l -0.3,0.3 c -0.1,1.6 -0.2,3.2 0,4.8 1.7,1.9 3.6,4.5 6.2,4.6 0.6,0 1,-0.2 1.4,-0.4" id="path3243" style="fill:#000000;fill-opacity:1;fill-rule:nonzero;stroke:none"/><path d="m 497.2,768.7 c 0.4,-1.1 0.1,-2.3 0.2,-3.5 0,-0.4 -0.4,-0.5 -0.6,-0.7 -0.2,-1.5 -0.1,-3.2 -0.3,-4.9 -0.1,-0.4 -0.8,-0.2 -1.2,-0.3 l -2.9,0.2 -0.2,0.3 0.2,8.4 c 0,0.4 0.1,0.8 0.5,0.8 1.5,-0.1 3,0.1 4.3,-0.3" id="path3245" style="fill:#ffffff;fill-opacity:1;fill-rule:nonzero;stroke:none"/><path d="m 512.6,768.4 0.2,-0.3 c 0,-3.1 0,-6 -0.4,-9 -0.2,-0.3 -0.7,-0.3 -1.1,-0.2 -0.4,0.3 -0.2,1 -0.3,1.5 0,0.7 0.2,1.6 -0.5,2 -0.4,0.1 -0.9,0.1 -1.3,-0.2 -0.4,-1 0,-2.3 -0.6,-3.2 -0.3,-0.1 -0.7,-0.1 -0.9,0.1 l -0.2,0.4 c 0,2.2 -0.1,4.6 0.1,6.8 l -0.1,0.3 c 0.3,0.6 -0.1,1.6 0.6,2 1.5,-0.1 3.1,0 4.5,-0.2" id="path3247" style="fill:#ffffff;fill-opacity:1;fill-rule:nonzero;stroke:none"/><path d="m 525.8,767.9 0.2,-0.3 c 0,-2.9 -0.1,-5.9 -0.2,-8.7 -0.1,-0.3 -0.4,-0.4 -0.6,-0.4 -1.1,0 -2.2,0 -3.3,0.2 l -0.1,0.3 c -0.1,1.6 0,3.2 0,4.9 -0.1,0.4 -0.8,0.2 -0.9,0.7 0,1.1 0,2.3 0.2,3.4 0.1,0.2 0.4,0.1 0.5,0.2 1.4,-0.1 2.9,0.1 4.2,-0.3" id="path3249" style="fill:#ffffff;fill-opacity:1;fill-rule:nonzero;stroke:none"/><path d="m 495.3,767.5 c -0.1,-0.3 0,-0.7 -0.4,-0.7 -0.3,-0.1 -0.7,0 -0.7,0.3 0,0.4 0,0.8 0.3,0.8 0.3,0 0.8,0 0.8,-0.4" id="path3251" style="fill:#000000;fill-opacity:1;fill-rule:nonzero;stroke:none"/><path d="m 510.9,767.1 c 0,-0.3 0.1,-0.8 -0.4,-0.9 -0.3,0 -0.8,0 -0.8,0.5 0.1,0.3 -0.1,0.7 0.2,0.9 0.4,0 1,0.1 1,-0.5" id="path3253" style="fill:#000000;fill-opacity:1;fill-rule:nonzero;stroke:none"/><path d="m 524,766.8 c -0.1,-0.3 0,-0.8 -0.4,-0.8 -0.4,0 -0.7,0 -0.8,0.4 -0.1,0.3 -0.1,0.8 0.3,0.9 0.4,0 0.9,0 0.9,-0.5" id="path3255" style="fill:#000000;fill-opacity:1;fill-rule:nonzero;stroke:none"/><path d="m 499.4,763.4 c 0,-0.2 0.2,-0.5 0.5,-0.5 0.4,0.1 1.1,-0.2 1.1,0.4 0,0.3 0.1,0.7 0.5,0.7 0.5,-0.1 1.2,0.2 1.6,-0.4 0,-0.3 0.1,-0.7 0.5,-0.8 0.4,0.1 0.9,-0.2 1.1,0.3 0.1,0.3 0.2,0.8 0.6,0.7 0.6,0 1.4,0.4 1.7,-0.4 -0.1,-1.4 0,-2.7 -0.3,-4.1 l -0.3,-0.3 -8.6,0.2 c -0.1,0.1 -0.5,0.2 -0.5,0.4 l 0,3.2 c 0.2,0.4 0,1.3 0.7,1.3 0.6,-0.1 1.4,0.1 1.4,-0.7" id="path3257" style="fill:#ffffff;fill-opacity:1;fill-rule:nonzero;stroke:none"/><path d="m 518.3,763.3 c 0.1,-0.2 0.1,-0.7 0.5,-0.7 0.3,0 0.8,-0.1 0.9,0.3 0.1,0.2 0.1,0.7 0.5,0.7 0.4,0 0.8,0 0.9,-0.4 0.2,-1.4 0.1,-2.8 -0.1,-4.2 -0.1,-0.3 -0.4,-0.4 -0.7,-0.4 l -6.8,0.2 c -0.2,0.1 -0.3,0.3 -0.3,0.5 0,1.4 -0.2,2.9 0.2,4.2 0.4,0.1 0.9,0.3 1.3,0.1 0.4,-0.3 0.1,-1 0.8,-1 0.4,-0.1 0.9,0 1,0.5 0,0.3 0.3,0.6 0.6,0.6 0.4,-0.1 1,0.1 1.2,-0.4" id="path3259" style="fill:#ffffff;fill-opacity:1;fill-rule:nonzero;stroke:none"/><path d="m 500.8,758.1 c 4.1,-0.3 8.2,-0.1 12.3,-0.4 1.3,0 2.5,0.2 3.8,-0.2 3.2,0.1 6.4,-0.2 9.7,-0.2 l 0.4,-0.1 c 0.6,-0.7 1.3,-1.3 1.7,-2 l -0.3,-0.2 c -3.6,0 -7.1,0.2 -10.7,0.2 -4.8,0 -9.8,0.3 -14.7,0.4 -4.1,-0.1 -8.3,0.2 -12.4,0.4 -0.3,0.1 -0.2,0.4 -0.1,0.6 0.5,0.5 0.8,1.4 1.5,1.7 2.8,-0.1 5.8,-0.1 8.8,-0.2" id="path3261" style="fill:#ffffff;fill-opacity:1;fill-rule:nonzero;stroke:none"/><path d="m 498.4,754.7 c 2.2,-0.1 4.6,0 6.9,-0.2 1.2,0.1 2.4,-0.1 3.6,-0.1 0.2,-0.1 0.5,-0.2 0.5,-0.5 0,-0.4 0.1,-0.9 -0.1,-1.3 l -0.4,-0.3 c -5.8,0 -11.3,0.1 -17.1,0.3 -0.6,0.5 -0.9,1.2 -1.1,1.9 -0.1,0.2 0.2,0.2 0.3,0.3 1.8,0 3.5,-0.1 5.3,-0.1 l 2.1,0" id="path3263" style="fill:#ffffff;fill-opacity:1;fill-rule:nonzero;stroke:none"/><path d="m 516.6,754.2 c 0.3,0 0.1,-5.4 0.1,-5.4 l -6.5,0 0,5.4 6.4,0" id="path3265" style="fill:#ffffff;fill-opacity:1;fill-rule:nonzero;stroke:none"/><path d="m 528.8,754.2 c 0.2,-0.1 -0.6,-3.1 -2.5,-5.4 l -5.2,0 -0.1,5.4 7.8,0" id="path3267" style="fill:#ffffff;fill-opacity:1;fill-rule:nonzero;stroke:none"/><path d="m 506.6,750.8 c 0.8,0 1.8,-0.1 2.6,-0.3 0.3,-0.3 0.1,-0.8 0,-1.2 l -0.3,-0.2 c -4.8,-0.1 -9.8,0.1 -14.5,0.1 -0.5,0.2 -1.5,-0.3 -1.6,0.6 -0.1,0.3 -0.5,1 0.1,1.2 l 0.7,0 13,-0.2" id="path3269" style="fill:#ffffff;fill-opacity:1;fill-rule:nonzero;stroke:none"/><path d="m 510.8,750 c 0,0 0,-0.1 -0.1,0 l 0.1,0 0,0" id="path3271" style="fill:#000000;fill-opacity:1;fill-rule:nonzero;stroke:none"/><path d="m 503.8,747.6 c 1.7,0.1 3.4,-0.2 5,-0.1 0.3,0 0.5,-0.4 0.5,-0.6 0,-0.3 0.1,-0.8 -0.4,-0.9 -5.1,0 -10.4,0.2 -15.4,0.3 -0.3,0.3 -0.3,1 -0.2,1.3 l 0.8,0.2 c 3.2,-0.1 6.4,-0.2 9.7,-0.2" id="path3273" style="fill:#ffffff;fill-opacity:1;fill-rule:nonzero;stroke:none"/><path d="m 488,745.2 0,-1.3 -2.1,0 0,-1 2.1,0 0,-1 -2.1,0 0,-1.2 2.1,0 0,-1.4 -3.9,0 0,5.9 3.9,0" id="path3275" style="fill:#ffffff;fill-opacity:1;fill-rule:nonzero;stroke:none"/><path d="m 535.5,744.7 -1.9,-5.5 -1.3,-0.2 -2.3,5.7 1.3,0 1.5,-3.1 1.1,3.1 1.6,0" id="path3277" style="fill:#ffffff;fill-opacity:1;fill-rule:nonzero;stroke:none"/><path d="m 495.2,744.6 c 3.8,-0.1 7.7,-0.2 11.7,-0.2 l 2,-0.1 c 0.5,-0.2 0.2,-0.8 0.2,-1.2 l -0.2,-0.2 c -1.8,-0.1 -3.7,0.1 -5.5,0 -3.3,0.1 -6.8,0.1 -10,0.2 -0.2,0 -0.4,0.1 -0.4,0.3 0,0.4 0,0.8 0.3,1.1 0.7,0.2 1.2,-0.2 1.9,0.1" id="path3279" style="fill:#ffffff;fill-opacity:1;fill-rule:nonzero;stroke:none"/><path d="m 510.2,744.4 6.4,0 0,-7 -6.4,0 0,7 z" id="path3281" style="fill:#ffffff;fill-opacity:1;fill-rule:nonzero;stroke:none"/><path d="m 525.9,744.4 1.5,-6.9 -6.3,0 0,6.9 4.8,0" id="path3283" style="fill:#ffffff;fill-opacity:1;fill-rule:nonzero;stroke:none"/><path d="m 507.3,741.2 c 0.7,0 1.5,0.2 1.8,-0.5 0,-0.3 0.2,-0.8 -0.3,-0.9 -5.2,0 -10.6,0 -15.8,0.2 -0.6,0 -0.3,0.6 -0.4,1 0,0.2 0.3,0.5 0.5,0.4 4.8,0 9.5,-0.2 14.2,-0.2" id="path3285" style="fill:#ffffff;fill-opacity:1;fill-rule:nonzero;stroke:none"/><path d="m 498.8,738.2 0,-6.7 -7.7,0 1.2,6.7 6.5,0" id="path3287" style="fill:#ffffff;fill-opacity:1;fill-rule:nonzero;stroke:none"/><path d="m 502.9,738.2 6.2,0 0,-6.7 -6.2,0 0,6.7 z" id="path3289" style="fill:#ffffff;fill-opacity:1;fill-rule:nonzero;stroke:none"/><path d="m 520.8,735.4 c 2.2,-0.2 4.5,0 6.7,-0.2 0.4,-0.3 0.4,-0.9 0.4,-1.4 l -0.2,-0.2 c -3.5,-0.1 -7.1,0.1 -10.6,0.1 -2.2,0.1 -4.5,0 -6.8,0.2 -0.3,0.4 -0.3,1 -0.1,1.4 0.3,0.4 1,0 1.5,0.3 l 9.1,-0.2" id="path3291" style="fill:#ffffff;fill-opacity:1;fill-rule:nonzero;stroke:none"/><path d="m 527.8,731.5 c 0.3,-0.2 0.2,-0.8 0.1,-1.1 l -0.3,-0.1 c -3.6,-0.1 -7.2,0.1 -10.7,0.1 -0.2,-0.4 -0.5,0.1 -0.8,0 -1.9,0.1 -3.9,-0.1 -5.8,0.2 -0.4,0.1 -0.3,0.6 -0.3,1 0.2,0.7 1.1,0.3 1.7,0.4 5.3,-0.3 10.6,-0.1 16.1,-0.5" id="path3293" style="fill:#ffffff;fill-opacity:1;fill-rule:nonzero;stroke:none"/><path d="m 518.5,728.7 c 3,-0.1 5.9,-0.2 8.8,-0.3 0.2,-0.2 0.1,-0.7 -0.1,-0.9 -0.4,-0.4 -1,-0.4 -1.6,-0.4 -3,0 -5.9,0.1 -8.8,0.2 -2.1,0 -4.1,0 -6.1,0.1 -0.3,0.2 -0.3,0.6 -0.4,0.9 0.2,0.6 0.9,0.3 1.3,0.4 l 6.9,0" id="path3295" style="fill:#ffffff;fill-opacity:1;fill-rule:nonzero;stroke:none"/><path d="m 498.8,727.3 0,-8.7 c 0,0 -4.6,3.4 -6.2,8.7 l 6.2,0" id="path3297" style="fill:#ffffff;fill-opacity:1;fill-rule:nonzero;stroke:none"/><path d="m 509.1,727.2 c 0.5,-0.5 -3.4,-7.2 -6.2,-8.4 l 0,8.5 6.2,-0.1" id="path3299" style="fill:#ffffff;fill-opacity:1;fill-rule:nonzero;stroke:none"/><path d="m 509.8,726.2 c 1.2,-3.1 3.3,-6.3 6.4,-8.2 0.1,-0.1 0.2,-0.2 0.1,-0.3 -2,-1.2 -4.1,-2.3 -5.6,-4.1 -0.2,-0.2 -0.4,-0.7 -0.8,-0.5 -1.8,2 -4,3.2 -6.1,4.7 l 0,0.2 c 2.8,2 4.3,5.2 5.6,8.2 0.1,0.1 0.3,0.2 0.4,0" id="path3301" style="fill:#ffffff;fill-opacity:1;fill-rule:nonzero;stroke:none"/><path d="m 525.3,725.4 c 0.3,0 0.9,0.1 1.1,-0.3 0,-0.4 -0.2,-0.8 -0.5,-1.2 l -0.5,-0.1 c -4.6,0.1 -8.8,0 -13.3,0.2 -0.5,0.4 -0.7,0.9 -0.8,1.5 0.2,0.2 0.4,0.1 0.6,0.2 4.3,-0.1 8.8,-0.2 13.4,-0.3" id="path3303" style="fill:#ffffff;fill-opacity:1;fill-rule:nonzero;stroke:none"/><path d="m 523.5,722 c 0.3,-0.1 0.1,-0.5 0,-0.6 -0.5,-0.5 -1,-0.8 -1.7,-0.8 -2.4,0 -5,0 -7.4,0.1 -0.4,0.4 -1.1,0.8 -1,1.4 l 0.4,0.1 c 3.3,-0.1 6.6,0.1 9.7,-0.2" id="path3305" style="fill:#ffffff;fill-opacity:1;fill-rule:nonzero;stroke:none"/><path d="m 511,721.2 c 0.5,-0.3 -0.5,-1 0.3,-1.2 0.4,0 0.8,0.7 1,0.1 0.1,-0.8 0.1,-1.7 -0.1,-2.5 -0.4,-0.4 -0.9,0.6 -1.2,-0.1 0,-0.3 0.3,-0.6 0.2,-0.9 -0.9,-0.2 -1.8,-0.2 -2.7,-0.1 -0.4,0.4 0.4,1.1 -0.2,1.4 -0.4,0 -0.9,-0.7 -1.2,-0.2 -0.1,0.9 0,1.8 0.1,2.5 0.5,0.4 0.9,-0.6 1.4,0 0.1,0.4 -0.3,0.7 -0.1,1.1 0.8,0.1 1.7,-0.1 2.5,-0.1" id="path3307" style="fill:#000000;fill-opacity:1;fill-rule:nonzero;stroke:none"/><path d="m 531.4,719.8 c 0.1,0 -0.1,0 -0.1,0 0,0 0.1,0 0.1,0" id="path3309" style="fill:#000000;fill-opacity:1;fill-rule:nonzero;stroke:none"/><path d="m 518.8,718.7 c -0.2,-0.4 -0.7,-0.3 -1.1,-0.4 -0.3,0.1 -0.5,0.2 -0.7,0.4 l 0.2,0.2 c 0.6,-0.1 1.1,0 1.6,-0.2" id="path3311" style="fill:#ffffff;fill-opacity:1;fill-rule:nonzero;stroke:none"/><path d="m 472.3,774.2 19.3,19.3 c 10.3,10.4 27,10.4 37.3,0 l 19.8,-19.7 c 10.3,-10.3 10.3,-27 0,-37.4 l -19.3,-19.3 c -10.4,-10.3 -27.1,-10.3 -37.4,0 l -19.7,19.8 c -10.3,10.3 -10.3,27 0,37.3 z" id="path3313" style="fill:none;stroke:#ffffff;stroke-width:2.88;stroke-linecap:butt;stroke-linejoin:miter;stroke-miterlimit:3.864;stroke-opacity:1;stroke-dasharray:none"/></g></g></svg>
