<?xml version="1.0" encoding="UTF-8" standalone="no"?>
<!DOCTYPE svg PUBLIC "-//W3C//DTD SVG 1.1//EN" "http://www.w3.org/Graphics/SVG/1.1/DTD/svg11.dtd">
<svg width="158px" height="200px" viewBox="0 0 158 200" version="1.1" xmlns="http://www.w3.org/2000/svg" xmlns:xlink="http://www.w3.org/1999/xlink">
    <g id="WHV" stroke="none" stroke-width="1" fill="none" fill-rule="evenodd">
        <g id="374-UHCM" transform="translate(-21.000000, 0.000000)" fill="#007A3D">
            <path d="M117.678019,5.18212944 C121.679455,-1.40909137 117.959838,-0.249190051 114.339704,5.55223584 C111.781588,9.65315556 108.732768,13.5717411 106.175931,17.3969203 C103.913068,20.799852 107.262899,6.00263326 108.031581,3.70138393 C108.437515,2.48326363 108.342509,0 106.547317,0 C100.767643,0 104.547079,19.6674608 100.238874,21.0986242 C96.9047176,22.2047849 97.7987949,2.11283734 94.3030967,0.370106405 C91.6909196,-0.932783299 93.4192558,3.1767733 93.5596851,3.70138393 C99.5610388,26.1508805 93.1678265,16.9685949 82.0559975,1.85085191 C81.0979433,0.547962205 74.9823908,-0.763244496 77.2321387,1.4807455 C86.4723234,10.6978984 94.7586123,20.1280945 100.198569,31.634661 C100.929505,33.180663 109.546235,18.5776141 117.678019,5.18212944 Z M91.7040349,29.6120311 C91.5389745,29.5726853 94.5238171,27.7307902 93.5596851,25.9106472 C92.3130951,23.5614152 90.5777215,19.4227491 87.9930544,18.137453 C85.2977074,16.799376 82.9868615,25.3566072 84.6550593,27.0209664 C86.7925278,29.1529968 88.8084401,29.1997 91.7040349,29.6120311 Z M112.484374,29.6120311 C120.579372,29.6120311 115.845721,12.544272 110.629044,19.9879851 C107.309922,24.7216364 103.555117,29.6120311 112.484374,29.6120311 Z M97.6414117,189.515272 C97.6414117,189.356609 100.398177,185.971271 100.60994,185.443781 C101.907072,182.199832 100.341237,180.18296 98.3835438,177.670587 C97.5886308,176.647597 92.8025184,182.274365 97.6414117,189.515272 Z M121.879383,52.7479999 C123.730554,45.2646211 135.906,41.5238914 133.635459,23.3195825 C132.720909,15.9907079 120.664141,0.320524302 116.566101,12.5852172 C131.661772,23.8774611 118.962036,38.9750514 103.949535,35.164267 C101.788715,37.3196489 104.009993,40.0847308 104.320601,42.5673547 C105.15486,49.2363075 97.9756911,50.8840327 96.8989597,44.0477803 C96.8989597,40.5751138 99.6573241,38.8173483 98.0121579,35.5343734 C86.1569172,35.5343734 77.9742709,37.0880525 77.9742709,21.0986242 C77.9742709,14.9472446 88.5582904,12.2048745 76.364292,6.66255506 C55.7394168,16.4459036 68.8614003,45.6004999 77.6032048,57.3732103 C78.264726,58.2644086 84.6064369,63.7859356 82.2875939,63.804169 C70.7890245,63.8934168 61.506935,68.0717485 57.5170152,80.5539629 C48.0001304,110.327856 74.0572847,133.999311 82.0559975,160.643453 C84.4033102,168.462391 88.3014231,162.825386 88.3644404,164.715584 C88.7223912,175.191482 75.1196213,179.385808 79.7595464,191.090703 C80.6958485,193.45433 82.5863661,200.399663 86.6930437,199.101571 C94.8142722,194.592479 83.3211408,189.190589 85.024526,183.222823 C85.4762029,181.640354 90.7587761,169.694906 92.8172331,171.748245 C92.1640289,175.008188 87.3475274,182.392403 88.3644404,185.443781 C88.7441433,186.581611 96.1568276,203.333324 96.1568276,193.957188 C94.6140245,190.87798 93.0715413,187.725838 92.075101,184.333462 C91.4234962,182.116982 95.704191,171.337193 98.7546099,172.858564 C100.61122,176.564427 104.320601,180.241179 104.320601,184.703249 C103.004276,187.001619 94.5148603,198.068025 102.093885,196.178147 C104.257903,191.860025 109.14446,187.923846 109.14446,182.852717 C108.307322,181.599409 101.96849,170.637606 105.062733,170.637606 C108.491575,174.057811 112.113308,180.471496 112.113308,185.443781 C111.371176,187.294633 110.629044,189.145165 109.515845,190.996017 C106.355706,194.148159 103.128711,200.080738 108.663993,200 C111.289285,199.959502 111.901544,196.670449 113.597572,194.697401 C123.251367,183.460177 115.723205,179.690338 109.886592,168.046541 C109.886592,163.051224 113.711451,167.672276 115.452902,162.864732 C120.759147,148.300389 159.327305,86.9139072 132.522261,68.4780019 C114.990669,56.4199544 116.570579,70.7459832 121.879383,52.7479999 Z M103.486982,146.266883 C111.208035,143.197591 110.662951,131.578745 107.568708,137.753156 C103.072091,146.728796 95.8139114,143.916051 90.8700959,137.753156 C90.761975,137.617525 88.6891232,133.046375 88.2726335,135.162091 C86.6089141,143.464375 97.0806541,148.798129 103.486982,146.266883 Z M118.523474,122.641811 C120.305871,121.407696 124.500197,116.040354 122.976267,113.759577 C121.652904,111.779172 117.228901,118.660528 115.926012,119.310533 C111.706735,121.413454 102.954374,121.219604 101.08273,115.609149 C97.8016739,105.775259 95.7636895,119.281424 90.321494,120.051066 C83.4538929,121.022875 83.1208931,119.472395 78.4400227,114.806239 C76.1055054,111.054953 73.483092,110.728671 75.1090651,115.609149 C77.1643232,121.779402 84.279195,126.279218 90.6928799,124.862769 C93.0536278,124.341357 97.9622559,117.267431 98.7977943,118.198615 C103.40861,123.332761 111.259536,127.673914 118.523474,122.641811 Z M110.513245,96.0430919 C113.392846,92.2073565 116.731161,97.9988659 119.419151,99.004263 C134.194937,104.522911 139.930467,81.4525186 132.405503,90.8612823 C119.651707,106.779057 116.04149,81.2094063 109.771113,91.2310689 C106.247265,96.8619963 94.4943877,98.478053 91.9596226,90.8612823 C87.722752,78.0863736 76.4794504,108.492358 67.0972371,89.7506432 C62.7103406,80.9966831 63.9287808,98.3484997 73.776746,99.7444758 C79.25093,100.521155 88.5410166,92.8864713 88.814198,93.3282319 C93.2583539,100.513798 104.763001,103.692491 110.513245,96.0430919 Z M105.40341,72.5443741 C108.278212,74.8395456 110.86032,74.143157 113.938249,72.9148004 C115.746876,72.1934607 115.201793,68.9229613 117.277844,69.9536292 C118.042048,70.3323725 117.943523,72.6959994 117.64891,73.2845869 C109.694021,89.1758107 103.576869,68.3506879 96.8688906,75.8759715 C94.9697361,78.0057627 92.7577346,78.6055462 90.1893816,78.0966099 C87.0804239,77.4789129 81.755306,73.0283594 83.1388066,69.583203 C83.921884,67.6319073 87.0161271,72.7516593 87.2208532,72.9148004 C88.8202758,74.1895402 91.1989372,74.4144191 93.1579101,74.0251196 C99.6144595,72.7398235 95.7937587,64.8745026 105.40341,72.5443741 Z M74.9635176,40.4330851 C74.9635176,38.8826048 75.4564597,33.2459194 73.6858988,31.4798369 C73.4171958,31.2117737 73.5678614,25.315662 73.1500922,24.0597953 C72.6581098,22.5806492 75.6877362,18.4128736 76.8623522,16.6567075 C80.3030303,11.4848144 74.7120884,10.1077115 73.8938238,12.5852172 C73.025977,15.1951551 69.8856706,18.0664387 70.5526298,20.7281979 C71.5452315,24.6909275 65.8893531,25.8313158 70.2119528,30.1433593 C71.4476667,31.3758744 70.1959585,34.3987833 70.1207857,34.7756073 C69.5059676,37.8560953 72.9591211,39.7670855 74.9635176,40.4330851 Z M126.76146,40.3431976 C129.012488,38.3791065 127.873059,36.081056 128.8116,35.9044798 C131.381553,35.421774 131.337089,17.4113151 127.73327,15.6174027 C127.173792,15.3391031 123.77054,11.4944109 123.679053,11.8763531 C123.211062,13.8314873 126.06987,21.9069724 126.329616,24.3198614 C126.732671,28.0669888 125.622671,34.7167485 123.707523,36.7595311 C122.3301,38.2287608 125.767899,40.145189 126.76146,40.3431976 L126.76146,40.3431976 Z" id="Fill-1"></path>
            <path d="M48.4802771,173.503771 C54.5635213,158.333247 55.3744286,140.579336 61.4663096,125.384181 C66.2876093,122.981208 60.0463422,140.876509 59.6125788,143.521314 C58.0579399,152.820357 53.9749338,162.304294 52.9314704,171.652919 C52.7987183,172.853766 52.7868826,174.096837 53.6739224,174.984197 C58.0230725,164.137552 58.8995561,151.797367 62.2100412,140.560143 C62.8235797,138.479294 63.9981957,130.416284 65.9194222,130.936417 C68.8965876,131.742206 67.6445595,136.49441 67.0338999,138.339504 C62.8821186,150.816601 62.8411734,163.621898 59.9820454,176.464942 C59.4123311,179.02082 56.2246817,179.281846 54.0446686,179.79622 C45.8652211,181.727043 45.7145555,180.393764 48.4802771,173.503771 Z M30.667187,170.54228 C19.3010498,175.434594 34.274205,147.868545 35.4910458,142.040888 C36.6599039,136.423076 38.2855571,130.740967 40.3152244,125.384181 C42.4098283,119.856896 50.0841782,104.549461 40.68757,103.545344 C3.51570773,99.5858131 23.0251455,27.9812598 65.5483562,49.874797 C84.581166,59.6744597 70.0862382,61.5611386 61.4663096,68.01225 C51.4788747,75.4873118 49.4661613,93.4229177 52.5607242,105.025769 C54.2669883,111.421861 49.2457608,118.465078 48.4802771,125.014074 C47.7950845,130.879797 43.9398361,136.214511 42.9123669,142.040888 C41.4677684,150.232172 36.2331779,159.43493 36.2331779,167.581109 C38.6758162,170.01799 41.707042,155.835589 42.5416208,153.14536 C45.1259679,144.809809 48.4745192,136.534076 50.334008,127.975565 C51.2616731,123.699349 52.5169001,116.544492 55.5292527,113.539176 C59.5642762,113.539176 54.7212244,125.799711 54.0449885,128.345352 C51.1477943,139.247337 46.9067651,149.79233 44.7680171,160.918554 C44.211418,163.812869 41.46329,166.656003 42.5416208,169.431961 C43.5070323,171.918104 45.2705557,164.89248 45.5114288,164.249832 C49.7572562,152.941594 51.0470306,140.117423 55.5292527,129.085565 C55.8916819,128.195326 58.66732,115.868256 59.9820454,119.831945 C61.8536898,125.474388 57.2383958,131.527883 55.8999989,137.228865 C54.3895041,143.667181 51.5761196,150.053036 50.334008,156.476638 C49.7467,159.5181 47.6898424,173.433717 44.7680171,174.614091 C42.0563559,175.711614 39.2352942,177.881391 36.604244,176.835049 C33.1504506,175.460825 37.9733498,167.393017 30.667187,170.54228 Z M37.2139439,88.1864079 C37.9272864,90.3251559 38.7142023,97.2743275 34.2863606,97.2743275 C33.6405138,97.6706644 33.9136951,94.7776287 33.9136951,93.94273 C39.1524441,88.9982748 25.5423169,84.2927733 26.8631201,82.0977257 C29.1832427,78.2450363 32.9684363,76.899602 30.2030346,71.3633604 C25.8977086,62.7511091 37.2065865,68.7959671 37.9954218,62.8502733 C39.0283289,55.1045892 37.55718,55.3013182 43.5617325,57.2977176 C50.2073337,59.510039 52.7334619,49.5526733 56.1782984,54.7066529 C60.3403161,60.9658335 65.3922525,55.3844882 67.3102802,57.2977176 C70.1783649,60.158445 59.7635643,64.5754106 53.9519021,58.7784631 C52.6765224,57.5062823 50.0832185,60.8928998 49.1277234,61.3695278 C47.1572347,62.3502938 42.7495457,60.5506234 41.7064023,62.1100605 C36.2760424,70.2268106 35.3407,67.452772 34.2863606,76.9159161 C33.2985572,85.7808762 31.8952237,77.5355325 36.2261404,85.6545218 C36.4753305,84.7620439 36.6781373,86.0031959 39.4800059,83.2083648 C42.1107363,80.5840321 37.3863616,75.4019026 41.7064023,74.3248514 C47.6962401,72.8367485 47.6975197,74.0567882 49.1277234,66.9217636 C49.2448012,66.3328562 50.8941258,66.3811588 50.9833736,66.9217636 C51.8832088,72.328452 51.2300046,74.9425484 46.530261,77.2860225 C41.8362754,79.6262978 43.1030181,85.3669456 37.2139439,88.1864079 L37.2139439,88.1864079 Z" id="Fill-2"></path>
            <path d="M151.243823,174.132344 C145.160579,158.96214 144.349672,141.207909 138.257791,126.013074 C133.436811,123.609781 139.677758,141.505402 140.111522,144.150207 C141.66616,153.44893 145.749486,162.933187 146.79263,172.281812 C146.925382,173.482339 146.937218,174.72541 146.050178,175.61277 C141.701348,164.766445 140.824544,152.42594 137.514059,141.189036 C136.900521,139.108187 135.725905,131.044858 133.804678,131.56499 C130.827513,132.370779 132.079541,137.123303 132.6902,138.968078 C136.841982,151.445174 136.882927,164.250471 139.742055,177.093516 C140.311769,179.649713 143.499739,179.910419 145.679432,180.425113 C153.858879,182.355616 154.009545,181.022337 151.243823,174.132344 Z M169.056913,171.171173 C180.423051,176.063168 165.450215,148.497118 164.233055,142.669461 C163.064516,137.051649 161.438543,131.36986 159.409196,126.012754 C157.314272,120.485469 149.639922,105.178035 159.03653,104.173917 C196.208712,100.214386 176.699275,28.6101528 134.176064,50.50369 C115.142934,60.3030328 129.637862,62.1897117 138.257791,68.641143 C148.245226,76.1162048 150.257939,94.0518107 147.163696,105.654662 C145.457432,112.050754 150.478339,119.093651 151.243823,125.642967 C151.929336,131.50837 155.784584,136.843404 156.811733,142.669461 C158.256332,150.861065 163.490922,160.063823 163.490922,168.210002 C161.048284,170.646563 158.017058,156.464162 157.18248,153.774253 C154.598132,145.438382 151.249901,137.162649 149.390092,128.604139 C148.462427,124.328242 147.2072,117.173065 144.194848,114.168069 C140.159824,114.168069 145.002876,126.428284 145.679112,128.973925 C148.576306,139.87591 152.817335,150.420903 154.956083,161.547447 C155.512682,164.441443 158.26081,167.284576 157.18248,170.060854 C156.217068,172.546677 154.453545,165.521373 154.212672,164.878405 C149.967164,153.570167 148.67707,140.745996 144.194848,129.714138 C143.832418,128.823899 141.05678,116.496829 139.742055,120.460518 C137.87041,126.103281 142.485705,132.156776 143.824101,137.857438 C145.334596,144.296074 148.148301,150.681609 149.390092,157.105211 C149.9774,160.146993 152.034578,174.06229 154.956083,175.242664 C157.667744,176.340188 160.488806,178.509964 163.119856,177.463942 C166.57365,176.089398 161.75107,168.02191 169.056913,171.171173 Z M162.510156,88.814981 C161.797134,90.953729 161.009898,97.9029006 165.43774,97.9029006 C166.083587,98.2992375 165.810405,95.4065217 165.810405,94.5713032 C160.571656,89.6271678 174.181783,84.9213464 172.86098,82.7266187 C170.540858,78.8736095 166.755664,77.528495 169.521066,71.9922534 C173.826392,63.3796822 162.517514,69.4245402 161.728679,63.4788464 C160.695771,55.7334822 162.16692,55.9302112 156.162368,57.9266106 C149.516767,60.138932 146.990958,50.1812464 143.545802,55.3355459 C139.383784,61.5947265 134.331848,56.0133812 132.41382,57.9266106 C129.545735,60.787338 139.960856,65.2043036 145.772198,59.4070362 C147.047898,58.1351753 149.640882,61.5217928 150.596377,61.9984208 C152.566866,62.9788669 156.974874,61.1791965 158.017698,62.7386336 C163.448058,70.8557036 164.3834,68.081665 165.43774,77.5448091 C166.425543,86.4094493 167.829196,78.1644254 163.49796,86.2830949 C163.24877,85.390617 163.046283,86.6320889 160.244414,83.8372578 C157.613364,81.2126052 162.337739,76.0304757 158.017698,74.9534245 C152.02786,73.4656415 152.026581,74.6856811 150.596377,67.5506566 C150.479299,66.9617492 148.829974,67.0100518 148.740727,67.5506566 C147.840892,72.9570251 148.494096,75.5714414 153.193839,77.9145956 C157.887825,80.2548709 156.621082,85.9955187 162.510156,88.814981 L162.510156,88.814981 Z" id="Fill-3"></path>
        </g>
    </g>
</svg>