<?xml version="1.0" encoding="UTF-8" standalone="no"?>
<!DOCTYPE svg PUBLIC "-//W3C//DTD SVG 1.1//EN" "http://www.w3.org/Graphics/SVG/1.1/DTD/svg11.dtd">
<svg width="200px" height="200px" viewBox="0 0 200 200" version="1.1" xmlns="http://www.w3.org/2000/svg" xmlns:xlink="http://www.w3.org/1999/xlink">
    <g id="WHV" stroke="none" stroke-width="1" fill="none" fill-rule="evenodd">
        <g id="375-KHTC">
            <path d="M194.812647,68.9480594 L194.757713,68.9480594 C181.754616,28.9286112 144.154095,0 99.7984649,0 C55.4782472,0 17.9022426,28.8859349 4.86918117,68.8577128 L4.83558496,68.8577128 C4.75568045,69.1360166 4.68122397,69.4111424 4.60495148,69.6894461 C1.59718223,79.198537 -0.0272401744,89.3232558 -0.0272401744,99.8257051 C-0.0272401744,105.864398 0.510299267,111.776878 1.53679984,117.520922 C3.14533214,127.363705 5.75584885,133.785576 6.64614855,135.785913 C21.0784469,173.14899 57.3437451,199.653226 99.7984649,199.653226 C144.390176,199.653226 182.151868,170.415893 194.96156,130.064569 C206.384273,97.2310785 194.812647,68.9480594 194.812647,68.9480594 L194.812647,68.9480594 Z" id="Background" fill="#FFFFFF"></path>
            <path d="M99.8479512,15.8101972 C133.930403,15.8101972 163.259445,36.2067318 176.358337,65.4844712 L185.659949,65.4844712 C172.039861,31.404289 138.752368,7.32806091 99.8479512,7.32806091 C60.9421722,7.32806091 27.654679,31.404289 14.0364079,65.4844712 L23.3380194,65.4844712 C36.4346413,36.2067318 65.764137,15.8101972 99.8479512,15.8101972" id="Fill-1" fill="#1A56A2"></path>
            <path d="M99.8479512,183.832133 C67.8162302,183.832133 39.981766,165.817298 25.8777117,139.345296 L16.2955263,139.345296 C31.1001071,170.657423 62.947957,192.316539 99.8479512,192.316539 C136.748399,192.316539 168.593979,170.657423 183.399014,139.345296 L173.818645,139.345296 C159.712774,165.817298 131.87831,183.832133 99.8479512,183.832133" id="Fill-2" fill="#1A56A2"></path>
            <path d="M99.9968642,44.8913534 C82.6067368,44.8913534 67.1011756,52.9303829 57.0050589,65.4844712 L142.990939,65.4844712 C132.894369,52.9303829 117.389262,44.8913534 99.9968642,44.8913534" id="Fill-3" fill="#1A56A2"></path>
            <path d="M99.9968642,154.774131 C114.867275,154.774131 128.357972,148.897063 138.267947,139.345296 L61.7275972,139.345296 C71.6380266,148.897063 85.128269,154.774131 99.9968642,154.774131" id="Fill-4" fill="#1A56A2"></path>
            <polygon id="Fill-5" fill="#1A56A2" points="50.138265 65.7151047 37.3163149 54.04042 40.8434635 50.1655052 51.707753 55.8033133 45.0575185 45.5387615 48.5937471 41.6565827 61.4138812 53.3312674 59.2237711 55.7361208 49.1308325 46.54574 56.9074483 58.2808071 54.6374338 60.7741911 42.2358904 54.1203245 52.328375 63.3102513"></polygon>
            <path d="M63.3166074,30.7941091 L61.9459726,28.2952771 L64.4552466,26.9173783 L65.8263354,29.4180263 L63.3166074,30.7941091 Z M58.8564828,33.2416388 L57.485848,30.7428068 L59.98468,29.369902 L61.3571308,31.87055 L58.8564828,33.2416388 Z M56.7158591,35.5379855 L59.7858267,33.8531807 L64.3045177,42.0892475 C65.0209343,43.3963218 65.5230615,44.2226071 65.8122613,44.5685573 C66.2853324,45.1183548 66.8723581,45.4465989 67.5728846,45.5510196 C68.2752271,45.6572563 69.0538421,45.4747471 69.9123616,45.0048541 C70.7831392,44.5258811 71.3415627,43.9887956 71.5880863,43.3890578 C71.8364259,42.7897739 71.8632121,42.2063802 71.6679908,41.6388766 C71.4727696,41.0713729 71.0455528,40.1865213 70.3858866,38.9820516 L65.7714011,30.5707397 L68.8409147,28.8859349 L73.2215888,36.8718461 C74.2235732,38.6982997 74.8478272,40.0339763 75.0961668,40.8779677 C75.3426903,41.7219591 75.3849126,42.5273603 75.2255576,43.2900851 C75.0625705,44.052356 74.6934662,44.7937428 74.1155205,45.5119754 C73.5371208,46.228392 72.6468211,46.9166604 71.4446214,47.5763266 C69.9922661,48.3744637 68.7986924,48.8107605 67.8639005,48.887033 C66.9309245,48.9633055 66.0973752,48.8516207 65.3687005,48.5551568 C64.6400258,48.259147 64.04392,47.8546304 63.5826531,47.3420611 C62.9052807,46.5816062 62.0985176,45.3508043 61.1655416,43.6482934 L56.7158591,35.5379855 Z" id="Fill-6" fill="#1A56A2"></path>
            <polygon id="Fill-7" fill="#1A56A2" points="81.686019 42.6018167 78.0417376 25.8018932 81.4608335 25.0605064 84.4863089 39.0070217 92.9920533 37.1610459 93.6108593 40.0144542"></polygon>
            <polygon id="Fill-8" fill="#1A56A2" points="97.0885216 39.7325184 98.3138754 22.4322836 101.806066 22.6806232 101.323461 29.4888508 108.1671 29.9732719 108.649706 23.1645903 112.143258 23.4129299 110.916088 40.7113486 107.424352 40.4648251 107.959621 32.9011366 101.115981 32.4148995 100.580712 39.9790419"></polygon>
            <polygon id="Fill-9" fill="#1A56A2" points="115.374851 41.7914215 121.636459 25.6298261 133.619865 30.2729138 132.561131 33.0055573 123.841097 29.6273217 122.452302 33.2112206 130.565788 36.3538287 129.510685 39.0778462 121.397199 35.933422 119.692872 40.3336182 128.721628 43.8308026 127.666525 46.553004"></polygon>
            <polygon id="Fill-10" fill="#1A56A2" points="130.792789 48.7590042 140.256026 34.2418072 143.187523 36.1517974 133.722924 50.6708104"></polygon>
            <polygon id="Fill-11" fill="#1A56A2" points="137.464816 52.7814699 150.106073 40.9329021 153.68634 44.7510665 147.213166 55.1277569 157.960323 49.3124337 161.550124 53.1414942 148.908867 64.9896081 146.686523 62.6188049 156.637359 53.2922232 144.335242 60.1108928 142.031177 57.6529211 149.637542 45.8261454 139.686706 55.1522731"></polygon>
            <path d="M48.6450494,147.754792 L51.2078958,143.363676 L46.4227052,145.044849 L48.6450494,147.754792 Z M47.7443077,154.66971 L45.9546282,152.488226 L47.4996001,149.771473 L44.2434912,145.802125 L41.3151725,146.832712 L39.5704393,144.704346 L52.6743252,140.427185 L54.4140644,142.546471 L47.7443077,154.66971 Z" id="Fill-12" fill="#1A56A2"></path>
            <polygon id="Fill-13" fill="#1A56A2" points="49.9593878 156.714539 58.1223601 146.783226 60.0732106 148.38631 58.6862317 158.358484 64.1378986 151.727317 66.0020345 153.257761 57.8386083 163.190891 55.8255594 161.536504 57.1453458 151.768178 51.8230698 158.244983"></polygon>
            <path d="M73.7005618,160.043289 L70.3699965,167.876655 L72.1519579,168.635294 C72.8188882,168.919045 73.3173834,169.086118 73.6451735,169.137421 C74.0728442,169.202797 74.4646487,169.176465 74.817409,169.053884 C75.1724393,168.931757 75.5410896,168.640742 75.9279001,168.178113 C76.3142566,167.716846 76.702883,167.028577 77.0910555,166.115577 C77.479682,165.200308 77.6976034,164.464369 77.7439117,163.905491 C77.791582,163.348884 77.7280216,162.869911 77.5541385,162.472658 C77.3802554,162.075406 77.0892395,161.733087 76.6851769,161.445704 C76.383719,161.229598 75.7449369,160.91225 74.7715547,160.499108 L73.7005618,160.043289 Z M72.161038,157.028255 L76.5271839,158.883311 C77.5114622,159.301902 78.2296948,159.695522 78.6818817,160.065989 C79.2884296,160.564484 79.7283584,161.180112 80.0012142,161.912419 C80.2745239,162.644725 80.3789446,163.442862 80.3172002,164.310008 C80.2531858,165.175337 79.9871401,166.161432 79.5154311,167.270107 C79.1004724,168.243489 78.6233153,169.03073 78.0825979,169.632284 C77.4211156,170.366407 76.702883,170.884424 75.9279001,171.184066 C75.3426903,171.411067 74.6489739,171.48734 73.8476588,171.412883 C73.2497369,171.356133 72.5101662,171.139574 71.6271306,170.765475 L67.1334098,168.855485 L72.161038,157.028255 Z" id="Fill-14" fill="#1A56A2"></path>
            <polygon id="Fill-15" fill="#1A56A2" points="80.6931146 174.131453 83.3744558 161.562836 92.6937734 163.550915 92.2397705 165.677465 85.4583291 164.230103 84.8640393 167.016319 91.1742257 168.362438 90.7220388 170.479907 84.4118524 169.133789 83.6813617 172.554701 90.7043327 174.053364 90.2521458 176.170834"></polygon>
            <path d="M96.7766216,169.243657 L98.6952378,169.284518 C99.9419298,169.311304 100.718729,169.274076 101.031083,169.174649 C101.342983,169.075222 101.589506,168.899523 101.770654,168.64619 C101.951347,168.392402 102.045325,168.071422 102.054405,167.686882 C102.061215,167.253763 101.954979,166.902819 101.729793,166.631325 C101.502792,166.360285 101.181812,166.184586 100.761405,166.106497 C100.55211,166.072901 99.9205917,166.044299 98.869121,166.023415 L96.841998,165.982555 L96.7766216,169.243657 Z M94.027634,176.610763 L94.2918637,163.7534 L99.7539726,163.866901 C101.128693,163.893233 102.123414,164.031704 102.74222,164.274596 C103.359664,164.517487 103.850895,164.93971 104.212735,165.537178 C104.574121,166.136916 104.748005,166.814288 104.732114,167.574743 C104.712592,168.539499 104.41295,169.330826 103.831373,169.947816 C103.251157,170.563444 102.396724,170.942536 101.264894,171.082823 C101.82014,171.421509 102.275959,171.79243 102.632351,172.191044 C102.988743,172.590113 103.467716,173.296087 104.067,174.308968 L105.585186,176.848206 L102.481622,176.784646 L100.661978,173.948944 C100.01457,172.934247 99.5732795,172.295919 99.3322039,172.029873 C99.0924904,171.765644 98.8355247,171.581318 98.562215,171.480076 C98.2893592,171.377017 97.8548785,171.320267 97.2587726,171.308009 L96.7339453,171.297567 L96.6240766,176.663881 L94.027634,176.610763 Z" id="Fill-16" fill="#1A56A2"></path>
            <path d="M115.635448,167.691876 L117.488688,167.190202 C118.690888,166.86559 119.426827,166.611803 119.69832,166.429293 C119.969814,166.246784 120.155955,166.008887 120.25856,165.714693 C120.359803,165.420045 120.361619,165.086807 120.260376,164.714524 C120.146875,164.29775 119.944844,163.990844 119.652012,163.793807 C119.359634,163.599039 119.001426,163.520951 118.577387,163.563627 C118.366276,163.589959 117.752918,163.740688 116.738221,164.015814 L114.784193,164.544273 L115.635448,167.691876 Z M115.067945,175.528874 L111.710593,163.123698 L116.982929,161.695859 C118.309525,161.337651 119.301068,161.188738 119.96255,161.24912 C120.624032,161.309503 121.212874,161.575548 121.727259,162.047257 C122.243007,162.518966 122.599853,163.121882 122.798252,163.856005 C123.050224,164.787165 122.984393,165.62934 122.601215,166.384801 C122.21849,167.1389 121.50389,167.741816 120.457413,168.194003 C121.085299,168.364254 121.626017,168.591255 122.08002,168.873191 C122.535838,169.155127 123.191873,169.69766 124.052208,170.501246 L126.22098,172.510662 L123.225469,173.321058 L120.684415,171.111425 C119.780041,170.321914 119.175309,169.832499 118.870219,169.646358 C118.565129,169.460217 118.267303,169.355342 117.978103,169.334004 C117.687087,169.31312 117.254423,169.378496 116.679655,169.534673 L116.170718,169.673144 L117.573587,174.851501 L115.067945,175.528874 Z" id="Fill-17" fill="#1A56A2"></path>
            <path d="M123.232733,159.835809 L125.55405,158.677648 L128.663062,164.907476 C129.154293,165.897202 129.503875,166.523272 129.707722,166.787502 C130.040961,167.207908 130.466815,167.468506 130.982563,167.567933 C131.498764,167.665543 132.080342,167.552043 132.729566,167.229247 C133.389232,166.901002 133.818265,166.517824 134.018934,166.081527 C134.219149,165.64523 134.256378,165.214382 134.128803,164.788981 C134.001228,164.36131 133.710212,163.694834 133.256209,162.783196 L130.081821,156.419891 L132.404954,155.26173 L135.418171,161.302239 C136.106439,162.683769 136.530024,163.691202 136.689833,164.324082 C136.847372,164.957416 136.856452,165.553068 136.714349,166.113761 C136.5727,166.675817 136.278052,167.213356 135.829498,167.727288 C135.380943,168.241673 134.699938,168.726094 133.790117,169.180097 C132.692337,169.728079 131.794774,170.016824 131.101511,170.045427 C130.408249,170.075391 129.794437,169.969154 129.262346,169.728079 C128.730254,169.486549 128.301221,169.171017 127.974793,168.777397 C127.496274,168.194003 126.933765,167.259211 126.291805,165.971659 L123.232733,159.835809 Z" id="Fill-18" fill="#1A56A2"></path>
            <polygon id="Fill-19" fill="#1A56A2" points="141.821882 164.462553 133.939029 154.295158 135.991123 152.704786 139.09287 156.705459 143.116698 153.586005 140.013134 149.584878 142.065227 147.992689 149.949896 158.159631 147.897803 159.750457 144.448743 155.306222 140.428093 158.42386 143.875791 162.869911"></polygon>
            <path d="M149.159023,148.409464 L150.417973,146.960287 C151.235632,146.022317 151.705525,145.401695 151.827652,145.098421 C151.952049,144.795147 151.975203,144.493689 151.895298,144.192231 C151.81721,143.892135 151.631069,143.615647 151.340053,143.36186 C151.014079,143.078108 150.674939,142.936459 150.322178,142.936459 C149.971234,142.936459 149.630732,143.073114 149.300672,143.344154 C149.140863,143.482625 148.717278,143.950702 148.027194,144.743391 L146.699235,146.272472 L149.159023,148.409464 Z M153.055276,155.22995 L143.357774,146.80411 L146.938495,142.682671 C147.839236,141.647091 148.580623,140.969718 149.162201,140.65237 C149.744233,140.333206 150.380745,140.226516 151.072191,140.33139 C151.762276,140.435811 152.393794,140.737269 152.968107,141.235764 C153.69542,141.866828 154.108563,142.604583 154.211167,143.44358 C154.314226,144.282578 154.05726,145.183319 153.441632,146.141266 C154.05726,145.93197 154.631574,145.81847 155.165481,145.798947 C155.701205,145.779425 156.548828,145.864324 157.708806,146.052281 L160.629406,146.511732 L158.595473,148.854387 L155.255828,148.435796 C154.06407,148.283251 153.290903,148.214243 152.932695,148.230133 C152.576303,148.244207 152.271213,148.324112 152.017425,148.466214 C151.765908,148.611495 151.443112,148.909321 151.052669,149.357876 L150.707173,149.755129 L154.755971,153.272289 L153.055276,155.22995 Z" id="Fill-20" fill="#1A56A2"></path>
            <path d="M10.2731778,68.8595288 C23.0737897,31.6099524 58.3212134,4.85056705 99.7984649,4.85056705 C141.309313,4.85056705 176.578074,31.6526286 189.35417,68.9462434 L10.2731778,68.8595288 Z M172.474342,87.634819 C163.016554,84.2992597 157.213942,100.716005 157.213942,100.716005 C157.213942,100.716005 151.010447,114.130429 158.38981,117.819202 C165.924896,121.586064 172.474342,109.436039 172.474342,109.436039 L181.864938,114.130429 C167.944755,127.544853 162.245203,128.550015 151.010447,124.526187 C139.775691,120.502359 141.954905,104.404778 143.799519,99.038464 C145.643678,93.6716957 153.030306,80.2395657 164.309554,80.3155147 C180.522452,80.4257069 184.881334,94.6791281 184.881334,94.6791281 L176.665243,98.5345208 C176.665243,98.5345208 178.174349,89.6478679 172.474342,87.634819 L172.474342,87.634819 Z M110.93561,91.995971 L114.28933,81.7668315 L147.490108,81.7668315 L143.6329,93.1700225 L137.09208,87.4682 L122.672493,122.513592 L122.840928,123.520571 L108.084018,123.352136 L122.840928,86.9647107 L110.93561,91.995971 Z M74.1613748,82.0682894 L87.9571611,82.0682894 L76.7846036,105.784493 L86.8167058,105.89981 L95.2548038,86.6292026 C95.2548038,86.6292026 96.1682577,82.1817901 95.1413031,82.1817901 C94.1143485,82.1817901 110.305908,82.0682894 110.305908,82.0682894 L94.343166,120.150961 C94.343166,120.150961 94.0008478,123.572327 94.0008478,123.914645 C94.0008478,124.256509 79.6343798,124.143009 79.6343798,124.143009 L84.0804303,113.539771 L74.503693,113.424454 L71.8809182,118.670458 C71.8809182,118.670458 70.7404629,122.545373 70.9692803,123.914645 C71.1962818,125.283464 59.2237711,123.801145 59.2237711,123.801145 L73.9325573,88.2254768 C73.9325573,88.2254768 74.6171937,85.602702 74.1613748,82.0682894 L74.1613748,82.0682894 Z M51.7803935,86.9324765 C51.7803935,86.9324765 52.7401556,83.4230341 52.484552,82.4900581 L64.666358,81.8980383 L46.5965883,101.448311 L52.6121268,120.817891 L42.8724025,124.967932 L35.7840551,106.336107 L29.2682054,121.738609 C29.2682054,121.738609 28.8232825,122.627093 27.1952281,123.368026 C25.5653577,124.107597 15.0915106,123.485159 15.0915106,123.485159 L18.1401401,118.911533 L30.30424,88.413434 L30.6002499,81.8980383 L42.7466437,81.8980383 L42.6898933,85.2444937 L37.5628385,97.5965508 L51.7803935,86.9324765 Z M99.7984649,194.802659 C60.452757,194.802659 26.714439,170.722799 12.4242435,136.452844 L187.174502,136.452844 C172.883853,170.722799 139.145989,194.802659 99.7984649,194.802659 L99.7984649,194.802659 Z M194.812647,68.9480594 L194.757713,68.9480594 C181.754616,28.9286112 144.154095,0 99.7984649,0 C55.4782472,0 17.9022426,28.8859349 4.86918117,68.8577128 L4.83558496,68.8577128 C4.75568045,69.1360166 4.68122397,69.4111424 4.60495148,69.6894461 C1.59718223,79.198537 -0.0272401744,89.3232558 -0.0272401744,99.8257051 C-0.0272401744,105.864398 0.510299267,111.776878 1.53679984,117.520922 C3.14533214,127.363705 5.75584885,133.785576 6.64614855,135.785913 C21.0784469,173.14899 57.3437451,199.653226 99.7984649,199.653226 C144.390176,199.653226 182.151868,170.415893 194.96156,130.064569 C206.384273,97.2310785 194.812647,68.9480594 194.812647,68.9480594 L194.812647,68.9480594 Z" id="Fill-22" fill="#1A56A2"></path>
        </g>
    </g>
</svg>