<?xml version="1.0" encoding="UTF-8" standalone="no"?>
<!DOCTYPE svg PUBLIC "-//W3C//DTD SVG 1.1//EN" "http://www.w3.org/Graphics/SVG/1.1/DTD/svg11.dtd">
<svg width="148px" height="206px" viewBox="0 0 148 206" version="1.1" xmlns="http://www.w3.org/2000/svg" xmlns:xlink="http://www.w3.org/1999/xlink">
    <g id="WHV" stroke="none" stroke-width="1" fill="none" fill-rule="evenodd">
        <g id="Logo" fill="#231F20" transform="translate(74.000000, 103.000000) scale(1, -1) translate(-74.000000, -103.000000) ">
            <path d="M73.9998437,204.231852 C34.1731027,204.231852 1.77176712,158.819237 1.77176712,103.000156 C1.77176712,47.1807629 34.1731027,1.76843492 73.9998437,1.76843492 C113.826585,1.76843492 146.227964,47.1807629 146.227964,103.000156 C146.227964,158.819237 113.826585,204.231852 73.9998437,204.231852 Z M73.9998437,0 C54.1761689,0 35.5594786,10.7536396 21.5794593,30.2790585 C7.66366456,49.7146197 0,75.5409956 0,103.000156 C0,130.459316 7.66366456,156.28538 21.5794593,175.720973 C35.5594786,195.246703 54.1761689,206 73.9998437,206 C93.8235186,206 112.439896,195.246703 126.420228,175.720973 C140.335867,156.28538 148,130.459316 148,103.000156 C148,75.5409956 140.335867,49.7146197 126.420228,30.2790585 C112.439896,10.7536396 93.8235186,0 73.9998437,0" id="path14" fill-rule="nonzero"></path>
            <path d="M25.6683618,52.2855923 C25.6683618,53.5260094 26.6758908,54.5312556 27.9187849,54.5312556 C29.1615852,54.5312556 30.1689892,53.5260094 30.1689892,52.2855923 C30.1689892,51.0451752 29.1615852,50.0396171 27.9187849,50.0396171 C26.6758908,50.0396171 25.6683618,51.0451752 25.6683618,52.2855923 L25.6683618,52.2855923" id="path16" fill-rule="nonzero"></path>
            <path d="M117.723814,52.2855923 C117.723814,53.5260094 118.731093,54.5312556 119.974018,54.5312556 C121.216943,54.5312556 122.224535,53.5260094 122.224535,52.2855923 C122.224535,51.0451752 121.216943,50.0396171 119.974018,50.0396171 C118.731093,50.0396171 117.723814,51.0451752 117.723814,52.2855923 L117.723814,52.2855923" id="path18" fill-rule="nonzero"></path>
            <polyline id="path20" fill-rule="nonzero" points="31.3690981 66.7049342 14.2267605 62.75475 13.5339476 65.7502154 20.3525666 67.321244 18.5512468 75.1087054 11.7325027 73.5376768 11.0396898 76.5328303 28.1819963 80.4823907 28.8748092 77.4872372 21.1442635 75.7059895 22.9454583 67.9185281 30.676379 69.6997758 31.3690981 66.7049342 31.3690981 66.7049342"></polyline>
            <polyline id="path22" fill-rule="nonzero" points="12.8410096 82.4682432 10.1862373 82.2826641 9.19261588 96.4621567 11.8473882 96.6474239 12.2375486 91.0784907 27.1332135 92.1183576 27.3482018 89.0517796 12.4524119 88.0122246 12.8410096 82.4682432 12.8410096 82.4682432"></polyline>
            <path d="M15.3756773,116.116389 L15.2145064,113.046692 C14.100999,112.825869 13.2398583,112.403247 12.6312718,111.778204 C10.8460785,109.929899 11.1642324,106.15313 13.3438678,104.673175 C16.8107451,102.00146 24.7450592,102.657692 24.8771337,108.157696 C25.0370545,110.8291 23.1163488,112.503055 20.5105185,112.868287 L20.6679078,115.864064 C24.8695705,115.713418 27.6782943,112.169324 27.3868928,108.026387 C26.8631578,96.8102345 8.32178682,97.7886575 8.98115918,108.989215 C9.14633043,112.74384 11.5136079,115.983209 15.3756773,116.116389 L15.3756773,116.116389" id="path24" fill-rule="nonzero"></path>
            <path d="M23.2114512,128.345274 L23.9566439,131.327951 C26.5121884,130.685754 28.0914255,132.261461 28.6936365,134.736681 C29.0036021,135.977722 28.9730993,136.973611 28.6019719,137.724973 C28.134742,138.83221 26.4871549,139.385828 25.4698438,138.90956 C25.1270314,138.758602 24.8107214,138.473839 24.5200388,138.056208 C24.2296062,137.638577 23.7500939,136.803315 23.0814394,135.550422 C22.7353455,134.909784 22.333434,134.181815 21.8753924,133.366515 C21.1709847,132.106136 20.3250954,131.26027 19.3371932,130.830163 C17.096146,129.879187 14.1106562,131.193212 13.3177404,133.570184 C11.6195862,137.877179 14.9282304,144.812848 20.2258364,143.331958 L19.4806437,140.34928 C18.4445497,140.606907 17.6041296,140.461563 16.958946,139.912311 C15.8417821,139.077673 15.0765564,136.629276 15.485906,135.235406 C15.7415542,133.912647 17.4362706,133.281055 18.5345266,133.919197 C18.9764417,134.197722 19.3647895,134.633755 19.6991636,135.226049 L22.2420194,139.814375 C24.2475765,143.466385 29.7260739,142.659818 31.010003,138.925155 C31.532863,137.494169 31.5575527,135.832066 31.0843535,133.939159 C30.1212661,129.971196 27.3381696,127.28451 23.2114512,128.345274 L23.2114512,128.345274" id="path26" fill-rule="nonzero"></path>
            <path d="M29.3842617,162.762871 L28.0340453,159.99977 C26.9224756,160.230886 25.9642636,160.17724 25.1593781,159.839143 C22.8029766,158.840446 21.5987735,155.223681 23.0335913,153.021683 C25.1789111,149.210293 32.7392225,146.720102 35.0144291,151.731674 C36.2073499,154.127984 35.0947489,156.418249 32.8389191,157.770325 L34.1568512,160.466681 C37.965322,158.6898 39.1635558,154.331965 37.2730717,150.631923 C33.850886,143.28642 23.3269617,145.391106 20.4436374,151.929105 C17.9000627,157.287196 23.2736131,165.177271 29.3842617,162.762871 L29.3842617,162.762871" id="path28" fill-rule="nonzero"></path>
            <polyline id="path30" fill-rule="nonzero" points="41.3309401 159.488258 27.8535914 170.774587 29.8335212 173.129415 35.1941329 168.63996 40.3417878 174.762511 34.9809886 179.251654 36.9608558 181.606482 50.4383295 170.320152 48.4584622 167.965325 42.3804104 173.055183 37.2327555 166.932944 43.3108074 161.842773 41.3309401 159.488258 41.3309401 159.488258"></polyline>
            <polyline id="path32" fill-rule="nonzero" points="54.0739721 173.165283 42.6863757 187.325126 45.5453852 188.595485 53.9214582 177.619494 51.7356348 191.346111 54.6171464 192.626451 63.2407419 181.760559 60.8073959 195.376765 63.666093 196.647124 66.3875901 178.636592 63.528893 177.366233 54.8374789 188.20187 56.9782983 174.455604 54.0739721 173.165283 54.0739721 173.165283"></polyline>
            <path d="M68.8259365,179.496494 L77.3792131,196.254445 L80.6385715,195.912605 L85.5383914,177.743941 L82.2543432,178.087964 L81.0995508,182.882455 L74.1151667,183.615103 L71.9868485,179.165259 L68.8259365,179.496494 L68.8259365,179.496494 Z M78.6305767,193.081822 L75.1933896,185.851098 L80.5354371,185.290617 L78.7043334,193.074024 L78.6305767,193.081822 L78.6305767,193.081822" id="path34"></path>
            <path d="M87.3716828,176.501965 L97.2097636,191.058541 L104.176021,186.36916 C105.742101,185.314946 106.699375,184.166226 107.048157,182.923002 C107.795725,180.889429 106.073381,178.023401 104.119766,177.27048 C103.297816,176.934255 102.40711,176.891213 101.447023,177.141979 C103.843491,174.628083 101.039799,172.409867 100.075961,170.055975 C99.7528069,169.28434 99.6309209,168.664599 99.7106156,168.195817 L96.9731796,170.038821 C96.9841181,170.406548 97.0863148,170.792989 97.2800824,171.195961 C97.4963521,171.604235 97.7469998,172.019059 98.0317132,172.440433 C98.9777366,173.84023 99.4509045,174.936238 99.450592,175.726899 C99.4509045,176.636392 98.8792901,177.476333 97.7351238,178.246408 L93.9760325,180.776522 L89.9253522,174.783096 L87.3716828,176.501965 L87.3716828,176.501965 Z M98.3579928,187.259939 L95.2852138,182.713719 L99.4730941,179.894476 C101.134495,178.776011 102.489305,178.991532 103.536275,180.540728 C104.652002,182.202207 104.0857,183.402077 102.504932,184.468455 L98.3579928,187.259939 L98.3579928,187.259939" id="path36"></path>
            <polyline id="path38" fill-rule="nonzero" points="114.097547 173.709545 116.277745 175.232853 123.952192 164.294601 122.034517 162.954377 105.840547 164.1268 111.861406 155.545247 109.681833 154.021939 101.413895 165.806369 103.47252 167.244841 119.524915 165.973858 114.097547 173.709545 114.097547 173.709545"></polyline>
            <polyline id="path40" fill-rule="nonzero" points="115.61831 153.364147 118.049468 154.444248 120.965983 147.906873 118.534825 146.826459 115.61831 153.364147 115.61831 153.364147"></polyline>
            <polyline id="path42" fill-rule="nonzero" points="115.877083 138.949795 131.827282 147.683242 132.583913 144.652844 120.29936 138.326623 134.223749 138.091141 134.986631 135.036727 122.767084 128.447888 136.625842 128.475023 137.383099 125.444937 119.138005 125.897501 118.381061 128.927899 130.582481 135.588474 116.646216 135.871365 115.877083 138.949795 115.877083 138.949795"></polyline>
            <polyline id="path44" fill-rule="nonzero" points="120.145909 119.054466 137.6725 120.584947 138.77635 107.992702 136.125172 107.760962 135.289783 117.290996 130.699367 116.890207 131.472562 108.070677 128.968585 107.852036 128.195389 116.671567 123.064924 116.223682 123.915626 106.522417 121.26476 106.290988 120.145909 119.054466 120.145909 119.054466"></polyline>
            <polyline id="path46" fill-rule="nonzero" points="121.203192 102.680773 138.796664 102.680773 138.796664 99.607021 121.203192 99.607021 121.203192 102.680773 121.203192 102.680773"></polyline>
            <path d="M127.226864,95.7008144 L126.95809,92.6386029 C124.333476,92.8740857 123.020857,91.0713171 122.813963,88.5324699 C122.702078,87.2583679 122.888345,86.279321 123.372764,85.5953294 C124.008134,84.5741764 125.721727,84.2850472 126.652124,84.913833 C126.967153,85.1168784 127.234677,85.447178 127.456572,85.9053557 C127.677842,86.3632215 128.020686,87.2630463 128.484478,88.6048302 C128.726063,89.2916289 129.008901,90.0732445 129.333305,90.9503008 C129.831475,92.3054962 130.534664,93.272379 131.442872,93.8518849 C133.507434,95.1406462 136.662096,94.3091269 137.817826,92.0852964 C140.170227,88.096125 137.989404,80.7291017 132.524845,81.3647492 L132.793307,84.4272726 C133.857153,84.3343271 134.664414,84.6094208 135.215402,85.252242 C136.188303,86.2509383 136.560211,88.7888498 135.937342,90.1019391 C135.477613,91.3685556 133.704327,91.7275498 132.719863,90.9259727 C132.327014,90.5816377 132.011673,90.0907107 131.774464,89.4531919 L129.981802,84.5242728 C128.573549,80.6040307 123.036171,80.5457059 121.182565,84.0336577 C120.441873,85.3657727 120.15716,87.0035475 120.327488,88.94667 C120.656892,93.0166229 122.984604,96.10441 127.226864,95.7008144 L127.226864,95.7008144" id="path48" fill-rule="nonzero"></path>
            <path d="M125.354194,77.9082991 L124.608814,74.9256215 C122.053269,75.5681307 120.474063,73.9924236 119.871821,71.5168917 C119.561793,70.2761627 119.592421,69.2799615 119.963392,68.5289119 C120.430934,67.4210513 122.078271,66.8677448 123.095551,67.3440125 C123.438395,67.4952829 123.754674,67.7800455 124.045325,68.1976765 C124.335976,68.6153075 124.815395,69.4502576 125.484206,70.7034625 C125.830175,71.3441004 126.232086,72.0720696 126.68994,72.8870582 C127.394379,74.1477487 128.240393,74.9936152 129.228296,75.4237221 C131.469437,76.3743862 134.45502,75.0606732 135.247905,72.683389 C136.946184,68.3763939 133.637446,61.4407251 128.339465,62.9219272 L129.084533,65.9042928 C130.121189,65.6466653 130.961265,65.7923216 131.606637,66.3412615 C132.723613,67.1758997 133.488995,69.6242965 133.079583,71.0184792 C132.823935,72.3409254 131.129093,72.9725182 130.031181,72.3343755 C129.588953,72.0561628 129.200481,71.6198179 128.866388,71.0278361 L126.323344,66.4391974 C124.31785,62.7871874 118.83954,63.5937548 117.555673,67.3287296 C117.032813,68.7594042 117.008124,70.4218189 117.480979,72.314726 C118.444192,76.2826883 121.227569,78.969375 125.354194,77.9082991 L125.354194,77.9082991" id="path50" fill-rule="nonzero"></path>
            <polyline id="path52" fill-rule="nonzero" points="26.6294803 36.4932768 40.680256 47.0600585 42.6376212 44.4681887 37.1205578 30.2806492 47.5018129 38.025942 49.2663481 35.6888927 35.2156974 25.1221422 33.2583322 27.7146669 38.7700826 41.8672739 28.3939217 34.1565393 26.6294803 36.4932768 26.6294803 36.4932768"></polyline>
            <polyline id="path54" fill-rule="nonzero" points="44.0321228 17.446652 52.8291716 32.6525687 63.79798 26.3323364 62.4672341 24.0320909 54.1658554 28.8153227 51.8618962 24.833013 59.5444688 20.4065299 58.2874796 18.2338194 50.6052196 22.660708 48.0302984 18.2095849 56.4807531 13.3405814 55.1503198 11.0405543 44.0321228 17.446652 44.0321228 17.446652"></polyline>
            <path d="M67.9080406,13.879447 L67.7114603,25.116528 L70.7911149,25.1701432 L70.9698811,14.9414898 C70.9980087,13.3514042 71.2064651,12.2155352 71.596188,11.5336333 C72.223745,10.429921 73.4241665,9.89277079 75.1980775,9.92396056 C76.9723011,9.95452653 78.1530333,10.5247067 78.7418368,11.6335341 C79.107495,12.3287229 79.2762603,13.4793447 79.2481327,15.0858672 L79.069054,25.3138969 L82.1490211,25.3676368 L82.345289,14.1311484 C82.3837299,11.9348273 81.7642987,10.2514531 80.4869952,9.08158729 C79.2259432,7.91197097 77.4782846,7.30741968 75.2446443,7.26880675 C70.8870611,7.16207536 67.9580452,9.46269507 67.9080406,13.879447 L67.9080406,13.879447" id="path56" fill-rule="nonzero"></path>
            <path d="M92.2865041,17.0371615 L94.8698636,18.7116778 C96.2999935,16.5025689 98.5314461,16.5799195 100.663827,17.9802778 C101.7383,18.6764646 102.396797,19.4259859 102.638694,20.2277813 C103.053732,21.3559776 102.227094,22.882093 101.157622,23.2261473 C100.80384,23.3489414 100.377864,23.3561463 99.8796935,23.2485728 C99.3818358,23.140625 98.4605021,22.8564862 97.1150675,22.3952207 C95.4346024,21.8322142 92.7990506,20.7765341 91.1510885,21.4917155 C88.8624432,22.3212698 87.5767014,25.3138969 88.6211713,27.5923406 C90.3225757,31.8984001 97.4819758,34.7182671 100.344423,30.0299146 L97.7613761,28.3552736 C97.1794483,29.2495466 96.465321,29.7148356 95.6183691,29.7522321 C94.2310556,29.9022237 91.9980404,28.6325818 91.3448561,27.3344324 C90.627916,26.1931988 91.4354893,24.5775376 92.6749768,24.2968297 C93.1887735,24.1998607 93.7703888,24.2540685 94.4198227,24.4599522 L99.4152763,26.0850015 C103.377824,27.3908235 106.833137,23.0720075 105.220178,19.4668133 C104.624499,18.0642406 103.506585,16.8322448 101.867061,15.7696094 C98.4511263,13.5233222 94.5798373,13.4525526 92.2865041,17.0371615 L92.2865041,17.0371615" id="path58" fill-rule="nonzero"></path>
            <path d="M108.864572,29.5841193 L110.71849,32.0390659 C112.818993,30.4511948 114.889806,31.285833 116.413382,33.3293867 C117.184702,34.3505397 117.546297,35.2796829 117.499106,36.1155687 C117.502544,37.3176224 116.202425,38.4694605 115.079511,38.4276662 C114.704789,38.422364 114.30194,38.2835695 113.870964,38.0125304 C113.4403,37.7411794 112.672105,37.1594902 111.566067,36.267151 C110.179379,35.1645926 108.064812,33.2726213 106.270899,33.3820974 C103.835678,33.3808498 101.602037,35.7540793 101.802681,38.251444 C101.925817,42.8784462 107.687277,47.9723592 111.983605,44.543356 L110.130312,42.0884094 C107.774785,44.0645931 104.894524,41.3039867 104.450421,38.9388665 C104.168208,37.6214107 105.480827,36.3794341 106.741566,36.538502 C107.257551,36.6224024 107.785724,36.8722325 108.325148,37.2870564 L112.462711,40.5192521 C115.738633,43.0989579 120.465625,40.2198303 120.1856,36.2818102 C120.10653,34.7606851 119.478348,33.2208463 118.301679,31.6629173 C115.86177,28.3858707 112.247691,26.9981444 108.864572,29.5841193 L108.864572,29.5841193" id="path60" fill-rule="nonzero"></path>
            <path d="M73.9998437,35.2129368 C63.3585651,35.2129368 53.6751859,42.2892715 46.500472,53.8089006 L74.0007813,102.996413 L46.4645312,152.134646 C53.6429955,163.68796 63.3410635,170.787687 73.9998437,170.787687 C84.6589365,170.787687 94.3573171,163.687648 101.535469,152.134022 L74.0007813,102.996413 L101.499841,53.8095244 C94.3251266,42.2895834 84.6414349,35.2129368 73.9998437,35.2129368 L73.9998437,35.2129368 Z M103.678788,152.009887 C95.788697,165.258989 85.2486776,172.555523 73.9998437,172.555523 C62.7510099,172.555523 52.2106779,165.258989 44.3205865,152.009887 C36.5164405,138.905194 32.2185502,121.499743 32.2185502,103.000156 C32.2185502,84.5002566 36.5164405,67.0951182 44.3205865,53.9901131 C52.2106779,40.7410114 62.7510099,33.4444769 73.9998437,33.4444769 C85.2486776,33.4444769 95.788697,40.7410114 103.678788,53.9901131 C111.483247,67.0951182 115.78145,84.5002566 115.78145,103.000156 C115.78145,121.499743 111.483247,138.905194 103.678788,152.009887" id="path62" fill-rule="nonzero"></path>
        </g>
    </g>
</svg>