<?xml version="1.0" encoding="UTF-8" standalone="no"?>
<!DOCTYPE svg PUBLIC "-//W3C//DTD SVG 1.1//EN" "http://www.w3.org/Graphics/SVG/1.1/DTD/svg11.dtd">
<svg width="169px" height="200px" viewBox="0 0 169 200" version="1.1" xmlns="http://www.w3.org/2000/svg" xmlns:xlink="http://www.w3.org/1999/xlink">
    <g id="WHV" stroke="none" stroke-width="1" fill="none" fill-rule="evenodd">
        <g id="399-OTHC" transform="translate(-16.000000, 0.000000)">
            <g id="Group-3" transform="translate(16.000000, 0.000000)">
                <mask id="mask-2" fill="white">
                    <use xlink:href="#path-1"></use>
                </mask>
                <g id="Clip-2"></g>
                <path d="M84.3848518,200.048501 C85.3460553,200.05291 117.223621,194.868584 149.780202,139.193735 C165.002491,113.177748 168.84466,89.078876 168.857006,63.9897001 C168.853478,60.1360676 168.875524,0.0476192576 168.875524,0.0476192576 L0.0229277907,0 C0.0229277907,0 0.00176367621,60.0787481 -2.565807e-05,63.9376717 C-0.0114638953,84.0224163 3.81483164,113.126601 19.0168387,139.153171 C51.5399098,194.852711 83.4130662,200.05291 84.3813244,200.05291 L84.3848518,200.048501" id="Fill-1" fill="#213E80" mask="url(#mask-2)"></path>
            </g>
            <path d="M100.157338,194.124313 C101.07004,194.124313 131.105446,188.146332 161.706992,135.816295 C176.019224,111.354106 179.625942,88.6952764 179.640051,65.1193347 C179.640051,61.4940983 179.656806,5.01413146 179.656806,5.01413146 L20.934766,4.96563036 C20.934766,4.96563036 20.9136019,61.4403062 20.9100705,65.0673063 C20.9056654,83.9553966 24.5062103,111.302078 38.7911058,135.767794 C69.3600236,188.12605 99.3989568,194.124313 100.314305,194.124313 L100.157338,194.124313" id="Fill-4" fill="#FFFFFE"></path>
            <path d="M25.7795846,8.57940291 C25.7795846,8.57940291 25.7681207,33.2611696 25.7601841,50.0399032 L174.958373,50.0919316 C174.972482,33.3017341 174.972482,8.61732195 174.972482,8.61732195 L25.7795846,8.57940291" id="Fill-5" fill="#213E80"></path>
            <path d="M103.130014,114.364702 L166.491845,114.385866 C173.055366,97.7402899 174.951318,81.6731996 174.951318,65.1228621 L174.965428,54.9579143 L103.146769,54.9341046 L103.130014,114.364702" id="Fill-6" fill="#213E80"></path>
            <path d="M103.693508,120.105468 L163.42393,120.126632 C161.683182,123.925591 159.732556,127.674284 157.61879,131.279238 C133.083409,173.245914 109.749972,184.108396 103.668817,186.330628 L103.693508,120.105468" id="Fill-7" fill="#FFFFFE"></path>
            <path d="M103.12825,119.54021 L103.102677,187.127809 C109.503058,185.015807 133.153956,174.247682 158.106447,131.565836 C160.475946,127.524372 162.52181,123.519945 164.302241,119.561374 L103.12825,119.54021 Z M104.259648,120.671608 L162.538565,120.69189 C160.900992,124.199842 159.086169,127.658411 157.130252,130.994405 C133.60722,171.22915 111.257916,182.737137 104.235839,185.510518 L104.259648,120.671608 L104.259648,120.671608 Z" id="Fill-8" fill="#213E80"></path>
            <path d="M34.8237162,113.776516 C27.7857663,94.9166443 26.3113329,76.8980463 26.3183625,65.0717155 L26.3236787,55.4764351 L97.7155278,55.5037721 L97.6970092,113.802971 L34.8237162,113.776516" id="Fill-9" fill="#FFFFFE"></path>
            <path d="M25.7584205,54.910295 L25.7531052,65.0717155 C25.7451929,78.4853549 27.6878822,96.4439878 34.4312982,114.342656 L98.2622675,114.369111 L98.2816679,54.9385138 L25.7584205,54.910295 Z M26.8898187,56.0416933 L97.1493878,56.0699121 L97.1308692,113.236831 L35.2170159,113.211258 C28.3272148,94.5647909 26.877473,76.774589 26.8845021,65.0717155 L26.8898187,56.0416933 L26.8898187,56.0416933 Z" id="Fill-10" fill="#213E80"></path>
            <path d="M42.5697821,131.531444 C68.5275685,175.998131 93.0973417,185.857962 98.237576,187.346505 L98.259622,119.54021 L36.5318366,119.517282 C38.2717031,123.571092 40.2602481,127.5861 42.5697821,131.531444" id="Fill-11" fill="#213E80"></path>
            <path d="M48.0362965,20.2046729 C45.3784364,20.2037928 43.697653,20.5441823 42.9913007,21.2258431 C42.286712,21.9083858 41.9330949,23.3431364 41.9322131,25.5292131 L41.9304431,32.654465 C41.9286858,35.2170865 42.2937667,36.8167408 43.0212832,37.4516642 C43.7505633,38.0865877 45.4198828,38.4049312 48.0301236,38.4058149 C50.4754607,38.4066949 52.085697,38.0892332 52.8625964,37.4543098 C53.7805899,36.7029837 54.2382638,35.1042112 54.2400275,32.6588742 L54.2417924,25.5336223 C54.242673,23.2055697 53.7726533,21.7011539 52.8326139,21.0177294 C52.080406,20.4762808 50.4816335,20.2064383 48.0362965,20.2046729 Z M48.0380601,15.8669041 C52.200336,15.8677948 55.0328,16.4101253 56.5380976,17.4921406 C58.393485,18.8325345 59.3220605,21.5142042 59.3202993,25.535386 L59.3185332,32.6606378 C59.3176513,36.728557 58.4472771,39.4657825 56.7065287,40.8767234 C55.1536118,42.1227607 52.260301,42.7453384 48.0283599,42.7444575 C43.72499,42.741811 40.8457886,42.153625 39.3872283,40.977253 C37.694981,39.6130494 36.8492983,36.8379049 36.8501794,32.6527013 L36.8519438,25.5274494 C36.8537075,21.5538869 37.6667622,18.9198365 39.2893443,17.6270618 C40.7717142,16.4524535 43.6870709,15.8642675 48.0380601,15.8669041 L48.0380601,15.8669041 Z" id="Fill-12" fill="#FFFFFE"></path>
            <polyline id="Fill-13" fill="#FFFFFE" points="68.2762446 37.7065155 68.2753628 42.5389883 63.8300169 42.5372246 63.8308987 37.7047518 68.2762446 37.7065155"></polyline>
            <polyline id="Fill-14" fill="#FFFFFE" points="82.4941203 20.4286615 82.4879475 42.5433975 77.4103237 42.5416338 77.4164965 20.4268978 69.6572031 20.4233705 69.6598486 16.084727 90.2587048 16.0926635 90.2542957 20.431307 82.4941203 20.4286615"></polyline>
            <polyline id="Fill-15" fill="#FFFFFE" points="92.9297925 37.714452 92.9280288 42.5469248 88.4835647 42.546043 88.4862103 37.7135702 92.9297925 37.714452"></polyline>
            <polyline id="Fill-16" fill="#FFFFFE" points="123.271196 16.1032456 123.261496 42.556625 118.183872 42.5548614 118.186518 31.2682155 105.876058 31.2638063 105.874294 42.551334 100.793143 42.5495703 100.803725 16.0953091 105.882231 16.0970727 105.878703 26.9251628 118.188281 26.929572 118.191809 16.1014819 123.271196 16.1032456"></polyline>
            <polyline id="Fill-17" fill="#FFFFFE" points="133.17512 37.7276796 133.173356 42.5601524 128.728892 42.5592705 128.731538 37.7267977 133.17512 37.7276796"></polyline>
            <path d="M161.112633,24.9692459 L156.033245,24.9674822 L156.035891,23.5212677 C156.035891,22.0397797 155.688447,21.1226681 154.996204,20.7699328 C154.301315,20.4171976 152.767799,20.2399481 150.392127,20.2381845 C147.828624,20.2381845 146.188405,20.5962107 145.470588,21.3131451 C144.753654,22.0309613 144.397392,23.6826441 144.395628,26.2690753 L144.393864,32.1235984 C144.393864,34.8273141 144.730726,36.5565986 145.414151,37.3096883 C146.094048,38.0627781 147.753667,38.4393229 150.387718,38.4393229 C152.691079,38.4402048 154.184031,38.264719 154.865692,37.9119837 C155.829541,37.4181544 156.311024,36.2902835 156.31367,34.5266073 L156.31367,33.0803928 L161.393939,33.0812746 L161.393939,34.8096773 C161.392175,38.4075768 160.379825,40.7347475 158.356889,41.7929532 C157.08616,42.4516863 154.4283,42.7797301 150.385072,42.7779735 C145.870061,42.7762027 142.858584,42.0116491 141.356814,40.48166 C139.993492,39.0945286 139.310949,36.3784673 139.31271,32.3343577 L139.314477,26.2681934 C139.31624,22.1755828 140.186615,19.3898562 141.929127,17.90925 C143.505853,16.5688561 146.326853,15.8986592 150.394772,15.9004194 C153.144344,15.9013047 155.049996,15.9965432 156.108202,16.1852565 C157.802213,16.4921362 159.035022,17.1508693 159.811922,18.1614557 C160.678768,19.3140181 161.114396,21.101504 161.114396,23.5230314 L161.112633,24.9692459" id="Fill-18" fill="#FFFFFE"></path>
            <polyline id="Fill-19" fill="#FFFFFE" points="170.138246 37.7400253 170.136482 42.5724981 165.692018 42.5716163 165.693782 37.7391435 170.138246 37.7400253"></polyline>
        </g>
    </g>
</svg>