<?xml version="1.0" encoding="UTF-8" standalone="no"?>
<!DOCTYPE svg PUBLIC "-//W3C//DTD SVG 1.1//EN" "http://www.w3.org/Graphics/SVG/1.1/DTD/svg11.dtd">
<svg xmlns:dc="http://purl.org/dc/elements/1.1/" xmlns:cc="http://creativecommons.org/ns#" xmlns:rdf="http://www.w3.org/1999/02/22-rdf-syntax-ns#" xmlns:svg="http://www.w3.org/2000/svg" xmlns="http://www.w3.org/2000/svg" xmlns:sodipodi="http://sodipodi.sourceforge.net/DTD/sodipodi-0.dtd" xmlns:inkscape="http://www.inkscape.org/namespaces/inkscape" version="1.1" id="svg2" xml:space="preserve" width="500" height="500" viewBox="0 0 500 500.00002" sodipodi:docname="pulheimersc.svg" inkscape:version="0.92.5 (2060ec1f9f, 2020-04-08)"><metadata id="metadata8"><rdf:RDF><cc:Work rdf:about=""><dc:format>image/svg+xml</dc:format><dc:type rdf:resource="http://purl.org/dc/dcmitype/StillImage"/><dc:title/></cc:Work></rdf:RDF></metadata><defs id="defs6"><clipPath clipPathUnits="userSpaceOnUse" id="clipPath22"><path d="M -5.55e-7,442.08 H 595.32 v 336 L -5.55e-7,778.08 Z" id="path20" inkscape:connector-curvature="0" style="clip-rule:evenodd"/></clipPath><circle style="opacity:1;fill:#02906a;fill-opacity:1;stroke:#ffffff;stroke-width:1.20524752;stroke-linecap:round;stroke-linejoin:miter;stroke-miterlimit:4;stroke-dasharray:none;stroke-opacity:1" id="path835-5" cx="305.90952" cy="-914.15338" transform="scale(1,-1)" r="87.217598"/><circle style="opacity:1;fill:none;fill-opacity:1;stroke:#606060;stroke-width:0.85039377;stroke-linecap:round;stroke-linejoin:miter;stroke-miterlimit:4;stroke-dasharray:none;stroke-opacity:1" id="path892-4" cx="-596.58868" cy="-1209.5741" r="87.028793" transform="scale(-1)"/><circle style="opacity:1;fill:none;fill-opacity:1;stroke:#606060;stroke-width:0.99782455;stroke-linecap:round;stroke-linejoin:miter;stroke-miterlimit:4;stroke-dasharray:none;stroke-opacity:1" id="path892-1" cx="570.82117" cy="-1199.7637" r="102.11678" transform="scale(1,-1)"/></defs><sodipodi:namedview pagecolor="#ffffff" bordercolor="#666666" borderopacity="1" objecttolerance="10" gridtolerance="10" guidetolerance="10" inkscape:pageopacity="0" inkscape:pageshadow="2" inkscape:window-width="1920" inkscape:window-height="1001" id="namedview4" showgrid="false" inkscape:snap-bbox="true" inkscape:bbox-paths="true" inkscape:bbox-nodes="true" inkscape:snap-bbox-edge-midpoints="true" inkscape:snap-bbox-midpoints="true" inkscape:object-paths="true" inkscape:snap-intersection-paths="true" inkscape:snap-smooth-nodes="true" inkscape:snap-midpoints="true" inkscape:snap-object-midpoints="true" inkscape:snap-center="true" inkscape:snap-text-baseline="true" inkscape:snap-page="true" showguides="false" inkscape:guide-bbox="true" inkscape:snap-global="true" inkscape:zoom="0.84093496" inkscape:cx="613.38256" inkscape:cy="97.721865" inkscape:window-x="-9" inkscape:window-y="-9" inkscape:window-maximized="1" inkscape:current-layer="g10"><sodipodi:guide position="863.32479,1019.105" orientation="0,1" id="guide950" inkscape:locked="false"/><sodipodi:guide position="924.79426,1096.8099" orientation="1,0" id="guide952" inkscape:locked="false"/><sodipodi:guide position="898.99937,1003.6448" orientation="0,1" id="guide1043" inkscape:locked="false"/><sodipodi:guide position="912.97191,1034.7115" orientation="0,1" id="guide1045" inkscape:locked="false"/><sodipodi:guide position="580.19194,792.92901" orientation="0,1" id="guide1003" inkscape:locked="false"/></sodipodi:namedview><g id="g10" inkscape:groupmode="layer" inkscape:label="2018-11-13_neue_Satzung_durch_AO-MGV_beschlossen" transform="matrix(1.3333333,0,0,-1.3333333,0,499.99994)"><path style="color:#000000;font-style:normal;font-variant:normal;font-weight:normal;font-stretch:normal;font-size:medium;line-height:normal;font-family:sans-serif;font-variant-ligatures:normal;font-variant-position:normal;font-variant-caps:normal;font-variant-numeric:normal;font-variant-alternates:normal;font-feature-settings:normal;text-indent:0;text-align:start;text-decoration:none;text-decoration-line:none;text-decoration-style:solid;text-decoration-color:#000000;letter-spacing:normal;word-spacing:normal;text-transform:none;writing-mode:lr-tb;direction:ltr;text-orientation:mixed;dominant-baseline:auto;baseline-shift:baseline;text-anchor:start;white-space:normal;shape-padding:0;clip-rule:nonzero;display:inline;overflow:visible;visibility:visible;opacity:1;isolation:auto;mix-blend-mode:normal;color-interpolation:sRGB;color-interpolation-filters:linearRGB;solid-color:#000000;solid-opacity:1;vector-effect:none;fill:#ffffff;fill-opacity:1;fill-rule:nonzero;stroke:none;stroke-width:6.96973324;stroke-linecap:round;stroke-linejoin:miter;stroke-miterlimit:4;stroke-dasharray:none;stroke-dashoffset:0;stroke-opacity:1;color-rendering:auto;image-rendering:auto;shape-rendering:auto;text-rendering:auto;enable-background:accumulate" d="M 187.50223,374.99996 C 83.990089,374.99996 -5.1249992e-7,291.01411 -5.1249992e-7,187.50144 -5.1249992e-7,83.988867 83.990089,-5.0162505e-5 187.50223,-5.0162505e-5 291.01441,-8.0162505e-5 375.00001,83.988867 375.00001,187.50144 c 0,103.51267 -83.9856,187.49855 -187.49778,187.49852 z" id="path833-1-3-4" inkscape:connector-curvature="0" sodipodi:nodetypes="sssss"/><path style="color:#000000;font-style:normal;font-variant:normal;font-weight:normal;font-stretch:normal;font-size:medium;line-height:normal;font-family:sans-serif;font-variant-ligatures:normal;font-variant-position:normal;font-variant-caps:normal;font-variant-numeric:normal;font-variant-alternates:normal;font-feature-settings:normal;text-indent:0;text-align:start;text-decoration:none;text-decoration-line:none;text-decoration-style:solid;text-decoration-color:#000000;letter-spacing:normal;word-spacing:normal;text-transform:none;writing-mode:lr-tb;direction:ltr;text-orientation:mixed;dominant-baseline:auto;baseline-shift:baseline;text-anchor:start;white-space:normal;shape-padding:0;clip-rule:nonzero;display:inline;overflow:visible;visibility:visible;opacity:1;isolation:auto;mix-blend-mode:normal;color-interpolation:sRGB;color-interpolation-filters:linearRGB;solid-color:#000000;solid-opacity:1;vector-effect:none;fill:#02906a;fill-opacity:1;fill-rule:nonzero;stroke:none;stroke-width:6.96973324;stroke-linecap:round;stroke-linejoin:miter;stroke-miterlimit:4;stroke-dasharray:none;stroke-dashoffset:0;stroke-opacity:1;color-rendering:auto;image-rendering:auto;shape-rendering:auto;text-rendering:auto;enable-background:accumulate" d="M 187.50223,374.99996 C 83.990089,374.99996 -4.2499977e-7,291.0141 -4.2499977e-7,187.50144 -4.2499977e-7,83.988861 83.990089,-4.8325009e-5 187.50223,-4.8325009e-5 291.01441,-7.8325009e-5 375.00001,83.988861 375.00001,187.50144 c 0,103.51266 -83.9856,187.49855 -187.49778,187.49852 z m -11.14715,-16.80564 25.74504,-0.30667 -0.0685,-6.18692 -18.53392,0.22032 -0.0834,-7.48357 17.06907,-0.20246 -0.0684,-6.18843 -17.06907,0.20395 -0.10124,-9.25805 19.31399,-0.22926 -0.0685,-6.18842 -26.52509,0.3156 z m -32.53186,-5.32201 11.13673,-33.45498 -6.8315,-2.33722 -4.993,14.99989 -12.87996,-4.40648 4.993,-14.99989 -6.8315,-2.33721 -11.13524,33.45498 6.8315,2.33721 4.1906,-12.59121 12.87996,4.40648 -4.19209,12.59121 z m 89.58955,-1.24751 6.91784,-2.06033 -9.79991,-33.87627 -6.91933,2.06032 z m 35.49431,-15.27082 8.89331,-5.83709 -9.38903,-26.68895 19.79035,19.86338 8.89331,-5.8371 -18.90311,-29.64397 -5.6763,3.72616 15.80668,24.79089 -21.24627,-21.22106 -5.95468,3.90778 10.36858,28.36073 -15.80817,-24.7909 -5.67629,3.72616 z m -193.628111,-18.08442 17.38021,-23.18014 13.846101,10.68272 3.69488,-4.92751 -19.586421,-15.10856 -21.07358,28.10618 z M 187.50223,308.07512 c 66.63104,6e-5 120.5732,-53.9423 120.5732,-120.57368 0,-66.6313 -53.94216,-120.572179 -120.5732,-120.572179 -66.63101,0 -120.571711,53.940939 -120.571711,120.572179 0,66.63135 53.940701,120.57368 120.571711,120.57368 z m 133.19562,-14.12156 15.42558,-20.9129 -4.88283,-3.7068 -11.10547,15.05497 -5.90554,-4.48389 10.22715,-13.86551 -4.88432,-3.7068 -10.22716,13.86403 -7.30637,-5.54681 11.5729,-15.68914 -4.88283,-3.70679 -15.89302,21.54558 z M 50.130899,288.57498 68.843459,275.7054 c 7.22916,-4.97193 8.20535,-11.40748 2.92821,-19.30811 -2.36014,-3.53342 -5.12613,-5.76356 -8.29784,-6.6916 -3.16289,-0.91489 -6.49963,-0.16634 -10.0098,2.2479 l -19.04453,13.09885 4.04322,6.05444 18.77211,-12.90979 c 3.82338,-2.62946 6.99337,-2.05808 9.51258,1.71346 2.56346,3.83787 2.02548,7.00878 -1.6152,9.51264 l -19.04453,13.09735 z m 90.665861,-15.86332 c -9.11546,-0.16689 -18.78282,-3.42934 -25.94601,-10.68867 -11.49321,-11.49524 -15.790551,-35.85878 -9.18806,-52.10956 4.37252,-10.76233 9.67525,-17.51338 27.56567,-35.09401 18.17813,-17.86295 21.63453,-22.61362 21.68097,-29.78092 0.0499,-7.69698 -6.52072,-15.48316 -14.15724,-16.77438 -7.58064,-1.28206 -12.26111,4.54314 -13.13154,16.34862 l -0.50466,6.83301 -23.95267,-13.82978 0.48978,-3.57133 c 0.66716,-4.88198 4.73252,-13.48064 8.50774,-17.99211 3.99122,-4.76973 9.94846,-8.6988 16.23094,-10.70804 6.55779,-2.09718 18.77821,-2.51777 26.32263,-0.89916 11.05925,2.37201 20.60337,12.29188 24.80122,25.76896 2.1276,8.20128 2.69193,16.98356 1.69133,25.25117 -2.28464,17.10918 -9.67563,25.27552 -19.77771,35.63119 -5.51258,5.63546 -12.27742,12.19238 -19.37447,18.72151 -9.50669,8.7475 -12.39544,13.86379 -12.42889,22.04726 -0.0378,9.13266 4.49537,14.38507 12.40507,14.38507 5.87342,0 10.16808,-5.90506 12.18326,-16.74015 l 1.12544,-6.03508 23.74574,13.7092 c -0.53388,1.99297 -1.1157,4.10236 -1.30705,4.82777 -3.58169,13.57975 -9.63321,21.84908 -19.5611,26.7351 -4.35979,2.40459 -9.8276,3.80217 -15.60571,3.95689 -0.60188,0.0162 -1.20699,0.0186 -1.81468,0.008 z m 92.64876,-0.13844 c -12.74746,0 -20.5653,-3.01961 -27.95124,-10.7914 -7.95347,-8.36784 -11.77515,-17.28108 -14.81076,-34.52682 -2.5012,-14.20269 -2.53972,-66.56317 -0.0595,-79.80187 4.65902,-24.86767 13.04476,-38.13444 27.32599,-43.21622 8.10959,-2.88534 23.62641,-2.22167 31.19951,1.33386 6.99902,3.28594 12.19564,7.77315 16.15503,13.94441 1.81939,2.83642 4.80849,9.96237 7.0682,16.20422 l -28.67622,16.55703 c -0.0248,-0.24564 -0.0544,-0.82548 -0.0774,-1.01676 -2.25066,-18.71406 -7.34995,-26.50328 -14.6619,-22.4105 -6.73231,3.76839 -8.54268,16.02942 -8.43925,57.11447 0.10408,41.8166 2.16747,56.36484 8.53899,60.2407 6.54665,3.98229 11.02904,-0.73563 13.33252,-14.03523 l 1.22517,-8.49883 27.8247,16.06427 c -0.36691,1.82605 -0.77418,3.90928 -0.98997,4.87244 -4.03518,18.00848 -17.20809,27.96623 -37.00382,27.96623 z m 117.3011,-28.14488 5.38154,-17.1659 c 1.01292,-3.2303 0.95965,-6.09112 -0.16078,-8.58369 -1.10541,-2.48776 -3.12264,-4.20403 -6.05144,-5.14932 -3.73981,-1.20692 -6.88564,-0.3008 -9.43666,2.71832 -0.1435,-2.12693 -0.78577,-3.63485 -1.92932,-4.52409 -1.14356,-0.88925 -3.09002,-1.77773 -5.83856,-2.66472 l -1.32938,-0.42874 c -1.26162,-0.40716 -2.24172,-0.81669 -2.94012,-1.22667 -0.67861,-0.42034 -1.03281,-1.00412 -1.06291,-1.75217 l -0.90064,-0.29029 -2.42951,7.74855 c 1.6392,1.04919 3.52034,1.93247 5.64355,2.65133 l 2.46374,0.84556 c 1.64256,0.5636 2.7044,1.31728 3.18575,2.2613 0.48135,0.94392 0.37837,2.51293 -0.30964,4.70719 l -2.30893,7.36001 -12.95438,-4.18021 -2.18537,6.96998 z M 30.403069,237.39287 c 1.0661,-0.0122 2.17916,-0.17491 3.33908,-0.4868 3.33694,-0.89712 5.75101,-2.61314 7.24237,-5.14783 1.49543,-2.51908 1.82534,-5.38508 0.98699,-8.60007 l -2.12284,-8.13859 12.09096,-3.25126 -1.84445,-7.06972 -33.64242,9.04519 4.02536,15.44053 c 0.88668,3.40041 2.54843,5.74068 4.98555,7.02059 1.51621,0.81216 3.16257,1.20828 4.9394,1.18796 z m 316.717151,-1.81171 -8.8546,-2.85678 2.59475,-8.27405 c 1.14671,-3.65694 3.1998,-5.00859 6.15863,-4.05364 2.9438,0.9501 3.8992,3.07137 2.86717,6.36258 z M 30.127659,229.95694 c -0.92776,-0.006 -1.68345,-0.27154 -2.26872,-0.79644 -0.93644,-0.83994 -1.67702,-2.30367 -2.2211,-4.3901 l -1.4455,-5.54085 9.75971,-2.62452 1.69858,6.51444 c 0.90682,3.47758 -0.31593,5.6682 -3.66808,6.56951 -0.67996,0.18281 -1.29822,0.2718 -1.85489,0.26796 z M 6.9699394,187.50144 H 59.960579 c 0,-70.39796 57.143921,-127.542149 127.541651,-127.542149 70.39775,0 127.54166,57.144129 127.54166,127.542149 h 52.98617 C 368.03006,87.755601 287.24769,6.9684117 187.50223,6.9684417 87.756799,6.9684417 6.9699394,87.755601 6.9699394,187.50144 Z m 48.0839896,-53.62353 -4.42581,-2.23301 3.91073,-7.74855 -22.14692,-11.17696 3.18873,-6.31794 32.00934,16.15361 -2.63196,5.2178 c -1.62253,-0.61628 -3.28128,-0.54241 -4.97513,0.2233 -1.69385,0.76571 -3.33656,2.72625 -4.92898,5.88175 z m 288.490511,-0.49275 -2.79721,-7.03548 6.85235,-2.72427 2.7972,7.03547 z m -32.8564,-5.0466 -4.37222,-6.56953 18.37166,-21.53217 -27.0357,8.51818 -4.49578,-6.7541 36.9949,-9.932439 3.97623,5.97405 z M 74.083569,105.27006 c -3.12571,0.002 -6.06217,-1.15855 -8.80993,-3.48499 -2.67252,-2.262609 -4.18707,-4.838099 -4.54342,-7.724729 -0.33317,-2.88858 0.56675,-5.59286 2.70194,-8.11476 1.96523,-2.32122 4.23291,-3.39613 6.80172,-3.22447 -2.48911,-2.02135 -4.66099,-3.23529 -6.51441,-3.6413 -1.84089,-0.39533 -3.4197,0.18439 -4.73695,1.74026 -0.92416,1.09159 -1.32726,2.1406 -1.20879,3.14557 0.14159,1.00312 0.50741,1.75464 1.09714,2.25385 l -4.57319,5.40091 c -2.02862,-2.23437 -2.98271,-4.60375 -2.86419,-7.1099 0.1291,-2.51867 1.15434,-4.91332 3.07708,-7.18434 2.84691,-3.36261 6.24516,-4.7936 10.1944,-4.29334 3.94923,0.50025 8.25183,2.72077 12.90675,6.66182 8.87063,7.51043 10.56945,14.49586 5.09868,20.957549 -2.60255,3.07407 -5.47775,4.61313 -8.62683,4.61787 z m 0.70414,-6.438519 c 1.37472,-0.0209 2.59966,-0.66509 3.67255,-1.9323 1.12601,-1.32992 1.52362,-2.71689 1.19391,-4.15935 -0.32975,-1.44236 -1.2537,-2.80555 -2.7719,-4.09088 -1.62941,-1.38511 -3.17984,-2.02205 -4.65209,-1.91146 -1.44905,0.10864 -2.67399,0.75137 -3.67255,1.93081 -2.17766,2.57209 -1.57829,5.28698 1.79683,8.14454 l -0.003,0.008 c 1.59344,1.34914 3.07212,2.01953 4.43623,2.0112 z m 24.07177,-17.15846 c -0.74986,0.0147 -1.49502,-0.0643 -2.233,-0.2367 -2.93866,-0.69915 -5.33125,-2.30734 -7.17836,-4.82628 l -0.61185,-0.83514 5.70756,-4.18616 c 1.30285,1.77615 2.58084,2.90831 3.83481,3.39567 1.2541,0.48705 2.610211,0.19554 4.068541,-0.87386 1.33902,-0.98197 2.03372,-2.13388 2.08413,-3.4552 0.0733,-1.31767 -0.31757,-2.55945 -1.17307,-3.72615 -0.76792,-1.04757 -1.8436,-1.81862 -3.22594,-2.3134 -1.382321,-0.49509 -4.090581,-0.7411 -8.125161,-0.73839 -4.87946,-0.01 -8.53196,-0.50086 -10.95808,-1.47378 -2.42606,-0.97314 -4.52846,-2.67404 -6.30749,-5.1002 l 19.72634,-14.46545 3.71869,5.07042 -12.50778,9.17322 c 1.25409,0.48705 4.19049,0.66795 8.80845,0.54336 4.21646,-0.1152 7.329031,0.21051 9.339901,0.97806 2.03364,0.77162 3.77521,2.14526 5.22374,4.12065 2.12904,2.90341 2.80052,5.83584 2.01565,8.79658 -0.77516,2.97401 -2.54065,5.47185 -5.29817,7.49398 -2.3565,1.72803 -4.65933,2.61456 -6.908911,2.65877 z m 208.894401,-5.00343 -5.25947,-5.44558 5.30413,-5.12252 5.25947,5.44706 z m -30.71569,-4.09087 c -2.45489,0.0263 -4.99452,-0.87391 -7.62049,-2.70194 -3.34613,-2.32946 -5.20933,-5.17927 -5.58846,-8.54798 -0.3885,-3.3553 0.634,-6.78033 3.06665,-10.27483 2.64874,-3.80494 5.59989,-6.04646 8.85609,-6.72433 3.26964,-0.66841 6.61845,0.1911 10.04553,2.57689 2.48266,1.72816 4.15593,3.71324 5.01831,5.95618 0.86647,2.26582 0.86587,4.97031 0,8.11327 l -5.99041,-4.16976 c 0.57105,-2.0864 -0.14233,-3.8247 -2.13922,-5.21484 -1.52466,-1.06136 -2.99649,-1.46598 -4.41539,-1.21177 -1.41887,0.2542 -2.88425,1.26738 -4.39752,3.03838 l 15.22014,10.59489 -0.49424,0.70861 c -3.61615,5.19464 -7.46953,7.81345 -11.56099,7.85723 z m -1.33236,-6.58591 c 1.61326,0.0902 3.20089,-0.69808 4.76225,-2.36549 l -9.04664,-6.29858 c -0.79033,1.65326 -1.0931,3.09555 -0.90808,4.32608 0.1985,1.23991 0.95104,2.31487 2.25979,3.22596 0.98665,0.68684 1.96472,1.05793 2.93268,1.11203 z m -141.30588,-3.21403 -20.70291,-15.00734 -2.37592,-5.63462 13.10921,-5.53042 -3.05623,-7.24836 6.52036,-2.75107 3.05773,7.24835 3.65766,-1.54227 2.12731,5.04363 -3.65766,1.54375 8.75039,20.74469 z m 94.57361,-5.16719 -24.62407,-5.59146 1.34874,-5.93982 17.19411,3.90331 c -3.28134,-6.56112 -5.2468,-12.46047 -5.89512,-17.69885 -0.63592,-5.21867 -0.60878,-9.68062 0.0804,-13.38466 l 7.11732,1.61669 c -0.85755,6.5992 -0.73603,12.37482 0.36472,17.32817 1.11319,4.97296 2.98968,9.78202 5.62717,14.42674 z m -96.33918,-1.55568 -6.07525,-14.40589 -8.22638,3.4701 z m 29.41162,-0.14738 -19.02964,-35.01361 5.79241,-1.21476 19.02964,35.01512 z m 13.91012,-4.27992 -2.69151,-19.66986 6.28516,-0.35132 c 1.02488,1.72978 2.58079,2.58105 4.66846,2.55456 1.80826,-0.023 3.15734,-0.64043 4.0462,-1.85191 0.88887,-1.21149 1.32109,-2.72031 1.29812,-4.52855 -0.0276,-2.16986 -0.58206,-3.79058 -1.66433,-4.86201 -1.08155,-1.07317 -2.36281,-1.60116 -3.84225,-1.58247 -2.811,0.0358 -4.4408,1.71678 -4.89177,5.04363 l -7.07713,0.0908 -0.002,0.003 c 0.23538,-3.47205 1.42607,-6.13441 3.5728,-7.98675 2.14691,-1.83575 4.88936,-2.77565 8.22638,-2.81805 3.99455,-0.0507 7.12436,1.11047 9.39052,3.482 2.26616,2.37168 3.42314,5.40605 3.47008,9.10474 0.0437,3.43571 -0.97266,6.2117 -3.05028,8.32616 -2.07762,2.11441 -4.69507,3.19037 -7.85123,3.23042 -2.30141,0.0293 -4.37254,-0.59279 -6.2137,-1.86829 l 1.42763,7.52822 14.47432,-0.18459 0.0759,6.09165 z" id="path833-1-3" inkscape:connector-curvature="0" sodipodi:nodetypes="sssssccccccccccccccccccccccccccccccccccccccccccccccccccccssssscccccccccccccccccccccccccscccccccccccccccccscccccccsccccccccccccccccscccccscccccccccccccccccccccccccccccccsccccccscccccscccccccccccccccccccccccccccccccccccccccccccccccccccccccccccccccccccccccccccccccccccccccccccccccccccccccccccccccccccccccccccccccccccccccccccccccccccccccc"/></g></svg>
