<?xml version="1.0" encoding="UTF-8"?>
<!-- Generator: Deutscher Hockey-Bund e.V.  -->
<svg width="421px" height="421px" viewBox="0 0 421 421" version="1.1" xmlns="http://www.w3.org/2000/svg" xmlns:xlink="http://www.w3.org/1999/xlink">
    <g id="WHV" stroke="none" stroke-width="1" fill="none" fill-rule="evenodd">
        <g id="439-Soester-HC" transform="translate(-7.000000, -6.000000)">
            <g id="439_shc" transform="translate(7.000000, 6.000000)">
                <g id="Group" fill-rule="nonzero">
                    <ellipse id="Oval" fill="#FFFFFF" cx="210.489239" cy="210.5" rx="210.489239" ry="210.5"></ellipse>
                    <path d="M210.489239,4.30470348 C324.170646,4.30470348 416.673994,96.7912577 416.673994,210.5 C416.673994,324.208742 324.192168,416.695297 210.489239,416.695297 C96.7863095,416.695297 4.30448341,324.208742 4.30448341,210.5 C4.30448341,96.7912577 96.8078319,4.30470348 210.489239,4.30470348 M210.489239,0 C94.2466643,0 0.0215224171,94.2299591 0.0215224171,210.5 C0.0215224171,326.770041 94.2466643,421 210.510761,421 C326.774858,421 421,326.770041 421,210.5 C421,94.2299591 326.731813,0 210.489239,0 L210.489239,0 Z" id="Shape" fill="#000000"></path>
                </g>
                <g id="Group" transform="translate(8.000000, 8.000000)" fill-rule="nonzero">
                    <ellipse id="Oval" fill="#FFFFFF" cx="201.5" cy="201.51077" rx="201.5" ry="201.48923"></ellipse>
                    <path d="M201.5,4.30808702 C310.241929,4.30808702 398.691683,92.7746539 398.691683,201.48923 C398.691683,310.203806 310.220387,398.670373 201.5,398.670373 C92.779613,398.670373 4.3083173,310.203806 4.3083173,201.48923 C4.3083173,92.7746539 92.779613,4.30808702 201.5,4.30808702 M201.5,0 C90.2161642,0 0,90.2113421 0,201.48923 C0,312.767117 90.2161642,402.97846 201.5,402.97846 C312.783836,402.97846 403,312.767117 403,201.48923 C403,90.2113421 312.805377,0 201.5,0 L201.5,0 Z" id="Shape" fill="#000000"></path>
                </g>
                <g id="Group" transform="translate(173.000000, 371.000000)" fill="#231F20" fill-rule="nonzero">
                    <path d="M7.08564258,22.3381317 L3.02750183,21.5920645 L5.79734393,5.96853814 C4.05814075,7.1095822 2.12569277,7.83370631 0,8.14091048 L0.66562097,4.36668783 C1.78214647,4.21308575 3.04897347,3.75227949 4.46610199,2.98426907 C5.88323051,2.21625865 6.93534107,1.22881668 7.64390533,0 L10.9290669,0.614408338 L7.08564258,22.3381317 Z" id="Path"></path>
                    <path d="M16.9625989,18.6736248 L20.9777964,18.5200228 C21.0207397,19.3538626 21.2354561,19.9902141 21.6219457,20.4071341 C22.0084353,20.824054 22.5237547,21.0654287 23.2108474,21.1312582 C24.0697131,21.1970877 24.799749,20.8459972 25.46537,20.0999299 C26.1095193,19.3538626 26.6033671,17.708126 26.9469135,15.2066064 C25.830388,16.3695936 24.499146,16.8742861 22.931716,16.7645704 C21.2354561,16.6548546 19.8397992,15.864901 18.7018021,14.4605391 C17.5638049,13.034234 17.0699571,11.2568385 17.2202586,9.12835245 C17.3705601,6.9120938 18.1435393,5.15664141 19.5391962,3.88393842 C20.9348531,2.61123544 22.631113,2.06265656 24.6279759,2.19431549 C26.7966119,2.34791758 28.5358151,3.33535955 29.8026421,5.15664141 C31.0694691,6.97792327 31.5847886,9.85247656 31.3056572,13.8022445 C31.0265258,17.8178418 30.1032451,20.6485088 28.5358151,22.3161886 C26.9683851,23.9838683 24.9929938,24.7299356 22.6740563,24.5763335 C20.999268,24.4666177 19.6680261,23.8960957 18.7018021,22.9086537 C17.7355781,21.9212118 17.1558437,20.5168499 16.9840705,18.6736248 L16.9625989,18.6736248 Z M26.9254418,10.1596807 C27.0113284,8.79920513 26.7966119,7.72399054 26.2383492,6.93403696 C25.6800864,6.14408338 24.9929938,5.72716344 24.198543,5.66133397 C23.4470354,5.61744766 22.7814145,5.85882237 22.2446234,6.45128755 C21.7078323,7.02180958 21.3857576,8.00925155 21.2783994,9.41361347 C21.1710412,10.8399185 21.3857576,11.89319 21.8796054,12.5953709 C22.3734532,13.2975519 23.0390742,13.6705855 23.8549967,13.736415 C24.6494475,13.8022445 25.3365401,13.5169834 25.9162745,12.9245183 C26.4960089,12.3320531 26.8395552,11.4104406 26.9254418,10.1596807 Z" id="Shape"></path>
                    <path d="M36.5447384,19.7707826 L40.5169926,19.1783174 C40.6458224,20.0121573 40.9249538,20.6046225 41.3543867,20.9995993 C41.7838196,21.3726329 42.3206107,21.5701213 43.0077033,21.526235 C43.8665691,21.5042918 44.5751333,21.0654287 45.1333961,20.253532 C45.7131305,19.4416353 46.0137335,17.7520123 46.0996201,15.2285495 C45.1119244,16.5012525 43.8450974,17.1595472 42.2776674,17.2253766 C40.5814075,17.2912061 39.0998641,16.6767977 37.8330371,15.3821516 C36.56621,14.0875055 35.8791174,12.3759394 35.7932309,10.2474534 C35.7073443,8.00925155 36.2870787,6.18796969 37.532434,4.78360777 C38.7777894,3.37924586 40.4096344,2.63317859 42.4064973,2.54540597 C44.596605,2.45763335 46.4002231,3.24758693 47.8602949,4.9152667 C49.3203667,6.58294648 50.1148175,9.39167031 50.265119,13.3414382 C50.4154205,17.3570355 49.7927429,20.2754752 48.397086,22.1187002 C47.0014291,23.9619252 45.1333961,24.9054808 42.7929869,24.9932535 C41.1181986,25.0590829 39.7440134,24.642163 38.6704312,23.7863799 C37.596849,22.9086537 36.8882847,21.5701213 36.5232668,19.7707826 L36.5447384,19.7707826 Z M45.5413573,10.2255102 C45.498414,8.86503459 45.1548677,7.83370631 44.5107184,7.08763904 C43.8665691,6.36351493 43.1580048,6.01242445 42.3420823,6.03436761 C41.5691031,6.05631076 40.9464255,6.38545808 40.4740493,7.02180958 C40.0016731,7.65816107 39.7869567,8.6675462 39.8299,10.0719081 C39.8728433,11.4982132 40.1949179,12.5295415 40.7746523,13.165893 C41.3543867,13.8022445 42.0414793,14.1094486 42.8574018,14.0875055 C43.6518526,14.0655623 44.296002,13.7144718 44.8327931,13.0561772 C45.3695842,12.3978825 45.5843006,11.4543269 45.5413573,10.203567 L45.5413573,10.2255102 Z" id="Shape"></path>
                    <path d="M68.1509986,5.26635718 L64.264631,6.29768547 C64.0499146,5.48578873 63.7063683,4.9152667 63.2554638,4.56417623 C62.8045592,4.21308575 62.2462965,4.10336997 61.5806755,4.21308575 C60.7218098,4.34474468 60.0561888,4.84943724 59.562341,5.72716344 C59.0899648,6.60488963 58.9396633,8.31645572 59.1543797,10.8399185 C59.9917739,9.45749978 61.1727143,8.6675462 62.6757294,8.42617149 C64.3719893,8.16285363 65.9394193,8.62365989 67.3350762,9.76470394 C68.730733,10.905748 69.5895988,12.5295415 69.8902018,14.6360843 C70.2122765,16.852343 69.8257869,18.7394543 68.730733,20.2754752 C67.6356792,21.811496 66.0897208,22.7331085 64.0928579,23.0403127 C61.9456935,23.36946 60.0561888,22.7769948 58.4243438,21.2629171 C56.7924989,19.7707826 55.697445,17.0717745 55.1391823,13.1878361 C54.5594479,9.19418192 54.8815225,6.20991285 56.062463,4.2350289 C57.2434034,2.26014496 59.0040782,1.09715775 61.3015441,0.746067268 C62.9119175,0.504692563 64.329046,0.746067268 65.5099864,1.53602085 C66.7123985,2.30403127 67.5712642,3.5547911 68.1080554,5.26635718 L68.1509986,5.26635718 Z M60.2064903,15.7551852 C60.3997351,17.1156608 60.8506396,18.1031028 61.5592039,18.7613975 C62.2677681,19.397749 63.0192757,19.68301 63.8137265,19.551351 C64.5652341,19.4416353 65.1449685,19.0466585 65.5744013,18.3664207 C66.0038342,17.6861829 66.1111924,16.6548546 65.896476,15.294379 C65.7032312,13.8900171 65.2737983,12.8806319 64.629649,12.3101099 C63.9854997,11.7395879 63.2769354,11.4982132 62.4610129,11.6298721 C61.6665621,11.7395879 61.0653561,12.1565078 60.6144515,12.8806319 C60.163547,13.5828129 60.0347171,14.5483117 60.2064903,15.7771284 L60.2064903,15.7551852 Z" id="Shape"></path>
                </g>
                <g id="Group" transform="translate(28.000000, 27.000000)" fill="#231F20" fill-rule="nonzero">
                    <path d="M13.6379432,166.526912 L13.8751698,162.269122 C15.3200952,162.226114 16.4415298,161.88205 17.2179076,161.193922 C17.9942854,160.527298 18.4903046,159.538115 18.684399,158.226371 C18.9000595,156.850116 18.7706632,155.753412 18.2746441,154.957765 C17.7786249,154.162117 17.1532095,153.710533 16.3768316,153.603013 C15.8808125,153.516997 15.4279254,153.603013 15.0181705,153.861061 C14.6084155,154.097605 14.2417926,154.570693 13.8536037,155.25882 C13.5948111,155.731908 13.120358,156.828612 12.3871123,158.570435 C11.4597721,160.785346 10.5108659,162.31213 9.54039362,163.107777 C8.16016639,164.247489 6.6289768,164.677569 4.94682486,164.419521 C3.86852233,164.247489 2.87648401,163.795905 2.03540804,163.043266 C1.17276602,162.290626 0.590482654,161.279938 0.266991896,160.054211 C-0.0564988617,158.828483 -0.0780649122,157.387716 0.159161644,155.753412 C0.568916603,153.086917 1.45312467,151.151558 2.83335191,149.990343 C4.21357914,148.807623 5.89573108,148.334535 7.85824168,148.571079 L7.38378857,152.893381 C6.26235394,152.893381 5.39971192,153.194437 4.83899461,153.710533 C4.25671124,154.248133 3.89008838,155.108293 3.69599393,156.33402 C3.50189947,157.581252 3.60972973,158.591939 4.01948469,159.387587 C4.27827729,159.903683 4.68803225,160.183235 5.24874957,160.269251 C5.74476873,160.355267 6.21922184,160.204739 6.65054285,159.817667 C7.18969411,159.344579 7.85824168,158.097347 8.6777516,156.075972 C9.49726152,154.054597 10.2305072,152.592326 10.9206209,151.667654 C11.6107345,150.742982 12.4518104,150.076358 13.4438488,149.646279 C14.4358871,149.216199 15.6220199,149.108679 16.9806811,149.302215 C18.2099459,149.495751 19.3098145,149.990343 20.2587207,150.828998 C21.229193,151.667654 21.8761745,152.742853 22.1996653,154.076101 C22.523156,155.387844 22.5662881,156.97914 22.2643634,158.828483 C21.8546085,161.516482 20.9272683,163.494849 19.4392108,164.742081 C17.9511533,165.989312 16.0102088,166.591424 13.5948111,166.505408 L13.6379432,166.526912 Z" id="Path"></path>
                    <path d="M13.7889056,143.044553 C11.6754326,142.399433 10.0148467,141.560778 8.7640158,140.507082 C7.85824168,139.711434 7.10342991,138.786763 6.52114655,137.733067 C5.93886318,136.679372 5.57224032,135.582668 5.46441007,134.507468 C5.31344772,133.066701 5.48597612,131.49691 6.00356133,129.819598 C6.93090151,126.787535 8.61305345,124.637136 11.0500172,123.389905 C13.4869809,122.142673 16.3983977,122.013649 19.7627016,123.045841 C23.1054394,124.056528 25.4345729,125.755344 26.771668,128.120783 C28.1087631,130.507726 28.3028576,133.195725 27.3970835,136.227788 C26.4697433,139.302859 24.7875913,141.453258 22.3506276,142.700489 C19.93523,143.947721 17.0669453,144.055241 13.7673395,143.066057 L13.7889056,143.044553 Z M14.9534723,138.700747 C17.3041718,139.410379 19.2451164,139.410379 20.7763059,138.700747 C22.3074955,137.991115 23.342666,136.808396 23.8386851,135.131084 C24.3347043,133.475277 24.1621759,131.926989 23.2779678,130.507726 C22.3937597,129.088463 20.7547399,128.013263 18.3609083,127.282127 C15.9886427,126.572495 14.0692642,126.550992 12.5812067,127.239119 C11.0931493,127.927247 10.1011109,129.131471 9.58352572,130.830286 C9.06594051,132.529101 9.23846891,134.098893 10.1011109,135.518156 C10.963753,136.915916 12.5812067,137.991115 14.9534723,138.700747 L14.9534723,138.700747 Z" id="Shape"></path>
                    <polygon id="Path" points="32.0122183 121.669585 12.4518104 112.508885 19.2666824 98.0366984 22.5662881 99.5849858 17.6060965 110.100438 21.9408727 112.121813 26.5560075 102.337497 29.8556132 103.885784 25.2404784 113.6701 30.5672929 116.164563 35.7000129 105.26204 38.9996186 106.810327 32.0122183 121.648081"></polygon>
                    <path d="M35.0098993,99.5419779 L36.9724099,95.7572753 C38.309505,96.3163791 39.4740717,96.445403 40.444544,96.1443472 C41.4365823,95.8432913 42.2776583,95.1551635 43.010904,94.036956 C43.7657158,92.8542364 44.0892066,91.8005408 43.9813763,90.8973732 C43.8735461,89.9727015 43.4853571,89.3060778 42.8168096,88.8759979 C42.3854886,88.596446 41.9326015,88.4889261 41.4797144,88.5534381 C41.0052613,88.61795 40.4661101,88.8759979 39.8406946,89.3705898 C39.4093736,89.6931496 38.5251655,90.5103013 37.1449383,91.7790368 C35.3980882,93.4348442 33.9100307,94.4240278 32.6807658,94.7465877 C30.9554818,95.2196755 29.3811601,94.9831316 27.9362347,94.05846 C27.0088945,93.4563482 26.3187809,92.6391965 25.8443278,91.6070049 C25.3698747,90.5748133 25.2404784,89.4135977 25.4561389,88.1663662 C25.6717994,86.9191347 26.2325167,85.5858872 27.1167248,84.1881277 C28.5832162,81.9087046 30.20067,80.5324491 31.9259541,80.0163533 C33.6728042,79.5002575 35.3980882,79.7583054 37.1018062,80.768993 L34.902069,84.5321916 C33.8668986,84.0806078 32.9826905,83.9945918 32.2278788,84.2526397 C31.4946331,84.5106876 30.7829534,85.1558074 30.1144058,86.166495 C29.4242922,87.2201906 29.1008014,88.2093742 29.1654996,89.0910379 C29.1870656,89.6501416 29.4458583,90.1017255 29.9203114,90.4027814 C30.3516324,90.6823332 30.8260855,90.7253412 31.3652367,90.5748133 C32.0553504,90.3597734 33.176785,89.4996137 34.7511067,87.9943343 C36.3254284,86.4890549 37.5978253,85.4568633 38.6114297,84.8762555 C39.603468,84.3171517 40.6602045,84.0375998 41.7600731,84.0591038 C42.8599417,84.0806078 43.9813763,84.4676796 45.124377,85.1988153 C46.1595474,85.8654391 46.9574913,86.7901107 47.4966425,87.9513263 C48.0357938,89.1125418 48.1867562,90.3597734 47.9495296,91.6930209 C47.712303,93.0262683 47.0868876,94.4885398 46.0732832,96.0583312 C44.5852257,98.3377543 42.9246398,99.7570178 41.0699595,100.316122 C39.2152791,100.853721 37.1880704,100.595673 35.0098993,99.5419779 L35.0098993,99.5419779 Z" id="Path"></path>
                    <polygon id="Path" points="56.5975159 80.984033 42.8599417 69.4578934 38.740826 74.3608035 35.9372395 72.0168684 46.9790573 58.8994334 49.7826439 61.2433685 45.6635282 66.1247747 59.4011024 77.6509142 56.5975159 80.984033"></polygon>
                    <polygon id="Path" points="66.3453707 69.8879732 51.6804563 54.0610353 63.4555199 43.2230234 65.9356157 45.9110224 57.3738937 53.8029874 60.6303673 57.308138 68.609806 49.9752768 71.0899018 52.6417718 63.1104631 59.974633 67.1001825 64.2754314 75.9638292 56.1039145 78.443925 58.7704095 66.3669367 69.8879732"></polygon>
                    <path d="M82.3905123,55.5663147 L70.0331653,37.8900335 L77.559717,32.6645635 C79.4575294,31.35282 80.9455869,30.5571723 82.0238894,30.2776204 C83.102192,29.9980685 84.1804945,30.0840845 85.2803631,30.5356683 C86.3586656,30.9872521 87.2644397,31.7398918 87.9976854,32.7935874 C88.9250256,34.1268349 89.2916485,35.4815864 89.11912,36.9008499 C88.9465916,38.2986093 88.1486478,39.6748648 86.7468545,40.9651043 C87.825157,40.8790883 88.8171953,40.9220963 89.7014034,41.1156322 C90.5856115,41.3091682 91.9227066,41.782256 93.7558209,42.5779037 L98.3278236,44.5132629 L94.0361796,47.4808138 L88.7524972,45.4379346 C86.8762508,44.7067989 85.6469859,44.276719 85.0431365,44.1476951 C84.4608531,44.0186711 83.9217019,44.0186711 83.4472488,44.1476951 C82.9727956,44.276719 82.3258141,44.6207829 81.5063042,45.2013907 L80.7730585,45.6959825 L85.9273446,53.0718517 L82.3473802,55.5663147 L82.3905123,55.5663147 Z M78.8321139,42.8789596 L81.4847382,41.0296163 C83.2100222,39.8468967 84.2236266,39.0082411 84.5471173,38.5781612 C84.8706081,38.1265774 85.0431365,37.6534896 85.0215704,37.1373938 C85.0000044,36.621298 84.827476,36.0836982 84.4608531,35.5676024 C84.0510982,34.9654906 83.555079,34.5999227 82.9727956,34.4493948 C82.3905123,34.2988669 81.7866629,34.3848828 81.1396814,34.6859387 C80.8161906,34.8364666 79.9319825,35.4385784 78.4870571,36.449266 L75.6834706,38.3846253 L78.8105479,42.8789596 L78.8321139,42.8789596 Z" id="Shape"></path>
                    <polygon id="Path" points="109.585302 38.4491373 100.980448 18.6869688 104.991733 16.9451455 108.377603 24.7295905 116.227646 21.3319598 112.841776 13.5475148 116.853061 11.8056915 125.457915 31.5678599 121.44663 33.3096832 117.694137 24.6650785 109.844095 28.0627092 113.596587 36.7073139 109.585302 38.4491373"></polygon>
                    <path d="M127.50669,19.5041205 C126.945973,17.3752253 126.79501,15.525882 127.032237,13.9130827 C127.226331,12.7303631 127.61452,11.6121555 128.21837,10.536956 C128.822219,9.48326037 129.555465,8.6231007 130.418107,7.95647695 C131.582674,7.0533093 133.006033,6.38668555 134.709751,5.93510173 C137.793696,5.11795004 140.511018,5.41900592 142.861718,6.83826938 C145.212417,8.25753284 146.851437,10.6659799 147.735645,14.0421066 C148.619853,17.3967293 148.404193,20.2782642 147.088664,22.6652073 C145.751569,25.0521504 143.551832,26.6434458 140.489452,27.4605975 C137.383941,28.2777492 134.666619,27.9981973 132.315919,26.5789338 C129.986786,25.1811743 128.369332,22.8157353 127.485124,19.5041205 L127.50669,19.5041205 Z M131.8199,18.213881 C132.445316,20.5793201 133.45892,22.2136235 134.882279,23.1382951 C136.305639,24.0629668 137.836828,24.2995107 139.51898,23.8694309 C141.201132,23.417847 142.430397,22.4501674 143.185209,20.966392 C143.94002,19.4826165 144.004719,17.5257533 143.357737,15.0958022 C142.732322,12.7088591 141.718717,11.0745558 140.360056,10.1713881 C139.001395,9.26822045 137.448639,9.05318053 135.701789,9.52626835 C133.954939,9.97785218 132.725674,10.9455318 131.970862,12.4293072 C131.216051,13.9130827 131.172919,15.8269379 131.798334,18.235385 L131.8199,18.213881 Z" id="Shape"></path>
                    <path d="M168.266525,14.2786505 L172.622868,15.1388102 C172.234679,17.5472573 171.350471,19.3966006 169.970243,20.7083441 C168.590016,21.9985836 166.756902,22.7942313 164.449335,23.0307752 C161.602616,23.3533351 159.144086,22.6221993 157.095311,20.880376 C155.046536,19.1385527 153.838838,16.5795776 153.450649,13.2034509 C153.06246,9.63378831 153.666309,6.7737574 155.305329,4.60185424 C156.944349,2.42995107 159.251916,1.18271955 162.271163,0.838655679 C164.902222,0.559103786 167.123525,1.09670358 168.935073,2.45145506 C170.013376,3.26860675 170.897584,4.49433428 171.566131,6.15014164 L167.382317,7.63391707 C167.015695,6.55871749 166.368713,5.7415658 165.506071,5.18246201 C164.621863,4.62335823 163.608259,4.40831831 162.465258,4.53734226 C160.86937,4.7093742 159.640105,5.41900592 158.777463,6.66623745 C157.914821,7.91346897 157.612897,9.80582024 157.893255,12.3647953 C158.19518,15.0742982 158.885293,16.9451455 160.006728,17.9988411 C161.106597,19.0310327 162.443692,19.4826165 163.996447,19.3105846 C165.139448,19.1815606 166.10992,18.7084728 166.843166,17.8913211 C167.597978,17.0741695 168.050865,15.8484419 168.244959,14.2571465 L168.266525,14.2786505 Z" id="Path"></path>
                    <polygon id="Path" points="178.596664 21.5469997 179.308343 0 183.664686 0.150527942 183.362761 9.71980428 192.4852 0.451583827 198.351166 0.645119753 189.940406 8.77362864 198.092373 22.1921195 192.442068 22.0200876 186.834895 11.7196755 183.190232 15.2033222 182.974572 21.7190317 178.61823 21.5685037"></polygon>
                    <polygon id="Path" points="201.650772 22.7297193 205.295434 1.48377543 221.081783 4.1717744 220.456368 7.76294102 208.961663 5.80607777 208.142153 10.515452 218.838914 12.3432913 218.213498 15.9129539 207.516737 14.0851146 206.524699 19.8696884 218.429159 21.9125676 217.803744 25.4822302 201.60764 22.7082153"></polygon>
                    <polygon id="Path" points="228.155448 28.4067731 230.87277 19.7406644 227.055579 5.4835179 231.929507 7.01030131 234.237074 16.6655936 241.547965 10.0208602 246.335628 11.5261396 235.013452 21.0954159 232.317696 29.7185166 228.177014 28.4282771"></polygon>
                    <polygon id="Path" points="252.481953 31.4603399 254.293501 27.7401494 261.604392 31.309812 259.792844 35.0300026"></polygon>
                    <path d="M283.94682,47.7173577 L286.621011,51.2440124 C284.723198,52.7922998 282.846952,53.5879475 280.949139,53.6524594 C279.051327,53.7169714 277.153515,53.0718517 275.277268,51.7386042 C272.926569,50.0827968 271.567907,47.9323976 271.201285,45.2659027 C270.834662,42.5994077 271.61104,39.8899047 273.57355,37.1158898 C275.643891,34.1913469 278.016157,32.4495236 280.690347,31.8904198 C283.364537,31.331316 285.930897,31.9334278 288.389427,33.6752511 C290.546032,35.2020345 291.861561,37.0728818 292.292882,39.2877929 C292.551675,40.5995364 292.400712,42.1048159 291.796863,43.8036312 L287.677747,42.1478238 C288.109068,41.0941283 288.195332,40.0619366 287.893408,39.072753 C287.613049,38.0835694 286.987634,37.2449137 286.038727,36.57829 C284.723198,35.6536183 283.342971,35.3740664 281.854914,35.7396343 C280.366856,36.1052022 278.900365,37.3309297 277.412307,39.4383209 C275.837985,41.653232 275.10474,43.5240793 275.255702,45.0508627 C275.385098,46.5561422 276.096778,47.7603657 277.390741,48.6635334 C278.339647,49.3301571 279.374818,49.609709 280.474686,49.480685 C281.574555,49.3516611 282.739122,48.7710533 283.94682,47.6743497 L283.94682,47.7173577 Z" id="Path"></path>
                    <polygon id="Path" points="286.793539 60.039145 301.372189 44.362735 304.563965 47.3302859 292.46541 60.3402009 300.423283 67.6945661 297.943187 70.361061 286.793539 60.039145"></polygon>
                    <path d="M317.632991,59.7595931 L320.415012,63.1142158 L311.400403,70.554597 C309.977043,71.7373165 309.071269,72.5329642 308.726213,72.984548 C308.165495,73.6941798 307.906703,74.4898275 307.928269,75.3714911 C307.949835,76.2531548 308.381156,77.1563224 309.157534,78.1024981 C309.955477,79.0486737 310.731855,79.6077775 311.529799,79.7798094 C312.327743,79.9303374 313.039423,79.8443214 313.686404,79.4572495 C314.333386,79.0916817 315.325424,78.360546 316.640953,77.2638424 L325.849657,69.6514293 L328.631677,73.006052 L319.897427,80.2313933 C317.891784,81.8872006 316.403726,82.9624002 315.433254,83.456992 C314.462782,83.9515838 313.49231,84.1881277 312.521837,84.1881277 C311.551365,84.1881277 310.559327,83.8870719 309.545722,83.3494721 C308.532118,82.8118723 307.475382,81.8872006 306.397079,80.5754571 C305.08155,78.9841617 304.26204,77.6294102 303.960115,76.5112027 C303.636625,75.3929951 303.593492,74.3392995 303.787587,73.3931239 C303.981681,72.4254442 304.326738,71.6082926 304.844323,70.9201648 C305.620701,69.9094772 306.93623,68.6407417 308.790911,67.1139583 L317.676123,59.7810971 L317.632991,59.7595931 Z" id="Path"></path>
                    <path d="M333.958492,80.4249292 L338.465796,87.7792944 C339.350004,89.2415658 339.953854,90.3597734 340.277344,91.1339171 C340.600835,91.9295648 340.730231,92.7252125 340.687099,93.5208602 C340.643967,94.3165079 340.428307,95.1121555 340.018552,95.8647953 C339.608797,96.617435 339.004947,97.2625547 338.207004,97.7356425 C337.344362,98.2517383 336.417021,98.5097862 335.403417,98.4882823 C334.389813,98.4667783 333.462472,98.1657224 332.621396,97.5851146 C332.988019,98.8968581 332.944887,100.101082 332.535132,101.197785 C332.125377,102.294489 331.370566,103.154648 330.313829,103.799768 C329.472753,104.315864 328.545413,104.61692 327.510243,104.702936 C326.475072,104.788952 325.526166,104.659928 324.641958,104.272856 C323.75775,103.885784 322.959806,103.240664 322.248126,102.315993 C321.795239,101.735385 320.846333,100.273114 319.379841,97.9076745 L315.541084,91.6500129 L333.980058,80.4034252 L333.958492,80.4249292 Z M325.849657,90.4672933 L320.911031,93.4778522 L323.024504,96.9184909 C323.844014,98.2517383 324.404731,99.090394 324.706656,99.3914499 C325.137977,99.8860417 325.655562,100.187098 326.259412,100.294618 C326.863261,100.402138 327.488676,100.25161 328.157224,99.8645377 C328.717941,99.5204739 329.10613,99.111898 329.321791,98.5958022 C329.537451,98.1012104 329.580583,97.5421066 329.451187,96.9184909 C329.321791,96.2948751 328.739507,95.1551635 327.704337,93.4563482 L325.871223,90.4672933 L325.849657,90.4672933 Z M333.182114,85.994463 L328.912036,88.596446 L330.400093,91.0263971 C331.284301,92.4671646 331.866585,93.3488282 332.125377,93.6928921 C332.59983,94.2734999 333.117416,94.6390677 333.699699,94.7895957 C334.281982,94.9401236 334.885832,94.8110997 335.468115,94.4670358 C336.028832,94.1229719 336.395455,93.6713881 336.567984,93.1552923 C336.740512,92.6176925 336.654248,92.0370847 336.352323,91.370461 C336.179795,90.9833891 335.532813,89.9081895 334.476077,88.1663662 L333.160548,86.037471 L333.182114,85.994463 Z" id="Shape"></path>
                    <path d="M338.746155,126.27144 L339.565665,130.357198 C337.969777,130.400206 336.58955,130.034638 335.446549,129.23899 C334.303548,128.443343 333.41934,127.260623 332.793925,125.669328 C331.823453,123.131857 331.931283,120.93845 333.117416,119.089106 C334.087888,117.626835 335.575945,116.508627 337.603154,115.734484 C340.018552,114.809812 342.175157,114.723796 344.029837,115.454932 C345.884518,116.186067 347.178481,117.519315 347.933292,119.454674 C348.774368,121.626577 348.70967,123.604945 347.760764,125.41128 C346.811858,127.217615 344.827781,128.658383 341.851666,129.733582 L338.142305,120.07829 C336.999305,120.551378 336.222927,121.196498 335.813172,122.035153 C335.403417,122.873809 335.360285,123.733969 335.705342,124.615632 C335.942568,125.217744 336.287625,125.669328 336.783644,125.94888 C337.279663,126.228432 337.926645,126.335952 338.746155,126.27144 L338.746155,126.27144 Z M342.735874,125.002704 C343.835743,124.55112 344.590555,123.927505 344.957177,123.153361 C345.3238,122.379217 345.366932,121.605073 345.065008,120.809426 C344.741517,119.97077 344.159234,119.390162 343.339724,119.067602 C342.520214,118.745042 341.571307,118.809554 340.514571,119.21813 L342.735874,124.9812 L342.735874,125.002704 Z" id="Shape"></path>
                    <polygon id="Path" points="336.762078 136.141772 340.751798 134.980556 341.894798 138.958795 337.926645 140.098506 336.762078 136.141772"></polygon>
                    <polygon id="Path" points="340.428307 150.506438 360.225941 138.915787 361.110149 143.560649 346.423669 151.904198 363.137358 154.119109 364 158.656451 341.312515 155.108293 340.449873 150.549446"></polygon>
                    <polygon id="Path" points="342.477082 162.892738 346.596197 162.441154 347.049084 166.548416 342.929969 167"></polygon>
                </g>
                <g id="Group" transform="translate(61.000000, 61.000000)" fill-rule="nonzero">
                    <circle id="Oval" fill="#ED1B2F" cx="148.5" cy="148.5" r="146.348761"></circle>
                    <path d="M148.5,297 C66.6238592,297 0,230.376141 0,148.5 C0,66.6238592 66.6023468,0 148.5,0 C230.397653,0 297,66.6238592 297,148.5 C297,230.376141 230.376141,297 148.5,297 Z M148.5,4.30247718 C68.9902216,4.30247718 4.30247718,68.9902216 4.30247718,148.5 C4.30247718,228.009778 68.9902216,292.697523 148.5,292.697523 C228.009778,292.697523 292.697523,228.009778 292.697523,148.5 C292.697523,68.9902216 228.009778,4.30247718 148.5,4.30247718 Z" id="Shape" fill="#231F20"></path>
                </g>
                <g id="Group" transform="translate(110.000000, 106.000000)">
                    <path d="M36.6248373,37.3890187 L37.0743532,36.2651869 L38.1232234,34.7091121 L40.6918853,31.8130841 L65.1369842,2.29088785 L66.7852089,0.90771028 L68.3264061,0.280957944 L69.1612212,0.237733645 L70.8736624,0.90771028 L74.1058953,4.4953271 L99.4286204,30.9702103 L100.798573,32.8288551 L101.740416,34.5794393 L102.254148,35.9626168 L102.703664,37.9293224 L102.96053,40.5876168 L101.269495,73.0490654 L101.205278,102.614486 L108.226287,111.518692 L124.10918,130.775117 C124.10918,130.775117 126.870491,134.470794 128.047795,135.724299 C130.445213,138.296145 133.22793,142.618575 135.090209,139.636098 C135.94643,138.274533 135.240048,137.907126 134.790532,136.588785 C133.634634,133.087617 137.3806,133.282126 138.408064,135.897196 C139.157257,137.799065 138.579309,140.435748 137.444816,142.121495 C136.56719,143.418224 136.010647,144.28271 133.506201,145.017523 C128.518716,146.48715 118.757801,131.423481 113.94156,125.998832 C106.663685,117.807827 101.569172,112.880257 101.569172,112.880257 L100.541707,113.766355 L99.9423527,115.560164 L99.3429983,116.597547 L98.2299115,117.656542 L96.0465489,118.218458 L94.0986469,117.851051 L93.0069656,117.073014 L91.401552,116.511098 L91.1874968,116.359813 L90.6095479,101.728388 L90.031599,99.3942757 L88.9185122,97.125 L68.4548392,74.1945093 L58.8651681,63.7558411 L47.4346228,50.442757 L44.0525513,46.6390187 L41.2698342,43.786215 L37.523869,40.6308411 L36.5606208,38.880257 L36.6034318,37.3890187 L36.6034318,37.3890187 L36.6248373,37.3890187 Z" id="Path" fill="#231F20"></path>
                    <path d="M132.821225,145.428154 C128.818393,145.428154 122.824849,137.691005 117.944391,131.423481 C116.381789,129.413551 114.926214,127.533294 113.770316,126.236565 C107.30585,118.974883 102.53242,114.241822 101.590577,113.3125 L100.798573,113.982477 L100.220624,115.711449 L99.5356479,116.856893 L98.3583446,117.959112 L98.294128,117.959112 C98.294128,117.959112 96.0679544,118.54264 96.0679544,118.54264 L93.9702139,118.132009 L92.8999381,117.375584 L91.3373354,116.813668 L90.9520361,116.554322 L90.9520361,116.42465 C90.9520361,116.42465 90.3526817,101.793224 90.3526817,101.793224 L89.7747328,99.5023364 L88.6830515,97.3195093 L68.240784,74.4106308 L58.651113,63.9719626 L47.2205676,50.6372664 L43.8384961,46.833528 L41.0557791,43.9807243 L37.2670028,40.760514 L36.2609436,38.9667056 L36.3251601,37.3025701 L36.7746759,36.1787383 L37.8449517,34.5794393 L40.4350191,31.6617991 L64.880118,2.16121495 L66.6353703,0.691588785 L68.2621895,0.0432242991 L69.1398157,0 L71.0020955,0.756425234 L74.2343284,4.34404206 L99.5570534,30.8189252 L100.948412,32.6991822 L101.91166,34.4713785 L102.446798,35.8977804 L102.917719,37.8860981 L103.174586,40.5876168 L101.48355,73.0706776 L101.419333,102.54965 L108.397531,111.367407 L124.280424,130.623832 C124.280424,130.623832 127.063141,134.319509 128.219039,135.551402 C128.647149,136.005257 129.096665,136.523949 129.524775,137.04264 C130.873323,138.620327 132.41452,140.392523 133.591823,140.392523 C133.613229,140.392523 133.65604,140.392523 133.677445,140.392523 C134.105556,140.349299 134.490855,140.068341 134.854749,139.506425 C135.411292,138.620327 135.240048,138.274533 134.918965,137.604556 C134.790532,137.34521 134.662099,137.064252 134.533666,136.696846 C133.827284,134.535631 134.918965,133.952103 135.282859,133.82243 C136.331729,133.433411 137.979954,134.168224 138.643525,135.83236 C139.456935,137.907126 138.771958,140.651869 137.658871,142.294393 C136.75984,143.612734 136.160485,144.542056 133.591823,145.298481 C133.334957,145.363318 133.078091,145.406542 132.799819,145.406542 L132.821225,145.428154 Z" id="Path" fill="#231F20" fill-rule="nonzero"></path>
                    <path d="M101.611983,112.577687 L101.783227,112.750584 C101.783227,112.750584 106.963362,117.764603 114.155615,125.869159 C115.311513,127.165888 116.788494,129.067757 118.351096,131.077687 C123.188743,137.323598 129.824453,145.860397 133.441985,144.801402 C135.817997,144.109813 136.331729,143.331776 137.18795,142.056659 C138.258226,140.478972 138.900391,137.928738 138.151198,136.026869 C137.61606,134.665304 136.267513,133.995327 135.432698,134.297897 C134.769127,134.535631 134.619288,135.356893 135.004587,136.523949 C135.111615,136.869743 135.240048,137.129089 135.368481,137.388435 C135.710969,138.101636 135.989241,138.685164 135.282859,139.808995 C134.833343,140.522196 134.319611,140.889603 133.698851,140.932827 C132.243276,141.0625 130.659268,139.182243 129.118071,137.388435 C128.668555,136.869743 128.240444,136.372664 127.83374,135.918808 C126.677842,134.665304 123.980747,131.099299 123.873719,130.948014 L107.990827,111.713201 L100.905601,102.744159 L100.905601,102.65771 L100.969817,73.0922897 L102.660853,40.6308411 L102.403987,37.9941589 L101.954471,36.0706776 L101.440739,34.7091121 L100.520302,33.0017523 L99.1717542,31.1647196 L73.8704346,4.7114486 L70.6810128,1.14544393 L69.0755991,0.518691589 L68.3478116,0.561915888 L66.8922365,1.16705607 L65.2654173,2.5286215 L40.8417239,32.0075935 L38.2516565,34.9036215 L37.2241918,36.416472 L36.817487,37.432243 L36.817487,38.8154206 C36.817487,38.8154206 37.6951131,40.4579439 37.6951131,40.4579439 L41.3982673,43.5917056 L44.2023899,46.4661215 L47.6058669,50.291472 L59.0364123,63.6045561 L68.6046778,74.0432243 L89.1111618,97.0385514 L90.2242486,99.3078271 L90.8236031,101.706776 L91.401552,116.251752 L91.5085796,116.316589 L93.1139932,116.900117 L94.1628635,117.63493 L95.9823323,117.980724 L98.0372618,117.462033 L99.0861321,116.489486 L99.664081,115.495327 L100.263435,113.679907 L101.504955,112.599299 L101.611983,112.577687 Z" id="Path" fill="#231F20" fill-rule="nonzero"></path>
                    <polygon id="Path" fill="#FFFFFF" points="58.9293847 53.7061916 60.6204204 53.2307243 63.8740588 53.1442757 67.534402 53.1442757 73.3567023 53.4900701 79.9281956 53.6629673 86.3498503 53.2307243 88.9613232 53.4468458 90.4383038 53.9007009 91.7440402 54.9596963 92.2577726 55.9106308 92.6644774 57.7692757 92.6216664 63.7774533 91.9795009 79.5110981 91.5299851 90.2091121 90.3954927 90.2091121 85.7076848 85.5408879 75.796931 74.5403037 63.9382754 60.6436916 59.8498219 55.348715 58.9293847 53.7061916"></polygon>
                    <polygon id="Path" fill="#EE3129" fill-rule="nonzero" points="90.2884652 90.4684579 90.2028431 90.3820093 85.5364407 85.713785 75.6042814 74.7132009 63.7456257 60.8165888 59.6357667 55.5216121 58.5440854 53.5332944 60.5562039 52.9713785 63.8526533 52.8849299 67.534402 52.8633178 73.3567023 53.2307243 79.9281956 53.3820093 86.3284448 52.9713785 89.0041342 53.1875 90.5881424 53.7061916 91.9795009 54.8516355 92.5146388 55.8457944 92.9213436 57.7044393 92.8785326 63.7774533 91.7868513 90.4684579"></polygon>
                    <polygon id="Path" points="59.314684 53.8574766 60.0852825 55.2190421 64.130925 60.4924065 75.9895807 74.3674065 85.9003344 85.3463785 90.5025203 89.9497664 91.2731189 89.9281542 92.3648002 63.7774533 92.4076112 57.7692757 92.0223119 55.9970794 91.5513906 55.1325935 90.3098707 54.1384346 88.8971066 53.7061916 86.3284448 53.4900701 79.9281956 53.9223131 73.3352967 53.7494159 67.5129965 53.4036215 63.8740588 53.4036215 60.6204204 53.4900701"></polygon>
                    <polygon id="Path" fill="#FFFFFF" points="61.0699362 24.9404206 61.2839914 24.5946262 61.8405348 23.9678738 64.1523305 21.7634346 67.3203468 18.9970794 68.8401384 17.7867991 69.1398157 17.635514 69.5893315 17.6571262 70.1030639 17.7435748 71.2589617 18.1974299 71.8369106 18.5216121 72.6503202 19.1483645 75.1547656 21.6121495 76.6317462 23.0601636 77.3381282 23.6220794 78.0659157 24.0759346 78.3869984 26.2371495 75.7755255 26.6910047 73.9560567 26.8422897 72.265021 26.9503505 69.7391701 27.0151869 66.7209924 26.9287383 65.2226063 26.7558411 62.9964327 26.3884346 62.1188065 26.1074766 61.4124245 25.6536215 61.1769638 25.3726636 61.0699362 24.9404206"></polygon>
                    <polygon id="Path" fill="#231F20" fill-rule="nonzero" points="69.7391701 27.2745327 66.6995869 27.1880841 65.1797953 27.0151869 62.9536216 26.6477804 62.0331845 26.3452103 61.2197749 25.8265187 60.9200976 25.4375 60.7916645 24.8971963 61.0699362 24.4433411 61.6478852 23.7949766 63.9810864 21.5689252 67.1491027 18.8025701 68.6902998 17.5922897 69.0755991 17.3761682 69.5893315 17.3977804 70.1458749 17.484229 71.3445838 17.9380841 71.9653437 18.3054907 72.8215644 18.932243 76.8029903 22.8656542 77.5093723 23.4059579 78.3013764 23.9246495 78.6652701 26.453271 75.8183366 26.9503505 73.9774622 27.1016355 72.2864265 27.2096963"></polygon>
                    <polygon id="Path" fill="#EE3129" fill-rule="nonzero" points="61.5836686 25.4591121 62.2686451 25.869743 63.0820547 26.1507009 65.2654173 26.4964953 66.7423979 26.6693925 69.7391701 26.734229 72.265021 26.6910047 73.9560567 26.5829439 75.75412 26.4316589 78.0873212 26.021028 77.830455 24.2272196 77.2096951 23.8382009 76.460502 23.2546729 72.4790761 19.3428738 71.6656665 18.7377336 71.1305286 18.4135514 70.0174418 18.0029206 69.5465205 17.916472 69.2040322 17.8948598 68.9685715 18.0245327 67.491591 19.1915888 64.3235746 21.9579439 62.0117789 24.1623832 61.476641 24.7675234 61.348208 24.9836449 61.4124245 25.2429907"></polygon>
                    <path d="M110.687922,12.1028037 C116.274761,12.1028037 120.791325,16.6629673 120.791325,22.3037383 C120.791325,27.9445093 116.274761,32.5046729 110.687922,32.5046729 C105.101082,32.5046729 100.584518,27.9445093 100.584518,22.3037383 C100.584518,16.6629673 105.101082,12.1028037 110.687922,12.1028037 L110.687922,12.1028037 L110.687922,12.1028037 Z" id="Path" fill="#231F20"></path>
                    <path d="M110.687922,32.7640187 C104.972649,32.7640187 100.327652,28.0741822 100.327652,22.3037383 C100.327652,16.5332944 104.972649,11.8434579 110.687922,11.8434579 C116.403194,11.8434579 121.048191,16.5332944 121.048191,22.3037383 C121.048191,28.0741822 116.403194,32.7640187 110.687922,32.7640187 Z" id="Path" fill="#231F20" fill-rule="nonzero"></path>
                    <path d="M110.687922,12.3621495 C105.250921,12.3621495 100.841384,16.8142523 100.841384,22.3037383 C100.841384,27.7932243 105.250921,32.2453271 110.687922,32.2453271 C116.124923,32.2453271 120.534459,27.7932243 120.534459,22.3037383 C120.534459,16.8142523 116.124923,12.3621495 110.687922,12.3621495 L110.687922,12.3621495 Z" id="Path" fill="#231F20" fill-rule="nonzero"></path>
                    <polygon id="Path" fill="#231F20" points="1.28433094 139.311916 3.83158731 136.4375 5.75808372 134.125 8.88328901 129.564836 11.1308682 126.366238 13.5496914 123.124416 17.2528456 118.326519 20.7847557 113.874416 24.616343 109.141355 26.7140836 106.266939 28.1910642 102.981893 28.64058 100.34521 28.597769 93.8399533 28.2766862 88.5449766 28.1054421 85.5408879 27.7415483 76.8528037 27.5703042 69.8936916 27.5274932 66.0899533 27.3990601 55.9106308 27.0779773 50.3563084 26.9709498 48.5625 30.0747495 51.3936916 33.9063368 55.3703271 43.9241182 66.0899533 54.5198484 77.7389019 60.4919873 84.3738318 68.6902998 93.9264019 73.3995133 98.9404206 75.796931 101.836449 77.5307778 104.602804 78.1943488 106.310164 78.3869984 107.758178 78.3869984 108.773949 78.0659157 109.098131 74.1058953 109.746495 67.3845634 110.09229 58.5226799 110.330023 51.4588597 110.675818 45.657965 110.913551 40.5848577 110.935164 39.1078772 111.086449 37.6737076 111.453855 36.5606208 111.90771 35.5973726 112.491238 34.5270968 113.3125 33.456821 114.306659 32.1938956 115.711449 30.6312929 117.721379 28.4907414 120.768692 25.6009968 124.983061 20.420862 132.396028 14.7269948 140.111565 10.7669744 144.88785 8.30534009 147.20035 7.08522569 147.740654 6.01494991 147.740654 3.78877628 147.546145 2.82552807 147.09229 1.81946883 146.271028 0.856220627 144.88785 0.363893767 143.504673 0.256866188 142.46729 0.256866188 141.170561 0.770598565 140.133178 1.28433094 139.311916"></polygon>
                    <polygon id="Path" fill="#231F20" fill-rule="nonzero" points="7.12803672 148 6.01494991 148 3.6817487 147.783879 2.71850049 147.330023 1.60541368 146.422313 0.599354439 144.974299 0.128433094 143.591121 0 142.488902 0 141.127336 0.556543408 140.025117 1.0916813 139.139019 3.63893767 136.264603 5.56543408 133.952103 8.66923385 129.413551 10.916813 126.214953 13.3356363 122.973131 17.0387905 118.175234 20.5921061 113.701519 24.4236934 108.968458 26.5000284 106.115654 27.9556035 102.917056 28.3837138 100.301986 28.3409028 93.8399533 27.8485759 85.5408879 27.4846821 76.8528037 27.313438 69.8936916 27.1421939 55.9106308 26.6712725 47.9357477 30.2459937 51.1991822 34.0989865 55.1758178 44.1167678 65.9170561 54.7124981 77.5660047 60.684637 84.2009346 68.8829495 93.7535047 73.5921629 98.7675234 75.9895807 101.663551 77.744833 104.473131 78.4298095 106.202103 78.6438646 107.714953 78.6438646 108.882009 78.1943488 109.335864 74.1487063 110.005841 67.3845634 110.351636 58.5226799 110.589369 51.4588597 110.935164 45.6793705 111.172897 40.5848577 111.194509 39.1292827 111.367407 37.7379242 111.713201 36.6676484 112.167056 35.7258057 112.70736 34.6769354 113.507009 33.6280651 114.479556 32.3865452 115.884346 30.8239426 117.872664 28.7047965 120.941589 25.8150519 125.134346 20.6349171 132.547313 14.9410499 140.26285 10.9810295 145.060748 8.41236766 147.438084"></polygon>
                    <polygon id="Path" fill="#231F20" fill-rule="nonzero" points="3.85299282 147.286799 6.03635542 147.481308 7.02100914 147.481308 8.15550148 146.984229 10.5957303 144.693341 14.5343451 139.938668 20.2282123 132.223131 25.3869416 124.831776 30.4172378 117.570093 31.9798404 115.560164 33.2641714 114.11215 34.3558527 113.117991 35.447534 112.275117 36.4321877 111.691589 37.5880855 111.216121 39.0436606 110.848715 40.5420467 110.675818 45.657965 110.654206 51.4374542 110.416472 58.5012744 110.070678 67.3631579 109.811332 74.0844898 109.48715 77.9374826 108.860397 78.1301322 108.665888 78.1301322 107.758178 77.9374826 106.331776 77.2953171 104.710864 75.5614704 101.987734 73.2068636 99.1133178 68.4976502 94.0992991 60.2993377 84.546729 54.3271988 77.9117991 43.7314685 66.2628505 33.7136872 55.5432243 29.8820999 51.5665888 27.270627 49.1676402 27.6559263 55.8890187 27.8271704 69.8936916 27.9984145 76.8528037 28.3623083 85.5192757 28.8546351 93.8399533 28.8974462 100.34521 28.4265248 103.089953 26.9495442 106.375 24.8303982 109.29264 20.9774054 114.047313 17.4454953 118.499416 13.7423411 123.297313 11.3449233 126.517523 9.09734417 129.716121 5.97213888 134.276285 4.02423695 136.610397 1.47698058 139.484813 1.00605924 140.26285 0.513732376 141.235397 0.513732376 142.46729 0.620759955 143.461449 1.0916813 144.758178 2.01211847 146.098131 2.97536668 146.89778"></polygon>
                    <polygon id="Path" fill="#FFFFFF" points="39.3647433 79.9001168 39.8570702 79.9865654 41.2270232 80.7429907 42.3829211 81.6723131 45.2940712 84.5035047 48.0767882 87.6372664 51.7585369 92.1109813 54.5198484 95.6553738 56.1680732 97.7949766 57.2597545 99.4158879 57.5808372 100.107477 57.6664593 100.561332 57.5594317 100.993575 57.1313214 101.339369 56.4035338 101.577103 53.920494 101.75 50.8809108 101.836449 46.9637014 101.75 42.9394645 101.75 41.0343736 101.360981 40.5420467 101.058411 40.1995585 100.691005 39.7928537 99.9129673 39.6216095 99.3726636 39.4931764 98.5946262 39.3861489 96.3253505 39.4289599 93.8183411 39.5359875 91.1384346 39.514582 88.5449766 39.4717709 85.994743 39.4289599 83.682243 39.4075544 81.9316589 39.3647433 79.9001168"></polygon>
                    <polygon id="Path" fill="#231F20" fill-rule="nonzero" points="50.8809108 102.095794 46.9422959 102.030958 42.9394645 102.030958 40.884535 101.598715 40.4136136 101.274533 39.9855033 100.820678 39.557393 100.04264 39.3861489 99.4591121 39.2363103 98.6378505 39.1292827 96.3469626 39.1720937 93.8183411 39.2791213 91.1384346 39.1078772 79.5759346 39.9855033 79.7704439 41.3554563 80.5268692 42.5327597 81.4778037 45.4653153 84.3306075 48.2694379 87.4643692 51.9511866 91.9380841 56.3607228 97.6436916 57.4738096 99.2646028 57.8377034 100.04264 57.944731 100.582944 57.7734868 101.14486 57.1955379 101.598715 56.4891559 101.814836 53.9418995 102.030958"></polygon>
                    <polygon id="Path" fill="#EE3129" fill-rule="nonzero" points="46.9637014 101.490654 50.8809108 101.577103 53.8990885 101.490654 56.3821283 101.317757 57.0028883 101.101636 57.323971 100.84229 57.4095931 100.561332 57.3453765 100.172313 57.0242938 99.5239486 55.954018 97.9462617 51.5444818 92.2622664 47.8841386 87.8101636 45.1014215 84.6764019 42.2116769 81.8668224 41.0557791 80.9591121 39.7714481 80.2459112 39.643015 80.2242991 39.7928537 91.1384346 39.6858261 93.8399533 39.643015 96.3469626 39.7500426 98.573014 39.8784757 99.3294393 40.0283143 99.8265187 40.4136136 100.518107 40.7346963 100.863902 41.1414011 101.123248 43.003681 101.512266"></polygon>
                </g>
                <g id="Group" transform="translate(269.000000, 204.000000)" fill="#231F20" fill-rule="nonzero">
                    <path d="M-5.68434189e-14,88.5558046 L4.17546908,88.1470193 C4.42981237,89.5670103 4.93849896,90.6212461 5.70152884,91.2882116 C6.46455872,91.9551771 7.50312717,92.2779023 8.81723419,92.2779023 C10.194927,92.2779023 11.2334955,91.9766921 11.9329395,91.3957866 C12.6323836,90.7933662 12.9927033,90.1048857 12.9927033,89.3088301 C12.9927033,88.7924697 12.8443363,88.3621694 12.5476025,88.0179292 C12.2508687,87.6521739 11.7421821,87.3509637 11.0003475,87.0927835 C10.4916609,86.9206634 9.34711605,86.5979381 7.566713,86.1461228 C5.25642808,85.5652174 3.64558721,84.8552219 2.73419041,84.0161363 C1.42008339,82.8328104 0.784225156,81.3913043 0.784225156,79.6701031 C0.784225156,78.5728373 1.080959,77.5401165 1.71681723,76.5934558 C2.33148019,75.6467952 3.22168172,74.9152846 4.36622655,74.4204393 C5.51077137,73.9255939 6.90965949,73.6674137 8.54169562,73.6674137 C11.2123002,73.6674137 13.204656,74.2698342 14.5611536,75.45316 C15.9176511,76.6364859 16.6170952,78.228597 16.680681,80.2079785 L12.3992356,80.4016136 C12.2084781,79.2828328 11.8269632,78.5082922 11.2123002,78.0134469 C10.5976372,77.5186015 9.70743572,77.2819364 8.49930507,77.2819364 C7.29117443,77.2819364 6.27380125,77.5401165 5.57435719,78.0564769 C5.12925643,78.4007172 4.89610841,78.8310175 4.89610841,79.3904079 C4.89610841,79.9067683 5.10806115,80.3370686 5.53196664,80.7028238 C6.08304378,81.1546392 7.3971508,81.6494845 9.4742877,82.1443299 C11.5514246,82.6391753 13.0986796,83.1555356 14.0948575,83.693411 C15.0910354,84.2312864 15.8752606,84.962797 16.447533,85.8879426 C17.0198054,86.8130883 17.295344,87.9533841 17.295344,89.3303451 C17.295344,90.578216 16.9562196,91.7185119 16.2779708,92.7942627 C15.599722,93.8700134 14.6459347,94.666069 13.4166088,95.2039444 C12.1872828,95.7203048 10.6400278,96 8.79603892,96 C6.10423905,96 4.04829743,95.3760645 2.60701876,94.1066786 C1.1657401,92.8372927 0.296733843,91.0085164 0.0211952745,88.5988346 L-5.68434189e-14,88.5558046 Z" id="Path"></path>
                    <path d="M21.6615705,58.908113 L21.6615705,37.3500672 L25.943016,37.3500672 L25.943016,45.8484984 C25.943016,45.8484984 34.3363447,45.8484984 34.3363447,45.8484984 L34.3363447,37.3500672 L38.6177901,37.3500672 L38.6177901,58.908113 L34.3363447,58.908113 C34.3363447,58.908113 34.3363447,49.4845361 34.3363447,49.4845361 L25.9218207,49.4845361 L25.9218207,58.908113 C25.9218207,58.908113 21.6403753,58.908113 21.6403753,58.908113 L21.6615705,58.908113 Z" id="Path"></path>
                    <path d="M56.8457262,13.9847602 L61,15.3186912 C60.3641418,17.6638279 59.304378,19.4280592 57.8207088,20.568355 C56.3370396,21.7086508 54.4506602,22.2895563 52.1827658,22.2895563 C49.3637943,22.2895563 47.0535094,21.3213805 45.2307158,19.3635141 C43.4079222,17.4056477 42.4965254,14.7377857 42.4965254,11.3384133 C42.4965254,7.74540565 43.4079222,4.96996862 45.2307158,2.96907216 C47.0535094,0.989690722 49.4485754,-1.42108547e-14 52.4371091,-1.42108547e-14 C55.0441279,-1.42108547e-14 57.14246,0.774540565 58.7744962,2.34513671 C59.7494788,3.27028238 60.4701181,4.58269834 60.9576095,6.32541461 L56.7185546,7.35813537 C56.4642113,6.23935455 55.9343294,5.35723891 55.1501042,4.71178844 C54.3446838,4.06633797 53.3908965,3.74361273 52.2463516,3.74361273 C50.6779013,3.74361273 49.3849896,4.32451815 48.4100069,5.46481398 C47.4350243,6.60510982 46.947533,8.47691618 46.947533,11.037203 C46.947533,13.76961 47.4350243,15.7059615 48.3888117,16.8677723 C49.3637943,18.0295831 50.6143155,18.6104886 52.1615705,18.6104886 C53.3061154,18.6104886 54.281098,18.2447333 55.1077137,17.5132228 C55.9343294,16.7817122 56.5277971,15.6199014 56.8669215,14.0493052 L56.8457262,13.9847602 Z" id="Path"></path>
                </g>
            </g>
        </g>
    </g>
</svg>