<?xml version="1.0" encoding="UTF-8" standalone="no"?>
<!DOCTYPE svg PUBLIC "-//W3C//DTD SVG 1.1//EN" "http://www.w3.org/Graphics/SVG/1.1/DTD/svg11.dtd">
<svg width="110px" height="64px" viewBox="0 0 110 64" version="1.1" xmlns="http://www.w3.org/2000/svg" xmlns:xlink="http://www.w3.org/1999/xlink">
    <g id="Institutionen" stroke="none" stroke-width="1" fill="none" fill-rule="evenodd">
        <g id="FSJ">
            <path d="M51.3874987,56.950125 C52.6349987,56.950125 53.3212487,57.850125 53.3212487,59.043875 C53.3212487,60.860125 51.2987487,60.922625 51.2987487,62.027625 C51.2987487,62.436375 51.5574987,62.686375 51.9674987,62.686375 C52.3324987,62.686375 52.6612487,62.490125 52.9287487,62.258875 L52.9287487,63.550125 C52.5637487,63.763875 52.1812487,63.880125 51.7537487,63.880125 C50.6137487,63.880125 49.9987487,62.962625 49.9987487,61.902625 C49.9987487,60.922625 50.4712487,60.423875 51.2362487,59.907625 C51.6112487,59.640125 52.0199987,59.443875 52.0199987,58.927625 C52.0199987,58.482625 51.6824987,58.197625 51.2549987,58.197625 C50.8624987,58.197625 50.5599987,58.340125 50.2487487,58.553875 L50.2487487,57.288875 C50.5512487,57.066375 51.0137487,56.950125 51.3874987,56.950125 Z M71.895375,57.0582375 L71.895375,60.5219875 L72.411625,60.5219875 L72.411625,61.5557375 L71.895375,61.5557375 L71.895375,62.8019875 L70.639125,62.8019875 L70.639125,61.5557375 L70.202875,61.5557375 L70.202875,60.5219875 L70.639125,60.5219875 L70.639125,57.0582375 L71.895375,57.0582375 Z M67.2538662,57.05775 L67.2538662,59.3015 C67.2538662,59.97025 67.2626162,60.5215 68.0988662,60.5215 C68.1701162,60.5215 68.2326162,60.51275 68.2951162,60.504 L68.2951162,61.724 C67.8051162,61.68025 67.5026162,61.404 67.2713662,61.0115 L67.2538662,61.0115 L67.2538662,61.55525 L65.9976162,61.55525 L65.9976162,57.05775 L67.2538662,57.05775 Z M62.301995,56.968 C63.646995,56.968 64.011995,58.153 64.011995,59.30175 C64.011995,60.4505 63.646995,61.64425 62.301995,61.64425 C60.956995,61.64425 60.591995,60.4505 60.591995,59.30175 C60.591995,58.153 60.956995,56.968 62.301995,56.968 Z M56.6268687,54.84 L56.6268687,57.565 L56.6443687,57.565 C56.8056187,57.22625 57.0631187,56.96875 57.4731187,56.96875 C58.4968687,56.96875 58.6843687,58.59 58.6843687,59.31125 C58.6843687,60.08625 58.5418687,61.64375 57.4818687,61.64375 C57.0731187,61.64375 56.7868687,61.36875 56.6443687,61.0025 L56.6268687,61.0025 L56.6268687,61.555 L55.3718687,61.555 L55.3718687,54.84 L56.6268687,54.84 Z M56.9743687,58.1175 C56.5917021,58.1175 56.5433243,58.9635667 56.5385747,59.2715044 L56.5381187,59.32875 C56.5381187,59.5775 56.5556187,60.53125 56.9831187,60.53125 C57.3931187,60.53125 57.4281187,59.5875 57.4281187,59.32875 C57.4281187,59.04375 57.4193687,58.1175 56.9743687,58.1175 Z M62.301995,58.0905 C61.8948283,58.0905 61.8524394,58.9213222 61.8485972,59.2414556 L61.848245,59.30175 C61.848245,59.5605 61.865745,60.513 62.301995,60.513 C62.7091617,60.513 62.7515506,59.6832667 62.7553928,59.3622622 L62.755745,59.30175 C62.755745,59.04425 62.738245,58.0905 62.301995,58.0905 Z" id="Sport" fill="#231F20" fill-rule="nonzero" transform="translate(61.205187, 59.360062) scale(1, -1) translate(-61.205187, -59.360062) "></path>
            <path d="M36.5575,60.063125 C36.99375,60.063125 37.35875,60.428125 37.35875,60.855625 C37.35875,61.283125 37.02,61.665625 36.58375,61.665625 C36.13,61.665625 35.765,61.328125 35.765,60.873125 C35.765,60.428125 36.12125,60.063125 36.5575,60.063125 Z M40.5047575,55.03 L40.5047575,57.82625 C40.5047575,58.0575 40.5497575,58.3425 40.8610075,58.3425 C41.2172575,58.3425 41.1547575,57.7725 41.1547575,57.55 L41.1547575,55.03 L42.4110075,55.03 L42.4110075,57.8525 C42.4110075,58.0575 42.4547575,58.36125 42.7485075,58.36125 C43.0946613,58.36125 43.0680341,57.7988831 43.0618894,57.5304808 L43.0610075,55.03 L44.3160075,55.03 L44.3160075,58.1375 C44.3160075,58.7175 44.3160075,59.61625 43.5060075,59.61625 C43.0247575,59.61625 42.6335075,59.25125 42.4285075,58.85 L42.4110075,58.85 C42.3485075,59.26 42.0985075,59.61625 41.6360075,59.61625 C41.1010075,59.61625 40.7447575,59.2425 40.5310075,58.80625 L40.5135075,58.80625 L40.5047575,59.5275 L39.2485075,59.5275 L39.2485075,55.03 L40.5047575,55.03 Z M37.19,55.030625 L37.19,59.528125 L35.93375,59.528125 L35.93375,55.030625 L37.19,55.030625 Z" id="im" fill="#231F20" fill-rule="nonzero" transform="translate(40.040504, 58.347813) scale(1, -1) translate(-40.040504, -58.347813) "></path>
            <path d="M103.276875,44.2493875 L103.276875,47.0543875 C103.276875,47.4368875 103.231875,48.0693875 103.784375,48.0693875 C104.229375,48.0693875 104.283125,47.6681375 104.283125,47.3568875 L104.283125,44.2493875 L105.120625,44.2493875 L105.120625,47.3393875 C105.120625,48.0243875 105.101875,48.8168875 104.203125,48.8168875 C103.756875,48.8168875 103.481875,48.5943875 103.294375,48.2293875 L103.276875,48.2293875 L103.276875,51.6406375 L102.439375,51.6406375 L102.439375,44.2493875 L103.276875,44.2493875 Z M93.52975,44.16 C94.696,44.16 94.84725,44.96125 94.84725,45.91375 L94.84725,50.96375 L93.95725,50.96375 L93.95725,45.95875 C93.95725,45.50375 93.94725,45.015 93.351,45.015 C93.13725,45.015 92.941,45.13875 92.7635,45.24625 L92.7635,44.3375 C92.986,44.2125 93.27975,44.16 93.52975,44.16 Z M108.379125,44.2486375 L108.379125,47.0811375 C108.379125,47.6511375 108.575375,47.9986375 109.199125,47.9986375 L109.341625,47.9886375 L109.341625,48.8173875 C108.877875,48.8173875 108.584125,48.5861375 108.387875,48.1936375 L108.370375,48.1936375 L108.370375,48.7461375 L107.532875,48.7461375 L107.532875,44.2486375 L108.379125,44.2486375 Z M98.344875,44.1780125 C98.826125,44.1780125 99.003625,44.4355125 99.173625,44.8280125 L99.191125,44.8280125 L99.191125,44.2492625 L100.028625,44.2492625 L100.028625,48.7467625 L99.191125,48.7467625 L99.191125,48.2480125 L99.173625,48.2480125 C99.022375,48.5767625 98.763625,48.8167625 98.371125,48.8167625 C97.3584076,48.8167625 97.2892157,47.4317814 97.2851135,46.6571706 L97.284875,46.5555125 C97.284875,45.8255125 97.303625,44.1780125 98.344875,44.1780125 Z M98.692375,44.9255125 C98.068625,44.9255125 98.139875,46.1280125 98.139875,46.5017625 C98.139875,46.8667625 98.068625,48.0692625 98.692375,48.0692625 C99.253625,48.0692625 99.217375,46.8580125 99.217375,46.5017625 C99.217375,46.1455125 99.253625,44.9255125 98.692375,44.9255125 Z" id="Jahr" fill="#231F20" fill-rule="nonzero" transform="translate(101.052562, 47.900319) scale(1, -1) translate(-101.052562, -47.900319) "></path>
            <path d="M77.49625,44.2494875 L77.49625,51.6407375 L76.65875,51.6407375 L76.65875,44.2494875 L77.49625,44.2494875 Z M54.9926212,44.16 C55.9813712,44.16 56.5701212,44.97 56.5701212,45.91375 C56.5701212,46.8225 56.2226212,47.2675 55.6163712,47.8825 L54.9401212,48.62125 C54.7613712,48.8525 54.6901212,49.0575 54.6901212,49.35125 C54.6901212,49.815 54.9926212,50.215 55.4826212,50.215 C55.7863712,50.215 56.0088712,50.1 56.2401212,49.93 L56.2488712,50.83 C55.9638712,50.99875 55.6438712,51.0525 55.3051212,51.0525 C54.2988712,51.0525 53.8001212,50.2775 53.8001212,49.33375 C53.8001212,47.57 55.6788712,47.30375 55.6788712,45.9675 C55.6788712,45.46875 55.4476212,45.0325 54.8951212,45.0325 C54.5476212,45.0325 54.2801212,45.18375 54.0138712,45.38 L54.0138712,44.48 C54.2901212,44.2575 54.6463712,44.16 54.9926212,44.16 Z M68.8275,49.5469875 C69.12125,49.5469875 69.38,49.7969875 69.38,50.1082375 C69.38,50.4119875 69.12125,50.6607375 68.8275,50.6607375 C68.51625,50.6607375 68.26625,50.4119875 68.26625,50.1082375 C68.26625,49.7969875 68.51625,49.5469875 68.8275,49.5469875 Z M60.0923687,44.1772375 C61.3748687,44.1772375 61.5086187,45.5397375 61.5086187,46.4834875 C61.5086187,47.4634875 61.3748687,48.8172375 60.0923687,48.8172375 C58.8098687,48.8172375 58.6761187,47.4634875 58.6761187,46.4834875 C58.6761187,45.5397375 58.8098687,44.1772375 60.0923687,44.1772375 Z M85.3706375,44.1776125 C86.1718875,44.1776125 86.6618875,44.7201125 86.6618875,45.5126125 C86.6618875,46.7951125 85.2731375,46.8313625 85.2543875,47.5876125 C85.2543875,47.8913625 85.5131375,48.0688625 85.8243875,48.0688625 C86.0293875,48.0688625 86.2881375,47.9713625 86.4481375,47.8288625 L86.4481375,48.6213625 C86.2081375,48.7638625 85.9756375,48.8176125 85.6906375,48.8176125 C84.9781375,48.8176125 84.4893875,48.3001125 84.4893875,47.5876125 C84.4893875,46.3413625 85.8956375,46.2876125 85.8956375,45.4951125 C85.8956375,45.1476125 85.7006375,44.9251125 85.3343875,44.9251125 C85.0493875,44.9251125 84.8543875,45.0413625 84.6406375,45.2101125 L84.6406375,44.3913625 C84.8893875,44.2401125 85.0768875,44.1776125 85.3706375,44.1776125 Z M72.573125,44.1778625 C73.054375,44.1778625 73.231875,44.4353625 73.401875,44.8278625 L73.419375,44.8278625 L73.419375,44.2491125 L74.256875,44.2491125 L74.256875,48.7466125 L73.419375,48.7466125 L73.419375,48.2478625 L73.401875,48.2478625 C73.250625,48.5766125 72.991875,48.8166125 72.600625,48.8166125 C71.586712,48.8166125 71.5174681,47.4316314 71.5133636,46.6570206 L71.513125,46.5553625 C71.513125,45.8253625 71.531875,44.1778625 72.573125,44.1778625 Z M81.143625,44.1767375 C82.087375,44.1767375 82.453625,44.9342375 82.453625,45.7629875 L81.678625,45.7629875 C81.678625,45.4154875 81.598625,44.9254875 81.152375,44.9254875 C80.6776875,44.9254875 80.63175,45.7159953 80.6276826,46.164843 L80.627375,46.3329875 L80.627375,46.3329875 L82.479875,46.3329875 L82.479875,46.4667375 C82.479875,47.3917375 82.337375,48.8167375 81.117375,48.8167375 C79.9302396,48.8167375 79.7831953,47.4999775 79.7730026,46.5838229 L79.772375,46.4667375 C79.772375,45.5129875 79.888625,44.1767375 81.143625,44.1767375 Z M66.1762512,44.2484875 L66.1762512,44.9959875 L64.7512512,44.9959875 L66.2562512,48.7459875 L63.6375012,48.7459875 L63.6375012,47.9984875 L65.0800012,47.9984875 L63.5212512,44.2484875 L66.1762512,44.2484875 Z M69.2375,44.2482375 L69.2375,48.7457375 L68.4,48.7457375 L68.4,44.2482375 L69.2375,44.2482375 Z M72.920625,44.9253625 C72.296875,44.9253625 72.368125,46.1278625 72.368125,46.5016125 C72.368125,46.8666125 72.296875,48.0691125 72.920625,48.0691125 C73.4488603,48.0691125 73.4489295,46.9961713 73.4471098,46.572935 L73.446875,46.5016125 C73.446875,46.1453625 73.481875,44.9253625 72.920625,44.9253625 Z M81.624875,46.9292375 L80.627375,46.9292375 C80.627375,47.2767375 80.591125,48.0692375 81.117375,48.0692375 C81.624875,48.0692375 81.624875,47.2767375 81.624875,46.9292375 Z M60.0923687,44.9434875 C59.4888393,44.9434875 59.5242027,46.0241795 59.5304514,46.4181059 L59.5311187,46.4834875 C59.5311187,46.8397375 59.4511187,48.0509875 60.0923687,48.0509875 C60.7336187,48.0509875 60.6536187,46.8397375 60.6536187,46.4834875 C60.6536187,46.1634875 60.7336187,44.9434875 60.0923687,44.9434875 Z" id="Soziales" fill="#231F20" fill-rule="nonzero" transform="translate(70.231004, 47.900369) scale(1, -1) translate(-70.231004, -47.900369) "></path>
            <path d="M41.5657575,48.7555 C41.5657575,49.103 41.5307575,49.8955 42.0557575,49.8955 C42.5632575,49.8955 42.5632575,49.103 42.5632575,48.7555 L41.5657575,48.7555 Z M26.92,46.07575 L26.92,53.467 L26.0825,53.467 L26.0825,46.07575 L26.92,46.07575 Z M30.15875,46.07575 L30.15875,53.467 L29.32125,53.467 L29.32125,46.07575 L30.15875,46.07575 Z M1.11886875,46.0748625 L1.11886875,49.1298625 L2.49011875,49.1298625 L2.49011875,49.9036125 L1.11886875,49.9036125 L1.11886875,52.0148625 L2.64136875,52.0148625 L2.64136875,52.7898625 L0.22761875,52.7898625 L0.22761875,46.0748625 L1.11886875,46.0748625 Z M32.9875,51.37325 C33.28125,51.37325 33.53875,51.62325 33.53875,51.9345 C33.53875,52.23825 33.28125,52.487 32.9875,52.487 C32.675,52.487 32.42625,52.23825 32.42625,51.9345 C32.42625,51.62325 32.675,51.37325 32.9875,51.37325 Z M23.2725,51.37325 C23.56625,51.37325 23.825,51.62325 23.825,51.9345 C23.825,52.23825 23.56625,52.487 23.2725,52.487 C22.96125,52.487 22.71125,52.23825 22.71125,51.9345 C22.71125,51.62325 22.96125,51.37325 23.2725,51.37325 Z M14.06,51.37325 C14.35375,51.37325 14.6125,51.62325 14.6125,51.9345 C14.6125,52.23825 14.35375,52.487 14.06,52.487 C13.7475,52.487 13.49875,52.23825 13.49875,51.9345 C13.49875,51.62325 13.7475,51.37325 14.06,51.37325 Z M42.0820075,46.003 C43.0270075,46.003 43.3920075,46.7605 43.3920075,47.58925 L42.6170075,47.58925 C42.6170075,47.24175 42.5370075,46.75175 42.0907575,46.75175 C41.61607,46.75175 41.5701325,47.5422578 41.5660651,47.9911055 L41.5657575,48.15925 L41.5657575,48.15925 L43.4182575,48.15925 L43.4182575,48.293 C43.4182575,49.218 43.2757575,50.643 42.0557575,50.643 C40.86982,50.643 40.7216776,49.32624 40.7113914,48.4100854 L40.7107575,48.293 C40.7107575,47.33925 40.8270075,46.003 42.0820075,46.003 Z M46.3091237,46.003875 C47.1103737,46.003875 47.6003737,46.546375 47.6003737,47.338875 C47.6003737,48.621375 46.2103737,48.657625 46.1928737,49.413875 C46.1928737,49.717625 46.4516237,49.895125 46.7628737,49.895125 C46.9678737,49.895125 47.2266237,49.797625 47.3866237,49.655125 L47.3866237,50.447625 C47.1466237,50.590125 46.9141237,50.643875 46.6291237,50.643875 C45.9166237,50.643875 45.4278737,50.126375 45.4278737,49.413875 C45.4278737,48.167625 46.8341237,48.113875 46.8341237,47.321375 C46.8341237,46.973875 46.6378737,46.751375 46.2728737,46.751375 C45.9878737,46.751375 45.7928737,46.867625 45.5791237,47.036375 L45.5791237,46.217625 C45.8278737,46.066375 46.0153737,46.003875 46.3091237,46.003875 Z M37.0627587,44.16 C37.9527587,44.16 38.4340087,44.43625 38.4340087,46.03875 L38.4340087,50.5725 L37.5877587,50.5725 L37.5877587,50.05625 L37.5702587,50.0375 C37.3915087,50.39375 37.1952587,50.64375 36.7502587,50.64375 C35.7465087,50.64375 35.6775537,49.2740972 35.6730316,48.4902756 L35.672742,48.2925 C35.672742,47.52625 35.6990087,46.00375 36.7677587,46.00375 C37.1777587,45.98625 37.4540087,46.24375 37.5702587,46.60875 L37.5877587,46.60875 L37.5877587,45.86125 C37.5877587,45.45125 37.6415087,44.9075 37.0802587,44.9075 C36.6615087,44.9075 36.5277587,45.265 36.5452587,45.585 L35.7352587,45.585 L35.7352587,45.46 C35.7352587,44.6225 36.2515087,44.16 37.0627587,44.16 Z M10.0287475,46.003 C10.9724975,46.003 11.3387475,46.7605 11.3387475,47.58925 L10.5637475,47.58925 C10.5637475,47.24175 10.4837475,46.75175 10.0374975,46.75175 C9.4949975,46.75175 9.5124975,47.78425 9.5124975,48.15925 L11.3649975,48.15925 L11.3649975,48.293 C11.3649975,49.218 11.2224975,50.643 10.0024975,50.643 C8.7637475,50.643 8.6574975,49.20925 8.6574975,48.293 C8.6574975,47.33925 8.7737475,46.003 10.0287475,46.003 Z M5.60525,46.07475 L5.60525,48.90725 C5.60525,49.47725 5.8015,49.82475 6.424,49.82475 L6.5665,49.81475 L6.5665,50.6435 C6.104,50.6435 5.81025,50.41225 5.614,50.01975 L5.5965,50.01975 L5.5965,50.57225 L4.759,50.57225 L4.759,46.07475 L5.60525,46.07475 Z M18.1357587,46.07475 L18.4645087,47.76725 L18.6607587,49.3785 L18.6782587,49.3785 L18.6957587,49.12975 L18.7670087,48.381 L19.2220087,46.07475 L19.7920087,46.07475 L20.8507587,50.57225 L20.0320087,50.57225 L19.7382587,49.02225 L19.5070087,47.3485 L19.4895087,47.3485 L19.4895087,47.43725 L18.9807587,50.57225 L18.3845087,50.57225 L18.0370087,48.746 L17.8407587,47.3485 L17.8232587,47.3485 L17.8232587,47.43725 L17.3420087,50.57225 L16.4607587,50.57225 L17.5557587,46.07475 L18.1357587,46.07475 Z M33.39625,46.0745 L33.39625,50.572 L32.55875,50.572 L32.55875,46.0745 L33.39625,46.0745 Z M23.6825,46.0745 L23.6825,50.572 L22.845,50.572 L22.845,46.0745 L23.6825,46.0745 Z M14.47,46.0745 L14.47,50.572 L13.6325,50.572 L13.6325,46.0745 L14.47,46.0745 Z M37.0802587,46.75125 C36.580994,46.75125 36.5293418,47.6032396 36.5266596,48.0931399 L36.5273461,48.2773888 C36.5275728,48.3032223 36.5277587,48.3263235 36.5277587,48.34625 C36.5277587,48.66625 36.4740087,49.895 37.0527587,49.895 C37.5325382,49.895 37.5889828,48.9383607 37.5956233,48.4625313 L37.5965087,48.30125 L37.5965087,48.30125 C37.5965087,47.93625 37.6852587,46.75125 37.0802587,46.75125 Z M10.5099975,48.7555 L9.5124975,48.7555 L9.5120412,48.9153 C9.51311972,49.3002444 9.5474975,49.8955 10.0024975,49.8955 C10.5099975,49.8955 10.5099975,49.103 10.5099975,48.7555 Z" id="Freiwilliges" fill="#231F20" transform="translate(23.913996, 48.813500) scale(1, -1) translate(-23.913996, -48.813500) "></path>
            <path d="M26.2826313,5.11819115 C38.5351313,5.74694115 37.3751313,5.55944115 54.0526313,8.20444115 C81.9188813,12.6269412 94.5763813,20.0319412 93.6113813,26.3969412 C91.8401313,38.0856912 61.3126313,41.0194412 61.3126313,41.0194412 C79.0226313,38.4194412 108.697631,39.1381912 106.887631,25.8931912 C105.762631,17.6556912 91.9976313,11.5956912 62.1863813,7.77069115 C34.1826313,4.17819115 21.1626313,5.21444115 26.2826313,5.11819115" id="Green" fill="#33B990" fill-rule="nonzero" transform="translate(66.078245, 23.034721) scale(1, -1) translate(-66.078245, -23.034721) "></path>
            <path d="M81.395375,35.95125 C69.142875,35.3225 70.302875,35.51125 53.625375,32.865 C25.759125,28.44375 13.101625,21.0375 14.066625,14.6725 C15.837875,2.98375 46.365375,0.05 46.365375,0.05 C28.655375,2.65 -1.019625,1.93125 0.790375,15.17625 C1.915375,23.415 15.680375,29.47375 45.491625,33.29875 C73.495375,36.89125 86.515375,35.855 81.395375,35.95125" id="Yellow" fill="#FBC707" fill-rule="nonzero" transform="translate(41.599761, 18.034721) scale(1, -1) translate(-41.599761, -18.034721) "></path>
            <g id="J" transform="translate(56.561936, 11.230000)">
                <path d="M11.568058,17.2505114 C11.101808,17.2367614 10.784308,17.1580114 10.616808,17.0155114 C11.701808,14.9405114 12.408058,13.5517614 12.735558,12.8492614 C13.078058,12.1655114 13.424308,11.2530114 13.771808,10.1105114 C14.134308,8.96926136 14.371808,7.94801136 14.485558,7.04676136 C14.611808,6.14551136 14.663058,5.44801136 14.638058,4.95426136 C14.603058,4.29051136 14.513058,3.67676136 14.365558,3.11301136 C14.220558,2.54926136 13.974308,2.02051136 13.628058,1.52426136 C13.281808,1.04801136 12.981808,0.739261365 12.726808,0.600511365 C12.473058,0.480511365 12.073058,0.340511365 11.525558,0.178011365 C10.979308,0.035511365 10.436808,-0.020738635 9.90055804,0.006761365 C8.94180804,0.056761365 7.91430804,0.339261365 6.82055804,0.853011365 C6.61930804,0.901761365 6.14430804,1.15551136 5.39680804,1.61301136 C4.64930804,2.08926136 3.96555804,2.65926136 3.34555804,3.31926136 C2.72430804,3.98051136 2.22180804,4.53926136 1.83805804,4.99801136 C1.45430804,5.45551136 1.26930804,5.80801136 1.28180804,6.05426136 C1.28555804,6.13051136 1.32555804,6.18551136 1.39930804,6.21926136 C1.89930804,5.73676136 2.64055804,5.03176136 3.62680804,4.10426136 C4.62680804,3.19551136 5.55930804,2.49926136 6.42305804,2.01551136 C7.28680804,1.55176136 7.96180804,1.24051136 8.44930804,1.08176136 C8.95180804,0.941761365 9.44180804,0.858011365 9.92180804,0.833011365 C10.690558,0.793011365 11.383058,0.928011365 11.995558,1.23801136 C12.610558,1.56801136 13.071808,2.03926136 13.380558,2.65051136 C13.689308,3.26301136 13.870558,4.07176136 13.923058,5.07801136 C13.974308,6.06551136 13.786808,7.33051136 13.358058,8.87676136 C12.929308,10.4217614 12.466808,11.7405114 11.970558,12.8330114 C11.488058,13.9230114 10.915558,14.9342614 10.250558,15.8630114 C9.60055804,16.8117614 8.99805804,17.2617614 8.44180804,17.2142614 L2.34680804,16.7917614 C2.27430804,16.7955114 2.01805804,16.7705114 1.57930804,16.7180114 C1.13930804,16.6642614 0.810558036,16.6430114 0.593058036,16.6555114 C0.185558036,16.6767614 -0.0119419643,16.8005114 0.000558035714,17.0292614 C0.0118080357,17.2567614 1.01055804,17.4042614 2.99430804,17.4717614 C4.97930804,17.5380114 7.36055804,17.6992614 10.141808,17.9530114 C10.141808,17.9530114 12.050558,17.2817614 11.568058,17.2505114" fill="#231F20" fill-rule="nonzero" transform="translate(7.322106, 8.976506) scale(1, -1) translate(-7.322106, -8.976506) "></path>
                <path d="M11.568058,17.2505114 C11.101808,17.2367614 10.784308,17.1580114 10.616808,17.0155114 C11.701808,14.9405114 12.408058,13.5517614 12.735558,12.8492614 C13.078058,12.1655114 13.424308,11.2530114 13.771808,10.1105114 C14.134308,8.96926136 14.371808,7.94801136 14.485558,7.04676136 C14.611808,6.14551136 14.663058,5.44801136 14.638058,4.95426136 C14.603058,4.29051136 14.513058,3.67676136 14.365558,3.11301136 C14.220558,2.54926136 13.974308,2.02051136 13.628058,1.52426136 C13.281808,1.04801136 12.981808,0.739261365 12.726808,0.600511365 C12.473058,0.480511365 12.073058,0.340511365 11.525558,0.178011365 C10.979308,0.035511365 10.436808,-0.020738635 9.90055804,0.006761365 C8.94180804,0.056761365 7.91430804,0.339261365 6.82055804,0.853011365 C6.61930804,0.901761365 6.14430804,1.15551136 5.39680804,1.61301136 C4.64930804,2.08926136 3.96555804,2.65926136 3.34555804,3.31926136 C2.72430804,3.98051136 2.22180804,4.53926136 1.83805804,4.99801136 C1.45430804,5.45551136 1.26930804,5.80801136 1.28180804,6.05426136 C1.28555804,6.13051136 1.32555804,6.18551136 1.39930804,6.21926136 C1.89930804,5.73676136 2.64055804,5.03176136 3.62680804,4.10426136 C4.62680804,3.19551136 5.55930804,2.49926136 6.42305804,2.01551136 C7.28680804,1.55176136 7.96180804,1.24051136 8.44930804,1.08176136 C8.95180804,0.941761365 9.44180804,0.858011365 9.92180804,0.833011365 C10.690558,0.793011365 11.383058,0.928011365 11.995558,1.23801136 C12.610558,1.56801136 13.071808,2.03926136 13.380558,2.65051136 C13.689308,3.26301136 13.870558,4.07176136 13.923058,5.07801136 C13.974308,6.06551136 13.786808,7.33051136 13.358058,8.87676136 C12.929308,10.4217614 12.466808,11.7405114 11.970558,12.8330114 C11.488058,13.9230114 10.915558,14.9342614 10.250558,15.8630114 C9.60055804,16.8117614 8.99805804,17.2617614 8.44180804,17.2142614 L2.34680804,16.7917614 C2.27430804,16.7955114 2.01805804,16.7705114 1.57930804,16.7180114 C1.13930804,16.6642614 0.810558036,16.6430114 0.593058036,16.6555114 C0.185558036,16.6767614 -0.0119419643,16.8005114 0.000558035714,17.0292614 C0.0118080357,17.2567614 1.01055804,17.4042614 2.99430804,17.4717614 C4.97930804,17.5380114 7.36055804,17.6992614 10.141808,17.9530114 C10.141808,17.9530114 12.050558,17.2817614 11.568058,17.2505114 Z" stroke="#231F20" stroke-width="0.961249988" transform="translate(7.322106, 8.976506) scale(1, -1) translate(-7.322106, -8.976506) "></path>
            </g>
            <g id="S" transform="translate(42.902110, 10.520000)">
                <path d="M10.8893895,16.6769786 C8.44313951,17.5369786 4.43688951,17.5832286 4.43688951,14.9882286 C4.43688951,11.6807286 9.43063951,13.0119786 11.7056395,10.5682286 C14.2231395,7.86447859 12.5743895,3.79572859 9.80188951,1.37072859 C6.80188951,-1.25177141 0.651889515,0.0357285937 0.0143895146,3.98072859 C-0.176860485,5.16322859 1.59813951,5.45072859 1.78938951,4.26697859 C2.22938951,1.54072859 6.54438951,0.910728594 8.61813951,2.72322859 C10.6406395,4.49322859 12.2268895,7.37072859 10.3893895,9.34322859 C7.82688951,12.0969786 2.63938951,11.2607286 2.63938951,14.9882286 C2.63938951,18.6732286 8.01188951,19.5932286 11.4856395,18.3732286 C12.6156395,17.9757286 12.0193895,16.2794786 10.8893895,16.6769786" fill="#231F20" fill-rule="nonzero" transform="translate(6.474265, 9.440612) scale(1, -1) translate(-6.474265, -9.440612) "></path>
                <path d="M10.8893895,16.6769786 C8.44313951,17.5369786 4.43688951,17.5832286 4.43688951,14.9882286 C4.43688951,11.6807286 9.43063951,13.0119786 11.7056395,10.5682286 C14.2231395,7.86447859 12.5743895,3.79572859 9.80188951,1.37072859 C6.80188951,-1.25177141 0.651889515,0.0357285937 0.0143895146,3.98072859 C-0.176860485,5.16322859 1.59813951,5.45072859 1.78938951,4.26697859 C2.22938951,1.54072859 6.54438951,0.910728594 8.61813951,2.72322859 C10.6406395,4.49322859 12.2268895,7.37072859 10.3893895,9.34322859 C7.82688951,12.0969786 2.63938951,11.2607286 2.63938951,14.9882286 C2.63938951,18.6732286 8.01188951,19.5932286 11.4856395,18.3732286 C12.6156395,17.9757286 12.0193895,16.2794786 10.8893895,16.6769786 Z" id="S-Copy" stroke="#231F20" stroke-width="0.5" transform="translate(6.474265, 9.440612) scale(1, -1) translate(-6.474265, -9.440612) "></path>
            </g>
            <g id="F" transform="translate(32.201004, 10.620000)">
                <path d="M11.21,18.76625 C11.3575,18.61875 11.43125,18.48 11.43125,18.35125 C11.43125,18.00125 10.905,17.64125 9.85375,17.27125 C8.80125,16.9025 7.5375,16.62625 6.06125,16.44125 C4.60375,16.25625 3.41375,15.90625 2.49,15.39 C1.7525,14.8725 1.005,14.365 0.24875,13.8675 C0.15625,13.8675 0.07375,13.90375 2.39808173e-14,13.9775 C0.55375,14.5125 1.0975,15.0575 1.6325,15.61125 C3.035,16.57 4.355,17.115 5.59125,17.24375 C6.84625,17.37375 8.06375,17.68625 9.245,18.185 C10.42625,18.68375 11.08125,18.8775 11.21,18.76625 M11.73625,10.185 C11.73625,9.835 11.5425,9.61375 11.155,9.52125 C10.785,9.42875 9.40125,9.3825 7.0025,9.3825 C6.30125,9.30875 5.61,9.22625 4.92625,9.13375 C4.2625,9.06 3.88375,8.995 3.79125,8.94 C3.7,8.885 3.6525,8.7925 3.6525,8.66375 C3.6525,8.62625 3.67125,8.47 3.70875,8.1925 C3.745,7.91625 3.76375,7.6575 3.76375,7.4175 L3.76375,7.085 C3.7825,6.18125 3.80125,5.28625 3.82,4.4 C3.8375,3.515 3.865,2.96125 3.9025,2.74 C4.05,2.1675 4.1425,1.78875 4.17875,1.605 C4.21625,1.42 4.235,1.1625 4.235,0.83 C4.235,0.59 4.20625,0.31375 4.15125,-3.90798505e-14 C3.70875,-3.90798505e-14 3.40375,0.38625 3.2375,1.1625 C3.0725,1.9375 2.98875,3.10875 2.98875,4.6775 L2.98875,6.2825 C3.0075,6.8175 3.02625,7.3625 3.04375,7.91625 C3.04375,8.41375 2.9425,8.6725 2.74,8.69125 C2.53625,8.7275 2.30625,8.765 2.0475,8.80125 C1.8625,8.875 1.77125,8.995 1.77125,9.16125 C1.77125,9.365 1.835,9.46625 1.965,9.46625 C2.1125,9.42875 2.2225,9.41 2.29625,9.41 C2.445,9.41 2.555,9.49375 2.62875,9.66 C2.72125,9.825 2.7675,10.1575 2.7675,10.65625 C2.7675,11.09875 2.73,11.57 2.65625,12.0675 C2.60125,12.56625 2.4625,13.03625 2.24125,13.48 C2.03875,13.94125 1.9375,14.23625 1.9375,14.365 C1.9375,14.605 2.085,14.7525 2.38,14.80875 C2.86,14.9 3.1825,14.27375 3.34875,12.92625 C3.5325,11.5975 3.625,10.74875 3.625,10.37875 C3.64375,10.01 3.70875,9.7975 3.82,9.7425 L6.145,9.99125 C7.085,9.99125 7.94375,10.05625 8.71875,10.185 C9.5125,10.315 10.325,10.45375 11.155,10.60125 C11.5425,10.60125 11.73625,10.4625 11.73625,10.185" fill="#231F20" transform="translate(5.868125, 9.398342) scale(1, -1) translate(-5.868125, -9.398342) "></path>
                <path d="M11.21,18.76625 C11.3575,18.61875 11.43125,18.48 11.43125,18.35125 C11.43125,18.00125 10.905,17.64125 9.85375,17.27125 C8.80125,16.9025 7.5375,16.62625 6.06125,16.44125 C4.60375,16.25625 3.41375,15.90625 2.49,15.39 C1.7525,14.8725 1.005,14.365 0.24875,13.8675 C0.15625,13.8675 0.07375,13.90375 0,13.9775 C0.55375,14.5125 1.0975,15.0575 1.6325,15.61125 C3.035,16.57 4.355,17.115 5.59125,17.24375 C6.84625,17.37375 8.06375,17.68625 9.245,18.185 C10.42625,18.68375 11.08125,18.8775 11.21,18.76625 Z M11.73625,10.185 C11.73625,9.835 11.5425,9.61375 11.155,9.52125 C10.785,9.42875 9.40125,9.3825 7.0025,9.3825 C6.30125,9.30875 5.61,9.22625 4.92625,9.13375 C4.2625,9.06 3.88375,8.995 3.79125,8.94 C3.7,8.885 3.6525,8.7925 3.6525,8.66375 C3.6525,8.62625 3.67125,8.47 3.70875,8.1925 C3.745,7.91625 3.76375,7.6575 3.76375,7.4175 L3.76375,7.085 C3.7825,6.18125 3.80125,5.28625 3.82,4.4 C3.8375,3.515 3.865,2.96125 3.9025,2.74 C4.05,2.1675 4.1425,1.78875 4.17875,1.605 C4.21625,1.42 4.235,1.1625 4.235,0.83 C4.235,0.59 4.20625,0.31375 4.15125,0 C3.70875,0 3.40375,0.38625 3.2375,1.1625 C3.0725,1.9375 2.98875,3.10875 2.98875,4.6775 L2.98875,6.2825 C3.0075,6.8175 3.02625,7.3625 3.04375,7.91625 C3.04375,8.41375 2.9425,8.6725 2.74,8.69125 C2.53625,8.7275 2.30625,8.765 2.0475,8.80125 C1.8625,8.875 1.77125,8.995 1.77125,9.16125 C1.77125,9.365 1.835,9.46625 1.965,9.46625 C2.1125,9.42875 2.2225,9.41 2.29625,9.41 C2.445,9.41 2.555,9.49375 2.62875,9.66 C2.72125,9.825 2.7675,10.1575 2.7675,10.65625 C2.7675,11.09875 2.73,11.57 2.65625,12.0675 C2.60125,12.56625 2.4625,13.03625 2.24125,13.48 C2.03875,13.94125 1.9375,14.23625 1.9375,14.365 C1.9375,14.605 2.085,14.7525 2.38,14.80875 C2.86,14.9 3.1825,14.27375 3.34875,12.92625 C3.5325,11.5975 3.625,10.74875 3.625,10.37875 C3.64375,10.01 3.70875,9.7975 3.82,9.7425 L6.145,9.99125 C7.085,9.99125 7.94375,10.05625 8.71875,10.185 C9.5125,10.315 10.325,10.45375 11.155,10.60125 C11.5425,10.60125 11.73625,10.4625 11.73625,10.185 L11.73625,10.185 Z" stroke="#231F20" stroke-width="1.06749996" transform="translate(5.868125, 9.398342) scale(1, -1) translate(-5.868125, -9.398342) "></path>
            </g>
        </g>
    </g>
</svg>