<?xml version="1.0" encoding="UTF-8"?>
<svg width="575.93" height="211.83" enable-background="new 0 0 566.929 203.831" fill="#fff" version="1.1" viewBox="0 0 575.93 211.83" xml:space="preserve" xmlns="http://www.w3.org/2000/svg">
<g transform="translate(4.6155 4.6155)" fill="#000">
	<path d="m566.63 189.7v-5.467h-13.034v4.617h7.619v2.006c0 2.303-0.5 4.106-1.805 5.611-1.4 1.608-3.457 2.506-5.814 2.506-2.108 0-4.009-0.804-5.267-2.156-1.751-1.904-2.155-3.959-2.155-11.127 0-7.172 0.404-9.174 2.155-11.078 1.258-1.354 3.157-2.205 5.267-2.205 4.011 0 6.617 2.305 7.52 6.215h5.466c-1.006-6.119-5.414-11.084-12.984-11.084-3.807 0-6.922 1.354-9.377 3.812-3.51 3.512-3.455 7.473-3.455 14.34s-0.055 10.83 3.455 14.336c2.455 2.459 5.666 3.809 9.377 3.809 3.759 0 7.119-1.202 9.828-4.057 2.35-2.506 3.204-5.467 3.204-10.078m-33.668 13.837v-35.7h-5.416v25.072l-16.496-25.072h-4.961v35.699h5.416v-25.119l16.492 25.119zm-35.354-12.032v-23.668h-5.415v23.419c0 4.762-2.959 7.717-7.422 7.717-4.46 0-7.367-2.955-7.367-7.717v-23.419h-5.415v23.666c0 7.371 5.516 12.33 12.782 12.33 7.274 1e-3 12.837-4.958 12.837-12.328m-31.617-18.802v-4.864h-25.066v4.864h9.828v30.834h5.415v-30.834zm-29.692 20.653c0-3.055-0.953-5.611-2.905-7.312-1.507-1.358-3.361-2.157-6.673-2.659l-4.057-0.603c-1.656-0.25-3.109-0.852-4.014-1.654-0.947-0.852-1.354-2.008-1.354-3.311 0-3.158 2.306-5.564 6.517-5.564 3.008 0 5.569 0.652 7.774 2.761l3.455-3.408c-3.057-2.863-6.363-4.066-11.08-4.066-7.416 0-11.932 4.265-11.932 10.482 0 2.904 0.852 5.16 2.609 6.813 1.553 1.457 3.858 2.459 6.766 2.859l4.211 0.603c2.109 0.301 3.01 0.651 3.914 1.504 0.949 0.854 1.4 2.155 1.4 3.713 0 3.459-2.705 5.461-7.367 5.461-3.66 0-6.519-0.803-9.127-3.408l-3.609 3.559c3.412 3.461 7.271 4.711 12.635 4.711 7.47-3e-3 12.837-3.909 12.837-10.481m-31.674-25.519h-5.416v35.695h5.416zm-12.269 35.7v-4.864h-17.396v-10.73h14.838v-4.809h-14.838v-10.431h17.396v-4.864h-22.812v35.698zm-29.067 0v-4.864h-17.198v-30.836h-5.415v35.699zm-42.563 0v-4.864h-17.398v-10.73h14.844v-4.809h-14.844v-10.431h17.398v-4.864h-22.81v35.698zm-35.921-25.216c0 3.51-2.458 5.564-6.066 5.564h-8.021v-11.183h8.021c3.608 1e-3 6.066 2.107 6.066 5.619m6.519 25.216-8.223-15.793c4.011-1.1 7.119-4.36 7.119-9.477 0-6.062-4.312-10.43-11.078-10.43h-13.838v35.698h5.414v-15.041h6.768l7.518 15.041zm-32.874 0v-4.864h-17.395v-10.73h14.839v-4.809h-14.839v-10.431h17.395v-4.864h-22.81v35.698zm-36.32-25.72c0 3.311-2.357 5.115-5.819 5.115h-8.019v-10.229h8.019c3.461 0 5.819 1.805 5.819 5.114m0.549 15.388c0 3.16-2.104 5.468-5.863 5.468h-8.523v-10.882h8.523c3.761 0 5.863 2.262 5.863 5.414m5.415 0.254c0-4.512-2.608-7.168-5.363-8.271 2.406-0.955 4.81-3.709 4.81-7.568 0-6.016-4.157-9.78-10.775-9.78h-13.888v35.698h14.438c6.316-1e-3 10.778-3.512 10.778-10.079m-33.696-1.954v-23.668h-5.415v23.419c0 4.762-2.962 7.717-7.425 7.717-4.46 0-7.367-2.955-7.367-7.717v-23.419h-5.414v23.666c0 7.371 5.517 12.33 12.781 12.33 7.27 1e-3 12.84-4.958 12.84-12.328m-39.189 0.25h-10.979l5.565-15.841zm9.727 11.782-13.088-35.698h-4.358l-13.088 35.698h5.767l2.459-7.172h14.089l2.453 7.172zm-33.893-10.181c0-3.055-0.954-5.611-2.907-7.312-1.507-1.358-3.361-2.157-6.673-2.659l-4.061-0.603c-1.652-0.25-3.104-0.852-4.011-1.654-0.954-0.852-1.354-2.008-1.354-3.311 0-3.158 2.306-5.564 6.518-5.564 3.008 0 5.564 0.652 7.773 2.761l3.455-3.408c-3.056-2.863-6.366-4.066-11.078-4.066-7.418 0-11.933 4.265-11.933 10.482 0 2.904 0.852 5.16 2.608 6.813 1.554 1.457 3.858 2.459 6.766 2.859l4.213 0.603c2.104 0.301 3.008 0.651 3.907 1.504 0.954 0.854 1.405 2.155 1.405 3.713 0 3.459-2.705 5.461-7.368 5.461-3.663 0-6.517-0.803-9.125-3.408l-3.609 3.559c3.412 3.461 7.271 4.711 12.635 4.711 7.47-3e-3 12.839-3.909 12.839-10.481m-48.18-15.035c0 3.51-2.454 5.564-6.068 5.564h-8.019v-11.183h8.019c3.614 1e-3 6.068 2.107 6.068 5.619m6.516 25.216-8.221-15.793c4.01-1.1 7.119-4.36 7.119-9.477 0-6.062-4.312-10.43-11.079-10.43h-13.838v35.698h5.414v-15.041h6.767l7.522 15.041zm-50.446-44.822h-4.61v5.416h4.61zm10.829 0h-4.61v5.416h4.61zm5.117 32.79v-23.668h-5.415v23.419c0 4.762-2.958 7.717-7.422 7.717-4.46 0-7.367-2.955-7.367-7.717v-23.419h-5.415v23.666c0 7.371 5.517 12.33 12.782 12.33 7.269 1e-3 12.837-4.958 12.837-12.328m-31.782-18.802v-4.864h-22.807v35.698h5.414v-15.088h14.839v-4.869h-14.839v-10.877z"/>
	<path d="m106.7 15.846c-13.732-11.553-28.129-15.83-42.331-15.77l-64.37-0.07v128.85l38.639 0.01v-90.176l25.798-0.014c5.631 0 11.339 1.959 15.84 5.504 5.791 4.564 9.893 12.08 9.868 19.139l0.047 65.664h38.685v-64.596c-0.131-19.562-9.88-38.195-22.176-48.545"/>
	<path d="m206.17 6e-3c-35.574 0-64.415 28.846-64.415 64.426 0 35.582 28.841 64.424 64.415 64.424h64.413v-64.066c0-11.675-3.096-23.072-8.668-32.609-11.764-20.147-32.942-32.175-55.745-32.175m25.724 90.053-25.725 4e-3c-14.444-0.041-25.746-11.473-25.746-25.631 0-14.152 11.387-25.775 25.746-25.752 8.902 0.021 16.998 4.588 21.394 11.432 2.618 4.08 4.289 7.943 4.342 15.041z"/>
	<path d="m361.07 1e-3h-64.657v128.85h64.88c17.045 0 32.545-6.943 43.775-17.569 12.551-11.877 20.143-28.785 20.143-46.5v-0.716c8e-3 -34.114-28.057-63.96-64.141-64.069m25.58 64.507c0 13.4-10.394 24.604-23.521 25.57l-28.126 0.026 0.062-51.438 26.986 0.069v0.074c13.125 0.965 24.599 12.017 24.599 25.42z"/>
	<path d="m558.26 32.18c-11.762-20.15-32.94-32.18-55.747-32.18-35.571 0-64.411 28.846-64.411 64.428 0 35.586 28.84 64.428 64.411 64.428h64.416v-64.07c0-11.676-3.095-23.075-8.669-32.606m-30.019 57.875-25.728 4e-3c-14.443-0.043-25.742-11.473-25.742-25.631 0-14.152 11.386-25.777 25.742-25.754 8.905 0.02 17.001 4.588 21.396 11.432 2.619 4.08 4.289 7.949 4.342 15.047z"/>
</g>
</svg>
