<?xml version="1.0" encoding="UTF-8" standalone="no"?>
<!DOCTYPE svg PUBLIC "-//W3C//DTD SVG 1.0//EN" "http://www.w3.org/TR/2001/REC-SVG-20010904/DTD/svg10.dtd">
<svg width="2499px" height="344px" viewBox="0 0 2499 344" version="1.1" xmlns="http://www.w3.org/2000/svg" xmlns:xlink="http://www.w3.org/1999/xlink">
    <defs>
        <polygon id="path-5cfsfzef0e-1" points="0 343.555 2498.615 343.555 2498.615 0 0 0"></polygon>
    </defs>
    <g id="Institutions" stroke="none" stroke-width="1" fill="none" fill-rule="evenodd">
        <g id="Artboard">
            <polygon id="Fill-1" fill="#FEFEFE" points="0 343.555 2498.614 343.555 2498.614 0.001 0 0.001"></polygon>
            <g id="Group-36">
                <path d="M1055.3575,151.9219 C1052.1325,149.9829 1048.7975,148.2629 1045.3575,146.7609 C1042.4565,145.4709 1039.1995,144.2589 1035.5985,143.1329 C1031.9985,141.9999 1028.4755,141.4369 1025.0355,141.4369 C1022.2405,141.4369 1020.0075,141.8669 1018.3425,142.7269 C1016.6765,143.5869 1015.8445,145.0409 1015.8445,147.0819 C1015.8445,148.5909 1016.3295,149.8269 1017.2945,150.7879 C1018.2645,151.7579 1019.6595,152.6489 1021.4895,153.4549 C1023.3155,154.2599 1025.5475,155.0419 1028.1825,155.7919 C1030.8135,156.5429 1033.8005,157.4579 1037.1315,158.5289 C1042.3975,160.1479 1047.1555,161.9219 1051.4045,163.8539 C1055.6505,165.7929 1059.2785,168.0759 1062.2935,170.7109 C1065.2995,173.3459 1067.6135,176.5439 1069.2245,180.3049 C1070.8395,184.0659 1071.6445,188.6399 1071.6445,194.0119 C1071.6445,200.8919 1070.3815,206.6709 1067.8565,211.3459 C1065.3265,216.0299 1061.9955,219.7669 1057.8555,222.5589 C1053.7155,225.3579 1049.0395,227.3749 1043.8245,228.6029 C1038.6095,229.8379 1033.3665,230.4639 1028.1005,230.4639 C1023.9095,230.4639 1019.6055,230.1349 1015.1995,229.4939 C1010.7895,228.8449 1006.4065,227.9379 1002.0515,226.7499 C997.6965,225.5689 993.5055,224.1689 989.4705,222.5589 C985.4405,220.9479 981.7025,219.1179 978.2625,217.0779 L991.8085,189.4999 C995.5735,191.8609 999.4945,193.9569 1003.5845,195.7869 C1007.0245,197.3969 1010.9265,198.8519 1015.2815,200.1419 C1019.6325,201.4319 1024.0695,202.0729 1028.5855,202.0729 C1032.0255,202.0729 1034.4145,201.6199 1035.7635,200.7049 C1037.1045,199.7899 1037.7765,198.5859 1037.7765,197.0769 C1037.7765,195.4659 1037.1045,194.0899 1035.7635,192.9639 C1034.4145,191.8379 1032.5615,190.8449 1030.1965,189.9849 C1027.8305,189.1249 1025.1175,188.2649 1022.0525,187.3969 C1018.9875,186.5439 1015.7345,185.5199 1012.2945,184.3399 C1007.2355,182.6189 1002.8845,180.7659 999.2285,178.7719 C995.5735,176.7859 992.5635,174.5269 990.1975,172.0009 C987.8325,169.4759 986.0855,166.5979 984.9555,163.3689 C983.8255,160.1479 983.2625,156.4339 983.2625,152.2429 C983.2625,145.9009 984.4155,140.3109 986.7305,135.4709 C989.0405,130.6309 992.1835,126.5999 996.1635,123.3749 C1000.1395,120.1499 1004.6865,117.7059 1009.7965,116.0369 C1014.9025,114.3709 1020.3055,113.5389 1026.0055,113.5389 C1030.1965,113.5389 1034.2815,113.9409 1038.2615,114.7469 C1042.2375,115.5519 1046.0845,116.5759 1049.7945,117.8119 C1053.5005,119.0469 1056.9685,120.3919 1060.1935,121.8419 C1063.4185,123.2929 1066.3235,124.6649 1068.9035,125.9549 L1055.3575,151.9219 Z" id="Fill-2" fill="#002744"></path>
                <path d="M1115.3527,166.4339 L1131.9607,166.4339 C1133.8957,166.4339 1135.6977,165.5499 1137.3627,163.7759 C1139.0287,162.0009 1139.8657,158.8029 1139.8657,154.1819 C1139.8657,149.4509 1138.8957,146.2219 1136.9607,144.5019 C1135.0257,142.7819 1133.0897,141.9209 1131.1547,141.9209 L1115.3527,141.9209 L1115.3527,166.4339 Z M1083.9007,229.0089 L1083.9007,114.5039 L1133.2507,114.5039 C1138.8407,114.5039 1144.0017,115.6609 1148.7357,117.9719 C1153.4667,120.2859 1157.5247,123.2929 1160.9097,127.0029 C1164.2957,130.7089 1166.9577,134.9629 1168.8937,139.7479 C1170.8287,144.5329 1171.8017,149.3419 1171.8017,154.1819 C1171.8017,159.2329 1170.8837,164.1509 1169.0537,168.9359 C1167.2237,173.7209 1164.6747,177.9669 1161.3947,181.6729 C1158.1147,185.3869 1154.1387,188.3429 1149.4587,190.5479 C1144.7837,192.7529 1139.6467,193.8549 1134.0597,193.8549 L1115.3527,193.8549 L1115.3527,229.0089 L1083.9007,229.0089 Z" id="Fill-4" fill="#002744"></path>
                <path d="M1210.8226,171.915 C1210.8226,175.785 1211.3616,179.523 1212.4376,183.127 C1213.5126,186.732 1215.1226,189.93 1217.2776,192.721 C1219.4236,195.521 1222.1406,197.78 1225.4206,199.493 C1228.6966,201.221 1232.5946,202.073 1237.1136,202.073 C1241.6296,202.073 1245.5506,201.189 1248.8856,199.414 C1252.2166,197.639 1254.9376,195.333 1257.0326,192.479 C1259.1286,189.633 1260.6766,186.38 1261.7086,182.721 C1262.7246,179.069 1263.2406,175.363 1263.2406,171.594 C1263.2406,167.724 1262.6936,163.987 1261.6306,160.39 C1260.5516,156.785 1258.9096,153.611 1256.7046,150.874 C1254.4996,148.13 1251.7586,145.925 1248.4826,144.259 C1245.2026,142.594 1241.3596,141.757 1236.9496,141.757 C1232.4346,141.757 1228.5366,142.625 1225.2566,144.337 C1221.9766,146.058 1219.2636,148.349 1217.1126,151.195 C1214.9626,154.041 1213.3756,157.27 1212.3546,160.875 C1211.3346,164.471 1210.8226,168.154 1210.8226,171.915 M1236.7896,229.979 C1228.0786,229.979 1220.1776,228.313 1213.0826,224.975 C1205.9866,221.644 1199.9116,217.265 1194.8566,211.831 C1189.8016,206.405 1185.8796,200.196 1183.0846,193.206 C1180.2896,186.216 1178.8936,179.015 1178.8936,171.594 C1178.8936,164.073 1180.3436,156.817 1183.2446,149.826 C1186.1496,142.836 1190.2076,136.683 1195.4226,131.358 C1200.6346,126.037 1206.8196,121.791 1213.9696,118.617 C1221.1166,115.446 1228.9396,113.859 1237.4346,113.859 C1246.1446,113.859 1254.0456,115.528 1261.1456,118.859 C1268.2456,122.194 1274.3126,126.6 1279.3636,132.085 C1284.4146,137.566 1288.3246,143.806 1291.0616,150.788 C1293.7976,157.778 1295.1736,164.933 1295.1736,172.243 C1295.1736,179.765 1293.7196,186.998 1290.8106,193.933 C1287.9176,200.869 1283.8836,206.999 1278.7226,212.316 C1273.5626,217.64 1267.4006,221.91 1260.2546,225.139 C1253.0996,228.36 1245.2806,229.979 1236.7896,229.979" id="Fill-6" fill="#002744"></path>
                <path d="M1340.0001,166.4339 L1359.8371,166.4339 C1361.7761,166.4339 1363.5741,165.3629 1365.2401,163.2129 C1366.9051,161.0619 1367.7421,158.0519 1367.7421,154.1819 C1367.7421,150.2019 1366.7721,147.1599 1364.8411,145.0649 C1362.9021,142.9689 1360.9711,141.9209 1359.0311,141.9209 L1340.0001,141.9209 L1340.0001,166.4339 Z M1308.5521,229.0089 L1308.5521,114.5039 L1361.1271,114.5039 C1366.7181,114.5039 1371.8781,115.6609 1376.6091,117.9719 C1381.3391,120.2859 1385.3971,123.2929 1388.7911,127.0029 C1392.1761,130.7089 1394.8351,134.9629 1396.7741,139.7479 C1398.7051,144.5329 1399.6751,149.3419 1399.6751,154.1819 C1399.6751,160.8429 1398.2201,167.0519 1395.3191,172.8059 C1392.4191,178.5609 1388.3841,183.2599 1383.2231,186.9199 L1407.4151,229.0089 L1371.9331,229.0089 L1351.7761,193.8549 L1340.0001,193.8549 L1340.0001,229.0089 L1308.5521,229.0089 Z" id="Fill-8" fill="#002744"></path>
                <polygon id="Fill-10" fill="#002744" points="1504.9966 141.9214 1472.1016 141.9214 1472.1016 229.0094 1440.6536 229.0094 1440.6536 141.9214 1407.5796 141.9214 1407.5796 114.5044 1504.9966 114.5044"></polygon>
                <polygon id="Fill-12" fill="#002744" points="1516.4436 229.0093 1516.4436 114.5043 1547.8916 114.5043 1547.8916 201.5963 1599.8256 201.5963 1599.8256 229.0093"></polygon>
                <path d="M1671.4316,185.6295 L1661.2666,150.1465 L1650.6256,185.6295 L1671.4316,185.6295 Z M1646.9116,114.5045 L1675.6226,114.5045 L1715.2966,229.0095 L1683.3636,229.0095 L1676.4276,206.5925 L1645.9496,206.5925 L1639.1706,229.0095 L1607.0816,229.0095 L1646.9116,114.5045 Z" id="Fill-14" fill="#002744"></path>
                <polygon id="Fill-16" fill="#002744" points="1756.2599 172.7282 1756.2599 229.0092 1724.8039 229.0092 1724.8039 114.5042 1749.3249 114.5042 1795.2919 172.7282 1795.2919 114.5042 1826.7399 114.5042 1826.7399 229.0092 1801.7429 229.0092"></polygon>
                <path d="M1914.6335,171.5944 C1914.6335,167.1844 1914.0475,163.1574 1912.8585,159.4984 C1911.6775,155.8474 1909.9815,152.7274 1907.7845,150.1474 C1905.5795,147.5664 1902.8655,145.5494 1899.6365,144.0954 C1896.4155,142.6484 1892.8105,141.9214 1888.8305,141.9214 L1876.2505,141.9214 L1876.2505,201.5954 L1888.8305,201.5954 C1892.9205,201.5954 1896.5715,200.8454 1899.8005,199.3364 C1903.0225,197.8274 1905.7355,195.7314 1907.9405,193.0414 C1910.1455,190.3604 1911.8105,187.1854 1912.9445,183.5264 C1914.0705,179.8744 1914.6335,175.8944 1914.6335,171.5944 L1914.6335,171.5944 Z M1844.8025,229.0094 L1844.8025,114.5044 L1888.8305,114.5044 C1898.2915,114.5044 1906.6265,116.0134 1913.8285,119.0194 C1921.0295,122.0294 1927.0505,126.1154 1931.8895,131.2714 C1936.7295,136.4404 1940.3815,142.4844 1942.8605,149.4194 C1945.3305,156.3554 1946.5665,163.7524 1946.5665,171.5944 C1946.5665,180.3044 1945.1975,188.1784 1942.4535,195.2234 C1939.7165,202.2684 1935.8155,208.2894 1930.7645,213.2854 C1925.7055,218.2814 1919.6375,222.1524 1912.5385,224.8964 C1905.4465,227.6414 1897.5415,229.0094 1888.8305,229.0094 L1844.8025,229.0094 Z" id="Fill-18" fill="#002744"></path>
                <mask id="mask-5cfsfzef0e-2" fill="white">
                    <use xlink:href="#path-5cfsfzef0e-1"></use>
                </mask>
                <g id="Clip-21"></g>
                <polygon id="Fill-20" fill="#002744" mask="url(#mask-5cfsfzef0e-2)" points="1955.277 229.009 1980.118 229.009 1980.118 204.184 1955.277 204.184"></polygon>
                <polygon id="Fill-22" fill="#002744" mask="url(#mask-5cfsfzef0e-2)" points="2028.65 172.7282 2028.65 229.0092 1997.202 229.0092 1997.202 114.5042 2021.715 114.5042 2067.682 172.7282 2067.682 114.5042 2099.138 114.5042 2099.138 229.0092 2074.141 229.0092"></polygon>
                <path d="M2148.6482,166.4339 L2168.4852,166.4339 C2170.4242,166.4339 2172.2222,165.3629 2173.8882,163.2129 C2175.5532,161.0619 2176.3902,158.0519 2176.3902,154.1819 C2176.3902,150.2019 2175.4202,147.1599 2173.4892,145.0649 C2171.5502,142.9689 2169.6182,141.9209 2167.6792,141.9209 L2148.6482,141.9209 L2148.6482,166.4339 Z M2117.2002,229.0089 L2117.2002,114.5039 L2169.7752,114.5039 C2175.3662,114.5039 2180.5262,115.6609 2185.2562,117.9719 C2189.9872,120.2859 2194.0452,123.2929 2197.4392,127.0029 C2200.8242,130.7089 2203.4822,134.9629 2205.4222,139.7479 C2207.3532,144.5329 2208.3232,149.3419 2208.3232,154.1819 C2208.3232,160.8429 2206.8682,167.0519 2203.9672,172.8059 C2201.0662,178.5609 2197.0322,183.2599 2191.8712,186.9199 L2216.0632,229.0089 L2180.5812,229.0089 L2160.4232,193.8549 L2148.6482,193.8549 L2148.6482,229.0089 L2117.2002,229.0089 Z" id="Fill-23" fill="#002744" mask="url(#mask-5cfsfzef0e-2)"></path>
                <polygon id="Fill-24" fill="#002744" mask="url(#mask-5cfsfzef0e-2)" points="2257.9968 114.5041 2286.8648 114.5041 2296.8648 149.8261 2307.0218 114.5041 2335.8898 114.5041 2317.0218 169.1781 2325.2478 193.0421 2349.9168 114.5041 2384.1098 114.5041 2339.2748 229.0091 2313.1518 229.0091 2296.8648 188.0461 2280.7348 229.0091 2254.6108 229.0091 2209.7688 114.5041 2243.8048 114.5041 2268.6388 193.0421 2276.5438 169.1781"></polygon>
                <polyline id="Fill-25" fill="#00AB4E" mask="url(#mask-5cfsfzef0e-2)" points="888 114.7549 770.813 114.7549 770.813 228.7319 888 228.7549"></polyline>
                <polygon id="Fill-26" fill="#0066B2" mask="url(#mask-5cfsfzef0e-2)" points="642.495 228.755 735.255 228.755 735.255 114.755 642.495 114.755"></polygon>
                <polygon id="Fill-27" fill="#EC1C24" mask="url(#mask-5cfsfzef0e-2)" points="421.726 228.755 642.495 228.755 642.495 114.755 421.726 114.755"></polygon>
                <polygon id="Fill-28" fill="#FFDC00" mask="url(#mask-5cfsfzef0e-2)" points="356.794 228.755 421.726 228.755 421.726 114.755 356.794 114.755"></polygon>
                <polygon id="Fill-29" fill="#00ADEE" mask="url(#mask-5cfsfzef0e-2)" points="175.2322 114.7549 115.0002 114.7549 115.0002 228.7549 175.2942 228.7549 175.2942 114.7549"></polygon>
                <polygon id="Fill-30" fill="#001423" mask="url(#mask-5cfsfzef0e-2)" points="735.255 228.755 770.813 228.755 770.813 114.755 735.255 114.755"></polygon>
                <polyline id="Fill-31" fill="#9CDBF8" mask="url(#mask-5cfsfzef0e-2)" points="175.294 114.7549 175.294 228.7549 191.372 228.7549 191.372 114.7549"></polyline>
                <polygon id="Fill-32" fill="#B72837" mask="url(#mask-5cfsfzef0e-2)" points="297.428 228.755 309.796 228.755 309.796 114.755 297.428 114.755"></polygon>
                <polygon id="Fill-33" fill="#FEFEFE" mask="url(#mask-5cfsfzef0e-2)" points="309.796 228.755 356.794 228.755 356.794 114.755 309.796 114.755"></polygon>
                <polygon id="Fill-34" fill="#FEFEFE" mask="url(#mask-5cfsfzef0e-2)" points="201.576 228.755 297.428 228.755 297.428 114.755 201.576 114.755"></polygon>
                <polygon id="Fill-35" fill="#F89C1C" mask="url(#mask-5cfsfzef0e-2)" points="191.372 228.755 201.576 228.755 201.576 114.755 191.372 114.755"></polygon>
            </g>
        </g>
    </g>
</svg>