<?xml version="1.0" encoding="utf-8"?>
<svg width="676px" height="676px" viewBox="0 0 676 676" version="1.1" xmlns="http://www.w3.org/2000/svg" xmlns:xlink="http://www.w3.org/1999/xlink">
    <g id="Hessen" stroke="none" stroke-width="1" fill="none" fill-rule="evenodd">
        <g id="112-HC-Bad-Homburg" fill-rule="nonzero">
            <g id="SVG-Layer" transform="translate(0.004979, 0.004977)">
                <path d="M675.993762,337.93596 C676.49952,524.450521 524.519588,676.373727 337.048096,675.994314 C151.477938,675.486769 -1.00901607,524.323813 0,335.908628 C0.892317525,151.421399 151.604693,-1.00863942 340.343741,0 C524.899855,1.14540103 676.246009,151.294691 675.993762,337.93596 Z" id="Path" fill="#C7C8C8"></path>
                <path d="M337.80863,674.599811 C524.773099,673.839562 672.823608,524.830646 674.598186,341.6105 C676.372764,151.548107 524.519588,3.04602495 341.484541,1.52552581 C151.604693,-0.121681586 2.92040669,151.548107 1.39933982,334.768254 C-0.121727057,524.197105 151.858205,673.96627 337.80863,674.599811 Z" id="Path" fill="#FFFFFF"></path>
                <path d="M77.8798069,339.867645 C78.0065304,277.721813 97.5219516,222.284187 137.186411,174.440757 C178.751724,124.319068 232.229047,93.9422869 296.731316,83.3104135 C316.626907,80.0195955 336.775946,79.0070361 356.924985,80.6524451 C423.835,86.2215217 480.733858,113.054345 527.241387,161.657195 C552.079196,187.730599 570.454106,217.72767 582.746287,251.521839 C583.506628,253.546958 583.131286,254.812657 581.732498,256.584636 C574.382535,265.571101 567.032571,274.684135 559.809331,283.797169 C519.004359,335.057988 478.072664,386.065666 437.647863,437.579624 C409.76869,473.019202 373.652489,495.928358 331.073388,508.96506 C269.359037,527.950548 209.292091,522.761182 151.125998,494.662659 C139.594158,489.093582 128.82266,482.385377 118.177884,475.550601 C115.389967,473.778622 113.362391,471.500363 111.714985,468.589255 C93.2133521,435.807645 82.3151299,400.747777 78.7668715,363.28308 C77.8798069,355.435745 77.8798069,347.58841 77.8798069,339.867645 Z M97.2685045,286.961417 C97.0150575,295.568172 97.9021221,304.934346 99.5495278,314.300521 C103.984851,340.373924 115.009797,363.28308 132.751088,382.901418 C148.464804,400.241497 166.966437,413.911049 188.636158,423.150653 C209.925708,432.137118 231.9756,436.440495 255.039279,435.174796 C270.499548,434.288806 285.579646,431.377698 300.15285,425.935191 C320.935507,418.214426 339.310416,406.569993 355.531026,391.508173 C364.655119,383.027988 372.25853,373.155534 379.861941,363.40965 C392.534292,346.95556 405.460091,330.75461 418.259165,314.42709 C430.171176,299.36527 441.956463,284.176879 453.868473,268.988489 C468.061506,251.01556 482.127817,232.916061 496.32085,214.943132 C507.472519,200.767301 518.370741,186.59147 529.649134,172.542208 C531.423263,170.26395 531.043093,168.99825 529.268964,167.352841 C524.706917,162.922894 520.525041,158.113237 515.962995,153.80986 C505.571667,144.063976 494.546721,135.077511 482.761434,127.103606 C461.218437,112.548065 438.154757,101.409912 413.316948,93.815717 C388.85931,86.3480916 363.894778,82.6775639 338.423352,82.2978541 C333.607858,82.1712842 328.792365,82.8041338 323.976871,82.9307037 C317.007078,83.0572736 310.164008,83.8166932 303.320938,84.8292525 C290.648587,86.7278014 277.976235,89.3857697 265.684055,93.0562974 C245.281569,99.1316537 225.892871,107.358699 207.644685,118.117142 C194.338716,125.964477 181.666365,134.950942 170.007802,144.949965 C160.123367,153.43015 150.872551,162.796324 142.255352,172.668778 C132.751088,183.806931 124.260613,195.577934 117.417543,208.614636 C110.954644,221.018488 104.491745,233.422341 101.450381,247.091892 C98.1555691,259.748884 97.0150575,272.912156 97.2685045,286.961417 Z" id="Shape" fill="#1C63AD"></path>
                <path d="M131.055018,497.474626 C134.223744,498.234317 136.251728,500.766619 138.913457,502.412616 C155.897825,512.541826 173.896184,520.265348 192.908536,525.456568 C262.240246,544.322221 327.769485,534.446242 389.369505,497.854472 C408.508606,486.585726 426.253467,473.291138 441.083102,456.704557 C450.589278,446.195502 458.954712,434.546911 467.827143,423.531396 C507.753082,373.391808 547.552272,323.25222 587.478211,273.112632 C587.858458,272.732786 588.238705,272.226326 588.87245,271.59325 C591.153932,280.076463 593.562163,288.053216 594.702904,296.409814 C606.870809,378.456412 586.590967,451.386722 531.581896,513.681362 C490.134969,560.655572 437.534129,589.143974 375.300364,597.373957 C287.33655,609.149163 211.66739,582.813218 149.180127,519.632272 C142.969426,513.301516 137.26572,506.590915 131.942261,499.627083 C131.435265,498.994008 130.80152,498.614162 130.80152,497.727856 L131.055018,497.474626 Z" id="Path" fill="#1C63AD"></path>
                <path d="M379.210565,639.431385 C381.102972,631.59749 382.995379,624.521714 384.635466,617.319585 C385.140108,615.171582 386.023231,614.28711 388.167959,614.160757 C389.934206,614.160757 391.826613,613.908051 393.4667,613.402638 C396.11607,612.518166 397.125354,613.528991 397.882317,616.056054 C401.414811,628.691368 405.199625,641.200329 409.1106,653.835642 C409.741403,655.857293 409.362921,656.489058 407.344353,656.741765 C404.947304,656.868118 402.676415,657.247177 400.279366,657.75259 C398.63928,658.131649 398.008477,657.499883 397.503835,655.983646 C395.611428,648.781517 393.59286,641.453035 391.069651,634.250906 C390.186527,637.915147 389.177243,641.453035 388.29412,645.117276 C387.284836,649.160576 386.023231,653.077524 385.140108,657.120824 C384.635466,659.268827 383.878503,660.279652 381.481453,660.406006 C379.967528,660.532359 379.336725,660.026946 378.705923,658.889768 C375.29959,652.824817 371.767096,646.759867 368.360763,640.694916 C367.856121,639.810444 367.6038,638.799619 365.963714,637.788794 C365.963714,641.832094 365.963714,645.496335 365.963714,649.034223 C365.963714,652.95117 365.837553,656.741765 365.963714,660.658712 C365.963714,662.048596 365.459072,662.680362 364.071306,662.806715 C361.295775,663.185775 358.646405,663.438481 355.997035,663.943894 C354.230788,664.322953 354.483109,663.059422 354.483109,662.048596 C354.73543,654.341055 354.861591,646.50716 355.113912,638.799619 C355.240072,632.861021 355.492393,626.922424 355.618554,620.983826 C355.618554,619.467589 355.870875,618.456764 357.637121,618.456764 C358.646405,618.456764 359.655689,618.204057 360.664973,618.077704 C367.099158,617.319585 367.099158,617.319585 370.379331,623.13183 C373.154861,628.438662 376.056553,633.61914 379.210565,639.431385 Z" id="Path" fill="#1F65AC"></path>
                <path d="M318.523825,665.011271 C304.004487,665.011271 293.560752,654.84064 293.560752,640.601756 C293.560752,627.12567 304.131849,617.082172 318.396462,617.082172 C332.278987,617.082172 343.486897,627.507069 343.486897,640.347491 C343.486897,654.84064 333.170525,665.011271 318.523825,665.011271 Z M305.914926,640.601756 C305.914926,647.848331 311.264156,653.569311 318.269099,653.569311 C325.401406,653.569311 331.132723,647.848331 331.132723,640.601756 C331.132723,634.117979 325.274043,628.651265 318.269099,628.651265 C311.391518,628.778398 305.914926,633.990846 305.914926,640.601756 Z" id="Shape" fill="#1F65AC"></path>
                <path d="M170.090447,70.8911833 C183.239301,70.8911833 193.83498,81.9184476 193.707321,95.2272148 C193.452004,108.282482 181.196761,119.943497 167.792589,119.816747 C153.622465,119.689996 143.409763,106.88823 143.792739,95.7342154 C144.303375,82.2986981 156.047982,70.7644332 170.090447,70.8911833 Z M155.920323,95.4807151 C155.920323,101.944973 161.920286,107.775481 168.686201,107.902231 C175.324457,107.902231 181.069102,102.198474 181.069102,95.4807151 C181.069102,88.3827059 175.835092,82.8056987 168.81386,82.8056987 C161.792627,82.6789486 156.047982,88.3827059 155.920323,95.4807151 Z" id="Shape" fill="#1F65AC"></path>
                <path d="M562.062233,545.360586 C560.398475,547.14501 558.734716,548.801975 557.198939,550.5864 C556.047106,551.988447 555.279218,551.860988 553.999403,550.713859 C548.624183,545.870421 548.624183,545.870421 553.487478,540.644608 C556.814995,537.203218 560.014531,533.63437 563.342048,530.19298 C563.981955,529.555686 564.365899,528.408556 565.773695,529.428227 C572.940655,534.908959 576.780098,545.233127 574.476432,553.772871 C571.532859,564.734334 559.118661,573.401538 548.624183,571.99949 C535.698059,570.087607 525.843489,558.871226 526.227433,546.635175 C526.611377,535.291335 538.769613,519.996271 554.383348,523.820037 C556.431051,524.329872 556.687013,525.094625 555.919125,526.87905 C554.895273,529.300768 553.999403,531.722487 553.231515,534.144205 C552.719589,535.546253 552.207663,536.056088 550.671886,535.546253 C543.632908,532.997075 535.314115,540.38969 538.385669,549.311811 C540.945297,556.959343 549.648035,562.312616 556.559032,560.273274 C561.934252,558.616309 567.565435,550.841317 562.062233,545.360586 Z" id="Path" fill="#2065AC"></path>
                <path d="M195.09443,626.055228 C191.52779,626.182632 188.088531,625.418208 184.904031,623.761956 C180.190972,621.213877 175.605293,618.538393 170.892234,616.117718 C169.491054,615.353294 169.491054,614.716274 170.255334,613.442234 C176.879093,601.46626 183.630232,589.490287 190.12661,577.514313 C190.89089,576.112869 191.52779,575.730657 192.92897,576.622485 C197.642029,579.425373 202.609848,581.846048 207.322907,584.77634 C215.857366,590.254711 219.551385,600.574433 216.749026,610.257135 C213.819286,619.939837 205.412208,626.055228 195.09443,626.055228 Z M205.921728,602.7403 C205.921728,597.644141 201.845568,592.293174 197.642029,590.764326 C196.495609,590.382115 196.368229,591.019134 195.986089,591.656154 C192.41945,598.026353 188.980191,604.269148 185.413551,610.639347 C184.904031,611.658578 184.776651,612.295598 185.923071,612.932618 C190.12661,615.22589 194.45753,616.627334 198.915829,614.079254 C203.501508,611.531175 205.539588,607.199439 205.921728,602.7403 Z" id="Shape" fill="#1F65AC"></path>
                <path d="M256.486674,633.626471 C254.966311,633.373386 255.093008,634.512267 254.839614,635.398063 C253.699343,639.827044 252.432374,644.129482 251.418799,648.558463 C251.038709,650.330055 250.405224,651.215851 248.378074,650.456598 C246.097531,649.697344 243.690291,649.064632 241.28305,648.558463 C239.889385,648.305378 239.382597,647.799209 239.762688,646.280701 C243.3102,632.993759 246.857712,619.833359 250.405224,606.546417 C250.785315,605.027909 251.545496,604.901366 252.939161,605.280993 C255.473099,606.040247 258.007036,606.799501 260.66767,607.30567 C262.188032,607.685297 262.441426,608.191467 261.934639,609.583432 C260.794367,613.632786 259.907489,617.68214 258.640516,621.604951 C257.880339,624.009255 258.513823,624.768509 260.794367,625.148136 C264.341879,625.90739 267.762694,626.793186 271.183509,627.932067 C273.59075,628.817863 274.224234,627.932067 274.731021,625.780847 C275.6179,621.858036 276.758171,617.935224 277.771746,614.012413 C278.151837,612.620447 278.658624,611.987736 280.305683,612.493905 C282.839621,613.379701 285.373558,614.012413 288.034192,614.518582 C289.427857,614.898209 289.807948,615.277836 289.427857,616.796343 C285.880345,629.956744 282.332833,643.117144 278.912018,656.277544 C278.531927,657.669509 278.02514,658.428763 276.378081,657.796051 C273.844143,657.036798 271.310206,656.277544 268.649572,655.771374 C267.12921,655.391748 266.875816,654.885578 267.382604,653.367071 C268.776269,648.685005 269.916541,644.00294 271.056813,639.447417 C271.183509,638.814705 272.070387,637.802367 270.676722,637.42274 C265.735544,636.157317 261.047761,634.891894 256.486674,633.626471 Z" id="Path" fill="#1F65AC"></path>
                <path d="M145.150545,143.86107 C144.519654,143.35677 144.014941,142.978545 143.636407,142.474244 C140.355775,139.196293 136.948964,136.044416 133.668332,132.766464 C132.280373,131.379638 131.523304,131.505713 130.261522,132.892539 C127.611781,135.792266 124.835861,138.691992 122.059942,141.465644 C120.671982,142.726394 120.79816,143.60892 122.18612,144.743596 C125.466752,147.769397 128.621206,151.047349 132.028016,154.073151 C133.415976,155.333901 133.542154,156.090352 132.154194,157.351102 C130.135344,159.116153 128.36885,161.007279 126.602355,163.02448 C125.845286,163.907006 125.340574,164.033081 124.457327,163.150556 C114.61543,153.56885 104.647356,143.987145 94.6792809,134.40544 C93.6698556,133.396839 93.5436775,132.640389 94.5531028,131.631788 C96.319597,129.866737 98.2122694,128.101686 99.8525855,126.084485 C100.988189,124.823735 101.745258,124.69766 103.007039,125.95841 C106.161493,129.110287 109.442126,132.136089 112.59658,135.16189 C113.479827,136.044416 114.110718,136.296566 115.120143,135.16189 C118.148419,131.883939 121.176694,128.732062 124.331148,125.580185 C125.214396,124.69766 125.214396,124.319434 124.331148,123.436909 C121.050516,120.411107 117.896062,117.133156 114.489252,113.981279 C113.22747,112.846603 113.353649,112.090153 114.489252,111.081552 C115.751034,109.946877 116.886637,108.686126 118.02224,107.425375 C121.302873,104.021348 121.176694,104.021348 124.457327,107.173225 C133.415976,115.872405 142.500803,124.69766 151.585631,133.270764 C153.225947,134.783665 153.099769,135.666191 151.585631,136.926941 C149.692959,138.565917 148.052643,140.583118 146.286148,142.474244 C145.907614,143.230695 145.655257,143.482845 145.150545,143.86107 Z" id="Path" fill="#1F65AC"></path>
                <path d="M560.882361,140.739476 C563.265906,146.16005 562.638657,150.067905 558.498816,154.101821 C554.484425,158.009676 549.591886,158.892095 544.573897,156.244838 C542.064903,154.98424 539.806807,153.219402 537.925062,151.076384 C534.28702,147.294589 530.774427,143.512793 527.136385,139.857057 C526.132788,138.848579 525.756438,138.09222 527.010936,136.957681 C536.796014,127.629252 546.581093,118.174763 556.240721,108.720274 C557.495218,107.459676 558.247917,107.585736 559.376964,108.846334 C562.889557,112.62813 566.653048,116.283865 570.040191,120.065661 C573.176434,123.595337 575.559979,127.755312 573.176434,132.671646 C570.792889,137.46192 567.154847,140.613417 561.38416,140.235237 C561.25871,140.109177 561.007811,139.983117 561.007811,139.983117 C560.506012,140.361297 560.756911,140.613417 560.882361,140.739476 Z M552.22633,141.747955 C552.22633,140.109177 548.839188,134.688604 547.333791,134.562544 C545.452045,134.310424 544.824796,136.453442 543.570299,137.46192 C542.692151,138.09222 541.939453,138.974639 541.186754,139.730998 C540.684956,140.235237 540.308606,140.739476 541.061305,141.369776 C542.692151,143.008554 544.197548,144.773392 546.455643,145.78187 C549.215537,146.916409 552.22633,144.899452 552.22633,141.747955 Z M558.624266,131.537107 C560.506012,131.537107 562.638657,129.64621 562.764107,127.755312 C562.889557,126.368653 560.380562,122.586858 559.376964,122.460798 C558.875165,122.460798 553.606277,127.377132 553.606277,127.881372 C553.606277,129.01591 557.118869,131.537107 558.624266,131.537107 Z" id="Shape" fill="#1F65AC"></path>
                <path d="M129.853102,549.797883 C132.263844,556.794279 131.121913,560.992116 125.792905,564.808332 C121.225184,568.115719 116.023057,567.988512 110.82093,564.045089 C104.857516,559.46563 100.543557,553.10527 95.3414303,547.762568 C94.1995,546.617703 95.3414303,546.108874 95.975836,545.600046 C103.842467,538.476443 111.709098,531.35284 119.70261,524.229237 C121.986471,522.066715 124.397213,520.031399 126.681073,517.996084 C127.569241,517.105634 128.203647,516.85122 129.218696,517.996084 C132.898249,522.321129 136.958446,526.391759 140.511118,530.844011 C145.840126,537.458785 144.571315,544.200767 137.339089,548.653018 C135.055229,549.92509 132.644487,550.306712 129.853102,549.797883 Z M121.352065,550.688333 C120.84454,547.889775 118.814442,545.472838 116.530582,543.946352 C115.134889,543.055902 113.866077,545.727253 112.470385,546.617703 C111.582217,547.253739 110.947811,548.016982 110.186524,548.653018 C109.552119,549.161847 109.298356,549.670676 109.932762,550.306712 C111.582217,552.087613 113.104791,554.122928 115.515532,555.013378 C118.180036,556.158243 121.478946,553.741306 121.352065,550.688333 Z M132.390725,536.949956 C132.263844,535.041848 131.121913,533.260948 129.472458,532.24329 C128.076766,531.35284 127.569241,533.515362 126.427311,534.024191 C126.046667,534.151398 125.792905,534.53302 125.539143,534.787434 C122.620876,537.331578 122.874639,538.985272 126.554192,540.766172 C129.091815,541.78383 132.263844,539.875722 132.390725,536.949956 Z" id="Shape" fill="#1F64AC"></path>
                <path d="M440.264619,621.675943 C448.043541,622.683912 451.933002,626.589789 452.309401,633.645569 C452.560334,638.685411 449.925538,641.961309 445.910611,644.48123 C441.017418,647.505135 435.371426,648.765096 429.976367,650.655037 C423.45211,652.922966 423.45211,652.922966 421.193713,646.497167 C417.304252,635.283518 413.540258,624.069868 409.650797,612.856219 C409.023464,610.966278 409.52533,610.462294 411.156394,609.832313 C415.673188,608.320361 420.189981,606.682412 424.706775,605.170459 C426.086906,604.666475 427.592504,604.288487 429.098102,604.162491 C438.257155,603.280518 444.405013,612.100243 440.515552,620.541979 C440.515552,620.919967 440.390085,621.297955 440.264619,621.675943 Z M435.371426,629.739691 C433.489429,630.369671 430.6037,629.991683 428.972635,632.385608 C428.345303,633.267581 431.607431,640.32336 432.234764,640.32336 C434.995027,640.575352 440.264619,636.669474 440.390085,634.401545 C440.515552,631.755628 438.508088,629.739691 435.371426,629.739691 Z M427.341571,614.368172 C426.086906,614.74616 423.953976,614.11618 423.577576,616.258113 C423.326643,617.896061 425.835973,623.0619 426.588772,623.0619 C428.847169,623.0619 431.858364,620.415983 431.732898,618.274049 C431.607431,615.880124 429.976367,614.242176 427.341571,614.368172 Z" id="Shape" fill="#1F64AC"></path>
                <path d="M514.771331,589.850017 C517.285747,593.133529 519.548721,596.54333 522.188858,599.826841 C523.697508,601.721175 524.07467,602.984064 521.685975,604.373242 C519.800163,605.509843 518.040072,607.025309 516.279981,608.414488 C515.274214,609.29851 514.64561,609.424799 513.639844,608.16191 C505.467991,597.174774 497.296139,586.313928 488.998566,575.326792 C488.369962,574.44277 487.741358,573.811325 488.998566,572.801014 C494.153119,569.138635 499.05623,565.09739 504.210783,561.687589 C508.485291,558.782944 513.388402,558.1515 518.040072,561.056145 C522.691742,564.087079 525.331878,568.254613 525.080437,574.063903 C524.954716,576.71597 523.697508,578.736593 522.314579,580.883504 C529.480665,582.904127 536.52103,584.924749 544.189999,587.071661 C540.166933,590.102595 536.646751,592.880951 532.875127,595.533018 C531.995081,596.164463 531.240756,595.406729 530.486431,595.154152 C525.206158,593.386107 520.177325,590.986617 514.897052,589.597439 C514.771331,589.47115 514.519889,589.218573 514.519889,589.344861 C514.394169,589.47115 514.64561,589.597439 514.771331,589.850017 Z M508.988174,570.780391 C506.976641,570.90668 504.713667,571.916991 503.456459,573.685036 C502.450692,575.200503 504.713667,576.210814 505.467991,577.473704 C505.970875,578.357726 506.725199,579.115459 507.353804,579.999482 C509.491057,582.904127 509.616778,582.904127 512.131194,580.378349 C512.885519,579.620615 513.514123,578.862882 513.891285,577.85257 C515.274214,574.821636 512.634077,570.90668 508.988174,570.780391 Z" id="Shape" fill="#1F65AC"></path>
                <path d="M261.548357,57.3017895 C262.826908,62.3753101 263.977603,67.4488308 265.384008,72.3955134 C266.151139,74.9322737 265.384008,75.6933018 262.954763,76.0738159 C260.653372,76.4543299 258.479836,77.08852 256.306301,77.7227101 C255.02775,78.1032241 254.26062,77.8495481 253.877055,76.3274919 C250.552824,63.0095002 247.228593,49.6915085 243.776507,36.3735168 C243.392942,35.1051366 243.776507,34.4709465 245.055057,34.2172705 C247.740013,33.5830804 250.424969,32.9488903 253.109925,32.1878622 C254.644185,31.6805102 255.02775,32.3147002 255.411315,33.7099184 C256.562011,38.7834391 257.968416,43.8569597 259.246967,48.9304804 C260.397662,48.5499663 260.397662,47.5352622 260.653372,46.7742341 C263.082618,41.3201994 265.511864,35.8661647 267.813254,30.285292 C268.324674,28.8900738 269.21966,28.2558837 270.626065,27.8753697 C274.589571,26.9875036 278.553078,25.9727994 283.028004,24.9580953 C279.192353,32.6952143 275.612412,40.0518192 271.904616,47.2815862 C270.881775,49.3109944 271.137485,50.3256986 273.055311,51.5940787 C280.470903,56.9212754 287.758641,62.3753101 295.557798,68.0830208 C290.571451,69.351401 285.96867,70.4929431 281.365889,71.6344853 C280.215193,71.8881613 279.575918,71.1271332 278.936643,70.4929431 C273.822441,66.5609646 268.70824,62.5021481 263.594038,58.5701696 C263.210473,57.9359795 262.699053,57.3017895 261.548357,57.3017895 Z" id="Path" fill="#1F65AC"></path>
                <path d="M512.693549,123.811862 C504.308043,123.811862 493.762633,116.490552 491.094517,108.664323 C489.569879,104.120062 490.205145,99.8282589 492.619154,95.9151447 C497.955386,87.457769 504.180989,79.7577701 509.898381,71.6790828 C510.660699,70.5430174 511.295965,70.7954763 512.185337,71.4266238 C514.34524,73.0676072 516.37809,74.7085905 518.665047,76.0971149 C520.189684,77.1069508 520.062631,77.8643278 519.046206,79.2528521 C514.472293,85.3118676 510.025434,91.4971126 505.578574,97.5561281 C504.689202,98.818423 503.926883,100.080718 503.291618,101.469242 C501.512874,105.256127 502.275192,108.285635 505.578574,110.683995 C509.009009,113.082355 511.931231,113.082355 515.107559,110.179077 C516.505143,108.916782 517.648622,107.402028 518.7921,105.887274 C523.111906,100.080718 527.431713,94.1479319 531.751519,88.2151459 C532.767945,86.8266215 533.40321,86.447933 534.800795,87.7102279 C536.833645,89.3512113 538.993548,90.8659652 541.280504,92.380719 C542.423983,93.138096 542.423983,93.7692434 541.661664,94.9053088 C536.071326,102.352849 530.735094,109.926618 525.144757,117.247928 C521.968428,121.161043 517.902728,123.685632 512.693549,123.811862 Z" id="Path" fill="#1F65AC"></path>
                <path d="M475.807785,631.061493 C469.123972,631.061493 464.836243,628.800934 462.06183,624.405402 C456.639114,615.991099 452.351385,606.823276 447.559217,598.032213 C447.054778,597.02752 447.433107,596.525173 448.315875,596.022827 C450.964178,594.641374 453.486372,593.385508 456.008565,591.878469 C457.774101,590.873776 457.900211,592.380815 458.404649,593.259921 C461.809611,599.413666 465.088462,605.692996 468.367314,611.846741 C469.376192,613.856126 470.511179,615.865512 472.024495,617.498138 C474.546689,620.135457 477.447211,620.637804 480.726063,618.879591 C484.257134,616.995792 485.518231,614.358473 484.635463,610.716461 C484.004915,608.330315 482.869928,606.195343 481.73494,604.06037 C478.456089,598.032213 475.303347,592.004055 472.024495,585.975898 C471.267837,584.594445 471.141727,583.715339 472.907263,582.961819 C475.681676,581.705953 478.708308,578.691874 481.104392,579.194221 C483.626586,579.696567 484.383244,584.092099 485.89656,586.729417 C489.049302,592.255229 491.949825,597.906626 494.850347,603.683611 C499.390296,612.725847 497.498651,619.884284 489.301521,625.786855 C484.761573,629.052107 479.969405,630.935906 475.807785,631.061493 Z" id="Path" fill="#1F65AC"></path>
                <path d="M159.811922,609.093989 C156.896424,606.678827 154.107687,604.390778 151.31895,602.356957 C150.051342,601.467161 150.431624,600.577364 150.811907,599.43334 C152.713318,593.458991 152.713318,593.458991 147.769648,589.391349 C145.868236,587.865984 143.966824,586.467732 142.318934,584.815253 C140.924566,583.544114 139.910479,583.671228 138.38935,584.561025 C133.192158,587.611756 133.192158,587.484642 128.375248,583.671228 C126.854119,582.40009 125.332989,581.128952 123.81186,579.984928 C124.318903,578.840904 125.45975,578.586676 126.347076,578.078221 C138.516111,570.959848 150.811907,563.968589 162.980942,556.850216 C164.628832,555.833305 165.642918,555.960419 167.164047,557.231557 C169.19222,559.138264 171.347153,560.790744 173.502086,562.443223 C174.642933,563.33302 175.023216,564.095703 174.516173,565.493954 C169.826024,579.603587 165.135875,593.840333 160.445726,607.949965 C160.445726,608.204192 160.192204,608.585534 159.811922,609.093989 Z M160.952769,571.468303 C160.826008,571.341189 160.572487,571.214076 160.445726,571.086962 C157.023185,573.247896 153.727404,575.408831 150.304863,577.442652 C149.164016,578.078221 149.037256,578.71379 150.178103,579.476473 C152.079514,581.001838 153.980926,582.527204 156.26262,584.306797 C157.783749,579.857814 159.304879,575.663059 160.952769,571.468303 Z" id="Shape" fill="#1F65AC"></path>
                <path d="M299.794484,25.9619091 C299.035919,23.7961438 300.047339,22.9043582 302.955173,22.7769602 C309.782262,22.3947663 316.482923,21.6303786 323.310011,20.9933888 C324.447859,20.8659909 325.079997,21.1207868 325.079997,22.3947663 C325.206425,24.8153275 325.45928,27.1084907 325.712135,29.5290518 C325.838562,30.9304293 325.079997,31.0578272 323.942149,31.0578272 C320.655032,31.3126231 317.367916,31.694817 314.080799,31.9496129 C312.437241,32.0770109 312.184385,32.7140006 312.184385,34.2427761 C312.437241,39.3386943 312.310813,39.3386943 317.367916,38.9565004 C319.517184,38.8291025 321.666453,38.7017045 323.815721,38.3195106 C325.332852,38.0647147 325.838562,38.8291025 325.838562,40.23048 C325.838562,40.9948677 325.838562,41.7592554 325.96499,42.5236431 C326.4707,48.383949 326.4707,48.383949 320.528605,48.7661429 C319.643612,48.7661429 318.632191,48.8935409 317.747198,49.0209388 C313.701516,49.5305306 313.827944,49.5305306 313.954371,53.7346631 C313.954371,56.5374181 314.965792,57.1744079 317.494343,56.792214 C320.27575,56.4100202 323.183584,56.2826222 325.96499,55.9004283 C327.482121,55.6456324 328.367114,56.0278263 328.240686,57.8113977 C328.240686,58.5757854 328.240686,59.3401731 328.367114,60.1045608 C328.746396,65.8374688 328.746396,65.8374688 323.310011,66.3470606 C317.367916,66.9840504 311.42582,67.2388463 305.483725,67.875836 C303.840166,68.003234 303.460884,67.4936422 303.334456,65.9648667 C302.196608,52.8428774 301.05876,39.7208881 299.794484,25.9619091 Z" id="Path" fill="#2065AD"></path>
                <path d="M446.616897,72.0411016 C445.853827,76.1271802 444.073331,79.8301889 442.928727,83.6608876 C442.67437,84.5547173 442.038479,84.6824072 441.148231,84.8100972 C429.575008,85.7039269 417.620249,76.3825601 415.712575,65.145844 C413.677723,52.8876082 421.181241,41.0124423 433.135999,37.8201934 C441.275409,35.6494641 448.524571,37.5648135 455.137842,42.8001017 C455.900911,43.4385514 456.663981,43.9493113 456.155268,45.0985209 C454.756307,48.9292195 453.484524,52.7599182 451.958385,57.1013767 C450.050711,53.398368 447.761502,50.8445689 444.327688,49.5676693 C439.74927,47.7800099 435.425208,48.4184597 431.864217,51.8660885 C428.048868,55.5690973 426.522729,60.2936256 428.430403,65.5289138 C430.083721,70.2534422 434.026247,72.5518614 438.859022,73.1903112 C441.529766,73.701071 444.073331,72.4241714 446.616897,72.0411016 L446.616897,72.0411016 Z" id="Path" fill="#2065AC"></path>
                <path d="M229.986531,54.2355087 C220.85059,52.2269333 214.633075,54.7376526 212.349089,61.1399866 C210.31888,66.9146408 213.491082,74.0701906 219.201045,76.4553739 C225.418561,79.217165 231.636076,76.3298379 236.330935,68.1700004 C238.107368,71.9360793 239.630025,75.7021581 241.406458,79.342701 C241.91401,80.4725246 241.533346,81.1002044 240.772017,81.7278842 C233.158733,88.6323621 224.403456,90.6409375 214.633075,87.2514665 C205.243357,83.8619956 200.675387,76.5809098 199.78717,67.0401768 C198.645178,54.3610447 208.796223,42.5606643 223.007687,41.9329845 C223.895904,41.9329845 224.657232,42.0585205 225.037897,43.0628082 C226.560553,46.703351 228.210098,50.3438939 229.986531,54.2355087 Z" id="Path" fill="#1F65AC"></path>
                <path d="M340.491328,19.9654808 C345.031714,20.3466429 349.067612,20.7278049 353.10351,21.1089669 C354.238607,21.2360209 354.869216,21.871291 355.499825,22.7606691 C357.139409,25.8099654 358.905114,28.6051537 360.418576,31.65445 C361.42755,33.8143682 362.184281,33.4332062 363.445499,31.908558 C365.337327,29.4945318 367.355276,27.3346136 369.120981,24.7935333 C370.256078,23.1418311 371.517296,22.5065611 373.661367,22.7606691 C376.562169,23.2688852 379.462971,23.2688852 382.363772,23.5229932 C383.120503,23.6500472 384.003356,23.2688852 384.381722,24.1582632 C384.633965,24.7935333 383.751112,25.3017494 383.372747,25.8099654 C378.327874,31.781504 373.409123,37.7530426 368.36425,43.5975272 C366.97691,45.1221754 366.472423,46.7738776 366.346301,48.6796878 C365.967936,54.0159563 365.463449,59.2251708 365.085083,64.5614394 C364.958961,66.3401956 364.580596,67.1025197 362.562647,66.8484116 C360.292454,66.4672496 357.896139,66.2131416 355.499825,66.2131416 C353.355754,66.2131416 353.10351,65.1967095 353.229632,63.4179533 C353.734119,58.0816847 354.238607,52.6183622 354.743094,47.2820936 C354.869216,45.5033374 354.743094,43.9786893 353.734119,42.4540411 C349.445978,35.3390164 345.157836,27.9698836 340.491328,19.9654808 Z" id="Path" fill="#2065AC"></path>
                <path d="M479.707963,93.900314 C478.57992,96.3112557 477.326539,98.849089 476.073158,101.386922 C475.571806,102.275164 474.945115,101.640706 474.318425,101.386922 C467.675505,98.087739 461.032585,94.7885557 454.389666,91.616264 C453.136284,90.9818057 453.136284,90.3473474 453.637637,89.2053224 C459.528528,76.8968308 465.544757,64.7152309 471.31031,52.4067393 C472.062339,50.8840393 472.814367,50.5033643 474.318425,51.3916059 C476.449173,52.6605226 478.57992,53.6756559 480.836006,54.5638976 C482.465402,55.1983559 482.59074,55.9597059 481.838711,57.4824059 C477.451877,66.4917142 473.190382,75.6279141 468.67821,84.5103307 C467.675505,86.5405974 468.051519,87.1750557 469.931591,88.0632974 C472.814367,89.332214 475.446468,90.7280224 478.329244,92.1238307 C479.081273,92.5045057 479.95864,92.5045057 479.707963,93.900314 Z" id="Path" fill="#2065AC"></path>
                <path d="M386.521835,52.7330925 C386.521835,52.3607659 386.647994,52.1125482 386.647994,51.7402216 C387.657266,45.2865607 387.657266,45.2865607 394.091375,46.6517582 C396.993032,47.2723025 400.020848,47.8928468 402.922505,48.3892823 C404.310254,48.6375 404.562572,49.0098266 404.310254,50.3750241 C403.174823,57.5733382 403.174823,57.5733382 396.109919,56.2081407 C393.46058,55.7117053 390.685082,55.0911609 388.035743,54.7188343 C386.900312,54.3465078 386.143358,53.9741812 386.521835,52.7330925 Z" id="Path" fill="#2065AD"></path>
                <path d="M446.784091,71.4892622 C446.784091,71.3894099 446.883943,71.2895576 446.883943,71.2895576 C446.883943,71.2895576 446.883943,71.3894099 446.883943,71.3894099 C446.883943,71.4892622 446.784091,71.4892622 446.784091,71.4892622 C446.784091,71.4892622 446.784091,71.4892622 446.784091,71.4892622 Z" id="Path" fill="#2065AC"></path>
                <path d="M131.400634,497.934917 C131.300782,497.835064 131.20093,497.735212 131.101077,497.735212 C131.300782,497.435655 131.400634,497.63536 131.500486,497.835064 C131.500486,497.735212 131.400634,497.934917 131.400634,497.934917 Z" id="Path" fill="#1C63AD"></path>
                <path d="M97.2257268,287.968656 C97.2257268,265.869535 97.8651383,263.166898 101.386623,247.725003 C104.908107,232.283109 110.572976,220.967647 117.417543,208.614636 C124.262111,196.261624 130.893124,185.291264 142.255352,172.668778 C153.61758,160.046292 159.992959,153.438513 170.007802,144.949965 C181.797426,134.814386 194.333818,125.972216 207.644685,118.117142 C226.026358,107.348089 245.274059,99.1376452 265.684055,93.0562974 C278.10753,89.3821498 290.643922,86.8563685 303.320938,84.8292525 C310.166527,83.8156946 319.339748,83.0835508 324.389064,82.8724232 C329.43838,82.6612956 333.677755,82.2812114 338.495021,82.2812114 C363.975823,82.6612956 388.977078,86.340727 413.316948,93.815717 C438.1639,101.417402 461.337277,112.533711 482.761434,127.103606 C494.551059,135.085375 505.836205,144.361598 516.231358,154.117093 C520.921854,158.551409 525.489379,163.686913 530.053104,167.994535 C531.827887,169.641566 531.827887,170.925271 530.053104,173.205776 C518.77056,187.268893 507.868326,201.585399 496.712552,215.648516 C482.641064,233.63917 468.442807,251.756518 454.244549,269.747172 C442.328153,284.823847 430.538529,300.027216 418.622133,315.230586 C405.818347,331.574208 392.887791,347.791135 380.210775,364.261452 C372.604565,374.143642 364.998356,383.899137 355.870904,392.387685 C339.644324,407.591055 321.26265,419.120277 300.472344,426.848656 C285.893775,432.29653 270.808126,435.210509 255.342167,436.097372 C232.143227,437.491015 210.08522,433.056699 188.914603,424.061372 C167.236905,414.812655 148.728462,401.129623 133.008962,383.772443 C115.26114,364.134757 103.69516,341.329703 99.2582047,315.230586 C97.9905031,305.981869 96.9721865,296.583898 97.2257268,287.968656 Z M249.76428,153.567887 C176.871438,153.567887 119.951635,212.101063 118.683934,281.529783 C117.162692,357.166546 176.998208,415.826213 249.89105,415.953112 C322.657122,416.079603 382.492638,357.039852 381.224936,282.163257 C380.084005,212.227758 322.910662,153.441396 249.76428,153.567887 Z" id="Shape" fill="#30B6EA"></path>
                <path d="M249.939136,152.76822 C323.091746,152.517169 380.269957,211.325472 381.410986,281.540556 C382.678795,356.445097 322.84129,416.079854 250.069022,415.953514 C177.169973,415.826369 117.134182,357.205549 118.655554,281.540556 C119.923363,211.959182 177.040087,152.76822 249.939136,152.76822 Z" id="Path" fill="#2668B0"></path>
                <path d="M249.950135,413.515042 C320.820688,412.75459 376.846871,357.585775 378.875366,287.750916 C380.903862,214.494022 323.345308,155.178752 250.065916,155.304888 C177.673991,155.304888 123.158181,212.212666 121.256466,280.399878 C119.354752,353.149804 176.924305,412.75459 249.950135,413.515042 Z" id="Path" fill="#FFFFFF"></path>
            </g>
        </g>
    </g>
</svg>