<?xml version="1.0" encoding="utf-8"?>
<!-- Generator: Adobe Illustrator 26.0.3, SVG Export Plug-In . SVG Version: 6.00 Build 0)  -->
<svg version="1.1" id="Ebene_1" xmlns="http://www.w3.org/2000/svg" xmlns:xlink="http://www.w3.org/1999/xlink" x="0px" y="0px"
	 viewBox="0 0 201.32 182.96" style="enable-background:new 0 0 201.32 182.96;" xml:space="preserve">
<style type="text/css">
	.st0{fill:#111111;}
	.st1{fill:#FFFFFF;}
	.st2{clip-path:url(#SVGID_00000183245680826564441530000011031380910261599154_);}
	.st3{clip-path:url(#SVGID_00000162332884881571229670000000805988140324332673_);fill:#101111;}
	.st4{clip-path:url(#SVGID_00000162332884881571229670000000805988140324332673_);fill:#FFFFFF;}
	.st5{clip-path:url(#SVGID_00000162332884881571229670000000805988140324332673_);fill:#CD281A;}
</style>
<g>
	<g>
		<path class="st0" d="M178.98,181.91c-5.61,0-11.1-2.28-15.07-6.24L1.37,8.45C0.94,8,0.95,7.28,1.39,6.85l5.46-5.46
			c0.22-0.21,0.5-0.33,0.81-0.33c0.3,0,0.58,0.11,0.79,0.32l167.23,162.54c0.86,0.86,2.07,1.36,3.29,1.36
			c0.59,0,1.17-0.11,1.73-0.33c1.16-0.46,2.07-1.35,2.56-2.5c0.49-1.15,0.51-2.42,0.04-3.57c-0.13-0.31-0.29-0.61-0.48-0.89
			c-0.03-0.06-0.06-0.11-0.1-0.17c-0.44-0.59-0.8-1.22-1.06-1.87c-1.71-4.26,0.37-9.11,4.63-10.81c0.99-0.4,2.03-0.6,3.08-0.6
			c2.61,0,5.11,1.25,6.67,3.35l0,0c0,0,0.26,0.35,0.32,0.45c0.98,1.4,1.77,2.85,2.37,4.35c4.37,10.9-0.95,23.32-11.85,27.69
			C184.35,181.39,181.69,181.91,178.98,181.91L178.98,181.91z"/>
		<path class="st1" d="M7.65,2.1c0.04,0,0.05,0.02,0.06,0.02l167.21,162.52c1.07,1.07,2.55,1.68,4.05,1.68
			c0.73,0,1.44-0.14,2.12-0.41c2.93-1.17,4.36-4.51,3.18-7.44c-0.14-0.36-0.33-0.71-0.55-1.04c-0.05-0.09-0.1-0.18-0.17-0.26
			c-0.39-0.52-0.7-1.07-0.93-1.63c-1.49-3.72,0.32-7.95,4.04-9.44c0.86-0.35,1.77-0.52,2.69-0.52c2.28,0,4.46,1.09,5.81,2.91
			c0,0,0.23,0.31,0.3,0.41c0.01,0.02,0.03,0.05,0.05,0.07c0.91,1.3,1.67,2.68,2.24,4.11c2.01,5.02,1.95,10.52-0.18,15.49
			c-2.13,4.97-6.06,8.82-11.08,10.83c-2.41,0.97-4.94,1.46-7.52,1.46c-5.33,0-10.55-2.16-14.31-5.91L2.13,7.71
			c-0.03-0.03-0.03-0.09,0-0.12l5.46-5.46C7.6,2.12,7.62,2.1,7.65,2.1 M7.65,0C7.09,0,6.53,0.21,6.1,0.64L0.64,6.1
			c-0.85,0.85-0.86,2.22-0.02,3.08l162.54,167.23c4.18,4.18,9.89,6.55,15.82,6.55c2.76,0,5.58-0.52,8.3-1.61
			c11.46-4.59,17.02-17.6,12.43-29.06c-0.66-1.64-1.5-3.15-2.47-4.53c-0.07-0.11-0.36-0.51-0.36-0.51
			c-1.78-2.38-4.58-3.77-7.51-3.77c-1.16,0-2.33,0.22-3.47,0.67c-4.8,1.92-7.13,7.38-5.21,12.18c0.31,0.77,0.72,1.47,1.19,2.11
			l-0.01,0.01c0.18,0.25,0.34,0.52,0.46,0.81c0.74,1.86-0.16,3.96-2.01,4.71c-0.44,0.18-0.89,0.26-1.34,0.26
			c-0.96,0-1.88-0.39-2.56-1.07L9.18,0.62C8.75,0.21,8.2,0,7.65,0L7.65,0z"/>
	</g>
	<g>
		<path class="st0" d="M22.34,181.91c-2.71,0-5.37-0.52-7.91-1.53c-5.28-2.12-9.42-6.16-11.66-11.39s-2.3-11.02-0.19-16.3
			c0.6-1.5,1.39-2.95,2.35-4.32c0.09-0.14,0.35-0.5,0.35-0.5c1.56-2.09,4.05-3.34,6.66-3.34c1.06,0,2.09,0.2,3.08,0.6
			c4.26,1.71,6.33,6.56,4.63,10.81c-0.26,0.65-0.62,1.28-1.06,1.87c-0.04,0.05-0.07,0.11-0.1,0.17c-0.19,0.28-0.35,0.58-0.48,0.89
			c-0.46,1.16-0.45,2.43,0.04,3.58c0.49,1.15,1.4,2.04,2.56,2.5c0.55,0.22,1.14,0.33,1.73,0.33c1.23,0,2.43-0.5,3.31-1.37
			L192.87,1.37c0.21-0.21,0.5-0.32,0.79-0.32c0.3,0,0.59,0.12,0.81,0.33l5.46,5.46c0.44,0.44,0.44,1.16,0.01,1.6L37.4,175.68
			C33.44,179.64,27.95,181.91,22.34,181.91z"/>
		<path class="st1" d="M193.67,2.1c0.04,0,0.05,0.02,0.06,0.03l5.46,5.46c0.03,0.03,0.03,0.09,0,0.12L36.67,174.92
			c-3.78,3.77-9,5.94-14.33,5.94c-2.57,0-5.1-0.49-7.52-1.46c-5.02-2.01-8.96-5.86-11.08-10.83s-2.19-10.48-0.18-15.49
			c0.57-1.42,1.32-2.8,2.24-4.11c0.01-0.01,0.03-0.05,0.04-0.06c0.07-0.11,0.29-0.4,0.29-0.4c1.37-1.83,3.54-2.93,5.83-2.93
			c0.92,0,1.83,0.18,2.69,0.52c3.72,1.49,5.53,5.73,4.04,9.44c-0.22,0.56-0.54,1.11-0.93,1.63c-0.06,0.08-0.12,0.17-0.16,0.26
			c-0.22,0.33-0.41,0.68-0.55,1.04c-1.17,2.93,0.25,6.27,3.18,7.44c0.68,0.27,1.39,0.41,2.12,0.41c1.51,0,2.98-0.61,4.03-1.66
			L193.61,2.13C193.61,2.12,193.63,2.1,193.67,2.1 M193.67,0c-0.55,0-1.1,0.21-1.53,0.62L24.91,163.16
			c-0.68,0.68-1.6,1.07-2.56,1.07c-0.45,0-0.9-0.08-1.34-0.26c-1.86-0.74-2.76-2.85-2.01-4.71c0.12-0.3,0.28-0.57,0.46-0.81
			l-0.01-0.01c0.47-0.64,0.88-1.34,1.19-2.11c1.92-4.8-0.41-10.25-5.21-12.18c-1.14-0.46-2.32-0.67-3.47-0.67
			c-2.93,0-5.74,1.39-7.51,3.77c0,0-0.29,0.4-0.36,0.51c-0.97,1.38-1.81,2.89-2.47,4.53c-4.59,11.46,0.97,24.47,12.43,29.06
			c2.72,1.09,5.53,1.61,8.3,1.61c5.92,0,11.63-2.37,15.82-6.55L200.7,9.18c0.83-0.86,0.83-2.23-0.02-3.08l-5.46-5.46
			C194.79,0.21,194.23,0,193.67,0L193.67,0z"/>
	</g>
</g>
<g>
	<g>
		<defs>
			<rect id="SVGID_1_" x="19.24" y="5.06" width="162.84" height="162.84"/>
		</defs>
		<clipPath id="SVGID_00000091009025193532881030000007007054029139818933_">
			<use xlink:href="#SVGID_1_"  style="overflow:visible;"/>
		</clipPath>
		<g style="clip-path:url(#SVGID_00000091009025193532881030000007007054029139818933_);">
			<defs>
				<rect id="SVGID_00000131330158865926676280000012567439476996790944_" x="19.24" y="5.06" width="162.84" height="162.84"/>
			</defs>
			<clipPath id="SVGID_00000125585432475471381440000017070556497717806217_">
				<use xlink:href="#SVGID_00000131330158865926676280000012567439476996790944_"  style="overflow:visible;"/>
			</clipPath>
			<path style="clip-path:url(#SVGID_00000125585432475471381440000017070556497717806217_);fill:#101111;" d="M178.17,86.48
				c0,42.81-34.7,77.51-77.51,77.51s-77.51-34.7-77.51-77.51s34.7-77.51,77.51-77.51S178.17,43.67,178.17,86.48"/>
			<path style="clip-path:url(#SVGID_00000125585432475471381440000017070556497717806217_);fill:#FFFFFF;" d="M100.66,165.07
				c-43.33,0-78.59-35.25-78.59-78.59S57.33,7.89,100.66,7.89s78.59,35.25,78.59,78.59S143.99,165.07,100.66,165.07 M100.66,10.05
				c-42.15,0-76.43,34.29-76.43,76.43s34.29,76.43,76.43,76.43s76.43-34.29,76.43-76.43S142.81,10.05,100.66,10.05"/>
			<path style="clip-path:url(#SVGID_00000125585432475471381440000017070556497717806217_);fill:#CD281A;" d="M100.66,138.65
				c-28.76,0-52.17-23.4-52.17-52.17s23.4-52.17,52.17-52.17c28.76,0,52.17,23.4,52.17,52.17S129.42,138.65,100.66,138.65"/>
			<path style="clip-path:url(#SVGID_00000125585432475471381440000017070556497717806217_);fill:#FFFFFF;" d="M100.66,35.39
				c28.22,0,51.09,22.87,51.09,51.09c0,28.21-22.87,51.09-51.09,51.09S49.57,114.7,49.57,86.48
				C49.57,58.27,72.44,35.39,100.66,35.39 M100.66,33.24c-29.36,0-53.24,23.88-53.24,53.24c0,29.36,23.88,53.24,53.24,53.24
				s53.24-23.88,53.24-53.24C153.9,57.12,130.02,33.24,100.66,33.24"/>
			<path style="clip-path:url(#SVGID_00000125585432475471381440000017070556497717806217_);fill:#FFFFFF;" d="M44.47,107.53
				c0.11-0.05,0.19-0.02,0.24,0.09l1.35,3.07c0.16,0.37,0.25,0.71,0.25,1.03c0.01,0.32-0.04,0.61-0.15,0.87
				c-0.11,0.26-0.27,0.49-0.48,0.69c-0.21,0.19-0.45,0.35-0.73,0.48c-0.22,0.1-0.42,0.16-0.6,0.2c-0.18,0.04-0.35,0.05-0.51,0.04
				c-0.16-0.01-0.31-0.04-0.46-0.09c-0.15-0.05-0.3-0.11-0.45-0.19c-0.03,0.77-0.24,1.46-0.64,2.06c-0.4,0.6-1.02,1.09-1.87,1.46
				c-0.34,0.15-0.7,0.21-1.08,0.19c-0.38-0.02-0.75-0.11-1.1-0.28c-0.35-0.16-0.68-0.39-0.97-0.68c-0.29-0.29-0.53-0.62-0.69-1
				l-1.57-3.57c-0.05-0.11-0.02-0.19,0.09-0.24l6.75-2.97c0.04-0.02,0.08-0.03,0.1-0.03l0.03-0.03L44.47,107.53z M39.81,114.68
				c0.23-0.1,0.42-0.24,0.55-0.4c0.14-0.17,0.23-0.36,0.29-0.57c0.06-0.21,0.08-0.45,0.06-0.7c-0.02-0.25-0.06-0.51-0.14-0.79
				l-2.43,1.07l0.44,1c0.08,0.17,0.17,0.29,0.28,0.37c0.11,0.07,0.22,0.12,0.34,0.13c0.12,0.01,0.23,0.01,0.34-0.02
				C39.65,114.74,39.74,114.71,39.81,114.68 M43.68,111.68c0.1-0.04,0.16-0.12,0.18-0.22c0.02-0.1,0.01-0.22-0.05-0.34l-0.12-0.27
				l-0.78,0.35l0.12,0.27c0.05,0.11,0.13,0.19,0.25,0.24C43.4,111.76,43.53,111.75,43.68,111.68"/>
			<path style="clip-path:url(#SVGID_00000125585432475471381440000017070556497717806217_);fill:#FFFFFF;" d="M46.13,130.52
				c0.04-0.07,0.11-0.16,0.2-0.26c0.09-0.1,0.22-0.24,0.38-0.42l-2.38-3.14l-0.86,0.32c-0.18,0.05-0.32,0.01-0.43-0.13l-1.27-1.68
				c-0.05-0.06-0.07-0.12-0.08-0.19c-0.01-0.06,0.01-0.11,0.07-0.15c0.02-0.02,0.05-0.03,0.09-0.04l10.22-3.12
				c0.06-0.02,0.14-0.01,0.24,0.01c0.1,0.02,0.17,0.06,0.22,0.13l1.1,1.46c0.05,0.06,0.07,0.14,0.08,0.21
				c0,0.08-0.01,0.14-0.04,0.18l-5.84,8.96c-0.03,0.04-0.05,0.06-0.07,0.08c-0.11,0.09-0.23,0.05-0.36-0.12l-1.24-1.63
				c-0.07-0.09-0.1-0.17-0.1-0.24C46.05,130.68,46.08,130.6,46.13,130.52 M48.09,128.16l0.49-0.67l-1.4-1.85l-0.78,0.3L48.09,128.16
				z M50.83,124.28l-1.59,0.59l0.62,0.82L50.83,124.28z"/>
			<path style="clip-path:url(#SVGID_00000125585432475471381440000017070556497717806217_);fill:#FFFFFF;" d="M64.37,138.56
				c-0.41,0.51-0.87,0.94-1.38,1.3c-0.51,0.36-1.05,0.64-1.62,0.85c-0.57,0.21-1.15,0.34-1.76,0.4c-0.6,0.06-1.2,0.04-1.8-0.06
				c-0.6-0.1-1.19-0.27-1.76-0.52c-0.57-0.25-1.11-0.58-1.62-0.99l-0.55-0.45c-0.05-0.04-0.09-0.09-0.11-0.14
				c-0.02-0.05,0-0.11,0.05-0.18l6.36-7.87c0.11-0.14,0.23-0.15,0.36-0.05l3.28,2.66c0.2,0.16,0.39,0.37,0.55,0.61
				c0.16,0.24,0.3,0.5,0.41,0.79c0.11,0.29,0.19,0.59,0.24,0.91c0.05,0.32,0.06,0.64,0.03,0.96c-0.03,0.32-0.1,0.63-0.21,0.94
				C64.74,138.02,64.58,138.3,64.37,138.56 M60.78,134.38l-3.11,3.84c0.4,0.11,0.8,0.17,1.2,0.16c0.4,0,0.79-0.06,1.16-0.18
				c0.37-0.12,0.73-0.29,1.06-0.52c0.34-0.23,0.64-0.51,0.92-0.86c0.1-0.12,0.17-0.25,0.22-0.39c0.05-0.14,0.07-0.28,0.06-0.42
				c-0.01-0.14-0.05-0.28-0.12-0.41c-0.07-0.13-0.19-0.26-0.34-0.39L60.78,134.38z"/>
			<path style="clip-path:url(#SVGID_00000125585432475471381440000017070556497717806217_);fill:#FFFFFF;" d="M82.83,154.23
				l1.26-4.44l-1.89-3l-1.9,6.72c-0.03,0.1-0.07,0.17-0.13,0.21c-0.06,0.04-0.15,0.04-0.27,0.01l-1.95-0.55
				c-0.1-0.03-0.17-0.08-0.2-0.15c-0.03-0.07-0.04-0.15-0.01-0.23l2.72-9.6c0.02-0.08,0.07-0.15,0.14-0.19s0.15-0.05,0.25-0.03
				l2.07,0.59c0.14,0.04,0.24,0.09,0.31,0.15c0.07,0.06,0.13,0.14,0.18,0.21l1.63,2.55l0.52-1.84c0.02-0.08,0.07-0.15,0.14-0.19
				c0.07-0.05,0.15-0.05,0.25-0.03l2.02,0.57c0.07,0.02,0.13,0.07,0.2,0.14c0.06,0.08,0.08,0.16,0.05,0.25l-2.71,9.59
				c-0.06,0.2-0.2,0.27-0.42,0.21l-2.02-0.57C82.84,154.56,82.77,154.44,82.83,154.23"/>
			<path style="clip-path:url(#SVGID_00000125585432475471381440000017070556497717806217_);fill:#FFFFFF;" d="M101.13,156.61
				c-0.03-0.08-0.06-0.19-0.07-0.32c-0.02-0.13-0.05-0.32-0.09-0.56l-3.94-0.1l-0.29,0.87c-0.07,0.17-0.19,0.26-0.37,0.25l-2.1-0.05
				c-0.08,0-0.14-0.02-0.19-0.05c-0.05-0.03-0.08-0.08-0.08-0.15c0-0.03,0.01-0.06,0.02-0.09l3.94-9.93
				c0.02-0.06,0.08-0.12,0.15-0.18c0.08-0.06,0.16-0.09,0.24-0.09l1.82,0.05c0.08,0,0.15,0.03,0.21,0.07
				c0.06,0.05,0.1,0.1,0.12,0.14l3.36,10.15c0.01,0.04,0.02,0.08,0.02,0.11c0,0.14-0.11,0.21-0.32,0.21l-2.05-0.05
				c-0.11,0-0.19-0.02-0.25-0.07C101.21,156.78,101.17,156.71,101.13,156.61 M100.51,153.61l-0.22-0.8l-2.32-0.06l-0.26,0.79
				L100.51,153.61z M99.19,149.05l-0.53,1.61l1.03,0.03L99.19,149.05z"/>
			<path style="clip-path:url(#SVGID_00000125585432475471381440000017070556497717806217_);fill:#FFFFFF;" d="M112.56,145.42
				l1.41,6.36c0.04,0.2,0.12,0.38,0.22,0.54c0.1,0.16,0.22,0.29,0.36,0.39c0.14,0.1,0.3,0.17,0.47,0.2
				c0.18,0.03,0.36,0.03,0.56-0.01c0.19-0.04,0.36-0.12,0.5-0.22c0.14-0.1,0.25-0.23,0.33-0.38c0.08-0.15,0.13-0.32,0.14-0.5
				c0.02-0.18,0-0.38-0.04-0.57l-1.42-6.36c-0.02-0.09,0-0.17,0.07-0.24c0.06-0.07,0.13-0.12,0.2-0.14l2.09-0.46
				c0.08-0.02,0.15,0,0.22,0.05c0.07,0.05,0.11,0.12,0.13,0.19l1.43,6.42c0.12,0.53,0.12,1.04,0.02,1.55
				c-0.11,0.5-0.31,0.96-0.59,1.37c-0.28,0.41-0.65,0.77-1.08,1.07c-0.44,0.3-0.93,0.51-1.47,0.63c-0.55,0.12-1.08,0.14-1.61,0.06
				c-0.53-0.08-1-0.25-1.44-0.5c-0.43-0.26-0.81-0.59-1.12-0.99c-0.31-0.41-0.52-0.88-0.64-1.41l-1.43-6.43
				c-0.02-0.08-0.01-0.16,0.03-0.23c0.04-0.07,0.1-0.12,0.18-0.14l2.09-0.46c0.07-0.02,0.15,0,0.24,0.04
				C112.49,145.26,112.54,145.33,112.56,145.42"/>
			<path style="clip-path:url(#SVGID_00000125585432475471381440000017070556497717806217_);fill:#FFFFFF;" d="M128.73,150.91
				l-4.58-8.89c-0.04-0.07-0.05-0.15-0.02-0.23c0.02-0.08,0.07-0.14,0.15-0.19l1.88-0.97c0.06-0.03,0.14-0.04,0.24-0.02
				c0.1,0.02,0.16,0.07,0.2,0.15l0.73,1.42l3.15-1.62l-0.73-1.42c-0.04-0.08-0.05-0.15-0.02-0.24c0.02-0.08,0.08-0.15,0.16-0.19
				l1.86-0.96c0.09-0.04,0.17-0.06,0.26-0.05c0.08,0.01,0.15,0.06,0.2,0.15l4.57,8.87c0.05,0.09,0.06,0.18,0.02,0.25
				c-0.03,0.08-0.09,0.13-0.18,0.18l-1.88,0.97c-0.09,0.04-0.17,0.06-0.24,0.04c-0.08-0.02-0.14-0.08-0.19-0.17l-1.39-2.7
				l-3.15,1.62l1.39,2.69c0.04,0.09,0.05,0.17,0.02,0.25c-0.03,0.08-0.1,0.14-0.19,0.19l-1.87,0.96
				C128.95,151.11,128.82,151.07,128.73,150.91 M128.82,145.05l3.15-1.62l-0.51-1l-3.15,1.62L128.82,145.05z"/>
			<path style="clip-path:url(#SVGID_00000125585432475471381440000017070556497717806217_);fill:#FFFFFF;" d="M144.49,141.27
				l-6.55-7.5c-0.07-0.07-0.1-0.15-0.1-0.23c0-0.08,0.04-0.15,0.12-0.22l4.1-3.58c0.08-0.07,0.16-0.1,0.24-0.09
				c0.08,0.01,0.16,0.05,0.23,0.13l1.16,1.33c0.05,0.06,0.08,0.14,0.09,0.23c0.01,0.09-0.03,0.18-0.12,0.25l-2.25,1.96l0.78,0.9
				l2.68-2.35c0.07-0.06,0.14-0.09,0.21-0.1c0.07-0.01,0.14,0.03,0.21,0.1l1.01,1.16c0.04,0.05,0.07,0.12,0.07,0.2
				c0,0.08-0.04,0.15-0.11,0.22l-2.69,2.35l1.57,1.8l2.43-2.12c0.16-0.14,0.31-0.13,0.46,0.04l1.18,1.35
				c0.03,0.04,0.04,0.08,0.04,0.13c0.07,0.11,0.04,0.23-0.09,0.34l-4.25,3.72c-0.07,0.06-0.15,0.09-0.22,0.09
				C144.64,141.39,144.56,141.35,144.49,141.27"/>
			<path style="clip-path:url(#SVGID_00000125585432475471381440000017070556497717806217_);fill:#FFFFFF;" d="M155.26,130.48
				l-7.87-6.11c-0.07-0.05-0.11-0.12-0.13-0.2c-0.02-0.08,0.01-0.16,0.07-0.24l1.29-1.66c0.04-0.06,0.11-0.1,0.21-0.13
				c0.09-0.03,0.18-0.01,0.25,0.04l7.87,6.11c0.17,0.13,0.18,0.29,0.03,0.47l-1.29,1.66C155.57,130.59,155.42,130.61,155.26,130.48"
				/>
			<path style="clip-path:url(#SVGID_00000125585432475471381440000017070556497717806217_);fill:#FFFFFF;" d="M161.89,121.05
				l-8.57-5.19c-0.07-0.04-0.12-0.11-0.16-0.18c-0.03-0.08-0.02-0.16,0.02-0.26l1.06-2.23c0.07-0.16,0.2-0.22,0.39-0.19l3.25,0.48
				l-2.43-2.2c-0.07-0.07-0.12-0.14-0.13-0.22c-0.01-0.08,0-0.16,0.04-0.23l1.04-2.2c0.04-0.08,0.1-0.14,0.18-0.17
				c0.08-0.04,0.17-0.04,0.25-0.01c1.59,0.57,3.16,1.12,4.72,1.67c1.56,0.55,3.14,1.11,4.72,1.67l0.03,0.01
				c0.17,0.08,0.21,0.21,0.12,0.4l-0.86,1.82c-0.09,0.2-0.24,0.26-0.43,0.18l-5.25-1.8l1.74,1.49c0.04,0.03,0.08,0.09,0.11,0.17
				c0.03,0.08,0.04,0.15,0.01,0.2l-0.8,1.69c-0.02,0.05-0.08,0.09-0.16,0.12c-0.08,0.03-0.15,0.04-0.2,0.02l-2.26-0.38l4.71,2.91
				c0.18,0.1,0.23,0.25,0.13,0.45l-0.86,1.82C162.22,121.09,162.08,121.14,161.89,121.05"/>
			<path style="clip-path:url(#SVGID_00000125585432475471381440000017070556497717806217_);fill:#FFFFFF;" d="M81.03,30.21
				c-0.08-0.06-0.15-0.13-0.21-0.21c-0.07-0.07-0.13-0.15-0.2-0.23l-6.46-7.97c-0.01-0.02-0.02-0.04-0.03-0.06
				c-0.01-0.02-0.02-0.03-0.03-0.05c-0.04-0.13,0.02-0.22,0.19-0.27l2.18-0.71c0.17-0.06,0.32-0.01,0.44,0.14L81,26.35
				c0.03-1.15,0.04-2.29,0.03-3.42c-0.02-1.14-0.01-2.28,0.02-3.42c0.01-0.19,0.1-0.32,0.29-0.38l2.14-0.7
				c0.1-0.03,0.18-0.04,0.24-0.01c0.05,0.02,0.09,0.07,0.11,0.13c0.01,0.03,0.02,0.06,0.02,0.08l-0.51,10.27
				c0,0.07-0.01,0.15-0.01,0.24c-0.01,0.09-0.02,0.17-0.04,0.25c-0.02,0.08-0.05,0.15-0.09,0.21c-0.04,0.06-0.09,0.11-0.16,0.13
				l-1.68,0.55C81.22,30.3,81.11,30.29,81.03,30.21"/>
			<path style="clip-path:url(#SVGID_00000125585432475471381440000017070556497717806217_);fill:#FFFFFF;" d="M98.94,26.7
				l0.18-9.96c0-0.1,0.03-0.18,0.09-0.24c0.05-0.06,0.12-0.09,0.2-0.09l5.11,0.09c0.11,0,0.19,0.04,0.24,0.1
				c0.05,0.06,0.08,0.15,0.08,0.25l-0.03,1.77c0,0.08-0.03,0.16-0.09,0.23c-0.06,0.07-0.14,0.11-0.25,0.11l-2.62-0.05l-0.03,1.92
				l3.2,0.06c0.09,0,0.17,0.03,0.23,0.08c0.06,0.05,0.09,0.13,0.09,0.24l-0.03,1.71c0,0.08-0.03,0.16-0.09,0.23
				s-0.13,0.11-0.23,0.11l-3.22-0.06l-0.06,3.55c0,0.21-0.11,0.3-0.33,0.3L99.19,27c-0.08-0.01-0.14-0.04-0.19-0.1
				S98.94,26.78,98.94,26.7"/>
			<path style="clip-path:url(#SVGID_00000125585432475471381440000017070556497717806217_);fill:#FFFFFF;" d="M117.55,29.05
				l3.28-9.42c0.03-0.08,0.08-0.14,0.15-0.18c0.07-0.04,0.16-0.04,0.25-0.01l1.99,0.69c0.08,0.03,0.14,0.08,0.18,0.15
				c0.05,0.08,0.06,0.16,0.02,0.25l-2.55,7.33l3.29,1.15c0.08,0.03,0.14,0.08,0.18,0.15c0.04,0.07,0.04,0.16,0.01,0.25l-0.62,1.77
				c-0.03,0.08-0.08,0.14-0.15,0.18c-0.07,0.05-0.16,0.05-0.25,0.02l-5.61-1.95C117.54,29.38,117.48,29.24,117.55,29.05"/>
			<path style="clip-path:url(#SVGID_00000125585432475471381440000017070556497717806217_);fill:#FFFFFF;" d="M124.36,86.48
				l14.74-2.14c0.04,0.71,0.06,1.42,0.06,2.14c0,4.9-0.92,9.58-2.59,13.89h-19.56l-4.21-50.43c5.65,1.88,10.73,5.03,14.88,9.11
				L124.36,86.48z M74.53,100.37h9.4l5.57-50.74c-5.99,1.81-11.36,5.04-15.72,9.3l2.92,27.56l-9.64-18.81
				c-2.8,4.99-4.52,10.66-4.85,16.7L74.53,100.37z M100.66,124.99c-14.49,0-27.1-8.01-33.68-19.83h22.29l4.08-40.39
				c0-4.04,3.27-7.31,7.31-7.31c4.04,0,7.31,3.27,7.31,7.31l4.08,40.39h22.28C127.76,116.98,115.15,124.99,100.66,124.99
				 M105.04,67.35h-4.38c-1.74,0-2.74,1.01-2.74,2.76v7.45h-1.95v3.64h1.95v14.76h3.88V81.19h2.86v-3.64h-2.86v-6.57h3.24V67.35z"/>
		</g>
	</g>
</g>
</svg>
