<?xml version="1.0" encoding="utf-8"?>
<svg width="693px" height="322px" viewBox="0 0 693 322" version="1.1" xmlns="http://www.w3.org/2000/svg" xmlns:xlink="http://www.w3.org/1999/xlink">
    <g id="Hessen" stroke="none" stroke-width="1" fill="none" fill-rule="evenodd">
        <g id="124-ssg" transform="translate(0.000000, -186.000000)" fill-rule="nonzero">
            <g id="Group" transform="translate(0.000000, 186.000000)">
                <path d="M232,16.3372119 C210.609929,5.88772195 186.721303,0 161.296979,0 C72.214342,0 6.9281183e-14,72.075935 6.9281183e-14,161 C6.9281183e-14,249.9119 72.214342,322 161.296979,322 C186.721303,322 210.609929,316.124443 232,305.662788 L232,16.3372119 Z" id="Path" fill="#FFFFFF"></path>
                <path d="M146.074074,305.285682 C146.074074,305.285682 195.837983,295.736381 223.370843,229.536003 C224.577463,226.616471 200.92041,262.186097 168.743893,280.007405 C117.541791,308.375519 96.3832939,290.0068 96.3832939,290.0068 C96.3832939,290.0068 136.347991,300.225161 209.220489,220.765244 C214.046966,215.510087 163.332388,256.468682 122.746099,265.750359 C66.9734699,278.49898 58.0274232,261.21292 58.0274232,261.21292 C58.0274232,261.21292 105.755923,269.971515 195.484529,203.88062 C202.712057,198.564639 155.142002,227.322025 100.527239,235.861655 C41.7441555,246.91938 30.555503,220.400302 30.555503,220.400302 C30.555503,220.400302 59.1974783,235.399396 183.052692,185.925501 C190.743367,184.271099 131.082742,196.642614 91.2033622,199.294522 C13.9309693,204.440196 18.0017862,166.948546 18.0017862,166.948546 C18.0017862,166.948546 31.9936958,193.564941 175.557027,164.454779 C184.186183,163.432943 105.634043,163.810049 71.8243236,160.537741 C14.8572629,155.01496 24.6808511,117.985569 24.6808511,117.985569 C24.6808511,117.985569 36.4789073,147.472837 173.911636,138.276313 C177.836196,138.008689 93.3728395,130.150283 64.7308642,116.44065 C36.3570265,102.864828 45.6565274,75.6037023 45.6565274,75.6037023 C45.6565274,75.6037023 46.6193853,98.1084246 165.28248,109.129656 C187.50134,112.438459 190.987129,122.681148 207.891988,122.450019 C220.409141,122.279713 230.854321,110.723234 230.598371,98.4855308 C230.537431,94.7023045 229.708642,90.6392898 227.904807,87.5859464 C224.930917,81.3576124 218.398109,75.2509256 209.098608,74.0952777 C207.965117,73.9493011 197.068978,72.0394409 191.23089,80.5912354 C188.220436,85.0070268 191.889046,91.1137136 191.450276,90.6879486 C185.648752,84.8975444 181.821697,76.5525501 182.102023,70.3607102 C182.528605,61.0060446 189.14673,54.9845108 193.558813,49.5955421 C193.351615,48.9143181 192.559391,48.2817529 192.644707,47.2355875 C193.351615,37.4308274 211.219333,22.9183226 229.867087,31.6525878 C230.537431,31.9688704 231.280904,32.370306 232,32.7352474 L232,16.3372119 C210.609929,5.88772195 186.721303,1.38296795e-13 161.296979,1.38296795e-13 C72.214342,1.38296795e-13 0,72.075935 0,161 C0,249.9119 72.214342,322 161.296979,322 C186.721303,322 210.609929,316.124443 232,305.662788 L232,289.410729 C207.111952,302.609445 177.726504,308.849943 146.074074,305.285682 Z" id="Path" fill="#54B948"></path>
            </g>
            <path d="M254,208 L273.988483,208 C289.306875,208 296.299787,208.732249 306.080085,215.713018 C317.461906,223.865385 323,238.132027 323,257.64645 C323,275.122781 318.329908,287.204882 311.618179,294.625 C302.864812,304.388314 295.71297,307 280.113395,307 L254,307 L254,208 Z M265.968639,217.763314 L265.968639,297.114645 L276.616938,297.114645 C283.035259,297.114645 285.2236,296.968195 288.866761,296.382396 C294.844968,295.369453 300.383062,291.720414 303.304926,286.777737 C307.975018,279.211169 310.016655,269.594305 310.016655,259.110947 C310.016655,244.112056 308.121722,234.800296 301.409993,226.782175 C294.844968,219.069157 288.426648,217.751109 277.925053,217.751109 L265.968639,217.751109 L265.968639,217.763314 Z" id="Shape" fill="#5F6062"></path>
            <path d="M339.222325,208 L351,208 L351,290.485791 C351,294.252265 350.855489,298.456137 350.710977,301.068369 C350.421955,305.855437 349.277906,309.76771 347.411302,313.242586 C344.256137,318.892298 338.355257,323.387768 330.744326,326 L325,318.61285 C330.310792,316.438015 334.766559,312.817339 336.777675,308.892916 C338.64428,305.563839 339.222325,300.92257 339.222325,290.777389 L339.222325,208 L339.222325,208 Z" id="Path" fill="#5F6062"></path>
            <path d="M371,207 L383.011029,207 L383.011029,307 L371,307 L371,207 Z M421.798162,207 L437,207 L397.048162,253.939524 L436.708824,307 L421.506985,307 L383.58125,254.086133 L421.798162,207 Z" id="Shape" fill="#5F6062"></path>
            <path d="M537.228954,214.608828 L532.015013,223.204273 C522.450045,216.940831 516.361037,214.755342 507.804826,214.755342 C495.335121,214.755342 487.933512,221.018784 487.933512,231.213665 C487.933512,239.223057 492.722073,243.887063 504.462556,247.525475 L515.923503,251.163888 C524.771403,253.935431 529.547811,256.548251 533.473458,261.212256 C537.532797,265.876262 540,272.579244 540,278.842686 C540,288.170697 534.91975,296.912656 526.229848,302.883071 C519.703307,307.107537 513.03092,309 503.903485,309 C492.005004,309 481.856658,306.081944 472,299.965015 L477.213941,290.637004 C485.478463,296.60742 493.888829,299.232449 503.891332,299.232449 C511.426631,299.232449 515.48597,298.072552 519.691153,294.86147 C524.479714,291.223057 526.801072,286.412538 526.801072,280.588636 C526.801072,271.700164 521.003753,265.583236 508.971582,261.944823 L498.96908,258.892463 C489.975335,256.12092 485.186774,254.081944 481.27328,250.003992 C477.213941,245.633012 475.038427,240.102137 475.038427,233.692181 C475.038427,216.647805 487.945666,205 507.233601,205 C517.941019,205 527.797676,208.198873 537.228954,214.608828 Z" id="Path" fill="#5F6062"></path>
            <path d="M610.22945,214.608828 L605.004289,223.204273 C595.441029,216.940831 589.353109,214.755342 580.798427,214.755342 C568.330951,214.755342 560.942816,221.018784 560.942816,231.213665 C560.942816,239.223057 565.730522,243.887063 577.468906,247.525475 L588.927806,251.163888 C597.774124,253.935431 602.549678,256.548251 606.474625,261.212256 C610.533238,265.876262 613,272.579244 613,278.842686 C613,288.170697 607.920658,296.912656 599.220157,302.883071 C592.694782,307.107537 586.023588,309 576.897784,309 C565.013581,309 554.854896,306.081944 545,299.965015 L550.213009,290.637004 C558.476054,296.60742 566.884918,299.232449 576.885633,299.232449 C584.419585,299.232449 588.478199,298.072552 592.68263,294.86147 C597.470336,291.223057 599.791279,286.412538 599.791279,280.588636 C599.791279,271.700164 593.994996,265.583236 581.952823,261.944823 L571.952109,258.892463 C562.959971,256.12092 558.172266,254.081944 554.259471,250.003992 C550.200858,245.633012 548.025733,240.102137 548.025733,233.692181 C548.025733,216.647805 560.930665,205 580.215154,205 C590.944961,205 600.812009,208.198873 610.22945,214.608828 Z" id="Path" fill="#5F6062"></path>
            <path d="M690.663353,216.833809 L685.296366,224.21826 C677.166781,218.713267 671.361673,216.554922 663.658039,216.554922 C652.035653,216.554922 642.895955,221.902282 638.831162,233.336662 C636.214604,240.708987 634.91241,249.111983 634.91241,258.509272 C634.91241,271.532097 637.382928,282.093438 641.885842,288.592725 C646.388756,295.104137 656.550737,299.154066 665.982516,299.154066 C672.225746,299.154066 677.592732,297.844508 681.815735,295.249643 L681.815735,265.008559 L661.783853,265.008559 L659.459376,255.17475 L693,255.17475 L693,301.470043 C685.892698,306.101997 675.146555,309 664.972403,309 C652.485944,309 641.885842,304.659058 634.340418,296.559201 C625.918752,287.440799 622,275.145506 622,258.072753 C622,239.120542 626.941035,225.527817 637.395098,216.409415 C644.51457,210.043509 653.082276,207 663.390298,207 C673.966061,207 683.105759,210.322397 690.663353,216.833809 Z" id="Path" fill="#5F6062"></path>
            <g id="Group" transform="translate(255.000000, 337.000000)" fill="#5F6062">
                <path d="M2.84217094e-14,1.53591887 L10.3377552,1.53591887 C24.535426,1.53591887 27.969168,1.85034913 31.6220851,3.09597669 C38.9279191,5.58723182 43.8350043,12.1177064 43.8350043,19.3737893 C43.8350043,26.72662 39.1349178,32.3258973 31.0010892,34.9139002 C36.3221716,36.2562755 38.0999246,36.9818838 40.4986734,38.8563719 C44.3585891,41.8676463 46.8669255,47.5636713 46.8669255,53.1629486 C46.8669255,60.9390508 41.8624291,68.5095639 34.7635937,70.9887256 C30.9036781,72.4399422 29.1259251,72.6455312 18.4837602,72.6455312 L0.0121763901,72.6455312 L0.0121763901,1.53591887 L2.84217094e-14,1.53591887 Z M8.24341609,8.69525399 L8.24341609,32.1203083 L20.663334,32.1203083 C28.3831653,32.1203083 31.0985003,30.7779329 33.1928394,26.0010117 C33.9234228,24.3442061 34.3374201,22.4818115 34.3374201,20.5105756 C34.3374201,14.9112983 31.0985003,10.4609008 26.2035915,9.3241145 C24.2188399,8.80409523 22.0270897,8.69525399 18.3741726,8.69525399 L8.24341609,8.69525399 Z M8.24341609,39.1708021 L8.24341609,65.7038786 L22.5384981,65.7038786 C31.3054989,65.7038786 34.4348312,64.047073 36.7361689,58.3510479 C37.4667523,56.4886533 37.8807496,54.5174174 37.8807496,52.4373403 C37.8807496,46.221296 34.3374201,41.0331967 29.2233362,39.8964104 C27.2385846,39.4852324 24.4258385,39.1708021 20.8703326,39.1708021 L8.24341609,39.1708021 Z" id="Shape"></path>
                <polygon id="Path" points="58.2396738 2.05593814 97.3745916 2.05593814 96.2300109 9.10643202 66.9092636 9.10643202 66.9092636 32.1203083 91.4325132 32.1203083 91.4325132 39.4731389 66.9092636 39.4731389 66.9092636 65.2806071 98.4217611 65.2806071 98.4217611 72.6334377 58.2396738 72.6334377"></polygon>
                <path d="M109.270925,1.74150788 L119.182506,1.74150788 L142.975172,47.0315586 C145.58092,52.1108166 149.660011,61.8581546 149.660011,61.8581546 C149.660011,61.8581546 148.832016,49.631655 148.722429,40.295495 L148.405842,1.74150788 L156.856257,1.74150788 L156.856257,72.6334377 L147.882258,72.6334377 L124.917586,29.2057816 C121.581255,22.7841483 118.232748,16.0480846 116.783757,12.2023607 C117.307342,18.212816 117.623928,24.4288604 117.721339,31.4793543 L118.135337,72.6213443 L109.270925,72.6213443 L109.270925,1.74150788 Z" id="Path"></path>
                <path d="M214.56017,6.83285938 L210.797665,12.9521559 C203.905828,8.50175844 199.522328,6.94170062 193.373251,6.94170062 C184.399252,6.94170062 179.078169,11.4041916 179.078169,18.6602745 C179.078169,24.3562996 182.524087,27.6820042 190.974502,30.2700071 L199.217918,32.85801 C205.58617,34.8292459 209.032089,36.6916405 211.844835,40.0052517 C214.767168,43.3188628 216.544921,48.0957841 216.544921,52.5461816 C216.544921,59.173404 212.892004,65.4015418 206.63334,69.6463503 C201.933253,72.6576247 197.135756,74 190.560505,74 C182.000503,74 174.694669,71.9320164 167.595833,67.5783666 L171.346161,60.9511443 C177.300416,65.1959528 183.352082,67.0583474 190.548329,67.0583474 C195.978999,67.0583474 198.901332,66.2359913 201.921077,63.9503252 C205.366995,61.3623223 207.035161,57.9398699 207.035161,53.7918092 C207.035161,47.4669236 202.858659,43.1132738 194.201246,40.5252709 L186.992823,38.3484461 C180.527159,36.3772102 177.081241,34.9259936 174.256319,32.0235605 C171.333985,28.9155383 169.775407,24.9730666 169.775407,20.4138279 C169.775407,8.28407596 179.065993,0 192.947077,0 C200.679085,-0.0120454817 207.777921,2.26152716 214.56017,6.83285938 Z" id="Path"></path>
                <polygon id="Path" points="228.550842 1.53591887 236.903846 1.53591887 236.903846 31.2858587 267.064764 31.2858587 267.064764 1.53591887 275.624766 1.53591887 275.624766 72.6334377 267.064764 72.6334377 267.064764 38.2275114 236.903846 38.2275114 236.903846 72.6334377 228.550842 72.6334377"></polygon>
                <polygon id="Path" points="292.416008 2.05593814 331.550926 2.05593814 330.406345 9.10643202 301.073421 9.10643202 301.073421 32.1203083 325.596671 32.1203083 325.596671 39.4731389 301.073421 39.4731389 301.073421 65.2806071 332.585919 65.2806071 332.585919 72.6334377 292.403832 72.6334377 292.403832 2.05593814"></polygon>
                <polygon id="Path" points="343.861256 1.53591887 352.202083 1.53591887 352.202083 72.6334377 343.861256 72.6334377"></polygon>
                <path d="M372.768006,1.53591887 L385.285335,1.53591887 L398.326249,47.9748494 C399.690005,52.9452661 400.201413,54.916502 401.138995,60.4069381 C402.283576,54.3964827 402.807161,52.4252469 403.744743,48.7972054 L417.21183,1.53591887 L429.838747,1.53591887 L436,72.6334377 L427.439998,72.6334377 L423.263496,20.4984822 C422.959086,15.9392434 422.739911,8.36873026 422.739911,8.36873026 C422.009328,11.8879305 420.75516,16.7615995 419.927165,19.5672849 L404.584914,72.6334377 L397.27908,72.6334377 L383.081409,22.1552877 C381.620242,16.7615995 380.573072,13.2423993 379.525903,8.27198248 C379.525903,8.27198248 379.002318,17.7048902 378.685732,22.05854 L374.716229,72.6334377 L366.472813,72.6334377 L372.768006,1.53591887 Z" id="Path"></path>
            </g>
            <path d="M453.493606,308 C452.112532,308 451,306.927736 451,305.611775 L451,209.388225 C451,208.072264 452.12532,207 453.493606,207 C454.87468,207 456,208.072264 456,209.388225 L456,305.611775 C455.987212,306.927736 454.87468,308 453.493606,308 Z" id="Path" fill="#5F6062"></path>
            <g id="Group" transform="translate(249.000000, 437.000000)" fill="#5F6062">
                <path d="M41.7509363,4.12196914 C42.5421348,4.25532697 43.5889513,4.38868479 44.5749064,4.38868479 C45.6217228,4.38868479 46.741573,4.25532697 47.593633,4.12196914 C43.6498127,19.3126378 39.7668539,38.031227 38.0018727,48.9665687 C37.2106742,48.8332109 36.2247191,48.699853 35.1048689,48.699853 C33.9850187,48.699853 32.9990637,48.8332109 32.1470037,48.9665687 C33.9850187,42.0319618 35.3726592,36.06723 37.4662921,26.1866275 C33.0599251,26.0532697 27.9353933,26.0532697 23.2003745,26.0532697 C18.8670412,26.0532697 14.5215356,26.0532697 10.1882022,26.1866275 C7.36423221,40.0679647 6.96254682,42.0319618 5.85486891,48.9665687 C5.00280899,48.8332109 4.07771536,48.699853 2.95786517,48.699853 C1.83801498,48.699853 0.791198502,48.8332109 0,48.9665687 C3.42041199,35.873255 7.82677903,14.7905952 9.53089888,4.12196914 C10.3220974,4.25532697 11.4419476,4.38868479 12.4279026,4.38868479 C13.5477528,4.38868479 14.5945693,4.25532697 15.3857678,4.12196914 C13.5477528,11.1899339 13.2799625,12.4386481 10.7846442,23.5679647 C15.6535581,23.7619398 20.3155431,23.7013226 24.2593633,23.7013226 C31.0271536,23.6407054 35.2996255,23.6407054 38.0627341,23.5679647 C40.241573,12.8993387 40.7649813,10.280676 41.7509363,4.12196914 Z" id="Path"></path>
                <path d="M66.0102996,17.3486407 C76.3932584,17.3486407 80.008427,23.5073475 80.008427,30.1146216 C80.008427,39.7406319 72.7172285,49.6212344 61.409176,49.6212344 C50.5636704,49.6212344 47.6666667,42.092579 47.6666667,36.4673035 C47.678839,27.1080088 54.6413858,17.3486407 66.0102996,17.3486407 Z M61.2144195,47.5360029 C71.1348315,47.5360029 74.8230337,35.4246877 74.8230337,28.9386481 C74.8230337,23.5073475 71.7312734,19.4459956 66.0833333,19.4459956 C56.5524345,19.4459956 52.8763591,30.7692873 52.8763591,38.0433505 C52.8642322,43.5352682 55.2986891,47.5360029 61.2144195,47.5360029 Z" id="Shape"></path>
                <path d="M108.941948,47.3299045 C105.850187,48.8332109 102.697566,49.6212344 99.2162921,49.6212344 C91.1338951,49.6212344 84.5608614,45.3659074 84.5608614,36.06723 C84.5608614,27.8232917 90.1479401,17.3486407 104.012172,17.3486407 C108.747191,17.3486407 112.033708,18.5246143 114.005618,19.3126378 C113.080524,21.2160176 112.885768,21.8706833 112.36236,24.0286554 L111.972846,24.0286554 C110.329588,21.0220426 106.98221,19.4459956 103.622659,19.4459956 C95.3455056,19.4459956 89.8192884,27.7626745 89.8192884,36.0793534 C89.8192884,45.5720059 96.4531835,47.3420279 100.202247,47.3420279 C104.742509,47.3420279 108.223783,45.1840558 109.53839,44.4566495 L109.867041,44.5900073 L108.941948,47.3299045 Z" id="Path"></path>
                <path d="M128.661049,31.0360029 C129.318352,32.1513593 135.757491,41.898604 141.417603,48.9786921 C140.370787,48.8453343 139.117041,48.7119765 137.863296,48.7119765 C136.816479,48.7119765 135.757491,48.8453343 134.905431,48.9786921 C131.752809,43.6807494 127.01779,36.8673769 126.299625,35.8853784 L125.179775,34.3093314 C124.46161,33.3273328 123.536517,32.4786921 122.745318,32.4786921 C122.148876,32.4786921 121.95412,33 121.820225,33.7880235 L121.552434,35.1579721 C121.089888,37.449302 119.312734,46.6752388 118.984082,48.9665687 C118.192884,48.8332109 117.401685,48.699853 116.294007,48.699853 C115.308052,48.699853 114.382959,48.8332109 113.664794,48.9665687 C117.669476,33.38795 120.895131,17.2152829 123.195693,4.71601763 C123.524345,2.94599559 123.719101,1.57604702 123.913858,0 C124.838951,0.133357825 125.751873,0.26671565 126.603933,0.26671565 C127.529026,0.26671565 128.514981,0.133357825 129.294007,0 C127.979401,5.69801616 127.784644,6.48603968 126.202247,13.6873622 L123.183521,27.6293167 L122.660112,30.1873622 C122.599251,30.4540779 122.465356,31.1693608 123.317416,31.1693608 C123.779963,31.1693608 124.303371,30.9026451 124.632022,30.7086701 L125.751873,29.9206466 C128.381086,28.0900073 132.592697,24.4893461 140.01779,17.9426892 C140.614232,18.076047 141.466292,18.2094048 142.318352,18.2094048 C143.304307,18.2094048 144.351124,18.076047 145.142322,17.9426892 C143.96161,18.7307127 131.728464,27.8232917 128.648876,30.5753123 L128.648876,31.0360029 L128.661049,31.0360029 Z" id="Path"></path>
                <path d="M170.205056,46.6752388 C166.979401,48.5786187 163.242509,49.5606172 159.493446,49.5606172 C153.845506,49.5606172 146.40824,46.4812638 146.40824,36.0793534 C146.40824,25.7986774 153.249064,17.4213813 163.303371,17.4213813 C169.547753,17.4213813 175.07397,20.2340191 175.07397,28.162748 C175.07397,30.5874357 174.611423,32.3574578 174.355805,33.4606907 C169.486891,33.193975 167.648876,33.1333578 159.83427,33.1333578 C157.338951,33.1333578 153.918539,33.193975 151.885768,33.2667157 C151.751873,34.1153564 151.557116,35.3640705 151.557116,37.0613519 C151.557116,45.5720059 157.411985,47.2086701 161.088015,47.2086701 C166.151685,47.2086701 169.365169,44.856723 170.886704,43.7413666 L171.081461,43.7413666 L170.205056,46.6752388 Z M152.32397,30.6359295 C155.014045,30.8299045 158.568352,30.9026451 161.258427,30.9026451 C163.826779,30.9026451 167.56367,30.9026451 169.998127,30.6359295 C170.192884,29.847906 170.38764,28.8052902 170.38764,27.0958854 C170.38764,21.2645114 166.71161,19.3005143 163.291199,19.3005143 C159.761236,19.3126378 154.29588,21.6039677 152.32397,30.6359295 Z" id="Shape"></path>
                <path d="M190.191948,42.8806025 C191.969101,39.7406319 193.867978,36.5279206 195.645131,33.3273328 C201.171348,23.3739897 202.08427,21.5433505 202.93633,19.5187362 L203.593633,17.9426892 C204.250936,18.076047 204.969101,18.2094048 205.894195,18.2094048 C206.746255,18.2094048 207.403558,18.076047 208,17.9426892 C198.40824,33.0606172 187.684457,50.5426157 180.064607,66 C179.541199,65.8666422 178.810861,65.7332843 177.958801,65.7332843 C177.167603,65.7332843 176.449438,65.8666422 175.92603,66 C179.541199,60.3019838 183.351124,54.2160176 186.710674,48.7847171 C184.081461,38.0433505 181.513109,28.356723 178.762172,17.9548126 C179.553371,18.0881705 180.539326,18.2215283 181.525281,18.2215283 C182.511236,18.2215283 183.363296,18.0881705 184.093633,17.9548126 C185.140449,23.9801616 187.11236,32.6241734 189.875468,42.9048494 L190.191948,42.9048494 L190.191948,42.8806025 Z" id="Path"></path>
            </g>
        </g>
    </g>
</svg>