<?xml version="1.0" encoding="utf-8"?>
<svg width="206px" height="206px" viewBox="0 0 206 206" version="1.1" xmlns="http://www.w3.org/2000/svg" xmlns:xlink="http://www.w3.org/1999/xlink">
    <g id="Hessen" stroke="none" stroke-width="1" fill="none" fill-rule="evenodd">
        <g id="Artboard">
            <g id="Kreis" transform="translate(0.000000, 0.000000)" fill-rule="nonzero">
                <circle id="Oval" fill="#FFFFFF" cx="102.5" cy="102.5" r="99.5"></circle>
                <path d="M102.76,0 C45.99,0 0,45.99 0,102.75 C0,159.51 45.99,205.51 102.76,205.51 C159.52,205.51 205.52,159.52 205.52,102.75 C205.51,45.99 159.52,0 102.76,0 Z M102.76,198.81 C49.68,198.81 6.67,155.81 6.67,102.73 C6.67,49.65 49.68,6.64 102.76,6.64 C155.84,6.64 198.85,49.65 198.85,102.73 C198.85,155.81 155.84,198.81 102.76,198.81 Z" id="Kreis_außen" fill="#003769"></path>
                <path d="M102.76,35.21 C65.31,35.21 34.94,65.57 34.94,103.03 C34.94,140.48 65.3,170.85 102.76,170.85 C140.21,170.85 170.58,140.49 170.58,103.03 C170.57,65.58 140.21,35.21 102.76,35.21 Z M102.76,166.66 C67.6,166.66 39.1,138.16 39.1,103.01 C39.1,67.85 67.6,39.35 102.76,39.35 C137.92,39.35 166.42,67.85 166.42,103.01 C166.42,138.16 137.92,166.66 102.76,166.66 Z" id="Kreis_innen" fill="#003769"></path>
            </g>
            <g id="Löwe" transform="translate(53.300000, 52.290000)" fill="#003769" fill-rule="nonzero">
                <path d="M92.8,64.42 C93.65,62.65 93.86,60.9 93.86,59.4 C93.86,58.53 93.8,57.75 93.74,57.1 C93.7,56.62 93.65,56.2 93.65,55.89 C93.65,54.63 94.34,53.56 95.07,52.43 C95.77,51.32 96.51,50.18 96.51,48.81 C96.51,48.07 96.49,47.38 96.08,46.63 L95.62,45.74 L94.92,46.45 C94.11,47.25 93.57,47.4 92.87,47.62 L91.89,47.97 C90.72,48.48 89.66,49.51 89.3,50.77 C87.71,49.66 85.97,48.31 85.97,46.48 C85.97,45.16 87.08,44.63 88.89,43.87 C90.67,43.11 92.89,42.18 92.89,39.57 L92.89,37.09 L91.51,39.13 C90.97,39.96 90.36,40.3 89.42,40.3 C88.94,40.3 88.34,40.15 87.7,39.99 C86.89,39.78 85.97,39.57 85.03,39.57 C81.55,39.57 80.1,42.13 80.1,43.49 C80.1,43.9 80.11,44.29 80.15,44.69 C78.86,43.69 78.1,42.13 78.1,40.38 C78.1,36.15 81.31,34.99 84.7,33.76 C87.55,32.72 90.5,31.65 91.24,28.63 L91.75,26.49 L90.04,27.82 C88.05,29.36 86.36,29.39 84.55,29.4 C83.47,29.42 82.38,29.43 81.23,29.75 C81.29,29.72 81.32,29.66 81.37,29.62 L83.23,28.06 L80.83,28.25 C79.25,28.37 77.91,28.66 76.48,29.47 C77.88,26.87 79.94,25.52 83.17,25.03 C91.66,23.73 94.68,18.02 94.68,13.1 C94.68,10.98 94.48,9.6 93.99,8.15 L93.32,6.19 L92.57,8.12 C91.66,10.51 89.48,12.22 87.37,13.23 C87.45,12.85 87.5,12.44 87.5,12 C87.5,11.48 87.43,10.91 87.28,10.3 L87.02,9.35 L85.18,10.39 C84.56,10.74 83.89,11.14 83.4,11.36 L83.18,11.46 C81.35,12.32 76.67,14.45 76.67,20.62 C76.67,21.04 76.7,21.47 76.75,21.94 C74.61,23.83 71.15,27.17 70.82,33.57 L70.82,33.56 C70.8,33.86 70.79,34.17 70.79,34.49 C70.79,40.11 76.55,47.76 80.42,50.16 L82.29,51.26 C85.7,53.21 89.22,55.23 89.22,58.97 C89.22,63.34 86.15,66.5 81.93,66.5 C80.79,66.5 80.01,66.32 79.26,65.87 C79.57,65.27 79.73,64.54 79.73,63.67 C79.73,58.83 74.41,55.79 68.78,52.59 C66.9,51.5 64.94,50.38 63.1,49.15 C62.39,48.68 61.6,47.95 60.78,47.07 C61.22,46.76 61.6,46.4 61.9,45.99 L62.24,45.52 L61.89,45.05 C61.52,44.55 61.03,43.39 61.03,42.35 C61.88,42.73 62.92,42.94 63.86,42.73 L64.52,42.59 L64.45,41.9 C64.42,41.55 64.4,41.22 64.4,40.88 C64.4,38.84 64.98,37.3 65.44,36.69 C66.21,35.67 66.71,34.47 66.99,33.51 L70.79,33.51 L70.05,32.38 C69.75,31.93 69.43,31.21 69.43,30.3 C69.43,30.15 69.44,29.98 69.46,29.81 C69.82,27.08 69.98,24.84 69.98,23.15 C69.98,22.23 69.93,21.48 69.83,20.87 C70.69,20.78 71.4,20.59 72.06,20.3 L73.1,19.84 L72.29,19.04 C71.41,18.19 69.96,16.36 69.54,14.83 C69.33,14.15 68.75,12.32 67.76,11.16 C68.14,10.89 68.5,10.5 68.9,9.94 L69.42,9.18 L68.59,8.79 C67.66,8.35 67,7.84 66.3,7.3 C65.84,6.95 65.37,6.61 64.84,6.26 C65.2,5.84 65.48,5.37 65.6,4.89 L65.82,4.04 L64.97,3.92 C64.12,3.8 62.62,3.25 61.94,2.83 C61.63,1.08 60.25,0 59.43,0 C58.75,0 58.02,0.24 57.31,0.71 C56.65,0.53 56.07,0.47 55.58,0.47 C54.6,0.47 53.37,0.58 52.3,1.31 C46.57,1.4 43.78,4.63 43.01,6.16 C41.7,6.96 38.36,9.19 38.36,11.25 C38.36,11.25 38.36,12.25 38.74,12.56 C38.54,13.06 38.47,13.59 38.47,13.99 C38.47,15.51 39.6,16.83 41.15,17.39 C41.26,17.43 41.39,17.45 41.51,17.48 C41.54,17.63 41.6,17.78 41.69,17.94 C40.85,18.12 39.93,18.22 39.29,18.22 C36.67,18.22 34.67,17.05 34.67,15.97 C34.67,15.31 34.89,14.61 35.38,13.99 L35.79,13.64 L35.28,13.22 C34.93,12.93 34.44,12.77 33.9,12.77 C32.44,12.77 30.89,14 30.89,16.29 C30.89,19.7 34.76,21.25 37.62,21.25 C39.14,21.25 40.97,20.73 42.27,20.27 C42.18,20.59 42.2,21.59 42.2,21.85 C42.2,23.23 43.46,24.34 45.32,23.93 C46.45,23.68 46.99,22.76 47.82,22.91 C48.21,22.98 48.2,23.54 48.2,24.41 C48.2,25.41 46.41,25.91 45.59,25.91 C43.54,25.91 42.33,25.95 41.14,25.23 C40.33,24.75 38.98,23.53 38.44,23.53 L37.96,23.41 L38.01,26.23 C34.46,26.11 33.28,24.82 33.12,24.69 L32.54,25.04 C32.54,25.04 31.24,25.79 30.74,26.89 C27.27,25.08 22.5,22.04 21.73,20.95 C20.7,19.47 19.7,18.3 18.9,17.38 C17.6,15.85 16.74,14.86 16.76,13.79 C16.76,13.46 16.88,13.02 17,12.54 C17.17,11.9 17.36,11.17 17.36,10.46 C17.36,9.52 16.8,8.88 16.08,8.49 C15.79,7.14 14.51,5.78 12.94,5.78 C11.56,5.78 10.49,6.28 10.02,7.17 L9.65,7.82 L10.28,8.21 C10.89,8.6 11.32,9.04 11.6,9.43 C11.52,9.62 11.48,9.83 11.47,10.04 L11.47,10.25 C11.47,10.43 11.48,10.61 11.51,10.78 C11.39,10.35 11.17,9.96 10.85,9.64 C10.59,9.38 10.27,9.19 9.93,9.06 C9.38,7.87 8.33,7.21 7.01,7.21 C5.26,7.21 3.95,8.96 3.92,10.13 L3.93,10.83 L4.58,10.93 C4.96,10.98 5.3,11.09 5.6,11.25 C5.46,11.57 5.37,11.89 5.37,12.25 C5.37,13.58 6.25,14.22 6.96,14.68 C6.84,14.68 6.72,14.66 6.59,14.66 C5.59,14.66 4.59,15.06 4.02,15.91 C2.34,16.26 1.18,17.62 1.18,19.31 C1.18,20.77 1.75,21.64 2.24,22.24 L3.06,23.23 L3.51,22.02 C3.76,21.34 4.2,20.82 4.82,20.47 C5.35,20.91 6.03,21.24 6.88,21.42 C6.97,22.25 7.31,23.1 7.86,23.81 C7.53,24.14 7.05,24.44 6.43,24.58 L5.42,24.78 L5.93,25.72 C6.38,26.57 7.38,27.46 8.79,27.46 C10.06,27.46 11.4,26.59 12.12,25.35 C12.2,25.32 12.27,25.29 12.36,25.24 C14.73,28.73 15.11,31.33 15.12,33.43 L15.12,34.21 L15.88,34.21 C16.3,34.21 17.23,34.2 17.96,33.57 C18.1,34.28 18.18,34.98 18.18,35.65 C18.18,36.84 17.96,38.01 17.53,39.19 L17.22,40.07 L18.12,40.23 C19.22,40.41 20.56,40.03 21.42,39.23 C21.87,40.15 22.02,40.95 22.05,41.57 C21.82,41.75 21.57,41.9 21.22,42.05 L20.52,42.34 L20.82,43.05 C20.93,43.34 21.08,43.62 21.22,43.88 C18.7,45.54 16.71,46.63 15.67,46.89 C14.87,47.1 13.66,47.63 12.49,48.12 C11.47,48.55 9.94,49.22 9.56,49.23 C9,49.23 8.49,48.86 7.98,48.48 C7.41,48.07 6.84,47.65 6.13,47.65 C5.95,47.65 5.78,47.67 5.62,47.71 C4.84,47.35 4.07,47.35 3.73,47.35 C2.02,47.35 0.88,48.66 0.42,49.8 L7.10542736e-15,50.87 L1.12,50.87 C1.72,50.87 2.28,50.99 2.78,51.26 C2.87,51.82 3.11,52.35 3.47,52.79 C2.83,52.98 2.33,53.3 2.01,53.77 C1.7,54.22 1.59,54.69 1.59,55.13 C1.59,55.2 1.59,55.26 1.59,55.34 C0.6,55.9 0.05,56.8 0.05,57.87 C0.05,59.33 0.92,60.13 1.48,60.68 L2.35,61.5 L2.76,60.45 C3,59.83 3.36,59.4 3.83,59.17 C3.91,59.24 3.98,59.29 4.05,59.33 C4.15,59.4 4.28,59.45 4.4,59.49 C4.37,59.74 4.34,59.98 4.34,60.21 C4.34,61.26 4.68,62.06 5.32,62.5 L5.32,62.71 C5.37,63.36 5.71,64.04 6.28,64.54 C6.88,65.08 7.62,65.37 8.34,65.31 L9.09,65.25 L9.05,64.49 C9.03,64.12 9.13,63.55 9.35,62.88 C10.18,62.58 11,61.71 11,60.8 C11,60.25 11.14,59.85 11.29,59.6 C11.69,60.06 12.39,60.42 12.91,60.54 C13.11,61.04 13.39,61.53 13.84,62.09 L14.28,62.6 L14.84,62.23 C16.08,61.42 16.42,60.48 16.68,59.74 C16.87,59.65 17.14,59.44 17.29,59.31 C17.68,58.92 18.13,58.19 18.13,57.41 C18.13,57.4 18.13,57.38 18.13,57.35 C18.11,56.9 18.06,56.52 17.9,56.18 C18.48,55.9 19.44,55.59 20.49,55.59 C22.71,55.59 23.77,56.28 25.24,57.25 L25.97,57.71 L26.38,57.43 C26.96,57.02 27.35,56.48 27.58,55.83 C28.06,56.14 28.59,56.89 29.15,57.67 L29.88,58.7 L30.46,58.37 C31.2,57.95 32.1,56.81 32.34,55.62 C34.04,55.86 35.06,56.42 36.24,57.15 L36.59,57.37 L36.96,57.18 C37.66,56.83 38.18,56.21 38.48,55.37 C43.32,59.74 48.17,61.13 53.77,61.63 C53.06,62.45 52.69,62.49 52.64,62.49 L49.96,62.44 L47.44,62.39 C43.4,62.39 39.63,63.63 36.84,65.86 C34.06,68.09 32.52,71.06 32.52,74.21 C32.52,77.81 32.35,78.32 31.45,79.3 L30.89,79.92 L31.54,80.44 C31.85,80.69 32.26,80.89 32.66,81.04 C31.21,82.79 27.74,83.56 26.63,83.56 C26.09,83.56 25.85,83.34 25.44,82.98 C24.9,82.52 24.25,81.98 23,81.98 C22.72,81.98 22.46,81.99 22.18,82.04 C21.69,81.58 21.17,81.3 20.1,81.3 C18.51,81.3 17.22,82.87 17.13,84.3 L17.09,85.16 L17.94,85.11 C18.54,85.08 19.07,85.15 19.49,85.32 L19.49,85.35 C19.19,85.31 18.86,85.27 18.5,85.27 C17.64,85.27 16.72,85.72 16.08,86.49 C14.26,86.77 13.03,88.14 13.03,89.93 C13.03,91.39 13.59,92.26 14.08,92.85 L14.81,93.73 L15.32,92.71 C15.6,92.15 16.05,91.75 16.49,91.43 C16.93,91.84 17.46,92.1 18.04,92.1 C18.15,92.1 18.25,92.1 18.34,92.09 C18.21,92.51 18.13,92.92 18.13,93.32 C18.13,93.57 18.16,93.81 18.22,94.05 C18.36,94.58 18.72,95.11 19.14,95.42 L19.14,95.58 C19.19,96.77 20.33,98 21.19,98.47 L21.62,98.71 L22.01,98.39 C22.62,97.88 23.04,97.28 23.4,96.53 C24.32,96.37 25.16,95.93 25.7,95.27 C26.11,94.76 26.57,93.9 26.58,92.56 C26.9,92.51 27.22,92.43 27.51,92.32 C27.9,93.1 28.75,93.75 29.54,94.09 C29.54,94.09 30.3,94.55 30.03,95.42 L29.71,96.53 L30.81,96.42 C32.34,96.29 33.86,95.3 33.86,93.66 L33.86,93.59 C34.18,93.11 34.71,92.19 34.71,91.15 C34.71,91.04 34.69,90.92 34.69,90.81 C36.06,90.39 38.24,89.56 39.88,88.62 C39.88,88.62 40.06,89 40.56,90 L41.19,89.74 C42.11,89.39 43.05,88.7 43.81,87.87 C43.88,88.22 43.92,88.61 43.94,89.08 L44.04,90.47 L45.13,89.7 C47.61,87.95 50.17,85.6 50.17,81.38 C50.17,79.16 49.65,78.18 49.24,77.41 C48.99,76.92 48.81,76.6 48.81,76 C48.81,74.45 50.23,72.28 52.55,72.28 C52.89,72.28 53.27,72.3 53.71,72.31 C53.68,72.64 53.66,72.98 53.66,73.31 C53.66,76.52 54.24,79.14 57.15,82.29 L58.04,83.23 C59.93,85.24 60.27,85.59 60.27,87.73 L60.27,88.76 L61.24,88.47 C61.92,88.27 62.43,88 62.81,87.68 C63.27,89.25 64.22,90.43 65.47,90.83 L66.07,91.02 L66.37,90.45 C66.63,89.91 66.9,89.49 67.15,89.12 C66.76,90.88 65.84,92.23 65.03,93.12 C63.29,94.96 61.2,95.82 60.34,95.82 C59.63,95.82 59.33,95.63 58.93,95.4 C58.53,95.17 58.02,94.86 57.17,94.86 C56.83,94.86 56.48,94.92 56.14,95.03 C55.79,94.76 55.23,94.48 54.3,94.48 C53.34,94.48 52.55,94.81 51.99,95.47 C51.26,96.32 50.99,97.64 51.21,99.28 L51.41,100.9 L52.5,99.72 C52.8,99.39 53.17,99.17 53.59,99.09 C53.72,99.54 53.95,99.95 54.26,100.32 C53.42,101.01 53,101.86 53,102.95 C53,103.02 53.02,103.31 53.06,103.43 C52.11,104 51.74,104.94 51.74,106.19 C51.74,107.29 52.3,108.38 53.12,108.83 L53.67,109.14 L54.07,108.63 C54.89,107.55 55.51,107.01 56.08,106.8 C57.13,106.95 58.05,106.77 58.89,106.26 C59.21,106.66 59.71,107.04 60.21,107.24 C60.77,108.27 61,109.22 61.04,109.89 L61.13,111.09 L62.15,110.51 C63.31,109.87 64.06,108.73 64.45,107.56 C65.3,107.26 65.94,106.6 66.33,105.85 C66.59,105.33 66.75,104.8 66.75,104.28 C66.75,104.2 66.72,104.11 66.71,104.02 C67.29,103.66 67.79,103.08 68.12,102.46 C68.94,103.06 69.69,103.08 70.24,102.91 C70.58,103.07 71.01,103.46 71.49,104.42 L71.7,104.87 L72.22,104.83 C73.27,104.75 74.9,103 74.9,101.6 C74.9,101.01 74.68,100.46 74.26,99.94 C74.43,99.59 74.53,99.18 74.53,98.77 C74.53,98.19 74.26,97.63 73.81,97.16 C74.84,96.29 75.75,95.16 76.39,94.1 C76.76,94.55 77.24,94.83 77.85,94.96 L78.2,95.03 L78.48,94.8 C79.11,94.27 79.44,93.76 79.6,92.93 C81.57,93.34 83.19,92.92 83.87,91.73 L84.2,91.16 L83.7,90.74 C83.5,90.56 83.01,90.07 83.01,89.31 C83.01,88.2 83.2,87.44 83.39,86.64 C83.61,85.83 83.8,85 83.8,83.85 C83.8,81.22 81.9,79.07 79.53,79.07 C78.28,79.07 77.11,79.52 76.31,80.22 C74.24,80.06 72.29,77.7 72.29,75.29 C72.29,73.23 73.36,71.66 75.57,70.53 C76.63,70.98 78.82,71.72 81.33,71.72 C83.25,71.72 85.02,71.24 86.17,70.46 C86.79,70.91 87.48,71.16 88.16,71.16 C90.03,71.16 91.3,70.61 92.31,69.36 L92.79,68.72 C93.43,67.88 94.03,67.1 95.13,66.17 L95.99,65.45 L95.02,64.89 C94.36,64.47 93.58,64.35 92.8,64.42 M49.74,9.18 C49.41,8.86 49.1,8.77 48.86,8.76 C48.62,8.75 48.46,8.83 48.46,8.83 C48.43,9.13 48.28,9.38 48.04,9.59 C47.8,9.79 47.46,9.95 47.05,10.06 C46.45,10.21 45.91,10.07 45.47,9.77 C45.04,9.47 44.73,9.01 44.6,8.52 C44.54,8.3 44.51,8.3 44.53,7.99 C44.56,7.68 46.36,6.71 47.3,6.96 C48.24,7.22 49.25,7.71 50.24,8.53 L49.99,8.86 L49.74,9.18 Z M49.0800178,16.9 C47.65,16.78 47.22,16.79 46.43,16.86 C45.64,16.93 44.94,17.08 44.38,17.2 C44.38,17.2 44.93,17 45.21,16.58 C45.66,15.99 46.19,15.18 45.9,14.5399937 C45.9,14.5399937 46.73,14.53 47.8,15.31 C49.1,16.25 49.0800178,16.9 49.0800178,16.9 Z M49.29,19.55 C48.7,20.66 47.23,20.94 45.89,20.56 C45.89,20.56 45.3,20.33 43.81,20.39 C43.62,20.31 43.45,20.03 43.41,19.85 C43.41,19.85 45,19.25 46.33,19.26 C48.64,19.28 49.29,19.55 49.29,19.55 Z"></path>
            </g>
            <g id="Schrift" transform="translate(10.620000, 10.900000)">
                <g id="Group" transform="translate(0.524737, 0.388188)" fill="#003769" fill-rule="nonzero">
                    <path d="M4.96526316,74.9718118 L19.9752632,77.5218118 C20.4152632,77.5918118 20.7652632,77.8018118 21.0352632,78.1418118 C21.3052632,78.4818118 21.3752632,79.0218118 21.2452632,79.7618118 C21.0152632,81.1118118 20.3652632,81.7018118 19.2952632,81.5218118 L4.28526316,78.9718118 L3.46526316,83.8018118 C3.37526316,84.3518118 3.13526316,84.7118118 2.75526316,84.8818118 C2.37526316,85.0518118 1.95526316,85.1018118 1.49526316,85.0218118 C1.03526316,84.9418118 0.655263158,84.7618118 0.355263158,84.4618118 C0.0552631579,84.1618118 -0.0547368421,83.7718118 0.0252631579,83.2718118 L2.40526316,69.2618118 C2.48526316,68.7818118 2.71526316,68.4518118 3.10526316,68.2618118 C3.49526316,68.0718118 3.91526316,68.0118118 4.36526316,68.0918118 C4.82526316,68.1718118 5.20526316,68.3518118 5.50526316,68.6418118 C5.80526316,68.9318118 5.91526316,69.3518118 5.82526316,69.9018118 L4.96526316,74.9718118 Z" id="Path"></path>
                    <path d="M23.7552632,68.4118118 C23.3452632,69.3918118 22.6652632,69.6818118 21.7152632,69.2818118 L5.91526316,62.6318118 C5.52526316,62.4618118 5.25526316,62.2018118 5.11526316,61.8418118 C4.97526316,61.4818118 5.00526316,61.0618118 5.19526316,60.6018118 L9.36526316,50.6818118 C9.57526316,50.1818118 9.87526316,49.8718118 10.2652632,49.7418118 C10.6552632,49.6118118 11.0952632,49.6518118 11.5952632,49.8618118 C12.0552632,50.0618118 12.3952632,50.3218118 12.6052632,50.6618118 C12.8152632,51.0018118 12.8152632,51.4318118 12.5952632,51.9518118 L9.31526316,59.7518118 L13.6752632,61.5818118 L16.6552632,54.5018118 C16.8452632,54.0418118 17.1452632,53.7518118 17.5552632,53.6318118 C17.9552632,53.5218118 18.3952632,53.5618118 18.8552632,53.7518118 C19.3152632,53.9518118 19.6552632,54.2118118 19.8652632,54.5518118 C20.0752632,54.8918118 20.0752632,55.3218118 19.8552632,55.8418118 L16.8752632,62.9218118 L21.4452632,64.8418118 L24.7952632,56.8818118 C24.9652632,56.4718118 25.2452632,56.2218118 25.6252632,56.1318118 C26.0052632,56.0418118 26.4452632,56.1018118 26.9252632,56.3018118 C27.3852632,56.5018118 27.7252632,56.7618118 27.9352632,57.1018118 C28.1452632,57.4418118 28.1452632,57.8818118 27.9152632,58.4118118 L23.7552632,68.4118118 Z" id="Path"></path>
                    <path d="M20.8852632,38.0718118 C20.3352632,38.8218118 20.0052632,39.5718118 19.9052632,40.3418118 C19.8052632,41.1118118 19.8952632,41.8618118 20.1552632,42.5818118 C20.4252632,43.3118118 20.8452632,44.0118118 21.4152632,44.6818118 C21.9852632,45.3518118 22.6552632,45.9718118 23.4152632,46.5418118 C24.2052632,47.1318118 25.0152632,47.6018118 25.8452632,47.9618118 C26.6752632,48.3218118 27.4752632,48.5218118 28.2552632,48.5518118 C29.0352632,48.5918118 29.7752632,48.4418118 30.4852632,48.1218118 C31.1952632,47.8018118 31.8252632,47.2618118 32.3852632,46.5018118 C32.6352632,46.1618118 32.8452632,45.8318118 32.9952632,45.5118118 C33.1452632,45.1918118 33.2552632,44.8618118 33.3252632,44.5318118 C33.3952632,44.2018118 33.4152632,43.8418118 33.3952632,43.4618118 C33.3752632,43.0818118 33.3252632,42.6718118 33.2552632,42.2118118 C33.1552632,41.6018118 33.0852632,41.1318118 33.0552632,40.8018118 C33.0252632,40.4718118 33.1352632,40.1318118 33.3752632,39.8118118 C33.6752632,39.4118118 34.0852632,39.1518118 34.5952632,39.0618118 C35.1052632,38.9718118 35.5652632,39.0618118 35.9552632,39.3418118 C36.5652632,39.7918118 36.9452632,40.5318118 37.1252632,41.5718118 C37.2852632,42.4618118 37.2252632,43.5318118 36.9552632,44.7818118 C36.6852632,46.0318118 36.0352632,47.3418118 35.0252632,48.7118118 C33.9952632,50.1118118 32.8852632,51.1218118 31.6952632,51.7518118 C30.5152632,52.3818118 29.3052632,52.7018118 28.0852632,52.7118118 C26.8652632,52.7218118 25.6452632,52.4918118 24.4452632,52.0018118 C23.2352632,51.5218118 22.0952632,50.8818118 21.0252632,50.0918118 C19.8952632,49.2518118 18.9152632,48.3018118 18.1052632,47.2318118 C17.2952632,46.1618118 16.7252632,45.0218118 16.4052632,43.7918118 C16.0852632,42.5718118 16.0552632,41.2918118 16.3252632,39.9418118 C16.5952632,38.6018118 17.2352632,37.2418118 18.2652632,35.8518118 C18.7152632,35.2418118 19.1952632,34.7218118 19.6952632,34.2818118 C20.2052632,33.8418118 20.7152632,33.4618118 21.2252632,33.1618118 C21.7352632,32.8518118 22.2452632,32.6218118 22.7552632,32.4518118 C23.2652632,32.2818118 23.7452632,32.1718118 24.1852632,32.1218118 C24.6352632,32.0718118 25.0652632,32.0618118 25.4652632,32.1118118 C25.8752632,32.1618118 26.2352632,32.3018118 26.5452632,32.5318118 C26.9652632,32.8418118 27.2152632,33.2418118 27.2952632,33.7318118 C27.3752632,34.2218118 27.2452632,34.6918118 26.9152632,35.1518118 C26.6052632,35.5718118 26.2752632,35.8218118 25.9352632,35.8918118 C25.5952632,35.9618118 25.1752632,36.0218118 24.6852632,36.0718118 C23.7752632,36.1718118 23.0352632,36.3618118 22.4552632,36.6418118 C21.9052632,36.9318118 21.3752632,37.4118118 20.8852632,38.0718118 Z" id="Path"></path>
                    <path d="M54.0952632,18.4918118 C55.0052632,19.8818118 55.6152632,21.2418118 55.9352632,22.5618118 C56.2552632,23.8818118 56.2752632,25.1418118 56.0252632,26.3418118 C55.7752632,27.5418118 55.2452632,28.6618118 54.4452632,29.7218118 C53.6452632,30.7818118 52.5952632,31.7318118 51.2852632,32.5918118 L47.0452632,35.3818118 C46.1552632,35.9618118 45.4352632,35.8318118 44.8652632,34.9718118 L35.4552632,20.6418118 C35.2252632,20.2818118 35.1452632,19.9218118 35.2352632,19.5418118 C35.3252632,19.1618118 35.5752632,18.8318118 35.9952632,18.5618118 L40.2352632,15.7718118 C41.5452632,14.9118118 42.8352632,14.3118118 44.0952632,13.9618118 C45.3652632,13.6118118 46.5752632,13.5418118 47.7552632,13.7418118 C48.9352632,13.9418118 50.0452632,14.4318118 51.1152632,15.2118118 C52.1752632,15.9918118 53.1752632,17.0918118 54.0952632,18.4918118 Z M50.6052632,20.7818118 C49.3352632,18.8418118 47.9952632,17.7218118 46.5952632,17.4118118 C45.1952632,17.1118118 43.7552632,17.4418118 42.2852632,18.4018118 L39.8152632,20.0218118 L47.2052632,31.2718118 L49.6752632,29.6518118 C51.1452632,28.6818118 51.9952632,27.4718118 52.2352632,25.9918118 C52.4552632,24.5318118 51.9152632,22.7918118 50.6052632,20.7818118 Z" id="Shape"></path>
                    <path d="M62.9752632,21.9818118 L62.8952632,24.9918118 C62.8852632,25.4218118 62.7552632,25.7818118 62.5152632,26.0518118 C62.2752632,26.3218118 61.9752632,26.5218118 61.6352632,26.6418118 C60.9052632,26.9018118 60.3252632,26.9318118 59.8852632,26.7518118 C59.4552632,26.5618118 59.1552632,26.2418118 58.9952632,25.7918118 C58.8952632,25.5018118 58.8552632,25.1818118 58.8752632,24.8518118 L59.3852632,7.18181178 C59.3952632,6.58181178 59.5752632,6.11181178 59.9252632,5.78181178 C60.2752632,5.45181178 60.6652632,5.20181178 61.1252632,5.03181178 C61.5852632,4.87181178 62.0352632,4.81181178 62.4852632,4.84181178 C62.9352632,4.88181178 63.3752632,5.13181178 63.7852632,5.60181178 L75.2252632,19.0418118 C75.4352632,19.2718118 75.5852632,19.5318118 75.6752632,19.8018118 C75.8352632,20.2618118 75.8252632,20.7018118 75.6352632,21.1318118 C75.4452632,21.5618118 75.0352632,21.8918118 74.3952632,22.1218118 C73.4852632,22.4418118 72.7452632,22.2918118 72.1752632,21.6718118 L70.1652632,19.4618118 L62.9752632,21.9818118 Z M62.8352632,10.2618118 L62.9452632,18.3418118 L67.7852632,16.6318118 L62.8352632,10.2618118 Z" id="Shape"></path>
                    <path d="M84.8052632,12.9418118 L81.0852632,13.2918118 L81.6552632,19.3218118 C81.6952632,19.7618118 81.6052632,20.1618118 81.3752632,20.5118118 C81.1452632,20.8618118 80.6452632,21.0718118 79.8752632,21.1518118 C78.5052632,21.2818118 77.7752632,20.7818118 77.6652632,19.6418118 L76.0352632,2.55181178 C75.9952632,2.11181178 76.1052632,1.74181178 76.3652632,1.46181178 C76.6252632,1.18181178 76.9852632,1.01181178 77.4252632,0.971811785 L83.3452632,0.411811785 C85.8852632,0.171811785 87.7852632,0.521811785 89.0352632,1.46181178 C90.2852632,2.40181178 91.0152632,3.89181178 91.2052632,5.93181178 C91.2552632,6.41181178 91.2452632,6.91181178 91.2052632,7.43181178 C91.1552632,7.95181178 91.0452632,8.47181178 90.8552632,8.98181178 C90.6652632,9.49181178 90.4052632,9.98181178 90.0652632,10.4518118 C89.7252632,10.9218118 89.2752632,11.3418118 88.7252632,11.7018118 L92.6152632,17.3918118 C92.7052632,17.5418118 92.7852632,17.6818118 92.8452632,17.8218118 C92.9052632,17.9618118 92.9452632,18.1118118 92.9552632,18.2618118 C93.0052632,18.7418118 92.8652632,19.1518118 92.5652632,19.4918118 C92.2552632,19.8318118 91.7552632,20.0318118 91.0652632,20.1018118 C90.5852632,20.1518118 90.1852632,20.0818118 89.8652632,19.9118118 C89.5452632,19.7418118 89.2652632,19.4718118 89.0152632,19.1018118 L84.8052632,12.9418118 Z M87.0852632,6.34181178 C87.0452632,5.94181178 86.9552632,5.56181178 86.8052632,5.22181178 C86.6552632,4.88181178 86.4352632,4.59181178 86.1352632,4.35181178 C85.8452632,4.12181178 85.4652632,3.94181178 85.0052632,3.83181178 C84.5452632,3.72181178 83.9852632,3.69181178 83.3052632,3.76181178 L80.1852632,4.05181178 L80.7452632,9.97181178 L83.8652632,9.67181178 C84.5352632,9.61181178 85.0852632,9.48181178 85.5152632,9.28181178 C85.9452632,9.08181178 86.2752632,8.84181178 86.5252632,8.54181178 C86.7652632,8.25181178 86.9352632,7.91181178 87.0152632,7.53181178 C87.1052632,7.16181178 87.1252632,6.76181178 87.0852632,6.34181178 Z" id="Shape"></path>
                    <path d="M114.555263,8.93181178 L107.645263,20.5018118 C107.375263,20.9618118 107.045263,21.2518118 106.635263,21.3818118 C106.225263,21.5118118 105.785263,21.5318118 105.315263,21.4318118 C104.635263,21.3018118 104.145263,21.0618118 103.855263,20.7218118 C103.565263,20.3818118 103.375263,19.9418118 103.285263,19.4118118 L101.225263,7.31181178 L99.0052632,18.7818118 C98.9252632,19.2218118 98.7152632,19.5618118 98.3752632,19.8218118 C98.0352632,20.0818118 97.5052632,20.1418118 96.7652632,19.9918118 C96.0652632,19.8518118 95.5952632,19.6318118 95.3752632,19.3118118 C95.1552632,18.9918118 95.0952632,18.5418118 95.2152632,17.9518118 L98.3952632,1.55181178 C98.5352632,0.851811785 98.8652632,0.391811785 99.3952632,0.181811785 C99.9252632,-0.0281882151 100.605263,-0.0581882151 101.415263,0.101811785 C102.245263,0.261811785 102.865263,0.541811785 103.245263,0.941811785 C103.625263,1.34181178 103.865263,1.84181178 103.945263,2.45181178 L106.115263,17.3418118 L113.465263,4.41181178 C113.825263,3.77181178 114.285263,3.35181178 114.845263,3.16181178 C115.405263,2.96181178 116.125263,2.95181178 116.995263,3.12181178 C117.795263,3.27181178 118.395263,3.54181178 118.785263,3.92181178 C119.185263,4.30181178 119.325263,4.80181178 119.205263,5.40181178 L115.975263,22.0618118 C115.895263,22.5018118 115.685263,22.8418118 115.345263,23.1018118 C115.005263,23.3618118 114.475263,23.4218118 113.735263,23.2718118 C113.055263,23.1418118 112.595263,22.9018118 112.365263,22.5518118 C112.135263,22.2018118 112.075263,21.7518118 112.185263,21.2018118 L114.555263,8.93181178 Z" id="Path"></path>
                    <path d="M131.165263,18.1718118 C131.765263,18.6518118 132.335263,19.1818118 132.885263,19.7618118 C133.435263,20.3418118 133.875263,20.9718118 134.205263,21.6518118 C134.535263,22.3318118 134.715263,23.0818118 134.735263,23.8818118 C134.755263,24.6818118 134.525263,25.5518118 134.045263,26.4818118 C133.525263,27.4918118 132.895263,28.2618118 132.155263,28.7818118 C131.415263,29.3018118 130.615263,29.6318118 129.745263,29.7518118 C128.875263,29.8818118 127.955263,29.8218118 126.995263,29.5818118 C126.025263,29.3418118 125.055263,28.9718118 124.075263,28.4618118 C122.735263,27.7718118 121.675263,27.0418118 120.905263,26.2818118 C120.135263,25.5218118 119.555263,24.8218118 119.165263,24.1918118 C118.865263,23.6818118 118.715263,23.2618118 118.725263,22.9218118 C118.735263,22.5818118 118.805263,22.2918118 118.935263,22.0518118 C119.135263,21.6618118 119.435263,21.3418118 119.815263,21.1018118 C120.105263,20.9218118 120.415263,20.8118118 120.755263,20.7718118 C121.095263,20.7318118 121.415263,20.7718118 121.715263,20.9118118 C122.005263,21.0618118 122.235263,21.2518118 122.395263,21.4918118 C122.555263,21.7318118 122.735263,22.0118118 122.925263,22.3518118 C123.065263,22.6218118 123.225263,22.8918118 123.385263,23.1618118 C123.545263,23.4318118 123.755263,23.7018118 123.995263,23.9718118 C124.235263,24.2418118 124.525263,24.5118118 124.865263,24.7818118 C125.205263,25.0518118 125.625263,25.3218118 126.115263,25.5718118 C127.095263,26.0818118 127.925263,26.2918118 128.605263,26.2218118 C129.285263,26.1518118 129.815263,25.7518118 130.185263,25.0318118 C130.555263,24.3118118 130.585263,23.6418118 130.275263,23.0218118 C129.965263,22.4018118 129.345263,21.7318118 128.405263,21.0118118 L127.175263,20.0518118 C126.525263,19.5418118 125.925263,18.9918118 125.385263,18.3918118 C124.845263,17.8018118 124.425263,17.1618118 124.125263,16.4818118 C123.825263,15.8018118 123.675263,15.0818118 123.685263,14.3118118 C123.695263,13.5418118 123.925263,12.7218118 124.375263,11.8418118 C124.785263,11.0518118 125.315263,10.3918118 125.965263,9.87181178 C126.615263,9.35181178 127.365263,8.99181178 128.215263,8.81181178 C129.065263,8.63181178 129.985263,8.62181178 130.995263,8.80181178 C132.005263,8.98181178 133.075263,9.35181178 134.205263,9.94181178 C134.965263,10.3318118 135.675263,10.8018118 136.335263,11.3418118 C137.005263,11.8818118 137.565263,12.4418118 138.015263,13.0218118 C138.465263,13.6018118 138.785263,14.1818118 138.965263,14.7518118 C139.145263,15.3218118 139.115263,15.8418118 138.875263,16.3018118 C138.735263,16.5818118 138.525263,16.8118118 138.245263,17.0218118 C137.995263,17.2018118 137.715263,17.3218118 137.395263,17.3818118 C137.075263,17.4418118 136.745263,17.4018118 136.435263,17.2618118 C136.165263,17.1218118 135.945263,16.9618118 135.785263,16.7818118 C135.625263,16.6018118 135.485263,16.3618118 135.365263,16.0518118 C135.125263,15.5118118 134.795263,14.9718118 134.385263,14.4318118 C133.975263,13.8918118 133.305263,13.3818118 132.385263,12.9118118 C131.815263,12.6218118 131.315263,12.4318118 130.865263,12.3518118 C130.415263,12.2718118 130.025263,12.2718118 129.695263,12.3518118 C129.365263,12.4318118 129.075263,12.5818118 128.845263,12.7918118 C128.615263,13.0118118 128.425263,13.2518118 128.285263,13.5318118 C128.125263,13.8418118 128.055263,14.1518118 128.075263,14.4718118 C128.095263,14.7918118 128.185263,15.0918118 128.345263,15.3918118 C128.505263,15.6918118 128.715263,15.9918118 128.985263,16.2718118 C129.245263,16.5618118 129.555263,16.8418118 129.895263,17.1018118 L131.165263,18.1718118 Z" id="Path"></path>
                    <path d="M150.505263,26.0218118 L140.585263,37.5718118 C140.295263,37.9118118 139.935263,38.1018118 139.505263,38.1618118 C139.075263,38.2118118 138.575263,37.9918118 138.005263,37.5018118 C136.965263,36.6118118 136.795263,35.7518118 137.505263,34.9318118 L147.425263,23.3818118 L143.705263,20.1918118 C143.275263,19.8218118 143.095263,19.4318118 143.145263,19.0218118 C143.195263,18.6118118 143.375263,18.2218118 143.675263,17.8718118 C143.975263,17.5218118 144.335263,17.2918118 144.745263,17.1818118 C145.155263,17.0718118 145.555263,17.1818118 145.935263,17.5118118 L156.715263,26.7718118 C157.085263,27.0818118 157.245263,27.4618118 157.215263,27.8818118 C157.175263,28.3118118 157.005263,28.7018118 156.705263,29.0518118 C156.405263,29.4018118 156.055263,29.6318118 155.645263,29.7518118 C155.245263,29.8618118 154.825263,29.7418118 154.405263,29.3718118 L150.505263,26.0218118 Z" id="Path"></path>
                    <path d="M148.185263,41.9118118 L145.315263,42.8218118 C144.905263,42.9518118 144.525263,42.9518118 144.195263,42.8118118 C143.865263,42.6718118 143.575263,42.4518118 143.345263,42.1718118 C142.865263,41.5618118 142.635263,41.0318118 142.675263,40.5618118 C142.705263,40.0918118 142.915263,39.7018118 143.295263,39.4018118 C143.535263,39.2118118 143.825263,39.0718118 144.145263,38.9818118 L161.015263,33.6818118 C161.585263,33.5018118 162.085263,33.5118118 162.515263,33.7318118 C162.945263,33.9418118 163.305263,34.2418118 163.615263,34.6218118 C163.915263,35.0018118 164.125263,35.4118118 164.235263,35.8518118 C164.345263,36.2918118 164.255263,36.7818118 163.945263,37.3218118 L154.985263,52.5218118 C154.835263,52.7918118 154.635263,53.0218118 154.415263,53.2018118 C154.035263,53.5018118 153.615263,53.6318118 153.145263,53.6018118 C152.675263,53.5718118 152.225263,53.2918118 151.805263,52.7618118 C151.205263,52.0018118 151.105263,51.2618118 151.505263,50.5218118 L152.935263,47.9018118 L148.185263,41.9118118 Z M159.225263,37.9518118 L151.625263,40.6918118 L154.815263,44.7118118 L159.225263,37.9518118 Z" id="Shape"></path>
                    <path d="M170.025263,66.7418118 C168.505263,67.4118118 167.065263,67.7918118 165.715263,67.8818118 C164.365263,67.9718118 163.115263,67.7918118 161.975263,67.3418118 C160.835263,66.8918118 159.815263,66.1918118 158.905263,65.2318118 C157.995263,64.2718118 157.225263,63.0718118 156.595263,61.6418118 L154.545263,57.0018118 C154.115263,56.0318118 154.365263,55.3318118 155.305263,54.9218118 L170.985263,48.0018118 C171.375263,47.8318118 171.745263,47.8218118 172.105263,47.9618118 C172.465263,48.1118118 172.745263,48.4118118 172.955263,48.8718118 L175.005263,53.5118118 C175.635263,54.9418118 176.025263,56.3118118 176.155263,57.6218118 C176.285263,58.9318118 176.155263,60.1418118 175.765263,61.2618118 C175.375263,62.3818118 174.705263,63.4118118 173.765263,64.3318118 C172.805263,65.2618118 171.565263,66.0618118 170.025263,66.7418118 Z M168.345263,62.9218118 C170.465263,61.9818118 171.795263,60.8518118 172.325263,59.5118118 C172.855263,58.1818118 172.765263,56.7118118 172.055263,55.1018118 L170.855263,52.4018118 L158.545263,57.8418118 L159.735263,60.5518118 C160.445263,62.1618118 161.505263,63.2018118 162.925263,63.6818118 C164.345263,64.1418118 166.145263,63.8918118 168.345263,62.9218118 Z" id="Shape"></path>
                    <path d="M178.665263,77.2418118 L163.705263,80.0518118 C163.265263,80.1318118 162.865263,80.0618118 162.495263,79.8318118 C162.125263,79.6018118 161.875263,79.1218118 161.735263,78.3818118 C161.485263,77.0318118 161.885263,76.2618118 162.955263,76.0618118 L177.915263,73.2518118 L177.005263,68.4318118 C176.905263,67.8818118 176.995263,67.4618118 177.295263,67.1718118 C177.595263,66.8818118 177.975263,66.6918118 178.425263,66.6018118 C178.875263,66.5118118 179.305263,66.5618118 179.685263,66.7318118 C180.075263,66.9018118 180.315263,67.2418118 180.405263,67.7318118 L183.025263,81.6918118 C183.115263,82.1618118 183.015263,82.5618118 182.715263,82.8718118 C182.415263,83.1818118 182.045263,83.3818118 181.585263,83.4718118 C181.125263,83.5518118 180.705263,83.5218118 180.325263,83.3518118 C179.935263,83.1918118 179.695263,82.8318118 179.595263,82.2818118 L178.665263,77.2418118 Z" id="Path"></path>
                </g>
                <g id="Group" transform="translate(69.580264, 162.673223)" fill="#003769" fill-rule="nonzero">
                    <path d="M9.08973638,5.00677743 C11.1597364,5.38677743 12.6897364,6.32677743 13.6897364,7.83677743 C14.6797364,9.34677743 14.9597364,11.2967774 14.5197364,13.6967774 C14.4197364,14.2467774 14.1797364,14.5967774 13.8097364,14.7467774 C13.4397364,14.8967774 12.9497364,14.9167774 12.3397364,14.8067774 L4.06973638,13.2967774 C3.82973638,15.6667774 4.87973638,17.0767774 7.21973638,17.4967774 C7.82973638,17.6067774 8.35973638,17.6067774 8.81973638,17.4767774 C9.26973638,17.3567774 9.66973638,17.2467774 9.99973638,17.1467774 C10.3097364,17.0467774 10.6097364,16.9467774 10.8797364,16.8367774 C11.1497364,16.7267774 11.4597364,16.7067774 11.8097364,16.7667774 C12.1897364,16.8367774 12.5097364,17.0867774 12.7597364,17.5267774 C13.0097364,17.9667774 13.0997364,18.4267774 13.0097364,18.8967774 C12.9497364,19.2367774 12.7897364,19.5167774 12.5497364,19.7367774 C12.2997364,19.9567774 11.9297364,20.1667774 11.4197364,20.3667774 C10.7397364,20.6367774 9.95973638,20.7967774 9.07973638,20.8367774 C8.19973638,20.8767774 7.34973638,20.8267774 6.52973638,20.6767774 C5.34973638,20.4567774 4.30973638,20.1167774 3.39973638,19.6367774 C2.48973638,19.1567774 1.76973638,18.5467774 1.21973638,17.7967774 C0.669736379,17.0467774 0.299736379,16.1567774 0.119736379,15.1367774 C-0.0602636211,14.1167774 -0.0402636212,12.9367774 0.199736379,11.6267774 C0.379736379,10.6167774 0.709736379,9.65677743 1.16973638,8.74677743 C1.62973638,7.83677743 2.22973638,7.06677743 2.97973638,6.43677743 C3.71973638,5.80677743 4.60973638,5.34677743 5.62973638,5.06677743 C6.63973638,4.79677743 7.79973638,4.77677743 9.08973638,5.00677743 Z M10.8197364,11.4867774 C10.8797364,11.1467774 10.8897364,10.7867774 10.8397364,10.4267774 C10.7897364,10.0667774 10.6697364,9.71677743 10.4797364,9.38677743 C10.2897364,9.05677743 10.0397364,8.77677743 9.70973638,8.53677743 C9.37973638,8.29677743 8.95973638,8.13677743 8.43973638,8.03677743 C7.61973638,7.88677743 6.86973638,8.00677743 6.17973638,8.38677743 C5.48973638,8.76677743 5.00973638,9.42677743 4.73973638,10.3667774 L10.8197364,11.4867774 Z" id="Shape"></path>
                    <path d="M17.4897364,19.5267774 C17.4997364,19.1967774 17.5697364,18.8867774 17.7097364,18.5867774 C17.8397364,18.2867774 18.0297364,18.0367774 18.2497364,17.8167774 C18.4697364,17.5967774 18.7397364,17.4367774 19.0497364,17.3167774 C19.3497364,17.1967774 19.6797364,17.1467774 20.0297364,17.1567774 C20.7097364,17.1767774 21.2697364,17.4267774 21.7297364,17.9167774 C22.1897364,18.4067774 22.4097364,18.9867774 22.3897364,19.6667774 C22.3797364,20.0167774 22.3097364,20.3367774 22.1697364,20.6367774 C22.0397364,20.9367774 21.8497364,21.1867774 21.6297364,21.4067774 C21.4097364,21.6267774 21.1397364,21.7867774 20.8297364,21.9067774 C20.5297364,22.0267774 20.2097364,22.0767774 19.8797364,22.0667774 C19.1997364,22.0467774 18.6297364,21.7867774 18.1597364,21.2967774 C17.6997364,20.7967774 17.4697364,20.2067774 17.4897364,19.5267774 Z" id="Path"></path>
                    <path d="M22.3497364,4.60677743 C22.1997364,4.32677743 22.1097364,4.10677743 22.0697364,3.93677743 C22.0297364,3.76677743 21.9997364,3.61677743 21.9897364,3.47677743 C21.9297364,2.97677743 22.0797364,2.55677743 22.4297364,2.19677743 C22.7797364,1.84677743 23.3097364,1.62677743 24.0197364,1.54677743 C24.5597364,1.48677743 24.9997364,1.54677743 25.3397364,1.71677743 C25.6797364,1.89677743 25.9397364,2.15677743 26.1097364,2.50677743 L32.4997364,15.9367774 L35.7697364,1.49677743 C35.8697364,1.03677743 36.0497364,0.696777435 36.3097364,0.456777435 C36.5697364,0.226777435 36.9397364,0.0767774349 37.4397364,0.0267774349 C38.1097364,-0.0532225651 38.6697364,0.0467774349 39.1197364,0.316777435 C39.5697364,0.586777435 39.8197364,0.956777435 39.8697364,1.41677743 C39.8897364,1.56677743 39.8897364,1.74677743 39.8897364,1.95677743 C39.8797364,2.16677743 39.8397364,2.37677743 39.7697364,2.59677743 L35.3997364,19.4667774 C35.2497364,20.0067774 34.9697364,20.4167774 34.5597364,20.6867774 C34.1497364,20.9567774 33.6497364,21.1267774 33.0597364,21.1967774 C32.3097364,21.2767774 31.7097364,21.2067774 31.2497364,20.9667774 C30.7897364,20.7267774 30.4397364,20.3867774 30.1997364,19.9467774 L22.3497364,4.60677743 Z" id="Path"></path>
                    <path d="M43.0697364,17.3267774 C42.9897364,17.0067774 42.9697364,16.6867774 43.0097364,16.3667774 C43.0597364,16.0467774 43.1597364,15.7467774 43.3197364,15.4767774 C43.4797364,15.2067774 43.6897364,14.9767774 43.9497364,14.7767774 C44.2097364,14.5767774 44.5097364,14.4367774 44.8397364,14.3467774 C45.4897364,14.1767774 46.1097364,14.2567774 46.6897364,14.5967774 C47.2697364,14.9367774 47.6397364,15.4267774 47.8097364,16.0867774 C47.8997364,16.4267774 47.9197364,16.7567774 47.8697364,17.0767774 C47.8197364,17.3967774 47.7197364,17.6967774 47.5597364,17.9667774 C47.3997364,18.2367774 47.1897364,18.4767774 46.9297364,18.6667774 C46.6697364,18.8667774 46.3797364,19.0067774 46.0697364,19.0867774 C45.4197364,19.2567774 44.7897364,19.1667774 44.1997364,18.8267774 C43.6197364,18.4867774 43.2397364,17.9867774 43.0697364,17.3267774 Z" id="Path"></path>
                </g>
                <path d="M184.26,92.13 C184.26,143.01 143.01,184.26 92.13,184.26 C41.25,184.26 0,143.01 0,92.13 C0,41.25 41.25,0 92.13,0 C143.01,0 184.26,41.25 184.26,92.13 Z" id="SVGID_x5F_00000111181193787512003970000015138117833529494716_x5F_"></path>
                <path d="M184.26,92.13 C184.26,143.01 143.01,184.26 92.13,184.26 C41.25,184.26 0,143.01 0,92.13 C0,41.25 41.25,0 92.13,0 C143.01,0 184.26,41.25 184.26,92.13 Z" id="SVGID_x5F_00000173882545629924367870000012416952939954462907_x5F_"></path>
                <path d="M184.26,92.13 C184.26,143.01 143.01,184.26 92.13,184.26 C41.25,184.26 0,143.01 0,92.13 C0,41.25 41.25,0 92.13,0 C143.01,0 184.26,41.25 184.26,92.13 Z" id="e.V._x5F__x5F_x28_x5F_groß_x5F_x29_x5F__x5F_00000026862842743154826570000005572709144789686153_x5F_"></path>
                <path d="M180.01,92.13 C180.01,140.66 140.67,180 92.14,180 C43.61,180 4.27,140.66 4.27,92.13 C4.27,43.6 43.61,4.26 92.14,4.26 C140.67,4.26 180.01,43.6 180.01,92.13 Z" id="e.V._x5F__x5F_x28_x5F_klein_x5F_x29_x5F__x5F_00000013174649041808973750000000932362178431659941_x5F_"></path>
            </g>
        </g>
    </g>
</svg>