<?xml version="1.0" encoding="UTF-8" standalone="no"?>
<!DOCTYPE svg PUBLIC "-//W3C//DTD SVG 1.1//EN" "http://www.w3.org/Graphics/SVG/1.1/DTD/svg11.dtd">
<svg width="679px" height="676px" viewBox="0 0 679 676" version="1.1" xmlns="http://www.w3.org/2000/svg" xmlns:xlink="http://www.w3.org/1999/xlink">
    <g id="Hessen" stroke="none" stroke-width="1" fill="none" fill-rule="evenodd">
        <g id="225-SC80" transform="translate(3.000000, 3.000000)">
            <g id="Frame" transform="translate(0.162862, 0.070000)">
                <polyline id="path14" fill="#FFFFFF" fill-rule="nonzero" transform="translate(336.247992, 334.674658) scale(1, -1) translate(-336.247992, -334.674658) " points="672.495983 501.351987 504.501321 669.349317 168.505329 669.349317 0 500.842654 0 168.506662 168.505329 0 504.501321 0 672.495983 167.997329 672.495983 501.351987"></polyline>
                <polygon id="path16" stroke="#231F20" stroke-width="5.3333332" stroke-linejoin="round" transform="translate(336.247992, 334.674658) scale(1, -1) translate(-336.247992, -334.674658) " points="672.495983 501.351987 504.501321 669.349317 168.505329 669.349317 0 500.842654 0 168.506662 168.505329 0 504.501321 0 672.495983 167.997329"></polygon>
                <polygon id="path18" stroke="#231F20" stroke-width="18.6666662" stroke-linejoin="round" transform="translate(336.248658, 334.681926) scale(1, -1) translate(-336.248658, -334.681926) " points="644.985317 487.721855 490.733321 641.973851 182.229329 641.973851 27.5119993 487.255189 27.5119993 182.109863 182.229329 27.39 490.733321 27.39 644.985317 181.641863"></polygon>
            </g>
            <g id="1880" transform="translate(219.365523, 521.760000)" fill="#231F20" fill-rule="nonzero">
                <path d="M38,-2.84217094e-14 L21.4159995,-2.84217094e-14 L21.4159995,62.4469318 C15.3586663,56.7983986 8.21866646,52.6223987 1.42108547e-14,49.9166654 L1.42108547e-14,64.916665 C4.32533323,66.3281317 9.02666644,69.0067983 14.1026663,72.9498648 C19.1759995,76.8925314 22.6586661,81.4925313 24.5466661,86.7498645 L38,86.7498645 L38,-2.84217094e-14" id="path24" transform="translate(19.000000, 43.374932) scale(1, -1) translate(-19.000000, -43.374932) "></path>
                <path d="M62.3413318,48.1499988 C58.0519985,49.9546654 54.9346653,52.4374654 52.9866653,55.5978653 C51.0386654,58.7578652 50.0639987,62.2229318 50.0639987,65.9921317 C50.0639987,72.4298649 52.3159987,77.7485314 56.8199986,81.9498646 C61.3226651,86.1498645 67.7239983,88.2498645 76.0226648,88.2498645 C84.2426646,88.2498645 90.6239977,86.1498645 95.1666643,81.9498646 C99.7093308,77.7485314 101.981331,72.4298649 101.981331,65.9921317 C101.981331,61.9869318 100.935997,58.4245319 98.8453309,55.3035986 C96.7546642,52.1822654 93.817331,49.7983988 90.0306644,48.1499988 C94.833331,46.2239988 98.4826642,43.4139989 100.982664,39.7213323 C103.481331,36.0286658 104.730664,31.7655992 104.730664,26.933866 C104.730664,18.9573329 102.185331,12.4739997 97.0959976,7.48439981 C92.005331,2.49479994 85.2359979,1.42108547e-14 76.7853314,1.42108547e-14 C68.9253316,1.42108547e-14 62.3813318,2.06253328 57.1546652,6.18906651 C50.9826654,11.0598664 47.8973321,17.7395996 47.8973321,26.2265327 C47.8973321,30.9010659 49.0573321,35.1942658 51.3759987,39.1030657 C53.6946653,43.0119989 57.3493319,46.0275988 62.3413318,48.1499988 L62.3413318,48.1499988 Z M64.2306651,27.8265326 C64.2306651,23.2697328 65.3973317,19.7150662 67.7333316,17.1630662 C70.0693316,14.609333 72.9839982,13.333333 76.4786648,13.333333 C79.8933313,13.333333 82.7213313,14.5598663 84.9573312,17.0155996 C87.1946645,19.4702662 88.3146645,23.0145328 88.3146645,27.6499993 C88.3146645,31.6953325 87.1746645,34.9453325 84.8986645,37.4010657 C82.6213313,39.8557323 79.735998,41.0833323 76.2426648,41.0833323 C72.1986649,41.0833323 69.1853316,39.6890657 67.2039983,36.8999991 C65.2213317,34.1109325 64.2306651,31.0874659 64.2306651,27.8265326 Z M65.730665,64.7969317 C65.730665,61.5051985 66.666665,58.9374652 68.5359983,57.0963986 C70.4053316,55.254132 72.8946648,54.333332 76.0053314,54.333332 C79.1546647,54.333332 81.6733313,55.2630653 83.5626646,57.1249319 C85.4519979,58.9869319 86.3973312,61.5639985 86.3973312,64.8557317 C86.3973312,67.9505316 85.4626645,70.4286649 83.5933312,72.2911982 C81.723998,74.1525315 79.2533314,75.0831981 76.1826648,75.0831981 C72.9919982,75.0831981 70.4533316,74.1418648 68.5639983,72.2618649 C66.674665,70.3802649 65.730665,67.8921316 65.730665,64.7969317" id="path26" transform="translate(76.313998, 44.124932) scale(1, -1) translate(-76.313998, -44.124932) "></path>
                <path d="M128.15733,48.1499988 C123.867997,49.9546654 120.74933,52.4374654 118.80133,55.5978653 C116.85333,58.7578652 115.879997,62.2229318 115.879997,65.9921317 C115.879997,72.4298649 118.130664,77.7485314 122.634664,81.9498646 C127.13733,86.1498645 133.538663,88.2498645 141.83733,88.2498645 C150.05733,88.2498645 156.439996,86.1498645 160.981329,81.9498646 C165.523996,77.7485314 167.795996,72.4298649 167.795996,65.9921317 C167.795996,61.9869318 166.751996,58.4245319 164.661329,55.3035986 C162.569329,52.1822654 159.630663,49.7983988 155.846663,48.1499988 C160.646663,46.2239988 164.297329,43.4139989 166.795996,39.7213323 C169.295996,36.0286658 170.546662,31.7655992 170.546662,26.933866 C170.546662,18.9573329 168.002662,12.4739997 162.911996,7.48439981 C157.819996,2.49479994 151.051996,1.42108547e-14 142.60133,1.42108547e-14 C134.739997,1.42108547e-14 128.195997,2.06253328 122.96933,6.18906651 C116.79733,11.0598664 113.71333,17.7395996 113.71333,26.2265327 C113.71333,30.9010659 114.871997,35.1942658 117.190664,39.1030657 C119.50933,43.0119989 123.163997,46.0275988 128.15733,48.1499988 L128.15733,48.1499988 Z M130.046663,27.8265326 C130.046663,23.2697328 131.21333,19.7150662 133.54933,17.1630662 C135.88533,14.609333 138.798663,13.333333 142.29333,13.333333 C145.707996,13.333333 148.534663,14.5598663 150.77333,17.0155996 C153.00933,19.4702662 154.127996,23.0145328 154.127996,27.6499993 C154.127996,31.6953325 152.990663,34.9453325 150.71333,37.4010657 C148.435996,39.8557323 145.551996,41.0833323 142.05733,41.0833323 C138.01333,41.0833323 134.999997,39.6890657 133.018663,36.8999991 C131.03733,34.1109325 130.046663,31.0874659 130.046663,27.8265326 L130.046663,27.8265326 Z M131.546663,64.7969317 C131.546663,61.5051985 132.48133,58.9374652 134.350663,57.0963986 C136.22133,55.254132 138.710663,54.333332 141.82133,54.333332 C144.96933,54.333332 147.48933,55.2630653 149.378663,57.1249319 C151.267996,58.9869319 152.211996,61.5639985 152.211996,64.8557317 C152.211996,67.9505316 151.278663,70.4286649 149.407996,72.2911982 C147.538663,74.1525315 145.067996,75.0831981 141.99733,75.0831981 C138.807997,75.0831981 136.26933,74.1418648 134.379997,72.2618649 C132.490663,70.3802649 131.546663,67.8921316 131.546663,64.7969317" id="path28" transform="translate(142.129996, 44.124932) scale(1, -1) translate(-142.129996, -44.124932) "></path>
                <path d="M206.445328,88.2498645 C214.822661,88.2498645 221.369328,85.2631979 226.090661,79.2885314 C231.715994,72.2151982 234.527994,60.4833318 234.527994,44.0953322 C234.527994,27.7463993 231.697328,15.9947996 226.030661,8.84266645 C221.350661,2.94693326 214.822661,1.42108547e-14 206.445328,1.42108547e-14 C198.025328,1.42108547e-14 191.241329,3.23173325 186.090662,9.69693309 C180.937329,16.1614663 178.361329,27.6863993 178.361329,44.2723989 C178.361329,60.5431985 181.191995,72.2538649 186.855995,79.407198 C191.535995,85.3018645 198.066662,88.2498645 206.445328,88.2498645 L206.445328,88.2498645 Z M206.445328,74.5005315 C204.437328,74.5005315 202.645328,73.8605315 201.069328,72.5845315 C199.494662,71.3085316 198.273328,69.0197316 197.407995,65.720265 C196.265328,61.4390651 195.694662,54.2306653 195.694662,44.0953322 C195.694662,33.9598658 196.207995,26.9973327 197.227995,23.2073328 C198.251995,19.4155995 199.543995,16.8921329 201.101328,15.6354663 C202.653328,14.3775996 204.437328,13.7499997 206.445328,13.7499997 C208.451995,13.7499997 210.243995,14.3879996 211.819995,15.6639996 C213.394661,16.9401329 214.614661,19.2291995 215.481328,22.5302661 C216.623995,26.7723993 217.194662,33.9598658 217.194662,44.0953322 C217.194662,54.2306653 216.681328,61.1926651 215.658661,64.9843984 C214.634661,68.7749316 213.345328,71.3085316 211.790661,72.5845315 C210.233328,73.8605315 208.451995,74.5005315 206.445328,74.5005315" id="path30" transform="translate(206.444662, 44.124932) scale(1, -1) translate(-206.444662, -44.124932) "></path>
            </g>
            <g id="SFC" transform="translate(69.837927, 89.100000)">
                <path d="M381.96759,208.643997 L381.988924,194.118664 L381.978257,159.186665 C381.978257,159.186665 381.978257,146.105332 381.978257,142.834665 C381.978257,139.566665 385.19159,139.566665 385.19159,139.566665 L499.984921,139.566665 L507.639587,139.547999 C507.639587,139.547999 519.082254,139.547999 519.082254,127.907999 L519.082254,103.022666 C519.082254,103.022666 519.082254,91.58 507.440921,91.58 L337.619592,91.58 C325.979592,91.58 325.979592,103.022666 325.979592,103.022666 L325.979592,194.118664 L326.198259,202.605331 L325.979592,297.219995 L325.979592,388.315993 C325.979592,388.315993 325.979592,399.757326 337.619592,399.757326 L507.440921,399.757326 C519.082254,399.757326 519.082254,388.315993 519.082254,388.315993 L519.082254,363.429327 C519.082254,351.789327 507.639587,351.789327 507.639587,351.789327 L499.984921,351.771993 L385.19159,351.771993 C385.19159,351.771993 381.978257,351.771993 381.978257,348.50266 C381.978257,345.23066 381.978257,332.151994 381.978257,332.151994 L381.988924,297.219995 L382.136924,211.12933 L381.96759,208.643997" id="path22" fill="#FFFFFF" fill-rule="nonzero" transform="translate(422.530923, 245.668663) scale(1, -1) translate(-422.530923, -245.668663) "></path>
                <path d="M207.171595,103.157333 C207.171595,91.52 195.730262,91.52 195.730262,91.52 L25.5885327,91.52 C13.948933,91.52 13.948933,102.965333 13.948933,102.965333 L13.948933,129.602666 C13.948933,129.602666 13.948933,141.045332 25.5885327,141.045332 L148.22493,141.053332 C148.22493,141.053332 151.439596,141.053332 151.439596,144.323999 L151.38893,229.222663 C151.38893,229.222663 151.38893,232.435996 148.118263,232.435996 L25.5885327,232.40533 C13.948933,232.40533 13.948933,243.847996 13.948933,243.847996 L13.948933,388.373326 C13.948933,388.373326 13.948933,399.814659 25.5885327,399.814659 L195.408928,399.814659 C207.048928,399.814659 207.048928,388.373326 207.048928,388.373326 L207.048928,363.48666 C207.048928,351.845327 195.607595,351.845327 195.607595,351.845327 L187.954262,351.829327 L138.194263,351.829327 L117.067597,351.829327 L73.1609315,351.829327 C73.1609315,351.829327 69.9462649,351.829327 69.9462649,348.55866 C69.9462649,345.287994 69.9462649,332.207994 69.9462649,332.207994 L69.9635983,283.810662 C69.9635983,283.810662 69.9635983,280.597329 73.2329315,280.597329 L195.498262,280.565329 C207.138261,280.565329 207.138261,269.123996 207.138261,269.123996 L207.171595,103.157333" id="path20" fill="#FFFFFF" fill-rule="nonzero" transform="translate(110.560264, 245.667329) scale(1, -1) translate(-110.560264, -245.667329) "></path>
                <path d="M511.651587,148.398665 L410.81159,148.398665 C397.45159,148.398665 386.618257,159.211998 386.618257,172.553331 L386.618257,322.562661 C386.618257,335.905327 397.45159,346.723994 410.81159,346.723994 L511.651587,346.723994 C521.582254,346.723994 526.410254,346.773327 533.82892,346.773327 L533.82892,379.953326 C533.82892,393.298659 522.995587,404.111992 509.634254,404.111992 L342.243591,404.111992 C328.883592,404.111992 318.055592,393.298659 318.055592,379.953326 L318.055592,117.174666 C318.055592,103.832 328.883592,93.02 342.243591,93.02 L509.634254,93.02 C522.995587,93.02 533.82892,103.832 533.82892,117.174666 L533.82892,148.550665 C524.050254,148.550665 521.582254,148.398665 511.651587,148.398665" id="path40" fill="#FFFFFF" fill-rule="nonzero" transform="translate(425.942256, 248.565996) scale(1, -1) translate(-425.942256, -248.565996) "></path>
                <path d="M511.651587,148.398665 L410.81159,148.398665 C397.45159,148.398665 386.618257,159.211998 386.618257,172.553331 L386.618257,322.562661 C386.618257,335.905327 397.45159,346.723994 410.81159,346.723994 L511.651587,346.723994 C521.582254,346.723994 526.410254,346.773327 533.82892,346.773327 L533.82892,379.953326 C533.82892,393.298659 522.995587,404.111992 509.634254,404.111992 L342.243591,404.111992 C328.883592,404.111992 318.055592,393.298659 318.055592,379.953326 L318.055592,117.174666 C318.055592,103.832 328.883592,93.02 342.243591,93.02 L509.634254,93.02 C522.995587,93.02 533.82892,103.832 533.82892,117.174666 L533.82892,148.550665 C524.050254,148.550665 521.582254,148.398665 511.651587,148.398665 Z" id="path42" stroke="#231F20" stroke-width="5.06898638" stroke-linecap="round" stroke-linejoin="round" transform="translate(425.942256, 248.565996) scale(1, -1) translate(-425.942256, -248.565996) "></path>
                <path d="M506.326254,139.819999 L406.452923,139.819999 C392.006257,139.819999 378.878257,155.609332 378.878257,168.025332 L378.878257,327.090661 C378.878257,339.519994 390.666257,354.949327 405.44759,354.907994 L506.326254,354.907994 C520.335587,354.907994 523.770254,355.00266 524.97692,355.00266 L524.834254,374.433327 C524.834254,386.85866 521.23292,395.730659 504.443587,395.730659 L348.531591,395.730659 C328.516925,395.730659 325.990259,385.02666 325.990259,373.229327 L325.990259,124.081333 C325.990259,111.649333 331.168925,101.58 348.531591,101.58 L504.443587,101.58 C516.887587,101.58 525.438254,104.597333 525.438254,124.081333 L525.438254,139.885332 C525.438254,139.885332 523.758254,139.819999 506.326254,139.819999" id="path44" fill="#231F20" fill-rule="nonzero" transform="translate(425.714256, 248.655330) scale(1, -1) translate(-425.714256, -248.655330) "></path>
                <path d="M506.326254,139.819999 L406.452923,139.819999 C392.006257,139.819999 378.878257,155.609332 378.878257,168.025332 L378.878257,327.090661 C378.878257,339.519994 390.666257,354.949327 405.44759,354.907994 L506.326254,354.907994 C520.335587,354.907994 523.770254,355.00266 524.97692,355.00266 L524.834254,374.433327 C524.834254,386.85866 521.23292,395.730659 504.443587,395.730659 L348.531591,395.730659 C328.516925,395.730659 325.990259,385.02666 325.990259,373.229327 L325.990259,124.081333 C325.990259,111.649333 331.168925,101.58 348.531591,101.58 L504.443587,101.58 C516.887587,101.58 525.438254,104.597333 525.438254,124.081333 L525.438254,139.885332 C525.438254,139.885332 523.758254,139.819999 506.326254,139.819999 Z" id="path46" stroke="#FFFFFF" stroke-width="1.33231198" transform="translate(425.714256, 248.655330) scale(1, -1) translate(-425.714256, -248.655330) "></path>
                <path d="M495.666254,334.463992 L428.499589,400.302657 L222.232928,400.302657 C222.232928,390.238657 222.232928,389.845324 222.232928,380.13599 L222.232928,20.1693328 C222.232928,10.4573331 222.232928,10.4946664 222.232928,5.68434189e-14 L294.798259,5.68434189e-14 C294.798259,6.94933316 294.835593,10.4573331 294.835593,20.1693328 L294.835593,153.107996 L412.81159,153.039996 C420.624923,153.039996 424.288923,153.063996 430.958256,153.063996 L430.958256,216.785328 C422.095589,216.785328 420.624923,216.698661 412.81159,216.698661 L315.778259,216.698661 C304.204926,216.698661 294.835593,226.071994 294.835593,237.634661 L294.835593,334.279992 C294.835593,334.279992 491.882254,334.463992 495.666254,334.463992" id="path48" fill="#231F20" fill-rule="nonzero" transform="translate(358.949591, 200.151328) scale(1, -1) translate(-358.949591, -200.151328) "></path>
                <path d="M495.666254,334.463992 L428.499589,400.302657 L222.232928,400.302657 C222.232928,390.238657 222.232928,389.845324 222.232928,380.13599 L222.232928,20.1693328 C222.232928,10.4573331 222.232928,10.4946664 222.232928,5.68434189e-14 L294.798259,5.68434189e-14 C294.798259,6.94933316 294.835593,10.4573331 294.835593,20.1693328 L294.835593,153.107996 L412.81159,153.039996 C420.624923,153.039996 424.288923,153.063996 430.958256,153.063996 L430.958256,216.785328 C422.095589,216.785328 420.624923,216.698661 412.81159,216.698661 L315.778259,216.698661 C304.204926,216.698661 294.835593,226.071994 294.835593,237.634661 L294.835593,334.279992 C294.835593,334.279992 491.882254,334.463992 495.666254,334.463992 L495.666254,334.463992 Z" id="path50" stroke="#231F20" stroke-width="11.9999997" stroke-linecap="round" stroke-linejoin="round" transform="translate(358.949591, 200.151328) scale(1, -1) translate(-358.949591, -200.151328) "></path>
                <path d="M492.999588,335.793992 L427.166256,398.96599 L223.566261,398.96599 C223.566261,388.90199 223.566261,11.8246664 223.566261,1.33 L293.464926,1.33 C293.464926,8.27933316 293.502259,154.437996 293.502259,154.437996 C293.502259,154.437996 422.955589,154.393996 429.624923,154.393996 L429.624923,215.448661 C420.762256,215.448661 315.778259,215.361995 315.778259,215.361995 C304.204926,215.361995 293.502259,226.068661 293.502259,237.631327 L293.502259,335.609992 C293.502259,335.609992 489.215588,335.793992 492.999588,335.793992" id="path52" fill="#B62234" fill-rule="nonzero" transform="translate(358.282924, 200.147995) scale(1, -1) translate(-358.282924, -200.147995) "></path>
                <path d="M492.999588,335.793992 L427.166256,398.96599 L223.566261,398.96599 C223.566261,388.90199 223.566261,11.8246664 223.566261,1.33 L293.464926,1.33 C293.464926,8.27933316 293.502259,154.437996 293.502259,154.437996 C293.502259,154.437996 422.955589,154.393996 429.624923,154.393996 L429.624923,215.448661 C420.762256,215.448661 315.778259,215.361995 315.778259,215.361995 C304.204926,215.361995 293.502259,226.068661 293.502259,237.631327 L293.502259,335.609992 C293.502259,335.609992 489.215588,335.793992 492.999588,335.793992 L492.999588,335.793992 Z" id="path54" stroke="#B62234" stroke-width="1.3333333" transform="translate(358.282924, 200.147995) scale(1, -1) translate(-358.282924, -200.147995) "></path>
                <path d="M74.6862648,349.365994 L187.482262,349.365994 C193.154262,349.365994 195.620928,349.453994 199.194262,349.453994 L199.194262,388.636659 C199.194262,398.357992 194.134262,403.923326 187.904929,403.923326 L11.2915997,403.923326 C5.05466654,403.923326 1.42108547e-14,398.357992 1.42108547e-14,388.636659 L1.42108547e-14,238.576663 C1.53999996,233.98333 6.07546651,230.624663 11.4983997,230.624663 L136.419597,230.624663 L136.419597,159.228665 C136.419597,152.975332 130.998263,147.903332 124.310264,147.903332 L11.2003997,147.903332 C6.13013318,147.903332 3.33279992,147.912665 1.42108547e-14,147.912665 L1.42108547e-14,105.076666 C1.42108547e-14,95.3539999 5.05466654,90.73 11.2915997,90.73 L187.904929,90.73 C194.134262,90.73 199.194262,95.3539999 199.194262,105.076666 L199.194262,276.647329 C197.860928,281.547329 193.148929,285.193995 187.492929,285.193995 L62.5742651,285.193995 L62.5742651,338.03266 C62.5742651,344.29266 67.998265,349.365994 74.6862648,349.365994" id="path32" fill="#FFFFFF" fill-rule="nonzero" transform="translate(99.597131, 247.326663) scale(1, -1) translate(-99.597131, -247.326663) "></path>
                <path d="M74.6862648,349.365994 L187.482262,349.365994 C193.154262,349.365994 195.620928,349.453994 199.194262,349.453994 L199.194262,388.636659 C199.194262,398.357992 194.134262,403.923326 187.904929,403.923326 L11.2915997,403.923326 C5.05466654,403.923326 1.42108547e-14,398.357992 1.42108547e-14,388.636659 L1.42108547e-14,238.576663 C1.53999996,233.98333 6.07546651,230.624663 11.4983997,230.624663 L136.419597,230.624663 L136.419597,159.228665 C136.419597,152.975332 130.998263,147.903332 124.310264,147.903332 L11.2003997,147.903332 C6.13013318,147.903332 3.33279992,147.912665 1.42108547e-14,147.912665 L1.42108547e-14,105.076666 C1.42108547e-14,95.3539999 5.05466654,90.73 11.2915997,90.73 L187.904929,90.73 C194.134262,90.73 199.194262,95.3539999 199.194262,105.076666 L199.194262,276.647329 C197.860928,281.547329 193.148929,285.193995 187.492929,285.193995 L62.5742651,285.193995 L62.5742651,338.03266 C62.5742651,344.29266 67.998265,349.365994 74.6862648,349.365994 Z" id="path34" stroke="#231F20" stroke-width="5.07286669" stroke-linecap="round" stroke-linejoin="round" transform="translate(99.597131, 247.326663) scale(1, -1) translate(-99.597131, -247.326663) "></path>
                <path d="M68.7035983,358.367327 L180.298262,358.367327 C188.591595,358.367327 191.084929,358.361993 191.084929,358.361993 L191.084929,387.883326 C191.084929,395.083326 189.592929,396.547326 183.851595,396.547326 L15.9238663,396.547326 C10.1822664,396.547326 7.67599981,393.629993 7.67599981,384.67666 L7.67599981,245.289996 C9.09786644,241.053996 9.96706642,239.165996 14.9603996,239.165996 L145.106263,239.165996 L145.106263,154.355332 C145.106263,146.677999 135.795597,139.215332 129.634263,139.215332 L17.9894662,139.215332 C8.37133312,139.215332 7.67599981,139.216666 7.67599981,139.216666 L7.67599981,108.643333 C7.67599981,99.6926666 12.3342664,98.31 18.0743995,98.31 L180.686262,98.31 C186.422262,98.31 191.084929,99.6926666 191.084929,108.643333 L191.084929,270.337996 C189.850262,274.855329 189.058262,276.761996 183.851595,276.761996 L53.7103987,276.761996 L53.7103987,341.821994 C53.7103987,349.98066 62.5462651,358.367327 68.7035983,358.367327" id="path36" fill="#231F20" fill-rule="nonzero" transform="translate(99.380464, 247.428663) scale(1, -1) translate(-99.380464, -247.428663) "></path>
                <path d="M68.7035983,358.367327 L180.298262,358.367327 C188.591595,358.367327 191.084929,358.361993 191.084929,358.361993 L191.084929,387.883326 C191.084929,395.083326 189.592929,396.547326 183.851595,396.547326 L15.9238663,396.547326 C10.1822664,396.547326 7.67599981,393.629993 7.67599981,384.67666 L7.67599981,245.289996 C9.09786644,241.053996 9.96706642,239.165996 14.9603996,239.165996 L145.106263,239.165996 L145.106263,154.355332 C145.106263,146.677999 135.795597,139.215332 129.634263,139.215332 L17.9894662,139.215332 C8.37133312,139.215332 7.67599981,139.216666 7.67599981,139.216666 L7.67599981,108.643333 C7.67599981,99.6926666 12.3342664,98.31 18.0743995,98.31 L180.686262,98.31 C186.422262,98.31 191.084929,99.6926666 191.084929,108.643333 L191.084929,270.337996 C189.850262,274.855329 189.058262,276.761996 183.851595,276.761996 L53.7103987,276.761996 L53.7103987,341.821994 C53.7103987,349.98066 62.5462651,358.367327 68.7035983,358.367327 L68.7035983,358.367327 Z" id="path38" stroke="#FFFFFF" stroke-width="1.3333333" transform="translate(99.380464, 247.428663) scale(1, -1) translate(-99.380464, -247.428663) "></path>
            </g>
        </g>
    </g>
</svg>