<?xml version="1.0" encoding="UTF-8" standalone="no"?>
<!DOCTYPE svg PUBLIC "-//W3C//DTD SVG 1.1//EN" "http://www.w3.org/Graphics/SVG/1.1/DTD/svg11.dtd">
<svg version="1.1" id="Ebene_1" xmlns="http://www.w3.org/2000/svg" xmlns:xlink="http://www.w3.org/1999/xlink" x="0px" y="0px"
	 width="529.475px" height="526.576px" viewBox="0 0 529.475 526.576" enable-background="new 0 0 529.475 526.576"
	 xml:space="preserve">
<polygon fill="#FCFCFC" stroke="#000000" stroke-width="8" stroke-miterlimit="10" points="157.733,522.235 6.238,370.741
	6.238,156.495 157.733,5 371.979,5 523.474,156.495 523.474,370.741 371.979,522.235 "/>
<polygon fill="#FCFCFC" stroke="#000000" stroke-width="7" stroke-miterlimit="10" points="166.849,503.634 26.836,363.622
	26.836,165.615 166.849,25.602 364.856,25.602 504.867,165.615 504.867,363.622 364.856,503.634 "/>
<g>
	<path fill="#010101" d="M225.632,294.782c0-28.312-0.002-56.621,0-84.933c0.002-19.526-0.568-39.076,0.195-58.572
		c0.634-16.191-0.808-32.357,0.37-48.54c0.57-7.821,0.07-15.722,0.108-23.586c0.034-7.088,1.658-8.676,8.938-8.646
		c22.192,0.088,44.385,0.308,66.578,0.307c22.836-0.002,45.672-0.217,68.508-0.311c5.765-0.024,11.529,0.003,17.293,0.108
		c3.276,0.063,6.044,1.287,8.431,3.683c14.534,14.587,29.141,29.101,43.722,43.642c1.298,1.294,2.589,2.595,3.865,3.909
		c1.901,1.959,2.608,4.413,1.657,6.86c-0.941,2.417-3.36,3.009-5.801,2.998c-23.431-0.109-46.861-0.256-70.294-0.349
		c-11.221-0.045-22.439,0.021-33.661-0.002c-11.801-0.023-23.602-0.108-35.401-0.14c-7.752-0.021-7.547,0.359-8.16,7.904
		c-1.545,18.981-0.761,37.979-1.035,56.967c-0.061,4.063,0.734,7.827,3.118,11.299c1.469,2.139,3.39,3.681,5.624,2.947
		c2.017-0.661,2.704-2.994,2.687-5.408c-0.088-12.367-0.068-24.735-0.003-37.103c0.059-10.771,6.033-19.856,14.997-22.242
		c5.503-1.465,11.27-0.64,16.896-0.646c37.938-0.058,75.888,0.585,113.813-0.071c13.677-0.236,25.491,8.229,24.117,23.992
		c-0.531,6.099-0.073,12.281-0.117,18.426c-0.045,6.393-0.293,6.724-6.771,6.71c-28.796-0.057-57.592-0.154-86.389-0.31
		c-5.188-0.028-9.802,1.352-13.857,4.591c-3.508,2.801-4.848,6.513-4.525,10.886c0.209,2.831,2.351,2.759,4.387,2.771
		c7.825,0.045,15.652,0.063,23.479,0.134c5.631,0.05,7.113,1.512,7.122,7.043c0.023,14.423,0.04,28.846,0.007,43.27
		c-0.017,7.327-1.28,8.537-8.84,8.532c-6.996-0.004-13.992-0.174-20.987-0.133c-3.661,0.021-6.455,0.489-6.367,5.693
		c0.286,16.918-0.206,33.848,0.026,50.767c0.111,8.075,7.844,14.407,17.889,14.62c17.438,0.371,34.886,0.377,52.327,0.274
		c12.778-0.075,25.575,0.736,38.343-0.652c2.29-0.25,3.728,1.026,3.708,3.606c-0.066,8.989,0.348,18.007-0.215,26.964
		c-0.631,10.064-8.173,16.761-19.199,17.091c-12.72,0.381-25.458,0.122-38.188,0.088c-29.291-0.078-58.582-0.188-87.874-0.286
		c-12.209-0.041-19.78-4.294-22.972-13.146c-1.722-4.772-1.411-9.82-1.408-14.796c0.018-28.041,0.089-56.084,0.047-84.126
		c-0.009-5.745-3.04-7.661-8.337-5.726c-1.771,0.647-2.697,1.657-2.704,3.636c-0.066,17.905-0.206,35.812-0.273,53.718
		c-0.067,18.14-0.129,36.279-0.075,54.42c0.011,3.778-2.075,5.113-5.271,5.107c-18.274-0.032-36.548-0.143-54.821-0.301
		c-3.479-0.03-4.898-2.027-4.893-5.502c0.055-29.146,0.031-58.291,0.031-87.438C225.524,294.782,225.578,294.782,225.632,294.782z
		 M337.551,264.413c0,0.058,0,0.113,0,0.171c15.626,0,31.253-0.022,46.88,0.016c3.852,0.01,4.023-2.521,4.067-5.358
		c0.179-11.481,0.1-22.98,0.764-34.437c0.266-4.578-1.839-5.953-5.401-6.701c-1.118-0.233-2.325-0.053-3.491-0.055
		c-25.32-0.042-50.644-0.08-75.966-0.127c-11.52-0.021-20.521-8.919-20.529-20.32c-0.013-13.964-0.307-27.937,0.136-41.886
		c0.263-8.26-0.861-16.556,1.021-24.831c0.941-4.136,3.079-4.955,6.606-4.949c12.146,0.019,24.294-0.037,36.44-0.085
		c13.473-0.053,26.945-0.256,40.416-0.163c20.638,0.143,41.273,0.501,61.903-0.338c1.294-0.053,2.887,0.209,3.396-1.414
		c0.487-1.555-0.264-2.807-1.442-3.941c-13.663-13.151-27.319-26.312-40.904-39.543c-2.59-2.521-5.584-3.246-9.033-3.28
		c-21.976-0.226-43.947,0.298-65.933-0.498c-17.635-0.64-35.313-0.146-52.971-0.12c-8.327,0.012-16.655,0.085-24.982,0.176
		c-3.608,0.039-5.601,1.066-5.532,5.559c0.28,18.609,0.142,37.228,0.073,55.842c-0.086,23.597-0.22,47.192-0.402,70.789
		c-0.074,9.467-0.133,18.944-0.202,28.4c-0.073,10.202-0.686,20.43-0.005,30.677c0.567,8.54-0.11,17.158-0.134,25.743
		c-0.029,10.902,0.137,21.806,0.059,32.705c-0.121,16.807-0.389,33.609-0.572,50.414c-0.04,3.65,1.485,5.271,5.473,5.216
		c13.824-0.187,27.658-0.259,41.475,0.129c4.237,0.118,5.108-1.291,5.061-5.005c-0.147-11.16-0.092-22.324-0.078-33.488
		c0.028-23.493,0.048-46.986,0.146-70.479c0.023-5.822,2.332-8.725,7.251-8.767C306.605,264.33,322.078,264.413,337.551,264.413z
		 M305.481,321.111c-0.036,0-0.071,0-0.107,0c0,15.313-0.021,30.622,0.011,45.935c0.016,7.617,6.562,16.191,13.498,16.918
		c6.583,0.688,13.326,1.313,19.863,0.64c10.086-1.039,20.155-0.203,30.148-0.055c27.908,0.415,55.812,0.241,83.714,0.224
		c9.234-0.006,15.895-7.651,16.021-16.98c0.059-4.331-0.521-8.748,0.146-12.976c1.034-6.556-1.78-8.906-8.15-8.907
		c-27.615-0.006-55.243-0.635-82.847-0.038c-15.852,0.342-22.356-10.935-22.234-22.646c0.166-15.814,0.06-31.634-0.011-47.451
		c-0.007-1.418,0.997-3.196-1.533-4.063c-4.099-1.401-4.853-0.985-4.87,4.139c-0.066,17.828-0.055,35.656-0.104,53.483
		c-0.009,3.088,0.945,5.912,2.32,8.569c5.634,10.895,15.293,14.625,26.84,14.727c15.326,0.133,30.653,0.189,45.979,0.2
		c9.154,0.006,18.349,0.36,27.451-0.356c10.017-0.79,10.271-1.238,9.94,8.743c-0.515,15.566-4.502,17.939-17.427,17.787
		c-38.622-0.457-77.248-0.591-115.874-0.811c-11.479-0.064-15.14-2.804-16.003-14.155c-0.938-12.3-0.431-24.694-0.262-37.014
		c0.237-17.263-0.277-34.536,0.522-51.785c0.168-3.615-1.92-4.725-4.547-4.839c-3.39-0.146-2.446,2.811-2.454,4.727
		C305.456,290.454,305.481,305.783,305.481,321.111z M391.716,155.007c16.854,0.759,37.983-0.911,59.067,0.854
		c5.917,0.495,9.778,4.116,10.197,10.197c0.33,4.8-0.01,9.644,0.082,14.463c0.05,2.634-1.127,3.437-3.643,3.426
		c-20.731-0.079-41.464-0.083-62.194-0.085c-8.986-0.001-17.997-0.344-26.953,0.197c-9.326,0.563-18.9,10.887-19.067,20.039
		c-0.052,2.864-1.689,7.317,2.674,8.021c4.818,0.777,4.154-4.022,5.02-6.99c0.232-0.796,0.35-1.627,0.594-2.419
		c2.152-6.973,9.312-12.713,16.111-12.726c13.984-0.023,27.969,0.065,41.954,0.09c15.978,0.027,31.955,0.029,47.934,0.056
		c2.787,0.005,5.737-0.116,5.985-3.698c0.594-8.56,1.698-17.161-0.702-25.655c-0.453-1.604-1.285-2.838-2.356-4.167
		c-4.805-5.968-11.123-7.834-18.441-7.847c-32.258-0.057-64.515-0.262-96.772-0.291c-9.53-0.008-19.075-0.835-28.599,0.322
		c-11.557,1.404-17.092,7.513-17.145,19.229c-0.059,12.994,0.049,25.989,0.019,38.984c-0.007,2.733,0.525,5.427,3.614,5.44
		c2.974,0.015,3.936-2.564,3.93-5.347c-0.011-5.332-0.119-10.667,0.021-15.995c0.221-8.482-0.683-17.002,0.596-25.448
		c0.897-5.936,3.961-9.366,8.962-9.733c5.13-0.376,10.228-1.038,15.413-0.983C354.496,155.117,370.983,155.007,391.716,155.007z"/>
	<path fill="#010101" d="M136.826,388.056c-20.981,0-41.964,0.019-62.947-0.022c-2.486-0.006-5.027-0.063-7.448-0.562
		c-6.008-1.238-8.816-4.572-8.919-10.751c-0.181-10.782-0.109-21.568-0.217-32.352c-0.04-3.996,1.904-5.766,5.779-5.739
		c29.218,0.188,58.438,0.333,87.654,0.565c9.838,0.078,11.636-1.737,11.551-11.509c-0.118-13.543-0.167-27.089,0.045-40.629
		c0.076-4.869-1.943-6.434-6.55-6.416c-22.788,0.087-45.577,0.031-68.365-0.043c-6.425-0.021-12.861-0.083-19.271-0.469
		c-7.416-0.446-10.649-4.078-10.651-11.544c-0.014-37.04-0.103-74.081,0.077-111.12c0.05-10.489,5.728-15.739,15.025-15.555
		c24.473,0.484,48.966-0.149,73.438,0.313c18.896,0.358,37.788,0.114,56.679,0.383c7.689,0.109,12.029,4.124,12.215,11.938
		c0.235,9.938-0.035,19.886,0.066,29.828c0.039,3.768-1.383,5.415-5.283,5.376c-16.742-0.17-33.484-0.158-50.227-0.249
		c-13.366-0.072-26.731-0.313-40.097-0.245c-5.558,0.028-8.962,3.683-9.003,9.198c-0.071,9.638,0.266,19.286-0.096,28.911
		c-0.179,4.771,1.709,6.176,6.038,6.161c13.595-0.043,27.189,0.059,40.785,0.122c15.612,0.074,31.227,0.117,46.839,0.276
		c7.627,0.077,11.004,3.837,10.977,11.465c-0.094,26.209-0.069,52.418-0.16,78.626c-0.063,17.89-0.201,35.778-0.387,53.666
		c-0.064,6.316-3.281,9.953-9.802,10.273c-7.944,0.389-15.92,0.139-23.883,0.144c-14.621,0.009-29.241,0.002-43.862,0.002
		C136.826,388.087,136.826,388.071,136.826,388.056z M136.213,383.406c0,0.195,0,0.392,0,0.587c21.728,0,43.453,0.034,65.18-0.021
		c7.136-0.019,10.038-2.802,10.128-9.948c0.241-19.104,0.385-38.212,0.449-57.317c0.073-22.013-0.083-44.025,0.072-66.037
		c0.066-9.306-2.834-12.644-11.962-12.645c-29.127-0.002-58.254-0.07-87.38,0.074c-3.826,0.021-6.178-1.181-5.827-4.966
		c1.091-11.751,0.325-23.508,0.49-35.258c0.133-9.556,3.479-13.035,12.984-13.02c4.821,0.009,9.645,0.022,14.467,0.036
		c23.771,0.067,47.544,0.086,71.315,0.255c3.67,0.026,6.199-1.438,6.11-4.941c-0.201-7.883,0.917-15.784-0.195-23.636
		c-1.055-7.442-3.634-9.526-11.302-9.539c-23.652-0.036-47.305-0.069-70.957-0.097c-18.624-0.021-37.247-0.013-55.87-0.052
		c-9.871-0.021-12.377,2.401-12.384,12.235c-0.013,19.751,0.001,39.501-0.001,59.251c-0.002,15.73-0.013,31.463-0.017,47.193
		c-0.002,8.455,1.804,10.271,10.182,10.293c29.613,0.078,59.227,0.222,88.84,0.179c4.204-0.007,5.917,1.104,5.847,5.665
		c-0.247,16.323-0.104,32.653-0.104,48.98c0,8.935-3.707,12.776-12.61,12.823c-11.829,0.063-23.659,0.074-35.487,0.002
		c-16.437-0.102-32.872-0.316-49.309-0.449c-6.33-0.052-7.367,0.95-7.377,6.984c-0.014,8.148-0.048,16.299,0.041,24.447
		c0.064,5.934,2.802,8.845,8.851,8.874C92.326,383.473,114.27,383.406,136.213,383.406z"/>
	<path fill="#010101" d="M281.423,408.202c14.457-0.549,21.405,6.409,20.831,19.509c-0.158,3.611-2.015,6.245-4.188,8.768
		c-1.523,1.766-1.826,3.007,0.066,4.985c6.99,7.306,8.177,16.461,3.689,25.645c-3.017,6.175-11.938,10.136-21.009,9.3
		c-4.883-0.449-9.271-2.061-13.412-4.829c-8.512-5.689-9.299-22.682-0.914-29.4c2.023-1.621,2.834-2.954,0.618-5.177
		c-5.647-5.661-6.085-12.35-2.755-19.226c3.307-6.828,9.177-9.766,16.681-9.575C281.529,408.213,282.027,408.202,281.423,408.202z
		 M274.035,454.597c-0.178,5.755,3.327,10.193,8.26,10.462c4.997,0.271,8.904-3.655,8.968-9.01
		c0.063-5.288-3.972-10.563-8.303-10.857C278.64,444.897,274.189,449.587,274.035,454.597z M283.034,433.686
		c3.637-0.056,7.16-3.545,7.036-6.97c-0.14-3.876-3.992-7.767-7.63-7.706c-3.653,0.062-7.194,3.709-7.17,7.388
		C275.296,430.412,278.85,433.747,283.034,433.686z"/>
	<path fill="#010101" d="M232.415,407.988c14.615-0.109,21.6,8.195,18.939,22.179c-0.498,2.618-1.943,4.588-3.622,6.383
		c-1.773,1.896-1.598,3.01,0.299,4.863c7.253,7.099,7.382,15.709,3.711,24.344c-3.103,7.299-9.667,9.969-17.277,10.41
		c-5.783,0.337-11.28-0.783-16.116-3.909c-9.589-6.198-11.206-20.334-3.205-29.163c2.724-3.005,3.181-4.735,0.115-7.944
		c-4.589-4.805-4.166-10.896-1.874-16.706c2.477-6.272,7.446-9.579,14.049-10.424C229.069,407.81,230.753,407.988,232.415,407.988z
		 M240.716,456.049c0.064-5.852-3.825-11.114-8.302-11.234c-4.337-0.116-8.747,4.735-8.812,9.693
		c-0.076,5.883,3.44,10.149,8.433,10.229C237.054,464.819,240.66,461.21,240.716,456.049z M239.466,426.567
		c-0.073-4.151-3.613-7.95-7.354-7.893c-3.669,0.058-7.554,4.064-7.564,7.804c-0.009,3.328,3.688,6.799,7.262,6.82
		C236.132,433.323,239.534,430.332,239.466,426.567z"/>
	<path fill="#010101" d="M353.649,441.112c0.135,6.655-0.247,13.23-2.001,19.723c-2.932,10.854-8.986,15.877-19.718,15.989
		c-9.615,0.102-17.717-5.643-19.799-15.479c-2.697-12.74-2.916-25.728,0.802-38.358c3.147-10.695,9.604-14.96,20.724-14.77
		c7.354,0.126,12.584,3.6,15.789,10.164C352.683,425.008,353.545,429.78,353.649,441.112z M339.398,442.697
		c0.46-5.815,0.944-12.444-2.236-18.607c-1.146-2.224-2.729-4.525-5.6-4.156c-2.962,0.382-4.859,2.11-5.663,5.39
		c-2.642,10.779-2.196,21.558-0.642,32.381c0.542,3.781,2.311,6.992,6.373,7.155c4.387,0.177,6.221-3.287,7.128-7.062
		C339.892,453.082,339.658,448.28,339.398,442.697z"/>
	<path fill="#010101" d="M202.806,439.508c0.044,10.131-0.504,20.259,0.296,30.398c0.239,3.053-0.792,5.247-4.528,4.809
		c-1.313-0.154-2.667-0.118-3.991-0.023c-3.84,0.275-5.253-1.391-5.158-5.272c0.268-10.842,0.287-21.689,0.269-32.534
		c-0.003-2.041,0.764-4.519-1.448-5.98c-2.468-1.632-3.771,1.02-5.583,1.798c-0.304,0.132-0.564,0.396-0.875,0.467
		c-2.619,0.599-4.91,4.583-7.812,1.478c-2.27-2.429-0.235-10.057,2.854-11.785c5.864-3.28,11.115-7.073,14.719-13.006
		c2.251-3.704,6.226-2.522,9.56-1.875c3.615,0.704,1.721,3.65,1.746,5.711c0.051,4.291-0.033,8.584-0.044,12.876
		C202.797,430.88,202.806,435.193,202.806,439.508z"/>
	<path fill="#FB2102" d="M337.551,264.413c-15.473,0-30.944-0.083-46.416,0.049c-4.919,0.042-7.227,2.943-7.251,8.767
		c-0.098,23.492-0.116,46.985-0.146,70.479c-0.014,11.164-0.069,22.328,0.078,33.488c0.049,3.714-0.822,5.123-5.061,5.005
		c-13.815-0.388-27.65-0.314-41.475-0.128c-3.987,0.054-5.513-1.565-5.473-5.217c0.184-16.805,0.45-33.607,0.572-50.414
		c0.079-10.899-0.087-21.803-0.059-32.705c0.022-8.585,0.702-17.203,0.134-25.743c-0.68-10.247-0.067-20.475,0.005-30.677
		c0.069-9.456,0.128-18.935,0.202-28.4c0.184-23.597,0.316-47.192,0.402-70.789c0.067-18.614,0.208-37.231-0.073-55.842
		c-0.068-4.491,1.923-5.52,5.532-5.559c8.328-0.091,16.656-0.164,24.982-0.176c17.658-0.026,35.336-0.52,52.971,0.12
		c21.984,0.796,43.957,0.272,65.933,0.498c3.449,0.034,6.443,0.759,9.033,3.28c13.585,13.231,27.241,26.392,40.904,39.543
		c1.18,1.136,1.931,2.388,1.442,3.941c-0.509,1.623-2.102,1.361-3.396,1.414c-20.63,0.839-41.268,0.479-61.903,0.338
		c-13.471-0.093-26.943,0.11-40.416,0.163c-12.146,0.048-24.294,0.104-36.441,0.085c-3.526-0.006-5.665,0.813-6.605,4.949
		c-1.884,8.275-0.76,16.571-1.021,24.831c-0.441,13.949-0.147,27.922-0.136,41.886c0.01,11.401,9.011,20.3,20.529,20.32
		c25.322,0.047,50.646,0.085,75.966,0.127c1.166,0.002,2.373-0.18,3.491,0.055c3.563,0.748,5.667,2.123,5.401,6.701
		c-0.664,11.455-0.585,22.954-0.764,34.438c-0.044,2.838-0.217,5.367-4.067,5.357c-15.627-0.038-31.254-0.016-46.88-0.016
		C337.551,264.527,337.551,264.471,337.551,264.413z"/>
	<path fill="#010101" d="M136.772,152.119c20.479,0,40.96-0.012,61.439,0.007c6.313,0.006,6.883,0.799,6.764,7.206
		c-0.08,4.311-0.279,8.622,0.263,12.955c0.737,5.892-0.32,6.813-6.296,6.803c-28.094-0.049-56.189-0.088-84.283-0.098
		c-7.844-0.004-14.708,5.909-14.903,13.711c-0.379,15.224-0.201,30.46-0.273,45.69c-0.021,4.177,1.789,5.668,6.143,5.65
		c30.64-0.121,61.279,0.017,91.919,0.075c6.636,0.013,7.357,0.662,7.334,7.472c-0.134,40.004-0.301,80.008-0.491,120.013
		c-0.026,5.549-1.582,7.083-7.107,7.043c-31.385-0.228-62.771,0.277-94.159-0.349c-8.759-0.175-17.592,0.182-26.389,0.299
		c-8.137,0.108-9.225-1.102-9.249-9.076c-0.016-4.663,0.251-9.346-0.093-13.983c-0.327-4.406,1.289-5.754,5.633-5.667
		c13.973,0.276,27.953,0.217,41.931,0.25c13.956,0.032,27.913,0.085,41.869,0.012c10.074-0.054,15.924-5.531,16.073-15.365
		c0.299-19.745,0.321-39.493,0.536-59.239c0.057-5.242-3.884-5.224-7.169-5.271c-14.621-0.213-29.245-0.14-43.869-0.171
		c-16.105-0.034-32.212-0.188-48.316-0.032c-4.765,0.046-6.426-1.671-6.395-6.432c0.165-24.683-0.081-49.366,0.172-74.047
		c0.102-9.915,0.329-19.825,0.069-29.74c-0.146-5.647,1.659-7.771,7.409-7.801c20.479-0.103,40.959-0.04,61.44-0.04
		C136.772,152.035,136.772,152.077,136.772,152.119z"/>
</g>
</svg>
