<?xml version="1.0" encoding="UTF-8" standalone="no"?>
<!DOCTYPE svg PUBLIC "-//W3C//DTD SVG 1.1//EN" "http://www.w3.org/Graphics/SVG/1.1/DTD/svg11.dtd">
<svg width="906px" height="335px" viewBox="0 0 906 335" version="1.1" xmlns="http://www.w3.org/2000/svg" xmlns:xlink="http://www.w3.org/1999/xlink">
    <g id="Hessen" stroke="none" stroke-width="1" fill="none" fill-rule="evenodd">
        <g id="228-SAFO">
            <g id="Tennis" transform="translate(656.684356, 211.568602)" fill="#ED1C24" fill-rule="nonzero">
                <polygon id="Path" points="12.7349989 54.4313981 22.8962892 54.4313981 22.8962892 7.70021533 35.315644 7.70021533 35.315644 1.43139813 0.315644036 1.43139813 0.315644036 7.70021533 12.7349989 7.70021533"></polygon>
                <polygon id="Path" points="41.315644 54.4313981 73.315644 54.4313981 73.315644 48.1625809 51.2065531 48.1625809 51.2065531 29.9260218 71.5701895 29.9260218 71.5701895 23.6572046 51.2065531 23.6572046 51.2065531 7.70021533 72.7338259 7.70021533 72.7338259 1.43139813 41.315644 1.43139813"></polygon>
                <polygon id="Path" points="80.315644 54.4313981 88.8870726 54.4313981 88.8870726 13.3991401 88.8870726 13.3991401 110.02993 54.4313981 120.315644 54.4313981 120.315644 1.43139813 111.744215 1.43139813 111.744215 40.7539788 111.744215 40.7539788 91.1727869 1.43139813 80.315644 1.43139813"></polygon>
                <polygon id="Path" points="132.315644 54.4313981 140.887073 54.4313981 140.887073 13.3991401 140.887073 13.3991401 162.02993 54.4313981 172.315644 54.4313981 172.315644 1.43139813 164.315644 1.43139813 164.315644 40.7539788 163.744215 40.7539788 143.744215 1.43139813 132.315644 1.43139813"></polygon>
                <polygon id="Path" points="183.315644 54.4313981 193.315644 54.4313981 193.315644 1.43139813 183.315644 1.43139813"></polygon>
                <path d="M232.799515,2.13666128 C231.105967,1.56824023 225.460805,0.431398127 219.815644,0.431398127 C208.525321,0.431398127 202.315644,5.5471876 202.315644,14.0735034 C202.315644,30.5577139 227.154354,30.5577139 227.154354,42.494556 C227.154354,47.6103455 222.073709,48.7471876 219.251128,48.7471876 C213.605967,48.7471876 207.396289,45.9050823 203.444676,43.0629771 L203.444676,52.1577139 C205.138225,52.726135 211.347902,54.4313981 217.55758,54.4313981 C228.847902,54.4313981 237.315644,50.4524508 237.315644,39.0840297 C237.315644,22.5998192 211.912418,22.0313981 211.912418,11.7998192 C211.912418,8.38929286 214.734999,6.68402971 219.251128,6.68402971 C225.460805,6.68402971 231.670483,9.52613497 233.364031,10.094556 L233.364031,2.13666128 L232.799515,2.13666128 Z" id="Path"></path>
            </g>
            <polygon id="Divider" fill="#ED1C24" fill-rule="nonzero" points="623.973016 276.417399 631.433497 276.417399 631.433497 207.55142 623.973016 207.55142"></polygon>
            <g id="Hockey" transform="translate(332.440370, 211.568602)" fill="#ED1C24">
                <polygon id="Path" fill-rule="nonzero" points="-0.44036971 54.4313981 9.20142133 54.4313981 9.20142133 29.9260218 27.9178392 29.9260218 27.9178392 54.4313981 37.5596303 54.4313981 37.5596303 1.43139813 27.9178392 1.43139813 27.9178392 23.6572046 9.20142133 23.6572046 9.20142133 1.43139813 -0.44036971 1.43139813"></polygon>
                <path d="M70.0596303,55.4313981 C85.6365534,55.4313981 92.5596303,44.5459815 92.5596303,27.9313981 C92.5596303,11.8897315 85.6365534,0.431398127 70.0596303,0.431398127 C54.4827072,0.431398127 47.5596303,11.3168148 47.5596303,27.9313981 C47.5596303,44.5459815 53.9057841,55.4313981 70.0596303,55.4313981 L70.0596303,55.4313981 Z M57.9442457,27.9313981 C57.9442457,14.7543148 60.8288611,5.58764813 69.4827072,5.58764813 C78.1365534,5.58764813 81.0211688,14.7543148 81.0211688,27.9313981 C81.0211688,41.1084815 78.1365534,50.2751481 69.4827072,50.2751481 C60.8288611,50.2751481 57.9442457,41.6813981 57.9442457,27.9313981 L57.9442457,27.9313981 Z" id="Shape"></path>
                <path d="M136.273916,43.0629771 C134.55963,44.7682402 129.988202,48.1787665 123.131059,48.1787665 C108.845345,48.1787665 108.845345,30.5577139 108.845345,24.8735034 C108.845345,18.0524508 110.55963,5.5471876 119.131059,5.5471876 C125.416773,5.5471876 127.131059,11.7998192 127.131059,15.7787665 L138.55963,15.7787665 C138.55963,6.68402971 132.273916,0.431398127 120.273916,0.431398127 C104.273916,0.431398127 98.5596303,12.3682402 98.5596303,26.5787665 C98.5596303,41.3577139 104.845345,54.4313981 121.416773,54.4313981 C127.702487,54.4313981 132.845345,52.726135 136.273916,51.0208718 L136.273916,43.0629771 L136.273916,43.0629771 Z" id="Path" fill-rule="nonzero"></path>
                <polygon id="Path" fill-rule="nonzero" points="145.55963 54.4313981 155.414703 54.4313981 155.414703 28.7862368 155.994413 28.7862368 173.385717 54.4313981 185.55963 54.4313981 164.690065 25.366882 183.8205 1.43139813 172.806007 1.43139813 155.994413 24.2270971 155.414703 24.2270971 155.414703 1.43139813 145.55963 1.43139813"></polygon>
                <polygon id="Path" fill-rule="nonzero" points="190.55963 54.4313981 222.55963 54.4313981 222.55963 48.1625809 201.032358 48.1625809 201.032358 29.9260218 220.814176 29.9260218 220.814176 23.6572046 201.032358 23.6572046 201.032358 7.70021533 221.977812 7.70021533 221.977812 1.43139813 190.55963 1.43139813"></polygon>
                <polygon id="Path" fill-rule="nonzero" points="240.131059 54.4313981 250.416773 54.4313981 250.416773 29.3561293 267.55963 1.43139813 257.845345 1.43139813 246.416773 20.8077422 235.55963 1.43139813 223.55963 1.43139813 240.131059 29.3561293"></polygon>
            </g>
            <g id="SAFO" transform="translate(330.718720, 0.379598)" fill="#034694">
                <path d="M499.786675,185.620402 C552.805787,185.620402 575.28128,147.731513 575.28128,92.6204016 C575.28128,37.5092905 552.805787,-0.379598437 499.786675,-0.379598437 C446.191268,-0.379598437 424.29207,37.5092905 424.29207,92.6204016 C423.715775,147.157439 446.191268,185.620402 499.786675,185.620402 L499.786675,185.620402 Z M460.022341,92.0463275 C460.022341,46.6944756 470.97194,16.2685497 499.21038,16.2685497 C528.025115,16.2685497 538.398419,46.6944756 538.398419,92.0463275 C538.398419,137.398179 527.44882,167.824105 499.21038,167.824105 C470.97194,168.398179 460.022341,137.972253 460.022341,92.0463275 L460.022341,92.0463275 Z" id="Shape"></path>
                <polygon id="Path" fill-rule="nonzero" points="306.28128 188.620402 340.663302 188.620402 340.663302 104.728338 404.270044 104.728338 404.270044 84.0426238 340.663302 84.0426238 340.663302 28.3061158 408.28128 28.3061158 408.28128 7.62040156 306.28128 7.62040156"></polygon>
                <path d="M125.28128,188.620402 L155.784877,188.620402 L171.899985,137.480719 L233.482719,137.480719 L249.022287,188.620402 L285.28128,188.620402 L222.547467,7.62040156 L187.439553,7.62040156 L125.28128,188.620402 L125.28128,188.620402 Z M202.979122,38.0743698 L202.979122,38.0743698 L227.727323,117.944211 L177.65538,117.944211 L202.979122,38.0743698 L202.979122,38.0743698 Z" id="Shape"></path>
                <path d="M105.927213,9.78706823 C99.0372606,8.63892008 80.0898922,4.62040156 61.1425238,4.62040156 C22.0994616,4.62040156 0.281279774,22.4166979 0.281279774,51.1204016 C0.281279774,107.953735 85.831519,107.379661 85.831519,148.13892 C85.831519,165.361142 69.1808013,169.953735 57.6975477,169.953735 C37.0276913,169.953735 16.9319975,159.046327 3.15209317,150.435216 L3.15209317,182.583365 C9.46788265,184.305587 30.1377391,190.620402 51.9559209,190.620402 C90.4248204,190.620402 120.28128,176.26855 120.28128,137.231513 C120.28128,80.9722534 31.8602271,79.2500312 31.8602271,43.6574386 C31.8602271,32.1759571 42.1951554,25.2870682 56.5492224,25.2870682 C77.2190788,25.2870682 100.185586,34.4722534 106.501375,37.3426238 L106.501375,9.78706823 L105.927213,9.78706823 Z" id="Path" fill-rule="nonzero"></path>
            </g>
            <path d="M-0.411863967,8.4139627 L-0.411863967,151.884753 C-0.411863967,151.884753 -6.72457874,271.826334 143.63281,334.379598 C293.990198,271.826334 287.677483,151.884753 287.677483,151.884753 L287.677483,8.4139627 L-0.411863967,8.4139627 L-0.411863967,8.4139627 Z" id="Path" fill="#ED1C24" fill-rule="nonzero"></path>
            <path d="M-0.411863967,151.884753 C-0.411863967,151.884753 -6.72457874,271.826334 143.63281,334.379598 C143.63281,216.607954 143.63281,157.722131 143.63281,157.722131 L143.63281,8.4139627 L-0.411863967,8.4139627 L-0.411863967,151.884753 Z" id="Blue" fill="#034694" fill-rule="nonzero"></path>
            <path d="M184.952397,180.578911 C184.952397,180.578911 181.509098,179.431145 183.230748,183.448327 C185.52628,186.891626 197.577827,200.090939 201.595009,201.812588 C205.612191,203.534238 198.15171,205.255887 198.15171,205.255887 C198.15171,205.255887 198.725593,211.568602 207.907724,217.881317 C217.089854,224.194031 215.368205,216.159667 215.368205,216.159667 C215.368205,216.159667 229.715284,211.568602 230.86305,219.602966 C230.86305,219.602966 226.271985,217.307433 223.402569,219.029083 C221.107036,220.750732 221.107036,222.472382 217.089854,223.620148 C212.498789,224.194031 217.663737,227.063447 220.533153,226.489564 C223.402569,225.915681 230.289167,235.097811 227.419751,237.967227 C227.419751,237.967227 223.976452,231.654513 222.254803,232.802279 C219.95927,233.376162 216.515971,233.376162 214.794322,231.654513 C212.498789,229.35898 217.089854,239.114994 214.794322,240.836643 C212.498789,243.132176 213.072672,247.149358 209.629373,248.297124 C209.629373,248.297124 211.924906,241.984409 210.203256,239.688877 C209.629373,238.54111 209.05549,238.54111 209.05549,238.54111 C209.629373,236.819461 210.203256,233.376162 209.05549,231.080629 C207.907724,227.63733 203.890542,234.523928 203.890542,234.523928 L202.168892,233.950045 C202.168892,233.950045 197.577827,237.393344 197.003944,240.26276 C197.003944,240.26276 196.43006,234.523928 198.725593,232.802279 L197.577827,231.080629 C197.577827,231.080629 199.299476,226.489564 205.038308,225.341798 C211.351023,224.767915 202.742775,220.750732 202.742775,220.750732 L194.134528,210.420836 C194.134528,210.420836 186.674047,217.307433 187.821813,211.568602 C188.969579,205.82977 172.326968,189.761042 172.326968,189.761042 C172.326968,189.761042 160.849304,184.02221 163.144837,197.795406 C163.144837,197.795406 177.491916,236.819461 181.509098,238.54111 C186.100164,240.26276 184.378514,254.035956 184.378514,254.035956 C184.378514,254.035956 182.082981,246.001592 179.787449,250.592657 C177.491916,255.183722 177.491916,259.774787 175.196383,260.922554 C175.196383,260.922554 169.457552,253.462073 168.883669,255.757605 C168.883669,255.757605 168.309786,245.427708 166.588136,244.279942 C165.44037,242.558293 163.144837,236.245578 159.127655,233.950045 C154.53659,231.654513 150.519408,232.228396 152.81494,242.558293 C155.110473,252.88819 166.014253,266.087502 154.53659,275.843516 C154.53659,275.843516 153.962706,266.661385 150.519408,268.956918 C147.076109,271.252451 144.206693,269.530801 143.63281,273.547983 C143.058926,269.530801 140.189511,271.252451 136.746212,268.956918 C133.302913,266.661385 132.72903,275.843516 132.72903,275.843516 C121.251366,266.661385 132.155146,252.88819 134.450679,242.558293 C136.746212,232.228396 132.155146,232.228396 128.137964,233.950045 C123.546899,236.245578 121.825249,242.558293 120.677483,244.279942 C119.529717,246.001592 118.38195,255.757605 118.38195,255.757605 C117.808067,253.462073 112.069236,260.922554 112.069236,260.922554 C109.773703,259.774787 109.773703,254.609839 107.47817,250.592657 C105.182638,246.001592 102.887105,254.035956 102.887105,254.035956 C102.887105,254.035956 101.165456,240.26276 105.756521,238.54111 C110.347586,236.819461 124.120782,197.795406 124.120782,197.795406 C126.416315,184.02221 114.938651,189.761042 114.938651,189.761042 C114.938651,189.761042 98.2960398,205.82977 99.4438061,211.568602 C100.591572,217.307433 93.1310914,210.420836 93.1310914,210.420836 L84.5228439,220.750732 C84.5228439,220.750732 76.4884797,224.194031 82.2273113,225.341798 C88.5400261,225.915681 89.6877924,231.080629 89.6877924,231.080629 L88.5400261,232.802279 C90.8355587,235.097811 90.2616756,240.26276 90.2616756,240.26276 C89.6877924,237.967227 85.0967271,233.950045 85.0967271,233.950045 L83.3750776,234.523928 C83.3750776,234.523928 79.3578955,228.211214 78.2101292,231.080629 C77.0623628,233.376162 78.2101292,236.819461 78.2101292,238.54111 C78.2101292,238.54111 77.636246,238.54111 77.0623628,239.688877 C75.3407134,241.984409 77.636246,248.297124 77.636246,248.297124 C74.192947,247.149358 74.7668302,242.558293 72.4712975,240.836643 C70.1757649,238.54111 74.7668302,229.35898 72.4712975,231.654513 C70.1757649,233.950045 66.7324659,233.950045 65.0108164,232.802279 C62.7152838,232.228396 59.845868,237.967227 59.845868,237.967227 C56.9764522,234.523928 63.8630501,225.915681 66.7324659,226.489564 C69.6018817,227.063447 74.192947,224.194031 70.1757649,223.620148 C65.5846996,223.046265 66.1585828,220.750732 63.8630501,219.029083 C61.5675175,217.307433 56.402569,219.602966 56.402569,219.602966 C57.5503353,211.568602 71.8974144,216.159667 71.8974144,216.159667 C71.8974144,216.159667 70.1757649,224.194031 79.3578955,217.881317 C88.5400261,211.568602 89.1139092,205.255887 89.1139092,205.255887 C89.1139092,205.255887 81.6534281,202.960354 85.6706103,201.812588 C89.6877924,200.090939 101.739339,186.891626 104.034871,183.448327 C106.330404,180.005028 102.313222,180.578911 102.313222,180.578911 C54.6809195,225.341798 29.4300604,202.960354 29.4300604,202.960354 C41.4816068,198.369289 75.3407134,177.709495 77.0623628,174.84008 L60.4197512,177.709495 C34.5950089,180.578911 24.8389951,166.805715 24.8389951,166.805715 C30.0039436,166.805715 72.4712975,158.197468 75.9145965,155.328052 C75.9145965,155.328052 63.8630501,153.032519 50.0898542,149.015337 C34.5950089,144.424272 32.8733594,130.651076 32.8733594,130.651076 C32.8733594,130.651076 71.8974144,138.111557 76.4884797,135.816025 C76.4884797,135.816025 62.1414006,127.78166 56.402569,122.042829 C44.9249058,111.139049 51.8115037,96.2180864 51.8115037,96.2180864 C71.8974144,119.747296 85.0967271,119.173413 85.0967271,119.173413 C78.2101292,110.565165 77.0623628,101.383035 76.4884797,97.3658527 C73.6190639,84.7404232 80.5056618,73.2627599 80.5056618,73.2627599 C85.0967271,80.723241 95.426624,102.530801 98.869923,107.121866 C111.495353,124.338361 126.416315,128.929427 126.416315,128.929427 L131.581263,126.633894 C131.581263,126.633894 133.876796,122.042829 131.581263,123.190595 C126.990198,126.060011 124.694665,119.173413 124.694665,119.173413 C124.694665,119.173413 128.711847,119.747296 131.581263,119.747296 C131.581263,117.451763 136.172328,84.16654 135.024562,82.4448905 L124.694665,82.4448905 C124.694665,82.4448905 120.1036,82.4448905 118.955834,77.8538252 C118.955834,77.8538252 128.137964,79.0015916 130.433497,77.8538252 C131.581263,77.2799421 131.581263,75.5582926 131.00738,73.2627599 L131.00738,72.6888768 C130.433497,69.2455778 128.137964,68.6716947 126.416315,68.0978115 C122.973016,66.9500452 116.660301,65.8022788 115.512535,68.6716947 C115.512535,68.6716947 113.217002,65.2283957 120.1036,62.3589799 C126.416315,59.4895641 140.763394,58.3417977 140.763394,58.3417977 C140.763394,58.3417977 149.945524,56.0462651 149.945524,61.2112136 C149.945524,61.2112136 161.423188,61.7850967 163.71872,61.7850967 C165.44037,61.7850967 168.309786,59.4895641 168.309786,58.3417977 C168.309786,58.3417977 172.900851,65.8022788 168.883669,68.6716947 C164.292603,71.5411105 162.570954,70.3933441 163.144837,73.2627599 C163.71872,76.1321758 158.553772,78.4277084 166.014253,75.5582926 C166.014253,75.5582926 167.735902,80.723241 163.71872,82.4448905 C159.127655,84.16654 159.127655,86.4620727 159.127655,86.4620727 L163.144837,129.50331 L163.71872,129.50331 C163.71872,129.50331 178.639682,124.912244 191.265112,107.69575 C194.708411,103.104684 205.612191,81.2971242 209.629373,73.8366431 C209.629373,73.8366431 216.515971,85.3143063 213.646555,97.9397359 C212.498789,101.956918 211.351023,110.565165 205.038308,119.747296 C205.038308,119.747296 218.237621,120.895062 238.323531,96.7919696 C238.323531,96.7919696 245.784012,111.139049 233.732466,122.616712 C227.993634,128.355543 213.646555,136.389908 213.646555,136.389908 C218.811504,138.68544 257.261676,131.224959 257.261676,131.224959 C257.261676,131.224959 255.540026,144.998155 240.045181,149.58922 C226.271985,153.606403 214.220438,155.901935 214.220438,155.901935 C217.663737,158.771351 259.557208,167.379598 265.29604,167.379598 C265.29604,167.379598 255.540026,181.152794 229.715284,178.283379 L213.072672,175.413963 C214.794322,178.283379 248.079545,198.943172 260.704975,203.534238 C258.409442,202.960354 232.5847,225.341798 184.952397,180.578911 L184.952397,180.578911 Z" id="Path" fill="#FFFFFF" fill-rule="nonzero"></path>
            <path d="M139.615627,64.6545125 C139.615627,64.6545125 137.320095,72.1149936 131.581263,64.0806294 C131.581263,64.0806294 137.320095,61.7850967 139.615627,64.6545125 L139.615627,64.6545125 L139.615627,64.6545125 Z" id="Path" fill="#034694"></path>
            <path d="M129.859614,71.5411105 L128.711847,72.6888768 C103.460988,80.1493579 108.052054,66.9500452 108.052054,66.9500452 C108.052054,66.9500452 108.052054,74.4105263 129.859614,71.5411105 L129.859614,71.5411105 L129.859614,71.5411105 Z" id="Path" fill="#FFFFFF" fill-rule="nonzero"></path>
            <polygon id="Path" fill="#FFFFFF" fill-rule="nonzero" points="114.938651 31.3692892 134.450679 45.142485 143.63281 31.3692892 153.388823 45.142485 172.326968 31.3692892 162.570954 49.1596672 124.694665 49.1596672"></polygon>
        </g>
    </g>
</svg>