<?xml version="1.0" encoding="UTF-8" standalone="no"?>
<!DOCTYPE svg PUBLIC "-//W3C//DTD SVG 1.1//EN" "http://www.w3.org/Graphics/SVG/1.1/DTD/svg11.dtd">
<svg width="158px" height="58px" viewBox="0 0 158 58" version="1.1" xmlns="http://www.w3.org/2000/svg" xmlns:xlink="http://www.w3.org/1999/xlink">
    <g id="Hessen" stroke="none" stroke-width="1" fill="none" fill-rule="evenodd">
        <g id="Artboard">
            <path d="M76.0960596,0.866 C74.9100596,0.639 71.5810596,0 68.2510596,0 C61.4560596,0 57.6250596,3.056 57.6250596,8.118 C57.6250596,18.061 72.5380596,17.924 72.5380596,25.038 C72.5380596,28.002 69.6200596,28.869 67.6130596,28.869 C64.0550596,28.869 60.5440596,26.999 58.1270596,25.494 L58.1270596,31.058 C59.2660596,31.377 62.8690596,32.472 66.6550596,32.472 C73.4040596,32.472 78.5120596,29.963 78.5120596,23.123 C78.5120596,13.363 63.1440596,12.998 63.1440596,6.842 C63.1440596,4.881 64.9220596,3.603 67.4300596,3.603 C71.0790596,3.603 75.0010596,5.199 76.0960596,5.747 L76.0960596,0.866" id="Fill-1" fill="#193F7E"></path>
            <path d="M79.6760596,31.97 L84.9660596,31.97 L87.7930596,23.031 L98.5110596,23.031 L101.24806,31.97 L107.58706,31.97 L96.6410596,0.502 L90.5300596,0.502 L79.6760596,31.97 Z M93.1760596,5.792 L93.2670596,5.792 L97.5080596,19.702 L88.8430596,19.702 L93.1760596,5.792 L93.1760596,5.792 Z" id="Fill-2" fill="#193F7E"></path>
            <polyline id="Fill-3" fill="#193F7E" points="110.89806 31.97 116.87206 31.97 116.87206 17.376 128.04606 17.376 128.04606 13.773 116.87206 13.773 116.87206 4.105 128.68406 4.105 128.68406 0.502 110.89806 0.502 110.89806 31.97"></polyline>
            <path d="M144.77106,32.472 C153.98406,32.472 157.90606,25.859 157.90606,16.236 C157.90606,6.613 153.98406,0 144.77106,0 C135.51306,0 131.63706,6.613 131.63706,16.236 C131.63706,25.859 135.51306,32.472 144.77106,32.472 Z M137.93106,16.236 C137.93106,8.301 139.80106,3.01 144.77106,3.01 C149.74206,3.01 151.61206,8.301 151.61206,16.236 C151.61206,24.171 149.74206,29.462 144.77106,29.462 C139.80106,29.462 137.93106,24.171 137.93106,16.236 L137.93106,16.236 Z" id="Fill-4" fill="#193F7E"></path>
            <polygon id="Fill-5" fill="#D8232A" points="108.82906 47.196 110.14106 47.196 110.14106 35.193 108.82906 35.193"></polygon>
            <polyline id="Fill-6" fill="#D8232A" points="57.9940596 45.376 59.7460596 45.376 59.7460596 41.067 62.9580596 41.067 62.9580596 45.376 64.7110596 45.376 64.7110596 36.143 62.9580596 36.143 62.9580596 40.01 59.7460596 40.01 59.7460596 36.143 57.9940596 36.143 57.9940596 45.376"></polyline>
            <path d="M70.1530596,45.523 C72.8560596,45.523 74.0070596,43.583 74.0070596,40.76 C74.0070596,37.936 72.8560596,35.996 70.1530596,35.996 C67.4370596,35.996 66.2990596,37.936 66.2990596,40.76 C66.2990596,43.583 67.4370596,45.523 70.1530596,45.523 Z M68.1460596,40.76 C68.1460596,38.431 68.6940596,36.879 70.1530596,36.879 C71.6110596,36.879 72.1600596,38.431 72.1600596,40.76 C72.1600596,43.088 71.6110596,44.64 70.1530596,44.64 C68.6940596,44.64 68.1460596,43.088 68.1460596,40.76 L68.1460596,40.76 Z" id="Fill-7" fill="#D8232A"></path>
            <path d="M81.8470596,43.503 C81.5130596,43.757 80.7230596,44.412 79.5590596,44.412 C77.0970596,44.412 77.0570596,41.361 77.0570596,40.291 C77.0570596,39.06 77.3240596,36.879 78.8770596,36.879 C80.0010596,36.879 80.2280596,37.936 80.2280596,38.659 L82.2220596,38.659 C82.2220596,37.04 81.1650596,35.996 78.9840596,35.996 C76.1870596,35.996 75.2100596,38.137 75.2100596,40.586 C75.2100596,43.195 76.3210596,45.523 79.2380596,45.523 C80.3490596,45.523 81.2590596,45.175 81.8470596,44.948 L81.8470596,43.503" id="Fill-8" fill="#D8232A"></path>
            <polyline id="Fill-9" fill="#D8232A" points="83.2900596 45.376 85.0430596 45.376 85.0430596 40.907 85.0700596 40.907 88.0940596 45.376 90.2350596 45.376 86.5820596 40.305 89.8870596 36.143 88.0400596 36.143 85.0700596 40.157 85.0430596 40.157 85.0430596 36.143 83.2900596 36.143 83.2900596 45.376"></polyline>
            <polyline id="Fill-10" fill="#D8232A" points="91.2080596 45.376 96.7210596 45.376 96.7210596 44.266 92.9610596 44.266 92.9610596 41.094 96.4130596 41.094 96.4130596 40.037 92.9610596 40.037 92.9610596 37.2 96.6010596 37.2 96.6010596 36.143 91.2080596 36.143 91.2080596 45.376"></polyline>
            <polyline id="Fill-11" fill="#D8232A" points="99.8190596 45.376 101.57206 45.376 101.57206 41.054 104.59606 36.143 102.91006 36.143 100.90306 39.529 98.9630596 36.143 96.9420596 36.143 99.8190596 41.054 99.8190596 45.376"></polyline>
            <polyline id="Fill-12" fill="#D8232A" points="116.71806 45.376 118.47106 45.376 118.47106 37.2 120.69206 37.2 120.69206 36.143 114.49606 36.143 114.49606 37.2 116.71806 37.2 116.71806 45.376"></polyline>
            <polyline id="Fill-13" fill="#D8232A" points="121.66706 45.376 127.18006 45.376 127.18006 44.266 123.42006 44.266 123.42006 41.094 126.87206 41.094 126.87206 40.037 123.42006 40.037 123.42006 37.2 127.05906 37.2 127.05906 36.143 121.66706 36.143 121.66706 45.376"></polyline>
            <polyline id="Fill-14" fill="#D8232A" points="128.61806 45.376 130.05006 45.376 130.05006 38.19 130.07706 38.19 133.82406 45.376 135.56306 45.376 135.56306 36.143 134.13106 36.143 134.13106 42.994 134.10506 42.994 130.53206 36.143 128.61806 36.143 128.61806 45.376"></polyline>
            <polyline id="Fill-15" fill="#D8232A" points="137.54306 45.376 138.97506 45.376 138.97506 38.19 139.00106 38.19 142.74806 45.376 144.48806 45.376 144.48806 36.143 143.05606 36.143 143.05606 42.994 143.02906 42.994 139.45606 36.143 137.54306 36.143 137.54306 45.376"></polyline>
            <polygon id="Fill-16" fill="#D8232A" points="146.45406 45.376 148.20706 45.376 148.20706 36.143 146.45406 36.143"></polygon>
            <path d="M155.08006,36.25 C154.73206,36.183 153.75506,35.996 152.77906,35.996 C150.78506,35.996 149.66106,36.892 149.66106,38.378 C149.66106,41.295 154.03606,41.255 154.03606,43.342 C154.03606,44.212 153.18006,44.466 152.59106,44.466 C151.54706,44.466 150.51706,43.918 149.80806,43.476 L149.80806,45.108 C150.14206,45.202 151.19906,45.523 152.31006,45.523 C154.29106,45.523 155.78906,44.787 155.78906,42.78 C155.78906,39.917 151.28006,39.809 151.28006,38.003 C151.28006,37.428 151.80206,37.053 152.53806,37.053 C153.60806,37.053 154.75906,37.521 155.08006,37.682 L155.08006,36.25" id="Fill-17" fill="#D8232A"></path>
            <path d="M0.00705963534,0.499 L0.00705963534,25.456 C0.00705963534,25.456 -1.11994036,46.37 25.1050596,57.244 C51.3300596,46.37 50.2040596,25.456 50.2040596,25.456 L50.2040596,0.499 L0.00705963534,0.499" id="Fill-18" fill="#D8232A"></path>
            <g id="Group-21" transform="translate(0.000000, 0.499000)">
                <mask id="mask-2" fill="white">
                    <use xlink:href="#path-1"></use>
                </mask>
                <g id="Clip-20"></g>
                <polygon id="Fill-19" fill="#193F7E" mask="url(#mask-2)" points="-0.0439403647 56.781 25.1050596 56.781 25.1050596 -0.099 -0.0439403647 -0.099"></polygon>
            </g>
            <path d="M32.3470596,30.478 C32.3450596,30.482 31.7110596,30.317 32.0630596,30.952 C32.4160596,31.586 34.5500596,33.862 35.2550596,34.144 C35.9610596,34.426 34.6210596,34.779 34.6210596,34.779 C34.6210596,34.779 34.7620596,35.836 36.3130596,36.964 C37.8640596,38.092 37.5820596,36.682 37.5820596,36.682 C37.5820596,36.682 40.0500596,35.836 40.2620596,37.247 C40.2620596,37.247 39.4150596,36.823 38.9930596,37.105 C38.5700596,37.387 38.6400596,37.74 37.8640596,37.881 C37.0890596,38.022 37.9350596,38.445 38.4280596,38.375 C38.9220596,38.304 40.1210596,39.855 39.6270596,40.419 C39.6270596,40.419 39.0630596,39.361 38.7110596,39.503 C38.3580596,39.644 37.7240596,39.644 37.3710596,39.291 C37.0190596,38.939 37.7940596,40.56 37.3710596,40.913 C36.9480596,41.265 37.0890596,42.041 36.4540596,42.253 C36.4540596,42.253 36.8070596,41.195 36.5250596,40.772 C36.3850596,40.562 36.3140596,40.543 36.2790596,40.577 C36.3470596,40.322 36.4760596,39.724 36.3130596,39.291 C36.1020596,38.727 35.3970596,39.855 35.3970596,39.855 L35.1150596,39.785 C35.1150596,39.785 34.2690596,40.419 34.1980596,40.842 C34.1980596,40.842 34.0570596,39.855 34.4800596,39.503 L34.2690596,39.221 C34.2690596,39.221 34.5500596,38.375 35.6080596,38.234 C36.6660596,38.092 35.2550596,37.458 35.2550596,37.458 L33.7750596,35.624 C33.7750596,35.624 32.5060596,36.823 32.7170596,35.836 C32.9290596,34.849 30.0180596,32.08 30.0180596,32.08 C30.0180596,32.08 28.0440596,31.093 28.3970596,33.49 C28.3970596,33.49 30.8640596,40.308 31.6400596,40.59 C32.4160596,40.872 32.1340596,43.269 32.1340596,43.269 C32.1340596,43.269 31.7810596,41.859 31.3580596,42.635 C30.9350596,43.41 31.0050596,44.257 30.5820596,44.468 C30.5820596,44.468 29.5950596,43.198 29.5250596,43.551 C29.5250596,43.551 29.3840596,41.789 29.1720596,41.507 C28.9610596,41.225 28.6080596,40.097 27.8320596,39.743 C27.0570596,39.391 26.3520596,39.461 26.7050596,41.225 C27.0570596,42.987 29.0000596,45.37 26.9860596,47.006 C26.9860596,47.006 26.9160596,45.41 26.2820596,45.833 C25.6470596,46.256 25.2240596,45.948 25.0830596,46.654 C24.9420596,45.948 24.5190596,46.256 23.8840596,45.833 C23.2500596,45.41 23.1790596,47.006 23.1790596,47.006 C21.1650596,45.37 23.1090596,42.987 23.4610596,41.225 C23.8140596,39.461 23.1090596,39.391 22.3330596,39.743 C21.5570596,40.097 21.2050596,41.225 20.9930596,41.507 C20.7820596,41.789 20.6410596,43.551 20.6410596,43.551 C20.5710596,43.198 19.5830596,44.468 19.5830596,44.468 C19.1600596,44.257 19.2310596,43.41 18.8080596,42.635 C18.3850596,41.859 18.0320596,43.269 18.0320596,43.269 C18.0320596,43.269 17.7500596,40.872 18.5260596,40.59 C19.3010596,40.308 21.7690596,33.49 21.7690596,33.49 C22.1220596,31.093 20.1480596,32.08 20.1480596,32.08 C20.1480596,32.08 17.2370596,34.849 17.4480596,35.836 C17.6600596,36.823 16.3910596,35.624 16.3910596,35.624 L14.9100596,37.458 C14.9100596,37.458 13.5000596,38.092 14.5580596,38.234 C15.6150596,38.375 15.8970596,39.221 15.8970596,39.221 L15.6860596,39.503 C16.1090596,39.855 15.9680596,40.842 15.9680596,40.842 C15.8970596,40.419 15.0510596,39.785 15.0510596,39.785 L14.7690596,39.855 C14.7690596,39.855 14.0640596,38.727 13.8520596,39.291 C13.6900596,39.724 13.8180596,40.322 13.8870596,40.577 C13.8520596,40.543 13.7810596,40.562 13.6410596,40.772 C13.3590596,41.195 13.7110596,42.253 13.7110596,42.253 C13.0770596,42.041 13.2180596,41.265 12.7950596,40.913 C12.3720596,40.56 13.1470596,38.939 12.7950596,39.291 C12.4420596,39.644 11.8080596,39.644 11.4550596,39.503 C11.1030596,39.361 10.5380596,40.419 10.5380596,40.419 C10.0450596,39.855 11.2440596,38.304 11.7370596,38.375 C12.2310596,38.445 13.0770596,38.022 12.3010596,37.881 C11.5260596,37.74 11.5960596,37.387 11.1730596,37.105 C10.7500596,36.823 9.90405964,37.247 9.90405964,37.247 C10.1160596,35.836 12.5830596,36.682 12.5830596,36.682 C12.5830596,36.682 12.3010596,38.092 13.8520596,36.964 C15.4040596,35.836 15.5450596,34.779 15.5450596,34.779 C15.5450596,34.779 14.2050596,34.426 14.9100596,34.144 C15.6150596,33.862 17.7500596,31.586 18.1030596,30.952 C18.4550596,30.317 17.8210596,30.482 17.8210596,30.482 C9.55105964,38.294 5.10005964,34.406 5.10005964,34.406 C7.24905964,33.588 13.1060596,29.966 13.3880596,29.495 L10.4720596,29.956 C5.97005964,30.416 4.23105964,28.012 4.23105964,28.012 C5.17105964,28.012 12.5180596,26.528 13.0810596,26.017 C13.0810596,26.017 10.9830596,25.658 8.63005964,24.942 C5.93305964,24.122 5.66305964,21.771 5.66305964,21.771 C5.66305964,21.771 12.4330596,23.089 13.2850596,22.691 C13.2850596,22.691 10.7790596,21.31 9.75505964,20.338 C7.72105964,18.405 8.98805964,15.887 8.98805964,15.887 C12.4670596,20.031 14.7690596,19.878 14.7690596,19.878 C13.6050596,18.328 13.3890596,16.759 13.2340596,16.092 C12.7230596,13.892 13.9500596,11.897 13.9500596,11.897 C14.7180596,13.176 16.5980596,17.002 17.1730596,17.78 C19.3590596,20.737 21.9310596,21.565 21.9310596,21.565 L22.7990596,21.127 C22.7990596,21.127 23.2480596,20.296 22.8420596,20.532 C22.0330596,21.002 21.6780596,19.825 21.6780596,19.825 C21.6780596,19.825 22.3510596,19.937 22.8300596,19.913 C22.7900596,19.486 23.6380596,13.722 23.4610596,13.396 L21.6280596,13.396 C21.6280596,13.396 20.8290596,13.396 20.6410596,12.597 C20.6410596,12.597 22.1920596,12.831 22.6620596,12.597 C22.8440596,12.506 22.8610596,12.162 22.7860596,11.765 L22.7680596,11.675 C22.6320596,11.061 22.2870596,10.938 21.9570596,10.828 C21.3930596,10.639 20.2180596,10.435 20.0300596,10.952 C20.0300596,10.952 19.6540596,10.34 20.7820596,9.87 C21.9100596,9.4 24.4010596,9.165 24.4010596,9.165 C24.4010596,9.165 25.9990596,8.789 25.9530596,9.635 C25.9530596,9.635 27.9740596,9.776 28.3030596,9.729 C28.6320596,9.682 29.1490596,9.354 29.1490596,9.119 C29.1490596,9.119 29.9800596,10.428 29.2270596,10.898 C28.4750596,11.368 28.1160596,11.18 28.2100596,11.697 C28.3040596,12.214 27.3900596,12.616 28.7060596,12.145 C28.7060596,12.145 29.0350596,13.039 28.2830596,13.368 C27.5310596,13.697 27.4570596,14.054 27.4570596,14.054 L28.1810596,21.585 L28.2400596,21.565 C28.2400596,21.565 30.8110596,20.737 32.9970596,17.78 C33.5730596,17.002 35.4530596,13.176 36.2200596,11.897 C36.2200596,11.897 37.4480596,13.892 36.9360596,16.092 C36.7810596,16.759 36.5650596,18.328 35.4020596,19.878 C35.4020596,19.878 37.7040596,20.031 41.1820596,15.887 C41.1820596,15.887 42.4500596,18.405 40.4150596,20.338 C39.3920596,21.31 36.8850596,22.691 36.8850596,22.691 C37.7370596,23.089 44.5080596,21.771 44.5080596,21.771 C44.5080596,21.771 44.2370596,24.122 41.5400596,24.942 C39.1870596,25.658 37.0900596,26.017 37.0900596,26.017 C37.6520596,26.528 45.0000596,28.012 45.9400596,28.012 C45.9400596,28.012 44.2010596,30.416 39.6990596,29.956 L36.7830596,29.495 C37.0650596,29.966 42.9220596,33.588 45.0700596,34.406 C45.0700596,34.406 40.6070596,38.272 32.3470596,30.478" id="Fill-22" fill="#FFFFFE"></path>
            <path d="M24.3740596,10.283 C24.3740596,10.283 23.9640596,11.586 22.9760596,10.174 C22.9760596,10.174 23.9990596,9.791 24.3740596,10.283" id="Fill-23" fill="#193F7E"></path>
            <path d="M22.6730596,11.536 L22.4990596,11.71 C18.0810596,12.979 18.9270596,10.675 18.9270596,10.675 C18.9270596,10.675 18.9290596,12.006 22.6510596,11.446 L22.6730596,11.536" id="Fill-24" fill="#FFFFFE"></path>
            <polyline id="Fill-25" fill="#FFFFFE" points="20.0660596 4.542 23.4520596 6.912 25.1050596 4.542 26.7590596 6.912 30.1440596 4.542 28.4130596 7.64 21.7980596 7.64 20.0660596 4.542"></polyline>
        </g>
    </g>
</svg>