<?xml version="1.0" encoding="utf-8"?>
<svg width="677px" height="677px" viewBox="0 0 677 677" version="1.1" xmlns="http://www.w3.org/2000/svg" xmlns:xlink="http://www.w3.org/1999/xlink">
    <g id="Hessen" stroke="none" stroke-width="1" fill="none" fill-rule="evenodd">
        <g id="229-TGS" transform="translate(0.000000, -8.000000)" fill-rule="nonzero">
            <g id="229_tgs" transform="translate(0.000000, 8.000000)">
                <path d="M677,338.485073 C677,525.431053 525.46759,677 338.5,677 C151.562263,677 0,525.431053 0,338.485073 C0,151.539092 151.53241,0 338.5,0 C525.46759,-0.0298540371 677,151.539092 677,338.485073 Z" id="Path" fill="#FFD200"></path>
                <path d="M0,338.5 C0,151.562263 151.539092,0 338.514927,0 L338.514927,0 C525.460908,0 677,151.53241 677,338.5 L677,338.5 C677,525.437737 525.431053,676.970147 338.514927,677 L338.514927,677 C151.568947,676.970147 0,525.437737 0,338.5 L0,338.5 Z M107.295409,107.290678 C48.1247079,166.488623 11.5236583,248.19552 11.5236583,338.5 L11.5236583,338.5 C11.5236583,428.80448 48.0948538,510.511377 107.295409,569.709322 L107.295409,569.709322 C166.495965,628.877414 248.206465,665.47685 338.514927,665.47685 L338.514927,665.47685 C428.823389,665.47685 510.533889,628.907267 569.704591,569.709322 L569.704591,569.709322 C628.875292,510.511377 665.476342,428.80448 665.476342,338.5 L665.476342,338.5 C665.476342,248.19552 628.905146,166.488623 569.704591,107.290678 L569.704591,107.290678 C510.504035,48.1225858 428.793535,11.5231502 338.514927,11.5231502 L338.514927,11.5231502 C248.206465,11.5231502 166.495965,48.1225858 107.295409,107.290678 L107.295409,107.290678 Z" id="Shape" fill="#0067B1"></path>
                <polygon id="Path" fill="#FFD200" points="471.34 403.29 471.34 403.26 469.66 403.74"></polygon>
                <g id="Group" transform="translate(94.000000, 94.000000)" fill="#0067B1">
                    <path d="M288.172421,166.564038 C288.142549,166.504306 288.082806,166.47444 288.052934,166.444573 C313.802351,149.06242 317.655802,132.725585 308.933262,128.544311 C295.281889,122.003603 288.172421,144.343553 281.988976,160.232395 C277.806936,156.887376 274.162587,156.588713 270.159778,159.455872 C268.606448,157.156172 267.680425,154.438344 267.142734,152.07891 C266.425813,148.913089 266.455685,146.553655 266.425813,146.553655 C266.425813,145.359006 265.469918,144.403286 264.27505,144.403286 C263.080181,144.403286 262.094415,145.359006 262.094415,146.553655 C262.124287,146.702987 262.094415,152.228242 264.514024,157.932694 C261.945056,156.170586 258.569553,154.557809 254.477128,154.498076 C253.401746,154.498076 252.296493,154.617541 251.131496,154.886337 C249.966499,155.185 249.249578,156.319917 249.548295,157.514567 C249.817141,158.67935 251.012009,159.39614 252.147134,159.097478 C252.923799,158.91828 253.700463,158.828681 254.477128,158.828681 C257.763016,158.828681 260.780059,160.411592 262.990566,162.143834 C264.065948,162.980089 264.902356,163.786478 265.49979,164.413669 C264.245178,166.773102 264.394537,169.162402 265.768636,172.029561 C249.876884,178.271606 226.995151,185.379772 233.626672,199.14811 C237.748968,207.749588 253.670592,204.165639 270.787084,179.436389 C270.846827,179.496122 270.90657,179.58572 270.966314,179.675319 C266.127096,188.246931 255.970714,208.197581 264.991971,210.706346 C271.474133,212.49832 276.522453,209.989556 277.239374,199.894766 C277.567962,195.175899 277.926423,191.233555 278.255012,187.918402 C286.111273,195.713492 292.653178,198.013192 296.327399,195.564161 C300.36008,192.876199 300.569182,184.125389 293.489586,173.642338 C297.372909,173.134612 302.690074,172.656752 309.650183,172.149026 C319.746822,171.432236 322.256046,166.384841 320.463743,159.903866 C317.805161,150.406401 295.849451,162.143834 288.172421,166.564038 Z" id="Path"></path>
                    <path d="M228.428994,201.656874 C228.01079,200.820619 227.771816,199.954498 227.502971,199.118243 L216.241335,199.118243 C216.121848,201.477677 215.6439,203.896842 214.747749,206.316008 L232.37206,206.316008 C230.699244,205.061626 229.265402,203.538447 228.428994,201.656874 Z" id="Path"></path>
                    <path d="M185.563085,229.731143 C185.533213,229.67141 185.47347,229.641544 185.443598,229.581812 C211.193015,212.199658 215.046466,195.862823 206.323926,191.681549 C192.672553,185.140842 185.563085,207.480792 179.37964,223.369633 C175.1976,220.024614 171.553251,219.725951 167.550441,222.593111 C165.997112,220.29341 165.071089,217.575582 164.533398,215.216149 C163.816477,212.080193 163.846349,209.690894 163.816477,209.690894 C163.816477,208.496244 162.860582,207.540524 161.665714,207.540524 C160.470845,207.540524 159.51495,208.496244 159.51495,209.690894 C159.544822,209.840225 159.51495,215.335614 161.934559,221.069932 C159.365592,219.307824 155.990088,217.724913 151.897664,217.635314 C150.822282,217.635314 149.717028,217.754779 148.552032,218.023575 C147.387035,218.322238 146.670114,219.457155 146.968831,220.651805 C147.267548,221.816588 148.432545,222.533378 149.56767,222.234716 C150.344334,222.055518 151.120999,221.96592 151.897664,221.96592 C155.183552,221.96592 158.200595,223.54883 160.440974,225.281072 C161.516355,226.117327 162.352763,226.923716 162.950198,227.550907 C161.695586,229.91034 161.844944,232.29964 163.219043,235.166799 C147.327291,241.408844 124.445559,248.51701 131.077079,262.285348 C135.199376,270.886826 151.120999,267.302877 168.237491,242.573627 C168.297234,242.63336 168.356978,242.722959 168.416721,242.812557 C163.577504,251.384169 153.421121,271.33482 162.412507,273.843584 C168.894669,275.635559 173.942988,273.126794 174.659909,263.032004 C174.988498,258.313137 175.346959,254.370793 175.675548,251.05564 C183.531808,258.85073 190.073713,261.150431 193.747934,258.701399 C197.780616,256.013437 197.989718,247.262627 190.910121,236.779576 C194.793444,236.27185 200.080737,235.79399 207.070718,235.286264 C217.167358,234.569474 219.676582,229.522079 217.884279,223.041104 C215.195825,213.573505 193.240115,225.281072 185.563085,229.731143 Z" id="Path"></path>
                    <path d="M272.728745,150.794662 C272.81836,151.153057 272.907975,151.541318 273.027462,151.929579 C273.833998,151.780248 274.640535,151.690649 275.476943,151.690649 C276.671811,151.690649 277.777064,151.83998 278.882318,152.138643 C279.509624,150.525866 280.196673,148.853356 280.853851,147.210713 L272.220926,147.210713 C272.220926,147.360044 272.220926,147.449643 272.250797,147.598974 C272.310541,148.405362 272.430028,149.510413 272.728745,150.794662 Z" id="Path"></path>
                    <path d="M244.529847,0 C109.47983,0 0,109.459781 0,244.485067 C0,376.075734 104.013307,483.35528 234.313721,488.731204 C228.399122,484.997923 236.822945,468.452025 240.975113,461.104929 C240.91537,461.045196 240.855627,460.955598 240.795883,460.895865 C225.262592,483.35528 210.804683,486.610701 207.040847,478.815611 C201.036632,466.301655 221.797473,459.850547 236.225511,454.17596 C234.970899,451.577597 234.851412,449.427228 235.986537,447.276858 C235.448846,446.7094 234.672182,445.962744 233.716287,445.216087 C231.68501,443.633177 228.936813,442.199597 225.949641,442.199597 C225.262592,442.199597 224.545671,442.289196 223.82875,442.438527 C222.78324,442.677457 221.707858,442.050266 221.468884,441.004947 C221.200039,439.929762 221.857217,438.884444 222.932598,438.645514 C223.978108,438.406584 224.993747,438.287119 225.949641,438.287119 C229.653734,438.346852 232.73052,439.780431 235.060514,441.393208 C232.850007,436.196482 232.909751,431.178953 232.850007,431.059488 C232.850007,429.984303 233.716287,429.088316 234.82154,429.088316 C235.896922,429.088316 236.763202,429.954437 236.763202,431.059488 C236.793073,431.059488 236.763202,433.209858 237.420379,436.077017 C237.898327,438.227387 238.764607,440.676418 240.168577,442.796922 C243.812926,440.168692 247.128686,440.467355 250.922394,443.483845 C255.194049,432.5528 259.943651,418.276736 267.381708,414.573322 L95.320638,414.573322 L95.320638,388.649423 L392.215599,388.649423 L392.215599,414.573322 L275.028867,414.573322 C275.148354,414.633054 275.267841,414.662921 275.387327,414.722653 C283.303331,418.515666 279.808341,433.359189 256.418789,449.158432 C256.448661,449.218164 256.478533,449.24803 256.538276,449.277897 C263.528257,445.245954 283.482562,434.583705 285.872299,443.185183 C287.515243,449.068833 285.215121,453.638368 276.044505,454.295425 C269.711702,454.743419 264.872484,455.191413 261.377494,455.639406 C267.799912,465.166738 267.620682,473.111159 263.946461,475.560191 C260.600829,477.770293 254.656358,475.709522 247.517019,468.601356 C247.218302,471.617846 246.889713,475.201796 246.590996,479.472668 C246.232535,484.699261 244.529847,487.656019 242.080367,488.940268 C242.886903,488.940268 243.663568,489 244.470104,489 C379.520121,489 488.999976,379.540219 488.999976,244.514933 C489.059695,109.459781 379.579864,0 244.529847,0 Z M247.397532,54.2669639 C293.818175,54.2669639 335.011268,74.9941367 358.161846,103.994259 L132.83951,103.994259 C154.944578,76.3381176 193.568704,54.2669639 247.397532,54.2669639 Z M94.6335886,172.089293 C87.6734793,172.597019 82.3563143,173.074879 78.4729915,173.582606 C85.5525877,184.095523 85.3434857,192.816466 81.2809326,195.504428 C77.6067119,197.95346 71.0648066,195.653759 63.2085459,187.85867 C62.8799571,191.173823 62.5214965,195.116167 62.1929077,199.835033 C61.4759865,209.929823 56.4276669,212.438588 49.9455051,210.646613 C40.9541193,208.137849 51.1105019,188.187198 55.9497195,179.615587 C55.8899761,179.555854 55.8302327,179.466255 55.7704892,179.376657 C38.6838691,204.105906 22.732374,207.689855 18.6100776,199.118243 C12.0084289,185.320039 34.8602897,178.241739 50.7520414,171.999695 C49.3779425,169.132535 49.228584,166.743236 50.4831959,164.383803 C49.8857617,163.756611 49.0493537,162.950223 47.973972,162.113968 C45.7335935,160.381726 42.7165504,158.798815 39.4306619,158.798815 C38.6539974,158.798815 37.8773328,158.888414 37.1006683,159.067611 C35.9356714,159.336408 34.7706746,158.619618 34.5018292,157.4847 C34.203112,156.319917 34.9499049,155.155133 36.08503,154.856471 C37.2201551,154.587675 38.3552802,154.46821 39.4306619,154.46821 C43.5230867,154.527942 46.8985903,156.140719 49.4675577,157.902828 C47.0479489,152.198375 47.0778206,146.67312 47.0479489,146.523789 C47.0479489,145.329139 48.0038437,144.37342 49.1987122,144.37342 C50.3935808,144.37342 51.3494756,145.329139 51.3494756,146.523789 C51.3793473,146.523789 51.3494756,148.883222 52.0663968,152.049044 C52.6040876,154.408477 53.5301107,157.126306 55.0834398,159.426006 C59.1161212,156.558847 62.7305985,156.857509 66.9126384,160.202529 C73.0960831,144.343553 80.2055509,121.973737 93.856924,128.514445 C102.579464,132.695719 98.7260133,149.032554 72.9765963,166.414707 C73.006468,166.47444 73.0662114,166.504306 73.0960831,166.564038 C80.7731135,162.113968 102.758695,150.406401 105.387405,159.874 C107.239452,166.325108 104.730228,171.342637 94.6335886,172.089293 Z M377.847305,199.088377 L300.838027,199.088377 C300.389952,199.506505 300.001619,199.984365 299.463929,200.342759 C297.552139,201.597142 295.222145,202.224333 292.981767,202.224333 C289.516648,202.134734 286.290503,201.029683 283.034486,199.088377 C283.004614,199.476638 282.974743,199.8649 282.944871,200.253161 C282.765641,202.433396 282.40718,204.404568 281.869489,206.286142 L377.847305,206.286142 C377.847305,219.487021 377.847305,233.374824 377.847305,247.352226 L202.73932,247.352226 L202.73932,254.549991 L377.847305,254.549991 C377.847305,271.006291 377.847305,287.372992 377.847305,302.604776 C377.847305,304.844744 377.847305,307.054846 377.847305,309.235082 L377.847305,309.294815 C377.847305,314.222745 377.847305,318.971477 377.847305,323.541013 C377.847305,356.752275 377.847305,380.64527 377.847305,380.64527 L291.368694,380.64527 C291.368694,380.64527 291.368694,371.864594 291.368694,357.946925 C291.368694,355.91602 291.368694,353.795517 291.368694,351.555549 C297.372909,356.364014 311.472357,350.958224 326.497829,329.245465 C326.557573,329.305198 326.647188,329.394796 326.67706,329.484395 C321.837842,338.056007 311.681459,358.006657 320.702717,360.515422 C327.184879,362.307396 332.233198,359.798632 332.950119,349.703842 C333.278708,344.984975 333.637169,341.042631 333.965758,337.727478 C341.822018,345.522568 348.363924,347.822268 352.038144,345.373236 C356.070826,342.685275 356.279928,333.934465 349.200332,323.451414 C353.083654,322.943688 358.400819,322.465828 365.360929,321.958102 C375.457568,321.241312 377.966792,316.193917 376.174489,309.712942 C373.545778,300.245343 351.560197,311.982777 343.883167,316.432847 C343.853295,316.373114 343.793551,316.343248 343.76368,316.283516 C369.513097,298.901362 373.366548,282.564527 364.644008,278.383253 C350.992634,271.842546 343.883167,294.182496 337.699722,310.071337 C333.517682,306.726318 329.873333,306.427655 325.870523,309.294815 C324.317194,306.965248 323.391171,304.277286 322.85348,301.917853 C322.136559,298.781897 322.166431,296.392598 322.136559,296.392598 C322.136559,295.197948 321.180664,294.242228 319.985796,294.242228 C318.790927,294.242228 317.805161,295.197948 317.805161,296.392598 C317.835032,296.541929 317.805161,302.067184 320.224769,307.771636 C317.655802,306.009528 314.280298,304.426617 310.187874,304.337018 C309.112492,304.337018 308.007239,304.456483 306.842242,304.725279 C305.677245,305.023942 304.960324,306.158859 305.259041,307.353509 C305.527886,308.518292 306.722755,309.205216 307.85788,308.93642 C308.634545,308.757222 309.411209,308.667624 310.187874,308.667624 C313.473762,308.667624 316.490805,310.250534 318.731184,311.982777 C319.806565,312.819031 320.642973,313.62542 321.240408,314.252611 C319.985796,316.612044 320.135154,319.001344 321.509253,321.868503 C310.99441,325.990045 297.432652,330.529714 291.398566,337.100287 C291.398566,334.591523 291.398566,332.023026 291.398566,329.424663 C291.398566,325.930312 291.398566,322.376229 291.398566,318.702681 C291.398566,284.117572 261.13852,273.305992 244.559719,273.305992 C230.758987,273.305992 207.459051,282.38533 200.080737,304.575948 L200.080737,304.575948 C199.453432,306.457522 198.975484,308.428694 198.55728,310.489464 C193.120628,305.352471 174.510551,315.268063 167.580313,319.300006 C167.550441,319.240274 167.490698,319.210407 167.460826,319.150675 C193.210243,301.768521 197.063694,285.431686 188.341154,281.250412 C174.689781,274.709705 167.580313,297.049655 161.396868,312.938496 C157.214829,309.593477 153.570479,309.294815 149.56767,312.161974 C148.014341,309.862273 147.088318,307.144445 146.550627,304.785012 C145.833706,301.61919 145.863577,299.259757 145.833706,299.259757 C145.833706,298.065107 144.877811,297.109387 143.682942,297.109387 C142.488074,297.109387 141.532179,298.065107 141.532179,299.259757 C141.562051,299.409088 141.532179,304.934343 143.951788,310.638796 C141.38282,308.876687 138.007317,307.293776 133.914892,307.204178 C132.83951,307.204178 131.734257,307.323643 130.56926,307.592439 C129.404263,307.891101 128.687342,309.026018 128.986059,310.220668 C129.284776,311.385452 130.449773,312.102241 131.584898,311.803579 C132.361563,311.624382 133.138227,311.534783 133.914892,311.534783 C137.20078,311.534783 140.217823,313.117694 142.458202,314.849936 C143.533584,315.686191 144.369992,316.492579 144.967426,317.11977 C143.712814,319.479204 143.862173,321.868503 145.236271,324.735662 C129.34452,330.977707 106.462787,338.085873 113.094308,351.854211 C117.216604,360.455689 133.138227,356.87174 150.254719,332.142491 C150.314463,332.202223 150.374206,332.291822 150.43395,332.381421 C145.594732,340.953032 135.438349,360.903683 144.429735,363.412447 C150.911897,365.204422 155.960217,362.695657 156.677138,352.600867 C157.005727,347.882001 157.364187,343.939657 157.692776,340.624504 C165.549037,348.419593 172.090942,350.719294 175.765163,348.270262 C179.797844,345.5823 180.006946,336.831491 172.92735,326.34844 C176.810673,325.840713 182.127838,325.362853 189.087947,324.855127 C193.120628,324.556465 195.928569,323.570879 197.720872,322.077567 C197.720872,324.317535 197.720872,326.527637 197.720872,328.707873 C197.720872,357.678129 197.720872,380.705002 197.720872,380.705002 L111.242261,380.705002 C111.242261,380.705002 111.242261,372.252855 111.242261,358.603982 C111.242261,352.033409 111.242261,344.208453 111.242261,335.577109 C111.242261,298.752031 111.242261,246.396506 111.242261,206.345874 L154.526374,206.345874 C155.810858,203.687779 158.499312,201.806205 161.665714,201.806205 C164.832115,201.806205 167.52057,203.657912 168.775182,206.345874 L179.977074,206.345874 C181.052456,203.866976 182.187581,201.44781 183.412321,199.14811 L111.242261,199.14811 C111.242261,183.050205 111.242261,169.401331 111.242261,160.232395 C111.242261,158.350821 111.361748,156.409516 111.511107,154.46821 L244.171387,154.46821 C245.037666,151.959445 247.098815,149.988273 249.847012,149.331216 C251.460085,148.942955 253.013414,148.793624 254.596615,148.793624 C255.253792,148.793624 255.881098,148.853356 256.478533,148.913089 C256.418789,148.285898 256.388918,147.808038 256.388918,147.479509 L256.359046,147.360044 L256.359046,147.270445 L112.467002,147.270445 C114.617765,135.323948 119.695956,122.929457 127.582089,111.251756 L363.479011,111.251756 C370.946939,122.481463 375.786157,134.696757 377.339486,147.270445 L315.505039,147.270445 C314.907604,148.375496 314.250427,149.510413 313.503634,150.615464 C313.891966,150.585598 314.280298,150.555732 314.668631,150.555732 C317.536315,150.316802 321.509253,151.601051 323.988605,154.46821 L377.847305,154.46821 C377.847305,154.94607 377.907048,155.42393 377.907048,155.90179 C377.847305,168.087217 377.847305,182.960606 377.847305,199.088377 Z M451.929155,202.552861 C445.596351,203.000855 440.757134,203.448849 437.262143,203.896842 C443.684562,213.424174 443.505331,221.368595 439.831111,223.817627 C436.485479,226.027729 430.541008,223.966958 423.401668,216.858792 C423.102951,219.845416 422.774362,223.429365 422.475645,227.730104 C421.818467,236.899041 417.248095,239.198742 411.333496,237.556098 C403.148646,235.286264 412.379006,217.157454 416.770148,209.362365 C416.710404,209.302632 416.650661,209.213034 416.590917,209.153301 C401.057626,231.612716 386.599717,234.868137 382.865753,227.073047 C376.861538,214.559091 397.622379,208.107983 412.050417,202.433396 C410.795805,199.835033 410.676318,197.684664 411.811443,195.534294 C411.273752,194.966836 410.497088,194.22018 409.541193,193.473523 C407.509917,191.920479 404.761719,190.457033 401.804419,190.457033 C401.11737,190.457033 400.400449,190.546632 399.713399,190.695963 C398.667889,190.934893 397.592508,190.307702 397.353534,189.232517 C397.084688,188.157332 397.741866,187.112014 398.817248,186.843217 C399.862758,186.604288 400.878396,186.484823 401.834291,186.484823 C405.538383,186.544555 408.61517,187.978135 410.945164,189.590912 C408.734657,184.394186 408.7944,179.376657 408.764528,179.257192 C408.764528,178.182007 409.630808,177.28602 410.736062,177.28602 C411.811443,177.28602 412.677723,178.152141 412.677723,179.257192 C412.707595,179.257192 412.677723,181.407561 413.334901,184.274721 C413.812848,186.42509 414.679128,188.874122 416.083098,190.994625 C419.727447,188.366396 423.043208,188.665058 426.836915,191.681549 C432.452797,177.256153 438.905087,156.947108 451.301849,162.920357 C459.217853,166.71337 455.722862,181.556892 432.33331,197.356135 C432.363182,197.386001 432.393054,197.445734 432.452797,197.4756 C439.412907,193.443657 459.397083,182.781408 461.78682,191.382886 C463.399893,197.326269 461.099771,201.895804 451.929155,202.552861 Z" id="Shape"></path>
                </g>
                <g id="Group" transform="translate(79.000000, 33.000000)" fill="#0067B1">
                    <polygon id="Path" points="44.7155463 160.899015 15.0642768 139.900482 7.54705352 150.579223 0 145.224896 21.7760833 114.295433 29.3231368 119.64976 21.8059135 130.328501 51.4571831 151.327034"></polygon>
                    <path d="M87.3429751,111.483664 L82.5403047,107.953996 C83.0175887,110.855503 82.8087769,113.577535 81.9436997,116.060267 C81.0786224,118.543 79.5274493,120.906082 77.2901805,123.149515 C75.2020629,125.243386 72.8753033,126.768921 70.339732,127.785944 C67.8041607,128.802966 65.1194381,129.221741 62.2855642,129.102091 C59.3621996,128.982441 56.4984955,128.264543 53.7242822,126.918483 C50.9500688,125.572423 48.354837,123.687939 45.9385866,121.235119 C40.7182927,115.940617 38.0037398,110.167516 37.8844188,103.975641 C37.7352676,97.7837662 40.1813482,92.1602275 45.2226606,87.1947625 C49.0111025,83.4257951 53.0978469,81.2720994 57.4530635,80.7336755 C61.8082802,80.1952515 66.0143456,81.3020118 70.0712597,84.0838687 L62.136413,91.9508405 C60.2272769,91.0833797 58.3778013,90.8141677 56.5879863,91.173117 C54.7981712,91.5320663 53.1276771,92.4892644 51.5466738,94.0447112 C49.190084,96.407794 48.2056857,99.2793882 48.6531395,102.659494 C49.1005932,106.0396 50.8904083,109.329968 54.0524149,112.530599 C57.154761,115.671405 60.3465979,117.466152 63.6279255,117.884926 C66.9092531,118.3037 69.743127,117.31659 72.1593773,114.923594 C74.0983436,113.009198 75.2020629,110.915327 75.5003654,108.671894 C75.7986679,106.428461 75.2318932,104.274766 73.8000411,102.210807 L66.5811204,109.359881 L60.4360886,103.108181 L75.0230814,88.6305596 L92.5036085,106.338724 L87.3429751,111.483664 Z" id="Path"></path>
                    <path d="M90.0873582,88.9895089 L99.3645663,82.6779841 C100.885909,84.8017673 102.616064,85.9683525 104.55503,86.2375644 C106.493996,86.5067764 108.611944,85.8786151 110.908873,84.2932558 C112.87767,82.947196 114.160371,81.6011362 114.816636,80.225164 C115.443072,78.8491917 115.383411,77.5629568 114.577994,76.3664592 C114.160371,75.7682104 113.683087,75.3195238 113.116312,75.0203994 C112.549537,74.721275 111.952932,74.6016253 111.326497,74.6913626 C110.371929,74.7810999 108.253981,75.3793487 104.972653,76.4262841 C101.691326,77.4732195 98.857452,78.2808554 96.4710319,78.7893669 C93.040553,79.5670903 89.9978674,79.5371779 87.4026356,78.729542 C84.8074038,77.9219061 82.6894559,76.3365468 81.1084526,73.973464 C78.662372,70.3540588 78.065767,66.5850914 79.3484678,62.6067368 C80.6013384,58.6283823 83.5545332,55.068802 88.1782221,51.9279958 C92.7124203,48.8470145 97.0676369,47.5009547 101.243872,47.9496413 C105.420107,48.3684154 108.790926,50.4921987 111.386157,54.320991 L102.317761,60.512866 C100.915739,58.8975943 99.4242268,58.0002211 97.8133932,57.8805713 C96.2025597,57.7609216 94.4425748,58.3292579 92.5036085,59.6454053 C90.9524355,60.6923407 89.9083767,61.8888383 89.3714322,63.1750732 C88.8344876,64.4912206 88.8941482,65.6278933 89.5802439,66.6150038 C90.7137935,68.2901004 94.0846118,68.2901004 99.7225293,66.6449162 C100.736758,66.3457918 101.512344,66.1064923 102.049289,65.9569301 C102.16861,65.9270177 102.317761,65.8971052 102.526573,65.8372804 C108.343472,64.1322713 112.191574,63.3844603 114.04105,63.50411 C115.920356,63.6835847 117.62068,64.2220086 119.171853,65.1193818 C120.723026,66.0466674 122.035557,67.3029899 123.139276,68.9481741 C125.674848,72.7171416 126.241622,76.6057588 124.77994,80.6738506 C123.318258,84.71203 120.0071,88.5109099 114.816636,92.0405778 C109.924475,95.3608586 105.420107,96.7667433 101.363193,96.2582318 C97.2167882,95.8095452 93.4880068,93.3866376 90.0873582,88.9895089 Z" id="Path"></path>
                    <path d="M165.528063,63.7134971 L135.190698,26.2032974 L146.794665,21.9557309 L160.844714,41.7876786 C161.083356,42.1167155 161.471149,42.6551394 162.008093,43.4029504 C163.708418,45.7660331 165.080609,47.7701666 166.124668,49.4153508 C166.005347,48.4581527 165.915856,47.3513925 165.796535,46.0352451 C165.677214,44.7490102 165.557893,43.0140887 165.408742,40.8903054 L163.410115,15.8236807 L174.924592,11.5761143 L175.8195,59.8847048 L165.528063,63.7134971 Z" id="Path"></path>
                    <path d="M189.839718,31.0790251 C188.586847,23.7504773 189.630906,17.6483396 192.942064,12.712787 C196.253222,7.77723439 201.384025,4.72616551 208.274813,3.52966792 C215.195431,2.36308276 221.071991,3.52966792 225.874661,7.11916071 C230.677331,10.6787411 233.690187,16.1228051 234.913227,23.4214405 C236.136267,30.7200758 235.092209,36.852126 231.72139,41.7876786 C228.380402,46.7531437 223.219769,49.8042125 216.29915,50.9707977 C209.378532,52.1373829 203.561633,50.9408853 198.788793,47.3813049 C194.075613,43.8217245 191.092588,38.4075729 189.839718,31.0790251 Z M201.503346,29.0748916 C202.278932,33.651495 203.800275,37.0316007 206.067374,39.1553839 C208.334473,41.2791672 211.228008,42.0568906 214.688317,41.4586418 C218.178456,40.860393 220.654367,39.1852964 222.116049,36.4034394 C223.577732,33.651495 223.935695,29.9722648 223.160108,25.3657491 C222.384522,20.7891458 220.863179,17.4389525 218.566249,15.3151693 C216.26932,13.191386 213.375786,12.4136626 209.885646,13.0119114 C206.395507,13.6101602 203.949426,15.2852568 202.487744,18.0372013 C201.085722,20.8190582 200.727759,24.4982883 201.503346,29.0748916 Z" id="Shape"></path>
                    <path d="M247.08397,45.6762958 L248.128028,0 L269.933942,0.508511479 C275.721011,0.628161239 279.927076,1.76483396 282.611799,3.8886172 C285.296521,6.01240043 286.579222,9.24294395 286.489731,13.5802477 C286.430071,16.1527176 285.803635,18.3363257 284.610425,20.1310721 C283.387385,21.9258185 281.56774,23.4214405 279.091829,24.6179381 C281.060625,25.425574 282.462647,26.5024218 283.268064,27.8185692 C284.073481,29.1347165 284.491104,31.4678868 284.520935,34.7881677 C284.550765,35.7154533 284.580595,36.9717758 284.610425,38.5571351 C284.670086,42.2363652 285.236861,44.3900609 286.34058,44.9883097 L286.31075,46.573669 L274.110177,46.3044571 C273.543402,44.6891853 273.2451,42.4756648 273.2451,39.6638954 C273.215269,36.852126 273.185439,35.0872921 273.125779,34.3693935 C272.976627,32.5746471 272.409853,31.2884122 271.425454,30.4209514 C270.441056,29.5834031 268.919713,29.1347165 266.921086,29.0748916 L259.135391,28.895417 L258.747598,45.9754202 L247.08397,45.6762958 Z M259.254712,19.8319477 L267.935315,20.0413348 C270.291905,20.1011597 272.022059,19.7122979 273.155609,18.8747496 C274.289158,18.0372013 274.855933,16.6612291 274.915594,14.7468329 C274.945424,13.0717363 274.43831,11.8154138 273.394251,10.9778655 C272.350192,10.1403171 270.709528,9.69163055 268.50209,9.63180567 L259.493354,9.42241859 L259.254712,19.8319477 Z" id="Shape"></path>
                    <polygon id="Path" points="302.478746 48.9068393 300.867912 1.58535932 312.263068 4.30739135 311.010198 37.3008126 324.40398 7.17898559 336.485232 10.0505798 334.844568 42.9542638 348.536653 12.9221741 359.931809 15.6442061 337.201158 57.1626728 326.134135 54.5303781 327.416836 21.0882702 313.575599 51.5391341"></polygon>
                    <path d="M384.631257,27.0408457 L396.145734,32.5148222 L391.164082,80.703763 L379.858417,75.3195238 L380.932306,66.5551789 L367.18056,60.0043546 L361.24434,66.4654416 L350.326468,61.260677 L384.631257,27.0408457 Z M373.713385,52.6758068 L382.722121,56.9532857 L384.869899,40.5313562 L373.713385,52.6758068 Z M384.452276,20.7891458 L388.031906,13.2212985 L395.012185,16.5415793 L391.432554,24.1094266 L384.452276,20.7891458 Z M394.564731,25.5751362 L398.144361,18.0072889 L405.12464,21.3275697 L401.545009,28.895417 L394.564731,25.5751362 Z" id="Shape"></path>
                    <path d="M395.966753,83.964219 L422.605167,46.9326183 L440.294506,59.7351426 C444.977855,63.1152483 447.811729,66.4654416 448.825957,69.7258976 C449.840186,73.016266 449.064599,76.3963717 446.529028,79.9260396 C445.037516,82.0199104 443.277531,83.4557075 441.278904,84.2334309 C439.280277,85.0111544 436.893857,85.2205415 434.179304,84.7718549 C435.342684,86.5666013 435.879628,88.2416979 435.790138,89.7971448 C435.700647,91.3525917 434.746079,93.5062873 432.896603,96.2582318 C432.419319,97.0359552 431.733224,98.1128031 430.868146,99.399038 C428.839689,102.480019 428.093933,104.57389 428.660708,105.68065 L427.73597,106.966885 L417.832327,99.7878997 C418.27978,98.1427155 419.294009,96.138582 420.875012,93.8054117 C422.456015,91.4722414 423.410584,90.0065319 423.768547,89.3484582 C424.663454,87.7930113 424.931926,86.3871266 424.603794,85.1308041 C424.275661,83.8744817 423.291263,82.6480716 421.650599,81.451574 L415.326585,76.8749707 L405.363282,90.7244304 L395.966753,83.964219 Z M420.60654,69.5763354 L427.646479,74.6614502 C429.555615,76.0374224 431.196279,76.6954961 432.598301,76.6356712 C434.000323,76.5758463 435.253193,75.7682104 436.356912,74.242676 C437.341311,72.8966162 437.639613,71.5505564 437.22199,70.2643215 C436.834196,68.9780866 435.730477,67.6918516 433.940662,66.3757043 L426.632251,61.0812024 L420.60654,69.5763354 Z" id="Shape"></path>
                    <polygon id="Path" points="440.383996 119.440373 466.246824 93.9250615 457.088937 84.5923802 463.681422 78.1013807 490.170685 105.082402 483.5782 111.573401 474.420313 102.24072 448.527655 127.756031"></polygon>
                    <path d="M472.86914,131.674561 L479.312474,140.85768 C477.224356,142.413127 476.090807,144.177961 475.852165,146.122269 C475.613523,148.066578 476.299619,150.160449 477.910452,152.463707 C479.282644,154.408015 480.654835,155.69425 482.027027,156.292499 C483.429049,156.890748 484.681919,156.80101 485.845299,155.963462 C486.441904,155.544688 486.889358,155.036176 487.15783,154.46784 C487.426302,153.899504 487.545623,153.301255 487.456133,152.673094 C487.336812,151.715896 486.710376,149.622025 485.606657,146.331656 C484.502938,143.0712 483.667691,140.259431 483.100916,137.866436 C482.265669,134.426505 482.235839,131.405349 483.011425,128.773054 C483.787012,126.140759 485.308354,124.016976 487.635114,122.371792 C491.184914,119.859147 494.943526,119.201073 498.940779,120.397571 C502.938033,121.594068 506.517663,124.465663 509.73933,129.042266 C512.901337,133.529132 514.303358,137.866436 513.945395,142.08409 C513.587432,146.271831 511.529145,149.711762 507.770534,152.373969 L501.44652,143.370325 C503.027524,141.934528 503.892601,140.408993 503.982092,138.823634 C504.101413,137.208362 503.474977,135.443528 502.102786,133.529132 C501.028897,132.003598 499.835687,130.956662 498.523156,130.448151 C497.210625,129.939639 496.077075,130.029377 495.092677,130.717363 C493.452013,131.883948 493.481843,135.264054 495.241828,140.887592 C495.569961,141.904615 495.808603,142.682339 495.987584,143.220763 C496.017415,143.340412 496.047245,143.489975 496.136736,143.699362 C497.926551,149.502375 498.761798,153.331167 498.672307,155.185739 C498.523156,157.070222 498.045872,158.805144 497.150964,160.360591 C496.256057,161.916038 495.003186,163.262097 493.392352,164.428682 C489.693401,167.060977 485.785638,167.659226 481.728724,166.283254 C477.67181,164.907282 473.823708,161.646826 470.214247,156.501886 C466.813599,151.656071 465.322086,147.169205 465.73971,143.0712 C466.216994,138.913371 468.573584,135.144404 472.86914,131.674561 Z" id="Path"></path>
                </g>
                <g id="Group" transform="translate(61.000000, 447.000000)" fill="#0067B1">
                    <polygon id="Path" points="0 22.9347472 40.1898931 1.43155769 55.6567316 30.2416562 47.2962784 34.715274 37.323452 16.1348481 28.9928575 20.5786418 37.6518984 36.7134899 29.3213039 41.1572836 20.662263 25.0224355 5.46415338 33.1644198"></polygon>
                    <path d="M23.6481392,64.4499202 L59.6578057,36.5047211 L73.0345309,53.7132375 C76.5877235,58.2763276 78.3792492,62.2727595 78.4389668,65.672709 C78.4986843,69.1024827 76.7967349,72.1445427 73.392836,74.7690652 C71.3624403,76.3497435 69.2723269,77.2146429 67.1224961,77.4234117 C64.9726653,77.6321806 62.6436819,77.1251705 60.1654047,75.9620299 C60.7924386,78.0198941 60.8521562,79.749693 60.3146985,81.2110748 C59.7772407,82.6724566 58.2544439,84.4619037 55.7164492,86.5794161 C55.0296977,87.2057226 54.0742173,88.0109738 52.8798668,89.0249938 C50.0731432,91.3810992 48.7892165,93.2003704 48.9982278,94.4231593 L47.7441598,95.3775311 L40.2496107,85.7443408 C41.1453735,84.282959 42.6980291,82.6724566 44.8478599,80.8830095 C46.9976908,79.0935624 48.3413351,77.9602459 48.8787928,77.4532358 C50.1627195,76.230447 50.8196123,74.9480099 50.849471,73.6357487 C50.8793298,72.3234875 50.2821546,70.8919298 49.0280866,69.2814274 L44.2506847,63.1376589 L30.7843832,73.5761004 L23.6481392,64.4499202 Z M51.35707,57.6500211 L56.7017883,64.5095684 C58.1350089,66.3586637 59.5383707,67.4621561 60.9118737,67.7902214 C62.2853767,68.1182867 63.6887385,67.7305732 65.2115354,66.5376085 C66.5253209,65.5235884 67.1822136,64.3306237 67.1822136,62.9885384 C67.1523549,61.646453 66.4954621,60.0955989 65.1219591,58.3658 L59.5980882,51.2676598 L51.35707,57.6500211 Z" id="Shape"></path>
                    <path d="M98.5040546,81.4198436 L107.999141,89.9197174 L89.5165673,134.536599 L80.2006337,126.156021 L83.7239676,118.103509 L72.4074969,107.933485 L64.883089,112.407103 L55.865743,104.324767 L98.5040546,81.4198436 Z M80.7380914,102.803737 L88.1430643,109.454515 L94.8612856,94.3635111 L80.7380914,102.803737 Z" id="Shape"></path>
                    <path d="M100.624027,142.529462 L124.451318,103.69846 L135.230331,110.28959 L134.752591,127.527931 C134.663015,130.331398 134.54358,133.075217 134.364427,135.789212 C134.185275,138.473382 133.976263,141.127729 133.707535,143.692603 C135.379625,140.680367 136.96214,137.847076 138.455078,135.252378 C139.948016,132.627855 141.321519,130.361222 142.515869,128.422654 L148.607057,118.491223 L158.221578,124.366574 L134.394286,163.197577 L123.645132,156.606446 L124.063155,138.801448 C124.122872,136.713759 124.212448,134.357654 124.331883,131.79278 C124.451318,129.227906 124.600612,126.454263 124.809624,123.501675 C123.436121,126.156021 122.152194,128.601599 120.898126,130.838408 C119.644058,133.075217 118.509425,135.043609 117.464368,136.713759 L110.298265,148.404814 L100.624027,142.529462 Z" id="Path"></path>
                    <polygon id="Path" points="150.756887 171.130792 167.029912 128.571775 177.749208 132.657679 171.538585 148.882 192.8876 138.443558 205.995596 143.45401 181.929435 154.757351 190.140594 186.162148 177.122174 181.211344 171.658021 159.588858 166.582031 161.855491 161.476183 175.216696"></polygon>
                    <polygon id="Path" points="203.397884 189.204208 212.236078 144.527678 244.334246 150.850392 242.512862 160.125692 221.790881 156.039788 219.969497 165.285265 237.944471 168.834335 236.123087 178.079812 218.148112 174.530742 214.803931 191.441017"></polygon>
                    <path d="M251.380914,151.715291 L262.846678,152.013532 L262.100209,180.435917 C262.010633,183.56745 262.548091,185.804258 263.712583,187.176168 C264.877074,188.548077 266.817894,189.263856 269.5649,189.323504 C272.282047,189.383153 274.222867,188.78667 275.447076,187.474409 C276.671285,186.191972 277.298319,183.955163 277.387895,180.823631 L278.134364,152.401246 L289.749423,152.699487 L289.032812,179.749962 C288.943236,183.56745 288.465496,186.579686 287.689168,188.846319 C286.882982,191.083127 285.599055,192.991871 283.837388,194.483077 C282.016003,196.063755 279.866173,197.226896 277.477472,197.972499 C275.088771,198.718102 272.371623,199.075991 269.385747,198.986519 C266.399871,198.897047 263.712583,198.419861 261.35374,197.554961 C258.994898,196.690062 256.934644,195.407625 255.172977,193.737474 C253.471027,192.097148 252.276677,190.128756 251.589925,187.832299 C250.873315,185.535841 250.574727,182.493781 250.694163,178.735942 L251.380914,151.715291 Z" id="Path"></path>
                    <path d="M306.350894,197.107599 L299.363944,152.103005 L320.92197,148.762703 C326.624993,147.86798 330.984372,148.255693 334.029966,149.866196 C337.045701,151.476698 338.896944,154.429286 339.553837,158.694135 C339.942001,161.229185 339.703131,163.465994 338.837227,165.46421 C337.971323,167.432601 336.418667,169.222049 334.17926,170.832551 C336.269373,171.279913 337.822029,172.085164 338.837227,173.248305 C339.852425,174.411445 340.68847,176.61843 341.315504,179.869259 C341.524515,180.793807 341.763385,181.986771 342.061973,183.537625 C342.778583,187.146344 343.704205,189.14456 344.898555,189.532273 L345.137425,191.083127 L333.044627,192.962047 C332.208582,191.470841 331.52183,189.323504 331.014231,186.579686 C330.506632,183.806043 330.148327,182.106068 329.969175,181.390289 C329.521293,179.66049 328.715107,178.467525 327.610332,177.811395 C326.475699,177.155264 324.923044,176.976319 322.922507,177.274561 L315.218946,178.467525 L317.816659,195.288328 L306.350894,197.107599 Z M313.815585,169.609762 L322.414908,168.267677 C324.743891,167.909787 326.386123,167.223833 327.341604,166.179989 C328.297084,165.165968 328.62553,163.704587 328.356801,161.825667 C328.117931,160.185341 327.371462,159.0222 326.206971,158.395894 C325.01262,157.769587 323.34053,157.590642 321.16084,157.948532 L312.262929,159.320441 L313.815585,169.609762 Z" id="Shape"></path>
                    <polygon id="Path" points="369.800763 183.865691 358.245422 149.448658 345.854036 153.59421 342.898018 144.82592 378.728532 132.8068 381.68455 141.575091 369.293164 145.720643 380.878363 180.137676"></polygon>
                    <polygon id="Path" points="392.015681 162.780039 388.223618 154.429286 402.6454 147.897804 406.437463 156.248557"></polygon>
                    <path d="M426.890715,160.364285 L401.630202,122.457831 L415.006928,113.570243 L432.295151,128.691071 C433.817947,130.033157 435.281027,131.345418 436.684389,132.627855 C438.057892,133.940116 439.371677,135.222553 440.625745,136.475166 C439.909135,134.715543 439.222383,132.836624 438.505773,130.898056 C437.789163,128.929664 437.042694,126.812152 436.296225,124.515695 L429.398851,103.996701 L442.745717,95.109114 L468.00623,133.015569 L459.138177,138.920744 L447.941142,122.099941 C447.164814,120.906977 446.06004,119.236826 444.716395,117.059665 C443.342892,114.882505 441.790237,112.347455 440.058429,109.484339 L452.210945,143.513658 L442.566565,149.925844 L415.962408,125.499891 C418.32125,128.780544 420.441222,131.733132 422.292465,134.387478 C424.143709,137.012001 425.576929,139.099689 426.592127,140.620719 L435.788626,154.429286 L426.890715,160.364285 Z" id="Path"></path>
                    <path d="M457.973686,80.2865271 L466.991032,71.2796433 L510.614682,92.1267022 L501.74663,100.984465 L493.863917,97.0476817 L483.084904,107.814189 L487.145696,115.538635 L478.576231,124.098157 L457.973686,80.2865271 Z M478.397079,99.13537 L485.443746,92.096878 L470.753236,84.5812002 L478.397079,99.13537 Z" id="Shape"></path>
                    <polygon id="Path" points="518.885559 80.8531854 482.547446 53.3553481 489.564255 44.0800472 525.902368 71.5778845"></polygon>
                    <path d="M536.860534,56.606177 L496.93937,34.5959775 L503.030557,23.5610536 L520.31878,23.2628125 C523.125503,23.2031642 525.87251,23.2329883 528.589657,23.2628125 C531.306804,23.3224607 533.934375,23.4119331 536.532087,23.5610536 C533.426776,22.0400236 530.560335,20.5786418 527.873047,19.2067323 C525.185758,17.8348229 522.856775,16.5822099 520.856238,15.4787175 L510.644541,9.84195912 L516.078836,0 L556,22.0101995 L549.908813,33.0152992 L532.083132,33.4030128 C529.993019,33.462661 527.634176,33.462661 525.066323,33.462661 C522.498469,33.462661 519.721605,33.4328369 516.765587,33.3731886 C519.482735,34.5959775 521.990871,35.7889422 524.260136,36.9520829 C526.559261,38.0853994 528.559798,39.1590676 530.291606,40.1134394 L542.324687,46.7343938 L536.860534,56.606177 Z" id="Path"></path>
                </g>
            </g>
        </g>
    </g>
</svg>
