<?xml version="1.0" encoding="UTF-8" standalone="no"?>
<svg width="672px" height="672px" viewBox="0 0 672 672" version="1.1" xmlns="http://www.w3.org/2000/svg" xmlns:xlink="http://www.w3.org/1999/xlink">
    <g id="Hessen" stroke="none" stroke-width="1" fill="none" fill-rule="evenodd">
        <g id="232-Hoechst">
            <circle id="Background" fill="#FFFFFF" cx="336" cy="336" r="336"></circle>
            <path d="M489.351173,180 L182,487.351173 C221.406235,527.258745 276.138034,552 336.653488,552 C456.68998,552 554,454.69116 554,334.653488 C554,274.136854 529.259924,219.406235 489.351173,180 Z" id="Orange" fill="#F29138" fill-rule="nonzero"></path>
            <path d="M336.320553,118 C216.298398,118 119,215.297218 119,335.320553 C119,394.834481 142.931539,448.752983 181.685536,488 L489,180.685536 C449.751803,141.931539 395.834481,118 336.320553,118 Z" id="Blue" fill="#0E5497" fill-rule="nonzero"></path>
            <path d="M443.893262,561.956931 C448.201416,559.92452 453.200478,561.788447 455.194207,566.007614 C457.186758,570.22796 455.448876,575.270696 451.139544,577.301929 C446.83139,579.33434 441.832328,577.470413 439.838599,573.251245 C437.846048,569.030899 439.585109,563.988164 443.893262,561.956931 Z" id="Dot-2" fill="#135496" fill-rule="nonzero"></path>
            <path d="M229.66932,561.779021 C233.972757,563.818501 235.703565,568.863594 233.702761,573.079226 C231.703136,577.296038 226.699358,579.151717 222.395921,577.112237 C218.090125,575.072757 216.359318,570.027664 218.360122,565.810853 C220.360925,561.595221 225.363524,559.740719 229.66932,561.779021 Z" id="Dot" fill="#135496" fill-rule="nonzero"></path>
            <g id="1899" transform="translate(244.160704, 567.889215)" fill="#135496" fill-rule="nonzero">
                <path d="M157.798213,34.5509874 C163.296001,33.2160763 161.770344,25.7309127 160.811798,21.7909808 C159.832029,17.7603268 157.934979,10.752338 152.434832,12.0884273 C146.842722,13.4445462 148.646628,20.8637301 149.603996,24.803662 C150.561363,28.7412374 152.296887,35.8858986 157.798213,34.5509874 Z M157.62018,54.1882017 C158.022227,55.8365165 158.604665,57.4412375 159.628058,58.4556757 C160.650272,59.4665793 162.042699,60.0026645 163.968045,59.5337372 C170.383115,57.9773227 168.382311,52.934587 164.686071,37.7286179 C162.46361,41.371641 159.201251,43.521873 155.077025,44.5233509 C145.268725,46.9033336 139.373605,39.0222917 137.304418,30.5050167 C134.253103,17.9559096 135.632562,6.85364344 150.02137,3.3602529 C168.995403,-1.24536722 172.578457,13.8910875 176.943204,31.8434625 C180.771495,47.5984771 184.57031,64.4280186 165.87099,68.967659 C154.78109,71.658689 147.451098,69.4613287 144.787683,57.303387 L157.62018,54.1882017 Z" id="Shape"></path>
                <path d="M110.090186,41.726282 C115.736532,41.3739974 115.54553,33.7368448 115.294398,29.6908741 C115.036191,25.5518249 114.395981,18.3199763 108.747278,18.6710826 C103.004252,19.02808 103.479398,26.6487377 103.73053,30.6935302 C103.984021,34.7395009 104.441482,42.0773884 110.090186,41.726282 Z M106.471761,61.030063 C106.577873,62.7219716 106.87145,64.4032762 107.700304,65.5803073 C108.529158,66.7561602 109.806041,67.5255308 111.783264,67.4041753 C118.374008,66.9929802 117.285769,61.6780781 116.313074,46.060914 C113.488133,49.2597522 109.898005,50.8043846 105.662951,51.0671253 C95.5893698,51.6939326 91.1656718,42.9033131 90.6209627,34.1539309 C89.8180474,21.2654995 93.1216726,10.5756066 107.901917,9.65660334 C127.388826,8.44540419 128.263662,23.9742026 129.410852,42.413178 C130.418917,58.5947044 131.210043,75.8283717 112.004921,77.0230759 C100.613191,77.7311797 93.7831051,74.2837393 93.2914521,61.8489185 L106.471761,61.030063 Z" id="Shape"></path>
                <path d="M58.440682,26.1055832 C58.0681104,29.4776182 57.9313437,34.9645389 62.617964,35.4841292 C67.3057634,36.0048977 68.3798542,30.6228377 68.7547839,27.2508027 C69.1096701,24.0649248 69.1391457,18.6628352 64.5456682,18.1526705 C59.9521908,17.6436841 58.7955682,22.9208835 58.440682,26.1055832 Z M54.4826985,56.5846794 C54.066503,60.3313849 54.1502137,65.5579213 59.2129427,66.1199272 C64.2756717,66.681933 65.5042147,61.6014945 65.9215892,57.8536108 C66.3590071,53.91957 67.4000853,46.2600314 61.4943541,45.6037688 C55.588623,44.9475062 54.9212954,52.6494603 54.4826985,56.5846794 Z M41.1715177,55.9614067 C42.0663969,47.9024551 44.0235767,41.3869577 52.7966942,39.3250915 L52.8167376,39.1389344 C45.6187961,36.4431916 44.5352731,30.8207768 45.3051758,23.8881934 C46.6292197,11.9918142 53.5135408,7.2542346 65.6091479,8.59739319 C77.7012179,9.93937357 83.3782184,16.0719529 82.0553535,27.9683321 C81.2854508,34.9020938 78.9946072,40.1474816 71.3804703,41.1996225 L71.3592479,41.3869577 C79.4626797,45.3221768 79.9413635,52.1074841 79.0453052,60.1640792 C77.6811745,72.4363072 70.5256779,77.0478183 58.1506421,75.6740263 C45.7756063,74.3014125 39.8062079,68.2324564 41.1715177,55.9614067 Z" id="Shape"></path>
                <path d="M5.07098217,6.16203459 C10.3435774,4.96497395 15.6574386,3.28838213 20.1683843,0 L32.292288,3.57350878 L13.66253,66.681933 L0,62.6536354 L14.3333946,14.1031652 C10.274015,15.8551624 5.87153946,17.1111335 1.57399702,18.0077508 L5.07098217,6.16203459 Z" id="Path"></path>
            </g>
            <g id="Hockey-Club" transform="translate(470.293967, 78.260780)" fill="#135496" fill-rule="nonzero">
                <path d="M49.3114993,472.474886 L43.0025419,477.548255 C40.941608,479.205995 39.36879,483.131789 43.5095222,488.272316 C46.643368,492.162763 51.1979377,493.218438 54.3824814,490.655833 L60.1927117,485.984233 L49.3114993,472.474886 Z M30.6251481,449.273588 L25.3784913,453.492756 C23.3788667,455.099833 18.9410204,458.789985 24.9139559,466.205634 C28.6974439,470.904333 32.5045123,472.563251 37.2512629,468.744675 L42.7478727,464.325212 L30.6251481,449.273588 Z M33.4937135,433.538603 L76.1885301,486.549774 L59.4475685,500.010815 C52.2649544,505.788753 44.3796419,508.136924 35.2728606,496.82965 C30.3645838,490.735951 29.3753827,484.271117 33.5514856,478.977423 L33.4347623,478.830147 C25.8642492,483.10469 20.0351546,479.443994 14.1813005,472.174442 C3.35903934,458.739322 12.8171698,450.165493 16.8152401,446.95016 L33.4937135,433.538603 Z" id="Shape"></path>
                <path d="M94.0790401,468.923763 L56.7652889,438.280896 C48.8941248,431.818418 43.6910919,421.218069 53.0584375,409.829498 C61.5108605,399.554334 71.8520799,399.749917 81.7629555,407.888987 L119.076707,438.531854 L111.38947,447.87741 L74.8043559,417.834252 C68.318545,412.507567 63.8323587,412.765595 61.0321767,416.169442 C57.6719584,420.254293 59.3508885,424.745627 65.1823412,429.532692 L101.767456,459.577029 L94.0790401,468.923763 Z" id="Path"></path>
                <polygon id="Path" points="84.6987253 363.400982 144.201708 396.500416 138.31602 407.072488 88.7026907 379.474114 79.8906654 395.29393 70.0010122 389.794049"></polygon>
                <path d="M133.56927,330.907148 C150.581407,336.826472 166.792987,342.468916 160.230539,361.310839 C156.171159,372.963329 146.966519,375.019304 133.319316,369.762134 L137.219528,358.563255 C145.76981,361.538234 149.424784,361.368571 150.610882,357.962368 C152.851028,351.530524 146.015047,348.218577 129.538187,342.484233 C113.058968,336.751066 105.644086,335.10393 103.403941,341.536953 C101.558768,346.833003 109.653947,349.39443 114.677768,351.312555 L110.751618,362.588018 C93.5602695,356.606249 90.0668215,348.857167 93.7831051,338.188482 C100.346732,319.347737 116.735165,325.049092 133.56927,330.907148 Z" id="Path"></path>
                <polygon id="Path" points="133.120061 315.401914 123.652499 313.686441 127.156558 294.372057 136.622942 296.086351"></polygon>
                <polygon id="Path" points="132.59068 261.637868 177.706033 248.373588 177.150712 261.58367 148.046505 269.022884 176.400853 279.435897 175.882082 291.763501 132.083699 273.726295 108.524442 272.736599 109.032601 260.64935"></polygon>
                <polygon id="Path" points="104.654885 208.718598 172.119817 199.437843 176.42915 230.711052 166.057276 232.137864 163.398576 212.849399 146.767264 215.137482 149.217276 232.917838 138.844223 234.34465 136.394211 216.565471 116.677393 219.276531 119.42334 239.20005 109.051466 240.626862"></polygon>
                <polygon id="Path" points="164.177911 167.788785 168.345761 180.41801 134.253103 174.60826 103.671579 201.718856 99.4058705 188.784475 128.207068 164.70659 128.15637 164.554601 95.0128271 175.469531 91.223444 163.980813 155.896447 142.681145 159.687009 154.169864 132.007063 163.285669 132.057761 163.437658"></polygon>
                <path d="M99.5190568,107.036779 C115.253132,98.2697241 130.245601,89.9173984 139.966654,107.339579 C145.978497,118.114303 141.39681,126.354699 128.394533,133.048106 L122.616137,122.692824 C130.523851,118.286322 132.827663,115.445659 131.069739,112.296306 C127.751965,106.348705 120.732056,109.250635 105.491992,117.741989 C90.2519282,126.233343 84.0915279,130.675192 87.4093014,136.622793 C90.1411,141.519431 97.4392585,137.178908 102.213127,134.70349 L108.029252,145.128286 C92.1301134,153.987241 84.0172494,151.444666 78.5123864,141.579519 C68.7913336,124.15616 83.950045,115.711934 99.5190568,107.036779 Z" id="Path"></path>
                <path d="M82.0093715,83.6092659 C95.2898977,72.294922 100.458739,66.7314178 96.038578,61.5496533 C91.617238,56.3678889 85.3035646,60.5894127 72.0230384,71.9049348 C58.7436912,83.2192786 53.573671,88.7827828 57.9938319,93.9645473 C62.4151719,99.1463118 68.7288453,94.9247879 82.0093715,83.6092659 Z M64.0658055,62.5770518 C77.7754964,50.8962849 90.8402612,39.7645635 103.79184,54.944612 C116.742239,70.1234823 103.677474,81.2552037 89.9666044,92.9371488 C76.3995754,104.49656 63.1921487,115.749637 50.2417492,100.570767 C37.2913497,85.3907183 50.4987764,74.1364632 64.0658055,62.5770518 Z" id="Shape"></path>
                <polygon id="Path" points="45.5527708 37.4340656 62.2583617 15.9081818 71.8226043 23.3214747 30.0886922 77.0984813 20.5244496 69.6840103 39.1365223 45.7015602 28.1786733 37.2066712 9.56542161 61.1902995 0 53.7770066 41.7339121 0 51.2993337 7.41447106 34.5925638 28.9391766"></polygon>
            </g>
            <g id="und" transform="translate(395.569468, 53.577295)" fill="#135496" fill-rule="nonzero">
                <polygon id="Path" points="51.3255891 51.7940804 46.160285 63.1166717 37.4060319 59.1296114 42.571336 47.8081984"></polygon>
                <path d="M18.1242736,46.7218894 L17.9710005,46.674761 C14.5777694,50.0703602 11.2222671,50.6170493 7.16052951,49.3705039 C2.02470101,47.7928816 -1.38857343,42.8008089 0.550921028,36.4938546 L11.7716923,0 L22.5774472,3.31901557 L12.8811539,34.8561436 C11.6349255,38.9103618 11.3330954,42.0726755 14.7817406,43.1307075 C18.2303857,44.1899176 19.7572218,41.4046309 21.0046292,37.3504127 L30.7021015,5.81328464 L41.5078563,9.131122 L30.287085,45.6249766 C29.3733414,48.5975986 28.5845744,51.7092493 27.9007405,54.7525639 L16.7094448,51.3169056 L18.1242736,46.7218894 Z" id="Path"></path>
            </g>
            <g id="Tennis" transform="translate(86.939034, 24.000000)" fill="#135496" fill-rule="nonzero">
                <path d="M256.20545,70.2125555 C241.221234,69.7412717 238.740567,59.2905553 239.750991,47.5355612 L251.850135,47.9149446 C251.646164,54.4151253 251.715726,59.8867292 258.366601,60.0964505 C262.453098,60.2248753 264.554119,57.1792043 264.699138,52.5629803 C265.082321,40.3154947 240.746087,38.7967829 241.380402,18.5433652 C241.714066,7.89824431 246.306364,-0.444655675 261.050059,0.0183805761 C272.829688,0.388338293 278.484287,6.78954937 277.238059,20.9893277 L265.45843,20.61937 C265.617598,15.5318623 265.058741,10.3277119 260.170507,10.1745447 C256.244357,10.0520109 253.841507,12.5215376 253.694129,17.2320183 C253.289723,30.1381229 277.68373,29.772878 277.014044,51.1573766 C276.462261,68.7739619 265.419522,70.5012167 256.20545,70.2125555 Z" id="Path"></path>
                <polygon id="Path" points="216.339112 71.2505578 208.662486 3.63783952 220.692068 2.27229495 228.367514 69.8850133"></polygon>
                <polygon id="Path" points="162.819676 84.126029 144.193455 18.6670772 159.922814 14.195773 187.62634 55.31999 187.779614 55.2763963 174.881091 9.94479385 185.75405 6.85435088 204.380271 72.3133026 189.035274 76.6750334 160.223465 33.1213488 160.070192 33.1649425 173.691456 81.035586"></polygon>
                <polygon id="Path" points="114.644756 109.137056 81.8726048 49.4807848 96.2083574 41.6138814 132.396141 75.5227447 132.536445 75.4461611 109.841412 34.1322524 119.74875 28.6948165 152.520901 88.3522657 138.537677 96.0259428 100.728735 59.9963027 100.587253 60.0728863 124.553273 103.69962"></polygon>
                <polygon id="Path" points="82.6460445 135.427618 38.8063955 83.3507672 62.9775663 63.0290134 69.7180465 71.0349455 54.8104672 83.568736 65.617401 96.4076826 79.3589256 84.8541623 86.0994057 92.8600944 72.3578812 104.413615 85.1691558 119.632544 100.567209 106.68638 107.307689 114.692313"></polygon>
                <polygon id="Path" points="25.16273 96.426534 33.817945 103.716115 25.1367914 114.006595 68.5555288 150.575855 60.7539271 159.824798 17.3351897 123.254359 8.6552151 133.544839 0 126.255259"></polygon>
            </g>
            <g id="Höchster" transform="translate(26.000000, 192.953687)" fill="#135496" fill-rule="nonzero">
                <path d="M53.6844992,29.0674773 L55.9446882,24.1979384 C57.9678934,19.8362076 53.4074286,16.2226397 49.4718465,14.3987717 C43.5684734,11.6641479 40.3650653,12.7410312 38.7462653,16.2297089 L36.4860763,21.1004261 L53.6844992,29.0674773 Z M88.764,45.3208745 L83.6717954,56.295894 L21.8944755,27.674834 L31.306624,7.39549567 C34.7800286,-0.0908461625 42.6547298,-2.27171156 53.178698,2.60371848 C61.0498621,6.25145445 65.7400195,11.602881 63.8028831,19.360211 L63.9738416,19.4403292 C65.4299362,17.1993752 69.4197534,10.3940383 80.5426657,15.5475257 C84.4782478,17.3702155 96.2166106,22.5437325 99.2549554,22.7157511 L94.2629678,33.4728019 C89.8239425,33.1817842 85.765742,30.9490776 81.7440911,29.0863287 C74.3858024,25.676591 68.4093298,22.2020518 64.4973282,30.6333175 L63.1815375,33.468089 L88.764,45.3208745 Z" id="Shape"></path>
                <polygon id="Path" points="72.5712845 96.0934474 6.62493579 79.1154516 14.5078902 48.5503462 24.6463174 51.161258 19.7852015 70.0114284 36.0427633 74.197606 40.5230545 56.8201972 50.6626608 59.431109 46.1811906 76.8073396 65.4535167 81.7687789 70.4749799 62.2976922 80.6134071 64.908604"></polygon>
                <polygon id="Path" points="3.11851845 97.7311584 14.400599 98.6348449 13.3253291 112.051114 69.9243757 116.586042 68.957576 128.645014 12.3585294 124.110086 11.2820805 137.526355 0 136.621491"></polygon>
                <path d="M71.119906,167.681444 C72.593686,182.590504 62.5448645,186.399655 50.7499085,186.919245 L49.5602733,174.879124 C56.0366521,174.240535 61.4566254,173.464095 60.8022671,166.847272 C60.4002199,162.780093 57.1060269,161.092898 52.5078333,161.546508 C40.3061141,162.74946 41.9508525,187.062987 21.771857,189.052982 C11.1665362,190.099232 2.29320166,186.627049 0.843002151,171.957165 C-0.314799405,160.235161 5.30442892,153.804495 19.5552919,153.203608 L20.7142724,164.924434 C15.6456483,165.423995 10.5546227,166.651689 11.0356645,171.515337 C11.4212054,175.421101 14.1836586,177.484145 18.8773531,177.019931 C31.7346097,175.752178 28.212865,151.624808 49.5190075,149.522882 C67.0699586,147.792093 70.2144156,158.511441 71.119906,167.681444 Z" id="Path"></path>
                <polygon id="Path" points="38.1532163 218.464621 12.0885329 226.435207 8.54674489 214.867548 73.6607027 194.955811 77.2036698 206.522291 48.1631299 215.403633 52.2213305 228.656131 81.2618703 219.775968 84.8048374 231.343626 19.6897006 251.254185 16.1479125 239.687705 42.2114168 231.717119"></polygon>
                <path d="M76.232154,289.078238 C60.3872506,297.644998 45.2898485,305.809988 35.7880941,288.260561 C29.9118386,277.409253 34.5984589,269.22659 47.6844462,262.696954 L53.3319711,273.127641 C45.367664,277.432818 43.0308385,280.246381 44.7474974,283.416942 C47.9909924,289.406959 55.047451,286.593395 70.3936272,278.295267 C85.7409825,269.997139 91.9567969,265.63423 88.7133019,259.643035 C86.0428126,254.711051 78.691598,258.958496 73.8858963,261.375003 L68.2006426,250.873624 C84.2106093,242.216142 92.2928188,244.8624 97.6727052,254.799417 C107.173281,272.347666 91.909636,280.601022 76.232154,289.078238 Z" id="Path"></path>
                <path d="M93.434114,312.698978 C80.0144629,323.844838 74.7748803,329.342362 79.130195,334.579503 C83.4855096,339.817821 89.8522391,335.677594 103.27189,324.531734 C116.691541,313.387052 121.929945,307.889528 117.575809,302.650031 C113.220495,297.411712 106.853765,301.554296 93.434114,312.698978 Z M111.111221,333.960943 C97.2565097,345.467335 84.0537991,356.43175 71.2967596,341.085574 C58.538541,325.740577 71.7400726,314.776161 85.5947835,303.269769 C99.3044744,291.883554 112.651026,280.797783 125.409245,296.143959 C138.167463,311.488957 124.820912,322.574728 111.111221,333.960943 Z M59.8059918,353.962224 L67.6406062,347.456152 L73.3282179,354.296835 L65.4936035,360.804085 L59.8059918,353.962224 Z M50.7381183,343.054362 L58.5715537,336.54829 L64.2591654,343.388974 L56.424551,349.895045 L50.7381183,343.054362 Z" id="Shape"></path>
                <polygon id="Path" points="129.330678 359.367848 112.355091 380.680476 102.882812 373.147006 145.292305 319.90255 154.764584 327.434842 135.850681 351.18165 146.703597 359.812033 165.6175 336.066403 175.089778 343.599873 132.681464 396.844329 123.208007 389.310859 140.183594 367.998231"></polygon>
            </g>
        </g>
    </g>
</svg>