<?xml version="1.0" encoding="utf-8"?>
<svg width="414px" height="473px" viewBox="0 0 414 473" version="1.1" xmlns="http://www.w3.org/2000/svg" xmlns:xlink="http://www.w3.org/1999/xlink">
    <g id="Hessen" stroke="none" stroke-width="1" fill="none" fill-rule="evenodd">
        <g id="282-HA" fill-rule="nonzero">
            <path d="M384.925,421.185 L289.385,472.765 L275.745,446.385 C262.925,448.535 249.705,450.105 236.265,450.105 C99.895,450.105 -0.265,352.375 -0.265,213.575 C-0.265,119.335 60.565,37.385 134.005,0.235 L173.605,73.795 L215.455,51.775 L264.275,140.925 L305.025,117.845 L414.265,317.525 C376.235,341.465 360.735,372.215 384.925,421.185 Z" id="Background" fill="#FFFFFF"></path>
            <path d="M384.925,421.185 L289.385,472.765 L275.745,446.385 C262.925,448.535 249.705,450.105 236.265,450.105 C99.895,450.105 -0.265,352.375 -0.265,213.575 C-0.265,119.335 60.565,37.385 134.005,0.235 L173.605,73.795 L215.455,51.775 L264.275,140.925 L305.025,117.845 L414.265,317.525 C376.235,341.465 360.735,372.215 384.925,421.185 Z M330.265,416.695 C327.235,416.295 322.665,415.275 319.395,413.975 C305.975,408.655 300.675,394.415 310.295,370.165 C320.525,344.365 334.905,337.725 347.975,342.905 C352.445,344.675 354.965,346.865 357.065,349.095 L370.055,328.375 C368.365,326.115 363.375,322.145 354.945,318.795 C330.695,309.175 298.595,317.345 281.605,360.175 C269.665,390.275 272.205,422.535 304.885,435.485 C312.975,438.695 319.985,440.075 323.625,439.935 L330.265,416.695 Z M46.515,171.425 L46.515,268.045 L72.845,268.045 L72.845,229.225 L103.145,229.225 L103.145,268.045 L129.475,268.045 L129.475,171.425 L103.145,171.425 L103.145,208.365 L72.845,208.365 L72.845,171.425 L46.515,171.425 Z M100.815,70.435 L75.195,70.435 L75.195,167.085 L100.815,167.085 L100.815,70.435 Z M210.365,222.775 L236.565,208.125 L194.855,132.725 L218.465,119.655 L206.025,97.785 L131.275,139.395 L143.715,161.265 L168.665,147.375 L210.365,222.775 Z M329.325,270.075 L248.885,313.915 L220.925,262.605 L300.565,219.195 L288.875,197.745 L101.815,299.715 L113.505,321.155 L201.645,273.115 L229.605,324.425 L142.255,372.035 L153.945,393.485 L341.005,291.525 L329.325,270.075 Z" id="Shape" fill="#005F36"></path>
        </g>
    </g>
</svg>