<?xml version="1.0" encoding="UTF-8"?>
<!DOCTYPE svg PUBLIC "-//W3C//DTD SVG 1.1//EN" "http://www.w3.org/Graphics/SVG/1.1/DTD/svg11.dtd">
<!-- Creator: CorelDRAW 2021.5 -->
<svg xmlns="http://www.w3.org/2000/svg" xml:space="preserve" width="297mm" height="210mm" version="1.1" style="shape-rendering:geometricPrecision; text-rendering:geometricPrecision; image-rendering:optimizeQuality; fill-rule:evenodd; clip-rule:evenodd"
viewBox="0 0 29700 21000"
 xmlns:xlink="http://www.w3.org/1999/xlink"
 xmlns:xodm="http://www.corel.com/coreldraw/odm/2003">
 <defs>
  <style type="text/css">
   <![CDATA[
    .fil2 {fill:#025C29}
    .fil0 {fill:gray}
    .fil1 {fill:white}
   ]]>
  </style>
 </defs>
 <g id="Ebene_x0020_1">
  <metadata id="CorelCorpID_0Corel-Layer"/>
  <g id="_2214083663792">
   <path class="fil0" d="M21777.39 9153.87c0,-1907.68 0,-3815.41 0,-5723.14 0,-194.74 -21.19,-548.15 1.15,-724.05 12.21,-96.08 86.33,-157.05 136.5,-233.47 170.96,-260.31 333.2,-402.3 383.28,-674.74 29.01,-157.86 -51.53,-423.75 -134.97,-544.2 -34,-49.1 -127.99,-173.9 -159.26,-197.94 -64.29,-49.53 -135.18,-104.58 -206.06,-153.52 -279.55,-192.96 -719.85,-327.54 -1041.22,-97.82 -145.47,103.99 -500.97,663.6 -612.36,809.97 -199.26,261.8 -105.02,225.04 -499.02,225.04l-9986.83 0c-26.13,-105.74 -707.3,-996.75 -732.06,-1019.82 -88.08,-81.95 -323.67,-148.02 -448.64,-147.98 -184.44,0.08 -453.52,113.86 -577.09,199.43 -37.14,25.74 -77.18,55.61 -113.82,83.39 -35.74,27.15 -82.75,57.02 -111.64,84.59 -191.94,183.21 -379.92,525.78 -302.82,816.26 1.95,7.44 10.25,31.91 11.7,36.89 50.46,172.7 174.28,309.46 273.46,459.1 195.72,295.33 213.3,182.83 213.25,570.54 -0.29,2077.16 0,4154.31 0,6231.47 -90.33,0 -104.67,-17.19 -179.17,-17.15l-478.68 38.3c-536.2,44.08 -882.55,6.72 -1377.86,10.25 -72.42,0.47 -488.59,-36.08 -673.63,-68.93 224.44,-91.27 535.39,-626.66 577.68,-853.28 25.58,-137.17 -34.08,-255.04 -94.67,-327.37 -157.94,-188.49 -453.57,-109.26 -700.31,-81.44 -543.69,61.23 -1046.15,136.37 -1584.35,222.28 -210.71,33.65 -444.3,120.58 -502.76,309.67 -16.09,52.04 -30.55,138.11 -64.08,256.7 -81.06,286.35 -276.7,1124.1 -306.65,1234.09l-272.53 1088.02c-29.78,125.26 -75.1,218.79 -44.29,340.13 68.12,268.19 338.09,343.55 561.77,440.39l492.8 194.53c37.75,13.62 40.04,15.96 71.1,26.76 10.6,3.71 31.36,9.83 49.66,15.92 5.06,1.7 31.78,11.19 36.76,12.85 260.95,88.63 525.44,158.53 795.96,217.98 35.79,7.82 70.42,13.99 95.57,21.31 189.47,55.27 377.07,67.74 557.31,114.71 148.66,38.72 342.13,55.02 493.95,76.98l1021.34 89.26c0,129.78 27.57,222.92 56.68,347.16 38.46,164.11 83.52,438.89 172.11,575.31 30.72,47.27 47.78,62.93 93.86,97.3 132.11,98.72 302.95,82.12 455.66,109.27 318.82,56.68 671.93,49.87 993.26,107.95 4.77,0.89 12.76,9.32 16.21,4.42 14.6,-20.76 140.63,402.56 155.82,447.23l223.55 611.77c69.82,175.18 328.48,662.32 341.88,766.01 -424.55,0 -655.34,44.08 -926.8,255.94 -302.36,235.93 -336.52,478.84 -419.49,752.98 -71.57,236.24 -40.98,532.29 -5.87,781.71 8.93,63.49 8.08,74.42 23.4,119.82 12.68,37.62 -4.64,-22.29 13.19,36.59 1.61,5.32 6.12,21.28 7.49,26.94 57.78,242.48 153.04,441.74 302.9,640.7l123.52 153.47c283.08,292.91 619.22,497.23 1006.28,608.11 42.21,12.09 69.7,25.19 111.57,32.94 332.18,61.69 654.36,14.34 975.52,-105.65 154.07,-57.53 263.08,-113.22 388.94,-197.39 66.46,-44.42 114.41,-80.67 173.6,-121.26 198.28,-136.07 234.48,-209.13 377.15,-356.82l78.93 -69.69c89.1,37.1 824.56,586.2 1077.04,721.59l677 373.96c139.43,84.42 319.12,163.68 470.08,232.57l1455.34 577.31c49.7,14.12 68.81,9.61 127.74,-8.34 12.25,-3.71 48.12,-12.98 66.67,-17.66 129.82,-32.64 265.16,-94.89 394.98,-143.6l629.17 -255.38c28.47,-12.38 35.66,-16.81 68.42,-30.3 33.83,-13.91 31.91,-11.87 57.57,-23.7l824.47 -404.3c416.85,-218.87 809.88,-469.14 1199.46,-733.63l212.57 -147.86c64.38,-47.14 139.9,-90.24 184.66,-157.04 64.64,16.89 74.04,22.72 111.18,71.99l212.49 227.51c33.79,34.38 36.34,37.31 76.76,68.42 39.57,30.51 40.89,36.46 81.44,65.18 314.99,223.17 602.11,368.01 1022.41,445.58 392.85,72.54 820.34,-57.91 1156.18,-256.19 122.88,-72.55 232.66,-159.77 337.71,-249l218.19 -221.85c164.33,-203.64 291.89,-405.79 354.39,-670.36l56.51 -236.14c66.72,-494.76 34.55,-1011.39 -294.1,-1398.42 -31.36,-36.89 -32.85,-46.8 -68.42,-78.33l-212.7 -160.28c-240.66,-146.07 -508.12,-150.12 -805.41,-150.12 13.66,-105.65 59.74,-146.24 103.91,-234.91 38.25,-76.84 70.92,-137.77 103.9,-207.21 100.71,-212.07 196.07,-439.62 269.8,-662.49l199.22 -588.03c55.01,-182.11 24.97,-123.13 214.02,-150.37 47.36,-6.8 110.88,-23.65 173.85,-26.33 131.27,-5.53 230.66,-15.79 342.65,-31.83 111.61,-16 225,-21.83 340.6,-36.76l328.82 -47.87c25.06,-4.51 53.02,-13.23 68.59,-22.34 0.26,-0.17 52.72,-38.97 55.15,-40.89l91.14 -100.2c47.1,-68.08 76.97,-186.75 97.69,-272.14 5.02,-20.77 15.74,-83.44 15.74,-83.49 8.47,-35.14 13.79,-46.71 20.04,-76.75 16.3,-78.38 22.04,-80.21 38.55,-143.22 73.1,-278.61 -21.7,-349.63 274.57,-358.01 435.57,-12.34 1068.02,-95.31 1496.57,-186.83l563.01 -126.25c30.47,-6.51 41.15,-8.51 79.23,-18.04 118.24,-29.48 239.93,-61.35 358.69,-99.26l173.89 -54.25c60.72,-23.02 107.86,-36.94 159.99,-54.34l107.77 -39.31c4.13,-1.45 8.56,-2.81 12.73,-4.22l525.09 -210.1c149.39,-70.93 318.31,-126.76 420.17,-260.79 62.76,-82.58 76.8,-217.8 51.53,-330.86l-92.59 -364.34c-18.04,-68.68 -25.91,-106.93 -44.63,-167.82 -38.76,-126.28 -61.74,-250.82 -91.95,-369.53 -25.44,-99.99 -54.42,-233.85 -85.73,-357.63l-140.42 -547.65c-14.34,-56.76 -24.04,-112.62 -39.95,-173.47 -6.42,-24.55 -19.06,-55.06 -27.15,-85.56 -37.18,-140.2 -62.42,-303.46 -113.22,-458.64 -39.78,-189.98 -142.24,-377.58 -327.12,-451.36 -135.43,-89.74 -1614.94,-266.06 -1840.37,-289.72 -233.72,-24.59 -527.77,-108.37 -686.31,105.74 -200.62,270.78 31.19,607.73 220.57,853.91 108.67,141.1 165.22,185.05 296.14,302.95 -160.15,25.87 -325.71,48.68 -498.12,59.78 -304.14,19.66 -718.56,31.24 -887.48,31.24 -305.16,0.08 -1049.13,-69.1 -1164.01,-65.91 -65.15,1.83 -78.51,16.72 -164.2,16.72z"/>
   <path class="fil1" d="M8036.86 18294.03c270.23,278.74 592.32,475.69 965.86,582.66 34.17,9.79 68.85,24.64 103.65,31.11 319.76,59.35 627.73,11.27 930.21,-101.74 136.71,-51.06 250.35,-107.43 371.41,-188.41 58.46,-39.06 114.84,-80.92 172.74,-120.66 165.44,-113.48 230.28,-207.22 364.14,-345.8l2.34 -2.43 121.35 -107.13 49.14 20.46c54.21,22.55 136.54,83.82 185.9,117.82 103.01,70.89 205.08,143.22 307.5,215 182.75,128.12 395.92,287.63 591.6,392.56l678.91 375.07c145.82,88.24 307.25,157.85 460.85,227.89l1449 574.79c31.15,8.13 42.13,1.36 75.95,-8.89 23.07,-7.02 47.28,-12.89 70.68,-18.81 131.05,-32.93 259.21,-93.22 384.81,-140.32l627.13 -254.57c22.51,-9.79 45.27,-20.77 69.01,-30.55 18.22,-7.49 36.43,-14 53.4,-21.83l822.52 -403.32c411.74,-216.24 804.73,-466.47 1189.75,-727.89l211.34 -147c50.81,-37.19 127.86,-82.08 163.43,-135.14l33.66 -50.29 58.55 15.31c79.09,20.68 106.24,35.79 154.83,99.44l208.75 223.55c23.87,24.26 39.31,38.34 67.22,59.87 26.98,20.72 50.94,43.49 78.72,63.14 319.07,226.07 599.9,359.54 988.67,431.32 371.11,68.51 778.77,-57.61 1097.46,-245.76 115.61,-68.25 220.83,-151.48 322.99,-238.15l212.58 -216.1c156.92,-194.96 276.22,-386.82 335.24,-633.47l55.48 -231.98c61.32,-458.55 37.96,-959.01 -275.16,-1327.7 -20.55,-24.17 -34.51,-46.5 -57.74,-67.69l-206.23 -155.44c-228.79,-137.13 -499.32,-135.6 -757.72,-135.6l-96.8 0 12.43 -95.99c15.53,-120.24 62.84,-163.05 112.12,-261.93 34.16,-68.72 70.29,-136.5 103.18,-205.81 100.67,-211.94 190.79,-431.06 266.1,-653.3l198.79 -586.66c69.69,-230.83 74.93,-178.71 282.9,-208.66 61.96,-8.9 118.63,-24.43 182.41,-27.11 112.8,-4.76 222.41,-15.02 334.14,-31.06 113.52,-16.25 228.1,-22.21 341.11,-36.8l326.74 -47.57c9.02,-1.62 26.55,-5.79 36.85,-10.55 14.29,-10.51 28.72,-21.07 42.88,-31.75l81.66 -89.82c39.01,-59.78 65.61,-171.3 82.12,-239.5 5.4,-22.3 9.57,-47.19 13.36,-70.3l0 -3.27 2.38 -9.79c5.96,-24.85 14.25,-49.31 19.44,-74.16 10.85,-52.17 26.3,-96.97 39.53,-147.48 71.1,-270.99 -14.72,-411.02 354.48,-421.49 474.8,-13.44 1016.45,-85.73 1480.79,-184.91l563 -126.25c26.13,-5.57 51.32,-11.1 76.85,-17.44 118.75,-29.66 237.08,-61.48 353.92,-97.95l171.51 -53.53c53.23,-20.04 106.89,-36.55 159.69,-54.16l107.18 -39.1c4.26,-1.49 8.21,-2.77 12.08,-4.05l520.34 -208.19c128.92,-60.93 298.26,-118.2 386.47,-234.23 50.42,-66.38 53.87,-181.81 36.51,-259.63l-92.29 -363.12c-13.96,-54.93 -26.85,-109.56 -43.53,-163.81 -37.87,-123.26 -61.36,-248.87 -93.06,-373.54 -30.21,-118.71 -55.27,-238.74 -85.69,-357.45l-140.41 -547.65c-14.72,-57.4 -24.89,-115.78 -39.87,-173.09 -7.45,-28.46 -19.4,-56.29 -27.06,-85.27 -40,-150.83 -63.14,-305.2 -111.86,-453.99 -34.55,-143.44 -86.67,-329.67 -292.87,-406.64 -95.86,-55.28 -728.09,-139.27 -862.21,-158.03 -311.71,-43.61 -627.3,-85.35 -940.42,-118.25 -183.85,-19.31 -479.61,-102.96 -609.04,71.74 -197.56,266.78 146.79,655.72 303.71,859.79 192.71,175.98 207.22,216.32 373.84,297.08 -363.97,56.12 -660.62,94.58 -1032.15,110.2 -193.3,8.13 -389.16,15.23 -582.67,15.27 -216.74,0.05 -442.85,-19.02 -659.38,-34.33 -153.56,-10.9 -351.2,-35.83 -502.25,-31.62 -56.08,1.58 -104.92,16.77 -166.58,16.77l-85.1 0 0 -85.1c0,-1907.73 0,-3815.41 0,-5723.14 0,-234.23 -27.27,-505.73 1.83,-734.77 15.53,-122.33 87.91,-175.22 149.78,-269.47 136.62,-208.06 324.43,-391.49 370.73,-643.42 23.87,-129.73 -47.02,-373.2 -121.23,-480.34 -30.67,-44.33 -103.77,-147.43 -141.47,-179.17 -66.42,-51.15 -132.97,-102.89 -202.24,-150.71 -260.57,-179.86 -661,-300.48 -943.39,-98.63 -85.19,60.89 -235.72,279.46 -298.95,368.99 -98.25,139 -192.62,288.56 -295.21,423.27 -231.85,304.7 -169.81,258.62 -566.71,258.62l-10053.46 0 -15.62 -63.36c-34.25,-95.14 -282.31,-416.85 -352.09,-511.23 -78.08,-105.56 -157.01,-210.57 -236.79,-314.82 -38.16,-49.86 -80.88,-110.33 -120.67,-155 -71.26,-66.17 -289.84,-123.44 -388.85,-123.39 -153.22,0.04 -403.87,97.86 -528.67,184.28 -37.61,26.08 -74.38,53.57 -110.84,81.22 -32.98,25.06 -74.89,50.25 -104.33,78.38 -177.05,169 -345.97,481.78 -279.38,732.73 3.28,11.66 7.75,23.23 11.19,34.98 46.51,159.17 172.2,299.37 262.7,435.96 201.34,303.84 227.47,214.44 227.42,617.55 -0.29,2077.16 0,4154.31 0,6231.47l0 85.1 -85.09 0c-63.32,0 -117.86,-16.6 -175.94,-17.15l-475.15 38.04c-469.14,37.53 -916.84,7.19 -1384.03,10.51 -35.4,0.25 -160.96,-8.77 -288.57,-20.68 -273.63,-25.53 -412.17,-53.1 -619.77,-86.33l224.41 -162.8c165.43,-106.88 467.53,-558.96 503.74,-753.11 17.36,-93.18 -16.56,-185.81 -76.25,-257.13 -129.39,-154.41 -448.81,-71.44 -625.56,-51.52 -529.09,59.61 -1054.79,137.81 -1580.48,221.76 -417.91,82.38 -394,204.75 -477.57,436.43 -22.85,55.14 -44.29,154.79 -58.8,210.57 -36.12,139.27 -70.46,279.08 -104.59,418.85 -54.29,222.62 -103.77,452.39 -163.6,672.11l-272.18 1086.66c-22.55,94.92 -69.53,200.4 -44.51,299.03 58.25,229.25 321.12,300.1 511.82,382.69l490.38 193.55c22.34,8.04 45.4,17.79 69.01,26 15.96,5.57 32.47,10.21 48.55,15.57 12.47,4.13 24.81,8.77 37.23,12.98 257.81,87.52 521.01,157.05 786.86,215.47 33.49,7.32 68.25,13.15 101.14,22.72 181.81,53.01 371.88,66.38 554.92,114.07 154.67,40.3 323.67,51.91 482.3,74.72l1096.65 95.86 0 77.99c0,116.33 28.25,215.94 54.42,327.76 35.32,150.71 78.63,422.08 160.62,548.37 24.47,37.66 37.41,48.55 73.44,75.48 108.89,81.31 288.95,70.42 419.62,93.65 327.71,58.25 664.91,48.55 993.52,107.99 3.62,0.64 7.02,1.49 10.25,2.47 30.81,4.25 60.47,25.83 77.06,58.84 8.34,16.51 15.23,34.43 21.74,51.7 18.34,48.68 34.64,98.54 50.68,148.03 26.46,81.78 50.16,165.9 77.4,246.06l222.78 609.73c53.27,133.56 126.37,271.97 189.34,403.36 42.17,87.95 145.56,289.97 157.44,382.09l12.42 95.99 -96.8 0c-349.07,0 -593.81,18.94 -874.46,237.94 -270.87,211.38 -298.66,407.61 -390.39,710.56 -68.08,224.83 -35.44,514.85 -3.07,745.16 5.45,38.68 7.37,67.66 19.79,104.5 0.85,2.47 1.66,5.02 2.6,7.49l-1.45 0.38c4.98,9.15 9.32,19.58 12.85,31.24 3.15,10.42 6.3,21.31 8.85,31.87 54.67,229.55 146.2,420.89 287.25,608.15l120.24 149.39z"/>
   <path class="fil2" d="M11255.51 17222.26c12.9,-35.83 117.82,-186.02 149.95,-221.59l742.31 570.79c262.06,182.92 533.9,344.39 828.98,515.74 280.4,162.83 589,305.84 894.8,450.04 110.33,52.03 877.11,382.9 952.33,381.49 87.48,-1.66 808.69,-322.78 940.46,-380.6 926.51,-406.3 1528.15,-801.15 2293.94,-1395.65 70,-54.29 120.67,-110.88 200.37,-152.96 36.04,74.5 99.86,141.77 139.69,216.32 -95.36,124.2 -621.86,500.93 -779.25,612.28 -479.35,339.15 -1240.47,754.39 -1794.07,993.73 -145.44,62.84 -890.77,386.3 -990.16,400.98 -78.93,11.62 -864.68,-328.95 -990.24,-386.6 -873.11,-400.77 -1664.81,-838 -2397.04,-1439.94 -50.89,-41.83 -152.88,-112.5 -192.07,-164.03zm4254.73 -1057.3c503.14,-212.87 538.46,873.11 203.94,993.56 -283.93,102.29 -382.69,-158.07 -403.2,-384.81 -22.33,-247.12 11.41,-529.27 199.26,-608.75zm-952.59 555.22c-213.97,140.29 -455.18,61.78 -446.38,-252.65 9.58,-341.84 326.78,-373.28 462.13,-272.36 199.38,148.54 300.65,1136.91 -406.22,946.67l4.17 -123.47c121.22,29.7 189.09,93.48 301.84,-17.45 65.32,-64.25 87.23,-171.9 84.46,-280.74zm549.78 -570.15l8 1004.58 -157.77 3.32 -4.51 -866.17 -117.99 2.47 -0.26 -101.57 272.53 -42.63zm-1189.88 3.4l7.91 1004.07 -157.05 -7.53 -2.55 -846.09c-3.96,-1.53 -9.62,-2.63 -12.34,-3.1 -2.81,-0.47 -8.98,-2.17 -12.42,-2.64 -3.45,-0.43 -8.68,-1.45 -12.51,-1.83l-83.31 3.87 3.02 -109.69 269.25 -37.06zm-4009.56 298.06c-26.51,49.23 -62.38,86.88 -96.46,135.17 -45.27,64.13 -149.52,220.83 -202.28,256.7 -43.23,29.36 -91.61,62.08 -160.66,72.21 -21.83,-321.59 20.72,-580.24 -183.39,-758.05 -390,-339.97 -1471.77,-341.72 -1408.79,901.18 33.31,657.81 300.14,1000.84 657.55,1260.52 706.65,513.52 1435.17,370.73 2063.96,-195.69 176.54,-159 289.8,-380.72 426.81,-543.6 70.42,41.65 146.45,109.56 205.56,158.32 715.03,589.86 1695.87,1145.42 2553.87,1512.92 127.65,54.63 980.92,414.25 1061.21,412.38 76.04,-1.74 930.12,-357.54 1058.71,-415.32 960.71,-432 1741.1,-864.94 2552.85,-1514.19 59.44,-47.57 153.17,-138.71 209.68,-167 180.66,204.95 231.85,363.19 482.42,599.3 298.82,281.5 874.76,548.5 1374.5,451.78 361.79,-70.03 691.68,-302.73 923.4,-551.01 261.97,-280.69 381.45,-624.7 379.96,-1123.67 -3.36,-1160.65 -1085.76,-1092.62 -1395.73,-793.46 -242.02,233.56 -171.73,349.37 -197.05,746.78 -24.34,10.64 -0.55,9.74 -39.87,7.79 -22.16,-1.07 -23.27,-1.66 -47.4,-12.89 -120.49,-56.17 -325.03,-357.67 -384.81,-456.56 30.38,-57.73 66.72,-95.52 103.35,-145.98l317.25 -453.49c408.26,-653.38 731.5,-1329.14 942.37,-2107.66l-454.59 34.59c-295.42,948.16 -673.04,1654.77 -1170.39,2305.77 -64.55,-68.42 -114.46,-140.37 -166.33,-223.59 230.36,-380.56 325.88,-442.72 590.88,-956.04 141.9,-274.99 375.58,-781.53 445.66,-1099.25 -202.88,-1.91 -1098.83,73.99 -1392.55,91.06 -464.72,27.02 -950.45,61.86 -1420.07,71.35 1.75,63.87 551.01,780.78 584.16,826.9 206.4,286.91 399.23,540.8 602.92,823.83l898.29 1233.5c146.5,207.59 342.48,431.87 646.74,417.36 438.05,-20.89 199.09,-559.01 298.57,-783.07 66.63,-150.29 327.58,-205.64 535.01,-162.03 430.68,90.63 401.88,667.94 342.95,1009.05 -38.98,225.89 -119.23,345.37 -229.17,491.06 -182.84,242.36 -607.01,502.16 -930.59,502.37 -295.25,0.17 -570.97,-123.3 -764.14,-258.91 -221.98,-155.9 -329.37,-274.27 -486.5,-513.69l-822.13 -1178.69c-412.69,-574.37 -819.54,-1193.59 -1232.35,-1768.59l-410.98 -601.56c-283.21,5.74 -561.14,17.66 -843.02,24.17 -146.2,3.36 -272.27,13.7 -394.73,24l-1391.95 -23.45c-279.93,-6.3 -558.62,-19.78 -836.93,-22.55l-1235.33 1765.95c-136.41,196.24 -270.31,394.01 -411.53,588.58l-821.24 1179.5c-274.69,401.88 -705.8,787.33 -1238.05,785.2l-16.33 -0.08c-360.05,-1.45 -678.45,-237.85 -847.2,-405.24 -246.91,-244.95 -351.28,-504.21 -351.28,-962.03 0,-853.41 754.22,-687.13 887.91,-509.74 142.67,189.22 -113.6,761.07 280.91,815.96 435.53,60.63 703.29,-431.23 924.29,-740.09 153.6,-214.66 301.63,-423.71 463.74,-634.79l933.35 -1280.47c66.25,-93.82 446.13,-592.62 454.3,-641.38 -935.86,-19.58 -1904.45,-98.85 -2837.33,-167.09 92.16,435.61 483.14,1218.3 729.03,1601.54l318.01 473.74c-45.19,83.18 -109.01,134.79 -145.13,221.08 -86.42,-47.48 -317.67,-405.32 -377.88,-506.03 -372.52,-624.19 -605.9,-1074.41 -825.03,-1814.54l-452.93 -36.09c550.54,1849.18 1304.93,2555.88 1371.95,2725.95zm5173.57 -4483.22l188.24 -2.47c-1.07,193.47 -9.19,390.94 -4.39,582.75 4.85,193.73 7.32,370.56 216.49,373.84 205.77,3.23 224.15,-171.3 225.6,-357.33 1.49,-198.32 -6.85,-399.02 -3.87,-596.07l160.11 -3.66c-1.45,234.32 8.59,502.3 -6.22,731.17 -14.72,226.95 -142.79,340.56 -375.92,344.47 -240.95,4.05 -374.6,-102.07 -390.94,-327.84 -15.99,-221.97 -10.85,-517.95 -9.1,-744.86zm3305.76 645.21l-70.38 326.27 -171.05 12.98 274.4 -1070.32 231.59 -18.26c27.36,141.14 134.59,375.84 189.31,523.48 40.84,110.21 177.81,428.85 186.44,519.91l-167.72 11.66c-44.25,-64.04 -102.16,-254.19 -117.27,-319.67l-355.32 13.95zm-8688.25 -261.72c-133.34,668.02 -1054.61,533.99 -892.67,-264.69 53.82,-265.59 250.7,-470.64 579.98,-394.35 279.55,64.72 377.11,336.23 312.69,659.04zm6406.34 -377.19c141.99,-32.93 480.89,-24.04 575.05,63.86 62.08,58.04 82.34,168.16 50.04,268.06 -31.74,98.33 -95.48,110.59 -172.41,160.8 314.78,51.14 263.04,343.11 171.05,443.36 -121.52,132.49 -408.47,126.49 -618.49,111.05l-5.24 -1047.13zm-1864.87 859.79l-8.6 137.98c-266.44,143.35 -756.65,40.42 -759.71,-472.93 -2.55,-419.24 332.73,-690.44 755.71,-517.65l-8.59 135.47c-330.57,-130.62 -551.31,-19.65 -562.2,348.95 -4.81,164.96 48.33,300.91 152.07,377.11 152.79,112.29 289.12,41.02 431.32,-8.93zm162.28 -864.22l184.62 -5.15 -1.49 933.36 389.58 1.02 -7.36 118.97 -557.91 5.91 -7.44 -1054.11zm-2583.62 353.67l371.46 7.57 -6.77 108.16 -378.77 -1.23 -8.68 366.47 407.11 13.11 -2.26 118.71 -584.66 -13.4 31.99 -1051.86 578.63 10.94 -3.66 111.69 -398.77 -5.87c-16.3,76.25 -25.02,269.97 -5.62,335.71zm7275.83 408.04c0.26,0.05 370.56,180.33 422.26,-70.71 54.59,-265.25 -398.9,-254.96 -458.51,-493.44 -44.08,-176.24 64.5,-328.01 265.21,-351.88 95.39,-11.32 211.89,-2.38 277.84,43.99l0.05 122.03c-81.95,-27.7 -161.39,-82.16 -273.68,-46.42 -73.95,23.53 -136.71,100.33 -93.05,204.83 44.16,105.91 318.39,191.81 394.72,277.81 132.24,148.75 53.83,381.45 -92.41,447.4 -81.1,36.55 -182.24,49.95 -281.42,40.76 -176.84,-16.38 -157.77,-26.34 -161.01,-174.37zm-1434.75 -347.28c69.27,115.22 422.34,502.29 445.74,557.56l-197.17 16.64 -417.66 -502.46c5.32,114.67 41.57,423.53 21.91,513.22l-171.47 5.15 -33.02 -805.88c-12.29,-209.93 -73.48,-288.86 161.99,-248.18l17.19 450.5c67.82,-33.18 260.61,-343.92 316.31,-419.1 53.01,-71.61 111.13,-50.64 208.15,-51.7 -52.04,117.48 -306.23,362.86 -351.97,484.25zm-5370.91 -485.74l176.07 -4.04c52.84,147.09 128.75,364.77 197.64,501.69l250.52 -480.08 145.95 1.79c-21.66,128.63 -322.86,516.89 -331.12,678.61 -6.04,119.06 -0.93,240.36 -5.57,359.29l-184.62 6.98c-5.02,-360.69 71.35,-302.66 -56.12,-596.46 -49.57,-114.24 -171.52,-361.53 -192.75,-467.78zm-1714.38 764.1c-15.19,146.19 -4.47,158.02 -164.54,172.36 -105.01,9.4 -218.06,-3.23 -305.59,-42.63 -399.45,-180.03 -310.26,-789.16 -47.01,-961.18 143,-93.4 403.02,-122.84 568.11,-20.9l-10.38 119.78c-63.74,13.74 -231.64,-130.33 -410.68,-17.87 -203.05,127.52 -269.59,558.16 -53.66,735.25 153.48,125.98 277.04,44.54 423.75,15.19zm9290.73 98.79l1.24 -92.5c0.08,0.05 373.87,178.92 419.53,-73.95 47.65,-263.89 -389.75,-249.63 -464.93,-482.84 -29.66,-91.91 -4.39,-194.37 37.69,-253.64 97.23,-136.84 312.44,-115.48 495.36,-81.78l4.08 136.93c-88.97,-35.83 -145.05,-75.91 -263.16,-46.94 -78.8,19.36 -137.95,90.63 -108.33,193.26 33.19,115.14 286.95,183.05 385.49,270.83 123.39,110.03 114.67,350.73 -12.12,438.97 -91.95,64 -494.13,133.05 -494.85,-8.34zm-8747.43 -475.52c95.02,199.98 352.65,524.29 384.14,608.19l-200.92 -6.93 -354.52 -544.46 -32.8 502.03 -89.74 13.02c-40.59,-1.06 -52.84,-2.89 -85.44,-14.29l71.61 -1043 175.86 6.04 -37.19 460.89c91.01,-66.55 159.98,-164.11 245.38,-250.53 123.6,-125.22 78.89,-202.53 334.14,-173.39 -81.23,141.52 -314.78,293.29 -410.52,442.43zm10022.58 -613.22l2.81 104.76c-87.35,39.06 -279.59,33.53 -387.2,43.74 -22.5,85.86 14.81,235.29 27.79,329.33l382.68 -30.26 4.81 112.76 -370.56 33.65c9.66,111.36 11.28,281.17 59.23,368.99l403.07 -38.51 2.64 121.65 -577.52 55.44 -132.37 -1006.49c-0.64,-68.47 75.18,-51.53 156.83,-58.51 134.59,-11.45 294.36,-37.78 427.79,-36.55zm168.75 -26.21c47.36,-21.32 122.92,-33.06 180.49,-23.57 29.83,185 82.72,804.22 141.1,917.52l373.49 -41.99 4.77 124.2 -551.14 58.38 -148.71 -1034.54zm-13235.7 347.97l414.21 43.1 49.53 -413.66 180.32 10.04 -131.65 1042.45 -173.89 -8.77 61.18 -511.18 -420.55 -42.38 -57.32 494 -175.3 -4.6 130.41 -1043.56 175.69 9.79 -52.63 424.77zm-1182.4 1239.02c1888.28,267.47 6149.48,470.51 7934.15,475.06 1842.97,4.68 4138.48,-131.47 6012.04,-285.16l1790.93 -175.18c33.1,-3.31 99.43,-7.36 119.56,-28.72 111.05,-191.04 218.91,-975.09 228.62,-1245.19 8.51,-235.09 -6.68,-466.59 -44.6,-694.87 -37.48,-225.64 -107.52,-394.56 -149.98,-588.88 -299.67,16.85 -640.83,77.19 -945.44,109.65 -980.07,104.59 -1927.42,187.39 -2910.81,250.27 -2898.65,185.52 -5285.44,185.77 -8184.13,1.75 -980.62,-62.29 -1938.23,-143.43 -2914.9,-249.59 -310.18,-33.7 -646.61,-90.04 -954.75,-110.72 -152.92,231.9 -216.96,954 -208.2,1282.94 10.09,377.28 106.25,933.23 227.51,1258.64zm16461.6 -3642.87c-596.96,-0.09 -841.75,-22.55 -1440.71,-70.93l1029.98 930.08c247.38,233.17 304.99,1361.52 321.63,1663.83 235.72,78.8 1740.89,-172.32 2086.69,-257.21 433.91,-106.62 929.27,-256.01 1338.2,-432.85 113.57,-49.1 311.42,-153.09 413.5,-179.38 -19.19,-161.73 -614.88,-2482.78 -633.52,-2510.77 -248.99,144.28 -281.37,203.34 -618.32,359.7 -740.9,343.76 -1664.9,497.57 -2497.45,497.53zm-20820.35 1649.84l840.08 346.68c623.9,221.13 1248.86,362.27 1911.77,449.28 229,30 887.32,112.71 1090.66,83.01 15.44,-269.55 86.03,-1465.51 313.75,-1672.77l1042.37 -922.37c-70.08,-4.34 -829.24,66.07 -1105.17,66.16 -758.31,0.3 -1357.1,-25.23 -2094.68,-227.94 -380.01,-104.41 -725.34,-241.16 -1057.73,-434.59 -51.31,-29.83 -106.46,-64.34 -152.45,-93.82 -55.78,-35.87 -103.86,-80.97 -155.69,-103.86l-632.91 2510.22zm23765.72 -2759.14c-70,-48.54 -1828.38,-283.5 -2022.44,-279.63 113.35,358.35 697.5,927.06 854.04,893.19 169.22,-36.72 1009.09,-465.19 1168.4,-613.56zm-22954.7 0c182.15,161.69 958.46,562.84 1162.52,611.69 153.48,36.72 740.48,-533.01 858.47,-894.98 -52.5,4 -1907.13,218.11 -2020.99,283.29zm5847.46 3327.85c-326.69,127.22 -317.75,973.26 133.61,831.15 298.6,-93.95 310.65,-1004.29 -133.61,-831.15zm12507.31 -1208.48c117.31,-7.11 777.33,-97.52 828.98,-135.09l-859.83 -781.54 30.85 916.63zm-14589.95 -131.48l834.17 135.86 34.29 -919.35 -758.81 682.99c-40.59,42.17 -74.59,60.42 -109.65,100.5zm8656.33 6342.78c12.81,-128.5 9.57,-379.71 -42.81,-486.46 -35.61,-72.51 -118.15,-100.72 -182.45,-46.3 -44.42,37.66 -62.42,134.63 -71.01,207.98 -76.84,656.58 253.04,759.33 296.27,324.78zm517.9 -3898.04c178.84,7.45 338.23,1.79 332.14,-201.51 -5.7,-189.47 -157.52,-176.79 -335.03,-177.94l2.89 379.45zm-1928.78 3354.69c-165.99,78.59 -128.25,484.38 119.01,388.9 181.51,-70.08 73.65,-480.13 -119.01,-388.9zm1925.34 -3843.02c159.09,2.59 299.75,-13.2 299.71,-188.96 -0.04,-184.37 -142.07,-177.65 -299.16,-169.01l-0.55 357.97zm2155.66 67.05l241.76 -11.66 -151.43 -399.11 -90.33 410.77zm-3707.55 -7942.49c15.96,-314.43 234.44,-582.83 480.33,-655.93 162.5,-48.34 333.16,-9.58 448.68,66.12 147.05,96.33 131.61,171.85 226.49,331.28 59.78,100.51 262.36,52.47 335.37,221.9 62.51,144.96 6.17,358.64 -56.29,466.5 -108.58,187.43 -296.18,278.83 -507.65,329.12 -95.31,22.68 -174.84,14.72 -230.11,60.68 240.62,61.01 485.32,296.73 506.17,585.34 39.61,547.74 -270.7,534.2 -491.15,580.16 -111.6,23.31 -5.19,3.95 -146.15,134.07 -49.4,45.53 -101.35,74.16 -174.58,89.52 -212.19,44.51 -300.31,-49.87 -398.98,-139.52 -189.17,-171.94 -257.08,-477.65 -262.87,-807.15 -65.35,54.93 -90.08,206.19 -338.69,403.49 -123.26,97.91 -336.56,200.54 -540.8,216.32 -49.78,-105.44 -140.24,-175.68 -198.57,-279.38 68.97,-41.44 196.45,-53.99 277.84,-86.84 243.59,-98.29 420.09,-279.71 555.22,-500.67 -189.76,-32.98 -285.41,11.74 -486.42,-66.68 -163.17,-63.69 -229.12,-113.52 -315.16,-242.35 -143.17,-214.41 -184.11,-575.39 150.03,-762.74 176.28,-98.88 62.29,-123.73 229.98,-326.86 77.14,-93.44 181.38,-189.21 369.62,-153.56 393.37,74.46 487.14,441.75 567.69,537.18zm-4744.46 -1625.92c-37.32,-82.55 -161.18,-218.53 -181.31,-273.51l10054.41 -0.59c-12.68,44.76 -155.18,234.74 -192.79,275.46l-9680.31 -1.36zm6209.16 5398.61c629.18,-891.82 1287.62,-1779.99 1922.03,-2669.99l767.37 -1069.13c261.59,-353.11 505.52,-711.63 769.11,-1067.72 104.37,-140.88 1464.92,-2065.24 1537.72,-2118.85 158.11,26.67 363.58,175.55 397.83,294.99l-1525.04 2218.16c-512.88,739.71 -1004.83,1473.81 -1528.27,2210.76 -762.39,1073.43 -1526.53,2234.84 -2290.45,3318.05 -131.1,185.9 -255.13,358.05 -381.96,552.5l-378.95 542.8c-50.88,-28.08 -429.23,-580.71 -440.85,-610.02l1151.46 -1601.55zm-7921.38 2202.68l397.45 38.76 1.66 -7397.74c77.61,65.96 273.46,348.82 277.97,428.18 13.41,236.18 -0.76,941.26 -0.76,1213.24l0 4821.26c0,250.23 -27.87,742.36 6.68,963.95 440.85,26.13 887.27,74.16 1329.74,105.73 1128.65,80.42 2261.01,128.8 3393.75,153.39 193.51,4.22 540.45,30.55 716.78,8.17 -34.3,-75.86 -131.69,-200.27 -189.13,-282.35 -724.61,-1034.84 -1450.58,-2130.43 -2176.77,-3153.05l-1581.92 -2288.03c-259.43,-380.9 -534.63,-757.67 -790.73,-1144.4 -73.95,-111.65 -1585.55,-2258.5 -1577.21,-2316.87 49.61,-114.72 246.49,-263.89 400.94,-276.74 105.31,111.9 2721.94,3767.33 2982.47,4132.57l3839.45 5330.15c74.93,32.12 2457.45,-68.63 2737.94,-83.65 581.6,-31.15 2154.72,-111.78 2649.44,-189.09 22.67,-196.19 4.08,-5286.96 4.08,-5748.24 0,-322.52 0.04,-645.04 0,-967.56 0,-218.62 -33.91,-251.81 75.52,-403.96 67.87,-94.42 125.99,-189.05 199.77,-278.61l2.73 7373.69 402.89 -39.65c37.44,-524.46 18.47,-1077.56 18.47,-1600.57l0 -6034.8c0,-452.6 -24.13,-268.91 361.75,-845.03 42.12,-62.88 138.88,-178.58 153.09,-240.14 29.32,-126.5 -7.53,-253.34 -62.84,-341.25 -110.33,-175.34 -487.96,-467.91 -783.93,-374.09 -118.71,37.66 -152.66,114.37 -211.17,198.37l-507.31 706.35c-56.33,80.42 -122.67,159.73 -171.68,234.96l-10676.39 0.51c-41.95,-42.38 -119.31,-161.99 -163.22,-223.64l-589.55 -820.51c-40.98,-59.23 -39.23,-60.64 -109.95,-86.46 -336.05,-122.71 -914.55,243.33 -883.1,659.25 7.78,103.22 90.03,187.6 142.32,261.21l328.44 475.1c57.27,90.72 30.42,632.11 30.42,772.56l0 6461.11c0,241.76 -12.55,565.6 21.91,797.92z"/>
  </g>
 </g>
</svg>
