<?xml version="1.0" encoding="utf-8"?>
<svg width="906px" height="536px" viewBox="0 0 906 536" version="1.1" xmlns="http://www.w3.org/2000/svg" xmlns:xlink="http://www.w3.org/1999/xlink">
    <g id="Hessen" stroke="none" stroke-width="1" fill="none" fill-rule="evenodd">
        <g id="335-MTV">
            <rect id="Background" fill="#FFFFFF" x="0" y="0" width="906" height="537"></rect>
            <path d="M493.16,303.3 L494.14,303.54 L495.12,303.76 L496.14,303.89 L497.16,304.02 L498.14,304.16 L499.07,304.2 L499.87,304.25 L500.49,304.2 L501.07,304.16 L501.65,304.11 L502.23,304.02 L502.76,303.89 L503.29,303.72 L503.82,303.58 L504.31,303.36 L504.8,303.14 L505.29,302.92 L505.73,302.66 L506.17,302.35 L506.61,302.04 L507.01,301.73 L507.36,301.38 L507.76,301.03 L508.12,300.63 L508.43,300.23 L508.74,299.79 L509.05,299.35 L509.32,298.86 L509.54,298.38 L509.8,297.89 L509.98,297.36 L510.16,296.83 L510.34,296.26 L510.47,295.73 L510.6,295.11 L510.69,294.54 L510.74,293.92 L510.78,293.26 L510.78,292.64 L510.78,291.89 L510.74,291.19 L510.69,290.48 L510.6,289.82 L510.51,289.15 L510.38,288.53 L510.24,287.91 L510.06,287.29 L509.88,286.72 L509.66,286.19 L509.44,285.66 L509.17,285.18 L508.95,284.69 L508.64,284.21 L508.33,283.77 L508.02,283.37 L507.71,282.97 L507.36,282.62 L507.01,282.27 L506.65,281.96 L506.25,281.65 L505.85,281.39 L505.41,281.17 L504.97,280.95 L504.52,280.73 L504.08,280.55 L503.59,280.41 L503.1,280.28 L502.57,280.19 L502.08,280.1 L501.5,280.06 L500.97,280.06 L500.39,280.06 L499.86,280.1 L499.37,280.14 L498.88,280.23 L498.39,280.32 L497.9,280.45 L497.46,280.63 L496.97,280.81 L496.53,281.03 L496.04,281.29 L495.55,281.6 L495.02,281.95 L494.49,282.3 L493.96,282.74 L493.38,283.23 L493.16,303.3 L493.16,303.3 Z M491.96,250.95 L493.16,250.95 L493.16,252.14 L493.16,273.24 L494,272.74 L494.71,272.39 L495.42,272.08 L496.13,271.82 L496.84,271.55 L497.55,271.33 L498.3,271.11 L499.05,270.98 L499.81,270.85 L500.57,270.72 L501.32,270.63 L502.12,270.63 L502.87,270.59 L503.89,270.63 L504.87,270.72 L505.8,270.81 L506.73,271.03 L507.67,271.25 L508.56,271.51 L509.45,271.82 L510.29,272.21 L511.13,272.61 L511.93,273.05 L512.68,273.58 L513.44,274.11 L514.15,274.68 L514.86,275.3 L515.53,275.96 L516.15,276.62 L516.73,277.37 L517.31,278.12 L517.84,278.91 L518.33,279.7 L518.82,280.54 L519.22,281.42 L519.62,282.35 L519.97,283.28 L520.28,284.25 L520.54,285.22 L520.76,286.23 L520.94,287.25 L521.12,288.26 L521.21,289.36 L521.3,290.42 L521.3,291.53 L521.3,292.81 L521.21,294.04 L521.08,295.27 L520.95,296.46 L520.73,297.61 L520.46,298.71 L520.15,299.81 L519.79,300.87 L519.39,301.88 L518.94,302.85 L518.45,303.82 L517.92,304.7 L517.3,305.58 L516.68,306.42 L516.01,307.21 L515.3,308 L514.54,308.71 L513.74,309.37 L512.94,309.99 L512.05,310.61 L511.12,311.14 L510.19,311.63 L509.21,312.11 L508.19,312.51 L507.13,312.86 L506.06,313.17 L504.95,313.43 L503.8,313.65 L502.6,313.83 L501.4,313.96 L500.16,314.01 L498.87,314.05 L497.85,314.01 L496.83,313.96 L495.81,313.92 L494.79,313.83 L493.77,313.7 L492.75,313.56 L491.73,313.39 L490.76,313.17 L489.78,312.99 L488.8,312.73 L487.87,312.47 L486.94,312.21 L486.05,311.9 L485.21,311.59 L484.36,311.28 L483.61,310.92 L482.9,310.61 L482.9,309.86 L482.9,252.14 L482.9,250.95 L484.1,250.95 L491.96,250.95 L491.96,250.95 Z" id="Shape" fill="#00569D" fill-rule="nonzero"></path>
            <polygon id="Path" fill="#D51130" fill-rule="nonzero" points="129.87 314.92 129.87 318.49 129.96 322.07 130.19 325.6 130.45 329.12 130.76 332.61 131.16 336.05 131.65 339.54 132.18 342.98 132.8 346.37 133.47 349.73 134.22 353.08 135.07 356.39 135.95 359.7 136.89 363.01 137.91 366.23 139.02 369.45 140.13 372.63 141.33 375.8 142.61 378.9 143.95 382.03 145.32 385.07 146.79 388.11 148.3 391.11 149.85 394.07 151.45 397.03 153.18 399.89 154.87 402.76 156.69 405.59 158.55 408.32 160.46 411.1 162.42 413.79 164.41 416.44 166.46 419.08 168.59 421.65 170.72 424.16 172.94 426.68 175.2 429.15 177.51 431.53 179.86 433.87 182.26 436.21 184.66 438.45 187.14 440.66 189.72 442.87 192.3 444.98 194.92 447.06 197.58 449.04 200.29 450.98 203 452.92 205.75 454.78 208.59 456.59 211.47 458.35 214.32 460.03 217.29 461.66 220.22 463.25 223.24 464.79 226.26 466.25 229.37 467.66 232.43 469.03 235.58 470.31 238.73 471.55 241.93 472.69 245.13 473.79 248.41 474.85 251.7 475.82 247.75 489.45 244.19 488.4 240.69 487.29 237.18 486.1 233.72 484.82 230.25 483.5 226.84 482.09 223.46 480.63 220.17 479.09 216.85 477.5 213.6 475.82 210.41 474.15 207.21 472.34 204.06 470.53 201 468.59 197.93 466.65 194.92 464.61 191.94 462.59 189.01 460.43 186.12 458.22 183.28 455.97 180.48 453.67 177.78 451.34 175.07 448.91 172.41 446.48 169.78 444.01 167.26 441.41 164.72 438.81 162.28 436.16 159.93 433.47 157.53 430.73 155.27 427.91 153.05 425.09 150.87 422.18 148.74 419.26 146.7 416.3 144.66 413.26 142.75 410.21 140.84 407.13 139.02 403.95 137.24 400.82 135.56 397.55 133.91 394.33 132.36 391.02 130.85 387.72 129.38 384.37 128.01 380.97 126.72 377.52 125.48 374.08 124.32 370.55 123.17 367.07 122.15 363.49 121.17 359.92 120.33 356.3 119.48 352.68 118.77 348.98 118.11 345.27 117.49 341.57 117 337.86 116.55 334.06 116.16 330.27 115.89 326.48 115.71 322.64 115.58 318.8 115.53 314.92 115.53 313.07 115.58 311.26 115.67 309.4 115.71 307.55 115.8 305.74 115.89 303.94 116.02 302.12 116.16 300.32 130.45 301.37 130.32 303.05 130.19 304.77 130.1 306.49 130.01 308.17 129.92 309.84 129.87 311.57 129.87 313.24"></polygon>
            <polygon id="Path" fill="#D51130" fill-rule="nonzero" points="542.32 102.97 541.83 101.6 540.59 98.03 539.34 94.5 538.01 91.01 536.68 87.53 535.26 84.04 533.84 80.65 532.33 77.21 530.82 73.76 529.31 70.41 527.71 67.01 526.11 63.66 525.54 62.6 512.79 68.91 513.24 69.88 514.79 73.06 516.3 76.28 517.81 79.54 519.23 82.81 520.61 86.07 521.98 89.38 523.31 92.69 524.64 96.04 525.89 99.4 527.13 102.75 528.29 106.15 528.73 107.52"></polygon>
            <polygon id="Path" fill="#D51130" fill-rule="nonzero" points="555.86 159.49 555.41 156.53 554.84 152.74 554.17 148.99 553.46 145.28 552.75 141.53 551.95 137.83 551.11 134.16 550.27 130.46 549.38 126.8 548.4 123.18 547.42 119.52 546.63 116.87 532.9 120.8 533.62 123.31 534.59 126.75 535.48 130.28 536.37 133.77 537.21 137.29 537.97 140.83 538.72 144.36 539.43 147.93 540.1 151.5 540.72 155.07 541.34 158.69 541.78 161.65"></polygon>
            <polygon id="Path" fill="#D51130" fill-rule="nonzero" points="559.14 217.5 559.23 214.24 559.37 210.31 559.37 206.43 559.32 202.55 559.23 198.67 559.1 194.78 558.97 190.9 558.74 187.02 558.48 183.18 558.21 179.34 557.85 175.5 557.68 173.96 543.47 175.46 543.6 176.83 543.92 180.49 544.23 184.19 544.49 187.86 544.67 191.56 544.85 195.27 544.98 198.97 545.02 202.72 545.02 206.43 545.02 210.23 544.98 213.97 544.89 217.24"></polygon>
            <polygon id="Path" fill="#D51130" fill-rule="nonzero" points="535.17 330.93 535.53 330.14 536.99 326.34 538.45 322.56 539.87 318.71 541.25 314.87 542.58 310.99 543.82 307.11 545.07 303.18 546.18 299.26 547.33 295.28 548.4 291.27 548.88 289.42 535.04 286.02 534.59 287.7 533.57 291.49 532.5 295.28 531.35 299.08 530.15 302.83 528.95 306.54 527.71 310.25 526.38 313.95 525.09 317.61 523.67 321.23 522.25 324.85 521.94 325.64"></polygon>
            <polygon id="Path" fill="#D51130" fill-rule="nonzero" points="508.53 382.64 510 380.31 512.13 376.86 514.17 373.46 516.17 369.98 518.16 366.49 520.07 363.01 521.98 359.43 523.8 355.86 525.62 352.25 527.4 348.63 529.09 344.96 529.4 344.26 516.39 338.48 516.12 339.05 514.44 342.54 512.79 346.02 511.06 349.47 509.28 352.86 507.47 356.26 505.6 359.66 503.74 362.96 501.83 366.28 499.87 369.58 497.88 372.85 496.41 375.19"></polygon>
            <polygon id="Path" fill="#D51130" fill-rule="nonzero" points="473.06 428.93 474.08 427.82 476.75 424.87 479.36 421.91 481.94 418.86 484.47 415.87 486.95 412.73 489.44 409.65 491.88 406.51 494.28 403.33 496.68 400.16 498.99 396.89 500.45 394.82 488.69 386.75 487.31 388.73 485.09 391.82 482.82 394.86 480.52 397.91 478.21 400.91 475.86 403.91 473.46 406.82 470.97 409.78 468.48 412.64 466.05 415.47 463.51 418.34 462.49 419.39"></polygon>
            <polygon id="Path" fill="#D51130" fill-rule="nonzero" points="429.99 468.28 430.44 467.97 433.55 465.54 436.65 463.07 439.72 460.6 442.74 458.04 445.76 455.48 448.73 452.88 451.66 450.19 454.59 447.54 457.48 444.81 460.32 442.07 462.98 439.47 452.81 429.46 450.33 431.97 447.58 434.57 444.82 437.18 442.07 439.73 439.23 442.25 436.34 444.76 433.5 447.23 430.57 449.66 427.64 452.04 424.71 454.43 421.69 456.72 421.25 457.03"></polygon>
            <polygon id="Path" fill="#D51130" fill-rule="nonzero" points="380.71 499.47 383.73 497.93 387.24 496.03 390.7 494.09 394.17 492.15 397.59 490.16 401 488.13 404.38 486.02 407.71 483.94 411.04 481.73 414.32 479.53 417.6 477.28 418.23 476.88 409.93 465.32 409.44 465.67 406.33 467.79 403.13 469.91 399.98 471.94 396.74 474.02 393.54 476 390.26 477.99 387.02 479.88 383.69 481.78 380.36 483.59 377.03 485.4 374.01 486.99"></polygon>
            <polygon id="Path" fill="#D51130" fill-rule="nonzero" points="326.55 521.62 328.5 521.05 332.32 519.81 336.14 518.53 339.91 517.21 343.68 515.84 347.42 514.43 351.19 512.97 354.87 511.47 358.56 509.93 362.2 508.34 365.84 506.71 367.53 505.96 361.44 493.07 359.94 493.78 356.43 495.33 352.92 496.87 349.41 498.33 345.86 499.78 342.27 501.19 338.71 502.56 335.12 503.84 331.48 505.07 327.84 506.31 324.2 507.5 322.24 508.12"></polygon>
            <polygon id="Path" fill="#D51130" fill-rule="nonzero" points="269.41 533.88 273.1 533.44 277.18 532.87 281.22 532.21 285.22 531.59 289.26 530.84 293.25 530.09 297.25 529.25 301.2 528.41 305.15 527.49 309.1 526.56 312.48 525.68 308.84 511.91 305.59 512.75 301.87 513.64 298.09 514.56 294.27 515.35 290.45 516.15 286.68 516.9 282.82 517.56 278.96 518.22 275.09 518.8 271.23 519.37 267.5 519.81"></polygon>
            <polygon id="Path" fill="#D51130" fill-rule="nonzero" points="210.94 535.91 215.07 536.09 219.29 536.22 223.51 536.31 227.72 536.4 231.85 536.4 236.02 536.31 240.2 536.18 244.37 536 248.5 535.82 252.63 535.56 254.76 535.39 253.6 521.18 251.61 521.36 247.66 521.62 243.71 521.84 239.75 522.02 235.76 522.1 231.76 522.15 227.72 522.15 223.73 522.15 219.69 522.06 215.65 521.93 211.52 521.71"></polygon>
            <polygon id="Path" fill="#D51130" fill-rule="nonzero" points="97.42 509.53 99.68 510.5 102.92 511.87 106.25 513.15 109.54 514.47 112.87 515.71 116.2 516.9 119.57 518.09 122.95 519.24 126.37 520.38 129.74 521.44 133.2 522.5 136.62 523.52 138.8 524.09 142.57 510.41 140.57 509.84 137.29 508.86 134 507.85 130.72 506.84 127.48 505.78 124.28 504.68 121.04 503.57 117.84 502.43 114.64 501.19 111.49 500 108.39 498.72 105.23 497.44 102.97 496.47"></polygon>
            <polygon id="Path" fill="#D51130" fill-rule="nonzero" points="45.92 481.87 47.2 482.7 50.09 484.56 53.06 486.41 56 488.22 58.97 490.03 62.03 491.8 65.05 493.52 68.07 495.24 71.18 496.92 74.24 498.54 77.35 500.13 80.5 501.72 83.61 503.27 84.1 503.49 90.23 490.65 89.91 490.47 86.85 489.02 83.88 487.51 80.9 485.97 77.93 484.38 75 482.79 72.07 481.16 69.18 479.53 66.34 477.85 63.45 476.13 60.61 474.37 57.82 472.6 55.02 470.8 53.78 469.95"></polygon>
            <polygon id="Path" fill="#D51130" fill-rule="nonzero" points="195.36 520.43 197.58 520.65 196.29 534.77 193.89 534.55 190.21 534.15 186.52 533.71 182.88 533.22 179.24 532.69 175.6 532.12 171.96 531.55 168.37 530.89 164.77 530.22 161.22 529.52 157.67 528.77 154.11 527.97 152.96 527.7 156.15 513.86 157.31 514.12 160.68 514.87 164.06 515.62 167.52 516.28 170.94 516.94 174.4 517.52 177.82 518.14 181.33 518.62 184.83 519.15 188.34 519.63 191.85 520.03"></polygon>
            <polygon id="Path" fill="#D51130" fill-rule="nonzero" points="0.23 445.52 1.12 446.35 3.65 448.74 6.18 451.03 8.76 453.37 11.33 455.62 13.95 457.87 16.57 460.07 19.24 462.28 21.95 464.44 24.65 466.56 27.41 468.72 30.16 470.75 32.91 472.82 33.93 473.53 42.28 462.01 41.39 461.35 38.73 459.41 36.06 457.42 33.49 455.4 30.87 453.37 28.29 451.3 25.76 449.17 23.23 447.06 20.75 444.94 18.26 442.74 15.82 440.53 13.38 438.32 10.98 436.07 10.09 435.23"></polygon>
            <polygon id="Path" fill="#D51130" fill-rule="nonzero" points="479.14 11.2 479.14 -0.4 489.57 4.89 558.12 40.01 551.6 52.63 506.84 29.73 507.86 31.28 509.82 34.46 511.81 37.59 513.73 40.76 515.59 43.98 517.41 47.2 518.79 49.63 506.31 56.6 504.94 54.13 503.2 51.04 501.38 48 499.56 44.91 497.7 41.86 495.79 38.91 493.83 35.91 493.51 35.41 493.57 88.15 479.27 88.15"></polygon>
            <polygon id="Path" fill="#D51130" fill-rule="nonzero" points="402.46 85.9 403.71 86.29 402.87 87.27 363.44 131.51 363.04 131.91 362.55 131.74 357.09 130.06 356.56 129.88 356.52 129.4 347.5 70.54 347.33 69.27 348.61 69.62 362.55 73.85 363.09 73.98 363.13 74.51 367.36 105.71 387.86 82.06 388.21 81.66 388.75 81.79"></polygon>
            <polygon id="Path" fill="#D51130" fill-rule="nonzero" points="302.62 78.66 302.66 79.5 301.82 79.59 283.39 81.19 287.21 123.53 287.26 124.37 286.41 124.41 273.1 125.65 272.25 125.69 272.16 124.85 268.46 82.53 250.01 84.04 249.21 84.09 249.12 83.3 248.28 73.63 248.19 72.79 249.03 72.71 300.84 68.25 301.69 68.21 301.78 69.04"></polygon>
            <path d="M597.28,293.48 L597.28,294.67 L596.08,294.67 L569.62,294.67 L569.8,295.28 L569.93,295.9 L570.15,296.52 L570.33,297.04 L570.55,297.62 L570.77,298.15 L571.03,298.63 L571.3,299.12 L571.61,299.56 L571.88,300 L572.19,300.4 L572.54,300.8 L572.9,301.15 L573.26,301.5 L573.62,301.81 L574.02,302.12 L574.46,302.43 L574.86,302.65 L575.31,302.91 L575.8,303.13 L576.29,303.35 L576.78,303.53 L577.31,303.66 L577.84,303.84 L578.42,303.93 L579,304.06 L579.62,304.11 L580.24,304.2 L580.86,304.2 L581.57,304.25 L582.37,304.2 L583.21,304.16 L584.01,304.07 L584.85,303.94 L585.65,303.76 L586.45,303.54 L587.3,303.32 L588.1,303.01 L588.94,302.7 L589.74,302.35 L590.58,302 L591.38,301.56 L592.22,301.12 L593.06,300.63 L593.86,300.14 L594.7,299.61 L596.57,298.42 L596.57,300.58 L596.57,308.17 L596.57,308.83 L596.04,309.18 L595.11,309.76 L594.22,310.29 L593.29,310.82 L592.4,311.31 L591.47,311.75 L590.53,312.15 L589.56,312.5 L588.58,312.85 L587.56,313.12 L586.54,313.39 L585.47,313.61 L584.36,313.79 L583.25,313.92 L582.1,314.01 L580.86,314.06 L579.61,314.1 L578.41,314.06 L577.21,313.97 L576.05,313.79 L574.94,313.61 L573.87,313.34 L572.85,312.99 L571.83,312.63 L570.85,312.19 L569.92,311.75 L568.99,311.22 L568.15,310.64 L567.3,310.02 L566.55,309.4 L565.8,308.69 L565.09,307.98 L564.38,307.23 L563.76,306.44 L563.18,305.6 L562.6,304.76 L562.11,303.88 L561.62,302.95 L561.17,302.02 L560.82,301.1 L560.47,300.13 L560.16,299.16 L559.85,298.15 L559.63,297.13 L559.45,296.12 L559.32,295.06 L559.18,294 L559.14,292.94 L559.1,291.88 L559.14,290.73 L559.18,289.58 L559.32,288.48 L559.49,287.38 L559.67,286.32 L559.93,285.26 L560.2,284.25 L560.51,283.28 L560.91,282.31 L561.31,281.38 L561.75,280.5 L562.24,279.62 L562.77,278.78 L563.3,277.98 L563.92,277.23 L564.54,276.52 L565.2,275.82 L565.91,275.16 L566.66,274.54 L567.42,273.97 L568.26,273.44 L569.06,272.96 L569.95,272.52 L570.84,272.13 L571.73,271.78 L572.71,271.47 L573.69,271.2 L574.67,270.98 L575.69,270.8 L576.71,270.67 L577.78,270.63 L578.85,270.59 L579.87,270.63 L580.89,270.67 L581.87,270.8 L582.8,270.93 L583.78,271.15 L584.67,271.37 L585.56,271.68 L586.45,272.03 L587.3,272.38 L588.1,272.82 L588.9,273.31 L589.66,273.84 L590.37,274.42 L591.04,275.04 L591.7,275.7 L592.32,276.41 L592.94,277.16 L593.47,277.96 L594,278.8 L594.45,279.68 L594.94,280.61 L595.34,281.58 L595.69,282.55 L596.04,283.61 L596.31,284.71 L596.58,285.81 L596.8,287 L596.98,288.19 L597.11,289.47 L597.2,290.75 L597.29,292.12 L597.29,293.48 L597.28,293.48 Z M587.02,287.08 L586.89,286.42 L586.67,285.54 L586.4,284.7 L586.05,283.95 L585.65,283.24 L585.47,282.93 L585.25,282.62 L584.98,282.31 L584.49,281.78 L583.91,281.34 L583.33,280.9 L582.97,280.72 L582.66,280.54 L582.31,280.4 L581.95,280.27 L581.55,280.13 L581.15,280.04 L580.75,279.95 L580.35,279.91 L579.9,279.87 L579.46,279.83 L578.97,279.83 L577.99,279.83 L577.02,279.96 L576.62,280.05 L576.18,280.14 L575.78,280.28 L575.38,280.41 L574.98,280.55 L574.58,280.73 L574.22,280.91 L573.91,281.09 L573.56,281.31 L573.25,281.53 L572.94,281.79 L572.63,282.06 L572.05,282.59 L571.83,282.9 L571.56,283.21 L571.07,283.96 L570.67,284.71 L570.32,285.55 L569.97,286.47 L569.8,287.09 L587.02,287.09 L587.02,287.08 Z" id="Shape" fill="#00569D" fill-rule="nonzero"></path>
            <polygon id="Path" fill="#D51130" fill-rule="nonzero" points="149.63 122.07 149.23 121.41 149.89 120.97 160.06 114.35 160.42 114.13 160.77 114.22 185.97 122.01 190.3 96.09 190.34 95.69 190.74 95.47 201.89 89.6 202.64 89.21 203.04 89.91 228.61 138.27 229.01 139.02 228.3 139.41 216.49 145.77 215.78 146.16 215.38 145.46 200.47 118.08 196.69 137.73 196.6 138.09 194.74 139.37 194.43 139.59 194.03 139.46 174.94 134.11 191.23 161.38 191.63 162.05 190.96 162.49 179.82 169.99 179.06 170.47 178.62 169.72"></polygon>
            <polygon id="Path" fill="#00569D" fill-rule="nonzero" points="632.35 277.96 632.66 277.51 633.42 276.49 634.17 275.56 634.97 274.73 635.73 273.98 636.48 273.27 637.28 272.7 638.08 272.17 638.88 271.73 639.68 271.33 640.48 271.07 641.28 270.85 642.12 270.76 642.92 270.71 643.59 270.71 644.25 270.8 644.92 270.89 645.54 271.02 646.2 271.2 646.83 271.38 647.49 271.64 648.11 271.9 648.74 272.26 649.4 272.61 650.02 273.01 650.65 273.4 651.27 273.89 651.89 274.37 652.47 274.9 653.09 275.47 653.8 276.14 653.31 276.98 649.18 283.73 648.38 284.96 647.31 283.95 646.52 283.24 645.58 282.54 644.7 281.92 643.76 281.39 642.88 280.99 642.03 280.64 641.72 280.55 641.37 280.51 640.88 280.42 640.43 280.46 639.99 280.51 639.59 280.55 639.19 280.64 638.79 280.77 638.39 280.9 637.99 281.04 637.59 281.26 637.24 281.48 636.88 281.7 636.53 281.96 636.17 282.23 635.82 282.54 635.5 282.84 635.19 283.15 634.93 283.55 634.62 283.9 634.35 284.3 634.08 284.74 633.86 285.14 633.64 285.58 633.42 286.07 633.24 286.55 633.06 287.04 632.89 287.56 632.75 288.05 632.62 288.62 632.53 289.15 632.44 289.68 632.4 290.26 632.35 290.83 632.35 291.41 632.35 312.05 632.35 313.24 631.15 313.24 623.39 313.24 622.19 313.24 622.19 312.05 622.19 272.61 622.19 271.42 623.39 271.42 631.15 271.42 632.35 271.42 632.35 272.61"></polygon>
            <polygon id="Path" fill="#D51130" fill-rule="nonzero" points="543.25 240.4 543.65 236.61 543.96 232.81 544.09 231.09 558.39 232.07 558.26 233.96 557.85 237.89 557.46 241.9 557.01 246.1 556.48 250.33 555.9 254.48 555.23 258.67 554.57 262.81 553.86 266.92 553.06 271.07 552.22 275.12 538.19 272.39 539.03 268.33 539.79 264.4 540.5 260.48 541.16 256.51 541.74 252.49 542.32 248.48 542.81 244.46"></polygon>
            <path d="M702.55,279.85 L703.17,280.69 L703.53,281.26 L703.89,281.84 L704.16,282.41 L704.43,282.98 L704.65,283.56 L704.83,284.18 L704.96,284.75 L705.05,285.37 L705.14,286.03 L705.14,286.65 L705.19,287.31 L705.14,288.02 L705.1,288.72 L704.96,289.43 L704.83,290.09 L704.65,290.8 L704.43,291.46 L704.21,292.12 L703.94,292.74 L703.61,293.34 L703.35,293.96 L702.99,294.53 L702.68,295.1 L702.33,295.58 L701.93,296.07 L701.57,296.55 L701.17,296.94 L700.59,297.47 L700.01,298 L699.34,298.48 L698.68,298.88 L698.01,299.23 L697.34,299.58 L696.63,299.89 L695.92,300.16 L694.5,300.56 L693.13,300.91 L691.75,301.18 L690.46,301.4 L689.22,301.62 L688.11,301.84 L687.62,301.97 L687.17,302.1 L686.77,302.24 L686.41,302.37 L686.1,302.5 L685.7,302.76 L685.43,303.16 L685.35,303.56 L685.53,303.96 L686.06,304.44 L686.46,304.7 L687.03,304.97 L687.65,305.23 L688.41,305.49 L689.29,305.8 L690.27,306.06 L691.29,306.32 L693.73,306.89 L696.53,307.46 L698.13,307.81 L699.6,308.25 L700.31,308.47 L700.98,308.74 L701.6,309 L702.22,309.26 L702.8,309.57 L703.34,309.88 L703.87,310.23 L704.4,310.54 L704.84,310.89 L705.28,311.29 L705.72,311.69 L706.12,312.04 L706.48,312.48 L706.83,312.87 L707.14,313.31 L707.41,313.75 L707.68,314.2 L707.95,314.68 L708.17,315.12 L708.34,315.65 L708.65,316.58 L708.87,317.55 L708.96,318.57 L709.01,319.59 L709.01,320.38 L708.92,321.13 L708.83,321.92 L708.65,322.67 L708.47,323.38 L708.21,324.08 L707.94,324.74 L707.59,325.4 L707.23,326.06 L706.79,326.68 L706.35,327.25 L705.86,327.83 L705.33,328.36 L704.75,328.89 L704.13,329.38 L703.51,329.82 L702.85,330.26 L702.14,330.66 L701.39,331.06 L700.63,331.42 L699.83,331.73 L698.99,331.99 L698.1,332.3 L697.21,332.52 L696.28,332.74 L695.35,332.92 L694.37,333.1 L693.35,333.19 L692.33,333.32 L691.27,333.36 L690.16,333.41 L689.05,333.45 L688.03,333.41 L687.01,333.36 L686.03,333.32 L685.05,333.19 L684.07,333.05 L683.14,332.92 L682.25,332.7 L681.36,332.48 L680.52,332.26 L679.68,332 L678.88,331.69 L678.08,331.38 L677.33,331.03 L676.57,330.68 L675.9,330.28 L675.24,329.84 L674.58,329.4 L673.96,328.96 L673.38,328.47 L672.84,327.94 L672.35,327.41 L671.86,326.88 L671.46,326.3 L671.06,325.68 L670.71,325.06 L670.39,324.44 L670.13,323.78 L669.91,323.12 L669.73,322.46 L669.64,321.76 L669.55,321.05 L669.51,320.3 L669.55,319.15 L669.68,318.09 L669.9,317.03 L670.17,316.01 L670.35,315.53 L670.57,315.04 L670.79,314.6 L671.06,314.12 L671.33,313.72 L671.6,313.28 L671.96,312.88 L672.27,312.49 L672.63,312.13 L673.03,311.73 L673.43,311.42 L673.88,311.07 L674.76,310.45 L675.74,309.88 L676.85,309.39 L677.96,308.95 L677.83,308.64 L677.47,308.33 L677.12,307.93 L676.81,307.58 L676.54,307.23 L676.31,306.83 L676.09,306.43 L675.91,306.03 L675.78,305.63 L675.69,305.23 L675.6,304.78 L675.6,304.38 L675.64,303.76 L675.73,303.14 L675.91,302.57 L676.18,302 L676.45,301.47 L676.81,300.94 L677.25,300.45 L677.7,300.01 L678.19,299.62 L678.77,299.22 L679.35,298.86 L679.97,298.51 L679.48,297.94 L678.5,297.32 L677.66,296.61 L676.86,295.86 L676.46,295.46 L676.1,295.02 L675.75,294.62 L675.44,294.18 L674.91,293.3 L674.42,292.42 L674.02,291.45 L673.71,290.43 L673.49,289.42 L673.31,288.36 L673.22,287.26 L673.17,286.16 L673.22,285.33 L673.26,284.49 L673.35,283.7 L673.53,282.9 L673.71,282.15 L673.93,281.4 L674.2,280.69 L674.51,279.98 L674.82,279.27 L675.22,278.61 L675.63,277.99 L676.07,277.37 L676.6,276.8 L677.09,276.27 L677.67,275.74 L678.25,275.25 L678.87,274.77 L679.54,274.33 L680.25,273.93 L680.96,273.53 L681.67,273.22 L682.47,272.87 L683.26,272.61 L684.11,272.35 L684.95,272.08 L685.84,271.9 L686.73,271.73 L687.66,271.6 L688.59,271.47 L689.57,271.43 L690.59,271.39 L691.61,271.34 L707.99,271.34 L709.19,271.34 L709.19,272.53 L709.19,278.58 L709.19,279.77 L707.99,279.77 L702.55,279.77 L702.55,279.85 Z M687.23,315.14 L686.3,315.18 L685.45,315.27 L684.65,315.4 L683.85,315.58 L683.14,315.75 L682.52,316.02 L681.94,316.33 L681.41,316.64 L680.92,316.99 L680.52,317.39 L680.21,317.74 L679.9,318.18 L679.72,318.58 L679.55,319.02 L679.46,319.51 L679.41,319.99 L679.46,320.57 L679.55,321.06 L679.72,321.5 L679.95,321.94 L680.26,322.34 L680.62,322.7 L681.11,323.09 L681.64,323.45 L682.31,323.76 L683.02,324.02 L683.86,324.29 L684.75,324.46 L685.77,324.64 L686.84,324.77 L688.04,324.81 L689.29,324.86 L690.49,324.81 L691.6,324.77 L692.66,324.64 L693.64,324.46 L694.52,324.29 L695.37,324.02 L696.13,323.76 L696.75,323.45 L697.33,323.14 L697.82,322.79 L698.18,322.43 L698.54,322.04 L698.76,321.68 L698.89,321.24 L699.02,320.85 L699.02,320.36 L699.02,320.01 L698.98,319.7 L698.89,319.39 L698.62,318.86 L698.26,318.33 L697.78,317.84 L697.47,317.58 L697.16,317.36 L696.85,317.18 L696.01,316.74 L695.17,316.39 L694.23,316.08 L693.21,315.82 L692.19,315.6 L691.17,315.46 L690.15,315.33 L689.13,315.24 L688.16,315.2 L687.23,315.14 L687.23,315.14 Z M689.27,280.55 L688.56,280.59 L687.9,280.68 L687.28,280.81 L686.65,281.03 L686.03,281.29 L685.5,281.6 L684.97,281.95 L684.53,282.35 L684.09,282.74 L683.69,283.23 L683.38,283.72 L683.11,284.25 L682.89,284.78 L682.71,285.31 L682.62,285.88 L682.62,286.46 L682.62,287.17 L682.71,287.83 L682.89,288.4 L683.07,288.97 L683.33,289.5 L683.64,289.99 L683.99,290.43 L684.39,290.83 L684.84,291.23 L685.33,291.54 L685.86,291.85 L686.44,292.07 L687.1,292.29 L687.77,292.42 L688.52,292.51 L689.28,292.51 L690.03,292.51 L690.69,292.42 L691.31,292.25 L691.93,292.07 L692.5,291.81 L693.04,291.5 L693.53,291.15 L693.93,290.8 L694.33,290.36 L694.69,289.92 L695,289.39 L695.26,288.86 L695.44,288.29 L695.62,287.67 L695.7,287.05 L695.75,286.39 L695.7,285.77 L695.62,285.24 L695.44,284.67 L695.21,284.14 L694.94,283.65 L694.63,283.16 L694.27,282.72 L693.83,282.28 L693.39,281.93 L692.86,281.58 L692.32,281.27 L691.79,281.05 L691.17,280.83 L690.54,280.7 L689.92,280.61 L689.27,280.55 L689.27,280.55 Z" id="Shape" fill="#00569D" fill-rule="nonzero"></path>
            <path d="M138.94,309.25 C138.94,217.63 213.67,143.36 305.85,143.36 C398.03,143.36 472.76,217.63 472.76,309.25 C472.76,400.87 398.03,475.14 305.85,475.14 C213.66,475.13 138.94,400.87 138.94,309.25 L138.94,309.25 Z" id="Path" fill="#00569D" fill-rule="nonzero"></path>
            <polygon id="Path" fill="#FFFFFF" fill-rule="nonzero" points="302.13 271.42 303.33 271.42 303.33 272.61 303.33 277.72 304.26 276.45 305.02 275.52 305.82 274.64 306.57 273.89 307.33 273.18 308.12 272.56 308.92 272.03 309.72 271.6 310.52 271.24 311.32 270.93 312.12 270.76 312.96 270.62 313.76 270.58 314.43 270.62 315.1 270.67 315.76 270.76 316.43 270.93 317.05 271.11 317.72 271.33 318.34 271.6 319 271.86 319.62 272.21 320.25 272.56 320.91 272.96 321.53 273.4 322.15 273.89 322.78 274.37 323.4 274.9 324.06 275.47 324.77 276.14 324.24 276.98 320.11 283.73 319.36 284.96 318.29 283.95 317.41 283.2 316.52 282.49 315.58 281.87 314.65 281.39 313.76 280.95 312.92 280.64 312.56 280.55 312.25 280.51 311.94 280.46 311.28 280.46 310.88 280.51 310.48 280.55 310.08 280.64 309.68 280.77 309.28 280.9 308.92 281.04 308.52 281.26 308.17 281.43 307.81 281.7 307.46 281.92 307.1 282.23 306.79 282.54 306.48 282.84 306.17 283.15 305.86 283.55 305.59 283.9 305.28 284.3 305.06 284.7 304.8 285.14 304.57 285.58 304.35 286.07 304.17 286.55 304 287.04 303.86 287.56 303.73 288.05 303.6 288.58 303.51 289.15 303.42 289.68 303.37 290.26 303.33 290.83 303.33 291.41 303.33 312.05 303.33 313.24 302.13 313.24 294.23 313.24 293.03 313.24 293.03 312.05 293.03 272.61 293.03 271.42 294.23 271.42"></polygon>
            <polygon id="Path" fill="#FFFFFF" fill-rule="nonzero" points="441.49 287.7 441.49 312.05 441.49 313.24 440.34 313.24 432.57 313.24 431.37 313.24 431.37 312.05 431.37 287.7 431.33 286.68 431.24 285.71 431.06 284.83 430.88 284.04 430.61 283.29 430.26 282.58 429.91 281.96 429.51 281.39 429.06 280.9 428.57 280.42 428.04 280.11 427.51 279.8 427.2 279.67 426.89 279.54 426.57 279.45 426.22 279.36 425.91 279.32 425.55 279.27 425.15 279.23 424.8 279.23 424.22 279.23 423.64 279.27 423.11 279.36 422.58 279.49 422.05 279.67 421.56 279.85 421.03 280.11 420.49 280.37 419.96 280.73 419.43 281.08 418.85 281.52 418.27 282.01 417.7 282.58 417.08 283.2 416.41 283.86 416.05 284.26 416.05 312.05 416.05 313.24 414.85 313.24 406.95 313.24 405.75 313.24 405.75 312.05 405.75 272.61 405.75 271.42 406.95 271.42 414.85 271.42 416.05 271.42 416.05 272.61 416.05 274.96 416.72 274.37 417.47 273.8 418.27 273.27 419.07 272.79 419.87 272.35 420.72 271.95 421.56 271.6 422.4 271.29 423.29 271.02 424.17 270.85 425.06 270.71 425.95 270.62 426.84 270.58 427.6 270.62 428.35 270.67 429.06 270.76 429.82 270.85 430.52 270.98 431.24 271.2 431.9 271.42 432.57 271.64 433.24 271.95 433.86 272.26 434.48 272.61 435.1 273.01 435.68 273.45 436.25 273.89 436.79 274.37 437.28 274.9 437.76 275.47 438.25 276.05 438.65 276.67 439.05 277.33 439.45 278.04 439.81 278.74 440.12 279.49 440.38 280.29 440.65 281.12 440.87 281.96 441.09 282.84 441.23 283.73 441.36 284.7 441.45 285.67 441.49 286.64"></polygon>
            <polygon id="Path" fill="#FFFFFF" fill-rule="nonzero" points="254.32 251.57 254.67 251.17 255.16 251.17 265.86 251.17 268.57 251.17 266.75 253.15 241.29 280.64 273.23 311.43 275.32 313.46 272.39 313.46 260.4 313.46 259.91 313.46 259.55 313.11 230.88 285.4 230.88 312.27 230.88 313.46 229.68 313.46 221.06 313.46 219.91 313.46 219.91 312.27 219.91 252.36 219.91 251.17 221.06 251.17 229.68 251.17 230.88 251.17 230.88 252.36 230.88 276.73"></polygon>
            <path d="M383.02,291.89 L383.02,293.13 L382.93,294.32 L382.8,295.47 L382.62,296.62 L382.4,297.77 L382.09,298.83 L381.78,299.89 L381.38,300.91 L380.94,301.92 L380.5,302.89 L379.97,303.82 L379.39,304.74 L378.81,305.58 L378.15,306.42 L377.44,307.22 L376.73,307.97 L375.97,308.68 L375.13,309.34 L374.29,310 L373.4,310.57 L372.47,311.1 L371.53,311.63 L370.55,312.07 L369.53,312.51 L368.46,312.86 L367.4,313.17 L366.29,313.44 L365.14,313.7 L363.98,313.83 L362.83,313.97 L361.59,314.06 L360.39,314.1 L359.19,314.06 L358.04,313.97 L356.88,313.83 L355.77,313.66 L354.66,313.44 L353.6,313.13 L352.58,312.82 L351.56,312.42 L350.58,312.03 L349.6,311.54 L348.67,311.01 L347.78,310.48 L346.94,309.86 L346.1,309.2 L345.3,308.54 L344.54,307.79 L343.83,307.04 L343.16,306.24 L342.49,305.4 L341.91,304.56 L341.33,303.64 L340.84,302.71 L340.35,301.74 L339.95,300.77 L339.55,299.76 L339.24,298.7 L338.93,297.64 L338.71,296.54 L338.53,295.39 L338.4,294.29 L338.31,293.1 L338.31,291.91 L338.31,290.81 L338.4,289.7 L338.53,288.64 L338.75,287.58 L338.97,286.52 L339.28,285.51 L339.59,284.49 L339.99,283.52 L340.43,282.6 L340.92,281.67 L341.45,280.74 L341.99,279.9 L342.61,279.06 L343.28,278.27 L343.94,277.48 L344.7,276.77 L345.45,276.07 L346.25,275.41 L347.05,274.75 L347.94,274.17 L348.83,273.64 L349.76,273.11 L350.69,272.67 L351.67,272.22 L352.69,271.87 L353.71,271.52 L354.78,271.26 L355.84,271.04 L356.95,270.86 L358.06,270.73 L359.21,270.64 L360.37,270.6 L361.57,270.64 L362.77,270.68 L363.93,270.81 L365.08,270.99 L366.19,271.21 L367.3,271.48 L368.37,271.83 L369.39,272.18 L370.41,272.58 L371.39,273.02 L372.37,273.55 L373.26,274.08 L374.15,274.66 L375.04,275.27 L375.84,275.94 L376.59,276.6 L377.34,277.35 L378.05,278.1 L378.72,278.9 L379.34,279.74 L379.87,280.62 L380.4,281.5 L380.89,282.43 L381.33,283.4 L381.73,284.37 L382.04,285.38 L382.35,286.39 L382.61,287.49 L382.79,288.55 L382.92,289.66 L383.01,290.76 L383.01,291.89 L383.02,291.89 Z M348.7,291.89 L348.7,292.64 L348.74,293.35 L348.83,294.06 L348.92,294.72 L349.05,295.34 L349.19,296 L349.36,296.61 L349.54,297.19 L349.76,297.76 L350.02,298.29 L350.29,298.82 L350.55,299.35 L350.86,299.83 L351.21,300.32 L351.52,300.76 L351.92,301.16 L352.28,301.56 L352.73,301.96 L353.13,302.31 L353.57,302.62 L354.06,302.93 L354.5,303.19 L354.99,303.45 L355.52,303.67 L356.05,303.89 L356.58,304.07 L357.16,304.25 L357.74,304.34 L358.32,304.47 L358.94,304.51 L359.56,304.55 L360.23,304.6 L360.94,304.55 L361.65,304.51 L362.36,304.47 L363.03,304.39 L363.65,304.26 L364.27,304.13 L364.89,303.96 L365.47,303.74 L366.04,303.52 L366.57,303.26 L367.06,303 L367.55,302.74 L368.04,302.39 L368.48,302.08 L368.92,301.73 L369.32,301.33 L369.68,300.94 L370.03,300.49 L370.39,300 L370.7,299.56 L371.01,299.03 L371.27,298.54 L371.49,297.97 L371.76,297.39 L371.93,296.82 L372.11,296.21 L372.24,295.59 L372.37,294.93 L372.46,294.22 L372.55,293.52 L372.59,292.81 L372.59,292.06 L372.59,291.4 L372.55,290.78 L372.46,290.16 L372.37,289.54 L372.24,288.96 L372.06,288.34 L371.88,287.81 L371.66,287.24 L371.44,286.71 L371.17,286.18 L370.9,285.69 L370.59,285.21 L370.23,284.77 L369.87,284.32 L369.51,283.88 L369.11,283.48 L368.67,283.08 L368.27,282.73 L367.78,282.38 L367.29,282.07 L366.8,281.76 L366.27,281.5 L365.74,281.24 L365.21,281.02 L364.63,280.8 L364.05,280.62 L363.43,280.44 L362.81,280.31 L362.19,280.22 L361.52,280.13 L360.85,280.09 L360.19,280.09 L359.57,280.09 L358.95,280.13 L358.33,280.22 L357.76,280.31 L357.18,280.44 L356.6,280.62 L356.07,280.8 L355.54,280.98 L355.01,281.24 L354.52,281.46 L354.03,281.73 L353.59,282.04 L353.15,282.35 L352.71,282.7 L352.31,283.05 L351.91,283.45 L351.55,283.85 L351.19,284.29 L350.84,284.73 L350.53,285.17 L350.27,285.66 L350,286.14 L349.74,286.67 L349.52,287.16 L349.34,287.74 L349.17,288.26 L349.03,288.84 L348.9,289.46 L348.81,290.08 L348.72,290.65 L348.68,291.31 L348.68,291.89 L348.7,291.89 Z" id="Shape" fill="#FFFFFF" fill-rule="nonzero"></path>
            <g id="Group" transform="translate(543.110000, 412.290000)" fill="#D51130" fill-rule="nonzero">
                <polygon id="Path" points="0 66.3 0 1.16 7.06 1.16 7.06 27.91 34.83 27.91 34.83 1.16 41.89 1.16 41.89 66.3 34.83 66.3 34.83 35.6 7.06 35.6 7.06 66.3"></polygon>
                <path d="M61.73,34.57 C61.73,23.46 64.17,14.92 69.06,8.95 C73.95,2.98 80.04,5.68434189e-14 87.32,5.68434189e-14 C92.03,5.68434189e-14 96.32,1.33 100.21,4 C104.1,6.67 107.16,10.54 109.43,15.62 C111.7,20.7 112.83,26.75 112.83,33.77 C112.83,43.43 110.64,51.29 106.25,57.36 C101.42,64.06 95.1,67.4 87.28,67.4 C79.4,67.4 73.06,63.96 68.26,57.09 C63.91,50.88 61.73,43.37 61.73,34.57 Z M69.02,34.68 C69.02,42.72 70.79,48.95 74.33,53.38 C77.87,57.81 82.17,60.03 87.24,60.03 C92.42,60.03 96.77,57.79 100.28,53.32 C103.79,48.84 105.54,42.26 105.54,33.57 C105.54,27.97 104.64,22.96 102.83,18.54 C101.44,15.16 99.34,12.46 96.54,10.42 C93.74,8.39 90.68,7.37 87.36,7.37 C82.03,7.37 77.64,9.59 74.19,14.04 C70.74,18.5 69.02,25.38 69.02,34.68 Z" id="Shape"></path>
                <path d="M171.36,43.46 L178.47,45.64 C176.9,52.96 174.15,58.42 170.23,62.01 C166.31,65.61 161.53,67.41 155.9,67.41 C150.95,67.41 146.72,66.2 143.21,63.79 C139.7,61.37 136.83,57.5 134.59,52.16 C132.35,46.82 131.24,40.53 131.24,33.26 C131.24,26.09 132.36,20.02 134.6,15.05 C136.84,10.08 139.87,6.34 143.7,3.8 C147.53,1.26 151.8,0 156.51,0 C161.67,0 166.1,1.6 169.81,4.81 C173.52,8.02 176.11,12.72 177.59,18.93 L170.66,20.93 C168.29,11.9 163.53,7.38 156.38,7.38 C152.82,7.38 149.74,8.29 147.12,10.12 C144.51,11.94 142.42,14.78 140.87,18.64 C139.31,22.5 138.53,27.37 138.53,33.27 C138.53,42.19 140.1,48.89 143.24,53.35 C146.38,57.81 150.56,60.04 155.77,60.04 C159.62,60.04 162.95,58.67 165.75,55.93 C168.54,53.18 170.41,49.03 171.36,43.46 Z" id="Path"></path>
                <polygon id="Path" points="198.69 66.3 198.69 1.16 205.75 1.16 205.75 33.46 232.29 1.16 241.88 1.16 219.46 27.58 242.86 66.3 233.53 66.3 214.56 33.36 205.76 43.73 205.76 66.3"></polygon>
                <polygon id="Path" points="260.51 66.3 260.51 1.16 299.12 1.16 299.12 8.85 267.57 8.85 267.57 28.76 297.12 28.76 297.12 36.45 267.57 36.45 267.57 58.62 300.36 58.62 300.36 66.31 260.51 66.31"></polygon>
                <path d="M334.26,66.3 L334.26,38.71 L313.69,1.16 L322.32,1.16 L332.81,20.82 C334.88,24.71 336.71,28.38 338.28,31.85 C339.85,28.44 341.8,24.6 344.11,20.33 L354.49,1.16 L362.66,1.16 L341.33,38.71 L341.33,66.3 L334.26,66.3 Z" id="Path"></path>
            </g>
        </g>
    </g>
</svg>