<?xml version="1.0" encoding="utf-8"?>
<svg width="677px" height="677px" viewBox="0 0 677 677" version="1.1" xmlns="http://www.w3.org/2000/svg" xmlns:xlink="http://www.w3.org/1999/xlink">
    <g id="Hessen" stroke="none" stroke-width="1" fill="none" fill-rule="evenodd">
        <g id="359-VFL" fill-rule="nonzero">
            <path d="M338.5,0 C151.555197,0 0,151.555197 0,338.5 C0,525.444803 151.555197,677 338.5,677 C525.444803,677 677,525.444803 677,338.5 C677,151.555197 525.444803,0 338.5,0 Z" id="Background" fill="#FFFFFF"></path>
            <g id="Group" fill="#2D2E83">
                <path d="M68.0411868,235.973353 L69.542409,230.727605 C71.4189366,223.605329 69.542409,219.485498 63.5460501,216.85836 C56.4237747,214.231221 51.5533325,216.85836 48.9261938,225.106552 L47.8002772,228.484301 L57.9249969,232.228827 L68.0411868,235.973353 Z" id="Path"></path>
                <path d="M96.9055941,238.975797 C99.5327328,232.979438 98.7821217,230.352299 94.6537609,226.607774 C90.1586242,222.863248 84.9043467,222.112637 80.0339045,224.355941 C76.6561547,225.857163 75.9140733,226.983079 74.0375457,232.228827 L71.7857125,237.84988 L82.2857377,241.594406 C93.9031498,245.722767 94.6537609,245.722767 96.9055941,238.975797 Z" id="Path"></path>
                <path d="M244.972156,577.475797 C237.84988,573.731271 229.601688,576.725186 222.854718,585.348683 C218.359582,591.345042 214.981832,599.593234 214.231221,607.090815 C213.105304,617.215535 220.22758,626.205808 229.601688,625.830503 C236.348658,625.830503 240.843795,623.203364 246.473378,615.330478 C247.9746,613.45395 249.100517,611.585952 250.217903,608.958813 C253.220348,602.587149 253.220348,597.716707 253.220348,591.711818 C253.220348,585.723989 249.842598,580.094406 244.972156,577.475797 Z" id="Path"></path>
                <path d="M478.889858,120.515724 C484.510911,122.392251 489.014577,119.765113 495.010936,111.516921 C500.256684,104.394645 501.757906,101.392201 502.133212,96.5217589 C502.883823,92.0266221 501.757906,89.3994834 498.755462,87.1476502 C496.128323,84.8958171 490.882575,84.8958171 486.762744,86.7723447 C481.516996,89.3994834 474.394721,99.5156734 472.518193,107.38856 C471.016971,114.144059 473.260275,118.639196 478.889858,120.515724 Z" id="Path"></path>
                <path d="M439.525425,96.154983 C441.777258,97.6562051 445.146479,97.6562051 448.524228,96.9055941 C450.400756,96.9055941 453.769976,94.6537609 455.271198,91.2845408 C456.77242,87.9153207 457.898337,84.1622653 456.77242,80.4177397 C456.021809,78.541212 453.769976,75.922603 452.277284,74.4213809 C450.400756,72.9201588 445.155008,71.4189366 442.903175,72.1695477 C438.408038,73.2954643 435.405594,75.1719919 433.904372,78.1659065 C432.027844,81.5436563 432.40315,86.038793 432.778455,87.9153207 C433.904372,92.4019277 436.522981,95.0290664 439.525425,96.154983 Z" id="Path"></path>
                <path d="M402.03752,53.4213305 C406.907963,57.5411616 408.78449,56.7990803 412.16224,50.7941918 C415.164684,45.548444 415.53999,40.2941666 413.288157,38.050863 C412.912851,37.300252 412.16224,36.1743354 411.786935,35.7990299 C411.411629,35.0484188 409.535101,34.2978077 408.042409,33.5471967 C405.41527,32.4212801 403.922578,32.7965856 400.920134,34.2978077 C393.038717,38.4261686 393.414023,46.2990551 402.03752,53.4213305 Z" id="Path"></path>
                <path d="M393.789328,83.4031246 C398.284465,84.9043467 399.410382,84.9043467 402.788132,83.0278191 C411.036324,79.2832934 411.036324,70.6597959 402.788132,64.2881315 C401.286909,63.1622149 399.043606,61.2856873 397.917689,60.1683004 C395.665856,58.2917727 395.290551,58.2917727 391.92133,60.5436059 C385.549666,64.6634371 383.673138,71.7857125 387.050888,78.1659065 C388.543581,81.1598211 389.669497,81.9104322 393.789328,83.4031246 Z" id="Path"></path>
                <path d="M619.458838,324.067796 C620.584755,323.317185 625.455197,321.440658 629.583558,319.57266 L637.456445,316.19491 L627.331725,312.81716 C622.461283,311.315938 617.582311,309.814716 617.207005,309.814716 C616.8317,309.814716 616.8317,313.559242 616.8317,317.687602 L617.207005,325.185183 L619.458838,324.067796 Z" id="Path"></path>
                <path d="M613.46248,443.269951 C618.708227,447.389782 621.710672,448.140393 626.205808,445.89709 C629.583558,444.020562 630.325639,443.269951 631.451556,439.15012 L632.952778,434.279677 L623.203364,430.535152 L613.46248,426.782097 L611.585952,430.526622 C610.835341,432.40315 610.460035,435.77237 610.460035,437.648898 C610.460035,440.651342 611.210646,441.401953 613.46248,443.269951 Z" id="Path"></path>
                <path d="M583.472156,426.031485 C581.595628,431.652539 582.721545,435.030289 587.216681,438.774814 C591.336513,442.152564 595.840179,442.51934 601.085927,439.900731 C604.088371,438.399509 605.205758,437.273592 606.70698,432.40315 L608.958813,426.782097 L600.335316,423.404347 C595.464873,421.527819 590.585901,420.026597 589.83529,420.026597 C586.4746,420.035127 584.598072,421.527819 583.472156,426.031485 Z" id="Path"></path>
                <path d="M645.696107,371.296586 L632.952778,370.170669 L622.085977,368.669447 L621.710672,372.789278 C621.335366,375.416417 622.085977,378.410331 623.211894,381.03747 C625.088421,384.41522 625.839032,385.157301 629.583558,386.658523 C638.207056,389.285662 642.702192,387.033829 644.954025,378.035026 C645.696107,374.674335 646.446718,371.296586 645.696107,371.296586 Z" id="Path"></path>
                <path d="M338.5,1.94131665e-14 C151.555197,1.94131665e-14 1.93894919e-14,151.555197 1.93894919e-14,338.5 C1.93894919e-14,525.444803 151.555197,677 338.5,677 C525.444803,677 677,525.444803 677,338.5 C677,151.555197 525.444803,1.94131665e-14 338.5,1.94131665e-14 Z M546.496031,146.710344 L550.922931,143.324065 L559.955852,155.1206 L571.334434,146.411805 L574.643946,150.727819 L563.265365,159.436613 L572.375054,171.344034 L567.948154,174.730314 L558.838465,162.822893 L547.459884,171.531687 L544.150372,167.215673 L555.528953,158.506879 L546.496031,146.710344 Z M502.124682,84.9043467 C507.37043,89.0241779 509.997568,94.2784553 509.997568,101.025425 C509.997568,107.39709 507.745735,112.642837 502.499987,118.27242 C494.251795,127.271223 484.135605,128.772446 474.010886,122.392251 C462.768779,114.894671 461.267557,102.151342 470.26636,89.7833186 C478.889858,78.5326824 490.882575,76.6561547 502.124682,84.9043467 Z M426.406791,74.0375457 C432.027844,59.4176893 443.653786,50.4188862 459.015724,50.0435807 C466.513305,49.2929696 470.633136,50.4188862 470.25783,53.0460249 C470.25783,54.9225526 469.507219,54.9225526 463.886166,54.9225526 C458.640418,54.5472471 456.388585,55.2978581 451.518143,57.5496913 C445.89709,60.17683 440.651342,65.0472723 441.393423,66.5484944 C441.768729,66.9237999 442.894645,66.9237999 444.771173,66.9237999 C448.515699,66.5484944 454.895893,68.425022 457.889807,70.6683256 C465.762694,77.4152955 465.387388,91.6598463 456.388585,99.5327328 C447.389782,107.780925 431.268704,104.778481 426.022956,93.5363739 C423.029041,87.906791 423.404347,81.9104322 426.406791,74.0375457 Z M387.042359,57.9164672 L392.288106,55.664634 L389.660968,52.6621897 C383.289303,45.1646088 385.541136,35.4151947 394.53141,30.920058 C402.028991,27.1755323 413.646403,28.6682248 419.275986,34.6645836 C422.653736,38.4091092 423.020512,39.1597203 423.020512,44.4139977 C423.395817,49.6597455 419.275986,55.2807988 414.021708,58.283243 C411.019264,59.7844652 411.019264,60.1597707 412.895792,61.6609928 C414.021708,62.7869094 415.898236,65.4055185 417.015623,67.2820461 C420.760149,74.4043215 417.390929,82.6525135 409.518042,86.7723447 C404.272294,89.3994834 397.90063,89.774789 391.520436,87.5229558 C382.146327,84.5205115 377.651191,79.6500693 377.275885,72.1524883 C376.926169,65.4140481 379.920083,60.9189114 387.042359,57.9164672 Z M343.182789,77.4067658 C343.182789,76.2808492 344.308706,75.9055437 347.302621,75.9055437 C349.929759,75.9055437 351.797757,75.1549326 352.173063,74.4043215 C352.548368,73.6537105 353.674285,66.5314351 354.049591,58.6585486 L355.175507,44.4139977 L350.68037,44.4139977 C346.935845,44.0386922 346.185234,43.6633867 346.185234,42.1621645 C346.185234,40.2856369 346.185234,40.2856369 350.305065,40.2856369 C352.556898,40.2856369 356.301424,39.5350258 358.553257,38.4091092 C364.17431,35.406665 365.300227,35.7819705 364.924921,40.6609424 C364.924921,42.9127756 364.17431,50.7856621 363.423699,57.9079375 C361.547171,75.9055437 361.547171,76.2723195 366.801449,77.7735416 C369.803893,78.5241527 370.92128,79.2747638 370.545975,80.7759859 C370.545975,82.277208 368.669447,82.6525135 358.928562,81.9019025 L345.809928,79.6500693 C343.933401,79.2832934 342.807484,79.658599 343.182789,77.4067658 Z M268.966121,27.9261434 C269.341426,27.5508378 292.58478,24.9236991 293.335391,24.9236991 C293.710697,24.9236991 293.710697,25.6743102 294.086002,26.8002268 C294.086002,27.9261434 293.335391,28.6767544 291.083558,29.4273655 C288.456419,30.1779766 287.705808,30.9285876 287.705808,33.1718911 C287.330503,37.6670278 292.951556,76.2808492 294.077473,77.4067658 C295.578695,78.9079879 304.202192,78.1573768 309.072634,76.6561547 C312.450384,75.5302381 312.81716,74.7796271 315.068993,68.4079627 C316.945521,63.912826 318.071438,61.2856873 319.188824,61.2856873 C321.065352,61.6609928 321.065352,61.2856873 321.440658,71.0351014 C321.440658,75.5302381 321.440658,79.2832934 321.440658,79.2832934 C321.065352,80.0339045 276.830478,86.7808744 276.455172,86.0302633 C275.329255,84.1537357 276.830478,82.2857377 279.457616,81.5351266 C281.334144,81.1598211 282.46006,80.0339045 282.835366,78.9079879 C283.210672,76.6561547 278.340229,36.9249465 277.214313,34.6731133 C276.839007,33.9225022 274.587174,32.7965856 272.719176,32.4212801 C270.467343,32.0459745 268.97465,30.920058 268.97465,29.7941414 C268.966121,29.05206 268.966121,27.9261434 268.966121,27.9261434 Z M217.984276,46.2990551 C219.860804,45.548444 229.601688,41.8039184 239.726408,38.4261686 C249.851128,35.0484188 258.466096,32.0545042 258.841401,32.0545042 C258.841401,31.3038932 260.342623,33.9310319 260.342623,35.432254 C260.342623,36.1828651 261.093234,38.4346982 261.843845,41.0533073 C262.969762,44.7978329 262.969762,45.548444 261.46854,46.2990551 C260.342623,46.6743606 259.216707,46.6743606 258.466096,45.9237495 C257.715484,45.1731385 255.463651,43.2966108 253.595653,41.8039184 C249.475822,38.8014741 247.599294,38.8014741 237.84988,42.5545294 C232.228827,44.4310571 232.228827,43.3051405 236.723964,56.7990803 C238.225186,61.294217 239.351102,65.0472723 239.726408,65.0472723 C240.101713,65.0472723 242.353547,64.2966612 244.972156,63.5460501 C250.217903,61.294217 252.845042,57.9249969 252.094431,54.1719415 C251.719126,52.6707194 252.094431,51.5448028 253.220348,50.7941918 C253.970959,50.4188862 255.096875,50.4188862 255.096875,50.7941918 C255.096875,51.1694973 256.973403,56.0399395 258.841401,61.294217 C260.717929,66.5399647 262.219151,71.4189366 262.585927,71.7942422 C262.585927,72.1695477 262.210621,72.9201588 261.084705,73.2954643 C259.583482,74.0460753 259.208177,73.6707698 257.706955,71.4189366 C255.455122,66.9237999 252.461207,66.1731889 246.840154,67.674411 C244.213015,68.425022 241.594406,69.1756331 241.594406,69.5509386 C241.2191,70.6768552 247.215459,87.9153207 248.341376,89.4165428 C249.467292,90.5424594 250.968515,90.9177649 252.836513,90.1671538 C256.214262,89.4165428 257.331649,89.7918483 256.956344,91.668376 C256.956344,92.7942926 254.329205,93.9202091 245.338932,97.2894293 C238.967267,99.5412624 233.346214,101.40926 233.346214,101.40926 C232.970908,101.40926 232.970908,100.658649 232.970908,99.5327328 C232.970908,98.4068162 234.096825,97.2808996 235.973353,96.154983 L238.975797,94.2784553 C232.228827,69.1585738 232.979438,77.4067658 225.481857,52.6707194 C225.857163,51.1694973 221.737331,49.6682752 219.110193,50.0435807 C214.606526,50.7941918 214.231221,48.5423586 217.984276,46.2990551 Z M155.37649,78.9079879 C155.37649,78.5326824 160.246932,75.9055437 166.618596,72.161018 C177.485398,65.7893537 177.485398,65.7893537 178.611314,67.6658813 C179.361925,68.7917979 178.98662,69.9177145 177.860703,70.29302 C175.233564,71.4189366 173.740872,73.2954643 174.482953,74.7881567 C174.858259,75.5387678 189.853421,88.2820965 196.975696,94.2784553 C198.476918,95.4043719 200.720222,97.2808996 202.221444,98.773592 L205.223888,101.025425 L205.223888,97.6476754 C205.223888,95.7711478 204.848583,93.5278443 204.473277,92.7772332 C204.097972,92.0266221 203.34736,88.657402 202.972055,84.9043467 C201.846138,74.7796271 199.969611,63.912826 198.852224,62.4116039 C198.101613,61.6609928 196.225085,61.2856873 193.606476,62.0362983 C191.354643,62.7869094 189.111339,62.7869094 188.736034,62.0362983 C188.360728,61.2856873 190.237256,59.7844652 198.110142,55.664634 C204.106501,52.6621897 208.610168,50.7941918 208.610168,51.5448028 C209.360779,51.5448028 208.610168,52.2954139 207.859557,52.6707194 C204.481807,54.1719415 204.481807,60.5436059 207.484251,81.5351266 C211.979388,112.651367 211.979388,114.144059 210.486695,114.894671 C208.985473,115.645282 191.371702,102.151342 174.875318,87.906791 C168.128348,81.9104322 162.131989,79.2832934 159.129545,80.7845156 C158.003629,81.1598211 155.001184,79.658599 155.37649,78.9079879 Z M110.391004,136.969459 L122.315484,145.831788 L130.862215,134.333791 L135.229407,137.575066 L126.682676,149.073063 L138.718042,158.020688 L135.39147,162.490236 L123.356104,153.542611 L114.809374,165.040607 L110.442182,161.799332 L118.988913,150.301336 L107.064432,141.439007 L110.391004,136.969459 Z M42.9213053,228.475772 C48.9176641,213.48061 51.9201084,208.610168 56.0399395,206.358334 C59.0423838,204.857112 63.912826,205.232418 67.2820461,206.73364 C70.2844904,208.234862 74.4043215,216.107749 73.6537105,219.852274 C73.2784049,223.230024 73.2784049,223.230024 77.3982361,218.351052 C81.1427617,213.855915 83.3945949,212.729999 88.2650372,212.729999 C96.5132292,212.729999 103.260199,218.726358 103.635505,226.223939 C104.01081,231.094381 102.509588,236.723964 97.2638402,250.217903 C92.7687035,262.210621 91.6427869,264.087149 90.1415648,262.961232 C89.0156482,262.210621 88.6403427,261.084705 89.0156482,258.466096 C89.3909538,255.838957 89.0156482,254.72157 87.8897316,253.970959 C85.6378985,252.469737 47.7832178,238.600491 45.9066902,238.600491 C45.1560791,238.600491 43.654857,239.726408 42.9042459,241.22763 C41.4030238,243.479463 40.6524128,243.479463 39.1597203,243.104158 C37.6670278,242.728852 38.4261686,240.101713 42.9213053,228.475772 Z M24.9322288,305.703414 L27.5593675,292.960086 C28.3099786,288.089643 28.6852841,287.339032 30.5618118,288.089643 C32.0630339,288.464949 32.4383394,289.21556 32.4383394,291.092088 C32.4383394,295.96253 33.564256,296.713141 49.6853345,299.34028 C70.3015497,302.718029 72.9286884,302.718029 77.0485196,300.466196 C81.1683508,298.589669 83.7954895,293.343921 83.7954895,288.098173 C83.7954895,283.978342 80.7930452,277.598148 77.4238251,275.73015 C74.7966864,274.228928 54.1804712,270.484402 45.9322792,269.733791 C39.5606148,269.358486 37.3087817,270.484402 35.432254,274.979539 C34.3063374,277.981983 33.5557263,278.357289 32.4298098,277.981983 C31.3038932,277.606678 31.3038932,274.979539 32.8051153,266.364571 C33.9310319,260.368212 35.0569485,255.122464 35.432254,255.122464 C37.3087817,253.621242 38.0593927,254.371853 38.0593927,257.749603 C38.0593927,261.127353 38.4346982,261.494129 40.6865314,262.995351 C44.4310571,265.247184 55.6816933,267.490488 75.5472975,270.117626 C80.4177397,270.868237 84.9214061,275.73868 87.9153207,282.110344 C90.1671538,286.980786 89.0412372,297.856117 82.6695729,306.104309 C80.4177397,309.106753 74.7966864,311.350057 68.0497165,311.350057 C56.8076099,309.473529 35.8075595,306.479614 33.1889505,306.479614 C30.9371173,306.85492 30.1865062,307.230226 29.0691193,309.857364 C28.3185083,312.484503 27.5678972,312.859808 26.0666751,312.484503 C24.1816177,312.075079 24.1816177,311.699773 24.9322288,305.703414 Z M25.6743102,367.927366 C25.6743102,367.55206 25.2990047,361.555701 25.6743102,354.808731 C25.6743102,341.690097 26.8002268,340.188875 30.1694469,346.935845 L31.670669,349.938289 L51.9115787,349.938289 C62.7783797,349.938289 73.6537105,349.187678 75.9055437,348.812372 C79.6500693,347.686456 79.6500693,347.31115 79.6500693,343.191319 C79.6500693,340.939486 79.2747638,337.19496 78.8994582,334.943127 C78.1488472,331.198601 77.7735416,330.44799 74.4043215,328.196157 C72.5277939,326.694935 69.5338793,325.193713 67.6573516,324.451632 C65.4055185,323.325715 64.6549074,322.575104 64.6549074,321.449187 C64.6549074,319.947965 66.1561295,319.947965 73.6537105,320.323271 C78.5241527,320.698576 82.6525135,321.073882 82.6525135,321.449187 C83.0278191,321.449187 83.4031246,331.573907 83.7784301,343.566625 C84.1537357,355.559342 83.7784301,365.684062 83.0278191,365.684062 C82.277208,365.684062 81.1512914,364.18284 80.0253748,362.306312 L78.1488472,358.561787 L56.4067154,359.312398 C44.4139977,359.687703 33.9139725,360.438314 32.7880559,360.81362 C32.0374449,361.188925 30.5362228,363.065453 30.1609172,364.933451 C29.7856117,366.809979 28.6596951,367.935895 27.5337785,368.311201 C26.4249213,368.302671 25.6743102,368.302671 25.6743102,367.927366 Z M30.5532821,390.044803 C30.9285876,387.042359 30.9285876,385.924972 29.802671,385.174361 C27.5508378,383.673138 27.5508378,381.054529 29.802671,380.679224 C30.5532821,380.679224 35.4237243,379.553307 39.9273907,378.427391 C44.4310571,377.301474 48.5508882,376.550863 48.9261938,376.550863 C49.3014993,376.550863 49.3014993,377.301474 49.3014993,378.427391 C49.3014993,379.553307 48.5508882,380.679224 46.6743606,381.429835 C45.1731385,382.180446 41.8039184,384.807585 39.5520852,387.426194 C34.2978077,392.663412 33.5471967,396.416467 36.5496409,402.412826 C41.4200832,411.786935 54.9140229,414.405544 69.9091848,408.78449 C77.0314602,406.157352 81.9019025,401.662215 83.7784301,396.041162 C85.6549578,391.170719 85.2796523,387.417664 83.0278191,382.547222 C80.7759859,378.052085 78.1573768,375.800252 72.9030994,374.29903 C68.7832682,372.797808 68.4079627,372.797808 69.1585738,370.92128 C69.9091848,369.044752 70.2844904,369.044752 74.7796271,370.545975 C77.4067658,371.296586 81.1512914,373.173113 83.0278191,374.665806 C86.0302633,376.917639 89.774789,383.664609 90.9007056,388.910357 C92.4019277,394.906715 89.0241779,405.406741 84.1537357,411.027794 C80.40921,415.522931 70.6597959,420.026597 63.1622149,420.777208 C54.5387174,421.903125 42.9213053,418.150069 38.0423334,413.279627 C31.6791987,406.541187 28.6767544,398.292995 30.5532821,390.044803 Z M62.4116039,483.7603 C61.2856873,483.7603 60.1597707,481.508467 56.4152451,472.142888 C53.7881063,465.771223 51.9201084,460.525476 51.9201084,460.525476 C51.9201084,460.15017 52.6707194,460.15017 53.796636,460.15017 C54.9225526,460.15017 56.0484692,460.900781 57.1743858,462.777309 C59.0509134,466.89714 60.17683,466.155059 68.7917979,454.529117 L75.9140733,445.155008 L70.29302,444.779703 C67.2905758,444.779703 63.5460501,444.029092 61.6695225,443.653786 C59.7929948,443.278481 56.7990803,442.903175 54.1719415,442.527869 C49.6768048,442.152564 48.5508882,443.278481 50.0521104,447.773617 C50.4274159,449.274839 50.4274159,450.400756 48.9261938,451.518143 C46.6743606,453.019365 47.0496661,453.769976 41.4286128,437.648898 C39.5520852,432.40315 41.4286128,430.526622 45.1731385,434.271148 C47.0496661,436.147675 50.4188862,437.273592 59.0423838,438.766284 C74.4128512,441.393423 80.0339045,441.393423 88.657402,437.640368 C96.154983,434.637924 97.2808996,433.145231 96.154983,427.515648 C95.7796775,425.639121 96.154983,424.513204 97.2808996,423.771123 C99.5327328,423.395817 99.9080383,424.146428 103.277258,432.39462 C104.027869,434.271148 105.904397,438.390979 107.021784,442.144034 C109.273617,447.765088 109.648923,448.891004 108.147701,449.641615 C106.646479,450.392226 106.271173,450.016921 104.769951,447.389782 C102.518118,442.51934 100.274814,442.51934 91.6513166,447.014477 C83.4031246,451.134308 84.1537357,450.759002 71.7857125,466.504775 C65.0387426,475.128273 64.2881315,476.254189 64.6634371,479.623409 C65.0387426,483.384994 65.0387426,483.7603 62.4116039,483.7603 Z M136.261497,571.479438 C137.012108,573.355966 137.012108,575.223964 136.636802,575.599269 C136.261497,575.974575 132.141666,572.972131 126.887388,568.101688 C120.140418,561.730024 118.263891,559.478191 118.639196,558.352274 C119.765113,556.475747 120.515724,556.100441 122.759027,557.976969 C123.884944,559.102885 125.386166,559.853496 126.503553,559.478191 C127.254164,559.478191 131.749301,556.100441 135.877662,552.355915 L143.375243,545.608945 L140.372798,544.858334 C135.127051,543.732418 119.381278,544.483029 116.378833,545.984251 C113.751695,547.110168 113.751695,547.485473 114.877611,549.362001 C116.003528,551.238528 115.252917,554.232443 113.376389,553.857137 C113.001084,553.857137 109.631863,550.479388 105.878808,546.359557 C100.63306,540.738503 99.1318382,538.861976 99.8824493,537.736059 C101.008366,535.859531 101.758977,535.484226 102.509588,536.610142 C103.260199,537.736059 111.508391,540.729974 112.634308,540.354668 C113.384919,539.979362 118.255361,539.604057 124.25172,539.604057 C129.872773,539.604057 135.118521,539.228751 135.493826,539.228751 C135.869132,539.228751 136.619743,536.226307 136.619743,533.232393 C136.995049,529.854643 137.74566,523.107673 138.496271,517.48662 C139.246882,512.240872 139.622187,506.244513 139.246882,504.743291 C138.120965,500.248154 134.001134,494.993877 131.749301,495.369182 C130.623384,495.369182 121.999887,500.990236 112.259002,507.3619 C97.2638402,517.48662 94.6367015,519.354618 93.8946201,521.606451 C93.5193146,523.107673 93.8946201,524.984201 94.2699257,526.101588 C95.0205367,527.60281 94.6452312,528.353421 93.5193146,529.104032 C92.393398,529.479337 91.6427869,529.854643 91.2674814,529.479337 C90.8921759,529.104032 85.6464281,520.85584 79.2747638,511.114955 C72.9030994,501.365541 67.6573516,493.117349 67.2820461,493.117349 C67.2820461,492.742044 69.5338793,490.865516 72.9030994,488.622212 C77.3982361,485.619768 79.2747638,484.877687 80.4006804,485.619768 C82.277208,486.745685 82.6525135,487.496296 81.1512914,488.246907 C79.2747638,488.997518 77.0314602,496.870404 77.7735416,499.489013 C78.1488472,500.990236 80.0253748,504.359456 82.6439839,507.3619 C86.763815,512.607648 86.763815,512.982953 89.0156482,511.106426 C90.1415648,510.355815 93.1354794,508.103981 95.7626181,506.611289 C104.761421,500.990236 104.761421,500.61493 102.884894,498.363097 C97.6391458,491.991433 96.8885347,491.616127 92.0180925,492.366738 C89.0156482,493.117349 87.5229558,492.742044 86.7723447,491.991433 C86.0217337,490.49021 85.6464281,490.865516 101.392201,480.749326 C105.887338,477.746882 106.262643,477.746882 107.013254,479.623409 C107.763865,480.749326 107.38856,481.875243 105.512032,483.367935 C101.767507,486.370379 101.392201,489.364294 104.386116,494.234736 C105.887338,496.486569 107.38856,498.354567 107.763865,498.729873 C109.265088,499.105178 125.386166,487.487766 125.761472,485.986544 C126.136777,484.110016 120.140418,474.369132 116.762669,470.991382 C115.261446,469.49016 113.018143,468.739549 109.640393,468.739549 C107.013254,468.739549 104.394645,469.114854 104.01934,469.49016 C102.893423,469.865466 99.1488976,468.739549 98.773592,467.988938 C98.3982865,467.238327 113.393448,457.864218 114.519365,458.239524 C114.894671,458.239524 120.891029,467.613632 128.013305,478.855739 C136.636802,492.349679 142.633161,500.597871 145.2603,503.225009 L149.380131,507.344841 L147.878909,517.094255 C146.377687,527.218974 144.876465,542.214136 145.25177,543.331523 C145.25177,543.706829 147.878909,541.454996 150.497518,538.836387 C153.124657,535.833942 156.493877,532.464722 157.619793,531.338806 C160.997543,527.59428 161.364319,526.468363 159.121015,523.465919 C157.244488,521.214086 157.244488,520.83878 158.74571,520.088169 C160.246932,519.337558 161.748154,520.088169 166.618596,525.709223 C169.996346,529.086972 173.740872,533.206804 174.866788,534.33272 C177.493927,535.833942 177.493927,535.833942 176.368011,537.335164 C175.6174,538.085775 175.242094,538.461081 174.866788,538.461081 C174.866788,538.461081 173.740872,537.335164 172.23965,536.584553 C170.738428,535.458637 169.237205,535.083331 168.119819,535.833942 C165.49268,536.959859 138.880106,562.446516 136.628273,565.448961 C135.510886,566.975772 135.510886,568.852299 136.261497,571.479438 Z M177.118622,601.094456 C167.369208,601.094456 157.628323,595.848709 153.875268,588.351128 C153.124657,586.849906 151.99874,586.099294 151.248129,586.4746 C150.497518,586.849906 148.996296,586.4746 148.245685,586.099294 C146.744463,584.973378 147.119768,583.847461 152.365516,575.974575 C157.611264,567.726383 158.361875,566.975772 159.863097,567.726383 C161.364319,568.476994 161.364319,569.227605 160.613708,571.846214 C158.73718,577.467267 158.73718,584.964848 160.613708,588.342598 C162.865541,593.21304 169.237205,595.840179 175.233564,594.714262 C187.976893,592.462429 201.470833,572.972131 198.852224,560.604107 C197.351002,553.857137 192.480559,548.61139 185.73359,547.485473 C181.238453,546.734862 179.737231,547.110168 175.60887,548.986695 C171.113733,551.238528 170.738428,551.238528 169.612511,548.986695 C168.486594,546.734862 168.486594,546.734862 173.732342,544.491559 C181.605229,541.489114 188.352199,541.86442 196.600391,546.743392 C199.97814,548.619919 201.470833,550.487917 204.097972,554.991584 C206.349805,558.369334 207.842497,562.113859 207.842497,563.239776 C209.343719,572.98919 205.96597,583.10538 198.843694,590.978266 C193.2397,596.966096 184.616203,601.094456 177.118622,601.094456 Z M259.216707,611.585952 C255.472181,619.834144 251.719126,623.953975 244.59685,627.70703 C237.099269,631.451556 232.979438,632.202167 224.731246,629.583558 C212.363223,625.463727 204.115031,616.464924 204.865642,604.838982 C205.991559,589.84382 214.239751,581.220323 218.734887,576.725186 C223.980635,570.728827 242.353547,569.227605 252.094431,577.100491 C257.715484,581.595628 262.219151,590.219126 262.219151,596.59079 C262.219151,604.088371 261.843845,605.589593 259.216707,611.585952 Z M328.187628,598.092012 C326.3111,598.092012 324.443102,598.842623 323.692491,599.217929 C322.191269,600.719151 315.444299,642.326887 316.570215,644.57872 C316.945521,645.329331 318.446743,646.455248 319.947965,647.205859 C322.199798,647.95647 322.575104,648.331775 322.199798,650.208303 C321.824493,652.084831 320.698576,652.084831 310.207081,649.832997 C303.835416,648.707081 298.214363,647.205859 297.839058,646.455248 C297.463752,645.329331 298.214363,644.954025 303.835416,643.452803 C308.705859,640.075054 306.462555,638.957667 307.579942,631.835391 L309.081164,623.962505 L296.337835,622.085977 L283.594507,620.209449 L282.093285,628.832947 C280.592062,638.207056 280.967368,640.450359 285.095729,641.951581 C287.347562,642.702192 287.722868,643.077498 286.972257,644.57872 C286.596951,645.704637 283.594507,645.704637 274.228928,644.57872 C263.728903,643.077498 262.23621,642.702192 262.611516,641.20097 C262.986821,639.699748 263.737432,639.324442 265.61396,639.324442 C266.739877,639.324442 268.616404,638.949137 269.358486,638.573831 C270.484402,638.198526 277.231372,602.962454 277.981983,595.464873 C278.357289,592.087124 277.606678,591.345042 274.604233,590.219126 C271.601789,589.093209 270.484402,586.099294 273.103011,586.099294 C273.853622,586.099294 279.474676,586.849906 285.471034,587.600517 C295.220449,589.101739 296.337835,589.477044 295.595754,590.978266 C295.220449,592.479488 294.469837,592.854794 293.343921,592.479488 C289.22409,591.353572 287.722868,593.605405 286.221645,604.847512 L284.720423,615.714313 L297.463752,617.966146 L310.207081,619.842674 L310.582386,617.215535 C312.458914,607.466121 313.209525,598.475847 312.834219,597.349931 C312.458914,596.59932 310.957692,595.473403 309.45647,595.098098 C306.829331,594.347486 306.829331,593.972181 307.204637,592.470959 C307.955248,590.594431 309.081164,590.594431 319.197354,592.470959 C331.190072,594.722792 331.565377,594.722792 331.565377,596.966096 C331.565377,598.092012 330.814766,598.092012 328.187628,598.092012 Z M102.236639,338.5 C102.236639,208.013091 208.013091,102.236639 338.5,102.236639 C468.986909,102.236639 574.763361,208.013091 574.763361,338.5 C574.763361,468.986909 468.986909,574.763361 338.5,574.763361 C208.013091,574.763361 102.236639,468.986909 102.236639,338.5 Z M412.264596,633.93369 L406.805607,635.059607 L403.769044,620.380043 L389.737735,623.280131 L388.637407,617.949087 L402.668716,615.048998 L399.657742,600.497379 L405.116732,599.371463 L408.127706,613.923082 L422.159015,611.022994 L423.259342,616.345508 L409.228033,619.245597 L412.264596,633.93369 Z M526.118647,579.352325 C525.368036,584.222767 524.99273,586.849906 520.122288,594.347486 C517.495149,598.467318 508.504876,603.721595 503.625904,604.472206 C500.62346,604.847512 499.881378,605.222817 499.130767,607.099345 C498.380156,608.975872 496.878934,610.477095 496.503629,609.726484 C496.503629,609.351178 493.87649,605.981958 490.50727,601.478292 C486.012133,595.106627 484.886216,593.605405 485.636828,592.479488 C486.762744,590.602961 487.13805,590.602961 490.50727,593.2301 C492.383797,594.731322 495.753018,596.607849 498.380156,597.725236 C502.499987,599.226458 503.625904,599.226458 508.12957,597.349931 C513.375318,595.098098 516.753068,591.728877 518.25429,587.600517 C519.755512,583.480685 518.25429,575.983104 514.87654,569.236135 C506.628348,553.490362 495.010936,547.118697 484.135605,552.739751 C481.133161,554.240973 478.514552,556.1175 477.01333,558.360804 C474.761497,561.363248 474.761497,561.738554 477.763941,566.608996 C481.508467,573.355966 484.135605,574.857188 488.630742,572.605355 C491.633186,571.104133 492.375268,571.104133 493.125879,572.605355 C493.501184,573.731271 493.501184,574.481882 492.750573,574.857188 C491.999962,575.232493 487.880131,578.234938 483.001159,581.228852 C472.134358,588.726433 472.501134,588.726433 471.383747,586.4746 C470.633136,585.348683 471.008441,583.847461 472.509664,582.354769 C473.63558,581.228852 474.761497,579.72763 474.386191,578.977019 C474.386191,578.226408 472.509664,575.232493 470.26636,571.854744 C465.771223,565.107774 465.771223,564.732468 469.891055,559.111415 C477.01333,549.737306 485.261522,544.866864 495.010936,544.491559 C502.883823,544.116253 505.877737,544.866864 512.633237,549.737306 C519.380207,554.607749 525.00126,563.231246 526.127177,571.479438 C526.493952,574.098047 526.493952,577.851102 526.118647,579.352325 Z M572.972131,547.860779 C560.604107,560.604107 555.725135,563.981857 548.978166,563.231246 C544.858334,562.855941 544.107723,562.480635 539.979362,558.360804 C536.976918,554.983054 535.859531,548.986695 537.727529,543.365642 L539.228751,538.4952 L535.484226,538.119894 C533.232393,537.744589 527.611339,537.369283 522.740897,536.618672 C515.618622,535.868061 512.991483,535.868061 509.246957,537.369283 C505.127126,538.870505 502.875293,538.870505 502.124682,537.369283 C502.124682,536.993978 504.376515,534.366839 507.37043,530.997619 C512.616177,525.751871 512.991483,525.376565 515.618622,526.127177 C533.983004,530.622313 543.732418,531.372924 546.734862,528.37901 L548.61139,526.502482 L542.239725,520.506123 C533.991533,513.008542 533.240922,512.633237 529.496397,515.260375 C527.244563,516.761598 526.118647,517.136903 525.376565,516.386292 C524.625954,515.635681 524.250649,515.260375 524.250649,514.88507 C524.250649,514.509764 528.37048,510.389933 533.249452,505.510961 C539.996422,498.763991 542.248255,496.887464 543.374172,497.638075 C545.250699,498.763991 545.250699,499.139297 542.998866,501.757906 C541.497644,503.634434 541.122338,504.76035 541.872949,506.253043 C542.248255,507.378959 550.121141,514.87654 558.744639,523.124732 L574.490412,538.119894 L577.868162,536.243367 C580.870606,534.742144 583.11391,534.742144 583.864521,536.243367 C583.472156,536.618672 578.601713,541.86442 572.972131,547.860779 Z M615.339007,487.504826 C609.717954,496.503629 608.592037,498.004851 607.466121,496.878934 C606.340204,496.128323 606.340204,495.002406 607.090815,492.383797 C607.841426,489.756659 607.841426,488.639272 606.340204,487.13805 C602.220373,483.393524 577.851102,469.140443 573.731271,468.398362 C566.608996,466.521834 560.237331,471.025501 557.234887,479.640469 C555.733665,484.510911 557.985498,490.882575 562.480635,494.260325 C566.975772,497.262769 582.721545,506.628348 587.225211,508.880181 C592.470959,511.132015 594.722792,511.132015 597.725236,507.378959 C599.977069,504.751821 600.352375,504.751821 601.469762,505.502432 C602.970984,507.003654 602.970984,506.628348 596.224014,518.24576 C591.353572,526.118647 590.227655,527.619869 589.101739,526.869258 C587.975822,526.118647 587.975822,524.99273 588.726433,522.374121 C589.477044,520.497594 589.477044,518.25429 589.101739,517.503679 C588.351128,515.627151 580.853547,510.756709 570.737357,505.135656 C558.369334,498.388686 556.492806,496.512158 553.865667,491.641716 C548.619919,481.516996 554.616278,466.89714 565.858385,461.276087 C573.731271,457.156256 577.851102,458.273642 596.224014,469.899584 C604.472206,475.145332 611.969787,478.898387 612.720398,478.898387 C613.846315,478.898387 615.347537,477.772471 616.464924,476.646554 C617.966146,475.145332 618.716757,474.770026 619.842674,475.895943 C621.710672,476.638024 620.96006,478.139247 615.339007,487.504826 Z M651.32569,370.179199 C648.698551,389.669497 644.954025,396.791773 637.081139,398.6683 C629.958864,400.169522 622.836588,395.665856 620.209449,387.801499 L618.708227,383.681668 L608.583508,388.927416 C602.962454,391.92986 597.341401,394.923775 595.840179,396.049691 C593.21304,398.301525 589.093209,407.667103 590.219126,408.79302 C592.095653,410.669548 631.826862,424.163487 634.078695,423.788182 C635.204611,423.412876 637.081139,422.28696 637.82322,420.785738 C638.949137,418.90921 639.699748,418.533904 640.825665,418.90921 C641.951581,419.284516 641.20097,423.404347 637.081139,435.030289 C634.078695,443.278481 631.08478,451.151367 630.334169,452.277284 C627.70703,456.021809 621.335366,458.273642 617.215535,457.523031 C611.594482,456.397115 608.592037,452.652589 607.466121,446.65623 L606.71551,441.410483 L605.214288,444.037621 C604.463676,445.538843 601.836538,447.782147 599.96854,448.908064 C590.219126,455.279728 578.601713,448.908064 577.475797,436.915346 C577.475797,434.663513 579.72763,424.922628 583.09685,414.797909 C586.4746,404.673189 589.093209,394.181693 589.468515,391.92986 L589.84382,387.434723 L595.464873,385.18289 C598.467318,384.056974 604.838982,380.687754 609.709424,378.060615 C617.582311,373.565478 618.332922,372.814867 618.332922,370.563034 C618.332922,368.311201 617.207005,368.311201 608.958813,367.185284 C603.713065,366.434673 599.209399,366.434673 598.458788,366.809979 C597.708177,367.185284 596.957566,368.686506 596.206955,370.187728 C595.831649,371.68895 594.705733,372.814867 593.579816,373.190173 C591.703288,373.565478 591.703288,374.316089 593.579816,358.945622 C594.330427,351.823346 594.705733,343.199849 593.955122,337.20349 C593.204511,328.204687 593.204511,327.07877 595.081038,327.07877 C596.58226,327.07877 597.332871,327.829381 598.458788,330.823296 L599.96001,334.567822 L606.70698,330.823296 L613.45395,327.07877 L612.703339,317.704662 L611.952728,308.330553 L607.832897,307.204637 C605.581063,306.829331 602.211843,306.07872 600.710621,306.07872 C597.708177,306.07872 597.708177,306.07872 596.59079,310.573857 C594.714262,318.071438 593.21304,315.444299 592.095653,303.451581 C590.969737,291.834169 590.594431,289.20703 586.849906,277.964924 C584.973378,272.34387 584.973378,270.842648 586.4746,270.467343 C587.975822,269.716732 588.351128,270.092037 589.85235,272.719176 C590.602961,274.595704 592.104183,276.096926 592.854794,276.463702 C593.980711,277.214313 630.718004,265.963676 631.09331,264.84629 C614.972231,262.594456 598.484377,262.219151 582.363298,259.600542 C581.987993,258.849931 583.489215,256.973403 585.365743,255.480711 C587.617576,253.979488 596.607849,246.481908 605.606652,239.359632 L622.103036,226.240998 L607.48318,230.736135 C599.234988,233.363273 590.61149,236.357188 587.617576,237.483104 C583.122439,239.734938 582.371828,240.485549 581.996523,243.104158 C581.621217,244.980685 581.621217,246.848683 581.996523,247.599294 C582.747134,249.100517 581.996523,249.475822 579.744689,249.475822 C578.618773,249.475822 577.492856,246.848683 574.874247,238.609021 C572.99772,232.612662 571.496497,227.74222 571.496497,227.366914 C571.496497,227.366914 571.871803,226.991609 572.622414,226.616303 C573.373025,226.240998 574.498942,226.991609 575.249553,228.492831 C576.000164,229.994053 577.876691,231.495275 579.744689,232.237357 C582.371828,233.363273 584.615132,232.987968 601.486821,227.366914 C622.103036,220.99525 623.979564,219.869334 623.604259,214.24828 C623.604259,212.747058 623.604259,211.245836 623.604259,210.87053 C623.604259,210.87053 624.35487,210.495225 625.480786,210.495225 C626.982008,210.119919 627.357314,210.87053 630.351228,220.99525 C631.477145,225.115081 632.603062,228.868137 632.603062,228.868137 C632.603062,229.243442 609.735013,245.739826 600.360905,253.237407 L639.725337,259.609071 C641.601865,258.85846 642.727781,260.734988 645.34639,269.358486 C647.973529,278.357289 647.598224,281.351203 644.220474,276.105455 C643.469863,274.604233 641.968641,273.478317 641.218029,273.103011 C640.467418,273.103011 629.975923,275.73015 618.349981,279.474676 C601.853597,284.720423 596.983155,286.596951 596.232544,287.722868 C595.106627,290.350006 596.232544,295.97106 598.484377,297.847587 C599.610294,298.598198 608.609097,302.342724 619.100592,305.345168 C629.600617,308.722918 641.218029,312.467444 645.337861,313.59336 C651.709525,315.469888 652.835442,316.220499 652.460136,318.088497 C652.084831,319.965025 649.832997,321.090941 627.71556,331.207131 C611.594482,338.704712 602.595678,342.824543 601.478292,344.325765 C599.601764,346.577599 598.100542,352.573957 599.226458,354.825791 C599.977069,356.327013 644.211944,363.449288 646.455248,362.323372 C646.830553,361.948066 647.95647,360.446844 648.707081,358.578846 C649.832997,355.951707 650.583608,355.201096 651.709525,355.576402 C652.818382,355.934648 652.818382,359.679173 651.32569,370.179199 Z" id="Shape"></path>
                <path d="M551.605304,530.613784 C550.104082,529.863172 544.858334,536.610142 544.107723,539.987892 C543.357112,545.608945 547.485473,552.355915 553.481832,554.232443 C556.484276,554.983054 563.231246,551.98061 565.849855,548.236084 L567.726383,545.608945 L559.853496,538.111364 C556.108971,534.366839 552.355915,530.989089 551.605304,530.613784 Z" id="Path"></path>
            </g>
            <path d="M195.505189,260.881911 C196.632265,266.493028 198.510726,270.988734 199.629263,270.988734 C202.259108,270.988734 208.261642,257.893288 208.261642,252.282171 C208.261642,245.172485 213.512792,247.79498 218.396789,256.769362 C220.650941,261.256553 227.40486,270.239449 232.65601,276.225209 C237.90716,282.210968 243.534003,291.193865 245.036771,296.43034 C247.290923,304.28931 246.539539,307.277933 240.537005,315.136903 C232.65601,325.618368 220.650941,327.857706 212.769947,319.998736 C206.767412,314.387619 207.143104,312.514408 213.897023,306.154006 C221.026633,299.793605 221.026633,296.421826 213.897023,296.421826 C205.640336,296.421826 197.007957,306.528649 197.007957,315.877673 C197.007957,325.609853 207.518796,337.956015 218.021097,340.578509 C239.785621,345.814985 264.555681,329.356275 266.801295,307.652575 C267.928371,297.17111 266.425602,292.309277 259.671684,280.7124 C233.031702,235.43179 230.026166,226.082766 237.90716,208.116973 C247.666615,186.038631 276.185057,177.055734 299.076657,189.41041 C314.087262,197.644022 324.589563,213.736605 324.589563,229.071388 C324.965255,237.679642 323.838179,239.552853 318.962721,239.552853 C298.325273,239.552853 296.071121,259.757984 316.332876,262.755121 C322.711103,263.504406 323.462487,265.002974 324.213871,281.836326 C325.340947,308.401859 320.832642,316.260829 301.322271,322.621231 C298.692427,323.370515 296.446813,325.618368 296.446813,327.108422 C296.446813,328.981633 309.203266,330.105559 330.216405,330.480201 C348.975392,330.854843 366.991534,331.229485 370.364224,331.229485 C373.736914,331.229485 376.742451,329.730917 377.493835,327.857706 C378.245219,325.984496 376.742451,324.485927 374.112606,324.485927 C371.482762,324.485927 365.855919,320.74802 361.731845,316.626957 C354.977927,309.517271 354.226543,306.520134 353.475159,285.565718 L352.723775,262.36345 L360.980461,262.36345 C378.245219,262.36345 377.869527,246.270868 360.604769,239.910466 C354.226543,237.662613 352.723775,235.423275 352.723775,227.564305 C352.723775,215.218144 358.726309,200.249488 366.607304,193.139802 C375.615374,184.90619 401.879664,183.782263 416.138885,190.517307 C432.276567,198.376277 438.654793,208.108458 438.654793,227.564305 C439.030485,242.158319 437.527717,246.270868 425.146956,266.109871 C416.514577,280.329243 410.887735,292.300762 410.136351,300.159732 C407.882199,319.615579 419.895806,336.832088 438.279101,341.319279 C443.530251,342.443206 448.414248,343.567132 448.78994,343.941774 C449.541324,344.316416 454.792474,342.817848 460.795009,341.319279 C474.302846,337.581372 481.056764,327.474549 478.81115,315.503031 C476.181306,303.906154 472.057232,299.035806 463.800545,299.035806 C457.422319,299.035806 457.046627,299.035806 461.546393,305.77085 C466.797543,313.62982 463.800545,322.238074 454.04109,327.474549 C449.165632,330.097044 446.535788,329.722402 440.533253,325.226697 C436.409179,321.854918 431.900875,316.2438 430.398106,312.131251 C427.016878,302.399071 430.773798,294.914743 451.035554,269.473136 L466.43039,250.025804 L470.930156,259.383342 C476.556998,270.605577 482.559532,273.602714 482.559532,264.99446 C482.559532,261.62268 486.683607,252.273656 491.943295,244.040044 C508.080977,218.598438 508.080977,200.258002 491.567603,178.17966 C483.310916,166.957426 460.795009,154.977392 445.033019,152.738054 C432.652259,150.864843 425.522648,151.98877 378.988064,162.844877 C348.966854,169.954563 323.453948,168.830636 282.921899,159.473098 C248.776614,151.614128 222.128094,151.614128 204.871875,159.473098 C176.729125,172.193901 167.721054,217.474511 187.98281,243.665402 C190.996885,247.786465 194.378113,255.270793 195.505189,260.881911 Z" id="Path" fill="#2D2E83"></path>
            <path d="M553.347704,325.848173 C545.095805,319.115087 540.974123,320.238687 483.594842,348.294629 C457.721258,360.6372 436.344831,371.115618 435.593882,371.115618 C434.842934,371.115618 413.466506,381.594035 387.592922,393.936607 C361.719338,406.653711 340.342911,416.757596 339.591962,416.757596 C338.841014,416.757596 293.45984,394.685673 238.333404,367.378798 C183.206969,340.446456 136.323898,318 134.071053,318 C131.818208,318 128.447473,319.872666 126.570103,322.111353 C118.318204,332.589771 125.44368,337.45019 216.206028,383.458189 C265.333411,407.777311 306.217428,429.100167 306.584369,430.589788 C307.710792,433.586053 308.46174,433.21152 264.206988,454.159843 C244.707932,463.514661 224.824867,470.996813 220.327711,470.996813 C210.573916,470.996813 203.44844,463.889194 199.702232,450.423023 C196.698438,439.204051 189.197488,435.084186 180.203175,439.944606 C173.077699,443.681425 172.702225,450.423023 178.701278,464.638261 C184.324858,478.478965 190.323911,484.462984 203.832448,491.570603 C216.581503,497.929155 237.206982,497.180088 248.462673,489.697937 C251.841941,487.076204 273.960783,476.231766 297.590056,465.378815 L339.967437,445.554092 L387.592922,469.873213 C413.841981,483.339384 438.97315,495.307422 443.845781,496.431022 C467.099579,502.415041 491.84674,490.821536 501.600535,469.49868 C507.224115,457.905175 507.224115,455.283443 504.228855,448.550357 C497.478853,434.709653 479.47316,438.07194 479.47316,453.410777 C479.097685,462.391061 477.220315,466.127881 468.968416,470.247746 C458.463673,475.482699 453.591042,473.984566 412.340084,453.78531 C375.961756,435.82474 363.96365,427.976567 371.840074,427.976567 C375.586282,427.976567 414.968403,410.015998 466.724105,385.330855 C486.97411,375.601504 513.607176,362.884399 526.35623,356.90038 C540.982656,350.167295 551.4874,343.434209 554.48266,338.57379 C559.346757,331.083126 559.346757,330.708593 553.347704,325.848173 Z" id="Path" fill="#2D2E83"></path>
            <path d="M341,486.010907 C330.059682,486.010907 321,494.690377 321,506.005454 C321,516.942788 329.681838,526 341,526 C351.940318,526 361,517.32053 361,506.005454 C361,494.690377 351.940318,485.641751 341,486.010907 Z" id="Path" fill="#2D2E83"></path>
        </g>
    </g>
</svg>