<?xml version="1.0" encoding="utf-8"?>
<svg width="693px" height="596px" viewBox="0 0 693 596" version="1.1" xmlns="http://www.w3.org/2000/svg" xmlns:xlink="http://www.w3.org/1999/xlink">
    <defs>
        <rect id="path-fadl85u0dj-1" x="0" y="0" width="205" height="421"></rect>
        <rect id="path-fadl85u0dj-3" x="0" y="0" width="205" height="421"></rect>
        <rect id="path-fadl85u0dj-5" x="0" y="0" width="205" height="421"></rect>
        <rect id="path-fadl85u0dj-7" x="0" y="0" width="205" height="421"></rect>
    </defs>
    <g id="Hessen" stroke="none" stroke-width="1" fill="none" fill-rule="evenodd">
        <g id="388-TSV" transform="translate(0.000000, -49.000000)">
            <g id="Group" transform="translate(116.000000, 49.000000)" fill-rule="nonzero">
                <path d="M231,592.93635 C105.305732,592.93635 3.06278435,490.664516 3.06278435,364.934738 L3.06278435,3.06364965 L458.937216,3.06364965 L458.937216,364.934738 C458.937216,490.664516 356.694268,592.93635 231,592.93635 Z" id="Path" fill="#BCBEC0"></path>
                <path d="M455.874431,6.1272993 L455.874431,364.934738 C455.874431,488.982513 354.982712,589.872701 231,589.872701 C107.017288,589.872701 6.1255687,488.982513 6.1255687,364.934738 L6.1255687,6.1272993 L455.874431,6.1272993 M462,0 L0,0 L0,364.934738 C0,492.556771 103.414013,596 231,596 C358.585987,596 462,492.556771 462,364.934738 L462,0 L462,0 Z" id="Shape" fill="#000000"></path>
            </g>
            <g id="Group" transform="translate(32.000000, 51.000000)" fill-rule="nonzero">
                <g>
                    <path d="M60.1921058,563.908855 C50.3631403,563.908855 41.8867846,561.928122 36.3561129,558.356799 C22.2288535,549.203409 6.86921616,536.508707 3.41254632,501.515747 C1.81947239,485.4598 5.18596824,471.954798 12.8808159,463.491664 C18.0808497,457.759541 25.1444794,454.578362 32.689037,454.578362 C33.680951,454.578362 34.672865,454.638385 35.6647789,454.728418 C40.7145227,455.268618 44.3515405,457.039274 46.8162964,460.16043 C50.5735463,464.902186 51.6556342,472.795109 50.1226763,484.289366 C48.1087904,499.565024 48.4394283,509.978881 56.284566,514.720637 C58.7493219,516.221193 61.5146578,516.971471 64.4903996,516.971471 C71.4638553,516.971471 77.2951071,512.769915 77.5656291,512.589848 L77.7159191,512.469804 L352.055273,256.805113 L366.903924,249.962579 L637.245565,7.50277881 C637.486029,7.26268989 641.483742,3.09114487 646.443312,3.09114487 C649.268764,3.09114487 652.004042,4.50166728 654.558972,7.292701 C657.053786,10.0237125 658.19599,12.7847351 657.925468,15.4857355 C657.474598,20.4675806 652.63526,24.1589478 652.575144,24.1889589 L652.424854,24.3090033 L391.401193,277.032605 L383.556056,291.347907 L109.336934,546.892553 C96.5622842,557.486476 78.1367311,563.908855 60.1921058,563.908855 Z" id="Path" fill="#BCBEC0"></path>
                    <path d="M646.413254,6.12226751 C648.367024,6.12226751 650.290736,7.17265654 652.274564,9.33345684 C655.100016,12.4246017 654.919668,14.4953687 654.859552,15.1556132 C654.58903,18.1267136 651.763578,20.9177473 650.741606,21.6980363 L650.410968,21.9381252 L650.110388,22.2082253 L389.537597,274.451649 L388.876321,275.081882 L388.425452,275.892182 L381.031184,289.367173 L107.29299,544.461652 C94.9692103,554.695443 77.3852811,560.81771 60.1620478,560.81771 C51.0244162,560.81771 42.9688726,558.987032 38.0093028,555.745832 C24.4832034,546.982586 9.78484204,534.828084 6.44840418,501.155613 C4.94550425,485.969989 8.04147811,473.305298 15.1351658,465.472397 C19.7640976,460.370508 25.9861033,457.579474 32.689037,457.579474 C33.560719,457.579474 34.432401,457.639496 35.3341409,457.729529 C39.5122027,458.179696 42.4879446,459.560207 44.3815985,461.991108 C47.5376884,466.012597 48.4394283,473.36532 47.0567604,483.8392 C44.8925845,500.345313 45.4035705,511.689515 54.6914921,517.271582 C57.6371759,519.042238 60.9435558,519.942571 64.4603416,519.942571 C72.2754213,519.942571 78.617659,515.470915 79.339051,514.960726 L79.639631,514.750648 L79.910153,514.510559 L353.768579,259.326047 L367.745548,252.873657 L368.587172,252.483512 L369.278506,251.853279 L639.259451,9.69359022 L639.469857,9.51352353 L639.650205,9.30344572 C639.710321,9.33345684 642.896468,6.12226751 646.413254,6.12226751 M646.413254,0 C640.010901,0 635.171563,5.19192293 635.171563,5.19192293 L365.190619,247.351612 L350.311909,254.194146 L75.7621492,510.098926 C75.7621492,510.098926 70.5621154,513.910337 64.4903996,513.910337 C62.3262237,513.910337 60.0418158,513.430159 57.8776399,512.10967 C52.1666202,508.658392 51.0244162,500.975546 53.1585341,484.709522 C55.2926521,468.443498 53.0984181,453.527973 35.9954169,451.727306 C34.8832709,451.607262 33.801183,451.54724 32.719095,451.54724 C13.8426719,451.54724 -2.83951741,469.04372 0.406746447,501.845869 C3.8333583,536.538718 18.7721836,550.643942 34.7329809,560.967766 C40.8046967,564.899222 49.9122703,567 60.2221638,567 C76.9043531,567 96.6224002,561.477955 111.380878,549.113375 L385.960696,293.238607 L393.835891,278.893294 L654.378624,26.6198592 C654.378624,26.6198592 667.513969,16.926269 656.783264,5.22193405 C653.206362,1.32048907 649.599402,0 646.413254,0 L646.413254,0 Z" id="Shape" fill="#000000"></path>
                </g>
                <ellipse id="Oval" stroke="#000000" stroke-width="1.0016" fill="#000000" cx="645.481456" cy="16.6861801" rx="11.3018075" ry="11.2841793"></ellipse>
                <polygon id="Path" fill="#BCBEC0" points="368.406824 251.373101 638.417827 9.21341237 651.402882 23.1085587 390.830091 275.381993"></polygon>
            </g>
            <g id="Group" transform="translate(0.000000, 51.000000)" fill-rule="nonzero">
                <g>
                    <path d="M600.781111,563.968556 C582.837286,563.968556 564.442611,557.545498 551.578361,546.800381 L277.49169,291.348737 L269.646902,277.03192 L8.60482042,24.2815626 L8.45453712,24.1615055 C8.42448047,24.1314912 3.58535841,20.4397332 3.10445187,15.4573606 C2.8639986,12.7560743 3.97609497,9.99475941 6.47079765,7.26345879 C9.02561364,4.47212959 11.7607696,3.06145784 14.5860955,3.06145784 C19.5153875,3.06145784 23.5429798,7.2334445 23.5730365,7.29347308 L294.082965,249.989042 L308.930955,256.832301 L583.258079,512.524059 L583.408362,512.644116 C583.648816,512.824202 589.509864,517.026203 596.483009,517.026203 C599.458618,517.026203 602.223831,516.275846 604.688477,514.775131 C612.533265,510.032873 612.863888,499.617913 610.850092,484.340638 C609.347259,472.845164 610.429299,464.951405 614.156324,460.209147 C616.62097,457.087661 620.257826,455.316818 625.307345,454.77656 C626.299214,454.656503 627.291084,454.626489 628.282954,454.626489 C635.857232,454.626489 642.89049,457.77799 648.090292,463.540734 C655.784797,472.004764 659.151142,485.511196 657.55814,501.568842 C654.101624,536.595522 638.742671,549.261553 624.616042,558.415912 C619.085616,561.987613 610.609639,563.968556 600.781111,563.968556 Z" id="Path" fill="#BCBEC0"></path>
                    <path d="M14.5860955,6.12291567 C17.5617047,6.12291567 20.4772006,8.49404478 21.3187871,9.36445927 L21.499127,9.57455931 L21.7095236,9.75464507 L291.678433,251.939971 L292.369736,252.570272 L293.211322,252.960457 L307.187668,259.41353 L581.033886,514.62506 L581.304396,514.865174 L581.604963,515.075274 C582.296266,515.585517 588.638221,520.057646 596.483009,520.057646 C600.029695,520.057646 603.305871,519.157218 606.251423,517.386374 C615.538931,511.803716 616.049894,500.428299 613.885814,483.950453 C612.503208,473.475465 613.404908,466.121963 616.560857,462.100048 C618.484483,459.66889 621.430036,458.288232 625.607911,457.838018 C626.479554,457.747975 627.381254,457.687947 628.252897,457.687947 C634.955532,457.687947 641.177261,460.50929 645.805986,465.581706 C652.899357,473.415436 655.995193,486.081467 654.49236,501.268699 C651.156071,534.944736 636.458365,547.100524 622.932869,555.864697 C617.97352,559.076227 609.888279,560.937113 600.781111,560.937113 C583.588702,560.937113 565.9755,554.814197 553.65227,544.579323 L279.926279,289.457837 L272.532341,275.98142 L272.081491,275.171034 L271.420245,274.540734 L10.8891265,22.2405908 L10.5885599,21.9704621 L10.31805,21.7603621 C9.26606691,20.9499762 6.41068433,18.1886613 6.17023106,15.187232 C6.11011774,14.4969033 5.92977779,12.4559314 8.75510371,9.36445927 C10.7388432,7.17341591 12.6324127,6.12291567 14.5860955,6.12291567 M14.5860955,0 C11.4000897,0 7.79329063,1.29061458 4.21654824,5.19247261 C-6.51367894,16.8980467 6.62108094,26.5926632 6.62108094,26.5926632 L267.182256,278.862792 L275.0571,293.209624 L549.624678,549.111482 C564.382497,561.47737 584.129722,567 600.781111,567 C611.090545,567 620.197713,564.899 626.269158,560.967127 C642.199187,550.642211 657.167403,536.535493 660.593862,501.838971 C663.839981,469.033349 647.128479,451.535017 628.282954,451.535017 C627.200914,451.535017 626.088818,451.595045 625.006778,451.715102 C607.934596,453.51596 605.710403,468.433063 607.844426,484.70081 C609.978449,500.968556 608.836296,508.68223 603.125531,512.103859 C600.931394,513.424488 598.677145,513.904717 596.513066,513.904717 C590.471677,513.904717 585.241819,510.092901 585.241819,510.092901 L310.674241,254.191043 L295.796195,247.347785 L25.8272859,5.2224869 C25.8272859,5.2224869 20.9881638,0 14.5860955,0 L14.5860955,0 Z" id="Shape" fill="#000000"></path>
                </g>
                <ellipse id="Oval" stroke="#000000" stroke-width="1.0016" fill="#000000" cx="15.5178519" cy="16.6879466" rx="11.3013037" ry="11.285374"></ellipse>
                <polygon id="Path" fill="#BCBEC0" points="292.580132 251.399714 22.5811667 9.2143878 9.62674682 23.1110052 270.157865 275.411148"></polygon>
            </g>
            <path d="M551,413.779559 C551,527.136273 459.211644,619 346.015013,619 C232.818382,619 141,527.106212 141,413.779559 L141,79 L551,79 L551,413.779559 Z" id="Path" fill="#FFFFFF" fill-rule="nonzero"></path>
            <polygon id="Path" fill="#BCBEC0" fill-rule="nonzero" points="201 539.03413 138.672875 597 112 566.96587 174.327125 509"></polygon>
            <polygon id="Path" fill="#BCBEC0" fill-rule="nonzero" points="491 539.03413 553.348238 597 580 566.96587 517.651762 509"></polygon>
            <path d="M536.737825,93.279352 L536.737825,413.798196 C536.737825,519.10466 451.164775,604.75071 346.015013,604.75071 C240.865251,604.75071 155.262175,519.074598 155.262175,413.798196 L155.262175,93.279352 L536.737825,93.279352 M551,79 L141,79 L141,413.768134 C141,527.131158 232.788356,619 345.984987,619 C459.181618,619 550.969974,527.101097 550.969974,413.768134 L550.969974,79 L551,79 Z" id="Shape" fill="#000000" fill-rule="nonzero"></path>
            <path d="M311.419427,266.264159 C302.575176,275.512637 293.281217,284.310701 283.50757,292.538243 C272.594663,302.056969 261.022186,310.794979 249,318.812328 C250.049318,321.905163 250.948733,325.088081 252.028032,328.180916 C255.745615,326.078989 259.463199,323.947035 263.210763,321.905163 C265.579224,326.199099 267.70784,330.6732 269.206866,335.387522 C274.603358,352.293019 275.023085,370.219451 278.380902,387.545333 C280.359616,397.664609 283.207765,407.60372 285.965972,417.512803 C288.394394,426.190758 291.002698,434.928768 295.529756,442.765952 C299.3073,449.311953 304.044221,455.317458 309.290811,460.75244 C312.198921,457.71966 315.466797,455.04721 318.434867,452.074485 C325.929996,445.108099 333.365163,438.081658 340.83031,431.085245 C340.80033,451.503962 340.83031,471.952707 340.80033,492.371424 C344.33803,492.371424 347.905711,492.341396 351.443412,492.371424 C351.473392,468.469514 351.473392,444.537576 351.443412,420.635666 C352.49273,419.284427 353.66197,418.053299 354.651327,416.70206 C358.009144,425.770373 361.546845,434.748603 364.844701,443.846943 C368.172538,460.782467 371.23055,477.778047 374.588368,494.683543 C378.545795,508.346067 382.473242,522.038619 386.490631,535.671115 C380.704392,530.746601 374.70829,526.122362 368.472343,521.768371 C355.370859,512.940279 341.939589,504.502544 327.518963,497.986571 C319.064458,493.99291 310.40009,490.389607 301.525858,487.44691 C286.085894,503.841938 271.125618,520.80749 257.874232,539.064226 C260.632439,540.565602 263.480588,541.946868 266.238795,543.418217 C268.337431,540.805822 270.585969,538.343565 272.774547,535.821253 C279.789987,537.682959 286.685504,539.935024 293.371159,542.697556 C302.065507,546.390942 310.699895,550.354575 318.824614,555.279089 C330.726878,562.54575 342.359316,570.292852 353.062359,579.241054 C351.35347,580.802486 349.764503,582.453999 348.085594,584.015431 C350.75386,585.817082 353.631989,587.288431 356.360216,589 C361.396942,582.784302 366.673512,576.718742 371.80018,570.5631 C375.367861,566.479356 378.635737,562.155392 382.443262,558.281842 C393.056363,547.02152 403.669465,535.761198 414.342527,524.530903 C425.855044,514.201435 437.517464,504.052131 449,493.692635 C446.631539,491.170323 444.592865,488.377763 442.224404,485.885478 C439.07645,488.527901 435.748613,490.96013 432.480738,493.452415 C428.193524,477.928184 423.996252,462.373926 420.968221,446.519393 C419.079448,436.520227 416.980812,426.551088 414.252586,416.762115 C411.55434,406.943115 408.766152,397.124114 404.748763,387.725498 C401.360965,379.888314 396.923849,372.29135 390.597961,366.466011 C377.556438,378.777296 364.484935,391.088581 351.383451,403.399867 C351.503373,378.717241 351.383451,354.004588 351.443412,329.291934 C347.875731,329.351989 344.33803,329.321962 340.80033,329.291934 C340.80033,352.743431 340.80033,376.194929 340.80033,399.646426 C338.821616,394.631829 336.842902,389.617232 335.313896,384.482526 C329.977365,366.916423 330.157248,348.299358 326.319742,330.43298 C323.26173,316.740429 318.974517,303.318125 313.128317,290.556427 C322.002548,296.682042 331.056663,302.537409 340.170739,308.272667 C348.025633,313.437401 356.210313,318.091667 364.634837,322.235466 C373.029381,326.499374 381.783691,329.95254 390.687903,332.98532 C399.86194,324.157227 409.125918,315.449245 418.779643,307.161648 C428.313446,298.543748 437.007795,289.05505 444.92265,278.935774 C441.804677,277.944866 438.746665,276.743765 435.598711,275.902994 C433.140309,278.425307 430.412082,280.647343 427.893719,283.1096 C419.529156,281.458087 411.254535,279.23605 403.309699,276.08316 C394.705292,272.780132 386.250787,269.026691 378.335932,264.252315 C367.093239,257.526149 356.00045,250.499708 345.867036,242.212111 C348.055614,239.329469 350.274172,236.446826 352.552691,233.594211 C350.094289,232.062808 347.575926,230.561431 345.147504,229 C334.564383,242.031946 323.201769,254.373259 311.419427,266.264159 Z M277.331584,309.80407 C283.837356,321.57486 287.674861,334.636834 290.283166,347.78889 C293.880827,365.204854 293.970769,383.22137 298.647729,400.457169 C299.87693,405.261573 301.495878,409.945867 303.264728,414.570106 C305.423325,420.365418 306.742467,426.491033 309.83046,431.895988 C311.419427,434.838685 313.458102,437.511135 315.496777,440.183585 C313.608005,442.345567 311.689252,444.477521 309.83046,446.66953 C304.823715,438.321878 300.056813,429.734006 296.549093,420.605639 C290.343127,404.360747 288.394394,386.944783 286.055914,369.829093 C284.916654,361.871799 283.357668,353.97456 281.199071,346.227459 C279.130415,338.540412 277.991156,330.55309 274.873182,323.166319 C273.733923,320.313704 272.234897,317.611227 270.64593,314.998832 C272.924449,313.317291 275.113027,311.545667 277.331584,309.80407 Z M319.124419,272.569939 C319.75401,272.239636 320.203718,273.110435 320.683406,273.350655 C328.418378,280.226958 336.812922,286.262491 345.47729,291.907665 C354.441463,297.883143 364.035227,302.807657 373.658972,307.642089 C380.524509,311.095254 387.629891,314.007924 394.795233,316.830511 C392.786539,318.331888 390.927747,320.043457 388.949033,321.604888 C378.485834,318.001585 368.352421,313.347318 358.578774,308.122529 C342.419277,299.804904 327.219158,289.655601 313.428122,277.794729 C315.286914,276.023105 317.295608,274.401618 319.124419,272.569939 Z M363.405636,408.534573 C365.204467,406.672867 367.183181,404.991325 368.952031,403.099591 C372.639634,411.867629 375.247939,421.026024 377.406536,430.304529 C379.41523,439.042539 381.75371,447.750521 383.162794,456.608641 C384.721781,466.427642 386.040923,476.306698 388.499325,485.975561 C390.478039,494.143048 393.086344,502.160397 396.624044,509.787388 C398.542797,514.021269 400.611453,518.165068 402.650127,522.338894 C400.761355,524.290683 398.6927,526.062307 396.773947,527.954041 C392.8465,519.246059 389.188877,510.387939 386.280768,501.259571 C383.702443,493.362332 381.274022,485.344983 379.745016,477.177496 C377.67636,466.547752 376.597062,455.737843 374.13866,445.168154 C371.20057,432.796814 367.542947,420.575611 363.405636,408.534573 Z M284.10718,522.819334 C300.296657,527.323463 315.826563,534.229794 329.977365,543.268079 C337.32259,547.922345 344.667816,552.606639 351.503373,558.011594 C355.190976,560.804154 358.608754,563.896989 362.176435,566.779631 C360.557488,568.821503 358.93854,570.833347 357.319592,572.845191 C352.162944,568.461173 346.916354,564.137209 341.339979,560.323713 L341.130115,560.083493 C333.515065,554.948786 325.959976,549.633914 317.895218,545.159813 C305.333383,538.463675 292.26188,532.398115 278.470844,528.734757 C280.359616,526.75294 282.218408,524.741096 284.10718,522.819334 Z" id="Shape" fill="#000000" fill-rule="nonzero"></path>
            <path d="M551,414.11355 C551,527.285778 459.211644,619 346.015013,619 C232.818382,619 141,527.255767 141,414.11355 L141,217 L551,217 L551,414.11355 Z" id="Path"></path>
            <g id="Group" transform="translate(346.000000, 198.000000)">
                <g id="Clipped">
                    <mask id="mask-fadl85u0dj-2" fill="white">
                        <use xlink:href="#path-fadl85u0dj-1"></use>
                    </mask>
                    <g id="SVGID_1_"></g>
                    <path d="M-34.6521166,67.9623733 C-43.5103266,77.2204055 -52.8189542,86.0275596 -62.608027,94.2636013 C-73.5381573,103.792161 -85.1289,112.539197 -97.1700601,120.564829 C-96.119086,123.66086 -95.2182511,126.847066 -94.1372492,129.943096 C-90.4137982,127.838998 -86.6903472,125.704841 -82.9368683,123.66086 C-80.5646697,127.959232 -78.4326937,132.437955 -76.9313022,137.157147 C-71.5262927,154.080109 -71.105903,172.025061 -67.742786,189.368842 C-65.7609492,199.498572 -62.9083053,209.447951 -60.1457448,219.367271 C-57.7134906,228.054191 -55.1010693,236.801228 -50.5668669,244.646509 C-46.7833602,251.199272 -42.0389629,257.210981 -36.7840926,262.651578 C-33.871393,259.615665 -30.5983595,256.940454 -27.6256042,253.964658 C-20.1186466,246.991075 -12.6717445,239.957375 -5.19481471,232.953734 C-5.22484254,253.393546 -5.19481471,273.863416 -5.22484254,294.303227 C-1.68155852,294.303227 1.89175333,294.273169 5.43503735,294.303227 C5.46506518,270.376624 5.46506518,246.419963 5.43503735,222.49336 C6.48601143,221.140725 7.65709682,219.908325 8.64801523,218.55569 C12.0111323,227.633371 15.5544163,236.620877 18.8574777,245.728616 C22.1905669,262.681636 25.2534056,279.694774 28.6165226,296.617735 C32.5801963,310.294374 36.5138421,324.001071 40.5375714,337.647651 C34.7422001,332.718049 28.736634,328.089033 22.4908452,323.730544 C9.36868317,314.893331 -4.08378497,306.44688 -18.5271715,299.924175 C-26.9950198,295.926389 -35.6730628,292.319363 -44.5613007,289.373626 C-60.0256335,305.785592 -75.009521,322.768671 -88.2818222,341.044267 C-85.5192618,342.547194 -82.6666178,343.929887 -79.9040574,345.402756 C-77.8021093,342.787662 -75.550022,340.322862 -73.3579903,337.797944 C-66.331478,339.661574 -59.4250769,341.915965 -52.7288707,344.681351 C-44.0207998,348.378552 -35.3727845,352.34628 -27.2352424,357.275882 C-15.3141936,364.55005 -3.66339534,372.305155 7.05654021,381.262602 C5.34495386,382.825646 3.75347883,384.478866 2.07192032,386.041911 C4.74439725,387.845423 7.62706899,389.318292 10.3596016,391.031629 C15.4042771,384.80951 20.6891753,378.737684 25.8239344,372.575682 C29.3972462,368.48772 32.6702798,364.159289 36.4838143,360.281736 C47.1136663,349.009782 57.7435184,337.737827 68.4334261,326.49593 C79.9641131,316.15579 91.6449392,305.996002 103.145598,295.625803 C100.7734,293.100885 98.7315073,290.305441 96.3593086,287.810581 C93.2063864,290.455733 89.8732972,292.890476 86.6002637,295.385335 C82.3062839,279.845066 78.1023876,264.274739 75.0695767,248.403827 C73.1778233,238.394331 71.0758752,228.414894 68.3433426,218.615808 C65.6408378,208.786663 62.8482496,198.957518 58.8245203,189.549193 C55.4313754,181.703913 50.9872565,174.0991 44.6513842,168.267742 C31.5892779,180.591746 18.4971437,192.91575 5.37498169,205.239754 C5.49509301,180.531629 5.37498169,155.793446 5.43503735,131.055262 C1.8617255,131.115379 -1.68155852,131.085321 -5.22484254,131.055262 C-5.22484254,154.530987 -5.22484254,178.006711 -5.22484254,201.482436 C-7.20667936,196.462659 -9.18851619,191.442882 -10.7199356,186.30287 C-16.0648894,168.718621 -15.8847224,150.082322 -19.7282848,132.197487 C-22.7911235,118.49079 -27.0851033,105.054619 -32.9405302,92.2797373 C-24.0522924,98.4116807 -14.9838875,104.273097 -5.85542698,110.01428 C2.01186466,115.18435 10.2094624,119.843424 18.6472828,123.991504 C27.0550754,128.259817 35.823202,131.71655 44.7414677,134.752463 C53.9299839,125.915251 63.2085836,117.198272 72.877545,108.902113 C82.4263952,100.275311 91.1344661,90.7768099 99.0618134,80.6470798 C95.938919,79.6551478 92.8760803,78.4528059 89.723158,77.6111666 C87.2608759,80.1360845 84.5283433,82.360417 82.0060056,84.8252178 C73.6282408,83.1719977 65.3405595,80.9476653 57.3831844,77.7915179 C48.765197,74.4850778 40.2973488,70.7277595 32.3700015,65.9484507 C21.109565,59.2153363 9.99926761,52.1816364 -0.150139153,43.8854777 C2.04189249,40.9998572 4.26395196,38.1142368 6.54606709,35.2586749 C4.08378497,33.725689 1.56144719,32.2227617 -0.870807089,30.6597173 C-11.4706313,43.7051264 -22.8511791,56.0591889 -34.6521166,67.9623733 Z M-68.7937601,111.547265 C-62.2777208,123.330216 -58.4341585,136.405683 -55.8217372,149.571327 C-52.2183975,167.005283 -52.128314,185.040411 -47.4439725,202.294017 C-46.2128314,207.103384 -44.5913285,211.792517 -42.8196865,216.421534 C-40.6576827,222.222833 -39.3364582,228.354777 -36.2435916,233.765315 C-34.6521166,236.711052 -32.6102241,239.386263 -30.5683316,242.061474 C-32.460085,244.225689 -34.3818661,246.359846 -36.2435916,248.55412 C-41.2582393,240.197844 -46.0326644,231.6011 -49.5459206,222.463301 C-55.7616816,206.201628 -57.7134906,188.767671 -60.0556613,171.6343 C-61.1967189,163.668785 -62.7581661,155.763387 -64.9201699,148.008282 C-66.9920902,140.313294 -68.1331478,132.317721 -71.2560422,124.923319 C-72.3970998,122.067757 -73.8984913,119.362488 -75.4899663,116.747394 C-73.2078512,115.064115 -71.0158195,113.290661 -68.7937601,111.547265 Z M-26.9349641,74.274668 C-26.3043797,73.944024 -25.8539622,74.8157218 -25.3735169,75.0561902 C-17.6263366,81.9395973 -9.21854402,87.9813651 -0.540500952,93.6323718 C8.43782042,99.6140226 18.0467262,104.543624 27.6856599,109.38305 C34.5620331,112.839783 41.678629,115.755462 48.8552805,118.580965 C46.8434158,120.083893 44.9816903,121.79723 42.9998535,123.360274 C32.5201406,119.753249 22.3707339,115.094174 12.5816611,109.863987 C-3.60333968,101.53777 -18.8274498,91.3779809 -32.6402519,79.5048551 C-30.7785264,77.7314008 -28.7666618,76.1082393 -26.9349641,74.274668 Z M17.4161418,210.379766 C19.2178116,208.516136 21.1996485,206.832857 22.9712905,204.939169 C26.6647136,213.716264 29.2771349,222.884121 31.4391387,232.172212 C33.4510034,240.919249 35.7931742,249.636227 37.2044822,258.503499 C38.7659294,268.332643 40.0871539,278.221905 42.5494361,287.900757 C44.5312729,296.076681 47.1436942,304.102313 50.6869782,311.737184 C52.6087593,315.975439 54.6806797,320.123518 56.7225721,324.301656 C54.8308188,326.255462 52.7588985,328.028916 50.8371173,329.922605 C46.9034715,321.205626 43.2400762,312.338355 40.3273766,303.200557 C37.7449832,295.295159 35.3127289,287.269527 33.7813095,279.093603 C31.7093892,268.452877 30.6283873,257.631801 28.1661052,247.051192 C25.2233778,234.667071 21.5599824,222.433243 17.4161418,210.379766 Z M-62.0074703,324.782593 C-45.7924418,329.291375 -30.2380255,336.204841 -16.0648894,345.252463 C-8.70807089,349.911538 -1.35125238,354.600671 5.49509301,360.011209 C9.18851619,362.806654 12.6116889,365.902685 16.1850007,368.788305 C14.5634979,370.832286 12.941995,372.846209 11.3204922,374.860131 C6.15570529,370.471584 0.90083492,366.143153 -4.68434158,362.325718 L-4.8945364,362.085249 C-12.5216054,356.945238 -20.0886187,351.624875 -28.1661052,347.146152 C-40.7477662,340.443096 -53.8399004,334.371269 -67.6527025,330.704127 C-65.7609492,328.720263 -63.8992237,326.70634 -62.0074703,324.782593 Z" id="Shape" fill="#000000" fill-rule="nonzero" mask="url(#mask-fadl85u0dj-2)"></path>
                </g>
                <g id="Clipped">
                    <mask id="mask-fadl85u0dj-4" fill="white">
                        <use xlink:href="#path-fadl85u0dj-3"></use>
                    </mask>
                    <g id="SVGID_1_"></g>
                    <path d="M205.030028,215.790304 C205.030028,329.141082 113.234949,421 0.0300278307,421 C-113.174894,421 -205,329.111024 -205,215.790304 L-205,0 L205.030028,0 L205.030028,215.790304 Z" id="Path" mask="url(#mask-fadl85u0dj-4)"></path>
                </g>
            </g>
            <g id="Group" transform="translate(141.000000, 198.000000)">
                <g id="Clipped" transform="translate(-0.000000, 0.000000)">
                    <mask id="mask-fadl85u0dj-6" fill="white">
                        <use xlink:href="#path-fadl85u0dj-5"></use>
                    </mask>
                    <g id="SVGID_00000080170642976762141220000000315360486662450084_"></g>
                    <path d="M410.030028,215.790304 C410.030028,329.141082 318.234949,421 205.030028,421 C91.8251062,421 0,329.111024 0,215.790304 L0,0 L410.030028,0 L410.030028,215.790304 Z" id="Path" fill="#000000" fill-rule="nonzero" mask="url(#mask-fadl85u0dj-6)"></path>
                </g>
                <g id="Clipped" transform="translate(-0.000000, 0.000000)">
                    <mask id="mask-fadl85u0dj-8" fill="white">
                        <use xlink:href="#path-fadl85u0dj-7"></use>
                    </mask>
                    <g id="SVGID_00000080170642976762141220000000315360486662450084_"></g>
                    <path d="M136.20624,111.547265 C142.722279,123.330216 146.565842,136.405683 149.178263,149.571327 C152.781602,167.005283 152.871686,185.040411 157.556028,202.294017 C158.787169,207.103384 160.408671,211.792517 162.180313,216.421534 C164.342317,222.222833 165.663542,228.354777 168.756408,233.765315 C170.347883,236.711052 172.389776,239.386263 174.431668,242.061474 C172.539915,244.225689 170.618134,246.359846 168.756408,248.55412 C163.741761,240.197844 158.967336,231.6011 155.454079,222.463301 C149.238318,206.201628 147.286509,188.767671 144.944339,171.6343 C143.803281,163.668785 142.241834,155.763387 140.07983,148.008282 C138.00791,140.313294 136.866852,132.317721 133.743958,124.923319 C132.6029,122.067757 131.101509,119.362488 129.510034,116.747394 C131.792149,115.064115 133.98418,113.290661 136.20624,111.547265 Z M178.065036,74.274668 C178.69562,73.944024 179.146038,74.8157218 179.626483,75.0561902 C187.373663,81.9395973 195.781456,87.9813651 204.459499,93.6323718 C213.43782,99.6140226 223.046726,104.543624 232.68566,109.38305 C239.562033,112.839783 246.678629,115.755462 253.855281,118.580965 C251.843416,120.083893 249.98169,121.79723 247.999854,123.360274 C237.520141,119.753249 227.370734,115.094174 217.581661,109.863987 C201.39666,101.53777 186.17255,91.3779809 172.359748,79.5048551 C174.221474,77.7314008 176.233338,76.1082393 178.065036,74.274668 Z M222.416142,210.379766 C224.217812,208.516136 226.199648,206.832857 227.97129,204.939169 C231.664714,213.716264 234.277135,222.884121 236.439139,232.172212 C238.451003,240.919249 240.793174,249.636227 242.204482,258.503499 C243.765929,268.332643 245.087154,278.221905 247.549436,287.900757 C249.531273,296.076681 252.143694,304.102313 255.686978,311.737184 C257.608759,315.975439 259.68068,320.123518 261.722572,324.301656 C259.830819,326.255462 257.758898,328.028916 255.837117,329.922605 C251.903472,321.205626 248.240076,312.338355 245.327377,303.200557 C242.744983,295.295159 240.312729,287.269527 238.78131,279.093603 C236.709389,268.452877 235.628387,257.631801 233.166105,247.051192 C230.223378,234.667071 226.559982,222.433243 222.416142,210.379766 Z M142.99253,324.782593 C159.207558,329.291375 174.761975,336.204841 188.935111,345.252463 C196.291929,349.911538 203.648748,354.600671 210.495093,360.011209 C214.188516,362.806654 217.611689,365.902685 221.185001,368.788305 C219.563498,370.832286 217.941995,372.846209 216.320492,374.860131 C211.155705,370.471584 205.900835,366.143153 200.315658,362.325718 L200.105464,362.085249 C192.478395,356.945238 184.911381,351.624875 176.833895,347.146152 C164.252234,340.443096 151.1601,334.371269 137.347297,330.704127 C139.239051,328.720263 141.100776,326.70634 142.99253,324.782593 Z M170.347883,67.9623733 C161.489673,77.2204055 152.181046,86.0275596 142.391973,94.2636013 C131.461843,103.792161 119.8711,112.539197 107.82994,120.564829 C108.880914,123.66086 109.781749,126.847066 110.862751,129.943096 C114.586202,127.838998 118.309653,125.704841 122.063132,123.66086 C124.43533,127.959232 126.567306,132.437955 128.068698,137.157147 C133.473707,154.080109 133.894097,172.025061 137.257214,189.368842 C139.239051,199.498572 142.091695,209.447951 144.854255,219.367271 C147.286509,228.054191 149.898931,236.801228 154.433133,244.646509 C158.21664,251.199272 162.961037,257.210981 168.215907,262.651578 C171.128607,259.615665 174.401641,256.940454 177.374396,253.964658 C184.881353,246.991075 192.328255,239.957375 199.805185,232.953734 C199.775157,253.393546 199.805185,273.863416 199.775157,294.303227 C203.318441,294.303227 206.891753,294.273169 210.435037,294.303227 C210.465065,270.376624 210.465065,246.419963 210.435037,222.49336 C211.486011,221.140725 212.657097,219.908325 213.648015,218.55569 C217.011132,227.633371 220.554416,236.620877 223.857478,245.728616 C227.190567,262.681636 230.253406,279.694774 233.616523,296.617735 C237.580196,310.294374 241.513842,324.001071 245.537571,337.647651 C239.7422,332.718049 233.736634,328.089033 227.490845,323.730544 C214.368683,314.893331 200.916215,306.44688 186.472828,299.924175 C178.00498,295.926389 169.326937,292.319363 160.438699,289.373626 C144.974366,305.785592 129.990479,322.768671 116.718178,341.044267 C119.480738,342.547194 122.333382,343.929887 125.095943,345.402756 C127.197891,342.787662 129.449978,340.322862 131.64201,337.797944 C138.668522,339.661574 145.574923,341.915965 152.271129,344.681351 C160.9792,348.378552 169.627215,352.34628 177.764758,357.275882 C189.685806,364.55005 201.336605,372.305155 212.05654,381.262602 C210.344954,382.825646 208.753479,384.478866 207.07192,386.041911 C209.744397,387.845423 212.627069,389.318292 215.359602,391.031629 C220.404277,384.80951 225.689175,378.737684 230.823934,372.575682 C234.397246,368.48772 237.67028,364.159289 241.483814,360.281736 C252.113666,349.009782 262.743518,337.737827 273.433426,326.49593 C284.964113,316.15579 296.644939,305.996002 308.145598,295.625803 C305.7734,293.100885 303.731507,290.305441 301.359309,287.810581 C298.206386,290.455733 294.873297,292.890476 291.600264,295.385335 C287.306284,279.845066 283.102388,264.274739 280.069577,248.403827 C278.177823,238.394331 276.075875,228.414894 273.343343,218.615808 C270.640838,208.786663 267.84825,198.957518 263.82452,189.549193 C260.431375,181.703913 255.987256,174.0991 249.651384,168.267742 C236.589278,180.591746 223.497144,192.91575 210.374982,205.239754 C210.495093,180.531629 210.374982,155.793446 210.435037,131.055262 C206.861726,131.115379 203.318441,131.085321 199.775157,131.055262 C199.775157,154.530987 199.775157,178.006711 199.775157,201.482436 C197.793321,196.462659 195.811484,191.442882 194.280064,186.30287 C188.935111,168.718621 189.115278,150.082322 185.271715,132.197487 C182.208877,118.49079 177.914897,105.054619 172.05947,92.2797373 C180.947708,98.4116807 190.016112,104.273097 199.144573,110.01428 C207.011865,115.18435 215.209462,119.843424 223.647283,123.991504 C232.055075,128.259817 240.823202,131.71655 249.741468,134.752463 C258.929984,125.915251 268.208584,117.198272 277.877545,108.902113 C287.426395,100.275311 296.134466,90.7768099 304.061813,80.6470798 C300.938919,79.6551478 297.87608,78.4528059 294.723158,77.6111666 C292.260876,80.1360845 289.528343,82.360417 287.006006,84.8252178 C278.628241,83.1719977 270.34056,80.9476653 262.383184,77.7915179 C253.765197,74.4850778 245.297349,70.7277595 237.370001,65.9484507 C226.109565,59.2153363 214.999268,52.1816364 204.849861,43.8854777 C207.041892,40.9998572 209.263952,38.1142368 211.546067,35.2586749 C209.083785,33.725689 206.561447,32.2227617 204.129193,30.6597173 C193.529369,43.7051264 182.148821,56.0591889 170.347883,67.9623733 Z" id="Shape" fill="#FFFFFF" fill-rule="nonzero" mask="url(#mask-fadl85u0dj-8)"></path>
                </g>
            </g>
            <line x1="151" y1="205.5" x2="540" y2="205.5" id="Path" stroke="#000000" stroke-width="4.7492"></line>
            <g id="Group" transform="translate(180.000000, 118.000000)" fill="#000000" fill-rule="nonzero">
                <polygon id="Path" points="43.5996018 7.52773376 25.9313965 7.52773376 25.9313965 56.3676704 17.7283012 56.3676704 17.7283012 7.52773376 1.42108547e-14 7.52773376 1.42108547e-14 0.632329635 43.6296497 0.632329635 43.6296497 7.52773376"></polygon>
                <path d="M80.198027,9.69572108 C79.9275953,10.1473851 79.6571635,10.4484945 79.3867318,10.659271 C79.1163001,10.8700475 78.7557245,10.9603803 78.305005,10.9603803 C77.8542855,10.9603803 77.313422,10.7496038 76.7124627,10.3280507 C76.1115033,9.90649762 75.3903521,9.42472266 74.488913,8.88272583 C73.587474,8.340729 72.5357951,7.85895404 71.3038284,7.43740095 C70.0718617,7.01584786 68.5694633,6.80507132 66.8567291,6.80507132 C65.2341388,6.80507132 63.7918364,7.01584786 62.5899176,7.43740095 C61.3579509,7.85895404 60.33632,8.43106181 59.5250249,9.18383518 C58.7137297,9.93660856 58.0827224,10.7797147 57.6620509,11.7733756 C57.2413793,12.7670365 57.0310435,13.8510301 57.0310435,15.0253566 C57.0310435,16.5309033 57.4216671,17.7654517 58.1728663,18.7591125 C58.9240655,19.7527734 59.9456964,20.5958796 61.1776631,21.2884311 C62.4096298,21.9809826 63.8218843,22.5832013 65.4144266,23.1251981 C66.976921,23.637084 68.5995113,24.1790808 70.2521495,24.7511886 C71.9047878,25.3232964 73.527378,25.955626 75.0898724,26.6782884 C76.6523667,27.4009509 78.0646212,28.3042789 79.2965879,29.4183835 C80.5285546,30.5324881 81.5501855,31.8573693 82.3013847,33.4532488 C83.0525839,35.0491284 83.4432075,37.0063391 83.4432075,39.2947702 C83.4432075,41.7638669 83.022536,44.0522979 82.1811929,46.1901743 C81.3398498,48.3280507 80.1078831,50.2250396 78.5153408,51.8209192 C76.9227984,53.4167987 74.9396325,54.681458 72.595891,55.614897 C70.2521495,56.548336 67.6079283,57 64.6331795,57 C62.8603494,57 61.1175672,56.8193344 59.434881,56.4881141 C57.7521948,56.1568938 56.1596525,55.6450079 54.6572541,55.0126783 C53.1548556,54.3803487 51.7726491,53.6275753 50.4505385,52.7242472 C49.1584759,51.8209192 47.9866051,50.8272583 46.9349262,49.7131537 L49.3087157,45.7686212 C49.5490995,45.4675119 49.8195312,45.1965135 50.1500588,44.9857369 C50.4805865,44.7749604 50.8411621,44.6846276 51.2618337,44.6846276 C51.8026971,44.6846276 52.4337044,44.955626 53.1248077,45.5277338 C53.8159109,46.0998415 54.71735,46.7321712 55.7690289,47.3946117 C56.8207078,48.0871632 58.0827224,48.7194929 59.5250249,49.2916006 C60.9673274,49.8637084 62.7702054,50.1347068 64.8435153,50.1347068 C66.5562494,50.1347068 68.0586478,49.8938193 69.4108064,49.4421553 C70.762965,48.9904913 71.8747398,48.3280507 72.8062268,47.5150555 C73.7076659,46.6719493 74.4288171,45.6481775 74.9095846,44.473851 C75.3903521,43.2694136 75.6607838,41.9746434 75.6607838,40.5293185 C75.6607838,38.9033281 75.3002082,37.5784469 74.549009,36.5245642 C73.7978098,35.5007924 72.8062268,34.6275753 71.5742601,33.9350238 C70.3422934,33.2424723 68.9300389,32.6402536 67.3374966,32.1584786 C65.7750023,31.6767036 64.152412,31.1648177 62.4997737,30.6228209 C60.8471355,30.0808241 59.2245452,29.4786054 57.6620509,28.7860539 C56.0995565,28.0935024 54.687302,27.1600634 53.4252874,26.0459588 C52.1933207,24.9318542 51.2017377,23.5166403 50.4505385,21.800317 C49.6993393,20.1141046 49.3387637,18.0063391 49.3387637,15.5372425 C49.3387637,13.5499208 49.7293873,11.6228209 50.5106344,9.75594295 C51.2918816,7.88906498 52.4036564,6.23296355 53.9060548,4.8177496 C55.4084533,3.40253566 57.2113313,2.22820919 59.374785,1.35499208 C61.5382388,0.48177496 64.0322201,0.06022187 66.8266811,0.06022187 C69.9516698,0.06022187 72.8362748,0.572107765 75.450448,1.56576862 C78.0646212,2.55942948 80.3482668,4.00475436 82.3013847,5.84152139 L80.198027,9.69572108 Z" id="Path"></path>
                <path d="M138.370893,0.632329635 L115.744773,56.3676704 L108.352973,56.3676704 L85.7268531,0.632329635 L92.3073581,0.632329635 C93.0285094,0.632329635 93.6294687,0.812995246 94.0801883,1.17432647 C94.5309078,1.53565769 94.8614354,1.98732171 95.1018192,2.55942948 L110.125803,40.4389857 C110.486379,41.3724247 110.846954,42.3961965 111.177482,43.5103011 C111.538058,44.6244057 111.838537,45.7987322 112.139017,47.0031696 C112.409449,45.7987322 112.679881,44.6244057 112.98036,43.5103011 C113.28084,42.3961965 113.611368,41.3724247 113.971943,40.4389857 L128.965879,2.55942948 C129.146167,2.04754358 129.476695,1.59587956 129.957462,1.2044374 C130.43823,0.812995246 131.009141,0.632329635 131.730292,0.632329635 L138.370893,0.632329635 L138.370893,0.632329635 Z" id="Path"></path>
                <path d="M194.800977,50.5863708 L194.800977,56.3676704 L164.753009,56.3676704 L164.753009,50.5863708 L176.531813,50.5863708 L176.531813,14.0618067 C176.531813,12.8874802 176.561861,11.6830428 176.652005,10.4484945 L167.186895,18.4881141 C166.826319,18.7591125 166.465744,18.9397781 166.105168,19.0301109 C165.744592,19.1204437 165.414065,19.1204437 165.083537,19.0602219 C164.753009,19 164.482578,18.9096672 164.242194,18.7290016 C164.00181,18.548336 163.791474,18.3977813 163.641235,18.2171157 L161.267445,14.9049128 L177.914019,0.511885895 L184.073853,0.511885895 L184.073853,50.5863708 L194.800977,50.5863708 L194.800977,50.5863708 Z" id="Path"></path>
                <path d="M230.948683,27.2805071 C234.404199,28.3042789 237.048421,29.9904913 238.821251,32.2789223 C240.624129,34.5974643 241.525568,37.4881141 241.525568,41.0110935 C241.525568,43.4500792 241.074848,45.6481775 240.143361,47.6053883 C239.241922,49.562599 237.94986,51.2488114 236.267173,52.6339144 C234.614535,54.0190174 232.601321,55.0729002 230.287628,55.8256735 C227.973934,56.5784469 225.419857,56.9397781 222.625396,56.9397781 C219.830935,56.9397781 217.276858,56.5784469 214.963164,55.8256735 C212.649471,55.0729002 210.636257,54.0190174 208.983618,52.6339144 C207.33098,51.2488114 206.038918,49.562599 205.107431,47.6053883 C204.205991,45.6481775 203.725224,43.4500792 203.725224,41.0110935 C203.725224,37.4881141 204.626663,34.5673534 206.429541,32.2789223 C208.232419,29.9904913 210.846592,28.3042789 214.302109,27.2805071 C211.447552,26.1965135 209.284098,24.570523 207.841796,22.4025357 C206.399493,20.2345483 205.678342,17.6751189 205.678342,14.6941363 C205.678342,12.6164818 206.099013,10.6893819 206.910309,8.88272583 C207.721604,7.07606973 208.863427,5.51030111 210.365825,4.2155309 C211.838175,2.89064976 213.641053,1.86687797 215.744411,1.1141046 C217.847769,0.36133122 220.161463,0 222.685492,0 C225.209521,0 227.523215,0.36133122 229.626573,1.1141046 C231.72993,1.86687797 233.50276,2.89064976 235.005159,4.2155309 C236.477509,5.54041204 237.64938,7.10618067 238.460675,8.88272583 C239.27197,10.659271 239.692642,12.6164818 239.692642,14.6941363 C239.692642,17.6751189 238.971491,20.2345483 237.529188,22.4025357 C235.966694,24.570523 233.80324,26.1965135 230.948683,27.2805071 Z M222.625396,50.977813 C224.368178,50.977813 225.930672,50.7369255 227.312879,50.2551506 C228.695086,49.7733756 229.836908,49.0808241 230.798443,48.177496 C231.759978,47.274168 232.48113,46.2202853 232.961897,44.9857369 C233.442664,43.7511886 233.713096,42.3961965 233.713096,40.9207607 C233.713096,39.1141046 233.412617,37.548336 232.811657,36.2535658 C232.210698,34.9587956 231.429451,33.8748019 230.40782,33.0316957 C229.386189,32.1885895 228.214318,31.5562599 226.892207,31.1648177 C225.570097,30.7733756 224.127794,30.562599 222.625396,30.562599 C221.09295,30.562599 219.680695,30.7733756 218.328537,31.1648177 C216.976378,31.5562599 215.804507,32.1885895 214.812924,33.0316957 C213.791293,33.8748019 213.010046,34.9587956 212.439135,36.2535658 C211.868223,37.548336 211.567744,39.1141046 211.567744,40.9207607 C211.567744,42.3961965 211.808127,43.7511886 212.318943,44.9857369 C212.79971,46.2202853 213.520862,47.3042789 214.482397,48.177496 C215.443932,49.0808241 216.585754,49.7733756 217.967961,50.2551506 C219.290071,50.7068146 220.882614,50.977813 222.625396,50.977813 Z M222.625396,5.81141046 C221.032854,5.81141046 219.620599,6.05229794 218.41868,6.5340729 C217.216762,7.01584786 216.225179,7.67828843 215.413884,8.49128368 C214.602588,9.30427892 214.001629,10.2678288 213.611006,11.3518225 C213.220382,12.4358162 213.010046,13.6101426 213.010046,14.844691 C213.010046,16.0491284 213.190334,17.2535658 213.520862,18.3977813 C213.881437,19.5419968 214.422301,20.5657686 215.1735,21.4690967 C215.924699,22.3724247 216.916282,23.0950872 218.148249,23.637084 C219.350167,24.1790808 220.852566,24.4500792 222.595348,24.4500792 C224.33813,24.4500792 225.810481,24.1790808 227.042447,23.637084 C228.274414,23.0950872 229.265997,22.3724247 230.017196,21.4690967 C230.768395,20.5657686 231.339307,19.5419968 231.669834,18.3977813 C232.03041,17.2535658 232.18065,16.0491284 232.18065,14.844691 C232.18065,13.6101426 231.970314,12.4358162 231.57969,11.3518225 C231.189067,10.2678288 230.588108,9.30427892 229.776812,8.49128368 C228.965517,7.6481775 227.973934,7.01584786 226.772016,6.5340729 C225.630193,6.05229794 224.217938,5.81141046 222.625396,5.81141046 Z" id="Shape"></path>
                <path d="M259.524301,21.4389857 C262.378858,20.836767 264.932935,20.5356577 267.216581,20.5356577 C270.101186,20.5356577 272.655263,20.9572108 274.878813,21.8304279 C277.102362,22.703645 278.965336,23.8779715 280.467735,25.4136292 C281.970133,26.9191759 283.111956,28.725832 283.863155,30.7733756 C284.614354,32.8209192 285.004978,35.0491284 285.004978,37.4580032 C285.004978,40.4088748 284.494162,43.088748 283.442483,45.4976228 C282.420853,47.9064976 280.97855,49.9540412 279.175672,51.6703645 C277.372794,53.3866878 275.239388,54.681458 272.775455,55.614897 C270.311521,56.548336 267.6673,57 264.812743,57 C263.130057,57 261.537515,56.8193344 260.035116,56.4881141 C258.532718,56.1568938 257.120463,55.7052298 255.798353,55.163233 C254.476242,54.6212361 253.274323,53.9587956 252.132501,53.2361331 C250.990678,52.5134707 249.999095,51.7606973 249.127704,50.9477021 L251.441397,47.6957211 C251.922165,46.9730586 252.58322,46.6117274 253.424563,46.6117274 C253.965427,46.6117274 254.566386,46.822504 255.227441,47.2139461 C255.888497,47.6053883 256.669744,48.0570523 257.571183,48.5388273 C258.472622,49.0206022 259.554349,49.4722662 260.786316,49.8637084 C262.018282,50.2551506 263.490633,50.4659271 265.203367,50.4659271 C267.096389,50.4659271 268.779075,50.1648177 270.311521,49.562599 C271.81392,48.9603803 273.105982,48.0871632 274.157661,46.9730586 C275.20934,45.858954 275.990587,44.5340729 276.561499,42.9683043 C277.13241,41.4025357 277.402842,39.6862124 277.402842,37.8193344 C277.402842,36.133122 277.162458,34.6275753 276.651643,33.2725832 C276.140827,31.9175911 275.419676,30.7733756 274.458141,29.8098257 C273.466558,28.8462758 272.234591,28.1236133 270.792289,27.6117274 C269.319938,27.0998415 267.607204,26.858954 265.654086,26.858954 C262.919721,26.858954 260.005068,27.340729 256.910128,28.3343899 L252.132501,26.9492868 L256.669744,0.632329635 L283.322292,0.632329635 L283.322292,3.94453249 C283.322292,5.02852615 282.991764,5.9318542 282.300661,6.59429477 C281.609557,7.28684628 280.467735,7.61806656 278.875192,7.61806656 L261.958186,7.61806656 L259.524301,21.4389857 Z" id="Path"></path>
                <path d="M332,0.632329635 L332,4.00475436 C332,4.99841521 331.879808,5.78129952 331.669472,6.38351823 C331.459137,6.98573693 331.248801,7.52773376 331.038465,7.94928685 L308.502489,53.6877971 C308.141913,54.4405705 307.631098,55.0729002 307.000091,55.5847861 C306.369083,56.0966719 305.497692,56.3676704 304.415965,56.3676704 L299.007331,56.3676704 L321.903883,11.2916006 C322.294506,10.5689382 322.68513,9.90649762 323.075753,9.30427892 C323.466377,8.70206022 323.887049,8.12995246 324.337768,7.61806656 L295.91239,7.61806656 C295.431623,7.61806656 295.010951,7.43740095 294.650376,7.07606973 C294.2898,6.71473851 294.109512,6.29318542 294.109512,5.78129952 L294.109512,0.632329635 L332,0.632329635 Z" id="Path"></path>
            </g>
        </g>
    </g>
</svg>