<?xml version="1.0" encoding="utf-8"?>

<svg width="706px" height="639px" viewBox="0 0 706 639" version="1.1" xmlns="http://www.w3.org/2000/svg" xmlns:xlink="http://www.w3.org/1999/xlink">
    <g id="Hessen" stroke="none" stroke-width="1" fill="none" fill-rule="evenodd">
        <g id="402-Offenbach" fill-rule="nonzero">
            <g id="Flagge" transform="translate(51.000000, 34.000000)">
                <path d="M0,0 C0,0 36.693012,32.3268145 118.885359,17.6328079 C201.077706,2.93880132 221.625793,-4.40820198 296.479537,27.1839122 C371.333282,58.7760264 352.252916,82.2864369 482.880038,72.7353327 C482.880038,72.7353327 579.74959,59.5107267 573.144848,122.694955 C567.273966,185.879183 554.798342,265.961519 597.362236,324.002845 C639.92613,382.044172 650.200173,426.860892 653.869474,438.616097 C656.804915,450.371302 655.337195,459.922407 633.321388,442.289599 C612.039441,424.656791 521.040771,380.574771 425.63894,390.860576 C330.237108,401.14638 278.866891,417.309787 189.335942,358.533761 C110.812896,308.574139 44.7654747,356.32966 37.4268723,358.533761 L46.9670554,348.982657 C46.9670554,348.982657 84.3939277,289.47193 69.7167229,174.858679 C55.0395181,60.2454271 33.0237108,25.7145115 5.13702168,8.81640396 L0,0 Z" id="Path" fill="#E40026"></path>
                <path d="M60.9104,27.9186125 C60.9104,27.9186125 93.2002506,33.7962152 140.167306,24.2451109 C187.134361,15.4287069 245.10932,-2.93880132 357.389937,69.7965313 C407.292434,96.2457432 476.275296,83.0211373 484.347759,82.2864369 C492.420222,81.5517366 537.185696,77.878235 554.798342,93.3069419 C554.798342,93.3069419 471.872135,110.93975 424.905079,140.327763 C377.938024,169.715776 379.405744,167.511675 360.325378,176.328079 C341.245012,184.409783 308.221301,199.103789 303.81814,199.103789 C300.882699,197.634389 110.812896,48.4902218 60.9104,27.9186125 Z" id="Path" fill="#FFFFFF"></path>
                <path d="M41.0961735,38.2044172 C41.0961735,38.2044172 193.005243,128.572558 272.262149,198.369089 C277.399171,202.042591 282.536193,203.511991 272.262149,205.716092 C261.988106,207.920193 128.425542,250.532812 75.5876048,309.308839 C69.7167229,315.186442 64.5797012,324.737546 70.4505831,298.288334 C77.0553253,271.839122 95.4018313,163.103473 41.0961735,38.2044172 Z" id="Path" fill="#FFFFFF"></path>
                <path d="M565.072385,121.960255 C565.072385,121.960255 566.540106,130.776659 565.072385,142.531864 C563.604665,154.287069 556.266062,194.695587 558.467643,221.144799 C560.669224,247.594011 563.604665,290.20663 590.023634,326.941647 C616.442602,363.676663 630.385947,396.738178 632.587527,398.207579 C634.055248,400.41168 651.667894,431.269094 628.918226,407.023983 C606.168559,382.778872 531.314814,326.941647 488.01706,302.696536 C444.719306,279.186125 355.188356,230.695904 344.914313,224.083601 C334.64027,217.471298 320.696925,213.797796 336.10799,208.654894 C352.252916,203.511991 392.615229,184.409783 436.646843,156.49117 C479.944597,128.572558 532.048675,118.286753 544.524299,114.613251 C556.999923,110.93975 567.273966,108.000948 565.072385,121.960255 Z" id="Path" fill="#FFFFFF"></path>
                <path d="M195.206824,254.206314 C195.206824,254.206314 242.173879,232.900005 278.133031,227.022402 C278.133031,227.022402 293.544096,223.3489 297.213397,221.8795 C300.148838,220.410099 303.81814,220.410099 313.358323,227.022402 C322.898506,233.634705 405.824713,282.124927 451.324048,306.370038 C496.823383,330.615148 586.354332,390.860576 603.966978,409.228084 C621.579624,427.595592 610.57172,418.779188 568.741687,401.88108 C526.177793,384.982973 472.605995,380.574771 445.453166,381.309471 C418.300337,382.044172 353.720636,395.268777 304.552,392.329976 C255.383364,389.391175 246.577041,382.778872 177.594178,342.370354 C151.90907,332.084549 123.28852,324.737546 90.9986698,334.28865 C82.192347,336.492751 79.256906,335.02335 90.9986698,326.206946 C102.740434,315.921142 125.490101,286.533129 195.206824,254.206314 Z" id="Path" fill="#FFFFFF"></path>
            </g>
            <g id="Aupraegung" transform="translate(55.000000, 40.000000)" fill="#E40026">
                <path d="M0,7.05418348 C0,7.05418348 92.0879861,184.459692 39.78201,304.684913 C39.78201,304.684913 30.9415633,342.072025 40.5187139,325.944251 C49.3591606,309.816478 108.295472,188.858176 9.57715055,4.12186102 C9.57715055,4.12186102 0,-6.87434821 0,7.05418348 Z" id="Path"></path>
                <path d="M24.3112283,329.609654 C24.3112283,329.609654 -2.94681556,359.665959 29.4681556,372.86141 L24.3112283,329.609654 Z" id="Path"></path>
                <path d="M41.9921217,364.797524 C41.9921217,364.797524 70.7235733,371.395249 47.1490489,393.387668 L41.9921217,364.797524 Z" id="Path"></path>
                <path d="M30.2048594,393.387668 C30.2048594,393.387668 2.21011167,427.842457 33.8883789,427.842457 L30.2048594,393.387668 Z" id="Path"></path>
                <path d="M52.3059761,423.443973 C52.3059761,423.443973 75.1437967,428.575537 55.2527917,446.169472 L52.3059761,423.443973 Z" id="Path"></path>
                <path d="M35.3617867,449.101794 C35.3617867,449.101794 11.0505583,472.560374 40.5187139,487.955067 L35.3617867,449.101794 Z" id="Path"></path>
                <path d="M58.1996072,496.752034 C58.1996072,496.752034 85.4576511,498.951276 63.3565344,520.943695 L58.1996072,496.752034 Z" id="Path"></path>
                <path d="M45.6756411,520.943695 C45.6756411,520.943695 20.6277089,542.203033 48.6224567,551 L45.6756411,520.943695 Z" id="Path"></path>
            </g>
            <g id="Schriftzug" transform="translate(150.000000, 76.000000)">
                <path d="M345.75796,139.654378 L377.280579,227.857143 C377.280579,227.857143 378.746747,236.677419 383.878336,237.412442 C389.009925,238.147465 393.40843,237.412442 393.40843,237.412442 C393.40843,237.412442 394.874598,237.412442 402.20544,222.711982 C409.536281,208.011521 437.393479,149.9447 437.393479,149.9447 C437.393479,149.9447 443.258152,143.329493 437.393479,141.859447 C431.528805,140.389401 424.197964,138.919355 424.197964,138.919355 C424.197964,138.919355 418.333291,136.714286 416.867122,138.919355 C415.400954,141.124424 392.675346,193.31106 392.675346,193.31106 C392.675346,193.31106 389.743009,199.926267 387.543757,191.841014 C385.344504,183.75576 369.949737,138.184332 369.949737,138.184332 C369.949737,138.184332 369.949737,130.834101 359.686559,130.099078 C349.423381,129.364055 342.825624,127.158986 343.558708,130.099078 C344.291792,133.039171 345.75796,139.654378 345.75796,139.654378 Z" id="Path" fill="#E40026"></path>
                <path d="M169.084681,102.903226 C169.084681,102.903226 169.817765,109.518433 172.750101,109.518433 C175.682438,109.518433 186.6787,109.518433 186.6787,109.518433 C186.6787,109.518433 191.810289,112.458525 189.611037,102.903226 C187.411784,93.3479263 184.479448,69.0921659 184.479448,69.0921659 L202.073467,69.0921659 L223.332908,107.313364 C223.332908,107.313364 224.065992,109.518433 228.464497,109.518433 C232.863001,109.518433 243.859264,109.518433 243.859264,109.518433 C243.859264,109.518433 247.524684,107.313364 243.859264,100.698157 C240.193843,94.0829493 224.799076,68.3571429 224.799076,68.3571429 C224.799076,68.3571429 221.133655,64.6820276 225.53216,61.0069124 C229.930665,57.3317972 243.859264,40.4262673 229.930665,23.5207373 C216.002066,6.61520737 200.607299,2.20506912 158.088418,0 C158.088418,0 150.757577,1.47004608 152.223745,8.08525346 C153.689914,14.7004608 169.084681,102.903226 169.084681,102.903226 Z" id="Path" fill="#E40026"></path>
                <path d="M177.88169,30.1359447 L180.080943,45.5714286 C180.080943,45.5714286 179.347859,49.9815668 187.411784,49.9815668 C195.47571,49.9815668 211.603561,47.7764977 212.336645,43.3663594 C213.06973,38.9562212 213.06973,29.4009217 199.141131,27.1958525 C185.212532,24.9907834 177.148606,27.1958525 177.148606,27.1958525 L177.148606,30.1359447 L177.88169,30.1359447 Z" id="Path" fill="#FFFFFF"></path>
                <path d="M0.475326772,128.629032 C0.475326772,128.629032 -4.65626226,94.8179724 18.8024305,88.202765 C44.4603756,80.8525346 64.2536476,91.8778802 68.6521525,124.953917 C73.0506574,158.029954 73.0506574,171.260369 70.8514049,179.345622 C70.8514049,179.345622 59.1220586,208.011521 23.2009353,197.721198 C8.53925239,193.31106 5.6069158,171.995392 5.6069158,171.995392 L0.475326772,128.629032 Z" id="Path" fill="#E40026"></path>
                <path d="M19.5355146,133.774194 C19.5355146,133.774194 17.3362622,111.723502 28.3325244,107.313364 C40.0618707,102.168203 49.5919646,109.518433 51.7912171,130.834101 C53.9904695,152.14977 53.9904695,160.970046 52.5243012,166.115207 C52.5243012,166.115207 47.3927122,184.490783 30.5317768,177.875576 C23.9340195,174.935484 22.4678512,161.705069 22.4678512,161.705069 L19.5355146,133.774194 Z" id="Path" fill="#FFFFFF"></path>
                <path d="M201.340383,237.412442 C201.340383,237.412442 202.806551,230.797235 207.93814,231.532258 C213.06973,232.267281 230.663749,233.002304 237.261506,231.532258 C243.859264,230.062212 248.990853,230.797235 247.524684,237.412442 C246.058516,244.762673 232.129917,303.564516 232.129917,306.504608 C232.129917,309.4447 232.129917,315.324885 224.799076,316.794931 C217.468234,318.264977 208.671225,321.205069 212.336645,308.709677 C216.002066,296.214286 223.332908,264.608295 224.799076,257.993088 C226.265244,251.37788 228.464497,251.37788 219.667487,251.37788 C210.870477,251.37788 209.404309,250.642857 205.738888,250.642857 C198.408047,252.112903 199.874215,254.317972 201.340383,237.412442 Z" id="Path" fill="#E40026"></path>
                <path d="M244.592348,283.718894 C244.592348,283.718894 237.994591,294.009217 248.257769,292.539171 C258.520947,291.804147 276.114966,288.864055 276.114966,294.009217 C276.114966,299.154378 276.114966,310.179724 276.114966,310.179724 C276.114966,310.179724 275.381882,319 287.111228,314.589862 C298.840575,309.4447 295.175154,310.179724 294.44207,306.504608 C294.44207,302.829493 293.708986,291.069124 296.641322,290.334101 C299.573659,289.599078 307.637585,290.334101 309.103753,289.599078 C310.569921,288.864055 314.968426,285.923963 314.235342,279.308756 C312.769174,272.693548 317.167678,268.28341 305.438332,269.018433 C293.708986,269.753456 295.908238,269.753456 295.908238,265.343318 C295.908238,260.93318 295.908238,250.642857 295.908238,250.642857 C295.908238,250.642857 295.908238,246.232719 289.310481,252.112903 C282.712723,257.993088 279.047303,258.728111 279.047303,263.138249 C279.047303,266.813364 279.780387,271.223502 275.381882,271.958525 C270.983377,271.958525 270.250293,272.693548 270.983377,267.548387 C271.716461,262.403226 282.712723,235.207373 282.712723,235.207373 C282.712723,235.207373 285.64506,231.532258 276.84805,231.532258 C268.051041,231.532258 265.118704,230.062212 263.652536,235.942396 C260.720199,241.087558 244.592348,283.718894 244.592348,283.718894 Z" id="Path" fill="#E40026"></path>
                <path d="M113.370285,246.967742 C113.370285,246.967742 119.968043,241.822581 120.701127,246.967742 C120.701127,252.112903 122.167295,302.09447 122.167295,302.09447 C122.167295,302.09447 121.434211,307.239631 125.099632,307.974654 C128.765053,308.709677 136.828978,312.384793 136.828978,312.384793 C136.828978,312.384793 141.960567,316.059908 140.494399,300.624424 C139.028231,282.248848 135.36281,233.002304 135.36281,230.062212 C135.36281,227.12212 130.964305,221.241935 125.832716,225.652074 C120.701127,230.062212 109.704865,238.882488 108.971781,239.617512 C108.971781,241.822581 108.238696,248.437788 113.370285,246.967742 Z" id="Path" fill="#E40026"></path>
                <path d="M188.877953,267.548387 C192.543373,263.138249 194.742626,257.993088 194.742626,251.37788 C194.742626,237.412442 183.013279,226.387097 169.084681,226.387097 C155.156082,226.387097 143.426736,237.412442 143.426736,251.37788 C143.426736,258.728111 147.092156,266.078341 152.223745,270.488479 C146.359072,275.633641 143.426736,282.983871 143.426736,291.069124 C143.426736,306.504608 156.62225,319 172.750101,319 C188.877953,319 202.073467,306.504608 202.073467,291.069124 C202.073467,281.513825 196.208794,272.693548 188.877953,267.548387 Z" id="Path" fill="#E40026"></path>
                <path d="M177.88169,252.847926 C177.88169,257.258065 174.21627,260.93318 169.817765,260.93318 C165.41926,260.93318 161.753839,257.258065 161.753839,252.847926 C161.753839,248.437788 165.41926,244.762673 169.817765,244.762673 C174.21627,244.762673 177.88169,248.437788 177.88169,252.847926 Z" id="Path" fill="#FFFFFF"></path>
                <path d="M184.479448,291.804147 C184.479448,298.419355 179.347859,304.299539 172.750101,304.299539 C166.152344,304.299539 161.020755,298.419355 161.020755,291.804147 C161.020755,285.18894 166.152344,279.308756 172.750101,279.308756 C179.347859,279.308756 184.479448,284.453917 184.479448,291.804147 Z" id="Path" fill="#FFFFFF"></path>
            </g>
            <g id="Flecken" transform="translate(58.000000, 46.000000)" fill="#FFFFFF">
                <path d="M49.452381,287.181677 C48.7142857,290.862052 47.9761905,293.806352 47.2380952,293.806352 C46.5,293.806352 46.5,290.862052 46.5,286.445602 C47.2380952,282.765228 47.9761905,279.820928 48.7142857,279.820928 C49.452381,279.820928 49.452381,282.765228 49.452381,287.181677 Z" id="Path"></path>
                <path d="M58.3095238,248.905781 C58.3095238,251.850081 58.3095238,254.794381 56.8333333,254.794381 C56.0952381,254.794381 54.6190476,252.586156 54.6190476,248.905781 C54.6190476,245.961481 54.6190476,243.017182 56.0952381,243.017182 C56.8333333,243.753257 58.3095238,245.961481 58.3095238,248.905781 Z" id="Path"></path>
                <path d="M59.7857143,228.295683 C60.5238095,231.239983 59.7857143,234.184283 58.3095238,234.184283 C56.8333333,234.184283 56.0952381,231.976058 55.3571429,229.031758 C54.6190476,226.087458 55.3571429,223.143159 56.8333333,223.143159 C58.3095238,223.143159 59.7857143,225.351383 59.7857143,228.295683 Z" id="Path"></path>
                <path d="M60.5238095,210.629885 C61.2619048,214.31026 61.2619048,217.254559 59.7857143,217.254559 C58.3095238,217.254559 56.8333333,215.046334 56.0952381,211.36596 C55.3571429,207.685585 55.3571429,204.741285 56.8333333,204.741285 C58.3095238,204.741285 59.7857143,206.94951 60.5238095,210.629885 Z" id="Path"></path>
                <path d="M59.7857143,193.700162 C61.2619048,195.908386 61.2619048,198.116611 60.5238095,198.852686 C59.7857143,199.588761 57.5714286,198.116611 56.8333333,195.908386 C55.3571429,193.700162 55.3571429,191.491937 56.0952381,190.755862 C56.8333333,190.755862 59.047619,191.491937 59.7857143,193.700162 Z" id="Path"></path>
                <path d="M58.3095238,174.562214 C59.7857143,177.506513 60.5238095,179.714738 59.047619,180.450813 C58.3095238,181.186888 56.0952381,179.714738 53.8809524,176.770438 C52.4047619,173.826139 51.6666667,171.617914 53.1428571,170.881839 C54.6190476,170.145764 56.8333333,171.617914 58.3095238,174.562214 Z" id="Path"></path>
                <path d="M55.3571429,157.63249 C56.8333333,159.840715 57.5714286,161.312865 56.0952381,162.04894 C55.3571429,162.785015 53.1428571,161.312865 51.6666667,159.840715 C50.1904762,157.63249 49.452381,156.16034 50.9285714,155.424265 C51.6666667,154.68819 53.8809524,155.424265 55.3571429,157.63249 Z" id="Path"></path>
                <path d="M52.4047619,139.966692 C53.1428571,142.910992 53.1428571,145.855291 51.6666667,145.855291 C50.1904762,145.855291 48.7142857,143.647067 47.9761905,140.702767 C47.2380952,137.758467 47.2380952,134.814167 48.7142857,134.814167 C50.1904762,134.078093 51.6666667,136.286317 52.4047619,139.966692 Z" id="Path"></path>
                <path d="M50.1904762,119.356594 C51.6666667,122.300894 50.9285714,125.245193 50.1904762,125.981268 C48.7142857,126.717343 46.5,124.509118 45.7619048,121.564819 C44.2857143,118.620519 45.0238095,115.676219 45.7619048,114.940144 C46.5,114.940144 48.7142857,116.412294 50.1904762,119.356594 Z" id="Path"></path>
                <path d="M42.8095238,97.2743462 C43.547619,100.218646 43.547619,102.426871 42.0714286,102.426871 C40.5952381,103.162946 39.1190476,100.954721 38.3809524,98.7464961 C37.6428571,95.8021964 37.6428571,93.5939716 39.1190476,93.5939716 C40.5952381,92.8578966 42.0714286,94.3300465 42.8095238,97.2743462 Z" id="Path"></path>
                <path d="M38.3809524,81.8167727 C40.5952381,84.0249975 41.3333333,86.2332223 40.5952381,86.9692972 C39.8571429,87.7053722 37.6428571,86.2332223 36.1666667,84.0249975 C33.952381,81.8167727 33.2142857,79.608548 33.952381,78.872473 C34.6904762,78.1363981 36.9047619,79.608548 38.3809524,81.8167727 Z" id="Path"></path>
                <path d="M34.6904762,68.5674241 C36.9047619,72.2477987 37.6428571,75.1920984 36.9047619,75.9281733 C36.1666667,76.6642483 33.2142857,74.4560235 31,70.7756488 C28.7857143,67.0952742 28.047619,64.1509745 28.7857143,63.4148996 C30.2619048,63.4148996 32.4761905,65.6231244 34.6904762,68.5674241 Z" id="Path"></path>
                <path d="M30.2619048,53.1098506 C32.4761905,56.0541503 33.2142857,58.99845 32.4761905,59.7345249 C31.7380952,60.4705999 29.5238095,58.2623751 27.3095238,55.3180754 C25.0952381,52.3737757 24.3571429,49.429476 25.0952381,48.693401 C25.8333333,47.9573261 28.047619,50.1655509 30.2619048,53.1098506 Z" id="Path"></path>
                <path d="M23.6190476,38.3883521 C25.0952381,40.5965769 26.5714286,42.0687267 25.8333333,42.8048016 C25.0952381,43.5408766 22.8809524,42.8048016 21.4047619,40.5965769 C19.9285714,38.3883521 18.452381,36.9162022 19.1904762,36.1801273 C19.9285714,35.4440524 21.4047619,36.9162022 23.6190476,38.3883521 Z" id="Path"></path>
                <path d="M17.7142857,25.1390034 C19.1904762,26.6111533 19.9285714,28.819378 19.1904762,28.819378 C18.452381,29.555453 16.9761905,28.819378 15.5,27.3472282 C14.0238095,25.8750783 13.2857143,23.6668535 14.0238095,23.6668535 C14.7619048,22.9307786 16.2380952,23.6668535 17.7142857,25.1390034 Z" id="Path"></path>
                <path d="M11.8095238,13.3618046 C13.2857143,14.8339544 14.0238095,17.0421792 13.2857143,17.7782541 C12.547619,18.5143291 10.3333333,17.7782541 8.85714286,16.3061043 C7.38095238,14.8339544 6.64285714,12.6257296 7.38095238,11.8896547 C8.11904762,11.1535798 10.3333333,11.8896547 11.8095238,13.3618046 Z" id="Path"></path>
                <path d="M4.42857143,3.0567556 C5.16666667,3.79283052 5.16666667,4.52890545 4.42857143,4.52890545 C3.69047619,5.26498038 2.95238095,4.52890545 2.95238095,4.52890545 C2.21428571,3.79283052 2.21428571,3.0567556 2.95238095,3.0567556 C2.95238095,2.32068067 3.69047619,2.32068067 4.42857143,3.0567556 Z" id="Path"></path>
                <path d="M53.8809524,259.21083 C53.8809524,259.946905 53.8809524,261.419055 53.1428571,261.419055 C52.4047619,261.419055 51.6666667,260.68298 51.6666667,259.946905 C51.6666667,259.21083 51.6666667,257.73868 52.4047619,257.73868 C53.1428571,257.73868 53.8809524,258.474755 53.8809524,259.21083 Z" id="Path"></path>
                <path d="M42.8095238,303.375326 C42.8095238,307.0557 41.3333333,310 40.5952381,310 C39.8571429,310 39.1190476,307.0557 39.1190476,303.375326 C39.1190476,299.694951 40.5952381,296.750651 41.3333333,296.750651 C42.8095238,296.750651 42.8095238,299.694951 42.8095238,303.375326 Z" id="Path"></path>
            </g>
            <g id="Stiel">
                <path d="M15.9829499,32.6738554 C15.9829499,32.6738554 27.7693932,29.0027433 29.2426986,37.0791899 C30.716004,45.1556364 101.434664,564.250884 101.434664,611.241119 C101.434664,611.241119 102.907969,647.952239 119.850981,636.938903 C136.793994,625.925567 135.320688,620.78601 131.637425,615.646453 C127.954161,610.506896 128.690814,614.912231 126.480856,601.696227 C124.270898,588.480224 95.5414421,349.123716 91.8581786,320.489042 C88.1749151,291.854368 55.0255433,47.3583037 55.762196,35.610745 C56.4988487,23.8631864 57.2355014,26.0658536 65.3386812,24.5974088 C73.4418609,23.128964 84.4916515,5.50762601 64.6020285,1.10229152 C44.7124054,-3.30304297 1.98654853,6.24184842 0.513243115,16.5209622 C-0.960062296,27.5342985 -0.223409591,35.610745 15.9829499,32.6738554 Z" id="Path" fill="#E40026"></path>
                <path d="M15.9829499,18.7236295 C15.9829499,18.7236295 46.1857108,12.1156277 58.7088068,12.8498502 C71.2319028,13.5840726 63.8653758,21.6605191 46.9223636,23.8631864 C29.9793513,26.0658536 -9.79989476,30.4711881 15.9829499,18.7236295 Z" id="Path" fill="#FFFFFF"></path>
                <path d="M36.6092257,41.4845244 C36.6092257,41.4845244 35.872573,30.4711881 41.7657946,30.4711881 C47.6590163,30.4711881 47.6590163,47.3583037 47.6590163,47.3583037 C47.6590163,47.3583037 85.9649569,339.578825 85.9649569,348.389494 C85.9649569,357.200163 82.2816934,364.542387 79.3350826,354.263273 C76.3884718,343.984159 36.6092257,41.4845244 36.6092257,41.4845244 Z" id="Path" fill="#FFFFFF"></path>
                <path d="M85.9649569,367.479277 C87.4382623,364.542387 91.8581786,351.326384 91.1215259,363.073942 C90.3848732,375.555723 86.7016096,376.289946 85.9649569,374.087278 C85.2283042,371.150389 85.9649569,367.479277 85.9649569,367.479277 Z" id="Path" fill="#FFFFFF"></path>
                <path d="M78.5984299,379.226835 C78.5984299,379.226835 78.5984299,374.087278 80.808388,374.821501 C83.0183461,375.555723 83.0183461,379.226835 83.0183461,381.429503 C83.0183461,383.63217 77.8617772,382.897947 78.5984299,379.226835 Z" id="Path" fill="#FFFFFF"></path>
                <path d="M85.9649569,402.721953 C85.9649569,402.721953 83.0183461,386.569059 85.9649569,382.897947 C88.9115678,378.492613 91.1215259,378.492613 91.1215259,388.037504 C91.1215259,397.582396 95.5414421,418.140623 95.5414421,418.140623 C95.5414421,418.140623 94.0681367,433.559294 90.3848732,424.014403 C85.9649569,413.001066 85.9649569,402.721953 85.9649569,402.721953 Z" id="Path" fill="#FFFFFF"></path>
                <path d="M91.1215259,458.522856 C91.1215259,458.522856 88.9115678,447.50952 95.5414421,447.50952 C98.4880529,447.50952 99.2247056,452.649077 99.2247056,458.522856 C99.2247056,464.396635 102.907969,480.549529 99.2247056,481.283751 C94.0681367,482.017973 94.8047894,476.144194 93.331484,470.270415 C91.8581786,464.396635 91.1215259,458.522856 91.1215259,458.522856 Z" id="Path" fill="#FFFFFF"></path>
                <path d="M98.4880529,516.526427 C98.4880529,516.526427 95.5414421,503.310423 99.9613583,501.841979 C104.381275,500.373534 105.117927,504.044646 106.591233,516.526427 C108.064538,529.008208 109.537844,545.895324 109.537844,548.832213 C109.537844,551.769103 105.117927,561.313994 103.644622,554.705993 C102.171316,547.363768 99.9613583,522.400206 98.4880529,516.526427 Z" id="Path" fill="#FFFFFF"></path>
                <path d="M107.327885,598.025115 C107.327885,598.025115 105.85458,586.277556 107.327885,582.606444 C108.801191,578.935332 112.484454,576.732665 113.95776,582.606444 C115.431065,588.480224 116.904371,609.038451 116.904371,611.975341 C116.904371,614.912231 115.431065,625.191344 111.747802,622.988677 C108.801191,620.78601 106.591233,611.241119 106.591233,606.835784 C107.327885,602.43045 107.327885,598.025115 107.327885,598.025115 Z" id="Path" fill="#FFFFFF"></path>
                <path d="M100.698011,488.625975 C100.698011,488.625975 104.381275,480.549529 105.85458,482.017973 C107.327885,483.486418 105.85458,488.625975 103.644622,491.562865 C101.434664,494.499755 98.4880529,492.297087 100.698011,488.625975 Z" id="Path" fill="#FFFFFF"></path>
                <path d="M97.7514002,432.825072 C97.7514002,433.559294 97.0147475,434.293516 96.2780948,434.293516 C95.5414421,434.293516 94.8047894,433.559294 94.8047894,432.825072 C94.8047894,432.090849 95.5414421,431.356627 96.2780948,431.356627 C97.0147475,431.356627 97.7514002,432.090849 97.7514002,432.825072 Z" id="Path" fill="#FFFFFF"></path>
                <path d="M102.907969,424.748625 C102.171316,426.951292 100.698011,428.419737 99.9613583,428.419737 C99.2247056,428.419737 99.2247056,426.21707 99.9613583,424.014403 C100.698011,421.811735 102.171316,420.343291 102.907969,420.343291 C104.381275,420.343291 103.644622,422.545958 102.907969,424.748625 Z" id="Path" fill="#FFFFFF"></path>
                <path d="M111.011149,560.579772 C111.011149,561.313994 110.274496,562.048217 109.537844,562.048217 C108.801191,562.048217 108.064538,561.313994 108.064538,560.579772 C108.064538,559.845549 108.801191,559.111327 109.537844,559.111327 C110.274496,559.111327 111.011149,559.111327 111.011149,560.579772 Z" id="Path" fill="#FFFFFF"></path>
                <path d="M108.064538,570.858886 C108.064538,572.327331 107.327885,573.061553 106.591233,573.061553 C105.85458,573.061553 105.117927,572.327331 105.117927,570.858886 C105.117927,569.390441 105.85458,568.656218 106.591233,568.656218 C107.327885,568.656218 108.064538,569.390441 108.064538,570.858886 Z" id="Path" fill="#FFFFFF"></path>
                <path d="M99.2247056,575.26422 C99.2247056,576.732665 98.4880529,578.20111 97.7514002,578.20111 C97.0147475,578.20111 96.2780948,576.732665 96.2780948,575.26422 C96.2780948,573.795775 97.0147475,572.327331 97.7514002,572.327331 C98.4880529,573.061553 99.2247056,573.795775 99.2247056,575.26422 Z" id="Path" fill="#FFFFFF"></path>
                <path d="M119.850981,551.03488 C119.850981,551.769103 119.114329,552.503325 118.377676,552.503325 C117.641023,552.503325 116.904371,551.769103 116.904371,551.03488 C116.904371,550.300658 117.641023,549.566436 118.377676,549.566436 C119.114329,549.566436 119.850981,550.300658 119.850981,551.03488 Z" id="Path" fill="#FFFFFF"></path>
                <path d="M90.3848732,512.855315 C90.3848732,513.589537 89.6482205,514.32376 88.9115678,514.32376 C88.1749151,514.32376 87.4382623,513.589537 87.4382623,512.855315 C87.4382623,512.121092 88.1749151,511.38687 88.9115678,511.38687 C89.6482205,511.38687 90.3848732,512.121092 90.3848732,512.855315 Z" id="Path" fill="#FFFFFF"></path>
                <path d="M93.331484,498.170867 C91.8581786,500.373534 90.3848732,501.841979 89.6482205,501.107756 C88.9115678,500.373534 89.6482205,498.905089 91.1215259,496.702422 C92.5948313,494.499755 94.0681367,493.03131 94.8047894,493.765532 C95.5414421,494.499755 94.8047894,495.968199 93.331484,498.170867 Z" id="Path" fill="#FFFFFF"></path>
            </g>
        </g>
    </g>
</svg>