<?xml version="1.0" encoding="UTF-8" standalone="no"?>
<!DOCTYPE svg PUBLIC "-//W3C//DTD SVG 1.1//EN" "http://www.w3.org/Graphics/SVG/1.1/DTD/svg11.dtd">
<svg width="134px" height="172px" viewBox="0 0 134 172" version="1.1" xmlns="http://www.w3.org/2000/svg" xmlns:xlink="http://www.w3.org/1999/xlink">
    <g id="Hessen" stroke="none" stroke-width="1" fill="none" fill-rule="evenodd">
        <g id="427-RRK">
            <polyline id="Fill-1" fill="#FFFFFE" points="66.5447149 2.84217094e-14 9.48322393 31.8791026 9.48322393 56.3611929 0.340951893 58.7098426 0.340951893 113.161215 14.7619718 119.009526 67.2687828 171.516337 124.400669 113.218811 124.320217 85.9373572 133.641678 83.7413834 134.043938 29.3073815 111.663656 25.3615769 66.5447149 2.84217094e-14"></polyline>
            <polyline id="Fill-2" fill="#FFFFFE" points="12.9088333 59.3022618 120.528003 34.4014554 66.5447149 3.07637454 12.9088333 34.4014554 12.9088333 59.3022618"></polyline>
            <polyline id="Fill-3" fill="#FFFFFE" points="119.8981 35.0962681 119.8981 111.34556 67.1161069 165.057322 66.8802362 165.057322 13.873343 111.117003 13.873343 34.9819897"></polyline>
            <polyline id="Fill-4" fill="#112C4A" points="117.371176 35.9145015 66.9707447 6.97372511 66.6489368 7.18948273 15.8946993 36.4922931 15.7173392 59.3022618 117.371176 35.9145015"></polyline>
            <polyline id="Fill-5" fill="#FFFFFE" points="4.69175916 62.2387596 4.69175916 108.397177 129.331097 80.098188 129.331097 33.5631091 4.69175916 62.2387596"></polyline>
            <path d="M54.2858423,34.049478 C54.2858423,31.0005303 54.0783127,28.4973762 53.6641678,26.5418442 C53.2500229,24.5863122 52.2471156,23.6080891 50.6554461,23.6080891 C49.5784864,23.6080891 48.7703096,24.154797 48.2318297,25.2491269 C47.6933499,26.3425426 47.3614854,27.6023477 47.2371505,29.0276279 C47.1137299,30.4538224 47.0506482,32.1277724 47.0506482,34.049478 C47.0506482,37.3160118 47.2536066,39.8548207 47.6604377,41.6704759 C48.0663546,43.4852169 49.0646907,44.3921303 50.6554461,44.3921303 C52.2635717,44.3921303 53.2701359,43.4852169 53.676967,41.6704759 C54.0828838,39.8548207 54.2858423,37.3160118 54.2858423,34.049478 Z M64.1064709,34.049478 C64.1064709,37.0335156 63.7499223,39.6527765 63.0377393,41.9063466 C62.3246421,44.1608308 61.3418478,46.0048271 60.091185,47.4383354 C58.839608,48.8718436 57.4097566,49.9414895 55.8025452,50.6454444 C54.1944196,51.3493994 52.4793293,51.7013768 50.6554461,51.7013768 C48.8489331,51.7013768 47.1420709,51.3493994 45.5339453,50.6454444 C43.9267338,49.9414895 42.5014536,48.8672725 41.2581046,47.4255362 C40.0147556,45.9837999 39.0328756,44.1434605 38.3124646,41.9063466 C37.5911393,39.6683184 37.2300196,37.0499717 37.2300196,34.049478 C37.2300196,31.0334424 37.5911393,28.4059534 38.3124646,26.1688395 C39.0328756,23.9308113 40.0101845,22.0831581 41.2462197,20.6249657 C42.4804264,19.1667733 43.9057066,18.0843283 45.5220603,17.3794591 C47.1374998,16.6764184 48.8489331,16.3235267 50.6554461,16.3235267 C52.4793293,16.3235267 54.1898484,16.6718473 55.789746,17.3675742 C57.3896436,18.0642153 58.8185808,19.1457461 60.0783858,20.6121665 C61.3381909,22.0795012 62.3246421,23.9399536 63.0377393,26.1935236 C63.7499223,28.4480079 64.1064709,31.0663546 64.1064709,34.049478 L64.1064709,34.049478 Z" id="Fill-6" fill="#FFFFFE"></path>
            <path d="M84.4928233,26.7658298 C84.4928233,25.6714999 84.2231263,24.6274524 83.6846465,23.6327732 C83.1470809,22.6390082 82.2557093,22.1407544 81.0123604,22.1407544 C79.7360992,22.1407544 78.8081586,22.617981 78.2285385,23.5706058 C77.6480042,24.5241447 77.3581942,25.5883052 77.3581942,26.7658298 C77.3581942,28.1079154 77.7183997,29.2059023 78.4388108,30.0597905 C79.160136,30.9136787 79.984769,31.3397085 80.9127096,31.3397085 C81.8571063,31.3397085 82.6908815,30.9136787 83.4122068,30.0597905 C84.1326178,29.2059023 84.4928233,28.1079154 84.4928233,26.7658298 Z M85.5121866,41.0606864 C85.5121866,40.0010971 85.2808872,39.0850414 84.8164597,38.3143479 C84.3520323,37.5436543 83.76327,36.9631201 83.051087,36.5736593 C82.338904,36.1841985 81.6258068,35.9894681 80.9127096,35.9894681 C79.7525553,35.9894681 78.7002798,36.4447533 77.7549688,37.357152 C76.8105721,38.2686365 76.3379167,39.5037575 76.3379167,41.0606864 C76.3379167,42.7355506 76.8105721,44.0118118 77.7549688,44.8894699 C78.7002798,45.7689565 79.7690114,46.2077856 80.9629921,46.2077856 C82.1889708,46.2077856 83.2540455,45.7351301 84.1573019,44.7898192 C85.0605584,43.8454225 85.5121866,42.6020735 85.5121866,41.0606864 Z M94.3628202,41.9813132 C94.3628202,42.793147 94.1936882,43.7210876 93.8545099,44.7660493 C93.5135031,45.8100967 92.8717156,46.8660291 91.9264047,47.935675 C90.982008,49.0044066 89.6060961,49.899435 87.7995831,50.6207603 C85.9930702,51.3420855 83.6974456,51.7013768 80.9127096,51.7013768 C78.0795195,51.7013768 75.7665247,51.3457424 73.9764678,50.6335595 C72.1864109,49.9204622 70.8068421,49.0208627 69.836847,47.935675 C68.866852,46.8495731 68.2332925,45.8055256 67.9352544,44.8026183 C67.6372164,43.7997111 67.4881973,42.8598855 67.4881973,41.9813132 C67.4881973,40.2406246 67.9855369,38.5995868 68.9793019,37.0581997 C69.9730669,35.5168126 71.3242947,34.3237461 73.0320711,33.478086 C71.6397031,32.6004279 70.5618292,31.5929495 69.7993637,30.4574793 C69.0368982,29.3220091 68.6556655,27.8683879 68.6556655,26.0938728 C68.6556655,25.1001079 68.866852,24.0469181 69.2901391,22.9370463 C69.7125121,21.8262603 70.400011,20.7575287 71.3535499,19.7299373 C72.3061747,18.7023459 73.5742078,17.8767987 75.1567351,17.2560385 C76.7401766,16.634364 78.6582253,16.3235267 80.9127096,16.3235267 C83.2659304,16.3235267 85.2306047,16.634364 86.8058181,17.2560385 C88.3792032,17.8767987 89.6481505,18.6977748 90.6090033,19.7171381 C91.5698561,20.7365014 92.2418131,21.7933481 92.6230458,22.8867638 C93.0042786,23.9810938 93.1953521,25.0498254 93.1953521,26.0938728 C93.1953521,27.9177561 92.8260043,29.3722916 92.0882229,30.4574793 C91.3504416,31.5435812 90.261597,32.5501454 88.8189464,33.478086 C89.9626447,34.0750763 90.9362966,34.8000585 91.7408166,35.6539467 C92.5444223,36.5078349 93.1825529,37.4897149 93.6552084,38.5995868 C94.1269496,39.7103728 94.3628202,40.837615 94.3628202,41.9813132 L94.3628202,41.9813132 Z" id="Fill-7" fill="#FFFFFE"></path>
            <path d="M67.6463586,67.8639996 C66.7531587,68.5972098 65.0984074,69.2435684 62.6802765,69.7975901 L60.5473844,70.2867017 L60.5473844,62.3685798 L62.6336509,61.890439 C64.8771644,61.3757291 66.497175,61.3035051 67.4927685,61.6765098 C68.4883619,62.0486003 68.9857015,62.9939112 68.9857015,64.5115284 C68.9857015,66.0117752 68.5386444,67.1298751 67.6463586,67.8639996 M76.323289,73.0330402 C75.6348759,72.3455413 74.761789,71.8152895 73.7031139,71.4422848 C74.589,70.7639283 75.3862061,70.0837432 76.0983891,69.3999013 C76.8087437,68.7142309 77.4852718,67.7259513 78.1243166,66.433234 C78.7642757,65.1405167 79.0851694,63.664954 79.0851694,62.0056316 C79.0851694,60.5821799 78.701194,59.1706131 77.9341574,57.7645316 C77.1689492,56.3593644 75.9155437,55.303432 74.1775978,54.5967344 C72.4387376,53.8900368 70.2107659,53.8461538 67.4927685,54.4696568 L50.6380757,58.3340952 L50.6380757,91.1905067 L60.5473844,88.9186521 L60.5473844,76.0929586 L61.6609131,75.8378892 C62.799126,75.5773345 63.7270666,75.5032821 64.4465634,75.6139036 C65.1660602,75.7263535 65.9038416,76.1889525 66.6626502,77.0035289 C67.4205445,77.8171911 68.2744327,79.1821323 69.2224863,81.0974383 L71.8079209,86.3368744 L82.4504397,83.8958878 L79.1327092,77.5218957 C77.9460423,75.2180432 77.0107879,73.7196248 76.323289,73.0330402" id="Fill-8" fill="#112C4A"></path>
            <polyline id="Fill-9" fill="#112C4A" points="117.584191 42.9833062 106.822823 45.4517197 94.9232415 62.8778044 94.9232415 48.1797736 85.0139328 50.4525425 85.0139328 83.3089539 94.9232415 81.0361851 94.9232415 65.6506555 107.484723 78.1563694 119.574464 75.3835183 105.351831 61.1745991 117.584191 42.9833062"></polyline>
            <path d="M33.2705015,75.7464665 C32.3782158,76.4796767 30.7225503,77.1260354 28.3053336,77.680057 L26.1724415,78.1691686 L26.1724415,70.2510468 L28.2577938,69.772906 C30.5022216,69.258196 32.1222322,69.1859721 33.1169114,69.5589768 C34.1125048,69.9310673 34.6116729,70.875464 34.6116729,72.3930811 C34.6116729,73.8942422 34.1637015,75.0123421 33.2705015,75.7464665 M41.9483462,80.9155071 C41.2590189,80.2280083 40.3868461,79.6968423 39.328171,79.3238376 C40.2131429,78.6463952 41.0103491,77.9662102 41.7234463,77.281454 C42.4328866,76.5957836 43.1094147,75.6084182 43.7493738,74.3157009 C44.3893328,73.0229837 44.7093123,71.547421 44.7093123,69.8871844 C44.7093123,68.4646468 44.3262511,67.05308 43.5601287,65.6469986 C42.7930921,64.2418314 41.5406008,63.185899 39.8026549,62.4792013 C38.064709,61.7715895 35.8349089,61.7286208 33.1169114,62.3521237 L16.2631329,66.2165621 L16.2631329,99.0729736 L26.1724415,96.801119 L26.1724415,83.9754256 L27.2859703,83.7203562 C28.4232689,83.4588872 29.3521237,83.385749 30.0707063,83.4963705 C30.7911174,83.6079062 31.5298129,84.0714194 32.2877073,84.8859959 C33.0465159,85.6987439 33.9004041,87.0645993 34.8484577,88.9799053 L37.4320638,94.2193414 L48.0764111,91.7783548 L44.7577664,85.4043627 C43.5710994,83.0995959 42.635845,81.6020918 41.9483462,80.9155071" id="Fill-10" fill="#112C4A"></path>
            <polyline id="Fill-11" fill="#BD252C" points="90.1902873 143.455047 15.3671902 107.336673 36.1457461 102.705198 99.7275054 133.433289 90.1902873 143.455047"></polyline>
            <polyline id="Fill-12" fill="#BD252C" points="44.7824505 143.884734 121.213673 105.564901 121.079282 90.3795871 34.6116729 133.731327 44.7824505 143.884734"></polyline>
            <path d="M50.6298477,118.996727 L53.2161964,128.809128 L57.6629976,138.403028 C57.6629976,138.403028 63.1977291,141.475746 61.4826388,142.069993 C59.7666344,142.663327 67.2687828,145.434349 67.2687828,145.434349 L73.7735094,140.882412 L77.5611527,136.329561 L81.7172295,126.829826 L84.2898649,116.14251 L84.2898649,106.641861 L76.7447478,108.028743 L67.1042219,106.641861 L59.9458229,108.028743 L50.2477007,106.641861 L50.6298477,118.996727" id="Fill-13" fill="#FFFFFE"></path>
            <polyline id="Fill-14" fill="#BD252C" points="57.6629976 118.185808 69.2992814 111.55766 69.2992814 132.901209 74.5213472 129.587135 74.5213472 128.261506 76.7593754 131.708142 65.7941343 138.403028 65.7941343 117.05948 60.3480829 120.174252 60.3480829 121.831746 57.6629976 118.185808"></polyline>
            <polyline id="Fill-15" fill="#BD252C" points="73.7735094 118.615494 74.6319687 120.42475 76.7447478 120.210821 75.4895138 121.806147 76.7447478 123.401474 74.6319687 123.187545 73.7735094 124.995886 72.9159642 123.187545 70.8031852 123.401474 72.0584191 121.806147 70.8031852 120.210821 72.9159642 120.42475 73.7735094 118.615494"></polyline>
            <path d="M50.6380757,107.087089 C50.2477007,135.710629 63.6347297,144.936096 67.1225064,144.936096 C68.2122653,144.506409 72.094074,142.89554 75.2280448,138.712037 C79.7150719,132.723849 80.3513741,130.33223 81.7016877,125.588305 C83.6553912,118.725202 83.7861257,113.286464 83.7799323,107.087089 C80.8203726,107.488435 73.2002889,108.290212 67.1225064,107.087089 C61.4789819,108.30484 53.7071365,107.486607 50.6380757,107.087089 M67.1042219,146.578048 L66.718418,146.473826 C66.5273445,146.422629 62.0000914,145.14911 57.5606041,139.473588 C55.0181383,136.22351 52.9976961,132.16617 51.5550456,127.414931 C49.774131,121.544678 48.8708745,114.578267 48.8708745,106.708599 L48.8708745,105.159898 L50.5082555,105.444223 C50.6005924,105.459765 59.9110823,107.036807 66.7723574,105.459765 L67.08868,105.387541 L67.4068311,105.453365 C75.0086303,107.040464 83.594138,105.463422 83.6800753,105.44788 L85.3375693,105.136128 L85.3375693,106.708599 C85.3375693,114.578267 84.4343128,121.544678 82.652484,127.414931 C81.2107477,132.16617 79.1903055,136.22351 76.6478397,139.473588 C72.2083524,145.14911 67.680185,146.422629 67.4900258,146.473826 L67.1042219,146.578048" id="Fill-16" fill="#1A1919"></path>
            <polyline id="Fill-17" fill="#BD252C" points="61.4826388 124.519574 62.3401839 126.328829 64.4538772 126.1149 63.1977291 127.710227 64.4538772 129.305553 62.3401839 129.091624 61.4826388 130.900879 60.6250937 129.091624 58.5114004 129.305553 59.7675486 127.710227 58.5114004 126.1149 60.6250937 126.328829 61.4826388 124.519574"></polyline>
            <path d="M129.331097,80.098188 L4.69175916,108.397177 L4.69175916,62.2387596 L129.331097,33.5631091 L129.331097,80.098188 Z M13.873343,34.9819897 L66.4350076,4.63604615 L66.7723574,4.40017553 L118.129985,34.0750763 L13.873343,58.0616555 L13.873343,34.9819897 Z M66.7723574,1.97015962 L65.8791574,2.5607504 L65.3973597,2.83867547 L11.7980472,33.7843521 L11.7980472,58.5388821 L12.6080525,58.3523797 L2.67954508,60.6370335 L2.67954508,110.917701 L2.6868589,110.915873 L16.4386645,116.688303 L65.4001024,166.511858 L66.0108062,167.132618 L66.9753159,168.088899 L67.4580278,167.623558 L67.9864512,167.132618 L121.378234,112.800095 L121.973396,112.194877 L121.973396,83.8328061 L119.8981,84.3036331 L119.8981,111.34556 L67.1161069,165.057322 L66.9753159,165.156973 L13.873343,111.117003 L13.873343,108.37615 L129.777239,82.0610338 L131.343311,81.7053994 L131.343311,31.0352709 L131.058986,31.1010952 L131.312227,31.0160721 L110.690918,27.3847617 L68.1766104,2.83867547 L67.6948127,2.5607504 L66.7723574,1.97015962 Z" id="Fill-18" fill="#1A1919"></path>
        </g>
    </g>
</svg>