<?xml version="1.0" encoding="utf-8"?>

<svg width="672px" height="672px" viewBox="0 0 672 672" version="1.1" xmlns="http://www.w3.org/2000/svg" xmlns:xlink="http://www.w3.org/1999/xlink">
    <g id="Hessen" stroke="none" stroke-width="1" fill="none" fill-rule="evenodd">
        <g id="475-DHC-Wiesbaden" fill-rule="nonzero">
            <path d="M336,672 C521.585125,672 672,521.557234 672,336 C672,150.442766 521.557234,0 336,0 C150.442766,0 0,150.442766 0,336 C0,521.585125 150.442766,672 336,672 L336,672 Z" id="Path" fill="#FFFFFF"></path>
            <path d="M343.479394,322.974606 C349.245442,325.596992 353.952989,325.848071 359.551905,324.76006 C363.033818,324.090515 365.345808,324.257901 367.602088,327.800912 C369.551959,330.869662 372.978162,333.157276 376.153667,335.249605 C385.62447,341.498696 395.65238,346.966651 404.733209,353.717901 C413.674762,360.413355 419.3851,369.731196 420.777865,381.141366 C421.112129,383.931139 422.365617,385.409718 424.761174,386.469832 C431.195749,389.287502 437.825311,390.096536 444.705572,388.980627 C451.808674,387.808923 455.875549,380.555514 455.652707,373.692673 C455.151311,358.962673 444.789138,349.840117 437.797456,338.653128 C427.351717,321.970287 412.755537,308.049322 405.318171,289.385742 C399.190004,274.06989 395.65238,258.558754 401.474139,242.294379 C404.566078,233.70188 409.245769,226.169493 416.516003,220.450459 C417.268097,219.864607 418.0759,219.139266 418.96727,218.999778 C424.00908,218.051255 427.602415,214.843016 431.446447,211.774266 C436.878231,207.450119 443.674925,207.92438 449.99808,208.119664 C458.020407,208.398641 465.652761,210.490971 472.728008,214.870914 C475.262841,216.433187 479.079018,215.875232 482.310233,216.293698 C483.675143,216.461084 485.040053,216.600573 486.962069,216.823755 C483.981552,222.291709 478.716899,222.849664 474.371471,225.778925 C475.346407,226.504266 476.0985,227.118016 476.878449,227.648073 C484.427236,232.641766 491.948169,237.635459 499.552667,242.517561 C501.001143,243.466084 502.700316,244.4983 504.343779,244.581993 C507.853548,244.777277 507.352152,246.562732 505.875821,248.1808 C503.98166,250.245232 501.808947,252.309663 499.329824,253.592959 C490.583259,258.223981 481.223876,259.284095 471.53023,257.498641 C469.357517,257.108072 467.156947,256.7733 464.566404,256.354834 C465.095655,259.758356 465.54134,262.631822 466.070591,266.063243 C464.092864,265.951652 462.532967,266.146936 461.140202,265.72847 C451.223713,262.855004 444.259887,257.163868 441.251514,246.646425 C439.886604,241.875914 436.906086,237.328584 433.842003,233.339209 C430.499366,229.015061 425.624688,229.098755 421.724945,233.143925 C412.894814,242.294379 409.412901,253.202391 412.56055,265.672675 C415.819621,278.505629 422.560604,289.692617 429.997971,300.433242 C438.549549,312.791935 447.769655,324.732162 456.293379,337.118753 C463.396481,347.496707 469.663925,358.321026 471.836639,371.098184 C473.535812,381.029775 468.131883,393.500059 459.747436,399.219093 C450.360199,405.607673 440.360144,405.440286 429.88655,403.264264 C422.727736,401.785684 415.624634,401.757786 409.106492,405.858752 C400.499203,411.298809 396.042354,421.118809 397.657962,431.16199 C399.27357,441.205172 410.527113,447.73324 419.997916,444.05074 C424.677608,442.237388 429.273733,442.265286 433.897714,444.078638 C439.608051,446.338354 443.006398,451.638922 442.115028,457.664831 C441.362935,462.742217 440.304434,467.791706 438.995234,472.729603 C435.959006,484.223467 435.931151,484.502444 442.811411,494.12716 C438.60526,496.33108 434.816939,495.187274 430.972907,493.15074 C428.855903,496.554262 426.766755,499.901989 424.705463,503.221819 C424.371199,503.110228 424.036936,502.998637 423.702672,502.887046 C423.173421,499.204546 422.672026,495.522046 422.142775,491.839546 C421.69709,491.811649 421.251405,491.811649 420.80572,491.783751 C419.468666,499.762501 415.541068,506.346364 410.554968,512.455967 C410.081428,513.041819 410.527113,515.022557 411.19564,515.747898 C414.204013,518.956137 415.123238,522.582841 413.619052,526.655909 C412.281997,530.338409 410.777811,533.937216 409.134348,537.480228 C408.660807,538.512443 407.407319,539.181989 405.763856,539.572557 C405.986698,538.484546 406.599515,537.312841 406.376672,536.308523 C406.042409,534.578864 405.624579,532.263353 404.426801,531.482216 C403.229023,530.673182 400.917033,531.147444 399.217859,531.593807 C397.685817,532.012273 396.320907,533.128182 394.872432,533.937216 C394.036772,534.411478 392.86685,534.74625 392.532586,535.471591 C390.861268,539.070398 388.465711,541.860171 384.928088,543.729318 C384.315271,544.064091 384.454548,545.654261 384.120284,546.630682 C383.117493,549.448352 382.031136,552.210227 380.972634,555 C378.772065,552.79608 376.571496,550.592159 374.398783,548.360341 C372.031082,545.905341 369.886223,543.199262 367.239969,541.079034 C365.51294,539.684148 357.407047,542.780796 356.3764,544.873125 C355.485031,546.686477 354.677227,548.527727 353.869423,550.313182 C349.91397,548.695114 347.629835,543.868807 348.075519,538.205568 C348.381928,534.271989 348.883323,530.505796 351.668854,527.213864 C353.11733,525.512103 354.48224,522.750228 352.253815,520.434716 C350.136812,518.202898 346.905597,518.286591 344.120066,520.323125 C343.479394,520.797387 342.810867,521.271648 342.114484,521.773807 C339.217533,514.799376 344.705028,506.40216 352.309526,506.123183 C359.635471,505.844205 366.989271,505.621023 374.315217,505.676819 C378.549223,505.704717 381.94757,504.505114 384.816666,501.324773 C390.972689,494.48983 394.008917,486.594774 393.256824,477.360626 C393.145403,475.770456 392.421165,474.263978 391.669071,471.697388 C390.332017,473.594433 389.579924,474.710342 388.77212,475.770456 C387.072946,478.058069 385.457339,480.429376 383.591033,482.577501 C381.864004,484.55824 380.359818,484.446649 379.607725,481.601081 C379.106329,479.676137 378.409946,477.779092 377.546432,475.017217 C375.12302,478.392842 373.340281,481.126819 371.306844,483.665512 C370.220487,485.004603 368.799866,486.176308 367.323535,487.096933 C366.738574,487.459603 365.429374,487.208524 364.788702,486.76216 C364.426583,486.511081 364.426583,485.199887 364.705136,484.530342 C367.685654,477.388524 365.791493,470.888353 361.891751,464.806649 C357.351336,457.664831 352.365236,450.774092 347.880532,443.604377 C345.735674,440.200854 343.813658,436.490456 342.67159,432.64057 C338.688282,419.38915 347.072729,402.232048 359.802603,396.791991 C364.398728,394.83915 368.772011,392.216764 374.120229,393.304775 C374.928033,393.472161 375.875114,392.942105 377.518577,392.551536 C376.43222,391.240343 375.847258,390.263923 375.039455,389.594377 C368.18705,383.79165 360.109011,380.583412 351.446011,378.965343 C333.897169,375.701309 316.543314,371.990912 300.860778,362.979946 C297.573852,361.110798 294.816177,358.293128 291,355.280173 C296.181087,353.020457 300.13654,351.095514 304.203414,349.561139 C309.913752,347.385117 314.231324,343.758412 317.378974,338.513639 C318.103212,337.286139 319.802385,336.365514 321.250861,335.891253 C328.270398,333.60364 334.872105,330.89756 339.022545,324.14631 C339.718928,323.030401 339.133967,322.807219 340.693864,322.221367 L343.479394,322.974606 L343.479394,322.974606 Z" id="Path" fill="#C94A35"></path>
            <path d="M337.417604,323.437754 C333.314929,330.107449 326.365499,332.646956 319.443979,335.158556 C317.964783,335.688783 316.290221,336.498076 315.397122,337.725969 C309.061698,346.26541 300.214432,350.590944 290.250791,353.046731 C289.02278,353.353704 287.571493,352.683944 286.287663,352.488598 C288.883233,348.079344 291.115981,344.311943 293.320821,340.544543 C292.957999,340.23757 292.595177,339.90269 292.232356,339.595716 C284.278189,341.521277 276.184476,342.721263 270.072327,349.474677 C264.071815,356.060651 261.727429,363.734986 261.783248,372.469773 C261.448335,372.637213 261.141332,372.804653 260.80642,373 C259.662136,372.07908 258.294578,371.297693 257.401479,370.181426 C252.15452,363.455919 250.340411,355.390891 248.470484,347.325864 C246.628467,339.344556 248.191391,331.670222 250.312502,323.995888 C251.540514,319.642447 251.038145,318.805247 246.516829,318.163394 C244.284081,317.856421 241.967604,317.968047 239.734856,317.577354 C235.911274,316.9355 233.399432,314.395993 231.501596,311.214633 C230.106128,308.842566 231.920236,307.530953 233.315704,306.051899 C236.162458,303.010072 239.5674,300.247312 241.548964,296.703165 C245.316727,289.949751 248.358847,282.805643 251.428876,275.717349 C253.549987,270.805775 256.592107,266.843028 261.308789,264.275615 C263.625265,263.019814 264.211362,261.736108 262.648438,259.196601 C259.52259,254.033867 258.824856,248.312999 259.885411,241.894465 C262.285616,242.927012 264.350908,243.792119 266.360382,244.713039 C270.853789,246.778133 275.347195,247.001386 279.812692,244.657226 C286.287663,241.224705 293.125455,240.331692 300.353979,241.224705 C306.242853,241.978185 311.350265,239.047985 312.466639,234.666638 C313.387648,231.010864 311.489812,228.527171 307.722049,228.582984 C306.661493,228.610891 305.573028,228.917864 304.512473,228.889957 C298.511961,228.862051 295.860572,225.234184 297.479315,219.457503 C298.037502,217.504036 298.874783,217.057529 301.079622,217.224969 C305.07066,217.504036 309.145426,217.113343 313.136464,216.722649 C314.364476,216.611023 315.508759,215.606383 317.378686,214.657556 C312.606186,211.838982 308.08487,211.699449 303.926376,212.341302 C298.093321,213.234316 292.427721,215.271502 286.678394,216.750556 C283.329271,217.615663 279.980148,218.871463 276.603116,219.038903 C266.695294,219.513316 259.410952,212.229675 259.801683,202.266994 C260.108686,194.564754 263.904359,188.843886 271.467794,184.295099 C271.049154,187.560179 270.686332,189.848526 270.490967,192.136873 C270.267692,194.59266 269.960689,197.076354 270.128145,199.532141 C270.379329,203.048381 272.667897,204.973941 276.017019,205.866955 C280.705791,207.122755 285.310835,207.457635 290.111245,206.257648 C299.321332,203.969301 308.698876,203.271634 318.327604,204.583248 C319.499797,201.234448 317.964783,199.225167 315.145938,198.527501 C310.2618,197.355421 305.405572,196.881007 300.493525,199.364701 C297.730499,200.760034 294.409286,201.150728 291.283438,201.653048 C288.045952,202.155368 286.538847,200.285621 285.98066,197.215887 C285.11547,192.58338 283.831639,188.006686 283.217634,183.346272 C283.022268,181.811405 284.082824,179.885845 285.08756,178.490512 C285.757385,177.541685 287.2924,176.899832 288.520411,176.704485 C297.618862,175.253338 303.842648,169.783631 308.726786,162.472083 C311.182809,158.81631 314.197019,156.946563 318.829973,157.001162 C336.887326,157.197723 354.94468,157.058189 373.002034,157.114003 C378.38854,157.141909 380.928291,161.24419 384.500689,165.067404 C382.128394,165.402284 380.509651,165.653444 378.053628,166.01623 C382.016756,170.676644 387.849812,172.518484 389.887195,177.876565 C386.789256,179.523059 383.914592,181.057925 380.314285,182.983486 C389.022005,191.634553 396.055163,200.397248 395.999674,213.206409 C393.096771,212.927342 390.333745,212.648276 387.319534,212.369209 C387.319534,213.401756 387.124169,214.266862 387.347443,214.964529 C390.11047,222.945837 389.356917,231.066678 387.821902,239.075892 C386.6218,245.410706 386.314797,251.382733 390.054651,256.991974 C390.305835,257.35476 390.277926,257.884987 390.612838,259.364041 C388.435908,259.364041 386.510163,259.615201 384.696054,259.308227 C382.323759,258.917534 381.012019,259.419854 381.570207,261.959361 C383.077312,269.159282 381.263204,275.968509 379.337458,282.74983 C377.551259,289.112551 375.904607,295.475271 376.825616,302.172872 C376.881435,302.591472 376.63025,303.065886 376.351157,304.210059 C372.639212,302.424032 369.150543,300.721725 365.661873,299.047325 C362.061566,303.791459 364.126859,312.191367 367.838803,315.09366 C371.550747,317.995954 371.299563,319.056407 366.945704,320.786621 C360.024183,323.549381 353.018935,325.112155 345.650864,322.433114 C345.260133,322.237768 340.459724,318.498274 337.417604,323.437754 L337.417604,323.437754 Z M326.644593,169.058057 C322.960557,168.751084 320.727809,170.202231 320.25335,172.769644 C320.113803,173.578938 322.988467,175.169618 324.690938,176.034725 C325.667765,176.537045 327.20278,176.732392 328.123788,176.313791 C329.854169,175.504498 331.305455,174.109165 332.868379,172.964991 C331.472911,171.792911 330.161171,170.481298 328.654066,169.476657 C327.928423,169.002244 326.812049,169.085964 326.644593,169.058057 L326.644593,169.058057 Z" id="Shape" fill="#C94A35"></path>
            <path d="M251.545393,517.573372 C255.170815,509.512505 247.445877,507.448477 244.93597,501.535315 C242.091408,508.173676 234.589573,509.010444 232.246993,515.286206 C231.661347,516.903958 229.430319,517.908079 227.05985,520 C225.944336,515.927728 225.1077,512.915362 224.32684,509.875105 C224.159513,509.177798 224.410503,508.201568 224.020073,507.811076 C221.119736,504.798711 220.896633,501.284284 221.789044,497.463043 C221.900596,496.933089 221.45439,496.068429 220.980296,495.677937 C217.996295,493.083956 211.107993,492.609787 207.622011,494.7296 C207.203693,494.98063 206.84115,495.287445 206.422833,495.510583 C203.857149,496.988874 202.40698,496.291567 202.100214,493.307094 C201.709784,489.736883 202.434868,486.445594 204.721673,483.544798 C208.263431,479.02625 211.749414,474.451917 215.84893,469.0966 C213.171695,468.901354 210.661788,468.734 208.123992,468.538755 C207.789338,465.805312 209.964591,461.956178 213.311134,460.422103 C217.271211,458.609105 221.342839,456.935569 225.442354,455.457278 C229.15144,454.118449 232.944189,456.349831 235.175218,460.812595 C238.80064,468.092478 243.206922,470.100722 250.485654,466.530511 C256.091114,463.769176 261.11093,459.836365 266.270184,456.238262 C267.162596,455.596739 267.413586,454.034772 267.943456,452.891189 C266.772165,452.640158 265.628763,452.277559 264.457473,452.138097 C259.883864,451.691821 255.003488,452.249667 251.601169,448.12161 C251.32229,447.786903 251.182851,447.312734 251.015524,446.950135 C251.266514,446.615427 251.378066,446.28072 251.517505,446.28072 C260.887827,445.862336 265.126782,438.694021 269.616727,432.195122 C274.636543,424.915238 279.154376,417.300647 283.895313,409.825518 C287.269744,404.525986 290.923054,399.310131 296.640065,396.493011 C301.631993,394.038491 306.958574,391.918678 312.396707,390.802987 C326.284863,387.902191 340.284569,385.55924 354.284276,383.188396 C360.140727,382.184274 364.909551,385.391886 369.678376,388.125329 C370.40346,388.543713 371.18432,390.049896 370.961217,390.691418 C370.710226,391.416617 369.371609,392.002355 368.423422,392.197601 C354.869921,394.707905 344.635076,401.290482 339.447933,414.734558 C338.360307,417.551678 335.934063,420.117767 333.563595,422.126011 C329.268864,425.752006 326.982059,429.740601 327.149386,435.681656 C327.316713,441.594818 326.31275,447.563765 325.504002,453.449034 C323.914394,465.331143 318.615701,475.456038 310.444557,484.158428 C309.49637,485.16255 308.408743,486.055103 306.874911,487.505501 C305.257415,483.098522 309.831024,478.189481 304.615994,474.926085 C301.855096,481.369201 297.811356,486.361918 290.337409,487.533393 C290.811502,483.070629 291.22982,479.193603 291.648138,475.344469 C291.22982,475.205008 290.783614,475.065547 290.365297,474.953978 C289.6681,475.483931 288.970903,476.041776 288.245819,476.515945 C284.285743,479.109926 280.297778,481.7318 276.309814,484.242105 C275.110636,484.995196 273.744131,485.525149 272.461289,486.166672 C269.05897,487.840208 267.831904,490.517866 268.863755,494.143862 C269.97927,498.104565 269.282073,501.423746 265.879754,504.073512 C265.126782,504.659249 264.764239,505.830725 264.345921,506.779062 C262.031229,512.050702 258.517358,515.983513 251.545393,517.573372 L251.545393,517.573372 Z" id="Path" fill="#C94A35"></path>
            <path d="M236.541576,283.664714 C232.402954,286.498535 228.991387,288.860053 225.551856,291.193789 C225.160365,290.915963 224.768874,290.66592 224.377382,290.388094 C225.328147,281.02537 228.068586,271.60708 223.762182,262.188791 C220.909888,264.717004 218.141485,267.16187 215.401046,269.578953 C215.093446,269.412258 214.785845,269.21778 214.478245,269.051084 C214.282499,265.689394 214.142681,262.299921 213.891008,258.910448 C213.387662,251.464721 210.367586,245.158079 204.998563,239.934956 C204.74689,239.684913 204.495217,239.43487 204.243544,239.184827 C202.76147,237.629004 201.475141,235.156355 199.769358,234.822964 C198.203392,234.517356 196.301863,236.851092 194.344407,237.517873 C190.205784,238.934784 186.011235,240.657303 181.732794,241.018476 C178.992355,241.240737 175.916352,239.546 173.23184,238.212437 C171.498093,237.37896 171.917548,235.878702 173.623331,234.98966 C173.819077,234.87853 174.098714,234.850747 174.294459,234.767399 C181.39723,231.85023 181.39723,231.85023 180.698138,224.37672 C180.642211,223.904416 180.614247,223.40433 180.390538,223.043157 C178.684755,220.292683 170.491401,216.875428 167.079834,217.736687 C164.507177,218.375686 163.836049,217.653339 164.031794,215.152909 C164.339395,211.207784 166.101106,208.179485 169.288963,205.845749 C175.105405,201.622799 175.077442,201.595017 183.774141,200.928235 C177.985663,194.677158 178.740682,184.925478 169.316927,181.813831 C171.190492,177.729794 174.350387,177.507533 177.650099,177.618663 C178.461045,177.646446 179.495701,177.674228 180.082938,178.146532 C185.088434,182.230569 190.597276,179.785703 196.162045,179.507878 C196.609463,176.451796 195.071462,174.451451 192.778441,172.701149 C191.827677,171.95102 191.184513,170.784152 190.40153,169.811763 C191.743786,169.200546 193.030114,168.144809 194.400334,168.061461 C199.629539,167.72807 204.495217,168.644895 207.655111,173.451279 C207.850857,173.729104 208.130493,174.062495 208.438094,174.173625 C216.239956,177.396403 217.41443,184.175349 217.470357,191.315468 C217.582212,209.179657 227.117821,221.987419 239.897216,232.989315 C243.504529,236.07318 247.55926,238.795871 251.75381,241.018476 C254.801849,242.629865 255.808541,244.685775 256.25596,247.852987 C256.731342,251.047982 257.738034,254.242977 259.08029,257.187929 C260.366619,259.966186 260.534401,262.133226 258.073598,264.189136 C251.166573,269.940126 246.468677,276.996898 244.371402,285.831754 C243.700274,288.665575 241.938564,291.221571 240.148889,295 C238.806633,290.638137 237.688087,287.165317 236.541576,283.664714 L236.541576,283.664714 Z" id="Path" fill="#C94A35"></path>
            <path d="M246.893114,320.555052 C245.888792,327.968889 244.466002,334.74408 244.24282,341.547038 C244.10333,345.934252 244.772878,350.793508 246.642033,354.708681 C249.989774,361.706009 246.530442,366.565265 242.931621,371.646659 C241.927299,373.062785 240.309225,374.006869 238.161091,375.895037 C236.62671,374.034636 235.510797,371.896563 233.725336,370.64704 C230.517084,368.370132 227.001957,366.426429 223.431034,364.677097 C221.394492,363.677479 220.641251,364.566029 220.724944,367.065075 C220.920229,372.674044 219.497439,378.116411 216.26129,382.697996 C214.782705,384.808301 211.965024,386.00229 209.733197,387.585019 C209.398423,387.27958 209.035751,386.974141 208.700977,386.668702 C208.979955,385.724618 209.621605,384.697232 209.454218,383.864217 C208.952057,381.559541 208.198816,379.3104 207.306085,377.116793 C207.166596,376.811354 205.715908,376.977957 204.878973,377.089026 C204.627893,377.116793 204.516302,377.727671 204.237323,377.894274 C199.717874,380.615457 196.202747,384.22519 193.664043,388.862309 C193.078189,389.917462 191.766991,390.583874 190.093121,392 C189.033003,388.834542 188.335557,386.141126 187.219643,383.64208 C186.410606,381.837213 185.07151,380.282251 183.871903,378.671755 C183.537129,378.22748 182.811785,378.116411 182.337522,377.755438 C177.790175,374.478911 175.976816,374.645514 172.126914,378.921659 C171.345775,379.782442 170.955205,381.031965 170.313555,382.253721 C166.37996,377.394465 166.324165,369.758491 169.058152,366.232059 C170.620431,364.205055 171.764242,361.844845 173.242828,359.73454 C174.916698,357.318795 176.785853,355.014119 178.487621,352.737211 C175.195676,346.322993 171.373673,340.54742 162.139489,342.71326 C162.083694,342.185683 162.055796,341.63034 162,341.102763 C164.148133,339.4645 166.073084,337.465263 168.4444,336.299042 C172.489586,334.327572 176.785853,332.217267 181.110017,336.049137 C181.556383,336.465645 182.532807,336.687782 183.118662,336.521179 C187.219643,335.299423 190.87426,336.993221 194.584672,338.159443 C201.196459,340.241981 206.887618,337.659633 212.299798,334.605244 C220.306477,330.106961 228.034177,325.136636 236.012958,320.582819 C237.296258,319.833105 239.221209,320 240.867181,320.055243 C243.043213,320.027476 245.219244,320.388449 246.893114,320.555052 L246.893114,320.555052 Z" id="Path" fill="#C94A35"></path>
            <path d="M333.525876,138.238676 C332.331865,137.760736 331.471067,137.451481 330.610269,137.114111 C326.833865,135.652177 325.445481,133.374934 326.000835,129.635757 C326.556188,125.868466 328.638764,124.069163 332.304098,123.394425 C333.664714,123.141398 335.414078,122.129289 335.941664,120.948497 C337.30228,117.855944 339.190482,116.028527 342.633674,116.000413 C346.187937,115.972299 348.742564,117.378005 350.408624,120.667356 C350.991746,121.820034 352.324594,123.141398 353.463069,123.338196 C356.739655,123.872364 358.71116,125.559211 359.405352,128.707992 C360.15508,132.109799 358.322413,134.190244 355.406806,135.483493 C354.323867,135.961433 353.240928,136.411258 350.991746,137.423367 C353.546372,138.435475 355.12913,139.503811 356.79519,139.644381 C359.127675,139.84118 361.571231,139.588153 363.875949,139.110213 C366.48611,138.604159 368.457616,137.78885 367.069232,133.993445 C365.181029,128.848562 368.513151,125.025043 373.900081,125.025043 C375.371768,125.025043 377.093364,124.406533 378.287374,123.506881 C381.56396,121.060953 385.756879,121.285866 388.950162,124.378418 C391.560324,126.908689 391.754698,129.523301 389.089001,133.037565 C387.894991,134.611955 386.256698,135.933319 384.590637,137.001655 C380.703162,139.475697 377.870859,142.540135 376.454707,147.094621 C373.650171,156.203593 374.483202,153.954464 365.819686,154.40429 C351.935847,155.135257 338.02424,154.769774 324.112632,154.88223 C320.919349,154.910344 317.670531,155.191485 314.505016,154.769774 C312.950026,154.544861 310.811914,153.279726 310.228793,151.902134 C307.452025,145.37966 303.536782,140.066093 297.233519,136.636171 C293.734792,134.724412 293.845863,131.041463 294.123539,127.639655 C294.373448,124.434647 296.62263,122.916485 299.454934,122.044947 C302.509378,121.117181 304.925166,122.410431 306.757833,124.575217 C308.090682,126.121493 309.145854,126.824346 311.256197,126.149608 C314.171803,125.249956 316.976339,125.671668 318.725703,128.707992 C320.391764,131.603745 319.642036,134.246472 317.726066,136.720514 C315.504652,139.588153 315.671258,140.291006 319.031147,141.809168 C323.946026,144.114525 329.693936,142.821276 333.525876,138.238676 L333.525876,138.238676 Z" id="Path" fill="#C94A35"></path>
            <path d="M82.5,485 C92.1688207,485 100,477.168821 100,467.5 C100,457.831179 92.1688207,450 82.5,450 C72.8311793,450 65,457.831179 65,467.5 C65,477.140549 72.8311793,485 82.5,485 L82.5,485 Z" id="Path" fill="#C94A35"></path>
            <path d="M588.5,485 C598.168821,485 606,477.168821 606,467.5 C606,457.831179 598.168821,450 588.5,450 C578.831179,450 571,457.831179 571,467.5 C571,477.140549 578.831179,485 588.5,485 L588.5,485 Z" id="Path" fill="#C94A35"></path>
            <path d="M172.865886,531.388135 C160.253964,542.015251 147.865261,553.337858 135.727681,565.411597 L152.050634,544.018267 C160.170256,533.252053 164.829971,527.020446 166.001875,525.323446 L151.743706,512.693313 C136.453145,525.79638 124.455078,536.729512 115.777405,545.46489 L130.175087,526.464052 L145.075013,506.795542 L131.737626,495 L91,553.115301 L108.048417,568.193565 C122.501904,555.980727 131.960846,547.913022 136.453145,543.962628 C128.473035,555.340875 121.664829,565.773253 116.028528,575.259762 L133.188555,590.421485 L186.175371,543.155857 L172.865886,531.388135 L172.865886,531.388135 Z M192.732454,547.18971 L188.240155,555.201776 L204.088765,564.020613 L208.581065,556.008547 L192.732454,547.18971 L192.732454,547.18971 Z M186.538103,558.261941 L158.272887,608.643372 L174.121498,617.462209 L202.358811,567.080778 L186.538103,558.261941 L186.538103,558.261941 Z M245.71927,610.841126 C247.728249,605.611027 248.649031,601.326797 248.537421,597.988436 C248.425811,594.650075 247.198102,591.534272 244.854293,588.641026 C242.510485,585.747779 239.050577,583.438746 234.418765,581.686107 C230.651929,580.239484 227.024606,579.71091 223.564699,580.044746 C220.104791,580.378582 217.202932,581.686107 214.887026,583.939501 C212.57112,586.165075 210.506336,589.642534 208.720577,594.371879 L202.721543,610.117815 C201.186907,614.123848 200.32193,617.295291 200.070808,619.604324 C199.847588,621.913357 200.126612,624.22239 200.935785,626.531423 C201.744957,628.840456 203.307496,631.01039 205.567597,633.013407 C207.8556,635.016424 210.729556,636.685604 214.217367,638.020949 C217.816787,639.384113 220.969768,639.996145 223.760016,639.884867 C226.522362,639.773588 229.061488,638.994637 231.405296,637.548014 C233.721202,636.101391 235.451156,634.571309 236.539353,632.929948 C237.655453,631.288587 238.827357,628.812636 240.110871,625.474275 L241.617605,621.496062 L225.992215,615.570471 L223.285674,622.692308 C222.253282,625.362996 221.360402,627.115636 220.579133,627.866767 C219.797863,628.645718 218.793374,628.784816 217.537762,628.311882 C216.533273,627.922407 215.975223,627.310374 215.891516,626.475783 C215.807808,625.641193 216.226345,623.999832 217.147127,621.551701 L221.583622,609.895257 L242.90112,617.962963 L245.71927,610.841126 L245.71927,610.841126 Z M225.015628,601.13206 L226.522362,597.181666 C227.694266,594.149321 228.531341,592.341042 229.061488,591.756829 C229.591635,591.172616 230.428709,591.089157 231.572711,591.534272 C232.493493,591.895928 232.939933,592.53578 232.939933,593.453829 C232.939933,594.371879 232.381883,596.235797 231.321589,599.045584 L229.814855,602.995978 L225.015628,601.13206 L225.015628,601.13206 Z M298.901404,615.292274 C299.375746,612.426848 299.571063,610.312552 299.487356,608.921569 C299.403648,607.530585 298.789794,605.917044 297.617889,604.108765 C296.445985,602.300486 294.632324,600.714765 292.149003,599.295961 C289.665682,597.904977 286.512701,596.875649 282.717963,596.263617 C278.895323,595.623764 275.463318,595.651584 272.366142,596.374895 C269.296869,597.070387 266.980963,598.405732 265.418424,600.353109 C263.855885,602.300486 262.68398,605.555388 261.930613,610.117815 C261.400466,613.317077 261.512076,616.182504 262.23754,618.686275 C262.963005,621.217865 265.641643,624.305849 270.273456,628.005866 C275.798147,632.401374 278.839518,634.988604 279.369665,635.767555 C279.87191,636.546506 279.927715,638.326965 279.481275,641.025473 C279.146445,643.00067 278.700006,644.252556 278.114054,644.78113 C277.528101,645.309703 276.607319,645.476621 275.37961,645.281884 C274.235608,645.087146 273.538046,644.502933 273.314826,643.529244 C273.091607,642.555556 273.203216,640.524719 273.733364,637.464555 L274.319316,633.847997 L258.917145,631.288587 L258.470705,634.042735 C257.689436,638.799899 257.689436,642.444277 258.470705,644.975867 C259.251975,647.507458 261.121441,649.733032 264.023299,651.62477 C266.925158,653.516507 270.608286,654.824032 275.016878,655.547344 C279.006933,656.215016 282.522646,656.131557 285.564017,655.324786 C288.605387,654.518016 290.921293,653.043573 292.511735,650.873638 C294.102177,648.703704 295.301983,645.309703 296.05535,640.691637 C296.752912,636.546506 296.473888,633.263784 295.274081,630.815653 C294.046372,628.367521 291.116611,625.529915 286.484799,622.219373 C282.996988,619.743422 280.736887,617.907324 279.676593,616.738897 C278.616298,615.570471 278.030346,614.541143 277.918736,613.706553 C277.807126,612.844143 277.890834,611.536618 278.197761,609.811798 C278.420981,608.532093 278.811616,607.586224 279.397568,607.029831 C279.98352,606.473437 280.764789,606.2787 281.741376,606.417798 C282.941183,606.612536 283.638745,607.08547 283.834063,607.836601 C284.02938,608.587733 283.889868,610.284733 283.443428,612.899782 L282.941183,615.987766 L298.343354,618.519356 L298.901404,615.292274 L298.901404,615.292274 Z M313.773427,590.644042 L316.452066,661 L332.942433,660.360147 L333.91902,655.964639 C335.453657,657.717278 337.155708,658.996983 338.96937,659.831574 C340.783031,660.666164 342.736205,661.02782 344.800989,660.97218 C347.674945,660.860902 350.130363,659.998492 352.167244,658.41277 C354.204126,656.799229 355.459737,654.963131 355.961982,652.876655 C356.436324,650.790179 356.603739,647.618736 356.464227,643.390146 L355.459737,617.406569 C355.292323,613.150159 355.097005,610.368192 354.845883,609.060667 C354.622663,607.753142 354.008808,606.445618 353.004319,605.138093 C351.99983,603.830568 350.632608,602.80124 348.818946,602.105748 C347.005285,601.410256 344.912599,601.13206 342.485083,601.215519 C340.392396,601.298978 338.467125,601.771912 336.709269,602.662142 C334.951412,603.552371 333.388873,604.887716 331.993749,606.612536 L331.351992,589.94855 L313.773427,590.644042 L313.773427,590.644042 Z M338.774052,643.139769 C338.913565,646.561589 338.829857,648.731523 338.52293,649.621753 C338.216003,650.539802 337.518441,651.012737 336.430244,651.040556 C335.342047,651.068376 334.616582,650.678901 334.225948,649.816491 C333.835313,648.954081 333.58419,646.978884 333.444678,643.8909 L332.495994,619.020111 C332.384384,615.793028 332.468091,613.790012 332.747116,612.983241 C333.026141,612.176471 333.723703,611.759175 334.783997,611.703536 C335.900097,611.675716 336.653464,612.093012 337.072001,612.983241 C337.490538,613.873471 337.741661,615.820848 337.85327,618.797553 L338.774052,643.139769 L338.774052,643.139769 Z M387.073251,614.457684 C386.319884,611.34188 385.985054,609.366683 386.068762,608.532093 C386.180372,607.725323 386.794226,607.168929 387.966131,606.890732 C388.97062,606.640355 389.807694,606.918552 390.477354,607.697503 C391.119111,608.476454 391.816673,610.340372 392.542138,613.261438 C393.100188,615.598291 393.295505,617.184012 393.100188,618.046422 C392.876968,618.908832 390.254134,621.106586 385.14798,624.695324 C380.376655,628.005866 377.530602,630.565276 376.581917,632.429194 C375.633233,634.265292 375.661135,637.297637 376.693527,641.498408 L377.809627,646.116474 C379.204751,651.791688 381.353242,655.130049 384.2551,656.215016 C387.156959,657.272164 390.114622,657.439082 393.100188,656.71577 C395.388191,656.159377 397.229755,655.185688 398.652782,653.766885 C400.047906,652.348081 401.052395,650.539802 401.582542,648.286409 L402.810252,653.29395 L419.468034,649.232278 L412.576121,621.078767 C410.31602,611.814815 408.502358,605.750126 407.190942,602.940339 C405.879525,600.102732 403.479911,598.044076 400.047906,596.708731 C396.6159,595.373387 391.984088,595.429026 386.208274,596.82001 C381.381145,597.988436 377.670114,599.852355 375.075183,602.383945 C372.480252,604.915535 371.001421,607.502765 370.554981,610.089995 C370.108541,612.677225 370.443371,616.154684 371.503665,620.494553 L372.424447,624.250209 L388.496278,620.327635 L387.073251,614.457684 L387.073251,614.457684 Z M398.652782,638.243506 C399.350344,641.053293 399.601466,642.833752 399.434051,643.584884 C399.266636,644.336015 398.652782,644.836769 397.564585,645.087146 C396.448486,645.365343 395.583509,645.114966 394.997556,644.363834 C394.411604,643.612703 393.769847,641.776605 393.044383,638.883358 C392.430528,636.351768 392.179406,634.348751 392.263113,632.902128 C392.374723,631.455505 393.546627,629.36903 395.806728,626.726161 L398.652782,638.243506 L398.652782,638.243506 Z M434.200546,570.029663 L441.148264,584.85755 C439.139285,584.050779 437.130306,583.689124 435.14923,583.744763 C433.168154,583.800402 431.187077,584.273337 429.206001,585.219206 C426.638973,586.415452 424.741604,588.056812 423.485992,590.198927 C422.23038,592.341042 421.756038,594.344059 422.035063,596.263617 C422.314088,598.183174 423.374382,601.159879 425.271751,605.165913 L436.739672,629.647226 C438.553333,633.514161 440.115872,636.18485 441.427289,637.631473 C442.738705,639.105916 444.608172,640.051785 447.035688,640.524719 C449.463204,640.969834 451.918622,640.635998 454.401944,639.467572 C456.243507,638.605162 457.833949,637.381096 459.145366,635.823194 C460.456782,634.237473 461.517077,632.317915 462.298346,630.008882 L464.084105,633.792358 L480.044326,626.364505 L450.160766,562.57399 L434.200546,570.029663 L434.200546,570.029663 Z M457.080582,618.908832 C458.447804,621.829898 459.117463,623.749455 459.145366,624.639685 C459.145366,625.557734 458.643121,626.253226 457.610729,626.726161 C456.71785,627.143456 455.964483,627.087816 455.322725,626.559243 C454.680968,626.030669 453.871796,624.723144 452.867307,622.581029 L440.869239,596.959108 C439.920555,594.900452 439.446212,593.509469 439.502017,592.758338 C439.557822,592.007206 440.060067,591.422993 441.008751,590.977878 C441.985338,590.532764 442.79451,590.560583 443.436268,591.061337 C444.078025,591.562092 444.831392,592.786157 445.752174,594.677895 L457.080582,618.908832 L457.080582,618.908832 Z M513.750526,563.547679 C510.458033,559.013072 507.360857,555.897268 504.486901,554.172448 C501.612945,552.447629 498.320452,551.752137 494.637325,552.141612 C490.926294,552.531088 487.075752,554.172448 483.085696,557.065695 C479.821106,559.430367 477.39359,562.156695 475.803148,565.244679 C474.212707,568.332663 473.710462,571.448467 474.324317,574.59209 C474.938171,577.763533 476.751833,581.352271 479.709496,585.441763 L489.670683,599.045584 C492.209808,602.523043 494.386202,604.971175 496.199864,606.417798 C498.013525,607.864421 500.134114,608.893749 502.505825,609.477962 C504.905438,610.062175 507.556174,609.950897 510.485935,609.144126 C513.415696,608.337355 516.401262,606.835093 519.41473,604.665158 C522.511905,602.411765 524.772007,600.102732 526.195033,597.71024 C527.61806,595.345567 528.343524,592.786157 528.399329,590.059829 C528.455134,587.333501 528.092402,585.052288 527.339035,583.244009 C526.585668,581.43573 525.134739,579.098877 523.042053,576.205631 L520.530829,572.755991 L507.026027,582.576337 L511.518327,588.724485 C513.220378,591.033518 514.169063,592.730518 514.392283,593.815485 C514.615503,594.900452 514.196965,595.818502 513.108769,596.597453 C512.243792,597.237305 511.43462,597.348584 510.681252,596.959108 C509.927885,596.569633 508.783884,595.317748 507.249247,593.203452 L499.882991,583.13273 L518.326533,569.723647 L513.750526,563.547679 L513.750526,563.547679 Z M494.274592,575.537959 L491.791271,572.116139 C489.866,569.501089 488.805706,567.804089 488.610388,567.025138 C488.415071,566.246187 488.805706,565.522876 489.782292,564.799564 C490.591464,564.215351 491.372734,564.187531 492.154004,564.688286 C492.935273,565.216859 494.190885,566.663482 495.948741,569.083794 L498.432062,572.477795 L494.274592,575.537959 L494.274592,575.537959 Z M512.187987,536.785152 L553.595272,577.095861 L565.900267,564.521368 L537.914076,537.258086 C534.788998,534.225742 532.975337,532.250545 532.500994,531.304676 C531.99875,530.386626 532.194067,529.468577 533.059044,528.578348 C533.896119,527.743757 534.705291,527.5212 535.514463,527.938495 C536.323635,528.35579 538.137296,529.969331 541.011252,532.723479 L569.695005,560.654433 L582,548.07994 L552.981417,519.81515 C549.354094,516.282051 546.591749,513.973018 544.638575,512.860231 C542.713303,511.747444 540.564812,511.385789 538.193101,511.747444 C535.82139,512.13692 533.589191,513.388805 531.496505,515.55874 C529.822356,517.28356 528.706257,519.175297 528.17611,521.233953 C527.645962,523.292609 527.701767,525.518183 528.315622,527.910675 L524.716202,523.988101 L512.187987,536.785152 L512.187987,536.785152 Z" id="Shape" fill="#181715"></path>
            <path d="M81.2985499,392.22119 L78.0892268,369.320388 C77.4752693,364.974251 76.7775904,361.770367 75.99619,359.680878 C75.2147896,357.591389 74.1264104,355.891938 72.7310525,354.582524 C71.3356946,353.273111 69.5217294,352.493035 67.317064,352.186577 C65.1123985,351.880118 60.8705106,352.186577 54.5914001,353.050232 L30.0889158,356.476995 C23.4749194,357.39637 19.0376814,358.232165 16.8330159,358.956522 C14.6283505,359.680878 12.7027566,360.962431 11.1120486,362.829042 C9.49343347,364.695652 8.4887758,367.230899 8.12598275,370.434783 C7.7631897,373.638666 8.18179706,379.628535 9.409712,388.40439 L11.3073987,402 L81.2985499,392.22119 L81.2985499,392.22119 Z M20.8237394,378.012664 C21.1307182,377.232588 21.7446756,376.67539 22.6097975,376.368932 C23.4749194,376.034614 25.4842348,375.644576 28.6656507,375.226678 L55.8472222,371.437737 C60.5077175,370.796961 63.4100619,370.685521 64.5542554,371.159139 C65.6984488,371.604897 66.4519421,373.165049 66.8147351,375.783875 L20.7958323,382.219502 C20.4888536,380.157873 20.4888536,378.79274 20.8237394,378.012664 L20.8237394,378.012664 Z M42.0889935,297.24694 C36.4796548,296.884762 32.0982311,297.274799 28.9168151,298.361334 C25.7353992,299.447868 23.1121264,301.537358 21.0469967,304.629802 C18.981867,307.722246 17.7818593,311.706205 17.4748805,316.6374 C17.2237161,320.677079 17.7818593,324.271 19.1214028,327.474884 C20.4888536,330.678767 22.5818904,333.046855 25.4005133,334.607007 C28.2191362,336.139299 32.1819526,337.086534 37.2331481,337.392993 L54.0890713,338.451667 C58.3867735,338.730266 61.6798181,338.618827 63.9682051,338.173069 C66.256592,337.699451 68.3775359,336.752216 70.3589441,335.275644 C72.3403523,333.826931 73.9589675,331.709582 75.1868824,328.923596 C76.4427045,326.137611 77.1961977,322.905867 77.419455,319.200507 C77.6706194,315.383706 77.3078264,312.151963 76.3868902,309.560996 C75.465954,306.97003 73.9589675,304.769101 71.8938378,302.95821 C69.8287081,301.175179 67.8473,299.977206 65.9496132,299.420008 C64.0519265,298.834951 61.3449322,298.444913 57.7728161,298.222035 L53.503021,297.943436 L52.442549,314.60363 L60.061203,315.077248 C62.9356402,315.272267 64.8612341,315.606585 65.8379846,316.108062 C66.8147351,316.60954 67.2612496,317.528915 67.1775282,318.866188 C67.1217139,319.952723 66.6751993,320.649219 65.8937989,320.955678 C65.1123985,321.289996 63.4100619,321.373575 60.8146962,321.206416 L48.3122897,320.42634 L49.7634618,297.692697 L42.0889935,297.24694 L42.0889935,297.24694 Z M38.9075776,319.869143 L34.6935968,319.590545 C31.4563665,319.395526 29.4470511,319.116927 28.721465,318.782609 C27.9958789,318.44829 27.6889002,317.668214 27.7447145,316.442381 C27.8005288,315.467286 28.2749505,314.826509 29.1679796,314.57577 C30.0610086,314.325032 31.9866025,314.269312 35.0005755,314.464331 L39.2145563,314.74293 L38.9075776,319.869143 L38.9075776,319.869143 Z M29.0284438,252.225412 L66.6472922,262.394259 C71.224066,263.620093 73.9031531,264.483748 74.6845536,264.957366 C75.465954,265.430984 75.6892112,266.294639 75.3264182,267.548333 C75.0194394,268.718447 74.405482,269.331363 73.5124529,269.387083 C72.6194239,269.442803 69.9961511,268.857746 65.6426345,267.687632 L27.6051787,257.407345 L23.0004977,274.401857 L60.7030676,284.570705 C65.5030987,285.852258 68.740329,286.632334 70.4147584,286.883073 C72.0891879,287.133812 73.7636174,287.050232 75.465954,286.660194 C77.1682906,286.270156 78.7031842,285.350781 80.0427278,283.902068 C81.4101785,282.453356 82.4148362,280.475306 83.1125151,277.912199 C83.7264726,275.683411 83.7822869,273.566062 83.3078652,271.588012 C82.8334436,269.609962 81.8008787,267.771211 80.2380779,266.09962 L84.8148518,267.659772 L89.5032542,250.386661 L33.6052176,235.286619 L29.0284438,252.225412 L29.0284438,252.225412 Z M34.3587109,211.68932 L42.6192295,215.533981 L41.0006144,218.960743 L49.2890402,222.833263 L50.9076553,219.406501 L77.5589908,231.831997 C82.7776293,234.255804 86.1543953,235.676657 87.7171961,236.038835 C89.2520898,236.401013 90.8707049,236.261714 92.5172272,235.565217 C94.1637495,234.896581 95.5032931,233.837906 96.5358579,232.444913 C97.5684228,231.024061 98.9358735,228.516674 100.63821,224.894892 L103.652183,218.459266 L95.1963144,214.503166 C93.9683994,217.094133 93.0753704,218.487125 92.5172272,218.654285 C91.9590841,218.821444 89.9497688,218.097087 86.4892812,216.509076 L58.4146807,203.414943 L60.423996,199.124525 L52.1355702,195.252005 L50.1262549,199.542423 L41.8657363,195.697763 L34.3587109,211.68932 L34.3587109,211.68932 Z M90.5916334,157.836218 C88.1637107,156.248206 86.2939311,155.189531 84.9822947,154.688054 C83.6706583,154.186577 81.9404145,154.102997 79.8194706,154.437315 C77.6985266,154.771634 75.4938611,155.774588 73.177567,157.47404 C70.8891801,159.173491 68.6845147,161.625158 66.5635707,164.829042 C64.4426267,168.060785 63.075176,171.208949 62.4612185,174.301393 C61.8472611,177.393837 62.1263327,180.040523 63.2984333,182.269312 C64.4705339,184.4981 66.9821781,186.866188 70.8333658,189.401435 C73.5682673,191.184466 76.2194472,192.271 78.8148129,192.605319 C81.4101785,192.967497 85.3450878,191.769523 90.6474477,189.067117 C96.898651,185.807514 100.498674,184.080203 101.447518,183.913043 C102.368454,183.773744 104.014976,184.442381 106.303363,185.974673 C107.977793,187.089067 108.954543,188.008442 109.205707,188.760659 C109.456872,189.512875 109.233615,190.40439 108.535936,191.463065 C107.894071,192.43816 107.084763,192.828198 106.080106,192.633179 C105.075448,192.43816 103.28939,191.490924 100.694024,189.791473 L97.6242371,187.785564 L89.0288326,200.823976 L91.3730338,202.356268 C95.4195716,205.002955 98.7405234,206.479527 101.391703,206.813846 C104.042883,207.120304 106.833599,206.340228 109.735943,204.445758 C112.666195,202.551287 115.345282,199.737442 117.801112,196.004221 C120.033685,192.633179 121.373228,189.401435 121.875557,186.308991 C122.377886,183.216547 121.959278,180.486281 120.619735,178.146053 C119.280191,175.805825 116.656919,173.354158 112.722009,170.763191 C109.205707,168.450823 106.080106,167.364289 103.345204,167.475728 C100.610303,167.587168 96.8149295,169.0916 91.9032698,171.989025 C88.219525,174.162094 85.6241593,175.471507 84.1171728,175.972984 C82.6101863,176.474462 81.4380857,176.585901 80.6287781,176.335163 C79.7915634,176.084424 78.6473699,175.471507 77.1682906,174.496412 C76.0799114,173.772056 75.3822325,173.01984 75.1031609,172.267623 C74.8240893,171.487547 74.9636251,170.707472 75.4938611,169.871676 C76.1636329,168.840861 76.889219,168.422963 77.6427123,168.534403 C78.3962055,168.673702 79.903192,169.481638 82.1357646,170.93035 L84.7590374,172.657661 L93.354442,159.619249 L90.5916334,157.836218 L90.5916334,157.836218 Z M122.4337,112.396792 C119.531356,111.170958 116.266218,111.087379 112.610381,112.118193 C108.954543,113.176868 105.577777,115.377797 102.452175,118.748839 C99.2986665,122.119882 97.3451655,125.658084 96.5916723,129.363444 C95.838179,133.068805 96.0335291,136.10553 97.1777226,138.529337 C98.321916,140.953145 100.721932,143.85057 104.321955,147.193753 L116.34994,158.393415 C120.480199,162.238075 124.080222,164.745462 127.15001,165.971296 C130.219797,167.16927 133.373306,167.308569 136.582629,166.333474 C139.819859,165.358379 143.112904,163.073871 146.517577,159.42423 C149.168757,156.582524 150.954815,153.768679 151.847844,150.982693 C152.740873,148.196707 152.880409,145.382862 152.210637,142.541157 C151.540866,139.699451 150.480394,137.359223 149.001314,135.576192 C147.522235,133.793162 145.094312,131.285775 141.717546,128.137611 L131.001198,139.615872 L136.052393,144.296328 C138.257059,146.330097 139.596602,147.862389 140.098931,148.921064 C140.60126,149.951878 140.433817,150.926973 139.624509,151.790629 C138.92683,152.542845 138.033801,152.737864 136.917515,152.431406 C135.801229,152.124947 134.489592,151.261292 132.982606,149.840439 L113.001081,131.257915 C111.159209,129.530604 110.070829,128.30477 109.791758,127.552554 C109.484779,126.800338 109.708036,126.048122 110.377808,125.323765 C111.075487,124.571549 111.856887,124.34867 112.722009,124.627269 C113.587131,124.905867 114.87086,125.853103 116.573197,127.441114 L121.45695,131.982271 L132.787256,119.835374 C128.796532,116.074293 125.336045,113.622626 122.4337,112.396792 L122.4337,112.396792 Z M124.88953,80.8594344 L166.527009,137.832841 L180.759659,127.468974 L156.424618,94.1485859 C154.694374,91.7804981 153.689717,90.0810469 153.410645,89.0502322 C153.131573,88.0194175 153.438552,87.2114816 154.303674,86.5707049 C155.252517,85.8742085 156.117639,85.8463487 156.954854,86.4035458 C157.792069,86.9886028 159.215334,88.6323343 161.196742,91.3626003 L185.196898,124.237231 L199.429548,113.873364 L175.903814,81.6673702 C172.694491,77.2933727 170.294475,74.3959477 168.703767,73.0308147 C167.113059,71.6656817 164.964208,70.9691853 162.285121,70.9970452 C159.606034,70.9970452 157.010668,71.9164204 154.526931,73.7273111 C152.908316,74.8974251 151.59668,76.2904179 150.592022,77.9062896 C149.587364,79.4943014 148.889686,81.3051921 148.471078,83.3389616 L139.094273,70.5234276 L124.88953,80.8594344 L124.88953,80.8594344 Z M230.8251,59.6580836 C228.56462,54.53187 226.248326,50.7986492 223.820404,48.4862811 C221.392481,46.173913 218.322694,44.8087801 214.638949,44.3630224 C210.955204,43.9451245 206.824945,44.6973407 202.303985,46.6753905 C198.592333,48.2912621 195.634174,50.4364711 193.401602,53.1110173 C191.169029,55.7855635 190.024836,58.7108485 189.941114,61.9425918 C189.857393,65.1743352 190.834143,69.0747151 192.871366,73.7273111 L199.624898,89.1616716 C201.355142,93.0899114 202.94585,95.9873364 204.397022,97.7982271 C205.848194,99.6091178 207.690067,101.05783 209.894732,102.144365 C212.099397,103.230899 214.72267,103.676657 217.76455,103.537358 C220.806431,103.370198 224.043661,102.562263 227.448334,101.05783 C230.964636,99.5255382 233.67163,97.7425074 235.569317,95.7365977 C237.467004,93.7306881 238.722826,91.3904601 239.36469,88.7159139 C240.006555,86.0692275 240.146091,83.7568594 239.783298,81.8345293 C239.420505,79.8843394 238.527476,77.2933727 237.104211,74.0337695 L235.401874,70.1333896 L220.080845,76.8197552 L223.150632,83.8125791 C224.294825,86.4592655 224.880876,88.3258759 224.880876,89.4124103 C224.880876,90.4989447 224.239011,91.3347404 223.011096,91.8640777 C222.034346,92.2819755 221.197131,92.2541157 220.555266,91.6969185 C219.913402,91.1675813 219.04828,89.6910089 218.015715,87.2950612 L212.992426,75.8446602 L233.894888,66.7066273 L230.8251,59.6580836 L230.8251,59.6580836 Z M209.22496,67.2081047 L207.522624,63.3355846 C206.210987,60.35458 205.541215,58.4601098 205.513308,57.6800338 C205.485401,56.8720979 206.015637,56.2313212 207.159831,55.7577037 C208.05286,55.3676657 208.83426,55.506965 209.476125,56.1756015 C210.117989,56.8442381 211.038925,58.5436893 212.238933,61.3018151 L213.94127,65.1743352 L209.22496,67.2081047 L209.22496,67.2081047 Z M239.699576,33.2190798 L254.825256,89.0223723 L271.848622,84.425496 L265.87649,62.3883495 C264.425318,56.9835374 263.643917,53.4731954 263.560196,51.8851836 C263.504382,50.2971718 264.062525,48.8763191 265.318347,47.6504854 C266.546262,46.4246518 268.72302,45.3659772 271.848622,44.5301815 L266.518355,24.8889827 C261.913674,26.4769945 259.095051,30.2102153 258.034579,36.1443647 L256.722942,28.6222035 L239.699576,33.2190798 L239.699576,33.2190798 Z M333.774604,6.22287885 L334.10949,31.436049 L328.61178,31.4917687 L328.304802,6.27859856 L309.941892,6.50147742 L310.834921,77.0147742 L329.197831,76.7918953 L328.80713,47.1768679 L334.30484,47.1211482 L334.695541,76.7361756 L353.05845,76.5132967 L352.165421,6 L333.774604,6.22287885 L333.774604,6.22287885 Z M411.523945,39.1532292 C411.356503,37.0915998 410.686731,34.9742507 409.51463,32.8290418 C408.370437,30.6838328 406.500657,28.7615027 403.933199,27.0899114 C401.36574,25.3904601 398.156417,24.1924863 394.249415,23.4402702 C389.616827,22.5487547 385.65401,22.7159139 382.333059,23.9417476 C379.012107,25.1675813 376.500463,27.1456311 374.798126,29.9037569 C373.095789,32.6618827 371.728339,36.673702 370.723681,41.9392149 L367.932965,56.4820599 C367.012029,61.3018151 366.621329,64.9793162 366.788772,67.5145631 C366.956215,70.04981 367.598079,72.3064584 368.77018,74.2845082 C369.914374,76.262558 371.728339,77.9341494 374.239983,79.2714225 C376.72372,80.6086957 379.905136,81.6673702 383.728417,82.3917265 C387.160997,83.060363 390.286599,83.1439426 393.105221,82.670325 C395.923844,82.1967075 398.379674,81.0823132 400.472711,79.3271423 C402.565748,77.5719713 404.072734,75.5660616 405.049485,73.2815534 C406.026235,70.9970452 407.002986,67.2916843 407.979736,62.1933305 L410.658824,48.2912621 C411.412317,44.2794428 411.719296,41.2148586 411.523945,39.1532292 L411.523945,39.1532292 Z M389.114498,66.8737864 C388.640076,69.3254538 388.165655,70.8856057 387.691233,71.5821022 C387.216811,72.2507387 386.463318,72.5014774 385.430753,72.3064584 C384.426095,72.1114394 383.840045,71.5821022 383.644695,70.6905867 C383.449345,69.7990713 383.616788,68.0439004 384.147024,65.3414943 L389.058684,39.7104263 C389.616827,36.8130013 390.147063,35.0021106 390.621484,34.3056142 C391.095906,33.6091178 391.877307,33.3583791 392.909871,33.5533981 C393.942436,33.7484171 394.528486,34.2498945 394.695929,35.0856902 C394.863372,35.893626 394.668022,37.7602364 394.109879,40.6855213 L389.114498,66.8737864 L389.114498,66.8737864 Z M466.528953,57.1228366 C466.640582,53.9746729 465.58011,50.8822288 463.291723,47.8455044 C461.003336,44.8087801 457.738198,42.4406923 453.49631,40.6855213 C449.226515,38.9303504 445.207885,38.3731532 441.468326,38.9582102 C437.728766,39.5432672 434.938051,40.8248206 433.068271,42.7471507 C431.198492,44.6973407 429.356619,47.929084 427.48684,52.4702406 L421.263543,67.6817222 C419.142599,72.8915154 418.05422,77.1540734 417.998406,80.4415365 C417.942592,83.7289996 418.947249,86.7100042 421.012379,89.3845504 C423.049602,92.0590967 426.39846,94.315745 431.003141,96.2102153 C434.603165,97.6867877 437.868302,98.3554242 440.798554,98.2161249 C443.728805,98.0768257 446.407892,97.1853103 448.835815,95.5694386 C451.263738,93.9535669 453.077703,92.1148164 454.221897,90.1089067 C455.36609,88.0751372 456.845169,84.9548333 458.631227,80.6922752 L444.091598,74.7581258 L441.496233,81.1380329 C440.352039,83.8961587 439.403196,85.7070494 438.593888,86.5428451 C437.784581,87.3786408 436.835737,87.5736598 435.747358,87.1279021 C434.798515,86.7378641 434.296186,85.985648 434.184557,84.815534 C434.100836,83.6732799 434.435722,82.1409878 435.217122,80.2186577 L445.542771,54.9776277 C446.491614,52.6373997 447.273014,51.1886872 447.886972,50.6593499 C448.473022,50.1300127 449.254422,50.0464331 450.203266,50.4364711 C451.152109,50.8265091 451.626531,51.4672858 451.682345,52.386661 C451.710252,53.3060363 451.291645,54.8383284 450.426523,56.9835374 L447.914879,63.1405656 L463.291723,69.4090333 C465.301038,64.3663993 466.389417,60.2710004 466.528953,57.1228366 L466.528953,57.1228366 Z M509.645511,71.3313634 L495.747747,82.4195863 L512.045527,57.6800338 L497.310548,48.0126636 L458.463784,106.9084 L473.198764,116.57577 L487.096528,95.5415787 L477.803445,119.612495 L491.952374,128.917687 L503.338494,94.7615027 L521.980475,79.4664415 L509.645511,71.3313634 L509.645511,71.3313634 Z M551.450434,135.325454 C555.357436,131.313634 557.952801,127.747573 559.180716,124.627269 C560.408631,121.506965 560.548167,118.163782 559.543509,114.569861 C558.566759,110.975939 556.306279,107.465597 552.76207,104.010975 C549.859726,101.19713 546.762031,99.2469396 543.441079,98.1882651 C540.120128,97.1295905 536.966619,97.1574504 533.952646,98.2997045 C530.938673,99.4419586 527.645628,101.810046 524.129326,105.431828 L512.324599,117.495146 C509.310626,120.55973 507.245496,123.122837 506.101302,125.156606 C504.957109,127.190376 504.315244,129.447024 504.119894,131.870832 C503.952451,134.322499 504.510594,136.913466 505.794324,139.671591 C507.078053,142.429717 509.059461,145.104263 511.710641,147.69523 C514.445543,150.369776 517.12463,152.208527 519.692088,153.211482 C522.287454,154.214436 524.910727,154.493035 527.645628,154.102997 C530.352622,153.712959 532.557288,152.960743 534.20381,151.902068 C535.87824,150.843394 537.943369,149.032503 540.455013,146.497256 L543.441079,143.432672 L531.496816,131.787252 L526.166549,137.247784 C524.157233,139.309413 522.650247,140.535247 521.617682,140.925285 C520.585117,141.315323 519.608367,141.064584 518.631616,140.117349 C517.850216,139.365133 517.599051,138.585057 517.878123,137.777121 C518.129287,136.969185 519.189759,135.631912 521.003725,133.765302 L529.738665,124.822288 L546.064352,140.730266 L551.450434,135.325454 L551.450434,135.325454 Z M536.352661,118.163782 L539.31082,115.154918 C541.599207,112.81469 543.078286,111.505276 543.803872,111.170958 C544.529458,110.83664 545.338766,111.115238 546.203888,111.951034 C546.901567,112.647531 547.06901,113.399747 546.67831,114.263402 C546.287609,115.099198 545.059694,116.60363 542.966658,118.748839 L540.008499,121.785564 L536.352661,118.163782 L536.352661,118.163782 Z M592.669305,151.177712 L559.403973,171.905445 L587.590203,144.240608 L578.157583,131.341494 L544.724809,167.615027 C542.268979,170.317434 540.845714,171.794006 540.482921,172.072604 C539.70152,172.629802 538.975934,172.685521 538.278255,172.211904 C537.580576,171.738286 536.436383,170.401013 534.817768,168.200084 L527.338649,173.632756 L533.645667,182.241452 C536.520104,186.169692 538.92012,188.844238 540.817806,190.181511 C542.715493,191.546644 544.696901,192.271 546.706217,192.35458 C548.715532,192.43816 550.836476,191.992402 553.124863,190.989447 C555.385343,190.014352 559.431881,187.869143 565.264477,184.60954 L602.074017,164.021106 L592.669305,151.177712 L592.669305,151.177712 Z M628.083488,246.374842 C634.25097,244.034614 638.576579,241.805825 641.116131,239.660616 C643.627775,237.515407 645.24639,234.422963 645.971976,230.411144 C646.669655,226.371465 646.055698,221.858168 644.158011,216.787674 C642.734746,213.082313 640.864966,210.017729 638.492858,207.621781 C636.148657,205.225834 633.553291,203.665682 630.734668,202.885606 C627.916045,202.10553 625.264865,201.99409 622.753221,202.579147 C620.241577,203.164204 616.613646,204.334318 611.86943,206.145209 L592.585584,213.472351 C586.111123,215.924019 581.478535,218.292106 578.659912,220.576615 C575.841289,222.861123 574.138953,225.981427 573.552902,229.937526 C572.966852,233.893626 573.636624,238.379063 575.562218,243.393837 C577.40409,248.213592 580.027363,251.891093 583.432036,254.370621 C586.836709,256.850148 590.157661,258.020262 593.394891,257.908822 C596.632122,257.797383 601.65541,256.43225 608.492664,253.841283 L611.060122,252.866188 L604.529847,235.732377 L596.241421,238.88054 C592.613491,240.245673 590.241383,240.94217 589.097189,240.91431 C587.980903,240.88645 587.143688,240.245673 586.669266,238.96412 C586.166938,237.626847 586.33438,236.596032 587.171595,235.843816 C588.00881,235.0916 590.018125,234.116505 593.227448,232.890671 L623.897415,221.245251 C627.246273,219.963698 629.478846,219.350781 630.650947,219.350781 C631.79514,219.350781 632.632355,220.047277 633.190498,221.46813 C633.66492,222.721824 633.553291,223.669059 632.883519,224.365555 C632.18584,225.034192 630.176525,226.009287 626.855573,227.29084 L615.385732,231.636978 L621.916006,248.770789 L628.083488,246.374842 L628.083488,246.374842 Z M656.158089,259.998312 L586.780895,273.259603 L590.185568,291.062051 L659.562762,277.80076 L656.158089,259.998312 L656.158089,259.998312 Z M651.581315,322.153651 L612.65083,323.630224 C607.906613,323.825243 605.115898,323.797383 604.222868,323.574504 C603.329839,323.351625 602.883325,322.599409 602.827511,321.289996 C602.771696,320.064162 603.162396,319.311946 603.999611,319.005488 C604.836826,318.699029 607.515913,318.44829 612.008965,318.281131 L651.385965,316.776699 L650.716193,299.19713 L611.701987,300.673702 C606.734513,300.868721 603.413561,301.0916 601.739131,301.342339 C600.064702,301.620937 598.473994,302.178134 596.967008,303.06965 C595.460021,303.961165 594.260013,305.298438 593.394891,307.053609 C592.529769,308.83664 592.139069,311.037569 592.250698,313.684255 C592.334419,315.996623 592.892563,318.030393 593.953034,319.785564 C594.985599,321.540734 596.520493,322.989447 598.529808,324.131701 L593.70187,324.020262 L594.371642,341.90629 L652.22318,339.705361 L651.581315,322.153651 L651.581315,322.153651 Z M664,362.550443 L594.036756,352.771634 L591.748369,369.06965 L595.934443,370.796961 C593.953034,372.022794 592.362327,373.443647 591.218133,375.087379 C590.07394,376.73111 589.348353,378.569861 589.069282,380.63149 C588.678582,383.473195 589.069282,386.036302 590.297197,388.32081 C591.525112,390.605319 593.11582,392.165471 595.097228,393.029126 C597.078636,393.864922 600.176331,394.589278 604.390311,395.174335 L630.232339,398.768257 C634.474227,399.353314 637.237036,399.659772 638.576579,399.659772 C639.888216,399.659772 641.311481,399.269734 642.79056,398.545378 C644.26964,397.821022 645.525462,396.623048 646.502212,394.979316 C647.50687,393.335585 648.148734,391.301815 648.48362,388.933727 C648.762692,386.872098 648.623156,384.894048 648.065013,382.999578 C647.478963,381.105108 646.474305,379.349937 644.995226,377.678345 L661.54417,379.990713 L664,362.550443 L664,362.550443 Z M607.767077,377.873364 C604.362404,377.399747 602.24146,376.926129 601.404246,376.480371 C600.567031,376.034614 600.204238,375.254538 600.371681,374.168003 C600.511217,373.109329 601.041453,372.468552 601.962389,372.217813 C602.883325,371.967075 604.864733,372.078514 607.962428,372.496412 L632.688169,375.951034 C635.897492,376.396792 637.850993,376.84255 638.604487,377.260447 C639.35798,377.678345 639.664959,378.430561 639.497516,379.489236 C639.330073,380.57577 638.799837,381.244407 637.823086,381.495146 C636.846336,381.745884 634.892835,381.662305 631.934676,381.244407 L607.767077,377.873364 L607.767077,377.873364 Z" id="Shape" fill="#181715"></path>
        </g>
    </g>
</svg>