<?xml version="1.0" encoding="UTF-8" standalone="no"?>
<!DOCTYPE svg PUBLIC "-//W3C//DTD SVG 1.1//EN" "http://www.w3.org/Graphics/SVG/1.1/DTD/svg11.dtd">
<svg width="293px" height="329px" viewBox="0 0 293 329" version="1.1" xmlns="http://www.w3.org/2000/svg" xmlns:xlink="http://www.w3.org/1999/xlink">
    <g id="Bundesliga" stroke="none" stroke-width="1" fill="none" fill-rule="evenodd">
        <g id="476-Wiesbadener-THC" transform="translate(-18.000000, 0.000000)">
            <ellipse id="Background" fill="#005093" cx="164.5" cy="183" rx="146.5" ry="146"></ellipse>
            <path d="M108.879,130.984871 C109.457,131.854871 133.231,151.220871 135.333,152.346871 C137.432,153.473871 160.994,174.118871 160.994,174.118871 C160.994,174.118871 195.175,204.246871 201.77,210.061871 C208.366,215.876871 219.896,228.221871 225.333,230.888871 C230.77,233.554871 238.08,232.485871 241.133,226.876871 C243.632,222.276871 244.115,212.565871 237.153,212.326871 C232.554,212.166871 233.419,217.061871 233.419,217.061871 C233.419,217.061871 235.51,221.643871 231.578,222.215871 C227.647,222.788871 212.652,209.370871 212.652,209.370871 L193.364,193.091871 L164.152,170.664871 L139.094,149.997871 C139.094,149.997871 113.184,126.561871 112.109,126.528585 C111.031,126.493871 108.012,129.675871 108.879,130.984871" id="Fill-4" fill="#EB8B2D"></path>
            <polyline id="Fill-5" fill="#EB8B2D" points="55.754 170.496871 55.033 184.100871 51.917 183.308871 52.156 178.801871 36.434 177.968871 36.639 174.112871 52.36 174.945871 52.605 170.329871 55.754 170.496871"></polyline>
            <polyline id="Fill-6" fill="#EB8B2D" points="55.238 187.618871 56.173 198.345871 53.042 198.126871 52.48 191.680871 48.119 192.060871 48.589 197.450871 45.501 197.720871 45.036 192.383871 39.998 192.822871 40.619 199.946871 37.368 200.229871 36.413 189.259871 55.238 187.618871"></polyline>
            <path d="M56.893,203.020871 L57.91,207.109871 L51.447,212.443871 C49.724,213.852871 47.975,215.044871 46.747,215.741871 C48.139,215.256871 50.455,214.539871 51.715,214.198871 L59.19,212.256871 L60.062,215.765871 L41.723,220.325871 L40.765,216.472871 L47.003,211.587871 C49.05,210.013871 51.353,208.236871 52.403,207.611871 C50.931,208.117871 48.774,208.681871 47.251,209.088871 L39.44,211.142871 L38.554,207.580871 L56.893,203.020871" id="Fill-7" fill="#EB8B2D"></path>
            <path d="M61.89,221.066871 L63.597,224.921871 L58.147,231.289871 C56.692,232.975871 55.173,234.450871 54.084,235.348871 C55.372,234.630871 57.531,233.525871 58.713,232.972871 L65.743,229.771871 L67.207,233.079871 L49.923,240.730871 L48.315,237.099871 L53.621,231.211871 C55.366,229.308871 57.33,227.160871 58.256,226.363871 C56.894,227.115871 54.866,228.042871 53.434,228.706871 L46.092,232.075871 L44.605,228.718871 L61.89,221.066871" id="Fill-8" fill="#EB8B2D"></path>
            <path d="M64.781,102.676871 L67.575,99.7788711 L74.073,103.776871 C77.166,105.663871 79.256,107.375871 79.256,107.375871 C78.783,106.807871 77.072,104.703871 75.588,102.479871 L71.257,95.9608711 L74.145,92.9648711 L81.443,97.5838711 C82.961,98.5558711 85.612,100.469871 85.612,100.469871 C85.219,100.015871 82.716,96.6948711 81.807,95.3648711 L77.714,89.2648711 L80.489,86.3858711 L91.043,102.909871 L88.154,105.905871 L81.443,101.776871 C78.875,100.207871 77.001,98.7028711 76.865,98.6098711 C76.865,98.6098711 78.519,100.733871 80.138,103.050871 L84.643,109.547871 L81.641,112.660871 L64.781,102.676871" id="Fill-26" fill="#EB8B2D"></path>
            <polyline id="Fill-27" fill="#EB8B2D" points="87.122 81.6038711 90.314 79.2428711 101.552 94.4368711 98.36 96.7978711 87.122 81.6038711"></polyline>
            <polyline id="Fill-28" fill="#EB8B2D" points="97.903 74.1118711 107.3 68.8488711 108.388 71.7928711 102.741 74.9568711 104.881 78.7768711 109.602 76.1318711 111.118 78.8368711 106.443 81.4548711 108.915 85.8688711 115.156 82.3738711 116.751 85.2208711 107.141 90.6038711 97.903 74.1118711"></polyline>
            <path d="M127.203,62.2608711 L126.45,65.4308711 C124.486,65.0478711 123.146,65.1028711 121.817,65.5878711 C120.361,66.1188711 119.647,67.3348711 120.085,68.5348711 C120.421,69.4548711 121.074,69.7378711 122.705,69.6058711 L125.065,69.4098711 C128.266,69.1388711 130.531,70.4258711 131.491,73.0568711 C132.805,76.6588711 130.76,80.0968711 126.341,81.7098711 C124.323,82.4468711 121.861,82.6798711 119.7,82.3108711 L120.012,79.0408711 C121.989,79.3038711 123.625,79.3438711 125.413,78.6908711 C127.457,77.9448711 128.222,76.7108711 127.644,75.1268711 C127.224,73.9768711 126.213,73.5068711 124.48,73.6768711 L122.317,73.8578711 C120.378,74.0158711 119.028,73.7268711 117.997,72.8868711 C117.223,72.2718711 116.632,71.4458711 116.268,70.4498711 C115.084,67.2058711 116.869,64.0068711 120.624,62.6358711 C122.796,61.8438711 125.235,61.7058711 127.203,62.2608711" id="Fill-29" fill="#EB8B2D"></path>
            <path d="M141.203,68.4938711 L142.109,73.5248711 L144.545,73.0868711 C145.321,72.9458711 145.832,72.7158711 146.207,72.3448711 C146.692,71.8148711 146.939,70.8858711 146.78,70.0028711 C146.587,68.9328711 145.861,68.1238711 145.005,67.9738711 C144.526,67.9218711 144.387,67.9198711 143.531,68.0738711 L141.203,68.4938711 Z M139.823,61.1428711 L140.594,65.4258711 L142.816,65.0248711 C143.699,64.8658711 144.091,64.7398711 144.378,64.4948711 C144.838,64.1358711 145.129,63.1438711 144.994,62.3938711 C144.855,61.6178711 144.286,60.9188711 143.586,60.7138711 C143.241,60.6378711 142.82,60.6028711 141.99,60.7528711 L139.823,61.1428711 Z M135.555,58.6238711 L141.845,57.4908711 C144.119,57.0808711 145.36,57.2158711 146.662,58.0038711 C147.87,58.7258711 148.545,59.7098711 148.786,61.0478711 C149.013,62.3058711 148.751,63.4578711 148.092,64.4058711 C147.649,65.0108711 147.362,65.2558711 146.553,65.6778711 C149.177,65.9788711 150.652,67.2598711 151.091,69.6958711 C151.554,72.2648711 150.372,74.9098711 147.146,75.7118711 C146.562,75.8448711 145.791,76.0118711 144.774,76.1948711 L138.913,77.2518711 L135.555,58.6238711 L135.555,58.6238711 Z" id="Fill-30" fill="#EB8B2D"></path>
            <path d="M161.374,66.8238711 L165.072,66.7648711 C165.072,66.7648711 164.415,64.7888711 163.977,62.9748711 C163.773,62.1068711 163.162,59.6418711 163.162,59.6418711 C163.162,59.6418711 162.654,61.8808711 162.323,63.2998711 C161.992,64.6658711 161.762,65.5668711 161.374,66.8238711 Z M161.164,55.5128711 L165.269,55.4468711 L171.532,74.3018711 L167.453,74.3688711 L166.048,69.9038711 L160.501,69.9938711 L159.241,74.5018711 L155.271,74.5658711 L161.164,55.5128711 L161.164,55.5128711 Z" id="Fill-31" fill="#EB8B2D"></path>
            <path d="M181.888,59.8268711 L179.859,72.3618711 L181.872,72.6868711 C184.341,73.0868711 185.76,71.4708711 186.399,67.5248711 C186.751,65.3508711 186.858,63.4958711 186.306,62.1388711 C185.854,61.0188711 185.082,60.3428711 183.605,60.1048711 L181.888,59.8268711 Z M178.554,56.2568711 L182.312,56.8648711 C183.385,57.0388711 184.8,57.3228711 185.542,57.4978711 C187.104,57.8888711 188.346,58.7238711 189.322,60.0108711 C190.766,61.9798711 191.212,64.5028711 190.669,67.8578711 C190.256,70.4078711 189.273,72.3978711 187.761,73.9158711 C186.385,75.2628711 184.565,75.9598711 182.79,75.8658711 C182.083,75.8058711 181.189,75.7168711 180.088,75.5388711 L175.552,74.8038711 L178.554,56.2568711 L178.554,56.2568711 Z" id="Fill-32" fill="#EB8B2D"></path>
            <polyline id="Fill-33" fill="#EB8B2D" points="200.486 60.6158711 210.688 64.0608711 209.233 66.8418711 203.101 64.7708711 201.7 68.9188711 206.828 70.6508711 205.835 73.5878711 200.76 71.8738711 199.141 76.6658711 205.917 78.9548711 204.873 82.0458711 194.438 78.5228711 200.486 60.6158711"></polyline>
            <path d="M218.717,67.4798711 L222.432,69.4718711 L222.046,77.8418711 C221.934,80.0648711 221.642,82.1608711 221.335,83.5388711 C221.91,82.1808711 222.934,79.9838711 223.526,78.8208711 L227.104,71.9768711 L230.291,73.6858711 L221.36,90.3398711 L217.862,88.4638711 L218.428,80.5608711 C218.636,77.9878711 218.865,75.0868711 219.106,73.8888711 C218.493,75.3198711 217.463,77.2968711 216.742,78.6998711 L213.021,85.8688711 L209.786,84.1338711 L218.717,67.4798711" id="Fill-34" fill="#EB8B2D"></path>
            <polyline id="Fill-35" fill="#EB8B2D" points="238.256 79.0028711 246.78 85.5858711 244.497 87.7398711 239.374 83.7838711 236.698 87.2488711 240.982 90.5568711 239.086 93.0108711 234.846 89.7358711 231.754 93.7398711 237.415 98.1118711 235.42 100.694871 226.703 93.9618711 238.256 79.0028711"></polyline>
            <path d="M253.391,96.0528711 L249.647,99.5358711 L250.523,100.466871 C251.641,101.655871 252.244,102.058871 252.935,102.118871 C253.568,102.157871 254.251,101.889871 254.825,101.348871 C255.677,100.547871 255.935,99.6708711 255.578,98.7748711 C255.398,98.3458711 254.937,97.6968711 254.304,97.0228711 L253.391,96.0528711 Z M253.058,91.2128711 L257.865,96.3628711 C260.156,98.7998711 260.041,101.932871 257.624,104.205871 C255.563,106.143871 252.573,106.378871 250.931,104.712871 C250.974,105.194871 250.967,105.425871 250.897,105.827871 C250.651,107.551871 248.659,114.167871 248.659,114.167871 L245.585,110.897871 C245.993,109.505871 246.164,108.933871 246.632,107.485871 C247.823,103.789871 248.067,102.738871 247.858,102.039871 C247.787,101.844871 247.752,101.728871 247.567,101.491871 L241.821,106.895871 L239.268,104.181871 L253.058,91.2128711 L253.058,91.2128711 Z" id="Fill-36" fill="#EB8B2D"></path>
            <path d="M164.398,201.923871 C163.977,204.373871 163.233,206.798871 162.179,209.194871 L161.253,209.940871 L156.453,203.983871 L162.279,199.291871 L164.398,201.921871 C164.398,201.921871 164.398,201.922871 164.398,201.923871 Z M164.641,200.268871 L163.232,198.522871 L164.817,197.245871 C164.817,197.612871 164.811,197.981871 164.795,198.357871 C164.764,198.996871 164.713,199.634871 164.641,200.268871 Z M111.216,238.786871 C108.015,237.888871 105.442,236.531871 103.535,235.264871 L109.273,230.636871 L114.019,236.528871 L111.216,238.786871 Z M114.972,235.758871 L110.226,229.867871 L116.052,225.173871 L120.799,231.063871 L114.972,235.758871 Z M121.752,230.297871 L117.005,224.406871 L122.829,219.711871 L127.576,225.602871 L121.752,230.297871 Z M128.531,224.834871 L123.783,218.943871 L129.61,214.250871 L134.357,220.140871 L128.531,224.834871 Z M135.309,219.370871 L130.562,213.479871 L136.389,208.786871 L141.136,214.676871 L135.309,219.370871 Z M142.089,213.908871 L137.34,208.018871 L143.168,203.322871 L147.914,209.214871 L142.089,213.908871 Z M148.868,208.445871 L144.121,202.554871 L149.946,197.861871 L154.693,203.752871 L148.868,208.445871 Z M155.647,202.982871 L150.901,197.092871 L156.726,192.398871 L161.471,198.289871 L155.647,202.982871 Z M162.427,197.520871 L157.68,191.629871 L163.02,187.328871 C163.879,189.566871 164.607,192.394871 164.784,195.622871 L162.427,197.520871 Z M167.617,191.407871 C166.712,186.566871 164.796,182.803871 163.116,180.662871 L163.042,180.566871 C161.529,178.690871 158.048,175.671871 152.95,173.525871 C156.854,173.107871 161.517,172.783871 165.525,171.908871 C171.511,170.604871 176.852,167.779871 180.325,165.604871 C180.51,165.871871 180.713,166.136871 180.928,166.403871 C180.978,166.463871 181.027,166.522871 181.075,166.579871 C178.215,169.511871 174.33,174.121871 171.787,179.683871 C170.116,183.337871 168.842,187.737871 167.617,191.407871 Z M149.175,175.638871 C152.207,176.608871 154.664,177.965871 156.505,179.225871 L151.158,183.534871 L146.518,177.779871 L149.175,175.638871 Z M95.028,217.621871 C94.977,216.218871 95.029,214.738871 95.217,213.191871 L97.306,215.787871 L95.028,217.621871 Z M98.261,215.016871 L95.462,211.545871 C95.781,209.761871 96.283,207.899871 97.017,205.971871 L99.175,204.231871 L104.085,210.322871 L98.261,215.016871 Z M105.039,209.554871 L100.131,203.463871 L105.955,198.768871 L110.863,204.860871 L105.039,209.554871 Z M111.819,204.093871 L106.91,198.000871 L112.733,193.306871 L117.643,199.397871 L111.819,204.093871 Z M118.597,198.627871 L113.689,192.536871 L119.516,187.843871 L124.424,193.933871 L118.597,198.627871 Z M125.376,193.166871 L120.467,187.074871 L126.293,182.380871 L131.201,188.471871 L125.376,193.166871 Z M132.154,187.703871 L127.246,181.610871 L133.071,176.918871 L137.98,183.008871 L132.154,187.703871 Z M138.935,182.239871 L134.027,176.148871 L135.867,174.663871 C138.118,174.324871 140.224,174.243871 142.187,174.355871 L142.227,174.403871 L142.226,174.409871 C142.228,174.409871 142.23,174.410871 142.23,174.410871 L144.758,177.544871 L138.935,182.239871 Z M145.713,176.778871 L143.877,174.497871 C145.215,174.653871 146.481,174.895871 147.667,175.202871 L145.713,176.778871 Z M98.102,203.445871 C98.158,203.329871 98.207,203.217871 98.265,203.100871 L98.369,203.230871 L98.102,203.445871 Z M99.324,202.461871 L98.879,201.909871 C100.015,199.789871 101.447,197.607871 103.228,195.383871 L105.148,197.766871 L99.324,202.461871 Z M106.103,196.999871 L104.024,194.417871 C105.527,192.627871 107.264,190.816871 109.255,188.987871 L111.927,192.305871 L106.103,196.999871 Z M112.88,191.535871 L110.164,188.162871 C111.005,187.418871 111.891,186.671871 112.819,185.922871 C113.899,185.053871 114.96,184.250871 116.009,183.492871 L118.707,186.841871 L112.88,191.535871 Z M119.661,186.072871 L117.008,182.781871 C119.234,181.234871 121.386,179.938871 123.459,178.864871 L125.485,181.379871 L119.661,186.072871 Z M126.44,180.610871 L124.58,178.301871 C127.156,177.049871 129.609,176.138871 131.934,175.503871 L132.264,175.916871 L126.44,180.610871 Z M145.564,178.547871 L150.205,184.304871 L144.38,188.998871 L139.742,183.241871 L145.564,178.547871 Z M138.787,184.010871 L143.425,189.765871 L137.599,194.460871 L132.962,188.704871 L138.787,184.010871 Z M132.008,189.473871 L136.646,195.229871 L130.823,199.923871 L126.183,194.167871 L132.008,189.473871 Z M125.231,194.935871 L129.867,200.692871 L124.041,205.386871 L119.404,199.630871 L125.231,194.935871 Z M118.449,200.400871 L123.089,206.155871 L117.262,210.849871 L112.624,205.093871 L118.449,200.400871 Z M111.671,205.862871 L116.309,211.618871 L110.483,216.311871 L105.846,210.556871 L111.671,205.862871 Z M104.892,211.323871 L109.53,217.081871 L103.704,221.774871 L99.067,216.017871 L104.892,211.323871 Z M98.113,216.787871 L102.751,222.543871 L97.036,227.148871 C96.207,225.059871 95.42,222.358871 95.128,219.192871 L98.113,216.787871 Z M157.588,180.005871 C159.464,181.427871 160.458,182.568871 160.499,182.617871 L160.544,182.675871 C161.101,183.385871 161.816,184.558871 162.503,186.090871 L156.871,190.627871 L151.967,184.538871 L157.588,180.005871 Z M151.011,185.306871 L155.917,191.396871 L150.093,196.091871 L145.185,189.999871 L151.011,185.306871 Z M144.232,190.769871 L149.14,196.859871 L143.314,201.552871 L138.409,195.462871 L144.232,190.769871 Z M137.453,196.230871 L142.361,202.321871 L136.535,207.015871 L131.628,200.925871 L137.453,196.230871 Z M130.674,201.693871 L135.582,207.785871 L129.756,212.479871 L124.848,206.388871 L130.674,201.693871 Z M123.895,207.156871 L128.803,213.246871 L122.977,217.942871 L118.07,211.850871 L123.895,207.156871 Z M117.116,212.620871 L122.022,218.710871 L116.199,223.404871 L111.29,217.314871 L117.116,212.620871 Z M110.337,218.082871 L115.245,224.172871 L109.419,228.865871 L104.513,222.776871 L110.337,218.082871 Z M103.558,223.545871 L108.466,229.636871 L102.44,234.492871 C100.571,233.104871 99.586,231.976871 99.548,231.926871 C99.5,231.870871 98.567,230.597871 97.56,228.378871 L103.558,223.545871 Z M155.5,204.754871 L160.299,210.710871 L154.474,215.403871 L149.674,209.447871 L155.5,204.754871 Z M148.722,210.215871 L153.521,216.171871 L147.696,220.866871 L142.896,214.910871 L148.722,210.215871 Z M141.941,215.676871 L146.741,221.635871 L140.918,226.330871 L136.118,220.372871 L141.941,215.676871 Z M135.162,221.142871 L139.962,227.098871 L134.138,231.792871 L129.338,225.836871 L135.162,221.142871 Z M128.384,226.603871 L133.183,232.560871 L127.358,237.254871 L122.559,231.299871 L128.384,226.603871 Z M121.604,232.067871 L126.404,238.024871 L125.006,239.149871 C122.586,239.644871 120.324,239.833871 118.226,239.797871 L115.778,236.760871 L121.604,232.067871 Z M114.825,237.530871 L116.594,239.724871 C115.248,239.623871 113.977,239.433871 112.783,239.176871 L114.825,237.530871 Z M160.848,211.919871 C159.706,214.018871 158.31,216.090871 156.677,218.138871 L155.282,216.405871 L160.848,211.919871 Z M154.33,217.175871 L155.894,219.117871 C154.352,220.955871 152.614,222.774871 150.677,224.567871 L148.503,221.867871 L154.33,217.175871 Z M147.548,222.637871 L149.764,225.385871 C148.789,226.259871 147.782,227.128871 146.714,227.989871 C145.784,228.738871 144.867,229.444871 143.962,230.109871 L141.724,227.330871 L147.548,222.637871 Z M140.771,228.099871 L142.965,230.825871 C140.758,232.390871 138.629,233.710871 136.573,234.816871 L134.944,232.794871 L140.771,228.099871 Z M133.99,233.561871 L135.465,235.395871 C132.931,236.682871 130.517,237.645871 128.227,238.334871 L128.166,238.257871 L133.99,233.561871 Z M167.578,202.942871 L167.616,202.954871 C167.648,202.834871 170.547,190.250871 174.759,181.042871 C177.139,175.832871 180.888,171.446871 183.574,168.711871 C184.544,169.135871 185.565,169.064871 186.662,168.180871 L215.985,144.550871 L216.009,144.583871 L220.354,142.167871 L223.509,139.624871 L216.174,130.520871 L213.018,133.063871 L209.733,136.793871 L180.409,160.422871 C179.631,161.050871 179.261,161.731871 179.187,162.444871 C175.969,164.511871 170.669,167.444871 164.827,168.716871 C155.438,170.764871 143.322,170.970871 142.028,171.039871 C131.917,170.519871 121.388,174.612871 110.667,183.250871 C98.418,193.122871 92.03,204.014871 91.685,215.625871 C91.42,224.491871 94.877,231.300871 96.961,233.926871 C99.065,236.536871 104.876,241.256871 113.572,242.698871 C124.775,244.555871 136.649,240.505871 148.866,230.659871 C160.868,220.987871 166.008,211.297871 167.578,202.942871 L167.578,202.942871 Z" id="Fill-37" fill="#EB8B2D"></path>
            <path d="M165.223,44.0178711 C88.616,44.0178711 26.292,106.342871 26.292,182.949871 C26.292,259.555871 88.616,321.879871 165.223,321.879871 C241.83,321.879871 304.154,259.555871 304.154,182.949871 C304.154,106.342871 241.83,44.0178711 165.223,44.0178711 Z M165.223,325.208871 C86.78,325.208871 22.962,261.391871 22.962,182.949871 C22.962,104.506871 86.78,40.6888711 165.223,40.6888711 C243.665,40.6888711 307.484,104.506871 307.484,182.949871 C307.484,261.391871 243.665,325.208871 165.223,325.208871 L165.223,325.208871 Z" id="Fill-38" fill="#EB8B2D"></path>
            <path d="M191.277,102.986871 C191.277,104.762871 187.661,107.522871 184.415,104.039871 C184.226,104.490871 184.077,104.793871 183.606,105.196871 C185.145,108.049871 183.329,111.011871 183.329,111.011871 C184.64,110.803871 184.825,110.768871 185.754,110.270871 C185.876,112.878871 184.536,113.811871 182.589,114.200871 C182.264,117.706871 181.757,118.121871 180.001,120.912871 C178.966,119.244871 177.679,118.153871 177.329,114.200871 C176.016,114.200871 173.784,112.553871 174.223,110.213871 C174.223,110.494871 175.449,110.930871 176.746,110.930871 C174.713,108.090871 176.49,105.196871 176.315,105.196871 C176.081,105.005871 175.699,104.470871 175.61,104.052871 C170.781,108.617871 167.94,102.449871 168.725,102.986871 C169.429,103.467871 171.998,103.423871 170.542,101.398871 C167.812,97.6018711 170.497,91.7378711 175.894,94.8618711 C175.894,90.8688711 178.897,87.9638711 179.929,87.4578711 C181.006,87.9238711 183.928,90.6428711 184.05,94.9028711 C189,91.6978711 192.206,97.5408711 189.565,101.211871 C188.432,102.653871 189.325,103.829871 191.277,102.986871" id="Fill-39" fill="#EB8B2D"></path>
            <path d="M164.603,102.930871 C164.603,104.706871 160.987,107.465871 157.741,103.983871 C157.552,104.434871 157.403,104.737871 156.932,105.140871 C158.472,107.993871 156.655,110.955871 156.655,110.955871 C157.966,110.747871 158.151,110.712871 159.08,110.213871 C159.202,112.822871 157.862,113.755871 155.915,114.144871 C155.59,117.650871 155.083,118.065871 153.327,120.856871 C152.292,119.188871 151.005,118.097871 150.655,114.144871 C149.342,114.144871 147.11,112.497871 147.549,110.157871 C147.549,110.438871 148.775,110.874871 150.072,110.874871 C148.039,108.034871 149.816,105.140871 149.641,105.140871 C149.408,104.949871 149.025,104.414871 148.936,103.996871 C144.107,108.561871 141.266,102.393871 142.051,102.930871 C142.755,103.411871 145.324,103.367871 143.868,101.342871 C141.138,97.5458711 143.823,91.6818711 149.22,94.8058711 C149.22,90.8128711 152.223,87.9078711 153.255,87.4018711 C154.332,87.8678711 157.254,90.5868711 157.376,94.8468711 C162.327,91.6418711 165.532,97.4848711 162.891,101.155871 C161.758,102.596871 162.651,103.773871 164.603,102.930871" id="Fill-40" fill="#EB8B2D"></path>
            <path d="M178.351,129.652871 C178.351,131.429871 174.735,134.188871 171.489,130.705871 C171.3,131.156871 171.151,131.459871 170.68,131.862871 C172.219,134.715871 170.403,137.677871 170.403,137.677871 C171.714,137.469871 171.899,137.435871 172.828,136.936871 C172.95,139.544871 171.61,140.477871 169.663,140.866871 C169.338,144.373871 168.83,144.787871 167.075,147.578871 C166.04,145.910871 164.753,144.819871 164.403,140.866871 C163.09,140.866871 160.858,139.219871 161.297,136.880871 C161.297,137.160871 162.523,137.596871 163.82,137.596871 C161.787,134.756871 163.564,131.862871 163.389,131.862871 C163.155,131.671871 162.773,131.136871 162.684,130.719871 C157.855,135.284871 155.014,129.116871 155.799,129.652871 C156.503,130.134871 159.072,130.089871 157.616,128.064871 C154.886,124.267871 157.571,118.403871 162.968,121.528871 C162.968,117.534871 165.971,114.629871 167.003,114.123871 C168.08,114.589871 171.002,117.308871 171.124,121.568871 C176.074,118.363871 179.28,124.206871 176.639,127.877871 C175.506,129.319871 176.399,130.495871 178.351,129.652871" id="Fill-41" fill="#EB8B2D"></path>
            <path d="M185.234,143.272871 C180.37,148.149871 172.986,150.526871 167.166,150.667871 C152.871,151.010871 141.698,139.517871 140.866,125.606871 C140.779,124.144871 140.777,97.8578711 140.886,83.2198711 L192.931,83.2758711 C192.98,89.9398711 192.978,120.101871 192.986106,122.880871 C193.005,130.783871 190.469,138.025871 185.234,143.272871 Z M195.608,80.5238711 L137.985,80.6918711 L137.992,104.858871 L137.991,104.858871 L137.991,111.807871 L137.953,111.807871 C137.905,119.148871 137.85,125.082871 137.894,125.820871 C138.808,141.100871 150.571,153.501871 167.11,153.474915 C175.286,153.462871 181.904,150.677871 187.328,145.361871 C193.487,139.323871 195.535,131.483871 195.513,122.874871 C195.512,122.359871 195.56,120.893871 195.608,118.822871 L195.608,103.138871 C195.554,92.5568711 195.608,80.5238711 195.608,80.5238711 L195.608,80.5238711 Z" id="Fill-42" fill="#EB8B2D"></path>
            <g id="Group-46" transform="translate(68.258000, -0.000000)" fill="#EB8B2D">
                <path d="M69.751,90.3918711 C29.522,101.934871 -7.10542736e-15,139.059871 -7.10542736e-15,182.948871 C-7.10542736e-15,236.032871 43.186,279.219871 96.27,279.219871 C149.353,279.219871 192.54,236.032871 192.54,182.948871 C192.54,140.722871 165.213,104.758871 127.316,91.8138711 L127.316,95.4138711 C163.305,108.215871 189.141,142.621871 189.141,182.948871 C189.141,234.157871 147.479,275.820871 96.27,275.820871 C45.061,275.820871 3.399,234.157871 3.399,182.948871 C3.399,140.950871 31.421,105.373871 69.749,93.9338711 L69.751,90.3918711" id="Fill-43"></path>
                <path d="M102.165,7.46187109 L101.841,7.45187109 C98.905,7.36487109 95.95,7.34887109 93.033,7.40587109 L92.89,0.0348710937 C95.925,-0.0241289063 99.003,-0.00812890634 102.057,0.0818710937 L102.412,0.0928710937 L102.165,7.46187109 Z M79.367,8.19787109 L78.656,0.859871094 C81.679,0.566871094 84.755,0.345871094 87.8,0.202871094 L88.145,7.56787109 C85.222,7.70487109 82.269,7.91687109 79.367,8.19787109 Z M115.83,8.41487109 C112.926,8.09987109 109.975,7.85387109 107.059,7.68287109 L107.491,0.322871094 C110.527,0.500871094 113.601,0.756871094 116.626,1.08587109 L115.83,8.41487109 L115.83,8.41487109 Z" id="Fill-45"></path>
            </g>
            <path d="M169.782,26.9188711 L169.477,26.9098711 C166.518,26.8228711 163.555,26.8178711 160.632,26.8938711 L160.459,20.3968711 C163.502,20.3158711 166.594,20.3208711 169.662,20.4118711 L169.986,20.4218711 L169.782,26.9188711 Z M148.876,27.6438711 L148.219,21.1778711 C151.258,20.8688711 154.345,20.6418711 157.395,20.5048711 L157.687,26.9988711 C154.759,27.1298711 151.794,27.3478711 148.876,27.6438711 Z M181.534,27.7298711 C178.619,27.4188711 175.655,27.1868711 172.726,27.0398711 L173.051,20.5478711 C176.102,20.7008711 179.188,20.9428711 182.223,21.2668711 L181.534,27.7298711 L181.534,27.7298711 Z" id="Fill-47" fill="#EB8B2D"></path>
            <path d="M178.921,37.0868711 L178.648,37.0608711 C169.708,36.2158711 160.621,36.1848711 151.732,36.9728711 L151.158,30.4978711 C160.439,29.6758711 169.922,29.7078711 179.267,30.5898711 L179.547,30.6168711 L178.921,37.0868711" id="Fill-48" fill="#EB8B2D"></path>
            <path d="M181.077,18.0568711 C175.501,17.5148711 169.826,17.2538711 164.21,17.2838711 C164.205,17.2838711 164.201,17.2838711 164.196,17.2838711 C159.496,17.3078711 154.728,17.5368711 150.023,17.9618711 L149.4,11.0668711 C154.299,10.6248711 159.265,10.3868711 164.159,10.3608711 C164.164,10.3608711 164.169,10.3608711 164.174,10.3608711 C170.025,10.3298711 175.938,10.6018711 181.748,11.1668711 L181.077,18.0568711" id="Fill-49" fill="#EB8B2D"></path>
            <path d="M220.589,16.5348711 L220.281,16.4318711 C217.495,15.4998711 214.672,14.6308711 211.862,13.8418711 L213.856,6.74387109 C216.779,7.56487109 219.72,8.46987109 222.618,9.43887109 L222.954,9.55187109 L220.589,16.5348711 Z M198.551,10.6508711 L199.991,3.41987109 C202.97,4.01387109 205.979,4.69087109 208.934,5.43387109 L207.136,12.5838711 C204.299,11.8708711 201.41,11.2198711 198.551,10.6508711 Z M233.395,21.3968711 C230.706,20.2568711 227.952,19.1668711 225.21,18.1608711 L227.751,11.2398711 C230.606,12.2878711 233.474,13.4218711 236.275,14.6108711 L233.395,21.3968711 L233.395,21.3968711 Z" id="Fill-50" fill="#EB8B2D"></path>
            <path d="M214.351,34.9768711 L214.062,34.8798711 C211.255,33.9408711 208.42,33.0798711 205.599,32.3078711 L207.311,26.0378711 C210.248,26.8398711 213.206,27.7388711 216.117,28.7128711 L216.424,28.8158711 L214.351,34.9768711 Z M194.128,29.6288711 L195.368,23.2478711 C198.366,23.8298711 201.387,24.5058711 204.347,25.2558711 L202.75,31.5568711 C199.908,30.8358711 197.007,30.1878711 194.128,29.6288711 Z M225.367,39.1498711 C222.667,38.0098711 219.896,36.9298711 217.134,35.9428711 L219.322,29.8218711 C222.198,30.8508711 225.083,31.9738711 227.895,33.1608711 L225.367,39.1498711 L225.367,39.1498711 Z" id="Fill-51" fill="#EB8B2D"></path>
            <path d="M220.161,47.3518711 L219.908,47.2478711 C211.594,43.8558711 202.903,41.1988711 194.166,39.3838711 L195.488,33.0198711 C204.61,34.9148711 213.68,37.6868711 222.37,41.2328711 L222.631,41.3388711 L220.161,47.3518711" id="Fill-52" fill="#EB8B2D"></path>
            <path d="M227.726,29.7578711 C222.544,27.6268711 217.187,25.7368711 211.802,24.1418711 C211.797,24.1408711 211.793,24.1388711 211.789,24.1378711 C207.282,22.8028711 202.652,21.6428711 198.024,20.6898711 L199.42,13.9098711 C204.239,14.9028711 209.062,16.1098711 213.754,17.4998711 C213.759,17.5018711 213.764,17.5028711 213.768,17.5038711 C219.378,19.1658711 224.96,21.1348711 230.36,23.3548711 L227.726,29.7578711" id="Fill-53" fill="#EB8B2D"></path>
            <path d="M106.073,9.55187109 L106.409,9.43887109 C109.307,8.46987109 112.248,7.56487109 115.171,6.74387109 L117.165,13.8418711 C114.355,14.6308711 111.532,15.4998711 108.746,16.4318711 L108.438,16.5348711 L106.073,9.55187109 Z M121.891,12.5838711 L120.093,5.43387109 C123.048,4.69087109 126.057,4.01387109 129.036,3.41987109 L130.476,10.6508711 C127.617,11.2198711 124.728,11.8708711 121.891,12.5838711 Z M92.752,14.6108711 C95.553,13.4218711 98.421,12.2878711 101.276,11.2398711 L103.817,18.1608711 C101.075,19.1668711 98.321,20.2568711 95.632,21.3968711 L92.752,14.6108711 L92.752,14.6108711 Z" id="Fill-54" fill="#EB8B2D"></path>
            <path d="M112.603,28.8158711 L112.91,28.7128711 C115.821,27.7388711 118.779,26.8398711 121.716,26.0378711 L123.428,32.3078711 C120.607,33.0798711 117.772,33.9408711 114.965,34.8798711 L114.676,34.9768711 L112.603,28.8158711 Z M126.277,31.5568711 L124.68,25.2558711 C127.64,24.5058711 130.661,23.8298711 133.66,23.2478711 L134.899,29.6288711 C132.02,30.1878711 129.119,30.8358711 126.277,31.5568711 Z M101.132,33.1608711 C103.944,31.9738711 106.829,30.8508711 109.705,29.8218711 L111.893,35.9428711 C109.131,36.9298711 106.36,38.0098711 103.66,39.1498711 L101.132,33.1608711 L101.132,33.1608711 Z" id="Fill-55" fill="#EB8B2D"></path>
            <path d="M106.396,41.3388711 L106.657,41.2328711 C115.348,37.6868711 124.417,34.9148711 133.539,33.0198711 L134.861,39.3838711 C126.124,41.1988711 117.434,43.8558711 109.119,47.2478711 L108.866,47.3518711 L106.396,41.3388711" id="Fill-56" fill="#EB8B2D"></path>
            <path d="M98.668,23.3548711 C104.067,21.1348711 109.649,19.1658711 115.259,17.5038711 C115.263,17.5028711 115.268,17.5018711 115.273,17.4998711 C119.965,16.1098711 124.788,14.9028711 129.607,13.9098711 L131.003,20.6898711 C126.375,21.6428711 121.745,22.8028711 117.238,24.1378711 C117.234,24.1388711 117.23,24.1408711 117.225,24.1418711 C111.84,25.7368711 106.483,27.6268711 101.301,29.7578711 L98.668,23.3548711" id="Fill-57" fill="#EB8B2D"></path>
            <polyline id="Fill-9" fill="#EB8B2D" points="70.125 238.001871 72.192 241.392871 56.052 251.234871 53.985 247.843871 70.125 238.001871"></polyline>
            <path d="M81.848,256.651871 L78.603,256.937871 C78.347,254.953871 77.872,253.698871 76.992,252.591871 C76.029,251.378871 74.65,251.084871 73.649,251.878871 C72.882,252.488871 72.821,253.196871 73.461,254.702871 L74.391,256.879871 C75.659,259.830871 75.153,262.385871 72.96,264.127871 C69.958,266.511871 66.05,265.656871 63.125,261.972871 C61.789,260.291871 60.791,258.028871 60.459,255.861871 L63.659,255.125871 C64.034,257.084871 64.513,258.649871 65.696,260.139871 C67.049,261.842871 68.462,262.179871 69.782,261.130871 C70.74,260.369871 70.867,259.261871 70.159,257.671871 L69.304,255.676871 C68.542,253.886871 68.39,252.514871 68.862,251.271871 C69.2,250.342871 69.798,249.521871 70.628,248.862871 C73.332,246.714871 76.93,247.398871 79.416,250.527871 C80.853,252.337871 81.754,254.608871 81.848,256.651871" id="Fill-10" fill="#EB8B2D"></path>
            <polyline id="Fill-11" fill="#EB8B2D" points="79.262 266.170871 83.948 270.711871 81.754 272.975871 77.067 268.435871 79.262 266.170871"></polyline>
            <path d="M103.005,273.449871 L106.35,275.431871 L100.016,286.121871 C99.294,287.338871 99.175,287.646871 99.145,288.229871 C99.09,289.176871 99.626,290.031871 100.702,290.669871 C102.129,291.515871 103.457,291.353871 104.305,290.243871 C104.559,289.921871 104.698,289.687871 105.211,288.821871 L111.379,278.411871 L114.701,280.380871 L108.214,291.327871 C107.299,292.871871 107.095,293.161871 106.446,293.725871 C105.262,294.761871 102.618,295.597871 99.109,293.517871 C96.63,292.048871 95.272,290.233871 95.182,288.251871 C95.143,287.090871 95.367,286.338871 96.296,284.770871 L103.005,273.449871" id="Fill-12" fill="#EB8B2D"></path>
            <path d="M119.411,282.619871 L123.351,284.121871 L124.038,292.474871 C124.211,294.694871 124.19,296.810871 124.061,298.217871 C124.457,296.796871 125.192,294.486871 125.632,293.256871 L128.307,286.009871 L131.687,287.297871 L124.955,304.961871 L121.244,303.546871 L120.796,295.633871 C120.673,293.054871 120.53,290.147871 120.616,288.929871 C120.191,290.426871 119.422,292.519871 118.885,294.003871 L116.11,301.590871 L112.68,300.282871 L119.411,282.619871" id="Fill-13" fill="#EB8B2D"></path>
            <path d="M140.197,292.592871 L137.756,305.054871 L139.758,305.447871 C142.213,305.927871 143.684,304.359871 144.452,300.436871 C144.875,298.274871 145.044,296.423871 144.537,295.049871 C144.122,293.915871 143.372,293.214871 141.904,292.926871 L140.197,292.592871 Z M136.982,288.915871 L140.718,289.646871 C141.785,289.855871 143.189,290.185871 143.926,290.385871 C145.475,290.827871 146.689,291.702871 147.622,293.021871 C149.001,295.037871 149.362,297.574871 148.709,300.909871 C148.213,303.444871 147.165,305.400871 145.603,306.868871 C144.184,308.170871 142.342,308.806871 140.57,308.653871 C139.866,308.571871 138.975,308.452871 137.881,308.237871 L133.371,307.355871 L136.982,288.915871 L136.982,288.915871 Z" id="Fill-14" fill="#EB8B2D"></path>
            <polyline id="Fill-15" fill="#EB8B2D" points="166.173 292.259871 169.942 291.974871 170.495 299.295871 175.918 298.886871 175.365 291.565871 179.215 291.274871 180.639 310.118871 176.789 310.408871 176.153 302.004871 170.731 302.413871 171.366 310.818871 167.597 311.103871 166.173 292.259871"></polyline>
            <path d="M192.278,291.259871 C191.04,291.578871 190.097,292.495871 189.848,293.599871 C189.521,294.946871 189.645,296.627871 190.214,298.839871 C191.029,301.999871 192.083,303.806871 193.373,304.345871 C194.061,304.617871 194.853,304.638871 195.722,304.413871 C198.277,303.755871 198.854,301.529871 197.654,296.867871 C197.172,294.998871 196.668,293.696871 196.088,292.750871 C195.561,291.902871 194.227,290.758871 192.278,291.259871 Z M191.599,288.402871 C196.471,287.147871 200.389,289.929871 201.867,295.670871 C202.931,299.805871 202.277,303.259871 200.023,305.412871 C199.073,306.303871 198.107,306.804871 196.579,307.198871 C193.814,307.910871 191.826,307.607871 189.963,306.150871 C188.106,304.718871 186.798,302.584871 186.107,299.897871 C185.089,295.947871 185.803,292.394871 188.037,290.273871 C188.967,289.416871 190.229,288.755871 191.599,288.402871 L191.599,288.402871 Z" id="Fill-16" fill="#EB8B2D"></path>
            <path d="M215.446,280.887871 L214.931,283.945871 C213.774,283.686871 212.711,283.772871 211.742,284.204871 C210.575,284.723871 209.686,285.804871 209.474,286.999871 C209.246,288.292871 209.589,289.866871 210.485,291.877871 C211.536,294.238871 212.321,295.467871 213.262,296.178871 C214.522,297.136871 215.964,297.297871 217.454,296.633871 C218.399,296.214871 219.096,295.575871 219.687,294.628871 C219.754,294.509871 219.833,294.355871 219.913,294.199871 L222.477,295.678871 C221.608,297.404871 220.364,298.554871 218.401,299.428871 C216.016,300.490871 213.834,300.538871 211.699,299.554871 C209.611,298.608871 207.986,296.830871 206.858,294.297871 C205.896,292.135871 205.506,290.254871 205.637,288.410871 C205.861,285.303871 207.682,282.707871 210.465,281.468871 C212.179,280.705871 214.136,280.488871 215.446,280.887871" id="Fill-17" fill="#EB8B2D"></path>
            <polyline id="Fill-18" fill="#EB8B2D" points="218.619 277.883871 221.876 275.759871 226.586 282.977871 226.384 272.816871 230.301 270.260871 230.03 280.892871 241.198 285.714871 237.008 288.448871 226.809 283.318871 232.203 291.584871 228.947 293.708871 218.619 277.883871"></polyline>
            <polyline id="Fill-19" fill="#EB8B2D" points="233.669 267.405871 241.674 260.200871 243.384 262.833871 238.573 267.162871 241.502 270.417871 245.524 266.797871 247.598 269.102871 243.616 272.685871 247 276.445871 252.316 271.661871 254.5 274.087871 246.312 281.454871 233.669 267.405871"></polyline>
            <path d="M243.355,258.581871 L246.276,255.069871 L251.855,256.527871 C252.944,256.833871 253.641,257.059871 254.324,257.343871 C254.044,256.828871 253.577,255.944871 253.149,255.057871 L250.679,249.820871 L253.548,246.371871 L258.258,258.141871 L264.236,263.113871 L261.697,266.166871 L255.719,261.192871 L243.355,258.581871" id="Fill-20" fill="#EB8B2D"></path>
            <polyline id="Fill-21" fill="#EB8B2D" points="262.274 250.706871 265.846 245.244871 268.486 246.971871 264.914 252.432871 262.274 250.706871"></polyline>
            <path d="M266.554,224.929871 L268.128,227.600871 C267.075,228.147871 266.317,228.897871 265.852,229.850871 C265.293,231.000871 265.308,232.398871 265.915,233.450871 C266.572,234.587871 267.847,235.571871 269.828,236.535871 C272.152,237.665871 273.543,238.101871 274.722,238.040871 C276.303,237.962871 277.51,237.158871 278.225,235.691871 C278.677,234.762871 278.801,233.824871 278.643,232.718871 C278.617,232.585871 278.579,232.415871 278.541,232.245871 L281.455,231.728871 C281.9,233.608871 281.687,235.289871 280.747,237.221871 C279.604,239.569871 277.965,241.010871 275.697,241.630871 C273.489,242.250871 271.102,241.934871 268.608,240.720871 C266.48,239.684871 264.972,238.496871 263.885,237.000871 C262.058,234.477871 261.781,231.317871 263.114,228.578871 C263.935,226.890871 265.295,225.465871 266.554,224.929871" id="Fill-22" fill="#EB8B2D"></path>
            <polyline id="Fill-23" fill="#EB8B2D" points="267.02 220.403871 268.199 216.699871 283.2 221.474871 285.253 215.022871 288.052 216.627871 285.025 226.135871 267.02 220.403871"></polyline>
            <path d="M270.979,207.391871 L271.606,203.553871 L283.873,205.555871 C285.268,205.783871 285.599,205.783871 286.152,205.597871 C287.055,205.304871 287.656,204.492871 287.858,203.257871 C288.125,201.620871 287.491,200.442871 286.148,200.057871 C285.754,199.938871 285.486,199.894871 284.493,199.732871 L272.548,197.782871 L273.171,193.970871 L285.733,196.022871 C287.504,196.310871 287.849,196.394871 288.61,196.794871 C290.007,197.519871 291.749,199.677871 291.092,203.703871 C290.627,206.549871 289.43,208.475871 287.618,209.281871 C286.551,209.740871 285.769,209.806871 283.971,209.512871 L270.979,207.391871" id="Fill-24" fill="#EB8B2D"></path>
            <path d="M284.237,184.829871 L289.349,184.747871 L289.308,182.272871 C289.296,181.484871 289.151,180.942871 288.845,180.512871 C288.401,179.948871 287.524,179.554871 286.626,179.569871 C285.539,179.586871 284.624,180.172871 284.338,180.993871 C284.21,181.457871 284.185,181.594871 284.199,182.464871 L284.237,184.829871 Z M276.76,185.005871 L281.111,184.935871 L281.074,182.678871 C281.06,181.780871 280.999,181.374871 280.803,181.050871 C280.523,180.538871 279.591,180.091871 278.83,180.103871 C278.04,180.116871 277.26,180.564871 276.943,181.222871 C276.813,181.550871 276.711,181.960871 276.724,182.803871 L276.76,185.005871 Z M273.585,188.810871 L273.482,182.420871 C273.444,180.109871 273.778,178.907871 274.766,177.748871 C275.673,176.673871 276.753,176.166871 278.113,176.144871 C279.391,176.123871 280.485,176.568871 281.314,177.370871 C281.84,177.906871 282.035,178.229871 282.322,179.094871 C283.042,176.553871 284.545,175.305871 287.019,175.265871 C289.63,175.223871 292.049,176.816871 292.32,180.129871 C292.357,180.727871 292.397,181.515871 292.414,182.548871 L292.51,188.503871 L273.585,188.810871 L273.585,188.810871 Z" id="Fill-25" fill="#EB8B2D"></path>
        </g>
    </g>
</svg>