<?xml version="1.0" encoding="utf-8"?>
<svg width="673px" height="673px" viewBox="0 0 673 673" version="1.1" xmlns="http://www.w3.org/2000/svg" xmlns:xlink="http://www.w3.org/1999/xlink">
    <g id="Hessen" stroke="none" stroke-width="1" fill="none" fill-rule="evenodd">
        <g id="532-RSC" transform="translate(-2.000000, -2.000000)">
            <path d="M328,3.45 C333.071225,2.25 342.928775,2.25 348,3.45 C341.390313,3.45 334.723647,3.45 328,3.45 Z" id="Path" fill="#353634"></path>
            <path d="M111.851497,91.678155 C166.161446,44.5113587 231.356545,8.10900924 328.743895,4 C335.518164,4 342.292432,4 349.066701,4 C445.180257,8.22475598 509.912158,43.8747517 563.816809,90.2891941 C571.980671,98.0442256 579.912935,105.972877 587.671499,114.133022 C634.396583,168.418243 669.947019,233.930897 674,330.926665 C674,336.308888 674,341.691112 674,347.073335 C674,348.925283 674,350.835104 674,352.687052 C672.378807,353.670899 673.768401,357.548415 673.305203,359.68973 C666.704634,452.287121 630.401501,515.079727 584.197515,568.03386 C577.075848,574.689298 570.06998,581.518355 563.122012,588.405286 C509.39106,634.298868 445.122357,669.659497 349.761498,674 C342.987229,674 336.212961,674 329.380792,674 C231.877643,670.238231 166.972042,633.835881 112.488394,587.016325 C105.366727,579.608534 98.0713608,572.432236 90.7180947,565.255938 C44.8036069,512.475425 9.48477004,449.104086 3.69479679,356.217327 C3.23159893,353.613026 4.62119251,349.21465 3,347.825689 C3,341.980479 3,336.135268 3,330.290058 C4.62119251,329.306211 3.28949866,325.428695 3.69479679,323.28738 C9.02157218,229.474648 44.6878074,165.929688 90.7180947,112.801935 C93.3814824,110.776367 95.6974717,108.403559 97.7239624,105.799257 C101.950643,100.474907 107.740616,96.9446316 111.851497,91.678155 Z M319.595737,12.3916386 C228.287859,18.1789756 166.566744,53.5396044 115.383381,99.3753131 C109.709207,104.46817 104.324532,109.850393 99.2293554,115.521983 C51.6357753,168.70761 14.8694452,232.77343 11.5112607,330.174311 C10.353266,334.399067 10.353266,343.485186 11.5112607,347.709942 C14.7536457,443.837609 50.7672793,507.208949 97.1449651,560.278829 C103.166537,566.876393 109.477608,573.18459 116.078178,579.203421 C167.203641,624.691889 228.635258,659.821024 319.595737,665.492615 C322.896022,667.113069 329.149193,665.724108 333.607473,666.187095 C336.907757,666.187095 340.150142,666.187095 343.450427,666.187095 C346.750712,666.187095 349.993097,666.187095 353.293382,666.187095 C448.306843,660.168265 513.386142,624.171029 565.264302,574.978665 C568.911986,572.084996 572.21227,568.786214 575.107257,565.140192 C623.916731,512.880539 660.798861,448.756845 665.662439,352.571305 C666.820433,345.10564 666.820433,332.720739 665.662439,325.197201 C660.740961,228.606547 623.569333,164.309234 574.41246,111.933834 C571.922772,108.808672 569.085685,106.030751 566.016999,103.542196 C514.659936,55.044312 451.317629,18.4683424 357.577962,12.3337652 C356.593666,10.7133109 352.714384,12.0443984 350.572094,11.6392848 C342.87143,11.6392848 335.112866,11.6392848 327.412201,11.6392848 C324.922513,12.1022717 320.753732,10.7711842 319.595737,12.3916386 Z" id="Shape" fill="#010101"></path>
            <path d="M319,11.4205111 C320.263158,9.7405111 324.533835,11.1805111 327,10.7005111 C327,10.9405111 327,11.1805111 327,11.4205111 C324.353383,11.4205111 321.646617,11.4205111 319,11.4205111 Z" id="Path" fill="#353634"></path>
            <path d="M327,11.36 C327,11.12 327,10.88 327,10.64 C334.6475,10.64 342.3525,10.64 350,10.64 C350,10.88 350,11.12 350,11.36 C342.3525,11.36 334.6475,11.36 327,11.36 Z" id="Path" fill="#9D9D97"></path>
            <path d="M350,11.4205111 C350,11.1805111 350,10.9405111 350,10.7005111 C352.140496,11.1805111 356.016529,9.7405111 357,11.4205111 C354.68595,11.4205111 352.371901,11.4205111 350,11.4205111 Z" id="Path" fill="#353634"></path>
            <path d="M339.201071,53.6922603 C337.010385,54.3293056 335.338547,55.4296564 333.609058,56.4720941 C331.93722,53.2868679 320.580246,48.9433778 321.041443,57.8620109 C321.50264,66.1435988 344.331886,63.7691575 340.584661,81.7222503 C338.509275,91.7991475 317.928364,95.3318528 313.316396,83.8071255 C313.546994,80.7377258 317.178919,81.1431182 318.908408,79.5794618 C320.983794,84.4441708 332.225468,86.23948 332.859613,78.8845033 C333.551409,70.7187418 301.786473,66.6069045 315.391782,49.4066834 C321.214392,42.1675331 337.356283,44.0207556 339.201071,53.6922603 Z" id="Path" fill="#010101"></path>
            <path d="M375.876014,74.9514563 C377.258254,87.1262136 366.833865,94.815534 357.043002,89.0485437 C355.430389,93.7669903 356.121509,100.815534 354.969642,106 C352.66591,106 350.304584,106 348.000852,106 C347.943259,91.5533981 350.822924,74.0194175 351.514044,58 C360.84416,60.2135922 373.860248,57.1262136 375.933608,67.9029126 C375.876014,70.2330097 375.876014,72.5631068 375.876014,74.9514563 Z M363.263079,84.0970874 C368.67685,83.5145631 368.273697,76.1165049 368.158511,68.5436893 C357.964495,56.6019417 352.205164,85.2621359 363.263079,84.0970874 Z" id="Shape" fill="#010101"></path>
            <path d="M396.113972,63.124134 C402.754011,62.2502668 408.649907,66.2117984 409.966466,68.0760486 C413.687177,73.3192523 412.027167,88.2915117 407.218864,93.4764576 C400.006409,101.224748 385.810465,94.8746453 384.32218,87.1263554 C382.547687,78.0381356 388.3291,64.1727748 396.113972,63.124134 Z M399.605717,89.2236368 C403.383669,86.4855194 403.154702,79.6693546 404.471262,74.3678931 C397.144323,59.279118 383.578038,91.1461449 399.605717,89.2236368 Z" id="Shape" fill="#010101"></path>
            <path d="M292,93.8230017 C289.357271,94.2233627 287.633752,95.4816401 284.359066,95.195668 C281.199282,88.0463644 282.86535,72.5466743 274.59246,73.0042297 C264.768402,73.5189796 273.7307,90.5057249 274.59246,97.9410006 C272.236984,98.798917 269.307002,99.1420836 266.951526,100 C265.285458,89.190253 261.666068,80.3251166 260,69.5153696 C267.468582,68.771842 270.513465,65.6833428 280.165171,66.0265094 C289.127469,70.3160916 288.782765,83.8711711 292,93.8230017 Z" id="Path" fill="#010101"></path>
            <path d="M375.55,68 C376.75,68.7520661 376.75,74.2479339 375.55,75 C375.55,72.6280992 375.55,70.3140496 375.55,68 Z" id="Path" fill="#353634"></path>
            <path d="M426.808036,72 C429.651786,72.8043088 435.049107,72.6894075 433.133929,76.1938959 C437.138393,75.2172352 440.214286,75.7342908 443,77.572711 C442.883929,80.7324955 441.258929,82.3411131 440.910714,85.2136445 C429.013393,75.7342908 427.5625,96.4165171 424.022321,104 C421.352679,103.655296 420.133929,101.816876 417,101.931777 C419.553571,91.3034111 423.848214,82.2836625 426.808036,72 Z" id="Path" fill="#010101"></path>
            <path d="M252.895971,90.56755 C247.24822,92.4054884 242.176771,94.7029114 236.817171,96.8280277 C236.47139,105.041315 248.746603,103.318248 247.30585,95.4495739 C249.726315,95.7941873 251.858629,96.4834142 254.970655,96.1388008 C255.719846,107.511045 241.94625,113.369473 233.993296,107.970529 C228.979476,104.58183 224.772479,92.0608749 226.328491,85.6855261 C229.498147,72.5902149 252.204409,74.3707177 252.895971,90.56755 Z M234.050926,90.56755 C237.566362,89.4188385 242.00388,89.1890962 243.156483,85.6855261 C239.583416,82.181956 231.16942,85.6855261 234.050926,90.56755 Z" id="Shape" fill="#010101"></path>
            <path d="M462.21156,79.6033787 C462.097746,82.062178 460.219816,82.6911731 460.16291,85.1499724 C461.301048,86.5795068 463.463512,86.9225951 465,87.8946785 C464.544744,90.4678406 463.065164,91.9545564 462.268467,94.1274488 C460.16291,93.9559046 459.138584,92.6407329 457.431376,92.0689191 C454.984377,96.7577921 447.017405,106.478626 454.642936,110.76723 C453.846238,112.940122 452.309751,114.426838 451.911402,117 C439.050432,114.255294 444.513499,96.1859784 449.862752,89.2670316 C449.293683,87.4944089 447.017405,87.4944089 445.708545,86.5223255 C447.757195,80.9757318 456.8054,77.5448491 462.21156,79.6033787 Z" id="Path" fill="#010101"></path>
            <path d="M214.862003,94.4748305 C214.450421,97.3788982 212.392507,98.5986065 211.275354,100.805698 C207.041933,98.1339557 200.750598,99.7021522 199.163065,103.651684 C203.396486,110.214877 212.862887,99.8183149 219.859793,104.34866 C232.50126,112.538131 213.333268,133.331255 200.633003,123.341263 C200.6918,119.856381 203.455284,119.101324 204.219652,116.313419 C207.982693,119.856381 214.862003,117.997778 216.331941,113.525514 C216.214346,112.944701 215.626371,112.828538 215.626371,112.131562 C208.335478,110.911853 193.81249,118.985161 192.107362,106.49767 C190.637424,96.2753525 204.572437,87.5631496 214.862003,94.4748305 Z" id="Path" fill="#010101"></path>
            <path d="M515.799567,114.006215 C513.812459,112.961477 510.364241,113.309723 508.026467,112.613231 C508.844688,105.242025 503.526251,102.223893 499.49359,102.746262 C493.064709,103.558836 469.803853,138.093229 495.928483,130.896145 C496.045372,134.0884 498.850702,134.552728 498.792257,137.919106 C487.220273,141.865894 472.31696,134.726851 475.414512,121.029176 C476.349621,116.850224 491.369823,95.4330964 498.090925,95.0268094 C506.039358,94.5044405 517.669787,101.643483 515.799567,114.006215 Z" id="Path" fill="#010101"></path>
            <path d="M197,133.808726 C191.5864,136.175999 185.654476,148.012361 176.036697,145.702827 C166.13096,143.335555 169.413675,126.533694 179.549778,124.686066 C178.225173,117.930679 167.455564,120.35569 169.759224,128.900966 C167.570747,129.420611 163.308977,130.344425 162.099555,129.593826 C161.005317,119.489615 169.068126,110.828862 179.549778,113.484826 C187.612587,115.563407 190.895302,130.113472 197,133.808726 Z M176.727795,135.887307 C176.95816,137.330766 178.628314,137.273027 178.801088,138.658748 C182.544535,138.081364 187.842953,132.365267 183.005267,129.536088 C181.104748,131.903361 177.476484,132.480744 176.727795,135.887307 Z" id="Shape" fill="#010101"></path>
            <path d="M534,121.639191 C524.784512,132.169518 514.996633,142.066874 506.239057,153 C503.434343,152.36703 502.518519,149.777605 500,148.799378 C508.757576,137.175739 519.232323,127.22084 528.447811,116 C531.138047,117.03577 533.026936,118.934681 534,121.639191 Z" id="Path" fill="#010101"></path>
            <path d="M325,124.45 C333.090373,123.25 345.966601,123.25 354,124.45 C344.314342,124.45 334.628684,124.45 325,124.45 Z" id="Path" fill="#353634"></path>
            <path d="M132.216737,132.72979 C141.066205,127.521531 153.823229,134.755225 151.007489,145.345353 C156.006864,149.68557 163.304801,151.653135 169.798242,154.488743 C170.947523,156.687786 166.867574,158.77109 165.603364,160.796525 C158.822604,159.465525 154.282942,155.819743 148.19175,153.794308 C145.37601,154.488743 144.284193,156.861395 142.617735,158.713221 C145.203618,164.615915 155.029975,166.699219 154.455334,173.469957 C153.018732,174.338 151.811986,175.495392 150.950025,177 C147.559645,176.247696 146.812612,172.717653 143.996872,171.386653 C142.56027,171.155175 142.617735,169.476958 141.238597,169.303349 C138.997498,166.409871 136.411615,163.863611 133.595875,161.606698 C132.159273,161.37522 132.216737,159.697003 130.837599,159.523394 C128.5965,156.629917 126.010617,154.083656 123.194877,151.826744 C121.356027,151.074439 120.83885,149.049005 119,148.296701 C119.689569,145.518962 121.988132,144.245832 123.194877,141.988919 C126.47033,139.095442 129.515926,136.028355 132.216737,132.72979 Z M129.458462,146.039788 C129.458462,146.502745 129.458462,146.965701 129.458462,147.428657 C132.791378,148.991135 134.22798,152.463309 137.848216,153.736439 C143.307303,150.437874 147.674573,136.954268 136.469079,138.979702 C133.825731,141.063006 131.469704,143.435658 129.458462,146.039788 Z" id="Shape" fill="#010101"></path>
            <path d="M525.796658,146.393632 C529.937547,144.251809 531.892967,139.910275 536.263906,138 C537.184103,140.547033 539.772159,141.473227 540.462307,144.309696 C539.829671,146.972504 526.199244,153.745297 525.106509,158.318379 C523.093577,167.059334 533.215751,167.811867 536.263906,161.849493 C538.909474,159.823444 541.209968,157.450072 543.2229,154.845152 C544.660709,154.613603 544.603197,152.934877 546.041005,152.761216 C546.673641,152.47178 547.306277,152.124457 547.421302,151.371925 C549.721796,152.587554 550.699506,155.0767 553,156.29233 C550.814531,159.244573 547.938913,161.502171 545.350857,163.991317 C542.705289,166.017366 540.404795,168.390738 538.391863,170.995658 C536.436443,171.111433 536.493955,173.311143 534.883609,173.77424 C532.525603,174.642547 532.238041,177.652677 529.304911,178 C528.442226,176.552822 527.291979,175.337192 525.796658,174.468886 C524.87646,168.738061 514.754286,167.75398 517.457367,156.234443 C518.377564,155.771346 518.780151,154.729378 518.837663,153.397974 C521.425719,151.371925 523.726213,149.05644 525.796658,146.393632 Z" id="Path" fill="#010101"></path>
            <path d="M577,168.322405 C573.353111,170.526546 570.227207,173.252721 566.464544,175.340854 C588.577424,188.159675 550.140376,218.2056 543.309696,193.612025 C540.762663,191.929917 539.083936,189.435757 537,187.28962 C548.05644,178.24104 560.733719,170.758561 572.079595,162 C575.147612,162.696045 576.015919,165.538227 577,168.322405 Z M548.924747,189.435757 C547.593343,204.284708 575.379161,187.173612 562.238784,181.721263 C558.591896,180.155163 549.272069,185.781523 548.924747,189.435757 Z" id="Shape" fill="#010101"></path>
            <path d="M434,337.652773 C418.158988,365.893903 402.491418,394.366517 386.361337,422.549776 C370.28907,450.617292 354.737127,479.089907 337.33514,506 C305.768744,449.864967 273.739837,394.250775 242,338.347227 C273.682023,281.922838 305.421861,225.49845 338.028907,170 C370.635953,225.209094 401.797651,281.98071 434,337.652773 Z M338.66486,185.451602 C307.734417,235.162935 278.943089,287.015501 249.68925,338.405098 C278.596206,389.447468 308.485998,439.506028 337.277326,490.606269 C368.207769,440.952807 396.999097,389.100241 426.252936,337.710644 C397.114724,286.841888 367.282746,236.783328 338.66486,185.451602 Z" id="Shape" fill="#F2E008"></path>
            <path d="M335.275766,352.028986 C334.927013,341.594203 326.09192,332.898551 324.696905,322.521739 C322.604383,306.637681 331.497602,296.956522 337.368288,286 C341.146453,286.869565 341.843961,291.855072 343.70398,295.15942 C347.54027,301.884058 352.597199,308.492754 351.434686,321.130435 C350.388425,332.434783 341.262704,341.362319 340.855825,352.028986 C339.286434,352.782609 340.565197,356.434783 340.158318,358.347826 C341.378956,357.942029 344.285236,359.217391 344.401487,357.652174 C346.377758,339.565217 362.362301,311.391304 383.868778,317.594203 C401.887717,322.811594 394.04076,353.42029 374.684931,354.115942 C374.684931,350.289855 379.799985,342.637681 372.592409,340.086957 C361.374166,336.086957 348.063401,347.855072 348.644657,356.956522 C347.598396,360.144928 353.23658,356.608696 352.190319,359.73913 C353.062204,362.521739 350.504677,361.826087 348.644657,361.826087 C348.528406,366.637681 349.225913,370.637681 352.190319,372.376812 C355.387228,372.26087 355.61973,369.246377 359.223518,369.594203 C371.197394,376.26087 354.16659,385.826087 347.249642,375.217391 C343.006473,368.724638 348.87716,362.637681 340.913951,361.884058 C339.286434,370 346.203381,383.971014 338.821429,390 C329.753833,385.884058 335.857023,370.985507 335.973274,361.884058 C327.777563,360.956522 332.078858,374.753623 325.394412,378.753623 C317.198701,383.623188 307.607975,375.681159 316.210566,369.594203 C320.337484,368.956522 320.628112,372.202899 323.941272,372.376812 C326.61505,370.811594 327.080055,367.101449 327.486934,363.217391 C327.951939,360.144928 322.139378,363.391304 323.243765,359.681159 C323.941272,358.463768 325.16191,357.884058 327.486934,358.289855 C332.834491,344.724638 301.737289,331.971014 299.296013,344.956522 C298.307878,350.173913 303.132303,349.478261 301.388535,354.115942 C280.870194,354.347826 272.790734,317.826087 296.447858,316.898551 C315.978063,316.086957 329.579457,340.028986 331.671979,358.347826 C332.834491,358.347826 333.997003,358.347826 335.217641,358.347826 C336.438279,357.826087 336.438279,352.550725 335.275766,352.028986 Z" id="Path" fill="#010101"></path>
            <path d="M2.62701094,330 C3.10701094,327.859504 1.72701094,323.983471 3.34701094,323 C2.86701094,325.140496 4.30701094,329.016529 2.62701094,330 Z" id="Path" fill="#353634"></path>
            <path d="M665.55,325 C666.75,332.363636 666.75,344.579281 665.55,352 C665.55,342.980973 665.55,334.019027 665.55,325 Z" id="Path" fill="#353634"></path>
            <path d="M11.45,330 C11.45,336 11.45,342 11.45,348 C10.25,343.663366 10.25,334.336634 11.45,330 Z" id="Path" fill="#353634"></path>
            <path d="M558.55,330 C559.75,334.336634 559.75,343.663366 558.55,348 C558.55,342 558.55,336 558.55,330 Z" id="Path" fill="#353634"></path>
            <path d="M120.45,347 C119.25,342.969072 119.25,334.030928 120.45,330 C120.45,335.666667 120.45,341.333333 120.45,347 Z" id="Path" fill="#353634"></path>
            <path d="M124.45,331 C124.45,336 124.45,341 124.45,346 C123.25,342.573034 123.25,334.426966 124.45,331 Z" id="Path" fill="#353634"></path>
            <path d="M554.55,331 C555.75,334.426966 555.75,342.573034 554.55,346 C554.55,341 554.55,336 554.55,331 Z" id="Path" fill="#353634"></path>
            <path d="M673.55,331 C674.75,334.727599 674.75,343.272401 673.55,347 C673.55,341.666667 673.55,336.333333 673.55,331 Z" id="Path" fill="#9D9D97"></path>
            <path d="M2.64,347 C4.32,348.37931 2.88,352.572414 3.36,355 C1.68,353.675862 3.12,349.482759 2.64,347 Z" id="Path" fill="#353634"></path>
            <path d="M673.347011,352 C672.867011,354.140496 674.307011,358.016529 672.627011,359 C673.107011,356.859504 671.727011,352.983471 673.347011,352 Z" id="Path" fill="#353634"></path>
            <path d="M230.043478,555.62963 C227.782609,564.185185 226.217391,573.439153 223.724638,581.761905 C229.695652,577.164021 235.608696,566.455026 241.289855,559.179894 C243.608696,560.634921 246.623188,561.391534 249,562.730159 C239.550725,574.428571 230.797101,586.767196 220.884058,598 C218.73913,597.825397 217.753623,596.486772 215.956522,595.904762 C217.405797,586.068783 219.492754,576.873016 221.57971,567.677249 C214.275362,573.730159 209.347826,582.227513 202.623188,588.862434 C200.130435,588.746032 199.492754,586.825397 197,586.767196 C200.478261,572.15873 204.536232,558.074074 207.550725,543 C210.73913,543.349206 211.724638,545.851852 215.26087,545.793651 C213.57971,554.465608 210.275362,561.507937 208.942029,570.470899 C207.898551,571.05291 207.898551,572.740741 207.550725,574.021164 C210.15942,573.78836 210.217391,570.994709 211.782609,569.772487 C215.898551,564.301587 220.826087,559.587302 224.42029,553.534392 C225.869565,551.380952 230.623188,551.846561 230.043478,555.62963 Z" id="Path" fill="#010101"></path>
            <path d="M325,552.64 C328.458763,553.12 333.675258,551.68 336,553.36 C332.541237,552.88 327.268041,554.32 325,552.64 Z" id="Path" fill="#353634"></path>
            <path d="M343,553.36 C345.236264,551.68 350.554945,553.12 354,552.64 C351.763736,554.32 346.445055,552.88 343,553.36 Z" id="Path" fill="#353634"></path>
            <path d="M330,558.36864 C327.859504,557.88864 323.983471,559.32864 323,557.64864 C325.082645,558.06864 329.016529,556.68864 330,558.36864 Z" id="Path" fill="#353634"></path>
            <path d="M336,557.55 C338.31405,557.55 340.68595,557.55 343,557.55 C342.247934,558.75 336.752066,558.75 336,557.55 Z" id="Path" fill="#9D9D97"></path>
            <path d="M248.005747,569.115333 C247.723369,559.937338 257.945441,562.260881 256.928881,568.41827 C256.30765,572.252116 250.547146,573.762419 248.005747,569.115333 Z" id="Path" fill="#010101"></path>
            <path d="M479,588.641559 C476.11838,588.984933 474.9081,591.045175 472.02648,591.388549 C466.781931,586.810233 467.242991,572.846368 460.845794,571.243957 C446.495327,567.752991 460.442368,592.246983 462.920561,595.509034 C461.018692,597.054216 458.655763,598.198795 455.94704,599 C451.163551,590.129512 447.186916,580.40059 442,571.930704 C443.44081,570.557209 446.610592,567.295159 448.97352,569.183715 C463.61215,553.903584 475.426791,576.051189 479,588.641559 Z" id="Path" fill="#010101"></path>
            <path d="M404.256979,571 C409.185801,583.566756 411.019782,599.260722 414,613.796463 C406.205583,612.638237 402.881493,618.603102 394.571269,616.576206 C383.624698,613.912286 381.217599,590.284468 391.820299,585.709474 C395.430948,585.014539 396.347938,585.477829 400.187834,585.709474 C400.474394,580.265811 398.296542,577.312333 398.124606,572.389872 C400.015899,571.810758 402.308374,571.579113 404.256979,571 Z M398.755037,592.079719 C389.986318,590.747759 391.992234,605.283499 397.379552,609.626848 C401.219449,610.263873 402.365686,608.121154 404.314291,606.847105 C403.511924,600.01357 404.085043,592.832566 398.755037,592.079719 Z" id="Shape" fill="#010101"></path>
            <path d="M245.811881,574 C248.069307,575.090675 250.980198,575.492503 253,576.755391 C249.613861,586.456661 245.990099,595.928317 242.90099,605.974011 C239.217822,606.261031 238.148515,604.07968 235,603.907468 C238.623762,593.976582 242.128713,583.930887 245.811881,574 Z" id="Path" fill="#010101"></path>
            <path d="M441.945218,590.358153 C436.123336,591.903115 430.700995,593.905843 425.335731,595.90857 C425.335731,603.404495 437.036572,602.889507 436.408722,595.221921 C439.662127,594.993038 441.888141,595.736908 444,596.59522 C442.573068,600.429013 442.344759,603.003949 440.518286,604.892235 C426.876817,619.140213 407.013925,592.761427 418.372303,579.943969 C425.963581,571.475291 442.401836,577.426254 441.945218,590.358153 Z M423.280949,589.671504 C426.248967,588.240984 431.043458,588.64153 432.299159,585.494386 C430.358531,581.431709 421.054935,583.262775 423.280949,589.671504 Z" id="Shape" fill="#010101"></path>
            <path d="M320,578.45 C321.022556,577.25 326.977444,577.25 328,578.45 C325.353383,578.45 322.646617,578.45 320,578.45 Z" id="Path" fill="#9D9D97"></path>
            <path d="M320.789166,579 C323.391201,579 325.935414,579 328.479627,579 C328.479627,582.225131 328.479627,585.507853 328.479627,588.790576 C328.479627,589.942408 328.479627,591.094241 328.479627,592.303665 C337.268725,589.769634 344.380956,593.225131 346,599.963351 C346,604.397906 346,608.832461 346,613.209424 C344.091841,625.361257 331.081662,621.790576 320.789166,623 C319.34359,620.696335 320.384405,615.91623 320.09529,612.518325 C321.714334,607.162304 320.326582,598.811518 320.789166,592.303665 C320.789166,588.790576 320.789166,585.335079 320.789166,581.82199 C320.789166,580.900524 320.789166,579.921466 320.789166,579 Z M330.619078,598.581152 C326.571467,603.706806 326.05106,620.005236 336.921787,615.340314 C338.887769,610.387435 341.316336,595.298429 330.619078,598.581152 Z" id="Shape" fill="#010101"></path>
            <path d="M328.55,579 C329.75,580.705882 329.75,587.294118 328.55,589 C328.55,585.647059 328.55,582.352941 328.55,579 Z" id="Path" fill="#353634"></path>
            <path d="M281.039586,602.331765 C274.827859,601.470341 269.260746,599.977207 263.986638,598.139503 C259.884555,600.781203 262.990418,606.409171 266.858097,607.213166 C270.256966,607.270594 270.256966,603.997184 273.245627,603.710043 C274.183246,606.007173 277.406312,606.122029 278.226728,608.591444 C272.776817,619.100813 255.196459,612.553993 254.083037,603.710043 C253.555626,599.517781 255.606668,590.156977 258.360924,586.309285 C267.326906,573.617643 289.712562,585.562718 281.039586,602.331765 Z M264.689853,591.937253 C268.323127,592.339251 270.374168,594.234383 274.652055,594.00467 C276.234288,587.228137 265.393067,586.768711 264.689853,591.937253 Z" id="Shape" fill="#010101"></path>
            <path d="M320.420511,581 C320.420511,584.686813 320.420511,588.313187 320.420511,592 C320.180511,592 319.940511,592 319.700511,592 C320.180511,588.554945 318.740511,583.175824 320.420511,581 Z" id="Path" fill="#9D9D97"></path>
            <path d="M296.528926,597.456046 C300.92562,602.363932 310.181818,601.13696 311.975207,607.388672 C316.77686,624.21571 288.140496,625.208972 286,611.653859 C286.404959,608.790925 291.033058,610.134751 292.305785,608.089799 C293.983471,609.667334 294.214876,612.763976 296.528926,613.757238 C299.710744,613.698811 303.760331,614.458365 304.22314,611.653859 C300.636364,605.051584 289.876033,607.505527 288.082645,600.318979 C283.917355,583.550369 312.727273,582.615533 314,597.514473 C311.801653,597.865036 310.066116,598.741445 308.38843,599.617853 C304.68595,599.384144 306.53719,593.482995 301.38843,594.65154 C299.652893,592.256024 293.694215,595.294239 296.528926,597.456046 Z" id="Path" fill="#010101"></path>
            <path d="M360.789588,622 C348.607375,617.555865 355.401302,598.434389 370.746204,602.878524 C372.561822,594.282631 360.145336,595.159763 360.086768,601.475113 C357.56833,600.422555 354.581345,599.896276 353,597.90811 C354.874187,590.774104 363.132321,587.908806 370.043384,589.370693 C381.229935,591.826662 379.004338,608.492169 380,621.298294 C374.553145,621.649147 371.624729,620.07031 367.934924,622 C365.533623,622 363.132321,622 360.789588,622 Z M362.195228,612.059172 C362.195228,612.760877 362.195228,613.462583 362.195228,614.164288 C366.295011,616.152454 372.151844,614.339715 371.449024,609.193874 C367.642082,609.486251 362.722343,608.550644 362.195228,612.059172 Z" id="Shape" fill="#010101"></path>
            <path d="M319.579489,592 C319.819489,592 320.059489,592 320.299489,592 C319.819489,598.438746 321.259489,606.700855 319.579489,612 C319.579489,605.333333 319.579489,598.666667 319.579489,592 Z" id="Path" fill="#353634"></path>
            <path d="M345.55,600 C346.75,602.769565 346.75,610.286957 345.55,613 C345.55,608.647826 345.55,604.352174 345.55,600 Z" id="Path" fill="#353634"></path>
            <path d="M368,621.55 C367.247934,622.75 361.752066,622.75 361,621.55 C363.31405,621.55 365.68595,621.55 368,621.55 Z" id="Path" fill="#353634"></path>
            <path d="M349,673.55 C343.943182,674.75 334.056818,674.75 329,673.55 C335.704545,673.55 342.352273,673.55 349,673.55 Z" id="Path" fill="#353634"></path>
            <path d="M96,106 C100.382022,100.352941 105.775281,95.8235294 111,91 C107.011236,96.3529412 101.393258,99.9411765 97.4044944,105.235294 C96.7865169,105.411765 96.6741573,106 96,106 Z" id="Path" fill="#9D9D97"></path>
            <path d="M90,112 C91.446281,109.454545 94.1652893,108.239669 95.6115702,105.694215 C96.3057851,105.694215 96.4214876,105.115702 97,105 C94.9752066,107.661157 92.661157,109.975207 90,112 Z" id="Path" fill="#353634"></path>
            <path d="M112,587 C104.042553,580.329787 96.5531915,573.132979 90,565 C97.4308511,572.255319 104.803191,579.510638 112,587 Z" id="Path" fill="#9D9D97"></path>
            <path d="M563,588 C569.923077,581.295455 576.903846,574.590909 584,568 C577.365385,575.045455 570.673077,581.977273 563,588 Z" id="Path" fill="#9D9D97"></path>
            <path d="M563,90 C571.796117,97.223301 579.776699,105.203883 587,114 C579.194175,105.84466 571.213592,97.8058252 563,90 Z" id="Path" fill="#9D9D97"></path>
            <path d="M99,115 C104.046595,109.379928 109.379928,104.046595 115,99 C109.896057,104.620072 104.562724,109.953405 99,115 Z" id="Path" fill="#353634"></path>
            <path d="M97,560 C103.623853,566.042813 109.957187,572.376147 116,579 C109.376147,572.957187 103.042813,566.623853 97,560 Z" id="Path" fill="#353634"></path>
            <path d="M565,575 C568.058824,571.352941 571.352941,568.058824 575,565 C572.058824,568.764706 568.705882,572.058824 565,575 Z" id="Path" fill="#9D9D97"></path>
            <path d="M566,103 C568.97931,105.372414 571.627586,108.075862 574,111 C571.075862,108.627586 568.427586,105.924138 566,103 Z" id="Path" fill="#9D9D97"></path>
            <path d="M405,75.0901015 C403.675376,80.382719 403.856006,87.1875131 399.882134,89.9210628 C383.023282,91.782203 397.293096,59.968337 405,75.0901015 Z" id="Path" fill="#FFFFFF"></path>
            <path d="M114.963887,99.0031864 C166.193309,53.157196 227.842273,17.7886352 319.129049,12 C321.676049,12 324.280935,12 326.827934,12 C334.526819,12 342.28359,12 349.982475,12 C352.297929,12 354.671269,12 356.986723,12 C450.704727,18.1359533 514.032395,54.7201275 565.377589,103.22889 C567.866702,106.354753 570.703133,109.133298 573.77111,111.622411 C622.916622,164.009559 660.07966,228.321296 665,324.933617 C665,334.07966 665,343.167817 665,352.313861 C660.137546,448.520977 623.263941,512.659055 574.465746,564.93043 C570.876792,567.882634 567.635157,571.182156 564.625066,574.77111 C512.758895,623.916622 447.694636,659.921933 352.703133,666 C351.024429,664.842273 344.541158,664.842273 342.862454,666 C339.562931,666 336.321296,666 333.021774,666 C329.722252,664.379182 323.412639,665.768455 319.013277,665.305364 C228.073818,659.632501 166.656399,624.495486 115.542751,578.996814 C109.52257,572.39777 103.212958,566.088157 96.613914,560.067977 C50.3048327,506.986192 14.2416357,443.600637 11,347.451407 C11,341.604886 11,335.758364 11,329.911843 C14.4152947,232.489113 51.1152416,168.408922 98.6978226,115.211365 C104.486458,110.05948 109.869888,104.676049 114.963887,99.0031864 Z M528.967074,116.542751 C519.647371,127.830589 509.054169,137.787042 500.197557,149.537971 C502.744557,150.464153 503.670738,153.069039 506.507169,153.763675 C515.363781,142.707382 525.262347,132.750929 534.58205,122.215613 C533.597982,119.437069 531.687732,117.526819 528.967074,116.542751 Z M209.029209,570.545406 C210.418481,561.630908 213.660117,554.62666 215.338821,546.001593 C211.749867,546.05948 210.823686,543.51248 207.639936,543.223048 C204.629846,558.215613 200.577801,572.22411 197.10462,586.753585 C199.593733,586.869357 200.230483,588.779607 202.719596,588.837493 C209.4923,582.238449 214.412639,573.844928 221.648433,567.766861 C219.564525,576.912905 217.480616,586.058948 216.033457,595.841742 C217.770048,596.420605 218.812002,597.751992 220.953797,597.925651 C230.852363,586.753585 239.593202,574.481678 249.028678,562.846522 C246.597451,561.515135 243.645247,560.762613 241.329793,559.315454 C235.65693,566.551248 229.752523,577.202337 223.790228,581.775358 C226.279341,573.49761 227.900159,564.351567 230.099841,555.784387 C232.762613,552.890069 225.121614,549.474774 224.484865,553.700478 C220.895911,559.720659 215.975571,564.351567 211.86564,569.85077 C210.418481,570.082315 210.476367,571.76102 209.087095,571.934679 C209.029209,571.471588 209.029209,571.008497 209.029209,570.545406 Z M315.655868,49.8576739 C301.994689,67.0499203 333.890069,71.1598513 333.195433,79.3218269 C332.558683,86.6733935 321.270844,84.8789166 319.186936,80.0164631 C317.450345,81.5793946 313.803505,81.1741901 313.57196,84.2421668 C318.202868,95.7615507 338.810409,92.1725969 340.952204,82.1582581 C344.714817,64.2134891 321.733935,66.5868295 321.328731,58.3090813 C320.86564,49.3945831 332.269251,53.7360595 333.947955,56.9198088 C335.684546,55.8778545 337.36325,54.7201275 339.562931,54.1412639 C337.652682,44.4163569 321.444503,42.5639936 315.655868,49.8576739 Z M376.031333,68.149761 C373.947424,57.4986723 360.865109,60.566649 351.48752,58.3090813 C350.792884,74.2857143 347.898566,91.6516198 347.956452,106.007435 C350.271907,106.007435 352.645247,106.007435 354.960701,106.007435 C356.118428,100.85555 355.423792,93.8513011 357.04461,89.1625066 C366.885289,94.8353691 377.362719,87.252257 375.973447,75.1540096 C377.18906,74.401487 377.18906,68.9022836 376.031333,68.149761 Z M384.424854,87.7732342 C385.929899,95.472119 400.285714,101.781731 407.579395,94.0828465 C412.441848,88.9309612 414.120552,73.9962825 410.357939,68.8443972 C409.026553,66.992034 403.064259,63.0557621 396.349442,63.9240574 C388.476899,64.9660117 382.630377,78.7429634 384.424854,87.7732342 Z M280.576739,66.007966 C270.851832,65.6606479 267.783856,68.7286245 260.25863,69.5390335 C261.937334,80.4795539 265.584174,89.4519384 267.262878,100.392459 C269.636219,99.5241636 272.588423,99.1768455 274.961763,98.3085502 C274.093468,90.7833245 265.063197,73.5910781 274.961763,73.0701009 C283.297398,72.6070101 281.618694,88.2942114 284.802443,95.5300053 C288.159851,95.8194371 289.896442,94.488051 292.501328,94.1407329 C289.259692,84.0106213 289.60701,70.291556 280.576739,66.007966 Z M416.725438,102.534254 C419.851301,102.476367 421.066914,104.270844 423.729687,104.618163 C427.260754,96.9192777 428.707913,76.1380775 440.574615,85.6893255 C440.979819,82.795008 442.600637,81.1741901 442.658524,77.9904408 C439.879979,76.1380775 436.869888,75.6171004 432.817844,76.6011683 C434.728093,73.1279873 429.344663,73.1858736 426.508232,72.3754647 C423.556028,82.6792353 419.272438,91.7673925 416.725438,102.534254 Z M226.568773,85.6893255 C225.063728,92.1147106 229.289432,104.733935 234.267658,108.14923 C242.255975,113.590547 256.090813,107.686139 255.33829,96.2246415 C252.154541,96.5719596 250.070632,95.8773234 247.639405,95.5300053 C249.086564,103.518322 236.756771,105.197026 237.104089,96.9192777 C242.48752,94.7774827 247.581519,92.4041423 253.254381,90.6096654 C252.501859,74.2857143 229.694636,72.4912374 226.568773,85.6893255 Z M445.494955,86.3839618 C446.826341,87.4259161 449.141795,87.4259161 449.720659,89.1625066 C444.279341,96.1667552 438.722252,114.458842 451.804567,117.237387 C452.267658,114.632501 453.772703,113.127456 454.583112,110.927775 C446.768455,106.528412 454.93043,96.6877323 457.419543,91.9989379 C459.156134,92.5778014 460.198088,93.9091875 462.339883,94.0828465 C463.150292,91.8831652 464.713224,90.37812 465.118428,87.7732342 C463.613383,86.7312799 461.355815,86.3839618 460.198088,84.9946893 C460.313861,82.5055762 462.22411,81.8688263 462.281997,79.3797132 C456.84068,77.2958046 447.63675,80.7689857 445.494955,86.3839618 Z M192.878917,106.702071 C194.557621,119.147637 208.85555,111.101434 216.033457,112.317047 C216.033457,113.011683 216.612321,113.127456 216.728093,113.70632 C215.280935,118.163569 208.508232,120.073818 204.803505,116.484865 C204.050982,119.263409 201.330324,120.015932 201.272438,123.489113 C213.833776,133.445566 232.64684,112.722252 220.201275,104.560276 C213.312799,100.045141 203.993096,110.406798 199.825279,103.86564 C201.38821,99.9872544 207.58205,98.3664365 211.749867,101.029209 C212.791822,98.8295273 214.87573,97.613914 215.280935,94.7195964 C205.20871,87.8890069 191.489644,96.5719596 192.878917,106.702071 Z M498.113648,95.472119 C491.456718,95.8773234 476.579926,117.295273 475.653744,121.405204 C472.585767,135.066383 487.346787,142.186405 498.808285,138.250133 C498.866171,134.892724 496.087626,134.429634 495.971853,131.245884 C470.096654,138.423792 493.077536,103.981413 499.502921,103.171004 C503.439193,102.650027 508.706851,105.660117 507.954328,113.011683 C510.269782,113.764206 513.685077,113.359002 515.653213,114.400956 C517.505576,102.129049 505.986192,95.0090281 498.113648,95.472119 Z M179.507169,113.764206 C168.971853,111.101434 160.867764,119.784387 161.967605,129.914498 C163.241105,130.667021 167.524695,129.740839 169.66649,129.219862 C167.293149,120.652682 178.175783,118.221455 179.507169,124.994158 C169.377058,126.846522 166.077536,143.69145 175.976102,146.06479 C185.643123,148.380244 191.605417,136.513542 197.046734,134.140202 C190.968667,130.377589 187.669145,115.790228 179.507169,113.764206 Z M485.494424,174.776421 C458.11418,151.216676 423.092937,131.187998 379.5624,122.852363 C328.79607,113.127456 280.229421,124.588954 244.86086,140.391928 C242.661179,141.896973 239.303771,142.302177 237.856612,144.617631 C221.590547,152.721721 207.929368,163.372809 194.383962,174.081784 C187.032395,179.812533 180.491237,186.353691 174.760489,193.705258 C146.106745,228.668614 123.531067,269.710037 120.752523,330.548593 C119.594796,334.542751 119.594796,343.399363 120.752523,347.393521 C123.820499,407.711099 146.222517,448.694636 174.760489,483.54222 C180.780669,491.125332 187.727031,497.724376 195.136484,503.918216 C228.479023,531.182687 267.494424,552.71641 323.528412,557.231545 C324.51248,558.852363 328.390866,557.463091 330.532661,557.926182 C332.385024,557.926182 334.295273,557.926182 336.147637,557.926182 C336.900159,559.083909 342.399363,559.083909 343.151885,557.926182 C406.074349,555.784387 448.447159,533.150823 484.163038,503.918216 C491.74615,497.955921 498.518853,491.183218 504.539033,483.54222 C533.077005,448.694636 555.594796,407.826872 558.546999,347.393521 C559.704727,343.167817 559.704727,334.07966 558.546999,329.853956 C555.36325,269.18906 532.845459,227.858205 503.786511,193.010621 C498.460967,186.122146 492.3829,180.044079 485.494424,174.776421 Z M131.808816,132.693043 C128.451407,135.413702 125.441317,138.481678 122.662772,141.839087 C121.447159,144.154541 119.131705,145.370154 118.437069,148.148699 C120.289432,148.901221 120.810409,150.927244 122.662772,151.679766 C124.92034,154.574084 127.525226,157.121083 130.361657,159.378651 C131.808816,159.610196 131.750929,161.288901 133.140202,161.46256 C135.39777,164.356877 138.002655,166.903877 140.839087,169.161445 C142.286245,169.39299 142.228359,171.071694 143.617631,171.245353 C145.06479,173.792353 147.785449,175.007966 149.232608,177.554965 C151.837493,177.091875 152.705789,174.95008 154.152947,173.329262 C154.731811,166.614445 144.833245,164.47265 142.228359,158.568242 C143.907063,156.715879 145.006904,154.342539 147.843335,153.647902 C153.979288,155.731811 158.55231,159.320765 165.3829,160.652151 C166.656399,158.626129 170.708444,156.54222 169.608603,154.342539 C163.067446,151.506107 155.715879,149.537971 150.679766,145.196495 C153.574084,134.719065 140.7812,127.483271 131.808816,132.693043 Z M526.188529,146.70154 C523.525757,148.727562 521.210303,151.100903 519.18428,153.705789 C519.068508,155.037175 518.72119,156.079129 517.795008,156.54222 C515.074349,168.061604 525.320234,169.045672 526.188529,174.776421 C527.635688,176.397238 528.503983,178.539033 531.108869,179.002124 C532.092937,176.918216 534.350505,176.165693 535.334572,174.081784 C536.897504,173.560807 536.897504,171.419012 538.86564,171.30324 C541.470526,169.277217 543.843866,166.903877 545.869888,164.298991 C548.474774,161.751992 551.426978,159.55231 553.568773,156.600106 C552.005842,154.458311 550.153478,152.548062 547.953797,150.98513 C547.780138,151.969198 546.79607,152.142857 546.564525,153.069039 C545.117366,153.300584 545.175252,154.979288 543.728093,155.152947 C541.123208,157.17897 538.749867,159.55231 536.723845,162.157196 C533.655868,168.11949 523.46787,167.366968 525.493893,158.626129 C526.535847,154.053107 540.312799,147.280404 540.949549,144.617631 C540.312799,141.7812 537.707913,140.855019 536.723845,138.308019 C532.324482,140.218269 530.356346,144.559745 526.188529,146.70154 Z M571.745088,162.157196 C560.399363,170.898035 547.722252,178.365374 536.665959,187.395645 C538.749867,189.53744 540.428571,192.026553 542.975571,193.705258 C549.80616,218.191184 588.300584,188.263941 566.130112,175.471057 C569.834838,173.329262 573.018587,170.66649 576.665428,168.466808 C575.68136,165.688263 574.813064,162.851832 571.745088,162.157196 Z M256.727562,568.403611 C257.769517,562.267658 247.349973,559.952204 247.581519,569.098247 C250.186405,573.729156 256.090813,572.22411 256.727562,568.403611 Z M448.968136,569.098247 C446.594796,567.245884 443.411046,570.545406 441.963887,571.876792 C447.173659,580.443972 451.167817,590.284652 455.972384,599.257037 C458.693043,598.504514 461.066383,597.346787 462.976633,595.725969 C460.429634,592.368561 446.421136,567.593202 460.892724,571.182156 C467.318109,572.745088 466.855019,586.927244 472.122677,591.558152 C475.016994,591.210834 476.232608,589.126925 479.126925,588.779607 C475.537971,576.04461 463.671269,553.642592 448.968136,569.098247 Z M397.738715,572.629315 C397.912374,577.549655 400.112055,580.559745 399.822623,585.943176 C395.944238,585.71163 395.018056,585.24854 391.371216,585.943176 C380.662241,590.516198 383.093468,614.191715 394.149761,616.796601 C402.601168,618.822623 405.958577,612.802443 413.773234,614.018056 C410.763144,599.488582 408.968667,583.743494 403.932554,571.240042 C402.080191,571.818906 399.764737,572.050451 397.738715,572.629315 Z M235.65693,604.235263 C238.724907,604.408922 239.766861,606.66649 243.355815,606.319172 C246.308019,596.18906 249.839087,586.637812 253.196495,576.855019 C251.228359,575.523633 248.391928,575.118428 246.192246,574.076474 C242.603293,584.032926 239.187998,594.163038 235.65693,604.235263 Z M418.809347,579.633563 C407.289963,592.600106 427.434413,619.285714 441.269251,604.872013 C443.121614,602.961763 443.35316,600.298991 444.800319,596.478492 C442.600637,595.610196 440.34307,594.857674 437.101434,595.089219 C437.738184,602.84599 425.871482,603.366968 425.871482,595.783856 C431.312799,593.757833 436.754116,591.731811 442.71641,590.168879 C443.121614,577.086564 426.450345,571.066383 418.809347,579.633563 Z M320.576208,578.938927 C320.576208,579.865109 320.576208,580.79129 320.576208,581.717472 C318.95539,583.859267 320.344663,588.953266 319.881572,592.252788 C319.881572,599.025491 319.881572,605.798194 319.881572,612.570898 C320.171004,615.986192 319.129049,620.790759 320.576208,623.106213 C330.937865,621.948486 343.962294,625.479554 345.814657,613.265534 C346.972384,610.429102 346.972384,602.730218 345.814657,599.951673 C344.19384,593.17897 337.073818,589.647902 328.275093,592.252788 C328.275093,591.095061 328.275093,589.937334 328.275093,588.721721 C329.43282,587.043016 329.43282,580.559745 328.275093,578.881041 C327.291025,577.7812 321.560276,577.7812 320.576208,578.938927 Z M258.811471,586.695698 C256.148699,590.574084 254.06479,600.009559 254.585767,604.235263 C255.743494,613.149761 273.051514,619.748805 278.434944,609.155603 C277.624535,606.66649 274.440786,606.608603 273.514604,604.235263 C270.504514,604.524695 270.5624,607.824217 267.204992,607.76633 C263.442379,607.013808 260.316516,601.283059 264.368561,598.620287 C269.578332,600.47265 275.077536,601.919809 281.213489,602.84599 C289.838555,585.885289 267.725969,573.844928 258.811471,586.695698 Z M301.647371,595.089219 C306.799257,593.931492 304.946893,599.778014 308.65162,600.009559 C310.330324,599.141264 312.066914,598.272969 314.266596,597.925651 C312.993096,583.222517 284.165693,584.148699 288.33351,600.704195 C290.127987,607.824217 300.836962,605.39299 304.483802,611.934148 C304.020712,614.770579 299.968667,613.96017 296.784918,614.018056 C294.52735,613.033988 294.295805,609.966012 292.559214,608.40308 C291.285714,610.371216 286.654806,609.03983 286.249602,611.934148 C288.391397,625.363781 317.045141,624.379713 312.240574,607.708444 C310.446097,601.572491 301.18428,602.788104 296.784918,597.867764 C295.974509,594.568242 298.984599,595.031333 301.647371,595.089219 Z M367.579926,621.774827 C371.226766,619.864578 374.121083,621.369623 379.504514,621.080191 C378.520446,608.460967 380.778014,591.90547 369.663834,589.474243 C362.833245,587.969198 354.671269,590.863516 352.818906,597.925651 C354.381837,599.893787 357.334041,600.414764 359.823155,601.456718 C359.881041,595.262878 372.095061,594.336697 370.358471,602.84599 C355.250133,598.446628 348.535316,617.433351 360.517791,621.774827 C361.3282,622.932554 366.827403,622.932554 367.579926,621.774827 Z" id="Shape" fill="#FFFFFF"></path>
            <path d="M238,144.19 C239.446281,141.79 242.801653,141.43 245,139.81 C243.553719,142.21 240.198347,142.57 238,144.19 Z" id="Path" fill="#353634"></path>
            <path d="M174,194 C179.840708,186.507375 186.507375,179.840708 194,174 C187.628319,180.725664 180.430678,186.625369 174.707965,194 C174.471976,194 174.235988,194 174,194 Z" id="Path" fill="#9D9D97"></path>
            <path d="M195,504 C187.727273,497.977273 180.909091,491.443182 175,484 C181.647727,490.761364 188.295455,497.409091 195,504 Z" id="Path" fill="#9D9D97"></path>
            <path d="M504,484 C498.147727,491.443182 491.443182,498.090909 484,504 C490.363636,497.238636 497.693182,491.5 503.261364,484 C503.545455,484 503.772727,484 504,484 Z" id="Path" fill="#9D9D97"></path>
            <path d="M486,175 C492.8,180.2 498.8,186.2 504,193 C497.714286,187.514286 492.628571,180.828571 486,175.685714 C486,175.457143 486,175.228571 486,175 Z" id="Path" fill="#9D9D97"></path>
            <path d="M238,149.19 C239.446281,146.79 242.801653,146.43 245,144.81 C243.553719,147.21 240.198347,147.57 238,149.19 Z" id="Path" fill="#353634"></path>
            <path d="M244.18302,140.141889 C279.630786,124.326657 328.168738,112.85627 378.965618,122.58872 C422.522349,130.93082 457.564665,150.975033 484.961386,174.553052 C484.961386,174.784777 484.961386,175.016502 484.961386,175.248227 C491.680243,180.462039 496.835229,187.239996 503.206559,192.801396 C532.282994,227.618077 554.756414,269.038922 558,329.750872 C558,335.601929 558,341.452985 558,347.304041 C554.988098,407.726336 532.514679,448.68373 503.959535,483.558343 C503.72785,483.558343 503.496165,483.558343 503.26448,483.558343 C497.530283,491.147337 490.05845,497.056324 483.629199,503.950143 C447.891828,533.263356 405.435599,555.914475 342.533192,558 C340.216345,558 337.841576,558 335.524729,558 C333.671251,558 331.759852,558 329.906374,558 C328.921714,556.377925 325.040994,557.710344 322.897911,557.304825 C266.830204,552.728256 227.791325,531.177831 194.428723,503.950143 C187.594023,497.230118 180.759323,490.452162 174.040465,483.558343 C145.4274,448.741661 123.069823,407.668404 120,347.304041 C120,341.68471 120,336.065379 120,330.446047 C122.838138,269.618234 145.369479,228.487046 174.040465,193.496571 C174.27215,193.496571 174.503835,193.496571 174.73552,193.496571 C180.353875,186.255164 187.420259,180.404108 193.675747,173.857877 C207.287226,163.140595 220.956625,152.423314 237.174557,144.37087 C239.375562,142.806726 242.734991,142.459139 244.18302,140.141889 Z M237.174557,149.295026 C219.624438,158.216439 205.202063,170.266139 190.837609,182.315839 C188.231156,184.343433 185.856387,186.718614 183.829146,189.325521 C181.743983,192.859327 178.558318,195.292439 176.125628,198.478658 C172.30283,201.201427 169.985983,205.430408 166.974081,209.022146 C144.44274,241.289852 126.660936,278.24999 124.170325,330.503978 C123.011902,334.037785 123.011902,342.437816 124.170325,345.971622 C127.124306,408.769098 151.219519,450.421667 181.743983,485.701799 C184.755885,489.293537 187.999471,492.537687 191.590585,495.550112 C225.474478,525.09505 265.440095,548.557206 324.288019,553.133775 C326.662788,554.75585 331.991537,553.3655 335.524729,553.82895 C338.131182,553.82895 340.679714,553.82895 343.228246,553.82895 C346.529754,553.3655 351.626818,554.75585 353.769902,553.133775 C418.467866,547.630306 461.850833,520.808137 496.313938,485.006624 C500.252579,482.167993 502.974874,478.112805 506.16054,474.463136 C531.356255,440.920942 551.454906,402.222867 553.887596,345.971622 C555.04602,342.437816 555.04602,334.037785 553.887596,330.503978 C551.860354,286.418297 538.654324,253.513346 521.567575,224.48979 C520.119545,221.998746 518.845279,219.275977 516.644274,217.480108 C510.272944,207.921452 502.569426,199.753146 495.560963,190.773802 C492.838667,187.413789 489.768844,184.401364 486.409415,181.620664 C452.525522,152.075726 412.444062,128.729432 353.711981,124.037001 C345.545094,122.878376 332.396985,122.878376 324.230098,124.037001 C292.605131,126.064595 267.756943,134.986007 244.18302,145.123976 C241.982015,146.572258 238.564665,146.977776 237.174557,149.295026 Z" id="Shape" fill="#010101"></path>
            <path d="M184,189 C186.024793,186.396694 188.396694,184.024793 191,182 C188.975207,184.603306 186.661157,186.917355 184,189 Z" id="Path" fill="#353634"></path>
            <path d="M168,209 C170.905063,205.252747 173.240506,200.840659 177,198 C174.208861,201.626374 171.303797,205.131868 168.683544,209 C168.512658,209 168.227848,209 168,209 Z" id="Path" fill="#353634"></path>
            <path d="M182,485 C185.647059,488.058824 188.941176,491.352941 192,495 C188.352941,491.941176 185.058824,488.647059 182,485 Z" id="Path" fill="#353634"></path>
            <path d="M497,485 C500.411765,481.434066 503.117647,477.142857 507,474 C503.823529,477.807692 501.058824,482.038462 497,485 Z" id="Path" fill="#353634"></path>
            <path d="M516.45,217 C518.73,218.793388 519.99,221.512397 521.55,224 C519.27,222.206612 518.01,219.487603 516.45,217 Z" id="Path" fill="#353634"></path>
            <path d="M487,182 C490.303797,184.734177 493.265823,187.696203 496,191 C492.696203,188.265823 489.677215,185.303797 487,182 Z" id="Path" fill="#353634"></path>
            <path d="M183.113607,130 C187.825011,132.734177 182.664902,138.43038 179.019173,139 C178.79482,137.575949 177.168264,137.632911 177,136.265823 C177.729146,132.848101 181.262699,132.278481 183.113607,130 Z" id="Path" fill="#FFFFFF"></path>
            <path d="M123,142 C125.677215,138.696203 128.696203,135.734177 132,133 C129.265823,136.303797 126.246835,139.322785 123,142 Z" id="Path" fill="#353634"></path>
            <path d="M130,159 C126.992481,156.654135 124.345865,153.947368 122,151 C124.947368,153.345865 127.654135,156.052632 130,159 Z" id="Path" fill="#353634"></path>
            <path d="M141,169 C137.992481,166.654135 135.345865,163.947368 133,161 C135.947368,163.345865 138.593985,166.052632 141,169 Z" id="Path" fill="#353634"></path>
            <path d="M154,172.981651 C152.489011,174.522936 151.582418,176.559633 148.862637,177 C147.351648,174.577982 144.510989,173.422018 143,171 C145.961538,172.266055 146.747253,175.623853 150.313187,176.33945 C151.28022,174.908257 152.489011,173.807339 154,172.981651 Z" id="Path" fill="#353634"></path>
            <path d="M519,154 C521.024793,151.396694 523.396694,149.024793 526,147 C523.975207,149.661157 521.661157,151.975207 519,154 Z" id="Path" fill="#353634"></path>
            <path d="M526,174.17 C527.424051,175.07 528.620253,176.27 529.474684,177.83 C532.379747,177.53 532.664557,174.41 535,173.45 C534.031646,175.61 531.810127,176.39 530.841772,178.55 C528.278481,178.07 527.367089,175.85 526,174.17 Z" id="Path" fill="#353634"></path>
            <path d="M539,171 C541.024793,168.338843 543.396694,166.024793 546,164 C543.975207,166.603306 541.603306,168.917355 539,171 Z" id="Path" fill="#353634"></path>
            <path d="M546,153.25 C546.231405,152.29 547.214876,152.11 547.38843,151.09 C549.586777,152.71 551.438017,154.69 553,156.91 C550.68595,155.65 549.702479,153.07 547.38843,151.81 C547.272727,152.65 546.636364,152.95 546,153.25 Z" id="Path" fill="#353634"></path>
            <path d="M537,162 C539.024793,159.396694 541.396694,157.024793 544,155 C541.975207,157.603306 539.661157,159.975207 537,162 Z" id="Path" fill="#353634"></path>
            <path d="M129,146 C131.024793,143.396694 133.396694,141.024793 136,139 C133.975207,141.603306 131.603306,143.975207 129,146 Z" id="Path" fill="#353634"></path>
            <path d="M136.001633,139.217896 C147.192767,137.13101 142.888484,150.637796 137.379003,154 C133.763406,152.724681 132.328645,149.246539 129,147.681375 C129,147.217623 129,146.75387 129,146.290118 C131.63996,144.203233 133.992968,141.826502 136.001633,139.217896 Z" id="Path" fill="#FFFFFF"></path>
            <path d="M427,338.18187 C397.67387,389.54542 368.811395,441.371705 337.804519,491 C308.942043,439.925659 278.978389,389.834629 250,338.875972 C279.384086,287.570264 308.246562,235.743979 339.195481,186 C367.884086,237.36355 397.789784,287.396738 427,338.18187 Z M339.195481,195.196852 C309.579568,241.354637 283.499018,291.040774 254.868369,338.239712 C282.861493,386.248435 309.579568,435.587521 339.195481,481.976674 C366.493124,433.736583 394.891945,386.595486 422.073674,338.239712 C394.196464,290.809406 366.435167,243.263417 339.195481,195.196852 Z" id="Shape" fill="#353634"></path>
            <path d="M224,553.946785 C224.618576,549.566785 232.041488,553.106785 229.454716,556.106785 C230.017058,552.206785 225.405855,551.726785 224,553.946785 Z" id="Path" fill="#353634"></path>
            <path d="M209.31,570.53 C209.31,571.01 209.31,571.49 209.31,571.97 C210.81,571.73 210.75,569.99 212.19,569.81 C210.57,571.07 210.51,573.95 207.81,574.19 C208.23,572.87 208.23,571.13 209.31,570.53 Z" id="Path" fill="#353634"></path>
            <path d="M296.837695,597.920013 C293.897695,595.640013 300.137695,592.520013 301.937695,594.980013 C299.177695,594.980013 296.057695,594.500013 296.837695,597.920013 Z" id="Path" fill="#353634"></path>
            <path d="M274.844332,594.89618 C270.61706,595.13618 268.590286,593.15618 265,592.73618 C265.694894,587.33618 276.407844,587.81618 274.844332,594.89618 Z" id="Path" fill="#FFFFFF"></path>
            <path d="M370.94411,609.045445 C371.623409,614.325445 365.96258,616.185445 362,614.145445 C362,613.425445 362,612.705445 362,611.985445 C362.509475,608.385445 367.264571,609.345445 370.94411,609.045445 Z" id="Path" fill="#FFFFFF"></path>
            <path d="M245.091657,145.097183 C268.681089,134.954307 293.487667,126.086535 325.1914,124 C335.04448,124 344.839601,124 354.692681,124 C413.463405,128.694703 453.571236,152.052298 487.477423,181.611538 C490.20151,184.973177 493.273352,187.98706 496.634991,190.769106 C503.648066,199.694838 511.356652,207.925057 517.732174,217.488341 C519.239116,219.98059 520.456261,222.704677 522.658714,224.501415 C539.698746,253.596981 552.913465,286.51786 555,330.566923 C555,335.7253 555,340.883677 555,346.042054 C552.56571,402.378488 532.453835,441.037337 507.241542,474.595768 C503.416229,477.551692 500.750101,481.724761 497.388462,485.144359 C462.960642,520.963203 419.491171,547.798356 354.75064,553.304488 C351.446961,553.768163 346.346543,552.37714 344.202049,554 C341.65184,554 339.043672,554 336.493463,554 C334.117132,552.37714 328.784877,553.768163 325.24936,553.304488 C266.362717,548.725704 226.370805,525.25219 192.464618,495.692951 C189.508694,492.099474 186.205014,488.853754 182.611538,485.839871 C152.06699,450.542661 127.955924,408.869929 125,346.042054 C125,340.883677 125,335.7253 125,330.566923 C127.49225,278.28764 145.343712,241.30961 167.831918,209.026284 C168.063755,209.026284 168.295592,209.026284 168.52743,209.026284 C171.135598,205.316889 174.091522,201.95525 176.989486,198.477692 C179.423777,195.289931 182.611538,192.855641 184.698073,189.320124 C187.3642,187.291549 189.682572,184.915218 191.711147,182.307049 C206.085052,170.251516 220.516916,158.195983 238.078582,149.270252 C240.281035,147.76331 243.642674,147.415555 245.091657,145.097183 Z M338.522038,170.367435 C305.832996,225.950398 274.071303,282.460709 242.251651,338.97102 C274.071303,394.959698 306.180752,450.658579 337.826526,506.879094 C355.272274,479.928023 370.863324,451.41205 386.976008,423.301793 C403.14665,395.075617 418.853619,366.617603 434.734466,338.275509 C402.509098,282.518668 371.269039,225.660601 338.522038,170.367435 Z" id="Shape" fill="#00AE4D"></path>
            <path d="M343,665.45 C344.705882,664.25 351.294118,664.25 353,665.45 C349.647059,665.45 346.294118,665.45 343,665.45 Z" id="Path" fill="#9D9D97"></path>
            <path d="M367.939397,68.8583042 C368.055043,76.2158434 368.517627,83.4035933 363.024441,83.9695579 C351.922423,85.0448906 357.704724,57.1994342 367.939397,68.8583042 Z" id="Path" fill="#FFFFFF"></path>
            <path d="M243,85.35087 C241.811259,88.6873045 237.294045,88.9060871 233.60895,90 C230.637098,85.35087 239.314904,82.0144355 243,85.35087 Z" id="Path" fill="#FFFFFF"></path>
            <path d="M562.44036,181.252814 C575.659211,186.740434 547.707456,204.020602 549.046811,189.017213 C549.337975,185.397719 558.71346,179.734961 562.44036,181.252814 Z" id="Path" fill="#FFFFFF"></path>
            <path d="M422,338.152683 C394.793761,386.545583 366.487695,433.722872 339.22357,482 C309.644021,435.575232 282.958752,386.198265 255,338.152683 C283.595494,290.975393 309.586135,241.193223 339.22357,195 C366.429809,243.161355 394.157019,290.743848 422,338.152683 Z M341.307452,352.21904 C341.712652,341.567971 350.800693,332.595603 351.842634,321.365672 C353.000347,308.74647 347.906412,302.147438 344.143847,295.432634 C342.291508,292.191004 341.59688,287.212787 337.834315,286.286608 C331.929983,297.284994 323.073484,306.894111 325.215251,322.754942 C326.604506,333.116579 335.345234,341.799516 335.750433,352.21904 C335.750433,354.0714 335.750433,355.981646 335.750433,357.834006 C334.708492,358.239209 332.10364,357.023598 332.219411,358.528641 C330.135529,340.236587 316.590295,316.329568 297.140728,317.139976 C273.523397,318.124042 281.627383,354.53449 302.061005,354.302945 C303.739688,349.729931 298.993068,350.36668 299.977123,345.156918 C302.408319,332.190399 333.377123,344.925373 328.051646,358.470754 C325.794107,358.065551 324.520624,358.702299 323.825997,359.860024 C322.72617,363.506858 328.514731,360.323114 328.051646,363.391085 C327.646447,367.211577 327.183362,370.974183 324.520624,372.537112 C321.163258,372.363453 320.931716,369.121823 316.821837,369.758572 C308.19688,375.778741 317.805893,383.767043 325.967764,378.904599 C332.62461,374.910448 328.341075,361.133522 336.502946,362.059701 C336.329289,371.147842 330.2513,386.024607 339.339341,390.13453 C346.690815,384.114361 339.860312,370.163776 341.423224,362.059701 C349.411438,362.812223 343.507106,368.948165 347.732756,375.373538 C354.621144,385.96672 371.581629,376.41549 359.657192,369.758572 C356.068284,369.469141 355.836742,372.479225 352.653033,372.537112 C349.700867,370.800524 349.006239,366.806374 349.12201,362.001815 C350.97435,362.001815 353.521317,362.638564 352.653033,359.91791 C353.75286,356.734167 348.080069,360.265228 349.12201,357.139371 C348.543154,348.05123 361.79896,336.300323 372.970884,340.294474 C380.206586,342.899355 375.054766,350.482453 375.054766,354.302945 C394.27279,353.60831 402.145234,323.044373 384.200693,317.834611 C362.783016,311.640783 346.922357,339.773497 344.89636,357.834006 C340.439168,359.223276 341.307452,355.287011 341.307452,352.21904 Z" id="Shape" fill="#FFFFFF"></path>
            <path d="M433,585.043609 C431.790519,588.024451 427.172498,587.645071 424.313724,589 C422.224619,582.92992 431.185778,581.195611 433,585.043609 Z" id="Path" fill="#FFFFFF"></path>
            <path d="M404,607.063556 C401.91361,608.355641 400.780998,610.528695 396.787052,609.882652 C391.243215,605.477814 389.097214,590.736288 398.217719,592.087105 C403.821167,592.909341 403.225055,600.192008 404,607.063556 Z" id="Path" fill="#FFFFFF"></path>
            <path d="M337.232988,615.172676 C326.03557,619.824268 326.571617,603.572407 330.740868,598.461398 C341.759604,595.188055 339.258053,610.233948 337.232988,615.172676 Z" id="Path" fill="#FFFFFF"></path>
            <path d="M335.381937,352 C336.581937,352.495413 336.581937,357.504587 335.381937,358 C334.181937,358 332.981937,358 331.721937,358 C331.601937,356.568807 334.301937,357.669725 335.381937,357.33945 C335.381937,355.577982 335.381937,353.761468 335.381937,352 Z" id="Path" fill="#9D9D97"></path>
            <path d="M340.577522,352 C340.517522,354.922201 339.617522,358.547894 344.237522,357.249138 C344.177522,358.710239 341.177522,357.519712 339.857522,357.898516 C340.337522,356.112727 338.957522,352.703493 340.577522,352 Z" id="Path" fill="#9D9D97"></path>
            <path d="M319,665.64 C323.454545,666.12 329.760331,664.68 333,666.36 C328.545455,665.88 322.239669,667.32 319,665.64 Z" id="Path" fill="#9D9D97"></path>
        </g>
    </g>
</svg>