<?xml version="1.0" encoding="UTF-8" standalone="no"?>
<!-- Generator: Deutscher Hockey-Bund e.V.  -->
<svg width="254px" height="450px" viewBox="0 0 254 450" version="1.1" xmlns="http://www.w3.org/2000/svg" xmlns:xlink="http://www.w3.org/1999/xlink">
    <defs>
        <polygon id="path-cy4rjp4sxk-1" points="0 450 253.219471 450 253.219471 0 0 0"></polygon>
    </defs>
    <g id="Events" stroke="none" stroke-width="1" fill="none" fill-rule="evenodd">
        <g id="events/olympic-qualifiers/2024/esp_valencia" transform="translate(-123.000000, -25.000000)">
            <g id="FIH" transform="translate(227.398331, 291.260030)" fill="#FFFFFF">
                <path d="M39.4888864,0 L39.4888864,7.77175691 L31.705474,7.77175691 L31.705474,0 L26.7776562,0 C25.956251,4.88303615 24.1085494,16.0296704 24.0573266,16.3790283 C23.9505869,17.1163913 24.5517647,17.5163586 25.242199,17.5163586 C26.1129867,17.5163586 26.9488079,16.6090708 27.7100953,16.6090708 C28.7756523,16.6090708 29.4912379,17.5074636 29.4912379,18.4178186 C29.4912379,19.4419679 27.7834022,21.1801693 25.9519569,21.4405775 L25.9519569,21.5138843 L31.705474,21.5138843 L31.705474,12.4609439 L39.4888864,12.4609439 L39.4888864,21.5138843 L44.8777094,21.5138843 L44.8777094,0 L39.4888864,0 Z" id="Fill-1"></path>
                <polygon id="Fill-3" points="0 0.00450883363 14.372444 0.00450883363 14.372444 4.06705995 5.72407165 4.06705995 5.72407165 7.79098847 14.0028423 7.79098847 14.0028423 12.4737343 5.72407165 12.4737343 5.72407165 21.4855738 0 21.4855738"></polygon>
                <path d="M15.732026,21.4858192 L15.732026,0.000153361688 L23.3323246,0.000153361688 C22.1492925,4.6218612 19.6666735,14.3293493 19.4593285,15.211179 C18.6462048,18.685128 21.1257566,21.2076211 23.9951538,21.4137392 L23.9951538,21.4858192 L15.732026,21.4858192 Z" id="Fill-5"></path>
            </g>
            <g id="Title" transform="translate(123.000000, 25.000000)">
                <polygon id="Fill-7" fill="#FFFFFF" points="22.6071691 296.622117 30.0050303 296.622117 30.0050303 309.991575 44.64279 309.991575 44.64279 296.622117 52.0406511 296.622117 52.0406511 330.864715 44.64279 330.864715 44.64279 316.332774 30.0050303 316.332774 30.0050303 330.864715 22.6071691 330.864715"></polygon>
                <path d="M86.1759263,313.743477 C86.1759263,307.666673 81.7900887,302.804801 75.8187981,302.804801 C69.8475074,302.804801 65.3555435,307.666673 65.3555435,313.743477 C65.3555435,319.873344 69.7944442,324.734909 75.8187981,324.734909 C81.7900887,324.734909 86.1759263,319.873344 86.1759263,313.743477 M57.6408372,313.743477 C57.6408372,303.96759 65.197581,296.094 75.7657349,296.094 C86.3345023,296.094 93.8912461,303.96759 93.8912461,313.743477 C93.8912461,323.572428 86.3345023,331.446017 75.7657349,331.446017 C65.197581,331.446017 57.6408372,323.572428 57.6408372,313.743477" id="Fill-9" fill="#FFFFFF"></path>
                <path d="M98.222947,313.69069 C98.222947,303.967559 105.726628,296.09397 116.295395,296.09397 C120.998385,296.09397 125.225646,297.679116 128.290119,300.427051 L123.745706,305.394436 C121.420743,303.386011 119.04333,302.804771 116.717753,302.804771 C110.482067,302.804771 105.937653,307.666643 105.937653,313.69069 C105.937653,319.820557 110.376554,324.734879 116.453358,324.734879 C119.624264,324.734879 122.530775,323.519641 124.644099,321.194371 L129.241575,326.373088 C125.965156,329.543688 121.526256,331.445986 116.295395,331.445986 C105.726628,331.445986 98.222947,323.572397 98.222947,313.69069" id="Fill-11" fill="#FFFFFF"></path>
                <path d="M133.36268,296.622117 L140.760541,296.622117 L140.760541,315.646021 C140.971873,315.276112 142.662839,312.73951 143.878384,311.154057 L154.763997,296.622117 L163.377403,296.622117 L151.435128,312.264089 L164.857343,330.864715 L156.190567,330.864715 L146.890408,317.706588 L140.760541,325.210576 L140.760541,330.864715 L133.36268,330.864715 L133.36268,296.622117 Z" id="Fill-13" fill="#FFFFFF"></path>
                <polygon id="Fill-15" fill="#FFFFFF" points="168.766655 296.622117 195.558022 296.622117 195.558022 302.963316 176.164516 302.963316 176.164516 309.938819 194.554116 309.938819 194.554116 316.227262 176.164516 316.227262 176.164516 324.523822 196.297839 324.523822 196.297839 330.864715 168.766655 330.864715"></polygon>
                <path d="M210.934034,315.381687 L198.040303,296.622178 L206.495133,296.622178 L212.043452,304.759856 C213.47033,306.821037 214.632811,309.093244 214.632811,309.093244 C214.632811,309.093244 215.953869,306.767974 217.275233,304.759856 L222.61222,296.622178 L231.06705,296.622178 L218.331895,315.32893 L218.331895,330.864776 L210.934034,330.864776 L210.934034,315.381687 Z" id="Fill-17" fill="#FFFFFF"></path>
                <path d="M41.3665856,359.557061 C41.3665856,353.480257 36.9804413,348.618385 31.0091506,348.618385 C25.0378599,348.618385 20.5462028,353.480257 20.5462028,359.557061 C20.5462028,365.686927 24.9851035,370.548493 31.0091506,370.548493 C36.9804413,370.548493 41.3665856,365.686927 41.3665856,359.557061 M12.8311897,359.557061 C12.8311897,349.781173 20.3876268,341.907584 30.9563942,341.907584 C41.5251615,341.907584 49.0812919,349.781173 49.0812919,359.557061 C49.0812919,369.386011 41.5251615,377.2596 30.9563942,377.2596 C20.3876268,377.2596 12.8311897,369.386011 12.8311897,359.557061" id="Fill-19" fill="#FFFFFF"></path>
                <polygon id="Fill-21" fill="#FFFFFF" points="54.6286602 342.435823 62.0265213 342.435823 62.0265213 370.337222 81.8429985 370.337222 81.8429985 376.678421 54.6286602 376.678421"></polygon>
                <path d="M94.7357783,361.19524 L81.8420477,342.435731 L90.2968776,342.435731 L95.8458102,350.573716 C97.2723806,352.634897 98.4351689,354.907104 98.4351689,354.907104 C98.4351689,354.907104 99.755613,352.581834 101.076977,350.573716 L106.413964,342.435731 L114.868794,342.435731 L102.133639,361.142483 L102.133639,376.678329 L94.7357783,376.678329 L94.7357783,361.19524 Z" id="Fill-23" fill="#FFFFFF"></path>
                <path d="M118.77829,342.435823 L125.172246,342.435823 L130.561989,350.04563 C132.570413,352.846015 136.744919,358.923125 136.744919,358.923125 C136.744919,358.923125 140.97218,352.899078 142.927542,350.098387 L148.317592,342.435823 L154.711854,342.435823 L154.711854,376.678421 L147.313379,376.678421 L147.313379,355.012709 C147.313379,355.012709 145.992628,357.179096 144.195536,359.768455 L136.744919,370.389978 L129.240931,359.715698 C127.497516,357.232159 126.176151,355.012709 126.176151,355.012709 L126.176151,376.678421 L118.77829,376.678421 L118.77829,342.435823 Z" id="Fill-25" fill="#FFFFFF"></path>
                <path d="M176.481791,362.51642 C180.867628,362.51642 183.721076,359.45164 183.721076,355.646736 C183.721076,351.84214 180.867628,348.777053 176.534241,348.777053 L168.871984,348.777053 L168.871984,362.51642 L176.481791,362.51642 Z M161.474123,342.435854 L176.164639,342.435854 C186.204922,342.435854 191.489459,348.354388 191.489459,355.646736 C191.489459,362.939085 186.204922,368.857619 176.111882,368.857619 L168.871984,368.857619 L168.871984,376.678452 L161.474123,376.678452 L161.474123,342.435854 Z" id="Fill-27" fill="#FFFFFF"></path>
                <mask id="mask-cy4rjp4sxk-2" fill="white">
                    <use xlink:href="#path-cy4rjp4sxk-1"></use>
                </mask>
                <g id="Clip-30"></g>
                <polygon id="Fill-29" fill="#FFFFFF" mask="url(#mask-cy4rjp4sxk-2)" points="196.825004 376.67839 204.222865 376.67839 204.222865 342.435793 196.825004 342.435793"></polygon>
                <path d="M209.823941,359.504274 C209.823941,349.781143 217.327621,341.907554 227.896389,341.907554 C232.599378,341.907554 236.826947,343.4927 239.891727,346.240635 L235.347313,351.20802 C233.02235,349.199595 230.644324,348.618354 228.319054,348.618354 C222.083674,348.618354 217.539261,353.480227 217.539261,359.504274 C217.539261,365.63414 221.978161,370.548462 228.054965,370.548462 C231.225564,370.548462 234.131768,369.333224 236.245706,367.007954 L240.843183,372.186672 C237.566763,375.357271 233.127863,377.25957 227.896389,377.25957 C217.327621,377.25957 209.823941,369.385981 209.823941,359.504274" id="Fill-31" fill="#FFFFFF" mask="url(#mask-cy4rjp4sxk-2)"></path>
                <path d="M17.6288954,405.529681 L14.9656163,402.834502 L15.7357987,402.128425 L18.3668718,404.791704 C19.8109255,403.123129 20.6771123,400.908893 20.6771123,398.470135 C20.6771123,393.175783 16.6019855,388.972139 11.3073266,388.972139 C6.0129744,388.972139 1.93784762,393.175783 1.93784762,398.470135 C1.93784762,403.764794 6.0129744,407.968438 11.3073266,407.968438 C13.7782901,407.968438 15.9925262,407.037839 17.6288954,405.529681 M0.590105104,398.470135 C0.590105104,392.469706 5.27499796,387.752914 11.3073266,387.752914 C17.339962,387.752914 22.0248548,392.469706 22.0248548,398.470135 C22.0248548,401.293831 20.997945,403.797 19.2974706,405.690097 L21.9288504,408.321477 L21.2227732,409.091659 L18.5594941,406.428073 C16.6660907,408.16106 14.1313287,409.187664 11.3073266,409.187664 C5.27499796,409.187664 0.590105104,404.470872 0.590105104,398.470135" id="Fill-32" fill="#FFFFFF" mask="url(#mask-cy4rjp4sxk-2)"></path>
                <path d="M26.1311447,400.620297 L26.1311447,388.073777 L27.414782,388.073777 L27.414782,400.588091 C27.414782,404.952151 29.7894344,407.968469 34.5381257,407.968469 C39.2552245,407.968469 41.6295702,404.952151 41.6295702,400.588091 L41.6295702,388.073777 L42.9132075,388.073777 L42.9132075,400.620297 C42.9132075,405.593816 39.993201,409.187694 34.5381257,409.187694 C29.0511512,409.187694 26.1311447,405.593816 26.1311447,400.620297" id="Fill-33" fill="#FFFFFF" mask="url(#mask-cy4rjp4sxk-2)"></path>
                <path d="M62.4225319,403.219409 L56.9674566,392.116943 C56.1331691,390.416162 55.8123364,389.581875 55.8123364,389.581875 C55.8123364,389.581875 55.4592978,390.416162 54.6250102,392.116943 L49.2021409,403.219409 L62.4225319,403.219409 Z M55.3307807,387.9133 L56.2616862,387.9133 L66.4657594,408.8668 L65.1499162,408.8668 L62.9356801,404.34263 L48.688686,404.34263 L46.4747567,408.8668 L45.1270142,408.8668 L55.3307807,387.9133 Z" id="Fill-34" fill="#FFFFFF" mask="url(#mask-cy4rjp4sxk-2)"></path>
                <polygon id="Fill-35" fill="#FFFFFF" mask="url(#mask-cy4rjp4sxk-2)" points="69.6095514 388.073808 70.8931887 388.073808 70.8931887 407.711772 84.7874509 407.711772 84.7874509 408.866892 69.6095514 408.866892"></polygon>
                <polygon id="Fill-36" fill="#FFFFFF" mask="url(#mask-cy4rjp4sxk-2)" points="88.8617496 408.866862 90.1453869 408.866862 90.1453869 388.073777 88.8617496 388.073777"></polygon>
                <polygon id="Fill-37" fill="#FFFFFF" mask="url(#mask-cy4rjp4sxk-2)" points="95.5033535 388.073808 110.039281 388.073808 110.039281 389.228928 96.7869908 389.228928 96.7869908 396.962038 107.696835 396.962038 107.696835 398.117465 96.7869908 398.117465 96.7869908 408.866892 95.5033535 408.866892"></polygon>
                <polygon id="Fill-38" fill="#FFFFFF" mask="url(#mask-cy4rjp4sxk-2)" points="113.47262 408.866862 114.756257 408.866862 114.756257 388.073777 113.47262 388.073777"></polygon>
                <polygon id="Fill-39" fill="#FFFFFF" mask="url(#mask-cy4rjp4sxk-2)" points="120.11404 388.073808 135.42015 388.073808 135.42015 389.228928 121.397677 389.228928 121.397677 396.962038 134.425446 396.962038 134.425446 398.117465 121.397677 398.117465 121.397677 407.711772 135.933605 407.711772 135.933605 408.866892 120.11404 408.866892"></polygon>
                <path d="M148.479388,402.224706 C152.683032,402.224706 155.538933,399.657738 155.538933,395.74272 C155.538933,391.796111 152.93976,389.228836 148.511594,389.228836 L141.227527,389.228836 L141.227527,402.224706 L148.479388,402.224706 Z M139.94389,388.073716 L148.222661,388.073716 C154.09488,388.073716 156.886676,391.507177 156.886676,395.74272 C156.886676,398.983866 154.768751,401.839768 151.592017,402.898577 L156.85447,408.8668 L155.282206,408.8668 L150.340586,403.187204 C149.795231,403.283515 148.896532,403.379826 148.126656,403.379826 L141.227527,403.379826 L141.227527,408.8668 L139.94389,408.8668 L139.94389,388.073716 Z" id="Fill-40" fill="#FFFFFF" mask="url(#mask-cy4rjp4sxk-2)"></path>
                <path d="M159.837907,405.658106 L160.543984,404.759713 C162.148454,406.65281 164.587212,407.968346 167.763946,407.968346 C170.972579,407.968346 174.470146,406.65281 174.470146,403.315659 C174.470146,400.427552 171.100789,399.593264 167.85995,398.758977 C164.201967,397.828685 160.768506,396.609153 160.768506,393.111586 C160.768506,389.549914 164.234173,387.752822 167.763946,387.752822 C169.881564,387.752822 172.288115,388.202172 174.373834,390.127474 L173.732169,391.089972 C171.871278,389.357292 169.592937,388.972047 167.763946,388.972047 C165.004049,388.972047 162.084042,390.31979 162.084042,393.111586 C162.084042,395.807071 165.036255,396.641359 168.148884,397.475646 C171.903178,398.47035 175.817888,399.62547 175.817888,403.315659 C175.817888,407.518996 171.614244,409.187572 167.763946,409.187572 C164.137862,409.187572 161.474583,407.647513 159.837907,405.658106" id="Fill-41" fill="#FFFFFF" mask="url(#mask-cy4rjp4sxk-2)"></path>
                <path d="M186.598632,407.775939 C193.721976,402.673902 198.47128,397.796387 198.47128,393.689054 C198.47128,390.769048 196.096628,388.940056 193.208521,388.940056 C190.705965,388.940056 188.972978,390.159588 187.400714,391.956374 L186.630531,391.08988 C188.555834,388.77964 190.89828,387.75273 193.305139,387.75273 C197.348059,387.75273 199.786817,390.416009 199.786817,393.624949 C199.786817,398.887402 192.919894,404.631104 188.491729,407.711833 L200.428482,407.711833 L200.428482,408.866954 L186.598632,408.866954 L186.598632,407.775939 Z" id="Fill-42" fill="#FFFFFF" mask="url(#mask-cy4rjp4sxk-2)"></path>
                <path d="M217.531102,398.470227 C217.531102,392.951047 214.99634,388.940025 211.370256,388.940025 C207.712273,388.940025 205.177204,392.951047 205.177204,398.470227 C205.177204,403.989408 207.712273,408.000429 211.370256,408.000429 C214.99634,408.000429 217.531102,403.989408 217.531102,398.470227 M203.861361,398.470227 C203.861361,392.24497 206.97399,387.752699 211.370256,387.752699 C215.734009,387.752699 218.846638,392.24497 218.846638,398.470227 C218.846638,404.695485 215.734009,409.187756 211.370256,409.187756 C206.97399,409.187756 203.861361,404.695485 203.861361,398.470227" id="Fill-43" fill="#FFFFFF" mask="url(#mask-cy4rjp4sxk-2)"></path>
                <path d="M222.632464,407.775939 C229.755807,402.673902 234.505112,397.796387 234.505112,393.689054 C234.505112,390.769048 232.13046,388.940056 229.242352,388.940056 C226.739796,388.940056 225.006809,390.159588 223.434545,391.956374 L222.664363,391.08988 C224.589665,388.77964 226.932112,387.75273 229.33897,387.75273 C233.381891,387.75273 235.820649,390.416009 235.820649,393.624949 C235.820649,398.887402 228.953726,404.631104 224.52556,407.711833 L236.462314,407.711833 L236.462314,408.866954 L222.632464,408.866954 L222.632464,407.775939 Z" id="Fill-44" fill="#FFFFFF" mask="url(#mask-cy4rjp4sxk-2)"></path>
                <polygon id="Fill-45" fill="#FFFFFF" mask="url(#mask-cy4rjp4sxk-2)" points="249.009018 404.181907 239.093878 404.181907 239.093878 403.315721 248.303247 387.720677 249.32985 388.330443 240.633936 403.058993 249.009018 403.058993 249.009018 397.475401 250.228243 397.475401 250.228243 403.058993 253.084144 403.058993 253.084144 404.181907 250.228243 404.181907 250.228243 408.8668 249.009018 408.8668"></polygon>
            </g>
            <g id="Location" transform="translate(123.000092, 444.597211)">
                <path d="M33.5326558,0.454441354 L40.031204,0.454441354 L46.4846638,17.6781858 C47.1208081,19.3596434 48.2115164,22.6317684 48.2569115,22.8590504 C48.3477016,22.6317684 49.3930149,19.3596434 50.0291592,17.6781858 L56.5734091,0.454441354 L63.0265622,0.454441354 L51.5744315,29.9483478 L44.9847865,29.9483478 L33.5326558,0.454441354 Z" id="Fill-46" fill="#FFFFFF"></path>
                <path d="M81.2962948,20.2686488 L77.8879846,11.861361 C76.9788565,9.6342426 75.8427531,6.68049648 75.7973581,6.58939964 C75.751963,6.68049648 74.6158596,9.6342426 73.7070383,11.861361 L70.2987281,20.2686488 L81.2962948,20.2686488 Z M72.661725,0.454318665 L78.9329912,0.454318665 L91.748814,29.90283 L85.2953542,29.90283 L83.2958245,25.2219246 L68.3442868,25.2219246 L66.3447571,29.90283 L59.8462089,29.90283 L72.661725,0.454318665 Z" id="Fill-47" fill="#FFFFFF"></path>
                <polygon id="Fill-48" fill="#FFFFFF" points="95.1123425 0.454441354 101.474706 0.454441354 101.474706 24.4494111 118.516563 24.4494111 118.516563 29.9029527 95.1123425 29.9029527"></polygon>
                <polygon id="Fill-49" fill="#FFFFFF" points="122.8344 0.454441354 145.874847 0.454441354 145.874847 5.90767626 129.196763 5.90767626 129.196763 11.9065721 145.011727 11.9065721 145.011727 17.3147186 129.196763 17.3147186 129.196763 24.4494111 146.510991 24.4494111 146.510991 29.9029527 122.8344 29.9029527"></polygon>
                <path d="M150.465575,0.454441354 L156.555261,0.454441354 L166.689708,14.4517626 C168.325464,16.6785743 170.188809,19.8596025 170.188809,19.8596025 L170.188809,0.454441354 L176.551172,0.454441354 L176.551172,29.9029527 L170.416091,29.9029527 L160.599716,16.4509856 C158.645581,13.8156184 156.827938,10.6796786 156.827938,10.6796786 L156.827938,29.9029527 L150.465575,29.9029527 L150.465575,0.454441354 Z" id="Fill-50" fill="#FFFFFF"></path>
                <path d="M181.323603,15.1331179 C181.323603,6.77122526 187.777063,0 196.86589,0 C200.910345,0 204.546244,1.36338541 207.181918,3.72668902 L203.273648,7.99842549 C201.274119,6.27126615 199.229194,5.77161377 197.229358,5.77161377 C191.866913,5.77161377 187.958643,9.95225339 187.958643,15.1331179 C187.958643,20.4047726 191.776123,24.6314207 197.002075,24.6314207 C199.729153,24.6314207 202.228335,23.5861075 204.046285,21.5862711 L207.999949,26.0402012 C205.182388,28.7666653 201.364909,30.4027278 196.86589,30.4027278 C187.777063,30.4027278 181.323603,23.6315025 181.323603,15.1331179" id="Fill-51" fill="#FFFFFF"></path>
                <polygon id="Fill-52" fill="#FFFFFF" points="211.545794 29.90283 217.908157 29.90283 217.908157 0.454318665 211.545794 0.454318665"></polygon>
                <path d="M242.766829,20.2686488 L239.358825,11.861361 C238.449697,9.6342426 237.313594,6.68049648 237.267892,6.58939964 C237.222804,6.68049648 236.0867,9.6342426 235.177572,11.861361 L231.769262,20.2686488 L242.766829,20.2686488 Z M234.132566,0.454318665 L240.403832,0.454318665 L253.219348,29.90283 L246.766195,29.90283 L244.766665,25.2219246 L229.815128,25.2219246 L227.815598,29.90283 L221.316743,29.90283 L234.132566,0.454318665 Z" id="Fill-53" fill="#FFFFFF"></path>
                <polygon id="Fill-54" fill="#ED344F" points="25.2145019 15.3456466 0 0.787941682 0 29.902738"></polygon>
            </g>
            <g id="Logo" transform="translate(145.416663, 25.000031)">
                <polygon id="Fill-55" fill="#00AA4E" points="216.486647 124.988825 144.324145 83.3253619 144.324145 166.650141"></polygon>
                <polygon id="Fill-56" fill="#F0668C" points="144.324268 83.325454 72.1617659 41.6632177 72.1617659 124.988917"></polygon>
                <polygon id="Fill-57" fill="#ED344F" points="-2.84217094e-14 83.325454 72.1618886 124.988917 72.1618886 41.6632177"></polygon>
                <polygon id="Fill-58" fill="#F9A41A" points="72.1619193 41.6631564 3.06723376e-05 -1.42108547e-14 3.06723376e-05 83.3253926"></polygon>
                <polygon id="Fill-59" fill="#020303" points="72.1619193 124.988825 3.06723376e-05 83.3253619 3.06723376e-05 166.650141"></polygon>
                <polygon id="Fill-60" fill="#0087CE" points="72.1619193 208.313267 3.06723376e-05 166.65011 3.06723376e-05 249.97581"></polygon>
                <polygon id="Fill-61" fill="#19BDEF" points="-2.84217094e-14 166.650233 72.1618886 208.313389 72.1618886 124.988917"></polygon>
                <polygon id="Fill-62" fill="#0087CE" points="144.324268 166.650233 72.1617659 124.988917 72.1617659 208.313389"></polygon>
                <polygon id="Fill-63" fill="#8EC750" points="72.1619193 124.988825 144.324421 166.650141 144.324421 83.3253619"></polygon>
            </g>
        </g>
    </g>
</svg>
