<?xml version="1.0" encoding="UTF-8" standalone="no"?>
<!-- Generator: Deutscher Hockey-Bund e.V.  -->
<svg width="258px" height="450px" viewBox="0 0 258 450" version="1.1" xmlns="http://www.w3.org/2000/svg" xmlns:xlink="http://www.w3.org/1999/xlink">
    <defs>
        <polygon id="path-qprlkr9jss-1" points="0 450 258 450 258 0 0 0"></polygon>
    </defs>
    <g id="Events" stroke="none" stroke-width="1" fill="none" fill-rule="evenodd">
        <g id="events/olympic-qualifiers/2024/ind_ranchi" transform="translate(-121.000000, -25.000000)">
            <g id="FIH" transform="translate(227.000000, 291.666667)" fill="#FFFFFF">
                <path d="M40.5679098,0 L40.5679098,7.79153252 L32.7220038,7.79153252 L32.7220038,0 L27.7546203,0 C26.92662,4.89546127 25.064083,16.0704586 25.0124489,16.4207055 C24.9048522,17.1599448 25.5108569,17.5609298 26.2068348,17.5609298 C27.084614,17.5609298 27.9271461,16.6513334 28.694546,16.6513334 C29.7686584,16.6513334 30.4899895,17.5520122 30.4899895,18.4646836 C30.4899895,19.491439 28.7684414,21.2340633 26.9222913,21.495134 L26.9222913,21.5686275 L32.7220038,21.5686275 L32.7220038,12.4926514 L40.5679098,12.4926514 L40.5679098,21.5686275 L46,21.5686275 L46,0 L40.5679098,0 Z" id="Fill-1"></path>
                <polygon id="Fill-3" points="0 0 15 0 15 4.07911115 5.97400657 4.07911115 5.97400657 7.81821939 14.6142601 7.81821939 14.6142601 12.5200533 5.97400657 12.5200533 5.97400657 21.5686275 0 21.5686275"></polygon>
                <path d="M16,21.5686275 L16,0 L23.3582777,0 C22.2129176,4.63955343 19.8093541,14.3845247 19.6086117,15.2697593 C18.8213808,18.7571221 21.2219748,21.2893552 24,21.4962691 L24,21.5686275 L16,21.5686275 Z" id="Fill-5"></path>
            </g>
            <g id="Title" transform="translate(121.000000, 25.000000)">
                <polygon id="Fill-7" fill="#FFFFFF" points="23 296.078431 30.5402507 296.078431 30.5402507 309.475661 45.4597493 309.475661 45.4597493 296.078431 53 296.078431 53 330.392157 45.4597493 330.392157 45.4597493 315.830031 30.5402507 315.830031 30.5402507 330.392157 23 330.392157"></polygon>
                <path d="M88.1251417,313.699002 C88.1251417,307.632151 83.6486132,302.778241 77.5538473,302.778241 C71.4590814,302.778241 66.8742321,307.632151 66.8742321,313.699002 C66.8742321,319.818829 71.4049211,324.672433 77.5538473,324.672433 C83.6486132,324.672433 88.1251417,319.818829 88.1251417,313.699002 M59,313.699002 C59,303.939125 66.7130032,296.078431 77.4996869,296.078431 C88.2869968,296.078431 96,303.939125 96,313.699002 C96,323.511855 88.2869968,331.372549 77.4996869,331.372549 C66.7130032,331.372549 59,323.511855 59,313.699002" id="Fill-9" fill="#FFFFFF"></path>
                <path d="M100,313.646332 C100,303.939125 107.741083,296.078431 118.644227,296.078431 C123.49601,296.078431 127.857014,297.660982 131.018442,300.404416 L126.330251,305.363666 C123.931731,303.35853 121.479101,302.778241 119.079947,302.778241 C112.646976,302.778241 107.958785,307.632151 107.958785,313.646332 C107.958785,319.766159 112.538125,324.672433 118.807187,324.672433 C122.078415,324.672433 125.076882,323.459185 127.257068,321.137723 L132,326.307959 C128.619921,329.473366 124.040582,331.372549 118.644227,331.372549 C107.741083,331.372549 100,323.511855 100,313.646332" id="Fill-11" fill="#FFFFFF"></path>
                <path d="M136,296.078431 L143.516561,296.078431 L143.516561,315.141851 C143.731284,314.771175 145.449382,312.229303 146.68443,310.640557 L157.744704,296.078431 L166.496314,296.078431 L154.362423,311.752894 L168,330.392157 L159.194164,330.392157 L149.744782,317.206699 L143.516561,324.726274 L143.516561,330.392157 L136,330.392157 L136,296.078431 Z" id="Fill-13" fill="#FFFFFF"></path>
                <polygon id="Fill-15" fill="#FFFFFF" points="171 296.078431 198.247585 296.078431 198.247585 302.432802 178.523836 302.432802 178.523836 309.422795 197.226585 309.422795 197.226585 315.724299 178.523836 315.724299 178.523836 324.038093 199 324.038093 199 330.392157 171 330.392157"></polygon>
                <path d="M214.273691,314.876907 L201,296.078431 L209.703982,296.078431 L215.415803,304.233013 C216.884728,306.298475 218.081467,308.575402 218.081467,308.575402 C218.081467,308.575402 219.441454,306.245302 220.801441,304.233013 L226.296018,296.078431 L235,296.078431 L221.889558,314.824041 L221.889558,330.392157 L214.273691,330.392157 L214.273691,314.876907 Z" id="Fill-17" fill="#FFFFFF"></path>
                <path d="M42.1257012,359.777433 C42.1257012,353.710582 37.6488218,348.856673 31.5540043,348.856673 C25.4591869,348.856673 20.8746118,353.710582 20.8746118,359.777433 C20.8746118,365.897261 25.4053391,370.750864 31.5540043,370.750864 C37.6488218,370.750864 42.1257012,365.897261 42.1257012,359.777433 M13,359.777433 C13,350.017557 20.7127554,342.156863 31.5001565,342.156863 C42.2875576,342.156863 50,350.017557 50,359.777433 C50,369.590286 42.2875576,377.45098 31.5001565,377.45098 C20.7127554,377.45098 13,369.590286 13,359.777433" id="Fill-19" fill="#FFFFFF"></path>
                <polygon id="Fill-21" fill="#FFFFFF" points="55 342.156863 62.611433 342.156863 62.611433 370.116217 83 370.116217 83 376.470588 55 376.470588"></polygon>
                <path d="M96.2736914,360.955338 L83,342.156863 L91.7039823,342.156863 L97.4164345,350.311751 C98.885044,352.377214 100.082098,354.65414 100.082098,354.65414 C100.082098,354.65414 101.441454,352.324041 102.801757,350.311751 L108.296018,342.156863 L117,342.156863 L103.889558,360.902472 L103.889558,376.470588 L96.2736914,376.470588 L96.2736914,360.955338 Z" id="Fill-23" fill="#FFFFFF"></path>
                <path d="M120,342.156863 L126.583715,342.156863 L132.133415,349.782477 C134.201446,352.588678 138.499842,358.678411 138.499842,358.678411 C138.499842,358.678411 142.85256,352.641851 144.865953,349.835343 L150.415969,342.156863 L157,342.156863 L157,376.470588 L149.381954,376.470588 L149.381954,354.759872 C149.381954,354.759872 148.022005,356.93076 146.171579,359.525497 L138.499842,370.169083 L130.773151,359.472631 C128.977995,356.983933 127.617415,354.759872 127.617415,354.759872 L127.617415,376.470588 L120,376.470588 L120,342.156863 Z" id="Fill-25" fill="#FFFFFF"></path>
                <path d="M179.5,362.27914 C184.029717,362.27914 186.976772,359.207993 186.976772,355.395187 C186.976772,351.582687 184.029717,348.511234 179.55417,348.511234 L171.640551,348.511234 L171.640551,362.27914 L179.5,362.27914 Z M164,342.156863 L179.172444,342.156863 C189.542102,342.156863 195,348.087691 195,355.395187 C195,362.702682 189.542102,368.63351 179.117957,368.63351 L171.640551,368.63351 L171.640551,376.470588 L164,376.470588 L164,342.156863 Z" id="Fill-27" fill="#FFFFFF"></path>
                <mask id="mask-qprlkr9jss-2" fill="white">
                    <use xlink:href="#path-qprlkr9jss-1"></use>
                </mask>
                <g id="Clip-30"></g>
                <polygon id="Fill-29" fill="#FFFFFF" mask="url(#mask-qprlkr9jss-2)" points="200 376.470588 208 376.470588 208 342.156863 200 342.156863"></polygon>
                <path d="M213,359.724763 C213,350.017557 220.74093,342.156863 231.643858,342.156863 C236.495545,342.156863 240.85678,343.739413 244.018461,346.482847 L239.330364,351.442097 C236.93189,349.436962 234.478676,348.856673 232.079886,348.856673 C225.647358,348.856673 220.959261,353.710582 220.959261,359.724763 C220.959261,365.844591 225.538509,370.750864 231.807448,370.750864 C235.078294,370.750864 238.076386,369.537616 240.257162,367.216155 L245,372.386391 C241.619988,375.551798 237.040739,377.45098 231.643858,377.45098 C220.74093,377.45098 213,369.590286 213,359.724763" id="Fill-31" fill="#FFFFFF" mask="url(#mask-qprlkr9jss-2)"></path>
                <path d="M17.4881159,406.123091 L14.7546041,403.41108 L15.5450968,402.700592 L18.2455533,405.380506 C19.7276877,403.701509 20.6167165,401.473443 20.6167165,399.019454 C20.6167165,393.692034 16.4341256,389.462135 10.9998426,389.462135 C5.56587439,389.462135 1.38328349,393.692034 1.38328349,399.019454 C1.38328349,404.347182 5.56587439,408.577081 10.9998426,408.577081 C13.5359673,408.577081 15.8085944,407.64067 17.4881159,406.123091 M0,399.019454 C0,392.981546 4.80843696,388.235294 10.9998426,388.235294 C17.191563,388.235294 22,392.981546 22,399.019454 C22,401.860785 20.9460098,404.379589 19.2006926,406.28451 L21.9014639,408.932325 L21.1767669,409.707318 L18.4432552,407.027095 C16.4999213,408.770906 13.8983158,409.803922 10.9998426,409.803922 C4.80843696,409.803922 0,405.057669 0,399.019454" id="Fill-32" fill="#FFFFFF" mask="url(#mask-qprlkr9jss-2)"></path>
                <path d="M26,400.469438 L26,388.235294 L27.3003071,388.235294 L27.3003071,400.438034 C27.3003071,404.69344 29.7057974,407.63466 34.5161567,407.63466 C39.2945133,407.63466 41.6996929,404.69344 41.6996929,400.438034 L41.6996929,388.235294 L43,388.235294 L43,400.469438 C43,405.31913 40.0420733,408.823529 34.5161567,408.823529 C28.9579267,408.823529 26,405.31913 26,400.469438" id="Fill-33" fill="#FFFFFF" mask="url(#mask-qprlkr9jss-2)"></path>
                <path d="M62.8314791,403.274585 L57.2073595,392.365659 C56.3472186,390.694526 56.0164439,389.874782 56.0164439,389.874782 C56.0164439,389.874782 55.6524651,390.694526 54.7923243,392.365659 L49.2014087,403.274585 L62.8314791,403.274585 Z M55.5199655,388.235294 L56.4797183,388.235294 L67,408.823529 L65.6433808,408.823529 L63.360529,404.378226 L48.6720425,404.378226 L46.389507,408.823529 L45,408.823529 L55.5199655,388.235294 Z" id="Fill-34" fill="#FFFFFF" mask="url(#mask-qprlkr9jss-2)"></path>
                <polygon id="Fill-35" fill="#FFFFFF" mask="url(#mask-qprlkr9jss-2)" points="71 388.235294 72.2685919 388.235294 72.2685919 407.679789 86 407.679789 86 408.823529 71 408.823529"></polygon>
                <polygon id="Fill-36" fill="#FFFFFF" mask="url(#mask-qprlkr9jss-2)" points="90 408.823529 91 408.823529 91 388.235294 90 388.235294"></polygon>
                <polygon id="Fill-37" fill="#FFFFFF" mask="url(#mask-qprlkr9jss-2)" points="97 388.235294 112 388.235294 112 389.379034 98.3246186 389.379034 98.3246186 397.035959 109.582769 397.035959 109.582769 398.180003 98.3246186 398.180003 98.3246186 408.823529 97 408.823529"></polygon>
                <polygon id="Fill-38" fill="#FFFFFF" mask="url(#mask-qprlkr9jss-2)" points="115 408.823529 116 408.823529 116 388.235294 115 388.235294"></polygon>
                <polygon id="Fill-39" fill="#FFFFFF" mask="url(#mask-qprlkr9jss-2)" points="122 388.235294 137.480689 388.235294 137.480689 389.379034 123.298278 389.379034 123.298278 397.035959 136.474639 397.035959 136.474639 398.180003 123.298278 398.180003 123.298278 407.679789 138 407.679789 138 408.823529 122 408.823529"></polygon>
                <path d="M150.564322,402.246871 C154.782161,402.246871 157.647706,399.705193 157.647706,395.828745 C157.647706,391.921017 155.039755,389.379034 150.596636,389.379034 L143.287972,389.379034 L143.287972,402.246871 L150.564322,402.246871 Z M142,388.235294 L150.306727,388.235294 C156.198776,388.235294 159,391.63493 159,395.828745 C159,399.03796 156.874923,401.865726 153.687462,402.914104 L158.967685,408.823529 L157.390112,408.823529 L152.431804,403.199887 C151.884608,403.295249 150.982874,403.390611 150.210399,403.390611 L143.287972,403.390611 L143.287972,408.823529 L142,408.823529 L142,388.235294 Z" id="Fill-40" fill="#FFFFFF" mask="url(#mask-qprlkr9jss-2)"></path>
                <path d="M162,406.252411 L162.751147,405.348407 C164.458032,407.253328 167.052458,408.577081 170.431966,408.577081 C173.84541,408.577081 177.56623,407.253328 177.56623,403.895334 C177.56623,400.989188 173.981804,400.14969 170.534099,399.310192 C166.642623,398.374089 162.99,397.14694 162.99,393.627528 C162.99,390.043611 166.676884,388.235294 170.431966,388.235294 C172.684754,388.235294 175.244918,388.68745 177.463771,390.624778 L176.781147,391.593288 C174.801474,389.849785 172.377704,389.462135 170.431966,389.462135 C167.495902,389.462135 164.389508,390.818295 164.389508,393.627528 C164.389508,396.339849 167.530164,397.179347 170.841475,398.018846 C174.83541,399.019762 179,400.182097 179,403.895334 C179,408.124925 174.528033,409.803922 170.431966,409.803922 C166.574426,409.803922 163.741147,408.254245 162,406.252411" id="Fill-41" fill="#FFFFFF" mask="url(#mask-qprlkr9jss-2)"></path>
                <path d="M190,407.759693 C197.210983,402.784756 202.018719,398.028748 202.018719,394.023735 C202.018719,391.176471 199.614851,389.393042 196.691211,389.393042 C194.157866,389.393042 192.403557,390.582194 190.81195,392.334219 L190.032292,391.489311 C191.981281,389.236622 194.352547,388.235294 196.789017,388.235294 C200.881678,388.235294 203.35044,390.832227 203.35044,393.961227 C203.35044,399.092584 196.399033,404.693201 191.916388,407.697185 L204,407.697185 L204,408.823529 L190,408.823529 L190,407.759693 Z" id="Fill-42" fill="#FFFFFF" mask="url(#mask-qprlkr9jss-2)"></path>
                <path d="M221.683171,399.019608 C221.683171,393.466035 219.145919,389.430019 215.516272,389.430019 C211.854695,389.430019 209.317136,393.466035 209.317136,399.019608 C209.317136,404.573181 211.854695,408.609197 215.516272,408.609197 C219.145919,408.609197 221.683171,404.573181 221.683171,399.019608 M208,399.019608 C208,392.755558 211.115687,388.235294 215.516272,388.235294 C219.884313,388.235294 223,392.755558 223,399.019608 C223,405.283658 219.884313,409.803922 215.516272,409.803922 C211.115687,409.803922 208,405.283658 208,399.019608" id="Fill-43" fill="#FFFFFF" mask="url(#mask-qprlkr9jss-2)"></path>
                <path d="M227,407.759693 C234.210983,402.784756 239.018719,398.028748 239.018719,394.023735 C239.018719,391.176471 236.614851,389.393042 233.691211,389.393042 C231.157866,389.393042 229.403557,390.582194 227.81195,392.334219 L227.032292,391.489311 C228.981281,389.236622 231.352547,388.235294 233.789017,388.235294 C237.881678,388.235294 240.35044,390.832227 240.35044,393.961227 C240.35044,399.092584 233.399033,404.693201 228.916388,407.697185 L241,407.697185 L241,408.823529 L227,408.823529 L227,407.759693 Z" id="Fill-44" fill="#FFFFFF" mask="url(#mask-qprlkr9jss-2)"></path>
                <polygon id="Fill-45" fill="#FFFFFF" mask="url(#mask-qprlkr9jss-2)" points="252.922038 404.045031 243 404.045031 243 403.161538 252.215777 387.254902 253.243094 387.876851 244.54113 402.899681 252.922038 402.899681 252.922038 397.204527 254.142112 397.204527 254.142112 402.899681 257 402.899681 257 404.045031 254.142112 404.045031 254.142112 408.823529 252.922038 408.823529"></polygon>
            </g>
            <g id="Location" transform="translate(148.000000, 444.607843)">
                <path d="M49.1049568,17.292929 C52.9155002,17.292929 55.5645946,14.6152055 55.5645946,11.392502 C55.5645946,8.0334769 52.9155002,5.40139814 49.1513772,5.40139814 L42.5060581,5.40139814 L42.5060581,17.292929 L49.1049568,17.292929 Z M36,0 L48.9192756,0 C57.795279,0 62.4423289,5.0837229 62.4423289,11.392502 C62.4423289,15.1595728 60.4440598,18.7909348 56.7263571,20.742631 L63,29.4117647 L55.5181743,29.4117647 L50.8708107,22.5126672 C49.9878838,22.6486824 49.1977975,22.7393593 48.3148705,22.7393593 L42.5060581,22.7393593 L42.5060581,29.4117647 L36,29.4117647 L36,0 Z" id="Fill-46" fill="#FFFFFF"></path>
                <path d="M86.5157773,19.7896052 L83.0970291,11.3928083 C82.1851168,9.16846897 81.0455341,6.21840862 81,6.12742545 C80.9544659,6.21840862 79.8148832,9.16846897 78.9032785,11.3928083 L75.4845303,19.7896052 L86.5157773,19.7896052 Z M77.854764,0 L84.145236,0 L97,29.4117647 L90.5270839,29.4117647 L88.5214306,24.7367002 L73.5241035,24.7367002 L71.5184501,29.4117647 L65,29.4117647 L77.854764,0 Z" id="Fill-47" fill="#FFFFFF"></path>
                <path d="M100,0 L106.303228,0 L116.792733,13.979855 C118.485849,16.2038881 120.414533,19.3809468 120.414533,19.3809468 L120.414533,0 L127,0 L127,29.4117647 L120.649785,29.4117647 L110.489823,15.9765833 C108.466847,13.3445046 106.585467,10.2124779 106.585467,10.2124779 L106.585467,29.4117647 L100,29.4117647 L100,0 Z" id="Fill-48" fill="#FFFFFF"></path>
                <path d="M133,15.1278562 C133,6.76887092 139.531757,0 148.730856,0 C152.82438,0 156.504392,1.36291136 159.172044,3.72539327 L155.216357,7.99564446 C153.192568,6.26908566 151.122833,5.769607 149.098733,5.769607 C143.671228,5.769607 139.715541,9.94879303 139.715541,15.1278562 C139.715541,20.3976779 143.579336,24.6228565 148.868693,24.6228565 C151.628858,24.6228565 154.158361,23.5779067 155.998367,21.5787656 L160,26.0311471 C157.148255,28.7566632 153.284459,30.3921569 148.730856,30.3921569 C139.531757,30.3921569 133,23.6232859 133,15.1278562" id="Fill-49" fill="#FFFFFF"></path>
                <polygon id="Fill-50" fill="#FFFFFF" points="163 0 169.535128 0 169.535128 11.4831788 182.465187 11.4831788 182.465187 0 189 0 189 29.4117647 182.465187 29.4117647 182.465187 16.9299154 169.535128 16.9299154 169.535128 29.4117647 163 29.4117647"></polygon>
                <polygon id="Fill-51" fill="#FFFFFF" points="195 29.4117647 201 29.4117647 201 0 195 0"></polygon>
                <polygon id="Fill-52" fill="#0087CE" points="26 15.6865844 0 0.980392157 0 30.3921569"></polygon>
            </g>
            <g id="Logo" transform="translate(143.000000, 25.000000)">
                <polygon id="Fill-53" fill="#00AA4E" points="221 125.001074 147 83.3333333 147 166.666667"></polygon>
                <polygon id="Fill-54" fill="#F0668C" points="148 83.8229159 74 42.1568627 74 125.490196"></polygon>
                <polygon id="Fill-55" fill="#ED344F" points="0 83.8229159 74 125.490196 74 42.1568627"></polygon>
                <polygon id="Fill-56" fill="#F9A41A" points="74 41.6671268 0 -1.42108547e-14 0 83.3333333"></polygon>
                <polygon id="Fill-57" fill="#020303" points="74 125.001074 0 83.3333333 0 166.666667"></polygon>
                <polygon id="Fill-58" fill="#0087CE" points="74 208.33364 0 166.666667 0 250"></polygon>
                <polygon id="Fill-59" fill="#19BDEF" points="0 167.155942 74 208.823529 74 125.490196"></polygon>
                <polygon id="Fill-60" fill="#0087CE" points="148 167.155942 74 125.490196 74 208.823529"></polygon>
                <polygon id="Fill-61" fill="#8EC750" points="74 125.001074 148 166.666667 148 83.3333333"></polygon>
            </g>
        </g>
    </g>
</svg>