<?xml version="1.0" encoding="UTF-8" standalone="no"?>
<!-- Generator: Deutscher Hockey-Bund e.V.  -->
<svg width="253px" height="450px" viewBox="0 0 253 450" version="1.1" xmlns="http://www.w3.org/2000/svg" xmlns:xlink="http://www.w3.org/1999/xlink">
    <defs>
        <polygon id="path-_wbm0o7clb-1" points="0 450 252.49407 450 252.49407 0 0 0"></polygon>
    </defs>
    <g id="Events" stroke="none" stroke-width="1" fill="none" fill-rule="evenodd">
        <g id="events/olympic-qualifiers/2024/ind_ranchi-copy-2" transform="translate(-124.000000, -25.000000)">
            <g id="FIH" transform="translate(227.808288, 291.260030)" fill="#FFFFFF">
                <path d="M39.4888864,0 L39.4888864,7.77175691 L31.705474,7.77175691 L31.705474,0 L26.7776562,0 C25.956251,4.88303615 24.1085494,16.0296704 24.0573266,16.3790283 C23.9505869,17.1163913 24.5517647,17.5163586 25.242199,17.5163586 C26.1129867,17.5163586 26.9488079,16.6090708 27.7100953,16.6090708 C28.7756523,16.6090708 29.4912379,17.5074636 29.4912379,18.4178186 C29.4912379,19.4419679 27.7834022,21.1801693 25.9519569,21.4405775 L25.9519569,21.5138843 L31.705474,21.5138843 L31.705474,12.4609439 L39.4888864,12.4609439 L39.4888864,21.5138843 L44.8777094,21.5138843 L44.8777094,0 L39.4888864,0 Z" id="Fill-1"></path>
                <polygon id="Fill-3" points="0 0.00450883363 14.372444 0.00450883363 14.372444 4.06705995 5.72407165 4.06705995 5.72407165 7.79098847 14.0028423 7.79098847 14.0028423 12.4737343 5.72407165 12.4737343 5.72407165 21.4855738 0 21.4855738"></polygon>
                <path d="M15.7319953,21.4858192 L15.7319953,0.000153361688 L23.3322939,0.000153361688 C22.1492618,4.6218612 19.6666428,14.3293493 19.4592978,15.211179 C18.6461741,18.685128 21.1257259,21.2076211 23.9951231,21.4137392 L23.9951231,21.4858192 L15.7319953,21.4858192 Z" id="Fill-5"></path>
            </g>
            <g id="Title" transform="translate(124.000000, 25.000000)">
                <polygon id="Fill-7" fill="#FFFFFF" points="22.0170947 296.622117 29.4149558 296.622117 29.4149558 309.991575 44.0527155 309.991575 44.0527155 296.622117 51.4505766 296.622117 51.4505766 330.864715 44.0527155 330.864715 44.0527155 316.332774 29.4149558 316.332774 29.4149558 330.864715 22.0170947 330.864715"></polygon>
                <path d="M85.5858519,313.743477 C85.5858519,307.666673 81.2000143,302.804801 75.2287236,302.804801 C69.2574329,302.804801 64.7654691,307.666673 64.7654691,313.743477 C64.7654691,319.873344 69.2043698,324.734909 75.2287236,324.734909 C81.2000143,324.734909 85.5858519,319.873344 85.5858519,313.743477 M57.0507627,313.743477 C57.0507627,303.96759 64.6075065,296.094 75.1756605,296.094 C85.7444279,296.094 93.3011717,303.96759 93.3011717,313.743477 C93.3011717,323.572428 85.7444279,331.446017 75.1756605,331.446017 C64.6075065,331.446017 57.0507627,323.572428 57.0507627,313.743477" id="Fill-9" fill="#FFFFFF"></path>
                <path d="M97.6328726,313.69069 C97.6328726,303.967559 105.136553,296.09397 115.705321,296.09397 C120.40831,296.09397 124.635572,297.679116 127.700045,300.427051 L123.155631,305.394436 C120.830668,303.386011 118.453255,302.804771 116.127679,302.804771 C109.891992,302.804771 105.347579,307.666643 105.347579,313.69069 C105.347579,319.820557 109.78648,324.734879 115.863283,324.734879 C119.034189,324.734879 121.9407,323.519641 124.054024,321.194371 L128.651501,326.373088 C125.375082,329.543688 120.936181,331.445986 115.705321,331.445986 C105.136553,331.445986 97.6328726,323.572397 97.6328726,313.69069" id="Fill-11" fill="#FFFFFF"></path>
                <path d="M132.772606,296.622117 L140.170467,296.622117 L140.170467,315.646021 C140.381799,315.276112 142.072765,312.73951 143.28831,311.154057 L154.173922,296.622117 L162.787328,296.622117 L150.845054,312.264089 L164.267269,330.864715 L155.600493,330.864715 L146.300333,317.706588 L140.170467,325.210576 L140.170467,330.864715 L132.772606,330.864715 L132.772606,296.622117 Z" id="Fill-13" fill="#FFFFFF"></path>
                <polygon id="Fill-15" fill="#FFFFFF" points="168.176611 296.622117 194.967978 296.622117 194.967978 302.963316 175.574472 302.963316 175.574472 309.938819 193.964072 309.938819 193.964072 316.227262 175.574472 316.227262 175.574472 324.523822 195.707795 324.523822 195.707795 330.864715 168.176611 330.864715"></polygon>
                <path d="M210.34399,315.381687 L197.45026,296.622178 L205.90509,296.622178 L211.453409,304.759856 C212.880286,306.821037 214.042767,309.093244 214.042767,309.093244 C214.042767,309.093244 215.363825,306.767974 216.684883,304.759856 L222.022176,296.622178 L230.477006,296.622178 L217.741851,315.32893 L217.741851,330.864776 L210.34399,330.864776 L210.34399,315.381687 Z" id="Fill-17" fill="#FFFFFF"></path>
                <path d="M40.7765418,359.557061 C40.7765418,353.480257 36.3903975,348.618385 30.4191068,348.618385 C24.4478161,348.618385 19.956159,353.480257 19.956159,359.557061 C19.956159,365.686927 24.3950597,370.548493 30.4191068,370.548493 C36.3903975,370.548493 40.7765418,365.686927 40.7765418,359.557061 M12.2411459,359.557061 C12.2411459,349.781173 19.797583,341.907584 30.3663504,341.907584 C40.9351178,341.907584 48.4912482,349.781173 48.4912482,359.557061 C48.4912482,369.386011 40.9351178,377.2596 30.3663504,377.2596 C19.797583,377.2596 12.2411459,369.386011 12.2411459,359.557061" id="Fill-19" fill="#FFFFFF"></path>
                <polygon id="Fill-21" fill="#FFFFFF" points="54.0386165 342.435823 61.4364776 342.435823 61.4364776 370.337222 81.2529548 370.337222 81.2529548 376.678421 54.0386165 376.678421"></polygon>
                <path d="M94.1457038,361.19524 L81.2519733,342.435731 L89.7068031,342.435731 L95.2557357,350.573716 C96.6823062,352.634897 97.8450945,354.907104 97.8450945,354.907104 C97.8450945,354.907104 99.1655386,352.581834 100.486903,350.573716 L105.82389,342.435731 L114.27872,342.435731 L101.543565,361.142483 L101.543565,376.678329 L94.1457038,376.678329 L94.1457038,361.19524 Z" id="Fill-23" fill="#FFFFFF"></path>
                <path d="M118.188246,342.435823 L124.582202,342.435823 L129.971945,350.04563 C131.98037,352.846015 136.154875,358.923125 136.154875,358.923125 C136.154875,358.923125 140.382136,352.899078 142.337498,350.098387 L147.727548,342.435823 L154.12181,342.435823 L154.12181,376.678421 L146.723336,376.678421 L146.723336,355.012709 C146.723336,355.012709 145.402585,357.179096 143.605492,359.768455 L136.154875,370.389978 L128.650887,359.715698 C126.907472,357.232159 125.586107,355.012709 125.586107,355.012709 L125.586107,376.678421 L118.188246,376.678421 L118.188246,342.435823 Z" id="Fill-25" fill="#FFFFFF"></path>
                <path d="M175.891747,362.51642 C180.277585,362.51642 183.131032,359.45164 183.131032,355.646736 C183.131032,351.84214 180.277585,348.777053 175.944197,348.777053 L168.28194,348.777053 L168.28194,362.51642 L175.891747,362.51642 Z M160.884079,342.435854 L175.574595,342.435854 C185.614878,342.435854 190.899415,348.354388 190.899415,355.646736 C190.899415,362.939085 185.614878,368.857619 175.521839,368.857619 L168.28194,368.857619 L168.28194,376.678452 L160.884079,376.678452 L160.884079,342.435854 Z" id="Fill-27" fill="#FFFFFF"></path>
                <mask id="mask-_wbm0o7clb-2" fill="white">
                    <use xlink:href="#path-_wbm0o7clb-1"></use>
                </mask>
                <g id="Clip-30"></g>
                <polygon id="Fill-29" fill="#FFFFFF" mask="url(#mask-_wbm0o7clb-2)" points="196.235175 376.67839 203.633036 376.67839 203.633036 342.435793 196.235175 342.435793"></polygon>
                <path d="M209.233897,359.504274 C209.233897,349.781143 216.737578,341.907554 227.306345,341.907554 C232.009335,341.907554 236.236903,343.4927 239.301683,346.240635 L234.757269,351.20802 C232.432306,349.199595 230.05428,348.618354 227.72901,348.618354 C221.49363,348.618354 216.949217,353.480227 216.949217,359.504274 C216.949217,365.63414 221.388118,370.548462 227.464921,370.548462 C230.635521,370.548462 233.541725,369.333224 235.655662,367.007954 L240.253139,372.186672 C236.97672,375.357271 232.537819,377.25957 227.306345,377.25957 C216.737578,377.25957 209.233897,369.385981 209.233897,359.504274" id="Fill-31" fill="#FFFFFF" mask="url(#mask-_wbm0o7clb-2)"></path>
                <path d="M17.038821,405.529681 L14.3755419,402.834502 L15.1457243,402.128425 L17.7767974,404.791704 C19.2208511,403.123129 20.0870379,400.908893 20.0870379,398.470135 C20.0870379,393.175783 16.0119111,388.972139 10.7172522,388.972139 C5.42289997,388.972139 1.34777319,393.175783 1.34777319,398.470135 C1.34777319,403.764794 5.42289997,407.968438 10.7172522,407.968438 C13.1882157,407.968438 15.4024517,407.037839 17.038821,405.529681 M3.06723376e-05,398.470135 C3.06723376e-05,392.469706 4.68492352,387.752914 10.7172522,387.752914 C16.7498875,387.752914 21.4347804,392.469706 21.4347804,398.470135 C21.4347804,401.293831 20.4078705,403.797 18.7073961,405.690097 L21.338776,408.321477 L20.6326988,409.091659 L17.9694197,406.428073 C16.0760163,408.16106 13.5412543,409.187664 10.7172522,409.187664 C4.68492352,409.187664 3.06723376e-05,404.470872 3.06723376e-05,398.470135" id="Fill-32" fill="#FFFFFF" mask="url(#mask-_wbm0o7clb-2)"></path>
                <path d="M25.5410703,400.620297 L25.5410703,388.073777 L26.8247076,388.073777 L26.8247076,400.588091 C26.8247076,404.952151 29.19936,407.968469 33.9480513,407.968469 C38.6651501,407.968469 41.0394957,404.952151 41.0394957,400.588091 L41.0394957,388.073777 L42.3231331,388.073777 L42.3231331,400.620297 C42.3231331,405.593816 39.4031265,409.187694 33.9480513,409.187694 C28.4610768,409.187694 25.5410703,405.593816 25.5410703,400.620297" id="Fill-33" fill="#FFFFFF" mask="url(#mask-_wbm0o7clb-2)"></path>
                <path d="M61.8324881,403.219409 L56.3774129,392.116943 C55.5431253,390.416162 55.2222927,389.581875 55.2222927,389.581875 C55.2222927,389.581875 54.869254,390.416162 54.0349665,392.116943 L48.6120972,403.219409 L61.8324881,403.219409 Z M54.740737,387.9133 L55.6716424,387.9133 L65.8757157,408.8668 L64.5598724,408.8668 L62.3456363,404.34263 L48.0986422,404.34263 L45.8847129,408.8668 L44.5369704,408.8668 L54.740737,387.9133 Z" id="Fill-34" fill="#FFFFFF" mask="url(#mask-_wbm0o7clb-2)"></path>
                <polygon id="Fill-35" fill="#FFFFFF" mask="url(#mask-_wbm0o7clb-2)" points="69.0195076 388.073808 70.3031449 388.073808 70.3031449 407.711772 84.1974072 407.711772 84.1974072 408.866892 69.0195076 408.866892"></polygon>
                <polygon id="Fill-36" fill="#FFFFFF" mask="url(#mask-_wbm0o7clb-2)" points="88.2716138 408.866862 89.5552511 408.866862 89.5552511 388.073777 88.2716138 388.073777"></polygon>
                <polygon id="Fill-37" fill="#FFFFFF" mask="url(#mask-_wbm0o7clb-2)" points="94.9133097 388.073808 109.449237 388.073808 109.449237 389.228928 96.1969471 389.228928 96.1969471 396.962038 107.106791 396.962038 107.106791 398.117465 96.1969471 398.117465 96.1969471 408.866892 94.9133097 408.866892"></polygon>
                <polygon id="Fill-38" fill="#FFFFFF" mask="url(#mask-_wbm0o7clb-2)" points="112.882484 408.866862 114.166121 408.866862 114.166121 388.073777 112.882484 388.073777"></polygon>
                <polygon id="Fill-39" fill="#FFFFFF" mask="url(#mask-_wbm0o7clb-2)" points="119.523996 388.073808 134.830106 388.073808 134.830106 389.228928 120.807633 389.228928 120.807633 396.962038 133.835402 396.962038 133.835402 398.117465 120.807633 398.117465 120.807633 407.711772 135.343561 407.711772 135.343561 408.866892 119.523996 408.866892"></polygon>
                <path d="M147.889314,402.224706 C152.092958,402.224706 154.948859,399.657738 154.948859,395.74272 C154.948859,391.796111 152.349685,389.228836 147.92152,389.228836 L140.637453,389.228836 L140.637453,402.224706 L147.889314,402.224706 Z M139.353816,388.073716 L147.632586,388.073716 C153.504805,388.073716 156.296602,391.507177 156.296602,395.74272 C156.296602,398.983866 154.178677,401.839768 151.001943,402.898577 L156.264396,408.8668 L154.692132,408.8668 L149.750511,403.187204 C149.205157,403.283515 148.306458,403.379826 147.536582,403.379826 L140.637453,403.379826 L140.637453,408.8668 L139.353816,408.8668 L139.353816,388.073716 Z" id="Fill-40" fill="#FFFFFF" mask="url(#mask-_wbm0o7clb-2)"></path>
                <path d="M159.247832,405.658106 L159.95391,404.759713 C161.55838,406.65281 163.997137,407.968346 167.173871,407.968346 C170.382504,407.968346 173.880071,406.65281 173.880071,403.315659 C173.880071,400.427552 170.510715,399.593264 167.269876,398.758977 C163.611893,397.828685 160.178431,396.609153 160.178431,393.111586 C160.178431,389.549914 163.644099,387.752822 167.173871,387.752822 C169.291489,387.752822 171.698041,388.202172 173.78376,390.127474 L173.142095,391.089972 C171.281204,389.357292 169.002863,388.972047 167.173871,388.972047 C164.413974,388.972047 161.493968,390.31979 161.493968,393.111586 C161.493968,395.807071 164.44618,396.641359 167.558809,397.475646 C171.313103,398.47035 175.227814,399.62547 175.227814,403.315659 C175.227814,407.518996 171.02417,409.187572 167.173871,409.187572 C163.547788,409.187572 160.884508,407.647513 159.247832,405.658106" id="Fill-41" fill="#FFFFFF" mask="url(#mask-_wbm0o7clb-2)"></path>
                <path d="M186.008588,407.775939 C193.131932,402.673902 197.881237,397.796387 197.881237,393.689054 C197.881237,390.769048 195.506584,388.940056 192.618477,388.940056 C190.115921,388.940056 188.382934,390.159588 186.81067,391.956374 L186.040487,391.08988 C187.96579,388.77964 190.308237,387.75273 192.715095,387.75273 C196.758016,387.75273 199.196773,390.416009 199.196773,393.624949 C199.196773,398.887402 192.32985,404.631104 187.901685,407.711833 L199.838439,407.711833 L199.838439,408.866954 L186.008588,408.866954 L186.008588,407.775939 Z" id="Fill-42" fill="#FFFFFF" mask="url(#mask-_wbm0o7clb-2)"></path>
                <path d="M216.941027,398.470227 C216.941027,392.951047 214.406265,388.940025 210.780182,388.940025 C207.122199,388.940025 204.58713,392.951047 204.58713,398.470227 C204.58713,403.989408 207.122199,408.000429 210.780182,408.000429 C214.406265,408.000429 216.941027,403.989408 216.941027,398.470227 M203.271287,398.470227 C203.271287,392.24497 206.383915,387.752699 210.780182,387.752699 C215.143935,387.752699 218.256564,392.24497 218.256564,398.470227 C218.256564,404.695485 215.143935,409.187756 210.780182,409.187756 C206.383915,409.187756 203.271287,404.695485 203.271287,398.470227" id="Fill-43" fill="#FFFFFF" mask="url(#mask-_wbm0o7clb-2)"></path>
                <path d="M222.042389,407.775939 C229.165733,402.673902 233.915038,397.796387 233.915038,393.689054 C233.915038,390.769048 231.540385,388.940056 228.652278,388.940056 C226.149722,388.940056 224.416735,390.159588 222.844471,391.956374 L222.074288,391.08988 C223.999591,388.77964 226.342037,387.75273 228.748896,387.75273 C232.791817,387.75273 235.230574,390.416009 235.230574,393.624949 C235.230574,398.887402 228.363651,404.631104 223.935486,407.711833 L235.872239,407.711833 L235.872239,408.866954 L222.042389,408.866954 L222.042389,407.775939 Z" id="Fill-44" fill="#FFFFFF" mask="url(#mask-_wbm0o7clb-2)"></path>
                <polygon id="Fill-45" fill="#FFFFFF" mask="url(#mask-_wbm0o7clb-2)" points="248.418943 404.181907 238.503803 404.181907 238.503803 403.315721 247.713173 387.720677 248.739776 388.330443 240.043861 403.058993 248.418943 403.058993 248.418943 397.475401 249.638169 397.475401 249.638169 403.058993 252.49407 403.058993 252.49407 404.181907 249.638169 404.181907 249.638169 408.8668 248.418943 408.8668"></polygon>
            </g>
            <g id="Location" transform="translate(165.538228, 444.597334)">
                <path d="M59.4819442,15.178513 C59.4819442,9.95225339 55.7101669,5.77130705 50.5746974,5.77130705 C45.4395346,5.77130705 41.5766604,9.95225339 41.5766604,15.178513 C41.5766604,20.4501677 45.3941395,24.631114 50.5746974,24.631114 C55.7101669,24.631114 59.4819442,20.4501677 59.4819442,15.178513 M34.9416203,15.178513 C34.9416203,6.77122526 41.4401685,0 50.5293023,0 C59.6184361,0 66.1169843,6.77122526 66.1169843,15.178513 C66.1169843,23.6315025 59.6184361,30.4027278 50.5293023,30.4027278 C41.4401685,30.4027278 34.9416203,23.6315025 34.9416203,15.178513" id="Fill-46" fill="#FFFFFF"></path>
                <path d="M70.889692,0.454318665 L76.3886287,0.454318665 L81.0241391,6.99856862 C82.750685,9.40696058 86.3408821,14.6332202 86.3408821,14.6332202 C86.3408821,14.6332202 89.9764743,9.45266236 91.6579319,7.04365696 L96.2934423,0.454318665 L101.792072,0.454318665 L101.792072,29.90283 L95.4297092,29.90283 L95.4297092,11.2703051 C95.4297092,11.2703051 94.2936058,13.1336496 92.7486402,15.3604613 L86.3408821,24.4946835 L79.887729,15.3147595 C78.3881584,13.1790447 77.252055,11.2703051 77.252055,11.2703051 L77.252055,29.90283 L70.889692,29.90283 L70.889692,0.454318665 Z" id="Fill-47" fill="#FFFFFF"></path>
                <path d="M126.606883,20.2685261 L123.198573,11.8612383 C122.289751,9.63411991 121.153648,6.68037379 121.107946,6.58927695 C121.062551,6.68037379 119.926448,9.63411991 119.017626,11.8612383 L115.609316,20.2685261 L126.606883,20.2685261 Z M117.972313,0.454195976 L124.243886,0.454195976 L137.059095,29.9027073 L130.605942,29.9027073 L128.606719,25.2218019 L113.654875,25.2218019 L111.655345,29.9027073 L105.15649,29.9027073 L117.972313,0.454195976 Z" id="Fill-48" fill="#FFFFFF"></path>
                <path d="M140.4229,0.454318665 L146.512586,0.454318665 L156.647033,14.4516399 C158.282789,16.6784517 160.146133,19.8594798 160.146133,19.8594798 L160.146133,0.454318665 L166.508496,0.454318665 L166.508496,29.90283 L160.373415,29.90283 L150.55704,16.4508629 C148.602906,13.8154957 146.785263,10.6795559 146.785263,10.6795559 L146.785263,29.90283 L140.4229,29.90283 L140.4229,0.454318665 Z" id="Fill-49" fill="#FFFFFF"></path>
                <polygon id="Fill-50" fill="#00AA4E" points="25.2145019 15.3455239 0 0.787818992 0 29.9026153"></polygon>
            </g>
            <g id="Logo" transform="translate(145.826589, 25.000031)">
                <polygon id="Fill-51" fill="#00AA4E" points="216.486678 124.988825 144.324176 83.3253619 144.324176 166.650141"></polygon>
                <polygon id="Fill-52" fill="#F0668C" points="144.324299 83.325454 72.1617966 41.6632177 72.1617966 124.988917"></polygon>
                <polygon id="Fill-53" fill="#ED344F" points="0 83.325454 72.1618886 124.988917 72.1618886 41.6632177"></polygon>
                <polygon id="Fill-54" fill="#F9A41A" points="72.1619193 41.6631564 3.06723376e-05 -1.42108547e-14 3.06723376e-05 83.3253926"></polygon>
                <polygon id="Fill-55" fill="#020303" points="72.1619193 124.988825 3.06723376e-05 83.3253619 3.06723376e-05 166.650141"></polygon>
                <polygon id="Fill-56" fill="#0087CE" points="72.1619193 208.313267 3.06723376e-05 166.65011 3.06723376e-05 249.97581"></polygon>
                <polygon id="Fill-57" fill="#19BDEF" points="0 166.650233 72.1618886 208.313389 72.1618886 124.988917"></polygon>
                <polygon id="Fill-58" fill="#0087CE" points="144.324299 166.650233 72.1617966 124.988917 72.1617966 208.313389"></polygon>
                <polygon id="Fill-59" fill="#8EC750" points="72.1619193 124.988825 144.324421 166.650141 144.324421 83.3253619"></polygon>
            </g>
        </g>
    </g>
</svg>
