<?xml version="1.0" encoding="utf-8"?>
<!-- Generator: Adobe Illustrator 26.3.1, SVG Export Plug-In . SVG Version: 6.00 Build 0)  -->
<svg version="1.1" id="Layer_1" xmlns="http://www.w3.org/2000/svg" xmlns:xlink="http://www.w3.org/1999/xlink" x="0px" y="0px"
	 viewBox="0 0 612 792" style="enable-background:new 0 0 612 792;" xml:space="preserve">
<style type="text/css">
	.st0{fill:#84E772;}
</style>
<g>
	<path class="st0" d="M304,337.4c8,0,14.5-6.5,14.5-14.5s-6.5-14.5-14.5-14.5c-8,0-14.5,6.5-14.5,14.5S296.1,337.4,304,337.4
		L304,337.4z"/>
	<path class="st0" d="M306.7,381.8c8.1,0,14.7-7,14.7-15.6c0-8.6-6.6-15.6-14.7-15.6c-8.1,0-14.7,7-14.7,15.6
		C292,374.8,298.6,381.8,306.7,381.8L306.7,381.8z"/>
	<path class="st0" d="M298,427.5c8,0,14.5-6.5,14.5-14.5c0-8-6.5-14.5-14.5-14.5s-14.5,6.5-14.5,14.5C283.5,421,290,427.5,298,427.5
		L298,427.5z"/>
	<path class="st0" d="M277.5,470.9c8,0,14.5-7,14.5-15.6c0-8.6-6.5-15.6-14.5-15.6c-8,0-14.5,7-14.5,15.6
		C263,463.9,269.5,470.9,277.5,470.9L277.5,470.9z"/>
	<path class="st0" d="M289.6,294.3c8,0,14.5-6.5,14.5-14.5c0-8-6.5-14.5-14.5-14.5s-14.5,6.5-14.5,14.5
		C275.1,287.8,281.6,294.3,289.6,294.3L289.6,294.3z"/>
	<path class="st0" d="M263.5,264.3c7.7,0,14-6.2,14-13.9c0-7.7-6.3-13.9-14-13.9c-7.7,0-14,6.2-14,13.9
		C249.6,258.1,255.8,264.3,263.5,264.3L263.5,264.3z"/>
	<path class="st0" d="M227,242c7.7,2.1,15.4-1.6,17.1-8.1c1.8-6.5-3.1-13.5-10.8-15.6c-7.7-2.1-15.4,1.6-17.2,8.1
		C214.4,232.9,219.3,239.9,227,242L227,242z"/>
	<path class="st0" d="M195.2,233.7c7.9-1.4,13.4-7.6,12.3-13.8c-1.1-6.3-8.4-10.2-16.3-8.8c-7.9,1.4-13.4,7.6-12.3,13.8
		S187.3,235.1,195.2,233.7L195.2,233.7z"/>
	<path class="st0" d="M157.8,239.2c6.9-4.1,10-11.4,7.1-16.3c-2.9-4.9-10.9-5.5-17.7-1.4c-6.9,4.1-10,11.4-7.1,16.3
		C143,242.7,151,243.3,157.8,239.2L157.8,239.2z"/>
	<path class="st0" d="M134.3,495.3c-5.5-5.8-13.1-7.6-17-3.9c-3.9,3.7-2.7,11.4,2.7,17.2c5.5,5.8,13.1,7.6,17,3.9
		C141,508.8,139.8,501.1,134.3,495.3L134.3,495.3z"/>
	<path class="st0" d="M173.2,503.9c-4.7-6.5-12.7-8.7-17.8-4.9c-5.1,3.7-5.5,12-0.8,18.5c4.7,6.5,12.7,8.7,17.8,4.9
		C177.6,518.6,177.9,510.4,173.2,503.9L173.2,503.9z"/>
	<path class="st0" d="M214.8,497.9c-5-6.9-14.2-8.9-20.3-4.4c-6.2,4.5-7.1,13.8-2.1,20.7c5,6.9,14.2,8.9,20.3,4.4
		C218.9,514.1,219.8,504.8,214.8,497.9L214.8,497.9z"/>
	<path class="st0" d="M254.9,482.9c-5-6.9-14.2-8.9-20.3-4.4c-6.2,4.5-7.1,13.8-2.1,20.7c5,6.9,14.2,8.9,20.3,4.4
		C259.1,499.1,260,489.8,254.9,482.9L254.9,482.9z"/>
	<path class="st0" d="M85.2,249c4.3-5.6,7.1-10.6,6.2-11.4c-0.9-0.7-5.2,3.2-9.5,8.8c-4.3,5.6-7.1,10.6-6.2,11.4
		C76.6,258.5,80.8,254.6,85.2,249L85.2,249z"/>
	<path class="st0" d="M106.8,249.7c5.1-5.8,7.3-12.2,5.1-14.2c-2.3-2-8.2,1.1-13.3,7c-5.1,5.8-7.3,12.2-5.1,14.2
		C95.8,258.6,101.7,255.5,106.8,249.7L106.8,249.7z"/>
	<path class="st0" d="M114.4,216.8c5.1-4.9,8.4-9.7,7.4-10.8c-1-1-5.9,2.1-11,7c-5.1,4.9-8.4,9.7-7.4,10.8
		C104.4,224.9,109.3,221.7,114.4,216.8L114.4,216.8z"/>
	<path class="st0" d="M147.9,192.1c5.8-3.9,9.8-8.3,8.8-9.8c-1-1.5-6.5,0.6-12.4,4.5c-5.8,3.9-9.8,8.3-8.8,9.8
		C136.5,198.1,142,196.1,147.9,192.1L147.9,192.1z"/>
	<path class="st0" d="M134.7,219.6c6.5-4.4,10.5-9.8,9-12.1c-1.6-2.3-8.1-0.6-14.6,3.8c-6.5,4.4-10.5,9.8-9,12.1
		C121.6,225.7,128.2,224,134.7,219.6L134.7,219.6z"/>
	<path class="st0" d="M175,204.3c7.1-3.6,11.3-9.5,9.4-13.2c-1.9-3.7-9.1-3.7-16.2-0.1s-11.3,9.5-9.4,13.2
		C160.7,207.8,168,207.9,175,204.3L175,204.3z"/>
	<path class="st0" d="M216.7,200.1c7.4-2.7,12.1-8.6,10.5-13.1c-1.6-4.5-9-6-16.5-3.3c-7.4,2.7-12.1,8.6-10.5,13.1
		C201.8,201.4,209.2,202.8,216.7,200.1L216.7,200.1z"/>
	<path class="st0" d="M62.2,495c-2.5-6-5.6-10.3-6.9-9.8c-1.3,0.6-0.3,5.8,2.2,11.8c2.5,5.9,5.6,10.3,6.9,9.8
		C65.7,506.3,64.7,501,62.2,495L62.2,495z"/>
	<path class="st0" d="M79,487.7c-3.6-6.5-8.5-10.7-10.9-9.4c-2.4,1.3-1.4,7.7,2.2,14.2c3.6,6.5,8.5,10.7,10.9,9.4
		C83.6,500.6,82.6,494.2,79,487.7L79,487.7z"/>
	<path class="st0" d="M72.1,529.2c-3-5.3-5.9-9.3-6.3-9.1c-0.5,0.3,1.6,4.7,4.7,10c3,5.3,5.9,9.3,6.3,9.1
		C77.3,538.9,75.2,534.5,72.1,529.2L72.1,529.2z"/>
	<path class="st0" d="M104.2,515c-4.4-6-10.3-9.2-13.3-7c-3,2.2-1.8,8.8,2.5,14.8s10.3,9.2,13.3,7C109.7,527.7,108.6,521,104.2,515
		L104.2,515z"/>
	<path class="st0" d="M85.6,527.2c-4-6.2-8.6-10.5-10.1-9.5c-1.5,1,0.5,6.9,4.5,13.1c4,6.2,8.6,10.5,10.1,9.5
		C91.7,539.2,89.7,533.4,85.6,527.2L85.6,527.2z"/>
	<path class="st0" d="M138.4,534.3c-6.3-4.9-14-5.6-17.2-1.5c-3.2,4.1-0.7,11.4,5.6,16.3c6.3,4.9,14,5.6,17.2,1.5
		C147.2,546.5,144.7,539.2,138.4,534.3L138.4,534.3z"/>
	<path class="st0" d="M119,555c-5.4-5.5-11.4-8.4-13.5-6.3c-2.1,2,0.5,8.2,5.9,13.7c5.4,5.5,11.4,8.4,13.5,6.3
		C126.9,566.7,124.3,560.6,119,555L119,555z"/>
	<path class="st0" d="M100.5,561.7c-4.6-5.3-9.3-8.9-10.4-7.9c-1.1,0.9,1.8,6,6.4,11.4c4.6,5.3,9.3,8.9,10.4,7.9
		C108,572.1,105.1,567,100.5,561.7L100.5,561.7z"/>
	<path class="st0" d="M172.9,543.1c-6.9-2.9-13.9-1.7-15.8,2.6c-1.9,4.4,2.2,10.3,9.1,13.2c6.9,2.9,13.9,1.7,15.8-2.6
		C183.9,552,179.8,546.1,172.9,543.1L172.9,543.1z"/>
	<path class="st0" d="M214.6,539.2c-8-0.7-14.9,3.7-15.5,9.7c-0.5,6.1,5.5,11.6,13.5,12.3c8,0.7,14.9-3.7,15.5-9.7
		C228.6,545.3,222.6,539.9,214.6,539.2L214.6,539.2z"/>
	<path class="st0" d="M130,585.6c-5.6-4.3-10.9-6.7-12-5.4c-1.1,1.4,2.6,6,8.1,10.4c5.6,4.3,10.9,6.7,12,5.4
		C139.2,594.6,135.6,589.9,130,585.6L130,585.6z"/>
	<path class="st0" d="M152.3,572.4c-6.7-3.9-13.6-4.3-15.6-1c-1.9,3.3,2,9.1,8.6,13c6.7,3.9,13.6,4.3,15.6,1
		C162.9,582.1,159,576.2,152.3,572.4L152.3,572.4z"/>
	<path class="st0" d="M167.8,602c-7.2-4.2-14.3-5.5-15.7-2.9c-1.5,2.5,3.2,8,10.4,12.2c7.2,4.2,14.3,5.5,15.7,2.9
		C179.7,611.6,175,606.2,167.8,602L167.8,602z"/>
	<path class="st0" d="M194.7,580.3c-7.1-3-14.3-2.1-16,2.1c-1.8,4.1,2.6,10,9.7,13c7.1,3,14.3,2.1,16-2.1
		C206.1,589.1,201.8,583.3,194.7,580.3L194.7,580.3z"/>
	<path class="st0" d="M235.7,578.1c-7.8-0.3-14.4,3.7-14.5,8.9c-0.2,5.2,6,9.7,13.9,9.9c7.8,0.3,14.3-3.7,14.5-8.9
		C249.8,582.9,243.6,578.4,235.7,578.1L235.7,578.1z"/>
	<path class="st0" d="M247.6,609c-7.4-1.2-13.9,1.2-14.5,5.3c-0.6,4.1,4.8,8.3,12.2,9.5c7.4,1.2,13.9-1.2,14.5-5.3
		C260.4,614.4,254.9,610.2,247.6,609L247.6,609z"/>
	<path class="st0" d="M203.8,609.9c-7.6-1.3-14.3,0.4-14.9,3.8c-0.6,3.4,5.1,7.3,12.7,8.7c7.6,1.3,14.3-0.4,14.9-3.8
		C217.1,615.2,211.5,611.3,203.8,609.9L203.8,609.9z"/>
	<path class="st0" d="M203.2,629.5c-6.7-1.5-12.5-1.2-12.9,0.7c-0.4,1.9,4.6,4.8,11.3,6.3c6.7,1.5,12.5,1.2,12.9-0.7
		C215,633.9,209.9,631,203.2,629.5L203.2,629.5z"/>
	<path class="st0" d="M167.5,620.6c-5.4-2.7-10-4.3-10.4-3.5c-0.4,0.8,3.6,3.7,9,6.4c5.4,2.7,10,4.3,10.4,3.5
		C176.9,626.2,172.9,623.3,167.5,620.6L167.5,620.6z"/>
	<path class="st0" d="M239.4,647.9c-6.9-1.6-12.7-2-13-0.9c-0.3,1.1,5.1,3.3,12,4.9c6.9,1.6,12.7,2,12.9,0.9
		C251.6,651.6,246.3,649.5,239.4,647.9L239.4,647.9z"/>
	<path class="st0" d="M241.2,632.7c-6.9-1.2-12.9-0.2-13.3,2.3c-0.4,2.5,4.8,5.4,11.7,6.7c6.9,1.2,12.9,0.2,13.3-2.3
		C253.4,637,248.1,634,241.2,632.7L241.2,632.7z"/>
	<path class="st0" d="M285.4,600c-7.7,0.5-13.7,4.8-13.3,9.5c0.3,4.7,6.8,8.1,14.5,7.6c7.7-0.5,13.7-4.8,13.3-9.5
		C299.6,602.9,293.1,599.5,285.4,600L285.4,600z"/>
	<path class="st0" d="M321.3,579.8c-6.9,3.4-10.5,10.2-8.1,15.3c2.5,5.1,10.1,6.4,17,3.1s10.5-10.2,8.1-15.3
		S328.2,576.5,321.3,579.8L321.3,579.8z"/>
	<path class="st0" d="M322.6,613.9c-7.5,1.6-12.9,6.5-12,10.9c0.9,4.4,7.8,6.7,15.4,5.1c7.5-1.6,12.9-6.5,12-10.9
		C337,614.6,330.1,612.3,322.6,613.9L322.6,613.9z"/>
	<path class="st0" d="M281.7,630.5c-7.4,0.5-13.2,4-12.9,7.7c0.3,3.8,6.5,6.4,13.9,5.9c7.4-0.5,13.2-4,12.9-7.7
		C295.3,632.6,289.1,630,281.7,630.5L281.7,630.5z"/>
	<path class="st0" d="M278.4,651.8c-6.9-0.1-12.5,1.2-12.5,2.9c0,1.7,5.5,3.2,12.4,3.3c6.9,0.1,12.5-1.2,12.5-2.9
		C290.9,653.4,285.3,651.9,278.4,651.8L278.4,651.8z"/>
	<path class="st0" d="M319,640.9c-7.7,0.5-13.8,3-13.6,5.5c0.2,2.5,6.5,4.1,14.2,3.5c7.7-0.5,13.8-3,13.6-5.5
		C333,641.9,326.7,640.4,319,640.9L319,640.9z"/>
	<path class="st0" d="M314.9,654.6c-7.5,0.5-13.6,1.6-13.5,2.4c0.1,0.8,6.2,1,13.7,0.5c7.5-0.5,13.6-1.6,13.5-2.4
		C328.6,654.3,322.5,654.1,314.9,654.6L314.9,654.6z"/>
	<path class="st0" d="M358.7,593.8c-6.9,3.4-11,9.4-9.1,13.5c1.9,4.1,9.1,4.7,16,1.3c6.9-3.4,11-9.4,9.1-13.5
		C372.8,591,365.6,590.5,358.7,593.8L358.7,593.8z"/>
	<path class="st0" d="M356.3,627.4c-7.8,1.7-13.7,5.3-13.1,8.2c0.6,2.9,7.3,3.8,15.2,2.2c7.8-1.7,13.7-5.3,13.1-8.2
		C370.9,626.7,364.1,625.7,356.3,627.4L356.3,627.4z"/>
	<path class="st0" d="M357.5,647c-6.7,1.5-11.9,3.8-11.6,5c0.3,1.2,5.9,0.9,12.6-0.6c6.7-1.5,11.9-3.8,11.6-5
		C369.9,645.2,364.2,645.4,357.5,647L357.5,647z"/>
	<path class="st0" d="M389.6,628c-6.6,3.2-11.2,7.5-10.3,9.4c1,2,7.1,0.9,13.7-2.3c6.6-3.2,11.2-7.5,10.3-9.4
		C402.4,623.7,396.3,624.8,389.6,628L389.6,628z"/>
	<path class="st0" d="M391.6,604.9c-6.6,3.2-10.9,8-9.6,10.7c1.3,2.7,7.8,2.3,14.4-1c6.6-3.2,10.9-8,9.6-10.7
		C404.7,601.2,398.2,601.6,391.6,604.9L391.6,604.9z"/>
	<path class="st0" d="M424.5,605.5c-6.4,3.7-10.5,8.6-9.1,11c1.4,2.4,7.7,1.3,14-2.4c6.4-3.7,10.5-8.6,9.1-11
		C437.2,600.7,430.9,601.8,424.5,605.5L424.5,605.5z"/>
	<path class="st0" d="M254.8,529.3c-7.8,1.7-13,7.8-11.8,13.6c1.3,5.9,8.6,9.3,16.3,7.7c7.8-1.7,13-7.8,11.8-13.6
		C269.9,531.1,262.6,527.6,254.8,529.3L254.8,529.3z"/>
	<path class="st0" d="M279.1,564c-7.9,1.8-13.3,7.7-12,13.2c1.3,5.5,8.7,8.4,16.6,6.6c7.9-1.8,13.3-7.8,12-13.2
		C294.4,565.1,287,562.2,279.1,564L279.1,564z"/>
	<path class="st0" d="M286.4,504.3c-7.1,3.4-10.3,11.4-7.2,17.7c3.1,6.3,11.3,8.7,18.4,5.2c7.1-3.4,10.3-11.4,7.2-17.7
		C301.7,503.2,293.4,500.9,286.4,504.3L286.4,504.3z"/>
	<path class="st0" d="M317.1,534.4c-6.9,3.3-10.2,10.7-7.4,16.4c2.8,5.7,10.6,7.6,17.5,4.3c6.9-3.3,10.2-10.7,7.4-16.4
		C331.7,533,323.9,531,317.1,534.4L317.1,534.4z"/>
	<path class="st0" d="M358.4,549.6c-7.2,3.5-10.8,10.8-8.1,16.4c2.7,5.6,10.7,7.2,17.9,3.7s10.8-10.8,8.1-16.4
		C373.6,547.8,365.6,546.1,358.4,549.6L358.4,549.6z"/>
	<path class="st0" d="M393.3,566.5c-6.7,4.2-9.9,11.2-7.2,15.6c2.8,4.4,10.4,4.6,17.2,0.4c6.7-4.2,9.9-11.2,7.2-15.6
		C407.7,562.5,400.1,562.3,393.3,566.5L393.3,566.5z"/>
	<path class="st0" d="M455,576.4c-6,5.8-9,12.4-6.7,14.8c2.3,2.4,9-0.4,15-6.2c6-5.8,9-12.4,6.7-14.8
		C467.7,567.9,461,570.7,455,576.4L455,576.4z"/>
	<path class="st0" d="M421.3,533.1c-5.2,6.2-6.1,13.9-2.1,17.3c4,3.4,11.5,1.1,16.7-5c5.2-6.2,6.1-13.9,2.1-17.3
		C434,524.7,426.5,526.9,421.3,533.1L421.3,533.1z"/>
	<path class="st0" d="M425.8,575.1c-5.9,4.8-8.5,11.3-5.8,14.5s9.6,2.1,15.4-2.7c5.9-4.7,8.5-11.3,5.8-14.5
		C438.5,569.1,431.6,570.3,425.8,575.1L425.8,575.1z"/>
	<path class="st0" d="M316.1,489.6c7,2,14.5-2.4,16.7-9.9c2.3-7.5-1.5-15.1-8.5-17.1c-7-2-14.5,2.4-16.7,9.9
		C305.3,479.9,309.1,487.6,316.1,489.6L316.1,489.6z"/>
	<path class="st0" d="M345,520.8c5.5,3.1,13.1,0.3,17.2-6.4c4-6.7,2.9-14.7-2.6-17.8c-5.5-3.1-13.1-0.3-17.2,6.4
		C338.3,509.6,339.5,517.6,345,520.8L345,520.8z"/>
	<path class="st0" d="M387.2,536.3c5.8,3.3,13.7,0.6,17.8-6.1c4-6.7,2.6-14.8-3.2-18.2c-5.8-3.3-13.7-0.6-17.8,6.1
		C380,524.8,381.4,532.9,387.2,536.3L387.2,536.3z"/>
	<path class="st0" d="M450.5,542.2c-4.7,6.5-5.3,14.2-1.2,17.1c4,2.9,11.1,0,15.9-6.5c4.7-6.5,5.3-14.2,1.2-17.1
		C462.3,532.8,455.2,535.7,450.5,542.2L450.5,542.2z"/>
	<path class="st0" d="M480.1,543c-4.1,6.6-4.3,13.8-0.5,16.2c3.8,2.4,10.2-1,14.3-7.6c4.1-6.6,4.3-13.8,0.5-16.2
		C490.7,533,484.2,536.4,480.1,543L480.1,543z"/>
	<path class="st0" d="M513.8,531.2c-3.9,6.2-5.9,11.9-4.5,12.8c1.4,0.9,5.6-3.5,9.5-9.7c3.9-6.2,5.9-11.9,4.5-12.8
		C521.9,520.7,517.7,525,513.8,531.2L513.8,531.2z"/>
	<path class="st0" d="M485.7,573.4c-4.7,5.6-7.9,10.6-7.2,11.2c0.7,0.6,5.1-3.4,9.8-9c4.7-5.6,7.9-10.6,7.2-11.2
		C494.8,563.7,490.4,567.8,485.7,573.4L485.7,573.4z"/>
	<path class="st0" d="M534.2,493.2c-2.2,6.4-2.9,11.9-1.5,12.4c1.3,0.5,4.2-4.3,6.4-10.7c2.2-6.4,2.9-11.9,1.5-12.4
		C539.3,482,536.4,486.8,534.2,493.2L534.2,493.2z"/>
	<path class="st0" d="M501.8,502.9c-2.8,7.2-2.2,14.2,1.3,15.5c3.5,1.3,8.6-3.4,11.4-10.6c2.8-7.2,2.2-14.2-1.3-15.5
		C509.7,490.9,504.6,495.7,501.8,502.9L501.8,502.9z"/>
	<path class="st0" d="M474.2,503.8c-4.1,6.6-4.5,13.7-0.9,15.9c3.6,2.2,9.8-1.3,13.9-7.8c4.1-6.6,4.5-13.7,0.9-15.9
		C484.6,493.8,478.3,497.3,474.2,503.8L474.2,503.8z"/>
	<path class="st0" d="M547.5,448.5c-1.2,6.8-1,12.5,0.4,12.7c1.4,0.2,3.5-5,4.7-11.8c1.2-6.8,1-12.5-0.4-12.7
		C550.8,436.4,548.7,441.7,547.5,448.5L547.5,448.5z"/>
	<path class="st0" d="M553.1,406.1c-0.4,6.9,0.3,12.5,1.4,12.5c1.1,0.1,2.3-5.5,2.7-12.3c0.4-6.9-0.3-12.5-1.4-12.5
		C554.6,393.7,553.4,399.3,553.1,406.1L553.1,406.1z"/>
	<path class="st0" d="M552.1,362.6c0.8,6.8,2.4,12.2,3.6,12.1c1.1-0.1,1.4-5.8,0.5-12.6c-0.8-6.8-2.4-12.2-3.6-12.1
		C551.5,350.1,551.3,355.7,552.1,362.6L552.1,362.6z"/>
	<path class="st0" d="M542.5,320.2c2,6.6,4.4,11.7,5.3,11.4c0.9-0.3,0-5.8-2-12.4s-4.4-11.7-5.3-11.4
		C539.6,308.1,540.5,313.7,542.5,320.2L542.5,320.2z"/>
	<path class="st0" d="M343.6,445.3c7.3,0.6,13.8-5.3,14.5-13.3c0.7-8-4.7-14.9-12-15.6s-13.8,5.3-14.5,13.3
		C331,437.7,336.3,444.6,343.6,445.3L343.6,445.3z"/>
	<path class="st0" d="M374.3,477.7c6.2,2.3,13.5-2,16.2-9.5c2.7-7.5-0.1-15.4-6.3-17.7c-6.2-2.3-13.5,2-16.2,9.5
		C365.3,467.5,368.1,475.5,374.3,477.7L374.3,477.7z"/>
	<path class="st0" d="M416.8,491.4c6.2,2.3,13.5-2,16.2-9.5c2.7-7.5-0.1-15.4-6.3-17.7c-6.2-2.3-13.5,2-16.2,9.5
		C407.7,481.3,410.6,489.2,416.8,491.4L416.8,491.4z"/>
	<path class="st0" d="M447,509.1c5.4,2.7,12.7-0.8,16.3-7.9c3.6-7.1,2.2-15.1-3.1-17.8c-5.4-2.7-12.7,0.8-16.3,7.9
		C440.2,498.4,441.6,506.4,447,509.1L447,509.1z"/>
	<path class="st0" d="M490.5,465.3c-2.5,7.3-1.3,14.4,2.7,15.7c4,1.4,9.3-3.4,11.8-10.8c2.5-7.3,1.3-14.4-2.7-15.7
		C498.3,453.2,493,458,490.5,465.3L490.5,465.3z"/>
	<path class="st0" d="M519.4,460c-1.9,7.5-0.5,14.3,3.1,15.2c3.6,0.9,8-4.5,9.9-12c1.9-7.5,0.5-14.3-3.1-15.2
		C525.6,447.1,521.2,452.5,519.4,460L519.4,460z"/>
	<path class="st0" d="M462.2,449.8c-1.9,7.5,0.5,14.6,5.4,15.8c4.8,1.2,10.3-3.9,12.2-11.4c1.9-7.5-0.5-14.6-5.4-15.8
		C469.5,437.1,464.1,442.2,462.2,449.8L462.2,449.8z"/>
	<path class="st0" d="M354.1,398.6c7.1,0,12.9-6.5,12.9-14.5c0-8-5.8-14.5-12.9-14.5s-12.9,6.5-12.9,14.5
		C341.2,392.1,347,398.6,354.1,398.6L354.1,398.6z"/>
	<path class="st0" d="M396.8,427.4c7.1,0.9,13.6-4.9,14.6-12.8c1-7.9-4-15.1-11-15.9c-7.1-0.9-13.6,4.9-14.6,12.8
		C384.8,419.4,389.8,426.5,396.8,427.4L396.8,427.4z"/>
	<path class="st0" d="M437.7,444.1c6.4,0.8,12.4-5,13.4-12.9c1-7.9-3.4-15-9.9-15.8c-6.4-0.8-12.4,5-13.4,12.9
		C426.9,436.3,431.3,443.4,437.7,444.1L437.7,444.1z"/>
	<path class="st0" d="M506.8,438.8c5,1,10.3-4.6,11.8-12.4c1.5-7.8-1.3-15-6.3-16c-5-1-10.3,4.6-11.8,12.4
		C498.9,430.7,501.7,437.8,506.8,438.8L506.8,438.8z"/>
	<path class="st0" d="M533.7,431.9c3.5,0.3,7-5.7,7.7-13.5c0.7-7.8-1.6-14.3-5.2-14.6c-3.5-0.3-7,5.7-7.7,13.5
		C527.8,425,530.1,431.6,533.7,431.9L533.7,431.9z"/>
	<path class="st0" d="M538.1,384.1c3.5-0.4,5.8-7,4.9-14.7c-0.8-7.8-4.4-13.8-7.9-13.4c-3.5,0.4-5.8,7-4.9,14.7
		C531,378.5,534.6,384.5,538.1,384.1L538.1,384.1z"/>
	<path class="st0" d="M534.2,336.9c3.4-1,4.3-7.9,2-15.4c-2.3-7.5-6.9-12.7-10.3-11.6c-3.4,1-4.3,7.9-2,15.4
		C526.2,332.7,530.8,337.9,534.2,336.9L534.2,336.9z"/>
	<path class="st0" d="M359.4,350.4c7.5-1.1,12.6-8.3,11.5-16.2c-1.1-7.9-8.1-13.5-15.5-12.4c-7.5,1-12.6,8.3-11.5,16.2
		C344.9,345.9,351.9,351.5,359.4,350.4L359.4,350.4z"/>
	<path class="st0" d="M406.1,375.7c7.5-1,12.6-8.3,11.5-16.2c-1.1-7.9-8.1-13.5-15.5-12.4s-12.6,8.3-11.5,16.2
		C391.6,371.2,398.6,376.8,406.1,375.7L406.1,375.7z"/>
	<path class="st0" d="M445.9,394.1c6.5,0.1,12-6.3,12.1-14.3c0.1-8-5.1-14.6-11.6-14.7c-6.6-0.1-12,6.3-12.1,14.3
		C434.1,387.4,439.3,394,445.9,394.1L445.9,394.1z"/>
	<path class="st0" d="M481,417.9c6.1,0.4,11.4-5.7,12-13.7c0.6-8-3.9-14.8-10-15.2c-6.1-0.4-11.4,5.7-12,13.7
		C470.5,410.6,475,417.4,481,417.9L481,417.9z"/>
	<path class="st0" d="M448.1,346.8c6.5-1,10.7-8.3,9.5-16.1c-1.2-7.9-7.5-13.5-14-12.4s-10.7,8.3-9.5,16.1
		C435.4,342.2,441.7,347.8,448.1,346.8L448.1,346.8z"/>
	<path class="st0" d="M486.9,369.7c6-1.1,9.7-8.3,8.3-16.2c-1.4-7.9-7.4-13.4-13.3-12.3c-6,1.1-9.7,8.3-8.3,16.2
		C475,365.2,481,370.7,486.9,369.7L486.9,369.7z"/>
	<path class="st0" d="M515.2,390.7c4.9-0.5,8.2-7.4,7.3-15.3c-0.8-7.9-5.5-14-10.3-13.5c-4.9,0.5-8.2,7.4-7.3,15.3
		C505.7,385.2,510.3,391.2,515.2,390.7L515.2,390.7z"/>
	<path class="st0" d="M514.5,346.6c4.8-1.2,7-8.4,5.1-16.2c-1.9-7.8-7.4-13.1-12.1-11.9c-4.8,1.2-7,8.4-5.1,16.2
		C504.3,342.4,509.7,347.8,514.5,346.6L514.5,346.6z"/>
	<path class="st0" d="M402,321.7c7.5-1.5,12.3-9.1,10.7-17.1c-1.6-8-8.9-13.3-16.3-11.9c-7.5,1.5-12.3,9.1-10.7,17.1
		C387.2,317.8,394.6,323.1,402,321.7L402,321.7z"/>
	<path class="st0" d="M482.8,317.3c5.2-1.9,7.3-9.4,4.7-16.6c-2.7-7.3-9.1-11.6-14.3-9.7c-5.2,1.9-7.3,9.4-4.7,16.6
		C471.2,314.9,477.6,319.2,482.8,317.3L482.8,317.3z"/>
	<path class="st0" d="M506.8,302.7c4.4-2.1,5.4-9.5,2.1-16.5c-3.3-7-9.5-11-14-9c-4.4,2.1-5.4,9.5-2.1,16.5
		C496.1,300.8,502.3,304.8,506.8,302.7L506.8,302.7z"/>
	<path class="st0" d="M524.1,294.1c2.5-1.3,1.7-7.8-1.8-14.7c-3.5-6.8-8.3-11.3-10.8-10c-2.5,1.3-1.7,7.8,1.8,14.7
		C516.7,290.9,521.6,295.4,524.1,294.1L524.1,294.1z"/>
	<path class="st0" d="M508,255.4c1.8-1.5-0.8-7.5-5.7-13.3c-4.9-5.9-10.4-9.4-12.1-7.9c-1.8,1.5,0.8,7.5,5.7,13.3
		C500.8,253.4,506.3,256.9,508,255.4L508,255.4z"/>
	<path class="st0" d="M483.3,219.4c1.2-1.4-2.4-6.6-8.1-11.7c-5.7-5.1-11.3-8.2-12.5-6.8c-1.2,1.3,2.4,6.6,8.1,11.7
		C476.5,217.7,482.1,220.8,483.3,219.4L483.3,219.4z"/>
	<path class="st0" d="M168.5,171.2c5.7-3.1,9.9-6.3,9.5-7c-0.4-0.7-5.3,1.2-11,4.4c-5.7,3.1-9.9,6.3-9.5,7S162.9,174.3,168.5,171.2
		L168.5,171.2z"/>
	<path class="st0" d="M203.2,158.7c6.8-2.5,11.8-5.6,11.3-7c-0.5-1.4-6.4-0.5-13.1,1.9c-6.8,2.5-11.8,5.6-11.3,7
		C190.5,162.1,196.4,161.2,203.2,158.7L203.2,158.7z"/>
	<path class="st0" d="M184.9,177.9c6.5-3.1,11-7.2,10.1-9c-0.9-1.8-6.8-0.7-13.3,2.4c-6.5,3.1-11,7.2-10.1,9
		C172.5,182.2,178.5,181.1,184.9,177.9L184.9,177.9z"/>
	<path class="st0" d="M225.9,170.1c7.5-1.3,13.2-4.6,12.7-7.3c-0.5-2.7-6.9-3.8-14.4-2.5c-7.5,1.3-13.2,4.6-12.7,7.3
		C212,170.3,218.4,171.4,225.9,170.1L225.9,170.1z"/>
	<path class="st0" d="M243.5,151.6c7.5-1.3,13.3-4.2,12.9-6.5c-0.4-2.2-6.8-3-14.3-1.7c-7.5,1.3-13.3,4.2-12.9,6.5
		C229.5,152.2,236,152.9,243.5,151.6L243.5,151.6z"/>
	<path class="st0" d="M257.4,208c7.9-0.8,13.8-5.7,13.3-10.9c-0.5-5.2-7.4-8.7-15.2-7.9c-7.9,0.8-13.8,5.7-13.3,10.9
		C242.7,205.3,249.5,208.8,257.4,208L257.4,208z"/>
	<path class="st0" d="M292.3,223.7c7.9,0.1,14.4-4,14.5-9.3c0.1-5.3-6.3-9.7-14.2-9.8c-7.9-0.1-14.4,4-14.5,9.3
		C278.1,219.2,284.4,223.6,292.3,223.7L292.3,223.7z"/>
	<path class="st0" d="M324,257.9c7.9,0.1,14.4-4.6,14.5-10.6c0.1-6-6.2-10.9-14.1-11.1s-14.4,4.6-14.5,10.6
		C309.7,252.8,316,257.8,324,257.9L324,257.9z"/>
	<path class="st0" d="M347.6,300c7.7,0.1,14.1-5.3,14.2-12.2c0.1-6.9-6.1-12.5-13.8-12.7c-7.7-0.1-14.1,5.3-14.2,12.2
		C333.6,294.1,339.8,299.8,347.6,300L347.6,300z"/>
	<path class="st0" d="M261.3,175.7c7.9,0.1,14.4-3.3,14.5-7.6c0.1-4.3-6.3-7.9-14.2-8.1c-7.9-0.1-14.4,3.3-14.5,7.6
		C247,171.9,253.4,175.6,261.3,175.7L261.3,175.7z"/>
	<path class="st0" d="M301.8,188.5c7.8,1.5,14.9-1.4,15.9-6.5c1-5.1-4.5-10.5-12.3-12c-7.8-1.5-14.9,1.4-15.9,6.5
		C288.5,181.6,294,187,301.8,188.5L301.8,188.5z"/>
	<path class="st0" d="M333.2,210.1c7.3,2.8,14.8,0.8,16.8-4.4c2-5.2-2.3-11.7-9.5-14.5c-7.3-2.8-14.8-0.8-16.8,4.4
		C321.7,200.8,325.9,207.3,333.2,210.1L333.2,210.1z"/>
	<path class="st0" d="M357.8,238.2c6.4,4.5,14.2,4.4,17.4-0.2c3.2-4.6,0.6-11.9-5.7-16.4c-6.4-4.5-14.2-4.4-17.4,0.2
		C348.8,226.4,351.4,233.7,357.8,238.2L357.8,238.2z"/>
	<path class="st0" d="M375.9,272.4c4.7,6.2,12.4,8.3,17.3,4.6c4.9-3.7,5-11.7,0.3-17.9c-4.7-6.2-12.4-8.3-17.3-4.6
		C371.3,258.2,371.2,266.2,375.9,272.4L375.9,272.4z"/>
	<path class="st0" d="M430.2,292.8c4.7,6.2,12.1,8.5,16.6,5.2c4.5-3.4,4.3-11.1-0.4-17.4c-4.7-6.2-12.1-8.5-16.6-5.2
		C425.3,278.8,425.5,286.6,430.2,292.8L430.2,292.8z"/>
	<path class="st0" d="M410.1,251.8c5.1,5.9,12.7,7.7,16.9,4c4.2-3.7,3.5-11.4-1.6-17.3c-5.1-5.9-12.7-7.7-16.9-4
		C404.2,238.1,405,245.9,410.1,251.8L410.1,251.8z"/>
	<path class="st0" d="M385,214.2c5.6,5.4,13.1,6.8,16.7,3c3.6-3.8,2-11.2-3.6-16.6c-5.6-5.4-13.1-6.8-16.7-3
		C377.8,201.4,379.4,208.8,385,214.2L385,214.2z"/>
	<path class="st0" d="M353.3,188.4c6.7,3.4,14.2,2.3,16.6-2.5c2.5-4.8-1-11.5-7.8-14.9c-6.7-3.4-14.2-2.3-16.6,2.5
		C343.1,178.3,346.5,184.9,353.3,188.4L353.3,188.4z"/>
	<path class="st0" d="M323.2,165.9c7.4,1,13.8-1.2,14.4-5c0.5-3.8-5-7.7-12.4-8.8c-7.4-1-13.8,1.2-14.4,5
		C310.2,160.9,315.8,164.8,323.2,165.9L323.2,165.9z"/>
	<path class="st0" d="M284.6,155.1c7.5-0.4,13.4-3.2,13.2-6.3c-0.2-3.1-6.3-5.3-13.8-4.9c-7.5,0.4-13.4,3.2-13.2,6.3
		C270.9,153.3,277.1,155.5,284.6,155.1L284.6,155.1z"/>
	<path class="st0" d="M276.6,140.1c7.2-0.6,12.9-2,12.9-3c-0.1-1-6-1.4-13.2-0.7c-7.2,0.6-12.9,2-12.9,3
		C263.5,140.4,269.4,140.7,276.6,140.1L276.6,140.1z"/>
	<path class="st0" d="M356.7,146.4c7,1.7,12.9,2.3,13.1,1.3c0.3-1-5.2-3.3-12.2-5c-7-1.7-12.9-2.3-13.1-1.3
		C344.2,142.4,349.7,144.6,356.7,146.4L356.7,146.4z"/>
	<path class="st0" d="M445.1,186.5c5.9,4.1,11.2,6.8,11.9,5.8c0.6-0.9-3.6-5-9.5-9.2c-5.9-4.1-11.2-6.8-11.9-5.8
		C434.9,178.3,439.1,182.4,445.1,186.5L445.1,186.5z"/>
	<path class="st0" d="M414,165.4c6.1,3.1,11.3,5,11.7,4.3c0.4-0.7-4.2-3.9-10.3-7c-6.1-3.1-11.3-5-11.7-4.3
		C403.3,159.2,407.9,162.3,414,165.4L414,165.4z"/>
	<path class="st0" d="M408.3,166.6c0.8-1.6-3.9-5.6-10.5-8.8c-6.6-3.2-12.6-4.5-13.4-2.9c-0.8,1.6,3.9,5.6,10.5,8.8
		C401.5,166.9,407.5,168.2,408.3,166.6L408.3,166.6z"/>
	<path class="st0" d="M396,174.6c1-2.1-3.5-6.4-10.1-9.6c-6.6-3.2-12.8-4.1-13.8-2c-1,2.1,3.5,6.4,10.1,9.6
		C388.8,175.8,395,176.7,396,174.6L396,174.6z"/>
	<path class="st0" d="M363.9,156.6c0.7-2.2-4.2-5.7-11-7.9c-6.8-2.2-12.9-2.2-13.6-0.1c-0.7,2.2,4.2,5.7,11,7.9
		C357.1,158.7,363.2,158.8,363.9,156.6L363.9,156.6z"/>
	<path class="st0" d="M326.6,142.2c0.1-1.8-5.8-3.5-13.2-3.7c-7.3-0.3-13.3,1-13.4,2.8c-0.1,1.8,5.8,3.5,13.2,3.7
		C320.6,145.3,326.6,144.1,326.6,142.2L326.6,142.2z"/>
	<path class="st0" d="M440.8,190.8c1.3-1.9-2.6-6.8-8.6-10.9c-6.1-4.1-12.1-5.9-13.4-3.9c-1.3,1.9,2.6,6.8,8.6,10.9
		C433.5,191,439.4,192.8,440.8,190.8L440.8,190.8z"/>
	<path class="st0" d="M469.3,223.1c1.9-2.1-1-7.7-6.5-12.7c-5.4-4.9-11.4-7.2-13.3-5.1c-1.9,2.1,1,7.7,6.5,12.7
		C461.5,222.9,467.5,225.2,469.3,223.1L469.3,223.1z"/>
	<path class="st0" d="M491.7,258.5c2.4-1.7,0.6-8.3-3.9-14.5c-4.6-6.3-10.2-10-12.6-8.2c-2.4,1.7-0.6,8.3,3.9,14.5
		C483.7,256.5,489.3,260.2,491.7,258.5L491.7,258.5z"/>
	<path class="st0" d="M468.6,271.3c3.6-2.6,2.8-9.8-1.8-16.1c-4.6-6.3-11.2-9.3-14.7-6.7c-3.6,2.6-2.8,9.8,1.8,16.1
		C458.5,270.9,465.1,273.9,468.6,271.3L468.6,271.3z"/>
	<path class="st0" d="M449.3,234.4c3.1-2.7,1.8-9.4-3-15c-4.8-5.5-11.3-7.8-14.4-5.1c-3.1,2.7-1.8,9.4,3,15S446.2,237.2,449.3,234.4
		L449.3,234.4z"/>
	<path class="st0" d="M426.6,201.5c2.3-3.1-0.8-9.2-6.9-13.6c-6-4.4-12.8-5.4-15-2.3c-2.3,3.1,0.8,9.2,6.9,13.6
		C417.6,203.5,424.3,204.6,426.6,201.5L426.6,201.5z"/>
	<path class="st0" d="M450.9,606.1c-5.3,4.3-9.1,8.3-8.6,9c0.6,0.7,5.3-2.2,10.6-6.5c5.3-4.3,9.1-8.3,8.6-9
		C461,598.9,456.2,601.8,450.9,606.1L450.9,606.1z"/>
	<path class="st0" d="M414.1,629.9c-5.9,3.4-10.3,6.8-9.9,7.5c0.4,0.8,5.6-1.4,11.5-4.8c5.9-3.4,10.3-6.8,9.9-7.5
		C425.2,624.3,420,626.5,414.1,629.9L414.1,629.9z"/>
	<path class="st0" d="M103.9,473.9c-4.7-6.5-11.4-9.6-15-7c-3.6,2.6-2.7,10,2,16.4c4.7,6.5,11.4,9.6,15,7
		C109.4,487.7,108.5,480.4,103.9,473.9L103.9,473.9z"/>
	<path d="M146.9,347.7H99.5v-50.8c0-7.4-2.3-9.9-9.6-9.9h-26c-7.4,0-9.9,2.5-9.9,9.9v143.9c0,7.1,2.5,9.7,9.9,9.7h26
		c7.4,0,9.6-2.5,9.6-9.7v-52.9h46L146.9,347.7L146.9,347.7z"/>
	<path d="M243.9,394.3c-2.6-2.6-5.5-4.4-9.5-5.1c-3.3-0.5-6.7-0.3-9.8,0.9c-3,1.1-5.8,3.4-8.1,5.6c-2.3,2.1-4.4,4.3-6.6,6.5
		c-1.1,1.1-2.2,2.5-3.6,3.3c-1.5,0.9-3.5,1.7-5.3,1.3c-1.5-0.3-3-1.5-4.1-2.5c-2.5-2.3-3.7-5.3-4.3-8.6l0,0
		c-1-5.4-1.2-10.9-1.5-16.4c0-0.5-0.1-1-0.1-1.6l-0.6-25.1l-0.3-25.4c0,0-0.2-25-0.2-30.3c0-10.4-5.4-10.4-9.9-10.4
		c-3.7,0-21.6,0-26.1,0c-4.5,0-9.6,0-9.6,10.4c0,6.4,0,89.1,0,89.1l0,0c0,3.7,0.2,7.5,0.5,11.2c0.6,6.7,1.8,13.2,3.7,19.6
		c1.1,3.8,2.5,7.6,4.1,11.3c1.4,3.2,3,6.5,5.1,9.3c1.6,2.1,3.5,4,5.3,5.9c2,2.1,4.1,4.1,6.5,5.8c5.5,4,11.7,6.4,18.3,8
		c1.6,0.4,3.3,0.8,5,1c5.6,0.8,11.4,0.4,17-0.7c3.2-0.6,6.2-1.9,9.3-3c2.9-1.1,5.4-2.5,8-4.2c4.9-3.3,9.9-7.1,13.7-11.7
		c3.7-4.4,6.6-9.5,8.5-14.9c0.7-2,1.3-4.1,1.5-6.3l0,0c0.2-1.7,0.1-3.4,0.2-5.1c0-1.9,0-3.7-0.3-5.5c-0.6-3.2-1.5-6.1-3.5-8.8
		C246,396.6,245,395.4,243.9,394.3L243.9,394.3z"/>
</g>
</svg>
