<?xml version="1.0" encoding="UTF-8" standalone="no"?>
<!DOCTYPE svg PUBLIC "-//W3C//DTD SVG 1.1//EN" "http://www.w3.org/Graphics/SVG/1.1/DTD/svg11.dtd">
<svg width="472px" height="562px" viewBox="0 0 472 562" version="1.1" xmlns="http://www.w3.org/2000/svg" xmlns:xlink="http://www.w3.org/1999/xlink">
    <g id="Symbols" stroke="none" stroke-width="1" fill="none" fill-rule="evenodd">
        <g id="Artboard">
            <rect id="Background" fill="#FFFFFF" x="0" y="0" width="472" height="562"></rect>
            <path d="M0,562 L472,562 L472,396.74395 L0,396.74395 L0,562 Z M0,165.25605 L472,165.25605 L472,-6.96331881e-13 L0,-6.96331881e-13 L0,165.25605 Z" id="Blue-Frame" fill="#202866"></path>
            <path d="M432,280.49306 L432,280.1137 C432,242.450613 402.264851,212 360.851008,212 C319.437164,212 289.346155,242.829973 289.346155,280.49306 L289.346155,280.872421 C289.346155,318.530882 319.058196,349 360.47204,349 C401.885883,349 432,318.151521 432,280.49306 L432,280.49306 Z M401.127946,280.853916 C401.127946,302.810556 384.628959,320.719144 360.851008,320.719144 C337.077678,320.719144 320.213587,302.449701 320.213587,280.49306 L320.213587,280.127579 C320.213587,258.189444 336.69871,240.262351 360.47204,240.262351 C384.249991,240.262351 401.127946,258.550299 401.127946,280.49306 L401.127946,280.853916 Z M279.594653,258.351366 L279.594653,257.972006 C279.594653,245.485496 275.462974,235.076217 267.786555,227.70182 C258.709801,218.995036 245.113157,214.276162 227.583561,214.276162 L164.52693,214.276162 L164.52693,346.723838 L194.872125,346.723838 L194.872125,304.346503 L218.7194,304.346503 L248.274308,346.723838 L283.74944,346.723838 L250.044367,299.410191 C267.587828,293.178503 279.594653,279.729713 279.594653,258.351366 L279.594653,258.351366 Z M248.87049,259.873434 C248.87049,271.041435 240.385296,278.610137 225.614775,278.610137 L194.872125,278.610137 L194.872125,240.572316 L225.023214,240.572316 C239.789114,240.572316 248.87049,247.002938 248.87049,259.494074 L248.87049,259.873434 Z M151.165985,260.433222 L151.165985,260.053861 C151.165985,232.998987 131.270148,214.257657 98.3599844,214.257657 L42,214.257657 L42,346.723838 L72.3451953,346.723838 L72.3451953,306.983521 L95.4021828,306.983521 C126.325074,306.983521 151.165985,291.101273 151.165985,260.433222 L151.165985,260.433222 Z M120.423335,261.011515 C120.423335,272.359943 111.559174,281.071354 96.3958193,281.071354 L72.3451953,281.071354 L72.3451953,240.572316 L95.7996374,240.572316 C110.962992,240.572316 120.423335,247.562726 120.423335,260.632155 L120.423335,261.011515 Z" id="Pro" fill="#D20819"></path>
            <path d="M42,510.824687 L91.2682175,510.824687 L91.2682175,497.104992 L57.0947466,497.104992 L57.0947466,442.193822 L42,442.193822 L42,510.824687 Z M100.673548,510.824687 L152.867355,510.824687 L152.867355,497.39188 L115.657372,497.39188 L115.657372,482.968848 L147.977507,482.968848 L147.977507,469.540667 L115.657372,469.540667 L115.657372,455.622002 L152.382067,455.622002 L152.382067,442.193822 L100.673548,442.193822 L100.673548,510.824687 Z M159.439532,510.824687 L174.802342,510.824687 L181.069481,495.425313 L210.061932,495.425313 L216.329071,510.824687 L232.107842,510.824687 L202.713295,441.703337 L188.815591,441.703337 L159.439532,510.824687 Z M186.467725,482.103558 L195.581883,459.832769 L204.682175,482.103558 L186.467725,482.103558 Z M267.852719,512 C280.400863,512 290.097366,507.099778 297.15483,501.116788 L297.15483,471.312891 L267.367432,471.312891 L267.367432,484.343131 L282.549992,484.343131 L282.549992,494.157456 C278.723155,496.906022 273.847173,498.280305 268.342628,498.280305 C256.210445,498.280305 247.576953,489.062891 247.576953,476.5 L247.576953,476.30103 C247.576953,464.640446 256.298259,454.937174 267.274996,454.937174 C275.201356,454.937174 279.915575,457.482143 285.202896,461.89188 L294.700662,450.416384 C287.550763,444.345477 280.095825,441 267.764905,441 C246.99923,441 231.816669,456.996285 231.816669,476.5 L231.816669,476.69897 C231.816669,496.993939 246.513942,512 267.852719,512 L267.852719,512 Z M337.489139,511.907456 C355.902326,511.907456 367.563087,501.713699 367.563087,480.909737 L367.563087,442.193822 L352.472963,442.193822 L352.472963,481.506648 C352.472963,492.385232 346.894469,497.970282 337.701741,497.970282 C328.47666,497.970282 322.898167,492.186262 322.898167,481.016163 L322.898167,442.193822 L307.826529,442.193822 L307.826529,481.414103 C307.826529,501.602646 319.089817,511.907456 337.489139,511.907456 L337.489139,511.907456 Z M379.806193,510.824687 L432,510.824687 L432,497.39188 L394.790017,497.39188 L394.790017,482.968848 L427.124018,482.968848 L427.124018,469.540667 L394.790017,469.540667 L394.790017,455.622002 L431.528578,455.622002 L431.528578,442.193822 L379.806193,442.193822 L379.806193,510.824687 Z" id="League" fill="#FFFFFF"></path>
            <path d="M242.590595,127.857222 L242.590595,127.567061 C230.45136,126.687367 219.934993,116.015892 223.392808,101.31901 C224.273398,97.6298208 234.757492,56.5559267 239.801291,37.0184229 L207.59751,37 L207.59751,127.875645 L242.590595,127.857222 Z M141,127.857222 L165.260028,127.857222 L165.260028,89.749418 L200.303827,89.7678409 L200.285385,69.977022 L165.260028,69.958599 L165.260028,54.1977933 L201.852928,54.2162162 L201.852928,37 L141.036883,37.0184229 L141,127.857222 Z M331,37.0184229 L331,128 L308.183034,127.981577 L308.164592,89.7125721 L275.223144,89.6987549 L275.223144,127.981577 L250.875519,128 L250.89396,127.696022 C258.621024,126.57683 265.859382,119.239903 265.859382,114.901306 C265.859382,111.050916 262.834947,107.237372 258.312125,107.255795 C255.089442,107.255795 251.557861,111.087762 247.887967,111.087762 C244.95113,111.087762 242.392347,109.397459 242.862609,106.283986 C243.060858,104.79173 250.89396,57.6520903 254.388658,37 L275.223144,37.0184229 L275.223144,69.8895131 L308.183034,69.8895131 L308.183034,37 L331,37.0184229 Z" id="FIH" fill="#FFFFFF"></path>
        </g>
    </g>
</svg>