
<svg width="503px" height="450px" viewBox="0 0 503 450" version="1.1" xmlns="http://www.w3.org/2000/svg" xmlns:xlink="http://www.w3.org/1999/xlink">
    <g id="Symbols" stroke="none" stroke-width="1" fill="none" fill-rule="evenodd">
        <g id="Artboard" transform="translate(0.000000, -27.000000)" fill-rule="nonzero">
            <g id="Group" transform="translate(251.500000, 252.000000) scale(-1, 1) rotate(-180.000000) translate(-251.500000, -252.000000) translate(0.000000, 27.000000)">
                <path d="M458.502468,449.371482 C454.792744,448.01072 454.421771,447.639603 447.249638,438.794649 C444.22003,435.08348 441.561394,431.867133 441.375908,431.681575 C441.190422,431.496016 440.077505,430.135254 438.902759,428.588933 C437.728013,427.042613 436.615095,425.681851 436.429609,425.496292 C436.244123,425.310734 435.007548,423.826266 433.647316,422.094387 C432.348913,420.424361 431.050509,418.87804 430.865023,418.692481 C430.679537,418.506923 429.56662,417.146161 428.391874,415.59984 C427.217128,414.05352 425.795067,412.383493 425.238608,411.888671 C424.743978,411.393848 424.002033,410.527909 423.69289,409.971233 C423.383746,409.414558 422.332658,407.93009 421.281569,406.631181 C415.34601,399.208842 412.749204,395.930642 411.512629,394.56988 C410.770684,393.70394 408.915822,391.29168 407.370104,389.31239 C405.824385,387.271247 403.474893,384.178605 402.114661,382.508579 C400.754429,380.7767 398.837738,378.302587 397.78665,377.003678 C396.79739,375.704768 395.684473,374.282153 395.3135,373.911037 C395.004356,373.53992 393.953268,372.24101 393.087666,371.065807 C392.160235,369.890603 390.92366,368.282429 390.305373,367.602048 C389.625256,366.859815 387.461251,364.076437 385.420902,361.478619 C383.380554,358.818947 381.15472,356.097423 380.474604,355.355189 C379.794488,354.612955 378.496084,353.066635 377.692311,351.891431 C376.826708,350.716227 375.713791,349.169907 375.095504,348.489526 C374.539045,347.809145 372.375039,345.149473 370.272862,342.613507 C368.170685,340.077541 365.697536,336.9849 364.708276,335.809697 C363.719016,334.634493 359.761977,329.74812 355.928596,324.985452 C352.095214,320.222785 348.632805,315.893087 348.200004,315.398264 C347.767203,314.903442 345.417711,311.996359 343.00639,308.903718 C340.53324,305.872929 338.369235,303.213258 338.183749,303.0277 C337.936434,302.842141 337.070831,301.72879 336.205229,300.553587 C335.277798,299.378383 334.041223,297.770209 333.422936,297.027976 C332.74282,296.285742 331.815389,295.172391 331.320759,294.553863 C330.826129,293.935334 327.920178,290.347871 324.828742,286.636701 C321.799134,282.863679 319.140498,279.709185 318.955012,279.523626 C318.769526,279.338068 318.151238,278.657687 317.656608,277.915453 C317.161978,277.235072 315.678089,275.317634 314.317857,273.647608 C312.957624,272.039434 310.23716,268.699382 308.196812,266.287122 C306.218292,263.874862 303.992458,261.21519 303.250513,260.349251 C302.570397,259.483311 299.47896,255.772142 296.387523,251.999119 C293.357915,248.28795 290.69928,245.071603 290.513793,244.886044 C290.328307,244.700486 288.968075,243.03046 287.422357,241.174875 C285.876638,239.31929 284.145434,237.216294 283.588975,236.535913 C283.032516,235.855532 280.868511,233.195861 278.704505,230.659895 C276.602328,228.123929 273.820035,224.783876 272.521631,223.237556 C271.223228,221.691235 268.440935,218.351183 266.338758,215.815217 C262.567205,211.299961 257.43542,205.176531 256.198845,203.815769 C255.827873,203.444652 254.343983,201.589067 252.798265,199.733483 C251.252546,197.877898 249.892314,196.207872 249.706828,196.022313 C249.521342,195.836755 247.975623,194.043023 246.306248,192.001879 C244.575043,189.960736 242.78201,187.85774 242.28738,187.362918 C241.730921,186.868095 240.123374,184.888805 238.577656,183.03322 C237.031937,181.177635 235.671705,179.507609 235.486219,179.32205 C235.300733,179.136492 233.755014,177.34276 232.085638,175.301617 C230.354434,173.260474 228.5614,171.157478 228.066771,170.662655 C227.510312,170.167832 225.902765,168.188542 224.357046,166.332957 C222.811328,164.477373 221.451096,162.807346 221.26561,162.621788 C221.080123,162.436229 219.534405,160.642497 217.865029,158.601354 C216.133825,156.560211 214.649935,154.766479 214.464449,154.580921 C214.278963,154.395362 212.91873,152.725336 211.373012,150.869751 C209.827294,149.014166 208.467061,147.34414 208.281575,147.158582 C208.096089,146.973023 206.303056,144.93188 204.262707,142.51962 C202.222359,140.169212 200.429326,138.066216 200.24384,137.880658 C200.058353,137.695099 198.883607,136.272484 197.585204,134.664311 C196.286801,133.056138 194.926568,131.386111 194.493767,130.953142 C194.060966,130.520172 192.948049,129.15941 191.958789,127.984206 C191.031358,126.809002 189.176496,124.706006 187.939921,123.345244 C186.703347,121.984482 184.168368,119.015546 182.313506,116.850698 C180.458644,114.623996 178.294638,112.149883 177.552694,111.283943 C176.810749,110.418004 175.697832,109.180947 175.079544,108.438713 C173.595655,106.706834 165.681576,97.9237333 163.764886,95.8207372 C156.283609,87.7180172 149.482448,80.4193839 147.689414,78.5019463 C146.514668,77.2648899 142.186657,72.6877808 138.10596,68.2962303 C122.154147,51.2248507 105.584045,35.0194107 97.6699674,28.6485697 C96.8661938,28.0300415 95.9387628,27.1641019 95.5059616,26.792985 C93.774757,25.1848116 84.9950766,19.5562045 81.161695,17.5769141 C77.3901421,15.6594766 76.3390536,15.4120653 72.1346996,15.4120653 C66.9410858,15.4120653 61.2528421,16.6491218 58.717864,18.319148 C56.2447146,19.9273215 53.338764,23.0818155 51.6693881,26.0507511 C49.0107525,30.5660073 48.0833215,34.2153239 45.610172,48.1940623 C44.682741,53.6371109 42.6423927,68.6673472 42.2095916,73.5537204 C42.0241054,75.4093051 41.653133,77.5123012 41.3439893,78.1926822 C41.0348456,78.8730633 40.6638732,80.5430896 40.478387,81.9038517 C39.8600996,86.7902248 39.3654698,89.0169265 38.8090111,89.3880435 C38.4998675,89.5736019 38.2525525,90.3158358 38.2525525,91.1199226 C38.2525525,91.8621565 38.0052376,92.728096 37.7579226,93.0373601 C37.5106077,93.4084771 36.8923203,94.7692392 36.4595192,96.1300013 C34.1100272,103.057518 30.5239606,103.861604 25.7631479,98.6041143 C23.413656,96.0062957 16.6124951,87.2850474 16.6124951,86.8520777 C16.6124951,86.6046664 15.8087215,85.305757 14.8812905,83.8831421 C13.9538595,82.4605271 12.7791135,80.4812367 12.2844836,79.4297387 C11.7898537,78.4400935 11.2333951,77.4504483 10.9860802,77.2648899 C10.8005939,77.0793314 9.5021905,74.6052184 8.14195832,71.6981356 C5.35966522,65.945823 2.8865158,58.9564538 1.8354273,54.0700806 C0.660681322,48.2559151 -0.204920975,42.5654553 0.0423939669,42.318044 C0.166051438,42.1943383 1.09348247,45.1632739 2.0209135,48.9362962 C3.01017327,52.7711713 4.37040545,57.2864275 4.98869281,58.9564538 C6.34892499,62.420212 9.93499165,69.9662566 10.4296215,70.4610791 C10.6151077,70.6466376 11.4188813,72.0073998 12.2226549,73.5537204 C14.0775169,76.9556257 20.136733,86.4191079 21.1259928,87.4706059 C21.5587939,87.9035757 23.5373135,90.5013943 25.5776617,93.2229186 C27.61801,96.0062957 29.967502,98.6041143 30.7712755,99.0370841 C32.0078502,99.7174652 32.3169939,99.6556123 33.3062537,98.4804087 C34.2336847,97.2433522 36.8923203,88.4602511 37.9434088,82.8316441 C38.37621,80.6049424 39.1181548,74.2959543 40.1074146,64.2757967 C40.9111881,55.9256654 41.7767904,49.1218547 42.580564,44.792157 C42.9515364,42.7510137 43.3843376,39.843931 43.5698238,38.2976104 C43.75531,36.7512898 44.1881111,35.266822 44.4972548,34.895705 C44.8063985,34.5864409 45.0537134,33.7205014 45.0537134,32.9164146 C45.0537134,32.1123279 46.0429732,29.3908036 47.2177192,26.9166906 C50.1854985,20.6077025 55.5027697,15.6594766 61.4383283,13.6183334 C66.2609697,11.9483071 76.4627111,11.4534845 79.1213467,12.690541 C84.8095904,15.3502125 87.1590823,16.5872689 89.8795467,18.1954424 C93.4656133,20.3602912 100.885062,25.37037 101.317863,25.9270455 C101.503349,26.1126039 102.616266,26.9785435 103.791012,27.7826302 C104.965758,28.5867169 106.078675,29.4526565 106.264162,29.6382149 C106.449648,29.8237734 107.562565,30.7515658 108.737311,31.741211 C113.003494,35.2049691 123.45255,44.7303041 132.541374,53.4515524 C133.592463,54.5030504 138.353275,58.9564538 143.052259,63.3480043 C154.366918,73.9248373 196.348629,115.922905 204.262707,124.520448 C207.663288,128.231617 211.682156,132.561315 213.227874,134.169488 C214.773592,135.777662 219.101604,140.354771 222.811328,144.375205 C226.582881,148.395638 230.478091,152.539777 231.467351,153.653128 C232.51844,154.704626 237.650225,160.147675 242.905667,165.714429 C248.16111,171.281183 253.725696,177.157202 255.271414,178.703522 C256.817133,180.249843 260.217713,183.899159 262.876349,186.868095 C265.534984,189.837031 268.997393,193.5482 270.604941,195.218226 C272.212488,196.888253 276.045869,201.032392 279.075477,204.434297 C282.166914,207.77435 285.32018,211.238108 286.185782,212.104047 C287.051384,212.969987 288.844418,214.887425 290.142821,216.433745 C291.503053,217.980066 294.532661,221.320118 296.943982,223.917937 C299.355303,226.453903 302.199424,229.546544 303.188684,230.7836 C304.239773,231.958804 307.578524,235.669974 310.608132,239.071879 C318.274896,247.42201 322.231935,251.813561 327.301891,257.504021 C331.506245,262.266688 332.186361,263.008922 335.463284,266.843797 C336.390715,267.895295 338.369235,270.121997 339.914953,271.792023 C343.253705,275.503193 345.665026,278.224717 351.105954,284.471852 C353.331789,287.007818 355.433966,289.420078 355.743109,289.791195 C356.114082,290.162312 357.783458,292.07975 359.452834,294.05904 C361.184038,296.03833 363.224386,298.388738 364.089989,299.31653 C364.955591,300.244322 368.727144,304.57402 372.436868,308.903718 C376.208421,313.295268 380.103631,317.686819 381.092891,318.738317 C382.143979,319.789815 383.627869,321.521694 384.369814,322.511339 C385.173588,323.562837 386.719306,325.356569 387.770394,326.531773 C388.883312,327.768829 391.294632,330.552206 393.149494,332.717055 C395.004356,334.943757 396.673732,336.861195 396.859219,337.046753 C397.044705,337.232312 398.528594,339.026043 400.259799,341.067187 C401.929175,343.10833 403.474893,344.902062 403.660379,345.08762 C403.845866,345.273179 405.206098,346.943205 406.751816,348.79879 C409.657767,352.324401 410.585198,353.437752 414.604066,358.076713 C415.902469,359.623034 418.251961,362.406411 419.735851,364.261996 C421.281569,366.117581 422.641801,367.787607 422.827287,367.973165 C423.012774,368.158724 424.991293,370.509131 427.155299,373.230655 C429.319305,375.95218 431.297824,378.302587 431.48331,378.488146 C431.730625,378.673704 433.770974,381.147817 436.182294,384.0549 C438.531786,386.961982 440.695792,389.621654 441.066764,389.992771 C442.365168,391.477239 446.322207,396.301759 450.031931,400.755162 C452.134108,403.291128 454.607258,406.383769 455.596517,407.558973 C456.585777,408.734177 458.131495,410.713467 459.120755,411.888671 C460.048186,413.063874 460.975617,414.177225 461.161103,414.362784 C461.34659,414.548342 462.583164,416.094663 463.943397,417.764689 C465.303629,419.496568 466.72569,421.228447 467.158491,421.661417 C467.653121,422.15624 468.766038,423.517002 469.693469,424.754058 C470.6209,426.052968 471.857475,427.599288 472.413933,428.217816 C474.083309,430.073401 476,434.588657 476,436.753506 C476,441.454321 472.846734,446.4644 468.395066,448.752954 C465.860087,450.113716 461.222932,450.422981 458.502468,449.371482 Z" id="Red" fill="#EF4000"></path>
                <path d="M398.726749,421.775334 C397.242709,421.031516 395.325823,419.605865 394.460132,418.490138 C393.532607,417.436396 391.306546,414.895017 389.513331,412.849518 C386.854425,409.750276 381.907623,404.04767 371.704844,392.084597 C370.962823,391.216809 367.623732,387.187794 364.222806,383.096795 C360.821879,379.005796 357.915633,375.534645 357.730128,375.34869 C357.482788,375.162736 351.670296,368.220434 344.682938,359.914465 C337.757416,351.546512 329.595192,341.814892 326.565276,338.219771 C305.479533,313.053927 285.692325,288.75587 273.572661,273.073706 C269.986229,268.486828 265.595943,262.784222 263.740892,260.366814 C258.732255,253.920391 225.650517,209.601231 221.383901,203.588701 C216.869944,197.266248 162.022278,124.062153 155.28226,115.322291 C154.478405,114.330533 151.572159,110.549458 148.789583,106.954337 C143.22443,99.7021112 138.586804,93.8135515 136.608083,91.4581276 C122.880708,75.1561149 121.149327,73.2345849 112.554259,64.2467833 C99.7544087,50.9200429 96.9099976,48.6266039 88.7477745,45.5273619 C87.511074,45.0314832 84.3574878,44.721559 81.3275716,44.7835438 C76.8136149,44.7835438 75.4532443,45.093468 71.7431429,46.7670587 C69.393412,47.8827858 66.6108359,49.4943916 65.6833106,50.4241642 C61.725869,54.2052394 58.8814579,60.2797536 56.9645722,69.0196159 C56.469892,71.3130549 55.7278717,74.2263424 55.3568616,75.528024 C55.0476865,76.7677207 54.4293362,78.8752053 54.1201611,80.1768869 C53.749151,81.4165837 53.1308007,84.4538408 52.8216256,86.8092647 C50.5337297,102.553414 50.5337297,102.553414 48.678679,106.210519 C47.7511536,108.070064 45.7105979,110.983352 44.1647223,112.718927 L41.3203112,115.942139 L36.7445194,115.942139 C28.7678013,115.880154 21.9041137,111.479231 15.6587763,102.367459 C13.3090453,98.9582931 9.41343884,91.0862186 7.12554296,84.9497195 C6.81636784,84.2678863 6.1980176,82.7182653 5.70333741,81.5405534 C5.14682219,80.3628414 4.28113186,78.1313872 3.72461665,76.5817662 C3.16810143,75.0321453 2.42608114,73.2345849 2.17874105,72.5527517 C0.385525357,68.0898433 -0.789340097,56.1267694 0.632865452,56.1267694 C1.06571062,56.1267694 1.56039081,57.1185268 1.74589588,58.4202084 C3.10626641,67.5939646 3.41544153,68.3997675 9.0424287,80.8587201 C10.0317891,83.0281895 11.4539946,86.2514011 12.1960149,87.9869766 C12.9380352,89.7225521 14.1129007,92.1399608 14.7312509,93.3176728 C15.4114362,94.4953847 16.5244666,96.5408844 17.2664869,97.842566 C18.4413523,100.07402 21.7804436,104.350974 25.6142151,108.503958 C27.2219257,110.177549 28.087616,110.735413 32.3542327,112.718927 C33.158088,113.090836 35.1368088,113.400761 36.8063544,113.400761 C39.4652604,113.400761 40.2072807,113.090836 41.9386614,111.417246 C43.6700421,109.743655 45.6487628,106.396474 47.3801435,102.305474 C47.6274836,101.623641 47.9984937,99.5161566 48.1839988,97.6566115 C48.678679,91.3961427 49.7298744,83.7100227 50.3482246,81.2306292 C50.7192348,79.8669627 51.213915,77.6355085 51.5849251,76.271842 C51.8941002,74.9081756 52.3269454,73.2345849 52.4506155,72.5527517 C52.6361205,71.8709185 53.1308007,69.6394643 53.5018109,67.5939646 C55.6042017,57.3664662 59.6234782,50.0522552 65.3123004,46.2091951 C67.2910212,44.8455287 69.2697419,43.7298016 69.7025871,43.7298016 C70.1972673,43.7298016 70.8156175,43.4818622 71.1247927,43.171938 C72.4233282,42.0562109 78.1739854,40.9404838 82.5642721,41 C92.2105358,41.0644535 99.3833986,44.8455287 111.503063,56.3747087 C129.002375,73.0486304 142.049565,87.2431585 161.156587,110.363503 C167.030915,117.553745 172.039552,123.504289 172.225057,123.690244 C172.410562,123.876198 173.770932,125.549789 175.316808,127.409334 C176.862683,129.268879 178.223054,130.94247 178.408559,131.128425 C178.594064,131.314379 180.078105,133.111939 181.809485,135.157439 C183.479031,137.202939 185.024907,139.000499 185.210412,139.186454 C185.395917,139.372408 186.756287,141.045999 188.302163,142.905544 C189.848038,144.765089 191.208409,146.43868 191.393914,146.624634 C191.764924,146.996543 198.257602,154.806633 208.089371,166.769707 C212.294152,171.914449 215.942419,176.191402 216.127924,176.377357 C216.313429,176.563311 224.104642,186.170962 233.44173,197.762126 C242.778819,209.353291 250.508197,218.960941 250.755537,219.146896 C250.941042,219.33285 253.599948,222.556062 256.629864,226.275152 C259.721615,230.056228 262.627862,233.651348 263.246212,234.333181 C263.802727,235.015015 268.193014,240.345711 273.016146,246.110301 C277.839277,251.936876 282.971584,258.073375 284.455625,259.746965 C285.877831,261.482541 289.093252,265.201631 291.566653,268.114919 C298.121165,275.801039 297.93566,275.615084 307.272749,286.400446 C312.034046,291.855112 317.166353,297.743672 318.712228,299.417262 C320.319939,301.152838 322.546,303.694216 323.720865,304.995898 C324.895731,306.359564 329.224182,311.194382 333.305294,315.78126 C344.744773,328.612121 351.979471,336.79412 356.431593,341.876877 C358.657654,344.418255 361.749405,347.889406 363.29528,349.624982 C364.841156,351.298573 367.932907,354.831708 370.097133,357.373087 C372.323194,359.914465 374.24008,362.145919 374.425585,362.331874 C374.61109,362.517828 376.651646,364.873252 379.063212,367.600585 C381.412942,370.327918 383.515333,372.683342 383.700838,372.869296 C383.886343,373.055251 386.668919,376.216478 389.884341,379.997553 C393.099762,383.716643 396.748028,387.931612 397.984729,389.295279 C399.221429,390.658945 401.07648,392.76643 402.004005,393.944142 C402.993366,395.121854 404.910251,397.353308 406.332457,398.902929 C413.196145,406.403094 414,407.766761 414,411.919745 C414,416.568608 411.835774,419.915789 407.507322,421.899304 C404.291901,423.38694 401.94217,423.38694 398.726749,421.775334 Z" id="Black" fill="#000000"></path>
                <path d="M423.116072,268.563636 C421.15666,266.09899 419.442175,263.942424 419.197249,263.757576 C419.013554,263.572727 417.666459,261.785859 416.135669,259.752525 C414.66611,257.719192 411.726994,253.960606 409.706351,251.434343 C406.338612,247.244444 400.582842,239.480808 397.031409,234.305051 C391.826723,226.787879 387.111889,220.934343 382.94814,216.806061 C378.784391,212.616162 378.35577,212 379.641634,212 C382.397056,212 390.785785,220.194949 399.848063,231.717172 C402.909643,235.59899 408.420487,242.315152 412.155615,246.566667 C420.972966,256.733333 429.729085,267.392929 430.586327,268.933333 C431.688496,270.781818 430.463864,273 428.381989,273 C427.034894,273 425.993957,272.137374 423.116072,268.563636 Z" id="T-dash" fill="#000000"></path>
                <path d="M402.240928,228.311343 C404.864369,219.43026 408.112438,213.676318 414.733502,205.921006 C415.920296,204.482521 417.481868,202.606236 418.16896,201.668093 C419.418217,199.916893 421.22964,199.479093 421.916732,200.667407 C422.478898,201.480464 420.167772,204.920321 415.795371,209.798662 C411.298044,214.864632 407.987512,219.805517 405.301609,225.496915 C404.177277,227.936086 402.865557,230 402.428317,230 C401.928614,230 401.866151,229.499657 402.240928,228.311343 Z" id="T-I" fill="#000000"></path>
                <path d="M371,206.184656 C371,205.314801 372.144894,201.400451 372.867985,199.971402 C373.169273,199.350077 373.410303,198.293824 373.410303,197.672498 C373.410303,196.98904 373.711591,196.24345 374.012879,196.057052 C374.374424,195.870655 374.615454,195.125064 374.615454,194.441606 C374.615454,193.820281 374.856485,192.764028 375.157773,192.142702 C375.45906,191.583509 377.20653,187.855557 379.014257,183.941207 C382.328424,176.671699 384.196409,174 385.823363,174 C387.450318,174 387.39006,175.801844 385.642591,178.473543 C383.41306,181.8287 378.170651,192.453365 376.423182,196.98904 C373.591076,204.507078 371,208.918488 371,206.184656 Z" id="I" fill="#000000"></path>
                <path d="M354.949382,191.56399 C354.155808,190.75794 354.522073,187.595744 355.804,184.681563 C357.757412,180.155282 358.062633,179.47324 358.734119,177.117093 C359.03934,175.93902 359.710825,173.706882 360.138134,172.156786 C360.565443,170.606689 360.931708,166.886459 360.870664,163.786266 C360.870664,159.197981 360.626487,157.771893 359.466649,155.725766 C357.391148,151.943531 356.048176,151.075477 352.446572,151.075477 C349.33332,151.137481 343.961436,152.25355 343.167862,153.121604 C342.923685,153.36962 342.069067,153.555631 341.336537,153.555631 C340.542963,153.555631 339.74939,153.86565 339.566257,154.17567 C339.383125,154.547693 338.589551,154.795708 337.795977,154.795708 C337.063447,154.795708 336.208829,155.043724 335.903608,155.353743 C334.987946,156.159793 330.531724,156.717827 329.616061,156.159793 C329.188752,155.849774 328.761443,154.733704 328.761443,153.679639 C328.700399,152.56357 328.456223,151.695516 328.151002,151.695516 C327.906825,151.695516 327.662649,152.005535 327.662649,152.315554 C327.662649,153.183608 325.03775,157.275862 324.488353,157.275862 C324.183132,157.275862 324,156.903839 324,156.407808 C324,155.601758 326.075501,149.8354 327.113251,147.851277 C327.418472,147.231239 327.662649,146.363185 327.662649,145.867154 C327.662649,144.627077 329.982326,140.286808 332.057827,137.806654 C333.889152,135.574515 335.598388,135.388504 335.598388,137.372627 C335.598388,138.736711 333.583931,146.735208 332.302004,150.455439 C331.813651,151.943531 331.50843,153.307616 331.630518,153.493627 C331.996783,153.803647 336.147785,152.501566 339.566257,151.013473 C343.045773,149.463377 347.685128,148.161296 350.981512,147.665266 C358.673075,146.6112 363.434518,151.323493 364.777489,161.492124 C365.693151,168.188539 363.739739,177.985147 359.710825,186.72769 C358.978295,188.463798 358.184721,190.323913 357.940545,190.943952 C357.635324,191.998017 355.742956,192.37004 354.949382,191.56399 Z" id="N" fill="#000000"></path>
                <path d="M297.47373,131.204719 C296.856933,130.397492 296.363495,127.603244 295.438299,118.599557 C294.204704,107.298377 292.230953,97.3011797 290.380561,92.8303833 C288.900247,89.3530973 287.851692,88.7942477 284.891064,89.7256636 C279.093169,91.6505898 273.850392,101.275221 273.850392,110.092625 C273.850392,113.073156 273.665353,113.942477 272.925196,113.942477 C272.185039,113.942477 272,112.948967 272,108.478171 C272,95.9971974 278.846451,86 287.358254,86 C289.393685,86 290.072162,86.310472 291.305757,88.049115 C293.711266,91.2159291 295.808377,96.4939525 296.980292,102.455014 C297.165332,103.510619 297.59709,105.559734 297.967168,107.112094 C298.275567,108.664454 298.830684,111.707079 299.139083,113.942477 C299.509161,116.177875 300.002599,119.096312 300.249318,120.462389 L300.681076,122.88407 L302.778187,119.655161 C306.91073,113.13525 312.893664,109.285398 316.841167,110.58938 C321.528827,112.14174 324.304415,114.68761 328.683676,121.269616 C331.459264,125.42994 331.705983,127.168583 329.608872,127.479055 C328.621996,127.603244 327.6968,126.733922 325.599689,123.442919 C321.837225,117.668141 319.678435,115.308554 317.087886,114.190855 C315.052455,113.321533 314.744056,113.383628 312.153507,114.68761 C308.946161,116.364159 304.011782,122.32522 302.469789,126.361356 C300.557717,131.577285 298.954044,133.129645 297.47373,131.204719 Z" id="U" fill="#000000"></path>
                <path d="M251.437092,69.5541796 C251.061994,69.3065015 249.624119,67.6965944 248.186243,65.9628483 C245.810623,63.1145511 245.435525,62 246.748368,62 C247.686113,62 253,67.9442724 253,68.996904 C253,70.1114551 252.437353,70.2972136 251.437092,69.5541796 Z" id="Dash" fill="#000000"></path>
                <path d="M221.586439,68.9592846 C219.47218,68.5873725 211.947907,62.4508212 208.838703,58.5457432 C207.221917,56.5002261 205.853867,54.5786798 205.853867,54.3307383 C205.791683,54.0208115 205.294211,53.0290456 204.610186,52.1612505 C203.553057,50.6116163 202.495927,48.8760261 199.697644,43.8552115 C198.205226,41.06587 196.774992,37.1607919 195.220391,31.4581383 C191.924635,18.9370944 195.406943,10.8789968 204.423634,10.073187 C209.70928,9.5773041 213.751245,11.5608358 219.347812,17.2634895 C224.073802,22.1603334 225.441851,24.2058505 224.882195,25.6934992 C224.011618,27.862987 222.457016,27.4910748 219.596548,24.3918066 C213.129404,17.3254748 211.699171,16.0857675 209.149623,15.0940017 C206.102604,13.9162797 202.558111,14.2262065 200.816957,15.7758407 C199.573276,16.8915773 198.329594,20.73467 198.329594,23.4620261 C198.329594,25.3835724 198.951435,28.7307822 200.319485,33.7515968 C201.31443,37.4707188 202.68248,40.9418993 205.356395,46.14867 C208.403415,52.1612505 209.70928,54.3927237 212.7563,58.4837578 C215.554583,62.2028798 221.586439,67.5336212 223.078856,67.5336212 C223.887249,67.5336212 224.073802,68.5873725 223.389777,68.8972993 C223.078856,69.02127 222.332647,69.02127 221.586439,68.9592846 Z" id="C" fill="#000000"></path>
                <path d="M486.052028,415.123938 C482.203038,413.014402 451.100715,382.488177 425.026912,355.250346 C399.449752,328.508877 398.083981,327.081838 396.531969,325.468663 C395.662842,324.600031 391.938013,320.567095 388.151104,316.472113 C384.426275,312.377132 380.080641,307.785789 378.528629,306.23466 C376.976617,304.68353 374.182995,301.705362 372.32058,299.719917 C361.953139,288.36565 346.743421,272.29595 334.141082,259.328509 C331.099139,256.22625 326.629344,251.448772 324.208205,248.842875 C318.372639,242.390177 317.379351,241.335409 309.308888,232.71113 C305.459898,228.616149 301.114265,223.900715 299.624333,222.225496 C298.134401,220.550276 294.471653,216.64143 291.55387,213.539172 C288.636087,210.436913 285.283741,206.776248 284.104212,205.411254 C282.924683,204.04626 281.31059,202.24695 280.441463,201.378318 C279.572336,200.509685 276.406232,197.035156 273.302207,193.622671 C270.260264,190.210187 267.2804,186.983838 266.783757,186.487476 C266.287113,185.991115 263.307249,182.764766 260.265306,179.352281 C257.161282,176.001842 253.312291,171.78277 251.574038,169.98346 C248.097531,166.38484 238.102573,155.58898 235.743514,152.858993 C234.874388,151.86627 233.322375,150.129005 232.267007,149.012192 C231.211639,147.895379 230.218351,146.71652 230.09419,146.344249 C229.970029,145.971978 228.480098,144.172668 226.741844,142.311313 C225.065671,140.449958 222.830774,137.968151 221.837486,136.789293 C219.478427,134.059305 211.966689,125.435026 211.532125,125.062755 C211.345884,124.87662 209.421389,122.642993 207.186492,120.099141 C201.90965,114.018714 199.426431,111.226682 195.949924,107.379881 C194.397912,105.704661 192.038853,103.036719 190.673083,101.485589 C187.010334,97.390608 182.168056,91.992678 181.112688,90.93791 C179.312354,89.2006452 163.41975,70.7732289 157.211702,63.3278081 C151.438216,56.4407939 148.830836,53.3385353 147.278824,51.6012705 C146.906341,51.2289994 144.112719,48.0026504 141.008695,44.4040304 C132.503669,34.6008931 124.122803,26.4729755 114.68657,18.779374 C105.933221,11.6441791 103.574163,10.0930498 95.4416195,6.06011359 L90.7855832,3.7644422 L80.2319008,3.7644422 C70.9819086,3.7644422 69.1194941,3.95057772 65.0221821,5.19148117 C58.1312483,7.30101705 53.9718559,9.4725981 50.8057512,12.6989471 C45.9634734,17.5384706 45.0322661,19.1516451 43.9768979,24.5495751 C42.9836101,29.8234148 42.6732077,31.4365893 41.9282419,34.7870286 C41.555759,36.5242935 41.1832761,39.8747328 41.1211956,42.2324494 C40.9970346,44.6522111 40.6245517,47.3821987 40.2520688,48.3128763 C39.8795859,49.3055991 39.5691835,51.1049091 39.5691835,52.4078577 C39.5691835,53.6487612 39.3208616,54.9517098 39.0104591,55.2619356 C38.7000567,55.6342067 38.3275738,56.9992005 38.1413324,58.3641943 C37.0238836,66.864383 34.6027447,71.0214095 30.7537547,71.0834547 C25.2285916,71.1454999 13.5574605,59.8532784 8.59102175,49.6778701 C6.16988285,44.6522111 4.99035365,40.0608683 3.56250251,30.3197762 C2.50713427,22.9364006 3,13.4434892 4.49370977,12.9471278 C4.86619268,12.8230374 5.05243413,15.0566637 4.92827317,19.0895999 C4.8041122,22.5641296 4.99035365,26.5350206 5.30075607,27.9620596 C5.67323898,29.3270534 6.29404382,32.1190862 6.66652673,34.1665769 C7.10109012,36.2140676 7.65981448,38.5717842 7.90813642,39.4404166 C8.15645836,40.309049 8.7772632,42.2324494 9.21182659,43.7835787 C9.64638998,45.334708 10.2051143,46.8858373 10.4534363,47.1960632 C10.7017582,47.5683342 11.5088045,48.933328 12.2537703,50.2983218 C15.4819555,56.1305681 24.7319477,66.0577957 29.0155011,68.2914219 C30.7537547,69.1600544 31.0020766,69.1600544 32.3678473,68.1673316 C33.9819399,66.9884733 34.7889862,64.8168923 35.7822739,58.984646 C37.0238836,51.787406 37.1480446,50.8567284 37.706769,44.4040304 C38.3275738,38.0754228 38.8242177,34.4147576 40.1279079,27.9620596 C40.5003908,26.2868399 40.9349542,23.8670782 41.1211956,22.6882199 C41.8040809,18.9655095 44.1010589,15.1187088 47.9500489,11.2098629 C52.9164877,6.12215877 60.3040653,2.70967426 69.6782185,1.03445459 C75.2654621,0.103777001 85.3225005,-0.330539209 89.5439735,0.28991252 C98.1110803,1.53081598 112.079189,10.0930498 129.461725,24.7357106 C134.241922,28.7686468 151.624458,46.4515211 160.315726,56.1926132 C166.02713,62.5212209 173.476788,70.2768675 198.184821,95.591298 C210.84924,108.558739 225.438154,123.511626 230.528754,128.785465 C241.082436,139.705416 316.013581,214.593939 338.859199,237.054292 C347.177984,245.18221 384.612516,282.347268 421.984968,319.574372 C459.4195,356.73943 492.135915,389.00292 494.681215,391.236547 C501.69631,397.254928 503,399.302419 503,404.266033 C503,409.105556 501.510068,411.897589 497.723159,414.441441 C495.674503,415.74439 494.619135,416.054616 491.390949,415.99257 C489.218132,415.930525 486.796994,415.558254 486.052028,415.123938 Z" id="Path" fill="#FFB000"></path>
            </g>
        </g>
    </g>
</svg>
