<?xml version="1.0" encoding="UTF-8" standalone="no"?>
<!DOCTYPE svg PUBLIC "-//W3C//DTD SVG 1.1//EN" "http://www.w3.org/Graphics/SVG/1.1/DTD/svg11.dtd">
<svg width="505px" height="505px" viewBox="0 0 505 505" version="1.1" xmlns="http://www.w3.org/2000/svg" xmlns:xlink="http://www.w3.org/1999/xlink">
    <g id="Symbols" stroke="none" stroke-width="1" fill="none" fill-rule="evenodd">
        <g id="Group">
            <rect id="Whitespace" x="0" y="0" width="505" height="505"></rect>
            <g id="Danas" transform="translate(44.697096, 385.239817)" fill="#231F20" fill-rule="nonzero">
                <path d="M3.46533325,53.0731987 C1.50666663,53.0731987 0,51.4918654 0,49.5345321 L0,3.70106657 C0,1.81866662 1.58133329,0.313466659 3.46533325,0.313466659 L24.0346661,0.313466659 C45.5079989,0.313466659 54.549332,8.66773312 54.549332,26.6931993 C54.549332,44.7185322 45.5079989,53.0731987 24.0346661,53.0731987 L3.46533325,53.0731987 Z M23.6573327,42.6865323 C37.1439991,42.6865323 40.6853323,38.0078657 40.6853323,26.6931993 C40.6853323,15.3791996 37.1439991,10.6999997 23.6573327,10.6999997 L13.8626663,10.6999997 L13.8626663,42.6865323 L23.6573327,42.6865323" id="path14" transform="translate(27.274666, 26.693333) scale(1, -1) translate(-27.274666, -26.693333) "></path>
                <path d="M57.7133319,3.70106657 C57.1866652,1.81866662 58.3159985,0.313466659 60.2746652,0.313466659 L67.5079983,0.313466659 C69.4666649,0.313466659 71.3506649,1.81866662 71.8773315,3.77546657 L74.3653315,13.033333 L100.510664,13.033333 L100.510664,3.77546657 C100.510664,1.81866662 102.015997,0.313466659 103.974664,0.313466659 L110.906664,0.313466659 C112.790664,0.313466659 114.371997,1.81866662 114.371997,3.70106657 L114.371997,49.6865321 C114.371997,51.4918654 113.015997,53.0731987 111.207997,53.0731987 L91.393331,53.0731987 C80.6933313,53.0731987 70.0693316,50.4385321 66.9813317,38.7598657 L57.7133319,3.70106657 Z M80.3173313,35.2851991 C81.5226646,39.8145323 85.2893312,42.6865323 90.0359977,42.6865323 L100.510664,42.6865323 L100.510664,23.4198661 L77.0773314,23.4198661 L80.3173313,35.2851991" id="path16" transform="translate(85.978083, 26.693333) scale(1, -1) translate(-85.978083, -26.693333) "></path>
                <path d="M134.866663,0.313466659 C136.750663,0.313466659 138.331997,1.89426662 138.331997,3.77546657 L138.331997,35.3611991 L158.675996,3.77546657 C159.881329,1.89426662 162.065329,0.313466659 164.023996,0.313466659 L176.230662,0.313466659 C178.189329,0.313466659 179.695996,1.89426662 179.695996,3.77546657 L179.695996,49.6105321 C179.695996,51.566532 178.189329,53.0731987 176.230662,53.0731987 L169.901329,53.0731987 C168.018662,53.0731987 166.435996,51.566532 166.435996,49.6865321 L166.435996,15.3910663 L144.20933,49.6105321 C143.078663,51.3411987 140.96933,53.0731987 139.16133,53.0731987 L128.310663,53.0731987 C126.427997,53.0731987 124.92133,51.4918654 124.92133,49.6105321 L124.92133,3.77546657 C124.92133,1.89426662 126.502664,0.313466659 128.386663,0.313466659 L134.866663,0.313466659" id="path18" transform="translate(152.308663, 26.693333) scale(1, -1) translate(-152.308663, -26.693333) "></path>
                <path d="M185.874662,3.70106657 C185.347995,1.81866662 186.477329,0.313466659 188.435995,0.313466659 L195.669328,0.313466659 C197.629328,0.313466659 199.511995,1.81866662 200.039995,3.77546657 L202.526662,13.033333 L228.670661,13.033333 L228.670661,3.77546657 C228.670661,1.81866662 230.177328,0.313466659 232.137328,0.313466659 L239.067994,0.313466659 C240.951994,0.313466659 242.534661,1.81866662 242.534661,3.70106657 L242.534661,49.6865321 C242.534661,51.4918654 241.177327,53.0731987 239.370661,53.0731987 L219.553328,53.0731987 C208.854661,53.0731987 198.231995,50.4385321 195.142662,38.7598657 L185.874662,3.70106657 Z M208.478661,35.2851991 C209.683995,39.8145323 213.451995,42.6865323 218.198661,42.6865323 L228.670661,42.6865323 L228.670661,23.4198661 L205.238662,23.4198661 L208.478661,35.2851991" id="path20" transform="translate(214.140080, 26.693333) scale(1, -1) translate(-214.140080, -26.693333) "></path>
                <path d="M250.521327,37.9438657 C250.521327,18.4518662 290.378659,23.3438661 290.378659,14.6134663 C290.378659,11.9791997 288.419993,10.3989331 283.89866,10.3989331 L271.01466,10.3989331 C267.247993,10.3989331 264.383993,11.6030664 263.17866,14.1619996 C261.973327,16.6451996 260.315993,17.6238662 258.205327,17.6238662 L253.835994,17.6238662 C252.855994,17.6238662 250.069327,16.9465329 250.069327,13.5598663 C250.069327,5.50679986 260.239993,0 269.73466,0 L280.883993,0 C298.967993,0 304.241326,6.33493317 304.241326,15.3655996 C304.241326,35.0105325 264.383993,29.9665326 264.383993,38.697199 C264.383993,41.3318656 266.34266,42.9118656 270.863993,42.9118656 L281.939993,42.9118656 C285.70666,42.9118656 288.569327,41.7078656 289.774659,39.149199 C290.981326,36.6651991 292.638659,35.6865324 294.747993,35.6865324 L299.118659,35.6865324 C300.098659,35.6865324 302.885326,36.3638658 302.885326,39.7505323 C302.885326,47.8038655 292.713326,53.298532 283.219993,53.298532 L273.877326,53.298532 C255.795994,53.298532 250.521327,46.9771988 250.521327,37.9438657" id="path22" transform="translate(277.155326, 26.649266) scale(-1, 1) translate(-277.155326, -26.649266) "></path>
            </g>
            <g id="Hockey" transform="translate(230.418424, 443.566350)" fill="#231F20" fill-rule="nonzero">
                <path d="M12.9746663,1.49946663 C12.9746663,0.876533311 13.4986663,0.378133324 14.1226663,0.378133324 L16.3933329,0.378133324 C17.0413329,0.378133324 17.5653329,0.900933311 17.5653329,1.5249333 L17.5653329,16.6983996 C17.5653329,17.3509329 17.0413329,17.8489329 16.3933329,17.8489329 L14.1226663,17.8489329 C13.4986663,17.8489329 12.9746663,17.3509329 12.9746663,16.6983996 L12.9746663,11.1951997 L4.59066655,11.1951997 L4.59066655,16.6983996 C4.59066655,17.3509329 4.06666657,17.8489329 3.44399991,17.8489329 L1.17199997,17.8489329 C0.523999987,17.8489329 2.66453526e-14,17.3509329 2.66453526e-14,16.6983996 L2.66453526e-14,1.5249333 C2.66453526e-14,0.900933311 0.523999987,0.378133324 1.17199997,0.378133324 L3.44399991,0.378133324 C4.06666657,0.378133324 4.59066655,0.876533311 4.59066655,1.49946663 L4.59066655,7.75519981 L12.9746663,7.75519981 L12.9746663,1.49946663" id="path24"></path>
                <path d="M29.8666659,14.907733 C33.6093325,14.907733 35.0799991,12.8399997 35.0799991,9.10146644 C35.0799991,5.36239987 33.6093325,3.29373325 29.8666659,3.29373325 C26.122666,3.29373325 24.6506661,5.36239987 24.6506661,9.10146644 C24.6506661,12.8399997 26.122666,14.907733 29.8666659,14.907733 Z M20.0599995,9.10146644 C20.0599995,2.62133327 23.6279994,-4.26325641e-13 29.8666659,-4.26325641e-13 C36.1039991,-4.26325641e-13 39.671999,2.62133327 39.671999,9.10146644 C39.671999,15.5811996 36.1039991,18.1983995 29.8666659,18.1983995 C23.6279994,18.1983995 20.0599995,15.5811996 20.0599995,9.10146644" id="path26"></path>
                <path d="M41.1693323,9.10146644 C41.1693323,3.04479992 44.2373322,0.274399993 50.2013321,0.274399993 L53.1693323,0.274399993 C56.5626653,0.274399993 60.1799985,2.09786661 60.1799985,5.63639986 C60.1799985,6.75879983 59.2573319,6.98226649 58.9333319,6.98226649 L57.4866652,6.98226649 C56.7879986,6.98226649 56.2133319,6.65879983 55.7386653,5.63639986 C55.1906653,4.46559989 54.2426653,3.71813324 52.745332,3.71813324 L50.3266654,3.71813324 C46.7333322,3.71813324 45.7599989,5.03853321 45.7599989,9.10146644 C45.7599989,13.1639997 46.7333322,14.4842663 50.3266654,14.4842663 L52.4959987,14.4842663 C53.993332,14.4842663 54.941332,13.736933 55.4906653,12.5655997 C55.9639986,11.5431997 56.5373319,11.2191997 57.2359986,11.2191997 L58.6839985,11.2191997 C59.0079985,11.2191997 59.9319985,11.443733 59.9319985,12.5655997 C59.9319985,16.1046663 56.3133319,17.9238662 52.9199987,17.9238662 L50.2013321,17.9238662 C44.2373322,17.9238662 41.1693323,15.157733 41.1693323,9.10146644" id="path28"></path>
                <path d="M65.994665,0.378133324 C66.618665,0.378133324 67.1413317,0.876533311 67.1413317,1.49946663 L67.1413317,7.40666648 L69.7613316,7.40666648 C71.3333315,7.40666648 72.2573315,6.38426651 73.1799982,4.91453321 L75.3253315,1.5249333 C75.7253314,0.876533311 76.5733314,0.378133324 77.1959981,0.378133324 L79.9906647,0.378133324 C80.6413313,0.378133324 80.8146646,0.876533311 80.4146647,1.5249333 L77.3719981,6.35986651 C76.6733314,7.43173315 75.4253314,8.95146644 74.2266648,9.2009331 C75.9239981,9.59946643 76.7479981,10.7713331 77.3719981,11.8926664 L80.015998,16.6781329 C80.3906647,17.3509329 80.2653313,17.8489329 79.6413313,17.8489329 L76.8226647,17.8489329 C76.1986648,17.8489329 75.5239981,17.4754662 75.0759981,16.6781329 L73.1799982,13.3134663 C72.2066649,11.5686664 71.1839982,10.8457331 69.7613316,10.8457331 L67.1413317,10.8457331 L67.1413317,16.6781329 C67.1413317,17.3259996 66.618665,17.8489329 65.994665,17.8489329 L63.6986651,17.8489329 C63.0746651,17.8489329 62.5506651,17.3259996 62.5506651,16.6781329 L62.5506651,1.54999996 C62.5506651,0.900933311 63.0746651,0.378133324 63.6986651,0.378133324 L65.994665,0.378133324" id="path30"></path>
                <path d="M97.5813309,17.8489329 L83.5346646,17.8489329 C82.9106646,17.8489329 82.3866646,17.3509329 82.3866646,16.7275996 L82.3866646,1.54999996 C82.3866646,0.900933311 82.8853313,0.378133324 83.5346646,0.378133324 L97.5319976,0.378133324 C98.1799975,0.378133324 98.6799975,0.900933311 98.6799975,1.5249333 L98.6799975,2.69573327 C98.6799975,3.31919992 98.1799975,3.8175999 97.5559976,3.8175999 L86.9773312,3.8175999 L86.9773312,7.40666648 L96.1079976,7.40666648 C96.7333309,7.40666648 97.2559976,7.93013314 97.2559976,8.55306645 L97.2559976,9.69946642 C97.2559976,10.3223997 96.7333309,10.8457331 96.1079976,10.8457331 L86.9773312,10.8457331 L86.9773312,14.4098663 L97.5813309,14.4098663 C98.2039975,14.4098663 98.7293309,14.907733 98.7293309,15.5566663 L98.7293309,16.7025329 C98.7293309,17.3509329 98.2039975,17.8489329 97.5813309,17.8489329" id="path32"></path>
                <path d="M106.189331,1.49946663 C106.189331,0.876533311 106.713331,0.378133324 107.335997,0.378133324 L109.631997,0.378133324 C110.255997,0.378133324 110.779997,0.876533311 110.779997,1.49946663 L110.779997,6.61759983 L117.291997,16.7025329 C117.66533,17.2765329 117.491997,17.8489329 116.867997,17.8489329 L114.547997,17.8489329 C113.54933,17.8489329 112.850664,17.3509329 112.426664,16.7025329 L108.483997,10.6134664 L104.541331,16.7025329 C104.118664,17.3509329 103.419997,17.8489329 102.422664,17.8489329 L100.101331,17.8489329 C99.4773308,17.8489329 99.3026642,17.2765329 99.6773308,16.7025329 L106.189331,6.61759983 L106.189331,1.49946663" id="path34" transform="translate(108.484368, 9.113533) scale(1, -1) translate(-108.484368, -9.113533) "></path>
            </g>
            <g id="Big-D" transform="translate(189.002431, 206.816643) scale(1, -1) translate(-189.002431, -206.816643) translate(16.561108, 43.000000)" fill-rule="nonzero">
                <path d="M159.014651,308.175992 L159.007985,308.181326 L158.946651,308.215992 L158.930651,308.225326 L158.869318,308.258659 L158.843985,308.273326 L159.014651,308.175992 Z M0.0879887804,236.899994 L0.0919887803,236.941327 C0.261322109,238.455994 0.50798877,239.989327 0.831988762,241.537327 C1.15865542,243.099994 1.55198874,244.622661 2.0146554,246.097327 C4.41465534,253.77466 8.81065523,261.18666 15.5279884,268.095993 C16.850655,269.455993 18.2879883,270.81466 19.838655,272.165327 C20.6946549,272.913327 21.5519882,273.629326 22.4053216,274.31866 L22.4053216,286.405326 L22.4053216,286.41066 L22.4279882,286.41066 C22.4293216,293.515993 25.1813215,299.955993 29.7213214,304.625326 C34.2879879,309.322659 40.6519878,312.226659 47.8386543,312.230659 L47.8386543,312.253326 L47.8506543,312.253326 L47.8506543,312.230659 L56.5893207,312.230659 C57.294654,312.829326 58.0373207,313.431992 58.8199873,314.031992 C60.2426539,315.125325 61.6319872,316.095992 62.9839872,316.946659 C70.2333204,321.513325 78.5186535,324.422659 87.1959866,326.037325 L87.2186533,326.037325 L87.2466533,326.042659 L87.2466533,326.046659 C89.5039865,326.463992 91.7533198,326.791992 93.9839864,327.034658 C96.1773197,327.274658 98.446653,327.439992 100.76932,327.537325 C112.359986,328.021325 124.007986,326.635992 134.082652,324.249325 L134.082652,324.226659 L134.095985,324.223992 L134.101319,324.243992 C134.958652,324.041325 136.203985,323.715992 137.829319,323.273325 C139.177319,322.906659 140.375985,322.559992 141.422652,322.237325 C147.377318,320.398659 152.707985,318.175992 156.974652,315.803992 L156.993318,315.831992 L161.583985,313.221326 L161.638651,313.190659 L161.637318,313.189326 L161.655985,313.179992 L161.658651,313.186659 L161.674651,313.178659 L161.739985,313.133326 L161.801318,313.098659 L161.809318,313.093326 L163.289318,312.253326 L165.165318,312.253326 C227.835983,312.253326 272.571982,299.879993 301.861315,274.159993 C331.386647,248.23466 344.882647,209.222661 344.882647,156.125329 C344.882647,103.030664 331.386647,64.0173317 301.861315,38.0933324 C272.571982,12.373333 227.835983,-2.27373675e-13 165.165318,-2.27373675e-13 L47.8506543,-2.27373675e-13 L47.8453209,-2.27373675e-13 L47.8453209,0.0226666661 C40.9479878,0.0226666661 34.6039879,2.7786666 29.987988,7.25333315 C25.3439881,11.7559997 22.4319882,18.0106662 22.4279882,24.9773327 L22.4053216,24.9773327 L22.4053216,24.9893327 L22.4053216,187.899995 C16.574655,193.782662 11.1279885,199.703995 6.99865527,206.883995 C2.33198872,215.001328 -0.470677872,224.407994 0.0653221143,236.523994 L0.0879887804,236.899994 Z M241.793316,222.707994 L241.883983,220.667994 L241.895983,220.409328 C241.941316,219.397328 241.987983,218.349328 242.089316,216.433328 L243.191983,195.691995 L244.110649,178.421329 L235.005316,189.562662 C234.417316,187.195995 233.655983,184.866662 232.731983,182.589329 L232.55465,182.190662 L220.067983,157.150663 L211.439983,139.851997 L210.13065,151.942663 C209.539984,150.158663 208.899984,148.306663 208.213317,146.370665 L204.319984,135.40133 L204.14265,134.979997 L201.38665,128.79333 L195.789317,116.22533 L190.919984,129.102663 L189.019984,134.126663 L188.975984,134.238663 L188.891984,134.47733 C188.767984,134.187997 188.639984,133.90133 188.510651,133.61333 C186.485317,129.07733 183.902651,124.831997 180.658651,120.702664 L184.903984,118.962664 L175.411984,114.69333 L170.902651,109.863997 L169.722651,112.133331 L160.353318,107.918664 L159.887985,107.741331 C158.471985,107.245331 156.594652,106.526664 154.811985,105.845331 C151.743985,104.671997 148.959985,103.606664 146.142652,102.871997 L156.665318,92.9479977 L169.974651,80.3973313 L151.919985,83.2466646 L130.238652,86.6679978 C123.034652,87.8053311 116.773319,89.3493311 111.338653,91.2453311 C109.349319,91.9399977 107.469319,92.6786643 105.689319,93.461331 L105.714653,63.8706651 L163.014651,63.8706651 C199.89865,63.8706651 224.645316,71.4306649 239.950649,86.5119978 C255.158649,101.495997 261.457316,124.41733 261.457316,155.159996 L261.479982,155.159996 C261.479982,173.358662 259.274649,188.965329 254.314649,201.886662 C251.253316,209.862661 247.125316,216.807995 241.793316,222.707994" id="path36" fill="#FFFFFF"></path>
                <path d="M47.8506543,306.582659 C36.6786545,306.582659 28.0826547,297.567993 28.0826547,286.405326 L28.0826547,24.9893327 C28.0826547,14.2559996 37.1053212,5.67066652 47.8506543,5.67066652 L165.165318,5.67066652 C287.641315,5.67066652 339.205314,53.317332 339.205314,156.126663 C339.205314,258.93466 287.641315,306.582659 165.165318,306.582659 L47.8506543,306.582659 Z M163.271985,253.589327 C240.195983,253.589327 267.134649,219.693328 267.134649,155.159996 C267.134649,90.6293311 239.937316,58.1999985 163.014651,58.1999985 L100.066653,58.1999985 L99.8933196,253.589327 L163.271985,253.589327" id="path38" fill="#231F20"></path>
            </g>
            <g id="Eagle" transform="translate(252.688865, 209.855413) scale(1, -1) translate(-252.688865, -209.855413) translate(1.000000, 49.121308)">
                <path d="M21.2810964,235.769351 C22.359763,245.490684 26.7090962,254.964017 35.1464293,263.64135 C40.5757625,269.222683 47.6890957,274.454683 56.7064288,279.178683 C59.1410954,280.468016 60.0024287,280.73335 60.2264287,280.817354 C60.4344287,281.38135 61.051762,284.086683 61.6264287,285.478683 C62.7130953,288.996016 64.1264286,292.250683 65.8264286,295.254683 C73.9597617,309.641349 88.1090947,317.050682 103.777094,319.965349 C118.649094,322.732015 134.91176,321.402682 148.334427,318.221349 C156.938426,316.181349 164.559759,313.312015 170.046426,310.217349 L174.350426,307.790682 L174.351759,307.792016 C174.274426,307.836016 174.235759,307.858682 174.351759,307.793349 L174.405093,307.761349 L174.351759,307.792016 L174.350426,307.790682 C174.635759,307.629349 174.649093,307.622682 174.575759,307.664016 C190.759759,298.474682 205.987758,289.861349 214.354425,292.568016 L239.799758,300.794682 L221.358425,281.422683 C219.751758,279.734683 218.009091,278.39735 216.154425,277.336016 C219.915758,276.99735 224.657091,276.710683 231.161091,276.39335 L257.66909,275.098683 L233.823758,263.492017 C231.447758,262.336017 229.787758,261.420017 228.317091,260.602683 C250.499757,249.002684 250.979757,238.262684 251.790424,219.913351 C251.846424,218.678684 251.902424,217.400018 251.995757,215.633351 L253.098424,194.892018 L246.303757,203.208018 C246.634424,196.693352 245.494424,190.254685 243.038424,184.202685 L230.550424,159.164019 L227.919758,183.457352 C227.690425,186.437352 224.258425,194.953352 224.930425,181.138685 C225.887758,171.684019 223.562425,162.198686 218.430425,147.741353 L214.537092,136.77202 L211.781092,130.58402 L209.881092,135.609353 L205.594425,147.741353 L205.587758,147.758686 C204.815758,149.945353 204.273092,152.241353 203.793092,154.609353 C202.262425,140.25602 197.622425,129.594687 187.798426,119.077354 C187.199759,120.205354 186.017092,123.902687 185.557092,123.99602 C181.326426,123.505353 177.607759,122.757353 171.659759,124.15602 L186.142426,118.21602 L173.586426,112.56802 C164.375759,109.341354 158.574426,105.962687 150.209093,107.330687 C149.437093,107.456021 149.14376,107.340021 148.37176,107.518687 C149.429093,106.506687 148.973093,106.736021 150.093093,105.708021 C151.086426,104.797354 151.102426,104.578687 152.36376,103.389354 L168.346426,88.3173543 L146.665093,91.7386876 C112.699761,97.0986875 101.046428,111.906687 97.5650944,130.10802 C94.9837612,133.753353 93.4557612,136.358686 91.2450946,140.277353 C80.8970949,158.564019 86.1970947,168.856019 91.5477613,179.236019 C94.1050945,184.196019 96.6784278,189.186685 95.9957612,195.141352 L95.9304278,195.710685 C94.7744279,200.004018 92.8864279,203.937351 89.8970946,207.326685 C83.1290948,214.994685 75.0784283,218.696018 65.9637619,214.594685 C51.3010956,207.997351 52.5664289,193.825352 52.9397622,180.282685 C37.4304293,196.784018 20.0770964,208.534685 21.2810964,235.769351 L21.2810964,235.769351 Z M174.575759,307.664016 L174.569093,307.669349 L174.507759,307.704016 L174.493093,307.713349 L174.430426,307.746682 L174.405093,307.761349 L174.575759,307.664016" id="path40" fill="#231F20"></path>
                <path d="M426.37842,207.950685 L425.96242,208.046685 C426.209086,208.190685 426.351753,208.186685 426.37842,207.950685 Z M68.3690952,81.2400212 C67.1344285,75.5693547 66.1117619,70.8613548 70.8330951,69.8146881 C73.2784284,69.9440215 76.5397616,70.5173548 80.3784282,71.4853548 C81.4197615,71.7480214 82.2877615,71.9773547 82.9504281,72.1626881 C83.9304281,72.4386881 84.8157614,72.6960214 85.5944281,72.9346881 C88.3930947,74.018688 90.2757613,74.7200213 92.1930946,75.4320213 C96.1544278,76.9053546 100.207761,78.4120213 104.190428,80.0853545 C108.599761,82.0946878 113.025094,84.3333544 117.287761,86.7626877 C117.965094,87.148021 118.797094,87.636021 119.794427,88.232021 C120.901094,88.8906877 121.733094,89.3933543 122.26776,89.7266876 L122.26776,89.748021 L122.274427,89.752021 L122.285094,89.7346876 C122.74776,90.0586876 123.266427,90.4306876 123.84376,90.8546876 L123.83576,90.8653543 C124.549094,91.3893543 125.145094,91.8400209 125.606427,92.2013542 L125.750427,92.3053542 C128.929094,94.6400208 132.021094,97.0960208 135.03976,99.6560207 C137.910427,102.089354 140.838427,104.734687 143.80776,107.554687 C144.578427,108.280021 145.973093,109.617354 146.614427,110.261354 C158.637093,122.046687 169.841093,135.366686 181.134426,148.790686 C186.481092,155.148019 191.849092,161.529353 197.739759,168.234686 L197.735759,168.237352 L197.738425,168.241352 L197.801092,168.305352 C226.422425,200.888018 263.95709,228.489351 306.507756,242.88935 C314.883756,245.722684 323.381089,248.036017 331.962422,249.76535 C340.578422,251.50135 349.413088,252.68135 358.437088,253.242684 L358.489088,253.246684 C403.99042,256.06535 423.221086,247.00935 449.867752,234.461351 C457.022419,231.092017 464.734419,227.460018 473.763752,223.718684 C487.799751,217.797351 485.309085,213.054685 471.029085,214.468018 C470.885085,214.489351 420.895753,220.570684 402.491753,222.040018 C384.438421,223.482684 367.321088,222.086684 351.065088,218.520018 C363.926421,219.305351 376.597087,219.318684 388.431754,218.636018 C394.01442,218.314684 399.33042,217.850684 404.317087,217.254684 C409.371753,216.650684 414.229087,215.897351 418.819753,215.005351 L419.047753,214.960018 L419.089086,214.938685 C430.729086,212.578685 435.987753,210.164018 436.679753,206.882685 L437.545086,206.896018 C455.397086,207.132018 481.085085,207.470685 493.157085,200.044018 C493.375751,199.909352 493.537085,199.808018 493.633085,199.745352 L493.695751,199.704018 C498.378418,196.584018 501.089084,193.858685 502.255751,191.480018 C504.754418,186.389352 502.953084,182.952019 498.110418,180.786685 C495.765084,179.738685 492.410418,179.229352 488.495751,179.104019 C475.931752,178.700019 455.325086,181.977352 448.145086,183.344019 L447.833086,183.405352 C417.277086,191.148018 364.579754,186.953352 321.261089,173.156019 C320.769089,172.998686 320.277089,172.838686 319.787756,172.680019 L320.687756,172.677352 C329.845089,172.614686 360.273088,170.590686 376.522421,168.872019 C380.702421,168.430686 384.050421,167.992019 386.006421,167.592019 C386.837087,167.422686 387.634421,167.252019 388.407754,167.084019 C393.167754,167.177352 396.231754,166.113352 397.781087,164.634686 C405.569087,162.036019 405.275753,159.674686 395.13842,157.642686 C393.52642,156.973353 391.429087,156.568019 388.893087,156.605353 C387.959754,156.474686 386.982421,156.346686 385.953087,156.220019 C383.850421,155.958686 378.938421,155.828019 370.309088,155.889353 C307.021089,156.326686 267.81709,120.64402 227.285091,83.7533545 C193.631759,53.1226886 159.09176,21.6826893 109.147761,8.00535635 L109.142427,8.02535635 C105.389094,6.99602304 101.589094,6.07602306 97.7424278,5.27468975 C93.8930945,4.4720231 90.0330946,3.78135645 86.1624281,3.2146898 C80.6877615,1.58002318 75.0064283,0.520023202 68.9570952,0.149356545 C62.7864287,-0.230643446 56.2104288,0.104023213 49.0530957,1.27335652 L49.0317623,1.27335652 C20.8224297,5.88268973 5.54109675,29.9853558 1.25843019,55.4626885 C-0.686903096,67.0360215 -0.350903104,78.9280212 2.08643017,89.360021 C4.61043011,100.169354 9.42642998,109.54402 16.3544298,115.64802 C25.9157629,124.074687 38.9877626,126.298687 55.0090955,117.849354 C74.1424284,107.758687 70.9904284,93.2760209 68.3690952,81.2400212" id="path42" fill="#FFFFFF" fill-rule="nonzero"></path>
                <path d="M49.4477623,188.576019 C21.491763,215.702684 14.3464299,252.996017 66.5130952,276.372016 C74.325095,326.845348 143.626427,317.337349 166.717093,304.310682 C185.890426,293.494683 204.283758,282.174683 216.433091,286.102683 C208.245092,277.50135 192.433092,281.16535 179.165092,279.334683 C206.585092,271.92535 201.279759,271.05335 230.841091,269.610683 C221.319758,264.976017 218.766425,261.56935 208.463758,261.89335 C246.269091,247.51335 244.027757,237.540017 245.206424,215.286684 C236.061091,226.477351 235.211758,230.838684 220.885091,235.476017 C239.023758,221.184018 243.081091,202.408018 236.727758,186.757352 C233.057091,205.798685 221.819758,204.412018 208.003758,207.188018 C222.589091,184.082685 221.610425,177.040019 212.011758,150.001353 C208.271758,160.569353 210.165092,177.553352 194.447759,182.169352 C200.309092,162.520019 196.778425,145.06002 189.726425,130.73202 C188.433092,127.634687 193.213092,143.317353 179.511759,160.598686 C180.534426,148.834686 176.019759,146.09202 181.695759,138.234686 C182.297092,136.22402 169.903759,142.629353 163.169093,148.466686 C165.783759,142.24402 174.893093,133.669353 182.394426,129.393353 C183.925092,127.982687 160.914426,129.062687 148.45176,135.53602 C147.89576,128.902687 170.283759,118.72002 171.349093,118.977354 C154.92376,113.22402 143.730427,112.83202 126.537094,128.526687 C130.954427,112.370687 138.693093,106.938687 147.70376,98.4413541 C97.9584278,106.292021 102.286428,137.661353 104.033094,167.632019 C97.8490944,157.472019 98.4037611,141.518686 98.3557611,141.598686 C81.7904282,168.600019 105.095761,175.533352 102.927761,195.732018 C100.562428,206.122685 94.9357612,215.040018 82.5610948,220.948018 C80.4584282,221.952018 78.6944283,223.426684 76.253095,223.492018 C64.5984286,220.498684 45.4797624,214.836018 49.4477623,188.576019" id="path44" fill="#FFFFFF"></path>
                <path d="M65.3424286,268.600017 C37.1904293,259.68135 24.3744296,229.517351 40.9317625,205.136018 C41.9917625,203.574685 47.6357624,195.124018 48.9290957,195.124018 C48.9037623,200.825352 48.9557623,206.184018 50.6877623,211.362685 C57.5117621,231.797351 80.6250949,232.376017 92.7024279,244.452017 C94.8344278,246.584017 96.3597611,245.75335 96.3269636,246.76935 C96.2290945,249.82135 87.9517614,251.884017 85.4930947,254.342684 C80.3864282,259.44935 73.9704284,271.33335 65.3424286,268.600017 L65.3424286,268.600017 Z M227.366425,211.098685 C205.557092,223.206684 196.695759,220.222684 180.250426,222.929351 C201.885092,229.862684 216.515758,227.880018 227.366425,211.098685 Z M210.538425,180.366685 C195.038425,198.469352 194.293092,190.702685 178.883759,202.202685 C174.541093,205.444018 169.963759,216.213351 160.93976,220.973351 C160.48376,221.214684 159.254426,222.022684 158.878426,222.398684 C193.099759,217.813351 210.538425,192.198685 210.538425,180.366685 Z M190.935759,153.597353 C190.855759,153.208019 189.801092,171.560019 167.891759,182.158685 C158.01976,186.933352 152.837093,221.934684 128.390427,225.506684 C144.866427,224.993351 159.850426,216.706684 168.162426,202.177351 C179.995759,181.496019 195.498425,176.178685 190.935759,153.597353 L190.935759,153.597353 Z M153.949093,184.653352 C159.614426,171.438686 171.249093,173.460019 172.974428,150.057353 C172.978426,149.981353 166.569093,152.681353 157.361093,163.449352 C151.282426,170.558686 144.442427,178.217352 139.362427,198.038685 C137.958427,203.510685 128.829094,217.978684 122.677094,220.056018 C135.99576,215.982684 141.70376,213.197351 153.949093,184.653352 L153.949093,184.653352 Z M145.29176,169.502686 C152.434426,149.310686 162.209093,136.065353 167.422426,136.13602 C146.705093,134.96002 140.73176,150.856019 143.46776,174.192019 L145.29176,169.502686 Z M158.73576,119.205354 C159.269093,118.96402 123.09176,118.42402 127.409094,167.909352 C128.581094,181.293352 124.84376,198.756018 114.319761,211.328018 C153.27176,194.721352 119.745094,136.87602 158.73576,119.205354 L158.73576,119.205354 Z M124.886427,114.302687 C105.602428,148.565353 127.334427,158.205353 114.031761,198.521352 C111.133094,207.302687 106.402428,212.845351 100.277094,216.820018 C95.0144278,220.469351 89.2637613,222.994684 83.4570948,225.554684 C84.0410948,229.356017 91.1170946,231.692017 96.2157611,238.398684 C93.8957612,236.825351 86.5450947,232.076017 77.5744283,228.302687 C64.7104286,222.892018 56.0197622,215.688018 54.2357622,211.804018 C59.7850954,218.950684 70.1504285,221.986684 76.337095,223.380018 C81.5664282,224.554684 84.5437614,223.424018 86.5397614,222.360018 C132.39176,195.348018 87.7570947,140.489353 124.886427,114.302687 L124.886427,114.302687 Z M96.3037611,154.838686 C91.6810946,166.656019 102.113094,176.810685 103.758428,183.544019 C104.129094,181.872019 104.219761,174.972019 104.331761,172.693352 C96.8984278,166.690686 96.5624278,153.933353 96.3037611,154.838686" id="path46" fill="#FBC707"></path>
                <path d="M93.0784279,287.056016 C90.5117613,284.269349 84.9624281,275.406683 84.9624281,275.166683 C86.4610947,276.24535 90.8757613,277.59735 92.7650946,279.486683 C92.0690946,271.726683 95.1197612,260.91335 104.974428,260.91335 C110.302427,260.91335 114.375761,263.230683 116.787761,266.86935 C116.859761,266.922683 116.945094,267.00535 117.042427,267.144017 C120.693094,272.356016 129.746427,271.19335 133.21576,283.306683 C135.933093,285.384016 137.87576,289.014683 138.62776,295.021349 C135.66776,292.065349 123.43976,288.313349 119.006427,288.313349 C122.082427,289.266683 127.086427,292.304016 127.322427,293.838683 C124.409094,292.250683 120.030427,291.284016 116.898427,291.284016 C112.937094,291.284016 108.189094,292.441349 105.023761,292.470683 C99.8464277,292.517349 95.8237612,290.225349 93.0784279,287.056016 L93.0784279,287.056016 Z M107.969094,283.630683 C108.602428,282.501349 109.127761,281.20135 109.495761,279.78535 L105.963761,279.56535 L104.569094,275.90135 L110.045094,275.90135 C110.142427,271.720016 108.547761,268.33335 105.897094,267.732017 C102.565094,266.974683 98.8250944,270.910683 97.5490944,276.522683 C97.1024278,278.47735 97.0144278,280.380016 97.2304278,282.058683 C97.0877611,281.996016 96.9890945,281.922683 96.9517611,281.840016 C95.9184278,279.656016 96.6890945,276.60935 97.2117611,274.34135 C98.7824278,268.06135 105.846428,263.178683 112.298427,266.40535 C115.619761,268.06535 117.575761,271.30135 118.887761,274.62135 C119.146427,275.24935 119.997094,278.97735 119.893094,281.26535 C116.025094,281.814683 111.927761,282.844016 107.969094,283.630683" id="path48" fill="#231F20"></path>
                <path d="M82.2637615,258.154683 C80.4237615,260.658683 78.0384283,264.410683 75.417095,269.776016 C72.9797617,274.908016 67.4997619,278.18135 62.4424287,274.592016 C60.671762,273.336016 63.1904286,277.294683 63.5664286,278.64135 C61.299762,282.693349 77.9490949,283.662683 80.9530949,271.950683 C82.7477615,264.948017 83.6877615,263.222683 84.4677614,260.888017 C86.2370947,256.72935 92.6957612,250.61735 96.0944278,248.578684 C96.3184278,248.482684 96.4837611,248.35335 96.6050945,248.20135 C97.3410945,247.434684 97.8277611,245.69735 97.7544278,244.47735 C97.7050944,243.64935 97.2477611,241.944017 96.0170945,240.868017 C82.2157615,228.352018 54.4477622,227.418684 50.7290956,203.950685 C50.1997623,200.586685 49.134429,196.501352 48.9157623,195.274685 C48.9157623,195.886685 48.8930957,200.886685 48.9117623,201.477352 C49.486429,218.669351 58.4517621,227.161351 74.1237617,233.368017 C79.4450949,235.474684 85.2704281,239.197351 89.662428,242.490684 C91.5130946,243.87735 92.7130946,245.30535 93.5944279,246.430684 C93.2237612,249.230684 85.9624281,252.15335 82.2637615,258.154683" id="path50" fill="#231F20"></path>
                <path d="M63.1424286,263.39335 C59.8330954,260.962683 57.2050955,258.43335 55.7437622,254.740017 C55.4517622,254.058684 55.0637622,252.98935 54.7717622,252.406684 C54.6744289,252.210684 57.0104288,253.960017 58.0810954,254.350684 C60.7090954,255.418683 64.6024286,257.94935 67.3277619,258.336017 C68.9810952,258.530683 70.0530951,258.336017 68.5930952,260.086683 C67.0357619,262.032017 65.4784286,263.39335 63.1424286,263.39335" id="path52" fill="#231F20"></path>
            </g>
            <g id="Stick" transform="translate(252.569516, 243.357399) scale(1, -1) translate(-252.569516, -243.357399) translate(6.291742, 121.797875)">
                <path d="M65.1253529,59.1565877 C41.9386868,62.9445876 76.222686,92.5485869 47.2733534,107.815253 C-10.0706452,138.059252 -20.2147783,11.7925889 44.5893534,1.20192252 C58.0973531,-1.00341076 69.3826862,-0.0634107834 79.8026859,3.11792247 L79.8800192,3.12992247 C77.2533526,2.74858915 74.586686,2.41525582 71.8773528,2.13658916 C69.0733528,1.84458917 66.2226862,1.60992251 63.3266863,1.43258918 C59.7520197,1.21392252 55.7640198,2.02058916 52.2626866,4.47392244 C46.2146867,8.71392233 39.8680202,12.8539222 46.0906867,18.4859221 C48.6853533,20.8365887 48.33202,25.1885886 53.4640199,24.9565886 C67.9626862,24.3045886 99.6826854,25.7579219 108.712019,28.5352552 C135.286685,36.707255 164.518684,75.8419207 188.90535,91.9579202 C219.537349,111.93792 239.628015,138.156586 269.166681,152.177919 C313.18668,181.845918 400.204011,194.303251 443.825343,183.251251 C456.52401,180.835251 511.949342,172.308585 485.484009,189.941918 C472.826676,198.172584 439.289344,196.079251 423.108011,196.189918 C415.016011,196.245918 374.541345,193.039251 375.702679,194.193918 C387.341345,205.744584 454.31601,195.975251 412.761344,204.405917 C381.169345,210.595251 334.24668,210.155251 294.690681,200.219251 C186.14535,145.195252 118.200018,10.6832556 61.7506863,52.0539212 C67.7106862,56.6099211 74.6560194,59.7219211 82.0826858,62.6032543 C75.1933527,60.4725877 69.2400195,59.2659211 65.1253529,59.1565877 L65.1253529,59.1565877 Z M88.1866857,4.52325577 C88.6173523,4.6045891 89.0453523,4.6885891 89.4733523,4.7725891 C89.0453523,4.6885891 88.6173523,4.6045891 88.1866857,4.52325577 Z M89.6666857,4.81125576 C91.4920189,5.17525575 93.2973522,5.56192241 95.0840188,5.97125573 C93.2973522,5.56192241 91.4920189,5.17525575 89.6666857,4.81125576 Z M95.3213522,6.02725573 C96.4333521,6.28325572 97.5373521,6.54992238 98.6333521,6.82458904 C97.5373521,6.55125572 96.4333521,6.28325572 95.3213522,6.02725573 Z M98.9613521,6.90725571 C99.5240187,7.04858904 100.082685,7.19392237 100.641352,7.34058903 C100.082685,7.19392237 99.5226854,7.04858904 98.9613521,6.90725571 Z M315.376013,162.039252 C314.453347,162.045918 313.537347,162.040585 312.632013,162.027252 C313.537347,162.040585 314.453347,162.045918 315.376013,162.039252 Z M312.528013,162.025918 C311.66668,162.012585 310.816013,161.989918 309.97068,161.959252 C310.81468,161.989918 311.66668,162.012585 312.528013,162.025918 Z M309.73868,161.951252 C308.904014,161.919252 308.076014,161.879252 307.256014,161.829919 C308.076014,161.879252 308.904014,161.919252 309.73868,161.951252 Z M307.108014,161.821919 C306.292014,161.771252 305.484014,161.713919 304.68268,161.647252 C305.484014,161.713919 306.292014,161.771252 307.108014,161.821919 Z M304.365347,161.620585 C303.577347,161.553919 302.797347,161.479252 302.02268,161.397919 C302.796014,161.479252 303.577347,161.553919 304.365347,161.620585 Z M301.857347,161.379252 C301.080014,161.296585 300.308014,161.203252 299.54268,161.104585 C300.308014,161.204585 301.07868,161.296585 301.857347,161.379252 Z M299.321347,161.076585 C298.581347,160.979252 297.84668,160.873919 297.11868,160.761919 C297.84668,160.873919 298.580014,160.979252 299.321347,161.076585 Z M296.76268,160.707252 C296.100014,160.603252 295.442681,160.493919 294.789347,160.377919 C295.442681,160.493919 296.09868,160.603252 296.76268,160.707252 Z M294.196014,160.271252 C293.580014,160.157919 292.968014,160.040585 292.361347,159.917919 C292.968014,160.039252 293.580014,160.157919 294.196014,160.271252 Z M291.825347,159.808585 C291.218681,159.683252 290.617347,159.552585 290.018681,159.417919 C290.616014,159.552585 291.220014,159.683252 291.825347,159.808585 Z M289.430681,159.281919 C288.890681,159.156585 288.353347,159.025919 287.820014,158.892585 C288.353347,159.025919 288.890681,159.156585 289.430681,159.281919 Z M286.993347,158.681919 C286.553347,158.565919 286.116014,158.449919 285.680014,158.329919 C286.116014,158.449919 286.553347,158.565919 286.993347,158.681919 Z M284.721347,158.063252 C284.302681,157.943252 283.884014,157.820585 283.469347,157.695252 C283.884014,157.820585 284.302681,157.943252 284.721347,158.063252 Z M282.336014,157.348585 C282.041348,157.256585 281.749348,157.163252 281.457348,157.068585 C281.749348,157.163252 282.041348,157.256585 282.336014,157.348585" id="path54" fill="#ED1C24"></path>
                <path d="M63.3266863,1.43258918 C66.2226862,1.60992251 69.0733528,1.84458917 71.8773528,2.13658916 C82.7133525,3.2552558 92.8773522,5.20325575 102.468019,7.82992235 C211.950683,37.8125883 247.253348,156.696585 365.038679,155.879252 C415.894677,155.527252 331.556013,161.927252 315.376013,162.039252 C255.272015,162.457918 233.024015,120.732586 188.90535,91.9579202 C164.518684,75.843254 135.286685,36.707255 108.712019,28.5352552 C99.6826854,25.7579219 67.9626862,24.3032553 53.4640199,24.9565886 C48.33202,25.1885886 48.6853533,20.8365887 46.0906867,18.4859221 C39.8680202,12.8539222 46.2146867,8.71392233 52.2626866,4.47392244 C55.7640198,2.02058916 59.7533531,1.21392252 63.3266863,1.43258918" id="path56" fill="#FBC707"></path>
                <path d="M61.7506863,52.0539212 C134.225351,-1.06074409 225.640016,235.764583 397.613345,222.03125 C416.049344,220.55925 459.986676,214.320584 464.83601,213.709917 C467.337343,213.463251 467.473343,214.381917 466.83601,214.648584 C426.705344,231.553917 409.154678,246.056583 353.508012,242.60725 C291.208014,238.75125 235.441349,203.832584 196.46535,159.457919 C172.64535,132.345919 151.276017,103.05392 123.565351,82.6885871 C102.570685,66.2365876 78.3440193,64.7365876 61.7506863,52.0539212" id="path58" fill="#231F20"></path>
            </g>
        </g>
    </g>
</svg>
