
<svg width="463px" height="361px" viewBox="0 0 463 361" version="1.1" xmlns="http://www.w3.org/2000/svg" xmlns:xlink="http://www.w3.org/1999/xlink">
    <g id="Stars" transform="translate(291.393326, 256.736060) scale(-1, 1) rotate(-180.000000) translate(-291.393326, -256.736060) translate(192.077329, 230.250661)" fill="#231F20">
        <polyline id="star1" points="18.7506662 52.9707987 23.2719994 39.4761323 37.5013324 39.347999 26.0613327 30.8802659 30.3399992 17.3041329 18.7506662 25.5641327 7.15999982 17.3041329 11.4359997 30.8802659 -5.68434189e-14 39.347999 14.2279996 39.4761323 18.7506662 52.9707987"></polyline>
        <polyline id="star2" points="71.3639982 35.6682658 75.8826648 22.1718661 90.1119977 22.0427994 78.675998 13.576133 82.9506646 0 71.3639982 8.25986646 59.7746652 0 64.0493317 13.576133 52.613332 22.0427994 66.842665 22.1718661 71.3639982 35.6682658"></polyline>
        <polyline id="star3" points="124.271997 35.6682658 128.787997 22.1718661 143.018663 22.0427994 131.583997 13.576133 135.855997 0 124.271997 8.25986646 112.678664 0 116.958664 13.576133 105.517331 22.0427994 119.747997 22.1718661 124.271997 35.6682658"></polyline>
        <polyline id="star4" points="179.881329 52.9707987 184.401329 39.4786657 198.631995 39.347999 187.195995 30.8802659 191.467995 17.3041329 179.881329 25.5655994 168.290662 17.3041329 172.569329 30.8802659 161.129329 39.347999 175.359996 39.4786657 179.881329 52.9707987"></polyline>
    </g>
    <g id="Eagle" transform="translate(231.500000, 120.000000) scale(1, -1) translate(-231.500000, -120.000000) ">
        <path d="M119.936779,146.006845 C118.226414,142.941888 89.4607347,143.667799 68.3971495,141.281152 C48.2780165,139.000284 15.615058,128.887777 0,126 C17.916786,143.205014 57.6868835,161.016938 85.951268,161.974241 C107.256321,162.696185 121.054582,148.019298 119.936779,146.006845" id="yellow" fill="#F9E419"></path>
        <path d="M133.962045,158.478444 C133.331835,156.375849 112.740434,161.779491 84.1322771,163.544027 C56.6271548,165.242276 20.4546081,162.8056 0,161.13519 C19.9551738,172.954 55.8478501,183.509396 94.2973357,181.821752 C117.062713,180.820832 134.935507,161.734416 133.962045,158.478444" id="red" fill="#D92A32"></path>
        <path d="M146,167 C133.181902,169.318704 131.124861,186.602149 122.763306,188.889199 C110.662851,192.202387 90.4339821,189.229486 78.9350653,185.640639 C60.7091071,190.234522 37.8213935,188.16246 21,196.08404 C42.5011033,201.272766 82.5977591,204.96581 115.029357,198.724566 C135.046497,194.870611 144.353517,186.045555 146,167" id="black" fill="#231F20"></path>
        <path d="M128,240 C140.268351,221.991092 145.528036,189.222654 158.948745,181.925152 C161.21592,180.69121 166.845646,180.07424 171.148049,179.682828 C181.761269,178.719558 186.164227,174.850555 180.546567,175.004466 C168.431729,175.336171 156.03802,176.624512 147.968165,183.908745 C137.700853,193.179227 129.668673,223.024683 128,240" id="leftwing" fill="#231F20"></path>
        <path d="M185,198 C197.734461,193.056186 204.991906,175.404642 214.059054,163.172689 C243.453436,157.30789 267.107331,147.239519 289.803147,134.687281 C300.530966,135.727874 317.602062,134.171636 324.505551,135.252099 C325.760367,135.450117 331.89207,146.620214 343.152154,146.863417 C355.933188,147.135859 377.604392,136.053475 384.943008,130.665781 C383.955655,140.520185 363.251844,145.651386 359.376948,152.547475 C369.533911,151.405879 381.740098,144.269244 390.131269,135.253428 C399.545722,125.143859 403.328801,111.916498 401.589623,110.586186 C397.638879,107.56541 398.607603,118.084305 375.842592,129.812574 C363.551243,136.146504 349.978464,142.560173 340.365742,140.574673 C333.343825,124.00625 310.552201,132.147596 289.614193,129.50425 C289.715323,117.794587 290.598885,97 287.289522,97 C282.488484,97 282.236988,120.238585 281.277579,132.833351 C261.718139,143.583489 236.116152,154.000053 205.92204,159.690755 C199.399122,172.923432 187.683951,185.317522 185,198" id="back" fill="#231F20"></path>
        <path d="M423.422011,142 C440.312184,128.991219 455.183357,110.713414 463,88.5958132 C461.906707,87.131824 460.609919,86.6585343 459.488695,85.7948476 C457.429794,84.2132044 465.730571,62.2266269 458.271709,60.7425831 C440.489079,57.2089544 410.049793,91.8192634 354.863789,94.0065568 C367.932758,85.0648584 377.917366,74.1698374 377.652688,59.4657706 C377.551605,54.0122437 370.837565,59.5179127 370.917367,49.8636058 C371.00116,39.4458854 341.429059,41.9995104 339.613555,55.86663 C342.313535,55.86663 345.183761,54.8893002 347.901032,54.8893002 C348.691075,56.5070417 349.060826,58.0579344 349.060826,60.2479018 C340.595124,72.1162416 323.093133,72.8395459 315.470676,67.95156 C307.177879,62.6370787 304.576321,56.4147903 305.846509,37.6209126 C313.144436,34.1594806 319.64301,37.4069963 325.233166,32.3064312 C328.531665,29.3009082 328.539645,27.0360701 328.176544,23.2042956 C337.254064,21.196157 342.15659,10.24632 337.4283,4.66845432 C332.533754,7.00548914 336.708748,14.444426 326.180155,17.909869 C323.944358,17.4446012 324.084012,16.6811876 320.370542,13.8962657 C328.357429,8.24085536 331.989768,7.00548914 329.293777,0 C326.271927,1.94489962 327.813443,5.13773305 319.65897,9.64334365 C315.529197,11.9242254 311.60159,13.029905 310.705144,15.1811 C313.205618,19.6920585 322.469344,17.3857742 322.32304,24.5252284 C319.204097,33.9402164 300.814969,34.874763 294.440089,28.0281066 C292.597984,33.056475 296.952534,35.4296082 299.85601,37.8014044 C297.680066,61.7987945 306.027394,76.125834 328.132653,74.759444 C322.716731,80.5980201 313.653841,80.1381003 307.119357,88.7148041 C324.908637,85.43119 341.202952,73.4893164 354.870439,63.0796179 C354.116307,53.8999377 353.592271,51.6711979 351.779427,50.3930485 C353.068235,48.0586876 362.850677,49.1189099 363.816286,51.8476788 C365.079823,56.5939452 362.395803,62.3456178 371.136824,61.9124375 C370.779043,76.06567 360.847637,83.1730368 349.060826,92.6107534 C341.007436,99.0576538 326.483404,99.4239854 315.95348,102.708936 C328.008959,106.239891 344.281994,103.444274 350.221951,96.947905 C390.262793,108.971334 415.496305,74.1698374 452.904999,67.4742594 C455.253849,69.4930939 453.072584,76.6713203 453.435685,83.6062171 C449.90842,83.4217144 448.784537,82.5767453 446.20692,81.7772334 C439.15638,79.5899399 437.342206,105.381552 423.422011,142" id="rightwing" fill="#231F20"></path>
        <path d="M113.692972,138.982276 C123.125753,135.961125 118.87235,121.229993 135.309128,116.726464 C167.899533,107.793257 181.971784,117.811393 210.47889,100.707651 C217.149745,96.7022761 207.688703,94.9620932 222.608808,82.8680905 C235.022677,72.8029585 266.519936,76.7586521 264.942874,71.6267238 C264.505616,70.2074542 244.551708,70.823769 227.947892,70.6962093 C212.399894,70.5740205 200.681906,69.6609616 189.399842,68.6069156 C185.973764,68.6069156 187.84411,73.2970845 185.907109,74.4719765 C171.86152,73.7522713 142.762515,68.5881174 128.59828,68 C163.778907,82.623713 202.836202,72.9708002 211.525377,80.3356947 C208.411245,90.4827335 203.913351,95.6858267 200.008688,99.3635743 C191.299516,107.560964 153.863276,108.785537 132.238322,109.015144 C120.716833,109.137333 115.452137,123.508612 110.619633,132.335744 C90.2663275,132.71708 73.1400676,123.981254 58,123.919489 C59.8959412,132.594891 76.2879272,133.293113 84.6896848,134.833228 C93.7562617,136.488819 111.493883,139.246794 113.692972,138.982276" id="path34" fill="#231F20"></path>
        <path d="M365.718299,63.4227637 C360.261564,61.0773086 350.444584,68.9629588 349.034036,75.4463629 C348.476315,78.5683449 354.894172,80.8608851 359.373541,76.8830038 C364.639406,72.2119367 369.350256,64.9877233 365.718299,63.4227637" id="eye" fill="#231F20"></path>
        <path d="M283.242085,21.2390534 C292.914559,27.7184535 307.065054,25.5595327 300.174563,6 C294.730224,13.796909 298.358897,18.9601192 292.992981,19.5535916 C285.463152,20.3897284 283.967819,12.2380547 278.039658,11.8780148 C278.163272,32.3989728 265.461587,23.1579476 257,21.8589023 C261.645499,34.5578937 279.500431,33.721757 283.242085,21.2390534" id="path26" fill="#231F20"></path>
        <path d="M263,56.3939617 C255.482648,48.2972776 247.844028,37.3808394 242.171033,31 C238.270432,36.5653752 243.481005,42.9812593 244.500466,47.4979879 C232.198981,55.7793308 204.144508,52.9609245 190,55.6566742 C214.232498,60.3162775 246.119608,59.6666018 263,56.3939617" id="path28" fill="#231F20"></path>
        <path d="M249.093931,66.269543 C255.390702,63.5454674 227.594346,65.3922304 205.132053,64.4361333 C181.029838,63.4132696 153.541548,59.0814552 151,59 C166.950405,65.2880746 238.242556,70.9645675 249.093931,66.269543" id="path30" fill="#231F20"></path>
        <path d="M414.605071,107.962897 C410.92785,114.525299 399.34103,132.856712 385,157 C400.995713,150.772511 423.840571,127.784604 429,115.583837 C423.975317,110.433717 416.444356,104.679679 414.605071,107.962897" id="yellow" fill="#F9E419"></path>
        <path d="M429.518667,96.3719792 C425.150668,105.490693 409.306334,129.359679 388,162 C412.218778,148.322597 440.078443,123.705409 447,107.291723 C440.262556,100.360164 430.447233,94.4346699 429.518667,96.3719792" id="red" fill="#D92A32"></path>
    </g>
    <g id="Honamas" transform="translate(81.737443, 334.893782)" fill="#272C2A">
        <polygon id="H" points="1.18423786e-14 0.454422601 12.0971457 0.454422601 12.0971457 10.0309655 29.9443639 10.0309655 29.9443639 0.454422601 42.0415103 0.454422601 42.0415103 25.5823288 29.9443639 25.5823288 29.9443639 14.928635 12.0971457 14.928635 12.0971457 25.5823288 1.18423786e-14 25.5823288"></polygon>
        <path d="M71.4939109,4.69570402 C67.8071616,4.69570402 64.9478364,5.42502479 62.9159351,6.88366631 C60.8840329,8.34230784 59.8680818,10.3956263 59.8680818,13.0436216 C59.8680818,15.6803965 60.8840329,17.7281049 62.9159351,19.1867466 C64.9478364,20.6453882 67.8071616,21.374709 71.4939109,21.374709 C75.2016077,21.374709 78.0714072,20.6453882 80.1033093,19.1867466 C82.1352106,17.7281049 83.1511613,15.6803965 83.1511613,13.0436216 C83.1511613,10.3956263 82.1352106,8.34230784 80.1033093,6.88366631 C78.0714072,5.42502479 75.2016077,4.69570402 71.4939109,4.69570402 L71.4939109,4.69570402 Z M71.4939109,0 C79.0349889,0 84.942167,1.15569289 89.2154451,3.46707866 C93.4887223,5.77846443 95.6253609,8.9706454 95.6253609,13.0436216 C95.6253609,17.1053773 93.4887223,20.2919481 89.2154451,22.6033339 C84.942167,24.9147198 79.0349889,26.0704127 71.4939109,26.0704127 C63.9737804,26.0704127 58.0666028,24.9147198 53.772378,22.6033339 C49.4990999,20.2919481 47.3624608,17.1053773 47.3624608,13.0436216 C47.3624608,8.9706454 49.4990999,5.77846443 53.772378,3.46707866 C58.0666028,1.15569289 63.9737804,0 71.4939109,0 L71.4939109,0 Z" id="O"></path>
        <polygon id="N" points="103.668638 0.454422601 117.179736 0.454422601 134.241419 17.6888339 134.241419 0.454422601 145.710152 0.454422601 145.710152 25.5823288 132.199045 25.5823288 115.13736 8.34791755 115.13736 25.5823288 103.668638 25.5823288"></polygon>
        <path d="M181.042777,21.0044384 L162.127245,21.0044384 L159.142231,25.5823288 L146.982245,25.5823288 L164.358151,0.454422601 L178.780458,0.454422601 L196.156364,25.5823288 L183.996377,25.5823288 L181.042777,21.0044384 Z M165.143671,16.3423952 L177.994924,16.3423952 L171.585018,6.34509085 L165.143671,16.3423952 Z" id="A"></path>
        <polygon id="M" points="195.49699 0.454422601 210.89335 0.454422601 221.57655 13.9019758 232.322576 0.454422601 247.687522 0.454422601 247.687522 25.5823288 236.250229 25.5823288 236.250229 7.20344505 225.44135 20.7519812 217.77459 20.7519812 206.96571 7.20344505 206.96571 25.5823288 195.49699 25.5823288"></polygon>
        <path d="M281.172148,21.0044384 L262.256615,21.0044384 L259.271602,25.5823288 L247.111616,25.5823288 L264.487522,0.454422601 L278.909828,0.454422601 L296.285735,25.5823288 L284.125748,25.5823288 L281.172148,21.0044384 Z M265.273042,16.3423952 L278.124295,16.3423952 L271.714389,6.34509085 L265.273042,16.3423952 Z" id="A"></path>
        <path d="M328.272934,1.24545523 L328.272934,6.56388686 C325.696401,5.9467692 323.182712,5.48112598 320.731867,5.1669572 C318.281014,4.85278842 315.966321,4.69570402 313.787787,4.69570402 C310.897041,4.69570402 308.760401,4.90889009 307.377868,5.33526221 C305.995334,5.76163433 305.304068,6.42363304 305.304068,7.32125834 C305.304068,7.99447743 305.764912,8.52183251 306.686601,8.90332359 C307.629241,9.27359428 309.325983,9.59337349 311.776828,9.86266122 L316.929907,10.4180665 C322.145818,10.9790828 325.853512,11.8318273 328.052987,12.9763 C330.252472,14.1207723 331.352214,15.7477186 331.352214,17.8571389 C331.352214,20.6285577 329.812578,22.6930965 326.733307,24.0507552 C323.674978,25.3971936 318.993223,26.0704127 312.688041,26.0704127 C309.713508,26.0704127 306.728499,25.9189384 303.733014,25.6159898 C300.73753,25.3130412 297.742046,24.8642284 294.746561,24.2695515 L294.746561,18.7996456 C297.742046,19.6523899 300.632792,20.2975583 303.418801,20.7351507 C306.225761,21.1615229 308.927983,21.374709 311.525468,21.374709 C314.164845,21.374709 316.186272,21.1390823 317.589747,20.6678288 C318.993223,20.1965754 319.694961,19.5233562 319.694961,18.6481713 C319.694961,17.862749 319.21317,17.2568518 318.249587,16.8304797 C317.306956,16.4041076 315.411214,16.0226167 312.562361,15.6860072 L307.880614,15.1306011 C303.188383,14.5920257 299.753001,13.7336712 297.574468,12.5555378 C295.416886,11.3774039 294.338095,9.78972874 294.338095,7.79251223 C294.338095,5.29038092 295.846308,3.36609594 298.862735,2.01965728 C301.87917,0.673219092 306.21529,0 311.871094,0 C314.447627,0 317.097481,0.106592912 319.820654,0.319778735 C322.543818,0.521744653 325.361245,0.830303483 328.272934,1.24545523 L328.272934,1.24545523 Z" id="S"></path>
    </g>
</svg>
