
<svg width="350px" height="454px" viewBox="0 0 350 454" version="1.1" xmlns="http://www.w3.org/2000/svg" xmlns:xlink="http://www.w3.org/1999/xlink">
    <g id="Eagle" transform="translate(252.000000, 161.285000) scale(1, -1) translate(-252.000000, -161.285000) translate(77.000000, 0.000000)">
        <path d="M310.732195,217.067545 C310.732195,217.067545 287.895954,242.255072 228.939083,220.196391 C223.618296,218.206471 211.74,208.189686 211.74,202.978142 C211.74,197.7634 224.391648,177.457896 263.113552,150.229261 C302.081522,122.827868 308.67738,107.35 308.67738,107.35 C308.67738,107.35 326.039442,121.330629 311.201958,155.911091 C289.707898,205.982218 310.732195,217.067545 310.732195,217.067545" id="mouth" fill="#231F20"></path>
        <path d="M263.17,165.07 C263.17,165.07 275.77186,156.440245 287.859163,145.852237 C298.799099,136.272153 304.676559,127.62 304.676559,127.62 C304.676559,127.62 307.495438,137.699246 301.598803,149.0168 C296.651382,158.504091 292.119442,165.07 292.119442,165.07 L283.464652,165.07 L293.356297,150.251908 L275.909289,165.07 L263.17,165.07" id="tounge" fill="#FFFFFF"></path>
        <path d="M333.658675,216.585593 C312.97652,266.055878 269.781112,261.247067 229.787731,241.010387 C214.915242,233.485221 197.294506,227.025481 181.140568,226.363189 C151.328482,225.144189 111.409559,240.709636 111.409559,240.709636 C111.409559,240.709636 124.722577,229.354699 143.205176,223.266097 C161.688733,217.177496 193.760133,213.302932 193.760133,213.302932 C193.760133,213.302932 180.434332,210.442601 149.78499,215.126632 C119.139162,219.813864 93.63,230.637688 93.63,230.637688 C93.63,230.637688 110.267438,215.971294 147.461762,206.603231 C175.330902,199.580383 194.118044,203.048614 199.691233,202.802254 C199.52506,210.426603 215.416957,224.750654 227.212048,229.181927 C301.133494,256.982167 330.686734,222.287058 333.86,216.05448 C333.7865,216.233651 333.73537,216.406422 333.658675,216.585593" id="beak" fill="#231F20"></path>
        <path d="M343.49343,279.2826 C341.007201,286.794733 291.736406,306.138155 254.810474,314.35415 C194.140735,327.849114 89.2477584,320.65372 89.2477584,320.65372 L107.261094,308.675259 C107.261094,308.675259 95.6368555,307.897811 75.7911241,302.506864 C54.0893493,296.610415 47.7229415,292.854349 47.7229415,292.854349 L62.7502461,283.041866 C62.7502461,283.041866 54.9071205,280.044051 32.5374513,257.181316 C10.1652255,234.324981 -0.233155428,205.565798 0.00396306616,202.340828 C0.0912047761,201.169856 3.42684202,194.348789 9.91180913,184.05 L71.4034733,201.128264 L18.0633166,201.128264 C18.0633166,201.128264 19.7020547,210.26248 34.9067188,233.214797 C50.11362,256.170314 89.1828864,284.510379 89.1828864,284.510379 C89.1828864,284.510379 95.0338332,286.615568 107.433341,288.490401 C119.83157,290.365235 133.635254,291.302652 133.635254,291.302652 C133.635254,291.302652 121.1958,284.798323 106.028845,273.267775 C87.5476636,259.21292 76.0819298,236.494157 76.0819298,236.494157 C76.0819298,236.494157 83.0999342,245.628373 98.0735517,257.341285 C113.04685,269.050998 126.147806,273.501329 126.147806,273.501329 C126.147806,273.501329 144.396982,246.332235 189.548562,248.674178 C227.918936,250.664189 247.866289,277.84608 252.995335,285.972493 C252.627833,285.620562 252.237962,285.252634 251.790569,284.849513 C243.587291,277.398168 228.481373,267.220956 204.082455,260.79661 C179.683538,254.372265 168.872596,267.755251 168.872596,267.755251 C168.872596,267.755251 176.890525,285.594967 187.842076,286.641163 C189.427126,286.788334 191.507506,285.905306 193.744473,284.50398 C191.811094,278.748304 189.577323,271.24257 190.718176,270.343546 C191.712028,269.556499 197.873274,273.066214 203.443322,276.531137 C206.856294,273.23898 209.380871,270.404334 209.380871,270.404334 C209.380871,270.404334 209.380871,270.404334 222.393628,273.590911 C234.546749,276.56633 245.555822,281.311004 252.889878,288.759149 C247.716093,290.438821 227.899762,296.101715 186.97605,299.265897 C133.569104,303.399489 84.9725951,291.77296 81.6992733,291.302652 C81.6992733,291.302652 99.3940013,296.802378 111.40907,299.499451 C124.978192,302.545256 136.673055,303.949782 136.673055,303.949782 L127.065282,311.63788 C127.065282,311.63788 201.433247,313.250365 242.842701,304.586458 C283.804761,296.012132 327.221093,278.367579 331.666266,273.920447 C334.842759,270.740268 342.317424,257.578039 343.487038,229.938637 C343.752279,223.62947 340.054892,206.637588 339.537194,200.712346 C346.896815,214.827989 356.704317,239.379993 343.49343,279.2826" id="eye" fill="#231F20"></path>
        <path d="M196.304745,105.919126 C166.142957,61.8232155 208.981068,17.7973693 234.324128,1.69210819 C235.324302,1.12967178 236.308498,0.565955641 237.337431,0 C237.337431,0 188.165951,90.5816963 254.89,136.53 C248.904935,135.829354 213.246985,130.694482 196.304745,105.919126" id="gold" fill="#FCD006"></path>
        <path d="M185.946657,111.553614 C212.297825,139.015966 248.699251,138.14897 253.674848,137.912225 C253.687631,137.931421 253.700413,137.950616 253.71,137.969812 C243.899415,140.641184 218.375914,145.750385 183.80878,138.814413 C128.953547,127.808997 109.477777,97.329754 103.23,83.0898976 C129.057405,62.1508142 153.85294,45.5435136 174.896167,32.91 C166.29353,55.2599522 163.00203,87.6328309 185.946657,111.553614" id="red" fill="#ED1C24"></path>
        <path d="M81.391242,101.54 C97.0135916,112.692631 120.768114,130.854847 158.377179,140.881338 C204.582418,153.2017 239.216375,143.95263 251.12,140.167902 C235.560604,151.845212 216.463674,166.843357 189.847488,172.886765 C152.065861,181.463989 95.12467,177.228165 44.9,137.717266 C53.1612756,128.356223 62.5445279,118.620865 73.0363351,108.984685 C75.8238606,106.422075 78.6075513,104.003433 81.391242,101.54" id="black" fill="#231F20"></path>
    </g>
    <g id="Junamas" transform="translate(93.650193, 365.000000)" fill="#231F20">
        <path d="M307.541408,64.4769201 L307.541408,72.2126533 C307.541408,75.7340435 305.825335,77.4936189 302.389993,77.4936189 L300.552484,77.4936189 C297.197034,77.4936189 295.519309,75.7340435 295.519309,72.2126533 L295.519309,57.59858 C295.519309,55.9602554 295.845267,54.8568417 296.500379,54.2844998 C297.15549,53.7083189 298.219647,52.9721765 299.689654,52.0699942 L310.855315,46.0551258 C313.309587,44.6605823 315.044834,43.5757241 316.067448,42.7983117 C317.090061,42.0212192 317.885782,41.0812861 318.461002,39.9740333 C319.033027,38.8706196 319.320637,36.7623283 319.320637,33.651719 L319.320637,14.8600939 C319.320637,4.95112517 314.575071,0 305.090332,0 L297.852146,0 C288.447298,0 283.743276,5.40605539 283.743276,16.2098482 L283.743276,20.6311812 L295.519309,20.6311812 L295.519309,15.8422569 C295.519309,12.4030868 297.276926,10.6847815 300.795355,10.6847815 L302.87893,10.6847815 C305.988314,10.6847815 307.541408,12.4030868 307.541408,15.8422569 L307.541408,30.8274406 C307.541408,32.4644855 307.21545,33.5656598 306.563534,34.1418407 C305.905227,34.7141826 304.84107,35.450005 303.374258,36.3525072 L292.205402,42.6133963 C289.754325,43.92444 287.974339,45.0291334 286.868638,45.933875 C285.769329,46.8325382 284.970412,47.9970571 284.478279,49.4306312 C283.989342,50.8638853 283.743276,52.7283953 283.743276,55.0190426 L283.743276,73.0735656 C283.743276,83.1437754 288.447298,88.18 297.852146,88.18 L305.211767,88.18 C314.616615,88.18 319.320637,83.1437754 319.320637,73.0735656 L319.320637,64.4769201 L307.541408,64.4769201" id="path40" transform="translate(301.531956, 44.090000) scale(1, -1) translate(-301.531956, -44.090000) "></path>
        <path d="M262.349807,42.7539394 L262.349807,72.297641 C262.349807,75.7631221 260.696326,77.4915152 257.386283,77.4915152 L254.313332,77.4915152 C251.006368,77.4915152 249.349807,75.7631221 249.349807,72.297641 L249.349807,42.7539394 L262.349807,42.7539394 Z M249.110784,0 L237.349807,0 L237.349807,73.0735656 C237.349807,83.1437754 242.044623,88.18 251.437446,88.18 L260.262168,88.18 C269.6518,88.18 274.349807,83.1437754 274.349807,73.0735656 L274.349807,0 L262.585639,0 L262.585639,32.2984456 L249.110784,32.2984456 L249.110784,0" id="path38" transform="translate(255.849807, 44.090000) scale(1, -1) translate(-255.849807, -44.090000) "></path>
        <polyline id="path36" transform="translate(203.146955, 44.090000) scale(1, -1) translate(-203.146955, -44.090000) " points="203.145358 36.3525072 214.064952 88.18 227.068121 88.18 227.068121 0 215.292088 0 216.519224 57.7236699 207.6864 15.9635076 198.60751 15.9635076 189.774687 57.7236699 190.998627 1.81855054e-14 179.22579 1.81855054e-14 179.22579 88.18 192.228959 88.18 203.145358 36.3525072"></polyline>
        <path d="M156.349807,42.98775 L156.349807,72.0485257 C156.349807,75.4573596 154.696717,77.1575 151.38438,77.1575 L148.312156,77.1575 C145.005976,77.1575 143.349807,75.4573596 143.349807,72.0485257 L143.349807,42.98775 L156.349807,42.98775 Z M143.110784,0 L131.349807,0 L131.349807,73.0735656 C131.349807,83.1437754 136.044623,88.18 145.437446,88.18 L154.262168,88.18 C163.654992,88.18 168.349807,83.1437754 168.349807,73.0735656 L168.349807,0 L156.588831,0 L156.588831,32.2984456 L143.110784,32.2984456 L143.110784,0" id="path34" transform="translate(149.849807, 44.090000) scale(1, -1) translate(-149.849807, -44.090000) "></path>
        <polyline id="path32" transform="translate(103.230591, 44.090000) scale(1, -1) translate(-103.230591, -44.090000) " points="109.547466 45.5627646 109.547466 88.18 121.326695 88.18 121.326695 0 109.547466 0 109.547466 17.5596024 96.912118 57.7236699 96.912118 1.81855054e-14 85.1344871 1.81855054e-14 85.1344871 88.18 96.912118 88.18 109.547466 45.5627646"></polyline>
        <path d="M74.093138,16.7022093 C74.093138,5.56601678 69.3494898,0 59.8625131,0 L49.925906,0 C40.5200993,0 35.8202318,5.60728682 35.8202318,16.8247398 L35.8202318,88.18 L47.5940278,88.18 L47.5940278,16.4597079 C47.5940278,12.6068777 49.3142554,10.6847815 52.7470409,10.6847815 L57.5344697,10.6847815 C60.7237454,10.6847815 62.3180637,12.6068777 62.3180637,16.4597079 L62.3180637,88.18 L74.093138,88.18 L74.093138,16.7022093 Z" id="path30" transform="translate(54.956685, 44.090000) scale(1, -1) translate(-54.956685, -44.090000) "></path>
        <path d="M0,10.6847815 L7.72680332,10.6847815 C11.2433153,10.6847815 13.0034887,12.8119482 13.0034887,17.0707604 L13.0034887,88.18 L24.7788826,88.18 L24.7788826,14.8600939 C24.7788826,4.95112517 20.241355,0 11.1621454,0 L0,0 L0,10.6847815" id="path28" transform="translate(12.389441, 44.090000) scale(1, -1) translate(-12.389441, -44.090000) "></path>
    </g>
</svg>
