
<svg width="412px" height="503px" viewBox="0 0 412 503" version="1.1" xmlns="http://www.w3.org/2000/svg" xmlns:xlink="http://www.w3.org/1999/xlink">
    <g id="Symbols" stroke="none" stroke-width="1" fill="none" fill-rule="evenodd">
        <g id="Artboard" transform="translate(-46.000000, 0.000000)" fill="#000000" fill-rule="nonzero">
            <g id="Eagle" transform="translate(252.000000, 251.500000) scale(-1, 1) rotate(-180.000000) translate(-252.000000, -251.500000) translate(46.000000, 0.000000)">
                <path d="M132.773215,502.305781 C122.911678,499.494624 115.584008,492.706708 110.310825,481.46208 C108.872684,478.445228 106.270334,475.154117 101.545014,470.148887 C80.7946968,448.550972 65.1121135,425.718891 58.6062383,407.549217 C56.4832685,401.652644 53.6754698,388.351071 52.9906408,381.220331 C52.1003631,371.141304 48.2653209,363.256351 40.0473734,354.68575 C34.4317758,348.720612 29.2270757,344.675288 20.6667136,339.601493 C17.1740859,337.544548 14.2978043,335.556169 14.2978043,335.213345 C14.2978043,333.636354 24.7072045,330.482373 30.0488705,330.482373 C31.4870113,330.482373 32.8566692,330.208114 33.0621179,329.933855 C33.2675666,329.591031 31.2130797,327.671216 28.4737638,325.614272 C17.3110517,317.31793 7.31254881,306.073302 2.38178026,296.474229 C-0.289052705,291.194738 -0.631467187,289.686313 0.943639433,290.234831 C3.40902371,291.194738 17.9273978,295.582886 22.7896834,296.817053 C27.9259007,298.188349 31.4185284,298.599738 31.4185284,297.982654 C31.4185284,297.77696 29.5010073,295.102932 27.1041059,291.948951 C22.3103032,285.640989 15.0511161,273.779277 11.4215226,266.374278 C8.40827516,260.27201 5.25806191,252.387057 5.5319935,251.632844 C5.66895929,251.29002 12.7911805,254.238307 21.4200255,258.146501 C29.9803876,262.12326 37.4450233,265.345806 37.9244036,265.345806 C39.1570957,265.345806 41.3485484,255.678168 43.4715182,241.348123 C45.6629709,226.675254 46.3477998,206.997154 45.1151077,192.39285 C44.6357274,186.496277 44.4302787,181.491046 44.6357274,181.285352 C45.1835906,180.668268 48.4707696,195.272572 49.8404276,205.008775 C53.4015382,228.800763 53.6069869,252.387057 50.5252565,278.578814 C50.1143591,282.212749 49.4980131,285.2296 49.0871157,285.2296 C48.7447012,285.2296 43.6769669,282.692702 37.7874378,279.607286 C29.8434218,275.493397 27.1725888,274.327796 27.5834862,275.287703 C28.7476954,278.373119 42.3757918,296.474229 50.4567736,305.730478 L54.15485,309.912931 L52.168846,309.912931 C51.1416026,309.844366 43.6769669,309.021588 35.7329509,307.993116 C27.720452,306.964644 21.1460939,306.347561 21.1460939,306.62182 C21.1460939,306.896079 24.2963072,309.501542 28.1998323,312.381264 C48.881667,328.01404 65.8654253,341.932696 65.3175622,342.824039 C65.1121135,343.098298 63.3315582,342.961168 61.3455542,342.41265 C56.4832685,341.109918 41.9648945,338.71015 38.8146812,338.71015 C35.9383996,338.71015 35.3220535,339.738622 37.7874378,340.42427 C41.3485484,341.521307 50.2513249,347.417881 54.9081619,351.737464 C63.4000411,359.690981 67.1666004,367.850193 68.3992925,381.083201 C70.6592281,404.943754 81.8904231,429.147131 99.5590104,448.208148 C102.846189,451.704953 105.722471,454.584675 106.064886,454.584675 C106.4073,454.584675 106.749715,453.419073 106.88668,452.047777 C107.092129,449.510879 107.092129,449.510879 111.885932,457.190138 C120.377811,470.834535 130.924177,481.804904 137.909433,484.273237 C149.825457,488.524255 166.672249,487.290088 179.889448,481.32495 C182.354832,480.159348 184.272353,479.405136 184.066905,479.542265 C183.929939,479.74796 180.437311,483.31333 176.39682,487.427218 C172.287847,491.541107 169.137633,495.243606 169.343082,495.58643 C169.548531,495.929254 172.904193,496.134949 176.739235,495.997819 C180.64276,495.929254 190.709746,495.654995 199.201625,495.380736 C240.907709,494.283699 273.368602,490.924023 301.104175,484.958885 C302.610799,484.616061 303.227145,485.644533 301.92597,486.467311 C300.28238,487.495783 301.378107,488.249996 303.843491,487.770042 C307.815499,487.084394 312.746267,484.067542 315.006203,481.050691 C317.471587,477.691015 317.608553,479.130876 315.348617,484.273237 C313.294131,489.004209 309.527571,492.775273 306.377358,493.392356 C303.706525,493.87231 298.707274,493.460921 293.365608,492.295319 C289.256634,491.403977 276.86123,492.295319 258.096916,494.763652 C232.826727,498.054763 212.966687,500.454532 201.256112,501.551568 C190.367331,502.580041 168.384321,503.197124 155.372571,502.785735 C152.564772,502.648605 147.017658,502.71717 143.04565,502.922865 C138.32033,503.128559 134.759219,502.922865 132.773215,502.305781 Z" id="Path"></path>
                <path d="M288.503322,475.565506 C281.928964,473.988516 274.053431,467.954813 268.026936,459.864165 C266.246381,457.532962 260.151403,446.356898 254.535805,435.043705 C248.098413,422.222086 242.82523,412.623013 240.565294,409.606161 C233.922453,400.761301 224.334848,392.807783 213.856965,387.391164 L208.446816,384.580006 L212.624273,384.922831 C222.143395,385.745608 232.826727,391.436487 241.661021,400.349912 C248.02993,406.795004 251.454075,412.554448 263.780996,437.100649 C274.327362,458.08148 283.093173,469.05185 291.379604,471.451618 C296.104924,472.822914 305.966461,472.822914 312.403853,471.520183 C314.93772,470.971664 316.992207,470.697405 316.992207,470.971664 C316.992207,471.794442 307.61005,475.085553 303.227145,475.771201 C297.611547,476.731108 292.886227,476.662543 288.503322,475.565506 Z" id="Path"></path>
                <path d="M160.166374,474.879858 C152.907187,472.822914 145.16862,467.749118 138.457296,460.549813 C132.567767,454.241851 131.198109,451.567824 135.375565,454.51611 C138.32033,456.573055 147.086141,459.452776 151.742978,459.864165 C154.139879,460.06986 156.0574,460.06986 156.0574,459.795601 C156.0574,459.589906 153.797465,457.258703 151.126632,454.65324 C142.566269,446.494028 139.210608,438.951899 139.963919,429.284261 C140.374817,422.770604 142.429304,418.382457 146.538277,414.474263 C150.441803,410.840328 154.413811,408.851948 161.056652,407.343523 L165.713489,406.246486 L164.138382,403.846717 C159.481545,396.990237 148.935179,395.276116 134.553771,399.047181 C131.609006,399.869959 129.006656,400.349912 128.86969,400.144218 C128.664241,400.007088 130.51328,398.361533 132.910181,396.647413 C138.32033,392.602089 149.688491,387.04834 154.756225,385.951303 C160.029408,384.854266 171.876949,385.471349 175.91744,387.04834 C183.656007,390.133756 193.791476,399.595699 200.571283,410.15468 L204.337842,415.982688 L209.337094,416.462642 C215.432071,416.942596 223.513053,419.548058 228.854719,422.770604 C231.046172,424.073336 233.100659,425.101808 233.37459,425.101808 C233.648522,425.101808 233.443073,421.673567 232.963693,417.422549 C232.484313,413.171531 232.141898,409.263337 232.210381,408.646254 C232.552796,407.000699 241.455572,420.987919 246.797238,431.615465 C249.468071,436.894955 254.467322,445.945509 257.95995,451.704953 C261.452578,457.395832 264.260377,462.401063 264.260377,462.743887 C264.260377,463.086711 262.20589,462.401063 259.672023,461.166897 C243.30461,453.213379 237.483564,451.499259 226.937198,451.567824 C217.555041,451.567824 215.363588,452.253472 208.446816,457.532962 C203.173633,461.509721 190.298848,468.023377 179.273102,472.411525 C169.890945,476.114025 166.329835,476.593978 160.166374,474.879858 Z M175.506543,456.573055 C178.930688,453.830462 179.067653,452.733425 176.054406,449.510879 C174.547782,447.933889 172.972676,445.396991 172.493295,444.025695 C171.329086,440.52889 171.945432,434.426622 173.589022,432.163983 C176.39682,428.392919 184.272353,427.638706 189.887951,430.655557 C193.106647,432.369677 193.722993,432.301113 193.722993,430.312733 C193.722993,426.747363 185.778977,422.770604 178.656756,422.770604 C172.561778,422.770604 166.055903,426.953058 162.357827,433.26102 C160.851203,435.866483 160.577271,437.169214 160.577271,441.214538 C160.577271,446.425463 161.878446,449.716574 165.50804,453.624768 C169.822462,458.287175 172.356329,459.041388 175.506543,456.573055 Z" id="Shape"></path>
                <path d="M317.403104,463.4981 C312.403853,461.715415 307.199153,458.35574 303.638042,454.65324 C302.199901,453.144814 300.624795,451.842083 300.213897,451.842083 C299.871483,451.842083 298.844239,452.93912 297.953962,454.241851 C294.940714,458.972823 289.3936,459.864165 285.353109,456.36736 C280.90172,452.596296 275.833986,440.597454 276.86123,436.483566 C277.409093,434.152362 279.669028,434.152362 282.819242,436.483566 C286.243386,439.020464 295.694026,444.09426 300.624795,446.082639 C315.896481,452.047777 331.031201,450.539351 340.618806,442.10588 C343.700537,439.431853 348.357374,432.918196 351.096689,427.433011 C361.095192,407.412087 362.053953,369.632878 353.082693,344.538159 C352.123933,341.932696 351.165172,339.121539 350.891241,338.367326 L350.41186,336.99603 L351.57607,338.367326 C353.356625,340.5614 358.424359,351.600334 360.34188,357.565472 C364.793269,371.209869 366.299892,380.123294 366.779273,394.247644 C367.121687,404.60093 366.984721,406.315051 365.341132,414.474263 C359.999466,440.734584 351.918484,454.927499 338.221905,461.78398 C333.770517,464.046619 332.332376,464.389443 327.264641,464.663702 C322.607804,464.869396 320.6218,464.595137 317.403104,463.4981 Z" id="Path"></path>
                <path d="M120.788708,442.585834 C116.474286,440.734584 113.598004,436.346436 113.598004,431.752594 C113.598004,429.69565 113.118624,429.147131 108.804201,426.198845 C101.887429,421.467873 93.258584,412.074494 90.1083707,405.835097 C88.0538838,401.721208 87.300572,399.390005 86.5472601,393.561996 C85.1091193,382.591627 82.0958718,374.775239 75.6584796,365.176166 C73.9464071,362.570703 72.5082663,360.308065 72.5082663,360.10237 C72.5082663,359.965241 73.6724756,360.650889 75.1106164,361.679361 C85.5884996,369.495749 91.6834773,379.506211 93.6694813,392.053571 C95.1761051,401.652644 104.078882,412.760142 112.365312,415.43417 C114.693731,416.188383 115.036145,416.119818 117.638495,414.268568 C120.309328,412.280189 126.26734,410.15468 127.020652,410.908893 C127.226101,411.114587 126.609755,412.828707 125.650994,414.748522 C122.021401,421.879262 120.857191,431.40977 122.569264,439.500417 C122.980161,441.420232 123.18561,443.134352 123.048644,443.271482 C122.980161,443.408611 121.952918,443.065787 120.788708,442.585834 Z" id="Path"></path>
                <path d="M322.402356,417.491114 C327.059193,414.268568 332.332376,407.960606 330.825752,407.412087 C330.483338,407.343523 327.333124,407.960606 323.772014,408.920513 C316.101929,410.908893 309.459088,411.8688 312.198404,410.634633 C313.157165,410.15468 316.101929,408.783384 318.841245,407.549217 C326.305881,404.189541 333.359619,398.361533 338.906734,391.162228 L340.48184,389.105284 L340.00246,393.219172 C338.975217,402.406856 335.345623,410.497504 330.07244,415.43417 C327.264641,418.108197 321.512078,420.987919 319.115177,420.987919 C317.814002,420.987919 318.498831,420.233706 322.402356,417.491114 Z" id="Path"></path>
                <path d="M286.174904,385.745608 C276.039435,384.442877 264.534308,382.248803 253.166147,379.506211 C241.387089,376.626489 224.540297,371.621258 224.540297,370.93561 C224.540297,370.729915 226.800232,370.729915 229.539548,371.004175 C254.946703,373.746767 292.612296,375.049498 304.665286,373.746767 C313.910477,372.718295 320.347869,370.661351 318.841245,369.152925 C318.704279,368.94723 315.827998,368.535841 312.472336,368.193017 C286.654284,365.313296 254.741254,357.085519 228.306856,346.595103 C215.021174,341.315613 191.05216,329.522466 191.873955,328.699688 C192.010921,328.493994 195.503548,329.316771 199.612522,330.413808 C217.555041,335.213345 240.428329,339.601493 257.754501,341.589872 C267.479073,342.618344 290.900223,342.686909 298.981205,341.589872 C317.471587,339.121539 333.428102,332.059364 340.755772,323.214504 L343.289639,320.060522 L343.905985,321.980337 C344.2484,323.077374 344.659297,329.248207 344.864746,335.624734 C345.275643,348.652047 344.385366,355.851352 341.166669,366.136073 C337.811007,376.557924 333.359619,381.220331 323.635048,384.374312 C318.567314,386.019867 316.855241,386.225562 305.692529,386.431256 C298.090928,386.568386 290.626292,386.294127 286.174904,385.745608 Z" id="Path"></path>
                <path d="M208.446816,374.638109 C198.790728,372.306906 183.313593,366.341768 169.137633,359.485287 C160.371823,355.234269 159.550028,354.96001 154.756225,354.891445 C151.263597,354.82288 149.620008,355.097139 149.414559,355.645658 C148.935179,357.016954 155.441054,363.324916 161.467549,367.507369 C164.480796,369.564314 166.946181,371.484128 167.014664,371.758387 C167.083146,373.335378 147.565521,363.941999 141.196612,359.348157 C135.649497,355.439963 130.376314,349.54339 127.91093,344.469594 C125.650994,339.875752 125.514028,330.893762 127.636998,327.945475 C131.266592,323.008809 142.292338,320.334782 154.139879,321.568948 C162.152378,322.391726 165.371074,323.420198 173.999919,327.87691 C181.670003,331.853669 198.516796,344.2639 198.516796,345.909455 C198.516796,346.115149 195.77748,344.880983 192.490301,343.235427 C177.355581,335.624734 156.810712,327.87691 150.030905,327.259827 C147.154624,326.985568 145.16862,327.122698 144.072893,327.739781 C141.949923,328.836818 140.100885,333.43066 140.648748,336.104687 C142.223855,342.961168 161.741481,354.205797 197.147138,368.467277 C205.22812,371.758387 212.487307,374.706674 213.240619,375.049498 C215.295106,375.940841 213.172136,375.803711 208.446816,374.638109 Z" id="Path"></path>
                <path d="M105.106125,370.249962 C92.9161695,350.846121 75.1106164,332.607882 58.9486528,323.214504 L54.4287816,320.540476 L60.8661739,320.129087 C67.8514293,319.649134 70.3168136,318.963485 71.8234373,317.112236 C73.2615782,315.329551 72.0973689,313.272606 65.5230109,306.553255 C62.1673489,303.19358 59.496516,300.245293 59.496516,300.039599 C59.496516,299.833904 63.1261095,299.833904 67.5774978,300.108163 C81.4110429,300.793811 91.3410629,298.531173 96.2718314,293.457377 C100.928668,288.65784 100.928668,285.2296 96.2033485,263.905945 C92.6422379,247.793215 89.902922,238.262707 86.615743,230.17206 C85.314568,227.086643 81.2055942,215.156367 77.4390349,203.637479 C66.0023911,169.012251 59.4280331,144.603179 59.5649989,137.403875 C59.6334818,133.221421 59.4280331,132.810033 65.6599767,151.871049 C71.3440571,169.42364 78.2608296,187.181925 86.4102943,205.07734 C107.708475,251.907104 116.748217,285.983813 111.064137,298.119784 C109.694479,300.930941 106.475783,303.467839 99.4905275,307.101774 C87.4375378,313.341171 83.2600811,320.8833 87.0951233,329.316771 C88.0538838,331.510845 90.9301655,335.419039 93.8064471,338.504456 C97.3675578,342.344085 99.4905275,345.429501 101.408049,349.54339 C104.078882,355.165704 107.708475,369.015795 107.297578,371.895517 C107.092129,373.129684 106.749715,372.855424 105.106125,370.249962 Z" id="Path"></path>
                <path d="M277.956956,330.482373 C262.137407,328.973947 246.112409,322.87168 233.990936,313.821125 C229.334099,310.32432 220.979186,302.370802 221.937947,302.370802 C222.211878,302.370802 224.814228,304.016357 227.758993,306.073302 C237.62053,312.861218 249.605037,318.003578 261.521061,320.609041 C265.767,321.500383 270.149906,321.911772 277.614541,321.843207 C289.119668,321.843207 293.297125,321.02043 299.871483,317.249365 C309.73302,311.627051 316.101929,300.245293 315.485583,289.343489 L315.280135,285.778119 L307.336119,283.51548 C279.395097,275.424833 248.235379,257.392288 221.869464,233.874559 C216.322349,228.937893 216.322349,229.554976 221.937947,236.959975 C238.373842,259.037844 265.493069,284.818211 288.434839,300.108163 C293.228642,303.330709 297.063684,306.141866 296.926718,306.278996 C296.241889,306.896079 283.161656,302.096543 277.203644,299.079691 C260.973198,290.714785 247.961447,280.704323 229.471065,262.397519 C215.63752,248.753122 197.078655,227.018078 188.92919,215.019237 C187.97043,213.647941 187.011669,212.550904 186.737738,212.550904 C185.573528,212.550904 183.108144,225.578217 182.354832,235.588679 C181.60152,245.941965 181.943935,245.804836 174.821714,238.468401 C142.360821,204.871645 118.186358,156.73915 109.557513,108.332396 C106.749715,92.5624904 104.28433,61.0226789 105.859437,61.0226789 C106.270334,61.0226789 106.818197,62.9424935 107.023646,65.3422618 C109.694479,88.9971204 117.98091,119.645589 127.773964,141.586328 C137.361569,163.184242 151.674495,186.770536 162.768724,199.52359 L165.439557,202.609007 L168.041907,197.466646 C173.452056,186.633407 182.286349,174.977389 189.887951,168.532297 C192.490301,166.338224 194.81872,164.555539 195.024168,164.555539 C195.229617,164.555539 196.941689,167.229566 198.790728,170.589242 C218.787733,205.900118 246.043926,232.434698 280.353857,249.71303 C291.722018,255.472474 309.048191,261.780436 316.992207,263.014602 L319.526074,263.425991 L320.690283,259.106408 C324.86774,244.022151 338.906734,216.870487 351.439104,199.66072 C352.877245,197.603776 353.972971,195.821091 353.767522,195.683961 C353.151176,195.066878 348.220408,197.535211 342.399362,201.37484 C335.414106,206.037247 321.169664,220.024468 313.020199,230.240624 C309.938469,234.080254 307.404601,236.891411 307.404601,236.411457 C307.404601,235.17729 311.582058,223.589838 314.252891,217.35044 C324.799257,192.872804 341.440601,172.371927 360.136432,160.853039 C367.258653,156.464891 371.230661,155.093595 381.160681,153.859429 C396.706299,151.871049 407.800528,154.613641 411.293155,161.401557 C412.320399,163.321372 412.320399,163.389937 410.676809,162.841418 C409.855015,162.567159 407.458113,162.15577 405.540592,162.018641 C400.335892,161.538687 396.98023,163.458502 390.337389,170.452112 C377.805019,183.68512 368.217414,203.980303 356.027458,243.062243 C353.219659,252.044233 346.576818,279.401591 344.72778,289.686313 C341.440601,307.787422 337.194661,316.083764 327.812505,322.460291 C319.731523,327.945475 294.324368,332.059364 277.956956,330.482373 Z" id="Path"></path>
                <path d="M177.629512,309.090153 C176.876201,308.6102 174.273851,306.75895 171.808466,304.839135 C152.496289,289.892007 133.11563,268.979741 119.487533,248.410298 C99.6274933,218.241783 83.3970469,172.646186 77.7129665,130.958783 C75.6584796,115.737395 74.5627532,95.579342 75.8639282,97.0877677 C76.1378598,97.4305918 77.7129665,103.39573 79.356556,110.38934 C84.5612561,133.221421 92.5052721,159.276048 101.271083,182.725213 C120.377811,233.668865 138.251847,263.905945 170.986672,300.519552 C175.643508,305.661913 179.341585,309.912931 179.204619,309.912931 C179.067653,309.912931 178.382824,309.501542 177.629512,309.090153 Z" id="Path"></path>
                <path d="M206.323846,302.165108 C175.164128,277.481777 149.893939,249.095946 131.745972,218.378913 C124.966165,206.860025 121.747469,200.483498 116.748217,188.82748 C112.981658,179.98262 106.4073,159.893132 107.023646,159.207484 C107.229095,159.070354 107.708475,159.618872 108.05089,160.510215 C120.788708,190.884425 136.950672,215.910579 162.152378,244.090715 C172.013915,255.12965 192.010921,274.53349 195.503548,276.52187 C196.667758,277.207518 196.736241,278.23599 195.161134,262.26039 C194.476305,255.12965 193.996925,249.095946 194.133891,248.958817 C194.270856,248.821687 195.092651,249.5759 195.914446,250.672937 C207.008675,264.865852 222.211878,280.292934 239.811983,295.102932 C242.34585,297.297006 244.400337,299.148256 244.400337,299.285386 C244.400337,299.49108 243.715508,299.35395 242.893713,299.011126 C232.758244,295.171497 222.691258,289.617748 214.404828,283.37835 C211.186132,280.978582 208.515299,279.127332 208.378333,279.264462 C208.241367,279.401591 208.515299,284.886776 209.063162,291.468998 C209.542542,298.051219 209.747991,303.604969 209.542542,303.879228 C209.337094,304.153487 207.83047,303.399274 206.323846,302.165108 Z" id="Path"></path>
                <path d="M72.3713005,289.343489 C69.2895702,288.452146 66.6872201,286.600896 65.0436306,284.132563 C63.5370069,281.938489 63.4000411,281.321406 63.8109385,275.424833 C64.9066648,259.037844 60.8661739,217.281876 54.6342303,180.531139 C53.8809185,175.868732 53.3330553,171.754843 53.4700211,171.343454 C53.6069869,170.863501 55.1820935,174.017482 56.8941659,178.337065 C61.2085884,188.896045 72.9876466,217.761829 77.3020691,228.32081 C81.7534573,239.154049 84.9721535,250.261548 86.8211917,261.163353 C88.8756786,273.436453 89.286576,278.441684 88.3278154,281.321406 C87.2320891,284.543952 82.8491837,288.315016 79.0141415,289.274924 C75.5899967,290.097701 74.9736506,290.166266 72.3713005,289.343489 Z" id="Path"></path>
                <path d="M286.722767,220.847246 C277.81999,217.213311 266.383346,210.973913 257.891467,205.214469 C237.962944,191.707202 217.075661,170.246418 202.488804,148.305679 L197.352587,140.626421 L179.957931,158.110447 C170.370325,167.640955 162.357827,175.525908 162.083895,175.525908 C161.809963,175.525908 160.166374,172.85188 158.522784,169.560769 C145.305585,143.094754 137.567018,116.285914 134.07439,85.0203616 C132.910181,74.7356404 132.910181,47.2411525 134.005907,36.3393481 C135.581014,21.39222 139.689988,0 140.991163,0 C141.265094,0 141.539026,5.00523096 141.607509,11.1074988 C141.881441,50.4636985 147.702487,89.2713796 157.221609,115.531701 C161.2621,126.707765 167.973424,139.872208 169.685496,139.872208 C169.959428,139.872208 173.589022,136.101143 177.697995,131.575866 C181.806969,126.982024 185.505046,122.868135 185.84746,122.456747 C186.258357,122.045358 190.230365,117.588645 194.681754,112.651979 C199.133142,107.646748 203.10515,103.53286 203.379082,103.53286 C203.721496,103.53286 206.460812,108.538091 209.542542,114.640358 C226.526301,148.717068 244.400337,172.303362 266.657278,190.061647 C275.354606,196.986693 288.914219,203.911738 290.078429,202.060488 C290.35236,201.649099 292.132916,198.289424 293.913471,194.724054 C299.803,183.136601 306.993704,173.194704 315.622549,164.555539 C319.936972,160.167391 325.484086,155.230725 327.94947,153.44804 C342.399362,143.300448 361.095192,136.992486 376.503844,137.19818 L382.393373,137.266745 L376.846259,138.226652 C357.602565,141.449198 340.687289,150.979707 327.196159,166.201094 C315.074686,179.845491 305.350115,197.535211 299.186654,217.213311 C297.543064,222.287107 296.652787,224.206921 295.830992,224.206921 C295.214646,224.138356 291.105672,222.698495 286.722767,220.847246 Z" id="Path"></path>
            </g>
        </g>
    </g>
</svg>
