<?xml version="1.0" encoding="utf-8"?>
<!-- Generator: Adobe Illustrator 26.0.1, SVG Export Plug-In . SVG Version: 6.00 Build 0)  -->
<svg version="1.1" id="Logo" xmlns="http://www.w3.org/2000/svg" xmlns:xlink="http://www.w3.org/1999/xlink" x="0px" y="0px"
	 viewBox="0 0 382.68 382.68" style="enable-background:new 0 0 382.68 382.68;" xml:space="preserve">
<style type="text/css">
	.st0{fill:#ED1C24;}
	.st1{fill:#F9ED32;}
	.st2{fill:#FFFFFF;}
</style>
<g>
	<g>
		<path d="M115.5,250.53c-15.11-14.52-46.19-76.25-57.48-90.48c-14.99-18.92-48.22-44.78-49.15-44c-0.92,0.78,5.91,9.31,17.13,34.98
			c13.1,29.98,18.25,64.59,24.21,77.32c5.9,12.63,18.14,24.02,30.83,25.2c12.72,1.19,18.45,4.05,28.21,6.39s17.96,2.15,18,1.48
			C127.29,260.74,123.25,257.97,115.5,250.53z M50.26,226.71c0.02-0.09,0.06-0.15,0.15-0.11C50.35,226.63,50.31,226.67,50.26,226.71
			z"/>
	</g>
	<g>
		<g>
			<g>
				<path d="M195.72,290.83c-1.4,0-2.71-0.22-3.89-0.65c-1.18-0.44-2.21-1.05-3.06-1.84c-0.85-0.79-1.53-1.74-2.01-2.84
					c-0.48-1.1-0.72-2.34-0.72-3.69c0-1.36,0.25-2.62,0.73-3.73c0.49-1.11,1.17-2.06,2.03-2.85c0.86-0.78,1.88-1.39,3.04-1.8
					c1.16-0.42,2.42-0.63,3.75-0.63c1.38,0,2.68,0.21,3.87,0.62c1.19,0.41,2.17,0.97,2.92,1.66l0.09,0.08l-2.83,3.13l-0.09-0.1
					c-0.39-0.44-0.92-0.81-1.58-1.1c-0.65-0.29-1.41-0.43-2.23-0.43c-0.72,0-1.39,0.13-1.99,0.38c-0.6,0.25-1.13,0.61-1.58,1.07
					c-0.45,0.46-0.8,1-1.04,1.63s-0.37,1.32-0.37,2.07c0,0.77,0.11,1.47,0.34,2.11c0.22,0.64,0.56,1.19,0.99,1.64
					c0.43,0.45,0.98,0.81,1.63,1.07c0.65,0.25,1.4,0.38,2.23,0.38c0.48,0,0.94-0.04,1.38-0.1c0.4-0.07,0.78-0.17,1.12-0.31v-2.87
					h-3.32v-3.54h7.42v9.15l-0.07,0.03c-0.85,0.43-1.87,0.79-3.01,1.06C198.32,290.7,197.06,290.83,195.72,290.83z"/>
			</g>
			<g>
				<path d="M219.45,290.4h-12.38v-17.15H219v3.69h-7.64v2.95h7.22v3.52h-7.22v3.26h8.08V290.4z"/>
			</g>
			<g>
				<path d="M237.87,290.4h-5.21l-3.78-6.71h-1.23v6.71h-4.35v-17.15h6.76c0.84,0,1.67,0.08,2.47,0.25c0.8,0.17,1.53,0.46,2.18,0.86
					c0.65,0.41,1.17,0.95,1.55,1.62c0.39,0.67,0.58,1.51,0.58,2.5c0,1.17-0.33,2.17-0.99,2.97c-0.62,0.76-1.48,1.32-2.56,1.66
					L237.87,290.4z M227.63,280.49h1.87c0.33,0,0.68-0.03,1.04-0.08c0.35-0.05,0.67-0.15,0.95-0.29c0.28-0.14,0.5-0.33,0.68-0.58
					c0.17-0.25,0.26-0.58,0.26-0.98c0-0.37-0.08-0.67-0.24-0.89c-0.16-0.23-0.36-0.41-0.62-0.53c-0.26-0.13-0.55-0.22-0.88-0.26
					c-0.34-0.05-0.66-0.07-0.96-0.07h-2.12V280.49z"/>
			</g>
			<g>
				<path d="M261.06,290.4h-4.38l0.1-11.58l-4.38,11.58h-3.12l-0.03-0.08l-4.22-11.49l0.09,11.57h-4.2v-17.15h6.19l0.03,0.08
					l3.89,10.64l3.75-10.73h6.29V290.4z"/>
			</g>
			<g>
				<path d="M282.47,290.4h-4.94l-1.35-3.32h-6.56l-1.28,3.32h-4.85l0.08-0.17l7.33-16.97h4.24l0.03,0.08L282.47,290.4z
					 M270.91,283.57h4.01l-1.98-5.32L270.91,283.57z"/>
			</g>
			<g>
				<path d="M301,290.4h-4.96l-0.04-0.06l-6.84-10.8l0.1,10.85h-4.33v-17.15h4.98l0.04,0.06l6.82,10.77l-0.1-10.83H301V290.4z"/>
			</g>
			<g>
				<g>
					<path d="M322.13,290.86c-1.15,0-2.21-0.17-3.14-0.51c-0.93-0.34-1.73-0.82-2.37-1.42c-0.65-0.61-1.16-1.34-1.5-2.19
						c-0.35-0.85-0.53-1.8-0.53-2.83v-10.65h4.43v10.32c0,0.45,0.06,0.88,0.18,1.28c0.12,0.4,0.3,0.76,0.54,1.07
						c0.24,0.31,0.56,0.55,0.96,0.74c0.4,0.18,0.89,0.27,1.46,0.27c0.57,0,1.06-0.09,1.46-0.27c0.4-0.18,0.73-0.43,0.97-0.74
						c0.25-0.31,0.43-0.67,0.54-1.07c0.11-0.4,0.17-0.83,0.17-1.28v-10.32h4.45v10.65c0,1.03-0.18,1.98-0.54,2.83
						c-0.36,0.85-0.88,1.58-1.54,2.19c-0.66,0.6-1.48,1.08-2.41,1.42C324.32,290.68,323.27,290.86,322.13,290.86z"/>
				</g>
				<g>
					<path d="M356.25,290.4h-12.83v-3.52l0.04-0.04l6.78-5.96c0.41-0.39,0.75-0.79,1.01-1.19c0.25-0.4,0.38-0.83,0.38-1.31
						c0-0.57-0.18-1.02-0.55-1.38c-0.37-0.35-0.87-0.53-1.49-0.53c-0.65,0-1.18,0.22-1.59,0.66c-0.41,0.45-0.66,1.05-0.74,1.78
						l-0.01,0.13l-4.2-0.56l0.01-0.12c0.1-0.87,0.35-1.66,0.74-2.34c0.39-0.68,0.89-1.27,1.49-1.75c0.6-0.48,1.29-0.85,2.07-1.1
						c1.5-0.49,3.25-0.49,4.83-0.06c0.76,0.21,1.45,0.54,2.05,0.97c0.6,0.44,1.09,1,1.45,1.66c0.36,0.67,0.54,1.46,0.54,2.35
						c0,0.61-0.09,1.18-0.25,1.67c-0.17,0.49-0.4,0.96-0.69,1.38c-0.29,0.41-0.62,0.81-1,1.17c-0.39,0.38-0.77,0.73-1.15,1.07
						l-3.77,3.27h6.89V290.4z"/>
				</g>
				<g>
					<path d="M364.51,290.4h-4.35v-17.15h4.35V290.4z"/>
				</g>
			</g>
			<path d="M333.81,285.24v-3.1h6.24v3.1H333.81z"/>
		</g>
		<g>
			<g>
				<path d="M201.84,307.56h-1.99l-5.07-10.44l-1.89,10.44h-1.81l2.38-13.08h1.99l5.08,10.3l1.87-10.3h1.81L201.84,307.56z"/>
			</g>
			<g>
				<path d="M218,307.56h-1.88l-0.69-3.31h-6.28l-2.12,3.31h-2.1l8.67-13.08h1.62L218,307.56z M210.21,302.58h4.91l-1.17-5.78
					L210.21,302.58z"/>
			</g>
			<g>
				<path d="M224.67,307.56h-1.81l2.09-11.46h-4.33l0.29-1.62h10.5l-0.29,1.62h-4.35L224.67,307.56z"/>
			</g>
			<g>
				<path d="M234.09,307.56h-1.81l2.38-13.08h1.81L234.09,307.56z"/>
			</g>
			<g>
				<path d="M245.39,307.88c-0.86,0-1.67-0.14-2.41-0.41c-0.74-0.27-1.38-0.66-1.91-1.15c-0.54-0.5-0.96-1.1-1.25-1.79
					c-0.29-0.69-0.44-1.46-0.44-2.3c0-1.11,0.2-2.16,0.6-3.14c0.4-0.98,0.96-1.84,1.65-2.57c0.69-0.72,1.53-1.31,2.47-1.73
					c0.95-0.42,1.98-0.63,3.08-0.63c0.86,0,1.67,0.13,2.41,0.4c0.73,0.26,1.38,0.65,1.91,1.15c0.53,0.5,0.95,1.09,1.25,1.78
					c0.3,0.69,0.45,1.46,0.45,2.29c0,1.1-0.2,2.16-0.58,3.14c-0.39,0.98-0.93,1.85-1.62,2.58c-0.69,0.73-1.52,1.32-2.48,1.75
					C247.55,307.67,246.5,307.88,245.39,307.88z M247.13,295.76c-0.87,0-1.68,0.18-2.4,0.53c-0.72,0.35-1.34,0.83-1.85,1.42
					c-0.51,0.59-0.91,1.28-1.19,2.04c-0.28,0.76-0.42,1.56-0.42,2.37c0,0.57,0.09,1.12,0.27,1.63c0.18,0.5,0.44,0.95,0.8,1.31
					c0.35,0.37,0.79,0.67,1.31,0.89c0.52,0.22,1.12,0.33,1.81,0.33c0.86,0,1.66-0.18,2.37-0.53c0.72-0.35,1.34-0.83,1.85-1.42
					c0.51-0.59,0.92-1.28,1.21-2.05c0.29-0.77,0.43-1.57,0.43-2.39c0-0.57-0.09-1.11-0.28-1.62c-0.18-0.5-0.45-0.94-0.8-1.31
					c-0.35-0.37-0.79-0.67-1.3-0.88C248.4,295.87,247.8,295.76,247.13,295.76z"/>
			</g>
			<g>
				<path d="M266.98,307.56h-1.99l-5.07-10.44l-1.89,10.44h-1.81l2.38-13.08h1.99l5.08,10.3l1.87-10.3h1.81L266.98,307.56z"/>
			</g>
			<g>
				<path d="M283.14,307.56h-1.88l-0.69-3.31h-6.28l-2.12,3.31h-2.1l8.67-13.08h1.62L283.14,307.56z M275.35,302.58h4.91l-1.17-5.78
					L275.35,302.58z"/>
			</g>
			<g>
				<path d="M294.43,307.56h-7.86l2.38-13.08h1.81l-2.1,11.46h6.05L294.43,307.56z"/>
			</g>
			<g>
				<path d="M307.71,307.88c-0.82,0-1.62-0.17-2.39-0.49c-0.78-0.33-1.38-0.83-1.8-1.49l-0.13-0.21l1.6-1l0.13,0.22
					c0.22,0.38,0.56,0.7,1.01,0.97c0.45,0.27,0.99,0.4,1.63,0.4c0.41,0,0.81-0.06,1.18-0.17c0.37-0.12,0.69-0.28,0.96-0.49
					c0.27-0.21,0.48-0.46,0.63-0.76c0.15-0.29,0.23-0.63,0.23-0.99c0-0.31-0.06-0.58-0.19-0.8c-0.13-0.23-0.31-0.43-0.53-0.6
					c-0.23-0.18-0.51-0.33-0.81-0.47c-0.32-0.14-0.65-0.27-1.02-0.4c-0.37-0.13-0.74-0.29-1.11-0.47c-0.37-0.19-0.71-0.42-0.99-0.68
					c-0.29-0.27-0.53-0.59-0.7-0.95c-0.18-0.37-0.27-0.81-0.27-1.29c0-0.56,0.11-1.1,0.33-1.59c0.22-0.5,0.55-0.93,0.96-1.29
					c0.41-0.36,0.92-0.64,1.53-0.85c0.59-0.2,1.28-0.31,2.04-0.31c0.91,0,1.7,0.15,2.34,0.44c0.66,0.3,1.15,0.69,1.45,1.17l0.13,0.2
					l-1.52,1.06l-0.14-0.21c-0.21-0.3-0.51-0.55-0.92-0.76c-0.67-0.34-1.6-0.4-2.49-0.17c-0.35,0.09-0.67,0.24-0.95,0.43
					c-0.27,0.18-0.5,0.42-0.67,0.7c-0.16,0.27-0.25,0.61-0.25,1c0,0.29,0.05,0.54,0.15,0.74c0.11,0.21,0.25,0.39,0.44,0.55
					c0.2,0.16,0.43,0.31,0.69,0.42c0.29,0.13,0.59,0.25,0.9,0.37c0.38,0.14,0.77,0.31,1.17,0.49c0.41,0.19,0.78,0.42,1.12,0.69
					c0.34,0.28,0.62,0.61,0.83,0.99c0.22,0.39,0.32,0.84,0.32,1.36c0,0.45-0.08,0.93-0.25,1.42c-0.17,0.5-0.45,0.97-0.84,1.39
					c-0.39,0.42-0.9,0.77-1.53,1.04C309.39,307.75,308.62,307.88,307.71,307.88z"/>
			</g>
			<g>
				<path d="M329.99,307.56h-7.07c-0.85,0-1.66-0.11-2.41-0.33c-0.76-0.22-1.43-0.56-2-1c-0.58-0.45-1.04-1.02-1.37-1.71
					c-0.33-0.69-0.5-1.51-0.5-2.43c0-1.09,0.2-2.13,0.59-3.09c0.39-0.96,0.93-1.8,1.62-2.51c0.68-0.71,1.51-1.29,2.45-1.7
					c0.94-0.42,1.97-0.63,3.06-0.63c0.86,0,1.68,0.13,2.41,0.4c0.74,0.27,1.38,0.65,1.92,1.14c0.54,0.49,0.97,1.09,1.27,1.78
					c0.3,0.69,0.45,1.46,0.45,2.29c0,0.78-0.1,1.52-0.31,2.21c-0.21,0.69-0.5,1.32-0.87,1.89c-0.38,0.57-0.81,1.06-1.3,1.48
					c-0.25,0.21-0.51,0.41-0.78,0.58h3.15L329.99,307.56z M324.29,295.76c-0.87,0-1.68,0.18-2.39,0.52
					c-0.72,0.35-1.33,0.82-1.83,1.4c-0.5,0.58-0.9,1.24-1.17,1.98c-0.27,0.73-0.41,1.49-0.41,2.25c0,1.3,0.39,2.28,1.19,3
					c0.8,0.71,1.91,1.07,3.32,1.07c0.71,0,1.41-0.16,2.07-0.47c0.67-0.32,1.26-0.75,1.76-1.29c0.51-0.54,0.92-1.17,1.22-1.9
					c0.3-0.72,0.46-1.5,0.46-2.31c0-0.61-0.09-1.18-0.28-1.69c-0.18-0.51-0.46-0.96-0.81-1.33c-0.36-0.38-0.81-0.68-1.32-0.89
					C325.57,295.87,324.96,295.76,324.29,295.76z"/>
			</g>
			<g>
				<path d="M338.72,307.88c-0.81,0-1.51-0.12-2.08-0.36c-0.57-0.24-1.05-0.55-1.41-0.94c-0.37-0.39-0.63-0.83-0.8-1.32
					c-0.16-0.48-0.24-0.97-0.24-1.46c0-0.43,0.04-0.85,0.11-1.24l1.46-8.09h1.81l-1.46,8.04c-0.07,0.36-0.11,0.71-0.11,1.04
					c0,0.38,0.05,0.74,0.15,1.07c0.09,0.32,0.25,0.6,0.46,0.85c0.21,0.24,0.49,0.44,0.84,0.58c0.35,0.15,0.8,0.22,1.34,0.22
					c0.64,0,1.2-0.1,1.65-0.31c0.45-0.2,0.82-0.48,1.12-0.82c0.3-0.35,0.55-0.76,0.72-1.22c0.18-0.47,0.32-0.98,0.42-1.49l1.45-7.95
					h1.81l-1.48,8.19c-0.1,0.53-0.27,1.11-0.5,1.71c-0.23,0.61-0.57,1.18-1.01,1.7c-0.44,0.52-1.01,0.96-1.7,1.3
					C340.57,307.71,339.72,307.88,338.72,307.88z"/>
			</g>
			<g>
				<path d="M359.45,307.56h-1.88l-0.69-3.31h-6.28l-2.12,3.31h-2.1l8.67-13.08h1.62L359.45,307.56z M351.66,302.58h4.91l-1.17-5.78
					L351.66,302.58z"/>
			</g>
			<g>
				<path d="M367.5,307.56h-4.63l2.38-13.08h4.12c0.75,0,1.51,0.1,2.24,0.3c0.74,0.2,1.42,0.53,2.02,0.96
					c0.6,0.44,1.09,1.02,1.46,1.72c0.37,0.7,0.56,1.55,0.56,2.53c0,1.13-0.21,2.17-0.62,3.1c-0.41,0.93-0.98,1.73-1.72,2.4
					c-0.73,0.66-1.6,1.17-2.59,1.53C369.74,307.38,368.66,307.56,367.5,307.56z M364.96,305.94h2.63c1.01,0,1.91-0.17,2.67-0.5
					c0.76-0.33,1.41-0.77,1.93-1.3c0.52-0.54,0.91-1.16,1.17-1.85c0.26-0.7,0.4-1.42,0.4-2.16c0-0.55-0.09-1.07-0.28-1.57
					c-0.18-0.48-0.46-0.91-0.84-1.28c-0.38-0.36-0.86-0.66-1.45-0.87c-0.59-0.21-1.31-0.32-2.13-0.32h-2.32L364.96,305.94z"/>
			</g>
		</g>
	</g>
	<path d="M277.36,151.2c0.85-1.05,34.12-48.55,37.11-57.95c2.99-9.4,0.28-20.78-1.06-20.56c-1.34,0.22-25.03,33.92-25.81,33.28
		c-0.78-0.63,18.79-59.73,19.07-69.77c0.28-10.04-4.82-21.84-6.29-21.38c-1.48,0.46-19.57,48.07-29.57,65.19
		c-37.11,63.5-18.23,73.54-12.45,75.21L277.36,151.2z"/>
	<path class="st0" d="M239.75,208.38c0.31-1.4,41.55-5.08,48.47-9.54c6.92-4.46,15.08-23.93,14.32-24.69s-27.29,12.15-27.24,10.64
		c0.05-1.51,26.2-21.41,33.31-29.8c7.11-8.39,9.99-31.65,8.2-31.75c-1.79-0.1-54.1,47.28-78.3,62.59L239.75,208.38z"/>
	<path class="st1" d="M204.09,228.28c-1.08,5.04,13.16,15.83,13.34,15.73c0.66-0.34,15.16,0.4,20.26-0.16
		c7.47-0.83,15.84-8.92,15.23-9.98c-0.61-1.06-16.28-0.77-15.78-1.89c0.49-1.11,10.5-2.76,16.41-4.55
		c10.21-3.1,19.87-14.21,19.07-15.7c-0.69-1.26-12.95-0.53-21.26-0.39c-6.71,0.12-25.61,0.48-31.91,1.04
		C213.51,212.92,205.17,223.24,204.09,228.28z"/>
	<g>
		<path d="M187.07,357.31c-2.14,0-2.51-0.12-2.67-0.17c-0.77-0.25-1.78-1.65-4.82-6.32c-1.06-1.62-2.41-3.69-3.24-4.76
			c-0.09,1.22-0.06,3.33-0.05,4.87c0.05,4.74,0.01,5.52-0.72,5.82c-0.5,0.21-1.26,0.31-2.4,0.31c-4.86,0-14.67-1.78-18.67-2.55
			c-13.09-2.51-13.31-3.19-13.43-3.6c-0.16-0.5,0.11-0.84,0.92-1.84c3.28-4.07,13.25-16.46-1.22-33.48
			c-15.78-18.56-58.63-33.4-75.76-37.32l-1.27-0.29l0.9-0.95c0.41-0.43,0.88-0.88,1.32-1.3c0.24-0.23,0.53-0.5,0.77-0.73
			c-1.54-0.4-2.92-0.6-4.11-0.6c-3.49,0-4.63,1.73-4.98,3.18c-0.08,0.3-0.28,1.03-1.01,1.06c0,0-0.01,0-0.01,0
			c-0.33,0-0.79-0.04-1.78-2.9c-0.73-2.11-1.5-5.23,0.12-8.01c1.49-2.56,4.62-4.29,9.57-5.27c1.84-3.96,6.44-5.97,13.67-5.97
			c6.14,0,12.87,1.46,17.43,2.69c2.51,0.68,4.68,1.3,6.65,1.86c5.65,1.62,9.73,2.79,15.95,3.51c2.79,0.32,5.38,0.49,7.69,0.49
			c7.11,0,11.89-1.48,14.61-4.54c3.68-4.14,2.93-10.57,2.26-16.24c-0.09-0.74-0.17-1.47-0.25-2.18c-0.33-3.19-0.9-6.48-1.45-9.66
			c-1.77-10.23-3.6-20.8,2.37-29.04c3.21-4.43,10.08-10.72,18.78-18.67c22-20.11,58.83-53.77,82.72-100.91
			c5.63-11.1,12.07-33.05,16.34-47.58c4.14-14.11,4.57-15.19,5.33-15.47c0.12-0.04,0.24-0.07,0.37-0.07c2.65,0,7.92,12.77,8.2,21.71
			c0.21,6.41-6,32.32-10.53,51.24c-1.67,6.98-3.27,13.68-3.99,17.11c2.26-3.16,6.58-9.81,10.22-15.41
			c10.22-15.71,11.53-17.47,12.28-17.64l0.08-0.02l0.14-0.01c0.38,0,0.74,0.21,1.06,0.63c1.65,2.12,4.08,12.16,1.9,20.77
			c-1.54,6.08-11.15,22.98-18.17,35.32c-2.62,4.61-5.14,9.04-6.38,11.43c2.32-1.78,6.61-5.51,10.23-8.65
			c9.61-8.34,12.57-10.77,13.62-10.77c0.29,0.01,0.72,0.13,0.98,0.73c1.26,2.94-1.64,24.05-8.6,32.25
			c-4.05,4.78-14.11,13.17-22.19,19.9c-3.84,3.2-7.77,6.48-9.73,8.31c2.84-1.01,8.34-3.43,12.62-5.3
			c7.95-3.49,11.53-5.01,12.53-5.01c0.33,0,0.54,0.14,0.66,0.25c0.32,0.32,0.27,0.79,0.26,0.96c-0.31,2.96-8.05,20.6-14.7,24.89
			c-3.71,2.39-11.52,5.62-18.41,8.47c-3.45,1.43-7.24,2.99-9.3,4c1.98-0.15,5.15-0.59,8.22-1.03c4.01-0.57,8.15-1.16,10.19-1.16
			c0.92,0,1.55,0.1,1.85,0.59c0.25,0.41,0.19,0.96-0.2,1.82c-1.43,3.14-9.05,12.85-19.65,14.67c-1.19,0.2-2.74,0.44-4.41,0.69
			c-3.3,0.5-8.35,1.27-10.74,1.9c1.6,0.31,4.25,0.63,6.36,0.89c6.9,0.85,8.19,1.12,8.58,1.84c0.29,0.53-0.01,1.1-0.11,1.29
			c-1.29,2.44-9.03,8.89-15.88,9.54c-0.59,0.06-1.24,0.08-1.93,0.08c-2.45,0-5.1-0.33-7.22-0.6c-0.17-0.02-0.34-0.04-0.51-0.06
			c0.93,0.39,1.98,0.8,2.88,1.16c5.81,2.3,6.62,2.73,6.67,3.53c0.02,0.38-0.2,0.79-0.77,1.38c-1.76,1.86-7.35,5.93-12.52,5.93
			c-0.45,0-0.89-0.03-1.31-0.09c-1.91-0.27-4.27-0.95-6.36-1.54c-0.42-0.12-0.84-0.24-1.24-0.35c0.95,0.61,2.05,1.28,2.93,1.82
			c4.68,2.86,5.03,3.17,5.08,3.77c0.06,0.67-0.38,0.9-2.78,2.23c-3.9,2.15-12.02,6.61-15.68,12.42c-4.47,7.1-6.17,18.14,2.47,27.84
			c11.84,13.3,49.41,16.15,69.6,17.68c10.52,0.8,12.63,1.03,13.17,1.92c0.15,0.26,0.18,0.56,0.06,0.83
			c-4.53,10.49-21.49,22.48-24.45,22.48c-1.35-0.03-6.93-2.56-15.92-6.7c-5.11-2.35-11.73-5.4-14.76-6.51
			c1.89,1.89,6.02,5.39,9.23,8.11c9.27,7.85,9.45,8.22,8.93,9.06c-0.92,1.49-19.5,4.46-19.68,4.47c0,0,0,0,0,0
			c-0.95,0-3-1.65-9.57-7.32c-2.54-2.19-5.8-5-7.6-6.34c0.98,1.95,3.14,5.46,4.57,7.78c3.25,5.27,3.33,5.51,3.11,6.04
			c-0.2,0.46-0.32,0.75-5.42,1.1C192.29,357.2,189.19,357.31,187.07,357.31z M74.79,263.98c-0.84,0-1.52,0.68-1.52,1.52
			s0.68,1.52,1.52,1.52s1.52-0.68,1.52-1.52S75.63,263.98,74.79,263.98z"/>
		<path class="st2" d="M266.99,21.42c1.61,0,7.14,11.18,7.45,20.99c0.32,10.04-15.69,70.2-14.88,70.78c0.01,0,0.02,0.01,0.02,0.01
			c1.15,0,22.45-34.48,23.76-34.77c0.02,0,0.03-0.01,0.05-0.01c1.36,0,4.62,11.03,2.23,20.47c-2.42,9.56-25.59,47.13-25.37,48.64
			c0.01,0.05,0.04,0.07,0.1,0.07c1.65,0,23.48-20.45,25.3-20.45c0,0,0.01,0,0.01,0c1.79,0.1-1.09,23.36-8.2,31.75
			c-7.11,8.39-33.26,28.29-33.31,29.8c0,0.08,0.08,0.12,0.23,0.12c2.51,0,24.88-10.8,26.88-10.8c0.06,0,0.11,0.01,0.13,0.03
			c0.76,0.76-7.4,20.23-14.32,24.69c-6.92,4.46-29.13,12.22-29.44,13.63c-0.04,0.2,0.34,0.28,1.04,0.28
			c3.61,0,15.62-2.24,19.51-2.24c0.68,0,1.11,0.07,1.21,0.23c0.69,1.14-7.51,13.33-19.34,15.36c-4.98,0.85-16.38,2.26-16.89,3.37
			c-0.51,1.1,15.56,1.99,16.15,3.06c0.59,1.07-7.92,9.01-15.4,9.72c-0.59,0.06-1.22,0.08-1.86,0.08c-3.96,0-8.59-0.91-10.26-0.91
			c-0.39,0-0.62,0.05-0.65,0.17c-0.13,0.73,11.93,4.69,11.97,5.55c0.04,0.8-6.59,6.52-12.53,6.52c-0.41,0-0.81-0.03-1.2-0.08
			c-3.5-0.5-8.8-2.46-10.15-2.46c-0.17,0-0.28,0.03-0.31,0.1c-0.28,0.62,9.96,6.18,10.02,6.85c0.06,0.67-13.22,6.04-18.35,14.18
			c-5.13,8.14-5.86,19.3,2.54,28.74c16.74,18.82,83.82,17.04,82.7,19.64c-4.47,10.35-21.13,22.03-23.76,22.03c-0.01,0-0.01,0-0.02,0
			c-2.51-0.05-29.57-13.65-32.18-13.65c-0.06,0-0.11,0.01-0.15,0.02c-1.45,0.69,19.76,17,19.18,17.93
			c-0.57,0.93-17.69,4.01-19.09,4.12c0,0-0.01,0-0.01,0c-1.49,0-16.69-14.4-18.21-14.4c-0.02,0-0.03,0-0.04,0
			c-1.25,0.31,8.4,14.43,8.14,15.02c-0.2,0.46-8.35,0.94-12.62,0.94c-1.24,0-2.15-0.04-2.44-0.13c-1.28-0.41-7.65-11.73-8.66-11.73
			c-0.01,0-0.03,0-0.04,0.01c-0.87,0.33,0.02,11.08-0.65,11.36c-0.41,0.17-1.14,0.25-2.11,0.25c-7.78,0-31.15-4.89-31.39-5.62
			c-0.26-0.82,16.89-15.2-0.44-35.58c-16.15-18.99-59.46-33.74-76.16-37.56c1.27-1.35,3.22-2.85,2.61-3.03
			c-2.1-0.62-3.8-0.87-5.18-0.87c-4.19,0-5.37,2.34-5.71,3.75c-0.08,0.27-0.15,0.47-0.31,0.48c0,0,0,0,0,0
			c-0.09,0-0.94-2.07-1.06-2.39c-1.47-4.28-2.13-10.2,9.5-12.37c1.78-4.36,6.93-5.89,13.14-5.89c5.46,0,11.74,1.18,17.23,2.66
			c9.76,2.62,14.26,4.41,22.71,5.39c2.9,0.34,5.47,0.49,7.78,0.49c21.71,0,18.39-13.99,17.37-23.78c-1.4-13.45-6.81-27.7,0.78-38.19
			c11.31-15.64,68.32-54.08,101.57-119.68c8.96-17.69,19.82-62.15,21.27-62.69C266.91,21.43,266.95,21.42,266.99,21.42
			 M74.79,267.77c1.25,0,2.27-1.02,2.27-2.27s-1.02-2.27-2.27-2.27c-1.25,0-2.27,1.02-2.27,2.27S73.54,267.77,74.79,267.77
			 M266.99,19.92L266.99,19.92c-0.22,0-0.44,0.04-0.64,0.12c-1.13,0.43-1.36,0.9-5.78,15.96c-4.26,14.5-10.7,36.42-16.29,47.45
			c-23.83,47.02-60.59,80.62-82.56,100.69c-8.74,7.98-15.63,14.29-18.89,18.79c-6.15,8.5-4.29,19.23-2.5,29.61
			c0.55,3.17,1.12,6.45,1.44,9.61c0.07,0.71,0.16,1.44,0.25,2.19c0.65,5.52,1.38,11.77-2.08,15.65c-2.53,2.84-7.26,4.28-14.05,4.28
			c-2.28,0-4.84-0.16-7.6-0.48c-6.16-0.71-10.22-1.88-15.83-3.48c-1.94-0.56-4.14-1.19-6.67-1.86c-4.61-1.24-11.4-2.71-17.62-2.71
			c-7.34,0-12.11,2.04-14.18,6.06c-4.96,1.04-8.14,2.86-9.7,5.55c-1.78,3.05-0.95,6.39-0.18,8.63c1.09,3.16,1.71,3.4,2.47,3.4h0.03
			l0.03,0c0.58-0.02,1.35-0.32,1.7-1.58l0.01-0.03l0.01-0.03c0.41-1.72,1.83-2.6,4.25-2.6c0.77,0,1.64,0.09,2.58,0.27
			c-0.37,0.35-0.76,0.73-1.11,1.1l-1.79,1.91l2.55,0.58c17.05,3.9,59.7,18.65,75.36,37.07c14.07,16.54,4.39,28.57,1.21,32.52
			c-0.89,1.1-1.33,1.66-1.05,2.54c0.28,0.88,0.48,1.51,14.01,4.11c4.02,0.77,13.88,2.56,18.81,2.56c1.24,0,2.1-0.12,2.69-0.36
			c1.25-0.52,1.23-1.67,1.18-6.53c-0.01-0.74-0.02-1.69-0.02-2.6c0.65,0.96,1.35,2.03,1.92,2.91c3.26,5,4.21,6.3,5.22,6.62
			c0.31,0.1,0.82,0.21,2.9,0.21c2.14,0,5.26-0.12,7.94-0.3c5.05-0.35,5.66-0.6,6.06-1.55c0.4-0.95,0.2-1.27-3.16-6.73
			c-0.77-1.25-1.77-2.87-2.67-4.38c1.48,1.24,3.14,2.67,4.56,3.9c7.48,6.45,8.88,7.5,9.99,7.5h0.06l0.07,0
			c0.89-0.06,5.87-0.94,10.04-1.77c9.5-1.89,9.82-2.4,10.22-3.05c0.84-1.35-0.46-2.52-2.82-4.63c-1.66-1.49-3.9-3.38-6.26-5.39
			c-1.85-1.57-4.18-3.54-6.13-5.26c3.24,1.41,7.41,3.33,10.87,4.92c10.4,4.79,14.78,6.74,16.18,6.77c3.66,0,20.66-12.46,25.18-22.93
			c0.22-0.5,0.18-1.05-0.1-1.52c-0.74-1.22-2.42-1.42-13.75-2.28c-20.08-1.52-57.47-4.35-69.1-17.43
			c-8.36-9.4-6.72-20.08-2.39-26.95c3.55-5.64,11.56-10.04,15.4-12.16c2.58-1.42,3.27-1.8,3.17-2.95c-0.08-0.91-0.56-1.34-3.93-3.42
			c0.93,0.23,1.83,0.42,2.66,0.53c0.46,0.07,0.93,0.1,1.42,0.1c5.46,0,11.16-4.15,13.06-6.16c0.53-0.56,1.01-1.18,0.97-1.94
			c-0.06-1.13-0.74-1.61-4.96-3.32c0.8,0.05,1.61,0.09,2.4,0.09c0.72,0,1.39-0.03,2-0.09c7.21-0.68,15.08-7.31,16.47-9.93
			c0.49-0.92,0.33-1.6,0.11-2c-0.57-1.04-1.68-1.31-9.15-2.23c-0.65-0.08-1.38-0.17-2.12-0.26c2.25-0.39,4.75-0.77,6.53-1.04
			c1.66-0.25,3.23-0.49,4.43-0.69c11.03-1.89,18.67-11.73,20.21-15.09c0.34-0.74,0.66-1.7,0.16-2.52c-0.58-0.95-1.82-0.95-2.49-0.95
			c-2.09,0-6.07,0.57-10.29,1.16c-1.12,0.16-2.26,0.32-3.34,0.47c1.53-0.65,3.21-1.34,4.8-2c6.92-2.86,14.76-6.11,18.53-8.54
			c6.97-4.49,14.71-22.33,15.04-25.44c0.07-0.66-0.09-1.19-0.47-1.57c-0.21-0.21-0.59-0.47-1.19-0.47c-1.1,0-3.87,1.14-12.84,5.08
			c-2.7,1.19-5.91,2.59-8.59,3.71c1.94-1.66,4.29-3.61,6.49-5.45c8.1-6.76,18.19-15.17,22.28-20c6.76-7.98,10.21-29.55,8.71-33.03
			c-0.44-1.01-1.25-1.16-1.58-1.18l-0.04,0l-0.05,0c-1.27,0-3.38,1.64-14.11,10.95c-2.29,1.99-5.03,4.36-7.28,6.25
			c1.3-2.35,2.95-5.24,4.57-8.1c7.04-12.38,16.68-29.33,18.24-35.51c2.19-8.66-0.1-18.94-2.03-21.42c-0.59-0.76-1.23-0.92-1.66-0.92
			c-0.13,0-0.26,0.01-0.38,0.04c-0.98,0.22-1.25,0.28-12.75,17.96c-2.68,4.11-5.72,8.8-8.03,12.23c0.82-3.59,1.97-8.4,3.16-13.36
			c4.54-18.96,10.75-44.93,10.55-51.44c-0.19-6.04-2.18-11.79-3.35-14.69C270.51,22.53,268.63,19.92,266.99,19.92L266.99,19.92z
			 M74.79,266.27c-0.42,0-0.77-0.34-0.77-0.77c0-0.42,0.34-0.77,0.77-0.77s0.77,0.34,0.77,0.77
			C75.56,265.92,75.21,266.27,74.79,266.27L74.79,266.27z"/>
	</g>
</g>
</svg>
