<?xml version="1.0" encoding="UTF-8" standalone="no"?>
<!DOCTYPE svg PUBLIC "-//W3C//DTD SVG 1.1//EN" "http://www.w3.org/Graphics/SVG/1.1/DTD/svg11.dtd">
<svg width="502px" height="300px" viewBox="0 0 502 300" version="1.1" xmlns="http://www.w3.org/2000/svg" xmlns:xlink="http://www.w3.org/1999/xlink">
    <g id="Symbols" stroke="none" stroke-width="1" fill="none" fill-rule="evenodd">
        <g id="Artboard" transform="translate(-1.000000, -102.000000)" fill-rule="nonzero">
            <g id="YOUNAS" transform="translate(309.547855, 370.085090) scale(1, -1) translate(-309.547855, -370.085090) translate(132.508290, 338.170000)" fill="#231F20">
                <path d="M352.659422,55.0227255 L340.453186,55.0227255 C329.665574,55.0227255 326.732957,50.6656389 325.59719,46.1209058 L325.029307,43.374542 L347.359902,27.4647223 C347.643843,26.0427306 347.928869,24.2443613 347.928869,22.2550915 C347.928869,20.9296347 347.928869,20.0770905 347.455271,17.7103584 C344.995167,6.1554559 335.531894,0 319.730871,0 L298.723531,1.32545676 L300.238609,8.61872293 L316.891456,8.61872293 C327.679067,8.61872293 328.625178,12.3119965 330.328827,19.7939938 L330.517399,21.0240003 L307.051038,37.5976331 C307.051038,37.5976331 306.767097,39.3016369 306.767097,41.5750881 C306.767097,42.6163634 306.861383,43.7520044 307.051038,44.7943644 C309.322571,56.3481822 317.83865,63.8301796 335.343322,63.8301796 L354.079129,62.314907 L352.659422,55.0227255 Z" id="path50"></path>
                <path d="M270.33707,54.9273837 L256.806496,22.8235628 L275.068707,22.8235628 C275.068707,33.5259211 275.257279,44.2261101 275.257279,54.9273837 L270.33707,54.9273837 Z M274.690479,0.568471267 L274.879051,14.2059245 L253.115256,14.2059245 L253.115256,14.3002901 L247.344307,0.568471267 L233.15048,0.568471267 L263.902868,62.9777438 L289.923619,62.9777438 L294.277028,0.568471267 L274.690479,0.568471267 Z" id="path46"></path>
                <polygon id="path42" points="227.567127 0.568254334 209.304917 0.568254334 195.489318 45.7411657 195.489318 45.8355313 185.838556 0.568254334 174.767003 0.568254334 188.014719 62.9775269 207.317326 62.9775269 220.375386 18.4673439 220.375386 18.3729783 229.932945 62.9775269 240.909129 62.9775269"></polygon>
                <path d="M166.535515,17.2363612 C164.075411,5.77799359 154.518935,0.0943655795 138.621459,0.0943655795 L134.742731,0.0943655795 C120.832846,0.0943655795 113.452533,4.45145216 113.452533,13.3532718 C113.452533,14.584363 113.641105,16.0041853 113.925047,17.4250923 L123.671178,62.9776354 L140.798706,62.9776354 L131.052575,17.2363612 C130.768633,16.0041853 130.578977,14.7730942 130.578977,13.8261844 C130.578977,10.4170922 132.565485,8.80745409 138.05466,8.80745409 L138.621459,8.80745409 C145.90857,8.80745409 148.367591,11.7436337 149.503357,17.4250923 L159.249488,62.9776354 L176.281647,62.9776354 L166.535515,17.2363612 Z" id="path38"></path>
                <path d="M92.9191154,46.4046533 C93.2030569,47.6357445 93.3927126,48.7724701 93.3927126,49.7193799 C93.3927126,53.2228376 91.2165498,54.8335604 85.7273743,54.8335604 L85.0652053,54.8335604 C78.1584895,54.8335604 75.3201577,51.9917464 73.9947358,46.2148375 L67.7491054,17.2359273 C67.4662476,16.0048361 67.3708779,14.8691952 67.3708779,13.9212008 C67.3708779,10.3222928 69.3584688,8.80810488 74.9408464,8.80810488 L75.6030155,8.80810488 C82.6051009,8.80810488 85.3502306,11.6488342 86.6734849,17.3302929 L92.9191154,46.4046533 Z M103.517071,17.2359273 C99.7315452,3.8826555 86.484913,0.0950163766 71.8174893,0.0950163766 C58.5719409,0.0950163766 50.4340892,3.97810574 50.4340892,13.2584724 C50.4340892,14.4895636 50.6237448,15.9104706 50.9066026,17.3302929 L57.1522331,46.4046533 C59.9905649,58.1472023 70.3045794,63.4511987 85.0652053,63.4511987 L88.9450174,63.4511987 C102.192733,63.4511987 110.235215,59.5681094 110.235215,50.286658 C110.235215,49.0555669 110.046643,47.6357445 109.761618,46.2148375 L103.517071,17.2359273 Z" id="path34"></path>
                <path d="M28.2922834,23.297343 L28.2922834,23.3917086 L23.4663607,0.568254334 L6.43420235,0.568254334 L11.3554947,23.4860742 C7.75962419,36.2709832 3.59587054,50.1926179 -2.84217094e-14,62.9775269 L19.1140352,62.9775269 L24.3181854,32.9562567 L24.3181854,33.0517069 L43.7150783,62.9775269 L58.2882161,62.9775269 L28.2922834,23.297343 Z" id="path30"></path>
            </g>
            <g id="U18" transform="translate(87.429385, 386.844326) scale(1, -1) translate(-87.429385, -386.844326) translate(50.426016, 371.780000)" fill="#231F20">
                <path d="M65.7572607,22.1390327 C65.8916452,22.7637979 65.9805124,23.2985362 65.9805124,23.7888033 C65.9805124,25.3528857 65.0885891,26.022122 62.4128193,26.022122 L61.8774486,26.022122 C58.3986226,26.022122 57.3733986,24.6380935 56.8824614,22.4503306 L56.4359579,20.3981504 C56.2137899,19.4165315 56.5703425,17.5411512 59.1128115,17.5411512 L61.4309451,17.5411512 C63.9289805,17.5411512 65.1774563,19.4599179 65.4007081,20.4426216 L65.7572607,22.1390327 Z M63.170358,10.2663243 C63.5713442,12.0950641 62.8138055,13.4801773 60.6734063,13.4801773 L58.354189,13.4801773 C55.9461046,13.4801773 54.6976287,11.8271526 54.2511252,10.2218531 C54.1178244,9.50706097 53.8945726,8.74779768 53.7601881,8.0340902 C53.6268873,7.40932498 53.5380201,6.8745867 53.5380201,6.38323489 C53.5380201,4.82023719 54.474377,4.0609739 57.1945804,4.0609739 L57.4622658,4.0609739 C61.0743925,4.0609739 62.1895675,5.31050434 62.7249383,8.12411713 L63.170358,10.2663243 Z M73.6512694,21.4687117 C73.1603323,19.4599179 71.8674228,16.1571227 67.764359,15.264446 C70.528996,14.6407654 71.2431849,13.1222389 71.2431849,11.2490279 C71.2431849,10.6676491 71.1088004,9.73158597 70.9744158,9.06126495 C70.9299822,8.70332655 70.7966814,8.30200167 70.7511641,7.94514793 C69.6815064,2.45567439 65.2663236,0 57.5522167,0 L55.81172,0 C49.1228373,0 45.7328785,1.87538031 45.7328785,6.02638115 C45.7328785,6.60667523 45.8217457,7.36485385 45.9561303,8.0340902 C46.0016476,8.34647281 46.1349484,8.65994008 46.179382,8.97123802 C46.7591864,11.739295 48.1420468,14.4173251 52.0218589,15.264446 C49.5238234,16.0681804 48.7218511,18.3448856 48.7218511,20.0857678 C48.7218511,20.6215908 48.7662847,21.1118579 48.8551519,21.5142675 L48.9895365,22.2735307 C50.1480613,27.674062 54.2066916,30.1286517 61.9663158,30.1286517 L64.1511485,30.1286517 C70.7966814,30.1286517 74.0067382,28.209885 74.0067382,24.1478264 C74.0067382,23.5219765 73.9633884,22.808269 73.7845702,22.0945615 L73.6512694,21.4687117 Z" id="8"></path>
                <polygon id="1" points="39.4018488 0.357829939 31.4189729 0.357829939 36.9038134 25.8875155 32.5341479 26.4678096 33.2028195 29.7706049 45.6897454 29.7706049"></polygon>
                <path d="M25.0182855,8.21316787 C23.8597606,2.8126366 19.3546269,0.133521872 11.862688,0.133521872 L10.0344079,0.133521872 C3.47882593,0.133521872 2.84217094e-14,2.18678672 2.84217094e-14,6.38334335 C2.84217094e-14,6.96363744 0.0888672044,7.63287379 0.223251757,8.30211014 L4.81616898,29.7708218 L12.8879121,29.7708218 L8.29499491,8.21316787 C8.1616941,7.63287379 8.07174315,7.05257971 8.07174315,6.60678369 C8.07174315,4.99931486 9.00810003,4.24005157 11.5950027,4.24005157 L11.862688,4.24005157 C15.2970804,4.24005157 16.4556053,5.62408007 16.990976,8.30211014 L21.5849769,29.7708218 L29.6122865,29.7708218 L25.0182855,8.21316787 Z" id="U"></path>
            </g>
            <g id="U16" transform="translate(86.996252, 354.143241) scale(1, -1) translate(-86.996252, -354.143241) translate(49.426016, 339.080000)" fill="#231F20">
                <path d="M64.5717777,12.2729486 C64.7061622,12.8987985 64.7950294,13.612506 64.7950294,14.1027732 C64.7950294,15.7991843 63.9031062,16.6473898 61.1829027,16.6473898 L56.677769,16.6473898 L55.0283069,8.92568223 C54.8494888,8.1675036 54.7606216,7.49718259 54.7606216,6.91797317 C54.7606216,5.311589 55.5636777,4.50676992 57.9717621,4.50676992 L58.908119,4.50676992 C62.2081268,4.50676992 63.1889173,6.15762523 63.8575888,8.97123802 L64.5717777,12.2729486 Z M74.4273674,25.6186278 L62.609113,25.6186278 C58.5960001,25.6186278 58.1494966,23.6098341 57.570776,20.8873329 C57.5263424,20.5304792 57.3919578,20.1736254 57.3464405,19.8167717 C59.9333431,20.0846832 62.6535466,20.4404522 65.2404492,20.7083637 C70.9496252,20.7083637 73.0011571,19.4154468 73.0011571,15.8892112 C73.0011571,14.8620364 72.822339,13.5680349 72.51022,12.1840064 L71.7971149,8.92568223 C70.5031217,2.98932801 65.9091207,0 58.5515665,0 L56.7677199,0 C50.4353897,0 46.9121302,2.27562053 46.9121302,6.7834751 C46.9121302,7.45379612 47.0009974,8.1675036 47.1798155,8.97123802 L49.810068,21.1997155 C51.1484948,27.1816255 55.3404259,30.1264824 63.0111829,30.1264824 L75.1404725,29.3238327 L74.4273674,25.6186278 Z" id="6"></path>
                <polygon id="1" points="40.4018488 0.40099948 32.4189729 0.40099948 37.9038134 25.9317697 33.5341479 26.5120638 34.2028195 29.8137744 46.6897454 29.8137744"></polygon>
                <path d="M25.0182855,8.25633741 C23.8597606,2.85580614 19.3546269,0.177776074 11.862688,0.177776074 L10.0344079,0.177776074 C3.47882593,0.177776074 0,2.22995626 0,6.4265129 C0,7.00680698 0.0888672044,7.67604333 0.223251757,8.34527968 L4.81616898,29.8139913 L12.8879121,29.8139913 L8.29499491,8.25633741 C8.1616941,7.67604333 8.07174315,7.09574925 8.07174315,6.64995323 C8.07174315,5.04356906 9.00810003,4.28430577 11.5950027,4.28430577 L11.862688,4.28430577 C15.2970804,4.28430577 16.4556053,5.66724961 16.990976,8.34527968 L21.5849769,29.8139913 L29.6122865,29.8139913 L25.0182855,8.25633741 Z" id="U"></path>
            </g>
            <g id="Eagle" transform="translate(1.000000, 102.000000)">
                <path d="M248.574576,244.66 L248.442359,244.66 L212.158529,244.66 L211.995967,244.66 L211.834489,244.636137 C211.320793,244.558041 210.808181,244.465843 210.295569,244.372562 C209.277931,244.189252 208.316648,244.016789 207.391129,243.970148 C166.881772,241.95374 125.686404,235.139822 84.9483774,223.716043 C61.5708839,217.161362 34.1921988,208.443842 8.37844338,193.488367 C7.02917912,192.706317 5.75469336,191.858103 4.40542909,190.961078 C3.77360495,190.540224 3.12335711,190.108524 2.44276437,189.668147 L0,188.087778 L2.21192639,186.197192 C13.4742189,176.566378 26.2472539,172.39364 37.2570336,169.583251 C59.3752137,163.936442 82.3463023,162.520943 101.899255,161.88207 C102.276399,161.870139 102.653542,161.863631 103.033937,161.863631 C106.472665,161.863631 110.109717,162.371258 113.550612,163.332279 C169.048181,178.831176 215.814006,186.96731 260.724456,188.938162 C267.095801,189.218008 272.992466,189.354676 278.754745,189.353592 C301.627213,189.353592 321.613664,187.102895 339.856367,182.47134 C360.343509,177.269246 375.186499,169.591928 386.565837,158.310241 C391.299641,153.61686 392.683585,148.862737 390.793531,143.775619 C386.799926,133.015659 382.526714,122.780682 378.089856,113.35704 C377.583746,112.283213 377.075469,111.208302 376.568276,110.134475 C369.429639,95.0336534 362.048242,79.4197809 359.924099,62.0704311 C359.186068,56.0439861 358.686461,47.9121901 361.389324,38.446246 L363.617507,30.6409368 L365.57692,38.5189191 C367.838699,47.617159 374.010635,51.4981202 379.751239,54.0959128 C383.375287,55.7359388 386.941897,57.0256154 390.350279,57.9291483 C401.586562,60.9065766 413.674669,62.4164418 426.277556,62.4164418 C431.315893,62.4164418 436.564476,62.176729 441.878085,61.7048961 C448.478101,61.1180879 455.179988,59.6429322 461.659708,58.2176714 L463.199712,57.8781687 C463.484737,57.8163423 463.786018,57.6840121 464.099221,57.5028717 L461.639117,57.7360764 L454.081069,58.4562995 L452.67545,58.5897144 L451.985104,57.3564408 L451.796532,57.0191074 L451.419388,56.3455252 L450.412588,54.5471369 L452.156336,53.4494475 C453.1989,52.7921354 454.25772,52.0849284 455.280777,51.4037536 C457.889354,49.6639376 460.585715,47.8644645 463.527003,46.5173002 C464.559813,46.043298 466.01095,45.771045 467.507603,45.771045 C469.181992,45.771045 471.414509,46.0866849 472.542689,47.5867881 C474.095698,49.6509215 475.843781,50.4937127 478.579157,50.4937127 C479.790785,50.4937127 481.051182,50.3353503 482.386358,50.1693953 C483.16232,50.0728594 483.964292,49.9719848 484.763014,49.904735 C486.863314,49.7268486 488.635239,49.1205162 490.100465,48.0694678 C488.685092,48.2701323 487.23829,48.3688376 485.747055,48.3688376 C479.915416,48.3688376 474.351462,46.8405329 468.970661,45.3621232 L468.397359,45.2048455 C463.377446,43.8273104 458.317434,42.2968363 453.425403,40.8162572 C444.396712,38.0828805 435.06132,35.2594758 425.751939,33.342858 C417.070046,31.5553164 410.509046,30.7580815 404.476913,30.7580815 C392.822304,30.7580815 383.083759,33.9839 374.7064,40.617762 L371.625309,43.058277 L371.205899,39.1480297 C370.280379,30.4966752 368.234266,24.8314264 364.366375,20.2031254 C360.03139,15.0173022 354.789308,12.4954367 348.33885,12.4954367 C346.698058,12.4954367 344.960812,12.6657304 343.172631,12.9987251 C335.916949,14.3567361 331.394475,18.9221262 329.733092,26.5669038 C328.807572,30.8253312 328.506291,35.3267255 328.860676,39.5873224 C329.529348,47.6269211 332.470635,55.4951414 338.396561,65.095585 C338.825724,65.7919452 339.219124,66.4980676 339.597352,67.1803271 C339.7675,67.486205 339.938732,67.7909982 340.111047,68.0947067 L347.453429,80.9979806 L336.729759,70.7369709 C321.538885,56.2023484 313.710985,40.3975733 312.849407,22.4928708 C302.874605,23.4506373 293.436258,23.9181315 284.065103,23.9181315 C274.763307,23.9181315 265.522202,23.4321979 256.59755,22.4766007 C238.294157,20.5155113 208.590836,14.2113899 199.158991,9.32276723 L186.204971,2.60755467 L200.549438,5.26283498 L201.511805,5.44397542 C201.966978,5.53074929 202.298605,5.59257567 202.631315,5.64680933 C207.410636,6.41150403 212.250648,7.2868354 216.932432,8.1328806 C227.237777,9.99743404 237.894255,11.9248985 248.404427,12.7546736 C253.337641,13.1440714 258.457259,13.3414819 263.624562,13.3414819 C288.529054,13.3414819 313.510492,8.7587371 336.796951,3.8061187 C338.566709,3.42973706 340.374398,2.99152903 342.122481,2.56633709 C347.324463,1.30486201 352.702013,0 358.264883,0 C361.706862,0 364.886574,0.491357017 367.986088,1.50118788 C374.500488,3.62389358 381.216464,5.56437416 387.709189,7.44085901 C394.24418,9.32927527 401.001338,11.2816873 407.592684,13.4304251 C422.553803,18.3060317 437.709996,23.4170124 452.365499,28.3576994 C461.554585,31.4576958 471.056873,34.6618208 480.412856,37.7748332 C482.929315,38.612201 485.066463,39.0189535 486.945679,39.0189535 C490.621747,39.0189535 493.388551,37.4461772 495.653581,34.0717585 L497.569645,31.217983 L499.318811,34.1769718 L500.500095,36.1760248 L501.696551,38.2000252 L502,38.7109063 L502,39.3042226 L502,46.2211844 L502,46.7711138 L501.738817,47.2537934 C498.026986,54.1219449 491.839878,58.0191762 482.268229,59.5171101 C478.168417,60.1592367 474.510773,61.8025167 471.116479,63.4306114 C464.715873,66.5013216 457.175165,68.6446361 448.70352,69.8041519 C437.08901,71.3953676 424.524054,72.1361995 409.158698,72.1361995 C399.816804,72.1361995 390.32752,71.8672005 381.15144,71.6068789 C378.683749,71.5363752 376.213891,71.4669561 373.747284,71.4018757 C373.255263,71.3877749 372.763242,71.3845209 372.220285,71.3845209 C371.916836,71.3845209 371.597131,71.3856056 371.253584,71.3866903 C371.442156,72.2750377 371.615555,73.1525384 371.786787,74.0159384 C372.496641,77.589937 373.165312,80.9654404 374.580685,83.8419941 C379.89321,94.6496791 386.109579,105.399876 391.518558,114.628277 C393.663292,118.28688 396.051869,121.918366 398.361332,125.430539 C400.953654,129.372242 403.634842,133.448444 406.025587,137.638537 C411.774861,147.716237 411.604713,157.93169 405.503221,168.869536 C390.452151,195.850785 367.054066,215.180748 333.971624,227.963623 C311.351669,236.705006 286.510034,241.732467 255.79341,243.786838 C254.224146,243.892051 252.668969,244.106817 251.022759,244.335683 C250.251131,244.441981 249.479504,244.548279 248.706793,244.64373 L248.574576,244.66 Z M248.717657,242.408528 C251.119292,242.112777 253.512261,241.699595 255.92148,241.537585 C282.456463,239.758731 308.505054,235.476867 333.430281,225.81821 C363.295273,214.244784 387.860851,196.238777 403.818673,167.547683 C409.333659,157.634593 409.848218,148.040088 404.351647,138.379256 C399.867944,130.499453 394.440703,123.164397 389.863838,115.333524 C383.916622,105.15839 378.040903,94.9082313 372.8574,84.332964 C370.600924,79.7303415 370.141613,74.2404665 368.758262,68.7234085 C370.327937,68.7234085 371.4643,68.7103607 372.442503,68.7103607 C373.004726,68.7103607 373.514952,68.7147099 374.026261,68.7277578 C385.802616,69.0398184 397.589803,69.4638729 409.362908,69.4638729 C422.468449,69.4638729 435.554492,68.9386977 448.599369,67.1467955 C456.033931,66.1268901 463.643985,64.1805886 470.359248,60.9512503 C474.256895,59.0767119 477.894555,57.5022736 482.10852,56.8400961 C489.604829,55.6625293 496.153267,52.7985304 500,45.6602793 L500,38.7264443 C499.289367,37.5206072 498.576568,36.3147702 497.621114,34.6935771 C494.709252,39.0450289 491.085675,40.6151179 487.118698,40.6151179 C484.806975,40.6151179 482.378257,40.0812441 479.905125,39.2570561 C455.635284,31.1576148 431.447771,22.8059155 407.129181,14.8565243 C394.029056,10.5757483 380.639695,7.18005017 367.538487,2.89818686 C364.464134,1.89350385 361.455861,1.5009816 358.493085,1.5009816 C351.351009,1.5009816 344.463505,3.78109012 337.485004,5.2696302 C313.155582,10.4572305 288.691833,14.8750087 263.893349,14.8750087 C258.779177,14.8750087 253.654171,14.6879898 248.509667,14.280245 C233.109735,13.0602728 217.886378,9.58954969 202.583941,7.13438276 C202.036884,7.0463099 201.493077,6.9332287 200.452043,6.73968586 C209.330619,11.3553562 238.229324,17.6683319 257.10009,19.695095 C266.166074,20.6693331 275.226642,21.1281818 284.325124,21.1281818 C294.538304,21.1281818 304.799147,20.5508153 315.189985,19.4798058 C315.469472,39.5071396 324.498624,55.2623959 338.465374,68.6636059 C337.907484,67.6828439 337.381009,66.6835975 336.789538,65.7234946 C331.747945,57.5316312 327.745219,48.8722205 326.942507,39.1907296 C326.566609,34.6707434 326.895926,29.9289441 327.856797,25.4959434 C329.616047,17.3780177 334.540645,11.8087683 343.009741,10.2201949 C344.919566,9.8613795 346.775228,9.67762255 348.571309,9.67762255 C355.410066,9.67762255 361.386531,12.3437294 366.253715,18.1837212 C371.052653,23.9410768 372.786987,30.8770865 373.584282,38.3382713 C383.384731,30.5541526 393.916395,27.9848172 404.685298,27.9848172 C411.860956,27.9848172 419.142775,29.1243278 426.387762,30.6193918 C440.844156,33.6040832 454.87807,38.6177124 469.150305,42.5440223 C474.653376,44.0575707 480.184612,45.6385329 485.920588,45.6385329 C489.126019,45.6385329 492.393196,45.14489 495.760036,43.8705518 C493.504643,48.9450709 489.690409,51.1305826 485.120043,51.5198429 C483.024977,51.6981633 480.86058,52.1178685 478.755764,52.1178685 C475.95873,52.1178685 473.268942,51.3752294 470.990801,48.3372594 C470.505491,47.6892171 469.123223,47.3836804 467.688958,47.3836804 C466.559096,47.3836804 465.395651,47.5728739 464.611355,47.9338639 C460.693126,49.7344647 457.177877,52.4212306 453.497969,54.7470065 L454.063442,55.7593008 C458.85913,55.3015393 463.656984,54.8448653 468.453755,54.3871038 L469.082059,56.1105049 C467.344475,57.2674126 465.745551,59.0538782 463.846558,59.4703215 C456.707732,61.0404105 449.519075,62.6996597 442.262172,63.347702 C436.992006,63.8174239 431.726174,64.069682 426.476592,64.069682 C414.21276,64.069682 402.028008,62.6931358 390.011165,59.4985918 C386.27601,58.5069566 382.600435,57.1336723 379.077603,55.535313 C371.94311,52.2983635 366.00131,47.7490197 363.699337,38.4644004 C361.338866,46.7530352 361.415779,54.0206772 362.301904,61.2828827 C364.529131,79.5302748 372.596329,95.6889265 380.26813,112.03351 C384.969572,122.04772 389.198704,132.317451 393.038937,142.694826 C395.399408,149.069779 393.199263,154.70318 388.306079,159.567847 C374.95355,172.842928 358.408589,179.821343 340.624355,184.350028 C320.334489,189.515881 299.741305,191.316482 279.017044,191.317569 C272.986415,191.317569 266.949287,191.165345 260.900242,190.897864 C210.604559,188.684082 161.647811,178.691618 113.300951,165.152318 C110.116103,164.259629 106.6951,163.759462 103.371592,163.759462 C103.015192,163.759462 102.660959,163.764899 102.308893,163.77686 C80.7158395,164.484704 59.1964496,166.04392 38.1580368,171.4305 C25.9592022,174.554368 14.2608437,178.831882 4,187.63047 C6.11239921,189.001579 7.92689596,190.29114 9.84213791,191.404555 C33.6830003,205.25809 59.5268505,214.084948 85.8776765,221.495029 C125.76194,232.710727 166.382835,239.652173 207.791276,241.720255 C209.351202,241.797454 210.897045,242.172579 212.449387,242.408528 L248.717657,242.408528" id="White-Copy" fill="#FFFFFF" transform="translate(251.000000, 122.330000) scale(1, -1) translate(-251.000000, -122.330000) "></path>
                <path d="M342.379419,3.61704407 C340.624817,4.04223487 338.809525,4.48369573 337.025661,4.8622457 C313.678293,9.82678213 288.62726,14.4225306 263.627164,14.4225306 C258.430551,14.4225306 253.281623,14.2229513 248.322353,13.8313853 C237.755727,12.996189 227.068803,11.0643911 216.735184,9.19441929 C212.062026,8.34946104 207.228472,7.4752167 202.46211,6.7126934 C202.121811,6.65845988 201.782595,6.59337966 201.319831,6.50552136 L193.185154,4.99891417 L199.658432,8.35379972 C208.991744,13.1914297 238.503519,19.4434699 256.716048,21.3937073 C265.600684,22.3449633 274.801778,22.8287263 284.064645,22.8287263 C293.75668,22.8287263 303.525662,22.3265239 313.889626,21.2971716 C314.454263,39.3829659 322.180364,55.3070121 337.480839,69.9478932 L342.840015,75.0762149 L339.172583,68.6267647 L338.657799,67.7091335 C338.275233,67.0192831 337.890499,66.3305174 337.476504,65.6601911 C331.45732,55.9057502 328.467236,47.8900359 327.783385,39.6725729 C327.420327,35.3089439 327.729197,30.6958407 328.677484,26.3322117 C330.439673,18.2210464 335.251552,13.374739 342.976569,11.9288734 C344.829792,11.5817788 346.634247,11.4060622 348.341164,11.4060622 C355.038779,11.4060622 360.711161,14.1296696 365.201165,19.5020421 C370.280732,25.5794504 371.657102,33.1298411 372.287849,39.0271941 L372.49593,40.9828548 L374.037032,39.7626006 C382.613881,32.9703945 392.571437,29.6686578 404.483005,29.6686578 C410.58889,29.6686578 417.218229,30.4734833 425.974982,32.2751208 C435.332136,34.2014954 444.693625,37.0335699 453.746244,39.7734473 C458.630735,41.2518531 463.683208,42.7801536 468.687996,44.1544311 L469.263471,44.3117083 C474.573878,45.77059 480.066356,47.2782818 485.750659,47.2782818 C488.391774,47.2782818 490.890917,46.958304 493.319615,46.3042478 C491.369937,49.1287295 488.581431,50.6657075 484.860895,50.9813466 C484.08926,51.0453421 483.308956,51.1429625 482.5254,51.2405828 C481.216222,51.404368 479.861526,51.5735766 478.584861,51.5735766 C475.505908,51.5735766 473.440268,50.5745952 471.681331,48.2349611 C470.776395,47.030977 468.68041,46.8509217 467.51212,46.8509217 C466.166094,46.8509217 464.878591,47.0873798 463.982325,47.4984699 C461.117956,48.8109211 458.457334,50.5865265 455.883412,52.3035598 C454.838671,52.9988335 453.796097,53.6962766 452.737267,54.3622642 L451.865926,54.9121921 L453.279145,57.4383895 L467.5468,56.0803821 L467.604239,56.2365747 C467.267191,56.4882182 466.937729,56.7496238 466.616937,57.0077753 C465.523427,57.8787657 464.49169,58.7020305 463.436111,58.93415 L461.902596,59.2703978 C455.387051,60.7043321 448.649337,62.1859918 441.977731,62.7803912 C436.633728,63.2554768 431.353666,63.4962737 426.284936,63.4962737 C413.58656,63.4962737 401.405137,61.9744811 390.077713,58.9721134 C386.615111,58.0555669 382.992112,56.7452851 379.308424,55.0792314 C373.331506,52.375148 366.902662,48.3239041 364.528152,38.7766352 L363.548436,34.8371123 L362.434334,38.7408411 C360.339433,46.0753823 359.912433,53.0118496 361.003775,61.9332636 C363.105179,79.1057655 370.446546,94.637161 377.547319,109.657677 L379.073249,112.891079 C383.523153,122.340728 387.80941,132.602794 391.813891,143.393096 C393.837264,148.844649 392.329759,154.121571 387.331474,159.076345 C375.808974,170.499009 360.807615,178.265249 340.125205,183.517223 C321.793463,188.171544 301.720123,190.433082 278.758573,190.433082 C272.978899,190.433082 267.065923,190.297498 260.68043,190.016568 C215.685024,188.042468 168.839646,179.893339 113.259191,164.371706 C109.91255,163.437805 106.376253,162.94428 103.032864,162.94428 C102.66547,162.94428 102.300244,162.949703 101.936102,162.961634 C82.4404051,163.599421 59.5417125,165.008407 37.5251978,170.629169 C26.6356118,173.40918 14.008764,177.530927 2.9154317,187.01637 L1.81,187.961118 L3.03139366,188.751842 C3.71849532,189.196557 4.37416805,189.632595 5.01141691,190.056701 C6.34443749,190.942877 7.60376263,191.780242 8.92161062,192.544935 C34.6294002,207.438544 61.9281445,216.130008 85.2408321,222.667317 C125.902295,234.068287 167.017852,240.869171 207.446307,242.881234 C208.441195,242.931129 209.435,243.1101 210.488412,243.299917 C210.991275,243.391029 211.494138,243.481057 211.999168,243.558069 L212.079366,243.57 L248.512011,243.57 L248.577036,243.562407 C249.343252,243.468041 250.108384,243.361743 250.8746,243.255446 C252.467722,243.035257 254.115032,242.806392 255.724411,242.69901 C286.327529,240.652237 311.068608,235.647567 333.584734,226.947426 C366.420391,214.258952 389.637708,195.087402 404.559952,168.336176 C410.461007,157.757386 410.634408,147.891224 405.087741,138.171492 C402.714315,134.010697 400.041771,129.948606 397.458095,126.01993 C395.141024,122.495836 392.745922,118.853512 390.587079,115.172141 C385.167212,105.924241 378.937779,95.1523794 373.611116,84.3165221 C372.133955,81.3109004 371.450105,77.8670719 370.727239,74.22041 C370.47364,72.9404989 370.212455,71.626963 369.911171,70.3047498 C370.237381,70.3036651 372.240164,70.2960724 372.240164,70.2960724 C372.786377,70.2960724 373.282737,70.2993264 373.780182,70.3123425 C376.248979,70.3774227 378.71886,70.4468416 381.189825,70.5184299 C390.357322,70.7776661 399.836941,71.0466644 409.162666,71.0466644 C424.478314,71.0466644 436.99787,70.3090885 448.560469,68.7254697 C456.920567,67.5811424 464.354053,65.4692891 470.651763,62.4473974 C474.120868,60.7845977 477.864163,59.1044432 482.104902,58.4417096 C491.315749,57.0001826 497.251484,53.2797632 500.789949,46.7326926 L500.92,46.4908111 L500.92,39.0033313 L497.515921,33.2448161 L496.558964,34.6722424 C494.107506,38.323243 490.964612,40.0988484 486.950378,40.0988484 C484.951931,40.0988484 482.703136,39.6736576 480.07611,38.7983286 C470.698364,35.6788165 461.333624,32.521341 451.968883,29.3627808 C437.332751,24.4275304 422.19809,19.3241562 407.261757,14.4561554 C400.692025,12.315016 393.946724,10.366948 387.423593,8.48070616 C380.916719,6.60097235 374.189842,4.65724299 367.653706,2.52695032 C364.664705,1.55400097 361.594423,1.08 358.268374,1.08 C352.834418,1.08 347.519676,2.36967311 342.379419,3.61704407 Z" id="Body" fill="#231F20" transform="translate(251.365000, 122.325000) scale(1, -1) translate(-251.365000, -122.325000) "></path>
                <path d="M367.450176,168.749867 C365.620812,175.660726 360.788387,176.806208 355.608079,177.567693 C338.134836,180.137435 321.888394,175.877673 306.243431,168.59258 C287.15974,159.706415 270.325908,147.371871 254.737299,133.406967 C249.618765,128.823953 243.996289,126.668581 237.593515,125.274694 C216.964403,120.790391 196.301694,119.632977 175.505684,123.966501 C174.684205,124.138974 173.882232,124.404735 172.220849,124.860325 C173.883316,126.183704 175.008245,127.142611 176.194947,128.016909 C219.98372,160.236851 268.578908,181.021496 322.381498,189.203667 C334.212758,191.003245 346.193574,191.724596 357.978232,188.610316 C368.222887,185.902812 371.349495,179.701371 367.450176,168.749867" id="Yellow-Wing" fill="#F2EF1D" transform="translate(270.646062, 156.000000) scale(1, -1) translate(-270.646062, -156.000000) "></path>
                <path d="M376.219635,92.7348283 C376.659636,100.655726 372.791745,104.842316 366.589464,107.715445 C347.176315,116.707936 326.748779,118.609255 305.807548,116.416176 C272.38806,112.918313 241.74188,100.613426 211.797967,86.1978911 C210.37284,85.5113338 208.837172,84.9722832 207.561602,84.0688041 C195.637141,75.6186171 182.30706,74.5188238 168.168504,75.3322803 C139.43622,76.9863087 111.666302,82.258592 85.4634821,94.5591402 C83.9180597,95.2847435 82.4008148,96.0700003 80.0393314,97.2392085 C82.8343133,98.5342314 84.9118552,99.5494252 87.0294956,100.471343 C129.564374,118.996461 174.043494,130.238431 219.987838,135.976011 C250.930965,139.839388 281.947787,141.216841 313.056727,138.433735 C330.442187,136.878406 347.667252,134.374044 363.888768,127.443394 C367.304737,125.984595 370.658932,124.190652 373.688003,122.050719 C384.020441,114.748048 385.186552,103.188288 376.219635,92.7348283" id="Red-Wing" fill="#ED1C24" transform="translate(231.148362, 107.505000) scale(1, -1) translate(-231.148362, -107.505000) "></path>
            </g>
        </g>
    </g>
</svg>
