<?xml version="1.0" encoding="utf-8"?>
<!-- Generator: Adobe Illustrator 16.0.0, SVG Export Plug-In . SVG Version: 6.00 Build 0)  -->
<!DOCTYPE svg PUBLIC "-//W3C//DTD SVG 1.1//EN" "http://www.w3.org/Graphics/SVG/1.1/DTD/svg11.dtd">
<svg version="1.1" id="Layer_2" xmlns="http://www.w3.org/2000/svg" xmlns:xlink="http://www.w3.org/1999/xlink" x="0px" y="0px"
	 width="256px" height="325.276px" viewBox="0 0 256 325.276" enable-background="new 0 0 256 325.276" xml:space="preserve">
<g id="Layer_3">
	<g>
		<path fill-rule="evenodd" clip-rule="evenodd" fill="#BD0005" d="M255.999,210.24c-0.144,1.586-0.276,3.173-0.435,4.757
			c-0.729,7.279-2.371,14.361-4.726,21.273c-6.372,18.711-16.622,35.075-30.116,49.453c-6.824,7.271-14.377,13.695-22.665,19.241
			c-10.307,6.897-21.376,12.187-33.296,15.676c-5.468,1.601-11.015,2.824-16.653,3.602c-4.336,0.598-8.688,1.044-13.08,1.003
			c-5.101-0.047-10.208,0.126-15.302-0.054c-4.159-0.147-8.32-0.556-12.453-1.063c-5.24-0.644-10.382-1.843-15.455-3.306
			c-7.059-2.035-13.87-4.709-20.433-8.011c-11.297-5.684-21.485-12.942-30.661-21.633c-11.195-10.604-20.396-22.727-27.594-36.361
			c-4.812-9.116-8.537-18.65-10.847-28.713c-1.12-4.875-1.88-9.803-2.146-14.803c-0.019-0.355-0.091-0.708-0.138-1.061
			c0-2.009,0-4.019,0-6.029c0.048-0.38,0.134-0.761,0.139-1.142c0.053-4.249,0.11-8.497,0.134-12.746
			c0.029-5.177,0.038-10.354,0.036-15.532c-0.007-21.458-0.016-42.915-0.034-64.372c-0.01-11.771-0.043-23.543-0.063-35.314
			c-0.015-8.86-0.026-17.721-0.04-26.582C0.147,33.867,0.122,19.21,0.102,4.554C0.1,3.036,0.136,1.518,0.155,0
			c85.229,0,170.459,0,255.689,0c0.003,2.445,0.012,4.89,0.009,7.334c-0.02,13.961-0.039,27.922-0.064,41.883
			c-0.017,8.912-0.052,17.824-0.065,26.735c-0.018,12.184-0.041,24.368-0.031,36.552c0.022,28.334,0.062,56.668,0.098,85.003
			c0.002,1.391,0.009,2.781,0.046,4.171c0.024,0.896,0.107,1.792,0.164,2.688C255.999,206.324,255.999,208.282,255.999,210.24z
			 M3.073,2.979c0,1.309-0.001,2.54,0,3.77C3.09,21.305,3.104,35.861,3.126,50.417c0.015,8.99,0.051,17.98,0.064,26.971
			c0.02,13.036,0.039,26.072,0.037,39.107c-0.003,22.62-0.02,45.24-0.038,67.86c-0.003,4.353-0.036,8.706-0.065,13.059
			c-0.015,2.215,0.022,4.434-0.097,6.644c-0.253,4.701,0.042,9.371,0.716,14.015c1.021,7.025,2.842,13.854,5.34,20.495
			c7.656,20.352,19.683,37.746,35.722,52.366c12.274,11.189,26.195,19.69,41.914,25.179c8.32,2.905,16.865,4.797,25.621,5.728
			c7.777,0.827,15.583,0.74,23.384,0.524c7.431-0.206,14.761-1.224,22.003-2.909c10.157-2.364,19.796-6.071,28.952-11.046
			c12.132-6.593,22.857-15.012,32.263-25.102c14.354-15.399,24.921-33.004,30.75-53.322c2.168-7.556,3.423-15.263,3.357-23.147
			c-0.044-5.407-0.184-10.814-0.233-16.221c-0.047-5.229-0.046-10.459-0.044-15.688c0.007-21.641,0.018-43.282,0.037-64.923
			c0.015-17.415,0.041-34.83,0.065-52.245c0.004-3.117,0.028-6.234,0.032-9.351c0.018-14.865,0.033-29.73,0.046-44.595
			c0-0.271-0.031-0.541-0.05-0.836C169.604,2.979,86.396,2.979,3.073,2.979z"/>
		<path fill-rule="evenodd" clip-rule="evenodd" fill="#FFFFFF" d="M255.999,204.366c-0.056-0.896-0.14-1.791-0.164-2.688
			c-0.037-1.39-0.044-2.781-0.046-4.171c-0.035-28.334-0.075-56.668-0.098-85.003c-0.01-12.184,0.013-24.368,0.031-36.552
			c0.014-8.912,0.049-17.823,0.065-26.735c0.025-13.961,0.044-27.922,0.064-41.883c0.003-2.444-0.005-4.889-0.009-7.334
			c0.052,0.026,0.146,0.049,0.148,0.078c0.013,0.206,0.007,0.412,0.007,0.618C255.999,68.586,255.999,136.476,255.999,204.366z"/>
		<path fill-rule="evenodd" clip-rule="evenodd" fill="#FFFFFF" d="M0.155,0C0.136,1.518,0.1,3.036,0.102,4.554
			c0.02,14.657,0.045,29.313,0.069,43.97c0.014,8.861,0.025,17.722,0.04,26.582c0.021,11.771,0.053,23.543,0.063,35.314
			c0.019,21.458,0.027,42.915,0.034,64.372c0.002,5.178-0.007,10.355-0.036,15.532c-0.023,4.249-0.081,8.497-0.134,12.746
			c-0.005,0.381-0.09,0.761-0.139,1.142C0,136.373,0,68.534,0.006,0.696C0.006,0.464,0.103,0.232,0.155,0z"/>
		<path fill-rule="evenodd" clip-rule="evenodd" fill="#FFFFFF" d="M3.073,2.979c83.324,0,166.531,0,249.829,0
			c0.019,0.296,0.05,0.566,0.05,0.836c-0.013,14.865-0.028,29.73-0.046,44.595c-0.004,3.117-0.028,6.234-0.032,9.351
			c-0.024,17.416-0.05,34.831-0.065,52.245c-0.019,21.641-0.029,43.282-0.037,64.923c-0.001,5.229-0.002,10.459,0.044,15.688
			c0.049,5.407,0.188,10.814,0.233,16.221c0.065,7.884-1.189,15.591-3.357,23.147c-5.828,20.317-16.396,37.922-30.75,53.322
			c-9.405,10.09-20.13,18.508-32.263,25.102c-9.156,4.975-18.795,8.683-28.952,11.046c-7.243,1.686-14.572,2.704-22.003,2.909
			c-7.801,0.216-15.607,0.303-23.384-0.524c-8.755-0.931-17.301-2.823-25.621-5.728c-15.718-5.489-29.64-13.99-41.914-25.179
			c-16.039-14.621-28.065-32.014-35.722-52.366c-2.498-6.641-4.32-13.469-5.34-20.495c-0.675-4.645-0.969-9.314-0.716-14.015
			c0.119-2.21,0.082-4.429,0.097-6.644c0.029-4.353,0.062-8.706,0.065-13.059c0.019-22.62,0.035-45.24,0.038-67.86
			C3.229,103.459,3.21,90.423,3.19,77.388c-0.013-8.991-0.049-17.981-0.064-26.971C3.104,35.861,3.09,21.305,3.073,6.749
			C3.071,5.519,3.073,4.288,3.073,2.979z M6.599,5.711c0,0.518-0.001,0.901,0,1.284c0.015,3.632,0.037,7.264,0.043,10.896
			c0.023,13.241,0.037,26.483,0.061,39.725c0.017,9.479,0.05,18.959,0.062,28.439C6.783,100.534,6.8,115.013,6.8,129.491
			c0,12.907-0.016,25.814-0.035,38.721c-0.013,8.887-0.041,17.774-0.066,26.662c-0.005,1.597,0.018,3.196-0.059,4.79
			c-0.243,5.053-0.147,10.091,0.535,15.109c1.143,8.408,3.403,16.521,6.594,24.368c7.91,19.453,19.794,36.108,35.502,50.024
			c10.217,9.051,21.627,16.218,34.31,21.316c7.111,2.858,14.429,5.026,21.996,6.241c3.958,0.635,7.956,1.103,11.954,1.388
			c3.82,0.273,7.664,0.231,11.499,0.293c9.177,0.147,18.25-0.747,27.196-2.821c8.935-2.071,17.481-5.215,25.64-9.406
			c12.858-6.605,24.157-15.28,33.975-25.862c14.461-15.589,25.038-33.414,30.662-54.024c1.939-7.106,3.032-14.35,2.977-21.734
			c-0.044-5.819-0.194-11.638-0.237-17.458c-0.049-6.698-0.044-13.396-0.042-20.094c0.004-14.71,0.018-29.421,0.035-44.131
			c0.016-14.221,0.042-28.441,0.063-42.661c0.013-8.373,0.024-16.745,0.036-25.117c0.023-16.153,0.041-32.306,0.083-48.459
			c0.002-0.744-0.2-0.941-0.948-0.941C168.217,5.712,87.965,5.711,7.713,5.711C7.384,5.711,7.055,5.711,6.599,5.711z"/>
		<path fill-rule="evenodd" clip-rule="evenodd" fill="#BD0005" d="M6.599,5.711c0.456,0,0.785,0,1.114,0
			c80.252,0,160.504,0.001,240.756-0.017c0.748,0,0.95,0.197,0.948,0.941c-0.042,16.153-0.061,32.306-0.083,48.459
			c-0.012,8.372-0.023,16.745-0.036,25.117c-0.021,14.22-0.047,28.44-0.063,42.661c-0.017,14.71-0.031,29.42-0.035,44.131
			c-0.001,6.698-0.007,13.396,0.042,20.094c0.043,5.819,0.193,11.638,0.237,17.458c0.056,7.384-1.038,14.627-2.977,21.734
			c-5.624,20.61-16.2,38.435-30.662,54.024c-9.818,10.583-21.117,19.257-33.975,25.862c-8.159,4.191-16.705,7.335-25.64,9.406
			c-8.946,2.074-18.019,2.968-27.196,2.821c-3.834-0.062-7.678-0.021-11.499-0.293c-3.999-0.285-7.996-0.752-11.954-1.388
			c-7.567-1.215-14.885-3.382-21.996-6.241c-12.683-5.098-24.093-12.265-34.31-21.316c-15.708-13.916-27.592-30.571-35.502-50.024
			c-3.191-7.848-5.451-15.96-6.594-24.368c-0.682-5.018-0.777-10.056-0.535-15.109c0.077-1.594,0.054-3.193,0.059-4.79
			c0.025-8.887,0.053-17.774,0.066-26.662c0.019-12.907,0.035-25.814,0.035-38.721c0-14.478-0.017-28.957-0.036-43.435
			c-0.012-9.479-0.045-18.959-0.062-28.439C6.679,44.375,6.665,31.133,6.642,17.892C6.635,14.26,6.613,10.627,6.599,6.996
			C6.597,6.612,6.599,6.229,6.599,5.711z M23.946,86.164c0,0.352-0.001,0.603,0,0.854c0.041,11.438,0.087,22.875,0.12,34.312
			c0.021,7.368,0.03,14.736,0.029,22.104c-0.004,17.467-0.015,34.934-0.03,52.401c-0.001,1.544-0.089,3.089-0.076,4.633
			c0.03,3.549-0.104,7.114,0.19,10.643c0.634,7.612,2.592,14.943,5.371,22.045c5.972,15.263,14.958,28.519,26.75,39.881
			c7.84,7.556,16.63,13.766,26.43,18.535c6.758,3.29,13.809,5.746,21.144,7.368c4.376,0.968,8.8,1.693,13.282,1.912
			c3.599,0.175,7.204,0.202,10.807,0.291c7.911,0.194,15.74-0.525,23.473-2.196c7.826-1.691,15.336-4.316,22.521-7.856
			c11.339-5.586,21.319-13.028,29.976-22.215c11.153-11.835,19.515-25.373,24.465-40.92c2.467-7.746,3.839-15.674,3.708-23.839
			c-0.114-7.107-0.191-14.216-0.191-21.325c0-20.455,0.046-40.91,0.075-61.365c0.015-10.82,0.03-21.639,0.045-32.459
			c0.001-0.915,0-1.829,0-2.843c4.147,0,8.148,0,12.162,0c0-1.042,0-1.979,0-2.926c-77.438,0-154.817,0-232.286,0
			c0,0.734,0.045,1.427-0.013,2.111c-0.058,0.688,0.187,0.875,0.864,0.869c3.401-0.032,6.802-0.014,10.202-0.014
			C23.264,86.164,23.566,86.164,23.946,86.164z M82.582,71.9c4.097,0,8.193,0.012,12.29-0.01c0.846-0.005,1.692-0.13,2.536-0.22
			c0.429-0.046,0.779-0.257,0.692-0.745c-0.174-0.977-0.282-1.999-1.243-2.614c-1.256-0.803-2.503-1.621-3.756-2.428
			c-1.534-0.988-2.493-2.228-2.792-4.173c-0.768-4.98-1.804-9.919-2.682-14.884c-0.847-4.787-1.608-9.589-2.452-14.377
			c-0.451-2.559-1.05-5.092-0.979-7.719c0.018-0.656,0.114-1.256,0.683-1.627c0.938-0.612,1.875-1.241,2.876-1.736
			c1.308-0.647,2.691-1.142,4.014-1.761c0.59-0.277,0.988-1.476,0.777-2.093c-0.253-0.743-0.902-0.463-1.392-0.464
			c-6.725-0.016-13.449-0.005-20.173-0.017c-1.2-0.002-2.043,0.325-2.583,1.569c-1.166,2.687-2.532,5.286-3.764,7.946
			c-2.118,4.571-4.189,9.164-6.297,13.739c-0.323,0.7-1.266,0.701-1.669,0.035c-0.093-0.152-0.144-0.33-0.213-0.495
			c-2.938-6.967-5.857-13.941-8.825-20.896c-0.787-1.844-1.081-1.948-2.861-1.937c-5.976,0.037-11.952,0.033-17.929,0.046
			c-0.823,0.001-1.651,0.588-1.807,1.271c-0.256,1.124,0.085,2.142,0.915,2.536c0.67,0.318,1.379,0.556,2.071,0.83
			c1.264,0.5,2.544,0.964,3.781,1.524c0.387,0.176,0.838,0.562,0.946,0.94c0.433,1.523,0.864,3.066,1.066,4.632
			c0.268,2.077-0.652,3.983-1.236,5.913c-2.294,7.582-4.643,15.146-6.982,22.713c-0.781,2.527-1.473,5.086-3.03,7.303
			c-1.345,1.914-3.028,3.198-5.445,3.337c-0.59,0.034-1.178,0.12-1.763,0.211c-1.197,0.188-1.532,0.723-1.449,2.259
			c0.047,0.869,0.445,1.208,1.589,1.227c0.795,0.013,1.592-0.1,2.389-0.098c3.837,0.009,7.675,0.025,11.513,0.065
			c1.75,0.019,3.5,0.104,5.25,0.142c0.176,0.003,0.413-0.069,0.523-0.194c0.834-0.943,0.667-1.793-0.454-2.36
			c-0.297-0.15-0.625-0.239-0.925-0.384c-0.783-0.379-1.599-0.709-2.325-1.179c-0.717-0.465-0.99-1.13-0.724-2.064
			c1.6-5.614,3.137-11.246,4.719-16.865c0.772-2.742,1.597-5.469,2.4-8.202c0.205-0.697,0.818-0.915,1.358-0.445
			c0.26,0.226,0.48,0.54,0.618,0.858c3.527,8.141,7.037,16.289,10.558,24.433c0.867,2.005,1.775,3.994,2.632,6.004
			c0.24,0.563,0.663,0.645,1.175,0.671c0.518,0.027,0.768-0.214,0.949-0.692c0.629-1.658,1.301-3.3,1.963-4.945
			c3.99-9.926,7.981-19.851,11.976-29.774c0.104-0.26,0.221-0.527,0.387-0.75c0.517-0.693,1.22-0.765,1.734-0.08
			c0.333,0.444,0.559,1.032,0.647,1.585c1.042,6.529,2.058,13.063,3.061,19.599c0.328,2.134,0.529,4.244-0.035,6.413
			c-0.583,2.244-1.757,3.784-4,4.45c-0.443,0.132-0.89,0.253-1.334,0.383c-0.949,0.278-2.213,1.907-1.928,2.721
			c0.333,0.954,1.357,0.843,2.133,0.851C74.03,71.922,78.306,71.9,82.582,71.9z M182.185,17.004c-1.751,0-3.504-0.034-5.255,0.007
			c-2.902,0.069-5.805,0.163-8.705,0.309c-0.39,0.02-0.869,0.315-1.116,0.631c-0.36,0.461-0.309,1.104,0.167,1.463
			c0.679,0.514,1.412,1.103,2.207,1.285c1.451,0.333,2.417,1.127,3.187,2.333c1.582,2.479,2.76,5.149,3.864,7.862
			c5.308,13.054,10.66,26.091,15.906,39.17c0.64,1.597,1.423,2.089,3.126,2.044c4.245-0.112,8.497,0.025,12.746,0.082
			c0.834,0.011,1.403-0.224,1.729-1.077c0.495-1.296,1.085-2.556,1.658-3.82c3.696-8.15,7.393-16.3,11.101-24.444
			c1.428-3.136,2.877-6.262,4.338-9.382c0.925-1.977,1.769-4.007,2.867-5.885c1.288-2.203,3.176-3.713,5.82-4.148
			c1.542-0.254,3.054-0.686,4.577-1.048c0.661-0.158,1.045-0.656,1.065-1.271c0.034-1.015-0.077-2.035-0.128-3.053
			c-0.024-0.487-0.289-0.614-0.763-0.623c-2.883-0.056-5.765-0.166-8.648-0.219c-5.404-0.1-10.809-0.176-16.213-0.254
			c-0.488-0.007-0.988-0.015-1.459,0.085c-0.245,0.053-0.614,0.333-0.626,0.528c-0.08,1.332-0.153,2.673-0.079,4.003
			c0.054,0.961,0.419,1.212,1.387,1.31c1.152,0.116,2.314,0.153,3.459,0.319c1.933,0.281,2.726,1.526,2.035,3.114
			c-3.815,8.771-7.632,17.541-11.458,26.306c-0.586,1.344-1.173,2.692-1.873,3.977c-0.203,0.373-0.777,0.647-1.226,0.735
			c-0.199,0.039-0.559-0.469-0.757-0.784c-0.215-0.344-0.33-0.751-0.482-1.133c-3.89-9.797-7.783-19.594-11.666-29.395
			c-0.557-1.405-0.306-2.435,0.846-3.467c0.593-0.531,1.26-0.978,1.873-1.487c0.795-0.661,1.388-1.45,1.458-2.534
			c0.051-0.791-0.207-1.171-0.991-1.286c-0.838-0.123-1.686-0.236-2.53-0.242C189.811,16.989,185.998,17.003,182.185,17.004z
			 M131.614,17.168c0-0.008,0-0.017,0-0.025c-7.907,0-15.813,0.01-23.72-0.014c-0.852-0.002-1.28,0.237-1.625,1.086
			c-2.06,5.074-4.19,10.12-6.331,15.161c-0.647,1.523-0.508,2.53,0.682,3.688c1.011,0.983,2.302,1.01,3.273-0.004
			c1.584-1.652,3.13-3.341,4.692-5.015c1.347-1.443,2.657-2.924,4.06-4.311c0.493-0.486,1.175-0.878,1.841-1.073
			c1.837-0.538,3.718-0.511,5.571-0.024c1.654,0.435,2.375,1.122,2.497,2.973c0.123,1.874,0.13,3.756,0.136,5.635
			c0.017,4.998,0.042,9.996-0.005,14.993c-0.036,3.885-0.082,7.774-0.296,11.651c-0.16,2.87-0.555,4.092-3.835,5.254
			c-1.158,0.41-2.379,0.642-3.574,0.95c-1.201,0.31-1.833,1.068-1.898,2.293c-0.062,1.142,0.422,1.651,1.571,1.651
			c10.615,0,21.229,0,31.844,0c0.129,0,0.258,0.004,0.386-0.001c1.12-0.042,1.925-0.587,2.126-1.439
			c0.27-1.138-0.17-2.094-1.3-2.582c-0.678-0.293-1.42-0.439-2.134-0.649c-2.453-0.72-4.305-2.096-4.906-4.711
			c-0.174-0.76-0.144-1.575-0.148-2.366c-0.026-4.635-0.05-9.271-0.045-13.906c0.005-5.355,0.036-10.709,0.071-16.064
			c0.004-0.562,0.063-1.135,0.184-1.683c0.212-0.967,0.711-1.374,1.697-1.466c0.718-0.068,1.437-0.127,2.156-0.163
			c3.482-0.173,6.604,0.736,9.049,3.31c1.236,1.301,2.308,2.762,3.396,4.194c1.068,1.404,2.256,1.79,3.916,1.148
			c1.036-0.401,1.442-1.131,1.089-2.196c-1.697-5.125-3.435-10.236-5.128-15.362c-0.246-0.743-0.655-0.952-1.413-0.949
			C147.533,17.179,139.573,17.168,131.614,17.168z"/>
		<path fill-rule="evenodd" clip-rule="evenodd" fill="#FFFFFF" d="M23.946,86.164c-0.38,0-0.682,0-0.984,0
			c-3.4,0-6.801-0.018-10.202,0.014c-0.678,0.007-0.922-0.181-0.864-0.869c0.058-0.684,0.013-1.376,0.013-2.111
			c77.468,0,154.848,0,232.286,0c0,0.947,0,1.884,0,2.926c-4.013,0-8.015,0-12.162,0c0,1.015,0.001,1.929,0,2.843
			c-0.015,10.82-0.03,21.639-0.045,32.459c-0.029,20.455-0.076,40.91-0.075,61.365c0,7.108,0.077,14.217,0.191,21.325
			c0.131,8.166-1.241,16.093-3.708,23.839c-4.95,15.547-13.312,29.085-24.465,40.92c-8.657,9.188-18.637,16.629-29.976,22.215
			c-7.185,3.54-14.695,6.165-22.521,7.856c-7.732,1.671-15.562,2.391-23.473,2.196c-3.603-0.089-7.208-0.115-10.807-0.291
			c-4.482-0.219-8.906-0.944-13.282-1.912c-7.335-1.622-14.386-4.078-21.144-7.368c-9.799-4.769-18.59-10.979-26.43-18.535
			c-11.791-11.362-20.778-24.619-26.75-39.881c-2.779-7.102-4.737-14.433-5.371-22.045c-0.294-3.529-0.16-7.094-0.19-10.643
			c-0.013-1.544,0.075-3.089,0.076-4.633c0.015-17.467,0.026-34.935,0.03-52.401c0.001-7.368-0.008-14.736-0.029-22.104
			c-0.032-11.438-0.079-22.875-0.12-34.312C23.945,86.767,23.946,86.516,23.946,86.164z M128.042,86.163c-33.26,0-66.521,0-99.78,0
			c-0.232,0-0.465,0.018-0.695-0.003c-0.464-0.043-0.657,0.136-0.627,0.616c0.044,0.693,0.062,1.389,0.063,2.083
			c0.018,7.935,0.03,15.869,0.044,23.804c0.019,10.382,0.056,20.764,0.056,31.146c0,17.312-0.018,34.625-0.04,51.938
			c-0.003,2.292-0.032,4.584-0.126,6.874c-0.353,8.55,1.137,16.824,3.83,24.891c5.42,16.239,14.429,30.25,26.557,42.28
			c7.882,7.819,16.783,14.221,26.784,19.072c10.607,5.147,21.786,8.238,33.55,8.98c5.078,0.32,10.185,0.214,15.279,0.225
			c4.671,0.01,9.303-0.527,13.899-1.32c9.081-1.566,17.757-4.399,26.012-8.498c10.921-5.422,20.518-12.636,28.891-21.484
			c8.987-9.498,16.077-20.241,21.08-32.337c2.825-6.831,4.83-13.89,5.777-21.233c0.505-3.918,0.513-7.849,0.425-11.796
			c-0.135-6.103-0.12-12.209-0.123-18.313c-0.007-11.181,0.013-22.362,0.033-33.542c0.036-20.764,0.081-41.527,0.121-62.292
			c0.002-1.088-0.001-1.089-1.074-1.089C194.666,86.164,161.354,86.164,128.042,86.163z"/>
		<path fill-rule="evenodd" clip-rule="evenodd" fill="#FFFFFF" d="M82.582,71.9c-4.275,0-8.552,0.022-12.827-0.021
			c-0.776-0.008-1.799,0.103-2.133-0.851c-0.285-0.814,0.979-2.443,1.928-2.721c0.444-0.13,0.891-0.251,1.334-0.383
			c2.243-0.667,3.417-2.207,4-4.45c0.564-2.169,0.363-4.279,0.035-6.413c-1.003-6.536-2.019-13.07-3.061-19.599
			c-0.088-0.553-0.314-1.142-0.647-1.585c-0.515-0.686-1.218-0.613-1.734,0.08c-0.166,0.223-0.282,0.49-0.387,0.75
			c-3.995,9.924-7.986,19.849-11.976,29.774c-0.662,1.646-1.333,3.288-1.963,4.945c-0.181,0.478-0.431,0.719-0.949,0.692
			c-0.512-0.026-0.935-0.107-1.175-0.671c-0.857-2.01-1.765-3.999-2.632-6.004c-3.521-8.144-7.031-16.292-10.558-24.433
			c-0.138-0.318-0.358-0.632-0.618-0.858c-0.54-0.47-1.153-0.251-1.358,0.445c-0.804,2.733-1.628,5.459-2.4,8.202
			c-1.583,5.619-3.119,11.25-4.719,16.865c-0.266,0.934,0.006,1.599,0.724,2.064c0.726,0.47,1.542,0.8,2.325,1.179
			c0.3,0.145,0.628,0.234,0.925,0.384c1.121,0.567,1.288,1.417,0.454,2.36c-0.11,0.125-0.347,0.197-0.523,0.194
			c-1.75-0.037-3.5-0.123-5.25-0.142c-3.837-0.04-7.675-0.056-11.513-0.065c-0.796-0.002-1.593,0.111-2.389,0.098
			c-1.145-0.019-1.542-0.358-1.589-1.227c-0.083-1.537,0.252-2.071,1.449-2.259c0.584-0.092,1.173-0.177,1.763-0.211
			c2.417-0.139,4.1-1.424,5.445-3.337c1.558-2.216,2.25-4.775,3.03-7.303c2.339-7.567,4.688-15.132,6.982-22.713
			c0.583-1.929,1.503-3.836,1.236-5.913c-0.202-1.566-0.633-3.109-1.066-4.632c-0.107-0.378-0.559-0.764-0.946-0.94
			c-1.236-0.56-2.517-1.024-3.781-1.524c-0.692-0.274-1.401-0.511-2.071-0.83c-0.83-0.394-1.171-1.413-0.915-2.536
			c0.156-0.684,0.983-1.27,1.807-1.271c5.977-0.013,11.953-0.009,17.929-0.046c1.78-0.011,2.074,0.093,2.861,1.937
			c2.967,6.955,5.887,13.929,8.825,20.896c0.07,0.166,0.121,0.343,0.213,0.495c0.403,0.666,1.346,0.665,1.669-0.035
			c2.108-4.575,4.179-9.168,6.297-13.739c1.232-2.66,2.598-5.259,3.764-7.946c0.54-1.245,1.383-1.571,2.583-1.569
			c6.725,0.011,13.449,0,20.173,0.017c0.49,0.001,1.139-0.278,1.392,0.464c0.211,0.617-0.187,1.816-0.777,2.093
			c-1.323,0.62-2.706,1.114-4.014,1.761c-1,0.495-1.938,1.124-2.876,1.736c-0.569,0.371-0.665,0.971-0.683,1.627
			c-0.071,2.626,0.528,5.16,0.979,7.719c0.844,4.788,1.605,9.59,2.452,14.377c0.878,4.964,1.914,9.903,2.682,14.884
			c0.3,1.945,1.259,3.185,2.792,4.173c1.253,0.807,2.5,1.625,3.756,2.428c0.961,0.615,1.069,1.637,1.243,2.614
			c0.087,0.488-0.263,0.699-0.692,0.745c-0.844,0.09-1.689,0.215-2.536,0.22C90.774,71.912,86.678,71.9,82.582,71.9z"/>
		<path fill-rule="evenodd" clip-rule="evenodd" fill="#FFFFFF" d="M182.185,17.003c3.813,0,7.626-0.015,11.439,0.011
			c0.844,0.006,1.692,0.12,2.53,0.242c0.784,0.115,1.042,0.495,0.991,1.286c-0.069,1.084-0.662,1.874-1.458,2.534
			c-0.613,0.509-1.28,0.956-1.873,1.487c-1.152,1.033-1.403,2.062-0.846,3.467c3.883,9.8,7.775,19.597,11.666,29.395
			c0.152,0.382,0.267,0.79,0.482,1.133c0.198,0.315,0.558,0.823,0.757,0.784c0.449-0.088,1.023-0.362,1.226-0.735
			c0.7-1.285,1.287-2.633,1.873-3.977c3.826-8.765,7.644-17.535,11.458-26.306c0.691-1.588-0.102-2.833-2.035-3.114
			c-1.145-0.167-2.307-0.204-3.459-0.319c-0.968-0.097-1.333-0.349-1.387-1.31c-0.074-1.33,0-2.671,0.079-4.003
			c0.012-0.195,0.381-0.475,0.626-0.528c0.471-0.101,0.971-0.092,1.459-0.085c5.405,0.079,10.81,0.155,16.213,0.254
			c2.883,0.053,5.765,0.163,8.648,0.219c0.474,0.009,0.738,0.136,0.763,0.623c0.052,1.018,0.163,2.038,0.128,3.053
			c-0.021,0.615-0.405,1.113-1.065,1.271c-1.523,0.362-3.036,0.794-4.577,1.048c-2.644,0.435-4.532,1.946-5.82,4.148
			c-1.099,1.878-1.942,3.908-2.867,5.885c-1.461,3.121-2.91,6.247-4.338,9.382c-3.708,8.145-7.405,16.294-11.101,24.444
			c-0.573,1.265-1.163,2.524-1.658,3.82c-0.326,0.854-0.895,1.088-1.729,1.077c-4.249-0.057-8.501-0.194-12.746-0.082
			c-1.703,0.045-2.486-0.447-3.126-2.044c-5.246-13.079-10.598-26.116-15.906-39.17c-1.104-2.713-2.282-5.383-3.864-7.862
			c-0.769-1.205-1.736-1.999-3.187-2.333c-0.795-0.183-1.528-0.771-2.207-1.285c-0.476-0.359-0.527-1.002-0.167-1.463
			c0.247-0.316,0.726-0.612,1.116-0.631c2.9-0.146,5.803-0.24,8.705-0.309C178.68,16.97,180.433,17.004,182.185,17.003z"/>
		<path fill-rule="evenodd" clip-rule="evenodd" fill="#FFFFFF" d="M131.614,17.168c7.959,0,15.918,0.01,23.877-0.016
			c0.758-0.002,1.167,0.207,1.413,0.949c1.694,5.126,3.431,10.237,5.128,15.362c0.353,1.065-0.053,1.795-1.089,2.196
			c-1.659,0.642-2.848,0.256-3.916-1.148c-1.089-1.432-2.161-2.893-3.396-4.194c-2.445-2.574-5.567-3.482-9.049-3.31
			c-0.719,0.036-1.438,0.095-2.156,0.163c-0.986,0.093-1.485,0.5-1.697,1.466c-0.121,0.548-0.18,1.121-0.184,1.683
			c-0.035,5.354-0.066,10.709-0.071,16.064c-0.005,4.635,0.019,9.271,0.045,13.906c0.004,0.791-0.026,1.605,0.148,2.366
			c0.601,2.616,2.453,3.991,4.906,4.711c0.714,0.209,1.456,0.356,2.134,0.649c1.13,0.488,1.569,1.444,1.3,2.582
			c-0.201,0.852-1.006,1.398-2.126,1.439c-0.128,0.005-0.257,0.001-0.386,0.001c-10.615,0-21.229,0-31.844,0
			c-1.148,0-1.633-0.51-1.571-1.651c0.066-1.226,0.698-1.984,1.898-2.293c1.194-0.308,2.416-0.54,3.574-0.95
			c3.28-1.162,3.676-2.384,3.835-5.254c0.215-3.877,0.261-7.767,0.296-11.651c0.046-4.997,0.021-9.995,0.005-14.993
			c-0.006-1.879-0.014-3.762-0.136-5.635c-0.121-1.851-0.843-2.538-2.497-2.973c-1.854-0.487-3.734-0.514-5.571,0.024
			c-0.666,0.195-1.348,0.587-1.841,1.073c-1.403,1.386-2.713,2.867-4.06,4.311c-1.562,1.674-3.108,3.362-4.692,5.015
			c-0.972,1.014-2.262,0.987-3.273,0.004c-1.19-1.158-1.329-2.165-0.682-3.688c2.141-5.041,4.271-10.087,6.331-15.161
			c0.345-0.85,0.773-1.089,1.625-1.086c7.907,0.024,15.813,0.014,23.72,0.014C131.614,17.152,131.614,17.16,131.614,17.168z"/>
		<path fill-rule="evenodd" clip-rule="evenodd" fill="#BD0005" d="M128.042,86.164c33.312,0,66.623,0,99.935,0
			c1.073,0,1.077,0.001,1.074,1.089c-0.04,20.764-0.085,41.528-0.121,62.292c-0.02,11.181-0.04,22.361-0.033,33.542
			c0.003,6.104-0.012,12.211,0.123,18.313c0.088,3.947,0.081,7.878-0.425,11.796c-0.947,7.343-2.952,14.402-5.777,21.233
			c-5.003,12.096-12.092,22.839-21.08,32.337c-8.373,8.849-17.97,16.062-28.891,21.484c-8.255,4.099-16.931,6.932-26.012,8.498
			c-4.596,0.792-9.229,1.33-13.899,1.32c-5.094-0.011-10.201,0.096-15.279-0.225c-11.764-0.742-22.942-3.833-33.55-8.98
			c-10.001-4.852-18.902-11.253-26.784-19.072c-12.127-12.03-21.137-26.041-26.557-42.28c-2.693-8.066-4.183-16.34-3.83-24.891
			c0.094-2.29,0.124-4.583,0.126-6.874c0.022-17.312,0.041-34.625,0.04-51.938c0-10.382-0.037-20.764-0.056-31.146
			c-0.015-7.935-0.027-15.869-0.044-23.804c-0.002-0.695-0.019-1.391-0.063-2.083c-0.03-0.48,0.163-0.659,0.627-0.616
			c0.23,0.021,0.463,0.003,0.695,0.003C61.522,86.163,94.782,86.163,128.042,86.164z M225.082,89.873c-0.606,0-1.115,0-1.625,0
			c-63.612,0-127.225-0.001-190.837-0.001c-0.18,0-0.363,0.021-0.541-0.003c-0.64-0.087-0.838,0.175-0.83,0.818
			c0.047,3.657,0.067,7.315,0.076,10.972c0.026,11.8,0.054,23.6,0.06,35.399c0.01,18.164,0.009,36.328-0.003,54.492
			c-0.002,3.322,0.006,6.647-0.134,9.965c-0.366,8.653,1.042,17.037,3.767,25.21c5.34,16.021,14.301,29.762,26.517,41.359
			c12.211,11.593,26.471,19.517,42.925,23.357c4.242,0.99,8.53,1.743,12.88,1.983c3.622,0.2,7.254,0.214,10.882,0.314
			c7.055,0.196,14.04-0.389,20.958-1.807c7.805-1.601,15.261-4.199,22.372-7.782c10.145-5.11,19.073-11.859,26.864-20.108
			c10.522-11.141,18.416-23.88,23.171-38.494c2.292-7.044,3.627-14.255,3.544-21.694c-0.071-6.413-0.165-12.826-0.177-19.239
			c-0.021-11.207,0.01-22.415,0.028-33.622c0.015-8.862,0.048-17.724,0.062-26.586c0.018-11.181,0.026-22.363,0.039-33.544
			C225.083,90.583,225.082,90.301,225.082,89.873z"/>
		<path fill-rule="evenodd" clip-rule="evenodd" fill="#FFFFFF" d="M225.082,89.873c0,0.429,0,0.71,0,0.991
			c-0.012,11.182-0.021,22.363-0.039,33.544c-0.015,8.862-0.048,17.724-0.062,26.586c-0.018,11.207-0.049,22.415-0.028,33.622
			c0.012,6.413,0.105,12.827,0.177,19.239c0.083,7.439-1.252,14.649-3.544,21.694c-4.756,14.613-12.649,27.353-23.171,38.494
			c-7.791,8.249-16.72,14.998-26.864,20.108c-7.111,3.583-14.567,6.181-22.372,7.782c-6.918,1.418-13.903,2.003-20.958,1.807
			c-3.628-0.101-7.26-0.115-10.882-0.314c-4.351-0.241-8.639-0.993-12.88-1.983c-16.454-3.84-30.713-11.764-42.925-23.357
			c-12.216-11.597-21.177-25.338-26.517-41.359c-2.725-8.173-4.133-16.558-3.767-25.21c0.14-3.317,0.132-6.643,0.134-9.965
			c0.012-18.164,0.013-36.328,0.003-54.492c-0.006-11.799-0.034-23.599-0.06-35.399c-0.008-3.657-0.028-7.315-0.076-10.972
			c-0.008-0.643,0.19-0.905,0.83-0.818c0.177,0.024,0.36,0.003,0.541,0.003c63.613,0,127.225,0,190.837,0.001
			C223.967,89.873,224.476,89.873,225.082,89.873z M146.705,195.707c0.309,0.795,0.604,1.391,0.774,2.021
			c1.506,5.555,2.99,11.117,4.479,16.677c0.105,0.394,0.237,0.785,0.294,1.187c0.205,1.435,0.339,2.932-0.365,4.22
			c-1.229,2.25-2.516,4.492-4.004,6.576c-3.724,5.212-7.581,10.329-11.373,15.493c-0.993,1.353-0.589,3.225,0.864,4.085
			c0.227,0.134,0.521,0.221,0.783,0.22c3.544-0.021,7.088-0.07,10.631-0.095c2.237-0.016,4.475,0.008,6.711-0.007
			c11.848-0.081,23.696-0.167,35.544-0.256c4.487-0.034,8.974-0.073,13.459-0.148c0.421-0.007,0.958-0.179,1.233-0.471
			c0.735-0.78,1.473-1.601,2.002-2.523c1.59-2.772,1.466-3.523-0.872-5.521c-1.27-1.085-2.619-2.078-3.879-3.174
			c-3.782-3.291-7.503-6.652-11.316-9.905c-2.711-2.312-4.749-5.069-5.874-8.435c-0.904-2.703-1.603-5.472-2.432-8.2
			c-1.009-3.322-2.061-6.632-3.089-9.948c-3.185-10.265-6.361-20.532-9.554-30.794c-2.514-8.077-5.049-16.148-7.568-24.223
			c-0.298-0.953,0.21-1.693,1.2-1.653c1.049,0.043,2.138,0.061,3.132,0.353c4.516,1.325,8.961,2.863,13.202,4.93
			c5.586,2.723,10.742,6.17,15.945,9.539c3.733,2.417,7.418,4.913,11.479,6.785c2.148,0.991,4.294,1.352,6.569,0.5
			c1.618-0.605,2.857-2.299,2.114-4.032c-0.182-0.425-0.301-0.882-0.523-1.283c-1.38-2.486-2.787-4.958-4.177-7.439
			c-4.449-7.94-8.897-15.88-13.339-23.824c-2.058-3.68-4.104-7.366-6.151-11.052c-0.337-0.607-0.643-1.231-0.983-1.836
			c-2.177-3.87-4.352-7.742-6.547-11.602c-0.391-0.688-0.798-1.391-1.327-1.969c-0.718-0.785-1.683-0.946-2.604-0.406
			c-1.972,1.155-3.902,2.38-5.83,3.609c-1.126,0.718-2.181,1.552-3.327,2.234c-1.406,0.836-2.875,1.565-4.315,2.343
			c-0.898,0.486-1.754,1.082-2.699,1.446c-2.8,1.078-5.601,2.178-8.464,3.062c-4.894,1.512-9.874,2.68-15.02,2.941
			c-2.775,0.141-5.558,0.416-8.328,0.333c-4.078-0.123-8.154-0.206-12.234-0.647c-4.896-0.53-9.724-1.338-14.514-2.388
			c-5.916-1.297-11.541-3.538-17.193-5.662c-0.877-0.33-1.658-0.907-2.509-1.318c-2.753-1.331-5.548-2.578-8.271-3.969
			c-3.045-1.556-6.025-3.239-9.044-4.847c-0.289-0.154-0.773-0.343-0.96-0.214c-0.669,0.46-1.394,0.952-1.839,1.607
			c-3.003,4.427-5.947,8.894-8.896,13.358c-1.394,2.111-2.742,4.252-4.136,6.363c-0.805,1.22-1.689,2.388-2.491,3.609
			c-3.475,5.289-6.966,10.567-10.377,15.897c-1.16,1.812-2.298,3.684-3.096,5.668c-1.121,2.79-1.009,5.564,1.284,7.877
			c1.245,1.255,2.706,1.529,4.209,0.628c2.973-1.782,6.189-3.028,9.406-4.227c3.267-1.217,6.654-2.11,9.989-3.147
			c1.096-0.34,2.175-0.756,3.291-1.011c1.447-0.331,2.943-0.454,4.382-0.812c2.652-0.66,5.345-0.785,8.049-0.751
			c1.761,0.022,3.495,0.293,4.981,1.375c0.473,0.344,0.721,0.745,0.518,1.387c-1.469,4.656-2.925,9.316-4.364,13.982
			c-3.069,9.952-6.128,19.907-9.183,29.864c-0.738,2.404-1.428,4.824-2.169,7.228c-0.37,1.198-0.872,2.357-1.2,3.565
			c-1.456,5.349-3.894,10.143-7.6,14.316c-3.074,3.461-5.988,7.066-8.958,10.62c-1.926,2.305-3.828,4.63-5.732,6.952
			c-0.708,0.863-0.906,1.769-0.409,2.857c1.708,3.742,3.374,7.503,5.021,11.272c0.212,0.485,0.458,0.635,0.969,0.635
			c20.714-0.012,41.428-0.009,62.142-0.015c0.248,0,0.533-0.019,0.738-0.137c1.418-0.822,1.883-2.235,1.117-3.702
			c-0.335-0.642-0.895-1.179-1.401-1.719c-5.476-5.83-10.971-11.641-16.436-17.481c-1.23-1.314-1.967-2.724-1.428-4.726
			c1.116-4.145,1.985-8.356,2.979-12.535c0.85-3.573,1.719-7.142,2.62-10.703c0.089-0.354,0.423-0.678,0.72-0.922
			c0.063-0.053,0.508,0.255,0.695,0.47c3.474,3.968,6.962,7.924,10.391,11.931c3.395,3.966,6.728,7.984,10.086,11.981
			c0.938,1.118,2.266,1.312,3.251,0.375c0.975-0.927,1.887-1.924,2.79-2.924c0.773-0.856,1.461-1.789,2.245-2.635
			c3.969-4.286,7.947-8.563,11.941-12.825C143.852,198.561,145.226,197.214,146.705,195.707z"/>
		<path fill-rule="evenodd" clip-rule="evenodd" fill="#BD0005" d="M146.705,195.707c-1.479,1.507-2.853,2.854-4.167,4.256
			c-3.995,4.262-7.973,8.539-11.941,12.825c-0.783,0.846-1.471,1.779-2.245,2.635c-0.903,1-1.814,1.997-2.79,2.924
			c-0.985,0.937-2.312,0.742-3.251-0.375c-3.358-3.997-6.691-8.016-10.086-11.981c-3.429-4.007-6.917-7.963-10.391-11.931
			c-0.187-0.214-0.632-0.522-0.695-0.47c-0.297,0.245-0.631,0.568-0.72,0.922c-0.901,3.561-1.771,7.129-2.62,10.703
			c-0.994,4.179-1.862,8.39-2.979,12.535c-0.539,2.001,0.198,3.411,1.428,4.726c5.465,5.84,10.96,11.651,16.436,17.481
			c0.506,0.54,1.066,1.077,1.401,1.719c0.766,1.467,0.301,2.879-1.117,3.702c-0.205,0.119-0.49,0.137-0.738,0.137
			c-20.714,0.006-41.428,0.003-62.142,0.015c-0.51,0-0.757-0.15-0.969-0.635c-1.648-3.769-3.313-7.53-5.021-11.272
			c-0.497-1.088-0.299-1.994,0.409-2.857c1.905-2.322,3.807-4.647,5.732-6.952c2.97-3.554,5.884-7.158,8.958-10.62
			c3.706-4.174,6.144-8.968,7.6-14.316c0.328-1.208,0.83-2.367,1.2-3.565c0.742-2.403,1.431-4.823,2.169-7.228
			c3.055-9.957,6.114-19.912,9.183-29.864c1.439-4.666,2.895-9.326,4.364-13.982c0.203-0.642-0.045-1.042-0.518-1.387
			c-1.487-1.082-3.22-1.353-4.981-1.375c-2.704-0.034-5.397,0.091-8.049,0.751c-1.439,0.358-2.936,0.481-4.382,0.812
			c-1.116,0.255-2.194,0.671-3.291,1.011c-3.334,1.037-6.722,1.93-9.989,3.147c-3.216,1.199-6.433,2.444-9.406,4.227
			c-1.504,0.901-2.965,0.627-4.209-0.628c-2.293-2.313-2.405-5.088-1.284-7.877c0.797-1.985,1.936-3.856,3.096-5.668
			c3.412-5.33,6.903-10.608,10.377-15.897c0.802-1.221,1.686-2.389,2.491-3.609c1.395-2.111,2.742-4.252,4.136-6.363
			c2.948-4.464,5.892-8.931,8.896-13.358c0.445-0.656,1.17-1.147,1.839-1.607c0.187-0.128,0.671,0.061,0.96,0.214
			c3.019,1.608,5.999,3.291,9.044,4.847c2.722,1.391,5.518,2.638,8.271,3.969c0.851,0.411,1.631,0.988,2.509,1.318
			c5.652,2.124,11.277,4.364,17.193,5.662c4.79,1.05,9.619,1.858,14.514,2.388c4.081,0.441,8.156,0.525,12.234,0.647
			c2.771,0.083,5.553-0.192,8.328-0.333c5.146-0.261,10.125-1.429,15.02-2.941c2.864-0.885,5.664-1.985,8.464-3.062
			c0.945-0.364,1.8-0.96,2.699-1.446c1.44-0.778,2.909-1.507,4.315-2.343c1.146-0.682,2.2-1.516,3.327-2.234
			c1.927-1.229,3.858-2.454,5.83-3.609c0.921-0.54,1.886-0.379,2.604,0.406c0.529,0.578,0.936,1.281,1.327,1.969
			c2.195,3.86,4.37,7.731,6.547,11.602c0.34,0.605,0.646,1.229,0.983,1.836c2.047,3.686,4.093,7.372,6.151,11.052
			c4.442,7.943,8.89,15.883,13.339,23.824c1.39,2.481,2.796,4.953,4.177,7.439c0.223,0.4,0.342,0.858,0.523,1.283
			c0.743,1.733-0.496,3.427-2.114,4.032c-2.274,0.851-4.42,0.49-6.569-0.5c-4.061-1.873-7.746-4.369-11.479-6.785
			c-5.204-3.368-10.359-6.815-15.945-9.539c-4.24-2.066-8.686-3.604-13.202-4.93c-0.994-0.292-2.083-0.31-3.132-0.353
			c-0.99-0.04-1.498,0.7-1.2,1.653c2.519,8.075,5.055,16.146,7.568,24.223c3.193,10.262,6.369,20.53,9.554,30.794
			c1.029,3.316,2.081,6.625,3.089,9.948c0.829,2.728,1.528,5.498,2.432,8.2c1.125,3.366,3.163,6.123,5.874,8.435
			c3.813,3.253,7.534,6.615,11.316,9.905c1.26,1.096,2.609,2.089,3.879,3.174c2.338,1.999,2.461,2.75,0.872,5.521
			c-0.529,0.923-1.267,1.743-2.002,2.523c-0.275,0.292-0.812,0.464-1.233,0.471c-4.486,0.076-8.973,0.114-13.459,0.148
			c-11.848,0.09-23.696,0.175-35.544,0.256c-2.237,0.015-4.474-0.009-6.711,0.007c-3.543,0.025-7.087,0.074-10.631,0.095
			c-0.262,0.001-0.556-0.085-0.783-0.22c-1.453-0.86-1.857-2.732-0.864-4.085c3.792-5.164,7.648-10.281,11.373-15.493
			c1.489-2.083,2.775-4.325,4.004-6.576c0.704-1.289,0.57-2.786,0.365-4.22c-0.058-0.402-0.189-0.793-0.294-1.187
			c-1.489-5.56-2.974-11.122-4.479-16.677C147.309,197.098,147.014,196.502,146.705,195.707z M69.443,100.48
			c-0.476,0.815-0.907,1.666-1.44,2.445c-1.25,1.824-2.581,3.594-3.824,5.422c-6.523,9.596-13.039,19.197-19.53,28.814
			c-1.178,1.745-2.313,3.532-3.307,5.385c-0.618,1.153-1.176,2.398-0.883,3.827c0.229,1.123,0.731,1.633,1.852,1.396
			c1.224-0.258,2.441-0.611,3.604-1.069c1.139-0.447,2.176-1.15,3.311-1.612c1.875-0.763,3.805-1.391,5.69-2.132
			c3.165-1.244,6.409-2.202,9.739-2.883c0.777-0.159,1.523-0.481,2.303-0.612c2.254-0.38,4.509-0.799,6.781-1.019
			c2.319-0.225,4.659-0.268,6.992-0.32c1.126-0.025,2.256,0.154,3.384,0.169c2.617,0.037,3.914,1.314,3.663,3.905
			c-0.109,1.127-0.581,2.223-0.922,3.322c-2.944,9.506-5.916,19.003-8.84,28.515c-2.683,8.727-5.322,17.468-7.972,26.205
			c-0.542,1.79-0.839,3.69-1.63,5.359c-0.974,2.053-2.197,4.032-3.583,5.834c-2.163,2.812-4.587,5.422-6.839,8.168
			c-2.038,2.484-3.983,5.043-5.988,7.554c-0.946,1.185-1.986,2.297-2.895,3.509c-0.929,1.238-1.336,2.793-0.795,4.172
			c0.879,2.238,2.123,4.333,3.236,6.477c0.309,0.595,0.832,0.838,1.53,0.824c1.183-0.025,2.369,0.046,3.553,0.044
			c7.342-0.012,14.685-0.021,22.026-0.053c7.547-0.033,15.094-0.086,22.641-0.142c2.472-0.019,4.945-0.062,7.416-0.128
			c0.29-0.008,0.76-0.183,0.816-0.377c0.079-0.272-0.078-0.687-0.266-0.945c-0.298-0.41-0.716-0.73-1.064-1.107
			c-5.269-5.71-10.538-11.42-15.798-17.139c-1.597-1.736-1.654-1.765-1.074-4.042c2.441-9.595,4.928-19.179,7.392-28.769
			c0.181-0.705,0.561-1.276,1.263-1.415c0.715-0.141,1.341,0.188,1.834,0.76c5.451,6.313,10.91,12.619,16.362,18.93
			c1.666,1.928,3.317,3.87,4.98,5.8c0.731,0.848,1.013,0.877,1.785,0.131c0.888-0.858,1.766-1.729,2.617-2.623
			c3.175-3.336,6.328-6.695,9.509-10.025c2.185-2.288,4.385-4.561,6.617-6.803c1.172-1.178,2.388-2.317,3.655-3.391
			c0.71-0.602,1.411-0.25,1.66,0.683c0.96,3.603,1.953,7.197,2.89,10.806c1.195,4.604,2.351,9.218,3.517,13.83
			c0.261,1.032,0.377,2.075-0.119,3.073c-0.638,1.283-1.227,2.6-1.979,3.814c-1.923,3.104-3.833,6.223-5.922,9.214
			c-1.939,2.778-3.793,5.639-6.25,8.025c-0.319,0.311-0.558,0.751-0.709,1.176c-0.251,0.704,0.145,1.194,0.89,1.207
			c0.875,0.015,1.751,0.033,2.627,0.034c11.696,0.008,23.393,0.018,35.09,0.017c3.838,0,7.677-0.021,11.515-0.052
			c3.675-0.029,7.35-0.069,11.024-0.141c0.604-0.012,1.247-0.114,1.796-0.352c1.218-0.527,1.45-1.52,0.634-2.548
			c-0.364-0.458-0.821-0.852-1.273-1.229c-2.47-2.061-4.971-4.084-7.423-6.165c-2.295-1.948-4.401-4.152-6.85-5.875
			c-2.71-1.908-4.183-4.553-5.171-7.477c-2.083-6.161-3.95-12.396-5.898-18.602c-3.165-10.083-6.325-20.167-9.483-30.252
			c-2.866-9.152-5.736-18.303-8.575-27.464c-0.293-0.948-0.505-1.952-0.551-2.939c-0.08-1.732,0.849-2.606,2.59-2.64
			c1.356-0.026,2.65,0.314,3.974,0.544c2.365,0.41,4.684,0.95,6.955,1.688c6.629,2.151,12.952,4.983,18.903,8.622
			c4.534,2.772,9.061,5.556,13.588,8.339c0.548,0.336,1.071,0.713,1.619,1.05c1.743,1.072,3.582,1.921,5.607,2.298
			c0.302,0.057,0.632-0.04,0.95-0.065c-0.05-0.333-0.093-0.666-0.155-0.996c-0.018-0.096-0.093-0.182-0.143-0.272
			c-4.254-7.699-8.474-15.417-12.771-23.093c-5.128-9.161-10.32-18.285-15.484-27.425c-0.645-1.141-1.276-2.29-1.935-3.424
			c-0.305-0.525-0.713-0.655-1.289-0.322c-1.179,0.682-2.407,1.279-3.575,1.977c-4.553,2.72-9.22,5.226-14.133,7.228
			c-7.984,3.253-16.37,4.614-24.932,4.929c-4.163,0.153-8.339,0.156-12.502,0.014c-4.758-0.162-9.487-0.76-14.174-1.618
			c-2.55-0.467-5.088-1.009-7.62-1.569c-2.257-0.5-4.532-0.961-6.741-1.632c-5.921-1.799-11.533-4.375-17.07-7.104
			C76.782,104.344,73.181,102.412,69.443,100.48z"/>
		<path fill-rule="evenodd" clip-rule="evenodd" fill="#FFFFFF" d="M69.443,100.48c3.737,1.932,7.339,3.864,11.002,5.671
			c5.537,2.73,11.149,5.305,17.07,7.104c2.208,0.671,4.483,1.133,6.741,1.632c2.532,0.561,5.069,1.103,7.62,1.569
			c4.687,0.858,9.416,1.456,14.174,1.618c4.163,0.142,8.339,0.139,12.502-0.014c8.562-0.315,16.948-1.676,24.932-4.929
			c4.913-2.002,9.58-4.507,14.133-7.228c1.168-0.698,2.396-1.294,3.575-1.977c0.575-0.333,0.984-0.203,1.289,0.322
			c0.658,1.134,1.29,2.283,1.935,3.424c5.164,9.14,10.356,18.264,15.484,27.425c4.296,7.676,8.517,15.394,12.771,23.093
			c0.05,0.09,0.125,0.176,0.143,0.272c0.062,0.33,0.105,0.663,0.155,0.996c-0.318,0.025-0.648,0.122-0.95,0.065
			c-2.025-0.377-3.865-1.226-5.607-2.298c-0.547-0.337-1.071-0.713-1.619-1.05c-4.527-2.783-9.054-5.567-13.588-8.339
			c-5.951-3.639-12.274-6.471-18.903-8.622c-2.271-0.737-4.59-1.277-6.955-1.688c-1.324-0.229-2.618-0.57-3.974-0.544
			c-1.741,0.034-2.67,0.907-2.59,2.64c0.046,0.987,0.257,1.992,0.551,2.939c2.839,9.161,5.708,18.312,8.575,27.464
			c3.158,10.085,6.318,20.169,9.483,30.252c1.948,6.207,3.815,12.441,5.898,18.602c0.988,2.924,2.461,5.569,5.171,7.477
			c2.448,1.723,4.554,3.927,6.85,5.875c2.452,2.081,4.953,4.104,7.423,6.165c0.453,0.377,0.909,0.771,1.273,1.229
			c0.816,1.029,0.583,2.021-0.634,2.548c-0.549,0.237-1.192,0.339-1.796,0.352c-3.674,0.072-7.35,0.112-11.024,0.141
			c-3.838,0.031-7.676,0.051-11.515,0.052c-11.697,0.001-23.394-0.009-35.09-0.017c-0.876,0-1.751-0.019-2.627-0.034
			c-0.746-0.012-1.142-0.503-0.89-1.207c0.151-0.425,0.39-0.865,0.709-1.176c2.457-2.387,4.311-5.248,6.25-8.025
			c2.089-2.991,3.999-6.11,5.922-9.214c0.752-1.214,1.341-2.531,1.979-3.814c0.497-0.998,0.38-2.041,0.119-3.073
			c-1.166-4.611-2.322-9.226-3.517-13.83c-0.937-3.609-1.93-7.203-2.89-10.806c-0.249-0.933-0.95-1.285-1.66-0.683
			c-1.267,1.073-2.483,2.213-3.655,3.391c-2.231,2.242-4.432,4.516-6.617,6.803c-3.182,3.33-6.334,6.689-9.509,10.025
			c-0.851,0.895-1.729,1.765-2.617,2.623c-0.772,0.746-1.054,0.717-1.785-0.131c-1.664-1.93-3.314-3.872-4.98-5.8
			c-5.453-6.311-10.912-12.617-16.362-18.93c-0.494-0.572-1.12-0.901-1.834-0.76c-0.702,0.139-1.082,0.71-1.263,1.415
			c-2.464,9.589-4.951,19.173-7.392,28.769c-0.58,2.277-0.523,2.306,1.074,4.042c5.26,5.718,10.53,11.428,15.798,17.139
			c0.348,0.377,0.766,0.697,1.064,1.107c0.188,0.258,0.345,0.673,0.266,0.945c-0.056,0.194-0.526,0.369-0.816,0.377
			c-2.471,0.066-4.944,0.11-7.416,0.128c-7.547,0.056-15.094,0.109-22.641,0.142c-7.342,0.032-14.684,0.042-22.026,0.053
			c-1.184,0.002-2.37-0.069-3.553-0.044c-0.698,0.014-1.222-0.229-1.53-0.824c-1.113-2.144-2.357-4.239-3.236-6.477
			c-0.542-1.378-0.134-2.934,0.795-4.172c0.909-1.212,1.949-2.325,2.895-3.509c2.005-2.511,3.951-5.07,5.988-7.554
			c2.252-2.746,4.676-5.356,6.839-8.168c1.387-1.802,2.609-3.781,3.583-5.834c0.791-1.668,1.087-3.569,1.63-5.359
			c2.65-8.737,5.289-17.478,7.972-26.205c2.924-9.512,5.896-19.009,8.84-28.515c0.341-1.1,0.812-2.195,0.922-3.322
			c0.251-2.59-1.046-3.868-3.663-3.905c-1.128-0.016-2.258-0.194-3.384-0.169c-2.333,0.052-4.672,0.095-6.992,0.32
			c-2.272,0.22-4.527,0.639-6.781,1.019c-0.78,0.131-1.525,0.454-2.303,0.612c-3.33,0.681-6.574,1.639-9.739,2.883
			c-1.885,0.741-3.815,1.369-5.69,2.132c-1.135,0.462-2.172,1.165-3.311,1.612c-1.163,0.458-2.381,0.811-3.604,1.069
			c-1.121,0.237-1.622-0.273-1.852-1.396c-0.292-1.429,0.265-2.674,0.883-3.827c0.994-1.854,2.129-3.64,3.307-5.385
			c6.491-9.618,13.007-19.218,19.53-28.814c1.243-1.829,2.574-3.598,3.824-5.422C68.537,102.146,68.967,101.295,69.443,100.48z
			 M149.194,182.721c0.101-0.02,0.201-0.039,0.301-0.058c0.207,0.495,0.452,0.978,0.608,1.488c0.135,0.438,0.126,0.92,0.256,1.361
			c1.46,4.974,2.924,9.945,4.406,14.912c1.477,4.947,2.462,10.036,4.416,14.848c1.055,2.596,0.948,5.088-0.808,7.523
			c-2.765,3.837-5.328,7.819-7.974,11.741c-0.23,0.341-0.479,0.676-0.658,1.043c-0.775,1.6,0.279,3.277,2.055,3.266
			c6.204-0.038,12.408-0.091,18.612-0.126c2.832-0.016,5.664,0.003,8.495-0.003c4.682-0.012,9.364-0.029,14.045-0.055
			c0.513-0.003,1.028-0.062,1.538-0.13c0.152-0.02,0.357-0.119,0.42-0.242c0.429-0.833,0.137-2.063-0.611-2.66
			c-1.569-1.251-3.165-2.47-4.709-3.75c-2.056-1.705-4.163-3.364-6.074-5.22c-1.144-1.111-2.231-2.444-2.854-3.888
			c-0.983-2.276-1.566-4.726-2.296-7.109c-1.059-3.458-2.087-6.927-3.149-10.384c-1.619-5.272-3.279-10.531-4.875-15.81
			c-1.122-3.709-2.148-7.448-3.253-11.163c-0.825-2.771-1.727-5.519-2.562-8.287c-0.833-2.755-1.602-5.53-2.44-8.283
			c-1.317-4.324-2.684-8.633-4.002-12.958c-0.989-3.241-1.932-6.497-2.902-9.744c-0.454-1.52-0.936-3.031-1.383-4.553
			c-0.359-1.223-0.013-1.686,1.212-1.704c3.6-0.054,7.168,0.303,10.616,1.311c4.093,1.196,8.137,2.566,12.176,3.936
			c3.963,1.344,7.617,3.357,11.223,5.447c4.136,2.398,8.232,4.863,12.375,7.248c0.622,0.358,1.392,0.511,2.115,0.622
			c0.749,0.115,1.242-0.429,1.119-1.16c-0.067-0.396-0.243-0.786-0.433-1.146c-0.323-0.614-0.707-1.196-1.046-1.802
			c-5.08-9.062-10.148-18.13-15.238-27.187c-1.508-2.684-3.065-5.34-4.619-7.998c-0.388-0.664-0.815-1.311-1.286-1.918
			c-0.365-0.471-0.804-0.541-1.413-0.235c-8.445,4.252-17.168,7.819-26.31,10.271c-4.125,1.106-8.366,1.668-12.627,1.983
			c-1.796,0.133-3.6,0.177-5.401,0.224c-3.228,0.085-6.456,0.183-9.684,0.193c-1.489,0.005-2.984-0.138-4.468-0.293
			c-3.736-0.389-7.481-0.723-11.194-1.274c-2.324-0.345-4.599-1.029-6.889-1.588c-2.781-0.679-5.614-1.212-8.32-2.12
			c-3.822-1.282-7.619-2.692-11.297-4.336c-4.64-2.074-9.152-4.437-13.716-6.681c-0.979-0.481-1.43-0.364-2.038,0.533
			c-5.587,8.243-11.204,16.466-16.751,24.735c-1.633,2.435-3.591,4.76-3.805,7.878c-0.033,0.483,0.206,1.106,0.539,1.453
			c0.258,0.269,0.918,0.389,1.3,0.266c3.45-1.111,6.9-2.228,10.308-3.463c8.102-2.937,16.431-4.217,25.026-3.471
			c1.646,0.143,3.282,0.612,4.877,1.082c1.181,0.348,1.862,1.667,1.566,2.666c-1.751,5.915-3.506,11.828-5.268,17.74
			c-0.705,2.364-1.442,4.718-2.143,7.083c-2.15,7.261-4.282,14.527-6.434,21.787c-1.074,3.624-2.161,7.244-3.271,10.856
			c-0.792,2.578-1.805,5.102-2.405,7.722c-0.731,3.192-1.922,6.137-3.734,8.837c-1.075,1.602-2.188,3.182-3.352,4.72
			c-4.013,5.31-8.059,10.595-12.083,15.896c-0.293,0.387-0.535,0.82-0.756,1.254c-0.546,1.073-0.245,2.735,0.615,3.557
			c1.268,1.21,2.794,1.858,4.529,1.861c2.175,0.003,4.351-0.139,6.526-0.166c3.76-0.046,7.521-0.062,11.281-0.073
			c8.166-0.024,16.333-0.033,24.499-0.063c0.398-0.001,0.818-0.094,1.188-0.243c0.617-0.248,0.717-0.716,0.271-1.21
			c-2.479-2.751-4.959-5.5-7.459-8.231c-1.475-1.612-3.064-3.125-4.458-4.803c-1.293-1.558-1.911-3.405-1.46-5.477
			c0.13-0.602,0.325-1.189,0.46-1.79c0.372-1.652,0.693-3.317,1.099-4.961c0.474-1.915,1.042-3.806,1.52-5.719
			c0.392-1.571,0.684-3.166,1.071-4.738c1.391-5.642,2.77-11.288,4.229-16.912c0.423-1.632,1.092-3.201,1.664-4.793
			c0.256-0.714,0.72-0.722,1.246-0.288c0.336,0.277,0.68,0.559,0.959,0.89c6.259,7.414,12.514,14.832,18.758,22.258
			c1.508,1.794,2.983,3.614,4.92,4.983c1.095,0.774,2.639,0.664,3.539-0.349c3.99-4.495,7.962-9.005,11.937-13.513
			C142.537,190.287,145.865,186.503,149.194,182.721z"/>
		<path fill-rule="evenodd" clip-rule="evenodd" fill="#BD0005" d="M149.194,182.721c-3.33,3.782-6.657,7.566-9.99,11.346
			c-3.975,4.508-7.947,9.018-11.937,13.513c-0.899,1.013-2.443,1.123-3.539,0.349c-1.937-1.369-3.412-3.188-4.92-4.983
			c-6.244-7.427-12.499-14.844-18.758-22.258c-0.279-0.331-0.623-0.612-0.959-0.89c-0.526-0.434-0.99-0.426-1.246,0.288
			c-0.571,1.592-1.24,3.161-1.664,4.793c-1.459,5.625-2.838,11.27-4.229,16.912c-0.387,1.572-0.679,3.167-1.071,4.738
			c-0.479,1.914-1.046,3.805-1.52,5.719c-0.406,1.644-0.728,3.309-1.099,4.961c-0.135,0.601-0.33,1.188-0.46,1.79
			c-0.451,2.072,0.167,3.919,1.46,5.477c1.393,1.678,2.982,3.191,4.458,4.803c2.5,2.731,4.98,5.48,7.459,8.231
			c0.445,0.494,0.345,0.962-0.271,1.21c-0.37,0.149-0.79,0.242-1.188,0.243c-8.166,0.03-16.333,0.039-24.499,0.063
			c-3.76,0.011-7.521,0.027-11.281,0.073c-2.176,0.027-4.351,0.169-6.526,0.166c-1.735-0.002-3.261-0.65-4.529-1.861
			c-0.86-0.822-1.161-2.483-0.615-3.557c0.221-0.434,0.462-0.867,0.756-1.254c4.023-5.302,8.069-10.587,12.083-15.896
			c1.163-1.539,2.276-3.118,3.352-4.72c1.812-2.7,3.002-5.646,3.734-8.837c0.601-2.62,1.613-5.144,2.405-7.722
			c1.11-3.613,2.197-7.233,3.271-10.856c2.152-7.26,4.284-14.526,6.434-21.787c0.7-2.365,1.438-4.719,2.143-7.083
			c1.762-5.912,3.517-11.825,5.268-17.74c0.296-0.999-0.385-2.318-1.566-2.666c-1.596-0.47-3.231-0.939-4.877-1.082
			c-8.596-0.746-16.924,0.534-25.026,3.471c-3.407,1.235-6.857,2.352-10.308,3.463c-0.382,0.123-1.042,0.003-1.3-0.266
			c-0.333-0.347-0.572-0.97-0.539-1.453c0.213-3.118,2.172-5.443,3.805-7.878c5.547-8.27,11.164-16.492,16.751-24.735
			c0.608-0.897,1.059-1.014,2.038-0.533c4.564,2.244,9.076,4.606,13.716,6.681c3.679,1.644,7.476,3.054,11.297,4.336
			c2.706,0.908,5.539,1.441,8.32,2.12c2.291,0.559,4.565,1.243,6.889,1.588c3.712,0.551,7.458,0.886,11.194,1.274
			c1.484,0.155,2.979,0.298,4.468,0.293c3.228-0.011,6.456-0.108,9.684-0.193c1.801-0.047,3.605-0.091,5.401-0.224
			c4.261-0.314,8.501-0.876,12.627-1.983c9.142-2.452,17.864-6.019,26.31-10.271c0.608-0.306,1.048-0.236,1.413,0.235
			c0.471,0.607,0.898,1.254,1.286,1.918c1.554,2.658,3.11,5.314,4.619,7.998c5.09,9.057,10.159,18.125,15.238,27.187
			c0.339,0.606,0.723,1.188,1.046,1.802c0.189,0.36,0.366,0.75,0.433,1.146c0.124,0.731-0.37,1.275-1.119,1.16
			c-0.723-0.111-1.493-0.264-2.115-0.622c-4.143-2.384-8.239-4.85-12.375-7.248c-3.605-2.09-7.259-4.103-11.223-5.447
			c-4.039-1.37-8.083-2.74-12.176-3.936c-3.448-1.007-7.016-1.365-10.616-1.311c-1.225,0.018-1.571,0.481-1.212,1.704
			c0.447,1.522,0.929,3.033,1.383,4.553c0.971,3.248,1.914,6.503,2.902,9.744c1.319,4.324,2.685,8.633,4.002,12.958
			c0.839,2.753,1.608,5.528,2.44,8.283c0.835,2.768,1.737,5.516,2.562,8.287c1.105,3.714,2.131,7.453,3.253,11.163
			c1.597,5.278,3.257,10.538,4.875,15.81c1.062,3.458,2.09,6.926,3.149,10.384c0.729,2.383,1.313,4.833,2.296,7.109
			c0.624,1.444,1.711,2.777,2.854,3.888c1.912,1.856,4.019,3.516,6.074,5.22c1.544,1.281,3.14,2.5,4.709,3.75
			c0.748,0.596,1.04,1.827,0.611,2.66c-0.063,0.124-0.269,0.223-0.42,0.242c-0.51,0.067-1.024,0.127-1.538,0.13
			c-4.682,0.026-9.363,0.042-14.045,0.055c-2.832,0.007-5.664-0.013-8.495,0.003c-6.204,0.035-12.408,0.088-18.612,0.126
			c-1.776,0.011-2.831-1.666-2.055-3.266c0.178-0.367,0.428-0.702,0.658-1.043c2.646-3.922,5.209-7.904,7.974-11.741
			c1.756-2.436,1.863-4.927,0.808-7.523c-1.954-4.812-2.939-9.901-4.416-14.848c-1.482-4.967-2.946-9.938-4.406-14.912
			c-0.129-0.44-0.121-0.922-0.256-1.361c-0.157-0.51-0.401-0.993-0.608-1.488C149.396,182.682,149.295,182.701,149.194,182.721z
			 M145.499,166.931c-0.041-0.024-0.082-0.048-0.123-0.073c-0.047-0.356-0.057-0.723-0.148-1.068
			c-0.81-3.049-1.618-6.099-2.459-9.14c-2.116-7.653-4.252-15.3-6.365-22.954c-0.163-0.59-0.475-0.865-1.076-0.873
			c-3.082-0.042-6.163-0.103-9.244-0.136c-1.312-0.015-2.625,0.04-3.937,0.028c-3.833-0.031-7.667-0.074-11.5-0.129
			c-0.548-0.008-0.816,0.174-0.956,0.735c-0.883,3.562-1.817,7.11-2.703,10.671c-0.459,1.845-0.854,3.706-1.277,5.56
			c-0.383,1.675-0.753,3.352-1.152,5.023c-0.499,2.093-1.054,4.174-1.505,6.277c-0.098,0.458-0.018,1.113,0.254,1.465
			c0.978,1.266,2.107,2.413,3.117,3.655c2.093,2.574,4.125,5.196,6.222,7.767c1.886,2.313,3.832,4.577,5.736,6.875
			c2.379,2.872,4.744,5.755,7.112,8.636c0.392,0.476,0.714,0.419,1.152-0.125c1.089-1.353,2.187-2.7,3.319-4.017
			c0.415-0.481,0.973-0.838,1.401-1.31c1.049-1.157,2.068-2.342,3.087-3.525c3.51-4.074,7.02-8.148,10.511-12.239
			C145.221,167.734,145.324,167.302,145.499,166.931z"/>
		<path fill-rule="evenodd" clip-rule="evenodd" fill="#FFFFFF" d="M145.499,166.931c-0.175,0.371-0.277,0.803-0.534,1.103
			c-3.491,4.091-7.001,8.165-10.511,12.239c-1.02,1.184-2.038,2.369-3.087,3.525c-0.428,0.472-0.986,0.829-1.401,1.31
			c-1.132,1.317-2.23,2.664-3.319,4.017c-0.438,0.543-0.76,0.601-1.152,0.125c-2.368-2.88-4.732-5.764-7.112-8.636
			c-1.904-2.298-3.85-4.562-5.736-6.875c-2.096-2.571-4.129-5.193-6.222-7.767c-1.01-1.242-2.14-2.389-3.117-3.655
			c-0.272-0.352-0.353-1.006-0.254-1.465c0.451-2.103,1.006-4.184,1.505-6.277c0.398-1.671,0.769-3.348,1.152-5.023
			c0.424-1.854,0.818-3.715,1.277-5.56c0.886-3.561,1.82-7.109,2.703-10.671c0.139-0.562,0.408-0.743,0.956-0.735
			c3.833,0.055,7.667,0.098,11.5,0.129c1.312,0.011,2.625-0.043,3.937-0.028c3.082,0.034,6.163,0.094,9.244,0.136
			c0.601,0.008,0.913,0.283,1.076,0.873c2.112,7.654,4.249,15.301,6.365,22.954c0.841,3.041,1.649,6.091,2.459,9.14
			c0.092,0.345,0.101,0.712,0.148,1.068C145.417,166.883,145.458,166.907,145.499,166.931z M121.117,136.171
			c0-0.008-0.001-0.016-0.002-0.023c-0.952,0-1.907-0.05-2.854,0.012c-1.406,0.092-2.813,0.22-4.208,0.414
			c-0.97,0.135-1.489,0.756-1.823,1.721c-2.306,6.663-4.17,13.447-5.762,20.31c-0.237,1.02-0.163,1.974,0.54,2.839
			c0.616,0.758,1.117,1.609,1.744,2.356c2.969,3.539,5.968,7.054,8.947,10.584c0.879,1.042,1.723,2.114,2.593,3.164
			c1.264,1.525,2.523,3.055,3.812,4.558c0.902,1.052,1.768,1.085,2.764,0.172c0.19-0.174,0.381-0.348,0.553-0.539
			c3.232-3.596,6.463-7.191,9.689-10.792c0.771-0.861,1.512-1.75,2.288-2.609c0.612-0.677,1.281-1.305,1.878-1.994
			c0.572-0.661,0.757-1.467,0.56-2.316c-0.446-1.918-0.876-3.843-1.402-5.74c-1.842-6.633-3.726-13.254-5.584-19.882
			c-0.447-1.595-0.818-1.917-2.467-1.959C128.626,136.351,124.872,136.263,121.117,136.171z"/>
		<path fill-rule="evenodd" clip-rule="evenodd" fill="#BD0005" d="M121.117,136.171c3.754,0.091,7.509,0.179,11.264,0.275
			c1.649,0.042,2.02,0.364,2.467,1.959c1.858,6.628,3.742,13.25,5.584,19.882c0.526,1.897,0.956,3.822,1.402,5.74
			c0.197,0.849,0.013,1.655-0.56,2.316c-0.598,0.689-1.266,1.317-1.878,1.994c-0.775,0.858-1.516,1.748-2.288,2.609
			c-3.226,3.601-6.457,7.197-9.689,10.792c-0.172,0.191-0.363,0.365-0.553,0.539c-0.996,0.913-1.861,0.879-2.764-0.172
			c-1.29-1.502-2.548-3.033-3.812-4.558c-0.87-1.05-1.713-2.122-2.593-3.164c-2.979-3.531-5.978-7.045-8.947-10.584
			c-0.627-0.747-1.128-1.599-1.744-2.356c-0.703-0.865-0.777-1.819-0.54-2.839c1.592-6.863,3.457-13.647,5.762-20.31
			c0.334-0.965,0.854-1.586,1.823-1.721c1.395-0.194,2.802-0.322,4.208-0.414c0.948-0.062,1.903-0.012,2.854-0.012
			C121.116,136.156,121.117,136.164,121.117,136.171z M109.551,158.591c0.073,0.016,0.146,0.032,0.22,0.048
			c-0.085,0.924,0.22,1.686,0.81,2.408c3.498,4.287,6.967,8.599,10.447,12.901c1.148,1.419,2.268,2.864,3.459,4.247
			c0.932,1.082,1.404,1.079,2.283,0.05c2.674-3.131,5.323-6.285,7.987-9.424c0.998-1.175,2.005-2.342,3.019-3.502
			c0.484-0.554,0.59-1.153,0.384-1.855c-0.498-1.699-0.978-3.404-1.445-5.112c-0.833-3.047-1.656-6.096-2.477-9.146
			c-0.812-3.021-1.625-6.043-2.417-9.069c-0.134-0.512-0.398-0.707-0.925-0.709c-1.674-0.007-3.348-0.038-5.021-0.089
			c-3.165-0.096-6.331-0.187-9.493-0.333c-1.34-0.062-1.65,0.135-1.994,1.431c-1.119,4.222-2.271,8.436-3.401,12.655
			C110.495,154.921,110.028,156.758,109.551,158.591z"/>
		<path fill-rule="evenodd" clip-rule="evenodd" fill="#FFFFFF" d="M109.551,158.591c0.478-1.833,0.944-3.67,1.435-5.501
			c1.13-4.219,2.282-8.433,3.401-12.655c0.344-1.295,0.653-1.493,1.994-1.431c3.163,0.146,6.328,0.237,9.493,0.333
			c1.673,0.051,3.348,0.082,5.021,0.089c0.527,0.002,0.791,0.197,0.925,0.709c0.793,3.026,1.605,6.048,2.417,9.069
			c0.82,3.05,1.643,6.1,2.477,9.146c0.468,1.708,0.948,3.413,1.445,5.112c0.206,0.702,0.1,1.302-0.384,1.855
			c-1.014,1.16-2.021,2.327-3.019,3.502c-2.664,3.14-5.312,6.293-7.987,9.424c-0.879,1.029-1.352,1.032-2.283-0.05
			c-1.191-1.383-2.311-2.827-3.459-4.247c-3.48-4.302-6.949-8.614-10.447-12.901c-0.589-0.722-0.895-1.484-0.81-2.408
			C109.697,158.624,109.624,158.607,109.551,158.591z"/>
	</g>
</g>
</svg>
