<?xml version="1.0" encoding="UTF-8" standalone="no"?>
<!DOCTYPE svg PUBLIC "-//W3C//DTD SVG 1.1//EN" "http://www.w3.org/Graphics/SVG/1.1/DTD/svg11.dtd">
<svg width="353px" height="355px" viewBox="0 0 353 355" version="1.1" xmlns="http://www.w3.org/2000/svg" xmlns:xlink="http://www.w3.org/1999/xlink">
    <g id="Bremen" stroke="none" stroke-width="1" fill="none" fill-rule="evenodd">
        <g id="Artboard" transform="translate(1.000000, 1.000000)">
            <path d="M350.858722,176.501285 C350.858722,79.02002 272.317492,0 175.430646,0 C78.5412302,0 0,79.02002 0,176.501285 C0,273.97998 78.5412302,353 175.430646,353 C272.317492,353 350.858722,273.97998 350.858722,176.501285" id="Fill-1" fill="#2A602B"></path>
            <g id="Group-5" stroke="#FFFFFF">
                <path d="M350.858722,176.501285 C350.858722,79.02002 272.317492,0 175.430646,0 C78.5412302,0 0,79.02002 0,176.501285 C0,273.97998 78.5412302,353 175.430646,353 C272.317492,353 350.858722,273.97998 350.858722,176.501285 Z" id="Stroke-2" stroke-width="2"></path>
                <path d="M143.409114,294.004358 C143.409114,294.004358 171.867559,305.593812 205.218396,294.904551 L216.71706,341.610969 C216.71706,341.610969 175.709012,354.147725 130.637674,340.754458 L143.409114,294.004358 Z" id="Stroke-4" stroke-width="3.608" stroke-linecap="round" stroke-linejoin="round"></path>
            </g>
            <path d="M289.306393,176.822477 C289.306393,239.68955 238.341401,290.655399 175.470902,290.655399 C112.601259,290.655399 61.6354101,239.68955 61.6354101,176.822477 C61.6354101,113.952834 112.601259,62.9869849 175.470902,62.9869849 C238.341401,62.9869849 289.306393,113.952834 289.306393,176.822477" id="Fill-6" fill="#231F20"></path>
            <path d="M289.306393,176.822477 C289.306393,239.68955 238.341401,290.655399 175.470902,290.655399 C112.601259,290.655399 61.6354101,239.68955 61.6354101,176.822477 C61.6354101,113.952834 112.601259,62.9869849 175.470902,62.9869849 C238.341401,62.9869849 289.306393,113.952834 289.306393,176.822477 Z" id="Stroke-7" stroke="#FFFFFF"></path>
            <path d="M193.273489,334.113069 C193.273489,334.113069 194.55483,331.171809 196.499111,332.212471 C202.230028,340.8915 205.783693,321.583165 196.709813,320.726654 C193.648641,320.43544 192.704766,320.485974 192.704766,320.485974 C192.704766,320.485974 191.59387,308.742348 192.333896,307.557793 C194.016941,306.480301 201.624474,305.118448 202.719096,305.222086 C202.896394,305.84477 203.849691,310.046815 203.321223,310.532456 C201.484007,311.429224 198.01171,312.677161 198.01171,312.677161 L198.262668,315.631268 C198.262668,315.631268 198.710623,315.517352 199.955134,315.43684 C208.801183,314.848417 212.461912,339.305241 201.785499,340.787862 C195.221196,341.831949 193.524447,337.117711 193.273489,334.113069 Z" id="Stroke-8" stroke="#FFFFFF" stroke-width="2.406" stroke-linecap="round" stroke-linejoin="round"></path>
            <g id="Group-12" transform="translate(143.448526, 304.522770)" stroke="#FFFFFF" stroke-width="2.406">
                <path d="M5.90905888,34.5683425 C5.43026906,37.5567104 1.14086044,36.2916432 1.60937212,33.7589393 C2.00079779,31.6073829 4.91893181,9.52223887 4.91893181,9.52223887 C5.01571759,8.06017407 1.63335444,8.17409008 0.425673499,6.98011332 C-0.786289998,5.77842795 0.294627269,2.79776861 7.55184756,0.0406587175 C7.55184756,0.0406587175 11.0378486,-0.648832884 10.5624848,3.65085387 C10.0879775,7.94625807 6.62852838,30.63096 5.90905888,34.5683425 Z" id="Stroke-9"></path>
                <path d="M13.1354448,30.2592341 C14.0827463,27.940658 15.7015526,28.6267235 15.7015526,28.6267235 C21.56009,34.5991769 21.8110478,22.7450604 21.3125582,20.365672 C14.7182777,25.6255079 8.84346661,7.93683644 17.1704695,2.01491728 C19.5293017,0.335298607 25.1540114,0.900596068 26.786522,3.73136593 C29.2018838,7.92655831 28.0541587,12.5037547 27.9873508,20.0419107 C27.7295409,48.2862275 10.7337871,36.5263273 13.1354448,30.2592341 Z" id="Stroke-11" stroke-linecap="round" stroke-linejoin="round"></path>
            </g>
            <path d="M181.389395,314.677971 C180.988547,314.677971 180.6271,314.874969 180.31533,315.262968 C180.004416,315.654394 179.756884,316.363585 179.586438,317.374269 C179.358606,318.689014 179.242121,320.903952 179.242121,324.019083 C179.242121,327.134215 179.342333,329.268641 179.549609,330.43264 C179.753458,331.600065 180.011268,332.376921 180.322182,332.761494 C180.630526,333.149494 180.988547,333.340496 181.389395,333.340496 C181.791099,333.340496 182.14912,333.146068 182.466886,332.751216 C182.77523,332.359791 183.022762,331.654025 183.196634,330.643342 C183.420183,329.338875 183.540951,327.134215 183.540951,324.019083 C183.540951,320.903952 183.437313,318.7661 183.226612,317.60467 C183.026188,316.437245 182.768378,315.654394 182.456608,315.262968 C182.14912,314.874969 181.791099,314.677971 181.389395,314.677971 Z M181.597527,307.059303 C183.839017,307.059303 185.595722,308.277262 186.863359,310.716606 C188.365679,313.593628 189.121979,318.371248 189.121979,325.052893 C189.121979,331.713981 188.362253,336.498453 186.843659,339.415731 C185.58887,341.811393 183.839017,343.015648 181.597527,343.015648 C179.342333,343.015648 177.525672,341.697477 176.143263,339.064561 C174.765136,336.428219 174.072219,331.734537 174.072219,324.975807 C174.072219,318.348122 174.83537,313.576498 176.347969,310.662646 C177.605328,308.263558 179.351754,307.059303 181.597527,307.059303 Z M165.42745,315.166183 C165.42745,317.370843 164.523831,319.157525 163.409509,319.157525 C162.298614,319.157525 161.392425,317.370843 161.392425,315.166183 C161.392425,312.961523 162.298614,311.17484 163.409509,311.17484 C164.523831,311.17484 165.42745,312.961523 165.42745,315.166183 Z" id="Stroke-13" stroke="#FFFFFF" stroke-width="2.406"></path>
            <path d="M52.4810172,268.7604 C52.4810172,268.7604 39.3858159,263.079161 36.1807506,254.564582 M64.9338351,254.477218 C65.8511587,243.67404 65.5762186,242.482633 63.2850508,235.426693" id="Stroke-14" stroke="#FFFFFF" stroke-width="3.656" stroke-linecap="round"></path>
            <path d="M293.442486,105.782572 C293.442486,105.782572 299.942551,131.778547 301.71296,134.596469" id="Stroke-15" stroke="#FFFFFF" stroke-width="2.406" stroke-linecap="round"></path>
            <path d="M312.860454,150.39482 C312.860454,150.39482 305.151852,168.381558 309.006153,179.302077 M304.081213,107.355127 C304.081213,107.355127 318.21365,119.560413 318.21365,128.125526" id="Stroke-16" stroke="#FFFFFF" stroke-width="3" stroke-linecap="round"></path>
            <g id="Group-20" transform="translate(6.703179, 119.331145)" stroke="#FFFFFF" stroke-linecap="round">
                <path d="M50.5563151,155.100217 C50.5563151,155.100217 27.8921694,158.188797 21.4546304,132.951691 C21.4546304,132.951691 18.1056712,115.951655 14.2410922,113.378695 C10.3765132,110.803165 49.2681221,129.602732 50.2985052,154.327644" id="Stroke-17" stroke-width="3.608" stroke-linejoin="round"></path>
                <path d="M26.8215303,110.612163 C10.892133,108.590796 4.03319048,93.1436149 5.47555552,82.4612059 C5.47555552,82.4612059 7.54659986,72.427176 3.57495693,61.6873807 C0.550615512,52.0850325 -3.27028142,48.4782634 4.96336176,53.7740728 C26.5534422,67.6624036 32.2578075,94.8806199 28.8788704,109.976632 M16.987924,55.9461854 C-6.87705053,36.1993173 17.3322415,7.35544256 14.5854098,0.31577614 C17.6774156,-4.66226757 31.5854462,50.7934134 17.8478613,55.6010114 M24.3719079,100.588411 C24.3719079,100.588411 10.9794972,90.2828672 14.0706465,78.265157 M29.8655715,88.225527 C31.7558919,84.9605059 32.0976399,68.1377674 28.8351884,65.0466181 M39.9963872,97.8381534 C39.9963872,97.8381534 45.8352248,84.6187579 44.9752874,81.0119888" id="Stroke-19" stroke-width="3.656"></path>
            </g>
            <path d="M28.673429,136.817403 C28.673429,136.817403 31.6977704,122.872542 37.7061972,117.205007 C43.8525223,111.409852 47.4430177,110.88481 49.2690998,109.710533 C51.6750401,108.16453 48.8476963,135.070976 38.7768363,160.2447 C48.6267164,135.191744 61.3073662,127.583355 64.3856679,122.393753 C67.1324996,117.7566 60.263279,167.722044 40.1755193,173.041836" id="Stroke-21" stroke="#FFFFFF" stroke-width="3.656" stroke-linecap="round" stroke-linejoin="round"></path>
            <path d="M35.0236038,155.704334 C35.0236038,155.704334 36.7597522,138.661472 39.660756,135.613148 M42.7519053,163.255337 C42.7519053,163.255337 52.0964437,151.354969 52.7088492,149.006415 M31.4202607,124.455375 C31.4202607,124.455375 20.944271,112.092491 28.673429,97.3279492 C33.9255563,87.2836411 44.317608,78.6885502 46.8708682,68.4806484 C47.5595033,65.7338167 48.8948044,106.702465 44.7724155,111.851811 M35.5383671,113.464622 C35.5383671,112.949002 37.4286875,101.620784 37.4286875,100.760847 M47.9012513,100.931292 C47.9012513,100.931292 59.5780699,75.004695 75.2025492,74.319486 C77.0894436,74.8342493 73.7404844,103.935934 51.3375746,115.695834 M53.7392323,106.25451 C53.7392323,106.25451 63.030667,89.6724512 64.5561136,89.2544736 M50.5538668,122.558203 C50.5538668,122.558203 84.6001912,119.132158 83.9578077,91.1447941 C80.5257669,87.0232617 70.2536268,100.503037 66.1851981,102.858443 M63.5257305,112.949002 C63.5257305,112.949002 70.0197992,109.335381 70.3949512,108.141404" id="Stroke-22" stroke="#FFFFFF" stroke-width="3.656" stroke-linecap="round"></path>
            <path d="M59.0624501,81.70347 C59.0624501,81.70347 54.2548521,56.633384 85.3299388,34.8291757 C87.2202593,34.4848582 82.6730408,56.3927044 73.2514164,69.0262461 C71.0202044,72.803461 94.774689,36.7160701 119.670903,36.7160701 C123.618564,36.2013068 110.509658,60.6752609 83.1012964,71.8099079 C100.659778,67.7414792 117.656389,60.682113 121.001922,62.3882835 C127.79063,65.8511587 95.948966,89.3683896 75.1785668,85.2999609" id="Stroke-23" stroke="#FFFFFF" stroke-width="3.656" stroke-linecap="round" stroke-linejoin="round"></path>
            <path d="M64.0413503,72.6030373 C64.0413503,72.6030373 64.5561136,64.8738793 70.3949512,60.755773 M88.2506424,78.6114641 C88.2506424,78.6114641 96.8054773,78.2337427 98.5519039,75.004695 M87.390705,65.5633709 C87.390705,65.5633709 91.8574115,53.8865523 104.735059,50.453655 M96.3772217,44.6156739 C96.3772217,44.6156739 101.984801,17.6586936 134.779763,13.3658589 C146.456581,10.7903294 118.616538,36.3015187 122.714944,33.2668991 C128.496396,28.9843426 140.762494,19.3314602 151.408073,27.0571921 C161.067808,34.0694502 163.533704,30.8643849 166.886089,30.1954496 C171.181493,29.3320862 147.658267,53.8865523 119.500457,42.7253535 M126.884441,39.4663279 C127.740953,39.4663279 140.986043,36.8471164 143.709749,35.3447955 M122.417735,51.3101663 C122.417735,51.3101663 137.182277,42.8992253 157.61521,53.2004867 C160.70636,54.7464896 137.275636,68.5979905 123.571456,60.2470052 M128.771336,56.2924925 C128.771336,56.2924925 139.504279,55.9713008 140.444728,55.4325552" id="Stroke-24" stroke="#FFFFFF" stroke-width="3.656" stroke-linecap="round"></path>
            <path d="M139.416915,22.9819114 C139.416915,22.9819114 144.566261,7.87219541 167.746026,11.3085188 C176.501285,14.2257963 188.218359,8.5454133 187.14772,9.76251586 C181.529863,16.136673 176.103007,26.7025965 153.977607,27.9137035 C169.823066,28.3419591 189.038041,12.8510956 205.174714,29.851132 C208.436309,34.4848582 216.332487,36.0437088 216.851532,36.2013068 C219.082744,36.8899419 179.763736,43.7591626 169.120727,38.4359448" id="Stroke-25" stroke="#FFFFFF" stroke-width="3.656" stroke-linecap="round" stroke-linejoin="round"></path>
            <path d="M149.889478,20.7506994 C149.889478,20.7506994 162.50332,16.7919041 163.797509,17.1439303 M177.190776,31.2224066 C177.190776,31.2224066 189.894552,30.0215778 194.357832,31.7380264 M160.876806,42.0392879 C160.876806,42.0392879 173.584007,39.1220104 192.12919,50.2832092 C192.470938,52.5118516 164.65402,58.3498327 159.334229,54.7464896 M158.989911,47.1920599 C158.989911,47.1920599 161.736743,51.8257861 170.15111,50.6241007" id="Stroke-26" stroke="#FFFFFF" stroke-width="3.656" stroke-linecap="round"></path>
            <path d="M190.580618,21.1087211 C190.580618,21.1087211 203.628711,9.07388077 230.415245,21.4299129 C231.100454,24.1596144 219.25319,33.142705 206.891162,30.7376212" id="Stroke-27" stroke="#FFFFFF" stroke-width="3.535" stroke-linecap="round"></path>
            <path d="M202.427882,25.2139798 C202.427882,25.2139798 211.354443,22.1254 214.78991,24.0122945 M228.869243,31.5667242 C231.666608,27.5719554 244.627338,19.2783565 270.594191,43.9296084 C274.538425,47.877269 277.439429,47.6263112 279.865069,47.7068232 C285.014415,47.877269 261.158862,50.9889745 258.471986,48.6841026 M227.32324,38.6063906 C227.32324,38.6063906 247.240554,34.8291757 258.057435,48.0485712 C262.865033,52.3439754 264.926655,63.8469223 268.529999,65.2190534 C272.136768,66.593754 239.628738,63.6730505 220.501127,47.5432296 M228.571177,44.4615019 C228.571177,44.4615019 244.791788,49.1594664 247.080386,52.2540417 M201.373517,39.2624783 C201.373517,39.2624783 219.80564,43.2435428 223.459517,51.0360827 C227.109112,58.8286225 228.815282,61.2636842 231.007095,62.4816432 C233.198907,63.6996023 204.462096,64.9175614 195.693134,55.1781713 C192.768147,52.7422532 194.231069,50.8288069 195.806193,48.9684644 C197.375322,47.1149739 198.944451,45.4019513 212.009674,52.9863589 M231.007095,64.1852442 C231.007095,64.1852442 232.46916,78.3142547 257.063882,81.9638494 C262.179824,83.1818085 253.41343,63.6996023 242.452655,62.9707112 M258.285267,83.6708764 C258.285267,83.6708764 262.668035,103.397188 281.176388,113.380684 C286.53301,117.766878 288.972354,121.17665 289.457139,121.905541 C289.946207,122.638715 282.150241,103.397188 279.958429,93.6543722 C277.767473,83.9149822 264.531804,80.7398947 261.469776,65.1719453 M273.86949,62.9707112 C273.86949,62.9707112 300.370806,72.579055 297.205997,90.114411 C295.988038,96.6924178 300.64232,101.620784 299.199955,102.667441 C296.895083,104.347059 287.754395,92.4398392 281.176388,91.7066655 M272.651531,71.401352 C272.651531,71.401352 286.73429,82.0306573 286.73429,84.965065" id="Stroke-28" stroke="#FFFFFF" stroke-width="3.656" stroke-linecap="round"></path>
            <path d="M275.057471,56.9777016 C275.057471,56.9777016 288.279436,50.9692748 302.358769,72.2578633 C304.245663,73.6334204 311.104606,88.0596404 316.092928,88.2275166 C316.092928,88.2275166 299.775531,86.7183437 298.065934,83.9346819 M285.529178,118.101774 C285.984842,121.463581 284.760031,142.301645 298.406826,156.734717 C300.294577,160.511932 302.013595,137.333023 302.013595,135.442702 C302.013595,133.555808 310.425393,149.521179 315.062545,152.26801 C317.293757,155.704334 319.819609,130.755016 317.999522,125.555992 C316.500627,121.273436 336.829923,141.33807 333.704513,136.048256 C323.995101,119.634073 322.710334,88.2977505 305.151852,93.865074 M299.438065,111.232554 C299.438065,111.232554 309.053261,121.363369 308.538498,134.927082 M307.678561,99.3887154 C307.678561,99.3887154 315.236417,106.943145 318.153694,113.29332 M296.302378,155.035398 C296.302378,155.035398 291.468228,175.57454 298.51389,199.64422 C298.169572,202.73537 308.470834,176.314565 308.792025,179.302077 C309.434409,185.297656 311.997947,198.382579 314.376479,204.120348 C316.433819,209.099249 325.363806,189.868 326.394189,184.203034 C327.421146,178.538925 328.48579,170.933961 320.783184,153.820865 C318.856033,149.538309 331.275447,176.304287 337.552819,181.971822 C338.911246,183.196634 335.775558,170.693282 337.037199,163.258763 C338.411899,155.186144 335.558004,142.043835 323.995101,138.333428 M314.202607,158.966785 C314.202607,158.966785 318.843186,168.752427 317.123311,180.770994 M297.014995,193.648641 C297.014995,193.648641 285.529178,214.766784 287.245627,224.037662 C288.79163,227.989605 299.798657,219.129852 308.149642,204.783288 C310.38171,200.834771 298.085634,228.337349 298.232954,243.954976 C298.336592,254.831813 313.723818,240.110953 316.949439,235.714481 C325.567656,223.984559 319.428183,201.715265 319.428183,201.715265 C319.428183,201.715265 329.562425,218.417235 328.849807,235.119206 C328.368448,246.401172 349.406079,186.582423 327.56504,182.728122 M312.486159,213.220781 C312.486159,213.220781 306.303004,229.534752 306.648178,230.050372 M327.940192,191.242701 C327.940192,191.242701 333.607728,203.089965 331.031342,208.072291 M288.66401,224.483048 C289.009184,223.967428 271.621148,244.641042 272.136768,259.924629 C272.136768,259.924629 292.732438,257.244606 298.299762,241.185019 M291.712334,233.998032 C291.712334,233.998032 281.2372,244.30015 281.2372,248.421683 M303.900489,248.421683 C303.900489,248.421683 297.156319,268.840912 301.618743,282.404625 C301.10398,285.321903 337.010647,249.592534 320.73008,233.82416 M311.459202,244.814913 C311.459202,244.814913 314.888673,251.684134 307.162941,264.732227 M294.114848,262.501015 C294.114848,262.501015 293.769674,284.305224 269.218634,290.658825 C266.987422,291.344034 262.507011,294.576507 259.947755,295.981186 C254.624537,298.89932 267.609249,276.800472 282.026047,257.672861 C282.541667,255.785967 268.321866,277.372621 252.908089,278.122069 C251.603622,278.18545 247.756173,279.326324 246.72836,279.841943 C245.697977,280.356707 260.459949,258.368348 271.962039,254.246816 M288.105564,260.784567 C288.105564,260.784567 277.462555,274.863043 275.401789,275.89 M277.529363,287.864885 C277.529363,287.864885 267.161293,302.676535 271.965465,314.008179 L272.176167,313.774352 C272.176167,313.774352 298.406826,296.152488 297.376443,286.706881" id="Stroke-29" stroke="#FFFFFF" stroke-width="3.656" stroke-linecap="round" stroke-linejoin="round"></path>
            <path d="M297.587145,276.231748 C297.587145,276.231748 285.880348,295.503253 279.520752,300.615769" id="Stroke-31" stroke="#FFFFFF" stroke-width="3.656" stroke-linecap="round"></path>
            <path d="M252.005326,329.097339 C246.96647,309.753031 233.416461,329.904173 224.495896,329.904173 C221.134089,329.904173 219.026215,316.778993 216.356469,310.47507 C215.589891,308.665262 244.664167,303.466238 229.494496,287.222501 C232.495711,280.240221 254.333324,284.652967 245.339955,305.781388 C263.754948,303.06796 261.469776,328.335044 252.005326,329.097339 Z" id="Stroke-32" stroke="#FFFFFF" stroke-width="3.458" stroke-linejoin="round"></path>
            <path d="M97.0470135,327.812572 C102.08587,307.668283 115.652152,329.047661 124.571861,329.047661 C127.934524,329.047661 130.026125,314.985459 132.695871,308.421156 C133.461592,306.537688 105.384295,301.920235 120.553966,285.004137 C117.552751,277.734069 95.8787321,281.083028 105.86908,303.352322 C85.7410643,299.498021 87.8694949,327.812572 97.0470135,327.812572 Z" id="Stroke-33" stroke="#FFFFFF" stroke-width="3.529" stroke-linejoin="round"></path>
            <path d="M39.8577536,244.537404 C42.1763297,249.174556 30.988579,222.147342 40.0016475,216.225423 C46.4426125,218.801809 53.8462963,226.995196 55.0505512,230.980543 C57.3357233,238.545251 60.9022364,249.395536 64.2117961,254.859222 C66.1954763,258.131095 52.3679577,235.282799 55.7134909,218.543999 C55.9713008,203.347775 81.174146,240.114379 68.754732,264.096696" id="Stroke-34" stroke="#FFFFFF" stroke-width="3.608" stroke-linecap="round"></path>
            <path d="M57.0016839,257.174372 C55.0505512,252.105538 46.3449702,246.109959 44.6387997,236.313182" id="Stroke-35" stroke="#FFFFFF" stroke-width="3.656" stroke-linecap="round"></path>
            <path d="M23.178909,181.971822 C23.178909,181.971822 31.5033423,165.661278 32.4506438,163.944829 C33.3534068,162.30204 53.6218903,197.58945 40.9181146,216.560319" id="Stroke-36" stroke="#FFFFFF" stroke-width="3.608" stroke-linejoin="round"></path>
            <path d="M44.2979082,184.460844 C44.2979082,184.460844 51.5448504,170.603348 51.936276,170.04062 C52.5384035,169.180683 67.3029454,197.854112 50.0493816,219.91613" id="Stroke-37" stroke="#FFFFFF" stroke-width="3.608" stroke-linecap="round"></path>
            <path d="M89.1705355,306.494006 C89.1705355,306.494006 63.7595581,313.205628 47.7702051,285.225117 C45.0336514,280.437219 65.5428146,293.646336 81.4619338,295.931508 C81.4619338,295.931508 68.1123486,275.301577 70.8960103,279.657793 C73.6796721,284.010584 93.3091982,298.855638 89.5987912,293.79023 C85.8849582,288.721396 87.5979808,273.662214 87.5979808,273.662214 C87.5979808,273.662214 97.3776269,286.509884 96.8791373,292.221101 C96.3772217,297.928893 108.154252,272.377447 79.889379,251.249026 C71.3345441,244.85517 83.8875738,276.087854 83.8875738,276.087854 C83.8875738,276.087854 60.4842589,258.345223 60.189619,262.671461 C58.6907242,284.652967 71.5383938,293.21808 71.5383938,293.21808" id="Stroke-38" stroke="#FFFFFF" stroke-width="3.458" stroke-linecap="round" stroke-linejoin="round"></path>
            <path d="M133.749379,75.8183808 C133.578934,75.8783366 111.497216,86.5247721 110.841128,118.784414 L113.60509,116.699665 C114.10358,92.1554774 134.037167,78.6585723 134.760063,78.3879147 C141.949619,75.4063988 143.693476,76.5275721 144.057493,76.9421236 C144.847196,77.845743 144.516583,80.8366805 141.220728,86.5376198 C139.882,88.8493438 135.739912,100.115037 134.211039,107.653193 L139.416915,106.64251 C140.866132,99.4992054 144.178261,90.0073471 145.412494,87.8694949 C149.089497,81.515894 149.996542,77.6384673 148.196156,75.2359531 C145.626622,71.8099079 140.160367,73.1580567 133.749379,75.8183808" id="Fill-39" fill="#FFFFFF"></path>
            <path d="M111.202576,134.870553 C112.554151,152.395631 116.980601,169.538704 124.732885,187.27791 C127.034331,192.548024 130.172588,200.223222 133.810192,209.109527 C143.46907,232.720117 156.697887,265.060271 166.373895,281.769094 C167.776004,284.361753 170.914262,286.520162 173.249111,286.580118 C178.31195,286.710307 185.24027,282.083433 193.377127,265.595591 L189.118553,265.107379 C179.191587,281.417068 173.901773,283.070134 172.088539,283.023883 C170.796919,282.989622 169.713433,282.136537 168.783261,280.417519 C159.184339,263.838886 145.994922,231.60237 136.366021,208.062013 C132.725848,199.158578 129.580739,191.470533 127.265589,186.173867 C119.637499,168.722449 115.284709,151.869733 113.95626,134.659851 L111.202576,134.870553 Z" id="Fill-40" fill="#FFFFFF"></path>
            <path d="M208.363505,77.7815047 C206.509158,79.5082315 207.674014,82.5599813 209.022163,86.0930904 L209.778462,88.1204527 C220.997047,119.604095 211.112907,174.022541 180.392416,249.860622 L182.955097,250.897857 C213.933398,174.410541 223.833813,119.332581 212.3814,87.1937074 L211.605401,85.1089589 C211.003273,83.5364042 209.755336,80.2611049 210.243548,79.8062974 C210.480801,79.5853175 228.065835,81.0174044 231.920136,94.7215853 C240.676251,125.854058 217.480212,203.913073 195.518405,248.251237 L199.800962,249.321876 C221.983748,204.53233 251.19164,127.483143 237.059204,94.2933296 C234.596734,88.5084523 229.47137,83.2323426 224.680046,81.5021898 C224.720302,81.51932 224.757132,81.5321677 224.793962,81.5492979 C213.462317,76.2766143 210.02942,76.2295062 208.363505,77.7815047" id="Fill-41" fill="#FFFFFF"></path>
            <path d="M139.416915,174.591265 C155.021694,231.110733 173.108643,268.007527 173.27652,268.379253 C173.252537,268.321866 173.229412,268.265337 173.212281,268.205381 C173.517199,269.225486 174.326603,269.861017 175.320156,269.864473 C176.655457,269.871295 178.066987,268.690166 178.532073,267.180993 L175.892305,266.368164 C175.835775,266.542036 175.725286,266.699634 175.607943,266.826398 C173.778435,262.704865 159.454997,225.202518 144.77011,172.021731 C139.852023,152.167799 138.132148,137.038383 138.132148,124.057098 C138.132148,123.183456 138.540704,121.905541 138.560403,121.059308 L132.564824,122.772331 C132.213655,136.443108 134.100549,153.124522 139.416915,174.591265" id="Fill-42" fill="#FFFFFF"></path>
            <path d="M149.942582,145.108432 C149.838944,144.088327 149.645373,140.645152 151.532267,139.193365 C153.121096,137.968554 155.80112,138.600659 157.771952,139.344111 L157.795078,139.353533 C158.177082,139.490575 167.340896,142.689644 183.005632,142.144047 L183.075866,142.144047 L183.146099,142.133769 C195.732533,140.387342 200.376537,142.198007 200.681455,144.459197 C201.513984,150.608948 188.298871,164.246321 179.672946,173.520625 C171.744221,182.052335 169.013663,187.863764 169.803366,189.917678 C169.936982,190.262852 170.378942,191.068829 171.633731,191.175893 C173.560881,191.340343 175.718433,191.229853 178.003606,191.109085 C183.695123,190.814445 188.937829,189.225617 191.507363,193.129595 C192.685066,194.912852 193.568129,197.7539 192.190002,199.888326 C190.480406,202.524668 186.531889,202.487838 179.516205,201.343539 C175.005816,200.607795 172.757474,200.03222 168.966555,199.64422 C165.350364,199.272494 161.03783,200.156414 159.374485,199.711028 C158.290998,199.42324 157.604932,198.864795 157.273462,198.004858 C156.764695,196.696108 156.641357,193.380553 161.475507,185.876658 C167.023131,177.278141 172.178472,170.693282 175.946265,165.885684 C181.487037,158.809187 184.019741,155.580996 182.644184,153.027736 C181.469907,150.849628 178.117522,150.428224 168.284772,151.227349 C157.259758,151.699287 150.384542,149.410689 149.942582,145.108432 M149.84237,136.994701 C146.901967,139.256747 147.005605,143.619816 147.186329,145.392794 C147.547777,148.929329 150.793098,154.747611 168.455218,153.994737 C177.619032,153.248716 179.897352,153.770331 180.205696,154.342481 C180.720459,155.299204 177.023757,160.013442 173.764731,164.176087 C169.96439,169.027367 164.761084,175.668756 159.147509,184.374337 C154.894931,190.975469 152.940372,195.974069 154.191735,199.215965 C154.847822,200.911857 156.530867,201.908836 158.474291,202.427882 C160.351764,202.929798 163.603938,203.207307 167.491642,203.605585 C171.245731,203.990159 175.644773,203.799157 179.923904,205.148162 C191.664104,208.851717 194.568534,204.167456 196.228453,201.608201 C198.335471,198.356027 197.171472,194.301303 195.535536,191.818276 C192.089791,186.589275 185.096376,186.953292 178.930351,187.271914 C177.103412,187.365274 175.39039,187.438934 173.854665,187.378978 C175.035794,185.394442 179.094801,181.025377 182.744396,177.100843 C192.279936,166.845833 206.429503,154.178887 206.429503,146.088281 C206.429503,144.95426 206.201671,143.907604 205.710033,142.963728 C203.558477,138.828491 194.354406,137.798108 182.872016,139.377515 C167.809408,139.895705 158.816039,136.774577 158.725249,136.743743 L158.752657,136.754021 C154.931761,135.30566 151.933971,135.388742 149.84237,136.994701" id="Fill-43" fill="#FFFFFF"></path>
            <path d="M237.083186,110.108811 C247.046982,114.230343 252.473838,118.135178 252.526941,118.175434 C275.913982,134.763489 258.000905,169.94726 259.252268,167.535324 C255.749137,174.28292 252.717943,175.109454 251.57707,175.153136 C250.252047,175.200244 249.518874,174.343733 249.201108,173.824687 C248.335175,172.416582 251.48628,166.755043 252.476407,164.955512 C257.518689,155.777994 256.758964,149.538309 254.831813,144.613369 C252.162067,137.78783 246.146789,130.939166 237.304166,126.228354 L236.845076,136.048256 C245.018763,140.404472 250.215217,145.908414 251.19164,152.750226 C251.834024,157.246911 251.667004,158.712401 246.989596,167.220128 C245.511257,169.913856 245.464149,172.995584 246.866258,175.267052 C247.940323,177.010052 249.692745,177.970202 251.677282,177.896542 C253.69094,177.822882 257.672861,176.541541 261.690756,168.799535 C263.81576,164.714833 266.09408,160.06055 266.890636,150.126732 C267.880763,137.717596 265.006311,123.65882 254.126048,115.943366 C253.91192,115.786624 248.428535,111.827829 238.129843,107.572681 L237.083186,110.108811 Z" id="Fill-44" fill="#FFFFFF"></path>
            <path d="M115.80975,130.219696 C101.593376,140.146662 93.0582403,153.910799 91.1285204,170.02092 C86.8853634,205.385416 110.874532,238.217207 150.83935,248.395131 L147.982028,240.686529 C114.865875,225.841475 95.7519684,200.881879 99.1608834,172.449986 C102.988632,140.534662 132.615358,120.446902 181.958118,119.918435 C182.092591,119.918435 207.653457,121.347096 214.505548,126.198376 L215.646421,118.489774 C205.940435,115.063729 193.949277,112.781983 181.975249,112.922451 C154.061545,113.25649 131.815377,119.041367 115.80975,130.219696" id="Fill-45" fill="#FFFFFF"></path>
            <path d="M225.289025,199.633942 C225.289025,199.633942 224.211534,200.928987 226.56694,202.856138 C226.811902,203.056561 227.832007,204.114353 229.56473,206.068055 C233.693971,210.718911 237.22708,216.181741 232.562519,226.196071 C228.086391,235.811267 217.145316,244.396936 173.891495,246.324086 L166.182893,246.109959 L167.244111,251.774068 L172.499664,252.051578 C217.296062,253.276389 232.44946,241.185019 237.276757,230.826371 C238.839891,227.467134 239.478848,224.037662 239.478848,220.739237 C239.478848,212.939845 235.918331,205.847075 232.562519,202.06986 C231.663182,201.059177 230.776693,200.29003 229.926177,199.751284 C234.282394,197.539772 241.044551,193.371131 248.622106,195.575792 C254.159452,197.188602 259.814139,200.302877 261.683904,207.352822 C264.805887,219.123 263.584502,229.742028 256.973091,237.973101 C236.845076,263.026057 204.378158,265.458549 174.015689,265.107379 L173.982285,267.854211 C211.79212,269.235764 238.558098,265.167335 259.328498,240.328507 C265.491953,232.960797 268.750122,217.630958 265.324077,207.56695 C261.42695,196.117963 252.640857,192.40413 246.909084,191.721491 C236.279778,190.452997 226.059029,198.212133 225.289025,199.633942" id="Fill-46" fill="#FFFFFF"></path>
            <path d="M214.338528,101.763821 C193.973259,97.5617768 170.679577,96.6487357 133.421336,107.783383 C42.6311372,138.61779 65.7569425,246.538214 158.581355,264.846143" id="Stroke-47" stroke="#FFFFFF" stroke-width="3.207"></path>
        </g>
    </g>
</svg>