<?xml version="1.0" encoding="UTF-8" standalone="no"?>
<!DOCTYPE svg PUBLIC "-//W3C//DTD SVG 1.1//EN" "http://www.w3.org/Graphics/SVG/1.1/DTD/svg11.dtd">
<svg width="354px" height="354px" viewBox="0 0 354 354" version="1.1" xmlns="http://www.w3.org/2000/svg" xmlns:xlink="http://www.w3.org/1999/xlink">
    <g id="Bremen" stroke="none" stroke-width="1" fill="none" fill-rule="evenodd">
        <g id="170-BHC-colour">
            <polyline id="Fill-1" fill="#D8232A" points="209.737 301.973 209.737 258.645 144.907 258.645 144.907 301.973 141.707 301.973 141.707 255.445 212.938 255.445 212.94 301.973 209.737 301.973"></polyline>
            <g id="Group-5" transform="translate(0.000000, 0.921000)">
                <mask id="mask-2" fill="white">
                    <use xlink:href="#path-1"></use>
                </mask>
                <g id="Clip-3"></g>
                <path d="M141.708,300.907 L144.907,300.907 C144.907,309.862 148.533,317.957 154.401,323.829 C160.271,329.696 168.365,333.321 177.323,333.321 C186.278,333.321 194.372,329.696 200.243,323.829 C206.112,317.957 209.737,309.862 209.737,300.907 L212.938,300.907 C212.937,320.579 196.991,336.522 177.323,336.523 C157.651,336.522 141.708,320.579 141.708,300.907" id="Fill-2" fill="#D8232A" mask="url(#mask-2)"></path>
                <path d="M61.035,61.036 C31.464,90.617 13.192,131.413 13.192,176.54 C13.192,221.669 31.464,262.462 61.035,292.046 C90.615,321.614 131.412,339.886 176.54,339.886 C221.669,339.886 262.464,321.614 292.046,292.046 C321.616,262.462 339.884,221.669 339.888,176.54 C339.884,131.411 321.616,90.617 292.046,61.036 C262.464,31.466 221.669,13.193 176.54,13.193 C131.412,13.193 90.615,31.466 61.035,61.036 Z M0,176.54 C0,79.036 79.036,0.005 176.54,0 C274.042,0.005 353.075,79.038 353.079,176.54 C353.075,274.044 274.042,353.075 176.54,353.079 C79.036,353.075 0,274.044 0,176.54 L0,176.54 Z" id="Fill-4" fill="#D8232A" mask="url(#mask-2)"></path>
            </g>
            <path d="M105.641,106.644 C87.55,124.74 76.372,149.704 76.37,177.315 C76.372,204.922 87.55,229.883 105.641,247.981 C123.736,266.07 148.7,277.25 176.309,277.252 C203.917,277.25 228.882,266.07 246.978,247.981 C265.069,229.883 276.247,204.922 276.249,177.315 C276.247,149.704 265.069,124.74 246.978,106.644 C228.882,88.553 203.917,77.375 176.309,77.371 C148.7,77.375 123.736,88.553 105.641,106.644 Z M69.53,177.315 C69.53,118.338 117.334,70.533 176.309,70.533 C235.284,70.533 283.089,118.338 283.089,177.315 C283.089,236.287 235.284,284.09 176.309,284.093 C117.334,284.09 69.53,236.287 69.53,177.315 L69.53,177.315 Z" id="Fill-6" fill="#D8232A"></path>
            <path d="M48.288,186.426 C48.205,185.037 48.008,184.072 47.691,183.428 C47.303,182.754 46.473,182.281 45.639,182.33 C44.735,182.384 43.996,182.846 43.657,183.598 C43.351,184.315 43.312,184.839 43.43,186.819 L43.502,188.035 L48.366,187.746 L48.288,186.426 Z M38.955,187.19 C38.845,185.348 37.989,184.423 36.495,184.512 C35.036,184.598 34.294,185.619 34.403,187.46 L34.469,188.572 L39.021,188.301 L38.955,187.19 Z M30.241,194.854 L29.71,185.926 C29.458,181.688 31.442,179.269 35.368,179.035 C37.695,178.897 39.128,179.544 40.312,181.287 C40.526,179.601 40.826,178.781 41.545,177.971 C42.429,177.012 44.027,176.324 45.694,176.226 C49.864,175.979 52.542,178.817 52.839,183.82 L53.413,193.479 L30.241,194.854 L30.241,194.854 Z" id="Fill-7" fill="#D8232A"></path>
            <path d="M40.514,164.57 C40.635,163.428 40.519,162.541 40.163,161.943 C39.747,161.234 38.864,160.65 38.034,160.563 C37.203,160.475 36.217,160.86 35.664,161.467 C35.189,161.977 34.89,162.82 34.77,163.962 L34.652,165.069 L40.397,165.677 L40.514,164.57 Z M54.528,153.84 L53.737,161.315 L44.273,166.088 L53.132,167.025 L52.499,173.012 L29.416,170.568 L30.401,161.26 C30.68,158.629 31.482,157 33.044,155.8 C34.491,154.693 36.436,154.165 38.339,154.366 C40.45,154.59 42.335,155.629 43.331,157.134 C43.873,157.961 44.142,158.725 44.311,160.108 L54.528,153.84 L54.528,153.84 Z" id="Fill-8" fill="#D8232A"></path>
            <polyline id="Fill-9" fill="#D8232A" points="39.155 142.007 42.893 142.982 44.605 136.414 49.556 137.704 47.844 144.272 51.717 145.281 53.525 138.343 58.476 139.633 55.15 152.398 32.686 146.544 36.012 133.779 40.963 135.069 39.155 142.007"></polyline>
            <polyline id="Fill-10" fill="#D8232A" points="39.189 124.139 41.755 118.77 54.957 119.872 45.925 110.041 48.521 104.609 70.962 111.477 68.367 116.908 55.576 112.686 65.217 123.502 64.182 125.668 49.815 124.742 61.016 132.293 58.436 137.693 39.189 124.139"></polyline>
            <polyline id="Fill-11" fill="#D8232A" points="62.114 93.875 65.223 96.168 69.25 90.705 73.369 93.741 69.341 99.204 72.563 101.579 76.818 95.808 80.936 98.844 73.108 109.462 54.422 95.686 62.25 85.068 66.368 88.104 62.114 93.875"></polyline>
            <path d="M78.655,82.548 C79.465,81.734 79.932,80.97 80.028,80.281 C80.149,79.469 79.828,78.461 79.236,77.871 C78.645,77.281 77.635,76.964 76.823,77.088 C76.134,77.188 75.372,77.657 74.561,78.471 L73.776,79.26 L77.869,83.337 L78.655,82.548 Z M96.301,82.981 L90.996,88.307 L80.631,86.088 L86.943,92.375 L82.694,96.641 L66.247,80.259 L72.854,73.626 C74.721,71.752 76.368,70.986 78.337,71.031 C80.157,71.077 82.005,71.885 83.361,73.236 C84.865,74.734 85.682,76.726 85.513,78.523 C85.416,79.507 85.147,80.271 84.411,81.453 L96.301,82.981 L96.301,82.981 Z" id="Fill-12" fill="#D8232A"></path>
            <polyline id="Fill-13" fill="#D8232A" points="111.245 56.258 106.698 48.517 111.889 45.468 123.646 65.481 118.454 68.53 113.625 60.309 106.093 64.733 110.923 72.955 105.732 76.004 93.975 55.991 99.166 52.941 103.713 60.683 111.245 56.258"></polyline>
            <path d="M127.492,51.608 C128.629,55.045 132.323,56.901 135.76,55.764 C139.196,54.627 141.053,50.932 139.916,47.496 C138.79,44.092 135.095,42.235 131.659,43.373 C128.221,44.51 126.365,48.205 127.492,51.608 Z M140.474,38.768 C143.024,40.271 144.946,42.641 145.897,45.516 C148.118,52.224 144.57,59.008 137.598,61.315 C130.559,63.645 123.742,60.329 121.445,53.389 C120.307,49.953 120.866,45.991 122.92,42.892 C124.432,40.594 126.946,38.773 129.821,37.821 C133.654,36.552 137.242,36.868 140.474,38.768 L140.474,38.768 Z" id="Fill-14" fill="#D8232A"></path>
            <path d="M167.014,39.004 C165.38,37.496 163.583,36.887 161.512,37.154 C157.923,37.617 155.678,40.608 156.154,44.301 C156.421,46.372 157.346,47.831 158.982,48.813 C160.237,49.563 161.713,49.863 163.129,49.681 C165.096,49.427 166.654,48.454 167.993,46.597 L168.907,53.671 C166.232,54.964 165.327,55.291 163.774,55.492 C160.151,55.96 156.317,54.805 153.619,52.382 C151.557,50.543 150.292,48.075 149.904,45.073 C149.035,38.344 153.757,32.261 160.521,31.387 C162.316,31.156 163.806,31.279 166.091,31.861 L167.014,39.004" id="Fill-15" fill="#D8232A"></path>
            <polyline id="Fill-16" fill="#D8232A" points="187.276 31.463 194.714 31.84 184.983 42.357 194.411 55.064 186.591 54.669 179.28 44.23 178.772 54.273 172.759 53.969 173.931 30.789 179.944 31.092 179.46 40.65 187.276 31.463"></polyline>
            <polyline id="Fill-17" fill="#D8232A" points="205.667 39.297 204.864 43.075 211.499 44.486 210.437 49.489 203.8 48.078 202.968 51.992 209.978 53.482 208.913 58.486 196.015 55.742 200.843 33.042 213.741 35.785 212.679 40.789 205.667 39.297"></polyline>
            <polyline id="Fill-18" fill="#D8232A" points="217.173 36.437 223.913 38.983 225.774 46.459 231.952 42.023 238.79 44.607 226.382 52.828 222.444 63.246 216.812 61.117 220.749 50.699 217.173 36.437"></polyline>
            <polyline id="Fill-19" fill="#D8232A" points="243.417 61.771 241.224 65.846 233.472 61.673 235.665 57.598 243.417 61.771"></polyline>
            <path d="M266.706,72.253 C266.595,70.032 265.737,68.338 264.069,67.08 C261.181,64.9 257.483,65.468 255.241,68.441 C253.983,70.107 253.622,71.798 254.104,73.644 C254.476,75.058 255.321,76.307 256.46,77.166 C258.046,78.36 259.839,78.755 262.097,78.365 L257.8,84.061 C254.983,83.113 254.106,82.714 252.856,81.771 C249.94,79.57 248.007,76.063 247.774,72.443 C247.587,69.686 248.409,67.037 250.233,64.619 C254.319,59.202 261.952,58.158 267.397,62.266 C268.841,63.356 269.819,64.486 271.046,66.502 L266.706,72.253" id="Fill-20" fill="#D8232A"></path>
            <polyline id="Fill-21" fill="#D8232A" points="267.321 87.122 272.435 92.246 268.813 95.86 259.446 86.475 275.878 70.076 280.132 74.338 267.321 87.122"></polyline>
            <path d="M282.208,95.6 C280.069,97.156 279.688,97.52 279.249,98.571 C278.737,99.762 278.94,101.164 279.78,102.317 C280.702,103.584 282.091,104.251 283.39,104.081 C284.429,103.971 285.052,103.646 287.022,102.212 L297.179,94.817 L300.722,99.685 L289.89,107.571 C287.132,109.578 285.292,110.186 282.79,109.942 C279.87,109.656 277.44,108.152 275.372,105.311 C273.345,102.525 272.599,99.193 273.372,96.65 C273.95,94.723 275.231,93.231 277.989,91.223 L288.821,83.337 L292.366,88.205 L282.208,95.6" id="Fill-22" fill="#D8232A"></path>
            <path d="M299.563,117.078 C300.364,118.739 301.507,119.27 302.856,118.621 C304.173,117.986 304.472,116.761 303.671,115.1 L303.187,114.097 L299.081,116.075 L299.563,117.078 Z M291.222,121.328 C291.827,122.582 292.374,123.399 292.913,123.874 C293.528,124.35 294.476,124.473 295.228,124.11 C296.042,123.718 296.552,123.009 296.579,122.185 C296.591,121.407 296.427,120.906 295.565,119.12 L295.038,118.023 L290.647,120.137 L291.222,121.328 Z M304.714,106.68 L308.593,114.736 C310.437,118.561 309.521,121.551 305.978,123.257 C303.878,124.269 302.308,124.215 300.55,123.053 C300.991,124.693 301.026,125.566 300.669,126.588 C300.216,127.81 298.999,129.053 297.493,129.777 C293.731,131.589 290.177,129.981 288.001,125.467 L283.804,116.752 L304.714,106.68 L304.714,106.68 Z" id="Fill-23" fill="#D8232A"></path>
            <path d="M307.618,154.071 C309.075,153.38 309.784,151.991 309.468,150.457 C309.103,148.685 307.991,147.777 306.327,147.8 L307.618,154.071 Z M303.13,148.317 C300.784,148.835 299.884,150.157 300.347,152.406 C300.608,153.668 301.157,154.265 302.354,154.729 L303.435,159.978 C302.062,159.869 301.312,159.669 300.427,159.176 C298.511,158.15 297.052,155.892 296.511,153.268 C295.388,147.815 297.868,143.645 302.843,142.62 C307.956,141.567 311.841,144.213 312.929,149.496 C313.995,154.676 311.425,158.581 306.21,159.655 L305.495,159.802 L303.13,148.317 L303.13,148.317 Z" id="Fill-24" fill="#D8232A"></path>
            <path d="M302.354,170.056 C300.343,170.233 298.608,168.779 298.435,166.803 C298.257,164.793 299.71,163.057 301.72,162.879 C303.696,162.705 305.433,164.158 305.61,166.169 C305.784,168.145 304.331,169.881 302.354,170.056" id="Fill-25" fill="#D8232A"></path>
            <polyline id="Fill-26" fill="#D8232A" points="308.538 180.842 322.413 187.074 322.136 193.609 299.366 182.752 299.565 178.059 323.169 169.309 322.89 175.879 308.538 180.842"></polyline>
            <path d="M301.286,196.465 C299.292,196.149 297.962,194.317 298.272,192.357 C298.591,190.363 300.423,189.032 302.417,189.349 C304.376,189.66 305.706,191.492 305.39,193.486 C305.077,195.445 303.245,196.775 301.286,196.465" id="Fill-27" fill="#D8232A"></path>
            <polyline id="Fill-28" fill="#D8232A" points="52.123 223.621 60.62 220.721 62.565 226.418 40.597 233.917 38.652 228.219 47.676 225.139 44.854 216.872 35.831 219.953 33.885 214.255 55.852 206.756 57.797 212.454 49.301 215.355 52.123 223.621"></polyline>
            <path d="M55.07,237.918 C51.928,239.715 50.841,243.703 52.638,246.846 C54.434,249.987 58.423,251.074 61.565,249.277 C64.677,247.499 65.764,243.51 63.967,240.367 C62.171,237.226 58.182,236.139 55.07,237.918 Z M70.228,248.093 C69.262,250.891 67.32,253.244 64.691,254.746 C58.559,258.253 51.206,256.121 47.562,249.746 C43.883,243.312 45.781,235.973 52.125,232.346 C55.268,230.55 59.26,230.312 62.705,231.709 C65.256,232.736 67.54,234.838 69.043,237.467 C71.047,240.971 71.449,244.549 70.228,248.093 L70.228,248.093 Z" id="Fill-29" fill="#D8232A"></path>
            <path d="M80.128,267.526 C80.533,265.34 80.09,263.494 78.758,261.885 C76.452,259.096 72.723,258.791 69.854,261.164 C68.245,262.495 67.503,264.057 67.545,265.964 C67.58,267.426 68.114,268.836 69.023,269.936 C70.288,271.464 71.942,272.264 74.227,272.406 L68.73,276.953 C66.209,275.379 65.449,274.788 64.451,273.581 C62.122,270.766 61.054,266.906 61.665,263.331 C62.12,260.606 63.533,258.218 65.866,256.288 C71.096,251.963 78.762,252.714 83.108,257.971 C84.262,259.365 84.952,260.691 85.68,262.936 L80.128,267.526" id="Fill-30" fill="#D8232A"></path>
            <polyline id="Fill-31" fill="#D8232A" points="97.111 272.917 102.727 277.808 88.577 280.068 88.141 295.885 82.236 290.742 82.935 278.016 76.331 285.602 71.79 281.648 87.033 264.143 91.573 268.096 85.289 275.313 97.111 272.917"></polyline>
            <polyline id="Fill-32" fill="#D8232A" points="105.958 286.123 103.871 289.373 109.582 293.039 106.818 297.344 101.107 293.678 98.946 297.046 104.979 300.918 102.214 305.223 91.116 298.098 103.655 278.566 114.753 285.691 111.99 289.995 105.958 286.123"></polyline>
            <polyline id="Fill-33" fill="#D8232A" points="115.971 286.381 122.553 289.309 123.985 296.879 130.408 292.804 137.085 295.775 124.227 303.273 119.7 313.448 114.198 311 118.725 300.824 115.971 286.381"></polyline>
            <polyline id="Fill-34" fill="#D8232A" points="237.681 310.342 232.171 312.769 224.878 296.207 220.386 298.186 218.325 293.504 232.911 287.08 234.972 291.762 230.386 293.781 237.681 310.342"></polyline>
            <polyline id="Fill-35" fill="#D8232A" points="243.261 286.791 245.29 290.077 251.065 286.514 253.751 290.867 247.976 294.432 250.077 297.836 256.179 294.072 258.864 298.426 247.64 305.352 235.452 285.598 246.675 278.672 249.362 283.025 243.261 286.791"></polyline>
            <polyline id="Fill-36" fill="#D8232A" points="249.513 277.046 254.001 273.033 271.737 276.219 262.276 265.635 266.763 261.623 282.233 278.925 277.745 282.938 260.007 279.752 269.47 290.336 264.983 294.348 249.513 277.046"></polyline>
            <polyline id="Fill-37" fill="#D8232A" points="269.095 259.037 272.63 254.163 290.644 253.512 279.149 245.176 282.685 240.301 301.476 253.932 297.94 258.805 279.927 259.455 291.423 267.793 287.888 272.667 269.095 259.037"></polyline>
            <polyline id="Fill-38" fill="#D8232A" points="308.007 241.084 305.274 246.448 284.595 235.912 287.327 230.549 308.007 241.084"></polyline>
            <path d="M299.651,215.749 C298.181,216.667 297.315,217.651 296.849,218.963 C296.37,220.307 296.806,221.681 297.854,222.053 C298.542,222.299 299.274,222.005 300.085,221.185 C300.308,220.969 300.376,220.881 300.897,220.144 L301.745,219.005 C304.212,215.598 306.575,214.665 309.722,215.784 C312.739,216.857 314.39,218.552 314.987,221.128 C315.394,222.897 315.229,225.018 314.495,227.084 C313.552,229.738 311.755,232.092 309.331,233.817 L305.604,229.758 C307.729,228.557 309.022,227.206 309.616,225.534 C310.212,223.861 309.743,222.477 308.466,222.022 C307.284,221.603 306.46,222.158 304.728,224.534 C303.12,226.77 302.356,227.568 301.376,228.144 C300.042,228.887 298.433,228.943 296.53,228.268 C292.138,226.706 290.226,222.628 291.8,218.201 C292.616,215.906 294.103,213.702 296.03,211.913 L299.651,215.749" id="Fill-39" fill="#D8232A"></path>
            <polyline id="Fill-40" fill="#D8232A" points="277.372 200.219 278.192 196.303 339.392 209.104 338.571 213.019 277.372 200.219"></polyline>
            <polyline id="Fill-41" fill="#D8232A" points="74.592 198.219 73.771 194.303 12.571 207.104 13.392 211.019 74.592 198.219"></polyline>
            <path d="M130.186,110.85 L137.114,127.621 L106.998,137.688 C106.998,137.688 121.385,182.791 111.448,204.002 L127.118,213.557 C127.118,213.557 117.713,172.809 141.026,161.725 C141.026,161.725 149.093,194.639 131.704,234.576 C131.704,234.576 142.405,231.71 166.482,235.914 C190.56,240.117 210.11,234.675 222.53,213.083 C222.53,213.083 242.628,214.385 254.767,198.27 L248.651,191.39 C248.651,191.39 240.12,202.311 225.136,200.242 C225.136,200.242 224.913,199.443 224.829,199.141 C223.843,195.639 221.042,177.356 205.085,173.619 C205.085,173.619 222.821,161.443 220.495,141.925 C220.495,141.925 231.456,139.627 236.937,146.168 L242.946,145.637 L254.261,131.318 L246.128,128.666 L240.296,133.793 C240.296,133.793 231.103,128.49 218.374,130.435 C218.374,130.435 210.468,111.209 189.823,105.563 C189.823,105.563 184.839,104.412 178.983,104.139 C173.759,103.895 167.842,104.474 164.148,105.357 C146.661,109.534 139.458,112.214 130.186,110.85" id="Fill-42" fill="#D8232A"></path>
            <path d="M151.633,136.791 L152.621,145.809 C152.621,145.809 173.657,150.404 176.485,164.723 L181.081,163.486 C181.081,163.486 184.616,142.097 205.831,132.197 C205.831,132.197 192.042,107.094 150.322,121.413 L150.846,125.779 C150.846,125.779 172.243,129.723 175.247,136.97 L169.944,143.157 C169.944,143.157 161.002,137.145 151.633,136.791" id="Fill-43" fill="#FFFFFE"></path>
            <path d="M137.241,139.798 C137.241,139.798 130.524,141.035 127.519,153.763 C127.519,153.763 135.854,147.964 140.096,148.141 C140.096,148.141 139.009,140.151 137.241,139.798" id="Fill-44" fill="#FFFFFE"></path>
            <path d="M153.329,159.951 C153.329,159.951 152.62,164.041 153.68,165.632 C153.68,165.632 157.394,165.076 160.576,165.43 C160.576,165.43 161.814,160.658 153.329,159.951" id="Fill-45" fill="#FFFFFE"></path>
            <path d="M164.289,177.274 C164.289,177.274 155.987,176.574 153.866,179.402 L153.152,221.115 C153.152,221.115 192.88,239.152 209.319,211.222 C209.319,211.222 186.032,207.681 180.552,177.274 C180.552,177.274 174.719,181.871 173.127,202.199 C173.127,202.199 172.597,208.741 181.083,211.039 C181.083,211.039 170.653,220.232 163.229,212.453 C163.229,212.453 155.803,206.443 161.814,193.715 C161.814,193.715 167.647,180.104 164.289,177.274" id="Fill-46" fill="#FFFFFE"></path>
            <path d="M208.13,146.692 C208.13,146.692 197.522,149.697 195.048,163.133 C195.048,163.133 205.124,161.718 208.13,146.692" id="Fill-47" fill="#FFFFFE"></path>
            <path d="M210.081,198.088 C210.146,196.3 210.392,187.894 196.192,182.323 C196.192,182.323 197.288,193.293 210.081,198.088" id="Fill-48" fill="#FFFFFE"></path>
            <polyline id="Fill-49" fill="#FFFFFE" points="209.759 297.792 209.759 301.984 209.759 258.656 144.928 258.656 144.928 297.792"></polyline>
            <path d="M180.206,317.822 L196.351,317.822 L196.351,301.678 L180.206,301.678 L180.206,317.822 Z M177.005,321.024 L199.552,321.024 L199.552,298.476 L177.005,298.476 L177.005,321.024 Z" id="Fill-50" fill="#D8232A"></path>
            <polyline id="Fill-51" fill="#D8232A" points="177.554 301.283 148.689 276.164 150.791 273.75 179.655 298.87"></polyline>
            <path d="M166.845,287.839 L168.706,285.734 L166.989,284.219 L169.106,281.818 L173.223,285.455 L169.251,289.951 L166.845,287.839 Z M155.083,277.621 L159.116,273.053 L163.32,276.765 L161.202,279.164 L159.396,277.568 L157.564,279.645 L155.083,277.621 Z" id="Fill-52" fill="#D8232A"></path>
            <polyline id="Fill-53" fill="#D8232A" points="170.653 279.828 172.771 277.43 174.575 279.022 176.405 276.947 167.125 268.75 165.264 270.856 166.985 272.375 166.986 272.377 164.867 274.774 160.75 271.136 166.844 264.234 180.925 276.666 174.854 283.539 170.653 279.828"></polyline>
            <polyline id="Fill-54" fill="#D8232A" points="160.969 282.687 170.435 271.686 172.919 273.774 163.394 284.777 160.969 282.687"></polyline>
        </g>
    </g>
</svg>