<svg id="Gruppe_4" data-name="Gruppe 4" xmlns="http://www.w3.org/2000/svg" xmlns:xlink="http://www.w3.org/1999/xlink" width="175.018" height="175" viewBox="0 0 175.018 175">
  <defs>
    <clipPath id="clip-path">
      <rect id="Rechteck_32" data-name="Rechteck 32" width="175.018" height="175" fill="none"/>
    </clipPath>
  </defs>
  <g id="Gruppe_3" data-name="Gruppe 3" clip-path="url(#clip-path)">
    <path id="Pfad_56" data-name="Pfad 56" d="M87.585,12.184a82.969,82.969,0,0,1,60.766,18.806,83.182,83.182,0,0,1,25.089,92.877,82.983,82.983,0,0,1-29.59,38.921,98.073,98.073,0,0,1-13.968,8.151,82.537,82.537,0,0,1-23.59,6.831c-3.247.495-6.537.509-9.8.734a82.917,82.917,0,0,1-42.119-10.679A84.129,84.129,0,0,1,27.3,143.557a79.413,79.413,0,0,1-9.471-17.243c-6.01-14.319-7.344-30.352-4.862-45.612a82.756,82.756,0,0,1,15.5-35.375,90.138,90.138,0,0,1,9.893-11.181A83.879,83.879,0,0,1,72.641,14.869a89.646,89.646,0,0,1,14.944-2.686" transform="translate(-7.649 -7.648)" fill="#fff"/>
    <path id="Pfad_57" data-name="Pfad 57" d="M79.56.417a87.087,87.087,0,0,1,63.783,19.739,88.592,88.592,0,0,1,13.3,13.921A87.224,87.224,0,0,1,138.618,158.5a102.92,102.92,0,0,1-14.661,8.556,86.643,86.643,0,0,1-24.762,7.17c-3.408.52-6.861.534-10.291.77a87.03,87.03,0,0,1-44.209-11.209A88.3,88.3,0,0,1,16.286,138.31a83.364,83.364,0,0,1-9.941-18.1c-6.308-15.03-7.708-31.858-5.1-47.876A86.862,86.862,0,0,1,17.513,35.2,94.632,94.632,0,0,1,27.9,23.469,88.042,88.042,0,0,1,63.874,3.236,94.087,94.087,0,0,1,79.56.417M82.565,15.33A71.549,71.549,0,0,0,44.852,29.175c2.37,4.293,5.75,7.906,8.246,12.118-3.289.011-6.579.14-9.857.355-.495.067-.734.551-1.008.906a65.949,65.949,0,0,0-4.041,6.515c6.3.063,12.6-.084,18.9-.063-.067,1.38.372,3.079-.734,4.163-2.464,2.25-5.273,4.072-7.856,6.175-2.447,2.022-4.974,3.946-7.481,5.887-.344.312-.92.572-.779,1.148-.169,7.607-.067,15.221-.06,22.832.088.818-.119,1.875.576,2.468a36.831,36.831,0,0,0,5.262,1.671c5.919,1.924,11.848,3.819,17.742,5.82.765.348,1.5-.2,2.127-.593,1.808-1.267,3.711-2.4,5.434-3.795l-.183-.9a13.43,13.43,0,0,0-4.4-.3,17.22,17.22,0,0,1-6.586-1.26c-4.23-1.436-8.583-2.489-12.775-4.034-.748-.126-.821-.937-.814-1.548-.046-7.253.074-14.505.084-21.758,3.426-2.78,6.944-5.448,10.44-8.134.109,10.219-.077,20.442.123,30.661,1.7-.453,3.233-1.348,4.894-1.917A11.736,11.736,0,0,0,64.5,84.518c.19-5.459.018-10.925.2-16.383.1-3.619-.084-7.246.126-10.861C68.814,62.244,72.29,67.6,76.236,72.607c.14-3.342.158-6.687.133-10.029A75.715,75.715,0,0,1,84,62.472c.007,6.652.14,13.3-.074,19.957a7.476,7.476,0,0,1-1.19-1.141c-2.138-2.756-3.935-5.782-6.315-8.351-.13,3.437-.035,6.874-.007,10.31.074,3.43,1.829,7.035,5.066,8.492C84.4,93.3,87.806,92.9,90.99,92.869c-1.5-2.626-3.475-4.925-5.2-7.393,2.127-.018,4.321.253,6.393-.376,1.057-.541,1.109-1.885,1.106-2.924.091-6.565.084-13.133.137-19.7,2.563-.056,5.129-.063,7.691.007.246,5.153.046,10.317.123,15.478.081,2.542-.274,5.09-.084,7.628,5.522,1.59,11.047,3.184,16.534,4.887,1.232.326,2.78.807,3.851-.154,1.257-1.1,2.563-2.141,3.833-3.226.955-.751.751-2.1.821-3.17.014-4.522.193-9.047-.077-13.561-6.7-.063-13.407.088-20.108-.074-.7.137-.407-.709-.477-1.071,0-7.979-.091-15.962.042-23.938a20.663,20.663,0,0,1,2.875-2.131c1.246-.814,2.275-1.945,3.595-2.647a23.067,23.067,0,0,1,4.943.688c3.381.786,6.744,1.657,10.138,2.377,3.865.825,7.751,1.58,11.556,2.657-1.524,2.2-3.054,4.392-4.5,6.642-7.01-1.6-13.989-3.36-21.056-4.708-.263,2.791-.081,5.592-.123,8.39.035,2.285-.1,4.578.119,6.856,6.919-.014,13.842-.028,20.761.095.165,7.158.091,14.319.042,21.477-.046.786.07,1.752-.614,2.317-1.745,1.674-3.753,3.047-5.575,4.634-2.787,2.3-5.529,4.651-8.313,6.954-7.621-2.2-15.176-4.644-22.839-6.694-1.794-.527-3.577.267-5.29.723a18.272,18.272,0,0,0,3.317,4.9c1.169,1.264,2.331,2.707,4.027,3.275,4.4,1.464,8.78,3,13.091,4.718a31.148,31.148,0,0,1-6.266,6.224q-.8-.906-1.576-1.825c-1.608.762-2.721,2.184-3.988,3.37-2.584,2.45-5.3,4.753-7.888,7.2-3.942,3.725-7.755,7.6-11.922,11.076-.274-8.215-.179-16.44-.133-24.658a72.319,72.319,0,0,1,5.785-4.4c2.587.663,5.066,1.674,7.649,2.356,3.008.8,5.817,2.2,8.843,2.949a60.891,60.891,0,0,0-4.163-6c-.846-1.2-2.257-1.738-3.486-2.433a56.661,56.661,0,0,0-6.038-2.345c-.667-.249-1.52-.586-2.124-.025q-5.729,4.45-11.486,8.86a9.95,9.95,0,0,0-1.692,1.5,13,13,0,0,0-.095,2.615q-.021,15.908-.081,31.815c-2.015-1.362-3.851-2.966-5.908-4.262-1.173.814-2.331,1.65-3.43,2.563,3.082,3.272,6.463,6.245,9.756,9.3,1.987-1.274,3.791-2.812,5.719-4.174.39-.337.965-.632,1.015-1.2.263-3.328-.1-6.68.348-10,7.769,0,15.541.018,23.313-.007.379,3.886-.116,7.786.123,11.676,2.187.105,4.378.07,6.565,0,.088-6.063.081-12.129.042-18.188l-.084-.077c-6.758-.211-13.519-.383-20.28-.372,3.216-3.654,6.94-6.807,10.4-10.215,1.566-1.488,3-3.121,4.69-4.479a11.35,11.35,0,0,1,.864.965q4.671,6.429,9.261,12.929c4.048,5.459,8.06,10.946,11.929,16.534a39.856,39.856,0,0,1,2.9,4.374c-2.661,1.825-5.3,3.689-8.134,5.252a76.047,76.047,0,0,1-32.244,8.745,74.1,74.1,0,0,1-53.588-19.694A73.795,73.795,0,0,1,13.363,79.034,72.267,72.267,0,0,1,27.682,43.445a87.972,87.972,0,0,1,7.99-9.145c2.542-2.078,4.669-4.669,7.569-6.294-1.643-1.811-2.956-3.883-4.529-5.75a122.136,122.136,0,0,0-9.706,8.509A95.723,95.723,0,0,0,15.683,48.683a90.39,90.39,0,0,0-7.137,17.1A90.255,90.255,0,0,0,6.426,75.9,65.968,65.968,0,0,0,5.7,88.523a75.722,75.722,0,0,0,4.866,27,79.1,79.1,0,0,0,16.376,26.848,78.659,78.659,0,0,0,12.6,11.262A81.808,81.808,0,0,0,79.016,168.45a103.229,103.229,0,0,0,17.243-.151,79.812,79.812,0,0,0,10.545-2.015,79.5,79.5,0,0,0,26.81-12.367,11.631,11.631,0,0,0,1.19-1.088c-1.439-2.349-3.184-4.483-4.76-6.733a73.071,73.071,0,0,0,17.05-17.566,79.157,79.157,0,0,0,7.358-13.378,73.79,73.79,0,0,0,4.29-40.346c-4.307-24.889-22.762-46.71-46.493-55.287a72.715,72.715,0,0,0-13.157-3.5,79.317,79.317,0,0,0-16.527-.688M54.723,104.58c-2.622,2.7-2.061,7.818,1.366,9.6a6.982,6.982,0,0,0-2.784,3,10.255,10.255,0,0,0-.348,6.266,6.409,6.409,0,0,0,4.121,4.518c2.166.214,4.767.421,6.431-1.278,2.184-2.145,2.422-5.511,1.85-8.362a6.586,6.586,0,0,0-3.145-4.156,5.858,5.858,0,0,0,2.731-3.184c.979-2.914-.316-6.828-3.461-7.744-2.264-.474-5.1-.583-6.761,1.337m-14.565-1.067c-.007,1.25-.007,2.5,0,3.749.744.032,1.488.077,2.236.119.119,1.194.214,2.394.218,3.595.018,5.7-.018,11.406.018,17.11,1.573,0,3.145,0,4.722.007-.011-8.222.074-16.443-.032-24.661-2.391.039-4.778.1-7.165.081" transform="translate(0 0.001)" fill="#034183"/>
    <path id="Pfad_58" data-name="Pfad 58" d="M153.776,117.908a28.429,28.429,0,0,1,3.977-.232c8.745.035,17.489-.19,26.234.014a36.658,36.658,0,0,1-3.9,7.312c-5.238.133-10.479.011-15.716.249-.035,2.32-.007,4.644-.116,6.965-3.3-3.956-6.094-8.3-9.24-12.374a16,16,0,0,1-1.239-1.934" transform="translate(-99.793 -76.319)" fill="#034183"/>
    <path id="Pfad_59" data-name="Pfad 59" d="M337.39,294.8c1.4-.081,2.812-.116,4.223-.07-.779,3.384-2.808,6.259-4.385,9.3,1.6-.453,3.486-1.05,4.992,0,2.068,1.169,2.682,3.714,2.7,5.922.1,2.917-.411,6.242-2.808,8.2-1.453,1.345-3.584,1.243-5.417,1.085-2.391-.288-4.125-2.429-4.683-4.655-1.116-3.816-.046-7.825,1.4-11.4,1.225-2.84,2.517-5.655,3.984-8.376m-.772,14.045a8.681,8.681,0,0,0,.653,6.287c.772-.169,1.878.01,2.257-.878,1.113-1.948.685-4.279.214-6.35-1.071-.249-2.721-.369-3.124.941" transform="translate(-215.157 -191.254)" fill="#034183"/>
    <path id="Pfad_60" data-name="Pfad 60" d="M381.833,294.7c2.419-.007,4.844-.088,7.26.084.06,8.229.147,16.457-.039,24.686-1.517.011-3.026.007-4.539.025-.414-6.961-.077-13.944-.355-20.9-.751-.007-1.5-.011-2.247,0a36.886,36.886,0,0,1-.081-3.89" transform="translate(-247.783 -191.232)" fill="#034183"/>
    <path id="Pfad_61" data-name="Pfad 61" d="M164.618,303.81a20.558,20.558,0,0,1,2.271.59,21.689,21.689,0,0,1,0,4.6q-1.4.037-2.784.014a6.627,6.627,0,0,1,.509-5.206" transform="translate(-106.304 -197.158)" fill="#004e98"/>
    <path id="Pfad_62" data-name="Pfad 62" d="M163.9,333.053c.316-.786,1.337-1.773,2.176-1.064a7.093,7.093,0,0,1,.449,6.175c-.26.927-1.4.783-2.138.92a8.32,8.32,0,0,1-.488-6.031" transform="translate(-106.122 -215.287)" fill="#004e98"/>
  </g>
</svg>
