<?xml version="1.0" encoding="UTF-8" standalone="no"?>
<!-- Created with Inkscape (http://www.inkscape.org/) -->
<svg
   xmlns:svg="http://www.w3.org/2000/svg"
   xmlns="http://www.w3.org/2000/svg"
   xmlns:inkscape="http://www.inkscape.org/namespaces/inkscape"
   version="1.0"
   width="139.23126"
   height="154.72501"
   id="svg2"
   xml:space="preserve"><defs
     id="defs5"><inkscape:perspective
       id="perspective9" /><clipPath
       id="clipPath17"><path
         d="M 0,0 L 595.276,0 L 595.276,841.89 L 0,841.89 L 0,0 z"
         id="path19" /></clipPath><clipPath
       id="clipPath25"><path
         d="M 0,913.89 L 1190.551,913.89 L 1190.551,-72 L 0,-72 L 0,913.89 z"
         id="path27" /></clipPath><clipPath
       id="clipPath45"><path
         d="M 215.323,455.378 L 377.843,455.378 L 377.843,579.158 L 215.323,579.158 L 215.323,455.378 z"
         id="path47" /></clipPath><clipPath
       id="clipPath69"><path
         d="M 0,913.89 L 1190.551,913.89 L 1190.551,-72 L 0,-72 L 0,913.89 z"
         id="path71" /></clipPath><clipPath
       id="clipPath117"><path
         d="M 215.323,604.811 L 377.843,604.811 L 377.843,728.591 L 215.323,728.591 L 215.323,604.811 z"
         id="path119" /></clipPath><clipPath
       id="clipPath155"><path
         d="M 215.323,455.378 L 377.843,455.378 L 377.843,579.158 L 215.323,579.158 L 215.323,455.378 z"
         id="path157" /></clipPath></defs><g
     transform="matrix(1.25,0,0,-1.25,47.599034,889.79995)"
     id="g11"><path
       d="M 56.860778,649.36196 L 57.292778,651.42296 L 56.660778,651.58696 L 56.749778,651.94096 L 58.380778,651.51496 L 58.295778,651.16596 L 57.659778,651.32996 L 57.225778,649.25996 L 56.860778,649.36196 z"
       id="path121"
       style="fill:#231f20;fill-opacity:1;fill-rule:nonzero;stroke:none" /><path
       d="M 60.271778,649.36196 L 60.632778,651.10596 L 59.795778,649.82496 L 59.398778,649.93496 L 59.095778,651.08096 L 58.711778,649.25996 L 58.346778,649.36196 L 58.888778,651.93996 L 59.255778,651.83896 L 59.667778,650.32596 L 60.814778,651.97796 L 61.180778,651.87696 L 60.638778,649.25996 L 60.271778,649.36196 z"
       id="path123"
       style="fill:#231f20;fill-opacity:1;fill-rule:nonzero;stroke:none" /><path
       d="M 48.398778,655.04196 L 50.193778,653.01896 L 37.666778,645.57596 L 48.398778,655.04196 z M 29.675778,626.35896 L 32.174778,636.39596 L 35.916778,629.45496 L 29.675778,626.35896 z M 11.032773,627.00196 L 26.437773,624.75396 L 8.163773,615.69896 L 11.032773,627.00196 z M -1.519227,640.97796 L 12.978773,641.99796 L 9.053773,629.30496 L -1.519227,640.97796 z M -0.66522695,671.11296 L 4.051773,666.59396 L -2.295227,666.61896 L -0.66522695,671.11296 z M 28.016778,642.66096 L 16.971773,644.48796 L 10.139773,660.76196 L 28.016778,642.66096 z M 73.305778,594.47996 L 48.748778,611.02996 L 67.283778,621.14496 L 66.528778,622.57796 L 68.839778,623.99996 L 53.735778,649.17096 L 70.943778,675.43396 L 69.043778,677.75196 L 69.978778,679.38996 L 58.888778,690.14396 L 41.198778,711.72496 L 38.809778,709.61796 L 36.526778,711.83996 L 21.082773,696.58596 L 16.904773,700.92196 L 15.762773,699.17496 L 14.014773,700.79996 L 5.261773,685.59896 L -25.989227,704.81696 L -27.514227,701.43596 L -29.028227,702.25696 L -38.079227,678.77896 L -25.408227,672.39196 L -27.439227,666.23696 L -37.147227,641.60396 L -35.561227,641.62596 L -36.585227,638.51896 L -18.918227,639.76596 L -32.346227,636.35896 L -30.343227,633.91696 L -31.497227,633.55296 L -19.910227,620.91796 L -30.314227,590.67796 L -25.906227,591.51596 L -26.877227,588.05996 L 3.038773,595.50196 L 7.147773,611.70096 L 34.252778,588.12196 L 70.066778,591.39996 L 67.218778,593.56996 L 73.305778,594.47996 z"
       id="path125"
       style="fill:#fff200;fill-opacity:1;fill-rule:nonzero;stroke:none" /><path
       d="M 9.771773,626.83696 L -3.682227,641.04796 L -29.377227,632.98196 L -16.845227,619.32496 L -25.194227,589.70196 L 2.073773,596.47996 L 9.771773,626.83696 z"
       id="path127"
       style="fill:#ec008c;fill-opacity:1;fill-rule:nonzero;stroke:none" /><path
       d="M 28.552778,626.69896 L 11.276773,628.15196 L 14.792773,642.32996 L 32.067778,640.87396 L 28.552778,626.69896 z"
       id="path129"
       style="fill:#ec008c;fill-opacity:1;fill-rule:nonzero;stroke:none" /><path
       d="M 38.898778,629.76096 L 8.751773,613.12096 L 38.053778,590.40596 L 70.126778,595.18296 L 46.202778,611.30896 L 67.230778,624.38996 L 50.696778,651.94196 L 32.067778,640.87396 L 38.898778,629.76096 z"
       id="path131"
       style="fill:#ec008c;fill-opacity:1;fill-rule:nonzero;stroke:none" /><path
       d="M 68.502778,679.18196 L 36.532778,710.19096 L 19.904773,693.74996 L 14.299773,698.93096 L -0.74122695,672.81596 L 31.436778,641.99396 L 48.062778,658.43796 L 53.432778,653.06896 L 68.502778,679.18196 z"
       id="path133"
       style="fill:#ec008c;fill-opacity:1;fill-rule:nonzero;stroke:none" /><path
       d="M -23.970227,672.98996 L -34.916227,639.82096 L 16.177773,643.40896 L 6.146773,664.77996 L -4.820227,664.19496 L 1.295773,684.56596 L -28.406227,700.58796 L -36.590227,679.35396 L -23.970227,672.98996 z"
       id="path135"
       style="fill:#ec008c;fill-opacity:1;fill-rule:nonzero;stroke:none" /><path
       d="M -25.115227,649.98296 L -26.127227,650.25096 L -24.626227,657.38396 L -23.614227,657.11596 L -25.115227,649.98296 z"
       id="path137"
       style="fill:#ffffff;fill-opacity:1;fill-rule:nonzero;stroke:none" /><path
       d="M -20.681227,654.29996 C -21.589227,654.29996 -22.287227,653.53196 -22.287227,652.62496 C -22.287227,651.71696 -21.578227,650.94896 -20.681227,650.94896 C -19.785227,650.94896 -19.087227,651.72896 -19.087227,652.62496 C -19.087227,653.53196 -19.785227,654.29996 -20.681227,654.29996 M -20.681227,649.97196 C -22.136227,649.97196 -23.334227,651.17096 -23.334227,652.62496 C -23.334227,654.07996 -22.136227,655.27796 -20.681227,655.27796 C -19.227227,655.27796 -18.040227,654.07996 -18.040227,652.62496 C -18.040227,651.17096 -19.227227,649.97196 -20.681227,649.97196"
       id="path139"
       style="fill:#ffffff;fill-opacity:1;fill-rule:nonzero;stroke:none" /><path
       d="M -13.037227,649.98296 L -14.060227,650.25096 L -13.257227,654.00996 L -15.853227,652.61396 L -16.399227,649.98296 L -17.423227,650.25096 L -16.353227,655.26596 L -15.340227,654.99896 L -15.585227,653.86996 L -13.083227,655.26596 L -12.082227,654.42896 L -13.037227,649.98296 z"
       id="path141"
       style="fill:#ffffff;fill-opacity:1;fill-rule:nonzero;stroke:none" /><path
       d="M -9.720227,654.02096 L -10.314227,651.22896 L -7.730227,652.62496 L -7.556227,653.45096 L -9.720227,654.02096 z M -7.219227,649.98296 L -8.231227,650.25096 L -7.998227,651.33296 L -10.465227,649.98296 L -11.466227,650.82096 L -10.523227,655.26596 L -7.346227,654.43996 L -6.730227,657.38396 L -5.717227,657.11596 L -7.219227,649.98296 z"
       id="path143"
       style="fill:#ffffff;fill-opacity:1;fill-rule:nonzero;stroke:none" /><path
       d="M -2.846227,654.29996 C -3.753227,654.29996 -4.452227,653.53196 -4.452227,652.62496 C -4.452227,651.71696 -3.742227,650.94896 -2.846227,650.94896 C -1.950227,650.94896 -1.252227,651.72896 -1.252227,652.62496 C -1.252227,653.53196 -1.950227,654.29996 -2.846227,654.29996 M -2.846227,649.97196 C -4.300227,649.97196 -5.499227,651.17096 -5.499227,652.62496 C -5.499227,654.07996 -4.300227,655.27796 -2.846227,655.27796 C -1.391227,655.27796 -0.20422695,654.07996 -0.20422695,652.62496 C -0.20422695,651.17096 -1.391227,649.97196 -2.846227,649.97196"
       id="path145"
       style="fill:#ffffff;fill-opacity:1;fill-rule:nonzero;stroke:none" /><path
       d="M 4.798773,649.98296 L 3.774773,650.25096 L 4.577773,654.00996 L 1.982773,652.61396 L 1.435773,649.98296 L 0.41277305,650.25096 L 1.482773,655.26596 L 2.494773,654.99896 L 2.250773,653.86996 L 4.752773,655.26596 L 5.752773,654.42896 L 4.798773,649.98296 z"
       id="path147"
       style="fill:#ffffff;fill-opacity:1;fill-rule:nonzero;stroke:none" /><path
       d="M 42.265778,676.76896 C 42.063778,676.79096 41.857778,676.80296 41.646778,676.80296 C 41.432778,676.80296 41.221778,676.78896 41.014778,676.76796 C 40.758778,673.78196 38.624778,671.33896 35.788778,670.60196 C 35.964778,667.53296 38.518778,665.08396 41.646778,665.08396 C 44.784778,665.08396 47.326778,667.53096 47.504778,670.59896 C 44.665778,671.33196 42.521778,673.77996 42.265778,676.76896 M 49.271778,683.23496 C 46.144778,683.23496 43.595778,680.79396 43.411778,677.72296 C 46.247778,676.99196 48.399778,674.54996 48.659778,671.55296 C 48.862778,671.53196 49.065778,671.51996 49.271778,671.51996 C 52.524778,671.51996 55.163778,674.14396 55.163778,677.37196 C 55.163778,680.60696 52.524778,683.23496 49.271778,683.23496 M 39.818778,676.50896 C 37.739778,675.82996 36.179778,674.02296 35.843778,671.81696 C 37.924778,672.49696 39.488778,674.30396 39.818778,676.50896 M 49.271778,670.36696 C 49.067778,670.36696 48.865778,670.37996 48.665778,670.39896 C 48.386778,666.77896 45.350778,663.92996 41.646778,663.92996 C 37.939778,663.92996 34.913778,666.77996 34.638778,670.39996 C 34.430778,670.37996 34.221778,670.36696 34.007778,670.36696 C 33.801778,670.36696 33.597778,670.37996 33.392778,670.39896 C 33.115778,666.77896 30.087778,663.92996 26.379773,663.92996 C 22.663773,663.92996 19.636773,666.77896 19.361773,670.39896 C 19.155773,670.37996 18.946773,670.36696 18.733773,670.36696 C 14.846773,670.36696 11.696773,673.50296 11.696773,677.37196 C 11.696773,681.24796 14.846773,684.38596 18.733773,684.38596 C 22.434773,684.38596 25.468773,681.53896 25.750773,677.92196 C 25.957773,677.93996 26.166773,677.95296 26.379773,677.95296 C 26.583773,677.95296 26.784773,677.93996 26.985773,677.92296 C 27.269773,681.53996 30.306778,684.38596 34.007778,684.38596 C 37.711778,684.38596 40.736778,681.53896 41.017778,677.92196 C 41.224778,677.93996 41.435778,677.95296 41.646778,677.95296 C 41.855778,677.95296 42.060778,677.93996 42.264778,677.92296 C 42.544778,681.53896 45.565778,684.38596 49.271778,684.38596 C 53.170778,684.38596 56.316778,681.24796 56.316778,677.37196 C 56.316778,673.50296 53.170778,670.36696 49.271778,670.36696 M 47.449778,671.81196 C 47.116778,674.02596 45.548778,675.83996 43.464778,676.51496 C 43.793778,674.30196 45.362778,672.49096 47.449778,671.81196 M 24.539773,676.50496 C 22.460773,675.82296 20.898773,674.01996 20.564773,671.81396 C 22.648773,672.49396 24.211773,674.29896 24.539773,676.50496 M 24.592773,677.71696 C 24.413773,680.79296 21.868773,683.23496 18.733773,683.23496 C 15.493773,683.23496 12.858773,680.60696 12.858773,677.37196 C 12.858773,674.14396 15.493773,671.51996 18.733773,671.51996 C 18.947773,671.51996 19.158773,671.53296 19.366773,671.55496 C 19.626773,674.54296 21.757773,676.98096 24.592773,677.71696 M 32.189778,671.80996 C 31.855778,674.02296 30.286778,675.83496 28.200778,676.51196 C 28.528778,674.29896 30.095778,672.48596 32.189778,671.80996 M 39.871778,677.71896 C 39.689778,680.79296 37.133778,683.23496 34.007778,683.23496 C 30.874778,683.23496 28.330778,680.79396 28.149778,677.72296 C 30.987778,676.98996 33.128778,674.54796 33.389778,671.55296 C 33.592778,671.53196 33.799778,671.51996 34.007778,671.51996 C 34.221778,671.51996 34.433778,671.53296 34.641778,671.55596 C 34.903778,674.54596 37.037778,676.98596 39.871778,677.71896 M 26.987773,676.77096 C 26.787773,676.79096 26.585773,676.80296 26.379773,676.80296 C 26.165773,676.80296 25.954773,676.79096 25.746773,676.76796 C 25.489773,673.78196 23.349773,671.33696 20.508773,670.60096 C 20.686773,667.53096 23.246773,665.08396 26.379773,665.08396 C 29.507778,665.08396 32.066778,667.53096 32.244778,670.59896 C 29.394778,671.33096 27.244773,673.77896 26.987773,676.77096"
       id="path149"
       style="fill:#ffffff;fill-opacity:1;fill-rule:nonzero;stroke:none" /></g></svg>