<?xml version="1.0" encoding="UTF-8" standalone="no"?>
<!DOCTYPE svg PUBLIC "-//W3C//DTD SVG 1.0//EN" "http://www.w3.org/TR/2001/REC-SVG-20010904/DTD/svg10.dtd">
<svg width="328px" height="179px" viewBox="0 0 328 179" version="1.1" xmlns="http://www.w3.org/2000/svg" xmlns:xlink="http://www.w3.org/1999/xlink">
    <g id="Events" stroke="none" stroke-width="1" fill="none" fill-rule="evenodd">
        <g id="events/leagues/euro_hockey_league_mono" fill-rule="nonzero">
            <rect id="background" x="0" y="0" width="327.354091" height="179"></rect>
            <path d="M21.5682106,160.417607 L21.5682106,143.721599 L34.1676641,143.721599 L34.1676641,146.546027 L24.999163,146.546027 L24.999163,150.247399 L33.5301541,150.247399 L33.5301541,153.060424 L24.999163,153.060424 L24.999163,157.604561 L34.4922003,157.604561 L34.4922003,160.417607 L21.5682106,160.417607 Z M37.4015615,143.721599 L40.8324925,143.721599 L40.8324925,152.764331 C40.8324925,154.199328 40.8749998,155.129415 40.9599934,155.55458 C41.106823,156.237906 41.4564828,156.786483 42.0089979,157.20027 C42.5614921,157.614058 43.3168415,157.82096 44.2750295,157.82096 C45.2486755,157.82096 45.9827608,157.625456 46.4773275,157.234429 C46.9718731,156.843422 47.2693613,156.363186 47.3698422,155.793755 C47.470277,155.224308 47.5205049,154.279043 47.5205258,152.957928 L47.5205258,143.721599 L50.9514589,143.721599 L50.9514589,152.490998 C50.9514589,154.495421 50.8587238,155.911429 50.6732702,156.73902 C50.4877999,157.566611 50.1458774,158.265131 49.6474735,158.834562 C49.1490445,159.404009 48.4825511,159.857652 47.6480309,160.195532 C46.8134647,160.533395 45.7238966,160.702327 44.3793435,160.702327 C42.7566059,160.702327 41.5260101,160.518201 40.6876066,160.149975 C39.8491822,159.781728 39.1865679,159.303394 38.699747,158.714982 C38.2129219,158.126566 37.8922456,157.509672 37.7377,156.864296 C37.5136015,155.907633 37.4015615,154.495421 37.4015615,152.627652 L37.4015615,143.721599 Z M54.5910451,160.417607 L54.5910451,143.721599 L61.8122523,143.721599 C63.6281641,143.721599 64.9476117,143.871566 65.7705949,144.171471 C66.5935363,144.471381 67.2522882,145.00476 67.7468548,145.771583 C68.2414004,146.538461 68.4886607,147.415384 68.4886817,148.402414 C68.4886607,149.655192 68.1138995,150.689664 67.3643479,151.505857 C66.6147794,152.322066 65.4943248,152.836464 64.0029504,153.049047 C64.7447773,153.474233 65.3571637,153.941184 65.8401264,154.44986 C66.3230891,154.958578 66.9740994,155.862093 67.7932203,157.16041 L69.8680215,160.417607 L65.7647929,160.417607 L63.2843063,156.784577 C62.4033913,155.486264 61.8006483,154.668161 61.4761108,154.330281 C61.1515566,153.992422 60.8076988,153.760854 60.4445164,153.635578 C60.0813131,153.510297 59.505632,153.447661 58.7174564,153.447661 L58.0219992,153.447661 L58.0219992,160.417607 L54.5910451,160.417607 Z M58.0219992,150.782667 L60.5604134,150.782667 C62.206338,150.782667 63.2340742,150.714351 63.6436263,150.577671 C64.0531783,150.441017 64.3738534,150.205654 64.6056934,149.871565 C64.8374915,149.537498 64.9534136,149.119919 64.9534136,148.618788 C64.9534136,148.056969 64.8007862,147.603301 64.4955733,147.257834 C64.1903394,146.912385 63.7595274,146.694105 63.2031709,146.602966 C62.9249821,146.565033 62.0904159,146.546027 60.6995182,146.546027 L58.0219992,146.546027 L58.0219992,150.782667 Z M71.038704,152.172103 C71.038704,150.47138 71.2975682,149.043995 71.8153176,147.889902 C72.2016617,147.039551 72.7290545,146.276506 73.3974875,145.600767 C74.0658828,144.925045 74.7980495,144.423935 75.5939876,144.097432 C76.6526314,143.657073 77.8735418,143.436883 79.2567398,143.436883 C81.7603925,143.436883 83.7637142,144.199949 85.2666967,145.726043 C86.7696541,147.252154 87.5211453,149.374267 87.5211453,152.092384 C87.5211453,154.78774 86.7754351,156.89657 85.2840817,158.418868 C83.7926822,159.941163 81.7990374,160.702327 79.3031053,160.702327 C76.7762532,160.702327 74.7671462,159.944979 73.2757676,158.430267 C71.7843891,156.915555 71.038704,154.829506 71.038704,152.172103 L71.038704,152.172103 Z M74.573972,152.058225 C74.573972,153.948771 75.0182898,155.381857 75.9069421,156.357485 C76.7955735,157.333133 77.9237697,157.82096 79.2915265,157.82096 C80.6592414,157.82096 81.7816566,157.336929 82.658705,156.368884 C83.5357576,155.400843 83.9742943,153.948771 83.9742943,152.012664 C83.9742943,150.099342 83.5473405,148.671957 82.6934917,147.730467 C81.8396051,146.788998 80.7056111,146.31825 79.2915265,146.31825 C77.8774,146.31825 76.737625,146.794695 75.8721764,147.747546 C75.0067068,148.700435 74.573972,150.137312 74.573972,152.058225 L74.573972,152.058225 Z M96.7823795,160.417607 L96.7823795,143.721599 L100.213313,143.721599 L100.213313,150.292956 L106.936112,150.292956 L106.936112,143.721599 L110.367066,143.721599 L110.367066,160.417607 L106.936112,160.417607 L106.936112,153.117384 L100.213313,153.117384 L100.213313,160.417607 L96.7823795,160.417607 Z M113.230038,152.172103 C113.230038,150.47138 113.488903,149.043995 114.006652,147.889902 C114.393,147.039551 114.920389,146.276506 115.588826,145.600767 C116.257221,144.925045 116.989388,144.423935 117.785326,144.097432 C118.843966,143.657073 120.064876,143.436883 121.448078,143.436883 C123.951727,143.436883 125.955053,144.199949 127.458031,145.726043 C128.960968,147.252154 129.71248,149.374267 129.71248,152.092384 C129.71248,154.78774 128.966774,156.89657 127.475416,158.418868 C125.984017,159.941163 123.990372,160.702327 121.494444,160.702327 C118.967588,160.702327 116.958481,159.944979 115.467102,158.430267 C113.975728,156.915555 113.230038,154.829506 113.230038,152.172103 L113.230038,152.172103 Z M116.765311,152.058225 C116.765311,153.948771 117.209624,155.381857 118.098281,156.357485 C118.986912,157.333133 120.115104,157.82096 121.482861,157.82096 C122.850576,157.82096 123.97297,157.336929 124.850039,156.368884 C125.727092,155.400843 126.165629,153.948771 126.165629,152.012664 C126.165629,150.099342 125.738675,148.671957 124.88483,147.730467 C124.030939,146.788998 122.896946,146.31825 121.482861,146.31825 C120.068734,146.31825 118.928959,146.794695 118.06349,147.747546 C117.198045,148.700435 116.765311,150.137312 116.765311,152.058225 L116.765311,152.058225 Z M143.250796,154.279043 L146.577407,155.315426 C146.067399,157.13763 145.219315,158.491001 144.033191,159.375527 C142.847025,160.260062 141.342124,160.702327 139.518471,160.702327 C137.262083,160.702327 135.407522,159.944979 133.954792,158.430267 C132.502042,156.915555 131.775677,154.844679 131.775677,152.21766 C131.775677,149.438793 132.505904,147.280615 133.966375,145.743122 C135.426846,144.205651 137.347097,143.436883 139.727128,143.436883 C141.805766,143.436883 143.494194,144.040514 144.792403,145.24771 C145.565112,145.961427 146.144672,146.986407 146.531063,148.322695 L143.134874,149.119898 C142.933963,148.254353 142.514746,147.571028 141.877258,147.069918 C141.239729,146.568829 140.465076,146.318271 139.553257,146.31825 C138.293681,146.318271 137.271743,146.762422 136.48743,147.650747 C135.703091,148.53909 135.310924,149.977878 135.310945,151.967107 C135.310924,154.077843 135.697293,155.581152 136.470045,156.477085 C137.242779,157.372993 138.247332,157.82096 139.483705,157.82096 C140.395523,157.82096 141.179858,157.536244 141.836691,156.966796 C142.493503,156.397366 142.964866,155.501433 143.250796,154.279043 L143.250796,154.279043 Z M149.579489,160.417607 L149.579489,143.721599 L153.010439,143.721599 L153.010439,151.13572 L159.941874,143.721599 L164.555089,143.721599 L158.156845,150.224618 L164.902831,160.417607 L160.463461,160.417607 L155.79228,152.582095 L153.010439,155.372361 L153.010439,160.417607 L149.579489,160.417607 Z M166.68786,160.417607 L166.68786,143.721599 L179.287288,143.721599 L179.287288,146.546027 L170.118789,146.546027 L170.118789,150.247399 L178.649779,150.247399 L178.649779,153.060424 L170.118789,153.060424 L170.118789,157.604561 L179.611846,157.604561 L179.611846,160.417607 L166.68786,160.417607 Z M187.006903,160.417607 L187.006903,153.390701 L180.782525,143.721599 L184.804622,143.721599 L188.803503,150.327114 L192.721291,143.721599 L196.673831,143.721599 L190.426278,153.413482 L190.426278,160.417607 L187.006903,160.417607 Z M205.077312,160.417607 L205.077312,143.858278 L208.508262,143.858278 L208.508262,157.604561 L217.039269,157.604561 L217.039269,160.417607 L205.077312,160.417607 Z M219.496535,160.417607 L219.496535,143.721599 L232.096001,143.721599 L232.096001,146.546027 L222.927506,146.546027 L222.927506,150.247399 L231.458488,150.247399 L231.458488,153.060424 L222.927506,153.060424 L222.927506,157.604561 L232.420547,157.604561 L232.420547,160.417607 L219.496535,160.417607 Z M250.676431,160.417607 L246.944122,160.417607 L245.460455,156.625138 L238.6681,156.625138 L237.265598,160.417607 L233.626025,160.417607 L240.244501,143.721599 L243.872492,143.721599 L250.676431,160.417607 Z M244.359313,153.812092 L242.017923,147.616589 L239.722885,153.812092 L244.359313,153.812092 Z M260.412873,154.279043 L260.412873,151.465997 L267.807964,151.465997 L267.807964,158.117074 C267.089286,158.800399 266.048027,159.402103 264.684187,159.922198 C263.320284,160.442277 261.939026,160.702327 260.540374,160.702327 C258.763082,160.702327 257.213738,160.335986 255.892385,159.603304 C254.570989,158.870626 253.578052,157.822866 252.913486,156.460002 C252.24894,155.097142 251.916657,153.614703 251.916657,152.012664 C251.916657,150.273971 252.287581,148.728896 253.029404,147.37741 C253.771205,146.025949 254.85692,144.98957 256.286475,144.26827 C257.376034,143.714033 258.732179,143.436883 260.354933,143.436883 C262.464467,143.436883 264.112331,143.871566 265.298509,144.740902 C266.484624,145.610259 267.24769,146.811774 267.587711,148.345455 L264.179969,148.971841 C263.940417,148.151857 263.490293,147.504596 262.829618,147.030058 C262.168897,146.555541 261.344025,146.318271 260.354933,146.31825 C258.855813,146.318271 257.663862,146.785202 256.779085,147.719085 C255.894308,148.652967 255.451921,150.038608 255.451921,151.875989 C255.451921,153.857653 255.900101,155.343904 256.796482,156.334725 C257.692843,157.325547 258.867417,157.82096 260.320142,157.82096 C261.038799,157.82096 261.759358,157.682395 262.481881,157.405266 C263.204387,157.128137 263.824478,156.792163 264.342244,156.397366 L264.342244,154.279043 L260.412873,154.279043 Z M270.937534,143.721599 L274.368458,143.721599 L274.368458,152.764331 C274.368458,154.199328 274.410949,155.129415 274.495963,155.55458 C274.642785,156.237906 274.992461,156.786483 275.54496,157.20027 C276.097475,157.614058 276.852803,157.82096 277.810991,157.82096 C278.784654,157.82096 279.518739,157.625456 280.013297,157.234429 C280.507852,156.843422 280.805344,156.363186 280.905812,155.793755 C281.006255,155.224308 281.056479,154.279043 281.056479,152.957928 L281.056479,143.721599 L284.487429,143.721599 L284.487429,152.490998 C284.487429,154.495421 284.394698,155.911429 284.209236,156.73902 C284.023774,157.566611 283.681852,158.265131 283.183448,158.834562 C282.685027,159.404009 282.018517,159.857652 281.18398,160.195532 C280.349426,160.533395 279.259871,160.702327 277.915326,160.702327 C276.292572,160.702327 275.061984,160.518201 274.223585,160.149975 C273.385161,159.781728 272.722538,159.303394 272.235721,158.714982 C271.7489,158.126566 271.428221,157.509672 271.273662,156.864296 C271.049585,155.907633 270.937534,154.495421 270.937534,152.627652 L270.937534,143.721599 Z M288.11542,160.417607 L288.11542,143.721599 L300.714864,143.721599 L300.714864,146.546027 L291.546369,146.546027 L291.546369,150.247399 L300.077356,150.247399 L300.077356,153.060424 L291.546369,153.060424 L291.546369,157.604561 L301.039431,157.604561 L301.039431,160.417607 L288.11542,160.417607 Z" id="euro-hockey-league" fill="#FFFFFF"></path>
            <path d="M21.2237751,24.965251 L21.2237751,123.800466 L93.6210558,105.248661 L55.418561,105.248661 L55.418561,91.421775 L92.5221669,91.421775 L92.5221669,64.9776739 L55.418561,64.9776739 L55.418561,52.7606355 L107.130903,52.7606355 L107.130903,24.965251 L21.2237751,24.965251 Z M116.309846,24.965251 L116.309846,99.4310237 L211.589841,74.9969428 L211.589841,24.965251 L177.330407,24.965251 L177.330407,62.5213377 L150.43999,62.5213377 L150.43999,24.965251 L116.309846,24.965251 Z M225.293612,24.965251 L225.293612,71.5063604 L259.4884,62.7152617 L259.4884,24.965251 L225.293612,24.965251 Z" id="ehl_top" fill="#FFFFFF"></path>
            <path d="M261.944736,76.742234 C252.995937,78.5621339 241.178095,81.0001468 227.749949,83.7880415 L227.749949,132.397641 L301.892522,132.397641 L301.892522,102.469124 L261.944736,102.469124 L261.944736,76.742234 Z M214.692584,86.6322174 C203.860708,88.8880359 192.469389,91.2873662 180.43315,93.8073062 L180.43315,132.397641 L214.692584,132.397641 L214.692584,86.6322174 Z M155.675864,99.4310237 C139.354562,102.857462 134.619325,103.335615 119.089383,106.606112 L119.089383,132.397641 L155.675864,132.397641 L155.675864,99.4310237 Z M109.910444,107.96356 C68.6373336,116.659448 30.5275082,125.483205 25.0375603,126.644646 L25.0375603,132.397641 L109.910444,132.397641 L109.910444,107.96356 Z" id="ehl_bottom" fill="#FFFFFF"></path>
            <path d="M300.211869,46.2965917 C293.868171,46.2965917 288.705872,51.4588829 288.705872,57.8025893 C288.705872,64.1462872 293.868171,69.3085826 300.211869,69.3085826 C306.555567,69.3085826 311.653224,64.1462872 311.653224,57.8025893 C311.653224,51.4588829 306.555567,46.2965917 300.211869,46.2965917 Z M294.135669,54.635208 L299.242262,54.635208 L299.242262,55.6694542 L297.367689,55.6694542 L297.367689,61.034609 L296.07488,61.034609 L296.07488,55.6694542 L294.135669,55.6694542 L294.135669,54.635208 Z M300.082588,54.635208 L301.95716,54.635208 L303.120688,58.9661167 L304.284215,54.635208 L306.22343,54.635208 L306.22343,61.034609 L305.059903,61.034609 L305.059903,55.9926553 L303.767094,61.034609 L302.538924,61.034609 L301.246115,55.9926553 L301.246115,61.034609 L300.082588,61.034609 L300.082588,54.635208 Z" id="trademark" fill="#FFFFFF"></path>
        </g>
    </g>
</svg>