<?xml version="1.0" encoding="UTF-8" standalone="no"?>
<!DOCTYPE svg PUBLIC "-//W3C//DTD SVG 1.0//EN" "http://www.w3.org/TR/2001/REC-SVG-20010904/DTD/svg10.dtd">
<!-- Created with Inkscape (http://www.inkscape.org/) -->
<svg
   xmlns:svg="http://www.w3.org/2000/svg"
   xmlns="http://www.w3.org/2000/svg"
   xmlns:xlink="http://www.w3.org/1999/xlink"
   version="1.0"
   width="800"
   height="450"
   id="svg2">
  <defs
     id="defs4">
    <linearGradient
       id="linearGradient4778">
      <stop
         id="stop4780"
         style="stop-color:#91760f;stop-opacity:1"
         offset="0" />
      <stop
         id="stop4782"
         style="stop-color:#3e2e07;stop-opacity:1"
         offset="1" />
    </linearGradient>
    <linearGradient
       x1="317.84375"
       y1="121.07812"
       x2="451.6875"
       y2="121.07812"
       id="linearGradient4784"
       xlink:href="#linearGradient4778"
       gradientUnits="userSpaceOnUse"
       gradientTransform="matrix(4.9377433,0,0,4.9377433,-1500.2351,-336.9695)" />
  </defs>
  <g
     id="layer1">
    <rect
       width="781.43359"
       height="427.29453"
       x="9.4280891"
       y="11.262177"
       id="rect4775"
       style="opacity:1;fill:#000000;fill-opacity:1;fill-rule:nonzero;stroke:none;stroke-width:6;stroke-linecap:butt;stroke-linejoin:miter;stroke-miterlimit:4;stroke-dasharray:none;stroke-opacity:1" />
    <path
       d="M 60.914002,394.1983 L 60.914002,354.34292 L 90.990413,354.34292 L 90.990413,361.08517 L 69.104098,361.08517 L 69.104098,369.92079 L 89.4686,369.92079 L 89.4686,376.63582 L 69.104098,376.63582 L 69.104098,387.48322 L 91.76512,387.48322 L 91.76512,394.1983 L 60.914002,394.1983 z M 98.710115,354.34292 L 106.90016,354.34292 L 106.90016,375.92901 C 106.90016,379.35452 107.00163,381.57475 107.20452,382.58967 C 107.55502,384.22085 108.3897,385.53037 109.70862,386.51813 C 111.02749,387.50589 112.8306,387.99979 115.11791,387.99979 C 117.44212,387.99979 119.19447,387.5331 120.37506,386.59967 C 121.5556,385.66629 122.26574,384.51991 122.5056,383.16061 C 122.74535,381.80127 122.86525,379.54481 122.8653,376.39115 L 122.8653,354.34292 L 131.05535,354.34292 L 131.05535,375.27653 C 131.0553,380.06133 130.83398,383.44151 130.39128,385.41707 C 129.94854,387.39263 129.13233,389.06008 127.94258,390.41938 C 126.75277,391.77872 125.16177,392.86162 123.16967,393.66818 C 121.17746,394.4747 118.57653,394.87796 115.36692,394.87796 C 111.49325,394.87796 108.55567,394.43843 106.5543,393.55943 C 104.55288,392.68038 102.97114,391.53854 101.80904,390.13393 C 100.64693,388.72931 99.881437,387.25671 99.512518,385.71612 C 98.977568,383.43245 98.710115,380.06133 98.710115,375.60274 L 98.710115,354.34292 z M 139.74348,394.1983 L 139.74348,354.34292 L 156.98137,354.34292 C 161.31617,354.34297 164.46585,354.70091 166.43041,355.41682 C 168.39487,356.13274 169.96739,357.40598 171.14798,359.23648 C 172.32852,361.06711 172.91876,363.16043 172.91881,365.51659 C 172.91876,368.50712 172.02416,370.97653 170.23489,372.92488 C 168.44558,374.87327 165.77092,376.1012 162.21083,376.60866 C 163.98166,377.62363 165.4435,378.7383 166.59639,379.95257 C 167.74928,381.16694 169.30332,383.32374 171.25866,386.42298 L 176.21146,394.1983 L 166.41656,394.1983 L 160.49534,385.52582 C 158.39249,382.42659 156.95367,380.47368 156.17896,379.66712 C 155.40421,378.86061 154.58338,378.30783 153.71642,378.00878 C 152.84941,377.70972 151.47519,377.5602 149.59372,377.5602 L 147.93358,377.5602 L 147.93358,394.1983 L 139.74348,394.1983 z M 147.93358,371.19854 L 153.99308,371.19854 C 157.9221,371.19859 160.37543,371.03546 161.35308,370.70919 C 162.33073,370.38298 163.09622,369.82114 163.64965,369.02363 C 164.20298,368.22617 164.4797,367.22936 164.4797,366.0331 C 164.4797,364.69197 164.11536,363.60901 163.38678,362.78434 C 162.65815,361.95971 161.62975,361.43865 160.30166,361.22109 C 159.63759,361.13054 157.64538,361.08522 154.32514,361.08517 L 147.93358,361.08517 L 147.93358,371.19854 z M 179.00602,374.51529 C 179.00602,370.45546 179.62396,367.04812 180.85989,364.29316 C 181.78214,362.26327 183.04109,360.44179 184.63672,358.82872 C 186.23226,357.21569 187.98003,356.01948 189.88003,355.24008 C 192.40714,354.18889 195.3216,353.66332 198.62346,353.66327 C 204.59998,353.66332 209.38215,355.4848 212.96995,359.12777 C 216.55769,362.77078 218.35154,367.83652 218.35159,374.32499 C 218.35154,380.75913 216.57149,385.79316 213.01145,389.42707 C 209.4513,393.06097 204.69223,394.87796 198.73414,394.87796 C 192.70224,394.87796 187.90626,393.07008 184.34616,389.45428 C 180.78606,385.83848 179.00602,380.85883 179.00602,374.51529 L 179.00602,374.51529 z M 187.44513,374.24345 C 187.44513,378.75641 188.50577,382.17736 190.62709,384.5063 C 192.74836,386.83529 195.4415,387.99979 198.7065,387.99979 C 201.9714,387.99979 204.65074,386.84435 206.74436,384.53351 C 208.83799,382.22268 209.88478,378.75641 209.88483,374.13469 C 209.88478,369.56736 208.86564,366.16002 206.8274,363.91257 C 204.78907,361.66517 202.08209,360.54149 198.7065,360.54144 C 195.33081,360.54149 192.61003,361.67877 190.5441,363.95334 C 188.47812,366.228 187.44513,369.658 187.44513,374.24345 L 187.44513,374.24345 z M 240.45927,394.1983 L 240.45927,354.34292 L 248.64932,354.34292 L 248.64932,370.02954 L 264.69745,370.02954 L 264.69745,354.34292 L 272.88755,354.34292 L 272.88755,394.1983 L 264.69745,394.1983 L 264.69745,376.77179 L 248.64932,376.77179 L 248.64932,394.1983 L 240.45927,394.1983 z M 279.72181,374.51529 C 279.72181,370.45546 280.33975,367.04812 281.57568,364.29316 C 282.49794,362.26327 283.75688,360.44179 285.35252,358.82872 C 286.94806,357.21569 288.69583,356.01948 290.59583,355.24008 C 293.12293,354.18889 296.03739,353.66332 299.33926,353.66327 C 305.31577,353.66332 310.09795,355.4848 313.68574,359.12777 C 317.27343,362.77078 319.06733,367.83652 319.06738,374.32499 C 319.06733,380.75913 317.28729,385.79316 313.72724,389.42707 C 310.16709,393.06097 305.40802,394.87796 299.44994,394.87796 C 293.41803,394.87796 288.62205,393.07008 285.06195,389.45428 C 281.50186,385.83848 279.72181,380.85883 279.72181,374.51529 L 279.72181,374.51529 z M 288.16093,374.24345 C 288.16093,378.75641 289.22156,382.17736 291.34289,384.5063 C 293.46416,386.83529 296.15729,387.99979 299.42229,387.99979 C 302.68719,387.99979 305.36648,386.84435 307.46015,384.53351 C 309.55378,382.22268 310.60057,378.75641 310.60062,374.13469 C 310.60057,369.56736 309.58143,366.16002 307.5432,363.91257 C 305.50486,361.66517 302.79788,360.54149 299.42229,360.54144 C 296.0466,360.54149 293.32582,361.67877 291.25984,363.95334 C 289.19392,366.228 288.16093,369.658 288.16093,374.24345 L 288.16093,374.24345 z M 351.38497,379.54481 L 359.32599,382.01878 C 358.10854,386.3686 356.08406,389.59926 353.25264,391.71073 C 350.42112,393.82222 346.82874,394.87796 342.47546,394.87796 C 337.08919,394.87796 332.66213,393.07008 329.19429,389.45428 C 325.7264,385.83848 323.99248,380.89505 323.99248,374.62404 C 323.99248,367.99055 325.73562,362.83872 329.22194,359.16854 C 332.70826,355.49841 337.29213,353.66332 342.97355,353.66327 C 347.93551,353.66332 351.96599,355.10421 355.06497,357.98593 C 356.90952,359.68966 358.293,362.13641 359.21536,365.32629 L 351.10825,367.22931 C 350.62865,365.16315 349.62793,363.53197 348.10617,362.33576 C 346.58431,361.1396 344.73512,360.54149 342.5585,360.54144 C 339.55174,360.54149 337.11225,361.60173 335.24,363.72227 C 333.36769,365.84285 332.43154,369.27741 332.43159,374.02594 C 332.43154,379.06452 333.35385,382.6531 335.1985,384.7918 C 337.04311,386.93044 339.4411,387.99979 342.39247,387.99979 C 344.56909,387.99979 346.44139,387.32014 348.00933,385.9608 C 349.57722,384.6015 350.70242,382.4628 351.38497,379.54481 L 351.38497,379.54481 z M 366.49232,394.1983 L 366.49232,354.34292 L 374.68241,354.34292 L 374.68241,372.04132 L 391.22858,354.34292 L 402.24088,354.34292 L 386.9675,369.86641 L 403.07098,394.1983 L 392.47367,394.1983 L 381.323,375.49399 L 374.68241,382.15469 L 374.68241,394.1983 L 366.49232,394.1983 z M 407.33206,394.1983 L 407.33206,354.34292 L 437.40841,354.34292 L 437.40841,361.08517 L 415.5221,361.08517 L 415.5221,369.92079 L 435.8866,369.92079 L 435.8866,376.63582 L 415.5221,376.63582 L 415.5221,387.48322 L 438.18317,387.48322 L 438.18317,394.1983 L 407.33206,394.1983 z M 455.83606,394.1983 L 455.83606,377.42423 L 440.97772,354.34292 L 450.57895,354.34292 L 460.12476,370.11108 L 469.47699,354.34292 L 478.91218,354.34292 L 463.99852,377.47861 L 463.99852,394.1983 L 455.83606,394.1983 z M 498.9723,394.1983 L 498.9723,354.66919 L 507.16239,354.66919 L 507.16239,387.48322 L 527.52693,387.48322 L 527.52693,394.1983 L 498.9723,394.1983 z M 533.39272,394.1983 L 533.39272,354.34292 L 563.46916,354.34292 L 563.46916,361.08517 L 541.58286,361.08517 L 541.58286,369.92079 L 561.94734,369.92079 L 561.94734,376.63582 L 541.58286,376.63582 L 541.58286,387.48322 L 564.24389,387.48322 L 564.24389,394.1983 L 533.39272,394.1983 z M 607.82288,394.1983 L 598.91341,394.1983 L 595.37172,385.14522 L 579.15755,385.14522 L 575.80961,394.1983 L 567.12151,394.1983 L 582.92061,354.34292 L 591.58106,354.34292 L 607.82288,394.1983 z M 592.74316,378.43014 L 587.15398,363.64073 L 581.67545,378.43014 L 592.74316,378.43014 z M 631.06494,379.54481 L 631.06494,372.82973 L 648.71791,372.82973 L 648.71791,388.70665 C 647.00234,390.33783 644.51673,391.77417 641.26108,393.0157 C 638.00528,394.25719 634.70805,394.87796 631.3693,394.87796 C 627.12669,394.87796 623.42822,394.00346 620.27399,392.25446 C 617.11966,390.50547 614.7494,388.00434 613.163,384.75102 C 611.57665,381.49771 610.78345,377.95895 610.78345,374.13469 C 610.78345,369.98422 611.66889,366.29594 613.43971,363.06978 C 615.21048,359.84368 617.80221,357.36972 621.21473,355.64789 C 623.81564,354.32486 627.05292,353.66332 630.92663,353.66327 C 635.96234,353.66332 639.89599,354.70091 642.72754,356.77612 C 645.55894,358.85138 647.38047,361.71954 648.19214,365.38062 L 640.05745,366.87588 C 639.48561,364.91848 638.41111,363.37339 636.834,362.24061 C 635.25678,361.10788 633.28771,360.54149 630.92663,360.54144 C 627.34805,360.54149 624.50272,361.65611 622.39065,363.8854 C 620.27858,366.11469 619.22255,369.42238 619.22255,373.80843 C 619.22255,378.5389 620.29241,382.08676 622.43218,384.45197 C 624.5719,386.81718 627.37575,387.99979 630.84358,387.99979 C 632.5591,387.99979 634.27916,387.66902 636.00391,387.00748 C 637.72862,386.34594 639.20885,385.54393 640.44482,384.6015 L 640.44482,379.54481 L 631.06494,379.54481 z M 656.18857,354.34292 L 664.3786,354.34292 L 664.3786,375.92901 C 664.3786,379.35452 664.48003,381.57475 664.68297,382.58967 C 665.03345,384.22085 665.86817,385.53037 667.18705,386.51813 C 668.50597,387.50589 670.30903,387.99979 672.59634,387.99979 C 674.92059,387.99979 676.67294,387.5331 677.85351,386.59967 C 679.03407,385.66629 679.74422,384.51991 679.98405,383.16061 C 680.22382,381.80127 680.34371,379.54481 680.34371,376.39115 L 680.34371,354.34292 L 688.5338,354.34292 L 688.5338,375.27653 C 688.53375,380.06133 688.31244,383.44151 687.86972,385.41707 C 687.427,387.39263 686.61079,389.06008 685.42104,390.41938 C 684.23125,391.77872 682.64021,392.86162 680.64807,393.66818 C 678.65589,394.4747 676.05499,394.87796 672.8454,394.87796 C 668.97169,394.87796 666.03413,394.43843 664.03277,393.55943 C 662.03135,392.68038 660.44959,391.53854 659.2875,390.13393 C 658.1254,388.72931 657.3599,387.25671 656.99095,385.71612 C 656.45605,383.43245 656.18852,380.06133 656.18857,375.60274 L 656.18857,354.34292 z M 697.19425,394.1983 L 697.19425,354.34292 L 727.27064,354.34292 L 727.27064,361.08517 L 705.38434,361.08517 L 705.38434,369.92079 L 725.74883,369.92079 L 725.74883,376.63582 L 705.38434,376.63582 L 705.38434,387.48322 L 728.04542,387.48322 L 728.04542,394.1983 L 697.19425,394.1983 z"
       id="text4739"
       style="font-size:11.37564278px;font-style:normal;font-variant:normal;font-weight:bold;font-stretch:normal;text-align:start;line-height:100%;writing-mode:lr-tb;text-anchor:start;fill:#ffffff;fill-opacity:1;stroke:none;stroke-width:1px;stroke-linecap:butt;stroke-linejoin:miter;stroke-opacity:1;font-family:Arial;-inkscape-font-specification:Arial Bold" />
    <path
       d="M 60.091793,70.857234 L 60.091793,306.78878 L 232.91281,262.50339 L 141.71886,262.50339 L 141.71886,229.49695 L 230.28963,229.49695 L 230.28963,166.3717 L 141.71886,166.3717 L 141.71886,137.20816 L 265.16244,137.20816 L 265.16244,70.857234 L 60.091793,70.857234 z M 287.07368,70.857234 L 287.07368,248.61599 L 514.51849,190.2889 L 514.51849,70.857234 L 432.7371,70.857234 L 432.7371,160.50813 L 368.54644,160.50813 L 368.54644,70.857234 L 287.07368,70.857234 z M 547.23104,70.857234 L 547.23104,181.95646 L 628.85811,160.97105 L 628.85811,70.857234 L 547.23104,70.857234 z"
       id="path4771"
       style="font-size:73.58527374px;font-style:normal;font-variant:normal;font-weight:normal;font-stretch:normal;text-align:start;line-height:100%;writing-mode:lr-tb;text-anchor:start;opacity:1;fill:#ffffff;fill-opacity:1;stroke:none;stroke-width:1px;stroke-linecap:butt;stroke-linejoin:miter;stroke-opacity:1;font-family:Arial Black;-inkscape-font-specification:Arial Black" />
    <path
       d="M 634.72168,194.45512 C 613.35982,198.79944 585.14921,204.61927 553.09461,211.27431 L 553.09461,327.31127 L 730.08185,327.31127 L 730.08185,255.8683 L 634.72168,255.8683 L 634.72168,194.45512 z M 521.92511,218.0637 C 496.06812,223.44861 468.87567,229.1761 440.14372,235.1915 L 440.14372,327.31127 L 521.92511,327.31127 L 521.92511,218.0637 z M 381.0451,248.61599 C 342.08419,256.79531 330.78061,257.93672 293.70877,265.74379 L 293.70877,327.31127 L 381.0451,327.31127 L 381.0451,248.61599 z M 271.79754,268.98418 C 173.27366,289.74231 82.300923,310.80568 69.195757,313.57818 L 69.195757,327.31127 L 271.79754,327.31127 L 271.79754,268.98418 z"
       id="path4765"
       style="font-size:73.58527374px;font-style:normal;font-variant:normal;font-weight:normal;font-stretch:normal;text-align:start;line-height:100%;writing-mode:lr-tb;text-anchor:start;opacity:1;fill:url(#linearGradient4784);fill-opacity:1;stroke:none;stroke-width:1px;stroke-linecap:butt;stroke-linejoin:miter;stroke-opacity:1;font-family:Arial Black;-inkscape-font-specification:Arial Black" />
    <path
       d="M 726.06993,121.77771 C 710.92676,121.77771 698.60378,134.10072 698.60373,149.24391 C 698.60373,164.38708 710.92676,176.7101 726.06993,176.7101 C 741.2131,176.7101 753.38177,164.38708 753.38182,149.24391 C 753.38182,134.10072 741.2131,121.77771 726.06993,121.77771 z M 711.56531,141.68299 L 723.75536,141.68299 L 723.75536,144.15186 L 719.28053,144.15186 L 719.28053,156.95913 L 716.19444,156.95913 L 716.19444,144.15186 L 711.56531,144.15186 L 711.56531,141.68299 z M 725.76132,141.68299 L 730.23615,141.68299 L 733.01363,152.02139 L 735.79111,141.68299 L 740.42025,141.68299 L 740.42025,156.95913 L 737.64277,156.95913 L 737.64277,144.92338 L 734.55668,156.95913 L 731.62489,156.95913 L 728.5388,144.92338 L 728.5388,156.95913 L 725.76132,156.95913 L 725.76132,141.68299 z"
       id="path4751"
       style="opacity:1;fill:#4d3908;fill-opacity:1;fill-rule:nonzero;stroke:none;stroke-width:6;stroke-linecap:butt;stroke-linejoin:miter;stroke-miterlimit:4;stroke-dasharray:none;stroke-opacity:1" />
  </g>
</svg>
