<?xml version="1.0" encoding="UTF-8" standalone="no"?>
<!DOCTYPE svg PUBLIC "-//W3C//DTD SVG 1.1//EN" "http://www.w3.org/Graphics/SVG/1.1/DTD/svg11.dtd">
<svg width="225px" height="225px" viewBox="0 0 225 225" version="1.1" xmlns="http://www.w3.org/2000/svg" xmlns:xlink="http://www.w3.org/1999/xlink">
    <g id="NHV" stroke="none" stroke-width="1" fill="none" fill-rule="evenodd">
        <g id="166-BTHC" fill="#224C92" fill-rule="nonzero">
            <g id="Group" transform="translate(-0.000000, 0.000000)">
                <g id="g12" transform="translate(112.500000, 112.500000) scale(-1, 1) rotate(-180.000000) translate(-112.500000, -112.500000) translate(-0.000000, 0.000000)">
                    <path d="M116.580347,74.3533977 C116.130201,74.6549669 116.142027,74.8538903 115.582263,74.8538903 C114.335682,74.8538903 116.329727,73.3175403 116.329727,72.1094443 C116.329727,71.6154713 115.582263,71.7428308 115.582263,70.8602597 C115.582263,70.3646189 116.329727,70.4948591 116.329727,69.6094072 C116.329727,69.2605331 115.991018,69.1089146 115.582263,69.1089146 L114.833132,69.1089146 C114.250929,69.1089146 111.531406,71.2706909 111.087173,72.1094443 L110.061344,70.8798184 L108.84084,70.8602597 L107.661576,69.3073832 C107.0865,69.7308536 106.843157,69.932203 106.843157,70.8602597 L106.843157,71.1090656 L107.232202,78.5940149 L105.594605,78.5970473 C105.674658,79.5599762 106.415602,80.8469139 107.34182,80.8469139 C109.156503,80.8469139 108.45225,80.8334198 110.167474,80.9956516 C111.110825,81.0820741 111.516547,80.3471794 112.585587,80.3471794 C113.305153,80.3471794 116.628864,84.4543723 117.58116,85.0911699 C116.670255,86.808704 112.992371,93.3028266 114.084001,95.5771037 C112.071459,95.3584699 113.636736,90.7952086 112.336786,90.8331132 L100.352657,91.1404439 C99.9126696,89.2013952 98.8703143,87.3393686 96.6054848,87.3393686 C96.5718262,87.3393686 96.1104608,87.5821098 96.1068221,87.5880229 C96.329545,88.423744 96.854892,88.6103863 96.854892,89.3346678 C96.854892,89.672777 96.5860781,89.47446 96.3556228,90.3326206 L92.4621417,88.097461 L92.6102698,87.8368289 C91.9054102,87.8961117 91.6117314,87.8309157 91.6117314,88.5859758 L91.6117314,89.3346678 C91.6117314,90.5677809 92.1026618,92.2219385 92.3602562,93.3299663 L90.0825394,94.5235069 C89.0846074,94.5791509 88.115634,94.2716686 88.115634,95.3282978 C88.115634,95.7287222 91.6331091,97.9467489 92.1116071,98.0741084 L92.1116071,99.0720612 C92.1116071,99.6488179 92.285055,99.8212081 92.8607383,99.8212081 C97.2883602,99.8212081 97.6881698,98.2754578 99.1018309,95.3282978 L105.085936,94.7568478 L106.343281,94.8278052 C107.754062,94.8278052 106.843157,100.354299 106.843157,101.820146 L106.843157,102.818099 C106.843157,104.369762 109.260057,106.039992 110.589723,105.814232 L112.577854,105.52176 C111.516547,107.585742 108.653595,110.727732 108.590827,113.555719 L105.615983,112.258017 C105.268329,112.963498 105.345349,112.101698 105.345349,113.05462 C105.345349,113.783754 105.679964,114.348684 105.845225,115.054165 C104.581966,114.715904 104.03418,110.807635 102.34746,110.807635 L101.599996,110.807635 C101.599996,115.657606 103.177705,114.30426 98.354519,114.30426 L97.8546434,114.30426 C97.2936667,114.30426 97.3056443,114.499696 96.854892,114.804752 C96.2264466,114.381282 95.4820154,113.05462 94.6085596,113.05462 C93.6383732,113.05462 93.8586703,113.880789 93.8586703,114.804752 C93.0875548,113.917026 92.769011,112.557767 91.1130686,112.557767 C90.6706552,112.557767 90.6564033,113.132249 90.3627245,113.555719 C90.2590196,112.30608 90.619106,110.558222 89.6140481,110.558222 C88.736347,110.558222 87.4920402,113.327685 86.1185571,114.052573 L84.6729051,112.513342 C84.2270045,112.844932 83.8710118,113.13513 83.8710118,113.804525 L83.9641036,117.05007 C83.8710118,118.121407 84.7297609,119.060835 85.6192879,119.297663 L84.8950216,120.810815 C84.0020074,120.796108 83.3711361,120.641457 83.3711361,121.544649 C83.3711361,121.965845 86.7315378,122.792014 87.1170955,122.792014 L87.3671092,122.792014 C90.1754796,122.792014 90.7303916,119.546469 91.8605321,119.546469 L92.8607383,119.546469 L101.089508,120.621292 L98.0559885,122.453753 L98.3100958,123.552987 L97.5987167,123.77814 L97.8102201,124.802778 C95.3984754,124.7908 91.7935181,125.592862 91.6117314,127.786781 C93.6312473,127.618485 94.3561201,126.978655 96.3556228,128.036952 L94.793227,130.887379 C92.9679303,130.64479 89.1153853,129.73053 89.1153853,132.530923 C89.1153853,133.614996 89.807206,132.825063 90.613193,134.027398 L85.8656628,134.236631 L84.4870248,135.658813 L84.6089235,135.875627 L86.3620513,136.078796 L88.2205518,138.155969 C88.3283502,139.707026 86.4254265,143.016857 87.3671092,143.016857 C88.5788187,143.016857 88.9146466,142.487709 89.6140481,142.019208 L90.8626001,142.019208 C90.6937007,142.372479 90.2969234,143.515682 91.1130686,143.515682 C91.9883438,143.515682 94.4023628,141.500673 94.9597007,140.872972 C96.2779958,139.381046 95.8255757,138.04832 97.3541612,137.023379 C97.3541612,133.543735 100.509124,131.051127 102.598535,129.534942 C104.240225,128.344737 107.252973,123.837272 109.339503,123.792847 C109.002462,124.292733 108.341571,124.799746 108.341571,125.539795 C108.341571,126.65874 110.589723,125.338143 110.589723,126.786099 C110.589723,126.919524 110.228424,127.334958 110.088028,127.536611 C108.931355,127.536611 107.591682,127.177275 107.591682,128.28409 C107.591682,128.720751 108.985936,129.547072 109.339503,129.783597 L112.583767,129.870019 L113.833381,129.783597 C114.533995,129.783597 115.39699,130.861604 114.745499,131.196681 C114.393145,131.380139 112.902463,131.032933 112.086318,131.032933 C111.048662,131.032933 111.042749,132.151877 110.838372,133.029748 L106.856802,132.430855 L106.343281,132.530923 C104.687945,132.530923 103.097804,133.695353 103.097804,135.276734 C103.097804,135.984792 103.889539,137.023379 104.595612,137.023379 C105.025593,137.023379 106.294158,134.279084 109.339503,134.279084 C110.014646,134.279084 110.028291,134.397347 110.589723,134.527739 C110.462366,136.043924 108.590827,138.466787 108.590827,139.270365 C108.590827,140.033006 112.434578,140.704676 113.068178,141.285374 C114.982322,143.044149 115.413516,142.019208 118.07861,142.019208 C119.975014,142.019208 121.09439,142.643876 122.080496,141.02459 C122.533522,140.284692 123.349667,137.992221 123.552225,137.006701 C124.008284,134.788523 125.819329,130.678146 125.819329,128.28409 C125.819329,128.278025 125.413607,127.438059 125.32006,127.034754 L124.310302,126.831585 L124.322128,125.039 L123.784955,124.320025 L123.373319,120.289702 L122.311406,120.090627 L122.325051,117.550563 L121.338945,117.245507 L121.63035,115.060078 C121.61443,114.783981 121.052999,114.30426 120.574956,114.30426 C119.942417,114.30426 120.376643,115.264308 118.577272,115.302213 C118.577272,108.829468 122.684531,106.821736 124.167025,102.414642 C124.99909,99.9390157 125.532018,97.8157505 125.838281,94.846151 C126.144999,91.8973233 126.857894,90.0020923 129.065413,88.8347817 C130.108526,89.3878859 131.063703,90.285164 131.063703,91.832279 L131.063703,94.8278052 C131.063703,95.1328616 128.416499,101.553601 128.017751,103.019448 C127.089865,106.448603 126.103608,107.647906 124.322128,110.306535 L124.101831,112.060306 L124.717692,113.122697 L127.130802,111.091919 L127.317288,111.308127 C127.256642,113.994048 124.322128,114.068038 124.322128,117.550563 L124.322128,120.295616 C124.322128,121.009284 124.400968,120.753958 124.819578,121.044762 L126.095875,118.308655 L126.383186,118.347015 L126.048571,120.540783 L126.069191,121.794061 C126.069191,124.27272 128.034429,126.360051 128.066268,127.786781 C129.62639,127.657906 128.75915,127.034754 129.814393,127.034754 C130.799892,127.034754 135.308931,131.672763 135.308931,133.278403 L135.308931,134.027398 C135.308931,134.911334 134.758568,135.81498 134.047492,135.720976 C133.146897,135.599681 133.803391,134.424638 133.409192,133.431537 C133.030153,132.480889 131.212286,130.879798 130.064558,130.781246 L130.355659,132.775029 C130.316239,132.797772 130.125204,133.298113 130.064558,133.528573 C127.488614,133.472474 128.602986,131.175454 127.817619,129.534942 C125.497753,130.153546 126.566793,134.06227 126.566793,135.525388 C126.566793,136.342612 125.819329,136.186445 125.819329,137.52372 L125.819329,138.522886 C125.819329,139.290075 126.050239,140.020876 126.816958,140.020876 C127.329418,140.020876 127.200545,138.542596 129.459613,137.917928 C130.643728,137.591948 132.247818,138.025577 133.80794,138.025577 L134.558436,138.025577 C136.609791,138.025577 138.26543,135.590584 138.013748,133.33905 C137.777229,131.228521 136.392981,129.236254 135.119412,127.974788 C134.384078,127.245503 131.262319,124.391134 130.95454,123.899587 C130.213141,122.732125 128.786441,119.169697 129.564227,117.550563 L129.825006,117.369227 L132.855796,121.764495 C133.202995,121.506138 133.309125,121.745998 133.309125,121.044762 L133.309125,120.796108 C133.309125,117.446856 129.740101,115.385148 129.564227,113.304033 L129.793166,113.116784 L132.581372,116.489689 L132.811827,116.300165 L132.811827,115.302213 C132.811827,112.898302 130.357175,110.561861 130.314723,108.560042 C132.290271,109.604694 131.529162,111.660488 133.309125,111.805587 L133.309125,109.809682 C133.309125,109.436549 132.005234,107.140893 131.811166,106.315331 L133.579001,108.491814 L134.055073,108.278032 L133.603259,104.810366 C134.508403,105.906719 134.40682,107.185318 135.559097,107.313284 L135.559097,106.063644 C135.559097,103.108297 133.375836,101.503264 132.811827,99.0720612 L132.998314,98.8705603 L135.966942,101.663069 C135.998781,98.9683542 134.008072,97.7778459 133.806424,94.8308376 C133.572936,91.4288222 133.982297,89.3684787 132.129558,87.5199463 C130.486048,85.8794343 128.557502,84.6528409 126.216106,86.7375949 C123.562838,89.0982946 124.458278,89.9625199 123.072515,92.5808194 C122.500925,92.4475467 121.324238,91.9015686 121.324238,91.3329993 C121.324238,89.2482453 122.823714,85.2574953 122.823714,84.8393316 C122.823714,84.3893279 117.58116,80.1073189 117.58116,78.848734 C117.58116,78.5063794 118.393666,78.2771323 118.564233,77.0873821 C118.65308,76.4536169 118.884142,75.0919313 118.833805,74.6205495 C118.69159,73.2998009 116.580347,71.5940931 116.580347,74.3533977 L116.580347,74.3533977 Z M151.430187,142.92437 C136.067008,148.315923 123.838323,150.723624 111.842369,150.723624 C99.9416281,150.723624 87.948099,148.346247 73.0186911,143.021406 C73.1798582,119.635317 83.8650988,98.1018546 90.2543195,87.3002511 C99.4986082,71.6711153 109.210327,62.0741205 112.104057,62.0723011 C116.258619,62.186015 151.134537,100.852972 151.430187,142.92437" id="path14"></path>
                    <path d="M162.86653,114.878742 C162.855917,115.131187 162.836207,115.379235 162.821045,115.62986 C162.78769,116.171745 162.746754,116.71181 162.696721,117.25142 C162.670946,117.532066 162.642139,117.814076 162.6103,118.094722 C162.552686,118.612954 162.485976,119.128911 162.4132,119.643505 C162.375296,119.908837 162.340425,120.177202 162.296456,120.440714 C162.200939,121.047795 162.091776,121.648962 161.975032,122.246491 C161.943193,122.405235 161.917418,122.565193 161.885579,122.722118 C161.730931,123.465351 161.559606,124.201611 161.373119,124.933018 C161.315505,125.162265 161.248795,125.389693 161.186632,125.618637 C161.048662,126.128075 160.906144,126.635997 160.754529,127.137854 C160.669624,127.412284 160.583203,127.686713 160.49375,127.959626 C160.346684,128.417514 160.192036,128.87237 160.031324,129.325709 C159.93429,129.600138 159.837256,129.873052 159.735674,130.144449 C159.555252,130.628112 159.3627,131.107226 159.167116,131.581792 C159.076147,131.804671 158.991243,132.02755 158.897241,132.247397 C158.610688,132.919067 158.31049,133.584672 157.99513,134.24118 C157.898096,134.441316 157.794998,134.635388 157.696448,134.834008 C157.46296,135.307058 157.224924,135.774043 156.977791,136.237995 C156.838305,136.497263 156.692755,136.753498 156.550236,137.009733 C156.327362,137.40849 156.099939,137.80573 155.864935,138.199938 C155.710287,138.460722 155.554124,138.721506 155.394928,138.977741 C155.147795,139.376498 154.893081,139.76919 154.636851,140.160365 C154.482203,140.392341 154.33362,140.62735 154.17594,140.856294 C153.783257,141.430928 153.381476,141.999497 152.96605,142.557453 C152.950889,142.575648 152.93876,142.595358 152.925114,142.615068 C152.684046,119.649418 142.753243,99.0246046 134.390143,85.7064377 C127.576551,74.8520709 119.656925,65.6750594 115.089059,62.1344647 C115.938863,62.1772211 116.781692,62.2422654 117.61967,62.3288396 C117.831173,62.3483984 118.040099,62.3832706 118.25039,62.4058618 C118.870496,62.4768192 119.48939,62.5497477 120.102371,62.6426898 C120.389682,62.6865076 120.672747,62.743971 120.958239,62.7908211 C121.488286,62.8819438 122.020001,62.9695793 122.545348,63.07738 C122.866924,63.141363 123.18092,63.2202046 123.498857,63.2911621 C123.983419,63.4007822 124.469043,63.5050957 124.946935,63.6263905 C125.278669,63.7111452 125.606158,63.8083327 125.93486,63.9006683 C126.3938,64.0280279 126.853346,64.1511421 127.306675,64.2921472 C127.640229,64.3934284 127.967718,64.5071422 128.298239,64.6167624 C128.73944,64.7635291 129.182157,64.9075666 129.617293,65.0638853 C129.950846,65.1853317 130.278335,65.3167849 130.608857,65.4441444 C131.031863,65.6092569 131.457902,65.7704274 131.874845,65.9444854 C132.208398,66.0842776 132.535887,66.2342283 132.863376,66.3781142 C133.271222,66.5605113 133.677551,66.7394211 134.079331,66.9300055 C134.408336,67.0846563 134.731277,67.2515883 135.055734,67.4139717 C135.448417,67.6122886 135.842617,67.8095443 136.229236,68.0174132 C136.550661,68.1885905 136.866021,68.3693197 137.182897,68.5464101 C137.563451,68.7618599 137.944005,68.9757936 138.316979,69.2014019 C138.632339,69.3878926 138.940118,69.5833288 139.249413,69.7787651 C139.616322,70.0080122 139.981715,70.2384723 140.341043,70.4795457 C140.647306,70.6815015 140.949021,70.8916447 141.252251,71.102546 C141.603999,71.3483195 141.955747,71.5971254 142.301429,71.8516929 C142.598595,72.0685073 142.891213,72.2929026 143.182314,72.5156302 C143.521933,72.7768688 143.858519,73.0403817 144.190556,73.3104142 C144.478625,73.5420873 144.762146,73.7789153 145.04415,74.0199887 C145.367091,74.2942665 145.690032,74.5720316 146.006908,74.8538903 C146.284364,75.1008768 146.558787,75.3507441 146.828663,75.6042502 C147.139474,75.8938415 147.448769,76.1864651 147.752,76.4850019 C148.017327,76.7432082 148.276589,77.0050533 148.537367,77.2703856 C148.834533,77.5736226 149.127151,77.8815597 149.41522,78.1925292 C149.668417,78.4637746 149.917066,78.7379008 150.165716,79.0139981 C150.44772,79.3307291 150.725176,79.6541313 150.9996,79.9787465 C151.239152,80.2618182 151.477188,80.5473157 151.709159,80.8350876 C151.977518,81.1637965 152.239813,81.5008443 152.499075,81.8372857 C152.724982,82.1327902 152.949373,82.428901 153.169215,82.7286508 C153.420896,83.0697923 153.664997,83.4174535 153.906065,83.7645082 C154.121359,84.0706259 154.33362,84.379776 154.539817,84.6925649 C154.776337,85.0443198 155.002244,85.4032007 155.228151,85.7645075 C155.426767,86.0813901 155.625383,86.3982728 155.817934,86.7180361 C156.037776,87.0846496 156.247006,87.4559633 156.456235,87.8278834 C156.639689,88.1537115 156.823144,88.478175 156.999018,88.8058226 C157.202182,89.1848687 157.394733,89.5698281 157.588801,89.9535744 C157.755578,90.2869835 157.925387,90.6203925 158.084583,90.9556209 C158.269554,91.3464934 158.443911,91.744037 158.619785,92.1396096 C158.769884,92.4795382 158.924532,92.8188604 159.068567,93.1630343 C159.235343,93.5651265 159.389991,93.972677 159.547671,94.3788629 C159.682609,94.727737 159.820578,95.0735788 159.947935,95.4266982 C160.096518,95.8394037 160.232972,96.2575674 160.370942,96.6775506 C160.487686,97.0293055 160.608978,97.3810604 160.718141,97.7364541 C160.84853,98.1640182 160.96679,98.5982535 161.088082,99.0299113 C161.185116,99.3859115 161.288215,99.7376663 161.3807,100.095941 C161.491379,100.537909 161.589929,100.985032 161.688479,101.429122 C161.768835,101.787548 161.855256,102.141122 161.928031,102.501216 C162.022033,102.961378 162.09784,103.42806 162.178197,103.892922 C162.238843,104.243616 162.30707,104.591883 162.360135,104.944245 C162.434426,105.438824 162.490524,105.939317 162.549654,106.439051 C162.59059,106.76776 162.639107,107.096469 162.673979,107.428817 C162.72856,107.979647 162.761915,108.537451 162.801335,109.094194 C162.819529,109.380298 162.849852,109.660944 162.863498,109.948868 C162.90595,110.793989 162.927176,111.643962 162.927176,112.499697 C162.927176,113.29812 162.904434,114.089871 162.86653,114.878742" id="path16"></path>
                    <path d="M88.9489117,86.528513 C82.5859204,97.2856923 72.0415305,118.576262 71.5481742,141.873654 C71.5457484,141.870622 71.5434742,141.867589 71.5410483,141.864557 C70.0723508,139.82074 68.7539041,137.661693 67.5972309,135.407126 C67.572366,135.360124 67.5468946,135.31009 67.5220297,135.260056 C66.4015926,133.05704 65.4415644,130.758503 64.6496777,128.385674 C64.6141997,128.278025 64.5762959,128.171892 64.5418792,128.065759 C64.1681474,126.922556 63.8359583,125.758126 63.5451601,124.580657 C63.5084692,124.430706 63.4764784,124.279694 63.4408488,124.130502 C63.1808285,123.037787 62.9564379,121.933247 62.7693446,120.81506 C62.7485733,120.68952 62.7224955,120.564435 62.7017242,120.438895 C62.5169051,119.276285 62.3807546,118.099574 62.2770497,116.913159 C62.2540042,116.657379 62.2362652,116.399779 62.2179197,116.14324 C62.131499,114.938632 62.0722174,113.725684 62.0722174,112.499697 C62.0722174,111.650937 62.0946565,110.810515 62.1361991,109.971914 C62.1504509,109.687629 62.1781965,109.409257 62.1971484,109.126792 C62.2338393,108.574143 62.2688625,108.022252 62.3226859,107.475515 C62.3564961,107.140893 62.4044065,106.812184 62.4435233,106.481201 C62.5021984,105.990716 62.5572348,105.500988 62.6301617,105.015354 C62.6833787,104.65996 62.7503927,104.307599 62.8107356,103.955238 C62.8883626,103.500382 62.9641703,103.047194 63.0536233,102.597191 C63.1276116,102.226938 63.2134258,101.861538 63.295753,101.495531 C63.391119,101.069028 63.4840592,100.644496 63.5901899,100.222239 C63.6849495,99.8442541 63.7903221,99.4711211 63.894027,99.097988 C64.0047061,98.6940764 64.1159918,98.2895583 64.2374356,97.8904984 C64.3529665,97.5114522 64.4772911,97.1352868 64.6011608,96.7598795 C64.7273047,96.3743137 64.8545099,95.9893544 64.9908121,95.6072758 C65.1269627,95.2251972 65.2714521,94.846151 65.4171544,94.4683178 C65.5569437,94.1047367 65.6985524,93.7393362 65.8465289,93.3798488 C66.0052701,92.9948894 66.1693179,92.6128109 66.3376109,92.2337647 C66.4892262,91.8908037 66.6431158,91.5467814 66.801857,91.2073076 C66.9831889,90.8206805 67.1696757,90.4367825 67.3610142,90.0548556 C67.5202103,89.7338792 67.6844097,89.4151772 67.8513382,89.0982946 C68.0573834,88.7056027 68.2676738,88.3159433 68.4838772,87.9309839 C68.647925,87.6383603 68.8172793,87.3471012 68.9878465,87.056297 C69.2211825,86.6570855 69.4575507,86.2643936 69.7014998,85.8735212 C69.8679734,85.6063695 70.0391471,85.3428565 70.2109272,85.0787372 C70.4726152,84.6770998 70.737942,84.2737947 71.0110012,83.8792834 C71.173836,83.6448812 71.342129,83.4144211 71.508451,83.1804738 C71.8045557,82.7682232 72.1036927,82.3571855 72.4116234,81.9526674 C72.5620258,81.7566247 72.7166734,81.5642209 72.8695017,81.3706041 C73.2076038,80.9412205 73.5475253,80.5135048 73.8994245,80.0953411 C74.0231426,79.9479679 74.1529253,79.804082 74.2790692,79.6571637 C74.669327,79.2035212 75.0620107,78.7551854 75.4675816,78.3150369 C75.5464216,78.2304338 75.6269293,78.1497728 75.7057693,78.0651697 C84.0273271,69.1847239 95.5164321,63.3048077 108.353397,62.2542433 C103.213183,65.967683 95.5121868,75.4314051 88.9489117,86.528513" id="path18"></path>
                    <path d="M151.43322,144.514848 C151.431703,144.51788 151.430187,144.519396 151.430187,144.520913 C150.872243,145.197131 150.296105,145.858188 149.706321,146.502566 C149.56077,146.660249 149.409155,146.810352 149.265121,146.966519 C148.819372,147.439568 148.369074,147.911102 147.905131,148.367473 C147.695902,148.576707 147.477576,148.775327 147.263799,148.980012 C146.851405,149.372704 146.437495,149.763879 146.011456,150.142926 C145.768872,150.358224 145.521739,150.568974 145.274606,150.779723 C144.862212,151.132994 144.446786,151.481717 144.023779,151.821342 C143.761485,152.032092 143.496158,152.239809 143.229315,152.44601 C142.804792,152.773506 142.372689,153.094937 141.937553,153.408788 C141.666161,153.604376 141.39477,153.799963 141.120346,153.989486 C140.667016,154.304853 140.20459,154.60809 139.740647,154.906778 C139.473804,155.078107 139.206961,155.255501 138.93557,155.422281 C138.424626,155.737647 137.906102,156.039368 137.383029,156.338057 C137.149541,156.471481 136.920602,156.609454 136.684082,156.738329 C135.933586,157.152248 135.172478,157.547972 134.397723,157.920954 C134.38711,157.927018 134.376497,157.933083 134.3674,157.937632 C133.577485,158.31971 132.77544,158.67753 131.964298,159.020187 C131.721713,159.120256 131.476096,159.209711 131.235028,159.308263 C130.664954,159.537207 130.091849,159.761602 129.511162,159.970835 C129.200351,160.081517 128.884991,160.184617 128.572663,160.289234 C128.051106,160.465112 127.526518,160.637957 126.994348,160.797156 C126.656246,160.900257 126.312079,160.99426 125.968519,161.08978 C125.45333,161.232301 124.936928,161.368758 124.415675,161.496117 C124.060288,161.58254 123.705054,161.664414 123.346635,161.743255 C122.823714,161.858485 122.298367,161.963102 121.771352,162.061654 C121.411266,162.129882 121.049966,162.196595 120.687454,162.255726 C120.143762,162.346697 119.595976,162.419474 119.046976,162.490734 C118.695835,162.53622 118.346362,162.58777 117.994008,162.625675 C117.38694,162.692387 116.77396,162.739389 116.159766,162.784874 C115.861842,162.804585 115.567557,162.834908 115.26842,162.853103 C114.351602,162.90162 113.429478,162.930428 112.500834,162.930428 C111.57871,162.930428 110.663711,162.903137 109.754626,162.853103 C109.459734,162.837941 109.168329,162.807617 108.875105,162.784874 C108.262125,162.742421 107.649144,162.695419 107.042076,162.630223 C106.700335,162.592319 106.363446,162.543801 106.024131,162.499832 C105.4674,162.428571 104.911275,162.354278 104.360456,162.264823 C104.014015,162.208724 103.671668,162.143528 103.326895,162.079848 C102.786841,161.978264 102.246636,161.873647 101.712495,161.756901 C101.375454,161.682608 101.040839,161.603766 100.706224,161.523409 C100.16617,161.393017 99.6277844,161.255044 99.0940985,161.107974 C98.7784355,161.020035 98.4639853,160.932096 98.1507481,160.838093 C97.5940167,160.672829 97.0419853,160.495435 96.4923798,160.311977 C96.2134076,160.216457 95.9339806,160.12397 95.6568278,160.026934 C95.0532473,159.811636 94.4580056,159.582692 93.8657962,159.346167 C93.6526251,159.261261 93.4376346,159.180903 93.2255247,159.094481 C92.4817,158.785179 91.7456077,158.457683 91.0201284,158.115025 C90.9667599,158.08925 90.9129364,158.066507 90.8601743,158.042248 C89.2315226,157.264446 87.650175,156.403253 86.1234088,155.461702 C86.1097634,155.452605 86.0967245,155.443508 86.0824727,155.434411 C85.3522933,154.982587 84.6356078,154.514086 83.9321127,154.025875 C83.8361402,153.960679 83.7436549,153.890934 83.6495018,153.825738 C83.0271209,153.389077 82.4141403,152.940287 81.8123791,152.479366 C81.6933611,152.385363 81.575556,152.291359 81.4559315,152.197356 C80.8808546,151.747049 80.3151779,151.286129 79.7608723,150.810047 C79.6430672,150.709979 79.5251105,150.606878 79.4085184,150.505294 C78.8540612,150.021631 78.3099138,149.524322 77.7762279,149.017917 C77.6755554,148.922397 77.5730634,148.825361 77.4736038,148.728325 C76.9203595,148.194628 76.3796993,147.645769 75.8514716,147.086297 C75.7815769,147.012004 75.7098629,146.939227 75.6399682,146.864934 C75.0577654,146.240266 74.489208,145.601952 73.9385412,144.948477 C73.9324766,144.940896 73.9248958,144.933315 73.9189828,144.925734 C88.3567023,149.956435 100.146612,152.239809 111.842369,152.239809 C123.880927,152.239809 136.144332,149.839689 151.43322,144.514848" id="path20"></path>
                    <path d="M60.9866518,153.712025 L61.6860532,154.539862 C62.3854546,155.369215 63.486485,155.755842 64.5708377,154.83855 C65.7458564,153.846965 65.4847748,152.620372 64.5940348,151.566623 L64.1491955,151.040507 L60.9866518,153.712025 Z M60.0633146,155.369215 L59.6309077,154.856744 L56.7691687,157.275059 L57.1512393,157.726882 C57.8630732,158.569881 58.7811039,158.801857 59.7452256,157.987666 C60.8906793,157.02034 60.6614369,156.075757 60.0633146,155.369215 Z M65.9964765,150.200541 C67.7903888,152.324716 68.3742594,154.697545 66.2202607,156.516966 C65.5125204,157.114343 64.6319387,157.446388 63.7169403,157.341771 C62.8580396,157.240187 62.2925144,156.817171 62.058572,156.600357 L62.0284006,156.626132 C62.4702076,157.699591 62.1977549,158.935281 61.0529077,159.902607 C59.1411902,161.517344 57.2181017,160.586406 55.5509397,158.615366 L53.9359334,156.701941 L64.1764863,148.049075 L65.9964765,150.200541" id="path22"></path>
                    <path d="M68.4282344,163.213955 L67.8992486,162.771229 L65.2164157,165.973411 L65.7607147,166.429782 C66.6976973,167.21365 67.7743176,167.216682 68.647925,166.175063 C69.5463973,165.101605 69.3953885,164.023597 68.4282344,163.213955 L68.4282344,163.213955 Z M72.6573919,157.090084 L69.0506153,161.394533 L69.2928965,161.597702 C69.6234179,161.847872 69.962733,161.900939 70.3470778,161.813 C70.660315,161.715964 70.9429259,161.591637 71.2508566,161.440018 L75.493053,159.414396 L77.4717844,161.226236 L72.9530417,163.121467 C71.6565792,163.655164 71.1140996,163.844687 70.5745007,163.599065 L70.5620683,163.612711 C71.1175868,164.207056 71.8573179,166.085609 70.3642103,167.868642 C68.5295134,170.059529 66.3790019,169.31205 64.49033,167.729153 L62.2397523,165.844535 L70.8445276,155.572383 L72.6573919,157.090084" id="path24"></path>
                    <path d="M78.5449176,173.849991 L82.3672911,169.733549 L79.8894421,168.390209 L78.5106525,173.831796 L78.5449176,173.849991 Z M81.1781722,163.326152 L80.3447429,166.643565 L83.5506486,168.379596 L85.8906793,165.880924 L88.1310987,167.207585 L78.1676987,176.985461 L76.1575829,175.89684 L78.9298688,162.22237 L81.1781722,163.326152" id="path26"></path>
                    <path d="M93.4003372,168.629767 C95.5922397,169.345406 96.7968234,171.375577 95.8314887,174.336686 L93.0532897,182.860677 L90.8228769,182.13594 L93.5283005,173.834829 C94.1453748,171.941114 93.8089405,171.002596 92.7967566,170.673584 C91.7847245,170.343055 90.9223366,170.890398 90.3052623,172.784113 L87.5998387,181.085224 L85.3131766,180.340778 L88.0618105,171.907758 C89.0265387,168.946649 91.0953296,167.879255 93.4003372,168.629767" id="path28"></path>
                    <polyline id="path30" points="102.195845 171.048081 100.993535 180.178546 101.008242 180.220999 106.645905 171.536293 108.779133 171.957792 107.155181 185.16831 105.02256 184.90601 106.226083 175.755835 106.204705 175.772513 100.572348 184.419315 98.4385139 183.997815 100.062466 170.785781 102.195845 171.048081"></polyline>
                    <path d="M118.123033,175.028066 C118.286019,178.492548 113.980296,179.661527 114.078088,181.747797 C114.128424,182.792448 114.916066,183.22911 115.902172,183.182108 C116.749095,183.142687 117.696691,182.762125 117.696691,182.762125 L118.336356,184.589127 C118.336356,184.589127 117.0452,185.239571 115.529046,185.310831 C113.894482,185.388157 111.780055,184.481478 111.652849,181.805412 C111.495776,178.45616 115.762989,177.328119 115.659284,175.123586 C115.617893,174.198713 114.800535,173.645306 113.79669,173.692307 C112.715824,173.742342 111.652849,174.247231 111.652849,174.247231 L110.990594,172.323193 C110.990594,172.323193 112.434578,171.5651 114.107653,171.487775 C115.919911,171.401352 117.998708,172.370194 118.123033,175.028066" id="path32"></path>
                    <path d="M124.279524,170.209631 C125.671201,169.938234 127.112608,170.341539 127.112608,170.341539 L126.810893,172.408099 C126.810893,172.408099 125.99399,172.224641 125.161925,172.385356 C123.556925,172.69769 122.564907,174.51408 123.133464,177.453962 C123.666543,180.201289 125.478801,181.896383 127.317288,181.54008 C128.052623,181.399075 128.615115,181.088257 128.615115,181.088257 L129.544517,182.894033 C129.544517,182.894033 128.560534,183.506571 127.246029,183.762807 C124.362458,184.320763 121.469334,181.911545 120.705345,177.964916 C119.876161,173.690791 121.552116,170.737263 124.279524,170.209631" id="path34"></path>
                    <polyline id="path36" points="131.362385 168.476632 133.500161 173.969769 137.19351 172.532426 135.055734 167.039289 137.314802 166.159902 142.177105 178.650232 139.918037 179.531135 137.966748 174.515596 134.273399 175.952939 136.224688 180.965446 133.983814 181.840284 129.121511 169.348438 131.362385 168.476632"></polyline>
                    <polyline id="path38" points="142.594047 163.145726 149.345477 169.935202 149.378832 169.913975 145.87197 160.989712 147.897551 159.658501 157.749513 169.15285 155.726965 170.599291 148.62682 163.025948 148.593465 163.047174 152.588528 172.49907 150.562948 173.83028 143.485545 166.402491 143.453706 166.425234 147.557932 175.971133 145.377704 177.285665 140.58666 164.466323 142.594047 163.145726"></polyline>
                    <polyline id="path40" points="155.43738 152.694665 156.885306 154.19872 153.862097 157.112827 156.56843 159.92535 159.13831 157.450936 160.398233 158.756371 157.826837 161.232301 160.287554 163.788589 163.242536 160.945742 164.664688 162.422506 160.048001 166.864927 150.749434 157.206831 155.43738 152.694665"></polyline>
                    <polyline id="path42" points="158.612204 148.782908 169.041822 157.19925 167.531733 159.070222 157.102116 150.655396 158.612204 148.782908"></polyline>
                    <path d="M162.831658,142.072274 C163.900546,140.278628 165.450055,139.5266 165.450055,139.5266 L170.614072,142.602939 L169.414795,144.616432 L165.50312,142.286056 C165.50312,142.286056 165.233245,142.469515 165.011887,142.842496 C164.043065,144.469362 164.792044,146.407046 167.364956,147.938393 C169.769575,149.372704 172.19542,149.233215 173.302212,147.369824 C173.808607,146.523793 173.942028,145.914286 173.942028,145.914286 L175.920608,146.40553 C175.920608,146.40553 175.721992,147.547217 174.913883,148.902687 C173.270373,151.662143 169.583088,152.151871 166.130808,150.095924 C162.387426,147.865616 161.256375,144.714984 162.831658,142.072274" id="path44"></path>
                    <polyline id="path46" points="168.318617 130.546238 170.263841 131.301298 168.747688 135.21457 172.384939 136.623106 173.672153 133.299629 175.36418 133.956137 174.07545 137.28113 177.380664 138.563823 178.863461 134.741521 180.773814 135.484451 178.458648 141.453671 165.967063 136.607944 168.318617 130.546238"></polyline>
                    <path d="M180.835976,128.240121 L180.981527,127.544192 C181.227144,126.347922 180.717717,125.39879 179.38805,125.125574 C178.017448,124.84235 177.141111,125.486729 176.886398,126.720903 L176.746912,127.397122 L180.835976,128.240121 Z M169.492119,125.900647 L174.991206,127.034754 L175.056401,126.725452 C175.118563,126.316082 175.004852,125.991619 174.744073,125.697479 C174.510586,125.465502 174.268001,125.276586 173.985997,125.078117 L170.192582,122.302741 L170.850592,119.703394 L174.662201,122.782462 C175.746251,123.669733 176.169257,124.058786 176.207161,124.649947 L176.225355,124.654647 C176.486133,123.882909 177.788509,122.341252 180.065771,122.810966 C182.864589,123.387268 183.225434,125.635315 182.728136,128.046049 L182.13532,130.920735 L169.014531,128.215862 L169.492119,125.900647" id="path48"></path>
                    <polyline id="path50" points="182.500713 112.166894 182.32029 109.236412 170.950658 109.945229 170.803591 107.547231 182.168675 106.837656 181.988253 103.926733 183.992607 103.802406 184.508099 112.042415 182.500713 112.166894"></polyline>
                    <polyline id="path52" points="168.837141 96.1913102 170.877883 95.7423679 171.779994 99.8419799 175.591603 99.0032264 174.824429 95.5196403 176.595296 95.1299808 177.36247 98.6141734 180.82688 97.8519873 179.944478 93.8481982 181.945801 93.4088079 183.323984 99.664283 170.235034 102.542002 168.837141 96.1913102"></polyline>
                    <polyline id="path54" points="167.364956 91.9168821 175.899382 88.4675617 175.929705 88.4343573 165.600154 87.8066568 164.916369 85.7431293 177.20479 80.6532971 178.028061 82.6361635 169.476958 86.0932164 169.502732 86.1038297 179.794379 86.7482082 180.478164 88.8105227 168.188227 93.9015679 167.364956 91.9168821"></polyline>
                    <polyline id="path56" points="162.200939 81.3355802 169.88177 76.2681875 169.902997 76.2302829 159.656834 77.6559514 158.578849 75.7676949 169.619476 68.3491544 170.815721 70.1335523 163.118211 75.2115583 163.145502 75.2164101 173.358309 73.8139392 174.436294 75.6996182 163.397184 83.1183103 162.200939 81.3355802"></polyline>
                    <polyline id="path58" points="154.45188 71.4104831 164.300811 62.3164069 165.932192 64.0842783 156.083261 73.1766867 154.45188 71.4104831"></polyline>
                    <path d="M150.972309,63.5489135 C150.379493,64.2631881 150.609948,65.2202039 151.386219,65.8610952 C152.218587,66.5527787 153.343572,66.8939203 153.343572,66.8939203 L152.541527,68.7601921 C152.541527,68.7601921 150.963212,68.3491544 149.67145,67.281912 C148.276589,66.1252146 147.391155,64.0131692 149.086215,61.9634391 C151.298282,59.2928312 155.269087,61.3249737 156.598753,59.7163016 C157.264344,58.9125721 156.974759,58.0574439 156.216683,57.4295917 C155.561704,56.8901332 154.605012,56.5323136 154.605012,56.5323136 L155.360056,54.7538289 C155.360056,54.7538289 156.754917,55.1406076 157.925387,56.1076303 C159.183794,57.1506138 160.137454,59.2431003 158.42875,61.3082956 C156.294006,63.8870227 152.377783,61.8497252 150.972309,63.5489135" id="path60"></path>
                    <path d="M137.361803,59.3160288 C135.286189,58.3150437 134.365884,56.1426541 135.718293,53.3389252 L139.61329,45.2652414 L141.723775,46.2844208 L137.933392,54.1443226 C137.069185,55.9376659 137.276898,56.9113598 138.232075,57.3739478 C139.191799,57.8377487 140.119685,57.4083652 140.983892,55.6179026 L144.777307,47.7561813 L146.942374,48.8009842 L143.089829,56.7852132 C141.735904,59.5889421 139.545063,60.3696256 137.361803,59.3160288" id="path62"></path>
                    <path d="M130.246496,56.3925214 C129.497517,56.1455349 129.109381,55.3739484 129.354998,54.6264694 C129.600615,53.8761095 130.385982,53.4496067 131.134962,53.6965932 C131.883942,53.9441862 132.259947,54.7538289 132.014331,55.5023693 C131.765682,56.2516678 130.992443,56.6395079 130.246496,56.3925214" id="path64"></path>
                    <polyline id="path66" points="120.178178 53.803181 120.814811 47.9428237 116.876452 47.5152596 116.239667 53.3737975 113.829287 53.1131653 115.277365 39.7874174 117.687745 40.0497174 117.107362 45.4001818 121.045873 45.8278975 121.626256 40.4774331 124.015865 40.7368523 122.57082 54.0619938 120.178178 53.803181"></polyline>
                    <path d="M109.148771,46.4847088 C108.937874,43.6341298 107.886725,41.9917985 106.471245,42.0965668 C105.172356,42.1919348 104.239012,44.0025627 104.458097,46.9513904 C104.6696,49.8030308 105.739852,51.4436943 107.155788,51.3393808 C108.45407,51.242345 109.367855,49.4347495 109.148771,46.4847088 L109.148771,46.4847088 Z M107.326355,53.6391298 C104.593186,53.8422986 102.321988,51.4785665 101.999806,47.133181 C101.680504,42.8257001 103.50762,40.0030189 106.300071,39.79515 C109.03324,39.5919812 111.306257,41.975272 111.626165,46.3010988 C111.945922,50.6085797 110.118806,53.4312609 107.326355,53.6391298" id="path68"></path>
                    <path d="M96.1015155,55.5527066 C94.7245453,55.8968806 93.2605479,55.5740848 93.2605479,55.5740848 L93.4512799,53.4905437 C93.4512799,53.4905437 94.2792511,53.630336 95.1013093,53.4253478 C96.6896313,53.0267428 97.58401,51.1557708 96.8554985,48.24788 C96.1755038,45.5305737 94.2715188,43.9343344 92.453348,44.3891898 C91.7266558,44.571132 91.1817504,44.9104541 91.1817504,44.9104541 L90.152434,43.1550154 C90.152434,43.1550154 91.1047298,42.4910781 92.4052859,42.1647951 C95.2564118,41.4505205 98.2797727,43.7022065 99.257085,47.6063823 C100.314753,51.8351732 98.7992067,54.878156 96.1015155,55.5527066" id="path70"></path>
                    <polyline id="path72" points="89.1314565 57.6812784 86.4017745 51.4922122 86.3834291 51.4999447 86.0439624 59.0867817 83.5494357 60.0788214 84.0209593 52.3491598 78.2406256 47.8930928 80.4200957 46.8240309 86.3437058 51.4086704 86.3620513 51.4027573 83.7200029 45.4109467 85.9220637 44.4407401 91.3333657 56.7112234 89.1314565 57.6812784"></polyline>
                    <polyline id="path74" points="76.5064497 64.7043979 75.3687284 62.9518399 78.8913585 60.66513 76.76647 57.3904742 73.7726741 59.3325552 72.7847487 57.8104574 75.7785446 55.8677698 73.8466623 52.8905894 70.4063594 55.1233231 69.2898642 53.4029082 74.6650818 49.9138639 81.9646009 61.1625903 76.5064497 64.7043979"></polyline>
                    <polyline id="path76" points="73.4623175 67.2332425 71.658247 68.8252365 67.9135004 64.5829515 60.2232687 61.1140724 62.0355265 59.3822861 67.4776064 62.3910032 67.507323 62.3631054 65.2141415 56.5779508 67.214099 54.9688239 69.7169645 62.9897445 73.4623175 67.2332425"></polyline>
                    <path d="M66.2369383,74.8645036 C65.3076881,75.9378108 63.9235919,76.5122932 63.9235919,76.5122932 L62.8853303,74.7004524 C62.8853303,74.7004524 63.6421939,74.3380843 64.1972576,73.6984059 C65.2685714,72.4611991 64.926224,70.4172305 62.6621526,68.4557422 C60.5459061,66.6226748 58.0709378,66.4070734 56.8449764,67.8231899 C56.3546525,68.3899398 56.1035775,68.9798873 56.1035775,68.9798873 L54.2538707,68.1341594 C54.2538707,68.1341594 54.6514061,67.0437194 55.5291071,66.0310596 C57.4520441,63.8100005 61.2199877,63.9171947 64.2588134,66.5527787 C67.5517463,69.4062385 68.0573834,72.7644361 66.2369383,74.8645036" id="path78"></path>
                    <polyline id="path80" points="59.5438805 84.1435544 57.776046 83.0306748 59.9602161 79.5599762 50.3860126 73.5313224 51.6676168 71.4952378 63.0096549 78.6384391 59.5438805 84.1435544"></polyline>
                    <path d="M57.23766,89.7729968 C56.3499524,91.9003557 54.2302188,92.9384874 51.3572603,91.7391852 L43.0836128,88.2869841 L43.9867852,86.1221755 L52.0425614,89.4850733 C53.8790777,90.2508983 54.8413801,89.991479 55.2513479,89.0088397 C55.661164,88.026352 55.1837274,87.1225542 53.3472112,86.3555164 L45.2920414,82.9939831 L46.2178045,80.7776242 L54.400786,84.1920723 C57.2732896,85.3913745 58.1710039,87.5382921 57.23766,89.7729968" id="path82"></path>
                    <path d="M48.075092,97.5925681 L47.8481239,98.6526845 C47.6219139,99.7128009 47.9897326,100.819161 49.3779224,101.116485 C50.8804301,101.436248 51.6889945,100.481507 51.9779733,99.1324054 L52.1212498,98.4572483 L48.075092,97.5925681 Z M42.6791032,96.4411774 L42.5552335,97.0174793 C42.3249298,98.0977609 42.7039681,98.963654 43.9376618,99.2271669 C45.4016593,99.5410172 46.0075141,98.7829248 46.2005203,97.8785206 L46.3403097,97.2217093 L42.6791032,96.4411774 Z M53.9145557,99.4048638 C53.3329593,102.12217 51.8161998,104.03514 49.0610464,103.445193 C48.1549933,103.253396 47.3537064,102.758816 46.8768762,101.972219 C46.4309756,101.232018 46.4208174,100.524263 46.4481081,100.20738 L46.4095979,100.200254 C45.8316403,101.20412 44.6886125,101.745398 43.2244634,101.433367 C40.7767859,100.91089 40.3367982,98.8214359 40.8762455,96.2972915 L41.3985603,93.8500177 L54.5026715,96.6490464 L53.9145557,99.4048638" id="path84"></path>
                    <polyline id="path86" points="52.6425032 118.38492 50.5559733 118.463761 50.3978386 114.269388 46.5002638 114.417519 46.6335337 117.979947 44.8223372 118.048023 44.6886125 114.485596 41.1452111 114.618868 41.2984942 118.713628 39.251081 118.790651 39.0106191 112.39129 52.3984026 111.888523 52.6425032 118.38492"></polyline>
                    <path d="M50.5985772,122.310474 C50.4742527,121.532822 51.0202194,120.826887 51.7984608,120.70256 C52.5767022,120.5799 53.2761036,121.086306 53.3999733,121.86517 C53.5242979,122.642215 53.0172963,123.342844 52.2390549,123.465351 C51.4609651,123.58983 50.7224469,123.088125 50.5985772,122.310474" id="path88"></path>
                    <polyline id="path90" points="54.8384994 129.190768 42.9081939 136.162186 42.1631563 133.793905 51.6918752 128.879951 51.6818686 128.842046 40.966305 129.380291 40.3800086 126.845231 54.1988344 126.833101 54.8384994 129.190768"></polyline>
                    <path d="M54.8350122,133.070685 C55.5686787,132.784126 56.3593525,133.132849 56.6448442,133.866682 C56.9297293,134.603548 56.5808625,135.391964 55.8464379,135.678523 C55.1115585,135.963566 54.2848003,135.628489 53.9999151,134.894655 C53.7144235,134.159306 54.0993747,133.354212 54.8350122,133.070685" id="path92"></path>
                    <path d="M112.500834,59.1340867 C83.0768508,59.1340867 59.1381579,83.0726731 59.1381579,112.499697 C59.1381579,141.923688 83.0768508,165.864246 112.500834,165.864246 C141.923907,165.864246 165.860932,141.923688 165.860932,112.499697 C165.860932,83.0726731 141.923907,59.1340867 112.500834,59.1340867 Z M167.377085,112.499697 C167.377085,142.760622 142.760824,167.38043 112.500834,167.38043 C82.2405407,167.38043 57.6220048,142.760622 57.6220048,112.499697 C57.6220048,82.2375585 82.2405407,57.6179019 112.500834,57.6179019 C142.760824,57.6179019 167.377085,82.2375585 167.377085,112.499697" id="path94"></path>
                    <path d="M156.659399,43.5701468 C143.520417,34.9509396 128.254271,30.3948044 112.497953,30.3948044 C96.957384,30.3948044 81.8555895,34.8431389 68.8256181,43.2579644 L68.5696915,43.4250479 L54.1894342,20.8611862 L54.0264478,20.6064672 L54.2799486,20.4442354 C71.6647664,9.24872708 91.795944,3.32908689 112.497953,3.32908689 C133.483483,3.32908689 153.840871,9.39382596 171.372149,20.8652799 L171.625346,21.0293311 L156.914113,43.7382917 L156.659399,43.5701468" id="path96"></path>
                    <path d="M68.5696915,181.573436 L68.8256181,181.740216 C81.8574088,190.156558 96.9590517,194.605044 112.505686,194.605044 C128.249723,194.605044 143.5189,190.047393 156.659399,181.426366 L156.914113,181.259586 L171.625346,203.970517 L171.372149,204.134265 C153.839354,215.604203 133.481967,221.667426 112.497953,221.667426 C91.7982182,221.667426 71.6671923,215.749757 54.2799486,204.554248 L54.0264478,204.392017 L68.4056437,181.831187 L68.5696915,181.573436" id="path98"></path>
                    <path d="M30.3934114,112.501516 C30.3934114,128.247701 34.950816,143.517198 43.5721173,156.66252 L43.7398039,156.918755 L21.031166,171.630296 L20.8666634,171.377093 C9.39469104,153.845449 3.33068512,133.484604 3.33068512,112.501516 C3.33068512,91.798468 9.24853388,71.6670216 20.4448696,54.2794147 L20.6078561,54.0259086 L43.426415,68.5735498 L43.2606995,68.8300882 C34.842411,81.8615447 30.3934114,96.9628966 30.3934114,112.501516" id="path100"></path>
                    <path d="M204.039183,171.316446 L203.934569,171.474129 L181.413631,156.883883 L181.518245,156.7262 C190.154253,143.565716 194.717874,128.273477 194.717874,112.501516 C194.717874,96.9398506 190.263416,81.8159075 181.833605,68.7677731 L181.732023,68.6073607 L204.196863,54.2835084 L204.357576,54.1834402 L204.459158,54.3415782 C215.642303,71.7090199 221.552268,91.8215141 221.552268,112.501516 C221.552268,133.463377 215.496752,153.80148 204.039183,171.316446" id="path102"></path>
                    <path d="M204.398512,50.2916971 L180.068803,67.1427262 L179.638216,66.5148741 C174.026933,58.3333895 167.040499,51.3057215 158.874499,45.6276095 L158.249844,45.1941323 L175.232275,20.9671675 C156.704884,8.24016097 135.028443,1.51618477 112.497953,1.51618477 C90.193825,1.51618477 68.7006871,8.11280145 50.291253,20.5987346 L67.1435979,44.9288 L66.515304,45.3593964 C58.2078464,51.058735 51.0901141,58.1758579 45.3613296,66.5160871 L44.9307421,67.1439392 L20.5989108,50.2916971 C8.11141906,68.7009093 1.5161531,90.1928284 1.5161531,112.501516 C1.5161531,135.02808 8.24105015,156.704973 20.9690038,175.235784 L45.2003141,158.251482 L45.6349952,158.87615 C51.2879721,167.010481 58.3156449,173.990996 66.5240977,179.628171 L67.1513303,180.058767 L50.291253,204.399598 C68.7000807,216.885379 90.1932186,223.483815 112.497953,223.483815 C135.026927,223.483815 156.703368,216.75802 175.232275,204.031165 L158.249844,179.802532 L158.874499,179.368903 C166.899497,173.787827 173.793445,166.892219 179.365308,158.87615 L179.798928,158.251482 L204.030087,175.235784 C216.758192,156.70649 223.483847,135.029596 223.483847,112.501516 C223.483847,90.1928284 216.887065,68.7027287 204.398512,50.2916971 L204.398512,50.2916971 Z M204.841228,176.729226 L204.407609,177.352378 L180.173418,160.365043 C174.722847,168.058165 168.062387,174.717248 160.361845,180.175514 L177.347308,204.408695 L176.724169,204.842324 C157.802579,218.028582 135.592452,225 112.497953,225 C89.6301193,225 67.6049633,218.158974 48.803452,205.219854 L48.1768259,204.789257 L65.0399355,180.443878 C57.1571523,174.926482 50.3623606,168.177943 44.8271889,160.365043 L20.5923913,177.352378 L20.1577102,176.729226 C6.97066547,157.802691 0,135.595133 0,112.501516 C0,89.6307787 6.83982146,67.6047077 19.778672,48.8056844 L20.2103208,48.1796517 L44.5457909,65.0337132 C50.1579832,57.0173411 57.0446537,50.1294653 65.0315966,44.5438407 L48.1768259,20.2090751 L48.803452,19.7784787 C67.6055697,6.83935787 89.6307258,0 112.497953,0 C135.593968,0 157.804095,6.96974976 176.724169,20.1557054 L177.347308,20.5893343 L160.361845,44.8209992 C168.206421,50.3793326 174.959367,57.171992 180.453906,65.0318938 L204.788163,48.1796517 L205.218751,48.8056844 C218.159117,67.6063755 225,89.6319916 225,112.501516 C225,135.596649 218.028728,157.804207 204.841228,176.729226" id="path104"></path>
                    <path d="M112.509779,34.7614165 L112.068579,34.7614165 C91.3044072,34.8781628 71.8277529,43.073293 57.2264405,57.83881 C42.626341,72.6038721 34.6494048,92.1685687 34.7641432,112.932113 C35.0041846,155.558738 69.8732799,190.238432 112.494921,190.238432 L112.936121,190.238432 C133.698777,190.121686 153.172247,181.926707 167.772801,167.1621 C182.37184,152.397492 190.348321,132.832644 190.232841,112.068494 C189.995057,69.4412623 155.129601,34.7614165 112.509779,34.7614165 L112.509779,34.7614165 Z M168.850786,168.227978 C153.965195,183.28066 134.112687,191.634838 112.945067,191.754617 L112.494921,191.754617 C69.0418216,191.754617 33.493338,156.398704 33.2479624,112.940907 C33.1308258,91.7729961 41.2642291,71.8245532 56.1486073,56.773387 C71.0346532,41.71934 90.8903457,33.3648587 112.059633,33.2452318 L112.509779,33.2452318 C155.960453,33.2452318 191.506662,68.6008411 191.749002,112.060306 C191.86599,133.228368 183.734861,153.176811 168.850786,168.227978" id="path106"></path>
                </g>
            </g>
        </g>
    </g>
</svg>