<?xml version="1.0" encoding="UTF-8" standalone="no"?>
<!DOCTYPE svg PUBLIC "-//W3C//DTD SVG 1.1//EN" "http://www.w3.org/Graphics/SVG/1.1/DTD/svg11.dtd">
<svg width="200px" height="197px" viewBox="0 0 200 197" version="1.1" xmlns="http://www.w3.org/2000/svg" xmlns:xlink="http://www.w3.org/1999/xlink">
    <g id="NHV" stroke="none" stroke-width="1" fill="none" fill-rule="evenodd">
        <g id="289-DTVH">
            <path d="M99.5641128,150.083109 C128.519092,150.083109 151.992054,126.610147 151.992054,97.6551678 C151.992054,68.6994251 128.519092,45.2272267 99.5641128,45.2272267 C70.6091341,45.2272267 47.1361718,68.6994251 47.1361718,97.6551678 C47.1361718,126.610147 70.6091341,150.083109 99.5641128,150.083109" id="Fill-1" fill="#CBCCCB"></path>
            <path d="M117.051554,127.550685 C118.926518,122.665387 124.405478,120.225794 129.290776,122.101522 C134.17531,123.976487 136.615667,129.456211 134.740703,134.341509 C132.865738,139.226042 127.386014,141.665635 122.50148,139.790671 C117.616182,137.914943 115.17659,132.435219 117.051554,127.550685" id="Fill-2" fill="#D8232A"></path>
            <path d="M117.051554,127.550685 C118.926518,122.665387 124.405478,120.225794 129.290776,122.101522 C134.17531,123.976487 136.615667,129.456211 134.740703,134.341509 C132.865738,139.226042 127.386014,141.665635 122.50148,139.790671 C117.616182,137.914943 115.17659,132.435219 117.051554,127.550685 Z" id="Stroke-3" stroke="#FFFFFE" stroke-width="1.395"></path>
            <path d="M56.7188127,53.030409 C56.7188127,53.030409 119.524765,130.253873 121.849751,132.515443 C124.174737,134.77625 128.820125,140.207075 131.364392,138.332875 C133.907894,136.458675 132.254503,134.681508 131.977155,134.063397 C131.879357,133.846408 129.105877,129.175042 132.231582,126.409203 C135.424522,123.584532 138.194182,123.220083 141.629324,125.111092 C143.605142,126.199091 147.857811,131.257827 147.327565,137.733864 C146.848509,143.591026 143.672378,147.562527 139.340248,150.232862 C135.008882,152.903196 129.072259,155.58499 119.391821,149.018031 C109.711382,142.451837 50.7470073,62.0629381 50.7470073,62.0629381 C50.7470073,62.0629381 50.7164823,59.5683342 52.4172445,56.5625848 C54.1218268,53.550723 56.7188127,53.030409 56.7188127,53.030409" id="Fill-4" fill="#D8232A"></path>
            <path d="M56.7188127,53.030409 C56.7188127,53.030409 119.524765,130.253873 121.849751,132.515443 C124.174737,134.77625 128.820125,140.207075 131.364392,138.332875 C133.907894,136.458675 132.254503,134.681508 131.977155,134.063397 C131.879357,133.846408 129.105877,129.175042 132.231582,126.409203 C135.424522,123.584532 138.194182,123.220083 141.629324,125.111092 C143.605142,126.199091 147.857811,131.257827 147.327565,137.733864 C146.848509,143.591026 143.672378,147.562527 139.340248,150.232862 C135.008882,152.903196 129.072259,155.58499 119.391821,149.018031 C109.711382,142.451837 50.7470073,62.0629381 50.7470073,62.0629381 C50.7470073,62.0629381 50.7164823,59.5683342 52.4172445,56.5625848 C54.1218268,53.550723 56.7188127,53.030409 56.7188127,53.030409 Z" id="Stroke-5" stroke="#FFFFFE" stroke-width="1.395"></path>
            <path d="M145.279927,51.4900961 C155.205623,61.0750291 155.527286,79.477795 141.366493,94.1413291 C130.583539,105.307833 119.501079,105.722709 103.615075,110.436097 C98.2262717,112.034477 90.2840334,115.43753 87.4288006,117.03973 C85.2932974,118.237751 83.5955915,119.614559 82.8750979,120.231906 L82.651233,121.047142 L61.0616393,143.403071 L60.8446507,144.192329 L58.7381812,146.372911 L53.4746815,141.289726 L55.580387,139.109144 L56.3620041,138.86465 L77.9508338,116.507956 L78.7569003,116.255057 C79.3497985,115.513934 80.6654824,113.769622 81.7886272,111.593624 C83.2907379,108.684144 86.4141501,100.628063 87.8238114,95.1865414 C91.9786832,79.1454358 92.0069528,68.0553359 102.790671,56.8888316 C116.9507,42.2252975 135.353466,41.904399 145.279927,51.4900961 Z" id="Stroke-6" stroke="#FFFFFE" stroke-width="3.078"></path>
            <path d="M145.279927,51.4900961 C155.205623,61.0750291 155.527286,79.477795 141.366493,94.1413291 C130.583539,105.307833 119.501079,105.722709 103.615075,110.436097 C98.2262717,112.034477 90.2840334,115.43753 87.4288006,117.03973 C85.2932974,118.237751 83.5955915,119.614559 82.8750979,120.231906 L82.651233,121.047142 L61.0616393,143.403071 L60.8446507,144.192329 L58.7381812,146.372911 L53.4746815,141.289726 L55.580387,139.109144 L56.3620041,138.86465 L77.9508338,116.507956 L78.7569003,116.255057 C79.3497985,115.513934 80.6654824,113.769622 81.7886272,111.593624 C83.2907379,108.684144 86.4141501,100.628063 87.8238114,95.1865414 C91.9786832,79.1454358 92.0069528,68.0553359 102.790671,56.8888316 C116.9507,42.2252975 135.353466,41.904399 145.279927,51.4900961" id="Fill-7" fill="#FFFFFE"></path>
            <path d="M145.279927,51.4900961 C155.205623,61.0750291 155.527286,79.477795 141.366493,94.1413291 C130.583539,105.307833 119.501079,105.722709 103.615075,110.436097 C98.2262717,112.034477 90.2840334,115.43753 87.4288006,117.03973 C85.2932974,118.237751 83.5955915,119.614559 82.8750979,120.231906 L82.651233,121.047142 L61.0616393,143.403071 L60.8446507,144.192329 L58.7381812,146.372911 L53.4746815,141.289726 L55.580387,139.109144 L56.3620041,138.86465 L77.9508338,116.507956 L78.7569003,116.255057 C79.3497985,115.513934 80.6654824,113.769622 81.7886272,111.593624 C83.2907379,108.684144 86.4141501,100.628063 87.8238114,95.1865414 C91.9786832,79.1454358 92.0069528,68.0553359 102.790671,56.8888316 C116.9507,42.2252975 135.353466,41.904399 145.279927,51.4900961 Z" id="Stroke-8" stroke="#FFFFFE" stroke-width="3.078"></path>
            <path d="M145.287567,51.4908601 C155.214028,61.0757932 155.534926,79.478559 141.374897,94.1420931 C130.591179,105.308597 119.509484,105.724237 103.622715,110.436861 C98.2339121,112.036006 90.2916738,115.438294 87.4364411,117.040494 C85.3009379,118.23928 83.603996,119.615323 82.8835024,120.233435 L82.6588734,121.047906 L61.0692797,143.4046 L60.8522912,144.193093 L58.7465857,146.373675 L53.4823219,141.29049 L55.5887915,139.109908 L56.3696445,138.865414 L77.9592382,116.509484 L78.7653048,116.256585 C79.3574389,115.514698 80.6731228,113.770386 81.7970317,111.594388 C83.2983783,108.684908 86.4217905,100.628827 87.8314519,95.1880695 C91.9870877,79.1461998 92.0153573,68.0560999 102.799076,56.8895956 C116.959105,42.2268256 135.36187,41.905163 145.287567,51.4908601 Z M95.1930166,76.4819781 L96.0204764,75.717934 L95.5162073,75.1724065 C95.4038928,75.6048555 95.2953985,76.0403606 95.1930166,76.4819781 Z M148.352148,78.8100204 L147.844059,79.2791435 L147.192329,79.8796822 L147.724868,80.4565354 C147.951025,79.9102439 148.158081,79.3608962 148.352148,78.8100204 Z M149.296506,75.5918668 L148.621855,75.0119573 L147.131205,76.3872366 L148.627204,78.0108303 C148.886979,77.20782 149.106259,76.4002254 149.296506,75.5918668 Z M148.781541,61.3905793 L148.377361,61.0437033 L146.884419,62.4205108 L147.639295,63.239566 L148.432373,64.0991156 L149.29345,63.0974538 C149.144462,62.5183084 148.972552,61.9498596 148.781541,61.3905793 Z M147.471969,58.3321109 L146.823296,58.9295933 L148.371249,60.6081982 L148.45835,60.5065803 C148.167249,59.7593452 147.837946,59.0335033 147.471969,58.3321109 Z M136.166409,48.6363914 L136.164117,48.6394476 L137.71207,50.3172884 L138.373732,49.5463679 C137.659351,49.2048402 136.922812,48.9015147 136.166409,48.6363914 Z M133.54803,47.8922125 L132.671671,48.6998071 L133.389109,49.478368 L134.219624,50.3784119 L135.711039,48.6440319 L135.410005,48.3850209 C134.800298,48.196302 134.179894,48.0312685 133.54803,47.8922125 Z M130.617157,47.4368422 L129.856169,48.1397628 L129.17999,48.7616946 L130.727179,50.4395355 L131.411762,49.6418734 L132.219357,48.7043913 L130.758505,47.4483029 C130.711134,47.4437186 130.663763,47.4414265 130.617157,47.4368422 Z M125.85105,47.4383703 C125.342196,47.4865051 124.833343,47.5514488 124.32449,47.6286173 L125.462151,48.6065937 L126.799228,47.3726625 C126.483678,47.3909996 126.168128,47.4085726 125.85105,47.4383703 Z M123.383187,47.7913587 L122.863637,48.2711783 L122.197391,48.8847057 L123.743052,50.5610185 L124.419231,49.773289 L125.235994,48.8251103 L123.924894,47.6973812 C123.743816,47.727943 123.563502,47.7577407 123.383187,47.7913587 Z M116.208049,50.085783 L116.758925,50.6832655 L117.4267,49.9054686 L117.87825,49.3813344 C117.318969,49.6006151 116.761981,49.8328845 116.208049,50.085783 Z M109.589899,54.0297786 L109.836686,54.29643 L110.826887,53.1442515 C110.410483,53.42924 109.998663,53.724925 109.589899,54.0297786 Z M104.490669,58.5238859 C104.359254,58.6591217 104.231658,58.7974137 104.103299,58.9349416 L104.699253,59.4483793 L105.343342,58.8554811 L106.188375,58.0753921 L105.590129,57.4274827 C105.219567,57.7850553 104.852062,58.1495043 104.490669,58.5238859 Z M103.889366,59.1641549 C103.39121,59.7073902 102.91521,60.2666705 102.456784,60.8397036 L102.974042,61.4005119 L104.467748,59.6623116 L103.889366,59.1641549 Z M106.405364,57.848471 L107.89907,56.1102707 L107.462037,55.734361 C106.906577,56.2095964 106.356465,56.6993487 105.817814,57.2120222 L106.405364,57.848471 Z M107.703474,55.5280691 L108.129811,55.8948102 L108.783069,55.2935075 L109.618933,54.521823 L109.336237,54.2162054 C108.783833,54.6341375 108.241362,55.075755 107.703474,55.5280691 Z M98.4424961,67.1850897 L99.6030791,68.4434703 L100.225775,67.7176284 L101.085325,66.7197868 L101.098313,66.7075621 L99.5648769,65.3895861 L99.20272,65.7234733 C98.9398888,66.202529 98.6862262,66.6899891 98.4424961,67.1850897 Z M104.528871,63.1539931 L102.995435,61.836017 L102.110672,62.6527802 L101.494088,63.2204649 L103.034401,64.8914293 L103.666266,64.1548908 L104.525815,63.1570493 L104.528871,63.1539931 Z M101.263347,63.4321051 L101.254178,63.4405096 L99.7772811,65.1596088 L101.329819,66.4936298 L102.819705,65.1198785 L101.263347,63.4321051 Z M103.208603,61.6075679 L104.760377,62.9408248 L106.249499,61.5670735 L104.693905,59.8793001 L103.208603,61.6075679 Z M110.072011,54.5027219 L111.620729,55.8344507 L113.110614,54.4606995 L111.555785,52.7752182 L110.072011,54.5027219 Z M108.35444,56.1140909 L109.897045,57.7873474 L110.546483,57.0301797 L111.390751,56.0499112 L109.855023,54.729643 L108.990889,55.5280691 L108.35444,56.1140909 Z M108.125227,56.3272592 L106.639925,58.0547629 L108.190171,59.3872557 L109.680057,58.0135045 L108.125227,56.3272592 Z M104.923882,59.6676599 L106.465723,61.3393884 L107.105992,60.5929173 L107.959429,59.6019521 L106.425229,58.283212 L105.550398,59.0908066 L104.923882,59.6676599 Z M111.784234,52.5612859 L113.328367,54.2353065 L113.986973,53.4682062 L114.822073,52.4978702 L113.578974,51.4289726 C113.043379,51.731534 112.510076,52.0447921 111.982885,52.3779153 L111.784234,52.5612859 Z M115.050522,52.2816458 L116.540408,50.9078945 L115.909308,50.223311 C115.22396,50.5449735 114.545489,50.8964338 113.872366,51.2685233 L115.050522,52.2816458 Z M104.589231,66.6464386 L103.744198,65.9190686 L103.055794,65.3284626 L101.555212,66.7121464 L102.249728,67.4662579 L103.095525,68.3823468 L104.58159,66.654079 L104.589231,66.6464386 Z M102.014402,67.6740779 L101.325234,66.9245506 L101.310718,66.9375394 L100.467977,67.9170439 L99.8376406,68.6505262 L100.512292,69.2296717 L101.390942,69.9860753 L102.015166,69.4107501 L102.880828,68.61156 L102.014402,67.6740779 Z M101.159437,70.2000076 L100.312876,69.4718736 L99.6252364,68.8812675 L98.1246538,70.2657154 L98.8191699,71.0190629 L99.6642026,71.9343877 L101.1411,70.2160526 L101.159437,70.2000076 Z M98.5838443,71.2268829 L97.8946765,70.4781197 L97.8709912,70.500277 L97.0274865,71.4797815 L96.4063186,72.2025672 L97.0817336,72.7824766 L97.9611484,73.5388803 L98.5746758,72.9734877 L99.4502703,72.165129 L98.5838443,71.2268829 Z M97.7013734,73.7787901 L97.728879,73.7528126 L96.8823181,73.0246786 L96.2901839,72.5158253 C96.0464539,73.2668806 95.8187687,74.0316887 95.6094207,74.8110137 L96.2328806,75.4864287 L97.7013734,73.7787901 Z M103.908468,64.3550704 L103.268963,65.0984853 L103.943614,65.6768667 L104.8215,66.4325063 L105.454893,65.8487766 L106.310622,65.058755 L105.445724,64.1212729 L104.755028,63.3709816 L104.751208,63.3748018 L103.908468,64.3550704 Z M110.788685,57.2303593 L110.132371,57.9944034 L110.804729,58.5720207 L111.681852,59.3261322 L113.171738,57.9516169 L112.30684,57.0164269 L111.616908,56.2668997 L110.788685,57.2303593 Z M108.415564,59.6057724 L109.111608,60.3606479 L109.957405,61.2782649 L111.451111,59.5408286 L110.605314,58.8134586 L109.916146,58.2220885 L108.415564,59.6057724 Z M113.389491,57.7262239 L114.882433,55.9895517 L114.036636,55.2614177 L113.34594,54.6685195 L111.846122,56.0522033 L112.542166,56.808607 L113.389491,57.7262239 Z M114.228411,53.6676217 L113.562929,54.4423624 L114.235287,55.0192157 L115.111646,55.7733272 L115.7756,55.1613279 L116.601532,54.3988119 L115.737398,53.463622 L115.04823,52.7148587 L114.228411,53.6676217 Z M118.312991,52.4375107 L117.46643,51.7086127 L116.776498,51.1157145 L115.275915,52.4993983 L115.972724,53.255802 L116.820049,54.174183 L118.312991,52.4375107 Z M120.031326,50.8460069 L119.167956,49.911581 L118.479552,49.1628178 L117.668901,50.1048842 L116.994251,50.8903215 L117.665845,51.4671748 L118.54144,52.2205222 L119.216091,51.5993544 L120.031326,50.8460069 Z M108.876282,60.5684679 L108.18635,59.8189407 L107.348194,60.7923328 L106.700285,61.5464443 L107.374171,62.1240617 L108.251294,62.8797013 L108.895383,62.286039 L109.74118,61.5051859 L108.876282,60.5684679 Z M104.985006,63.1593414 L105.680286,63.9134529 L106.526847,64.8303058 L108.019789,63.0936336 L107.174756,62.3662636 L106.485588,61.7748935 L104.985006,63.1593414 Z M119.403282,49.703761 L120.251371,50.622142 L121.745077,48.8854698 L121.085707,48.3185491 C120.316314,48.5271331 119.54845,48.7601666 118.785934,49.0329303 L119.403282,49.703761 Z M121.971234,48.6677172 L122.655817,48.0366168 L122.799458,47.9044372 C122.348672,47.9976506 121.89865,48.1015606 121.448628,48.2176953 L121.971234,48.6677172 Z M101.219796,73.6916891 L99.6863599,72.3737131 L98.7824958,73.2080492 L98.1865414,73.7573969 L99.7245621,75.4253051 L100.33809,74.7101599 L101.197639,73.7123183 L101.219796,73.6916891 Z M97.9565641,73.9690371 L97.9267664,73.9965427 L96.4666781,75.6950127 L98.0215078,77.0313258 L99.5121579,75.6560465 L97.9565641,73.9690371 Z M99.8980001,72.1422077 L101.451302,73.4777568 L102.941952,72.1032415 L101.386358,70.4162321 L101.366493,70.4338051 L99.8980001,72.1422077 Z M104.64959,70.1381201 L103.116154,68.820144 L102.222986,69.6460757 L101.616335,70.2038279 L103.155884,71.8732642 L103.777816,71.1481864 L104.637366,70.1495807 L104.64959,70.1381201 Z M103.329322,68.5901668 L104.88186,69.9249518 L106.37251,68.5496724 L104.816152,66.8626631 L104.806983,66.8718316 L103.329322,68.5901668 Z M108.080148,66.5853151 L106.546712,65.267339 L105.662713,66.0833381 L105.046893,66.6502588 L106.587206,68.3212232 L107.218306,67.5854488 L108.077856,66.5876072 L108.080148,66.5853151 Z M106.760644,65.0381258 L108.311654,66.3713827 L109.802304,64.9968674 L108.24671,63.3098581 L106.760644,65.0381258 Z M110.191966,61.4860848 L111.742212,62.8185777 L113.232862,61.4432984 L111.678032,59.7578171 L110.191966,61.4860848 Z M108.477451,63.0974538 L110.018528,64.7691823 L110.658797,64.0227112 L111.51147,63.0325101 L109.976506,61.71377 L109.103203,62.5213646 L108.477451,63.0974538 Z M113.44985,61.2171413 L114.098523,60.4607377 L114.942792,59.4804691 L113.407064,58.160965 L112.543694,58.958627 L111.907245,59.5438848 L113.44985,61.2171413 Z M113.623288,57.9340439 L115.172005,59.2650087 L116.662655,57.8904934 L115.109354,56.2050121 L113.623288,57.9340439 Z M116.881172,57.6651004 L117.539014,56.8980001 L118.37335,55.9284282 L116.836857,54.6073959 L115.98342,55.3966535 L115.337803,55.9910798 L116.881172,57.6651004 Z M117.05461,54.3820029 L118.601799,55.7122037 L120.092449,54.3369243 L118.540676,52.6537352 L117.05461,54.3820029 Z M120.97874,53.3360266 L121.804672,52.3771513 L120.266651,51.055355 L119.423911,51.8339159 L118.767597,52.4382748 L120.31173,54.1130594 L120.97874,53.3360266 Z M123.523007,50.7841193 L121.971234,49.1016943 L120.485932,50.829962 L122.032357,52.1593987 L123.523007,50.7841193 Z M97.850362,80.7369396 L97.0137337,80.0172101 L96.3169255,79.4181995 L94.8171069,80.8018834 L95.5200275,81.5643994 L96.3543636,82.4682635 L97.8129238,80.7713216 L97.850362,80.7369396 Z M97.139801,78.472313 L96.5270376,79.1859301 L97.2131492,79.7750081 L98.0826314,80.5230073 L98.6869902,79.9660191 L99.5732814,79.148492 L98.7160239,78.2194144 L98.0176876,77.4607186 L97.9825416,77.4928084 L97.139801,78.472313 Z M101.28092,77.1833706 L100.444292,76.4644051 L99.7467194,75.8653945 L98.2476649,77.2483143 L98.9505854,78.0115944 L99.7856856,78.9162226 L101.253414,77.208584 L101.28092,77.1833706 Z M100.580291,74.9095754 L99.9583596,75.6338892 L100.644471,76.2222031 L101.512425,76.9702023 L102.127481,76.4040456 L103.003839,75.5949229 L102.146582,74.6666094 L101.447482,73.9071495 L101.423032,73.9300709 L100.580291,74.9095754 Z M104.710714,73.6305656 L103.875614,72.9116001 L103.177277,72.3118255 L101.677459,73.6947453 L102.381143,74.4587894 L103.217008,75.3641816 L104.693141,73.6466105 L104.710714,73.6305656 Z M104.020018,71.3476019 L103.389682,72.0818482 L104.075029,72.6701622 L104.942983,73.4166332 L105.567207,72.841308 L106.433633,72.0421179 L105.57714,71.1138044 L104.878039,70.3543445 L104.862759,70.3680973 L104.020018,71.3476019 Z M108.141272,70.0769965 L107.306172,69.3587951 L106.607071,68.7590205 L105.108017,70.1419403 L105.811701,70.9059844 L106.64833,71.8121407 L108.133631,70.0838729 L108.141272,70.0769965 Z M107.460508,67.7848643 L106.821004,68.5298073 L107.505587,69.1173572 L108.372777,69.8638282 L109.007698,69.2793345 L109.864191,68.4885489 L109.007698,67.5609994 L108.307833,66.8007755 L108.303249,66.8053598 L107.460508,67.7848643 Z M110.900235,64.2228908 L110.252326,64.9777663 L110.936145,65.5645522 L111.803335,66.3110232 L113.294749,64.9349798 L112.43902,64.0089584 L111.738391,63.2479705 L110.900235,64.2228908 Z M108.537811,66.5883712 L110.079652,68.2600997 L111.571066,66.5241915 L110.73673,65.8067541 L110.037629,65.2062155 L108.537811,66.5883712 Z M113.510974,64.7080588 L115.002388,62.9721506 L114.167287,62.2539492 L113.467423,61.6526465 L111.968369,63.0355663 L112.673581,63.8011384 L113.510974,64.7080588 Z M114.340725,60.6601532 L113.683648,61.4249613 L114.367467,62.0117472 L115.233129,62.7574542 L115.887915,62.1546234 L116.724543,61.3821749 L115.869578,60.4561534 L115.169713,59.6959296 L114.340725,60.6601532 Z M120.373618,57.6039768 L121.865032,55.8680687 L121.028403,55.1491032 L120.327775,54.5462724 L118.82872,55.9291922 L119.534697,56.6955284 L120.373618,57.6039768 Z M116.942296,61.1560178 L118.434474,59.4201096 L117.598609,58.7011442 L116.897981,58.0998415 L115.398162,59.4819972 L116.104139,60.2483334 L116.942296,61.1560178 Z M117.780452,57.0981797 L117.11497,57.8729204 L117.798025,58.4589422 L118.662923,59.2038852 L119.328405,58.5918859 L120.155101,57.8293699 L119.300136,56.9033484 L118.601035,56.1446526 L117.780452,57.0981797 Z M121.220942,53.5354421 L120.545527,54.3216435 L121.228583,54.9069012 L122.092717,55.6518442 L122.768132,55.0291483 L123.584895,54.2765649 L122.730694,53.3513075 L122.032357,52.5926117 L121.220942,53.5354421 Z M125.296354,52.3160277 L124.459725,51.5962982 L123.757569,50.9934674 L122.258514,52.3763872 L122.965255,53.1434875 L123.804176,54.0526999 L125.296354,52.3160277 Z M127.014689,50.7229958 L126.161252,49.7985025 L125.463679,49.0405707 L124.661433,49.9727045 L123.977614,50.7696025 L124.659141,51.3540962 L125.523275,52.0982752 L126.208622,51.4671748 L127.014689,50.7229958 Z M125.688308,48.8228182 L126.395813,49.5906825 L127.235497,50.500659 L128.727676,48.7647508 L127.890283,48.0434932 L127.187363,47.4406624 L125.688308,48.8228182 Z M94.4205681,84.2897446 L93.9904112,83.9199473 C93.9835348,83.9894753 93.9758944,84.0574752 93.969018,84.1262392 C93.9476248,84.348576 93.934636,84.591542 93.9285237,84.850553 L94.3731973,84.3332951 L94.4205681,84.2897446 Z M94.8385002,91.0011079 L95.3588142,90.5220522 L96.2657345,89.6846599 L95.4161175,88.7647508 L94.7101408,87.9968865 L94.6551296,88.0480775 L94.2555345,88.5126163 C94.3984108,89.3110423 94.5917139,90.1491987 94.8385002,91.0011079 Z M101.585009,94.6448341 L100.051573,93.326094 L99.1194392,94.1871717 L98.5548106,94.7067217 L100.089775,96.3715737 L100.675033,95.6892824 L101.534583,94.6914408 L101.585009,94.6448341 Z M100.260157,93.0922965 L101.817279,94.4309018 L103.310985,93.0533303 L101.755391,91.3655569 L101.703436,91.4129276 L100.260157,93.0922965 Z M117.416767,75.3320918 L118.967776,76.6653487 L120.462247,75.2870132 L118.905889,73.5992398 L118.904361,73.6007679 L117.416767,75.3320918 Z M115.706072,76.9404046 L117.246385,78.611369 L117.875957,77.8771226 L118.735507,76.879281 L118.736271,76.878517 L117.202835,75.5605409 L116.320364,76.375776 L115.706072,76.9404046 Z M134.402995,60.8511642 L135.076882,60.0657269 L135.892117,59.1190763 L134.352568,57.7949879 L133.521288,58.5636162 L132.85657,59.1748515 L134.402995,60.8511642 Z M120.677707,75.059328 L121.315684,74.3151491 L122.167593,73.326476 L120.632629,72.0077359 L119.760854,72.8130384 L119.135866,73.3875996 L120.677707,75.059328 Z M120.848089,71.7800508 L122.39757,73.1117796 L123.892041,71.7334441 L122.337211,70.0471988 L120.848089,71.7800508 Z M130.971673,64.4032052 L131.636391,63.6277004 L132.460795,62.6703532 L130.922774,61.3485569 L130.080798,62.1255897 L129.426012,62.7284205 L130.971673,64.4032052 Z M124.109029,71.5072871 L124.756174,70.7524115 L125.598915,69.7744351 L124.062422,68.4541669 L123.200581,69.2503008 L122.566424,69.8340305 L124.109029,71.5072871 Z M124.279411,68.2280099 L125.828128,69.5589747 L127.322599,68.1806391 L125.768533,66.4951579 L124.279411,68.2280099 Z M127.540351,67.9552461 L128.195901,67.190438 L129.029473,66.2223941 L127.49298,64.9013619 L126.641071,65.6883273 L125.996982,66.2812255 L127.540351,67.9552461 Z M127.710733,64.6759689 L129.257922,66.0061697 L130.752392,64.6278341 L129.199091,62.943881 L127.710733,64.6759689 Z M131.141291,61.123928 L132.687716,62.4526006 L134.18295,61.0742651 L132.630413,59.39184 L131.141291,61.123928 Z M134.572613,57.571887 L136.11751,58.8997956 L137.612744,57.5214601 L136.061735,55.8397991 L134.572613,57.571887 Z M138.516608,56.5029893 L139.323439,55.5662713 L137.782362,54.2421829 L136.961779,55.0008787 L136.286364,55.6220465 L137.833553,57.2991233 L138.516608,56.5029893 Z M141.042538,53.9686551 L139.493057,52.2877581 L138.003935,54.019846 L139.548068,55.3469906 L141.042538,53.9686551 Z M115.476095,77.1528088 L115.464634,77.1635054 L113.985445,78.8841327 L115.537983,80.2181537 L117.031689,78.8405822 L115.476095,77.1528088 Z M115.305713,80.432086 L113.772277,79.11411 L112.880637,79.9377495 L112.276278,80.4939736 L113.815063,82.1634099 L114.435467,81.4398602 L115.295017,80.4420186 L115.305713,80.432086 Z M112.045537,80.7063779 L112.024144,80.725479 L110.553359,82.4361737 L112.107425,83.7717227 L113.601131,82.3933872 L112.045537,80.7063779 Z M111.875919,83.984891 L110.341719,82.666915 L109.440147,83.5004871 L108.84572,84.0467786 L110.383741,85.7154509 L110.99574,85.0025977 L111.854526,84.0039921 L111.875919,83.984891 Z M108.614979,84.2591829 L108.583653,84.2882165 L107.122801,85.9882146 L108.676867,87.3245277 L110.171337,85.9469562 L108.614979,84.2591829 Z M108.445361,87.5384601 L106.911925,86.21972 L105.999656,87.0624606 L105.415162,87.6003476 L106.952419,89.2674918 L107.55525,88.5645713 L108.4148,87.5667297 L108.445361,87.5384601 Z M105.185185,87.8127519 L105.143927,87.8501901 L103.691479,89.5402556 L105.247073,90.8773327 L106.741543,89.4997612 L105.185185,87.8127519 Z M105.015567,91.0912651 L103.482131,89.773289 L102.55993,90.6251982 L101.985369,91.1539167 L103.521097,92.8195328 L104.114759,92.1273088 L104.974309,91.1287032 L105.015567,91.0912651 Z M118.005845,71.0840066 L117.356407,71.8404103 L118.06162,72.4447692 L118.906653,73.1729032 L119.553034,72.5777128 L120.400359,71.7953317 L119.563731,70.8891754 L118.844765,70.1083224 L118.005845,71.0840066 Z M115.644185,73.4487231 L116.367734,74.2341604 L117.186026,75.1204516 L118.675912,73.3868355 L117.862205,72.6869711 L117.141711,72.0680954 L115.644185,73.4487231 Z M115.245354,76.9396405 L114.431647,76.2397761 L113.711153,75.6216645 L112.214391,77.0022921 L112.937176,77.7869654 L113.75394,78.6724925 L115.238477,76.9449888 L115.245354,76.9396405 Z M112.701851,77.9947854 L111.983649,77.2146964 L111.968369,77.2292132 L111.125628,78.2087177 L110.493763,78.9444922 L111.19974,79.5503792 L112.046301,80.2792772 L112.672053,79.7024239 L113.540007,78.9017057 L112.701851,77.9947854 Z M111.814796,80.4932096 L111.000325,79.7925811 L110.281359,79.1744695 L108.783833,80.5550971 L109.506619,81.3397704 L110.323382,82.2245335 L111.798751,80.5077264 L111.814796,80.4932096 Z M130.91055,60.9122877 L132.400436,59.1794358 L131.584436,58.4772792 L130.861651,57.8561114 L129.364888,59.2367391 L130.09073,60.0244685 L130.91055,60.9122877 Z M120.617348,71.5684106 L122.107234,69.8347946 L121.292763,69.1341661 L120.571505,68.5152904 L119.074743,69.8959181 L120.617348,71.5684106 Z M121.445571,67.5212691 L120.787729,68.2876053 L121.492178,68.8919642 L122.337211,69.6193341 L122.992761,69.0157393 L123.830917,68.2417626 L122.994289,67.3363704 L122.276087,66.5562814 L121.445571,67.5212691 Z M127.479228,64.4643287 L128.969114,62.7307127 L128.153878,62.0293202 L127.431857,61.4089164 L125.935094,62.7895441 L126.660172,63.5765095 L127.479228,64.4643287 Z M124.047906,68.0163696 L125.537792,66.2827536 L124.723321,65.5821252 L124.002063,64.9617214 L122.504537,66.3423491 L123.229614,67.1293145 L124.047906,68.0163696 Z M124.886062,63.9592956 L124.219051,64.7355643 L124.922736,65.3399232 L125.767005,66.0665291 L126.433251,65.4530017 L127.260711,64.6889577 L126.424847,63.7843295 L125.707409,63.0042404 L124.886062,63.9592956 Z M128.326552,60.396558 L127.650373,61.1842874 L128.353294,61.7871182 L129.196799,62.5137241 L129.872978,61.8910282 L130.690505,61.1361527 L129.855405,60.2315245 L129.138731,59.4521995 L128.326552,60.396558 Z M131.766279,56.8345845 L131.081695,57.6322465 L131.783852,58.2350773 L132.626593,58.9609191 L133.313468,58.3282906 L134.121063,57.5833477 L133.285963,56.6794835 L132.569289,55.9009226 L131.766279,56.8345845 Z M134.341872,57.3602468 L135.831757,55.6273948 L135.014994,54.9244742 L134.291445,54.3033064 L132.794682,55.68317 L133.521288,56.4716635 L134.341872,57.3602468 Z M135.206769,53.2718469 L134.512253,54.0802055 L135.21441,54.6822723 L136.05715,55.4081141 L137.550857,54.0305427 L136.716521,53.1266785 L136.000611,52.3488816 L135.206769,53.2718469 Z M136.951846,52.9196226 L137.772429,53.8089699 L139.263079,52.0745898 L137.722003,50.7497374 L136.22524,52.130365 L136.951846,52.9196226 Z M109.271293,81.5475904 L108.553856,80.7675014 L108.527878,80.7911868 L107.685137,81.7714553 L107.062442,82.4965331 L107.769182,83.1031842 L108.616507,83.8320822 L109.232327,83.2651615 L110.109449,82.4552748 L109.271293,81.5475904 Z M108.385002,84.0460146 L106.850801,82.7272745 L105.354039,84.1086662 L106.076061,84.8925754 L106.89206,85.7765744 L108.35826,84.070464 L108.385002,84.0460146 Z M105.840735,85.0996313 L105.123298,84.3203064 L105.087388,84.3539243 L104.245411,85.3334288 L103.63112,86.0485741 L104.338624,86.6552251 L105.186713,87.3856513 L105.791836,86.827135 L106.679655,86.0080798 L105.840735,85.0996313 Z M104.954444,87.5995836 L104.139209,86.8974271 L103.421007,86.2808435 L101.923481,87.6614712 L102.644739,88.4446164 L103.460738,89.3286154 L104.918534,87.6324375 L104.954444,87.5995836 Z M102.410177,88.6524363 L101.693504,87.8738754 L101.647661,87.9158978 L100.80492,88.8961664 L100.199798,89.6006151 L100.908066,90.2080301 L101.756155,90.9384562 L102.35211,90.3898726 L103.249862,89.5616488 L102.410177,88.6524363 Z M101.52465,91.1523886 L100.708651,90.4502321 L99.9912135,89.8344125 L98.492923,91.2150402 L99.2141807,91.9974214 L100.029416,92.8806563 L101.478043,91.1951751 L101.52465,91.1523886 Z M98.9788551,92.2052413 L98.2629458,91.4274445 L98.2071706,91.4786354 L97.3644299,92.4581399 L96.7684755,93.152656 L97.4767444,93.7608351 L98.3263614,94.4920253 L99.8193036,93.1144538 L98.9788551,92.2052413 Z M114.565354,74.6459802 L113.925085,75.3924512 L114.631062,75.9975742 L115.476859,76.7264722 L116.112544,76.1404504 L116.970565,75.3489007 L116.133173,74.4419804 L115.414207,73.6611273 L115.408095,73.6664757 L114.565354,74.6459802 Z M111.753672,77.000764 L110.220236,75.682788 L109.327832,76.5071916 L108.722709,77.0641797 L110.262258,78.733616 L110.882662,78.0093022 L111.742212,77.0114607 L111.753672,77.000764 Z M110.433404,75.4528107 L111.985178,76.7868317 L113.478884,75.4100243 L111.922526,73.7230149 L111.911829,73.7329475 L110.433404,75.4528107 Z M115.18423,73.447959 L113.650794,72.129219 L112.768323,72.944454 L112.153267,73.5106107 L113.69358,75.180811 L114.323152,74.4465647 L115.182702,73.4487231 L115.18423,73.447959 Z M113.864726,71.9007698 L115.415735,73.2340267 L116.908678,71.8572193 L115.353084,70.1694459 L115.35232,70.1702099 L113.864726,71.9007698 Z M130.849426,57.4213703 L131.524077,56.6344049 L132.340076,55.6877543 L130.800527,54.3644299 L129.968483,55.1330583 L129.303765,55.7450576 L130.849426,57.4213703 Z M117.124902,71.6287701 L117.763643,70.8845911 L118.614788,69.8951541 L117.080588,68.576414 L116.208049,69.3824805 L115.583061,69.9578057 L117.124902,71.6287701 Z M117.296048,68.3487288 L118.845529,69.6804577 L120.339236,68.3036502 L118.784406,66.6174049 L117.296048,68.3487288 Z M127.418104,60.9734113 L128.083586,60.1971425 L128.908754,59.2390312 L127.370733,57.9172349 L126.528757,58.6950318 L125.873971,59.2986266 L127.418104,60.9734113 Z M120.556224,68.0767291 L121.203369,67.3218536 L122.046874,66.3431131 L120.510381,65.0228449 L119.64854,65.8197429 L119.013619,66.4042366 L120.556224,68.0767291 Z M120.72737,64.7959238 L122.276087,66.1276527 L123.769029,64.7508452 L122.215728,63.065364 L120.72737,64.7959238 Z M123.986782,64.5246882 L124.64386,63.75988 L125.477432,62.7910721 L123.940939,61.4700399 L123.088266,62.2577694 L122.443413,62.8514316 L123.986782,64.5246882 Z M124.158692,61.2438829 L125.705881,62.5748477 L127.199587,61.1972762 L125.646286,59.5140871 L124.158692,61.2438829 Z M127.58925,57.692606 L129.135675,59.0212786 L130.629381,57.6444712 L129.077608,55.9620461 L127.58925,57.692606 Z M131.020572,54.140565 L132.565469,55.4684736 L134.059175,54.0916662 L132.50893,52.4100052 L131.020572,54.140565 Z M134.963803,53.0724314 L135.771398,52.1349493 L134.230321,50.8108609 L133.408974,51.5703207 L132.733559,52.1922526 L134.280748,53.8693294 L134.963803,53.0724314 Z M137.489733,50.5380971 L135.939488,48.8579642 L134.451894,50.5885241 L135.996027,51.9156686 L137.489733,50.5380971 Z M108.492732,77.2758199 L108.472103,77.294921 L107.001318,79.0048517 L108.555384,80.3404007 L110.048326,78.9635933 L108.492732,77.2758199 Z M108.323114,80.553569 L106.789678,79.235593 L105.887342,80.0691651 L105.292915,80.6169847 L106.830936,82.2848929 L107.442935,81.5712758 L108.302485,80.5734342 L108.323114,80.553569 Z M105.062174,80.829389 L105.031612,80.8576586 L103.57076,82.5568926 L105.124826,83.8932057 L106.617768,82.5163983 L105.062174,80.829389 Z M101.463526,87.6599431 L99.93009,86.341967 L99.0071247,87.1938762 L98.4317995,87.7233587 L99.9682922,89.3897389 L100.562718,88.6959869 L101.422268,87.6981453 L101.463526,87.6599431 Z M100.139438,86.1089336 L101.695032,87.4467748 L103.187974,86.0699673 L101.63238,84.382958 L101.591122,84.4196321 L100.139438,86.1089336 Z M104.89332,84.1071381 L103.359884,82.789162 L102.447615,83.6319027 L101.862357,84.1705537 L103.399614,85.8369339 L104.002445,85.1340133 L104.861995,84.1361718 L104.89332,84.1071381 Z M98.2018222,87.935763 L98.1513953,87.9823697 L96.7081161,89.6617386 L98.2652379,90.9995798 L99.757416,89.6227723 L98.2018222,87.935763 Z M97.122228,92.2587244 L97.9817775,91.2608829 L98.0329685,91.2135121 L96.499532,89.894772 L95.5673982,90.7566138 L95.0020056,91.2769278 L96.5369702,92.9410158 L97.122228,92.2587244 Z M111.693313,73.5083185 L110.868909,72.7992856 L110.159876,72.1903425 L108.660822,73.5724982 L110.201135,75.2426986 L111.686436,73.5151949 L111.693313,73.5083185 Z M111.012549,71.2154222 L110.373045,71.9611293 L111.067561,72.5570836 L111.924818,73.2951502 L112.559739,72.7098925 L113.416996,71.9183428 L112.570435,71.0014899 L111.861402,70.2313334 L111.856054,70.2359177 L111.012549,71.2154222 Z M113.632457,71.6906577 L115.123871,69.9555135 L114.299467,69.2464806 L113.58967,68.6367734 L112.09138,70.0189292 L112.804997,70.7936699 L113.632457,71.6906577 Z M114.45304,67.6534487 L113.804367,68.4090883 L114.498883,69.0042786 L115.355376,69.7415812 L116.000229,69.1471549 L116.847554,68.3655378 L116.000993,67.4486849 L115.29196,66.6785285 L114.45304,67.6534487 Z M127.35698,57.4824938 L128.848395,55.7481138 L128.021699,55.0367887 L127.30961,54.4247894 L125.812083,55.8061811 L126.527993,56.583978 L127.35698,57.4824938 Z M117.063779,68.1378527 L118.555193,66.4034726 L117.730025,65.6936756 L117.019464,65.0839684 L115.521938,66.4653602 L116.236319,67.2408649 L117.063779,68.1378527 Z M117.89353,64.0907111 L117.235688,64.8562833 L117.929441,65.4522377 L118.78517,66.1887762 L119.44072,65.5851814 L120.277348,64.8119688 L119.431551,63.8958799 L118.723282,63.1264875 L117.89353,64.0907111 Z M123.926423,61.0337707 L125.417073,59.3001547 L124.591141,58.5888297 L123.879816,57.9775944 L122.381525,59.3597502 L123.097435,60.1360189 L123.926423,61.0337707 Z M120.495101,64.5858117 L121.986515,62.8514316 L121.160583,62.1416347 L120.450022,61.5303994 L118.951732,62.9125552 L119.666877,63.6888239 L120.495101,64.5858117 Z M121.333257,60.5287376 L120.66701,61.3042424 L121.359998,61.8994327 L122.214964,62.6359712 L122.880446,62.0224438 L123.707906,61.2591638 L122.862109,60.3438389 L122.15384,59.5744465 L121.333257,60.5287376 Z M124.773747,56.966 L124.097568,57.7529654 L124.790556,58.3466277 L125.644758,59.0831662 L126.320937,58.4604703 L127.1377,57.7063588 L126.292667,56.7910339 L125.585162,56.0224056 L124.773747,56.966 Z M128.213474,53.4040265 L127.529654,54.2009245 L128.221114,54.7945867 L129.075316,55.5295972 L129.760663,54.8977327 L130.567494,54.1527897 L129.723225,53.238993 L129.016484,52.4711287 L128.213474,53.4040265 Z M132.279717,52.1960728 L131.452257,51.4839837 L130.739404,50.8719844 L129.241877,52.2533761 L129.958551,53.031173 L130.788302,53.9304529 L132.279717,52.1960728 Z M133.998052,50.5999847 L133.153783,49.686188 L132.447806,48.9190877 L131.653964,49.8412889 L130.960212,50.6488835 L131.651672,51.2417818 L132.50511,51.9767922 L133.201154,51.3357592 L133.998052,50.5999847 Z M109.139113,74.5542949 L108.430844,73.7841384 L108.415564,73.7986553 L107.572823,74.7781598 L106.941723,75.5131702 L107.637003,76.1098886 L108.495024,76.8479552 L109.120012,76.271866 L109.987202,75.4719118 L109.139113,74.5542949 Z M108.262755,77.0618876 L107.437587,76.3520906 L106.729318,75.7431475 L105.231028,77.1253032 L105.943881,77.8992799 L106.769813,78.7939755 L108.245946,77.0771685 L108.262755,77.0618876 Z M105.708555,78.1070999 L105.000287,77.3377075 L104.975837,77.3606288 L104.132332,78.3408974 L103.510401,79.0652112 L104.206445,79.6626936 L105.064466,80.4015243 L105.679522,79.8346036 L106.556644,79.0247168 L105.708555,78.1070999 Z M104.832961,80.6146926 L104.007029,79.9048956 L103.29876,79.2967165 L101.80047,80.6781082 L102.513323,81.4520849 L103.338491,82.3467805 L104.806219,80.639906 L104.832961,80.6146926 Z M102.277997,81.6591408 L101.570493,80.8905125 L101.535347,80.9233664 L100.692606,81.9028709 L100.079079,82.6172521 L100.775887,83.2154986 L101.634672,83.9543293 L102.239795,83.3973411 L103.12685,82.5782859 L102.277997,81.6591408 Z M101.402403,84.1682616 L100.576471,83.4569366 L99.8689664,82.8502856 L98.3699119,84.2316773 L99.082001,85.0041258 L99.9071686,85.8980574 L101.365729,84.2018795 L101.402403,84.1682616 Z M98.8474395,85.2119458 L98.1406987,84.4440815 L98.0948561,84.4853399 L97.2521154,85.4656085 L96.6477566,86.1692931 L97.3445648,86.7675396 L98.2041144,87.5078983 L98.7993047,86.9593147 L99.6962925,86.1310909 L98.8474395,85.2119458 Z M97.972609,87.7210666 L97.1459133,87.0097416 L96.4391725,86.4030906 L94.940118,87.7852463 L95.6514431,88.5569308 L96.4758467,89.4500984 L97.9260023,87.7646171 L97.972609,87.7210666 Z M94.4816916,87.7821901 L94.089737,87.4452467 C94.1180066,87.6637633 94.1500965,87.8853361 94.1867706,88.1122572 L94.4297366,87.8303249 L94.4816916,87.7821901 Z M94.0339618,86.9852922 L94.713197,87.5690218 L96.204611,86.1929784 L94.6482532,84.5052051 L94.5985903,84.5510477 L93.9277596,85.3319008 C93.934636,85.8361698 93.9697821,86.3916299 94.0339618,86.9852922 Z M113.744007,64.9174068 L115.294252,66.2491357 L116.785667,64.8730923 L115.230837,63.186847 L113.744007,64.9174068 Z M112.030256,66.5272477 L113.571333,68.1989762 L114.210838,67.4540332 L115.063511,66.4638321 L113.528547,65.145092 L112.655244,65.9519225 L112.030256,66.5272477 Z M117.002655,64.6469352 L117.651328,63.8912956 L118.494833,62.9117911 L116.959105,61.592287 L116.095735,62.389185 L115.46005,62.9736787 L117.002655,64.6469352 Z M117.175329,61.3653659 L118.724046,62.6963307 L120.216224,61.3202873 L118.662159,59.634806 L117.175329,61.3653659 Z M123.865299,57.5428533 L124.531545,56.7665845 L125.356713,55.8077092 L123.818692,54.4859129 L122.975952,55.2644739 L122.320402,55.8680687 L123.865299,57.5428533 Z M120.433977,61.0948943 L121.091055,60.3293221 L121.925391,59.3597502 L120.388898,58.0387179 L119.535461,58.8264474 L118.890608,59.4208737 L120.433977,61.0948943 Z M120.606651,57.8133249 L122.15384,59.1435257 L123.646018,57.7674823 L122.092717,56.0835291 L120.606651,57.8133249 Z M124.037973,54.261284 L125.584398,55.5907207 L127.076576,54.2139132 L125.524039,52.5314882 L124.037973,54.261284 Z M127.972036,53.203847 L128.788035,52.2564323 L127.24925,50.9331079 L126.416442,51.7017363 L125.750196,52.3144996 L127.296621,53.9915764 L127.972036,53.203847 Z M130.50637,50.6611082 L128.955361,48.9794472 L127.468531,50.709243 L129.014192,52.0379157 L130.50637,50.6611082 Z M108.369721,70.292457 L108.359024,70.3016255 L106.881363,72.0214887 L108.433137,73.3562738 L109.925315,71.9802304 L108.369721,70.292457 Z M110.140011,71.7510171 L110.771111,71.0160067 L111.629897,70.0181651 L111.632189,70.0166371 L110.098753,68.698661 L109.215518,69.5138961 L108.599698,70.0800527 L110.140011,71.7510171 Z M108.201631,73.5694421 L106.668195,72.251466 L105.775027,73.0766336 L105.169904,73.6336218 L106.708689,75.3030581 L107.330621,74.5787443 L108.190171,73.5809027 L108.201631,73.5694421 Z M104.939163,73.846026 L104.919298,73.8643631 L103.450041,75.5735297 L105.003343,76.9090788 L106.495521,75.5330354 L104.939163,73.846026 Z M104.771837,77.1230111 L103.238401,75.8050351 L102.334537,76.6386071 L101.739346,77.1871908 L103.277367,78.855099 L103.890895,78.1407178 L104.74968,77.1428762 L104.771837,77.1230111 Z M101.508605,77.398831 L101.478807,77.4263366 L100.018719,79.1255706 L101.573549,80.4626478 L103.064963,79.0866044 L101.508605,77.398831 Z M101.342043,80.6758161 L99.8078429,79.35784 L98.8948102,80.2013447 L98.3087884,80.7399958 L99.8460451,82.40714 L100.450404,81.7034554 L101.309954,80.7056138 L101.342043,80.6758161 Z M98.0788111,80.9524001 L98.0383168,80.9890742 L96.5873971,82.6783756 L98.1429909,84.0154528 L99.6344049,82.6394094 L98.0788111,80.9524001 Z M97.9114855,84.2293851 L96.378049,82.9114091 L95.4543197,83.7633182 L94.8789945,84.2935648 L96.4147231,85.9591809 L97.0099135,85.2654289 L97.8694631,84.2675873 L97.9114855,84.2293851 Z M111.799515,66.739652 L110.312685,68.4694478 L111.863695,69.8027047 L113.355873,68.4266613 L111.799515,66.7388879 L111.799515,66.739652 Z M132.443986,48.4843466 L133.172884,47.8119879 C132.562413,47.6874487 131.942009,47.5904151 131.314729,47.5140107 L132.443986,48.4843466 Z M138.646496,49.7098734 L137.943575,50.5281646 L138.644968,51.1302313 L139.486944,51.8545451 L140.62919,50.8024564 C139.99809,50.396749 139.343304,50.0238955 138.665597,49.686952 L138.646496,49.7098734 Z M140.401505,51.4389051 L139.716158,52.0684775 L141.264875,53.7470823 L141.957099,52.9410158 L142.573683,52.2243424 C142.039616,51.7804328 141.484156,51.3609726 140.903482,50.9751304 L140.401505,51.4389051 Z M105.13705,98.0761561 L103.603614,96.757416 L102.672244,97.6177296 L102.10838,98.1372796 L103.643344,99.8013676 L104.227838,99.1206044 L105.087388,98.1219987 L105.13705,98.0761561 Z M103.812198,96.5236185 L105.36932,97.8622238 L106.864554,96.4831242 L105.308196,94.7961148 L105.256241,94.8434856 L103.812198,96.5236185 Z M120.968808,78.7634137 L122.519817,80.0966707 L124.015052,78.7175711 L122.458694,77.0297977 L122.457166,77.0313258 L120.968808,78.7634137 Z M119.258877,80.3709625 L120.799954,82.0411629 L121.428762,81.3084446 L122.287548,80.310603 L122.288312,80.309839 L120.754112,78.9918629 L119.873169,79.8063339 L119.258877,80.3709625 Z M124.230512,78.4891219 L124.868489,77.745707 L125.719634,76.757798 L124.184669,75.4382939 L123.312895,76.2435964 L122.689435,76.8173935 L124.230512,78.4891219 Z M124.40013,75.2113728 L125.949611,76.5431016 L127.44561,75.1640021 L125.890016,73.4769927 L124.40013,75.2113728 Z M137.9558,64.2817222 L138.629687,63.4962848 L139.444158,62.5496342 L137.904609,61.2270739 L137.074093,61.9941742 L136.410139,62.6054094 L137.9558,64.2817222 Z M127.662598,74.937081 L128.308979,74.1837335 L129.150956,73.2057571 L127.614463,71.8854889 L126.753386,72.6816228 L126.119993,73.2645885 L127.662598,74.937081 Z M127.831452,71.6593318 L129.380169,72.9902966 L130.875404,71.6111971 L129.321338,69.9249518 L127.831452,71.6593318 Z M134.524478,67.8337631 L135.189196,67.0590224 L136.012836,66.1016752 L134.474815,64.7798789 L133.633603,65.5561477 L132.979581,66.1582144 L134.524478,67.8337631 Z M131.09392,71.38504 L131.74947,70.6209959 L132.581514,69.6537161 L131.045021,68.3326839 L130.193112,69.1188853 L129.549787,69.7110194 L131.09392,71.38504 Z M131.262774,68.1065268 L132.809963,69.4374916 L134.305961,68.057628 L132.75266,66.3736749 L131.262774,68.1065268 Z M134.693332,64.5552499 L136.239757,65.8839226 L137.735755,64.504823 L136.183218,62.8216339 L134.693332,64.5552499 Z M138.124654,61.003209 L139.670315,62.3311176 L141.165549,60.952018 L139.61454,59.269593 L138.124654,61.003209 Z M142.069413,59.9343113 L142.87548,58.9975933 L141.334403,57.6735049 L140.51382,58.4314366 L139.839933,59.0526044 L141.387122,60.7296812 L142.069413,59.9343113 Z M144.596107,57.398449 L143.045862,55.717552 L141.555976,57.451168 L143.100109,58.7783126 L144.596107,57.398449 Z M119.0289,80.5826027 L119.016675,80.5940634 L117.537486,82.3154547 L119.089259,83.6494757 L120.585258,82.2703761 L119.0289,80.5826027 Z M118.857754,83.863408 L117.324318,82.5446679 L116.432678,83.3683075 L115.829083,83.9245315 L117.368632,85.5932038 L117.988272,84.8704181 L118.847822,83.8725765 L118.857754,83.863408 Z M115.598342,84.1361718 L115.576949,84.1560369 L114.106164,85.8674957 L115.659466,87.2030447 L117.1547,85.8239451 L115.598342,84.1361718 Z M115.42796,87.416213 L113.89376,86.098237 L112.992952,86.931045 L112.398525,87.4773365 L113.93731,89.1452448 L114.548545,88.4331557 L115.407331,87.4353141 L115.42796,87.416213 Z M112.168548,87.6897408 L112.136458,87.7187745 L110.674842,89.4195366 L112.229672,90.7558497 L113.724906,89.3767501 L112.168548,87.6897408 Z M111.997402,90.9697821 L110.463966,89.651042 L109.552461,90.4930185 L108.968731,91.0309056 L110.505988,92.6972857 L111.108055,91.9958933 L111.967605,90.9972876 L111.997402,90.9697821 Z M108.73799,91.2425458 L108.696732,91.280748 L107.24352,92.9715776 L108.799114,94.3094188 L110.294348,92.9303192 L108.73799,91.2425458 Z M108.567608,94.5225871 L107.033408,93.204611 L106.111971,94.0557561 L105.538174,94.5837106 L107.074666,96.2493267 L107.667564,95.5578668 L108.527114,94.5600252 L108.567608,94.5225871 Z M121.55865,74.5145646 L120.908448,75.2717323 L121.623594,75.8852597 L122.458694,76.6042252 L123.953928,75.2258896 L123.125704,74.3296659 L122.398334,73.5381162 L121.55865,74.5145646 Z M119.197754,76.879281 L119.930472,77.6746509 L120.738831,78.5502454 L122.227953,76.8181575 L121.424178,76.1274617 L120.692988,75.4994174 L119.197754,76.879281 Z M134.463355,64.3428457 L135.952476,62.6099937 L135.147174,61.9170057 L134.413692,61.2874334 L132.918457,62.666533 L133.652704,63.464195 L134.463355,64.3428457 Z M124.170153,74.9982045 L125.659275,73.2661166 L124.8555,72.5746567 L124.123546,71.9466124 L122.628312,73.325712 L123.36103,74.1218459 L124.170153,74.9982045 Z M124.998376,70.9525911 L124.33977,71.7189273 L125.054916,72.3324547 L125.889252,73.0506561 L126.545566,72.4462973 L127.383722,71.6723206 L126.557026,70.7768609 L125.828892,69.9860753 L124.998376,70.9525911 Z M131.032797,67.8941226 L132.521154,66.1620346 L131.716616,65.4698107 L130.983898,64.8402384 L129.487899,66.219338 L130.222146,67.0162359 L131.032797,67.8941226 Z M127.601475,71.4461635 L129.090597,69.7140756 L128.286058,69.0218517 L127.554104,68.3930434 L126.058106,69.772907 L126.791588,70.5690409 L127.601475,71.4461635 Z M128.438867,67.3898535 L127.771092,68.1668863 L128.485474,68.7796497 L129.319046,69.4978511 L129.986056,68.8835597 L130.81428,68.1195156 L129.987584,67.22482 L129.260214,66.4347984 L128.438867,67.3898535 Z M131.878593,63.8271159 L131.202414,64.6156094 L131.916032,65.2276087 L132.74884,65.9450461 L133.425783,65.3215862 L134.244074,64.5667106 L133.418142,63.672015 L132.691536,62.8827574 L131.878593,63.8271159 Z M135.319084,60.2651424 L134.633736,61.0628044 L135.346589,61.6748037 L136.179398,62.3922411 L136.866273,61.7588486 L137.673868,61.0131416 L136.8487,60.11921 L136.122094,59.3307165 L135.319084,60.2651424 Z M139.383798,59.0587168 L138.577732,58.3649648 L137.843486,57.7346284 L136.348251,59.113728 L137.083262,59.912154 L137.894677,60.7908047 L139.383798,59.0587168 Z M141.103662,57.4603366 L140.279258,56.567169 L139.553416,55.7786755 L138.75881,56.7024048 L138.064294,57.5115275 L138.777147,58.1227628 L139.609191,58.8394361 L140.306,58.1968751 L141.103662,57.4603366 Z M118.797395,80.3709625 L117.99362,79.6795026 L117.263194,79.0529865 L115.767196,80.432086 L116.499914,81.2274559 L117.307509,82.1022864 L118.791282,80.3763108 L118.797395,80.3709625 Z M116.264588,81.4345119 L115.537218,80.6444903 L115.52041,80.6597712 L114.677669,81.6392757 L114.045804,82.3758142 L114.762478,82.9901056 L115.598342,83.7105992 L116.224858,83.1337459 L117.093576,82.3322637 L116.264588,81.4345119 Z M115.366837,83.9237675 L114.563062,83.2323076 L113.8334,82.6057915 L112.337402,83.9856551 L113.068592,84.7794969 L113.876187,85.6543274 L115.351556,83.9382843 L115.366837,83.9237675 Z M112.834031,84.9873169 L112.106661,84.1980593 L112.080683,84.2217447 L111.237942,85.2020133 L110.614482,85.9278551 L111.331156,86.5429106 L112.168548,87.2634042 L112.785132,86.6957194 L113.663018,85.8850687 L112.834031,84.9873169 Z M111.936279,87.4773365 L111.132504,86.7851126 L110.402842,86.1593605 L108.906844,87.5384601 L109.638034,88.3323019 L110.444865,89.2063683 L111.911065,87.5010219 L111.936279,87.4773365 Z M109.402709,88.5401219 L108.676867,87.7508643 L108.640193,87.7844823 L107.797452,88.7639868 L107.18316,89.4798961 L107.900598,90.0957156 L108.738754,90.8169732 L109.344641,90.258457 L110.233224,89.4386377 L109.402709,88.5401219 Z M108.506485,91.0301415 L106.973048,89.7121655 L105.476286,91.0920291 L106.207476,91.8851069 L107.013543,92.7584093 L108.470575,91.0629954 L108.506485,91.0301415 Z M105.972151,92.0929269 L105.246309,91.3044334 L105.200466,91.3472198 L104.357725,92.3267244 L103.751838,93.031937 L104.47004,93.6485206 L105.308196,94.3697782 L105.904915,93.8204305 L106.802667,92.9914427 L105.972151,92.0929269 Z M105.076691,94.5837106 L104.270624,93.8907226 L103.54249,93.2657345 L102.046492,94.6448341 L102.776918,95.4379119 L103.582221,96.3104502 L105.030848,94.625733 L105.076691,94.5837106 Z M102.541593,95.6449678 L101.816515,94.8572384 L101.759976,94.9091934 L100.917235,95.8886979 L100.320516,96.583978 L101.039482,97.2005616 L101.878402,97.9233473 L102.464424,97.3831681 L103.372873,96.5450117 L102.541593,95.6449678 Z M118.118159,78.0773022 L117.477126,78.8230092 L118.193036,79.4373006 L119.0289,80.1570302 L119.665349,79.5710083 L120.52337,78.7786946 L119.695146,77.8824709 L118.967012,77.0909212 L118.9609,77.0970336 L118.118159,78.0773022 Z M140.51382,56.359349 L141.325999,57.2387638 L142.81512,55.5059118 L142.00829,54.8121598 L141.274044,54.1810593 L139.778045,55.5601589 L140.51382,56.359349 Z M143.95431,54.8694631 L143.269727,55.4990354 L144.818444,57.1776402 L145.509904,56.3715737 L145.956106,55.8535518 C145.549634,55.2866311 145.111073,54.746452 144.648826,54.227666 L143.95431,54.8694631 Z M110.068955,103.783565 L110.479247,103.405364 L109.666304,102.525949 L108.922889,101.71759 L108.865586,101.771073 L108.022845,102.750578 L107.561362,103.287701 C108.421676,103.504689 109.265945,103.668959 110.068955,103.783565 Z M119.162608,101.324108 L118.388631,100.658625 L117.629171,100.006131 L116.136229,101.382939 L116.894161,102.205814 L117.673486,103.049319 L119.12899,101.355433 L119.162608,101.324108 Z M118.455867,99.0564247 L117.839283,99.7738621 L118.588047,100.416423 L119.394877,101.110939 L120.003056,100.550895 L120.892403,99.7295475 L120.090157,98.8608294 L119.33681,98.0417741 L119.298608,98.0769201 L118.455867,99.0564247 Z M132.216301,84.8070025 L131.564571,85.5656982 L132.311042,86.2059672 L133.115581,86.8981911 L133.76349,86.3007087 L134.613107,85.5160354 L133.813153,84.6496094 L133.057513,83.829026 L132.216301,84.8070025 Z M129.857697,87.1694268 L130.617921,87.9953584 L131.39801,88.8411552 L132.884075,87.1121235 L131.349875,85.7933834 L129.857697,87.1694268 Z M134.829332,85.2891143 L136.315397,83.5600825 L135.542185,82.8953642 L134.779669,82.2405784 L133.287491,83.6166218 L134.048479,84.4425534 L134.829332,85.2891143 Z M135.656027,81.2442649 L134.995893,82.0128932 L135.7416,82.6531622 L136.545375,83.3446221 L137.203217,82.7387351 L138.043665,81.9632304 L137.243711,81.0975684 L136.488835,80.2769851 L135.656027,81.2442649 Z M145.123298,74.6329914 L146.609363,72.9039597 L145.069815,71.5813993 L143.577636,72.9574427 L144.340152,73.7849025 L145.123298,74.6329914 Z M138.260654,81.7370733 L139.746719,80.0080416 L138.973507,79.3425592 L138.210227,78.6870093 L136.717285,80.0630527 L137.479037,80.8897484 L138.260654,81.7370733 Z M139.096518,77.6822914 L138.427215,78.4608523 L139.172922,79.1003572 L139.975933,79.7918171 L140.643707,79.1759976 L141.474223,78.4096613 L140.675033,77.5447634 L139.920157,76.7249441 L139.096518,77.6822914 Z M141.691976,78.1850324 L143.178041,76.4567647 L141.640021,75.1342043 L140.147843,76.5102477 L140.909594,77.3369434 L141.691976,78.1850324 Z M142.537008,74.1195538 L141.858537,74.9095754 L142.602716,75.5483162 L143.404962,76.2390121 L144.084198,75.614024 L144.903253,74.8576204 L144.104827,73.9927225 L143.350715,73.1729032 L142.537008,74.1195538 Z M145.976735,70.5575803 L145.289859,71.3575344 L146.034038,71.9955112 L146.83552,72.6862071 L148.333811,71.3040513 L147.535385,70.4399175 L146.782037,69.6216263 L145.976735,70.5575803 Z M147.77071,70.2320975 L148.55462,71.0809505 L150.039921,69.3526827 L149.264417,68.6849082 L148.499608,68.0285943 L147.00743,69.4038737 L147.77071,70.2320975 Z M130.382595,88.2024144 L129.626955,87.381831 L129.618551,87.3894715 L128.77581,88.368976 L128.133249,89.1177392 L128.880484,89.7580081 L129.685023,90.4509961 L130.323,89.8634462 L131.183313,89.0696044 L130.382595,88.2024144 Z M129.453517,90.6649285 L128.681069,90.0002101 L127.919317,89.3469524 L126.427139,90.7229958 L127.186599,91.5473994 L127.966688,92.3931962 L129.449697,90.6679846 L129.453517,90.6649285 Z M126.952037,91.7552194 L126.196398,90.9354001 L126.178825,90.952209 L125.336084,91.9317136 L124.701927,92.6697801 L125.449162,93.3108131 L126.255229,94.0045652 L126.883273,93.4254197 L127.752755,92.6231735 L126.952037,91.7552194 Z M126.02296,94.2177335 L125.250511,93.5530151 L124.489523,92.8997574 L122.996581,94.2765649 L123.756041,95.1002044 L124.53613,95.9452371 L126.009207,94.2307222 L126.02296,94.2177335 Z M123.520715,95.3080244 L122.766604,94.4882051 L122.738334,94.5141826 L121.895593,95.4936871 L121.270605,96.2218211 L122.018604,96.8636181 L122.824671,97.5573702 L123.442783,96.9881573 L124.322961,96.1759785 L123.520715,95.3080244 Z M122.593166,97.7713025 L121.819189,97.1058201 L121.058965,96.4533265 L119.566787,97.8293699 L120.325483,98.6530094 L121.104808,99.4972781 L122.568716,97.7934598 L122.593166,97.7713025 Z M113.970928,103.34424 L112.41457,101.656467 L112.361851,101.705365 L110.91628,103.387027 L111.571066,103.949363 C112.178481,103.995206 112.745401,104.011251 113.258839,104.000554 L113.970928,103.34424 Z M131.504212,82.0740168 L133.054457,83.4057456 L134.551984,82.0243539 L132.99639,80.3381086 L131.504212,82.0740168 Z M129.795809,83.6785093 L131.33765,85.3494738 L131.974099,84.607587 L132.823716,83.620442 L131.288751,82.3017019 L130.418505,83.1054763 L129.795809,83.6785093 Z M134.768972,81.7974328 L135.414589,81.0448494 L136.255038,80.068401 L134.719309,78.7481329 L133.858996,79.5427387 L133.226367,80.1249403 L134.768972,81.7974328 Z M134.935534,78.5219758 L136.484251,79.8529406 L137.982542,78.4715489 L136.427712,76.7860677 L134.935534,78.5219758 Z M141.630852,74.694115 L142.294806,73.9201383 L143.117682,72.9643191 L141.578897,71.6425229 L140.739213,72.4180276 L140.085955,73.0185663 L141.630852,74.694115 Z M138.19953,78.2453919 L138.854316,77.4828759 L139.68636,76.5163601 L138.149103,75.1953279 L137.298722,75.9807652 L136.656161,76.5721353 L138.19953,78.2453919 Z M138.366856,74.9699349 L139.914045,76.3001356 L141.412335,74.9187439 L139.859034,73.2340267 L138.366856,74.9699349 Z M141.798178,71.4178939 L143.343839,72.7465666 L144.842129,71.3651749 L143.289592,69.6819858 L141.798178,71.4178939 Z M145.734533,70.3581648 L146.54824,69.4122782 L145.008691,68.0889538 L144.178939,68.8560541 L143.516513,69.4657613 L145.062174,71.142074 L145.734533,70.3581648 Z M148.271923,67.8123699 L146.720914,66.1307088 L145.2295,67.865853 L146.774397,69.1937616 L148.271923,67.8123699 Z M129.565832,83.8901496 L129.562776,83.8932057 L128.07289,85.6260577 L129.623899,86.9593147 L131.121426,85.5779229 L129.565832,83.8901496 Z M126.366015,87.2313143 L127.906328,88.9015147 L128.533608,88.1695605 L129.392394,87.172483 L127.858957,85.8545069 L126.978015,86.6674498 L126.366015,87.2313143 Z M126.135274,87.4437186 L126.122285,87.4551793 L124.641568,89.1780987 L126.193341,90.5121196 L127.691632,89.1307279 L126.135274,87.4437186 Z M125.961836,90.726052 L124.4284,89.4080759 L123.538288,90.2301874 L122.935457,90.7848834 L124.475006,92.4535557 L125.093882,91.7322981 L125.953432,90.7344565 L125.961836,90.726052 Z M122.70548,90.9965236 L122.682559,91.0179168 L121.210246,92.7301396 L122.763547,94.0656887 L124.261074,92.684297 L122.70548,90.9965236 Z M122.532042,94.278857 L120.998606,92.9608809 L120.097798,93.7921609 L119.505663,94.3376884 L121.043684,96.0055966 L121.653391,95.2950356 L122.512941,94.29643 L122.532042,94.278857 Z M119.274922,94.5500926 L119.242068,94.5806544 L117.778924,96.2821806 L119.333754,97.6184937 L120.83128,96.237866 L119.274922,94.5500926 Z M119.101484,97.832426 L117.568048,96.5136859 L116.658071,97.3548985 L116.075106,97.8912574 L117.612362,99.5576376 L118.213665,98.8570091 L119.07245,97.8591676 L119.101484,97.832426 Z M115.844364,98.1028976 L115.801578,98.1426279 L114.347602,99.8349856 L115.903196,101.172063 L117.400722,99.790671 L115.844364,98.1028976 Z M115.67169,101.385231 L114.138254,100.067255 L113.217581,100.917636 L112.645312,101.444062 L114.18104,103.109679 L114.773174,102.419747 L115.632724,101.421141 L115.67169,101.385231 Z M111.036235,103.901992 L110.707696,103.62006 L110.471606,103.838577 C110.662617,103.863026 110.850572,103.883655 111.036235,103.901992 Z M128.663496,81.3756805 L128.01253,82.1343763 L128.748305,82.7654767 L129.56354,83.4668691 L130.210685,82.8701507 L131.060302,82.0862415 L130.251179,81.2098829 L129.504708,80.3984681 L128.663496,81.3756805 Z M126.304128,83.7396329 L127.055183,84.5548679 L127.845205,85.4105973 L129.332034,83.6808015 L128.549653,83.0076786 L127.797834,82.3620614 L126.304128,83.7396329 Z M131.276527,81.8585563 L132.763356,80.1287605 L131.980211,79.4548736 L131.227628,78.8092564 L129.733922,80.1860638 L130.485741,81.0020629 L131.276527,81.8585563 Z M132.103986,77.813707 L131.443852,78.5815713 L132.179627,79.2126717 L132.993334,79.9133001 L133.651176,79.3081772 L134.49086,78.5334365 L133.681737,77.6570779 L132.935266,76.8464271 L132.103986,77.813707 Z M141.569729,71.2031975 L143.057322,69.4734017 L142.271885,68.7972227 L141.517774,68.1500774 L140.024831,69.5268848 L140.777415,70.344412 L141.569729,71.2031975 Z M134.707849,78.3065154 L136.194678,76.5767196 L135.410769,75.9020686 L134.658186,75.2556874 L133.16448,76.6332588 L134.707849,78.3065154 Z M135.543713,74.2509694 L134.875174,75.0295303 L135.610185,75.6598667 L136.423892,76.3604951 L137.090902,75.7454396 L137.920654,74.9798674 L137.112295,74.105037 L136.366588,73.2951502 L135.543713,74.2509694 Z M138.139171,74.7544744 L139.626,73.0246786 L138.841327,72.3500277 L138.08798,71.7028824 L136.594273,73.0796898 L137.346857,73.897217 L138.139171,74.7544744 Z M138.984203,70.6889959 L138.306496,71.4782534 L139.040743,72.1078257 L139.852922,72.8076901 L140.531393,72.182702 L141.350448,71.4270624 L140.542853,70.552232 L139.79791,69.7431093 L138.984203,70.6889959 Z M142.42393,67.1262583 L141.737818,67.9262124 L142.471301,68.5557848 L143.283479,69.2548851 L143.971119,68.6207285 L144.781006,67.8734934 L143.973411,67.000191 L143.229232,66.1910683 L142.42393,67.1262583 Z M146.48788,65.9213608 L145.702443,65.2451817 L144.947567,64.5965083 L143.454625,65.9740798 L144.208737,66.792371 L145.001051,67.6511566 L146.48788,65.9213608 Z M148.2108,64.3206884 L147.403969,63.447386 L146.65979,62.6390274 L145.86442,63.5642848 L145.16914,64.3741715 L145.901859,65.0029798 L146.713273,65.7020801 L147.41161,65.0579909 L148.2108,64.3206884 Z M126.819858,84.7626879 L126.07415,83.9520371 L126.065746,83.9589135 L125.223005,84.938418 L124.581208,85.6864172 L125.317747,86.3182817 L126.132982,87.0196741 L126.770959,86.4328883 L127.629744,85.6390465 L126.819858,84.7626879 Z M125.901477,87.2336065 L125.118331,86.5604836 L124.367276,85.9156304 L122.87357,87.2924379 L123.624625,88.1076729 L124.413883,88.9626382 L125.896892,87.2374267 L125.901477,87.2336065 Z M123.3893,88.3154929 L122.643593,87.5048421 L122.62602,87.5208871 L121.783279,88.5011556 L121.149886,89.2384582 L121.887189,89.8710867 L122.703188,90.5732432 L123.330468,89.9948618 L124.19995,89.1926155 L123.3893,88.3154929 Z M122.470919,90.7871755 L121.687773,90.1132886 L120.937482,89.4684354 L119.443776,90.8460069 L120.193303,91.6604779 L120.982561,92.5146792 L122.456402,90.8001643 L122.470919,90.7871755 Z M119.958742,91.8675339 L119.213035,91.0584112 L119.185529,91.0836246 L118.342788,92.0631291 L117.718564,92.7904991 L118.456631,93.4231276 L119.27263,94.1260482 L119.889978,93.5575994 L120.769392,92.7461846 L119.958742,91.8675339 Z M119.041125,94.3399805 L118.257215,93.6653296 L117.506924,93.0212404 L116.013218,94.3988119 L116.762745,95.2125189 L117.551239,96.0667201 L119.016675,94.3621378 L119.041125,94.3399805 Z M116.528184,95.4203389 L115.783241,94.6112162 L115.745803,94.6463622 L114.903062,95.6258667 L114.287242,96.3425401 L115.025309,96.9759326 L115.842836,97.6796172 L116.450251,97.1195729 L117.339598,96.2989896 L116.528184,95.4203389 Z M115.610567,97.8935496 L114.825893,97.2181346 L114.07713,96.5748095 L112.583424,97.952381 L113.332187,98.7653239 L114.119917,99.6187611 L115.576185,97.9248754 L115.610567,97.8935496 Z M113.096862,98.9731439 L112.352683,98.1647852 L112.305312,98.2083357 L111.462571,99.1878402 L110.85592,99.894581 L111.594751,100.528738 L112.412278,101.232422 L113.009761,100.68231 L113.909041,99.8525586 L113.096862,98.9731439 Z M112.180773,101.446355 L111.395336,100.77094 L110.646572,100.127614 L109.152866,101.50595 L110.688595,103.171566 L112.136458,101.487613 L112.180773,101.446355 Z M107.223655,103.199836 L107.780643,102.551162 L108.639428,101.553321 L108.689091,101.506714 L107.155655,100.188738 L106.225049,101.049052 L105.661949,101.567074 L107.148014,103.179207 C107.173228,103.186083 107.198441,103.192959 107.223655,103.199836 Z M107.364239,99.9549405 L108.921361,101.293546 L110.417359,99.9136821 L108.861001,98.2259087 L108.809046,98.2740435 L107.364239,99.9549405 Z M125.110691,77.9451225 L124.460489,78.7030543 L125.186331,79.3249862 L126.011499,80.0355472 L126.65788,79.4395928 L127.506733,78.6556835 L126.688442,77.7693924 L125.951139,76.9686742 L125.110691,77.9451225 Z M122.750559,80.3090749 L123.492446,81.1143774 L124.2924,81.9808034 L125.779994,80.2494795 L124.986916,79.5671881 L124.245793,78.9307394 L122.750559,80.3090749 Z M141.448246,64.2205986 L142.935839,62.4900388 L142.139705,61.8046912 L141.395527,61.1659504 L139.901056,62.5435219 L140.645999,63.3518805 L141.448246,64.2205986 Z M127.722958,78.4287624 L129.211315,76.6974385 L128.417474,76.0151472 L127.675587,75.3779344 L126.181117,76.7562699 L126.923768,77.5623364 L127.722958,78.4287624 Z M128.551181,74.383149 L127.891811,75.1502493 L128.616889,75.7729452 L129.441293,76.4819781 L130.098371,75.8768552 L130.937291,75.1028785 L130.119,74.2173514 L129.382461,73.4166332 L128.551181,74.383149 Z M138.016924,67.7726396 L139.504517,66.0413157 L138.709148,65.3574962 L137.965733,64.7187554 L136.471262,66.0963269 L137.215441,66.9046855 L138.016924,67.7726396 Z M134.585602,71.3246805 L136.073195,69.5933566 L135.27859,68.9095372 L134.535939,68.2715604 L133.041468,69.6498959 L133.784883,70.4567265 L134.585602,71.3246805 Z M131.15428,74.8767215 L132.642637,73.1453976 L131.106145,71.8243654 L129.610911,73.2027009 L130.354325,74.0095314 L131.15428,74.8767215 Z M131.990908,70.8204114 L131.323133,71.5982083 L132.047447,72.2201402 L132.871087,72.9291731 L133.538097,72.3148817 L134.367085,71.5493095 L133.549558,70.6645464 L132.813783,69.8645923 L131.990908,70.8204114 Z M135.431398,67.2584379 L134.754455,68.0469314 L135.478005,68.6680992 L136.300881,69.3763681 L136.978588,68.7521441 L137.796879,67.9965045 L136.980116,67.1125055 L136.244341,66.3125513 L135.431398,67.2584379 Z M138.871889,63.6957003 L138.185777,64.4941264 L138.908563,65.1152943 L139.731439,65.8235631 L140.419078,65.1901706 L141.227437,64.4436995 L140.410674,63.5597005 L139.675663,62.7612744 L138.871889,63.6957003 Z M142.311615,60.1337268 L141.617099,60.9428495 L142.339121,61.5632533 L143.161232,62.2707581 L143.858805,61.627433 L144.657231,60.8908945 L143.841232,60.0068955 L143.106985,59.2092335 L142.311615,60.1337268 Z M144.076557,59.7998396 L144.878804,60.6693217 L146.367161,58.9379978 L145.570263,58.2526503 L144.826084,57.6123813 L143.331614,58.9907169 L144.076557,59.7998396 Z M122.349436,83.8022845 L121.556358,83.1199931 L120.815235,82.4843084 L119.320765,83.862644 L120.061888,84.6671824 L120.860314,85.5328443 L122.344087,83.8068688 L122.349436,83.8022845 Z M119.826562,84.8750024 L119.090023,84.0750482 L119.073215,84.0903291 L118.230474,85.0698336 L117.597845,85.8071362 L118.324451,86.4305961 L119.150383,87.1419212 L119.777663,86.5643039 L120.646381,85.7620576 L119.826562,84.8750024 Z M108.628732,98.0150326 L107.833362,97.3304491 L107.094531,96.6970565 L105.600061,98.0753921 L106.338892,98.8776383 L107.13579,99.7410082 L108.583653,98.0562909 L108.628732,98.0150326 Z M107.909766,95.7572823 L107.303879,96.463259 L108.032777,97.0882471 L108.860237,97.8011002 L109.456956,97.2517525 L110.356236,96.4220006 L109.534888,95.5326533 L108.799878,94.7342273 L108.752507,94.7777778 L107.909766,95.7572823 Z M112.058526,94.4614635 L110.525089,93.1434875 L109.029855,94.5225871 L109.76945,95.3255974 L110.567112,96.1889672 L112.02338,94.4943174 L112.058526,94.4614635 Z M111.350257,92.1953088 L110.735201,92.9112181 L111.463335,93.5362061 L112.290795,94.2482952 L112.897446,93.689015 L113.786029,92.8684316 L112.965446,91.9806124 L112.229672,91.1814223 L112.192998,91.2150402 L111.350257,92.1953088 Z M115.489084,90.9086585 L114.694478,90.2256031 L113.954883,89.5906825 L112.460413,90.969018 L113.200772,91.7727924 L113.998434,92.6369263 L115.46387,90.9315799 L115.489084,90.9086585 Z M114.790747,88.6325712 L114.166523,89.3591771 L114.893893,89.9834011 L115.720589,90.6947262 L116.337937,90.1262774 L117.216587,89.3156266 L116.396004,88.4278074 L115.66023,87.6278532 L115.633488,87.6530667 L114.790747,88.6325712 Z M118.918878,87.3558535 L118.125036,86.6727981 L117.385441,86.0371134 L115.890207,87.415449 L116.63133,88.2199874 L117.428992,89.0848853 L118.903597,87.3696063 L118.918878,87.3558535 Z M124.520849,82.1947357 L126.071858,83.5279927 L127.568621,82.147365 L126.012263,80.4603557 L126.009971,80.4626478 L124.520849,82.1947357 Z M122.812446,83.8015204 L124.352759,85.4717208 L124.980803,84.7390025 L125.840353,83.741161 L124.306152,82.4231849 L123.425974,83.2368919 L122.812446,83.8015204 Z M127.952171,78.6426948 L129.502416,79.9744236 L130.998415,78.59456 L129.443585,76.9075507 L127.952171,78.6426948 Z M126.243004,80.2479514 L127.784081,81.9196799 L128.421294,81.177029 L129.271675,80.18912 L127.73671,78.8703799 L126.8657,79.6741543 L126.243004,80.2479514 Z M131.215403,78.3676389 L131.861784,77.6142914 L132.702997,76.6370791 L131.167268,75.3168109 L130.306191,76.1121808 L129.672798,76.6943824 L131.215403,78.3676389 Z M131.383493,75.0906538 L132.93221,76.4216186 L134.428973,75.040991 L132.874907,73.3555097 L131.383493,75.0906538 Z M138.078047,71.263557 L138.742001,70.4895803 L139.564877,69.5329972 L138.026856,68.2112009 L137.186408,68.9874697 L136.53315,69.5887724 L138.078047,71.263557 Z M134.646725,74.815598 L135.301511,74.0515539 L136.133555,73.0850381 L134.597062,71.7640059 L133.745917,72.5494432 L133.103356,73.1415774 L134.646725,74.815598 Z M134.814815,71.5386129 L136.362004,72.8688136 L137.858766,71.488186 L136.305465,69.8042328 L134.814815,71.5386129 Z M138.246137,67.9865719 L139.791798,69.3152446 L141.289324,67.9346169 L139.736787,66.2521919 L138.246137,67.9865719 Z M142.181728,66.9268428 L142.996199,65.9809562 L141.45665,64.6576318 L140.626134,65.4247321 L139.962944,66.0359674 L141.508605,67.7115161 L142.181728,66.9268428 Z M144.719118,64.3818119 L143.168109,62.7001509 L141.677459,64.434531 L143.222356,65.7624396 L144.719118,64.3818119 Z M145.622218,63.3648693 L146.427521,62.4289152 L144.886444,61.1048268 L144.066625,61.8627586 L143.392738,62.4823983 L144.939927,64.1602391 L145.622218,63.3648693 Z M148.148912,60.8290069 L146.599431,59.1481099 L145.108017,60.88249 L146.65215,62.2096346 L148.148912,60.8290069 Z M122.582469,84.0131607 L122.56948,84.0246213 L121.089527,85.7467767 L122.6413,87.0807977 L124.138063,85.700934 L122.582469,84.0131607 Z M122.409795,87.29473 L120.876359,85.976754 L119.985483,86.7996294 L119.382652,87.3543254 L120.921437,89.0237618 L121.541077,88.3017401 L122.400627,87.3031345 L122.409795,87.29473 Z M119.151911,87.5667297 L119.129754,87.5873589 L117.658205,89.2988176 L119.211507,90.6336027 L120.708269,89.253739 L119.151911,87.5667297 Z M118.980001,90.847535 L117.445801,89.529559 L116.544993,90.361603 L115.952094,90.9078945 L117.490115,92.5758027 L118.100586,91.8637136 L118.960136,90.8658721 L118.980001,90.847535 Z M115.722117,91.1195347 L115.689263,91.1493324 L114.226883,92.8508586 L115.781713,94.1871717 L117.277711,92.8073081 L115.722117,91.1195347 Z M115.549443,94.401104 L114.016007,93.082364 L113.105266,93.9243405 L112.521536,94.4606995 L114.058793,96.1278437 L114.66086,95.4264512 L115.519645,94.4278456 L115.549443,94.401104 Z M112.291559,94.6731037 L112.249537,94.71207 L110.795561,96.4028995 L112.351155,97.7407407 L113.847153,96.3601131 L112.291559,94.6731037 Z M112.119649,97.953909 L110.586213,96.635933 L109.664776,97.4863141 L109.091743,98.0142685 L110.627471,99.6798846 L111.220369,98.9884247 L112.079919,97.9905832 L112.119649,97.953909 Z M106.925678,99.9755697 L106.10433,99.0854583 L105.36932,98.2877963 L105.312781,98.3397513 L103.872557,100.0153 L104.601456,100.641052 L105.430443,101.354669 L106.017229,100.813726 L106.925678,99.9755697 Z M121.670964,81.5078601 L121.029167,82.2550952 L121.755773,82.8777911 L122.580941,83.5883521 L123.218154,83.0015663 L124.076939,82.2092526 L123.257884,81.3221974 L122.520581,80.5214792 L122.513705,80.5283556 L121.670964,81.5078601 Z M145.752106,56.5709892 L145.047657,57.3908085 L145.770443,58.0104483 L146.591026,58.7171891 L147.321452,58.0448303 C146.960824,57.3793479 146.565813,56.7383149 146.137948,56.1217313 L145.752106,56.5709892 Z M149.81682,65.7204172 L148.438485,64.5361488 L147.61943,65.2933165 L146.946307,65.9129563 L148.493496,67.590033 L149.175023,66.7954272 L149.850438,66.0107539 C149.838214,65.9144844 149.830573,65.8166867 149.81682,65.7204172 Z M149.73736,65.2390694 C149.640326,64.6415869 149.526484,64.0494528 149.387428,63.4687792 L148.660058,64.313812 L149.73736,65.2390694 Z M149.899337,66.4340343 L149.417225,66.9948427 L148.721181,67.8054935 L149.464596,68.4434703 L150.051382,68.9492675 C150.042213,68.0996504 149.991022,67.26073 149.899337,66.4340343 Z M123.414513,102.041545 L122.889615,101.471568 L122.850648,101.507478 L122.059863,102.426623 C122.516761,102.304376 122.967547,102.175253 123.414513,102.041545 Z M139.68254,92.5085668 C140.053101,92.1242527 140.41373,91.7361183 140.765954,91.3433996 L140.163887,90.6893779 L139.321147,91.6681184 L138.669417,92.4283422 L139.260023,92.9349034 C139.401371,92.7935553 139.543484,92.6529712 139.68254,92.5085668 Z M141.883751,89.1032224 L140.393865,90.4769736 L140.973774,91.1065459 C141.444425,90.5740072 141.894447,90.033064 142.330716,89.4867725 L141.883751,89.1032224 Z M142.525548,89.2407503 C142.993143,88.647088 143.446985,88.0480775 143.872557,87.4391343 L143.595209,87.1373369 L142.761637,88.1061448 L142.100739,88.8763013 L142.525548,89.2407503 Z M138.453957,92.6560274 L136.964071,94.0297786 L137.478272,94.5882948 C138.011575,94.1283403 138.531889,93.6523408 139.037686,93.1572403 L138.453957,92.6560274 Z M136.73333,94.2421829 L136.724161,94.2513514 L135.88142,95.2308559 L135.238095,95.9803832 L135.475713,96.1843829 C136.079308,95.7397093 136.66915,95.2774626 137.240655,94.7938227 L136.73333,94.2421829 Z M135.023399,96.2088323 L133.780299,97.3556625 C134.267759,97.0401123 134.746815,96.7131014 135.216702,96.3746299 L135.023399,96.2088323 Z M132.673199,98.0433022 L133.058277,97.5955724 L133.065918,97.588696 L131.532481,96.2699559 L130.643134,97.0913033 L130.041831,97.6452352 L131.184077,98.8837507 C131.68911,98.6140431 132.185739,98.333639 132.673199,98.0433022 Z M131.74565,96.0407427 L133.298187,97.3747636 L134.798006,95.9918438 L133.241648,94.3040704 L133.227895,94.3170592 L131.74565,96.0407427 Z M142.039616,85.3846198 L143.588333,86.7155846 L145.088916,85.3319008 L143.534086,83.6456555 L142.039616,85.3846198 Z M140.332741,86.9852922 L141.875346,88.6577847 L142.519435,87.9067293 L143.35912,86.931045 L141.822627,85.6107768 L140.963842,86.4046186 L140.332741,86.9852922 Z M140.102764,87.1976964 L138.608294,88.9366607 L140.158539,90.2683896 L141.658358,88.8847057 L140.102764,87.1976964 Z M136.902183,90.5388612 L138.44326,92.2098256 L139.079709,91.4687028 L139.927798,90.483086 L138.392833,89.1635818 L137.523351,89.9665922 L136.902183,90.5388612 Z M136.672206,90.7505014 L136.667622,90.7543216 L135.176972,92.4887017 L136.727981,93.8211946 L138.228564,92.4382748 L136.672206,90.7505014 Z M133.472389,94.0916662 L135.012702,95.7618666 L135.639218,95.0314404 L136.496476,94.0351269 L134.963039,92.7171509 L134.083625,93.5293297 L133.472389,94.0916662 Z M142.649323,81.1128493 L141.98002,81.8921743 L142.734896,82.5408477 L143.52721,83.2231391 L144.196512,82.6065555 L145.027028,81.8402193 L144.237006,80.9852539 L143.472962,80.1555021 L142.649323,81.1128493 Z M140.270854,83.4936107 L141.041774,84.330239 L141.814223,85.1668672 L143.29876,83.4393636 L141.762268,82.1183313 L140.270854,83.4936107 Z M146.730082,79.8873226 L145.966038,79.2302447 L145.192062,78.5655263 L143.700648,79.9408057 L144.472332,80.777434 L145.245545,81.6148263 L146.730082,79.8873226 Z M148.456822,78.2874143 L147.667564,77.432449 L146.904284,76.6034611 L146.089049,77.5501117 L145.410578,78.3408974 L146.165454,78.9880427 L146.957003,79.6703341 L147.636239,79.044582 L148.456822,78.2874143 Z M140.806449,84.5372949 L140.04164,83.706779 L139.208832,84.6748228 L138.547934,85.4449793 L139.304338,86.0928887 L140.097416,86.7759441 L140.756022,86.1692931 L141.597234,85.3930243 L140.806449,84.5372949 Z M136.84106,87.0464157 L137.610452,87.8822799 L138.382901,88.7189082 L139.867438,86.9914045 L139.104922,86.3350906 L138.33171,85.6711363 L136.84106,87.0464157 Z M137.375891,88.0900999 L136.610318,87.2588199 L135.116612,88.9970202 L135.87378,89.6456937 L136.667622,90.3295131 L137.316295,89.7312666 L138.166676,88.9465933 L137.375891,88.0900999 Z M133.410502,90.5999847 L134.179894,91.4350849 L134.951579,92.2709491 L136.436116,90.5434455 L135.674364,89.8878956 L134.901916,89.2247054 L133.410502,90.5999847 Z M133.944569,91.6429049 L133.180525,90.812389 L133.171356,90.8200294 L132.328615,91.800298 L131.68529,92.5490612 L132.442458,93.1984987 L133.237064,93.8823181 L133.875805,93.2940042 L134.736118,92.4993983 L133.944569,91.6429049 Z M133.005558,94.0962505 L131.471358,92.7775104 L129.979944,94.1527897 L130.749336,94.9878899 L131.520257,95.8229901 L133.001738,94.0993066 L133.005558,94.0962505 Z M130.514011,95.1957099 L129.749967,94.365194 L129.73163,94.382767 L128.888125,95.3622715 L128.253968,96.1011021 L129.0119,96.7513037 L129.80727,97.4358872 L130.435314,96.8567417 L131.306324,96.0529674 L130.514011,95.1957099 Z M129.575,97.6490555 L128.812484,96.9935056 L128.041564,96.3310794 L126.55015,97.7063588 L127.318778,98.5406949 L128.088935,99.375031 L129.562012,97.6612802 L129.575,97.6490555 Z M127.083453,98.7485149 L126.320173,97.918763 L126.291139,97.9447405 L124.822646,99.6531431 L125.581342,100.304109 L126.376712,100.988692 L126.995588,100.418715 L127.875766,99.6065364 L127.083453,98.7485149 Z M126.088667,101.15449 L125.381927,100.545547 L124.611006,99.8838844 L123.119592,101.259164 L123.7484,101.942219 C124.545298,101.697725 125.324623,101.434894 126.088667,101.15449 Z M121.528088,102.564915 L121.765706,102.287567 L122.625255,101.289726 L122.653525,101.263748 L121.120089,99.9450079 L120.210112,100.785456 L119.628675,101.321051 L120.917617,102.719252 C121.121617,102.668825 121.325616,102.617634 121.528088,102.564915 Z M121.330965,99.7135026 L122.885795,101.049816 L124.384085,99.6676599 L122.828491,97.9798865 L122.794873,98.0112123 L121.330965,99.7135026 Z M126.084083,97.710179 L124.550647,96.3922029 L123.650603,97.2234829 L123.058468,97.7682463 L124.596489,99.4361546 L125.206196,98.7255936 L126.065746,97.7269879 L126.084083,97.710179 Z M124.762287,96.1614616 L126.315588,97.4970107 L127.814643,96.1140909 L126.258285,94.4270815 L126.2346,94.4484748 L124.762287,96.1614616 Z M129.513877,94.157374 L127.98044,92.8386339 L127.091093,93.6607453 L126.489026,94.2146773 L128.027811,95.8841136 L128.646687,95.162856 L129.505472,94.1650144 L129.513877,94.157374 Z M128.193609,92.6094207 L129.745382,93.9434416 L131.244437,92.5612859 L129.688843,90.8735125 L129.67509,90.8865013 L128.193609,92.6094207 Z M131.459133,92.3320727 L132.086413,91.6008825 L132.944435,90.6038049 L131.410998,89.2858289 L130.53082,90.0980078 L129.91882,90.6618723 L131.459133,92.3320727 Z M131.624931,89.0573797 L133.17594,90.3898726 L134.674995,89.0077168 L133.118637,87.3207075 L133.114817,87.3237637 L131.624931,89.0573797 Z M138.487575,81.9532978 L140.036292,83.2842626 L141.535347,81.9013428 L139.981281,80.2158616 L138.487575,81.9532978 Z M136.779172,83.5554983 L138.321777,85.2279908 L138.96663,84.4754073 L139.807079,83.499723 L138.270586,82.1794549 L137.411037,82.9732967 L136.779172,83.5554983 Z M141.753099,81.6759498 L142.407121,80.9134338 L143.238401,79.9476821 L141.701144,78.6266499 L140.851527,79.4113231 L140.20973,80.0019292 L141.753099,81.6759498 Z M141.918897,78.4012569 L143.466086,79.7306936 L144.96514,78.3485378 L143.411839,76.6645846 L141.918897,78.4012569 Z M145.846847,77.3506962 L146.669723,76.3956411 L145.130938,75.0738449 L144.291254,75.8485856 L143.639524,76.4491242 L145.183657,78.1239088 L145.846847,77.3506962 Z M148.395698,74.7957328 L146.843161,73.1125437 L145.350219,74.8492159 L146.89588,76.1778886 L148.395698,74.7957328 Z M136.549959,83.7679025 L135.057017,85.5053388 L136.605734,86.8370676 L138.105553,85.4549118 L136.549959,83.7679025 Z M133.349378,87.1083032 L134.890455,88.7800317 L135.526904,88.0381449 L136.375757,87.051764 L134.840792,85.7322599 L133.97131,86.5360342 L133.349378,87.1083032 Z M150.048326,69.8233339 L148.781541,71.2971749 L149.887112,72.2476458 C149.942888,71.7563654 149.986438,71.2650851 150.015472,70.7738047 C150.034573,70.4559624 150.040685,70.1396482 150.048326,69.8233339 Z M149.836686,72.6166791 L148.560732,71.5202758 L147.731744,72.286612 L147.069318,72.8963192 L148.614979,74.5718679 L149.287338,73.7887227 L149.748821,73.2523638 C149.78091,73.0407235 149.809944,72.8290833 149.836686,72.6166791 Z M149.379023,75.249575 C149.483697,74.7804519 149.576147,74.3098008 149.657135,73.8399137 L149.52954,73.9881382 L148.8419,74.7888564 L149.379023,75.249575 Z M146.964644,80.0943785 L145.470938,81.8325788 L146.630757,82.8296564 C146.974576,82.1496571 147.300059,81.4658377 147.593452,80.7759059 L146.964644,80.0943785 Z M146.486352,83.117701 L145.253185,82.0579718 L144.404332,82.8418811 L143.762535,83.4324872 L145.305904,85.1057437 L145.562623,84.8070025 C145.889634,84.2484862 146.193723,83.6846217 146.486352,83.117701 Z M144.837545,85.9889787 L143.824423,86.9234046 L144.052872,87.1717189 C144.321815,86.7797643 144.585411,86.3862816 144.837545,85.9889787 Z M130.898325,99.0357955 L129.811854,97.8568754 L129.787405,97.8790327 L128.314328,99.5927836 L128.83235,100.038221 C129.536034,99.7219071 130.225202,99.3880198 130.898325,99.0357955 Z M128.101923,99.8235249 L127.203408,100.654041 L127.059003,100.78622 C127.551812,100.592153 128.03698,100.388918 128.515271,100.178805 L128.101923,99.8235249 Z M120.568449,102.802533 L119.397933,101.533456 L119.354383,101.573186 L117.899643,103.265544 L117.99744,103.349588 C118.869979,103.184555 119.727236,103.001948 120.568449,102.802533 Z M117.46261,103.282352 L116.659599,102.413634 L115.906252,101.594579 L115.858117,101.638894 L114.407961,103.325903 L115.007736,103.840869 C115.761847,103.734667 116.506026,103.618532 117.237981,103.489408 L117.46261,103.282352 Z M113.740187,103.982217 C113.999198,103.9677 114.2414,103.945543 114.462973,103.916509 C114.506523,103.911161 114.550074,103.904284 114.593624,103.898172 L114.199377,103.558936 L113.740187,103.982217 Z M105.431207,101.779478 L105.368556,101.836781 L104.860466,102.428151 C105.428151,102.64896 106.00042,102.843791 106.570397,103.014173 L105.431207,101.779478 Z M105.143163,101.619029 L105.198174,101.567838 L104.402804,100.883254 L103.664737,100.249862 L102.496514,101.327164 C103.16276,101.696197 103.852692,102.02168 104.552557,102.305904 L105.143163,101.619029 Z M102.209998,101.165186 L103.433996,100.036693 L101.877638,98.3489198 L101.815751,98.4062231 L100.455752,99.9885584 C101.011976,100.420243 101.599526,100.812198 102.209998,101.165186 Z M100.208966,99.7952553 L101.590358,98.1877065 L101.646133,98.1365156 L100.840066,97.4427635 L100.112697,96.8185395 L98.5846083,98.2274368 C98.8329227,98.5116612 99.0919336,98.785189 99.3631693,99.0472561 C99.6336409,99.3085592 99.9163372,99.5576376 100.208966,99.7952553 Z M98.3836647,97.987527 L99.8804271,96.6061353 L98.3248333,94.9191259 L98.2637098,94.9749012 L97.1466774,96.2745401 C97.521059,96.8727867 97.9328787,97.4465838 98.3836647,97.987527 Z M98.0375528,94.7571486 L98.094092,94.7051936 L97.2773289,94.0030371 L96.5606555,93.3872175 L95.9249709,93.9740034 C96.2336447,94.6631712 96.5828128,95.3408783 96.9747674,95.994136 L98.0375528,94.7571486 Z M95.7912632,93.6706779 L96.3276221,93.1763414 L95.0998033,91.8453766 C95.3015109,92.4543197 95.5314882,93.065555 95.7912632,93.6706779 Z M94.0301415,83.5409814 L94.6520734,84.0765763 L95.2464997,83.5287567 L96.1434875,82.701297 L95.2847019,81.7722194 L94.5871297,81.0135236 L94.5428151,81.054782 L94.2998491,81.3374783 C94.1982312,82.0617921 94.1088381,82.7968025 94.0301415,83.5409814 Z M94.5909499,80.5841308 L96.0815999,79.2096155 L94.8851069,77.9115046 C94.7170172,78.7427846 94.5657364,79.5870533 94.4320287,80.4473669 L94.5909499,80.5841308 Z M94.9615113,77.5325387 L96.2932401,78.9773461 L96.897599,78.2728974 L97.7571486,77.2750559 L97.7900025,77.2444941 L96.255802,75.9265181 L95.3427693,76.7707868 L95.0730617,77.0183371 C95.0356236,77.1894829 94.9974214,77.3606288 94.9615113,77.5325387 Z M97.6685195,70.2611312 L97.2383627,69.8913338 C97.035891,70.397131 96.8425878,70.9090406 96.6576891,71.4293546 L96.7860486,71.2796019 L97.6448341,70.2817604 L97.6685195,70.2611312 Z M97.9000248,70.0471988 L99.3891468,68.6734476 L98.2942716,67.486123 C97.9649686,68.1714706 97.6555307,68.871335 97.3629018,69.5849522 L97.9000248,70.0471988 Z M101.03719,63.2151166 L100.835482,63.0416786 C100.493955,63.5490039 100.166944,64.0662617 99.8506294,64.5934521 L101.028785,63.2227571 L101.03719,63.2151166 Z M101.269459,63.0011843 L101.902852,62.4182186 L102.758581,61.6289611 L102.258132,61.0872538 C101.825683,61.6388937 101.412335,62.2042863 101.015033,62.7826677 L101.269459,63.0011843 Z M127.552576,47.3413367 L128.089699,47.8020553 L128.953069,48.5454702 L129.648349,47.9044372 L130.191584,47.4032243 C129.322866,47.3375165 128.442687,47.3161232 127.552576,47.3413367 Z M142.817413,52.4222299 L142.199301,53.1404313 L141.495616,53.9594866 L142.207705,54.5699578 L143.038985,55.2858671 L143.74649,54.6341375 L144.442534,53.9915764 C144.187344,53.7142284 143.924512,53.4445208 143.654041,53.1824537 C143.382805,52.9211507 143.103165,52.667488 142.817413,52.4222299 Z M89.8928428,98.9219529 C89.1647088,101.706894 88.474777,103.438217 87.8925754,105.056463 C87.3111379,106.673944 86.620442,108.405268 85.494241,110.587378 C84.3779726,112.750387 83.9325349,113.220274 84.834871,114.092048 C85.737207,114.963058 86.1910492,114.501576 88.3143277,113.310431 C90.4551793,112.10859 92.1612897,111.358298 93.7581418,110.720322 C95.354994,110.082345 97.0603404,109.332054 99.8185395,108.50765 C102.576739,107.683246 104.500602,107.653449 104.436422,106.209405 C104.376827,104.888373 103.482895,104.562126 101.506313,103.524554 C100.162359,102.820106 98.8535518,101.907837 97.6876206,100.7824 C96.5224533,99.6561993 95.5651061,98.3802456 94.8132867,97.0622696 C93.7077149,95.1223617 93.3509063,94.2398907 92.028346,94.2275927 C90.5827746,94.2139132 90.6202128,96.1370122 89.8928428,98.9219529 L89.8928428,98.9219529 Z" id="Fill-9" fill="#D8232A"></path>
            <path d="M10.8563024,117.219281 C8.22417053,118.002426 5.528623,118.665616 4.14646725,121.215231 C3.34040074,122.705117 3.27316486,124.533475 3.83550131,126.425248 L5.7349149,132.8096 L23.9214563,127.400168 L22.0220427,121.015052 C21.4589422,119.124043 20.4037973,117.629572 18.9139113,116.822742 C16.3627681,115.442114 13.4876702,116.4369 10.8563024,117.219281 Z M11.6761217,119.975188 C14.1798942,119.230245 16.1549481,118.670964 17.4843848,119.305121 C18.5555747,119.820851 19.2424503,120.729299 19.6305847,122.032758 L20.6261341,125.3808 L7.38983439,129.317919 L6.39428495,125.969878 C6.00615055,124.666418 6.08561114,123.530285 6.70066663,122.512578 C7.46700285,121.254962 9.1715852,120.720131 11.6761217,119.975188 Z M18.8986305,99.6577274 L16.3268581,99.8861765 L17.1451493,109.09902 L11.4606613,109.603289 L10.762325,101.745096 L8.21729414,101.971253 L8.91486639,109.829446 L3.38929956,110.319963 L2.57177239,101.107883 L0,101.336332 L1.07195385,113.412813 L19.9713483,111.734208 L18.8986305,99.6577274 Z M13.9369282,83.5952285 L1.40584112,82.4827804 L1.15217848,85.3464176 L13.5503219,86.4474051 C16.0724314,86.67127 17.4996657,88.3773805 17.2895536,90.7413329 C17.0794415,93.1052853 15.3763872,94.5065421 12.8542777,94.2826772 L0.456134319,93.1816897 L0.201707639,96.0453269 L12.7327947,97.1585391 C16.6355319,97.5046511 19.5190342,94.8205642 19.861326,90.9697821 C20.2036177,87.1182358 17.8396653,83.9421046 13.9369282,83.5952285 Z M8.52978817,65.8403721 L6.03747636,65.1657212 L2.55725555,78.0261112 L5.04956736,78.7007621 L6.4141501,73.6580712 L22.2367391,77.9397742 L22.9877944,75.1647661 L7.16520543,70.8830631 L8.52978817,65.8403721 Z M25.4319714,55.8145856 C23.9588944,55.1269459 22.512559,55.0100472 21.2526503,55.5670353 C20.2624491,55.9864955 19.4586748,56.6993487 18.4722939,58.1808301 L17.2689244,60.0023112 C16.776116,60.743434 16.1587684,61.3088266 15.5696904,61.5632533 C14.9447023,61.8306687 14.298321,61.7641969 13.6702768,61.471568 C12.149065,60.761007 11.508032,59.1083797 12.4554467,57.0783145 C13.1323897,55.6289229 14.0217371,54.5432162 15.5330163,53.9541383 L14.6673543,51.52295 C12.6059634,52.3527019 11.282639,53.6760262 10.2221458,55.9475293 C8.55347354,59.5224915 9.58951732,62.650488 12.5845701,64.0494528 C13.985827,64.7034745 15.2640727,64.8005081 16.4552175,64.3290929 C17.505014,63.9081046 18.5066758,63.0233415 19.3540007,61.7122419 L20.5917521,59.8174126 C21.2106279,58.8707619 21.5827173,58.5147174 22.1962447,58.2717514 C22.8212328,58.004336 23.5508949,58.0799763 24.2996581,58.4299085 C25.9668023,59.2077054 26.3236109,60.9634787 25.2745783,63.2105323 C24.4509388,64.9747101 23.4217714,66.1712032 21.5796611,66.8389777 L22.4835253,69.3771322 C24.9139495,68.5129983 26.3839704,66.9367754 27.59116,64.3512502 C29.272057,60.7510744 28.595878,57.2914828 25.4319714,55.8145856 Z M34.783871,42.5591848 L33.0724123,44.9063282 C34.3560063,46.4038546 34.6631521,48.2444368 33.4223445,49.9451989 C32.7629744,50.8498271 31.8216721,51.4167478 30.8475159,51.5305904 C29.4791129,51.6879835 28.4705748,51.2158043 25.390713,48.9695146 C22.3100873,46.723225 21.5529196,45.9064619 21.2839761,44.556396 C21.0952572,43.5937005 21.3473917,42.5240387 22.0067618,41.6194105 C23.2475694,39.9178844 25.0789831,39.6703341 26.8966439,40.4351422 L28.6241476,38.0666055 C25.1737245,36.3742479 21.9784922,37.277348 19.9209214,40.0981988 C18.7588104,41.6912307 18.3340019,43.4928466 18.6189903,45.3158558 C19.0277539,47.9204821 20.745325,49.1398965 23.6960633,51.2922087 C26.6468015,53.4445208 28.3330468,54.7067217 30.9384371,54.3002502 C32.7606823,54.0152618 34.3468378,53.0602067 35.5089489,51.4664107 C37.5351938,48.6891105 37.4649017,45.3059233 34.783871,42.5591848 Z M50.8723473,35.2335301 L37.9439574,21.3462648 L35.83978,23.3052738 L41.3607625,29.235784 L35.7205891,34.486295 L30.1996065,28.5557848 L28.0954291,30.5147938 L41.023055,44.4020591 L43.1272324,42.4430501 L37.4794186,36.37654 L43.119592,31.1260291 L48.7674059,37.1925391 L50.8723473,35.2335301 Z M64.0337707,27.0788876 L62.6661318,24.8883732 L54.8209272,29.7858957 L51.7983688,24.9449124 L58.4906309,20.7671194 L57.1375088,18.5995263 L50.4452467,22.7773194 L47.5082612,18.0715718 L55.3534659,13.1740492 L53.985827,10.9835348 L43.7017936,17.4037973 L53.7489733,33.49915 L64.0337707,27.0788876 Z M79.1794167,21.3424446 L72.1127729,15.0474853 C73.8968158,13.742498 74.8251294,11.5382309 73.8578496,8.99625618 C72.7117835,5.98057418 69.7488205,4.62898019 66.3847344,5.90798999 L59.5098657,8.52178481 L66.2525548,26.2567761 L68.9396978,25.2352492 L66.0982179,17.7613699 L69.463068,16.4815961 L76.0430157,22.5343533 L79.1794167,21.3424446 Z M71.1798751,10.0422325 C71.8438294,11.7873092 71.0110213,13.274139 69.2162818,13.9564304 L65.2279717,15.4722939 L63.1146257,9.91310909 L67.1029358,8.39724562 C68.8976754,7.71495425 70.5166848,8.29791989 71.1798751,10.0422325 Z M94.0836246,2.57446565 L93.726052,0.017210093 L80.5310106,1.86390465 L80.8893473,4.4211602 L86.0626898,3.69684641 L88.3341929,19.9304911 L91.1817852,19.5316601 L88.9102821,3.29877944 L94.0836246,2.57446565 Z M109.877944,19.217638 L109.910034,16.635933 L100.662808,16.5182702 L100.734628,10.8116249 L108.623384,10.9117147 L108.655473,8.35675128 L100.767482,8.25666151 L100.83701,2.71046549 L110.085,2.82736424 L110.117854,0.245659275 L97.9947663,0.0920864134 L97.7548565,19.0640651 L109.877944,19.217638 Z M126.180353,22.8980383 L130.216033,4.35850859 L127.406643,3.74727332 L124.57204,16.7688767 L118.835597,1.88071362 L116.260004,1.3206693 L112.224323,19.859435 L115.033713,20.4714343 L117.873665,7.42690963 L123.60476,22.33723 L126.180353,22.8980383 Z M142.355166,30.5033331 L150.382213,13.3115772 L147.776823,12.095219 L142.138941,24.1701717 L139.828472,8.38425687 L137.440834,7.26875251 L129.413787,24.4612725 L132.019178,25.6776307 L137.666991,13.5812847 L139.966764,29.3885928 L142.355166,30.5033331 Z M147.046397,34.157756 L157.47789,18.3091895 L155.0765,16.7283823 L144.645006,32.5769488 L147.046397,34.157756 Z M161.872672,39.3670086 C162.922469,38.1246729 163.414513,36.7600902 163.206693,35.3977996 C163.061525,34.3319581 162.583997,33.3700266 161.412718,32.0298932 L159.969438,30.3910187 C159.38418,29.721716 158.999866,28.9775371 158.908945,28.3418524 C158.814968,27.6687296 159.047237,27.0628426 159.494967,26.5341241 C160.579909,25.2512941 162.342559,25.0663954 164.053254,26.5119668 C165.27496,27.5449544 166.089431,28.6879644 166.262105,30.3000974 L168.834642,30.10221 C168.574103,27.8948866 167.643497,26.272057 165.729567,24.6530476 C162.716177,22.1057246 159.426203,22.286039 157.291464,24.8104407 C156.293622,25.9908888 155.864229,27.1996065 156.00787,28.472504 C156.139285,29.5956488 156.730655,30.7944339 157.773576,31.9557809 L159.277978,33.6466105 C160.029798,34.4916433 160.27582,34.9439574 160.349932,35.6002712 C160.44391,36.2733941 160.17955,36.9572135 159.646248,37.5883139 C158.458159,38.993391 156.670296,38.8780204 154.776231,37.276584 C153.290165,36.0197314 152.405402,34.712452 152.243424,32.7603194 L149.557045,32.9673753 C149.754169,35.5391477 150.890302,37.3713254 153.068592,39.2134357 C156.102611,41.7790958 159.617978,42.0327584 161.872672,39.3670086 Z M187.074666,50.466277 L185.343342,47.9686169 L171.506504,52.2419155 L180.362539,40.7843104 L178.662541,38.3309648 L166.62197,54.2658682 L167.897924,56.1056864 L187.074666,50.466277 Z M176.653105,73.2057571 L178.992608,72.113174 L175.079938,63.7331385 L180.250988,61.3187592 L183.589097,68.4671557 L185.904151,67.3860333 L182.566806,60.2376368 L187.592688,57.8904934 L191.505358,66.271293 L193.844861,65.1787099 L188.715833,54.1932841 L171.524077,62.2203312 L176.653105,73.2057571 Z M180.436651,88.9786832 L187.556778,82.7448475 C188.631024,84.6763509 190.703876,85.8697878 193.34594,85.2249346 C196.480813,84.4601264 198.187687,81.6866464 197.33425,78.1903807 L195.590702,71.0450404 L177.158138,75.5429679 L177.839665,78.3363131 L185.607702,76.4407197 L186.461139,79.9377495 L179.641281,85.7192711 L180.436651,88.9786832 Z M192.638435,82.4377018 C190.825359,82.8800833 189.453135,81.870017 188.997765,80.0049854 L187.986935,75.8608103 L193.763872,74.4503849 L194.775467,78.5953241 C195.230837,80.4603557 194.452276,81.9953202 192.638435,82.4377018 Z M181.064695,103.021049 L183.641052,102.857544 L183.056558,93.6271274 L188.751743,93.2664986 L189.250664,101.139973 L191.801043,100.977996 L191.302122,93.1045212 L196.838386,92.753825 L197.422879,101.984242 L200,101.820736 L199.2329,89.721334 L180.297595,90.9216473 L181.064695,103.021049 Z M180.359483,107.760415 L199.294787,108.959964 L199.47663,106.090979 L180.541325,104.890665 L180.359483,107.760415 Z M177.174183,124.775677 L195.712949,128.811358 L196.324948,126.001967 L183.303345,123.167364 L198.190744,117.430921 L198.751552,114.856092 L180.212022,110.819647 L179.600787,113.629037 L192.644548,116.468989 L177.734227,122.200084 L177.174183,124.775677 L177.174183,124.775677 Z" id="Fill-10" fill="#777776"></path>
            <path d="M30.866617,168.360572 L46.9734304,154.74225 L45.5217466,153.025443 L38.3045862,159.127863 L31.8354249,151.477489 L39.0533494,145.375069 L37.6016656,143.658262 L21.4948523,157.277348 L22.946536,158.994155 L30.2996963,152.776364 L36.7688576,160.426738 L29.4156973,166.644528 L30.866617,168.360572 Z M44.4322197,179.605772 L50.4521231,171.753691 C52.3828625,169.236166 51.8824136,166.728573 48.7773385,164.347812 C46.8954979,162.905297 45.4315894,162.37887 43.3724906,162.925162 L43.7109621,164.865834 C45.1328482,164.424216 46.1559032,164.648081 47.6381487,165.784979 C49.7553149,167.407809 49.9532023,168.904571 48.6535633,170.599221 L47.8054744,171.704792 L44.3237255,169.035222 C41.7366722,167.051764 39.3207648,167.286326 37.7697553,169.309514 C37.0660707,170.227131 36.7031498,171.331939 36.8345654,172.327488 C36.9866101,173.636296 37.6933509,174.663171 39.2932592,175.889462 C40.8457968,177.079843 41.9269192,177.424426 43.587951,177.206674 L42.7421542,178.309954 L44.4322197,179.605772 Z M45.8785552,174.219262 C45.1389605,175.183485 44.4452085,175.698451 43.7568048,175.767979 C42.4861995,175.915439 41.5617061,175.317957 40.5737971,174.560789 C38.7385632,173.154184 38.4023838,171.887399 39.4307872,170.545738 C40.4591905,169.20484 41.8466946,169.148301 43.587951,170.483086 L46.8343743,172.971578 L45.8785552,174.219262 Z M60.1287414,188.669627 L64.4830287,180.415659 C65.2715222,178.921189 65.4892747,177.494719 65.043837,176.121731 C64.6725116,174.922182 63.7655913,173.90906 62.3757951,173.175577 C60.9340439,172.415353 59.3990793,172.274005 57.9298226,172.836342 L58.6747655,171.423624 L56.7913969,170.429603 L49.9898764,183.320555 L51.8740091,184.313812 L56.0624988,176.37463 C57.2521154,174.1207 59.133192,173.60497 61.0730999,174.628789 C63.0137719,175.651844 63.6372319,177.455752 62.4338624,179.736424 L58.2446087,187.675606 L60.1287414,188.669627 Z M77.3006322,194.507688 L79.9610338,185.563024 C80.4431456,183.944015 80.3782018,182.502263 79.6729891,181.242355 C79.0747426,180.138311 77.9875079,179.321548 76.481577,178.873818 C74.9191068,178.408515 73.3864344,178.569729 72.0547056,179.407885 L72.5100758,177.877505 L70.46855,177.27009 L66.3129143,191.239872 L68.3544401,191.846523 L70.9139877,183.242622 C71.6405937,180.799209 73.3849063,179.926671 75.4875556,180.552423 C77.590205,181.178175 78.5536645,182.825454 77.8186541,185.296373 L75.2591065,193.901037 L77.3006322,194.507688 Z M95.7469486,189.859244 C96.0029034,187.621359 95.9410158,185.556148 94.6429049,183.886711 C93.7566138,182.773499 92.4462782,181.968961 90.6790442,181.766489 C88.9125743,181.564781 87.4540141,182.053006 86.3392738,182.937769 C84.6981071,184.271026 84.1724448,186.269001 83.91649,188.506886 C83.6605352,190.744771 83.7224228,192.810746 85.0197696,194.480183 C85.9060608,195.593395 87.2163964,196.397933 88.9836304,196.599641 C90.7508643,196.802113 92.2094245,196.313888 93.3241648,195.429125 C94.9645675,194.095868 95.4909938,192.097129 95.7469486,189.859244 Z M93.6305465,189.617806 C93.4456478,191.23758 93.1522549,193.023151 91.9702787,193.962161 C91.2161672,194.561935 90.2297863,194.836991 89.1990908,194.719328 C88.1676313,194.601666 87.2989131,194.114205 86.6983745,193.360094 C85.7593643,192.178118 85.8472294,190.368861 86.0321281,188.749088 C86.2170267,187.129314 86.5402174,185.3468 87.7221936,184.407789 C88.4770691,183.808015 89.4336523,183.529139 90.4643478,183.646802 C91.4950433,183.765228 92.3943232,184.255745 92.9940978,185.009856 C93.9331079,186.191832 93.8162092,187.998033 93.6305465,189.617806 Z M109.999427,181.995702 L107.692778,182.142399 L104.441006,194.075239 L99.7383149,182.646668 L97.4324299,182.7926 L103.676198,197 L105.568735,196.880045 L109.999427,181.995702 Z M124.565163,187.084236 L124.357343,186.131473 C123.437434,181.902489 120.686876,179.715031 117.009531,180.514985 C113.391019,181.302714 111.750616,184.477317 112.753042,189.080683 C113.850209,194.120318 116.797891,195.840945 120.561572,195.021126 C122.993525,194.491643 124.161748,193.451015 125.294826,191.689894 L123.60476,190.753176 C122.721525,192.128455 121.873436,192.829083 120.223101,193.188184 C117.50234,193.781082 115.634252,192.305713 114.953489,189.176953 L124.565163,187.084236 Z M122.140852,185.978664 L114.613489,187.616775 C114.419422,186.445495 114.382748,185.998529 114.530972,185.14662 C114.79686,183.723206 115.887915,182.605409 117.393082,182.277635 C118.899012,181.94986 120.35528,182.51296 121.189617,183.697228 C121.678605,184.410082 121.83065,184.831834 122.140852,185.978664 Z M135.679713,175.764923 C134.328119,175.198766 133.217199,175.301148 131.928256,175.827574 C130.365022,176.466315 129.163181,177.756022 128.881248,179.180964 L128.210418,177.538269 L126.239184,178.344336 L131.750998,191.835826 L133.722996,191.030524 L130.339045,182.748286 C129.497832,180.689951 130.120528,178.610987 132.095582,177.804156 C133.137738,177.37782 133.787176,177.400741 134.83086,177.839302 L135.679713,175.764923 Z M156.362386,170.567131 L155.787061,169.778637 C153.237446,166.282372 149.83745,165.39226 146.797318,167.609516 C143.804558,169.791626 143.586041,173.358184 146.362577,177.164652 C149.401944,181.331748 152.793536,181.714534 155.905488,179.444559 C157.916452,177.978358 158.564361,176.55418 158.889844,174.485149 L156.965217,174.310947 C156.713082,175.926136 156.220274,176.909461 154.855691,177.90501 C152.605581,179.546177 150.301224,178.950987 148.414035,176.363933 L156.362386,170.567131 Z M153.698164,170.534277 L147.473497,175.074227 C146.822532,174.08097 146.608599,173.686723 146.400015,172.847802 C146.06842,171.437377 146.614712,169.974997 147.860104,169.066548 C149.104731,168.158864 150.664909,168.085516 151.905717,168.831987 C152.640727,169.286593 152.950929,169.611312 153.698164,170.534277 Z M166.848127,170.176704 L164.953298,168.141291 L162.91712,170.03612 L164.812714,172.072298 L166.848127,170.176704 Z M163.29685,142.517544 L161.76647,144.327565 L171.258954,159.532806 L154.687601,152.699196 L153.157221,154.509216 L173.740569,162.833477 L174.926365,161.430692 L163.29685,142.517544 Z M181.741638,151.964949 L179.41818,150.436097 L177.888564,152.759555 L180.212022,154.288408 L181.741638,151.964949 L181.741638,151.964949 Z" id="Fill-11" fill="#777776"></path>
        </g>
    </g>
</svg>