<?xml version="1.0" encoding="UTF-8" standalone="no"?>
<!DOCTYPE svg PUBLIC "-//W3C//DTD SVG 1.1//EN" "http://www.w3.org/Graphics/SVG/1.1/DTD/svg11.dtd">
<svg width="225px" height="225px" viewBox="0 0 225 225" version="1.1" xmlns="http://www.w3.org/2000/svg" xmlns:xlink="http://www.w3.org/1999/xlink">
    <g id="NHV" stroke="none" stroke-width="1" fill="none" fill-rule="evenodd">
        <g id="Logo">
            <circle id="Background" fill="#FFFFFF" cx="112.5" cy="112.5" r="112.5"></circle>
            <path d="M112.564113,164.083109 C141.519092,164.083109 164.992054,140.610147 164.992054,111.655168 C164.992054,82.6994251 141.519092,59.2272267 112.564113,59.2272267 C83.6091341,59.2272267 60.1361718,82.6994251 60.1361718,111.655168 C60.1361718,140.610147 83.6091341,164.083109 112.564113,164.083109" id="Fill-1" fill="#CBCCCB"></path>
            <path d="M130.051554,141.550685 C131.926518,136.665387 137.405478,134.225794 142.290776,136.101522 C147.17531,137.976487 149.615667,143.456211 147.740703,148.341509 C145.865738,153.226042 140.386014,155.665635 135.50148,153.790671 C130.616182,151.914943 128.17659,146.435219 130.051554,141.550685" id="Fill-2" fill="#D8232A"></path>
            <path d="M130.051554,141.550685 C131.926518,136.665387 137.405478,134.225794 142.290776,136.101522 C147.17531,137.976487 149.615667,143.456211 147.740703,148.341509 C145.865738,153.226042 140.386014,155.665635 135.50148,153.790671 C130.616182,151.914943 128.17659,146.435219 130.051554,141.550685 Z" id="Stroke-3" stroke="#FFFFFE" stroke-width="1.395"></path>
            <path d="M69.7188127,67.030409 C69.7188127,67.030409 132.524765,144.253873 134.849751,146.515443 C137.174737,148.77625 141.820125,154.207075 144.364392,152.332875 C146.907894,150.458675 145.254503,148.681508 144.977155,148.063397 C144.879357,147.846408 142.105877,143.175042 145.231582,140.409203 C148.424522,137.584532 151.194182,137.220083 154.629324,139.111092 C156.605142,140.199091 160.857811,145.257827 160.327565,151.733864 C159.848509,157.591026 156.672378,161.562527 152.340248,164.232862 C148.008882,166.903196 142.072259,169.58499 132.391821,163.018031 C122.711382,156.451837 63.7470073,76.0629381 63.7470073,76.0629381 C63.7470073,76.0629381 63.7164823,73.5683342 65.4172445,70.5625848 C67.1218268,67.550723 69.7188127,67.030409 69.7188127,67.030409" id="Fill-4" fill="#D8232A"></path>
            <path d="M69.7188127,67.030409 C69.7188127,67.030409 132.524765,144.253873 134.849751,146.515443 C137.174737,148.77625 141.820125,154.207075 144.364392,152.332875 C146.907894,150.458675 145.254503,148.681508 144.977155,148.063397 C144.879357,147.846408 142.105877,143.175042 145.231582,140.409203 C148.424522,137.584532 151.194182,137.220083 154.629324,139.111092 C156.605142,140.199091 160.857811,145.257827 160.327565,151.733864 C159.848509,157.591026 156.672378,161.562527 152.340248,164.232862 C148.008882,166.903196 142.072259,169.58499 132.391821,163.018031 C122.711382,156.451837 63.7470073,76.0629381 63.7470073,76.0629381 C63.7470073,76.0629381 63.7164823,73.5683342 65.4172445,70.5625848 C67.1218268,67.550723 69.7188127,67.030409 69.7188127,67.030409 Z" id="Stroke-5" stroke="#FFFFFE" stroke-width="1.395"></path>
            <path d="M158.279927,65.4900961 C168.205623,75.0750291 168.527286,93.477795 154.366493,108.141329 C143.583539,119.307833 132.501079,119.722709 116.615075,124.436097 C111.226272,126.034477 103.284033,129.43753 100.428801,131.03973 C98.2932974,132.237751 96.5955915,133.614559 95.8750979,134.231906 L95.651233,135.047142 L74.0616393,157.403071 L73.8446507,158.192329 L71.7381812,160.372911 L66.4746815,155.289726 L68.580387,153.109144 L69.3620041,152.86465 L90.9508338,130.507956 L91.7569003,130.255057 C92.3497985,129.513934 93.6654824,127.769622 94.7886272,125.593624 C96.2907379,122.684144 99.4141501,114.628063 100.823811,109.186541 C104.978683,93.1454358 105.006953,82.0553359 115.790671,70.8888316 C129.9507,56.2252975 148.353466,55.904399 158.279927,65.4900961 Z" id="Stroke-6" stroke="#FFFFFE" stroke-width="3.078"></path>
            <path d="M158.279927,65.4900961 C168.205623,75.0750291 168.527286,93.477795 154.366493,108.141329 C143.583539,119.307833 132.501079,119.722709 116.615075,124.436097 C111.226272,126.034477 103.284033,129.43753 100.428801,131.03973 C98.2932974,132.237751 96.5955915,133.614559 95.8750979,134.231906 L95.651233,135.047142 L74.0616393,157.403071 L73.8446507,158.192329 L71.7381812,160.372911 L66.4746815,155.289726 L68.580387,153.109144 L69.3620041,152.86465 L90.9508338,130.507956 L91.7569003,130.255057 C92.3497985,129.513934 93.6654824,127.769622 94.7886272,125.593624 C96.2907379,122.684144 99.4141501,114.628063 100.823811,109.186541 C104.978683,93.1454358 105.006953,82.0553359 115.790671,70.8888316 C129.9507,56.2252975 148.353466,55.904399 158.279927,65.4900961" id="Fill-7" fill="#FFFFFE"></path>
            <path d="M158.279927,65.4900961 C168.205623,75.0750291 168.527286,93.477795 154.366493,108.141329 C143.583539,119.307833 132.501079,119.722709 116.615075,124.436097 C111.226272,126.034477 103.284033,129.43753 100.428801,131.03973 C98.2932974,132.237751 96.5955915,133.614559 95.8750979,134.231906 L95.651233,135.047142 L74.0616393,157.403071 L73.8446507,158.192329 L71.7381812,160.372911 L66.4746815,155.289726 L68.580387,153.109144 L69.3620041,152.86465 L90.9508338,130.507956 L91.7569003,130.255057 C92.3497985,129.513934 93.6654824,127.769622 94.7886272,125.593624 C96.2907379,122.684144 99.4141501,114.628063 100.823811,109.186541 C104.978683,93.1454358 105.006953,82.0553359 115.790671,70.8888316 C129.9507,56.2252975 148.353466,55.904399 158.279927,65.4900961 Z" id="Stroke-8" stroke="#FFFFFE" stroke-width="3.078"></path>
            <path d="M158.287567,65.4908601 C168.214028,75.0757932 168.534926,93.478559 154.374897,108.142093 C143.591179,119.308597 132.509484,119.724237 116.622715,124.436861 C111.233912,126.036006 103.291674,129.438294 100.436441,131.040494 C98.3009379,132.23928 96.603996,133.615323 95.8835024,134.233435 L95.6588734,135.047906 L74.0692797,157.4046 L73.8522912,158.193093 L71.7465857,160.373675 L66.4823219,155.29049 L68.5887915,153.109908 L69.3696445,152.865414 L90.9592382,130.509484 L91.7653048,130.256585 C92.3574389,129.514698 93.6731228,127.770386 94.7970317,125.594388 C96.2983783,122.684908 99.4217905,114.628827 100.831452,109.188069 C104.987088,93.1461998 105.015357,82.0560999 115.799076,70.8895956 C129.959105,56.2268256 148.36187,55.905163 158.287567,65.4908601 Z M108.193017,90.4819781 L109.020476,89.717934 L108.516207,89.1724065 C108.403893,89.6048555 108.295399,90.0403606 108.193017,90.4819781 Z M161.352148,92.8100204 L160.844059,93.2791435 L160.192329,93.8796822 L160.724868,94.4565354 C160.951025,93.9102439 161.158081,93.3608962 161.352148,92.8100204 Z M162.296506,89.5918668 L161.621855,89.0119573 L160.131205,90.3872366 L161.627204,92.0108303 C161.886979,91.20782 162.106259,90.4002254 162.296506,89.5918668 Z M161.781541,75.3905793 L161.377361,75.0437033 L159.884419,76.4205108 L160.639295,77.239566 L161.432373,78.0991156 L162.29345,77.0974538 C162.144462,76.5183084 161.972552,75.9498596 161.781541,75.3905793 Z M160.471969,72.3321109 L159.823296,72.9295933 L161.371249,74.6081982 L161.45835,74.5065803 C161.167249,73.7593452 160.837946,73.0335033 160.471969,72.3321109 Z M149.166409,62.6363914 L149.164117,62.6394476 L150.71207,64.3172884 L151.373732,63.5463679 C150.659351,63.2048402 149.922812,62.9015147 149.166409,62.6363914 Z M146.54803,61.8922125 L145.671671,62.6998071 L146.389109,63.478368 L147.219624,64.3784119 L148.711039,62.6440319 L148.410005,62.3850209 C147.800298,62.196302 147.179894,62.0312685 146.54803,61.8922125 Z M143.617157,61.4368422 L142.856169,62.1397628 L142.17999,62.7616946 L143.727179,64.4395355 L144.411762,63.6418734 L145.219357,62.7043913 L143.758505,61.4483029 C143.711134,61.4437186 143.663763,61.4414265 143.617157,61.4368422 Z M138.85105,61.4383703 C138.342196,61.4865051 137.833343,61.5514488 137.32449,61.6286173 L138.462151,62.6065937 L139.799228,61.3726625 C139.483678,61.3909996 139.168128,61.4085726 138.85105,61.4383703 Z M136.383187,61.7913587 L135.863637,62.2711783 L135.197391,62.8847057 L136.743052,64.5610185 L137.419231,63.773289 L138.235994,62.8251103 L136.924894,61.6973812 C136.743816,61.727943 136.563502,61.7577407 136.383187,61.7913587 Z M129.208049,64.085783 L129.758925,64.6832655 L130.4267,63.9054686 L130.87825,63.3813344 C130.318969,63.6006151 129.761981,63.8328845 129.208049,64.085783 Z M122.589899,68.0297786 L122.836686,68.29643 L123.826887,67.1442515 C123.410483,67.42924 122.998663,67.724925 122.589899,68.0297786 Z M117.490669,72.5238859 C117.359254,72.6591217 117.231658,72.7974137 117.103299,72.9349416 L117.699253,73.4483793 L118.343342,72.8554811 L119.188375,72.0753921 L118.590129,71.4274827 C118.219567,71.7850553 117.852062,72.1495043 117.490669,72.5238859 Z M116.889366,73.1641549 C116.39121,73.7073902 115.91521,74.2666705 115.456784,74.8397036 L115.974042,75.4005119 L117.467748,73.6623116 L116.889366,73.1641549 Z M119.405364,71.848471 L120.89907,70.1102707 L120.462037,69.734361 C119.906577,70.2095964 119.356465,70.6993487 118.817814,71.2120222 L119.405364,71.848471 Z M120.703474,69.5280691 L121.129811,69.8948102 L121.783069,69.2935075 L122.618933,68.521823 L122.336237,68.2162054 C121.783833,68.6341375 121.241362,69.075755 120.703474,69.5280691 Z M111.442496,81.1850897 L112.603079,82.4434703 L113.225775,81.7176284 L114.085325,80.7197868 L114.098313,80.7075621 L112.564877,79.3895861 L112.20272,79.7234733 C111.939889,80.202529 111.686226,80.6899891 111.442496,81.1850897 Z M117.528871,77.1539931 L115.995435,75.836017 L115.110672,76.6527802 L114.494088,77.2204649 L116.034401,78.8914293 L116.666266,78.1548908 L117.525815,77.1570493 L117.528871,77.1539931 Z M114.263347,77.4321051 L114.254178,77.4405096 L112.777281,79.1596088 L114.329819,80.4936298 L115.819705,79.1198785 L114.263347,77.4321051 Z M116.208603,75.6075679 L117.760377,76.9408248 L119.249499,75.5670735 L117.693905,73.8793001 L116.208603,75.6075679 Z M123.072011,68.5027219 L124.620729,69.8344507 L126.110614,68.4606995 L124.555785,66.7752182 L123.072011,68.5027219 Z M121.35444,70.1140909 L122.897045,71.7873474 L123.546483,71.0301797 L124.390751,70.0499112 L122.855023,68.729643 L121.990889,69.5280691 L121.35444,70.1140909 Z M121.125227,70.3272592 L119.639925,72.0547629 L121.190171,73.3872557 L122.680057,72.0135045 L121.125227,70.3272592 Z M117.923882,73.6676599 L119.465723,75.3393884 L120.105992,74.5929173 L120.959429,73.6019521 L119.425229,72.283212 L118.550398,73.0908066 L117.923882,73.6676599 Z M124.784234,66.5612859 L126.328367,68.2353065 L126.986973,67.4682062 L127.822073,66.4978702 L126.578974,65.4289726 C126.043379,65.731534 125.510076,66.0447921 124.982885,66.3779153 L124.784234,66.5612859 Z M128.050522,66.2816458 L129.540408,64.9078945 L128.909308,64.223311 C128.22396,64.5449735 127.545489,64.8964338 126.872366,65.2685233 L128.050522,66.2816458 Z M117.589231,80.6464386 L116.744198,79.9190686 L116.055794,79.3284626 L114.555212,80.7121464 L115.249728,81.4662579 L116.095525,82.3823468 L117.58159,80.654079 L117.589231,80.6464386 Z M115.014402,81.6740779 L114.325234,80.9245506 L114.310718,80.9375394 L113.467977,81.9170439 L112.837641,82.6505262 L113.512292,83.2296717 L114.390942,83.9860753 L115.015166,83.4107501 L115.880828,82.61156 L115.014402,81.6740779 Z M114.159437,84.2000076 L113.312876,83.4718736 L112.625236,82.8812675 L111.124654,84.2657154 L111.81917,85.0190629 L112.664203,85.9343877 L114.1411,84.2160526 L114.159437,84.2000076 Z M111.583844,85.2268829 L110.894677,84.4781197 L110.870991,84.500277 L110.027486,85.4797815 L109.406319,86.2025672 L110.081734,86.7824766 L110.961148,87.5388803 L111.574676,86.9734877 L112.45027,86.165129 L111.583844,85.2268829 Z M110.701373,87.7787901 L110.728879,87.7528126 L109.882318,87.0246786 L109.290184,86.5158253 C109.046454,87.2668806 108.818769,88.0316887 108.609421,88.8110137 L109.232881,89.4864287 L110.701373,87.7787901 Z M116.908468,78.3550704 L116.268963,79.0984853 L116.943614,79.6768667 L117.8215,80.4325063 L118.454893,79.8487766 L119.310622,79.058755 L118.445724,78.1212729 L117.755028,77.3709816 L117.751208,77.3748018 L116.908468,78.3550704 Z M123.788685,71.2303593 L123.132371,71.9944034 L123.804729,72.5720207 L124.681852,73.3261322 L126.171738,71.9516169 L125.30684,71.0164269 L124.616908,70.2668997 L123.788685,71.2303593 Z M121.415564,73.6057724 L122.111608,74.3606479 L122.957405,75.2782649 L124.451111,73.5408286 L123.605314,72.8134586 L122.916146,72.2220885 L121.415564,73.6057724 Z M126.389491,71.7262239 L127.882433,69.9895517 L127.036636,69.2614177 L126.34594,68.6685195 L124.846122,70.0522033 L125.542166,70.808607 L126.389491,71.7262239 Z M127.228411,67.6676217 L126.562929,68.4423624 L127.235287,69.0192157 L128.111646,69.7733272 L128.7756,69.1613279 L129.601532,68.3988119 L128.737398,67.463622 L128.04823,66.7148587 L127.228411,67.6676217 Z M131.312991,66.4375107 L130.46643,65.7086127 L129.776498,65.1157145 L128.275915,66.4993983 L128.972724,67.255802 L129.820049,68.174183 L131.312991,66.4375107 Z M133.031326,64.8460069 L132.167956,63.911581 L131.479552,63.1628178 L130.668901,64.1048842 L129.994251,64.8903215 L130.665845,65.4671748 L131.54144,66.2205222 L132.216091,65.5993544 L133.031326,64.8460069 Z M121.876282,74.5684679 L121.18635,73.8189407 L120.348194,74.7923328 L119.700285,75.5464443 L120.374171,76.1240617 L121.251294,76.8797013 L121.895383,76.286039 L122.74118,75.5051859 L121.876282,74.5684679 Z M117.985006,77.1593414 L118.680286,77.9134529 L119.526847,78.8303058 L121.019789,77.0936336 L120.174756,76.3662636 L119.485588,75.7748935 L117.985006,77.1593414 Z M132.403282,63.703761 L133.251371,64.622142 L134.745077,62.8854698 L134.085707,62.3185491 C133.316314,62.5271331 132.54845,62.7601666 131.785934,63.0329303 L132.403282,63.703761 Z M134.971234,62.6677172 L135.655817,62.0366168 L135.799458,61.9044372 C135.348672,61.9976506 134.89865,62.1015606 134.448628,62.2176953 L134.971234,62.6677172 Z M114.219796,87.6916891 L112.68636,86.3737131 L111.782496,87.2080492 L111.186541,87.7573969 L112.724562,89.4253051 L113.33809,88.7101599 L114.197639,87.7123183 L114.219796,87.6916891 Z M110.956564,87.9690371 L110.926766,87.9965427 L109.466678,89.6950127 L111.021508,91.0313258 L112.512158,89.6560465 L110.956564,87.9690371 Z M112.898,86.1422077 L114.451302,87.4777568 L115.941952,86.1032415 L114.386358,84.4162321 L114.366493,84.4338051 L112.898,86.1422077 Z M117.64959,84.1381201 L116.116154,82.820144 L115.222986,83.6460757 L114.616335,84.2038279 L116.155884,85.8732642 L116.777816,85.1481864 L117.637366,84.1495807 L117.64959,84.1381201 Z M116.329322,82.5901668 L117.88186,83.9249518 L119.37251,82.5496724 L117.816152,80.8626631 L117.806983,80.8718316 L116.329322,82.5901668 Z M121.080148,80.5853151 L119.546712,79.267339 L118.662713,80.0833381 L118.046893,80.6502588 L119.587206,82.3212232 L120.218306,81.5854488 L121.077856,80.5876072 L121.080148,80.5853151 Z M119.760644,79.0381258 L121.311654,80.3713827 L122.802304,78.9968674 L121.24671,77.3098581 L119.760644,79.0381258 Z M123.191966,75.4860848 L124.742212,76.8185777 L126.232862,75.4432984 L124.678032,73.7578171 L123.191966,75.4860848 Z M121.477451,77.0974538 L123.018528,78.7691823 L123.658797,78.0227112 L124.51147,77.0325101 L122.976506,75.71377 L122.103203,76.5213646 L121.477451,77.0974538 Z M126.44985,75.2171413 L127.098523,74.4607377 L127.942792,73.4804691 L126.407064,72.160965 L125.543694,72.958627 L124.907245,73.5438848 L126.44985,75.2171413 Z M126.623288,71.9340439 L128.172005,73.2650087 L129.662655,71.8904934 L128.109354,70.2050121 L126.623288,71.9340439 Z M129.881172,71.6651004 L130.539014,70.8980001 L131.37335,69.9284282 L129.836857,68.6073959 L128.98342,69.3966535 L128.337803,69.9910798 L129.881172,71.6651004 Z M130.05461,68.3820029 L131.601799,69.7122037 L133.092449,68.3369243 L131.540676,66.6537352 L130.05461,68.3820029 Z M133.97874,67.3360266 L134.804672,66.3771513 L133.266651,65.055355 L132.423911,65.8339159 L131.767597,66.4382748 L133.31173,68.1130594 L133.97874,67.3360266 Z M136.523007,64.7841193 L134.971234,63.1016943 L133.485932,64.829962 L135.032357,66.1593987 L136.523007,64.7841193 Z M110.850362,94.7369396 L110.013734,94.0172101 L109.316925,93.4181995 L107.817107,94.8018834 L108.520028,95.5643994 L109.354364,96.4682635 L110.812924,94.7713216 L110.850362,94.7369396 Z M110.139801,92.472313 L109.527038,93.1859301 L110.213149,93.7750081 L111.082631,94.5230073 L111.68699,93.9660191 L112.573281,93.148492 L111.716024,92.2194144 L111.017688,91.4607186 L110.982542,91.4928084 L110.139801,92.472313 Z M114.28092,91.1833706 L113.444292,90.4644051 L112.746719,89.8653945 L111.247665,91.2483143 L111.950585,92.0115944 L112.785686,92.9162226 L114.253414,91.208584 L114.28092,91.1833706 Z M113.580291,88.9095754 L112.95836,89.6338892 L113.644471,90.2222031 L114.512425,90.9702023 L115.127481,90.4040456 L116.003839,89.5949229 L115.146582,88.6666094 L114.447482,87.9071495 L114.423032,87.9300709 L113.580291,88.9095754 Z M117.710714,87.6305656 L116.875614,86.9116001 L116.177277,86.3118255 L114.677459,87.6947453 L115.381143,88.4587894 L116.217008,89.3641816 L117.693141,87.6466105 L117.710714,87.6305656 Z M117.020018,85.3476019 L116.389682,86.0818482 L117.075029,86.6701622 L117.942983,87.4166332 L118.567207,86.841308 L119.433633,86.0421179 L118.57714,85.1138044 L117.878039,84.3543445 L117.862759,84.3680973 L117.020018,85.3476019 Z M121.141272,84.0769965 L120.306172,83.3587951 L119.607071,82.7590205 L118.108017,84.1419403 L118.811701,84.9059844 L119.64833,85.8121407 L121.133631,84.0838729 L121.141272,84.0769965 Z M120.460508,81.7848643 L119.821004,82.5298073 L120.505587,83.1173572 L121.372777,83.8638282 L122.007698,83.2793345 L122.864191,82.4885489 L122.007698,81.5609994 L121.307833,80.8007755 L121.303249,80.8053598 L120.460508,81.7848643 Z M123.900235,78.2228908 L123.252326,78.9777663 L123.936145,79.5645522 L124.803335,80.3110232 L126.294749,78.9349798 L125.43902,78.0089584 L124.738391,77.2479705 L123.900235,78.2228908 Z M121.537811,80.5883712 L123.079652,82.2600997 L124.571066,80.5241915 L123.73673,79.8067541 L123.037629,79.2062155 L121.537811,80.5883712 Z M126.510974,78.7080588 L128.002388,76.9721506 L127.167287,76.2539492 L126.467423,75.6526465 L124.968369,77.0355663 L125.673581,77.8011384 L126.510974,78.7080588 Z M127.340725,74.6601532 L126.683648,75.4249613 L127.367467,76.0117472 L128.233129,76.7574542 L128.887915,76.1546234 L129.724543,75.3821749 L128.869578,74.4561534 L128.169713,73.6959296 L127.340725,74.6601532 Z M133.373618,71.6039768 L134.865032,69.8680687 L134.028403,69.1491032 L133.327775,68.5462724 L131.82872,69.9291922 L132.534697,70.6955284 L133.373618,71.6039768 Z M129.942296,75.1560178 L131.434474,73.4201096 L130.598609,72.7011442 L129.897981,72.0998415 L128.398162,73.4819972 L129.104139,74.2483334 L129.942296,75.1560178 Z M130.780452,71.0981797 L130.11497,71.8729204 L130.798025,72.4589422 L131.662923,73.2038852 L132.328405,72.5918859 L133.155101,71.8293699 L132.300136,70.9033484 L131.601035,70.1446526 L130.780452,71.0981797 Z M134.220942,67.5354421 L133.545527,68.3216435 L134.228583,68.9069012 L135.092717,69.6518442 L135.768132,69.0291483 L136.584895,68.2765649 L135.730694,67.3513075 L135.032357,66.5926117 L134.220942,67.5354421 Z M138.296354,66.3160277 L137.459725,65.5962982 L136.757569,64.9934674 L135.258514,66.3763872 L135.965255,67.1434875 L136.804176,68.0526999 L138.296354,66.3160277 Z M140.014689,64.7229958 L139.161252,63.7985025 L138.463679,63.0405707 L137.661433,63.9727045 L136.977614,64.7696025 L137.659141,65.3540962 L138.523275,66.0982752 L139.208622,65.4671748 L140.014689,64.7229958 Z M138.688308,62.8228182 L139.395813,63.5906825 L140.235497,64.500659 L141.727676,62.7647508 L140.890283,62.0434932 L140.187363,61.4406624 L138.688308,62.8228182 Z M107.420568,98.2897446 L106.990411,97.9199473 C106.983535,97.9894753 106.975894,98.0574752 106.969018,98.1262392 C106.947625,98.348576 106.934636,98.591542 106.928524,98.850553 L107.373197,98.3332951 L107.420568,98.2897446 Z M107.8385,105.001108 L108.358814,104.522052 L109.265735,103.68466 L108.416118,102.764751 L107.710141,101.996887 L107.65513,102.048077 L107.255535,102.512616 C107.398411,103.311042 107.591714,104.149199 107.8385,105.001108 Z M114.585009,108.644834 L113.051573,107.326094 L112.119439,108.187172 L111.554811,108.706722 L113.089775,110.371574 L113.675033,109.689282 L114.534583,108.691441 L114.585009,108.644834 Z M113.260157,107.092297 L114.817279,108.430902 L116.310985,107.05333 L114.755391,105.365557 L114.703436,105.412928 L113.260157,107.092297 Z M130.416767,89.3320918 L131.967776,90.6653487 L133.462247,89.2870132 L131.905889,87.5992398 L131.904361,87.6007679 L130.416767,89.3320918 Z M128.706072,90.9404046 L130.246385,92.611369 L130.875957,91.8771226 L131.735507,90.879281 L131.736271,90.878517 L130.202835,89.5605409 L129.320364,90.375776 L128.706072,90.9404046 Z M147.402995,74.8511642 L148.076882,74.0657269 L148.892117,73.1190763 L147.352568,71.7949879 L146.521288,72.5636162 L145.85657,73.1748515 L147.402995,74.8511642 Z M133.677707,89.059328 L134.315684,88.3151491 L135.167593,87.326476 L133.632629,86.0077359 L132.760854,86.8130384 L132.135866,87.3875996 L133.677707,89.059328 Z M133.848089,85.7800508 L135.39757,87.1117796 L136.892041,85.7334441 L135.337211,84.0471988 L133.848089,85.7800508 Z M143.971673,78.4032052 L144.636391,77.6277004 L145.460795,76.6703532 L143.922774,75.3485569 L143.080798,76.1255897 L142.426012,76.7284205 L143.971673,78.4032052 Z M137.109029,85.5072871 L137.756174,84.7524115 L138.598915,83.7744351 L137.062422,82.4541669 L136.200581,83.2503008 L135.566424,83.8340305 L137.109029,85.5072871 Z M137.279411,82.2280099 L138.828128,83.5589747 L140.322599,82.1806391 L138.768533,80.4951579 L137.279411,82.2280099 Z M140.540351,81.9552461 L141.195901,81.190438 L142.029473,80.2223941 L140.49298,78.9013619 L139.641071,79.6883273 L138.996982,80.2812255 L140.540351,81.9552461 Z M140.710733,78.6759689 L142.257922,80.0061697 L143.752392,78.6278341 L142.199091,76.943881 L140.710733,78.6759689 Z M144.141291,75.123928 L145.687716,76.4526006 L147.18295,75.0742651 L145.630413,73.39184 L144.141291,75.123928 Z M147.572613,71.571887 L149.11751,72.8997956 L150.612744,71.5214601 L149.061735,69.8397991 L147.572613,71.571887 Z M151.516608,70.5029893 L152.323439,69.5662713 L150.782362,68.2421829 L149.961779,69.0008787 L149.286364,69.6220465 L150.833553,71.2991233 L151.516608,70.5029893 Z M154.042538,67.9686551 L152.493057,66.2877581 L151.003935,68.019846 L152.548068,69.3469906 L154.042538,67.9686551 Z M128.476095,91.1528088 L128.464634,91.1635054 L126.985445,92.8841327 L128.537983,94.2181537 L130.031689,92.8405822 L128.476095,91.1528088 Z M128.305713,94.432086 L126.772277,93.11411 L125.880637,93.9377495 L125.276278,94.4939736 L126.815063,96.1634099 L127.435467,95.4398602 L128.295017,94.4420186 L128.305713,94.432086 Z M125.045537,94.7063779 L125.024144,94.725479 L123.553359,96.4361737 L125.107425,97.7717227 L126.601131,96.3933872 L125.045537,94.7063779 Z M124.875919,97.984891 L123.341719,96.666915 L122.440147,97.5004871 L121.84572,98.0467786 L123.383741,99.7154509 L123.99574,99.0025977 L124.854526,98.0039921 L124.875919,97.984891 Z M121.614979,98.2591829 L121.583653,98.2882165 L120.122801,99.9882146 L121.676867,101.324528 L123.171337,99.9469562 L121.614979,98.2591829 Z M121.445361,101.53846 L119.911925,100.21972 L118.999656,101.062461 L118.415162,101.600348 L119.952419,103.267492 L120.55525,102.564571 L121.4148,101.56673 L121.445361,101.53846 Z M118.185185,101.812752 L118.143927,101.85019 L116.691479,103.540256 L118.247073,104.877333 L119.741543,103.499761 L118.185185,101.812752 Z M118.015567,105.091265 L116.482131,103.773289 L115.55993,104.625198 L114.985369,105.153917 L116.521097,106.819533 L117.114759,106.127309 L117.974309,105.128703 L118.015567,105.091265 Z M131.005845,85.0840066 L130.356407,85.8404103 L131.06162,86.4447692 L131.906653,87.1729032 L132.553034,86.5777128 L133.400359,85.7953317 L132.563731,84.8891754 L131.844765,84.1083224 L131.005845,85.0840066 Z M128.644185,87.4487231 L129.367734,88.2341604 L130.186026,89.1204516 L131.675912,87.3868355 L130.862205,86.6869711 L130.141711,86.0680954 L128.644185,87.4487231 Z M128.245354,90.9396405 L127.431647,90.2397761 L126.711153,89.6216645 L125.214391,91.0022921 L125.937176,91.7869654 L126.75394,92.6724925 L128.238477,90.9449888 L128.245354,90.9396405 Z M125.701851,91.9947854 L124.983649,91.2146964 L124.968369,91.2292132 L124.125628,92.2087177 L123.493763,92.9444922 L124.19974,93.5503792 L125.046301,94.2792772 L125.672053,93.7024239 L126.540007,92.9017057 L125.701851,91.9947854 Z M124.814796,94.4932096 L124.000325,93.7925811 L123.281359,93.1744695 L121.783833,94.5550971 L122.506619,95.3397704 L123.323382,96.2245335 L124.798751,94.5077264 L124.814796,94.4932096 Z M143.91055,74.9122877 L145.400436,73.1794358 L144.584436,72.4772792 L143.861651,71.8561114 L142.364888,73.2367391 L143.09073,74.0244685 L143.91055,74.9122877 Z M133.617348,85.5684106 L135.107234,83.8347946 L134.292763,83.1341661 L133.571505,82.5152904 L132.074743,83.8959181 L133.617348,85.5684106 Z M134.445571,81.5212691 L133.787729,82.2876053 L134.492178,82.8919642 L135.337211,83.6193341 L135.992761,83.0157393 L136.830917,82.2417626 L135.994289,81.3363704 L135.276087,80.5562814 L134.445571,81.5212691 Z M140.479228,78.4643287 L141.969114,76.7307127 L141.153878,76.0293202 L140.431857,75.4089164 L138.935094,76.7895441 L139.660172,77.5765095 L140.479228,78.4643287 Z M137.047906,82.0163696 L138.537792,80.2827536 L137.723321,79.5821252 L137.002063,78.9617214 L135.504537,80.3423491 L136.229614,81.1293145 L137.047906,82.0163696 Z M137.886062,77.9592956 L137.219051,78.7355643 L137.922736,79.3399232 L138.767005,80.0665291 L139.433251,79.4530017 L140.260711,78.6889577 L139.424847,77.7843295 L138.707409,77.0042404 L137.886062,77.9592956 Z M141.326552,74.396558 L140.650373,75.1842874 L141.353294,75.7871182 L142.196799,76.5137241 L142.872978,75.8910282 L143.690505,75.1361527 L142.855405,74.2315245 L142.138731,73.4521995 L141.326552,74.396558 Z M144.766279,70.8345845 L144.081695,71.6322465 L144.783852,72.2350773 L145.626593,72.9609191 L146.313468,72.3282906 L147.121063,71.5833477 L146.285963,70.6794835 L145.569289,69.9009226 L144.766279,70.8345845 Z M147.341872,71.3602468 L148.831757,69.6273948 L148.014994,68.9244742 L147.291445,68.3033064 L145.794682,69.68317 L146.521288,70.4716635 L147.341872,71.3602468 Z M148.206769,67.2718469 L147.512253,68.0802055 L148.21441,68.6822723 L149.05715,69.4081141 L150.550857,68.0305427 L149.716521,67.1266785 L149.000611,66.3488816 L148.206769,67.2718469 Z M149.951846,66.9196226 L150.772429,67.8089699 L152.263079,66.0745898 L150.722003,64.7497374 L149.22524,66.130365 L149.951846,66.9196226 Z M122.271293,95.5475904 L121.553856,94.7675014 L121.527878,94.7911868 L120.685137,95.7714553 L120.062442,96.4965331 L120.769182,97.1031842 L121.616507,97.8320822 L122.232327,97.2651615 L123.109449,96.4552748 L122.271293,95.5475904 Z M121.385002,98.0460146 L119.850801,96.7272745 L118.354039,98.1086662 L119.076061,98.8925754 L119.89206,99.7765744 L121.35826,98.070464 L121.385002,98.0460146 Z M118.840735,99.0996313 L118.123298,98.3203064 L118.087388,98.3539243 L117.245411,99.3334288 L116.63112,100.048574 L117.338624,100.655225 L118.186713,101.385651 L118.791836,100.827135 L119.679655,100.00808 L118.840735,99.0996313 Z M117.954444,101.599584 L117.139209,100.897427 L116.421007,100.280844 L114.923481,101.661471 L115.644739,102.444616 L116.460738,103.328615 L117.918534,101.632437 L117.954444,101.599584 Z M115.410177,102.652436 L114.693504,101.873875 L114.647661,101.915898 L113.80492,102.896166 L113.199798,103.600615 L113.908066,104.20803 L114.756155,104.938456 L115.35211,104.389873 L116.249862,103.561649 L115.410177,102.652436 Z M114.52465,105.152389 L113.708651,104.450232 L112.991213,103.834413 L111.492923,105.21504 L112.214181,105.997421 L113.029416,106.880656 L114.478043,105.195175 L114.52465,105.152389 Z M111.978855,106.205241 L111.262946,105.427444 L111.207171,105.478635 L110.36443,106.45814 L109.768476,107.152656 L110.476744,107.760835 L111.326361,108.492025 L112.819304,107.114454 L111.978855,106.205241 Z M127.565354,88.6459802 L126.925085,89.3924512 L127.631062,89.9975742 L128.476859,90.7264722 L129.112544,90.1404504 L129.970565,89.3489007 L129.133173,88.4419804 L128.414207,87.6611273 L128.408095,87.6664757 L127.565354,88.6459802 Z M124.753672,91.000764 L123.220236,89.682788 L122.327832,90.5071916 L121.722709,91.0641797 L123.262258,92.733616 L123.882662,92.0093022 L124.742212,91.0114607 L124.753672,91.000764 Z M123.433404,89.4528107 L124.985178,90.7868317 L126.478884,89.4100243 L124.922526,87.7230149 L124.911829,87.7329475 L123.433404,89.4528107 Z M128.18423,87.447959 L126.650794,86.129219 L125.768323,86.944454 L125.153267,87.5106107 L126.69358,89.180811 L127.323152,88.4465647 L128.182702,87.4487231 L128.18423,87.447959 Z M126.864726,85.9007698 L128.415735,87.2340267 L129.908678,85.8572193 L128.353084,84.1694459 L128.35232,84.1702099 L126.864726,85.9007698 Z M143.849426,71.4213703 L144.524077,70.6344049 L145.340076,69.6877543 L143.800527,68.3644299 L142.968483,69.1330583 L142.303765,69.7450576 L143.849426,71.4213703 Z M130.124902,85.6287701 L130.763643,84.8845911 L131.614788,83.8951541 L130.080588,82.576414 L129.208049,83.3824805 L128.583061,83.9578057 L130.124902,85.6287701 Z M130.296048,82.3487288 L131.845529,83.6804577 L133.339236,82.3036502 L131.784406,80.6174049 L130.296048,82.3487288 Z M140.418104,74.9734113 L141.083586,74.1971425 L141.908754,73.2390312 L140.370733,71.9172349 L139.528757,72.6950318 L138.873971,73.2986266 L140.418104,74.9734113 Z M133.556224,82.0767291 L134.203369,81.3218536 L135.046874,80.3431131 L133.510381,79.0228449 L132.64854,79.8197429 L132.013619,80.4042366 L133.556224,82.0767291 Z M133.72737,78.7959238 L135.276087,80.1276527 L136.769029,78.7508452 L135.215728,77.065364 L133.72737,78.7959238 Z M136.986782,78.5246882 L137.64386,77.75988 L138.477432,76.7910721 L136.940939,75.4700399 L136.088266,76.2577694 L135.443413,76.8514316 L136.986782,78.5246882 Z M137.158692,75.2438829 L138.705881,76.5748477 L140.199587,75.1972762 L138.646286,73.5140871 L137.158692,75.2438829 Z M140.58925,71.692606 L142.135675,73.0212786 L143.629381,71.6444712 L142.077608,69.9620461 L140.58925,71.692606 Z M144.020572,68.140565 L145.565469,69.4684736 L147.059175,68.0916662 L145.50893,66.4100052 L144.020572,68.140565 Z M147.963803,67.0724314 L148.771398,66.1349493 L147.230321,64.8108609 L146.408974,65.5703207 L145.733559,66.1922526 L147.280748,67.8693294 L147.963803,67.0724314 Z M150.489733,64.5380971 L148.939488,62.8579642 L147.451894,64.5885241 L148.996027,65.9156686 L150.489733,64.5380971 Z M121.492732,91.2758199 L121.472103,91.294921 L120.001318,93.0048517 L121.555384,94.3404007 L123.048326,92.9635933 L121.492732,91.2758199 Z M121.323114,94.553569 L119.789678,93.235593 L118.887342,94.0691651 L118.292915,94.6169847 L119.830936,96.2848929 L120.442935,95.5712758 L121.302485,94.5734342 L121.323114,94.553569 Z M118.062174,94.829389 L118.031612,94.8576586 L116.57076,96.5568926 L118.124826,97.8932057 L119.617768,96.5163983 L118.062174,94.829389 Z M114.463526,101.659943 L112.93009,100.341967 L112.007125,101.193876 L111.4318,101.723359 L112.968292,103.389739 L113.562718,102.695987 L114.422268,101.698145 L114.463526,101.659943 Z M113.139438,100.108934 L114.695032,101.446775 L116.187974,100.069967 L114.63238,98.382958 L114.591122,98.4196321 L113.139438,100.108934 Z M117.89332,98.1071381 L116.359884,96.789162 L115.447615,97.6319027 L114.862357,98.1705537 L116.399614,99.8369339 L117.002445,99.1340133 L117.861995,98.1361718 L117.89332,98.1071381 Z M111.201822,101.935763 L111.151395,101.98237 L109.708116,103.661739 L111.265238,104.99958 L112.757416,103.622772 L111.201822,101.935763 Z M110.122228,106.258724 L110.981778,105.260883 L111.032969,105.213512 L109.499532,103.894772 L108.567398,104.756614 L108.002006,105.276928 L109.53697,106.941016 L110.122228,106.258724 Z M124.693313,87.5083185 L123.868909,86.7992856 L123.159876,86.1903425 L121.660822,87.5724982 L123.201135,89.2426986 L124.686436,87.5151949 L124.693313,87.5083185 Z M124.012549,85.2154222 L123.373045,85.9611293 L124.067561,86.5570836 L124.924818,87.2951502 L125.559739,86.7098925 L126.416996,85.9183428 L125.570435,85.0014899 L124.861402,84.2313334 L124.856054,84.2359177 L124.012549,85.2154222 Z M126.632457,85.6906577 L128.123871,83.9555135 L127.299467,83.2464806 L126.58967,82.6367734 L125.09138,84.0189292 L125.804997,84.7936699 L126.632457,85.6906577 Z M127.45304,81.6534487 L126.804367,82.4090883 L127.498883,83.0042786 L128.355376,83.7415812 L129.000229,83.1471549 L129.847554,82.3655378 L129.000993,81.4486849 L128.29196,80.6785285 L127.45304,81.6534487 Z M140.35698,71.4824938 L141.848395,69.7481138 L141.021699,69.0367887 L140.30961,68.4247894 L138.812083,69.8061811 L139.527993,70.583978 L140.35698,71.4824938 Z M130.063779,82.1378527 L131.555193,80.4034726 L130.730025,79.6936756 L130.019464,79.0839684 L128.521938,80.4653602 L129.236319,81.2408649 L130.063779,82.1378527 Z M130.89353,78.0907111 L130.235688,78.8562833 L130.929441,79.4522377 L131.78517,80.1887762 L132.44072,79.5851814 L133.277348,78.8119688 L132.431551,77.8958799 L131.723282,77.1264875 L130.89353,78.0907111 Z M136.926423,75.0337707 L138.417073,73.3001547 L137.591141,72.5888297 L136.879816,71.9775944 L135.381525,73.3597502 L136.097435,74.1360189 L136.926423,75.0337707 Z M133.495101,78.5858117 L134.986515,76.8514316 L134.160583,76.1416347 L133.450022,75.5303994 L131.951732,76.9125552 L132.666877,77.6888239 L133.495101,78.5858117 Z M134.333257,74.5287376 L133.66701,75.3042424 L134.359998,75.8994327 L135.214964,76.6359712 L135.880446,76.0224438 L136.707906,75.2591638 L135.862109,74.3438389 L135.15384,73.5744465 L134.333257,74.5287376 Z M137.773747,70.966 L137.097568,71.7529654 L137.790556,72.3466277 L138.644758,73.0831662 L139.320937,72.4604703 L140.1377,71.7063588 L139.292667,70.7910339 L138.585162,70.0224056 L137.773747,70.966 Z M141.213474,67.4040265 L140.529654,68.2009245 L141.221114,68.7945867 L142.075316,69.5295972 L142.760663,68.8977327 L143.567494,68.1527897 L142.723225,67.238993 L142.016484,66.4711287 L141.213474,67.4040265 Z M145.279717,66.1960728 L144.452257,65.4839837 L143.739404,64.8719844 L142.241877,66.2533761 L142.958551,67.031173 L143.788302,67.9304529 L145.279717,66.1960728 Z M146.998052,64.5999847 L146.153783,63.686188 L145.447806,62.9190877 L144.653964,63.8412889 L143.960212,64.6488835 L144.651672,65.2417818 L145.50511,65.9767922 L146.201154,65.3357592 L146.998052,64.5999847 Z M122.139113,88.5542949 L121.430844,87.7841384 L121.415564,87.7986553 L120.572823,88.7781598 L119.941723,89.5131702 L120.637003,90.1098886 L121.495024,90.8479552 L122.120012,90.271866 L122.987202,89.4719118 L122.139113,88.5542949 Z M121.262755,91.0618876 L120.437587,90.3520906 L119.729318,89.7431475 L118.231028,91.1253032 L118.943881,91.8992799 L119.769813,92.7939755 L121.245946,91.0771685 L121.262755,91.0618876 Z M118.708555,92.1070999 L118.000287,91.3377075 L117.975837,91.3606288 L117.132332,92.3408974 L116.510401,93.0652112 L117.206445,93.6626936 L118.064466,94.4015243 L118.679522,93.8346036 L119.556644,93.0247168 L118.708555,92.1070999 Z M117.832961,94.6146926 L117.007029,93.9048956 L116.29876,93.2967165 L114.80047,94.6781082 L115.513323,95.4520849 L116.338491,96.3467805 L117.806219,94.639906 L117.832961,94.6146926 Z M115.277997,95.6591408 L114.570493,94.8905125 L114.535347,94.9233664 L113.692606,95.9028709 L113.079079,96.6172521 L113.775887,97.2154986 L114.634672,97.9543293 L115.239795,97.3973411 L116.12685,96.5782859 L115.277997,95.6591408 Z M114.402403,98.1682616 L113.576471,97.4569366 L112.868966,96.8502856 L111.369912,98.2316773 L112.082001,99.0041258 L112.907169,99.8980574 L114.365729,98.2018795 L114.402403,98.1682616 Z M111.847439,99.2119458 L111.140699,98.4440815 L111.094856,98.4853399 L110.252115,99.4656085 L109.647757,100.169293 L110.344565,100.76754 L111.204114,101.507898 L111.799305,100.959315 L112.696292,100.131091 L111.847439,99.2119458 Z M110.972609,101.721067 L110.145913,101.009742 L109.439173,100.403091 L107.940118,101.785246 L108.651443,102.556931 L109.475847,103.450098 L110.926002,101.764617 L110.972609,101.721067 Z M107.481692,101.78219 L107.089737,101.445247 C107.118007,101.663763 107.150096,101.885336 107.186771,102.112257 L107.429737,101.830325 L107.481692,101.78219 Z M107.033962,100.985292 L107.713197,101.569022 L109.204611,100.192978 L107.648253,98.5052051 L107.59859,98.5510477 L106.92776,99.3319008 C106.934636,99.8361698 106.969782,100.39163 107.033962,100.985292 Z M126.744007,78.9174068 L128.294252,80.2491357 L129.785667,78.8730923 L128.230837,77.186847 L126.744007,78.9174068 Z M125.030256,80.5272477 L126.571333,82.1989762 L127.210838,81.4540332 L128.063511,80.4638321 L126.528547,79.145092 L125.655244,79.9519225 L125.030256,80.5272477 Z M130.002655,78.6469352 L130.651328,77.8912956 L131.494833,76.9117911 L129.959105,75.592287 L129.095735,76.389185 L128.46005,76.9736787 L130.002655,78.6469352 Z M130.175329,75.3653659 L131.724046,76.6963307 L133.216224,75.3202873 L131.662159,73.634806 L130.175329,75.3653659 Z M136.865299,71.5428533 L137.531545,70.7665845 L138.356713,69.8077092 L136.818692,68.4859129 L135.975952,69.2644739 L135.320402,69.8680687 L136.865299,71.5428533 Z M133.433977,75.0948943 L134.091055,74.3293221 L134.925391,73.3597502 L133.388898,72.0387179 L132.535461,72.8264474 L131.890608,73.4208737 L133.433977,75.0948943 Z M133.606651,71.8133249 L135.15384,73.1435257 L136.646018,71.7674823 L135.092717,70.0835291 L133.606651,71.8133249 Z M137.037973,68.261284 L138.584398,69.5907207 L140.076576,68.2139132 L138.524039,66.5314882 L137.037973,68.261284 Z M140.972036,67.203847 L141.788035,66.2564323 L140.24925,64.9331079 L139.416442,65.7017363 L138.750196,66.3144996 L140.296621,67.9915764 L140.972036,67.203847 Z M143.50637,64.6611082 L141.955361,62.9794472 L140.468531,64.709243 L142.014192,66.0379157 L143.50637,64.6611082 Z M121.369721,84.292457 L121.359024,84.3016255 L119.881363,86.0214887 L121.433137,87.3562738 L122.925315,85.9802304 L121.369721,84.292457 Z M123.140011,85.7510171 L123.771111,85.0160067 L124.629897,84.0181651 L124.632189,84.0166371 L123.098753,82.698661 L122.215518,83.5138961 L121.599698,84.0800527 L123.140011,85.7510171 Z M121.201631,87.5694421 L119.668195,86.251466 L118.775027,87.0766336 L118.169904,87.6336218 L119.708689,89.3030581 L120.330621,88.5787443 L121.190171,87.5809027 L121.201631,87.5694421 Z M117.939163,87.846026 L117.919298,87.8643631 L116.450041,89.5735297 L118.003343,90.9090788 L119.495521,89.5330354 L117.939163,87.846026 Z M117.771837,91.1230111 L116.238401,89.8050351 L115.334537,90.6386071 L114.739346,91.1871908 L116.277367,92.855099 L116.890895,92.1407178 L117.74968,91.1428762 L117.771837,91.1230111 Z M114.508605,91.398831 L114.478807,91.4263366 L113.018719,93.1255706 L114.573549,94.4626478 L116.064963,93.0866044 L114.508605,91.398831 Z M114.342043,94.6758161 L112.807843,93.35784 L111.89481,94.2013447 L111.308788,94.7399958 L112.846045,96.40714 L113.450404,95.7034554 L114.309954,94.7056138 L114.342043,94.6758161 Z M111.078811,94.9524001 L111.038317,94.9890742 L109.587397,96.6783756 L111.142991,98.0154528 L112.634405,96.6394094 L111.078811,94.9524001 Z M110.911485,98.2293851 L109.378049,96.9114091 L108.45432,97.7633182 L107.878995,98.2935648 L109.414723,99.9591809 L110.009913,99.2654289 L110.869463,98.2675873 L110.911485,98.2293851 Z M124.799515,80.739652 L123.312685,82.4694478 L124.863695,83.8027047 L126.355873,82.4266613 L124.799515,80.7388879 L124.799515,80.739652 Z M145.443986,62.4843466 L146.172884,61.8119879 C145.562413,61.6874487 144.942009,61.5904151 144.314729,61.5140107 L145.443986,62.4843466 Z M151.646496,63.7098734 L150.943575,64.5281646 L151.644968,65.1302313 L152.486944,65.8545451 L153.62919,64.8024564 C152.99809,64.396749 152.343304,64.0238955 151.665597,63.686952 L151.646496,63.7098734 Z M153.401505,65.4389051 L152.716158,66.0684775 L154.264875,67.7470823 L154.957099,66.9410158 L155.573683,66.2243424 C155.039616,65.7804328 154.484156,65.3609726 153.903482,64.9751304 L153.401505,65.4389051 Z M118.13705,112.076156 L116.603614,110.757416 L115.672244,111.61773 L115.10838,112.13728 L116.643344,113.801368 L117.227838,113.120604 L118.087388,112.121999 L118.13705,112.076156 Z M116.812198,110.523619 L118.36932,111.862224 L119.864554,110.483124 L118.308196,108.796115 L118.256241,108.843486 L116.812198,110.523619 Z M133.968808,92.7634137 L135.519817,94.0966707 L137.015052,92.7175711 L135.458694,91.0297977 L135.457166,91.0313258 L133.968808,92.7634137 Z M132.258877,94.3709625 L133.799954,96.0411629 L134.428762,95.3084446 L135.287548,94.310603 L135.288312,94.309839 L133.754112,92.9918629 L132.873169,93.8063339 L132.258877,94.3709625 Z M137.230512,92.4891219 L137.868489,91.745707 L138.719634,90.757798 L137.184669,89.4382939 L136.312895,90.2435964 L135.689435,90.8173935 L137.230512,92.4891219 Z M137.40013,89.2113728 L138.949611,90.5431016 L140.44561,89.1640021 L138.890016,87.4769927 L137.40013,89.2113728 Z M150.9558,78.2817222 L151.629687,77.4962848 L152.444158,76.5496342 L150.904609,75.2270739 L150.074093,75.9941742 L149.410139,76.6054094 L150.9558,78.2817222 Z M140.662598,88.937081 L141.308979,88.1837335 L142.150956,87.2057571 L140.614463,85.8854889 L139.753386,86.6816228 L139.119993,87.2645885 L140.662598,88.937081 Z M140.831452,85.6593318 L142.380169,86.9902966 L143.875404,85.6111971 L142.321338,83.9249518 L140.831452,85.6593318 Z M147.524478,81.8337631 L148.189196,81.0590224 L149.012836,80.1016752 L147.474815,78.7798789 L146.633603,79.5561477 L145.979581,80.1582144 L147.524478,81.8337631 Z M144.09392,85.38504 L144.74947,84.6209959 L145.581514,83.6537161 L144.045021,82.3326839 L143.193112,83.1188853 L142.549787,83.7110194 L144.09392,85.38504 Z M144.262774,82.1065268 L145.809963,83.4374916 L147.305961,82.057628 L145.75266,80.3736749 L144.262774,82.1065268 Z M147.693332,78.5552499 L149.239757,79.8839226 L150.735755,78.504823 L149.183218,76.8216339 L147.693332,78.5552499 Z M151.124654,75.003209 L152.670315,76.3311176 L154.165549,74.952018 L152.61454,73.269593 L151.124654,75.003209 Z M155.069413,73.9343113 L155.87548,72.9975933 L154.334403,71.6735049 L153.51382,72.4314366 L152.839933,73.0526044 L154.387122,74.7296812 L155.069413,73.9343113 Z M157.596107,71.398449 L156.045862,69.717552 L154.555976,71.451168 L156.100109,72.7783126 L157.596107,71.398449 Z M132.0289,94.5826027 L132.016675,94.5940634 L130.537486,96.3154547 L132.089259,97.6494757 L133.585258,96.2703761 L132.0289,94.5826027 Z M131.857754,97.863408 L130.324318,96.5446679 L129.432678,97.3683075 L128.829083,97.9245315 L130.368632,99.5932038 L130.988272,98.8704181 L131.847822,97.8725765 L131.857754,97.863408 Z M128.598342,98.1361718 L128.576949,98.1560369 L127.106164,99.8674957 L128.659466,101.203045 L130.1547,99.8239451 L128.598342,98.1361718 Z M128.42796,101.416213 L126.89376,100.098237 L125.992952,100.931045 L125.398525,101.477337 L126.93731,103.145245 L127.548545,102.433156 L128.407331,101.435314 L128.42796,101.416213 Z M125.168548,101.689741 L125.136458,101.718774 L123.674842,103.419537 L125.229672,104.75585 L126.724906,103.37675 L125.168548,101.689741 Z M124.997402,104.969782 L123.463966,103.651042 L122.552461,104.493019 L121.968731,105.030906 L123.505988,106.697286 L124.108055,105.995893 L124.967605,104.997288 L124.997402,104.969782 Z M121.73799,105.242546 L121.696732,105.280748 L120.24352,106.971578 L121.799114,108.309419 L123.294348,106.930319 L121.73799,105.242546 Z M121.567608,108.522587 L120.033408,107.204611 L119.111971,108.055756 L118.538174,108.583711 L120.074666,110.249327 L120.667564,109.557867 L121.527114,108.560025 L121.567608,108.522587 Z M134.55865,88.5145646 L133.908448,89.2717323 L134.623594,89.8852597 L135.458694,90.6042252 L136.953928,89.2258896 L136.125704,88.3296659 L135.398334,87.5381162 L134.55865,88.5145646 Z M132.197754,90.879281 L132.930472,91.6746509 L133.738831,92.5502454 L135.227953,90.8181575 L134.424178,90.1274617 L133.692988,89.4994174 L132.197754,90.879281 Z M147.463355,78.3428457 L148.952476,76.6099937 L148.147174,75.9170057 L147.413692,75.2874334 L145.918457,76.666533 L146.652704,77.464195 L147.463355,78.3428457 Z M137.170153,88.9982045 L138.659275,87.2661166 L137.8555,86.5746567 L137.123546,85.9466124 L135.628312,87.325712 L136.36103,88.1218459 L137.170153,88.9982045 Z M137.998376,84.9525911 L137.33977,85.7189273 L138.054916,86.3324547 L138.889252,87.0506561 L139.545566,86.4462973 L140.383722,85.6723206 L139.557026,84.7768609 L138.828892,83.9860753 L137.998376,84.9525911 Z M144.032797,81.8941226 L145.521154,80.1620346 L144.716616,79.4698107 L143.983898,78.8402384 L142.487899,80.219338 L143.222146,81.0162359 L144.032797,81.8941226 Z M140.601475,85.4461635 L142.090597,83.7140756 L141.286058,83.0218517 L140.554104,82.3930434 L139.058106,83.772907 L139.791588,84.5690409 L140.601475,85.4461635 Z M141.438867,81.3898535 L140.771092,82.1668863 L141.485474,82.7796497 L142.319046,83.4978511 L142.986056,82.8835597 L143.81428,82.1195156 L142.987584,81.22482 L142.260214,80.4347984 L141.438867,81.3898535 Z M144.878593,77.8271159 L144.202414,78.6156094 L144.916032,79.2276087 L145.74884,79.9450461 L146.425783,79.3215862 L147.244074,78.5667106 L146.418142,77.672015 L145.691536,76.8827574 L144.878593,77.8271159 Z M148.319084,74.2651424 L147.633736,75.0628044 L148.346589,75.6748037 L149.179398,76.3922411 L149.866273,75.7588486 L150.673868,75.0131416 L149.8487,74.11921 L149.122094,73.3307165 L148.319084,74.2651424 Z M152.383798,73.0587168 L151.577732,72.3649648 L150.843486,71.7346284 L149.348251,73.113728 L150.083262,73.912154 L150.894677,74.7908047 L152.383798,73.0587168 Z M154.103662,71.4603366 L153.279258,70.567169 L152.553416,69.7786755 L151.75881,70.7024048 L151.064294,71.5115275 L151.777147,72.1227628 L152.609191,72.8394361 L153.306,72.1968751 L154.103662,71.4603366 Z M131.797395,94.3709625 L130.99362,93.6795026 L130.263194,93.0529865 L128.767196,94.432086 L129.499914,95.2274559 L130.307509,96.1022864 L131.791282,94.3763108 L131.797395,94.3709625 Z M129.264588,95.4345119 L128.537218,94.6444903 L128.52041,94.6597712 L127.677669,95.6392757 L127.045804,96.3758142 L127.762478,96.9901056 L128.598342,97.7105992 L129.224858,97.1337459 L130.093576,96.3322637 L129.264588,95.4345119 Z M128.366837,97.9237675 L127.563062,97.2323076 L126.8334,96.6057915 L125.337402,97.9856551 L126.068592,98.7794969 L126.876187,99.6543274 L128.351556,97.9382843 L128.366837,97.9237675 Z M125.834031,98.9873169 L125.106661,98.1980593 L125.080683,98.2217447 L124.237942,99.2020133 L123.614482,99.9278551 L124.331156,100.542911 L125.168548,101.263404 L125.785132,100.695719 L126.663018,99.8850687 L125.834031,98.9873169 Z M124.936279,101.477337 L124.132504,100.785113 L123.402842,100.15936 L121.906844,101.53846 L122.638034,102.332302 L123.444865,103.206368 L124.911065,101.501022 L124.936279,101.477337 Z M122.402709,102.540122 L121.676867,101.750864 L121.640193,101.784482 L120.797452,102.763987 L120.18316,103.479896 L120.900598,104.095716 L121.738754,104.816973 L122.344641,104.258457 L123.233224,103.438638 L122.402709,102.540122 Z M121.506485,105.030142 L119.973048,103.712165 L118.476286,105.092029 L119.207476,105.885107 L120.013543,106.758409 L121.470575,105.062995 L121.506485,105.030142 Z M118.972151,106.092927 L118.246309,105.304433 L118.200466,105.34722 L117.357725,106.326724 L116.751838,107.031937 L117.47004,107.648521 L118.308196,108.369778 L118.904915,107.820431 L119.802667,106.991443 L118.972151,106.092927 Z M118.076691,108.583711 L117.270624,107.890723 L116.54249,107.265735 L115.046492,108.644834 L115.776918,109.437912 L116.582221,110.31045 L118.030848,108.625733 L118.076691,108.583711 Z M115.541593,109.644968 L114.816515,108.857238 L114.759976,108.909193 L113.917235,109.888698 L113.320516,110.583978 L114.039482,111.200562 L114.878402,111.923347 L115.464424,111.383168 L116.372873,110.545012 L115.541593,109.644968 Z M131.118159,92.0773022 L130.477126,92.8230092 L131.193036,93.4373006 L132.0289,94.1570302 L132.665349,93.5710083 L133.52337,92.7786946 L132.695146,91.8824709 L131.967012,91.0909212 L131.9609,91.0970336 L131.118159,92.0773022 Z M153.51382,70.359349 L154.325999,71.2387638 L155.81512,69.5059118 L155.00829,68.8121598 L154.274044,68.1810593 L152.778045,69.5601589 L153.51382,70.359349 Z M156.95431,68.8694631 L156.269727,69.4990354 L157.818444,71.1776402 L158.509904,70.3715737 L158.956106,69.8535518 C158.549634,69.2866311 158.111073,68.746452 157.648826,68.227666 L156.95431,68.8694631 Z M123.068955,117.783565 L123.479247,117.405364 L122.666304,116.525949 L121.922889,115.71759 L121.865586,115.771073 L121.022845,116.750578 L120.561362,117.287701 C121.421676,117.504689 122.265945,117.668959 123.068955,117.783565 Z M132.162608,115.324108 L131.388631,114.658625 L130.629171,114.006131 L129.136229,115.382939 L129.894161,116.205814 L130.673486,117.049319 L132.12899,115.355433 L132.162608,115.324108 Z M131.455867,113.056425 L130.839283,113.773862 L131.588047,114.416423 L132.394877,115.110939 L133.003056,114.550895 L133.892403,113.729547 L133.090157,112.860829 L132.33681,112.041774 L132.298608,112.07692 L131.455867,113.056425 Z M145.216301,98.8070025 L144.564571,99.5656982 L145.311042,100.205967 L146.115581,100.898191 L146.76349,100.300709 L147.613107,99.5160354 L146.813153,98.6496094 L146.057513,97.829026 L145.216301,98.8070025 Z M142.857697,101.169427 L143.617921,101.995358 L144.39801,102.841155 L145.884075,101.112123 L144.349875,99.7933834 L142.857697,101.169427 Z M147.829332,99.2891143 L149.315397,97.5600825 L148.542185,96.8953642 L147.779669,96.2405784 L146.287491,97.6166218 L147.048479,98.4425534 L147.829332,99.2891143 Z M148.656027,95.2442649 L147.995893,96.0128932 L148.7416,96.6531622 L149.545375,97.3446221 L150.203217,96.7387351 L151.043665,95.9632304 L150.243711,95.0975684 L149.488835,94.2769851 L148.656027,95.2442649 Z M158.123298,88.6329914 L159.609363,86.9039597 L158.069815,85.5813993 L156.577636,86.9574427 L157.340152,87.7849025 L158.123298,88.6329914 Z M151.260654,95.7370733 L152.746719,94.0080416 L151.973507,93.3425592 L151.210227,92.6870093 L149.717285,94.0630527 L150.479037,94.8897484 L151.260654,95.7370733 Z M152.096518,91.6822914 L151.427215,92.4608523 L152.172922,93.1003572 L152.975933,93.7918171 L153.643707,93.1759976 L154.474223,92.4096613 L153.675033,91.5447634 L152.920157,90.7249441 L152.096518,91.6822914 Z M154.691976,92.1850324 L156.178041,90.4567647 L154.640021,89.1342043 L153.147843,90.5102477 L153.909594,91.3369434 L154.691976,92.1850324 Z M155.537008,88.1195538 L154.858537,88.9095754 L155.602716,89.5483162 L156.404962,90.2390121 L157.084198,89.614024 L157.903253,88.8576204 L157.104827,87.9927225 L156.350715,87.1729032 L155.537008,88.1195538 Z M158.976735,84.5575803 L158.289859,85.3575344 L159.034038,85.9955112 L159.83552,86.6862071 L161.333811,85.3040513 L160.535385,84.4399175 L159.782037,83.6216263 L158.976735,84.5575803 Z M160.77071,84.2320975 L161.55462,85.0809505 L163.039921,83.3526827 L162.264417,82.6849082 L161.499608,82.0285943 L160.00743,83.4038737 L160.77071,84.2320975 Z M143.382595,102.202414 L142.626955,101.381831 L142.618551,101.389471 L141.77581,102.368976 L141.133249,103.117739 L141.880484,103.758008 L142.685023,104.450996 L143.323,103.863446 L144.183313,103.069604 L143.382595,102.202414 Z M142.453517,104.664928 L141.681069,104.00021 L140.919317,103.346952 L139.427139,104.722996 L140.186599,105.547399 L140.966688,106.393196 L142.449697,104.667985 L142.453517,104.664928 Z M139.952037,105.755219 L139.196398,104.9354 L139.178825,104.952209 L138.336084,105.931714 L137.701927,106.66978 L138.449162,107.310813 L139.255229,108.004565 L139.883273,107.42542 L140.752755,106.623173 L139.952037,105.755219 Z M139.02296,108.217733 L138.250511,107.553015 L137.489523,106.899757 L135.996581,108.276565 L136.756041,109.100204 L137.53613,109.945237 L139.009207,108.230722 L139.02296,108.217733 Z M136.520715,109.308024 L135.766604,108.488205 L135.738334,108.514183 L134.895593,109.493687 L134.270605,110.221821 L135.018604,110.863618 L135.824671,111.55737 L136.442783,110.988157 L137.322961,110.175978 L136.520715,109.308024 Z M135.593166,111.771303 L134.819189,111.10582 L134.058965,110.453326 L132.566787,111.82937 L133.325483,112.653009 L134.104808,113.497278 L135.568716,111.79346 L135.593166,111.771303 Z M126.970928,117.34424 L125.41457,115.656467 L125.361851,115.705365 L123.91628,117.387027 L124.571066,117.949363 C125.178481,117.995206 125.745401,118.011251 126.258839,118.000554 L126.970928,117.34424 Z M144.504212,96.0740168 L146.054457,97.4057456 L147.551984,96.0243539 L145.99639,94.3381086 L144.504212,96.0740168 Z M142.795809,97.6785093 L144.33765,99.3494738 L144.974099,98.607587 L145.823716,97.620442 L144.288751,96.3017019 L143.418505,97.1054763 L142.795809,97.6785093 Z M147.768972,95.7974328 L148.414589,95.0448494 L149.255038,94.068401 L147.719309,92.7481329 L146.858996,93.5427387 L146.226367,94.1249403 L147.768972,95.7974328 Z M147.935534,92.5219758 L149.484251,93.8529406 L150.982542,92.4715489 L149.427712,90.7860677 L147.935534,92.5219758 Z M154.630852,88.694115 L155.294806,87.9201383 L156.117682,86.9643191 L154.578897,85.6425229 L153.739213,86.4180276 L153.085955,87.0185663 L154.630852,88.694115 Z M151.19953,92.2453919 L151.854316,91.4828759 L152.68636,90.5163601 L151.149103,89.1953279 L150.298722,89.9807652 L149.656161,90.5721353 L151.19953,92.2453919 Z M151.366856,88.9699349 L152.914045,90.3001356 L154.412335,88.9187439 L152.859034,87.2340267 L151.366856,88.9699349 Z M154.798178,85.4178939 L156.343839,86.7465666 L157.842129,85.3651749 L156.289592,83.6819858 L154.798178,85.4178939 Z M158.734533,84.3581648 L159.54824,83.4122782 L158.008691,82.0889538 L157.178939,82.8560541 L156.516513,83.4657613 L158.062174,85.142074 L158.734533,84.3581648 Z M161.271923,81.8123699 L159.720914,80.1307088 L158.2295,81.865853 L159.774397,83.1937616 L161.271923,81.8123699 Z M142.565832,97.8901496 L142.562776,97.8932057 L141.07289,99.6260577 L142.623899,100.959315 L144.121426,99.5779229 L142.565832,97.8901496 Z M139.366015,101.231314 L140.906328,102.901515 L141.533608,102.16956 L142.392394,101.172483 L140.858957,99.8545069 L139.978015,100.66745 L139.366015,101.231314 Z M139.135274,101.443719 L139.122285,101.455179 L137.641568,103.178099 L139.193341,104.51212 L140.691632,103.130728 L139.135274,101.443719 Z M138.961836,104.726052 L137.4284,103.408076 L136.538288,104.230187 L135.935457,104.784883 L137.475006,106.453556 L138.093882,105.732298 L138.953432,104.734456 L138.961836,104.726052 Z M135.70548,104.996524 L135.682559,105.017917 L134.210246,106.73014 L135.763547,108.065689 L137.261074,106.684297 L135.70548,104.996524 Z M135.532042,108.278857 L133.998606,106.960881 L133.097798,107.792161 L132.505663,108.337688 L134.043684,110.005597 L134.653391,109.295036 L135.512941,108.29643 L135.532042,108.278857 Z M132.274922,108.550093 L132.242068,108.580654 L130.778924,110.282181 L132.333754,111.618494 L133.83128,110.237866 L132.274922,108.550093 Z M132.101484,111.832426 L130.568048,110.513686 L129.658071,111.354898 L129.075106,111.891257 L130.612362,113.557638 L131.213665,112.857009 L132.07245,111.859168 L132.101484,111.832426 Z M128.844364,112.102898 L128.801578,112.142628 L127.347602,113.834986 L128.903196,115.172063 L130.400722,113.790671 L128.844364,112.102898 Z M128.67169,115.385231 L127.138254,114.067255 L126.217581,114.917636 L125.645312,115.444062 L127.18104,117.109679 L127.773174,116.419747 L128.632724,115.421141 L128.67169,115.385231 Z M124.036235,117.901992 L123.707696,117.62006 L123.471606,117.838577 C123.662617,117.863026 123.850572,117.883655 124.036235,117.901992 Z M141.663496,95.3756805 L141.01253,96.1343763 L141.748305,96.7654767 L142.56354,97.4668691 L143.210685,96.8701507 L144.060302,96.0862415 L143.251179,95.2098829 L142.504708,94.3984681 L141.663496,95.3756805 Z M139.304128,97.7396329 L140.055183,98.5548679 L140.845205,99.4105973 L142.332034,97.6808015 L141.549653,97.0076786 L140.797834,96.3620614 L139.304128,97.7396329 Z M144.276527,95.8585563 L145.763356,94.1287605 L144.980211,93.4548736 L144.227628,92.8092564 L142.733922,94.1860638 L143.485741,95.0020629 L144.276527,95.8585563 Z M145.103986,91.813707 L144.443852,92.5815713 L145.179627,93.2126717 L145.993334,93.9133001 L146.651176,93.3081772 L147.49086,92.5334365 L146.681737,91.6570779 L145.935266,90.8464271 L145.103986,91.813707 Z M154.569729,85.2031975 L156.057322,83.4734017 L155.271885,82.7972227 L154.517774,82.1500774 L153.024831,83.5268848 L153.777415,84.344412 L154.569729,85.2031975 Z M147.707849,92.3065154 L149.194678,90.5767196 L148.410769,89.9020686 L147.658186,89.2556874 L146.16448,90.6332588 L147.707849,92.3065154 Z M148.543713,88.2509694 L147.875174,89.0295303 L148.610185,89.6598667 L149.423892,90.3604951 L150.090902,89.7454396 L150.920654,88.9798674 L150.112295,88.105037 L149.366588,87.2951502 L148.543713,88.2509694 Z M151.139171,88.7544744 L152.626,87.0246786 L151.841327,86.3500277 L151.08798,85.7028824 L149.594273,87.0796898 L150.346857,87.897217 L151.139171,88.7544744 Z M151.984203,84.6889959 L151.306496,85.4782534 L152.040743,86.1078257 L152.852922,86.8076901 L153.531393,86.182702 L154.350448,85.4270624 L153.542853,84.552232 L152.79791,83.7431093 L151.984203,84.6889959 Z M155.42393,81.1262583 L154.737818,81.9262124 L155.471301,82.5557848 L156.283479,83.2548851 L156.971119,82.6207285 L157.781006,81.8734934 L156.973411,81.000191 L156.229232,80.1910683 L155.42393,81.1262583 Z M159.48788,79.9213608 L158.702443,79.2451817 L157.947567,78.5965083 L156.454625,79.9740798 L157.208737,80.792371 L158.001051,81.6511566 L159.48788,79.9213608 Z M161.2108,78.3206884 L160.403969,77.447386 L159.65979,76.6390274 L158.86442,77.5642848 L158.16914,78.3741715 L158.901859,79.0029798 L159.713273,79.7020801 L160.41161,79.0579909 L161.2108,78.3206884 Z M139.819858,98.7626879 L139.07415,97.9520371 L139.065746,97.9589135 L138.223005,98.938418 L137.581208,99.6864172 L138.317747,100.318282 L139.132982,101.019674 L139.770959,100.432888 L140.629744,99.6390465 L139.819858,98.7626879 Z M138.901477,101.233606 L138.118331,100.560484 L137.367276,99.9156304 L135.87357,101.292438 L136.624625,102.107673 L137.413883,102.962638 L138.896892,101.237427 L138.901477,101.233606 Z M136.3893,102.315493 L135.643593,101.504842 L135.62602,101.520887 L134.783279,102.501156 L134.149886,103.238458 L134.887189,103.871087 L135.703188,104.573243 L136.330468,103.994862 L137.19995,103.192616 L136.3893,102.315493 Z M135.470919,104.787176 L134.687773,104.113289 L133.937482,103.468435 L132.443776,104.846007 L133.193303,105.660478 L133.982561,106.514679 L135.456402,104.800164 L135.470919,104.787176 Z M132.958742,105.867534 L132.213035,105.058411 L132.185529,105.083625 L131.342788,106.063129 L130.718564,106.790499 L131.456631,107.423128 L132.27263,108.126048 L132.889978,107.557599 L133.769392,106.746185 L132.958742,105.867534 Z M132.041125,108.339981 L131.257215,107.66533 L130.506924,107.02124 L129.013218,108.398812 L129.762745,109.212519 L130.551239,110.06672 L132.016675,108.362138 L132.041125,108.339981 Z M129.528184,109.420339 L128.783241,108.611216 L128.745803,108.646362 L127.903062,109.625867 L127.287242,110.34254 L128.025309,110.975933 L128.842836,111.679617 L129.450251,111.119573 L130.339598,110.29899 L129.528184,109.420339 Z M128.610567,111.89355 L127.825893,111.218135 L127.07713,110.574809 L125.583424,111.952381 L126.332187,112.765324 L127.119917,113.618761 L128.576185,111.924875 L128.610567,111.89355 Z M126.096862,112.973144 L125.352683,112.164785 L125.305312,112.208336 L124.462571,113.18784 L123.85592,113.894581 L124.594751,114.528738 L125.412278,115.232422 L126.009761,114.68231 L126.909041,113.852559 L126.096862,112.973144 Z M125.180773,115.446355 L124.395336,114.77094 L123.646572,114.127614 L122.152866,115.50595 L123.688595,117.171566 L125.136458,115.487613 L125.180773,115.446355 Z M120.223655,117.199836 L120.780643,116.551162 L121.639428,115.553321 L121.689091,115.506714 L120.155655,114.188738 L119.225049,115.049052 L118.661949,115.567074 L120.148014,117.179207 C120.173228,117.186083 120.198441,117.192959 120.223655,117.199836 Z M120.364239,113.954941 L121.921361,115.293546 L123.417359,113.913682 L121.861001,112.225909 L121.809046,112.274044 L120.364239,113.954941 Z M138.110691,91.9451225 L137.460489,92.7030543 L138.186331,93.3249862 L139.011499,94.0355472 L139.65788,93.4395928 L140.506733,92.6556835 L139.688442,91.7693924 L138.951139,90.9686742 L138.110691,91.9451225 Z M135.750559,94.3090749 L136.492446,95.1143774 L137.2924,95.9808034 L138.779994,94.2494795 L137.986916,93.5671881 L137.245793,92.9307394 L135.750559,94.3090749 Z M154.448246,78.2205986 L155.935839,76.4900388 L155.139705,75.8046912 L154.395527,75.1659504 L152.901056,76.5435219 L153.645999,77.3518805 L154.448246,78.2205986 Z M140.722958,92.4287624 L142.211315,90.6974385 L141.417474,90.0151472 L140.675587,89.3779344 L139.181117,90.7562699 L139.923768,91.5623364 L140.722958,92.4287624 Z M141.551181,88.383149 L140.891811,89.1502493 L141.616889,89.7729452 L142.441293,90.4819781 L143.098371,89.8768552 L143.937291,89.1028785 L143.119,88.2173514 L142.382461,87.4166332 L141.551181,88.383149 Z M151.016924,81.7726396 L152.504517,80.0413157 L151.709148,79.3574962 L150.965733,78.7187554 L149.471262,80.0963269 L150.215441,80.9046855 L151.016924,81.7726396 Z M147.585602,85.3246805 L149.073195,83.5933566 L148.27859,82.9095372 L147.535939,82.2715604 L146.041468,83.6498959 L146.784883,84.4567265 L147.585602,85.3246805 Z M144.15428,88.8767215 L145.642637,87.1453976 L144.106145,85.8243654 L142.610911,87.2027009 L143.354325,88.0095314 L144.15428,88.8767215 Z M144.990908,84.8204114 L144.323133,85.5982083 L145.047447,86.2201402 L145.871087,86.9291731 L146.538097,86.3148817 L147.367085,85.5493095 L146.549558,84.6645464 L145.813783,83.8645923 L144.990908,84.8204114 Z M148.431398,81.2584379 L147.754455,82.0469314 L148.478005,82.6680992 L149.300881,83.3763681 L149.978588,82.7521441 L150.796879,81.9965045 L149.980116,81.1125055 L149.244341,80.3125513 L148.431398,81.2584379 Z M151.871889,77.6957003 L151.185777,78.4941264 L151.908563,79.1152943 L152.731439,79.8235631 L153.419078,79.1901706 L154.227437,78.4436995 L153.410674,77.5597005 L152.675663,76.7612744 L151.871889,77.6957003 Z M155.311615,74.1337268 L154.617099,74.9428495 L155.339121,75.5632533 L156.161232,76.2707581 L156.858805,75.627433 L157.657231,74.8908945 L156.841232,74.0068955 L156.106985,73.2092335 L155.311615,74.1337268 Z M157.076557,73.7998396 L157.878804,74.6693217 L159.367161,72.9379978 L158.570263,72.2526503 L157.826084,71.6123813 L156.331614,72.9907169 L157.076557,73.7998396 Z M135.349436,97.8022845 L134.556358,97.1199931 L133.815235,96.4843084 L132.320765,97.862644 L133.061888,98.6671824 L133.860314,99.5328443 L135.344087,97.8068688 L135.349436,97.8022845 Z M132.826562,98.8750024 L132.090023,98.0750482 L132.073215,98.0903291 L131.230474,99.0698336 L130.597845,99.8071362 L131.324451,100.430596 L132.150383,101.141921 L132.777663,100.564304 L133.646381,99.7620576 L132.826562,98.8750024 Z M121.628732,112.015033 L120.833362,111.330449 L120.094531,110.697057 L118.600061,112.075392 L119.338892,112.877638 L120.13579,113.741008 L121.583653,112.056291 L121.628732,112.015033 Z M120.909766,109.757282 L120.303879,110.463259 L121.032777,111.088247 L121.860237,111.8011 L122.456956,111.251753 L123.356236,110.422001 L122.534888,109.532653 L121.799878,108.734227 L121.752507,108.777778 L120.909766,109.757282 Z M125.058526,108.461464 L123.525089,107.143487 L122.029855,108.522587 L122.76945,109.325597 L123.567112,110.188967 L125.02338,108.494317 L125.058526,108.461464 Z M124.350257,106.195309 L123.735201,106.911218 L124.463335,107.536206 L125.290795,108.248295 L125.897446,107.689015 L126.786029,106.868432 L125.965446,105.980612 L125.229672,105.181422 L125.192998,105.21504 L124.350257,106.195309 Z M128.489084,104.908659 L127.694478,104.225603 L126.954883,103.590682 L125.460413,104.969018 L126.200772,105.772792 L126.998434,106.636926 L128.46387,104.93158 L128.489084,104.908659 Z M127.790747,102.632571 L127.166523,103.359177 L127.893893,103.983401 L128.720589,104.694726 L129.337937,104.126277 L130.216587,103.315627 L129.396004,102.427807 L128.66023,101.627853 L128.633488,101.653067 L127.790747,102.632571 Z M131.918878,101.355854 L131.125036,100.672798 L130.385441,100.037113 L128.890207,101.415449 L129.63133,102.219987 L130.428992,103.084885 L131.903597,101.369606 L131.918878,101.355854 Z M137.520849,96.1947357 L139.071858,97.5279927 L140.568621,96.147365 L139.012263,94.4603557 L139.009971,94.4626478 L137.520849,96.1947357 Z M135.812446,97.8015204 L137.352759,99.4717208 L137.980803,98.7390025 L138.840353,97.741161 L137.306152,96.4231849 L136.425974,97.2368919 L135.812446,97.8015204 Z M140.952171,92.6426948 L142.502416,93.9744236 L143.998415,92.59456 L142.443585,90.9075507 L140.952171,92.6426948 Z M139.243004,94.2479514 L140.784081,95.9196799 L141.421294,95.177029 L142.271675,94.18912 L140.73671,92.8703799 L139.8657,93.6741543 L139.243004,94.2479514 Z M144.215403,92.3676389 L144.861784,91.6142914 L145.702997,90.6370791 L144.167268,89.3168109 L143.306191,90.1121808 L142.672798,90.6943824 L144.215403,92.3676389 Z M144.383493,89.0906538 L145.93221,90.4216186 L147.428973,89.040991 L145.874907,87.3555097 L144.383493,89.0906538 Z M151.078047,85.263557 L151.742001,84.4895803 L152.564877,83.5329972 L151.026856,82.2112009 L150.186408,82.9874697 L149.53315,83.5887724 L151.078047,85.263557 Z M147.646725,88.815598 L148.301511,88.0515539 L149.133555,87.0850381 L147.597062,85.7640059 L146.745917,86.5494432 L146.103356,87.1415774 L147.646725,88.815598 Z M147.814815,85.5386129 L149.362004,86.8688136 L150.858766,85.488186 L149.305465,83.8042328 L147.814815,85.5386129 Z M151.246137,81.9865719 L152.791798,83.3152446 L154.289324,81.9346169 L152.736787,80.2521919 L151.246137,81.9865719 Z M155.181728,80.9268428 L155.996199,79.9809562 L154.45665,78.6576318 L153.626134,79.4247321 L152.962944,80.0359674 L154.508605,81.7115161 L155.181728,80.9268428 Z M157.719118,78.3818119 L156.168109,76.7001509 L154.677459,78.434531 L156.222356,79.7624396 L157.719118,78.3818119 Z M158.622218,77.3648693 L159.427521,76.4289152 L157.886444,75.1048268 L157.066625,75.8627586 L156.392738,76.4823983 L157.939927,78.1602391 L158.622218,77.3648693 Z M161.148912,74.8290069 L159.599431,73.1481099 L158.108017,74.88249 L159.65215,76.2096346 L161.148912,74.8290069 Z M135.582469,98.0131607 L135.56948,98.0246213 L134.089527,99.7467767 L135.6413,101.080798 L137.138063,99.700934 L135.582469,98.0131607 Z M135.409795,101.29473 L133.876359,99.976754 L132.985483,100.799629 L132.382652,101.354325 L133.921437,103.023762 L134.541077,102.30174 L135.400627,101.303134 L135.409795,101.29473 Z M132.151911,101.56673 L132.129754,101.587359 L130.658205,103.298818 L132.211507,104.633603 L133.708269,103.253739 L132.151911,101.56673 Z M131.980001,104.847535 L130.445801,103.529559 L129.544993,104.361603 L128.952094,104.907894 L130.490115,106.575803 L131.100586,105.863714 L131.960136,104.865872 L131.980001,104.847535 Z M128.722117,105.119535 L128.689263,105.149332 L127.226883,106.850859 L128.781713,108.187172 L130.277711,106.807308 L128.722117,105.119535 Z M128.549443,108.401104 L127.016007,107.082364 L126.105266,107.924341 L125.521536,108.460699 L127.058793,110.127844 L127.66086,109.426451 L128.519645,108.427846 L128.549443,108.401104 Z M125.291559,108.673104 L125.249537,108.71207 L123.795561,110.4029 L125.351155,111.740741 L126.847153,110.360113 L125.291559,108.673104 Z M125.119649,111.953909 L123.586213,110.635933 L122.664776,111.486314 L122.091743,112.014269 L123.627471,113.679885 L124.220369,112.988425 L125.079919,111.990583 L125.119649,111.953909 Z M119.925678,113.97557 L119.10433,113.085458 L118.36932,112.287796 L118.312781,112.339751 L116.872557,114.0153 L117.601456,114.641052 L118.430443,115.354669 L119.017229,114.813726 L119.925678,113.97557 Z M134.670964,95.5078601 L134.029167,96.2550952 L134.755773,96.8777911 L135.580941,97.5883521 L136.218154,97.0015663 L137.076939,96.2092526 L136.257884,95.3221974 L135.520581,94.5214792 L135.513705,94.5283556 L134.670964,95.5078601 Z M158.752106,70.5709892 L158.047657,71.3908085 L158.770443,72.0104483 L159.591026,72.7171891 L160.321452,72.0448303 C159.960824,71.3793479 159.565813,70.7383149 159.137948,70.1217313 L158.752106,70.5709892 Z M162.81682,79.7204172 L161.438485,78.5361488 L160.61943,79.2933165 L159.946307,79.9129563 L161.493496,81.590033 L162.175023,80.7954272 L162.850438,80.0107539 C162.838214,79.9144844 162.830573,79.8166867 162.81682,79.7204172 Z M162.73736,79.2390694 C162.640326,78.6415869 162.526484,78.0494528 162.387428,77.4687792 L161.660058,78.313812 L162.73736,79.2390694 Z M162.899337,80.4340343 L162.417225,80.9948427 L161.721181,81.8054935 L162.464596,82.4434703 L163.051382,82.9492675 C163.042213,82.0996504 162.991022,81.26073 162.899337,80.4340343 Z M136.414513,116.041545 L135.889615,115.471568 L135.850648,115.507478 L135.059863,116.426623 C135.516761,116.304376 135.967547,116.175253 136.414513,116.041545 Z M152.68254,106.508567 C153.053101,106.124253 153.41373,105.736118 153.765954,105.3434 L153.163887,104.689378 L152.321147,105.668118 L151.669417,106.428342 L152.260023,106.934903 C152.401371,106.793555 152.543484,106.652971 152.68254,106.508567 Z M154.883751,103.103222 L153.393865,104.476974 L153.973774,105.106546 C154.444425,104.574007 154.894447,104.033064 155.330716,103.486772 L154.883751,103.103222 Z M155.525548,103.24075 C155.993143,102.647088 156.446985,102.048077 156.872557,101.439134 L156.595209,101.137337 L155.761637,102.106145 L155.100739,102.876301 L155.525548,103.24075 Z M151.453957,106.656027 L149.964071,108.029779 L150.478272,108.588295 C151.011575,108.12834 151.531889,107.652341 152.037686,107.15724 L151.453957,106.656027 Z M149.73333,108.242183 L149.724161,108.251351 L148.88142,109.230856 L148.238095,109.980383 L148.475713,110.184383 C149.079308,109.739709 149.66915,109.277463 150.240655,108.793823 L149.73333,108.242183 Z M148.023399,110.208832 L146.780299,111.355663 C147.267759,111.040112 147.746815,110.713101 148.216702,110.37463 L148.023399,110.208832 Z M145.673199,112.043302 L146.058277,111.595572 L146.065918,111.588696 L144.532481,110.269956 L143.643134,111.091303 L143.041831,111.645235 L144.184077,112.883751 C144.68911,112.614043 145.185739,112.333639 145.673199,112.043302 Z M144.74565,110.040743 L146.298187,111.374764 L147.798006,109.991844 L146.241648,108.30407 L146.227895,108.317059 L144.74565,110.040743 Z M155.039616,99.3846198 L156.588333,100.715585 L158.088916,99.3319008 L156.534086,97.6456555 L155.039616,99.3846198 Z M153.332741,100.985292 L154.875346,102.657785 L155.519435,101.906729 L156.35912,100.931045 L154.822627,99.6107768 L153.963842,100.404619 L153.332741,100.985292 Z M153.102764,101.197696 L151.608294,102.936661 L153.158539,104.26839 L154.658358,102.884706 L153.102764,101.197696 Z M149.902183,104.538861 L151.44326,106.209826 L152.079709,105.468703 L152.927798,104.483086 L151.392833,103.163582 L150.523351,103.966592 L149.902183,104.538861 Z M149.672206,104.750501 L149.667622,104.754322 L148.176972,106.488702 L149.727981,107.821195 L151.228564,106.438275 L149.672206,104.750501 Z M146.472389,108.091666 L148.012702,109.761867 L148.639218,109.03144 L149.496476,108.035127 L147.963039,106.717151 L147.083625,107.52933 L146.472389,108.091666 Z M155.649323,95.1128493 L154.98002,95.8921743 L155.734896,96.5408477 L156.52721,97.2231391 L157.196512,96.6065555 L158.027028,95.8402193 L157.237006,94.9852539 L156.472962,94.1555021 L155.649323,95.1128493 Z M153.270854,97.4936107 L154.041774,98.330239 L154.814223,99.1668672 L156.29876,97.4393636 L154.762268,96.1183313 L153.270854,97.4936107 Z M159.730082,93.8873226 L158.966038,93.2302447 L158.192062,92.5655263 L156.700648,93.9408057 L157.472332,94.777434 L158.245545,95.6148263 L159.730082,93.8873226 Z M161.456822,92.2874143 L160.667564,91.432449 L159.904284,90.6034611 L159.089049,91.5501117 L158.410578,92.3408974 L159.165454,92.9880427 L159.957003,93.6703341 L160.636239,93.044582 L161.456822,92.2874143 Z M153.806449,98.5372949 L153.04164,97.706779 L152.208832,98.6748228 L151.547934,99.4449793 L152.304338,100.092889 L153.097416,100.775944 L153.756022,100.169293 L154.597234,99.3930243 L153.806449,98.5372949 Z M149.84106,101.046416 L150.610452,101.88228 L151.382901,102.718908 L152.867438,100.991405 L152.104922,100.335091 L151.33171,99.6711363 L149.84106,101.046416 Z M150.375891,102.0901 L149.610318,101.25882 L148.116612,102.99702 L148.87378,103.645694 L149.667622,104.329513 L150.316295,103.731267 L151.166676,102.946593 L150.375891,102.0901 Z M146.410502,104.599985 L147.179894,105.435085 L147.951579,106.270949 L149.436116,104.543445 L148.674364,103.887896 L147.901916,103.224705 L146.410502,104.599985 Z M146.944569,105.642905 L146.180525,104.812389 L146.171356,104.820029 L145.328615,105.800298 L144.68529,106.549061 L145.442458,107.198499 L146.237064,107.882318 L146.875805,107.294004 L147.736118,106.499398 L146.944569,105.642905 Z M146.005558,108.09625 L144.471358,106.77751 L142.979944,108.15279 L143.749336,108.98789 L144.520257,109.82299 L146.001738,108.099307 L146.005558,108.09625 Z M143.514011,109.19571 L142.749967,108.365194 L142.73163,108.382767 L141.888125,109.362272 L141.253968,110.101102 L142.0119,110.751304 L142.80727,111.435887 L143.435314,110.856742 L144.306324,110.052967 L143.514011,109.19571 Z M142.575,111.649055 L141.812484,110.993506 L141.041564,110.331079 L139.55015,111.706359 L140.318778,112.540695 L141.088935,113.375031 L142.562012,111.66128 L142.575,111.649055 Z M140.083453,112.748515 L139.320173,111.918763 L139.291139,111.944741 L137.822646,113.653143 L138.581342,114.304109 L139.376712,114.988692 L139.995588,114.418715 L140.875766,113.606536 L140.083453,112.748515 Z M139.088667,115.15449 L138.381927,114.545547 L137.611006,113.883884 L136.119592,115.259164 L136.7484,115.942219 C137.545298,115.697725 138.324623,115.434894 139.088667,115.15449 Z M134.528088,116.564915 L134.765706,116.287567 L135.625255,115.289726 L135.653525,115.263748 L134.120089,113.945008 L133.210112,114.785456 L132.628675,115.321051 L133.917617,116.719252 C134.121617,116.668825 134.325616,116.617634 134.528088,116.564915 Z M134.330965,113.713503 L135.885795,115.049816 L137.384085,113.66766 L135.828491,111.979887 L135.794873,112.011212 L134.330965,113.713503 Z M139.084083,111.710179 L137.550647,110.392203 L136.650603,111.223483 L136.058468,111.768246 L137.596489,113.436155 L138.206196,112.725594 L139.065746,111.726988 L139.084083,111.710179 Z M137.762287,110.161462 L139.315588,111.497011 L140.814643,110.114091 L139.258285,108.427082 L139.2346,108.448475 L137.762287,110.161462 Z M142.513877,108.157374 L140.98044,106.838634 L140.091093,107.660745 L139.489026,108.214677 L141.027811,109.884114 L141.646687,109.162856 L142.505472,108.165014 L142.513877,108.157374 Z M141.193609,106.609421 L142.745382,107.943442 L144.244437,106.561286 L142.688843,104.873513 L142.67509,104.886501 L141.193609,106.609421 Z M144.459133,106.332073 L145.086413,105.600882 L145.944435,104.603805 L144.410998,103.285829 L143.53082,104.098008 L142.91882,104.661872 L144.459133,106.332073 Z M144.624931,103.05738 L146.17594,104.389873 L147.674995,103.007717 L146.118637,101.320708 L146.114817,101.323764 L144.624931,103.05738 Z M151.487575,95.9532978 L153.036292,97.2842626 L154.535347,95.9013428 L152.981281,94.2158616 L151.487575,95.9532978 Z M149.779172,97.5554983 L151.321777,99.2279908 L151.96663,98.4754073 L152.807079,97.499723 L151.270586,96.1794549 L150.411037,96.9732967 L149.779172,97.5554983 Z M154.753099,95.6759498 L155.407121,94.9134338 L156.238401,93.9476821 L154.701144,92.6266499 L153.851527,93.4113231 L153.20973,94.0019292 L154.753099,95.6759498 Z M154.918897,92.4012569 L156.466086,93.7306936 L157.96514,92.3485378 L156.411839,90.6645846 L154.918897,92.4012569 Z M158.846847,91.3506962 L159.669723,90.3956411 L158.130938,89.0738449 L157.291254,89.8485856 L156.639524,90.4491242 L158.183657,92.1239088 L158.846847,91.3506962 Z M161.395698,88.7957328 L159.843161,87.1125437 L158.350219,88.8492159 L159.89588,90.1778886 L161.395698,88.7957328 Z M149.549959,97.7679025 L148.057017,99.5053388 L149.605734,100.837068 L151.105553,99.4549118 L149.549959,97.7679025 Z M146.349378,101.108303 L147.890455,102.780032 L148.526904,102.038145 L149.375757,101.051764 L147.840792,99.7322599 L146.97131,100.536034 L146.349378,101.108303 Z M163.048326,83.8233339 L161.781541,85.2971749 L162.887112,86.2476458 C162.942888,85.7563654 162.986438,85.2650851 163.015472,84.7738047 C163.034573,84.4559624 163.040685,84.1396482 163.048326,83.8233339 Z M162.836686,86.6166791 L161.560732,85.5202758 L160.731744,86.286612 L160.069318,86.8963192 L161.614979,88.5718679 L162.287338,87.7887227 L162.748821,87.2523638 C162.78091,87.0407235 162.809944,86.8290833 162.836686,86.6166791 Z M162.379023,89.249575 C162.483697,88.7804519 162.576147,88.3098008 162.657135,87.8399137 L162.52954,87.9881382 L161.8419,88.7888564 L162.379023,89.249575 Z M159.964644,94.0943785 L158.470938,95.8325788 L159.630757,96.8296564 C159.974576,96.1496571 160.300059,95.4658377 160.593452,94.7759059 L159.964644,94.0943785 Z M159.486352,97.117701 L158.253185,96.0579718 L157.404332,96.8418811 L156.762535,97.4324872 L158.305904,99.1057437 L158.562623,98.8070025 C158.889634,98.2484862 159.193723,97.6846217 159.486352,97.117701 Z M157.837545,99.9889787 L156.824423,100.923405 L157.052872,101.171719 C157.321815,100.779764 157.585411,100.386282 157.837545,99.9889787 Z M143.898325,113.035795 L142.811854,111.856875 L142.787405,111.879033 L141.314328,113.592784 L141.83235,114.038221 C142.536034,113.721907 143.225202,113.38802 143.898325,113.035795 Z M141.101923,113.823525 L140.203408,114.654041 L140.059003,114.78622 C140.551812,114.592153 141.03698,114.388918 141.515271,114.178805 L141.101923,113.823525 Z M133.568449,116.802533 L132.397933,115.533456 L132.354383,115.573186 L130.899643,117.265544 L130.99744,117.349588 C131.869979,117.184555 132.727236,117.001948 133.568449,116.802533 Z M130.46261,117.282352 L129.659599,116.413634 L128.906252,115.594579 L128.858117,115.638894 L127.407961,117.325903 L128.007736,117.840869 C128.761847,117.734667 129.506026,117.618532 130.237981,117.489408 L130.46261,117.282352 Z M126.740187,117.982217 C126.999198,117.9677 127.2414,117.945543 127.462973,117.916509 C127.506523,117.911161 127.550074,117.904284 127.593624,117.898172 L127.199377,117.558936 L126.740187,117.982217 Z M118.431207,115.779478 L118.368556,115.836781 L117.860466,116.428151 C118.428151,116.64896 119.00042,116.843791 119.570397,117.014173 L118.431207,115.779478 Z M118.143163,115.619029 L118.198174,115.567838 L117.402804,114.883254 L116.664737,114.249862 L115.496514,115.327164 C116.16276,115.696197 116.852692,116.02168 117.552557,116.305904 L118.143163,115.619029 Z M115.209998,115.165186 L116.433996,114.036693 L114.877638,112.34892 L114.815751,112.406223 L113.455752,113.988558 C114.011976,114.420243 114.599526,114.812198 115.209998,115.165186 Z M113.208966,113.795255 L114.590358,112.187707 L114.646133,112.136516 L113.840066,111.442764 L113.112697,110.81854 L111.584608,112.227437 C111.832923,112.511661 112.091934,112.785189 112.363169,113.047256 C112.633641,113.308559 112.916337,113.557638 113.208966,113.795255 Z M111.383665,111.987527 L112.880427,110.606135 L111.324833,108.919126 L111.26371,108.974901 L110.146677,110.27454 C110.521059,110.872787 110.932879,111.446584 111.383665,111.987527 Z M111.037553,108.757149 L111.094092,108.705194 L110.277329,108.003037 L109.560656,107.387218 L108.924971,107.974003 C109.233645,108.663171 109.582813,109.340878 109.974767,109.994136 L111.037553,108.757149 Z M108.791263,107.670678 L109.327622,107.176341 L108.099803,105.845377 C108.301511,106.45432 108.531488,107.065555 108.791263,107.670678 Z M107.030142,97.5409814 L107.652073,98.0765763 L108.2465,97.5287567 L109.143487,96.701297 L108.284702,95.7722194 L107.58713,95.0135236 L107.542815,95.054782 L107.299849,95.3374783 C107.198231,96.0617921 107.108838,96.7968025 107.030142,97.5409814 Z M107.59095,94.5841308 L109.0816,93.2096155 L107.885107,91.9115046 C107.717017,92.7427846 107.565736,93.5870533 107.432029,94.4473669 L107.59095,94.5841308 Z M107.961511,91.5325387 L109.29324,92.9773461 L109.897599,92.2728974 L110.757149,91.2750559 L110.790002,91.2444941 L109.255802,89.9265181 L108.342769,90.7707868 L108.073062,91.0183371 C108.035624,91.1894829 107.997421,91.3606288 107.961511,91.5325387 Z M110.668519,84.2611312 L110.238363,83.8913338 C110.035891,84.397131 109.842588,84.9090406 109.657689,85.4293546 L109.786049,85.2796019 L110.644834,84.2817604 L110.668519,84.2611312 Z M110.900025,84.0471988 L112.389147,82.6734476 L111.294272,81.486123 C110.964969,82.1714706 110.655531,82.871335 110.362902,83.5849522 L110.900025,84.0471988 Z M114.03719,77.2151166 L113.835482,77.0416786 C113.493955,77.5490039 113.166944,78.0662617 112.850629,78.5934521 L114.028785,77.2227571 L114.03719,77.2151166 Z M114.269459,77.0011843 L114.902852,76.4182186 L115.758581,75.6289611 L115.258132,75.0872538 C114.825683,75.6388937 114.412335,76.2042863 114.015033,76.7826677 L114.269459,77.0011843 Z M140.552576,61.3413367 L141.089699,61.8020553 L141.953069,62.5454702 L142.648349,61.9044372 L143.191584,61.4032243 C142.322866,61.3375165 141.442687,61.3161232 140.552576,61.3413367 Z M155.817413,66.4222299 L155.199301,67.1404313 L154.495616,67.9594866 L155.207705,68.5699578 L156.038985,69.2858671 L156.74649,68.6341375 L157.442534,67.9915764 C157.187344,67.7142284 156.924512,67.4445208 156.654041,67.1824537 C156.382805,66.9211507 156.103165,66.667488 155.817413,66.4222299 Z M102.892843,112.921953 C102.164709,115.706894 101.474777,117.438217 100.892575,119.056463 C100.311138,120.673944 99.620442,122.405268 98.494241,124.587378 C97.3779726,126.750387 96.9325349,127.220274 97.834871,128.092048 C98.737207,128.963058 99.1910492,128.501576 101.314328,127.310431 C103.455179,126.10859 105.16129,125.358298 106.758142,124.720322 C108.354994,124.082345 110.06034,123.332054 112.81854,122.50765 C115.576739,121.683246 117.500602,121.653449 117.436422,120.209405 C117.376827,118.888373 116.482895,118.562126 114.506313,117.524554 C113.162359,116.820106 111.853552,115.907837 110.687621,114.7824 C109.522453,113.656199 108.565106,112.380246 107.813287,111.06227 C106.707715,109.122362 106.350906,108.239891 105.028346,108.227593 C103.582775,108.213913 103.620213,110.137012 102.892843,112.921953 L102.892843,112.921953 Z" id="Fill-9" fill="#D8232A"></path>
            <path d="M23.8563024,131.219281 C21.2241705,132.002426 18.528623,132.665616 17.1464673,135.215231 C16.3404007,136.705117 16.2731649,138.533475 16.8355013,140.425248 L18.7349149,146.8096 L36.9214563,141.400168 L35.0220427,135.015052 C34.4589422,133.124043 33.4037973,131.629572 31.9139113,130.822742 C29.3627681,129.442114 26.4876702,130.4369 23.8563024,131.219281 Z M24.6761217,133.975188 C27.1798942,133.230245 29.1549481,132.670964 30.4843848,133.305121 C31.5555747,133.820851 32.2424503,134.729299 32.6305847,136.032758 L33.6261341,139.3808 L20.3898344,143.317919 L19.394285,139.969878 C19.0061506,138.666418 19.0856111,137.530285 19.7006666,136.512578 C20.4670028,135.254962 22.1715852,134.720131 24.6761217,133.975188 Z M31.8986305,113.657727 L29.3268581,113.886177 L30.1451493,123.09902 L24.4606613,123.603289 L23.762325,115.745096 L21.2172941,115.971253 L21.9148664,123.829446 L16.3892996,124.319963 L15.5717724,115.107883 L13,115.336332 L14.0719539,127.412813 L32.9713483,125.734208 L31.8986305,113.657727 Z M26.9369282,97.5952285 L14.4058411,96.4827804 L14.1521785,99.3464176 L26.5503219,100.447405 C29.0724314,100.67127 30.4996657,102.37738 30.2895536,104.741333 C30.0794415,107.105285 28.3763872,108.506542 25.8542777,108.282677 L13.4561343,107.18169 L13.2017076,110.045327 L25.7327947,111.158539 C29.6355319,111.504651 32.5190342,108.820564 32.861326,104.969782 C33.2036177,101.118236 30.8396653,97.9421046 26.9369282,97.5952285 Z M21.5297882,79.8403721 L19.0374764,79.1657212 L15.5572556,92.0261112 L18.0495674,92.7007621 L19.4141501,87.6580712 L35.2367391,91.9397742 L35.9877944,89.1647661 L20.1652054,84.8830631 L21.5297882,79.8403721 Z M38.4319714,69.8145856 C36.9588944,69.1269459 35.512559,69.0100472 34.2526503,69.5670353 C33.2624491,69.9864955 32.4586748,70.6993487 31.4722939,72.1808301 L30.2689244,74.0023112 C29.776116,74.743434 29.1587684,75.3088266 28.5696904,75.5632533 C27.9447023,75.8306687 27.298321,75.7641969 26.6702768,75.471568 C25.149065,74.761007 24.508032,73.1083797 25.4554467,71.0783145 C26.1323897,69.6289229 27.0217371,68.5432162 28.5330163,67.9541383 L27.6673543,65.52295 C25.6059634,66.3527019 24.282639,67.6760262 23.2221458,69.9475293 C21.5534735,73.5224915 22.5895173,76.650488 25.5845701,78.0494528 C26.985827,78.7034745 28.2640727,78.8005081 29.4552175,78.3290929 C30.505014,77.9081046 31.5066758,77.0233415 32.3540007,75.7122419 L33.5917521,73.8174126 C34.2106279,72.8707619 34.5827173,72.5147174 35.1962447,72.2717514 C35.8212328,72.004336 36.5508949,72.0799763 37.2996581,72.4299085 C38.9668023,73.2077054 39.3236109,74.9634787 38.2745783,77.2105323 C37.4509388,78.9747101 36.4217714,80.1712032 34.5796611,80.8389777 L35.4835253,83.3771322 C37.9139495,82.5129983 39.3839704,80.9367754 40.59116,78.3512502 C42.272057,74.7510744 41.595878,71.2914828 38.4319714,69.8145856 Z M47.783871,56.5591848 L46.0724123,58.9063282 C47.3560063,60.4038546 47.6631521,62.2444368 46.4223445,63.9451989 C45.7629744,64.8498271 44.8216721,65.4167478 43.8475159,65.5305904 C42.4791129,65.6879835 41.4705748,65.2158043 38.390713,62.9695146 C35.3100873,60.723225 34.5529196,59.9064619 34.2839761,58.556396 C34.0952572,57.5937005 34.3473917,56.5240387 35.0067618,55.6194105 C36.2475694,53.9178844 38.0789831,53.6703341 39.8966439,54.4351422 L41.6241476,52.0666055 C38.1737245,50.3742479 34.9784922,51.277348 32.9209214,54.0981988 C31.7588104,55.6912307 31.3340019,57.4928466 31.6189903,59.3158558 C32.0277539,61.9204821 33.745325,63.1398965 36.6960633,65.2922087 C39.6468015,67.4445208 41.3330468,68.7067217 43.9384371,68.3002502 C45.7606823,68.0152618 47.3468378,67.0602067 48.5089489,65.4664107 C50.5351938,62.6891105 50.4649017,59.3059233 47.783871,56.5591848 Z M63.8723473,49.2335301 L50.9439574,35.3462648 L48.83978,37.3052738 L54.3607625,43.235784 L48.7205891,48.486295 L43.1996065,42.5557848 L41.0954291,44.5147938 L54.023055,58.4020591 L56.1272324,56.4430501 L50.4794186,50.37654 L56.119592,45.1260291 L61.7674059,51.1925391 L63.8723473,49.2335301 Z M77.0337707,41.0788876 L75.6661318,38.8883732 L67.8209272,43.7858957 L64.7983688,38.9449124 L71.4906309,34.7671194 L70.1375088,32.5995263 L63.4452467,36.7773194 L60.5082612,32.0715718 L68.3534659,27.1740492 L66.985827,24.9835348 L56.7017936,31.4037973 L66.7489733,47.49915 L77.0337707,41.0788876 Z M92.1794167,35.3424446 L85.1127729,29.0474853 C86.8968158,27.742498 87.8251294,25.5382309 86.8578496,22.9962562 C85.7117835,19.9805742 82.7488205,18.6289802 79.3847344,19.90799 L72.5098657,22.5217848 L79.2525548,40.2567761 L81.9396978,39.2352492 L79.0982179,31.7613699 L82.463068,30.4815961 L89.0430157,36.5343533 L92.1794167,35.3424446 Z M84.1798751,24.0422325 C84.8438294,25.7873092 84.0110213,27.274139 82.2162818,27.9564304 L78.2279717,29.4722939 L76.1146257,23.9131091 L80.1029358,22.3972456 C81.8976754,21.7149543 83.5166848,22.2979199 84.1798751,24.0422325 Z M107.083625,16.5744656 L106.726052,14.0172101 L93.5310106,15.8639046 L93.8893473,18.4211602 L99.0626898,17.6968464 L101.334193,33.9304911 L104.181785,33.5316601 L101.910282,17.2987794 L107.083625,16.5744656 Z M122.877944,33.217638 L122.910034,30.635933 L113.662808,30.5182702 L113.734628,24.8116249 L121.623384,24.9117147 L121.655473,22.3567513 L113.767482,22.2566615 L113.83701,16.7104655 L123.085,16.8273642 L123.117854,14.2456593 L110.994766,14.0920864 L110.754856,33.0640651 L122.877944,33.217638 Z M139.180353,36.8980383 L143.216033,18.3585086 L140.406643,17.7472733 L137.57204,30.7688767 L131.835597,15.8807136 L129.260004,15.3206693 L125.224323,33.859435 L128.033713,34.4714343 L130.873665,21.4269096 L136.60476,36.33723 L139.180353,36.8980383 Z M155.355166,44.5033331 L163.382213,27.3115772 L160.776823,26.095219 L155.138941,38.1701717 L152.828472,22.3842569 L150.440834,21.2687525 L142.413787,38.4612725 L145.019178,39.6776307 L150.666991,27.5812847 L152.966764,43.3885928 L155.355166,44.5033331 Z M160.046397,48.157756 L170.47789,32.3091895 L168.0765,30.7283823 L157.645006,46.5769488 L160.046397,48.157756 Z M174.872672,53.3670086 C175.922469,52.1246729 176.414513,50.7600902 176.206693,49.3977996 C176.061525,48.3319581 175.583997,47.3700266 174.412718,46.0298932 L172.969438,44.3910187 C172.38418,43.721716 171.999866,42.9775371 171.908945,42.3418524 C171.814968,41.6687296 172.047237,41.0628426 172.494967,40.5341241 C173.579909,39.2512941 175.342559,39.0663954 177.053254,40.5119668 C178.27496,41.5449544 179.089431,42.6879644 179.262105,44.3000974 L181.834642,44.10221 C181.574103,41.8948866 180.643497,40.272057 178.729567,38.6530476 C175.716177,36.1057246 172.426203,36.286039 170.291464,38.8104407 C169.293622,39.9908888 168.864229,41.1996065 169.00787,42.472504 C169.139285,43.5956488 169.730655,44.7944339 170.773576,45.9557809 L172.277978,47.6466105 C173.029798,48.4916433 173.27582,48.9439574 173.349932,49.6002712 C173.44391,50.2733941 173.17955,50.9572135 172.646248,51.5883139 C171.458159,52.993391 169.670296,52.8780204 167.776231,51.276584 C166.290165,50.0197314 165.405402,48.712452 165.243424,46.7603194 L162.557045,46.9673753 C162.754169,49.5391477 163.890302,51.3713254 166.068592,53.2134357 C169.102611,55.7790958 172.617978,56.0327584 174.872672,53.3670086 Z M200.074666,64.466277 L198.343342,61.9686169 L184.506504,66.2419155 L193.362539,54.7843104 L191.662541,52.3309648 L179.62197,68.2658682 L180.897924,70.1056864 L200.074666,64.466277 Z M189.653105,87.2057571 L191.992608,86.113174 L188.079938,77.7331385 L193.250988,75.3187592 L196.589097,82.4671557 L198.904151,81.3860333 L195.566806,74.2376368 L200.592688,71.8904934 L204.505358,80.271293 L206.844861,79.1787099 L201.715833,68.1932841 L184.524077,76.2203312 L189.653105,87.2057571 Z M193.436651,102.978683 L200.556778,96.7448475 C201.631024,98.6763509 203.703876,99.8697878 206.34594,99.2249346 C209.480813,98.4601264 211.187687,95.6866464 210.33425,92.1903807 L208.590702,85.0450404 L190.158138,89.5429679 L190.839665,92.3363131 L198.607702,90.4407197 L199.461139,93.9377495 L192.641281,99.7192711 L193.436651,102.978683 Z M205.638435,96.4377018 C203.825359,96.8800833 202.453135,95.870017 201.997765,94.0049854 L200.986935,89.8608103 L206.763872,88.4503849 L207.775467,92.5953241 C208.230837,94.4603557 207.452276,95.9953202 205.638435,96.4377018 Z M194.064695,117.021049 L196.641052,116.857544 L196.056558,107.627127 L201.751743,107.266499 L202.250664,115.139973 L204.801043,114.977996 L204.302122,107.104521 L209.838386,106.753825 L210.422879,115.984242 L213,115.820736 L212.2329,103.721334 L193.297595,104.921647 L194.064695,117.021049 Z M193.359483,121.760415 L212.294787,122.959964 L212.47663,120.090979 L193.541325,118.890665 L193.359483,121.760415 Z M190.174183,138.775677 L208.712949,142.811358 L209.324948,140.001967 L196.303345,137.167364 L211.190744,131.430921 L211.751552,128.856092 L193.212022,124.819647 L192.600787,127.629037 L205.644548,130.468989 L190.734227,136.200084 L190.174183,138.775677 L190.174183,138.775677 Z" id="Fill-10" fill="#777776"></path>
            <path d="M43.866617,182.360572 L59.9734304,168.74225 L58.5217466,167.025443 L51.3045862,173.127863 L44.8354249,165.477489 L52.0533494,159.375069 L50.6016656,157.658262 L34.4948523,171.277348 L35.946536,172.994155 L43.2996963,166.776364 L49.7688576,174.426738 L42.4156973,180.644528 L43.866617,182.360572 Z M57.4322197,193.605772 L63.4521231,185.753691 C65.3828625,183.236166 64.8824136,180.728573 61.7773385,178.347812 C59.8954979,176.905297 58.4315894,176.37887 56.3724906,176.925162 L56.7109621,178.865834 C58.1328482,178.424216 59.1559032,178.648081 60.6381487,179.784979 C62.7553149,181.407809 62.9532023,182.904571 61.6535633,184.599221 L60.8054744,185.704792 L57.3237255,183.035222 C54.7366722,181.051764 52.3207648,181.286326 50.7697553,183.309514 C50.0660707,184.227131 49.7031498,185.331939 49.8345654,186.327488 C49.9866101,187.636296 50.6933509,188.663171 52.2932592,189.889462 C53.8457968,191.079843 54.9269192,191.424426 56.587951,191.206674 L55.7421542,192.309954 L57.4322197,193.605772 Z M58.8785552,188.219262 C58.1389605,189.183485 57.4452085,189.698451 56.7568048,189.767979 C55.4861995,189.915439 54.5617061,189.317957 53.5737971,188.560789 C51.7385632,187.154184 51.4023838,185.887399 52.4307872,184.545738 C53.4591905,183.20484 54.8466946,183.148301 56.587951,184.483086 L59.8343743,186.971578 L58.8785552,188.219262 Z M73.1287414,202.669627 L77.4830287,194.415659 C78.2715222,192.921189 78.4892747,191.494719 78.043837,190.121731 C77.6725116,188.922182 76.7655913,187.90906 75.3757951,187.175577 C73.9340439,186.415353 72.3990793,186.274005 70.9298226,186.836342 L71.6747655,185.423624 L69.7913969,184.429603 L62.9898764,197.320555 L64.8740091,198.313812 L69.0624988,190.37463 C70.2521154,188.1207 72.133192,187.60497 74.0730999,188.628789 C76.0137719,189.651844 76.6372319,191.455752 75.4338624,193.736424 L71.2446087,201.675606 L73.1287414,202.669627 Z M90.3006322,208.507688 L92.9610338,199.563024 C93.4431456,197.944015 93.3782018,196.502263 92.6729891,195.242355 C92.0747426,194.138311 90.9875079,193.321548 89.481577,192.873818 C87.9191068,192.408515 86.3864344,192.569729 85.0547056,193.407885 L85.5100758,191.877505 L83.46855,191.27009 L79.3129143,205.239872 L81.3544401,205.846523 L83.9139877,197.242622 C84.6405937,194.799209 86.3849063,193.926671 88.4875556,194.552423 C90.590205,195.178175 91.5536645,196.825454 90.8186541,199.296373 L88.2591065,207.901037 L90.3006322,208.507688 Z M108.746949,203.859244 C109.002903,201.621359 108.941016,199.556148 107.642905,197.886711 C106.756614,196.773499 105.446278,195.968961 103.679044,195.766489 C101.912574,195.564781 100.454014,196.053006 99.3392738,196.937769 C97.6981071,198.271026 97.1724448,200.269001 96.91649,202.506886 C96.6605352,204.744771 96.7224228,206.810746 98.0197696,208.480183 C98.9060608,209.593395 100.216396,210.397933 101.98363,210.599641 C103.750864,210.802113 105.209424,210.313888 106.324165,209.429125 C107.964567,208.095868 108.490994,206.097129 108.746949,203.859244 Z M106.630546,203.617806 C106.445648,205.23758 106.152255,207.023151 104.970279,207.962161 C104.216167,208.561935 103.229786,208.836991 102.199091,208.719328 C101.167631,208.601666 100.298913,208.114205 99.6983745,207.360094 C98.7593643,206.178118 98.8472294,204.368861 99.0321281,202.749088 C99.2170267,201.129314 99.5402174,199.3468 100.722194,198.407789 C101.477069,197.808015 102.433652,197.529139 103.464348,197.646802 C104.495043,197.765228 105.394323,198.255745 105.994098,199.009856 C106.933108,200.191832 106.816209,201.998033 106.630546,203.617806 Z M122.999427,195.995702 L120.692778,196.142399 L117.441006,208.075239 L112.738315,196.646668 L110.43243,196.7926 L116.676198,211 L118.568735,210.880045 L122.999427,195.995702 Z M137.565163,201.084236 L137.357343,200.131473 C136.437434,195.902489 133.686876,193.715031 130.009531,194.514985 C126.391019,195.302714 124.750616,198.477317 125.753042,203.080683 C126.850209,208.120318 129.797891,209.840945 133.561572,209.021126 C135.993525,208.491643 137.161748,207.451015 138.294826,205.689894 L136.60476,204.753176 C135.721525,206.128455 134.873436,206.829083 133.223101,207.188184 C130.50234,207.781082 128.634252,206.305713 127.953489,203.176953 L137.565163,201.084236 Z M135.140852,199.978664 L127.613489,201.616775 C127.419422,200.445495 127.382748,199.998529 127.530972,199.14662 C127.79686,197.723206 128.887915,196.605409 130.393082,196.277635 C131.899012,195.94986 133.35528,196.51296 134.189617,197.697228 C134.678605,198.410082 134.83065,198.831834 135.140852,199.978664 Z M148.679713,189.764923 C147.328119,189.198766 146.217199,189.301148 144.928256,189.827574 C143.365022,190.466315 142.163181,191.756022 141.881248,193.180964 L141.210418,191.538269 L139.239184,192.344336 L144.750998,205.835826 L146.722996,205.030524 L143.339045,196.748286 C142.497832,194.689951 143.120528,192.610987 145.095582,191.804156 C146.137738,191.37782 146.787176,191.400741 147.83086,191.839302 L148.679713,189.764923 Z M169.362386,184.567131 L168.787061,183.778637 C166.237446,180.282372 162.83745,179.39226 159.797318,181.609516 C156.804558,183.791626 156.586041,187.358184 159.362577,191.164652 C162.401944,195.331748 165.793536,195.714534 168.905488,193.444559 C170.916452,191.978358 171.564361,190.55418 171.889844,188.485149 L169.965217,188.310947 C169.713082,189.926136 169.220274,190.909461 167.855691,191.90501 C165.605581,193.546177 163.301224,192.950987 161.414035,190.363933 L169.362386,184.567131 Z M166.698164,184.534277 L160.473497,189.074227 C159.822532,188.08097 159.608599,187.686723 159.400015,186.847802 C159.06842,185.437377 159.614712,183.974997 160.860104,183.066548 C162.104731,182.158864 163.664909,182.085516 164.905717,182.831987 C165.640727,183.286593 165.950929,183.611312 166.698164,184.534277 Z M179.848127,184.176704 L177.953298,182.141291 L175.91712,184.03612 L177.812714,186.072298 L179.848127,184.176704 Z M176.29685,156.517544 L174.76647,158.327565 L184.258954,173.532806 L167.687601,166.699196 L166.157221,168.509216 L186.740569,176.833477 L187.926365,175.430692 L176.29685,156.517544 Z M194.741638,165.964949 L192.41818,164.436097 L190.888564,166.759555 L193.212022,168.288408 L194.741638,165.964949 L194.741638,165.964949 Z" id="Fill-11" fill="#777776"></path>
        </g>
    </g>
</svg>