<?xml version="1.0" encoding="UTF-8" standalone="no"?>
<!DOCTYPE svg PUBLIC "-//W3C//DTD SVG 1.1//EN" "http://www.w3.org/Graphics/SVG/1.1/DTD/svg11.dtd">
<svg xmlns:svg="http://www.w3.org/2000/svg" xmlns="http://www.w3.org/2000/svg" version="1.0" width="800" height="800" id="svg2">
  <defs id="defs4"/>
  <g id="layer1">
    <rect width="556.83752" height="556.83752" x="286.35202" y="-279.49265" transform="matrix(0.7071068,0.7071068,-0.7071068,0.7071068,0,0)" id="rect2454" style="opacity:1;fill:#de251d;fill-opacity:1;fill-rule:nonzero;stroke:none;stroke-width:0.1;stroke-linecap:butt;stroke-linejoin:miter;stroke-miterlimit:4;stroke-dasharray:none;stroke-opacity:1"/>
    <rect width="261.30954" height="261.30954" x="303.62381" y="-1.2364559" transform="matrix(0.7071068,0.7071068,-0.7071068,0.7071068,0,0)" id="rect3228" style="opacity:1;fill:#ffffff;fill-opacity:1;fill-rule:nonzero;stroke:none;stroke-width:0.1;stroke-linecap:butt;stroke-linejoin:miter;stroke-miterlimit:4;stroke-dasharray:none;stroke-opacity:1"/>
    <path d="M 174.1256,274.05654 L 309.17752,274.05654 L 309.17752,302.61766 L 260.59416,302.61766 L 260.59416,420.5918 L 222.80711,420.5918 L 222.80711,302.61766 L 174.1256,302.61766 L 174.1256,274.05654 z" transform="scale(0.8713735,1.1476135)" id="text2441" style="font-size:201.00750732px;font-style:normal;font-variant:normal;font-weight:bold;font-stretch:normal;text-align:start;line-height:100%;writing-mode:lr-tb;text-anchor:start;fill:#de251d;fill-opacity:1;stroke:none;stroke-width:1px;stroke-linecap:butt;stroke-linejoin:miter;stroke-opacity:1;font-family:DejaVu Sans;-inkscape-font-specification:DejaVu Sans Bold"/>
    <rect width="257.26892" height="257.26892" x="564.50378" y="-258.07581" transform="matrix(0.7071068,0.7071068,-0.7071068,0.7071068,0,0)" id="rect2456" style="opacity:1;fill:#ffffff;fill-opacity:1;fill-rule:nonzero;stroke:none;stroke-width:0.1;stroke-linecap:butt;stroke-linejoin:miter;stroke-miterlimit:4;stroke-dasharray:none;stroke-opacity:1"/>
    <path d="M 325.91246,116.95259 L 369.691,116.95259 L 400.06791,238.7287 L 430.62351,116.95259 L 474.31274,116.95259 L 474.31274,285.11842 L 441.79151,285.11842 L 441.79151,162.11973 L 411.05722,285.11842 L 389.25729,285.11842 L 358.523,162.11973 L 358.523,285.11842 L 325.91246,285.11842 L 325.91246,116.95259 z" id="text2437" style="font-size:26.55155945px;font-style:normal;font-variant:normal;font-weight:bold;font-stretch:normal;text-align:start;line-height:100%;writing-mode:lr-tb;text-anchor:start;fill:#ffffff;fill-opacity:1;stroke:none;stroke-width:1px;stroke-linecap:butt;stroke-linejoin:miter;stroke-opacity:1;font-family:DejaVu Sans;-inkscape-font-specification:DejaVu Sans Bold"/>
    <path d="M 590.45205,275.05705 L 628.57407,275.05705 L 667.58265,383.61124 L 706.49273,275.05705 L 744.61476,275.05705 L 690.14065,422.12729 L 644.92615,422.12729 L 590.45205,275.05705 z" transform="scale(0.8745547,1.1434391)" id="text2445" style="font-size:201.74136353px;font-style:normal;font-variant:normal;font-weight:bold;font-stretch:normal;text-align:start;line-height:100%;writing-mode:lr-tb;text-anchor:start;fill:#de251d;fill-opacity:1;stroke:none;stroke-width:1px;stroke-linecap:butt;stroke-linejoin:miter;stroke-opacity:1;font-family:DejaVu Sans;-inkscape-font-specification:DejaVu Sans Bold"/>
    <path d="M 299.16474,626.80774 L 313.07986,626.80774 L 313.07986,578.77949 L 297.9419,581.81552 L 297.9419,574.05679 L 312.99553,571.02076 L 321.51327,571.02076 L 321.51327,626.80774 L 335.42839,626.80774 L 335.42839,633.97614 L 299.16474,633.97614 L 299.16474,626.80774 z M 352.92771,632.66896 L 352.92771,624.91022 C 355.06416,625.92224 357.22873,626.6953 359.42143,627.22941 C 361.6141,627.76353 363.76461,628.03059 365.87298,628.03058 C 371.49523,628.03059 375.78923,626.1401 378.75501,622.35912 C 381.72072,618.57816 383.41443,612.83642 383.83614,605.13389 C 382.20564,607.55149 380.13946,609.40684 377.63759,610.69993 C 375.13564,611.99308 372.36668,612.63964 369.33068,612.63962 C 363.03372,612.63964 358.05099,610.7351 354.38247,606.92599 C 350.71393,603.11693 348.87967,597.9093 348.87967,591.3031 C 348.87967,584.83754 350.79124,579.651 354.61439,575.74347 C 358.43752,571.83605 363.52567,569.88231 369.87885,569.88225 C 377.15966,569.88231 382.71867,572.67236 386.55591,578.2524 C 390.39307,583.83256 392.31166,591.93565 392.31171,602.5617 C 392.31166,612.48503 389.95734,620.40539 385.24874,626.32282 C 380.54005,632.24026 374.20797,635.19898 366.25249,635.19898 C 364.116,635.19898 361.95143,634.98814 359.75877,634.56647 C 357.56607,634.1448 355.28905,633.5123 352.92771,632.66896 L 352.92771,632.66896 z M 369.87885,605.97723 C 373.70197,605.97726 376.73096,604.67008 378.96585,602.05569 C 381.20066,599.44137 382.31809,595.85718 382.31813,591.3031 C 382.31809,586.77722 381.20066,583.20005 378.96585,580.57159 C 376.73096,577.94324 373.70197,576.62903 369.87885,576.62897 C 366.05569,576.62903 363.02669,577.94324 360.79186,580.57159 C 358.55699,583.20005 357.43956,586.77722 357.43958,591.3031 C 357.43956,595.85718 358.55699,599.44137 360.79186,602.05569 C 363.02669,604.67008 366.05569,605.97726 369.87885,605.97723 L 369.87885,605.97723 z M 409.13636,626.80774 L 423.05148,626.80774 L 423.05148,578.77949 L 407.91352,581.81552 L 407.91352,574.05679 L 422.96715,571.02076 L 431.48489,571.02076 L 431.48489,626.80774 L 445.40001,626.80774 L 445.40001,633.97614 L 409.13636,633.97614 L 409.13636,626.80774 z M 462.89932,632.66896 L 462.89932,624.91022 C 465.03578,625.92224 467.20035,626.6953 469.39305,627.22941 C 471.58572,627.76353 473.73623,628.03059 475.8446,628.03058 C 481.46685,628.03059 485.76085,626.1401 488.72663,622.35912 C 491.69234,618.57816 493.38605,612.83642 493.80776,605.13389 C 492.17726,607.55149 490.11108,609.40684 487.6092,610.69993 C 485.10726,611.99308 482.3383,612.63964 479.3023,612.63962 C 473.00534,612.63964 468.0226,610.7351 464.35409,606.92599 C 460.68555,603.11693 458.85128,597.9093 458.85129,591.3031 C 458.85128,584.83754 460.76285,579.651 464.58601,575.74347 C 468.40914,571.83605 473.49729,569.88231 479.85047,569.88225 C 487.13128,569.88231 492.69029,572.67236 496.52753,578.2524 C 500.36468,583.83256 502.28328,591.93565 502.28333,602.5617 C 502.28328,612.48503 499.92896,620.40539 495.22035,626.32282 C 490.51166,632.24026 484.17959,635.19898 476.22411,635.19898 C 474.08762,635.19898 471.92305,634.98814 469.73038,634.56647 C 467.53768,634.1448 465.26067,633.5123 462.89932,632.66896 L 462.89932,632.66896 z M 479.85047,605.97723 C 483.67358,605.97726 486.70258,604.67008 488.93747,602.05569 C 491.17228,599.44137 492.28971,595.85718 492.28975,591.3031 C 492.28971,586.77722 491.17228,583.20005 488.93747,580.57159 C 486.70258,577.94324 483.67358,576.62903 479.85047,576.62897 C 476.0273,576.62903 472.99831,577.94324 470.76348,580.57159 C 468.52861,583.20005 467.41118,586.77722 467.4112,591.3031 C 467.41118,595.85718 468.52861,599.44137 470.76348,602.05569 C 472.99831,604.67008 476.0273,605.97726 479.85047,605.97723 L 479.85047,605.97723 z" id="text2450" style="font-size:86.358078px;font-style:normal;font-variant:normal;font-weight:normal;font-stretch:normal;text-align:start;line-height:100%;writing-mode:lr-tb;text-anchor:start;fill:#ffffff;fill-opacity:1;stroke:none;stroke-width:1px;stroke-linecap:butt;stroke-linejoin:miter;stroke-opacity:1;font-family:DejaVu Sans;-inkscape-font-specification:DejaVu Sans"/>
  </g>
</svg>
