<?xml version="1.0" encoding="UTF-8" standalone="no"?>
<svg width="1892px" height="1003px" viewBox="0 0 1892 1003" version="1.1" xmlns="http://www.w3.org/2000/svg" xmlns:xlink="http://www.w3.org/1999/xlink">
    <g id="Symbols" stroke="none" stroke-width="1" fill="none" fill-rule="evenodd">
        <g id="Styleguide/Images/Logos/DHB/SVG-Copy" transform="translate(-1.000000, 0.000000)">
            <path d="M1491.63438,46.1211138 C1484.6132,53.9393771 1484.6132,64.1064392 1484.6132,64.1064392 C1484.6132,64.1064392 1492.41267,76.6057009 1494.74755,77.3941669 C1497.0907,78.1743333 1491.61782,96.6991356 1493.96926,99.2803244 C1502.53875,108.650621 1502.53875,114.128385 1502.53875,115.688718 C1502.53875,117.249051 1500.99044,115.306934 1500.99044,122.726815 C1500.99044,129.764912 1513.46795,138.363341 1509.56821,143.824506 C1504.8405,150.480819 1479.93517,179.795157 1476.81372,187.605121 C1466.91948,212.412752 1462.98662,246.872868 1473.70055,279.075481 C1476.81372,288.445778 1491.47707,299.866086 1493.19097,304.082304 C1508.7982,342.385155 1518.14598,350.991884 1518.14598,360.37878 C1518.14598,379.127673 1527.27021,405.238348 1529.8452,411.969358 C1533.74493,422.128121 1542.3227,443.225812 1559.46996,467.469068 C1568.43687,480.117723 1572.73404,492.484191 1580.5418,508.120717 C1586.96684,521.010062 1584.43325,526.089443 1584.43325,526.089443 C1584.43325,526.089443 1424.56882,762.164477 1411.3213,758.263645 C1398.05722,754.354513 1405.84842,742.627118 1405.07012,739.506452 C1404.29183,736.385787 1402.80149,729.638177 1394.1492,728.559224 C1381.67997,726.998891 1377.78023,740.286619 1376.21537,750.445381 C1374.65879,760.612444 1381.47298,780.988066 1398.83551,784.8391 C1420.66908,794.225996 1438.60291,769.99104 1438.60291,769.99104 C1438.60291,769.99104 1595.59429,561.105635 1602.36708,556.58233 C1616.40945,547.203734 1619.24111,560.184375 1625.76551,561.271628 C1627.62845,561.587015 1628.36534,560.898144 1629.06911,560.200974 C1630.14548,559.163519 1631.1556,558.117764 1635.90815,560.491462 C1639.02131,562.051795 1662.99932,589.523612 1675.67554,611.301874 C1681.13187,620.68047 1713.787,669.830953 1743.5194,682.43811 C1763.79638,691.04484 1770.81757,697.286171 1792.65114,710.582198 C1797.36229,713.445575 1798.10746,729.33939 1802.78549,748.104882 C1806.56931,763.268329 1808.25009,779.369636 1808.25009,779.369636 C1808.25009,779.369636 1849.58235,784.058934 1859.7167,777.809303 C1867.79769,772.821218 1869.85106,749.665215 1869.85106,749.665215 C1869.85106,749.665215 1884.67172,752.79418 1887.79316,748.104882 C1902.07565,726.617108 1883.11513,712.922697 1876.87224,701.983768 C1875.35706,699.327883 1868.63394,701.925671 1865.18131,694.945672 C1861.72867,687.965672 1854.76544,681.848836 1852.68724,673.059514 C1849.58235,659.755187 1842.56117,628.905416 1842.56117,628.498733 C1842.56117,627.718567 1835.53998,572.218857 1833.99168,561.271628 C1832.44337,550.432295 1812.14983,497.953655 1800.45061,483.877461 C1788.7514,469.809567 1794.99429,472.938532 1790.32454,463.559936 C1786.34201,455.592279 1784.2638,451.973635 1783.23712,450.438201 C1783.38615,449.641436 1783.14604,447.168142 1781.73021,440.893613 C1776.27389,416.650357 1772.3162,435.000866 1773.15245,396.332832 C1773.93902,360.37878 1759.89665,355.672883 1761.45323,340.824822 C1762.28948,332.898663 1806.68523,304.87077 1816.04957,271.257218 C1821.63009,251.205282 1759.11835,194.643218 1759.11835,194.643218 C1759.11835,194.643218 1764.57468,182.915823 1765.35297,176.666192 C1765.97395,171.694706 1699.48796,112.260965 1686.59647,107.090288 C1670.99751,100.840657 1648.37737,98.4918584 1637.46473,98.4918584 C1630.79957,98.4918584 1617.19603,100.002393 1617.96604,94.5827267 C1620.30919,78.1743333 1617.8584,59.3922422 1618.74433,53.150911 C1619.52262,47.6814466 1614.0663,25.7952891 1606.26682,19.5373586 C1598.46735,13.2877278 1587.5547,0 1554.80021,0 C1522.054,0 1508.01163,17.1968594 1503.3336,27.3556219 C1498.64729,37.5226841 1498.64729,38.3028505 1491.63438,46.1211138 Z M1616.23558,226.721336 C1615.74708,226.331253 1615.27514,225.990967 1614.81147,225.542787 L1614.81147,225.542787 C1613.26317,224.007353 1611.89702,222.297627 1610.69646,220.471705 L1610.69646,220.471705 C1610.47291,220.106521 1610.29076,219.708138 1610.07548,219.334654 L1610.07548,219.334654 C1607.21071,214.55406 1605.45541,209.018198 1605.45541,203.034156 L1605.45541,203.034156 C1605.45541,185.497011 1619.64682,171.271424 1637.14182,171.271424 L1637.14182,171.271424 C1642.5733,171.271424 1647.60736,172.76536 1652.07012,175.180556 L1652.07012,175.180556 C1652.5669,175.421245 1653.03884,175.686834 1653.51907,175.960722 L1653.51907,175.960722 C1654.76102,176.724289 1655.92018,177.587452 1657.04622,178.500413 L1657.04622,178.500413 C1657.45192,178.848998 1657.86591,179.122886 1658.25506,179.504669 L1658.25506,179.504669 C1664.68838,185.314419 1668.82823,193.65556 1668.82823,203.034156 L1668.82823,203.034156 C1668.82823,220.571301 1654.64511,234.796888 1637.14182,234.796888 L1637.14182,234.796888 C1629.08567,234.796888 1621.82438,231.676223 1616.23558,226.721336 L1616.23558,226.721336 Z M1731.04189,297.052507 L1732.60676,292.363209 L1730.2636,239.203998 L1759.89665,264.999288 L1737.28479,303.302138 L1731.04189,297.052507 Z M1741.95454,589.415716 C1734.16334,577.680022 1691.77128,505.390135 1696.73082,499.522288 L1696.73082,499.522288 C1705.30859,489.355225 1704.53858,486.23456 1706.86517,481.528663 L1706.86517,481.528663 C1709.20833,476.847664 1700.63056,458.082172 1700.63056,458.082172 L1700.63056,458.082172 L1706.08688,454.18134 L1720.12925,469.809567 L1735.811,489.70381 C1735.811,489.70381 1746.64913,504.983452 1746.64913,515.930681 L1746.64913,515.930681 C1746.64913,519.250538 1749.82853,526.545924 1748.984,530.006875 L1748.984,530.006875 C1742.02905,531.226922 1773.93902,604.263777 1774.71731,619.120137 L1774.71731,619.120137 C1751.31888,590.967749 1749.76229,601.134812 1741.95454,589.415716 L1741.95454,589.415716 Z" id="Player" fill="#000000"></path>
            <path d="M512,195.228047 C512,206.174312 510.972779,218.146789 508.575931,231.145478 L503.782235,257.484928 C489.058739,338.897772 447.969914,369 360.313754,369 C327.100287,369 305.528653,367.973788 273,365.579292 L317.855301,111.420708 C350.726361,109.026212 371.270774,108 403.114613,108 C482.210602,108 512,137.418087 512,195.228047 Z M449,192.949896 C449,157 424.800643,157 372.311897,157 L343,321 C404.691318,321 427.868167,320.65762 440.4791,251.496868 L445.250804,225.133612 C447.636656,211.438413 449,200.824635 449,192.949896 Z M793,111 L748.276433,366 L684.434395,366 L703.211465,258.577389 L607.96051,258.577389 L589.183439,366 L525,366 L569.723567,111 L633.907006,111 L616.15414,209.84253 L711.405096,209.84253 L729.157962,111 L793,111 Z M1033,169.653543 C1033,201.507874 1018.24633,223.771654 992.856305,235.759843 C1008.29619,243.637795 1015.84457,259.73622 1015.84457,277.889764 C1015.84457,287.480315 1014.47214,295.700787 1012.7566,302.208661 C998.68915,357.354331 947.909091,369 881.68915,369 C856.985337,369 829.193548,368.314961 799,365.917323 L843.604106,111.425197 C876.199413,109.027559 903.304985,108 925.950147,108 C992.856305,108 1033,119.30315 1033,169.653543 Z M954,280.070707 C954,255.343434 936.112,255 884.856,255 L880.728,255 L868,322.656566 C876.256,323 884.168,323 892.768,323 C927.168,323 954,316.818182 954,280.070707 Z M971,177.422222 C971,156.411111 954.061224,154 923.910204,154 C915.779592,154 907.64898,154 899.179592,154.344444 L888,216 L903.244898,216 C944.914286,216 971,213.933333 971,177.422222 Z" id="DHB" fill="#000000" fill-rule="nonzero"></path>
            <g id="Flag" transform="translate(1.000000, 134.000000)">
                <polygon id="Gold" fill="#FDDD05" points="48.5859375 558 108.585937 558 59.5859375 837 0 837"></polygon>
                <polygon id="Rot" fill="#ED1D23" points="97.5859375 279 157.585937 279 108.585937 558 49 558"></polygon>
                <polygon id="Schwarz" fill="#000000" points="146.585938 0 206.585937 9.679757e-16 157.585937 279 98 279"></polygon>
            </g>
            <path d="M274.310345,676 L297.586207,543.350449 C306.586207,539.622593 321.172414,535.273427 334.827586,535.273427 C347.862069,535.273427 353.758621,539.001284 353.758621,551.427471 C353.758621,554.844673 353.448276,559.193838 352.517241,564.474968 L332.965517,676 L387.275862,676 L405.586207,568.824134 C407.448276,557.32991 409,547.078306 409,539.311938 C409,512.90629 397.517241,494.267009 359.034483,494.267009 C339.172414,494.267009 318.37931,499.858793 303.793103,506.693196 L316.827586,434 L262.827586,434 L220,676 L274.310345,676 Z M508.056338,681 C559.802817,681 593.887324,660.43 604.112676,601.836667 L607.521127,582.201667 C608.760563,575.656667 610,565.371667 610,557.58 C610,513.323333 583.042254,494 535.323944,494 C484.197183,494 451.042254,514.258333 439.577465,572.851667 L436.169014,589.993333 C434,600.59 434,609.005 434,617.42 C434,659.806667 459.408451,681 508.056338,681 Z M512.146667,639 C494.053333,639 487,632.772455 487,616.892216 C487,610.664671 487.306667,604.437126 488.84,596.652695 L492.52,577.347305 C498.346667,545.898204 507.24,535 530.546667,535 C550.173333,535 556,542.784431 556,557.730539 C556,563.023952 555.693333,568.628743 554.16,577.347305 L550.48,596.652695 C544.346667,628.101796 536.066667,639 512.146667,639 Z M701.166667,681 C727.785714,681 749.142857,676.636667 759.666667,674.143333 L765.857143,637.055 C742.333333,638.925 727.166667,639.548333 716.642857,639.548333 C696.833333,639.548333 687.238095,634.873333 687.238095,614.926667 C687.238095,609.94 687.857143,604.33 689.095238,597.161667 L692.809524,577.526667 C699.309524,542.62 711.690476,535.451667 735.214286,535.451667 C745.738095,535.451667 760.904762,536.386667 783.809524,537.945 L790,500.856667 C780.404762,498.363333 760.285714,494 732.428571,494 C678.261905,494 649.47619,516.128333 639.880952,572.228333 L636.47619,592.175 C634.928571,601.836667 634,610.251667 634,618.043333 C634,656.69 653.809524,681 701.166667,681 Z M847.244548,676 L861.813084,592.123235 L903.34891,676 L962.242991,676 L915.747664,584.046213 L992,498.926829 L932.176012,498.926829 L864.602804,575.969191 L889.71028,434 L835.775701,434 L793,676 L847.244548,676 Z M1060.60601,681 C1092.14311,681 1117.49647,676.636667 1132.02827,673.208333 L1137.90283,637.366667 C1104.81979,639.548333 1089.36042,640.483333 1071.11837,640.483333 C1042.67314,640.483333 1034.94346,633.315 1034.94346,618.978333 C1034.94346,614.926667 1035.87102,609.94 1037.10777,602.148333 L1152.74382,602.148333 C1156.45406,583.76 1158,571.605 1158,559.138333 C1158,520.491667 1137.28445,494 1085.65018,494 C1034.32509,494 997.840989,515.505 987.637809,577.838333 L986.091873,587.188333 C984.236749,598.096667 983,608.07 983,617.108333 C983,661.988333 1009.89929,681 1060.60601,681 Z M1106.14286,573 L1043,573 L1043.61905,570.5 C1047.02381,551.125 1055.07143,533 1081.38095,533 C1102.11905,533 1108,543.3125 1108,556.75 C1108,560.8125 1107.38095,566.4375 1106.14286,573 Z M1189.83636,743 C1238.05455,743 1251.96364,723.15756 1274.83636,676.651842 L1362,499 L1306.36364,499 L1266.49091,589.531131 C1259.07273,606.273189 1254.12727,620.534943 1247.94545,636.656925 C1247.01818,620.534943 1246.70909,605.033037 1245.16364,589.531131 L1235.27273,499 L1179.32727,499 L1212.09091,673.861499 L1207.45455,683.162643 C1198.8,699.284625 1194.16364,704.865311 1177.78182,704.865311 L1173.53897,704.862441 C1166.53434,704.848087 1159.49394,704.761965 1146.87273,704.245235 L1141,738.659466 C1152.74545,741.139771 1170.98182,743 1189.83636,743 Z" id="hockey" fill="#000000" fill-rule="nonzero"></path>
            <path d="M216.675,974.85 C234.275,974.85 249.95,969.35 260.95,963.3 L259.85,971 L283.775,971 L310.175,819.75 C291.2,817 267,815.9 253.25,815.9 C215.3,815.9 186.7,825.25 177.075,879.425 L172.4,905.55 C171.025,912.7 170.475,919.575 170.475,925.625 C170.475,957.525 186.975,974.85 216.675,974.85 Z M225.2,953.675 C204.575,953.675 194.95,944.6 194.95,925.075 C194.95,920.675 195.225,917.1 196.325,910.225 L201,884.1 C208.15,843.675 224.375,836.8 249.95,836.8 C253.965873,836.8 263.113139,837.093222 272.253424,837.679667 L273.445173,837.757823 C276.422336,837.95737 279.375,838.188095 282.125,838.45 L263.7,944.325 C251.325,949.825 238.675,953.675 225.2,953.675 Z M351.15,971 L364.9,892.625 L414.4,971 L444.1,971 L392.95,891.525 L471.05,819.75 L436.4,819.75 L366,886.3 L388.55,758.15 L363.8,758.15 L326.125,971 L351.15,971 Z M510.925,974.85 C528.525,974.85 544.2,969.35 555.2,963.3 L554.1,971 L578.025,971 L604.425,819.75 C585.45,817 561.25,815.9 547.5,815.9 C509.55,815.9 480.95,825.25 471.325,879.425 L466.65,905.55 C465.275,912.7 464.725,919.575 464.725,925.625 C464.725,957.525 481.225,974.85 510.925,974.85 Z M519.45,953.675 C498.825,953.675 489.2,944.6 489.2,925.075 C489.2,920.675 489.475,917.1 490.575,910.225 L495.25,884.1 C502.4,843.675 518.625,836.8 544.2,836.8 C548.215873,836.8 557.363139,837.093222 566.503424,837.679667 L567.695173,837.757823 C570.672336,837.95737 573.625,838.188095 576.375,838.45 L557.95,944.325 C545.575,949.825 532.925,953.675 519.45,953.675 Z M671.25,974.85 C687.2,974.85 703.15,969.35 714.15,963.3 L713.05,971 L736.975,971 L774.375,758.15 L749.9,758.15 L738.625,819.75 C726.8,817.275 715.8,815.9 703.7,815.9 C668.775,815.9 639.9,824.975 630.275,879.15 L625.6,905.275 C624.225,912.425 623.675,919.3 623.675,925.35 C623.675,957.25 640.45,974.85 671.25,974.85 Z M678.125,953.675 C657.5,953.675 648.15,944.875 648.15,925.35 L648.15,924.399767 C648.151257,923.983475 648.152933,923.574013 648.156843,923.166531 L648.164544,922.556185 C648.216255,919.302454 648.451829,916.020122 649.525,910.225 L654.2,884.1 C661.35,843.675 677.575,836.8 702.05,836.8 C710.3,836.8 723.225,838.175 735.05,840.375 L716.9,944.325 C704.525,949.825 691.875,953.675 678.125,953.675 Z M842.3,974.85 C866.5,974.85 885.475,971.55 896.75,968.8 L900.325,949 C885.2,951.475 863.475,953.4 846.425,953.4 C815.35,953.4 807.1,941.85 807.1,924.525 C807.1,919.3 807.65,912.7 808.2,909.95 L809.575,904.45 L913.525,904.45 C916.55,890.975 918.2,879.425 918.2,867.325 C918.2,831.575 897.025,815.9 861.825,815.9 C824.975,815.9 795.825,837.075 787.85,884.65 L785.925,896.2 C784.275,906.1 782.9,915.175 782.9,923.425 C782.9,956.15 799.675,974.85 842.3,974.85 Z M891.8,884.1 L813.425,884.1 L813.975,881.35 C817.275,862.925 826.9,837.35 860.725,837.35 C887.4,837.35 893.725,852.2 893.725,867.325 C893.725,872 892.9,877.775 891.8,884.1 Z M963.3,971 L984.75,850.275 C996.575,843.95 1012.8,837.075 1026,837.075 C1039.475,837.075 1043.05,842.3 1043.05,851.925 C1043.05,857.15 1042.225,863.2 1040.85,870.625 L1023.25,971 L1048.275,971 L1065.875,870.625 C1066.975,864.025 1068.35,856.875 1068.35,849.725 C1082.65,842.025 1098.05,837.075 1108.775,837.075 C1123.625,837.075 1127.475,842.3 1127.475,852.2 C1127.2,857.15 1126.375,863.475 1125.275,870.625 L1107.675,971 L1132.15,971 L1149.475,873.65 C1150.85,866.225 1152.5,857.425 1152.5,849.175 C1152.5,831.85 1145.625,815.9 1114.275,815.9 C1102.175,815.9 1085.95,820.575 1066.425,832.125 C1062.025,822.225 1053.225,815.9 1035.625,815.9 C1018.575,815.9 1002.075,822.5 987.775,831.575 L989.7,819.75 L965.5,819.75 L938.55,971 L963.3,971 Z M1231.975,791.7 L1238.025,758.15 L1213,758.15 L1206.95,791.7 L1231.975,791.7 Z M1200.35,971 L1226.75,819.75 L1202,819.75 L1175.6,971 L1200.35,971 Z M1307.325,974.85 C1331.525,974.85 1350.5,971.55 1361.775,968.8 L1365.35,949 C1350.225,951.475 1328.5,953.4 1311.45,953.4 C1280.375,953.4 1272.125,941.85 1272.125,924.525 C1272.125,919.3 1272.675,912.7 1273.225,909.95 L1274.6,904.45 L1378.55,904.45 C1381.575,890.975 1383.225,879.425 1383.225,867.325 C1383.225,831.575 1362.05,815.9 1326.85,815.9 C1290,815.9 1260.85,837.075 1252.875,884.65 L1250.95,896.2 C1249.3,906.1 1247.925,915.175 1247.925,923.425 C1247.925,956.15 1264.7,974.85 1307.325,974.85 Z M1356.825,884.1 L1278.45,884.1 L1279,881.35 C1282.3,862.925 1291.925,837.35 1325.75,837.35 C1352.425,837.35 1358.75,852.2 1358.75,867.325 C1358.75,872 1357.925,877.775 1356.825,884.1 Z" id="akademie" fill="#000000" fill-rule="nonzero"></path>
        </g>
    </g>
</svg>
