<?xml version="1.0" encoding="UTF-8" standalone="no"?>
<!-- Generator: Deutscher Hockey-Bund e.V.  -->
<svg version="1.1" id="Layer_1" xmlns="http://www.w3.org/2000/svg" xmlns:xlink="http://www.w3.org/1999/xlink" x="0px" y="0px"
	 viewBox="0 0 1366 768" style="enable-background:new 0 0 1366 768;" xml:space="preserve">
<style type="text/css">
	.st0{fill:#FEFBFC;}
	.st1{fill:#EA1F24;}
	.st2{fill:#E30413;}
	.st3{fill:#EA2025;}
	.st4{fill:#EA2024;}
	.st5{fill:#EA1E23;}
	.st6{fill:#EA2126;}
	.st7{fill:#EB2A2E;}
	.st8{fill:#EB262B;}
	.st9{fill:#FEFCFD;}
	.st10{fill:#FDF7F7;}
	.st11{fill:#FDF1F1;}
</style>
<g>
	<g>
		<path class="st0" d="M878,729.5c-166.7,0-333.3,0-500,0c0-230.3,0-460.7,0-691c166.7,0,333.3,0,500,0
			C878,268.8,878,499.2,878,729.5z M439.1,281.2c0,3.6,0,7.1,0,10.4c-17.1,3-26.5,11.3-27.5,24c-0.5,6.7,0.1,13.3,4,19.2
			c5.5,8.3,14.2,10.9,23.7,12.2c0,37.1,0,73.8,0,111.6c37.5-33.8,74.3-67,111.9-100.8c-3,58.1-6,115-8.9,172.5c9.2,0,17.9,0,27.7,0
			c-7.4,7.3-11.1,15-10.7,24.3c18.9,0,37.3,0,57.5,0c-3.8-8.8-7.2-16.7-10.5-24.3c13.8,0,28.2,0,43.2,0c-6.6,7.2-10.2,14.9-9.5,24.2
			c17.8,0,35.4,0,54.5,0c-3.7-8.7-7-16.4-10.3-24.4c9.2,0,18.6,0,28.7,0c-2.4-57.3-4.7-114.2-7.1-171.1c0.4-0.1,0.8-0.3,1.2-0.4
			c36.1,32.4,72.1,64.8,108.3,97.3c0-36.1,0-72.6,0-108.9c20.5-5.1,28.2-12.7,27.6-28.6c-0.2-5.5-2.1-11.6-5.1-16.2
			c-4.8-7.7-13.5-9.6-22.6-10.6c0-3.6,0-7,0-10.2c-4.2,0-7.8,0-11.9,0c0,49.4,0,98.5,0,147.6c-0.6,0.4-1.3,0.9-1.9,1.3
			c-1.3-1.9-2.2-4.3-3.9-5.6c-4.5-3.6-5.9-8-5.8-13.8c0.3-41.3,0.1-82.5,0.1-123.8c0-1.9,0-3.8,0-5.7c-37.8,0-74.9,0-111.8,0
			c-6.1,26.4-28.6,45-57.1,47.5c-26.9,2.3-50.1-15-63.8-47.5c-32.1,0-64.1,0-96.6,0c0,2.1,0,3.9,0,5.7c0,42.3-0.4,84.5,0.3,126.8
			c0.1,9.6-5.2,13.5-12.1,18.9c0-51.1,0-101.2,0-151.5C446.5,281.2,443.2,281.2,439.1,281.2z M863.8,185.5
			c-10.1-14.5-23.1-23.2-39-27.6c-18.1-5.1-36.8-2.6-55.2-2.8c-1.2,0-2.5,2.7-3.7,4.2c1.4,1.1,2.8,3.1,4.2,3.1
			c10.5,0.3,21-0.3,31.5,0.3c8.1,0.5,16.3,1.4,24,3.8c25.3,7.8,38.6,26.3,38.6,52.7c0,146,0,291.9,0,437.9c0,2.3,0,4.7-0.2,7
			c-1.7,28.1-25,50-53.1,50c-122.7,0-245.3,0-368,0c-3.8,0-7.7-0.2-11.4-1c-25-5.6-42-27.6-42-54.8c0-147.5,0-294.9,0-442.4
			c0-11.1,3.6-20.9,10.7-29.3c9.8-11.6,22.3-19.4,37.1-21.8c11.7-1.9,23.8-1.6,35.8-2c2.7-0.1,5.4-0.3,5.6-3.5
			c0.2-3.5-2.5-4.3-5.5-4.3c-7.2,0-14.3-0.2-21.5,0c-24.7,0.9-45.1,10.3-60.3,30.1c-0.3,0.4-0.8,0.7-1.8,1.6c0-7.6,0-14.4,0-21.2
			c0-39.1,25-76,61.7-89.8c9-3.4,19-4.5,28.6-5.9c3.5-0.5,4.8-2.5,5-4.9c0.1-0.9-3.2-2.9-4.9-2.9c-4.1-0.2-8.3,0.2-12.4,1
			c-48.8,8.6-85.6,52.5-85.6,102.2c0,164.3,0,328.5,0,492.8c0,4.6,0.4,9.3,1.2,13.9c5.2,29.3,30,50,59.7,50c123,0,246,0,369,0
			c3.5,0,7-0.1,10.4-0.7c29-5.6,49.8-31.1,49.8-61.4c0-163.6,0-327.2,0-490.8c0-6.3-0.1-12.7-1-18.9c-6.3-40.9-28.4-69.4-67.5-84
			c-6.1-2.3-12.7-3.1-19.4-4.7c-0.1,2.3-0.2,3.4-0.2,4.5c0,1.1,0,2.3,0,3.4c31.5,5.3,54.5,21.7,69.4,49.5
			C864.4,139.3,865.1,161.7,863.8,185.5z M548.3,64.9c-1.8-1.3-3.3-2.5-5-3.6C531,53.5,518.2,52.2,505,59
			c-12.4,6.4-15.8,17.2-15.6,30.4c0.4,22.8,0.1,45.6,0.1,68.4c0,1.8,0.1,3.5,0.2,5.4c8.7,0,16.9,0,25.7,0c0-2.2,0-4.1,0-6.1
			c0-22.8-0.1-45.6,0-68.4c0-6.9,3.9-10.4,10.6-10.3c6.9,0.2,9,2.5,9,10.1c0,23.1,0,46.3,0,69.4c0,1.8,0,3.5,0,5.3c9,0,17.2,0,26,0
			c0-2,0-3.8,0-5.6c0-22.6,0-45.3,0-67.9c0-7.4,3.6-11.3,10.2-11.3c7,0,10.7,3.9,10.8,11.3c0,22.6,0,45.3,0,67.9c0,1.8,0,3.6,0,5.5
			c8.9,0,17.3,0,26,0c0-1.6,0-2.9,0-4.2c0-24.8,0-49.6,0-74.4c0-12.7-6.5-22.3-18.4-27C574.6,51.5,561.1,55.4,548.3,64.9z
			 M659.4,281c3.4-6.1,6.8-11.3,9.3-16.8c6.6-14.1,8.6-28.6,1.8-43.3c-13.1-28.1-45.8-37.2-73.1-20.3c-13.2,8.2-23.8,19.1-34.4,30.2
			c-11.7,12.2-22.7,25.1-37.2,35.3c12.6-1.2,23.9,1.3,34.7,6.6c5,2.5,8.3,6.3,10.2,11.6c12.5,33.6,54.6,44.6,81.9,21.3
			c7.5-6.4,13.1-14.3,15.6-24.5C665.2,281,662.6,281,659.4,281z M733.9,136c-7.5-13-11.9-26.1-12.8-39.9
			c-0.8-13.7-0.2-27.5-0.2-41.4c-9.5,0-17.6,0-26.7,0c0.6,15.8,0.3,31.4,1.9,46.9c2.2,20.9,9.1,40.4,21.7,57.6
			c1.2,1.7,3.9,3.1,5.9,3.2c7.1,0.4,14.3,0.4,21.5,0c1.9-0.1,4.4-1.4,5.5-3c9.8-14.1,16.2-29.6,20.2-46.2c4.4-18,2.8-36.4,3.1-54.6
			c0-1.3-0.2-2.5-0.3-3.7c-8.4,0-16.5,0-24.9,0C749.1,82.7,751,110.7,733.9,136z M463.3,615.7c-0.9-0.7-1.5-1.3-2.2-1.8
			c-7.8-6.1-16.2-6.3-24.9-2.3c-8.4,3.9-11.4,10.9-11.2,19.9c0.3,14.6,0.1,29.3,0.1,43.9c0,1.7,0,3.5,0,5.3c6.4,0,11.9,0,18,0
			c0-15.7,0-31.1,0-46.5c0-1.6-0.4-3.7,0.4-4.8c1.3-1.7,3.6-3.9,5.4-3.9c1.7,0,3.9,2.3,5,4.2c0.9,1.4,0.5,3.5,0.5,5.4
			c0,13.5,0,26.9,0,40.4c0,1.8,0,3.5,0,5.3c6.3,0,11.9,0,17.9,0c0-3.5,0-6.6,0-9.7c0-13.1-0.1-26.3,0-39.4c0-5.3,4.2-8.3,8.1-5.7
			c1.7,1.2,2.8,4.4,2.9,6.7c0.3,14.3,0.1,28.6,0.1,42.9c0,1.7,0.1,3.5,0.2,5.1c6.2,0,11.8,0,17.6,0c0-18.5,0.1-36.6-0.1-54.7
			c-0.1-5.7-3.5-9.9-8.2-13C483.5,606.7,473.8,607.6,463.3,615.7z M638.8,77.8c0,28.6,0,56.9,0,85.2c8.8,0,17,0,25.5,0
			c0-28.6,0-56.8,0-85.2c7.1,0.6,13.8,1.1,20.5,1.6c0-8.3,0-16.1,0-23.9c-22.5,0-44.7,0-67,0c0,8,0,15.8,0,23.9
			C624.8,79,631.6,78.4,638.8,77.8z M676.1,609.7c0,23.8,0,47.2,0,70.7c5.8,0,11.4,0,17.5,0c0-9.2,0-18.1,0-27c4.8,0,9,0,13.6,0
			c0,9.3,0,18.2,0,27c5.9,0,11.3,0,16.8,0c0-23.7,0-47.2,0-70.7c-5.8,0-11.2,0-17.1,0c0,9,0,17.7,0,26.6c-4.7,0-8.9,0-13.6,0
			c0-9,0-17.7,0-26.6C687.4,609.7,682,609.7,676.1,609.7z M510.1,609.8c0,16.8-0.5,33.3,0.2,49.7c0.6,14.3,11,22.8,25.8,22.5
			c14.9-0.3,24.5-9,24.8-23.6c0.4-15.8,0.1-31.6,0.2-47.4c0-0.4-0.3-0.9-0.5-1.2c-5.7,0-11.3,0-16.9,0c-0.1,1.3-0.2,2.3-0.2,3.3
			c0,14.5,0,28.9,0,43.4c0,6.3-2.6,9.1-8.1,9c-5.4-0.1-7.6-2.5-7.6-8.8c0-2.7,0-5.3,0-8c0-12.9,0-25.9,0-39.1
			C521.8,609.8,516.2,609.8,510.1,609.8z M830.8,680.8c0-2.2,0-3.8,0-5.4c0-14.6,0.6-29.3-0.3-43.9c-0.9-14.9-11.8-23.5-26.8-22.6
			c-15.2,0.9-23.9,10.1-23.9,25.6c0,13.8,0,27.6,0,41.4c0,1.6,0,3.2,0,4.9c6,0,11.4,0,17.3,0c0-1.9,0-3.5,0-5.1
			c0-13.1,0-26.3,0-39.4c0-7.9,2-10.6,7.9-10.7c6.2-0.1,8.1,2.5,8.1,10.8c0,11.8,0,23.6,0,35.4c0,2.9,0,5.9,0,9.1
			C819.2,680.8,824.7,680.8,830.8,680.8z M619.3,680.6c0-16.9,0.5-33.7-0.2-50.4c-0.6-13.2-10.8-21.3-24.8-21.4
			c-14.3-0.1-24.4,8-25.3,21.4c-0.7,10.6-0.4,21.3-0.4,31.9c0,6.1,0,12.2,0,18.5c6.1,0,11.6,0,17.5,0c0-15.8-0.1-31.2,0-46.7
			c0-6,2.6-8.5,8-8.5c5.5,0,7.9,2.6,7.9,8.5c0.1,12.3,0,24.6,0,36.9c0,3.3,0,6.6,0,10.1c5.4,0,10.2,0,15.1,0
			C617.7,681,618.3,680.8,619.3,680.6z M482.3,492.9c-9.8,8.3-11,21.2-3,30.2c8.6,9.7,27.2,10.2,36.7,1.1c8.9-8.4,8.1-21.8-1.9-31.5
			c11.6-12,4.7-28.5-9.5-31.5c-10.6-2.2-21.3,1.2-25.8,8.7C474.6,477.1,475.7,485,482.3,492.9z M733.4,609.7c0,24.1,0,47.6,0,71.1
			c13.6,0,26.9,0,40.4,0c0-4.8,0-9.3,0-14.4c-7.8,0-15.4,0-22.9,0c0-5.2,0-10,0-15.2c7.2,0,14.1,0,20.8,0c0-5.1,0-9.7,0-14.6
			c-7.2,0-13.9,0-20.8,0c0-4.4,0-8.5,0-13c7.5,0,14.5,0,21.7,0c0-4.9,0-9.3,0-13.9C759.4,609.7,746.4,609.7,733.4,609.7z
			 M774.2,529.6c6.2,0,11.2,0.1,16.1-0.1c1.2-0.1,2.9-0.9,3.5-1.9c6-11.1,12.5-22,17.4-33.6c8.1-19-4.8-35.4-25.3-33.1
			c-10.9,1.2-18.9,9.7-19.9,21c-1.2,12.8,4.5,22.4,15.7,25.9c2.7-4.8,5.5-9.6,8.3-14.5c-0.6-0.3-0.9-0.5-1.2-0.6
			c-5.9-2.4-7.8-6.3-5.7-11.2c1.6-3.9,6.2-5.6,10-3.8c4.4,2,5.3,6.2,2.3,12c-2.2,4.3-4.6,8.5-6.8,12.7
			C783.9,511.2,779.3,520,774.2,529.6z M669.8,609.8c-29.4-1.1-45.9,12.1-44.6,35.2c1.4,24.6,19.1,38.7,44.5,35.3
			c0-5.2,0-10.4,0-15.6c-18.4-1.3-25.2-6-25.6-18.5c-0.1-4.6,0.8-9.9,3.1-13.6c5.2-8.2,14.5-6.1,22.6-6.7
			C669.8,620.3,669.8,615.2,669.8,609.8z M745.1,477.6c-6.2,17.8-12.2,34.7-18.2,52c5.5,0,10.1-0.2,14.8,0.1c2.9,0.2,4-0.9,4.9-3.6
			c3.4-10.9,7-21.8,10.6-32.6c3.4-10.3,6.9-20.7,10.4-31.3c-15,0-29.3,0-43.7,0c0,5.2,0,10.1,0,15.4
			C730.9,477.6,737.7,477.6,745.1,477.6z M469.2,529.4c0-22.6,0-44.9,0-67.6c-10.2,0.8-20.1,1.7-30.1,2.5c0,4.6,0,8.8,0,13.6
			c4.8,0,9.4,0,14.5,0c0,17.6,0,34.6,0,51.6C459.2,529.4,464.1,529.4,469.2,529.4z M552.5,601.3c0-3.8-2.9-6.6-6.4-6.6
			c-3.6,0-6.5,2.8-6.2,6.3c0.3,3.7,2.3,5.7,6.1,5.8C550.1,607,552,604.8,552.5,601.3z M532.2,601.3c-0.1-4.1-3-6.8-6.6-6.6
			c-3.5,0.2-6.4,3.2-6,6.6c0.5,3.6,2.5,5.7,6.4,5.6C530,606.8,531.9,604.5,532.2,601.3z"/>
		<path class="st1" d="M439.1,281.2c4.1,0,7.4,0,11.2,0c0,50.3,0,100.4,0,151.5c6.9-5.3,12.3-9.2,12.1-18.9
			c-0.7-42.3-0.3-84.5-0.3-126.8c0-1.8,0-3.6,0-5.7c32.5,0,64.5,0,96.6,0c13.7,32.6,36.9,49.9,63.8,47.5
			c28.4-2.5,50.9-21.1,57.1-47.5c37,0,74,0,111.8,0c0,1.9,0,3.8,0,5.7c0,41.3,0.1,82.5-0.1,123.8c0,5.8,1.3,10.1,5.8,13.8
			c1.7,1.4,2.6,3.7,3.9,5.6c0.6-0.4,1.3-0.9,1.9-1.3c0-49.1,0-98.2,0-147.6c4.1,0,7.7,0,11.9,0c0,3.2,0,6.6,0,10.2
			c9.1,1,17.8,2.9,22.6,10.6c2.9,4.7,4.9,10.7,5.1,16.2c0.6,15.9-7.1,23.5-27.6,28.6c0,36.4,0,72.8,0,108.9
			c-36.1-32.5-72.2-64.9-108.3-97.3c-0.4,0.1-0.8,0.3-1.2,0.4c2.4,56.9,4.7,113.7,7.1,171.1c-10,0-19.5,0-28.7,0
			c3.4,8,6.7,15.7,10.3,24.4c-19.1,0-36.6,0-54.5,0c-0.6-9.3,3-17,9.5-24.2c-15,0-29.3,0-43.2,0c3.3,7.6,6.7,15.4,10.5,24.3
			c-20.2,0-38.5,0-57.5,0c-0.4-9.4,3.3-17.1,10.7-24.3c-9.8,0-18.5,0-27.7,0c3-57.5,5.9-114.3,8.9-172.5
			c-37.5,33.8-74.3,67-111.9,100.8c0-37.9,0-74.5,0-111.6c-9.5-1.2-18.1-3.8-23.7-12.2c-3.9-5.9-4.5-12.4-4-19.2
			c1-12.7,10.3-21,27.5-24C439.1,288.2,439.1,284.7,439.1,281.2z"/>
		<path class="st2" d="M863.8,185.5c1.3-23.8,0.5-46.2-10.6-66.9c-14.9-27.7-38-44.2-69.4-49.5c0-1.2,0-2.3,0-3.4
			c0-1.1,0.1-2.3,0.2-4.5c6.7,1.6,13.3,2.5,19.4,4.7c39.1,14.6,61.2,43.1,67.5,84c1,6.2,1,12.6,1,18.9c0.1,163.6,0,327.2,0,490.8
			c0,30.2-20.7,55.8-49.8,61.4c-3.4,0.7-7,0.7-10.4,0.7c-123,0-246,0-369,0c-29.7,0-54.6-20.7-59.7-50c-0.8-4.6-1.2-9.2-1.2-13.9
			c-0.1-164.3-0.1-328.5,0-492.8c0-49.7,36.8-93.6,85.6-102.2c4.1-0.7,8.3-1.1,12.4-1c1.8,0.1,5,2,4.9,2.9c-0.2,2.5-1.4,4.4-5,4.9
			c-9.6,1.4-19.6,2.6-28.6,5.9c-36.7,13.7-61.7,50.6-61.7,89.8c0,6.8,0,13.6,0,21.2c1-0.8,1.5-1.1,1.8-1.6
			c15.2-19.8,35.7-29.3,60.3-30.1c7.2-0.2,14.3,0,21.5,0c3,0,5.7,0.8,5.5,4.3c-0.2,3.2-2.9,3.4-5.6,3.5c-12,0.5-24.1,0.1-35.8,2
			c-14.8,2.4-27.3,10.2-37.1,21.8c-7.1,8.5-10.7,18.2-10.7,29.3c0,147.5,0,294.9,0,442.4c0,27.2,16.9,49.3,42,54.8
			c3.7,0.8,7.6,1,11.4,1c122.7,0.1,245.3,0,368,0c28.1,0,51.4-21.9,53.1-50c0.1-2.3,0.2-4.7,0.2-7c0-146,0-291.9,0-437.9
			c0-26.4-13.2-45-38.6-52.7c-7.7-2.4-16-3.3-24-3.8c-10.5-0.6-21,0-31.5-0.3c-1.4,0-2.8-2-4.2-3.1c1.2-1.5,2.5-4.2,3.7-4.2
			c18.4,0.2,37-2.3,55.2,2.8C840.7,162.3,853.8,171,863.8,185.5z"/>
		<path class="st1" d="M548.3,64.9c12.8-9.5,26.3-13.4,41.5-7.4c11.9,4.7,18.3,14.3,18.4,27c0,24.8,0,49.6,0,74.4c0,1.3,0,2.6,0,4.2
			c-8.7,0-17.1,0-26,0c0-1.9,0-3.7,0-5.5c0-22.6,0-45.3,0-67.9c0-7.4-3.8-11.3-10.8-11.3c-6.7,0-10.2,3.9-10.2,11.3
			c0,22.6,0,45.3,0,67.9c0,1.8,0,3.6,0,5.6c-8.8,0-17,0-26,0c0-1.8,0-3.6,0-5.3c0-23.1,0-46.3,0-69.4c0-7.6-2.1-9.9-9-10.1
			c-6.8-0.2-10.6,3.3-10.6,10.3c-0.1,22.8,0,45.6,0,68.4c0,1.9,0,3.9,0,6.1c-8.7,0-17,0-25.7,0c-0.1-1.9-0.2-3.6-0.2-5.4
			c0-22.8,0.3-45.6-0.1-68.4c-0.2-13.2,3.2-24,15.6-30.4c13.2-6.8,26-5.5,38.3,2.3C545,62.4,546.5,63.6,548.3,64.9z"/>
		<path class="st3" d="M659.4,281c3.1,0,5.7,0,9,0c-2.6,10.2-8.1,18.1-15.6,24.5c-27.3,23.3-69.5,12.3-81.9-21.3
			c-1.9-5.2-5.2-9.1-10.2-11.6c-10.8-5.3-22.1-7.8-34.7-6.6c14.5-10.2,25.5-23.1,37.2-35.3c10.6-11.1,21.3-22.1,34.4-30.2
			c27.2-16.9,59.9-7.8,73.1,20.3c6.8,14.7,4.8,29.2-1.8,43.3C666.2,269.8,662.9,274.9,659.4,281z M626.1,277.3
			c20.5,0,36.9-16.2,36.9-36.6c0-20.4-16.4-36.6-36.8-36.6c-20.2,0-36.5,16.1-36.6,36.3C589.4,260.8,605.7,277.3,626.1,277.3z"/>
		<path class="st1" d="M733.9,136c17.1-25.3,15.2-53.3,15-81.2c8.4,0,16.5,0,24.9,0c0.1,1.2,0.3,2.4,0.3,3.7
			c-0.3,18.2,1.3,36.6-3.1,54.6c-4.1,16.6-10.5,32.2-20.2,46.2c-1.1,1.6-3.6,2.9-5.5,3c-7.1,0.4-14.3,0.4-21.5,0
			c-2.1-0.1-4.7-1.5-5.9-3.2c-12.5-17.2-19.5-36.7-21.7-57.6c-1.6-15.4-1.3-31.1-1.9-46.9c9.1,0,17.1,0,26.7,0
			c0,13.9-0.7,27.7,0.2,41.4C722,109.9,726.5,123,733.9,136z"/>
		<path class="st4" d="M463.3,615.7c10.5-8.1,20.1-8.9,29.7-2.7c4.7,3.1,8.1,7.3,8.2,13c0.2,18.1,0.1,36.2,0.1,54.7
			c-5.8,0-11.4,0-17.6,0c-0.1-1.6-0.2-3.4-0.2-5.1c0-14.3,0.1-28.6-0.1-42.9c0-2.3-1.1-5.5-2.9-6.7c-3.9-2.7-8,0.4-8.1,5.7
			c-0.1,13.1,0,26.3,0,39.4c0,3.1,0,6.2,0,9.7c-6,0-11.6,0-17.9,0c0-1.8,0-3.5,0-5.3c0-13.5,0-26.9,0-40.4c0-1.8,0.3-4-0.5-5.4
			c-1.1-1.8-3.3-4.1-5-4.2c-1.8,0-4,2.1-5.4,3.9c-0.8,1.1-0.4,3.2-0.4,4.8c0,15.4,0,30.9,0,46.5c-6.1,0-11.6,0-18,0
			c0-1.8,0-3.6,0-5.3c0-14.6,0.2-29.3-0.1-43.9c-0.2-9,2.8-16,11.2-19.9c8.6-4,17.1-3.8,24.9,2.3
			C461.8,614.4,462.4,614.9,463.3,615.7z"/>
		<path class="st5" d="M638.8,77.8c-7.3,0.6-14,1.1-21,1.7c0-8.2,0-15.9,0-23.9c22.3,0,44.5,0,67,0c0,7.8,0,15.5,0,23.9
			c-6.7-0.5-13.4-1.1-20.5-1.6c0,28.4,0,56.6,0,85.2c-8.6,0-16.8,0-25.5,0C638.8,134.8,638.8,106.5,638.8,77.8z"/>
		<path class="st5" d="M676.1,609.7c5.9,0,11.3,0,17.3,0c0,8.9,0,17.6,0,26.6c4.7,0,9,0,13.6,0c0-8.9,0-17.6,0-26.6
			c5.8,0,11.3,0,17.1,0c0,23.5,0,47,0,70.7c-5.5,0-11,0-16.8,0c0-8.9,0-17.8,0-27c-4.6,0-8.9,0-13.6,0c0,9,0,17.8,0,27
			c-6.1,0-11.7,0-17.5,0C676.1,656.9,676.1,633.5,676.1,609.7z"/>
		<path class="st3" d="M510.1,609.8c6.1,0,11.7,0,17.7,0c0,13.2,0,26.1,0,39.1c0,2.7,0,5.3,0,8c0.1,6.2,2.2,8.7,7.6,8.8
			c5.4,0.1,8-2.7,8.1-9c0.1-14.5,0-28.9,0-43.4c0-1,0.1-2,0.2-3.3c5.6,0,11.2,0,16.9,0c0.1,0.3,0.5,0.8,0.5,1.2
			c0,15.8,0.2,31.6-0.2,47.4c-0.4,14.5-9.9,23.3-24.8,23.6c-14.8,0.3-25.3-8.2-25.8-22.5C509.6,643.1,510.1,626.6,510.1,609.8z"/>
		<path class="st6" d="M830.8,680.8c-6.2,0-11.6,0-17.7,0c0-3.2,0-6.1,0-9.1c0-11.8,0-23.6,0-35.4c0-8.4-2-10.9-8.1-10.8
			c-5.9,0.1-7.9,2.8-7.9,10.7c0,13.1,0,26.3,0,39.4c0,1.6,0,3.2,0,5.1c-5.9,0-11.3,0-17.3,0c0-1.7,0-3.3,0-4.9c0-13.8,0-27.6,0-41.4
			c0-15.5,8.7-24.7,23.9-25.6c15-0.8,25.9,7.7,26.8,22.6c0.9,14.6,0.3,29.3,0.3,43.9C830.8,677,830.8,678.7,830.8,680.8z"/>
		<path class="st1" d="M619.3,680.6c-1,0.2-1.6,0.4-2.2,0.4c-4.8,0-9.6,0-15.1,0c0-3.5,0-6.8,0-10.1c0-12.3,0-24.6,0-36.9
			c0-6-2.5-8.5-7.9-8.5c-5.4,0-8,2.5-8,8.5c-0.1,15.4,0,30.9,0,46.7c-5.8,0-11.3,0-17.5,0c0-6.3,0-12.4,0-18.5
			c0.1-10.6-0.3-21.3,0.4-31.9c0.9-13.4,11-21.5,25.3-21.4c14,0.1,24.2,8.2,24.8,21.4C619.8,647,619.3,663.7,619.3,680.6z"/>
		<path class="st6" d="M482.3,492.9c-6.6-7.9-7.7-15.8-3.4-23c4.5-7.5,15.2-10.9,25.8-8.7c14.2,3,21.1,19.5,9.5,31.5
			c10,9.7,10.8,23,1.9,31.5c-9.6,9.1-28.2,8.5-36.7-1.1C471.3,514.1,472.4,501.2,482.3,492.9z M498,515.1c4.2,0.1,7.6-3.2,7.8-7.4
			c0.2-4.3-3.5-8-7.8-7.9c-4.1,0.1-7.5,3.5-7.5,7.7C490.5,511.6,493.8,515,498,515.1z M498,487.4c3.6,0.1,6.8-3,6.9-6.5
			c0.1-3.4-3.1-6.8-6.5-6.9c-3.4-0.1-6.7,3.1-6.8,6.6C491.4,484.2,494.4,487.3,498,487.4z"/>
		<path class="st1" d="M733.4,609.7c13.1,0,26,0,39.2,0c0,4.6,0,9,0,13.9c-7.2,0-14.3,0-21.7,0c0,4.5,0,8.6,0,13
			c6.8,0,13.6,0,20.8,0c0,4.9,0,9.5,0,14.6c-6.7,0-13.6,0-20.8,0c0,5.3,0,10,0,15.2c7.5,0,15.1,0,22.9,0c0,5,0,9.6,0,14.4
			c-13.5,0-26.7,0-40.4,0C733.4,657.3,733.4,633.8,733.4,609.7z"/>
		<path class="st6" d="M774.2,529.6c5.1-9.6,9.7-18.4,14.4-27.2c2.3-4.3,4.6-8.5,6.8-12.7c2.9-5.7,2-10-2.3-12
			c-3.8-1.8-8.4,0-10,3.8c-2.1,4.9-0.1,8.7,5.7,11.2c0.3,0.1,0.6,0.3,1.2,0.6c-2.8,4.9-5.5,9.7-8.3,14.5
			c-11.1-3.5-16.9-13.1-15.7-25.9c1.1-11.3,9.1-19.7,19.9-21c20.4-2.3,33.4,14.1,25.3,33.1c-4.9,11.6-11.4,22.5-17.4,33.6
			c-0.5,1-2.3,1.9-3.5,1.9C785.3,529.8,780.3,529.6,774.2,529.6z"/>
		<path class="st3" d="M669.8,609.8c0,5.4,0,10.5,0,16.1c-8.1,0.6-17.4-1.5-22.6,6.7c-2.4,3.7-3.3,9.1-3.1,13.6
			c0.4,12.5,7.2,17.1,25.6,18.5c0,5.2,0,10.4,0,15.6c-25.5,3.4-43.2-10.7-44.5-35.3C623.9,621.9,640.4,608.7,669.8,609.8z"/>
		<path class="st6" d="M745.1,477.6c-7.4,0-14.2,0-21.2,0c0-5.3,0-10.2,0-15.4c14.3,0,28.7,0,43.7,0c-3.5,10.7-7,21-10.4,31.3
			c-3.6,10.9-7.2,21.7-10.6,32.6c-0.8,2.7-2,3.7-4.9,3.6c-4.6-0.2-9.3-0.1-14.8-0.1C732.9,512.3,738.9,495.4,745.1,477.6z"/>
		<path class="st7" d="M469.2,529.4c-5.1,0-10.1,0-15.6,0c0-17,0-34,0-51.6c-5.1,0-9.7,0-14.5,0c0-4.8,0-9,0-13.6
			c10-0.8,19.9-1.6,30.1-2.5C469.2,484.5,469.2,506.8,469.2,529.4z"/>
		<path class="st8" d="M552.5,601.3c-0.5,3.5-2.5,5.7-6.5,5.5c-3.8-0.1-5.8-2.1-6.1-5.8c-0.3-3.5,2.6-6.3,6.2-6.3
			C549.6,594.7,552.5,597.5,552.5,601.3z"/>
		<path class="st8" d="M532.2,601.3c-0.3,3.3-2.2,5.5-6.2,5.6c-3.8,0.1-5.9-2-6.4-5.6c-0.4-3.4,2.5-6.4,6-6.6
			C529.1,594.5,532,597.2,532.2,601.3z"/>
		<path class="st9" d="M626.1,277.3c-20.4,0-36.7-16.5-36.6-36.9c0.2-20.2,16.4-36.3,36.6-36.3c20.5,0,36.8,16.3,36.8,36.6
			C663,261.1,646.6,277.3,626.1,277.3z"/>
		<path class="st10" d="M498,515.1c-4.2-0.1-7.5-3.4-7.5-7.6c0-4.2,3.4-7.7,7.5-7.7c4.3-0.1,8,3.7,7.8,7.9
			C505.6,511.8,502.2,515.1,498,515.1z"/>
		<path class="st11" d="M498,487.4c-3.6-0.1-6.6-3.2-6.5-6.8c0.1-3.5,3.4-6.7,6.8-6.6c3.4,0.1,6.6,3.5,6.5,6.9
			C504.8,484.4,501.5,487.5,498,487.4z"/>
	</g>
</g>
</svg>
