<?xml version="1.0" encoding="UTF-8"?>
<!-- Generator: Deutscher Hockey-Bund e.V.  -->
<svg width="318px" height="367px" viewBox="0 0 318 367" version="1.1" xmlns="http://www.w3.org/2000/svg" xmlns:xlink="http://www.w3.org/1999/xlink">
    <g id="BAY" stroke="none" stroke-width="1" fill="none" fill-rule="evenodd">
        <g id="377_ESV-München" transform="translate(-30.000000, -6.000000)">
            <g id="HG_WEISS" transform="translate(38.000000, 14.000000)" fill="#FFFFFF" fill-rule="nonzero">
                <path d="M151.129111,0 C240.487368,0 295.214987,32.742177 301.33896,36.586575 C301.683973,36.8025525 301.942732,37.1913118 301.942732,37.6232667 C302.287745,51.0138667 305.306605,259.000123 151.042858,352 L150.999731,352 C-3.2640157,259.000123 -0.288282252,51.0138667 0.0567303221,37.6232667 C0.0567303221,37.1913118 0.272363181,36.8025525 0.660502326,36.586575 C6.78447551,32.742177 61.6846013,0 151.042858,0 L151.129111,0 L151.129111,0" id="Path"></path>
            </g>
            <g id="LOGO" transform="translate(30.000000, 6.000000)" fill="#0E2F61">
                <path d="M159.10785,10.0122295 C247.285729,10.0122295 301.296837,42.2930386 307.336417,46.0476246 C307.681536,46.2634055 307.897236,46.6518109 307.940375,47.0833725 C308.285494,60.289158 311.262145,265.280927 159.02157,356.98777 L158.97843,356.98777 C6.73785509,265.324083 9.67136574,60.289158 10.0164846,47.0833725 C10.0164846,46.6518109 10.232184,46.2634055 10.6204427,46.0476246 C16.6600235,42.2498824 70.8436909,10.0122295 159.02157,10.0122295 L159.10785,10.0122295 L159.10785,10.0122295 M159.10785,0 C159.06471,0 159.06471,0 159.10785,0 L159.02157,0 C131.584617,0 89.6526709,3.23671214 46.1245496,18.7729304 C19.7229537,28.1809737 5.18482004,37.6321731 4.58086196,38.0205786 C1.90619048,39.7899812 0.223735843,42.7677563 0.0943162557,46.0044685 C0.00803653056,48.2917451 -1.84697756,102.280103 15.883506,168.740593 C26.3233527,207.926388 41.5085843,243.31444 60.9215225,273.869003 C85.3386847,312.277987 116.615085,343.134643 153.844786,365.575847 C155.397821,366.525282 157.166556,367 158.97843,367 C160.790304,367 162.602179,366.525282 164.155214,365.575847 C201.384915,343.177799 232.618175,312.321143 257.078478,273.869003 C276.491416,243.31444 291.633507,207.969544 302.116494,168.740593 C319.846978,102.236947 317.991963,48.2485889 317.905684,46.0044685 C317.776264,42.7677563 316.09381,39.7899812 313.419138,38.0205786 C312.81518,37.6321731 298.320186,28.1378175 272.00487,18.7297742 C247.975967,10.2280103 208.891251,0 159.10785,0 L159.10785,0 Z" id="Shape" fill-rule="nonzero"></path>
                <path d="M22.0093664,78.8031515 L20.1112125,50.665334 C20.0249328,50.0179915 20.5426111,49.4569614 21.1465692,49.4569614 L122.007568,49.4569614 C122.697806,49.4569614 123.258624,50.0179915 123.258624,50.7084901 L123.258624,78.5010583 C123.258624,79.1915569 122.697806,79.752587 122.007568,79.752587 L23.0447231,79.752587 C22.5270448,79.752587 22.0525063,79.3641816 22.0093664,78.8031515 Z" id="Path"></path>
                <path d="M161.911941,32.9281515 L134.302429,32.9281515 C133.612191,32.9281515 133.051373,33.4891816 133.051373,34.1796802 L133.051373,88.4701317 C133.051373,89.1606303 132.490554,89.7216604 131.800317,89.7216604 L49.3600393,89.7216604 C48.5835218,89.7216604 47.9795637,90.412159 48.1089833,91.1889699 L49.6620183,100.899106 C49.7482981,101.503293 50.2659764,101.97801 50.9130744,101.97801 L131.800317,101.97801 C132.490554,101.97801 133.051373,102.53904 133.051373,103.229539 L133.051373,192.001764 C133.051373,192.692262 133.612191,193.253293 134.302429,193.253293 L161.911941,193.253293 C162.602179,193.253293 163.162997,192.692262 163.162997,192.001764 L163.162997,34.1796802 C163.162997,33.4891816 162.602179,32.9281515 161.911941,32.9281515 Z" id="Path"></path>
                <path d="M295.947494,78.8031515 L297.845648,50.665334 C297.931927,50.0179915 297.414249,49.4569614 296.810291,49.4569614 L195.733593,49.4569614 C195.129635,49.4569614 194.655096,49.9316792 194.655096,50.5358655 L194.655096,78.5010583 C194.655096,79.1915569 195.215915,79.752587 195.906152,79.752587 L294.868997,79.752587 C295.429815,79.752587 295.904354,79.3641816 295.947494,78.8031515 Z" id="Path"></path>
                <path d="M268.81252,89.7648166 L186.329103,89.7648166 C185.638865,89.7648166 185.078047,89.2037865 185.078047,88.5132879 L185.078047,34.0070555 C185.078047,33.4028692 184.603508,32.9281515 183.99955,32.9281515 L173.947962,32.9281515 C173.344004,32.9281515 172.869466,33.4028692 172.869466,34.0070555 L172.869466,171.071025 C172.869466,171.675212 173.344004,172.149929 173.947962,172.149929 L183.99955,172.149929 C184.603508,172.149929 185.078047,171.675212 185.078047,171.071025 L185.078047,103.272695 C185.078047,102.582197 185.638865,102.021167 186.329103,102.021167 L267.216345,102.021167 C267.734024,102.021167 268.165422,101.632761 268.251702,101.114887 L269.847877,91.0163452 C269.977296,90.3258467 269.502758,89.7648166 268.81252,89.7648166 Z" id="Path"></path>
                <path d="M78.6951458,141.034337 L74.553719,112.896519 C74.4242994,112.249177 74.9419778,111.601834 75.5890757,111.601834 L122.007568,111.601834 C122.697806,111.601834 123.258624,112.162865 123.258624,112.853363 L123.258624,140.645931 C123.258624,141.33643 122.697806,141.89746 122.007568,141.89746 L79.7305025,141.89746 C79.2128242,141.89746 78.7814256,141.509055 78.6951458,141.034337 Z" id="Path"></path>
                <path d="M239.261714,141.034337 L243.403141,112.896519 C243.532561,112.249177 243.014882,111.601834 242.367784,111.601834 L195.949292,111.601834 C195.259054,111.601834 194.698236,112.162865 194.698236,112.853363 L194.698236,140.602775 C194.698236,141.293274 195.259054,141.854304 195.949292,141.854304 L238.226358,141.854304 C238.744036,141.89746 239.175435,141.509055 239.261714,141.034337 Z" id="Path"></path>
                <g id="Group" transform="translate(98.280643, 203.265522)" fill-rule="nonzero">
                    <path d="M0,1.16521637 C0,0.647342427 0.258839175,0.302093133 0.819657389,0.302093133 L16.5657072,0.302093133 C17.0833856,0.302093133 17.3853646,0.647342427 17.3853646,1.16521637 L17.3853646,4.79033396 C17.3853646,5.3082079 17.0402457,5.6534572 16.5657072,5.6534572 L6.6866787,5.6534572 C6.16900035,5.6534572 5.86702131,5.99870649 5.86702131,6.51658043 L5.86702131,17.7803387 C5.86702131,18.2982126 6.21214021,18.6434619 6.6866787,18.6434619 L16.5657072,18.6434619 C17.0833856,18.6434619 17.3853646,18.9887112 17.3853646,19.5065851 L17.3853646,23.1317027 C17.3853646,23.6495767 17.0402457,23.994826 16.5657072,23.994826 L6.6866787,23.994826 C6.16900035,23.994826 5.86702131,24.3400753 5.86702131,24.8579492 L5.86702131,36.5964252 C5.86702131,37.1142992 6.21214021,37.4595484 6.6866787,37.4595484 L16.5657072,37.4595484 C17.0833856,37.4595484 17.3853646,37.8047977 17.3853646,38.3226717 L17.3853646,41.9477893 C17.3853646,42.4656632 17.0402457,42.8109125 16.5657072,42.8109125 L0.819657389,42.8109125 C0.301979038,42.8109125 0,42.4656632 0,41.9477893 L0,1.16521637 Z" id="Path"></path>
                    <path d="M45.0811564,31.2450611 C45.0811564,30.7271872 45.4262753,30.3819379 45.9008138,30.3819379 L50.1716602,30.3819379 C50.6893385,30.3819379 50.9913175,30.7271872 50.9913175,31.2450611 L50.9913175,31.9787159 C50.9913175,35.2585842 53.2777303,37.2006115 56.7289193,37.2006115 C59.964409,37.2006115 62.466521,35.215428 62.466521,31.9787159 L62.466521,31.2450611 C62.466521,27.8788805 58.8859124,26.4978833 54.6582059,23.5632643 C49.9991007,20.3697084 45.0811564,17.6508702 45.0811564,11.6090075 L45.0811564,9.53751176 C45.0811564,4.05667921 49.9559608,0 56.7289193,0 C63.4587378,0 68.3335423,4.05667921 68.3335423,9.53751176 L68.3335423,11.6090075 C68.3335423,12.1268815 68.0747031,12.4721308 67.5570248,12.4721308 L63.2430385,12.4721308 C62.7253602,12.4721308 62.466521,12.1268815 62.466521,11.6090075 L62.466521,10.8753528 C62.466521,7.59548448 60.0075488,5.6534572 56.7289193,5.6534572 C53.4071499,5.6534572 50.9913175,7.63864064 50.9913175,10.8753528 L50.9913175,11.6090075 C50.9913175,14.9751881 53.9248282,16.010936 58.6270732,19.2908043 C62.8979196,22.2685795 68.3335423,25.2031985 68.3335423,31.2450611 L68.3335423,33.3165569 C68.3335423,38.7973895 63.4587378,42.8540687 56.7289193,42.8540687 C49.9559608,42.8540687 45.0811564,38.7973895 45.0811564,33.3165569 L45.0811564,31.2450611 L45.0811564,31.2450611 Z" id="Path"></path>
                    <path d="M105.218125,41.4730715 L95.2959564,1.29468485 C95.0802571,0.302093133 95.8136347,0.302093133 96.5470124,0.302093133 L99.5668028,0.302093133 C100.55902,0.302093133 100.904139,0.302093133 101.119838,1.20837253 L108.065356,30.3387817 C108.108496,30.6408749 108.496754,30.6408749 108.583034,30.3387817 L115.528552,1.20837253 C115.744251,0.302093133 116.08937,0.302093133 117.081587,0.302093133 L120.101377,0.302093133 C120.834755,0.302093133 121.568133,0.302093133 121.352433,1.29468485 L111.430265,41.4730715 C111.214566,42.3793509 110.998866,42.5519755 109.74781,42.5519755 L106.900579,42.5519755 C105.649523,42.5519755 105.433824,42.3793509 105.218125,41.4730715 Z" id="Path"></path>
                </g>
                <path d="M85.4249644,279.867709 L85.4249644,255.484478 C85.4249644,255.182385 85.6406637,254.966604 85.9426428,254.966604 L88.3584751,254.966604 C88.7467338,254.966604 89.005573,255.182385 89.1349926,255.484478 L94.656895,268.215546 C94.7431747,268.431326 95.0020139,268.431326 95.0882936,268.215546 L100.610196,255.484478 C100.739616,255.182385 100.998455,254.966604 101.386714,254.966604 L103.802546,254.966604 C104.104525,254.966604 104.320224,255.182385 104.320224,255.484478 L104.320224,279.867709 C104.320224,280.169802 104.104525,280.385583 103.802546,280.385583 L101.257294,280.385583 C100.955315,280.385583 100.739616,280.169802 100.739616,279.867709 L100.739616,265.928269 C100.739616,265.712488 100.523916,265.712488 100.394497,265.885113 L96.7707483,273.394285 C96.6413287,273.696378 96.3824895,273.912159 95.9942307,273.912159 L93.7940977,273.912159 C93.405839,273.912159 93.1469998,273.696378 93.0175802,273.394285 L89.3938318,265.885113 C89.307552,265.669332 89.0487129,265.712488 89.0487129,265.928269 L89.0487129,279.867709 C89.0487129,280.169802 88.8330135,280.385583 88.5310345,280.385583 L85.9857826,280.385583 C85.6406637,280.385583 85.4249644,280.169802 85.4249644,279.867709 Z" id="Path" fill-rule="nonzero"></path>
                <path d="M111.8697,255.484478 C111.8697,255.182385 112.04226,254.966604 112.387379,254.966604 L114.93263,254.966604 C115.234609,254.966604 115.450309,255.182385 115.450309,255.484478 L115.450309,273.351129 C115.450309,275.983655 116.873924,277.192027 118.901498,277.192027 C120.929071,277.192027 122.352687,276.026811 122.352687,273.351129 L122.352687,255.484478 C122.352687,255.182385 122.525246,254.966604 122.870365,254.966604 L125.415617,254.966604 C125.717596,254.966604 125.933295,255.182385 125.933295,255.484478 L125.933295,274.171096 C125.933295,278.141463 122.999785,280.558208 118.901498,280.558208 C114.803211,280.558208 111.8697,278.098307 111.8697,274.171096 L111.8697,255.484478 L111.8697,255.484478 Z" id="Path" fill-rule="nonzero"></path>
                <path d="M133.525911,279.867709 L133.525911,255.484478 C133.525911,255.182385 133.74161,254.966604 134.04359,254.966604 L135.984883,254.966604 C136.459422,254.966604 136.718261,255.052916 136.89082,255.398166 L144.785415,271.409102 C144.871695,271.624882 145.130534,271.53857 145.130534,271.322789 L145.130534,255.441322 C145.130534,255.139229 145.346233,254.923448 145.648213,254.923448 L148.193464,254.923448 C148.495443,254.923448 148.711143,255.139229 148.711143,255.441322 L148.711143,279.824553 C148.711143,280.126646 148.495443,280.342427 148.193464,280.342427 L146.252171,280.342427 C145.863912,280.342427 145.561933,280.256115 145.389373,279.954022 L137.494779,263.943086 C137.408499,263.727305 137.14966,263.813617 137.14966,264.029398 L137.14966,279.910865 C137.14966,280.212959 136.93396,280.428739 136.631981,280.428739 L134.086729,280.428739 C133.698471,280.385583 133.525911,280.169802 133.525911,279.867709 Z" id="Path" fill-rule="nonzero"></path>
                <path d="M156.217479,261.224247 C156.217479,257.253881 159.15099,254.837135 163.249276,254.837135 C167.347563,254.837135 170.281074,257.297037 170.281074,261.224247 L170.281074,262.99365 C170.281074,263.295743 170.065375,263.511524 169.763396,263.511524 L167.218144,263.511524 C166.873025,263.511524 166.700465,263.295743 166.700465,262.99365 L166.700465,262.044214 C166.700465,259.411689 165.23371,258.203316 163.249276,258.203316 C161.221703,258.203316 159.798087,259.368532 159.798087,262.044214 L159.798087,273.351129 C159.798087,275.983655 161.221703,277.192027 163.249276,277.192027 C165.23371,277.192027 166.700465,276.026811 166.700465,273.351129 L166.700465,272.401693 C166.700465,272.0996 166.873025,271.883819 167.218144,271.883819 L169.763396,271.883819 C170.065375,271.883819 170.281074,272.0996 170.281074,272.401693 L170.281074,274.171096 C170.281074,278.141463 167.347563,280.558208 163.249276,280.558208 C159.15099,280.558208 156.217479,278.098307 156.217479,274.171096 L156.217479,261.224247 Z" id="Path" fill-rule="nonzero"></path>
                <path d="M177.312872,279.867709 L177.312872,255.484478 C177.312872,255.182385 177.485431,254.966604 177.83055,254.966604 L180.375802,254.966604 C180.677781,254.966604 180.89348,255.182385 180.89348,255.484478 L180.89348,265.367239 C180.89348,265.669332 181.10918,265.885113 181.411159,265.885113 L187.752718,265.885113 C188.054697,265.885113 188.270397,265.669332 188.270397,265.367239 L188.270397,255.484478 C188.270397,255.182385 188.442956,254.966604 188.788075,254.966604 L191.333327,254.966604 C191.635306,254.966604 191.851005,255.182385 191.851005,255.484478 L191.851005,279.867709 C191.851005,280.169802 191.678446,280.385583 191.333327,280.385583 L188.788075,280.385583 C188.486096,280.385583 188.270397,280.169802 188.270397,279.867709 L188.270397,269.726011 C188.270397,269.423918 188.054697,269.208137 187.752718,269.208137 L181.411159,269.208137 C181.10918,269.208137 180.89348,269.423918 180.89348,269.726011 L180.89348,279.867709 C180.89348,280.169802 180.720921,280.385583 180.375802,280.385583 L177.83055,280.385583 C177.528571,280.385583 177.312872,280.169802 177.312872,279.867709 Z" id="Path" fill-rule="nonzero"></path>
                <path d="M199.83188,255.484478 C199.83188,255.182385 200.004439,254.966604 200.349558,254.966604 L209.840328,254.966604 C210.142307,254.966604 210.358006,255.182385 210.358006,255.484478 L210.358006,257.642286 C210.358006,257.944379 210.142307,258.16016 209.840328,258.16016 L203.887027,258.16016 C203.585048,258.16016 203.369349,258.375941 203.369349,258.678034 L203.369349,265.453551 C203.369349,265.755644 203.585048,265.971425 203.887027,265.971425 L209.840328,265.971425 C210.142307,265.971425 210.358006,266.187206 210.358006,266.489299 L210.358006,268.647107 C210.358006,268.9492 210.142307,269.164981 209.840328,269.164981 L203.887027,269.164981 C203.585048,269.164981 203.369349,269.380762 203.369349,269.682855 L203.369349,276.71731 C203.369349,277.019403 203.585048,277.235183 203.887027,277.235183 L209.840328,277.235183 C210.142307,277.235183 210.358006,277.450964 210.358006,277.753057 L210.358006,279.910865 C210.358006,280.212959 210.142307,280.428739 209.840328,280.428739 L200.349558,280.428739 C200.047579,280.428739 199.83188,280.212959 199.83188,279.910865 L199.83188,255.484478 Z" id="Path" fill-rule="nonzero"></path>
                <path d="M217.389804,279.867709 L217.389804,255.484478 C217.389804,255.182385 217.605503,254.966604 217.907482,254.966604 L219.848776,254.966604 C220.323315,254.966604 220.582154,255.052916 220.754713,255.398166 L228.649308,271.409102 C228.735588,271.624882 228.994427,271.53857 228.994427,271.322789 L228.994427,255.441322 C228.994427,255.139229 229.210126,254.923448 229.512105,254.923448 L232.057357,254.923448 C232.359336,254.923448 232.575036,255.139229 232.575036,255.441322 L232.575036,279.824553 C232.575036,280.126646 232.359336,280.342427 232.057357,280.342427 L230.116063,280.342427 C229.727805,280.342427 229.425826,280.256115 229.253266,279.954022 L221.272392,263.943086 C221.186112,263.727305 220.927273,263.813617 220.927273,264.029398 L220.927273,279.910865 C220.927273,280.212959 220.711573,280.428739 220.409594,280.428739 L217.864342,280.428739 C217.605503,280.385583 217.389804,280.169802 217.389804,279.867709 Z" id="Path" fill-rule="nonzero"></path>
                <path d="M139.220373,313.184266 L139.220373,301.920508 C139.220373,301.747883 139.090953,301.79104 139.004674,301.877352 L137.279079,303.430974 C137.14966,303.517286 136.9771,303.603598 136.847681,303.430974 L135.855464,302.265757 C135.726044,302.093133 135.682904,301.920508 135.855464,301.79104 L139.220373,298.770108 C139.306653,298.683796 139.392932,298.597484 139.522352,298.597484 L141.118527,298.597484 C141.291086,298.597484 141.420506,298.726952 141.420506,298.899577 L141.420506,313.14111 C141.420506,313.313735 141.334226,313.443203 141.118527,313.443203 L139.522352,313.443203 C139.349793,313.486359 139.220373,313.356891 139.220373,313.184266" id="Path" fill-rule="nonzero"></path>
                <path d="M148.452304,302.697319 L148.452304,303.646754 C148.452304,304.898283 149.358241,305.631938 150.609297,305.631938 C151.860353,305.631938 152.76629,304.898283 152.76629,303.646754 L152.76629,302.697319 C152.76629,301.359478 151.860353,300.625823 150.609297,300.625823 C149.358241,300.625823 148.452304,301.359478 148.452304,302.697319 M155.052703,302.179445 L155.052703,309.774929 C155.052703,311.846425 153.197688,313.572672 150.652437,313.572672 C148.107185,313.572672 146.252171,311.932738 146.252171,309.861242 L146.252171,309.170743 C146.252171,308.998119 146.38159,308.86865 146.55415,308.86865 L148.150325,308.86865 C148.322884,308.86865 148.452304,308.998119 148.452304,309.170743 L148.452304,309.343368 C148.452304,310.594897 149.401381,311.414864 150.609297,311.414864 C151.903493,311.414864 152.76629,310.465428 152.76629,309.213899 L152.76629,307.444497 C152.76629,307.315028 152.68001,307.271872 152.550591,307.315028 C151.946632,307.530809 151.385814,307.703434 150.609297,307.703434 C148.064045,307.703434 146.209031,306.192968 146.209031,304.121472 L146.209031,302.179445 C146.209031,300.021637 148.064045,298.468015 150.609297,298.468015 C153.197688,298.468015 155.052703,300.021637 155.052703,302.179445" id="Shape" fill-rule="nonzero"></path>
                <path d="M159.496108,310.249647 C159.496108,308.178151 161.653102,306.926623 163.162997,305.761406 C164.716032,304.553034 166.096507,303.948848 166.096507,302.869944 L166.096507,302.611007 C166.096507,301.359478 165.14743,300.625823 163.939514,300.625823 C162.688458,300.625823 161.782521,301.359478 161.782521,302.611007 L161.782521,302.869944 C161.782521,303.042568 161.653102,303.172037 161.480542,303.172037 L159.884367,303.172037 C159.711808,303.172037 159.582388,303.042568 159.582388,302.869944 L159.582388,302.093133 C159.582388,300.021637 161.437402,298.511171 163.982654,298.511171 C166.527906,298.511171 168.38292,300.021637 168.38292,302.093133 L168.38292,302.869944 C168.38292,304.941439 166.312207,306.149812 164.759172,307.358184 C163.206137,308.566557 161.825661,309.170743 161.825661,310.249647 L161.825661,311.026458 C161.825661,311.199083 161.955081,311.328551 162.12764,311.328551 L167.822102,311.328551 C167.994661,311.328551 168.124081,311.45802 168.124081,311.630644 L168.124081,313.097954 C168.124081,313.270579 167.994661,313.400047 167.822102,313.400047 L159.884367,313.400047 C159.711808,313.400047 159.582388,313.270579 159.582388,313.097954 L159.582388,310.249647 L159.496108,310.249647 Z" id="Path" fill-rule="nonzero"></path>
                <path d="M177.614851,307.74659 C177.78741,307.74659 177.91683,307.617121 177.91683,307.444497 L177.91683,302.56785 C177.91683,302.395226 177.74427,302.395226 177.657991,302.524694 L174.163662,307.530809 C174.077382,307.617121 174.163662,307.789746 174.293081,307.789746 L177.614851,307.789746 L177.614851,307.74659 Z M177.91683,313.184266 L177.91683,310.206491 C177.91683,310.033866 177.78741,309.904398 177.614851,309.904398 L172.006669,309.904398 C171.834109,309.904398 171.70469,309.774929 171.70469,309.602305 L171.70469,308.091839 C171.70469,307.876058 171.70469,307.789746 171.790969,307.617121 L177.91683,298.856421 C177.95997,298.770108 178.132529,298.683796 178.305088,298.683796 L179.814984,298.683796 C179.987543,298.683796 180.116963,298.813264 180.116963,298.985889 L180.116963,307.487653 C180.116963,307.660278 180.246382,307.789746 180.418942,307.789746 L181.842557,307.789746 C182.015117,307.789746 182.144536,307.876058 182.144536,308.091839 L182.144536,309.559149 C182.144536,309.731773 182.015117,309.861242 181.842557,309.861242 L180.418942,309.861242 C180.246382,309.861242 180.116963,309.99071 180.116963,310.163335 L180.116963,313.14111 C180.116963,313.313735 179.987543,313.443203 179.814984,313.443203 L178.218809,313.443203 C178.046249,313.486359 177.91683,313.356891 177.91683,313.184266" id="Shape" fill-rule="nonzero"></path>
                <path d="M118.815218,255.311853 C119.979994,255.311853 120.885931,256.218133 120.885931,257.426505 C120.885931,258.591722 119.936854,259.498001 118.815218,259.498001 C117.650442,259.498001 116.744505,258.591722 116.744505,257.426505 C116.787644,256.218133 117.650442,255.311853 118.815218,255.311853 Z" id="Path" fill-rule="nonzero"></path>
                <path d="M118.815218,261.698965 C119.979994,261.698965 120.885931,262.562088 120.885931,263.770461 C120.885931,264.935677 119.936854,265.885113 118.815218,265.885113 C117.650442,265.885113 116.744505,264.935677 116.744505,263.770461 C116.787644,262.605245 117.650442,261.698965 118.815218,261.698965 Z" id="Path" fill-rule="nonzero"></path>
            </g>
        </g>
    </g>
</svg>