<?xml version="1.0" encoding="UTF-8" standalone="no"?>
<!DOCTYPE svg PUBLIC "-//W3C//DTD SVG 1.1//EN" "http://www.w3.org/Graphics/SVG/1.1/DTD/svg11.dtd">
<svg xmlns:svg="http://www.w3.org/2000/svg" xmlns="http://www.w3.org/2000/svg" version="1.0" width="600.00006" height="600" id="svg2">
  <defs id="defs4"/>
  <g transform="translate(-775.34216,-16.50632)" id="layer1">
    <path d="M 775.34216,16.50632 L 1375.3422,16.50632 L 1375.3422,616.50632 L 775.34216,616.50632 L 775.34216,16.50632 z M 1155.7231,577.18278 C 1195.6068,566.79438 1238.9523,543.53852 1268.8366,516.49485 C 1299.2685,488.95555 1310.7103,469.88437 1327.9255,435.25724 L 1279.5509,409.79592 C 1256.6128,452.54352 1236.6901,476.5023 1199.9419,500.98023 L 1186.7379,485.37452 C 1186.411,484.98819 1201.8289,469.34732 1210.4651,460.5449 C 1258.9625,411.11373 1263.2549,359.08101 1221.8355,322.71427 C 1201.3029,304.6864 1172.4267,295.13003 1119.1883,288.74379 C 1065.2407,282.27248 1045.1723,276.05302 1028.7556,260.71744 C 991.07175,225.51546 1036.652,177.86981 1102.3157,183.82398 C 1132.4919,186.56028 1148.0658,189.4804 1176.2879,212.33454 C 1186.8689,220.90304 1200.226,235.74062 1202.3373,235.67233 L 1239.1883,206.27814 L 1218.4191,184.99072 C 1171.5661,136.96869 1098.6489,119.64629 1030.7049,140.39689 C 975.65705,157.20894 941.49872,196.27522 941.5322,243.61122 C 941.55024,269.10017 963.99779,295.45425 980.66617,307.14214 L 922.03868,403.3851 C 885.07186,387.39219 882.34981,361.49243 878.38851,336.58073 C 869.16153,226.40074 947.86327,126.12153 1056.8806,109.15189 C 1124.2532,98.664671 1199.1811,124.6453 1243.71,173.93337 L 1260.2573,192.24926 L 1301.496,157.76995 C 1301.496,147.77332 1246.2038,100.77728 1215.5711,84.737428 C 1169.5275,60.628205 1135.9908,52.201149 1087.1129,52.458658 C 957.62642,53.140849 849.59804,143.33531 822.93917,273.02108 C 802.21493,373.83695 850.67839,482.9112 942.92471,543.06664 C 966.16535,558.22222 1005.2309,574.15057 1036.1114,581.06192 C 1058.3773,586.04525 1130.7032,583.69961 1155.7231,577.18278 z M 946.1114,476.22644 C 1015.4699,503.25914 1064.2769,511.83393 1137.8533,501.08338 L 1145.7591,524.67713 C 1066.4635,533.42697 1011.656,529.9092 946.1114,476.22644 z M 1099.5157,397.7259 C 1104.8606,413.47074 1112.2334,428.59846 1116.8769,444.58324 C 1102.5914,450.04388 1088.7734,448.60204 1075.1867,445.73709 L 1099.5157,397.7259 z M 978.69147,426.23136 L 1003.3282,377.05111 L 1014.0219,436.23393 C 1005.1463,435.0757 997.05529,434.50576 978.69147,426.23136 z M 1137.6097,347.06193 C 1140.14,344.02118 1171.0307,352.84925 1178.516,362.47585 C 1190.745,378.20342 1179.8295,420.27268 1166.9727,419.59961 L 1137.6097,347.06193 z M 1053.7392,377.57835 L 1043.6585,330.43417 C 1052.9782,334.61703 1063.041,334.94029 1072.3606,336.67604 L 1053.7392,377.57835 z" id="path2470" style="fill:#af0036;fill-opacity:1;stroke:none;stroke-width:4;stroke-miterlimit:4;stroke-dasharray:none;stroke-opacity:1"/>
  </g>
</svg>
