<?xml version="1.0" encoding="UTF-8" standalone="no"?>
<!-- Generator: Deutscher Hockey-Bund e.V.  -->
<!DOCTYPE svg PUBLIC "-//W3C//DTD SVG 1.1//EN" "http://www.w3.org/Graphics/SVG/1.1/DTD/svg11.dtd">
<svg width="378px" height="378px" viewBox="0 0 378 378" version="1.1" xmlns="http://www.w3.org/2000/svg" xmlns:xlink="http://www.w3.org/1999/xlink">
    <g id="BAY" stroke="none" stroke-width="1" fill="none" fill-rule="evenodd">
        <g id="378-MSC" fill-rule="nonzero">
            <rect id="Background" fill="#FFFFFF" x="0" y="0" width="378" height="378"></rect>
            <path d="M0,0 L378.000025,0 L378.000025,378 L0,378 L0,0 Z M239.639992,353.22617 C264.766723,346.681478 292.074388,332.030286 310.901497,314.992774 C330.073594,297.643015 337.281928,285.628172 348.127504,263.81308 L317.651506,247.772448 C303.200503,274.703436 290.649202,289.797467 267.497836,305.218563 L259.179316,295.386966 C258.973369,295.143578 268.686646,285.28983 274.127452,279.744305 C304.680814,248.602668 307.385026,215.822055 281.290804,192.911009 C268.355266,181.55345 250.16326,175.532937 216.623068,171.509606 C182.63608,167.432681 169.992988,163.514421 159.650467,153.853006 C135.909642,131.675758 164.625199,101.658999 205.99333,105.410126 C225.004336,107.133995 234.815893,108.97367 252.595816,123.371779 C259.261846,128.769934 267.676819,138.117609 269.006938,138.074586 L292.223068,119.556247 L279.138472,106.145172 C249.621082,75.8912931 203.683246,64.9781811 160.878526,78.0510591 C126.198381,88.6426506 104.678633,113.254407 104.699725,143.076087 C104.71109,159.134126 118.853047,175.737196 129.354126,183.100567 L92.4188076,243.733631 C69.129711,233.658098 67.4148195,217.341249 64.9192005,201.646878 C59.1062031,132.233485 108.688299,69.0575823 177.369217,58.3667091 C219.813955,51.7597611 267.018532,68.1275574 295.071739,99.1790415 L305.496538,110.718052 L331.476919,88.9960869 C331.476919,82.69821 296.642833,53.0907048 277.344232,42.985598 C248.336764,27.7967875 227.208643,22.4877423 196.415566,22.6499729 C114.839084,23.0797533 46.7812044,79.9022637 29.9861163,161.604299 C16.9298451,225.118297 47.4618249,293.835074 105.577006,331.733002 C120.21861,341.281017 144.829906,351.315878 164.284621,355.670028 C178.312138,358.809526 223.877455,357.331773 239.639992,353.22617 Z M107.584621,289.623676 C151.280476,306.654277 182.028886,312.056394 228.382018,305.283548 L233.362672,320.14761 C183.406444,325.66001 148.877719,323.443814 107.584621,289.623676 Z M204.22933,240.168335 C207.596617,250.087585 212.241481,259.618048 215.166886,269.68846 C206.167021,273.128663 197.461681,272.220304 188.90206,270.415385 L204.22933,240.168335 Z M128.110065,258.126775 L143.631205,227.143218 L150.368236,264.428394 C144.776608,263.698709 139.679272,263.339647 128.110065,258.126775 Z M228.22855,208.250034 C229.822639,206.334362 249.28378,211.896046 253.999519,217.960804 C261.703789,227.869173 254.827024,254.372807 246.72724,253.948773 L228.22855,208.250034 Z M175.390135,227.475379 L169.039294,197.774546 C174.910705,200.409747 181.250269,200.613401 187.121617,201.706924 L175.390135,227.475379 Z" id="path2470" fill="#AF0036"></path>
        </g>
    </g>
</svg>