<svg xmlns="http://www.w3.org/2000/svg" viewBox="0 0 427 427"><defs><style>.cls-1{fill:#fff;stroke:#00632e;stroke-width:6.79px;}.cls-1,.cls-2{stroke-miterlimit:10;}.cls-2{fill:none;stroke:#01632e;stroke-width:6.77px;}.cls-3{fill:#00632e;}.cls-4{fill:#01632e;}</style></defs><g id="Ebene_2" data-name="Ebene 2"><g id="Logo_-_grün_NEW_2.0" data-name="Logo - grün NEW 2.0"><g id="TuS-Logo_grün_NEW2020"><circle class="cls-1" cx="213.5" cy="213.5" r="210.11" transform="translate(-88.44 213.5) rotate(-45)"/><polygon id="TuS-Dreieck" class="cls-2" points="112.79 81.39 313.88 81.39 213.34 302.49 112.79 81.39"/><path class="cls-3" d="M413.27,213.5c0,110.33-89.44,199.77-199.77,199.77S13.74,323.83,13.74,213.5,103.17,13.73,213.5,13.73,413.27,103.17,413.27,213.5ZM29.64,258.83a23.54,23.54,0,0,0,6,10.69,22.1,22.1,0,0,0,10.48,6A24.8,24.8,0,0,0,59,275.26,24.66,24.66,0,0,0,70.08,269a22.55,22.55,0,0,0,6-10.48A23.7,23.7,0,0,0,76,246.21a23.33,23.33,0,0,0-6-10.62,22.43,22.43,0,0,0-10.47-6,24.35,24.35,0,0,0-12.75.2,24.68,24.68,0,0,0-11.15,6.3,22.66,22.66,0,0,0-6.08,10.52A23.53,23.53,0,0,0,29.64,258.83Zm6.46-1.76a15.58,15.58,0,0,1-.05-8.43,14.73,14.73,0,0,1,4.42-7,19.87,19.87,0,0,1,8.32-4.36,19.56,19.56,0,0,1,9.33-.44,14.29,14.29,0,0,1,7.25,3.83,16.94,16.94,0,0,1,4.22,15.76,14.67,14.67,0,0,1-4.36,7A19.68,19.68,0,0,1,57,267.76a19.85,19.85,0,0,1-9.37.45,14.54,14.54,0,0,1-7.32-3.82A15.64,15.64,0,0,1,36.1,257.07Zm40.33,48.75a12.23,12.23,0,0,0,6.27,3,10.53,10.53,0,0,0,6.92-1.51,11.28,11.28,0,0,0,4.47-4.54,11.88,11.88,0,0,0,1.29-6.6,18.49,18.49,0,0,0-2.56-7.85L84.2,273,43.34,296.35l9,16a18.24,18.24,0,0,0,5.37,6.16,12.3,12.3,0,0,0,6.53,2.33,11.74,11.74,0,0,0,6.51-1.62,12,12,0,0,0,5.26-6A10.25,10.25,0,0,0,76.43,305.82Zm-18.9,2.86-5-8.88,12.76-7.29,4.88,8.65a9.15,9.15,0,0,1,1.26,6.38,7,7,0,0,1-3.63,4.73,6.57,6.57,0,0,1-5.65.72A8.84,8.84,0,0,1,57.53,308.68Zm24.91-26L87,290.84a8.7,8.7,0,0,1,1.29,5.94,6.27,6.27,0,0,1-3.3,4.28,6,6,0,0,1-5.34.65,8.76,8.76,0,0,1-4.35-4.19l-4.59-8.13ZM118,327.05l4.41-4.51-18.06-17.86-33,33.71,18.06,17.86,4.41-4.5-12.7-12.56,10.1-10.32L102.51,340l4.41-4.5L95.64,324.37l9.67-9.88Zm13.61,56.89.52-21.72a13.15,13.15,0,0,0,9.51-.07,14.38,14.38,0,0,0,6.64-5.72,14.19,14.19,0,0,0,2.23-7,13,13,0,0,0-2-7.23A19.26,19.26,0,0,0,142,335.8l-13.42-8.44-25,40,6.37,4,10-16,4.86,3.06-1,21.63Zm0-47.22,7,4.43c2.42,1.53,3.87,3.25,4.33,5.17a7.67,7.67,0,0,1-1.25,6,7.91,7.91,0,0,1-4.9,3.81q-3,.7-6.55-1.55l-7-4.43Zm67.19,17.6-23,32.55-8.09-39.14-7.78-2.86-13.5,45.27,8.34,2.86,9.18-31.21,6.93,34.94,5.79,1.19,19.86-29.35-4.2,32.61,9.61.63L206.82,355Zm39.95,5.24-.54-6.29-25.27,2.25L217,402.59l25.26-2.25-.55-6.29L224,395.63l-1.25-14.4,15.79-1.41-.54-6.29-15.79,1.41L221,361.14Zm39.7-20.49-7.3,3.58,14,32.08-31.76-25.41-7.78,2.06,14.21,45,8.58-2.3L256.7,359.88l33.11,25.81,7.62-3.34ZM343,271l-3.56,7.31L370.17,295l-40.68-.44-4.85,6.42,38.94,26.7,5.33-7.1-30.28-19.76,42-.08,3.95-7.32Zm-30,52.08-3.52-4.89L284.92,336l3.91,5.45,17.25-12.54,2.79,40.41,3.52,4.9,24.53-17.84L333,350.94l-17.29,12.58Zm1.53-10.82,33.61,32.88,5.26-5.42-33.61-32.88ZM369.41,229a20.9,20.9,0,0,0-12.25,5.28A24.76,24.76,0,0,0,350,258.2a22.54,22.54,0,0,0,6,10.51,25.81,25.81,0,0,0,23.84,6.52,22.65,22.65,0,0,0,10.48-6,23.5,23.5,0,0,0,6.09-10.66,22.33,22.33,0,0,0,.25-11.32,22.93,22.93,0,0,0-5-9.68,23.33,23.33,0,0,0-8.7-6.33l-5.8-1.59-6.68,24.53,5.93,1.62L381,239.11a15.42,15.42,0,0,1,7.95,7,14.34,14.34,0,0,1,.75,10.6,15.82,15.82,0,0,1-4.17,7.33,14.51,14.51,0,0,1-7.23,3.83,19.09,19.09,0,0,1-9.17-.4,18.87,18.87,0,0,1-8.07-4.31,14.58,14.58,0,0,1-4.26-7,16,16,0,0,1,.13-8.43,14.69,14.69,0,0,1,3.66-6.63,12.31,12.31,0,0,1,6.42-3.41ZM213.49,326.92,329.31,72.4h-232Z"/><g id="TuS_C" data-name="TuS C"><path class="cls-3" d="M190.7,185.15a27.06,27.06,0,0,1,10.21-10.24,29.44,29.44,0,0,1,29.75.73,25,25,0,0,1,9.93,12.5H229.75a14.66,14.66,0,0,0-5.93-6.63,17.3,17.3,0,0,0-8.79-2.19,18.88,18.88,0,0,0-9.73,2.51,17.28,17.28,0,0,0-6.69,7.2,25.94,25.94,0,0,0,0,21.84,17.57,17.57,0,0,0,6.69,7.24,18.62,18.62,0,0,0,9.73,2.55,17.3,17.3,0,0,0,8.79-2.19,14.66,14.66,0,0,0,5.93-6.63h10.84a24.86,24.86,0,0,1-9.93,12.46A28.42,28.42,0,0,1,215,228.66,27.85,27.85,0,0,1,200.87,225a27,27,0,0,1-10.17-10.23,31,31,0,0,1,0-29.6Z"/><path class="cls-3" d="M242.29,152.92a16.36,16.36,0,0,1-7-5.62,14.51,14.51,0,0,1-2.54-8.5h9.66a9,9,0,0,0,2.81,6,9.8,9.8,0,0,0,7,2.35q4.67,0,7.28-2.31a7.57,7.57,0,0,0,2.61-5.94,6.61,6.61,0,0,0-1.62-4.62,10.94,10.94,0,0,0-4-2.75,61.73,61.73,0,0,0-6.68-2.1,61.69,61.69,0,0,1-8.75-2.95,14.53,14.53,0,0,1-5.73-4.65,13.6,13.6,0,0,1-2.38-8.41,14.83,14.83,0,0,1,9-14.08,23.79,23.79,0,0,1,9.9-1.94q8,0,13.09,4.08a15.18,15.18,0,0,1,5.66,11.21h-10a7.45,7.45,0,0,0-2.85-5.26,10.34,10.34,0,0,0-6.88-2.18,9.59,9.59,0,0,0-6.33,2,7.11,7.11,0,0,0-2.46,5.82,6,6,0,0,0,1.55,4.25,11,11,0,0,0,3.91,2.63,60.52,60.52,0,0,0,6.49,2.1,68,68,0,0,1,8.9,3.07,14.93,14.93,0,0,1,5.86,4.74,13.8,13.8,0,0,1,2.41,8.53,15.61,15.61,0,0,1-2.25,8.09,16.41,16.41,0,0,1-6.57,6.11,21.38,21.38,0,0,1-10.17,2.3A24.18,24.18,0,0,1,242.29,152.92Z"/><path class="cls-3" d="M187.07,98.12v7.52H172.43v48.7h-9v-48.7H148.69V98.12Z"/><path class="cls-4" d="M200.14,113.46l.08,25c0,3,.23,5.84,1.79,7.37a7.84,7.84,0,0,0,6.1,2.23c2.82,0,4.6-.68,6.11-2.27s1.84-4.35,1.84-7.38l0-25h8.24v26.71a16.41,16.41,0,0,1-2.32,8.48,14.4,14.4,0,0,1-5.91,5.26,19.38,19.38,0,0,1-8.08,1.74,18.32,18.32,0,0,1-8-1.76,13.72,13.72,0,0,1-5.91-5.39,15.65,15.65,0,0,1-2.16-8.31V113.46Z"/></g></g></g></g></svg>