<?xml version="1.0" encoding="UTF-8" standalone="no"?>
<!-- Generator: Deutscher Hockey-Bund e.V.  -->
<svg version="1.1" id="Layer_1" xmlns="http://www.w3.org/2000/svg" xmlns:xlink="http://www.w3.org/1999/xlink" x="0px" y="0px"
	 viewBox="0 0 1366 768" style="enable-background:new 0 0 1366 768;" xml:space="preserve">
<style type="text/css">
	.st0{fill:#FDFDFD;}
	.st1{fill:#FDFEFE;}
	.st2{fill:#F5FBFA;}
	.st3{fill:#F2F8F6;}
	.st4{fill:#016EB2;}
	.st5{fill:#ECF7F6;}
	.st6{fill:#DFF4F5;}
	.st7{fill:#E3F4F6;}
	.st8{fill:#2772A1;}
	.st9{fill:#EBFDFE;}
	.st10{fill:#FDFEFD;}
	.st11{fill:#FCFDFD;}
	.st12{fill:#FAFDFC;}
	.st13{fill:#FBFDFD;}
	.st14{fill:#F5FAFA;}
	.st15{fill:#EEF6F3;}
	.st16{fill:#066DAA;}
	.st17{fill:#1B6EA2;}
	.st18{fill:#FEFCF2;}
	.st19{fill:#C0ECFC;}
	.st20{fill:#0C67B9;}
	.st21{fill:#0E688F;}
	.st22{fill:#1E6694;}
	.st23{fill:#C2F2FD;}
	.st24{fill:#8E9AA0;}
	.st25{fill:#0072BA;}
	.st26{fill:#F6FDFA;}
	.st27{fill:#FDFDF5;}
	.st28{fill:#FAFCF6;}
	.st29{fill:#BFEBF8;}
</style>
<g>
	<g>
		<path class="st0" d="M1079,399.3c0,118.9,0,237.8,0,356.7c-255.7,0-511.4,0-767.1,0c0-252,0-504,0-756c53.6,0,107.2,0,160.8,0
			c0.2,0.5,0.5,1,0.7,1.4c0.4-0.5,0.8-1,1.1-1.4C623.4,0,772.2,0,921,0c-0.4,4.9-4.2,3.7-7,3.7c-145.1,0.1-290.3,0-435.4,0
			c-1.4,0-2.8-0.1-4.1,0.1c-0.8,0.1-2,0.4-2.3,1c-2.8,4.7-6.8,7.7-12.4,8.8c0,5.7,0,11.1,0,16.6c0,1-0.3,2.1-0.9,2.9
			c-2.6,3.5-5.4,6.8-7.5,9.5c-1.3-1.9-3.1-4.6-5-7.3c-0.5,0.2-1,0.5-1.5,0.7c0.4,12.7,1.1,25.4,0.2,38.1c-2.3,6.1-4.6,12.3-7,18.4
			c-22.4,57.9-44.8,115.8-67.2,173.7c-2.2,0-4.5,0-7.7,0c3.3,12.1-2.6,21.3-6.2,31.1c0.4,0.4,0.9,1.1,1.5,1.7
			c-0.2,0.8-0.2,1.5-0.5,2.3c-10.5,30.4-20.9,60.9-31.7,91.2c-2.7,7.5-3.2,14.2,0.2,21.7c5.4,12.2,9.9,24.8,14.9,37.2
			c30.1,73.4,60.2,146.8,90.4,220.2c4.5,10.9,8.9,21.9,13.4,32.8c0.8,7.8,1.6,15.5,2.2,21.4c3.4,4.3,5.8,7.3,8.2,10.4
			c-0.7,0.6-1.8,1.4-2.8,2.2c0.3,0.5,0.5,1,0.8,1.6c1.9-0.8,3.7-1.6,5.6-2.4c0.9,1.9,2.2,3.8,2.7,5.8c1.3,5.6,4.6,6.5,9.9,6.5
			c54.7-0.2,109.5-0.2,164.2-0.1c2.8,0,4.4-0.8,5.9-3.2c7-10.8,14.3-21.4,21.4-32.1c0.9,0,1.9,0,2.8,0c0.1,0.1,0.3,0.1,0.4,0.2
			c-0.1-0.1-0.3-0.1-0.4-0.2c0.5-1.4,0.7-3.8,1.5-4c4.6-1.1,3.3-4.3,3.1-7.2l0,0c0.4-0.5,0.7-1,1.1-1.5c0.3-0.4,0.5-0.8,0.8-1.3
			c0.2,1.1,0.5,2.2,0.7,3.3c0.4,1.8,0.4,5,1.3,5.3c3.6,1.1,2.2,4.1,3.1,6.2c0.6,1.6,0.8,3.5,3.3,1.9c4,9.6,8.1,19.2,11.8,28.9
			c1.1,2.8,2.5,3.6,5.3,3.6c25.2-0.1,50.5-0.1,75.7,0.1c3.5,0,5.1-1.2,6.4-4.2c8.4-18.5,17-36.8,25.5-55.2c0.5-1,1.1-1.9,1.9-3.2
			c1,1.8,1.7,3,2.3,4.2c9.3,18.2,18.8,36.3,27.9,54.5c1.5,2.9,3.1,3.9,6.3,3.8c28.6-0.1,57.3-0.1,85.9,0c2.9,0,4.3-0.8,5.3-3.6
			c4.4-11.9,9.1-23.8,13.8-35.6c11.5-29.6,23.1-59.2,34.6-88.8c7.9-20.5,15.6-41,23.4-61.5c1.3,0.6,2.5,1.2,4.8,2.3
			c-0.7-2.8-1.2-4.7-1.9-7.4c1.7,1.2,2.6,1.9,3.6,2.7c2-3.8-0.1-6.2-2.4-8.7c0.2-0.6,0.4-1.2,0.7-1.7c0.2-0.4,0.4-0.8,0.5-1.2
			c-0.1-0.3,0-0.5,0.2-0.7c1.3,1.6,2.7,3.3,4.1,5c3.4-2.9,2.5-4.9,0.4-6.9c0.3-2.9,0.4-5.8,1-8.6c0.3-1.4,1.4-2.7,2.2-4
			c0.5,0.2,1,0.4,1.5,0.6c0-3.7,0-7.3,0-11c0-0.4-0.1-0.7-0.1-1.1c2.5-6.8,5-13.6,7.5-20.3l0,0.1c2.4-6.2,4.7-12.4,7.1-18.6
			c10-26.8,20-53.6,30-80.4c0.2-0.3,0.4-0.6,0.6-1c0,0,0,0,0,0c2,0,4,0,6.2,0c0-2.1,0-3.6,0-6.1
			C1075.5,395.6,1077.3,397.4,1079,399.3z"/>
		<path class="st1" d="M929.3,0c49.9,0,99.7,0,149.7,0c0,123.2,0,246.5,0,369.7c-1.5,1.8-3,3.6-5.2,6.3c0.5-7.5-1.1-8.6-6.8-6.3l0,0
			c-0.2-0.6-0.5-1.2-0.7-1.8c-0.6-1.3-1.2-2.5-1.7-3.8c-10.6-27-21.1-54-31.9-80.9c-9.1-22.7-18.4-45.2-27.6-67.8
			c0.5-0.3,1.5-0.5,1.5-0.8c0.1-5.4,0.1-10.8,0.1-16.2c-0.3,0-0.6,0-0.9-0.1c-0.4,1.2-0.8,2.5-1.3,3.7c-0.4-0.1-0.7-0.1-1.1-0.2
			c0-2.9,0-5.9,0-8.5c-1.3-1.2-2.5-3.2-4.1-3.6c-3.1-0.7-2.4-6.4-6.9-4.9c-5-12.3-10-24.7-15-37c-0.9-6.3,2.7-13.6-3.2-17.7
			c1.4-7.2,2.6-13.7,3.8-20.3c-0.5-0.3-1.1-0.5-1.6-0.8c-2.3,1.5-4.6,3-6.7,4.3c-2-1.8-4.4-4-7-6.3c0.4-1,1.2-2.9,1.1-3
			c-3.6-1.9-2.6-5-2.2-8c0.1-0.6-1.1-1.2-1.5-1.9c-0.7-1.2-1.2-2.6-1.8-3.9c1.3-0.3,2.7-0.6,5.1-1.2c-2.2-4.7-3.9-9.9-6.9-14.1
			c-1.2-1.6-5.3-1.2-8.1-1.7c-0.7-4.1-1.9-8.2-2.1-12.4c-0.2-3.1,0.9-6.4,1.3-9.5c0.1-0.7,0-1.7-0.5-2.1c-2.1-2.1-4.3-4.1-6.5-6.2
			c0.4-0.2,0.8-0.4,1.2-0.6c-1.1-2.7-1.6-7-3.4-7.7c-6.3-2.4-6.5-7.5-7.3-12.7c-0.2-1.3-1-2.5-1.2-3.8c-0.2-1.2-0.3-3.4,0.3-3.7
			c4.5-2,2.5-5.5,2.5-9c-1.5,0.5-2.7,0.9-4.5,1.5C928.6,4.4,929,2.2,929.3,0z"/>
		<path class="st2" d="M929.3,0c-0.3,2.2-0.6,4.4-1.1,7.2c1.8-0.6,3-1,4.5-1.5c0,3.5,1.9,7-2.5,9c-0.6,0.3-0.4,2.4-0.3,3.7
			c0.2,1.3,1,2.5,1.2,3.8c0.7,5.2,1,10.2,7.3,12.7c1.9,0.7,2.3,5,3.4,7.7c-0.4,0.2-0.8,0.4-1.2,0.6c2.2,2,4.4,4,6.5,6.2
			c0.4,0.4,0.6,1.4,0.5,2.1c-0.4,3.2-1.5,6.4-1.3,9.5c0.2,4.2,1.4,8.3,2.1,12.4c2.8,0.5,6.9,0,8.1,1.7c3,4.2,4.7,9.3,6.9,14.1
			c-2.5,0.6-3.8,0.9-5.1,1.2c0.6,1.3,1.1,2.6,1.8,3.9c0.4,0.7,1.6,1.4,1.5,1.9c-0.3,3-1.4,6.1,2.2,8c0.1,0.1-0.7,2-1.1,3
			c2.5,2.3,5,4.5,7,6.3c2.1-1.4,4.4-2.9,6.7-4.3c0.5,0.3,1.1,0.5,1.6,0.8c-1.2,6.5-2.4,13-3.8,20.3c5.9,4.1,2.3,11.4,3.2,17.7
			c-0.3-0.5-0.6-1-0.9-1.6c-18.1-43.9-36.2-87.8-54.1-131.7c-1.4-3.3-2.8-4.5-6.6-4.5c-140.8,0.1-281.5,0.1-422.3,0.1
			c-6.5,0-12.9,0.1-19.4-0.1c-2.4-0.1-3.5,0.7-4.3,3c-1.9,5.3-4.2,10.6-6.3,15.8C457.3,43.9,451.2,59,445,74
			c0.9-12.7,0.3-25.4-0.2-38.1c0.5-0.2,1-0.5,1.5-0.7c1.8,2.7,3.7,5.4,5,7.3c2.1-2.6,4.9-6,7.5-9.5c0.6-0.8,0.9-1.9,0.9-2.9
			c0.1-5.5,0-10.9,0-16.6c5.6-1.1,9.6-4,12.4-8.8c0.3-0.6,1.5-0.9,2.3-1c1.4-0.2,2.8-0.1,4.1-0.1c145.1,0,290.3,0,435.4,0
			c2.8,0,6.6,1.3,7-3.7C923.7,0,926.5,0,929.3,0z M447.9,46.2c-0.3,0.4-0.7,0.8-0.6,1c0.1,0.3,0.7,0.7,0.9,0.7
			c0.4-0.2,0.6-0.7,0.9-1.1C448.8,46.6,448.4,46.5,447.9,46.2z"/>
		<path class="st3" d="M1067,369.7c5.7-2.3,7.3-1.2,6.8,6.3c2.2-2.7,3.7-4.5,5.2-6.3c0,9.9,0,19.7,0,29.6c-1.7-1.8-3.5-3.7-5.9-6.1
			c0,2.5,0,4,0,6.1c-2.1,0-4.2,0-6.2,0C1071.8,389.4,1072.5,379.5,1067,369.7z"/>
		<path class="st2" d="M474.6,0c-0.4,0.5-0.8,1-1.1,1.4c-0.2-0.5-0.5-1-0.7-1.4C473.3,0,474,0,474.6,0z"/>
		<path class="st4" d="M1067,369.7c5.5,9.8,4.8,19.7-0.1,29.5c0,0,0,0,0,0c-0.2,0.3-0.4,0.6-0.6,1c-10,26.8-20,53.6-30,80.4
			c-1.2,0.8-3.3,1.3-3.6,2.3c-1.4,5.3-2.4,10.8-3.5,16.2c0,0,0-0.1,0-0.1c-4.9,5.9-6.5,13-7.5,20.3c0,0.4,0.1,0.7,0.1,1.1
			c-2.5,6.7-5,13.5-7.4,20.2c-0.6,1.5-1.2,3.1-1.8,4.6c-0.2,0.2-0.3,0.4-0.2,0.7c-0.2,0.4-0.4,0.8-0.5,1.2c-0.2,0.6-0.4,1.2-0.7,1.7
			c-1.4,3.7-2.7,7.5-4.1,11.2c-7.8,20.5-15.5,41.1-23.4,61.5c-11.5,29.6-23.1,59.2-34.6,88.8c-4.6,11.9-9.3,23.7-13.8,35.6
			c-1,2.8-2.4,3.6-5.3,3.6c-28.6-0.1-57.3-0.1-85.9,0c-3.2,0-4.9-0.9-6.3-3.8c-9.2-18.2-18.6-36.4-27.9-54.5
			c-0.6-1.2-1.3-2.4-2.3-4.2c-0.8,1.3-1.5,2.2-1.9,3.2c-8.5,18.4-17.1,36.7-25.5,55.2c-1.4,3-2.9,4.3-6.4,4.2
			c-25.2-0.2-50.5-0.2-75.7-0.1c-2.9,0-4.3-0.8-5.3-3.6c-3.7-9.7-7.8-19.3-11.8-28.9c-2.1-5.5-4.2-11.1-6.4-16.6
			c-0.1-0.3-1.3-0.1-2-0.1c-0.3,0.4-0.5,0.8-0.8,1.3c-0.4,0.5-0.7,1-1.1,1.5c0,0,0,0,0,0c-2.5,3.7-4.9,7.4-7.4,11.1
			c-7.2,10.7-14.4,21.4-21.4,32.1c-1.5,2.3-3.1,3.2-5.9,3.2c-54.7-0.1-109.5-0.2-164.2,0.1c-5.4,0-8.7-0.9-9.9-6.5
			c-0.5-2-1.8-3.9-2.7-5.8c-4.7-11-9.3-22.1-14-33.1c-4.5-10.9-8.9-21.9-13.4-32.8c-30.1-73.4-60.3-146.8-90.4-220.2
			c-5.1-12.3-9.5-25-14.9-37.2c-3.4-7.5-2.9-14.1-0.2-21.7c10.9-30.3,21.2-60.8,31.7-91.2c0.2-0.7,0.3-1.5,0.5-2.3
			c4.2-11,8.3-21.9,12.5-32.9c22.4-57.9,44.8-115.8,67.2-173.7c2.4-6.1,4.6-12.3,7-18.4c6.1-15,12.3-30.1,18.4-45.1
			c2.1-5.3,4.4-10.5,6.3-15.8c0.8-2.3,1.9-3.1,4.3-3c6.5,0.2,12.9,0.1,19.4,0.1c140.8,0,281.5,0,422.3-0.1c3.7,0,5.2,1.2,6.6,4.5
			c17.9,44,36,87.8,54.1,131.7c0.2,0.6,0.6,1,0.9,1.6c5,12.3,10,24.7,15,37c4.2,10.2,8.4,20.3,12.6,30.5
			c9.2,22.6,18.6,45.1,27.6,67.8c10.8,26.9,21.3,54,31.9,80.9c0.5,1.3,1.1,2.5,1.7,3.8C1066.5,368.5,1066.7,369.1,1067,369.7
			L1067,369.7z M896.8,288.4L896.8,288.4c-0.4-0.9-0.8-1.7-1.2-2.6l0.1,0c-1.7-5.4-3.3-10.8-5.2-16.2c-0.7-1.9-1.9-3.7-2.8-5.5
			c-1.6-3.1-3.1-6.2-4.6-9.3c-0.5,0.1-1,0.2-1.4,0.3c-2.1,5.3-2,10.8-0.1,16.4c0,0.7,0,1.4-0.1,2.1c-0.2,0.2-0.2,0.5,0,0.7
			c0,0.6,0,1.3,0,1.9c-0.4,1.7-1.2,3.3-1.2,5c-0.1,61.6,0,123.2,0,184.8c0,8.7,0,17.4,0,26.4c-13.7,0-26.8,0.1-39.8-0.1
			c-3.8-0.1-4.9,2-4.9,4.9c-0.1,4.3,0,8.6,0.5,12.9c0.4,3.7,0.6,7.9,2.5,10.8c2.7,4.1,4.6,7.3-1.1,11.1c0.5,0.2,1.1,0.5,1.6,0.7
			c1.6-0.9,3.2-1.7,5.2-2.7c0.3,2.3,0,4.7,0.9,6.6c1.5,2.9,3.7,5.3,5.7,7.9c0.8,1,1.9,1.7,2.8,2.6l0,0c-0.6,5,1.7,9.6,5.7,11l0,0
			c0.6,1.2,1.3,2.5,1.9,3.7l0,0c-0.8,2.9-1.5,5.8-2.3,8.6c0.5,0.1,0.9,0.2,1.4,0.3c0.5-1.2,0.9-2.4,1.4-3.6c1.2,0.5,2.1,0.8,3,1.2
			l0,0c0.9,1.9,1.9,3.7,2.8,5.6l0,0c0.3,0.6,0.7,1.3,1,1.9l0-0.1c-0.2,3.6,0.8,6.6,4.5,8.4c1.8-1.8,5.4-4.8,5.1-5.1
			c-2.4-3.5,1-6.5,0.4-9.7c-0.1-0.3,0-0.5,0.1-0.7c0.3-0.6,0.6-1.3,0.9-1.9l0,0c0.6-1.4,1.1-2.8,1.7-4.1
			c8.1-20.4,16.1-40.8,24.2-61.2c13.5-33.6,27-67.2,40.4-100.8c0.6-1.6,0.7-4,0-5.5c-7.7-17.1-15.7-34-23.5-51
			c-6.3-13.8-12.5-27.6-18.8-41.5c-0.1-2.6,1-5.7-3-6.4l0.1-0.2l-0.1,0.2c1.1-2.8,1.5-5.3-2.7-5.7l0,0
			C897.4,289.7,897.1,289.1,896.8,288.4z M617.1,568.2c-0.2-0.6-0.5-1.2-0.7-1.8c-2.4-5.5-4.8-11.1-7.2-16.6
			c-0.4,0.1-0.7,0.1-1.1,0.2c0,9,0,17.9,0,27.3c-28.4,0-56.1,0-84.5,0c0,5.2,0.2,9.9-0.1,14.6c-0.3,4.9,0.9,9.3,3.2,13.6
			c6.4,12.3,12.6,24.6,18.6,37.1c1.5,3.2,3.1,4.5,6.8,4.4c28.5-0.2,56.9-0.1,85.4-0.1c4.6,0,9.1,0,14.5,0
			c-5.1-11.5-10-22.4-14.9-33.2c-4.3-9.6-8.5-19.2-12.8-28.8c0.1-0.3,0-0.5-0.2-0.8c-0.2-0.4-0.4-0.8-0.6-1.3c0.1-0.2,0-0.4-0.2-0.6
			C621.2,577.6,619.1,572.9,617.1,568.2L617.1,568.2z M733.6,547.1c2.4,4.9,4.7,9.8,7.1,14.8c3.6,7.9,7.2,15.8,11.2,24.6
			c13.3-31.5,26.1-62,39.2-93.2c-7.9,0-14.8,0-21.7,0c0-40.7,0-81.5,0-122.4c-1.6-0.1-2.7-0.3-3.7-0.3c-51.1,0-102.2,0-153.4,0
			c-1.3,0-2.5,0.6-3.8,1c-0.3,1-0.9,1.9-0.9,2.9c-0.1,14.2-0.1,28.5,0,42.7c0,1.1,0.7,2.2,1.1,3.2c21.7,0,43.5,0.1,65.2,0.1
			c17.4,37,34.8,73.9,52.2,110.9c0.2,0.3,0.4,0.6,0.6,0.9l0,0c2.2,4.6,4.4,9.2,6.5,13.7C733.5,546.5,733.5,546.8,733.6,547.1z
			 M829.4,111.9c-1.7-0.4-3.4-1-5.1-1c-31.2-0.1-62.4,0.2-93.6-0.2c-5.9-0.1-13.3,1.6-16.6-6.3c-0.3-0.6-1.9-0.6-2.9-0.9
			c-7.4-7.7-14.9-15.4-22.6-23.5c-9.8,10.2-19.5,20.2-29.1,30.2c-0.4,0.4-0.9,0.9-1.3,1.3c-0.2,0-0.4,0.1-0.6,0.3
			c-33,0-66.1-0.1-99.1-0.1c-2,0-4.2-0.2-4.2,2.8c-5.6,15.7-11.2,31.5-16.7,47.2c-2.1,6-4.1,12-6.4,18.5c25.9,0,51.2,0,76.4,0
			c0,28.6,0.1,57.1,0.2,85.7c0,1.8,0.6,3.7,1,5.5c0.9,0.1,1.8,0.2,2.7,0.3c1.8,0.3,3.6,0.7,5.3,0.7c49.1,0,98.2,0,147.3,0
			c1.5,0,2.9-0.5,4.4-0.8c0.3-1.7,0.9-3.4,0.9-5.2c0-29.8,0-59.5,0-89.3l0.1-0.1c27.9,0,55.8,0,84.6,0c-3.5-8.7-6.7-16.7-9.9-24.8
			c-4.7-12.4-9.4-24.7-14-37.1c-0.3-0.9-0.6-1.8-0.8-2.8C829.5,112.5,829.5,112.2,829.4,111.9z M475.5,746.7c0,0.3,0,0.6,0,0.9
			c53.3,0,106.6,0,159.9,0c0.4-0.1,0.8-0.2,1.7-0.5c-0.9-0.2-1.3-0.4-1.7-0.5c0.4-1,0.9-2.1,1.4-3.4c-54.1,0-107.9,0-161.9,0
			C475.1,744.7,475.3,745.7,475.5,746.7z M474.6,317.9c-0.2,0.7-0.4,1.5-0.7,2.2C463.5,345,453,370,442.8,395c-0.8,2-1,5-0.1,6.8
			c13,26.5,26.2,52.9,39.3,79.3c0.6,1.1,1.3,2.1,2.3,3.8c0-63.3,0-125.7,0-188.1c-0.3-0.1-0.7-0.2-1-0.3c-1.3,3.2-2.7,6.4-4,9.6
			c-1.4-1.3-2.7-2.6-4.8-4.6c0.4,2.1,0.8,3.5,1,5c0.2,1.6,0.3,3.2,0.1,4.8C475.4,313.4,474.9,315.6,474.6,317.9z M623.1,274
			c0,0.3,0,0.6,0,0.9c43.9,0,87.8,0,131.8,0c0-0.3,0-0.6,0-0.9C710.9,274,667,274,623.1,274z M873.2,491.3c0-0.3,0-0.6,0-0.9
			c-9.4,0-18.9,0-28.3,0c0,0.3,0,0.6,0,0.9C854.3,491.3,863.8,491.3,873.2,491.3z M856.4,561c-0.8-0.7-1.1-1.3-1.6-1.4
			c-0.3-0.1-1.1,0.6-1.1,0.8c0.1,0.5,0.5,1.1,0.9,1.2C855,561.8,855.6,561.4,856.4,561z M834.8,489.1c-0.4-0.4-0.6-0.8-0.9-0.9
			c-0.3-0.1-0.8,0.2-1.1,0.3c0.2,0.4,0.4,0.9,0.8,1.1C833.7,489.7,834.2,489.4,834.8,489.1z"/>
		<path class="st5" d="M445,704.3c4.7,11,9.3,22.1,14,33.1c-1.9,0.8-3.7,1.6-5.6,2.4c-0.3-0.5-0.5-1-0.8-1.6c1-0.8,2.1-1.6,2.8-2.2
			c-2.4-3-4.8-6-8.2-10.4C446.5,719.8,445.7,712.1,445,704.3z"/>
		<path class="st6" d="M370.8,266.1c-4.2,11-8.3,21.9-12.5,32.9c-0.6-0.7-1.1-1.3-1.5-1.7c3.7-9.8,9.5-19.1,6.2-31.1
			C366.4,266.1,368.6,266.1,370.8,266.1z"/>
		<path class="st6" d="M1014.3,540.7c2.5-6.7,5-13.5,7.4-20.2c0,3.7,0,7.3,0,11c-0.5-0.2-1-0.4-1.5-0.6c-0.7,1.3-1.9,2.6-2.2,4
			c-0.6,2.8-0.7,5.7-1,8.6C1016.1,542.5,1015.2,541.6,1014.3,540.7z"/>
		<path class="st7" d="M672.3,700.5c0.7,0,1.9-0.1,2,0.1c2.2,5.5,4.3,11,6.4,16.6c-2.4,1.6-2.6-0.4-3.3-1.9
			c-0.9-2.1,0.6-5.1-3.1-6.2c-0.9-0.3-0.9-3.5-1.3-5.3C672.8,702.7,672.5,701.6,672.3,700.5z"/>
		<path class="st7" d="M1007,560.1c1.4-3.7,2.7-7.5,4.1-11.2c2.2,2.5,4.4,4.9,2.4,8.7c-1-0.8-1.9-1.4-3.6-2.7
			c0.7,2.8,1.2,4.6,1.9,7.4C1009.5,561.3,1008.3,560.7,1007,560.1z"/>
		<path class="st8" d="M1029.2,499.2c1.1-5.4,2.1-10.9,3.5-16.2c0.3-1,2.4-1.6,3.6-2.3C1033.9,486.8,1031.5,493,1029.2,499.2z"/>
		<path class="st8" d="M1021.7,519.4c1-7.3,2.6-14.5,7.5-20.3C1026.7,505.9,1024.2,512.7,1021.7,519.4z"/>
		<path class="st9" d="M1014.3,540.7c0.9,0.9,1.8,1.8,2.7,2.7c2.1,2,3,4-0.4,6.9c-1.4-1.7-2.8-3.4-4.1-5
			C1013.1,543.7,1013.7,542.2,1014.3,540.7z"/>
		<path class="st7" d="M663.1,714.4c2.5-3.7,4.9-7.4,7.4-11.1c0.3,2.9,1.5,6.1-3.1,7.2c-0.8,0.2-1,2.6-1.5,4l0,0
			C664.9,714.4,664,714.4,663.1,714.4z"/>
		<path class="st7" d="M670.4,703.3c0.4-0.5,0.7-1,1.1-1.5C671.1,702.3,670.8,702.8,670.4,703.3z"/>
		<path class="st7" d="M1011.8,547.1c0.2-0.4,0.4-0.8,0.5-1.2C1012.2,546.3,1012,546.7,1011.8,547.1z"/>
		<path class="st7" d="M665.9,714.4c0.1,0.1,0.3,0.1,0.4,0.2C666.1,714.5,666,714.5,665.9,714.4
			C665.9,714.4,665.9,714.4,665.9,714.4z"/>
		<path class="st3" d="M1066.3,400.2c0.2-0.3,0.4-0.6,0.6-1C1066.7,399.5,1066.5,399.8,1066.3,400.2z"/>
		<path class="st5" d="M1005,215.3c-4.2-10.2-8.4-20.3-12.6-30.5c4.4-1.5,3.7,4.2,6.9,4.9c1.6,0.4,2.8,2.4,4.1,3.6
			c0,2.7,0,5.6,0,8.5c0.4,0.1,0.7,0.1,1.1,0.2c0.4-1.2,0.8-2.5,1.3-3.7c0.3,0,0.6,0,0.9,0.1c0,5.4,0,10.8-0.1,16.2
			C1006.5,214.8,1005.5,215.1,1005,215.3z"/>
		<path class="st3" d="M1067,369.7c-0.2-0.6-0.5-1.2-0.7-1.8C1066.5,368.5,1066.7,369.1,1067,369.7z"/>
		<path class="st0" d="M447.9,46.2c0.5,0.2,0.9,0.4,1.2,0.6c-0.3,0.4-0.6,0.8-0.9,1.1c-0.1,0.1-0.8-0.4-0.9-0.7
			C447.3,47,447.7,46.6,447.9,46.2z"/>
		<path class="st10" d="M607.5,180.3c-25.2,0-50.5,0-76.4,0c2.2-6.5,4.3-12.5,6.4-18.5c5.5-15.8,11.1-31.5,16.7-47.2
			c4.4-0.6,8.7-1.7,13.1-1.7c28.5-0.2,56.9-0.1,85.4-0.1c1.6,0,3.2-0.5,4.8-0.8c0.1-0.2,0.3-0.3,0.6-0.3c0.4-0.4,0.9-0.9,1.3-1.3
			c9.7-10,19.3-20,29.1-30.2c7.7,8,15.2,15.7,22.6,23.5c2.5,2.8,5,5.6,7.5,8.4c0.6,0.3,1.2,0.5,1.8,0.8c-0.8,1.7-1.5,3.3-2.6,5.5
			c2,0,3.7,0,5.3,0c5.3-0.6,10.7-1.7,16-1.8c28.4-0.2,56.8-0.1,85.2-0.1c1.9,0,3.9-0.6,5.8-0.8c4.7,12.4,9.4,24.7,14,37.1
			c0.6,6.1,0.8,12.3,2,18.3c1.1,5.6,1.4,5.6-4.4,5.6c-22.4,0-44.8,0-67.2,0c-1.7,0-3.5,0.6-5.2,0.8c0,0-0.1,0.1-0.1,0.1
			c-1.2,0-2.5,0-3.7,0c-6.4,0-6.4,0-6.4,6.5c0,27.4,0,54.8,0,82.2l0,0c-46.2,0-92.3,0-137.9,0c0.1,1.5,0.2,2.8,0.3,4.2
			c-2.3,0-6.3,0.5-6.5,0c-1.2-4.3-4.4-1.5-6.5-2.3c-0.1-27.7-0.1-55.4-0.2-83.1C608.5,183.4,607.9,181.8,607.5,180.3z M616,266.8
			c0-0.1,0-0.3,0-0.4c-1.2,0-2.5,0-3.7,0c0,0.1,0,0.3,0,0.4C613.5,266.8,614.7,266.8,616,266.8z"/>
		<path class="st11" d="M726.2,531.5c-17.4-37-34.8-73.9-52.2-110.9c-0.2-0.3-0.5-0.6-0.7-0.9c-1.3-0.6-2.5-1.2-3.8-1.8
			c-0.2,0-0.5,0-0.7,0c-2.1-0.7-4.2-1.8-6.4-1.9c-11.2-0.2-22.5,0.1-33.7-0.2c-5.1-0.2-10.1-1.4-15-2.2c-1.5-12.1-0.5-24.9,2.4-32.9
			c3.5,0,7,0,10.4,0c42.2,0,84.3,0,126.5,0c6.3,0,6.3,0,6.3,6.1c0,32.2,0,64.3,0,96.5c0,2.7-0.1,5.1,3.7,4.6l0,0
			c0.2,1.3,0.4,2.7,0.6,4c0.7,3.4,2.3,4.1,4.9,1.5c0.3-0.1,0.6-0.1,1-0.2c6.9,0,13.8,0,21.7,0c-13.1,31.2-25.9,61.6-39.2,93.2
			c-4-8.8-7.6-16.7-11.2-24.6c0-5.3,0.1-10.6-0.1-15.9c0-1.2-1.1-2.3-1.8-3.5c-0.1-1.8-0.2-3.5-0.3-5.2c-2.3-0.3-4.1-0.5-6-0.8
			c0.1-1.5,0.2-2.6,0.3-4.2c-2.2,0-4.1,0-6.1,0c0,0,0,0,0,0C726.6,532.1,726.4,531.8,726.2,531.5z"/>
		<path class="st12" d="M881.5,276.3c0-0.6,0-1.3,0-1.9c0,0,0.2-0.4,0.2-0.4l-0.2-0.3c0-0.7,0-1.4,0.1-2.1c0.2-4.1,0.4-8.2,0.7-13.6
			c4.9,10.1,9.2,19,13.4,27.9c0,0-0.1,0-0.1,0c0.4,0.9,0.8,1.7,1.2,2.6c0,0,0,0,0,0c0.3,0.6,0.6,1.3,0.9,1.9c0,0,0,0,0,0
			c0.9,1.9,1.8,3.8,2.7,5.7l0.1-0.2c0,0-0.1,0.2-0.1,0.2c1,2.1,2,4.3,3,6.4c6.3,13.8,12.5,27.7,18.8,41.5c7.8,17,15.8,34,23.5,51
			c0.7,1.6,0.7,3.9,0,5.5c-13.4,33.6-27,67.2-40.4,100.8c-8.2,20.4-16.2,40.8-24.2,61.2c-0.6,1.4-1.1,2.8-1.7,4.1c0,0,0,0,0,0
			c-0.3,0.6-0.6,1.3-0.9,1.9c-0.2,0.2-0.2,0.4-0.1,0.7c-1.9,4.3-3.9,8.6-6,13.2c-1.5-2.6-2.8-4.6-4-6.7c0,0,0,0.1,0,0.1
			c-0.3-0.6-0.7-1.3-1-1.9c0,0,0,0,0,0c-0.9-1.9-1.9-3.7-2.8-5.6c0,0,0,0,0,0c-1.2-2.2-2.4-4.4-3.5-6.6c0,0,0,0,0,0
			c-0.6-1.2-1.3-2.5-1.9-3.7c0,0,0,0,0,0c-1.9-3.7-3.8-7.4-5.7-11c0,0,0,0,0,0c-0.5-1.3-1-2.5-1.6-3.8c-4.4-8.9-8.9-17.7-13.4-26.6
			c0-5.1,0.4-10.3,0-15.4c-0.4-4.5,0.7-7.2,5.6-7.4c10.5,0,21,0,31.4,0c1.5,0,3.1,0,4.6,0c0.8-0.5,1.5-0.9,2.3-1.4
			c0-0.9,0-1.8,0-2.7c0-0.6,0-1.2,0-1.9c0.2-1.6,0.6-3.3,0.6-4.9c0-55.9,0-111.7-0.1-167.6c0-1.6-0.5-3.2-0.7-4.9
			C882,299.1,881.8,287.7,881.5,276.3z"/>
		<path class="st13" d="M637.1,613.7c4.9,10.9,9.8,21.8,14.9,33.2c-5.3,0-9.9,0-14.5,0c-28.5,0-56.9-0.1-85.4,0.1
			c-3.7,0-5.3-1.2-6.8-4.4c-6-12.5-12.2-24.8-18.6-37.1c-2.3-4.3-3.5-8.7-3.2-13.6c0.3-4.7,0.1-9.4,0.1-14.6c28.3,0,56.1,0,84.5,0
			c0-9.4,0-18.4,0-27.3c0.4-0.1,0.7-0.1,1.1-0.2c2.4,5.5,4.8,11.1,7.2,16.6c-0.3,0.4-0.6,0.9-0.9,1.3c0.5,0.2,1.1,0.3,1.6,0.5
			c0,0,0,0,0,0c-0.2,1-0.4,2.1-0.7,3.1c-1.8,5.8,0.6,9.5,6.9,10.9c0.2,0.1,0.3,0.3,0.2,0.6c0.2,0.4,0.4,0.8,0.6,1.3
			c0.2,0.2,0.3,0.5,0.2,0.8c-0.5,2.1-1.1,4.1-1.6,6.2c-1.6,6.4-0.4,9.5,4.9,11.8c-0.3,1-0.6,2-0.8,2.8c1.2,0.8,2.2,1.4,3.1,2.1
			C632.3,609.6,634.7,611.7,637.1,613.7z"/>
		<path class="st14" d="M479.3,306c1.3-3.2,2.7-6.4,4-9.6c0.3,0.1,0.7,0.2,1,0.3c0,62.4,0,124.8,0,188.1c-1-1.7-1.8-2.7-2.3-3.8
			c-13.2-26.4-26.4-52.8-39.3-79.3c-0.9-1.8-0.7-4.8,0.1-6.8c10.2-25,20.7-50,31.1-74.9c0.3-0.7,0.5-1.4,0.7-2.2
			C476.1,313.9,477.7,309.9,479.3,306z"/>
		<path class="st15" d="M608.7,268c2,0.8,5.3-2,6.5,2.3c0.1,0.6,4.2,0,6.5,0c-0.1-1.4-0.2-2.7-0.3-4.2c45.5,0,91.7,0,137.9,0
			c-0.6,1.2-1.3,2.5-1.9,3.7c0.3,0.4,0.5,0.8,0.8,1.1c1.5-0.6,3-1.1,4.5-1.7c-1.1-1.1-2.2-2.1-3.3-3.2c0-27.4,0-54.8,0-82.2
			c0-6.5,0-6.5,6.4-6.5c1.2,0,2.5,0,3.7,0c0,29.8,0,59.5,0,89.3c0,1.7-0.6,3.4-0.9,5.2c-0.9-0.1-1.8-0.2-2.8-0.2
			c-39.1,0-78.2,0-117.3,0c-12.3,0-24.6,0.1-36.9,0.2c-0.9-0.1-1.8-0.2-2.7-0.3C608.7,270.4,608.7,269.2,608.7,268z"/>
		<path class="st16" d="M635.4,747.7c-53.3,0-106.6,0-159.9,0c0-0.3,0-0.6,0-0.9c-0.2-1-0.4-2-0.6-3.4c54,0,107.8,0,161.9,0
			c-0.6,1.3-1,2.3-1.4,3.4C635.4,747.1,635.4,747.4,635.4,747.7z"/>
		<path class="st17" d="M875.7,493.9c-10.5,0-21,0-31.4,0c-2,0-4.1,0-6.8,0c0.4,7.9,0.8,15.3,1.2,22.8c4.5,8.9,8.9,17.7,13.4,26.6
			c0.6,1.2,1.1,2.5,1.6,3.8c-0.9-0.9-2-1.6-2.8-2.6c-2-2.5-4.2-5-5.7-7.9c-0.9-1.8-0.7-4.2-0.9-6.6c-1.9,1-3.5,1.9-5.2,2.7
			c-0.5-0.2-1.1-0.5-1.6-0.7c5.8-3.8,3.8-7,1.1-11.1c-1.9-2.9-2.1-7.1-2.5-10.8c-0.5-4.3-0.5-8.6-0.5-12.9c0.1-3,1.2-5,4.9-4.9
			c13.1,0.2,26.1,0.1,39.8,0.1c0-9,0-17.7,0-26.4c0-61.6,0-123.2,0-184.8c0-1.7,0.8-3.3,1.2-5c0.3,11.4,0.5,22.8,0.8,34.2
			c-0.1,0.9-0.2,1.8-0.2,2.8c0,50.1,0,100.2,0.1,150.3c0,8.1,0.2,16.3,0.3,24.4c0,0.6,0,1.2,0,1.9c0,0.9,0,1.8,0,2.7
			c-0.8,0.5-1.5,0.9-2.3,1.4C878.8,493.9,877.2,493.9,875.7,493.9z"/>
		<path class="st18" d="M830.2,115.6c-1.9,0.3-3.9,0.8-5.8,0.8c-28.4,0.1-56.8-0.1-85.2,0.1c-5.3,0-10.7,1.1-16,1.8
			c0.9-1.8,1.9-3.6,2.8-5.4c34.5,0,68.9,0,103.4-0.1C829.6,113.7,829.9,114.6,830.2,115.6z"/>
		<path class="st19" d="M668.8,417.8c0.2,0,0.5,0,0.7,0c1.3,0.6,2.5,1.2,3.8,1.8c0.2,0.3,0.5,0.6,0.7,0.9c-21.7,0-43.5-0.1-65.2-0.1
			c-0.1-16.3-0.1-32.6-0.2-48.8c1.3-0.3,2.5-1,3.8-1c51.1,0,102.2,0,153.4,0c1,0,2.1,0.2,3.7,0.3c0,41,0,81.7,0,122.4
			c-0.3,0.1-0.6,0.1-1,0.2c0-3.2,0-6.3,0-9.5c0-35.4,0-70.7,0-106.1c-0.1-2.1-0.2-4.1-0.3-6.1c-53.1,0-105.6,0-158.2,0
			c0,14.3,0.1,28.2-0.1,42.2c-0.1,5,2.6,5.6,6.5,5.6c13.5-0.1,27.1,0.1,40.6-0.1C661,419.5,664.9,418.4,668.8,417.8z"/>
		<path class="st20" d="M623.1,274c43.9,0,87.8,0,131.8,0c0,0.3,0,0.6,0,0.9c-43.9,0-87.8,0-131.8,0
			C623.1,274.6,623.1,274.3,623.1,274z"/>
		<path class="st15" d="M769.4,177.4c1.7-0.3,3.5-0.8,5.2-0.8c22.4-0.1,44.8,0,67.2,0c5.8,0,5.4,0,4.4-5.6c-1.1-6-1.4-12.2-2-18.3
			c3.2,8,6.4,16.1,9.9,24.8C825.2,177.4,797.3,177.4,769.4,177.4z"/>
		<path class="st5" d="M637.1,613.7c-2.4-2-4.9-4-7.3-6c-0.9-0.7-1.9-1.3-3.1-2.1c0.2-0.8,0.5-1.8,0.8-2.8
			c-5.2-2.2-6.5-5.4-4.9-11.8c0.5-2.1,1.1-4.1,1.6-6.2C628.6,594.5,632.9,604.1,637.1,613.7z"/>
		<path class="st21" d="M611.4,271.9c12.3-0.1,24.6-0.2,36.9-0.2c39.1,0,78.2,0,117.3,0c0.9,0,1.8,0.1,2.8,0.2
			c-1.5,0.3-2.9,0.8-4.4,0.8c-49.1,0-98.2,0-147.3,0C614.9,272.6,613.2,272.1,611.4,271.9z"/>
		<path class="st22" d="M718.6,112c-2.5-2.8-5-5.6-7.5-8.4c1,0.3,2.7,0.3,2.9,0.9c3.4,7.9,10.7,6.3,16.6,6.3
			c31.2,0.4,62.4,0.2,93.6,0.2c1.7,0,3.4,0.7,5.1,1C792.5,112,755.5,112,718.6,112z"/>
		<path class="st23" d="M718.6,112c36.9,0,73.9,0,110.8,0c0.1,0.3,0,0.6-0.1,0.8c-34.5,0-68.9,0-103.4,0.1c-1.9,0-3.7,0-5.6-0.1
			C719.8,112.5,719.2,112.2,718.6,112z"/>
		<path class="st23" d="M657.5,111.9c-1.6,0.3-3.2,0.8-4.8,0.8c-28.5,0.1-56.9,0-85.4,0.1c-4.4,0-8.7,1.1-13.1,1.7
			c0-3,2.2-2.8,4.2-2.8C591.5,111.8,624.5,111.9,657.5,111.9z"/>
		<path class="st17" d="M895.6,285.9c-4.3-8.9-8.5-17.8-13.4-27.9c-0.3,5.4-0.5,9.5-0.7,13.6c-1.9-5.6-2-11,0.1-16.4
			c0.5-0.1,1-0.2,1.4-0.3c1.5,3.1,3.1,6.2,4.6,9.3c0.9,1.8,2.1,3.6,2.8,5.5C892.3,275,893.9,280.5,895.6,285.9z"/>
		<path class="st24" d="M608.7,268c0,1.2,0,2.4-0.1,3.5c-0.3-1.8-1-3.7-1-5.5c-0.1-28.6-0.1-57.1-0.2-85.7c0.4,1.5,1,3.1,1,4.6
			C608.6,212.6,608.7,240.3,608.7,268z"/>
		<path class="st5" d="M726.8,532.4c1.9,0,3.9,0,6.1,0c-0.1,1.6-0.2,2.7-0.3,4.2c1.9,0.2,3.7,0.5,6,0.8c0.1,1.7,0.2,3.4,0.3,5.2l0,0
			c-2.3,0.6-5.5-0.3-5.5,3.6C731.2,541.5,729,537,726.8,532.4z"/>
		<path class="st5" d="M738.9,542.5c0.6,1.2,1.7,2.3,1.8,3.5c0.2,5.3,0.1,10.6,0.1,15.9c-2.4-4.9-4.7-9.8-7.1-14.8
			C737.2,547.6,737.6,544.6,738.9,542.5L738.9,542.5z"/>
		<path class="st16" d="M873.2,491.3c-9.4,0-18.9,0-28.3,0c0-0.3,0-0.6,0-0.9c9.4,0,18.9,0,28.3,0
			C873.2,490.7,873.2,491,873.2,491.3z"/>
		<path class="st7" d="M623.3,582.3c-6.4-1.5-8.7-5.1-6.9-10.9c0.3-1,0.5-2.1,0.7-3.1C619.1,572.9,621.2,577.6,623.3,582.3z"/>
		<path class="st17" d="M868.4,575.7c1.2,2.1,2.5,4.1,4,6.7c2.1-4.7,4.1-8.9,6-13.2c0.6,3.2-2.8,6.2-0.4,9.7
			c0.3,0.4-3.3,3.3-5.1,5.1C869.1,582.2,868.2,579.2,868.4,575.7z"/>
		<path class="st22" d="M608.6,371.6c0.1,16.3,0.1,32.6,0.2,48.8c-0.4-1.1-1.1-2.2-1.1-3.2c-0.1-14.2-0.1-28.5,0-42.7
			C607.7,373.5,608.3,372.6,608.6,371.6z"/>
		<path class="st17" d="M479.3,306c-1.6,4-3.2,7.9-4.8,11.9c0.4-2.2,0.8-4.5,1-6.7c0.1-1.6,0-3.2-0.1-4.8c-0.2-1.5-0.6-2.9-1-5
			C476.6,303.3,477.9,304.7,479.3,306z"/>
		<path class="st17" d="M853.6,547c1.9,3.7,3.8,7.4,5.7,11C855.3,556.6,852.9,552,853.6,547z"/>
		<path class="st17" d="M861.1,561.7c1.2,2.2,2.4,4.4,3.5,6.6c-0.9-0.4-1.8-0.7-3-1.2c-0.5,1.2-0.9,2.4-1.4,3.6
			c-0.5-0.1-0.9-0.2-1.4-0.3C859.6,567.5,860.4,564.6,861.1,561.7z"/>
		<path class="st11" d="M738.9,542.5c-1.3,2.1-1.7,5.1-5.3,4.6c-0.1-0.3-0.2-0.7-0.3-1C733.4,542.2,736.6,543.1,738.9,542.5z"/>
		<path class="st17" d="M900.4,296c-0.9-1.9-1.8-3.8-2.7-5.7C901.8,290.7,901.5,293.1,900.4,296z"/>
		<path class="st17" d="M903.3,302.4c-1-2.1-2-4.3-3-6.4C904.3,296.7,903.2,299.8,903.3,302.4z"/>
		<path class="st17" d="M864.6,568.3c0.9,1.9,1.9,3.7,2.8,5.6C866.5,572,865.6,570.2,864.6,568.3z"/>
		<path class="st17" d="M856.4,561c-0.8,0.3-1.4,0.8-1.7,0.6c-0.4-0.2-0.9-0.8-0.9-1.2c0-0.3,0.8-0.9,1.1-0.8
			C855.3,559.7,855.6,560.3,856.4,561z"/>
		<path class="st17" d="M859.2,558c0.6,1.2,1.3,2.5,1.9,3.7C860.5,560.5,859.9,559.3,859.2,558z"/>
		<path class="st17" d="M834.8,489.1c-0.6,0.2-1,0.6-1.2,0.5c-0.4-0.2-0.5-0.7-0.8-1.1c0.4-0.1,0.8-0.4,1.1-0.3
			C834.2,488.3,834.4,488.7,834.8,489.1z"/>
		<path class="st17" d="M879.4,566.5c0.6-1.4,1.1-2.8,1.7-4.1C880.5,563.8,879.9,565.2,879.4,566.5z"/>
		<path class="st7" d="M617.1,568.2c-0.5-0.2-1.1-0.3-1.6-0.5c0.3-0.4,0.6-0.9,0.9-1.3C616.6,567,616.9,567.6,617.1,568.2z"/>
		<path class="st17" d="M896.8,288.4c-0.4-0.9-0.8-1.7-1.2-2.6C896,286.7,896.4,287.6,896.8,288.4z"/>
		<path class="st17" d="M878.5,568.4c0.3-0.6,0.6-1.3,0.9-1.9C879.1,567.1,878.8,567.8,878.5,568.4z"/>
		<path class="st17" d="M897.7,290.3c-0.3-0.6-0.6-1.3-0.9-1.9C897.1,289.1,897.4,289.7,897.7,290.3z"/>
		<path class="st25" d="M635.4,747.7c0-0.3,0-0.6,0-0.9c0.4,0.1,0.8,0.2,1.7,0.5C636.2,747.5,635.8,747.6,635.4,747.7z"/>
		<path class="st17" d="M867.4,573.8c0.3,0.6,0.7,1.3,1,1.9C868.1,575.1,867.7,574.5,867.4,573.8z"/>
		<path class="st23" d="M659.4,110.2c-0.4,0.4-0.9,0.9-1.3,1.3C658.5,111.1,659,110.7,659.4,110.2z"/>
		<path class="st7" d="M624.2,584.1c-0.2-0.4-0.4-0.8-0.6-1.3C623.7,583.2,623.9,583.7,624.2,584.1z"/>
		<path class="st17" d="M881.5,273.7l0.2,0.3c0,0-0.2,0.4-0.2,0.4C881.3,274.2,881.3,273.9,881.5,273.7z"/>
		<path class="st5" d="M726.2,531.5c0.2,0.3,0.4,0.6,0.6,0.9C726.6,532.1,726.4,531.8,726.2,531.5z"/>
		<path class="st25" d="M475.5,746.7c0,0.3,0,0.6,0,0.9C475.5,747.4,475.5,747.1,475.5,746.7z"/>
		<path class="st9" d="M720.4,112.8c1.9,0,3.7,0,5.6,0.1c-0.9,1.8-1.9,3.6-2.8,5.5c-1.6,0-3.3,0-5.3,0
			C718.9,116.1,719.6,114.4,720.4,112.8z"/>
		<path class="st15" d="M616,266.8c-1.2,0-2.5,0-3.7,0c0-0.1,0-0.3,0-0.4c1.2,0,2.5,0,3.7,0C616,266.6,616,266.7,616,266.8z"/>
		<path class="st26" d="M668.8,417.8c-3.9,0.6-7.8,1.6-11.7,1.7c-13.5,0.2-27.1,0-40.6,0.1c-4,0-6.6-0.6-6.5-5.6
			c0.2-13.9,0.1-27.9,0.1-42.2c52.6,0,105.1,0,158.2,0c0.1,2,0.2,4.1,0.3,6.1c-5.1-1.8-3.6,2.3-3.6,4.4c-0.1,33.6,0,67.1-0.1,100.7
			c0,1.7-1.2,3.3-1.8,5c0,0,0,0,0,0c-0.1-36.1-0.1-72.2-0.2-108.3c0-0.8-1.3-2.3-2-2.4c-3.6-0.3-7.2-0.2-10.8-0.2
			c-42.8,0-85.6,0-128.3,0c-1.4,0-3-0.4-4.1,0.2c-0.9,0.5-1,2.3-1.4,3.5c-2.9,8-3.8,20.7-2.4,32.9c4.9,0.7,10,2,15,2.2
			c11.2,0.3,22.5,0,33.7,0.2C664.5,416,666.6,417.2,668.8,417.8z"/>
		<path class="st27" d="M616,380.8c0.5-1.2,0.6-3,1.4-3.5c1-0.6,2.7-0.2,4.1-0.2c42.8,0,85.6,0,128.3,0c3.6,0,7.2-0.1,10.8,0.2
			c0.8,0.1,2,1.6,2,2.4c0.2,36.1,0.2,72.2,0.2,108.3c-3.8,0.6-3.7-1.9-3.7-4.6c0-32.2,0-64.3,0-96.5c0-6.1,0-6.1-6.3-6.1
			c-42.2,0-84.3,0-126.5,0C622.9,380.8,619.5,380.8,616,380.8z"/>
		<path class="st28" d="M762.9,488c0.6-1.7,1.8-3.3,1.8-5c0.1-33.6,0.1-67.1,0.1-100.7c0-2.1-1.5-6.1,3.6-4.4c0,35.4,0,70.7,0,106.1
			c0,3.2,0,6.3,0,9.5c-2.6,2.6-4.2,1.9-4.9-1.5C763.3,490.7,763.1,489.3,762.9,488z"/>
		<path class="st9" d="M673.3,419.6c-1.3-0.6-2.5-1.2-3.8-1.8C670.7,418.4,672,419,673.3,419.6z"/>
		<path class="st29" d="M882.5,488c-0.1-8.1-0.3-16.3-0.3-24.4c0-50.1,0-100.2-0.1-150.3c0-0.9,0.1-1.8,0.2-2.8
			c0.3,1.6,0.7,3.2,0.7,4.9c0.1,55.9,0.1,111.7,0.1,167.6C883.1,484.7,882.7,486.3,882.5,488z"/>
		<path class="st29" d="M838.6,516.7c-0.4-7.5-0.8-14.9-1.2-22.8c2.7,0,4.8,0,6.8,0c-4.9,0.2-6,2.9-5.6,7.4
			C839,506.5,838.6,511.6,838.6,516.7z"/>
		<path class="st29" d="M875.7,493.9c1.5,0,3.1,0,4.6,0C878.8,493.9,877.2,493.9,875.7,493.9z"/>
		<path class="st29" d="M882.6,492.6c0-0.9,0-1.8,0-2.7C882.5,490.8,882.6,491.7,882.6,492.6z"/>
		<path class="st9" d="M759.2,266.2c1.1,1.1,2.2,2.1,3.3,3.2c-1.5,0.6-3,1.1-4.5,1.7c-0.3-0.4-0.5-0.8-0.8-1.1
			C757.9,268.7,758.6,267.4,759.2,266.2C759.2,266.2,759.2,266.2,759.2,266.2z"/>
	</g>
</g>
</svg>
