<?xml version="1.0" encoding="UTF-8" standalone="no"?>
<!-- Generator: Deutscher Hockey-Bund e.V.  -->
<svg width="348px" height="348px" viewBox="0 0 348 348" version="1.1" xmlns="http://www.w3.org/2000/svg" xmlns:xlink="http://www.w3.org/1999/xlink">
    <g id="BAY" stroke="none" stroke-width="1" fill="none" fill-rule="evenodd">
        <g id="396-HG-Nürnberg" transform="translate(-13.000000, -15.000000)" fill-rule="nonzero">
            <g id="396_hgn" transform="translate(13.242038, 15.073941)">
                <path d="M347.433398,175.025201 C289.754639,116.56134 231.918859,58.0451399 174.60648,0 C116.35198,58.3068402 58.3068402,116.29964 0,174.60648 C58.14982,232.128219 116.66602,290.016339 174.868181,347.538078 C232.180559,290.173359 290.43506,231.971199 347.433398,175.025201 Z" id="Shape" fill="#FDFEFE"></path>
                <path d="M347.433398,175.025201 C290.43506,231.971199 232.180559,290.173359 174.81584,347.538078 C116.66602,290.016339 58.14982,232.128219 0,174.60648 C58.3068402,116.29964 116.35198,58.3068402 174.60648,1.77635684e-14 C231.918859,58.0451399 289.754639,116.56134 347.433398,175.025201 Z M174.18776,21.2500692 C172.408197,22.7679313 170.837995,23.8670728 169.477153,25.2279147 C121.585987,73.1190806 73.6948214,121.010246 25.8036555,168.901412 C21.2500692,173.454999 21.2500692,174.65882 25.6989754,179.107726 C73.7995015,227.208253 121.847688,275.308779 169.948214,323.356965 C173.926059,327.33481 174.71116,327.33481 178.793686,323.304625 C226.894212,275.204099 274.994738,227.155912 323.042924,179.055386 C327.701191,174.39712 327.701191,173.873719 323.147605,169.320133 C297.81501,143.987538 272.534755,118.654943 247.20216,93.3223484 C224.329549,70.4497369 201.509277,47.5771255 178.584326,24.7568541 C177.380504,23.5006923 175.862642,22.558571 174.18776,21.2500692 Z" id="Shape" fill="#12438C"></path>
                <path d="M174.18776,21.2500692 C175.862642,22.558571 177.380504,23.5006923 178.584326,24.704514 C201.456937,47.5247854 224.329549,70.3973968 247.20216,93.2700083 C272.534755,118.602603 297.81501,143.935198 323.147605,169.267793 C327.701191,173.821379 327.701191,174.34478 323.042924,179.003046 C274.942398,227.103572 226.894212,275.204099 178.793686,323.252285 C174.7635,327.28247 173.978399,327.28247 169.948214,323.304625 C121.847688,275.204099 73.7471615,227.155912 25.6989754,179.055386 C21.2500692,174.60648 21.2500692,173.402659 25.8036555,168.849072 C73.6948214,120.957906 121.585987,73.0667405 169.477153,25.1755746 C170.837995,23.8670728 172.408197,22.7679313 174.18776,21.2500692 Z M165.185267,250.918305 C165.185267,197.008031 165.185267,143.097757 165.185267,89.1874827 C164.714207,88.9257823 164.295486,88.664082 163.824425,88.3500415 C160.631681,91.8044863 157.124896,95.0495708 154.403212,98.7657159 C152.62365,101.173359 151.053448,104.366104 151.001108,107.244808 C150.687067,123.26087 150.844088,139.276932 150.844088,155.292994 C150.844088,167.17419 152.204929,166.703129 139.172251,166.598449 C134.461645,166.546109 133.728884,165.708668 133.676544,160.841041 C133.624204,153.304071 133.467184,145.767101 133.571864,138.28247 C133.728884,128.808917 133.153143,119.230684 134.566325,109.914151 C137.026309,93.741069 150.268347,80.7607311 165.761008,77.7250069 C182.771531,74.3752423 198.892274,80.9700914 208.365827,95.1019108 C209.779009,97.2478538 211.13985,99.4984769 212.919413,102.272501 C215.274716,99.9171975 217.263639,98.0329549 219.147881,96.0963722 C223.701468,91.4904459 223.701468,91.4904459 219.985323,86.0470784 C206.743284,66.6289117 181.98643,57.8881196 158.747438,64.4829687 C136.345888,70.8684575 119.649405,92.0138466 119.021324,115.305179 C118.654943,128.547217 118.811963,141.789255 118.916644,155.031293 C119.021324,168.587372 118.654943,166.336749 107.349488,166.598449 C102.481861,166.703129 101.43506,165.603988 101.43506,160.736361 C101.43506,146.238161 101.43506,131.739961 101.382719,117.241761 C101.382719,115.828579 101.121019,114.467737 101.016339,113.054556 C100.492938,112.792855 99.9695375,112.478815 99.4461368,112.217114 C96.7244531,115.357519 94.2121296,118.707283 91.1764054,121.533647 C87.6696206,124.726392 86.4657989,128.390197 86.518139,132.996123 C86.6228192,159.89892 87.0415397,186.801717 86.3611188,213.652174 C86.0470784,224.957629 94.7355303,228.516754 100.754639,236.158405 C101.173359,234.012462 101.43506,233.279701 101.43506,232.4946 C101.4874,219.409582 101.53974,206.272224 101.4874,193.187206 C101.43506,180.049848 100.649958,181.306009 113.891997,181.306009 C117.451122,181.306009 118.916644,183.137912 118.916644,186.487677 C118.916644,190.413182 118.811963,194.286347 118.916644,198.211853 C119.178344,212.134312 118.288563,226.213791 120.120465,239.92689 C123.47023,265.207145 147.075602,285.253392 172.146497,285.829133 C199.677375,286.457214 224.172528,268.399889 228.307394,241.968153 C230.767377,226.318471 229.668236,210.040709 230.088021,194.076987 C230.139297,191.355303 228.255054,190.622542 225.847411,190.622542 C221.503185,190.674882 217.211299,190.674882 212.867073,190.622542 C203.131819,190.570202 204.073941,190.308502 204.073941,199.468014 C204.073941,205.277762 204.178621,205.487123 209.779009,205.434783 C213.756854,205.382443 215.327056,207.057325 215.222376,210.98283 C215.065356,217.94406 215.274716,224.905289 215.117696,231.866519 C214.594295,256.518693 190.517862,275.465799 166.336749,270.284132 C146.656882,266.096926 133.938244,250.290224 133.676544,229.458876 C133.519524,217.211299 133.676544,204.911382 133.624204,192.663805 C133.571864,180.049848 132.996123,181.201329 145.19136,181.253669 C149.901966,181.253669 150.791747,182.195791 150.791747,186.906397 C150.844088,200.828856 151.576849,214.855996 150.582387,228.673775 C149.692606,240.554971 158.485738,244.637497 165.185267,250.918305 Z M184.708114,88.5594018 C184.341734,88.7687621 183.923013,89.0304625 183.556633,89.2398228 C183.556633,143.097757 183.556633,197.008031 183.556633,252.174467 C187.272778,248.510662 189.942121,245.527278 192.925505,242.962614 C196.58931,239.82221 197.897812,236.106065 197.897812,231.238438 C197.740792,201.823318 197.793132,172.408197 197.897812,143.045417 C197.897812,141.108834 199.153974,139.172251 199.834395,137.235669 C201.299917,138.544171 203.079479,139.643312 204.178621,141.265854 C214.227915,156.130435 223.439767,171.675436 234.326502,185.911936 C244.480476,199.206314 249.871504,213.181113 247.46386,229.877596 C247.2545,231.552479 247.620881,233.279701 247.725561,234.954583 C248.091941,235.111603 248.458322,235.268624 248.824702,235.425644 C252.174467,231.971199 255.785932,228.726115 258.821656,225.00997 C260.444198,223.021047 261.85738,220.142343 261.85738,217.682359 C262.066741,188.581279 262.0144,159.427859 261.96206,130.326779 C261.96206,128.861257 261.90972,126.924675 261.019939,125.930213 C257.094434,121.376627 252.854888,117.084741 248.720022,112.688175 C247.568541,114.781778 247.41152,116.40432 247.41152,117.974522 C247.41152,133.571864 247.41152,149.169205 247.41152,164.818887 C247.41152,166.075048 247.5162,167.38355 247.20216,168.535032 C246.521739,171.309056 244.846857,171.413736 242.962614,169.738854 C242.177513,169.006092 241.654112,167.959291 241.026032,167.01717 C227.417613,146.656882 214.070894,126.087233 200.096095,105.936306 C195.751869,99.603157 189.889781,94.3168097 184.708114,88.5594018 Z" id="Shape" fill="#FCFCFD"></path>
                <path d="M165.185267,250.918305 C158.485738,244.637497 149.692606,240.554971 150.582387,228.883135 C151.576849,215.013016 150.844088,201.038217 150.791747,187.115757 C150.791747,182.405151 149.849626,181.46303 145.19136,181.46303 C132.996123,181.46303 133.571864,180.259208 133.624204,192.873165 C133.676544,205.120742 133.519524,217.420659 133.676544,229.668236 C133.938244,250.447245 146.656882,266.306286 166.336749,270.493492 C190.517862,275.675159 214.594295,256.728053 215.117696,232.075879 C215.274716,225.11465 215.065356,218.15342 215.222376,211.192191 C215.274716,207.319025 213.704514,205.644143 209.779009,205.644143 C204.126281,205.696483 204.073941,205.434783 204.073941,199.677375 C204.073941,190.517862 203.18416,190.779562 212.867073,190.831903 C217.211299,190.884243 221.503185,190.884243 225.847411,190.831903 C228.255054,190.831903 230.139297,191.512323 230.088021,194.286347 C229.668236,210.250069 230.767377,226.527832 228.307394,242.177513 C224.120188,268.60925 199.677375,286.666574 172.146497,286.038493 C147.075602,285.462753 123.47023,265.416505 120.120465,240.13625 C118.288563,226.423151 119.230684,212.343672 118.916644,198.421213 C118.864304,194.495708 118.916644,190.622542 118.916644,186.697037 C118.916644,183.347272 117.451122,181.51537 113.891997,181.51537 C100.649958,181.51537 101.43506,180.259208 101.4874,193.396566 C101.53974,206.481584 101.4874,219.618942 101.43506,232.70396 C101.43506,233.489061 101.173359,234.221822 100.754639,236.367765 C94.7878704,228.726115 86.0994184,225.16699 86.3611188,213.861534 C87.0415397,186.958737 86.6751592,160.05594 86.518139,133.205483 C86.518139,128.547217 87.6696206,124.935752 91.1764054,121.743007 C94.2121296,118.968984 96.7244531,115.566879 99.4461368,112.426475 C99.9695375,112.688175 100.492938,113.002215 101.016339,113.263916 C101.173359,114.677098 101.382719,116.03794 101.382719,117.451122 C101.43506,131.949322 101.382719,146.447521 101.43506,160.945721 C101.43506,165.813348 102.481861,166.91249 107.349488,166.807809 C118.654943,166.546109 118.968984,168.796732 118.916644,155.240654 C118.811963,141.998615 118.707283,128.756577 119.021324,115.514539 C119.649405,92.2232069 136.345888,71.0254777 158.747438,64.692329 C181.98643,58.0974799 206.743284,66.8382719 219.985323,86.2564387 C223.701468,91.6998061 223.701468,91.6998061 219.147881,96.3057325 C217.211299,98.2423151 215.274716,100.126558 212.919413,102.481861 C211.13985,99.7078372 209.831349,97.4572141 208.365827,95.3112711 C198.944614,81.1794517 182.771531,74.6369427 165.761008,77.9343672 C150.268347,80.9700914 137.026309,93.8980892 134.566325,110.123511 C133.153143,119.440044 133.728884,129.018277 133.571864,138.491831 C133.467184,146.028801 133.624204,153.513431 133.676544,161.050402 C133.728884,165.918028 134.513985,166.755469 139.172251,166.807809 C152.204929,166.91249 150.844088,167.38355 150.844088,155.502354 C150.844088,139.486292 150.687067,123.47023 151.001108,107.454168 C151.053448,104.575464 152.67599,101.382719 154.403212,98.9750762 C157.177236,95.206591 160.684021,91.9615065 163.824425,88.5594018 C164.295486,88.8211022 164.714207,89.0828025 165.185267,89.396843 C165.185267,143.097757 165.185267,197.008031 165.185267,250.918305 Z" id="Path" fill="#14448D"></path>
                <path d="M184.708114,88.5594018 C189.889781,94.3168097 195.751869,99.603157 200.148435,105.936306 C214.070894,126.087233 227.469953,146.604542 241.078372,167.01717 C241.706453,167.959291 242.177513,169.006092 243.014954,169.738854 C244.899197,171.413736 246.574079,171.309056 247.2545,168.535032 C247.5162,167.33121 247.46386,166.022708 247.46386,164.818887 C247.46386,149.221545 247.46386,133.624204 247.46386,117.974522 C247.46386,116.40432 247.620881,114.781778 248.772362,112.688175 C252.907228,117.084741 257.146774,121.376627 261.072279,125.930213 C261.90972,126.924675 262.0144,128.808917 262.0144,130.326779 C262.066741,159.427859 262.119081,188.581279 261.90972,217.682359 C261.90972,220.142343 260.444198,223.021047 258.873996,225.00997 C255.890612,228.726115 252.279147,232.023539 248.877042,235.425644 C248.510662,235.268624 248.144281,235.111603 247.777901,234.954583 C247.673221,233.279701 247.2545,231.500138 247.5162,229.877596 C249.871504,213.181113 244.532816,199.206314 234.378842,185.911936 C223.492107,171.675436 214.280255,156.182775 204.230961,141.265854 C203.18416,139.695652 201.352257,138.596511 199.886735,137.235669 C199.206314,139.172251 197.950152,141.108834 197.950152,143.045417 C197.845472,172.460537 197.793132,201.875658 197.950152,231.238438 C198.002492,236.106065 196.693991,239.82221 192.977845,242.962614 C189.942121,245.527278 187.272778,248.510662 183.608973,252.174467 C183.608973,197.008031 183.608973,143.097757 183.608973,89.2398228 C183.923013,89.0304625 184.289394,88.8211022 184.708114,88.5594018 Z" id="Path" fill="#12438C"></path>
            </g>
        </g>
    </g>
</svg>