<?xml version="1.0" encoding="utf-8"?>
<!-- Generator: Adobe Illustrator 28.3.0, SVG Export Plug-In . SVG Version: 6.00 Build 0)  -->
<svg version="1.1" id="Layer_1" xmlns="http://www.w3.org/2000/svg" xmlns:xlink="http://www.w3.org/1999/xlink" x="0px" y="0px"
	 viewBox="0 0 1366 768" style="enable-background:new 0 0 1366 768;" xml:space="preserve">
<style type="text/css">
	.st0{fill:#FDFEFE;}
	.st1{fill:#12438C;}
	.st2{fill:#FCFCFD;}
	.st3{fill:#14448D;}
</style>
<g>
	<g>
		<path class="st0" d="M311.3,13c240.7,0,481.5,0,722.2,0c0,239.7,0,479.3,0,719c-240.7,0-481.5,0-722.2,0
			C311.3,492.3,311.3,252.7,311.3,13z M1000.4,376.2C890.2,264.5,779.7,152.7,670.2,41.8C558.9,153.2,448,264,336.6,375.4
			c111.1,109.9,222.9,220.5,334.1,330.4C780.2,596.2,891.5,485,1000.4,376.2z"/>
		<path class="st1" d="M1000.4,376.2C891.5,485,780.2,596.2,670.6,705.8C559.5,595.9,447.7,485.3,336.6,375.4
			C448,264,558.9,153.2,670.2,41.8C779.7,152.7,890.2,264.5,1000.4,376.2z M669.4,82.4c-3.4,2.9-6.4,5-9,7.6
			c-91.5,91.5-183,183-274.5,274.5c-8.7,8.7-8.7,11-0.2,19.5c91.9,91.9,183.7,183.8,275.6,275.6c7.6,7.6,9.1,7.6,16.9-0.1
			c91.9-91.9,183.8-183.7,275.6-275.6c8.9-8.9,8.9-9.9,0.2-18.6c-48.4-48.4-96.7-96.8-145.1-145.2c-43.7-43.7-87.3-87.4-131.1-131
			C675.5,86.7,672.6,84.9,669.4,82.4z"/>
		<path class="st2" d="M669.4,82.4c3.2,2.5,6.1,4.3,8.4,6.6c43.7,43.6,87.4,87.3,131.1,131c48.4,48.4,96.7,96.8,145.1,145.2
			c8.7,8.7,8.7,9.7-0.2,18.6c-91.9,91.9-183.7,183.8-275.6,275.6c-7.7,7.7-9.2,7.7-16.9,0.1c-91.9-91.9-183.8-183.7-275.6-275.6
			c-8.5-8.5-8.5-10.8,0.2-19.5c91.5-91.5,183-183,274.5-274.5C663,87.4,666,85.3,669.4,82.4z M652.2,521.2c0-103,0-206,0-309
			c-0.9-0.5-1.7-1-2.6-1.6c-6.1,6.6-12.8,12.8-18,19.9c-3.4,4.6-6.4,10.7-6.5,16.2c-0.6,30.6-0.3,61.2-0.3,91.8
			c0,22.7,2.6,21.8-22.3,21.6c-9-0.1-10.4-1.7-10.5-11c-0.1-14.4-0.4-28.8-0.2-43.1c0.3-18.1-0.8-36.4,1.9-54.2
			c4.7-30.9,30-55.7,59.6-61.5c32.5-6.4,63.3,6.2,81.4,33.2c2.7,4.1,5.3,8.4,8.7,13.7c4.5-4.5,8.3-8.1,11.9-11.8
			c8.7-8.8,8.7-8.8,1.6-19.2c-25.3-37.1-72.6-53.8-117-41.2c-42.8,12.2-74.7,52.6-75.9,97.1c-0.7,25.3-0.4,50.6-0.2,75.9
			c0.2,25.9-0.5,21.6-22.1,22.1c-9.3,0.2-11.3-1.9-11.3-11.2c0-27.7,0-55.4-0.1-83.1c0-2.7-0.5-5.3-0.7-8c-1-0.5-2-1.1-3-1.6
			c-5.2,6-10,12.4-15.8,17.8c-6.7,6.1-9,13.1-8.9,21.9c0.2,51.4,1,102.8-0.3,154.1c-0.6,21.6,16,28.4,27.5,43c0.8-4.1,1.3-5.5,1.3-7
			c0.1-25,0.2-50.1,0.1-75.1c-0.1-25.1-1.6-22.7,23.7-22.7c6.8,0,9.6,3.5,9.6,9.9c0,7.5-0.2,14.9,0,22.4c0.5,26.6-1.2,53.5,2.3,79.7
			c6.4,48.3,51.5,86.6,99.4,87.7c52.6,1.2,99.4-33.3,107.3-83.8c4.7-29.9,2.6-61,3.4-91.5c0.1-5.2-3.5-6.6-8.1-6.6
			c-8.3,0.1-16.5,0.1-24.8,0c-18.6-0.1-16.8-0.6-16.8,16.9c0,11.1,0.2,11.5,10.9,11.4c7.6-0.1,10.6,3.1,10.4,10.6
			c-0.3,13.3,0.1,26.6-0.2,39.9c-1,47.1-47,83.3-93.2,73.4c-37.6-8-61.9-38.2-62.4-78c-0.3-23.4,0-46.9-0.1-70.3
			c-0.1-24.1-1.2-21.9,22.1-21.8c9,0,10.7,1.8,10.7,10.8c0.1,26.6,1.5,53.4-0.4,79.8C622.6,501.4,639.4,509.2,652.2,521.2z
			 M689.5,211c-0.7,0.4-1.5,0.9-2.2,1.3c0,102.9,0,205.9,0,311.3c7.1-7,12.2-12.7,17.9-17.6c7-6,9.5-13.1,9.5-22.4
			c-0.3-56.2-0.2-112.4,0-168.5c0-3.7,2.4-7.4,3.7-11.1c2.8,2.5,6.2,4.6,8.3,7.7c19.2,28.4,36.8,58.1,57.6,85.3
			c19.4,25.4,29.7,52.1,25.1,84c-0.4,3.2,0.3,6.5,0.5,9.7c0.7,0.3,1.4,0.6,2.1,0.9c6.4-6.6,13.3-12.8,19.1-19.9
			c3.1-3.8,5.8-9.3,5.8-14c0.4-55.6,0.3-111.3,0.2-166.9c0-2.8-0.1-6.5-1.8-8.4c-7.5-8.7-15.6-16.9-23.5-25.3
			c-2.2,4-2.5,7.1-2.5,10.1c0,29.8,0,59.6,0,89.5c0,2.4,0.2,4.9-0.4,7.1c-1.3,5.3-4.5,5.5-8.1,2.3c-1.5-1.4-2.5-3.4-3.7-5.2
			c-26-38.9-51.5-78.2-78.2-116.7C710.6,232.1,699.4,222,689.5,211z"/>
		<path class="st3" d="M652.2,521.2c-12.8-12-29.6-19.8-27.9-42.1c1.9-26.5,0.5-53.2,0.4-79.8c0-9-1.8-10.8-10.7-10.8
			c-23.3,0-22.2-2.3-22.1,21.8c0.1,23.4-0.2,46.9,0.1,70.3c0.5,39.7,24.8,70,62.4,78c46.2,9.9,92.2-26.3,93.2-73.4
			c0.3-13.3-0.1-26.6,0.2-39.9c0.1-7.4-2.9-10.6-10.4-10.6c-10.8,0.1-10.9-0.4-10.9-11.4c0-17.5-1.7-17,16.8-16.9
			c8.3,0.1,16.5,0.1,24.8,0c4.6,0,8.2,1.3,8.1,6.6c-0.8,30.5,1.3,61.6-3.4,91.5c-8,50.5-54.7,85-107.3,83.8
			c-47.9-1.1-93-39.4-99.4-87.7c-3.5-26.2-1.7-53.1-2.3-79.7c-0.1-7.5,0-14.9,0-22.4c0-6.4-2.8-9.9-9.6-9.9
			c-25.3,0-23.8-2.4-23.7,22.7c0.1,25,0,50.1-0.1,75.1c0,1.5-0.5,2.9-1.3,7c-11.4-14.6-28-21.4-27.5-43
			c1.3-51.4,0.6-102.8,0.3-154.1c0-8.9,2.2-15.8,8.9-21.9c5.8-5.3,10.6-11.8,15.8-17.8c1,0.5,2,1.1,3,1.6c0.3,2.7,0.7,5.3,0.7,8
			c0.1,27.7,0,55.4,0.1,83.1c0,9.3,2,11.4,11.3,11.2c21.6-0.5,22.2,3.8,22.1-22.1c-0.2-25.3-0.4-50.6,0.2-75.9
			c1.2-44.5,33.1-85,75.9-97.1c44.4-12.6,91.7,4.1,117,41.2c7.1,10.4,7.1,10.4-1.6,19.2c-3.7,3.7-7.4,7.3-11.9,11.8
			c-3.4-5.3-5.9-9.6-8.7-13.7c-18-27-48.9-39.5-81.4-33.2c-29.6,5.8-54.9,30.5-59.6,61.5c-2.7,17.8-1.6,36.1-1.9,54.2
			c-0.2,14.4,0.1,28.7,0.2,43.1c0.1,9.3,1.6,10.9,10.5,11c24.9,0.2,22.3,1.1,22.3-21.6c0-30.6-0.3-61.2,0.3-91.8
			c0.1-5.5,3.2-11.6,6.5-16.2c5.3-7.2,12-13.4,18-19.9c0.9,0.5,1.7,1,2.6,1.6C652.2,315.2,652.2,418.2,652.2,521.2z"/>
		<path class="st1" d="M689.5,211c9.9,11,21.1,21.1,29.5,33.2c26.6,38.5,52.2,77.7,78.2,116.7c1.2,1.8,2.1,3.8,3.7,5.2
			c3.6,3.2,6.8,3,8.1-2.3c0.5-2.3,0.4-4.8,0.4-7.1c0-29.8,0-59.6,0-89.5c0-3,0.3-6.1,2.5-10.1c7.9,8.4,16,16.6,23.5,25.3
			c1.6,1.9,1.8,5.5,1.8,8.4c0.1,55.6,0.2,111.3-0.2,166.9c0,4.7-2.8,10.2-5.8,14c-5.7,7.1-12.6,13.4-19.1,19.9
			c-0.7-0.3-1.4-0.6-2.1-0.9c-0.2-3.2-1-6.6-0.5-9.7c4.5-31.9-5.7-58.6-25.1-84c-20.8-27.2-38.4-56.8-57.6-85.3
			c-2-3-5.5-5.1-8.3-7.7c-1.3,3.7-3.7,7.4-3.7,11.1c-0.2,56.2-0.3,112.4,0,168.5c0.1,9.3-2.4,16.4-9.5,22.4
			c-5.8,4.9-10.9,10.6-17.9,17.6c0-105.4,0-208.4,0-311.3C688,211.9,688.7,211.5,689.5,211z"/>
	</g>
</g>
</svg>
