<?xml version="1.0" encoding="utf-8"?>
<!-- Generator: Adobe Illustrator 25.4.1, SVG Export Plug-In . SVG Version: 6.00 Build 0)  -->
<svg version="1.1" id="Ebene_1" xmlns="http://www.w3.org/2000/svg" xmlns:xlink="http://www.w3.org/1999/xlink" x="0px" y="0px"
	 viewBox="0 0 566.9 566.9" style="enable-background:new 0 0 566.9 566.9;" xml:space="preserve">
<style type="text/css">
	.st0{fill:#FFFFFF;}
	.st1{fill:#E3000F;}
</style>
<path class="st0" d="M283.5,0C127.2,0,0,127.2,0,283.5s127.2,283.5,283.5,283.5s283.5-127.2,283.5-283.5S439.8,0,283.5,0"/>
<g>
	<path class="st1" d="M283.5,561.1C130.4,561.1,5.8,436.6,5.8,283.5S130.4,5.8,283.5,5.8s277.7,124.6,277.7,277.7
		S436.6,561.1,283.5,561.1 M283.5,10.6C133,10.6,10.6,133,10.6,283.5S133,556.4,283.5,556.4s272.9-122.4,272.9-272.9
		S433.9,10.6,283.5,10.6"/>
	<path class="st1" d="M283.5,497.7c-118.1,0-214.2-96.1-214.2-214.2c0-118.1,96.1-214.2,214.2-214.2s214.2,96.1,214.2,214.2
		C497.7,401.6,401.6,497.7,283.5,497.7 M283.5,74C168,74,74,168,74,283.5c0,115.5,94,209.4,209.4,209.4s209.4-94,209.4-209.4
		C492.9,168,399,74,283.5,74"/>
</g>
<polygon class="st1" points="122,134.7 101.1,113.3 140.6,116.4 142,115.1 112.4,84.9 108.5,88.7 129.7,110.3 89.8,107.1
	88.4,108.4 118.1,138.6 "/>
<path class="st1" d="M146.1,101.7c2.2,1.8,4.9,2.7,7.8,2.7c0,0,0,0,0,0c3,0,5.9-1,8.7-2.9c2.6-1.8,4.4-4,5.3-6.7
	c0.9-2.7,1-5.3,0.3-7.7c-0.7-2.3-2.1-5.1-4.1-8.2l-14.1-21.1l-4.5,3l14.1,21.1c1.7,2.6,2.8,4.4,3.1,5.4c0.4,1.3,0.6,2.6,0.5,3.8
	c-0.1,1.2-0.5,2.4-1.2,3.4c-0.7,1.1-1.5,2-2.6,2.7c-1.2,0.8-2.6,1.3-4.2,1.6c-1.6,0.2-2.9,0.1-4-0.3c-1.1-0.4-2.2-1.3-3.2-2.4
	c-0.5-0.5-1.5-2-3.1-4.4L131,70.7l-4.5,3l14.1,21.1C143,98.4,144.8,100.6,146.1,101.7z"/>
<path class="st1" d="M139.1,61.8c0.3,0.1,0.5,0.1,0.8,0.1c0.8,0,1.5-0.2,2.1-0.7c0.9-0.6,1.4-1.4,1.7-2.5c0.2-1.1,0-2-0.6-2.9
	c-0.6-0.9-1.4-1.4-2.5-1.7c-1-0.2-2,0-2.9,0.6c-0.9,0.6-1.5,1.4-1.7,2.5c-0.2,1.1,0,2,0.6,2.9C137.2,61,138.1,61.6,139.1,61.8z"/>
<path class="st1" d="M129.7,68.1c0.3,0.1,0.5,0.1,0.8,0.1c0.7,0,1.5-0.2,2.1-0.7c0.9-0.6,1.4-1.4,1.7-2.5c0.2-1.1,0-2-0.6-2.9
	c-0.6-0.9-1.4-1.4-2.5-1.7c-1-0.2-2,0-2.9,0.6l0,0c-0.9,0.6-1.4,1.4-1.7,2.5c-0.2,1.1,0,2,0.6,2.9C127.8,67.3,128.6,67.9,129.7,68.1
	z"/>
<path class="st1" d="M193.3,61.2c1.5-1.7,2.4-3.6,2.7-5.7c0.3-2.1,0-4.2-1-6.4c-1.1-2.6-2.9-4.5-5.1-5.6c-2.3-1.1-4.7-1.4-7.3-0.9
	c-1.7,0.3-4.6,1.4-8.8,3.3l-8.1,3.6l17.1,38.7l5-2.2l-7.7-17.4l1.2-0.5l21.2,11.4l6.2-2.7l-21.2-11.4C190.1,64,192,62.7,193.3,61.2z
	 M190.5,55c-0.2,1.2-0.7,2.2-1.6,3.2c-0.9,0.9-2.6,2-5,3l-5.9,2.5l-5.1-11.5l6-2.7c2.5-1.1,4.3-1.7,5.5-1.7c1.2,0,2.2,0.3,3.3,0.9
	c1,0.6,1.8,1.5,2.3,2.7C190.5,52.6,190.6,53.8,190.5,55z"/>
<polygon class="st1" points="233.3,26.5 240.4,55.9 208,32.8 207.8,32.7 206,33.1 215.8,74.2 221.2,72.9 214.3,43.9 246.6,66.8
	248.4,66.4 238.5,25.3 "/>
<path class="st1" d="M280.4,60.4c2.4-2.5,3.5-5.6,3.3-9c-0.1-1.7-0.5-3.3-1.3-4.7c-0.8-1.4-1.8-2.6-3.1-3.6c-1-0.8-2.3-1.4-3.9-2
	c1.2-0.9,2.1-2,2.8-3.3c0.8-1.6,1.2-3.5,1.1-5.4c-0.1-2.1-0.8-3.9-2-5.6c-1.2-1.6-2.7-2.8-4.6-3.5c-1.9-0.7-4.4-0.9-7.8-0.7
	l-8.7,0.5l2.5,42.2l11.9-0.7C274.7,64.3,278,62.9,280.4,60.4z M272.8,36.2c-0.6,1.1-1.6,1.9-2.7,2.4c-1.2,0.6-3.2,0.9-6,1.1
	l-1.7,0.1l-0.7-11.7l4.1-0.2c2.7-0.2,4.7,0.2,5.9,1.1c1.2,0.9,1.8,2.1,1.9,3.8C273.7,34,273.4,35.2,272.8,36.2z M263.6,59.6
	l-0.9-14.3l1.6-0.1c3.4-0.2,5.8-0.2,7.1,0.1c2,0.3,3.5,1.1,4.7,2.3c1.2,1.2,1.8,2.6,1.9,4.2c0.1,1.3-0.2,2.6-0.9,3.7
	c-0.7,1.2-1.7,2.1-2.9,2.7c-1.3,0.6-3.4,1-6.3,1.2L263.6,59.6z"/>
<polygon class="st1" points="317.9,61.1 298.8,59.3 300.1,44.6 319.2,46.4 319.7,41 300.6,39.3 301.6,27.9 320.9,29.6 321.4,24.3
	296.7,22 292.8,64.1 317.4,66.4 "/>
<path class="st1" d="M335,50.7l1.3,0.3l9.6,22l6.6,1.7l-9.6-22.1c2.8,0.6,5.2,0.7,7.1,0.4c2.2-0.4,4.1-1.3,5.6-2.8
	c1.5-1.5,2.6-3.4,3.2-5.6c0.7-2.7,0.5-5.3-0.6-7.6c-1.1-2.3-2.8-4-5.2-5.2c-1.5-0.8-4.5-1.7-9-2.9l-8.6-2.2l-10.4,41l5.3,1.3
	L335,50.7z M342.4,47.1l-6.2-1.6l3.1-12.2l6.3,1.6c2.6,0.7,4.5,1.4,5.4,2.1c0.9,0.7,1.6,1.6,2,2.7c0.4,1.2,0.5,2.3,0.1,3.5
	c-0.3,1.3-0.9,2.3-1.8,3.1c-0.9,0.8-1.9,1.3-3.2,1.5C346.9,48,345,47.8,342.4,47.1z"/>
<path class="st1" d="M378.9,87.2c3.5,1.7,6.9,2.5,10.2,2.5c2.1,0,4.2-0.4,6.2-1.1c5.1-1.8,9.1-5.7,12-11.5l0.3-0.6l-17.1-8.2
	l-2.3,4.8l11.7,5.6c-2,2.7-4.6,4.4-7.8,5.2c-3.5,0.8-7.1,0.4-10.7-1.4c-3-1.4-5.5-3.5-7.4-6.1c-1.9-2.6-2.9-5.4-3.2-8.5
	c-0.3-3.1,0.2-6,1.5-8.6c1.2-2.6,3.1-4.7,5.6-6.4c2.5-1.7,5.4-2.6,8.5-2.8c3.2-0.2,6.2,0.4,9,1.8c2.2,1.1,4.3,2.7,6.2,4.8
	c1.9,2.1,3.4,4.7,4.4,7.6l0.2,0.6l5.5-1.8l-0.3-0.7c-1.5-3.8-3.3-7-5.6-9.5c-2.3-2.5-5-4.5-8.2-6.1c-4-1.9-8-2.7-11.9-2.5
	c-4,0.2-7.7,1.5-10.9,3.7c-3.3,2.2-5.8,5.2-7.5,8.8c-2.3,4.8-2.8,9.9-1.4,15.1C367.5,78.7,372,83.8,378.9,87.2z"/>
<polygon class="st1" points="424.5,115 427.7,110.7 412.2,99.3 421,87.5 436.4,98.9 439.6,94.6 424.2,83.2 431,73.9 446.6,85.4
	449.7,81.1 429.8,66.4 404.7,100.4 "/>
<path class="st1" d="M434.2,124l13.5-13.4l0.9,0.9l-3.1,23.8l4.8,4.8l3.1-23.9c2.1,2,4.1,3.3,5.9,4c2.1,0.8,4.2,1,6.3,0.5
	c2.1-0.5,3.9-1.6,5.6-3.2c2-2,3.1-4.3,3.4-6.8c0.2-2.5-0.3-4.9-1.7-7.2c-0.9-1.5-2.9-3.8-6.2-7.1l-6.2-6.3l-30,29.8L434.2,124z
	 M451.5,106.9l8.9-8.9l4.6,4.6c1.9,1.9,3.1,3.5,3.6,4.6c0.5,1.1,0.6,2.2,0.3,3.4c-0.2,1.2-0.8,2.2-1.7,3.1c-0.9,0.9-2,1.5-3.2,1.7
	c-1.2,0.3-2.4,0.1-3.5-0.4c-1.2-0.5-2.8-1.7-4.6-3.6L451.5,106.9z"/>
<path class="st1" d="M526.1,351.6c-1.5-0.5-2.9-0.7-4.4-0.5c-1.5,0.2-2.8,0.6-4.1,1.4c-0.9,0.6-1.9,1.4-2.9,2.6
	c-0.4-1.3-1-2.4-1.8-3.3c-1.1-1.3-2.5-2.2-4.2-2.8c-1.8-0.6-3.6-0.7-5.3-0.2c-1.8,0.4-3.3,1.3-4.5,2.7c-1.2,1.3-2.3,3.5-3.3,6.3
	l-2.5,7.5l36.2,12.1l3.4-10.2c1.2-3.6,1.1-6.9-0.2-9.7C531.2,354.5,529,352.6,526.1,351.6z M499.3,362.1l1.1-3.4
	c0.8-2.3,1.7-3.8,2.9-4.5c1.1-0.7,2.3-0.8,3.8-0.3c1.1,0.4,1.9,1,2.6,1.9c0.7,0.9,1,1.9,1.1,3.1c0.1,1.2-0.3,3-1.1,5.3l-0.5,1.4
	L499.3,362.1z M514.1,367l0.4-1.3c1-2.9,1.8-4.9,2.4-5.9c0.9-1.5,2.1-2.6,3.5-3.1c1.4-0.6,2.7-0.6,4.1-0.1c1.1,0.4,2,1,2.8,2
	c0.7,1,1.2,2.1,1.2,3.3c0.1,1.3-0.3,3.2-1.1,5.6l-1.2,3.7L514.1,367z"/>
<path class="st1" d="M517.5,387.6c-1.6-1.5-3.9-3.1-6.9-4.6l-20.5-10.3l-2.3,4.5l20.5,10.3c2.5,1.3,4.2,2.2,4.8,2.8
	c0.9,0.8,1.6,1.8,2.1,2.7c0.4,1,0.6,2,0.6,3.2c0,1.1-0.3,2.2-0.8,3.2c-0.6,1.2-1.4,2.2-2.6,3.1c-1.1,0.9-2.2,1.4-3.3,1.5
	c-1.1,0.1-2.2,0-3.5-0.5c-0.6-0.2-2.1-0.9-4.4-2l-20.5-10.3l-2.3,4.5l20.5,10.3c3.4,1.7,5.9,2.7,7.4,2.9c0.6,0.1,1.2,0.2,1.8,0.2
	c1.9,0,3.8-0.5,5.5-1.5c2.3-1.3,4.2-3.4,5.6-6.2c1.3-2.6,1.7-5.2,1.2-7.7C520.2,391.2,519.1,389.2,517.5,387.6z"/>
<polygon class="st1" points="495.6,430.4 468.1,411.7 465.3,415.9 496.9,437.3 507.6,421.4 503.6,418.6 "/>
<path class="st1" d="M485,442.1l-4.9,0.9l0.1,0.6c0.6,5.1-0.8,9.5-4.1,13.1c-3,3.3-6.6,5.1-10.7,5.3c-4.1,0.2-7.8-1.1-10.9-4
	c-2.1-1.9-3.5-4.2-4.3-6.7c-0.8-2.5-0.9-5.1-0.2-7.8c0.6-2.7,1.9-5.1,3.8-7.1c1.7-1.9,3.7-3.3,5.9-4.2c2.2-0.9,4.6-1.2,7.1-1
	l0.7,0.1l0.4-5l-0.6-0.1c-3.1-0.4-6.2,0-9.1,1.2c-3,1.2-5.7,3.1-8,5.7c-3.9,4.3-5.9,9.3-5.7,14.7c0.2,5.4,2.3,10.1,6.4,13.9
	c3.9,3.6,8.4,5.4,13.3,5.6c0.2,0,0.4,0,0.5,0c5.6,0,10.7-2.4,15-7.1c2.3-2.6,4-5.4,4.9-8.3c0.9-3,1.2-6,0.7-9L485,442.1z"/>
<path class="st1" d="M432.7,480.9c-2.1-0.8-5.2-1.3-9.2-1.4c-4.1-0.1-5.5-0.2-5.9-0.3c-1.1-0.2-2-0.5-2.7-0.9
	c-0.6-0.4-1.1-0.9-1.5-1.4c-0.7-0.9-0.9-1.9-0.6-3c0.2-1.1,0.8-2,1.9-2.8c0.9-0.6,1.8-0.9,2.8-1c1-0.1,2.6,0.2,4.7,0.9l0.6,0.2
	l1.5-4.9l-0.6-0.2c-2.8-0.9-5.1-1.3-6.9-1.1c-1.8,0.2-3.5,0.8-5,1.9c-1.4,1-2.5,2.3-3.3,3.8c-0.8,1.5-1.1,3.1-0.9,4.8
	c0.1,1.6,0.7,3.2,1.7,4.6c1.2,1.8,3,3,5.2,3.7c1.3,0.4,3.8,0.7,7.8,0.8c3.7,0.1,6.5,0.5,8.4,1.2c1.2,0.4,2.2,1.1,2.8,2
	c0.6,0.8,0.9,1.7,1,2.7c0.1,1-0.1,2-0.6,3c-0.5,1-1.2,1.8-2.1,2.5c-2.1,1.5-5.2,1.3-9.1-0.6l-0.6-0.3l-2,4.6l0.6,0.3
	c2.8,1.4,5.4,2.1,7.6,2.1c0.1,0,0.2,0,0.3,0c2.3-0.1,4.4-0.8,6.4-2.2c2.5-1.8,4.1-4.2,4.6-7.1c0.6-3,0-5.6-1.6-8
	C436.5,483,434.9,481.7,432.7,480.9z"/>
<rect x="404.1" y="474.8" transform="matrix(0.8631 -0.5051 0.5051 0.8631 -193.7793 272.9911)" class="st1" width="5" height="38.2"/>
<polygon class="st1" points="383.9,484.7 394.9,509.5 362.7,494.4 362.4,494.3 360.8,495 376.3,529.9 381,527.8 370.1,503.4
	402.3,518.3 404,517.6 388.5,482.7 "/>
<polygon class="st1" points="348.5,498.8 355.2,525.1 325.7,504.6 324,505.1 333.4,542.1 338.4,540.8 331.8,514.9 361,535.1
	362.8,534.6 353.4,497.6 "/>
<polygon class="st1" points="304.8,540.6 303.4,527.6 320.6,525.8 320.1,520.9 302.9,522.7 301.9,512.5 319.2,510.7 318.7,505.8
	296.4,508.1 300.3,546.1 322.5,543.8 322,538.9 "/>
<polygon class="st1" points="270.5,513.1 278.7,513.1 278.3,546.4 283.4,546.4 283.8,513.2 292,513.3 292,508.3 270.5,508.1 "/>
<path class="st1" d="M244.1,539.2c-1-1.5-1.9-2.8-2.6-3.9c1.4-0.7,3-1.4,4.5-2.3l0.6-0.3l-2.6-4.3l-0.6,0.3
	c-1.2,0.7-2.8,1.5-4.7,2.4l-2.5-3.9l-3.9-6.3c2.7-1.5,4.6-2.8,5.7-3.9c1.2-1.3,2-2.6,2.3-3.9c0.3-1.3,0.2-2.6-0.3-3.8
	c-0.5-1.3-1.3-2.4-2.5-3.3c-1.2-0.9-2.6-1.6-4.2-1.9c-2.5-0.5-4.8-0.3-6.9,0.8c-1.8,1-3,2.5-3.4,4.5c-0.2,1.1-0.2,2.4,0.1,3.7
	c0.3,1.2,1.1,3.1,2.4,5.6c-3.9,1.9-6.5,3.6-8,5.2c-1.6,1.6-2.6,3.4-3,5.4c-0.6,2.6-0.1,4.9,1.3,7c1.4,2.1,3.6,3.5,6.6,4.1
	c2.2,0.5,4.3,0.5,6.4,0.2c2-0.3,4.7-1.3,8-2.9l3.5,5.7l6.7,1.4l-0.7-1.3C246,542.1,245.1,540.7,244.1,539.2z M228.2,523
	c0.8,1.4,1.5,2.7,2.2,3.8l4,6.4c-2.6,1.2-4.8,2.1-6.7,2.4c-1.2,0.2-2.5,0.2-3.7,0c-1.5-0.3-2.7-1.1-3.5-2.2
	c-0.8-1.2-1.1-2.3-0.8-3.5c0.2-1,0.9-2.1,2-3.1C222.8,525.8,225,524.5,228.2,523z M228.1,510.3c0.1-0.6,0.6-1.1,1.3-1.5
	c0.5-0.2,1-0.3,1.7-0.3c0.4,0,0.8,0,1.2,0.1c1.2,0.3,2.1,0.7,2.7,1.4c0.5,0.6,0.7,1.2,0.6,1.8c-0.1,0.6-0.6,1.2-1.3,1.9
	c-1,1-2.4,1.9-4.1,2.7c-0.9-1.7-1.6-3.2-2-4.6C228,511.4,228,510.9,228.1,510.3z"/>
<polygon class="st1" points="183.3,500.8 181.2,483.8 175.9,481.4 178.8,504.8 171.2,521.3 175.8,523.3 183.3,506.9 202.8,493.7
	197.5,491.3 "/>
<polygon class="st1" points="156.9,475.3 171.7,484.5 174.3,480.4 155.3,468.4 135,500.7 153.9,512.6 156.5,508.4 141.9,499.2
	148.9,488.1 163.5,497.3 166.1,493.1 151.5,483.9 "/>
<polygon class="st1" points="151.2,465.8 145.9,461.4 127,462.5 135.3,452.6 131.3,449.3 107,478.7 110.9,482 121.2,469.5
	122.6,491.7 127.8,496 126,467.3 "/>
<path class="st1" d="M90.9,433.8c2.1-1.9,4.5-3.1,7.1-3.6c2.6-0.5,5.2-0.3,7.8,0.6c2.6,0.9,4.8,2.5,6.7,4.6c1.7,1.9,2.9,4.1,3.5,6.4
	c0.6,2.3,0.7,4.7,0.2,7.2l-0.1,0.7l4.9,1l0.1-0.6c0.7-3,0.7-6.1-0.2-9.2c-0.8-3.1-2.4-6-4.7-8.6c-3.8-4.4-8.5-6.9-14-7.3
	c-5.4-0.4-10.3,1.2-14.5,4.8c-4,3.5-6.3,7.7-7,12.6c-0.8,5.8,1,11.3,5.3,16.3c2.3,2.6,4.9,4.6,7.7,5.8c2.5,1.1,5.2,1.7,7.9,1.7
	c0.3,0,0.7,0,1,0l0.7,0l-0.3-5l-0.6,0c-0.1,0-0.1,0-0.1,0c-5,0-9.2-1.9-12.4-5.5c-2.9-3.4-4.3-7.2-4.1-11.3
	C85.9,440.1,87.6,436.6,90.9,433.8z"/>
<path class="st1" d="M92,411c1.4-5.3,0.6-10.5-2.3-15.4v0c-1.8-3.1-4.2-5.5-7.3-7.3c-3.1-1.8-6.4-2.7-10-2.6c-3.6,0-7,1-10.1,2.8
	c-4.7,2.7-7.8,6.8-9.2,12.1c-1.4,5.3-0.7,10.4,2.2,15.3c2.8,4.8,6.9,8,12.2,9.4c1.8,0.5,3.5,0.7,5.2,0.7c3.4,0,6.8-0.9,10-2.8
	C87.5,420.3,90.7,416.2,92,411z M72.7,390.8c2.6,0,5.1,0.7,7.4,2c2.3,1.3,4.2,3.1,5.5,5.4c1.3,2.3,2,4.8,2,7.5
	c0,2.7-0.6,5.2-1.9,7.5c-1.3,2.3-3.2,4.1-5.6,5.5c-2.4,1.4-5,2.1-7.6,2.2c-2.6,0.1-5.1-0.6-7.4-2c-2.3-1.3-4.2-3.2-5.5-5.6
	c-2-3.5-2.6-7.3-1.5-11.3c1-3.9,3.4-7,7-9.1c2.4-1.4,5-2.1,7.7-2.2C72.6,390.8,72.7,390.8,72.7,390.8z"/>
<polygon class="st1" points="75.2,368.2 60.6,373.5 54.7,357.1 69.2,351.9 67.5,347.1 31.6,360.2 33.3,364.9 50,358.8 56,375.2
	39.3,381.3 41,386 76.9,373 "/>
<path class="st1" d="M492.9,204.6c0.9,2.3,2.4,4.2,4.4,5.6c2.1,1.4,4.6,2.1,7.6,2.1c0.1,0,0.1,0,0.2,0c2.9,0,6.6-0.9,11.2-2.6
	c4.6-1.7,8-3.6,10.2-5.6c2.2-2,3.7-4.2,4.3-6.6c0.6-2.4,0.5-4.8-0.4-7.1c-0.9-2.4-2.4-4.3-4.5-5.7c-2.1-1.4-4.7-2.1-7.8-2.2
	c-3-0.1-6.8,0.7-11.2,2.4c-4.4,1.7-7.8,3.6-10,5.6c-2.3,2.1-3.7,4.4-4.4,6.8C491.9,199.9,492,202.3,492.9,204.6z M514.6,205.2
	c-3.8,1.4-6.8,2.2-9,2.3c-2.1,0-3.9-0.4-5.3-1.3c-1.4-0.9-2.4-2-2.9-3.4c-0.5-1.4-0.5-2.8-0.1-4.4c0.5-1.6,1.6-3.2,3.4-4.7
	c1.9-1.5,4.5-3,7.9-4.3c3.4-1.3,6.4-2,9.1-2c0.2,0,0.3,0,0.5,0c1.9,0,3.6,0.4,4.8,1.2c1.4,0.9,2.3,2,2.9,3.4
	c0.5,1.4,0.5,2.9,0.1,4.5c-0.5,1.6-1.5,3.1-3.2,4.5C521.2,202.3,518.4,203.8,514.6,205.2L514.6,205.2z"/>
<polygon class="st1" points="502.8,234.1 508.3,235.8 506.8,229.7 539,221.6 537.8,216.8 500.8,226 "/>
<path class="st1" d="M520.9,242.2c-1.8-0.4-3.5-0.5-5.1-0.3c-2.1,0.3-4,1-5.7,2.3c-1.7,1.3-3,2.9-3.8,4.8c-0.8,1.9-1.1,4-0.8,6.1
	c0.3,2.2,1.1,4.1,2.4,5.9c1.3,1.8,2.9,3.1,4.9,3.9c1.4,0.6,2.9,0.9,4.5,0.9c0.6,0,1.1,0,1.7-0.1c3.2-0.4,5.9-1.9,7.8-4.3
	c1.9-2.4,2.7-5.2,2.3-8.3c-0.1-0.7-0.3-1.4-0.5-2.2l15.3,7.5l2.1-4.5l-18.5-9.2C524.9,243.4,522.7,242.6,520.9,242.2z M523.1,258.1
	c-1.2,1.6-2.7,2.4-4.7,2.7c-1.9,0.3-3.7-0.2-5.2-1.4c-1.6-1.2-2.4-2.7-2.7-4.7c-0.3-2,0.2-3.7,1.4-5.2c1.2-1.6,2.7-2.4,4.7-2.7
	c0.3,0,0.7-0.1,1-0.1c1.5,0,2.9,0.5,4.2,1.5c1.6,1.2,2.4,2.7,2.7,4.7C524.7,254.8,524.3,256.5,523.1,258.1z"/>
<polygon class="st1" points="508.3,286 513.3,289 513.2,282.7 546.4,282.4 546.4,277.4 508.2,277.8 "/>
<path class="st1" d="M42.1,283.2c3.5,0,6.4-0.4,8.7-1.2c2.9-1,5.2-2.5,6.7-4.5c1.6-2,2.4-4.2,2.6-6.7c0.1-2.5-0.5-4.8-1.8-6.9
	c-1.3-2.1-3.4-3.8-6.1-5c-2.7-1.2-6.5-2-11.4-2.2c-4.9-0.3-8.8,0.1-11.6,1c-2.8,1-5.1,2.4-6.6,4.3c-1.5,1.9-2.4,4.1-2.5,6.6
	c-0.1,2.5,0.5,4.9,1.8,7c1.3,2.1,3.4,3.9,6.2,5.2c2.7,1.3,6.5,2.1,11.2,2.3C40.2,283.2,41.2,283.2,42.1,283.2z M30.3,276.5
	c-2-0.8-3.4-1.9-4.4-3.2c-0.9-1.3-1.3-2.8-1.2-4.3c0.1-1.5,0.7-2.8,1.7-4.1c1.1-1.3,2.7-2.2,4.7-2.8c1.5-0.4,3.6-0.7,6.2-0.7
	c1,0,2,0,3.1,0.1c4.1,0.2,7.2,0.8,9.2,1.6c2,0.8,3.4,1.9,4.4,3.3c0.9,1.4,1.4,2.8,1.3,4.3c-0.1,1.4-0.7,2.8-1.7,4.1
	c-1.1,1.3-2.8,2.2-5,2.9c-2.3,0.7-5.3,0.9-8.9,0.7C35.9,278.1,32.8,277.5,30.3,276.5z"/>
<polygon class="st1" points="62.9,239.9 58.5,236.1 57.5,242.3 24.7,236.6 23.9,241.6 61.5,248.1 "/>
<path class="st1" d="M49.6,225.1c1.5,1.1,3,1.9,4.5,2.3c1.1,0.3,2.3,0.5,3.5,0.5c0.9,0,1.8-0.1,2.7-0.3c2.1-0.5,3.9-1.4,5.4-2.9
	c1.5-1.5,2.6-3.2,3.2-5.3c0.6-2.1,0.7-4.2,0.2-6.4c-0.5-2.1-1.5-4-2.9-5.5c-1.4-1.5-3.2-2.6-5.4-3.2c-3.1-0.9-6.1-0.7-8.9,0.8
	c-2.8,1.4-4.6,3.7-5.5,6.7c-0.2,0.7-0.3,1.4-0.4,2.2l-10.9-13l-3.8,3.2l13.2,16C46.5,222.4,48.1,224.1,49.6,225.1z M50.7,213.9
	c0.6-1.9,1.7-3.3,3.4-4.2c1.1-0.6,2.2-0.9,3.3-0.9c0.7,0,1.4,0.1,2.1,0.3c1.9,0.6,3.3,1.7,4.2,3.4c0.9,1.7,1.1,3.5,0.6,5.4
	c-0.6,1.9-1.7,3.3-3.4,4.2c-1.7,0.9-3.5,1.1-5.4,0.6c-1.9-0.6-3.3-1.7-4.2-3.4C50.3,217.6,50.1,215.8,50.7,213.9z"/>
<polygon class="st1" points="78.9,190.1 75.6,185.4 73.1,191.2 42.5,178.1 40.6,182.7 75.6,197.8 "/>
<path class="st1" d="M77.1,153.6c1.9,0,3.4-1.5,3.4-3.4s-1.5-3.4-3.4-3.4s-3.4,1.5-3.4,3.4S75.3,153.6,77.1,153.6z"/>
<path class="st1" d="M38.1,317.6c0,1.9,1.5,3.4,3.4,3.4s3.4-1.5,3.4-3.4s-1.5-3.4-3.4-3.4S38.1,315.7,38.1,317.6z"/>
<path class="st1" d="M489,153.6c1.9,0,3.4-1.5,3.4-3.4s-1.5-3.4-3.4-3.4c-1.9,0-3.4,1.5-3.4,3.4S487.1,153.6,489,153.6z"/>
<path class="st1" d="M521.5,317.6c0,1.9,1.5,3.4,3.4,3.4s3.4-1.5,3.4-3.4s-1.5-3.4-3.4-3.4S521.5,315.7,521.5,317.6z"/>
<path class="st1" d="M453.7,271c-2.6-1-11.9-3.8-17.9-5.9c-6.1-2.1-9.8-5.9-12.9-8.8c-3.2-2.9-24.6-25.1-26.1-27.8
	c-1.5-2.7,1.8-3.3,3.9-2.5c2.1,0.8,14.8,10.6,18.5,13.2c3.7,2.6,12,5.6,18.9,5.9c6.9,0.3,14.1-6.9,15.8-12.6
	c1.8-5.6-0.5-13.1-1.1-14.4c-0.5-1.3-2.6-3.9-4.1-3.4c-1.5,0.4-9.4,0.5-14.3-0.6c-4.9-1.1-25.2-13.5-28.3-15.6
	c-3.1-2-5.8-4.8-5.5-6.8c0.3-1.9,3.8-2.9,6.7-2.4c2.9,0.5,16.5,2.2,22,2.3c5.5,0.1,10.3-7.2,10.6-10.6c0.3-3.4-1.3-20.4-3.1-21.3
	c-1.8-0.9-4.1,0.6-15.6-0.1c-11.4-0.7-24.9-6.1-26.2-7c-1.3-1,0.3-3.4-0.7-9.5c-11.6,1.7-30.3-2.7-39.5-1.5
	c-9.2,1.2-14.1,8.2-14.8,15.1c-0.7,6.9,7.5,13.6,9.2,15c1.8,1.4,6.7,5.2,7.3,7.8c0.6,2.6-2.1,25-2.1,25s-25.2-0.5-28.8-0.5
	c-2.6-2.6-5.3-5.7-9.9-8.4c-4.6-2.7-6.2-2.3-12.6-3.3c-6.3-1.1-5.5-7.1-5.5-9.7c-0.1-2.6,1-4,4.1-4.9c3.2-1,5.7,2.4,9.8,0
	c4-2.4,2.4-8.9-2.6-19c-4.9-10.1-1.9-16.4-1-18.7c1-2.3,3.6-10,3.5-13.1c-0.1-3.1-12.2-5-14.1-2.1c-1.8,2.9,1,7.9,0,8.9
	c-1,1-3.8,0-5.7,0c-1.9,0-1.1-5.2-1.1-8.5c0-3.3-3.9-3.8-6.9-3.8c-3.1,0-6.9,0.4-6.9,3.8c0,3.3,0.8,8.5-1.1,8.5c-1.9,0-4.7,1-5.7,0
	c-1-1,1.8-6,0-8.9c-1.8-2.9-14-1-14.1,2.1c-0.1,3.1,2.6,10.8,3.5,13.1c1,2.3,4,8.6-1,18.7c-4.9,10.1-6.6,16.6-2.6,19
	c4,2.4,6.6-1,9.8,0c3.2,1,4.2,2.4,4.1,4.9c-0.1,2.6,0.8,8.6-5.5,9.7c-6.3,1.1-8,0.6-12.6,3.3c-4.6,2.7-7.3,5.8-9.8,8.4
	c-3.7,0-28.8,0.5-28.8,0.5s-2.7-22.3-2.1-25c0.6-2.6,5.5-6.4,7.3-7.8c1.8-1.4,9.9-8.1,9.2-15c-0.7-6.9-5.5-13.9-14.8-15.1
	c-9.2-1.2-27.9,3.2-39.5,1.5c-1,6.1,0.6,8.5-0.7,9.5c-1.3,1-14.8,6.3-26.2,7c-11.4,0.7-13.8-0.8-15.6,0.1
	c-1.8,0.9-3.3,17.9-3.1,21.3c0.3,3.4,5.1,10.7,10.6,10.6c5.5-0.1,19.1-1.8,22-2.3c2.9-0.5,6.4,0.4,6.7,2.4c0.3,1.9-2.5,4.7-5.5,6.8
	c-3.1,2-23.4,14.4-28.3,15.6c-4.9,1.1-12.8,1.1-14.3,0.6c-1.5-0.4-3.6,2.1-4.1,3.4c-0.5,1.3-2.8,8.8-1.1,14.4
	c1.8,5.6,8.9,12.8,15.8,12.6c6.9-0.3,15.2-3.3,18.9-5.9c3.7-2.6,16.4-12.4,18.5-13.2c2.1-0.8,5.4-0.3,3.9,2.5
	c-1.5,2.7-23,24.9-26.1,27.8c-3.2,2.9-6.9,6.7-12.9,8.8c-6.1,2.1-15.4,4.9-17.9,5.9c-2.6,1-3.7,3-3.1,6.1c0.6,3.1,1.7,14.2,8.7,17.6
	c7,3.4,23.1-1.1,27.3-3.8c4.1-2.7,21.7-22.1,25.7-27.6c4-5.5,7-9,8.6-7.6c1.6,1.4,1.3,3.2-1.1,7.5c-2.5,4.3-18.3,29.5-23,35.6
	c-4.7,6.1-10.8,13.5-15.4,17.6c-4.6,4.1-11,8.4-13.4,9.4c-2.4,1.1-2.3,3.3-0.9,5.2c1.4,1.9,5.7,6.9,14.4,8
	c8.7,1.1,21.5-0.4,27.8-5.7c6.3-5.3,21.6-30.7,24.8-38.3c3.2-7.7,6.7-14.9,8-15.8c1.3-0.9,4.5-0.5,3.8,3.1
	c-0.7,3.6-3.7,14.2-7.3,20.5c-3.6,6.2-5.5,10.9-5.9,12.8c-0.4,1.8,1.5,2.8,3.6,2.4c2.1-0.4,16.1-2.5,18.3-2.2c2.2,0.3,4.1,0.5,3,1.5
	c-1.1,1-12.5,16.4-14.5,19c-2,2.6-10.4,14.9-10.4,14.9s0.8,1.1,3.3,2.3c2.5,1.2,6.6,3.4,6.9,4.6c0.4,1.1-0.1,3-0.9,3.8
	c-0.8,0.8-10.7,13.5-11.4,13.5c-0.7,0-4.2-3.7-4.2-3.7s-13.6-14.1-16.8-15c-3.2-0.9-4.9,0.7-6.9,2c-1.9,1.3-8.7,7.7-8.8,10.7
	c-0.1,3-0.3,7.9,0.1,9.6c0.4,1.7,1.1-1.7,3.9-2.8c2.7-1.1,4.1-2.6,6.9-1.4c2.8,1.2,11.3,6.9,11.9,8.9c0.6,2,0.3,2.6-1.1,2.6
	c-1.4,0-10.9,1.8-16.4,2.3c-5.5,0.5-10.7,2.2-11.4,5.7c-0.7,3.5,0.2,12,5.1,17.8c4.9,5.8,7.7,4.4,7.7,4.4c-0.4-1.7-1.3-6.7,0-7.8
	c1.3-1.1,12.4-8.3,15.7-8.8c3.3-0.5,4.7,0.6,3.5,2.6c-1.1,2-7.9,16.1-8.9,18.8s-0.9,4.7,1.4,5.8c2.3,1.1,16,5.6,18,5.1
	c0,0-3.4-3.4-1.8-9.7c1.6-6.2,4.4-17.6,6.2-18.3c1.8-0.7,19.3,3,21.1,4c1.8,1.1,3.3,7.3,3.3,7.9c0,0.6,12-12.2,12-16
	c0-3.8,0.9-8.4-4.8-9.5c-5.7-1.1-14.3-0.3-17.3-1.1c-3-0.7-4.2-3.7-3.2-4.9c1.1-1.2,12.1-14.1,13.1-14.5c1-0.4,3-0.6,4,0
	c1.1,0.6,2.8,5.5,3.7,5.7c0.9,0.3,4.6-1.9,5.8-3.7c1.2-1.8,18.3-20.1,19.8-19.4c1.5,0.7,1.8,2.6,1.4,4.2c-0.4,1.6-5,12-10.7,17.5
	c-5.7,5.5-12,7.7-17.9,8.3c1.1,3.1,5.7,6.5,10.5,8c4.7,1.5,11.3,4.3,12.8,5.7c1.5,1.4,2.3,1.6,0.7,3.3c-1.6,1.8-10,8.4-15.6,11.4
	c-5.5,3-8.4,12.7-6,18.7c2.5,6.1,6.8,12,16.3,16.7c-0.3-8.9,0.1-10,2.5-12.1c2.4-2.1,12-7.2,15.7-7c3.6,0.2,3.8,0.8,3.8,0.8
	s-2.1,4.4-0.2,8.5c1.9,4.1,11.9,15.4,13.1,18.1c1.2,2.7,1.7,5,0.8,8.3c-1,3.5-3.9,6.5-3.9,6.5s4.1,0.6,8.7-0.7
	c5.7-1.6,16.6-13.4,18.8-21.2c2.2-7.8-0.3-19.5-0.3-19.5s0.2-0.6,3.8-0.8c3.6-0.2,13.3,4.9,15.7,7c2.4,2.1,2.7,3.3,2.5,12.1
	c9.5-4.7,13.8-10.6,16.3-16.7c2.5-6.1-0.4-15.7-6-18.7c-5.5-3-14-9.7-15.6-11.4c-1.6-1.8-0.8-1.9,0.7-3.3c1.5-1.4,8.1-4.2,12.8-5.7
	c4.7-1.5,9.4-4.9,10.5-8c-5.9-0.6-12.1-2.7-17.9-8.3c-5.7-5.5-10.4-15.9-10.7-17.5c-0.3-1.6-0.1-3.5,1.4-4.2
	c1.5-0.7,18.6,17.7,19.8,19.4c1.2,1.8,4.9,4,5.8,3.7c0.9-0.3,2.6-5.1,3.7-5.7c1.1-0.6,3.1-0.4,4,0c1,0.4,12,13.3,13.1,14.5
	c1.1,1.2-0.2,4.2-3.2,4.9c-3,0.7-11.6-0.1-17.3,1.1c-5.7,1.1-4.8,5.7-4.8,9.5c0,3.8,12,16.6,12,16c0-0.6,1.4-6.9,3.3-7.9
	c1.8-1.1,19.3-4.7,21.1-4c1.8,0.7,4.6,12,6.2,18.3c1.6,6.2-1.8,9.7-1.8,9.7c2,0.5,15.7-4,18-5.1c2.3-1.1,2.4-3.1,1.4-5.8
	c-1-2.7-7.7-16.8-8.9-18.8c-1.1-2,0.3-3.2,3.5-2.6c3.3,0.5,14.3,7.7,15.7,8.8c1.3,1.1,0.4,6.2,0,7.8c0,0,2.7,1.4,7.7-4.4
	c4.9-5.8,5.8-14.2,5.1-17.8c-0.7-3.5-5.9-5.2-11.4-5.7c-5.5-0.5-15-2.3-16.4-2.3c-1.4,0-1.8-0.6-1.1-2.6c0.6-2,9.1-7.7,11.9-8.9
	c2.8-1.2,4.2,0.3,6.9,1.4c2.7,1.1,3.5,4.5,3.9,2.8c0.3-1.7,0.2-6.6,0.1-9.6c-0.1-3-6.9-9.4-8.8-10.7c-1.9-1.3-3.7-2.9-6.9-2
	c-3.2,0.9-16.8,15-16.8,15s-3.5,3.7-4.2,3.7c-0.7,0-10.6-12.7-11.4-13.5c-0.8-0.8-1.2-2.6-0.9-3.8c0.4-1.1,4.5-3.3,6.9-4.6
	c2.5-1.2,3.3-2.3,3.3-2.3s-8.4-12.3-10.4-14.9c-2-2.6-13.4-18-14.5-19c-1.1-1,0.8-1.2,3-1.5c2.2-0.3,16.2,1.8,18.3,2.2
	c2.1,0.4,4-0.5,3.6-2.4c-0.4-1.8-2.3-6.5-5.9-12.8c-3.6-6.2-6.6-16.9-7.3-20.5c-0.7-3.6,2.5-4,3.8-3.1c1.3,0.9,4.8,8.2,8,15.8
	c3.2,7.7,18.5,33.1,24.8,38.3c6.3,5.3,19.1,6.8,27.8,5.7c8.7-1.1,13-6.1,14.4-8c1.4-1.9,1.5-4.1-0.9-5.2s-8.8-5.3-13.4-9.4
	c-4.6-4.1-10.7-11.5-15.4-17.6c-4.7-6.1-20.5-31.3-23-35.6c-2.5-4.3-2.7-6.1-1.1-7.5c1.6-1.4,4.7,2,8.6,7.6
	c4,5.5,21.5,24.9,25.7,27.6c4.1,2.7,20.2,7.2,27.3,3.8c7-3.4,8.1-14.5,8.7-17.6C457.4,274,456.3,272,453.7,271z M213.5,237.4
	c0,0.7,0,1.1,0.1,1.3c0.1,0.7,0.1,1.2,0.1,1.7V264h-7.2v-39.4h9.9l13.4,23.2c-0.1-1.2-0.2-2-0.2-2.6v-20.6h7.1V264h-7.9L213.5,237.4
	z M237.6,312l-14.4,0.7l14.4-26.4V312z M244.2,247c-1.5,0-2.7-1.2-2.7-2.7c0-1.5,1.2-2.7,2.7-2.7s2.7,1.2,2.7,2.7
	C246.9,245.8,245.7,247,244.2,247z M281.9,264h-9.1v-16.2h-12.3V264h-9.1v-39.4h9.1v15.3h12.3v-15.3h9.1V264z M292.7,247
	c-1.5,0-2.7-1.2-2.7-2.7c0-1.5,1.2-2.7,2.7-2.7c1.5,0,2.7,1.2,2.7,2.7C295.4,245.8,294.2,247,292.7,247z M311.8,232.4V264h-9.3
	v-31.6h-9.8v-7.8h28.9v7.8H311.8z M324.3,247c-1.5,0-2.7-1.2-2.7-2.7c0-1.5,1.2-2.7,2.7-2.7c1.5,0,2.7,1.2,2.7,2.7
	C327,245.8,325.8,247,324.3,247z M327.4,312v-25.7l14.4,26.4L327.4,312z M342.4,254.4c1.3,1.8,3.1,2.6,5.5,2.6c3.8,0,6.1-2.5,7-7.4
	l8.9,0.5c-0.6,4.7-2.3,8.3-5.3,10.7c-2.9,2.5-6.5,3.7-10.8,3.7c-5.2,0-9.4-1.8-12.7-5.4c-3.3-3.6-4.9-8.6-4.9-14.9
	c0-5.9,1.6-10.8,4.7-14.6s7.5-5.7,12.9-5.7c9.5,0,14.8,5.1,16,15.3l-9.7,0.6c-0.1-5.6-2.3-8.3-6.5-8.3c-4.8,0-7.2,4.3-7.2,12.8
	C340.4,249.3,341.1,252.7,342.4,254.4z"/>
</svg>
