<?xml version="1.0" encoding="UTF-8" standalone="no"?>
<!DOCTYPE svg PUBLIC "-//W3C//DTD SVG 1.1//EN" "http://www.w3.org/Graphics/SVG/1.1/DTD/svg11.dtd">
<svg width="217px" height="427px" viewBox="0 0 217 427" version="1.1" xmlns="http://www.w3.org/2000/svg" xmlns:xlink="http://www.w3.org/1999/xlink">
    <g id="BAY" stroke="none" stroke-width="1" fill="none" fill-rule="evenodd">
        <g id="Artboard">
            <g id="Group-3">
                <mask id="mask-2" fill="white">
                    <use xlink:href="#path-1"></use>
                </mask>
                <g id="Clip-2"></g>
                <polygon id="Fill-1" fill="#FFFFFE" mask="url(#mask-2)" points="-5.42581345e-16 427 216.760079 427 216.760079 0 -5.42581345e-16 0"></polygon>
            </g>
            <polyline id="Fill-4" fill="#6F8F9D" points="30.8590599 265.121292 27.336506 265.121292 27.336506 245.546515 18.6302479 245.546515 18.6302479 265.121292 15.107694 265.121292 15.107694 227.177074 18.6302479 227.177074 18.6302479 242.325772 27.336506 242.325772 27.336506 227.177074 30.8590599 227.177074 30.8590599 265.121292"></polyline>
            <path d="M54.0541334,246.14966 C54.0541334,252.841463 54.3056422,262.200929 59.7408552,262.200929 C65.1758298,262.200929 65.427577,252.841463 65.427577,246.14966 C65.427577,239.455472 65.1758298,230.095291 59.7408552,230.095291 C54.3056422,229.843782 54.0541334,239.455472 54.0541334,246.14966 M69.0504961,246.14966 C69.0504961,253.244354 68.5477168,265.62431 59.7408552,265.62431 C51.4374881,265.62431 50.4304992,255.006108 50.4304992,246.14966 C50.4304992,236.536778 51.6889969,226.673579 59.7408552,226.673579 C68.2959696,226.673579 69.0504961,237.795276 69.0504961,246.14966" id="Fill-5" fill="#6F8F9D"></path>
            <path d="M102.561722,264.06281 C101.253638,264.971102 99.3915193,265.62431 97.7308459,265.62431 C88.8233808,265.62431 87.5148197,254.000073 87.5148197,247.508523 C87.5148197,241.367416 87.7160268,226.673579 98.083435,226.673579 C99.4918845,226.673579 101.404544,227.026168 102.561722,227.881298 L102.561722,231.755726 C101.152319,230.80047 99.8950138,230.095053 98.13326,230.095053 C91.9935839,230.095053 91.1384539,239.002518 91.1384539,246.047149 C91.1384539,250.476565 91.1384539,262.200929 97.8819896,262.200929 C99.5922496,262.200929 101.203098,261.447595 102.561722,260.491623 L102.561722,264.06281" id="Fill-6" fill="#6F8F9D"></path>
            <polyline id="Fill-7" fill="#6F8F9D" points="128.323378 245.243751 136.878731 265.121292 132.902984 265.121292 125.354859 245.997086 125.253778 245.997086 125.253778 265.121292 121.73194 265.121292 121.73194 227.177074 125.253778 227.177074 125.253778 244.387906 125.354859 244.387906 132.902984 227.177074 136.828906 227.177074 128.323378 245.243751"></polyline>
            <polyline id="Fill-8" fill="#6F8F9D" points="166.867403 230.398055 158.462479 230.398055 158.462479 243.784762 166.616133 243.784762 166.616133 247.005505 158.462479 247.005505 158.462479 261.900549 166.867403 261.900549 166.867403 265.121292 154.939687 265.121292 154.939687 227.177074 166.867403 227.177074 166.867403 230.398055"></polyline>
            <path d="M195.397325,248.514558 L195.397325,265.121292 L191.873579,265.121292 L191.873579,248.514558 L184.526183,227.177074 L188.300246,227.177074 L192.075024,239.95849 C192.578519,241.620117 192.981886,243.331807 193.534967,245.041114 L193.736651,245.041114 C194.088287,243.27936 194.339557,241.467543 194.843052,239.758236 L198.567289,227.177074 L202.341114,227.177074 L195.397325,248.514558" id="Fill-9" fill="#6F8F9D"></path>
            <polyline id="Fill-10" fill="#6F8F9D" points="29.2877854 279.015069 23.6010636 279.015069 23.6010636 313.739974 20.0785097 313.739974 20.0785097 279.015069 14.3915495 279.015069 14.3915495 275.794325 29.2877854 275.794325 29.2877854 279.015069"></polyline>
            <polyline id="Fill-11" fill="#6F8F9D" points="61.3400222 279.015069 52.9355747 279.015069 52.9355747 292.40106 61.0880366 292.40106 61.0880366 295.621803 52.9355747 295.621803 52.9355747 310.519231 61.3400222 310.519231 61.3400222 313.739974 49.4130208 313.739974 49.4130208 275.794325 61.3400222 275.794325 61.3400222 279.015069"></polyline>
            <path d="M98.9776621,313.739974 L95.9087777,313.739974 L87.3529481,288.224344 C86.7993903,286.665228 86.4975797,284.953538 86.0443871,283.344358 L85.84318,283.344358 C85.9940853,285.809383 86.2460709,288.224344 86.2460709,290.691753 L86.2460709,313.739974 L83.1762329,313.739974 L83.1762329,275.794325 L86.2460709,275.794325 L94.9513754,302.163416 C95.4052833,303.4746 95.7566804,304.781015 96.109508,306.089815 L96.2604133,306.089815 C96.1600481,304.428188 95.9087777,302.718881 95.9087777,301.057254 L95.9087777,275.794325 L98.9776621,275.794325 L98.9776621,313.739974" id="Fill-12" fill="#6F8F9D"></path>
            <path d="M137.621814,313.739974 L134.551976,313.739974 L125.9971,288.224344 C125.442827,286.665228 125.141017,284.953538 124.688777,283.344358 L124.487332,283.344358 C124.638237,285.809383 124.889746,288.224344 124.889746,290.691753 L124.889746,313.739974 L121.819908,313.739974 L121.819908,275.794325 L124.889746,275.794325 L133.596481,302.163416 C134.049435,303.4746 134.401071,304.781015 134.75366,306.089815 L134.904565,306.089815 C134.803485,304.428188 134.551976,302.718881 134.551976,301.057254 L134.551976,275.794325 L137.621814,275.794325 L137.621814,313.739974" id="Fill-13" fill="#6F8F9D"></path>
            <polygon id="Fill-14" fill="#6F8F9D" points="160.464775 313.739974 163.987568 313.739974 163.987568 275.794325 160.464775 275.794325"></polygon>
            <path d="M199.964296,281.782858 C198.455481,280.073551 196.794093,278.712305 194.378654,278.712305 C190.855862,278.712305 188.893378,281.632668 188.893378,284.853411 C188.893378,289.282827 192.11436,291.344961 195.385643,293.559669 C198.606386,295.82444 201.82713,298.239402 201.82713,303.4746 C201.82713,309.007794 198.253797,314.242992 192.315805,314.242992 C190.201462,314.242992 188.038248,313.637464 186.327273,312.331048 L186.327273,307.749058 C187.936929,309.460748 190.050557,310.819611 192.46671,310.819611 C196.190233,310.819611 198.253797,307.548804 198.204211,304.127808 C198.253797,299.698392 194.983467,297.736384 191.762486,295.471613 C188.541742,293.256905 185.27022,290.79188 185.27022,285.356429 C185.27022,280.273805 188.390837,275.291308 193.97624,275.291308 C196.240773,275.291308 198.153432,276.047026 199.964296,277.303378 L199.964296,281.782858" id="Fill-15" fill="#6F8F9D"></path>
            <path d="M29.6856699,361.293022 C28.3771089,362.19893 26.5152284,362.854522 24.8545549,362.854522 C15.9473282,362.854522 14.6387671,351.227901 14.6387671,344.736351 C14.6387671,338.597628 14.8402126,323.902838 25.2069057,323.902838 C26.6158319,323.902838 28.528491,324.255665 29.6856699,325.111511 L29.6856699,328.985462 C28.2765053,328.02949 27.0187228,327.323835 25.2574459,327.323835 C19.1175314,327.323835 18.262163,336.23273 18.262163,343.277361 C18.262163,347.706777 18.262163,359.431141 25.0054602,359.431141 C26.7164354,359.431141 28.3268071,358.677807 29.6856699,357.721835 L29.6856699,361.293022" id="Fill-16" fill="#6F8F9D"></path>
            <polyline id="Fill-17" fill="#6F8F9D" points="76.3282794 359.130761 84.5815831 359.130761 84.5815831 362.351504 72.8057254 362.351504 72.8057254 324.405856 76.3282794 324.405856 76.3282794 359.130761"></polyline>
            <path d="M141.943713,350.324376 C141.943713,357.318944 141.390632,362.854522 133.993412,362.854522 C126.394746,362.854522 126.042396,357.116306 126.042396,350.324376 L126.042396,324.405856 L129.56495,324.405856 L129.56495,350.121739 C129.56495,356.413035 129.916585,359.431141 133.993412,359.431141 C138.018745,359.431141 138.421874,356.413035 138.421874,350.121739 L138.421874,324.405856 L141.943713,324.405856 L141.943713,350.324376" id="Fill-18" fill="#6F8F9D"></path>
            <path d="M189.946616,359.331014 L190.902111,359.331014 C196.186657,359.331014 197.746012,357.621708 197.746012,352.186257 C197.746012,345.794833 195.481479,344.18327 191.002476,344.18327 L189.946616,344.18327 L189.946616,359.331014 Z M189.946616,341.16278 L190.902111,341.16278 C193.771219,341.16278 196.841057,341.668182 196.841057,334.068086 C196.841057,328.079553 195.431892,327.426345 190.902111,327.426345 L189.946616,327.426345 L189.946616,341.16278 Z M186.423824,362.351504 L186.423824,324.405856 L191.354827,324.405856 C196.337562,324.405856 200.463976,325.009 200.463976,333.815385 C200.463976,337.641656 199.609084,341.115101 195.733703,342.824407 L195.733703,342.624153 C200.413674,343.88289 201.368931,347.606651 201.368931,351.933556 C201.368931,359.834032 198.652635,362.351504 191.002476,362.351504 L186.423824,362.351504 L186.423824,362.351504 Z" id="Fill-19" fill="#6F8F9D"></path>
            <path d="M36.204874,410.974954 L32.9841307,410.974954 L29.1597662,385.411645 C28.9580823,384.102846 28.8574788,381.284993 28.7068119,379.220475 L28.5053664,379.220475 C28.3041594,381.284993 28.1527773,384.152909 27.9518086,385.411645 L23.5233462,410.974954 L20.3026028,410.974954 L14.2635303,373.031689 L17.8871645,373.031689 L21.2588132,398.394745 C21.510322,400.256626 21.6612273,402.170954 21.8626727,404.03045 L22.0638798,404.03045 C22.3153886,402.170954 22.4662939,400.256626 22.7685813,398.394745 L27.1465036,373.031689 L30.1660399,373.031689 L33.7891973,398.394745 C34.0411829,400.256626 34.2926918,402.170954 34.5439622,404.03045 L34.7458844,404.03045 C34.9468531,402.170954 35.0977584,400.256626 35.399569,398.394745 L39.3250138,373.031689 L42.8983463,373.031689 L36.204874,410.974954" id="Fill-20" fill="#6F8F9D"></path>
            <path d="M65.5899254,398.947826 C65.5899254,405.944778 65.0368443,411.477972 57.6386706,411.477972 C50.0400049,411.477972 49.6878926,405.74214 49.6878926,398.947826 L49.6878926,373.031689 L53.2104465,373.031689 L53.2104465,398.747573 C53.2104465,405.036485 53.5625588,408.056975 57.6386706,408.056975 C61.6647189,408.056975 62.0673714,405.036485 62.0673714,398.747573 L62.0673714,373.031689 L65.5899254,373.031689 L65.5899254,398.947826" id="Fill-21" fill="#6F8F9D"></path>
            <polygon id="Fill-22" fill="#6F8F9D" points="56.2438098 383.225545 59.1872974 383.225545 59.1872974 372.902955 56.2438098 372.902955"></polygon>
            <path d="M77.273285,389.538297 L78.5315443,389.538297 C83.4632629,389.538297 84.2685679,387.826607 84.2685679,382.84411 C84.2685679,376.855577 82.4569892,376.252433 77.9777481,376.252433 L77.273285,376.252433 L77.273285,389.538297 Z M73.7507311,410.974954 L73.7507311,373.031689 L77.5247938,373.031689 C82.8088631,373.031689 87.8919637,373.43458 87.8919637,382.693919 C87.8919637,387.523842 86.8349115,392.256023 80.7455372,392.456276 L89.150223,410.974954 L85.4257469,410.974954 L77.3738886,392.406213 L77.273285,392.406213 L77.273285,410.974954 L73.7507311,410.974954 L73.7507311,410.974954 Z" id="Fill-23" fill="#6F8F9D"></path>
            <polyline id="Fill-24" fill="#6F8F9D" points="98.2050175 407.754211 107.767121 407.754211 107.767121 410.977338 93.8769202 410.977338 104.395472 376.252433 94.883909 376.252433 94.883909 373.031689 108.823935 373.031689 98.2050175 407.754211"></polyline>
            <path d="M119.338672,407.956848 L120.294167,407.956848 C125.578713,407.956848 127.139022,406.245158 127.139022,400.809707 C127.139022,394.418283 124.874489,392.809104 120.395486,392.809104 L119.338672,392.809104 L119.338672,407.956848 Z M119.338672,389.788614 L120.294167,389.788614 C123.163275,389.788614 126.233113,390.291632 126.233113,382.693919 C126.233113,376.705387 124.823949,376.052179 120.294167,376.052179 L119.338672,376.052179 L119.338672,389.788614 Z M115.816118,410.977338 L115.816118,373.031689 L120.748075,373.031689 C125.729857,373.031689 129.856271,373.634834 129.856271,382.441219 C129.856271,386.26749 129.000187,389.738551 125.125998,391.450241 L125.125998,391.249987 C129.80573,392.50634 130.762894,396.230101 130.762894,400.55939 C130.762894,408.459866 128.044692,410.977338 120.395486,410.977338 L115.816118,410.977338 L115.816118,410.977338 Z" id="Fill-25" fill="#6F8F9D"></path>
            <path d="M154.611891,398.947826 C154.611891,405.944778 154.05881,411.477972 146.66159,411.477972 C139.062209,411.477972 138.710573,405.74214 138.710573,398.947826 L138.710573,373.031689 L142.233366,373.031689 L142.233366,398.747573 C142.233366,405.036485 142.584763,408.056975 146.66159,408.056975 C150.687161,408.056975 151.089337,405.036485 151.089337,398.747573 L151.089337,373.031689 L154.611891,373.031689 L154.611891,398.947826" id="Fill-26" fill="#6F8F9D"></path>
            <path d="M167.038572,389.538297 L168.298024,389.538297 C173.229027,389.538297 174.03457,387.826607 174.03457,382.84411 C174.03457,376.855577 172.222992,376.252433 167.743751,376.252433 L167.038572,376.252433 L167.038572,389.538297 Z M163.516018,410.974954 L163.516018,373.031689 L167.290081,373.031689 C172.574627,373.031689 177.657489,373.43458 177.657489,382.693919 C177.657489,387.523842 176.600676,392.256023 170.510824,392.456276 L178.915749,410.974954 L175.192465,410.974954 L167.138937,392.406213 L167.038572,392.406213 L167.038572,410.974954 L163.516018,410.974954 L163.516018,410.974954 Z" id="Fill-27" fill="#6F8F9D"></path>
            <path d="M192.852914,390.947223 L201.507439,390.947223 L201.507439,397.941791 C201.507439,403.930323 201.206582,411.477972 193.356408,411.477972 C185.353898,411.477972 184.599133,403.074478 184.599133,391.097413 C184.599133,382.140838 185.656662,372.528672 193.708044,372.528672 C198.23711,372.528672 200.502358,375.546778 201.457853,379.675814 L197.985601,381.032292 C197.583425,378.767521 196.626976,375.949669 193.858949,375.949669 C188.625181,375.999732 188.223006,384.102846 188.223006,390.794649 C188.223006,404.836232 189.984759,408.056975 193.658457,408.056975 C197.63325,408.056975 197.985601,405.136612 197.985601,397.035882 L197.985601,394.167967 L192.852914,394.167967 L192.852914,390.947223" id="Fill-28" fill="#6F8F9D"></path>
            <polygon id="Fill-29" fill="#FFFFFE" points="13.9791227 198.25046 202.766891 198.25046 202.766891 146.216979 13.9791227 146.216979"></polygon>
            <polyline id="Fill-30" fill="#C11E43" points="202.766891 146.216979 13.9791227 146.216979 13.9791227 183.057658 202.766891 146.216979"></polyline>
            <polyline id="Fill-31" fill="#006095" points="13.9791227 198.25046 202.766891 198.25046 202.766891 161.409066 13.9791227 198.25046"></polyline>
            <path d="M13.9791227,271.314846 L202.766891,271.314846 L202.766891,270.428009 L13.9791227,270.428009 L13.9791227,271.314846 Z M13.9791227,319.933528 L202.766891,319.933528 L202.766891,319.044307 L13.9791227,319.044307 L13.9791227,319.933528 Z M13.9791227,368.55221 L202.766891,368.55221 L202.766891,367.662989 L13.9791227,367.662989 L13.9791227,368.55221 Z" id="Fill-32" fill="#6F8F9D"></path>
            <path d="M174.606485,111.515437 C153.839485,141.834527 87.4211297,133.955268 88.0872109,90.2041761 C88.2924707,76.7042314 95.1335107,66.7242182 104.940686,60.3451916 L104.940686,116.304594 L116.268119,116.304594 L116.268119,54.9409702 C133.736897,49.1050119 155.109187,51.7364379 167.368991,63.1496938 C170.830515,59.3963716 171.774567,58.6103767 174.292039,55.62064 C157.308638,42.2408474 135.221395,39.8544935 116.268119,45.0243706 L116.268119,37.0044575 L154.269076,37.0044575 L154.269076,25.6765478 L72.2176001,25.6765478 L72.2176001,19.9652711 L60.8899287,19.9652711 L60.8899287,25.6765478 L52.5758337,25.6765478 L52.5758337,37.0044575 L60.8899287,37.0044575 L60.8899287,52.4218292 L34.3451391,52.4218292 L34.3451391,19.9652711 L23.0179445,19.9652711 L23.0179445,52.4218292 L17.8597489,52.4218292 L17.8597489,64.2527566 L23.0179445,64.2527566 L23.0179445,116.304594 L34.3451391,116.304594 L34.3451391,64.2527566 L60.8899287,64.2527566 L60.8899287,116.304594 L72.2176001,116.304594 L72.2176001,64.2527566 L77.7472182,64.2527566 L77.7472182,52.4218292 L72.2176001,52.4218292 L72.2176001,37.0044575 L104.940686,37.0044575 L104.940686,49.1932188 C88.0702847,57.1554399 75.8071435,71.6282827 75.8071435,89.4451201 C75.8071435,141.921542 151.794277,156.360533 182.376319,119.350354 C178.067771,115.471635 178.853765,116.01065 174.606485,111.515437" id="Fill-33" fill="#6F8F9D"></path>
            <polyline id="Fill-34" fill="#6F8F9D" points="196.99816 116.304355 196.99816 19.9652711 185.670966 19.9652711 185.670966 99.240614 165.135926 78.6207048 155.926412 87.5775181 155.930703 87.5820476 140.676633 102.312359 140.676633 61.2701719 129.3492 61.2701719 129.3492 116.304355 140.069198 116.304355 140.093276 116.332963 144.32363 116.332963 164.867729 96.4585212 184.847781 116.305309 189.305566 116.304355 196.99816 116.304355"></polyline>
        </g>
    </g>
</svg>