<?xml version="1.0" encoding="UTF-8" standalone="no"?>
<!-- Generator: Deutscher Hockey-Bund e.V.  -->
<svg version="1.0" id="Ebene_1" xmlns="http://www.w3.org/2000/svg" xmlns:xlink="http://www.w3.org/1999/xlink" x="0px" y="0px" viewBox="0 0 911.8 1281.8" style="enable-background:new 0 0 911.8 1281.8;" xml:space="preserve" preserveAspectRatio="xMidYMid meet">
<style type="text/css">
	.st0{display:none;}
	.st1{display:inline;}
	.st2{fill-rule:evenodd;clip-rule:evenodd;fill:#FFFFFF;}
	.st3{fill-rule:evenodd;clip-rule:evenodd;fill:#005F9C;}
	.st4{fill-rule:evenodd;clip-rule:evenodd;fill:#CA2720;}
	.st5{fill:#005F9C;stroke:#000000;stroke-miterlimit:10;}
	.st6{fill:#005F9C;}
</style>
<g id="Ebene_1_00000154412690455648077800000010289205636913216903_" class="st0">
	<g id="Ebene_x0020_1" class="st1">
		<g id="_74211136">
			<path id="_47223936" class="st2" d="M125.8,414.1V238.3l162.9-130.4h344.7l162.9,130.5v175.8l111.5,296.2
				c-0.1,25.1-0.4,47.8-3.8,72.8c-32.8,239.1-227.2,398.6-443,475.9c-215.8-78.1-410.1-236.6-443-476c-3.4-25-3.7-47.5-3.8-72.8
				L125.8,414.1L125.8,414.1z"></path>
			<path id="_48295312" class="st3" d="M461,1154.6c0,0-349.4-121.2-349.4-442.9V483.3L23.1,720l4.3,61.8L41,847.1l21,59.8
				c12.9,27.8,26.5,53.1,42.6,79.2l33.5,45.7c17.6,20.5,35.4,39.6,54.7,58.5c29.8,26.9,59.8,50.6,92.9,73.2
				c44.6,28.6,90.4,53.8,139.8,72.9l35.4,12.7l35.4-12.7c49.4-19.1,95.3-44.3,139.8-72.9c33.1-22.6,63.2-46.3,92.9-73.2
				c19.3-18.9,37.1-37.9,54.7-58.5l33.5-45.7c16.1-26.1,29.7-51.3,42.6-79.2l21.1-59.9l13.5-65.2l4.3-61.8l-88.5-236.7v228.4
				C810.4,1033.4,461,1154.6,461,1154.6L461,1154.6z M111.6,411.5v-180L283.7,93.7h354.6l172.1,137.8v180L922,707.8l-0.2,41.2
				l-3.7,36.1l-6,34.9l-8.2,33.5l-22.1,62.8c-13.5,29.1-27.7,55.6-44.6,82.9l-35,47.7c-18.3,21.3-36.8,41.1-56.8,60.8
				c-30.8,27.8-61.9,52.3-96.1,75.6c-46.1,29.6-93.4,55.6-144.5,75.3l-43.8,15.7l-43.8-15.7c-51.1-19.7-98.5-45.7-144.5-75.3
				c-34.2-23.4-65.3-47.9-96.1-75.6c-20.1-19.6-38.6-39.4-56.8-60.8l-35-47.7c-16.8-27.3-31-53.8-44.6-82.9l-22.1-62.8L10,819.9
				L4,785l-3.7-36.1L0,707.8L111.6,411.5L111.6,411.5z M780.8,409.5V245.7L627.9,123.3H294.1L141.2,245.7v163.8H780.8L780.8,409.5z
				 M95.6,742.1l1.3,12.3l-39.4,16.5l41.9,8.1l1.3,12.3l-50.8,5.3l-0.8-8l42-4.4L47.8,776l-0.9-8.3l40.7-16.8l-42,4.4l-0.8-7.8
				L95.6,742.1L95.6,742.1z M98.9,822.5l-23.4-1.6l3.9,14.7L98.9,822.5L98.9,822.5z M106,815.7l2.5,9.3L64,856.3l-2.4-8.8l11.6-7.8
				l-5.1-19.2l-13.9-0.9l-2.3-8.6L106,815.7L106,815.7z M117.4,897.7l-3-7.9c2.6-1.7,4.3-3.9,5.1-6.6c0.8-2.7,0.5-5.7-0.7-8.9
				c-1.8-4.8-4.8-7.9-9-9.3c-4.2-1.4-9.1-1-14.9,1.2c-5.6,2.2-9.6,5.2-11.8,9.1c-2.2,3.9-2.4,8.2-0.7,12.7c1.5,3.9,3.9,6.6,7.3,8.1
				c3.3,1.5,7.1,1.5,11.2,0.1l-5-13.1l6.6-2.5l7.8,20.4l-25.7,9.9l-2-5.3l5.5-3.6c-3.1-0.8-5.7-2.3-7.9-4.4c-2.2-2-3.9-4.7-5.1-7.8
				c-2.5-6.6-2.3-12.8,0.8-18.7c3-5.9,8.3-10.2,15.8-13.1c7.6-2.9,14.5-3.2,20.7-0.8c6.1,2.4,10.5,7,13.2,13.9
				c2.2,5.7,2.6,10.9,1.2,15.6C125.2,891.5,122.1,895.1,117.4,897.7L117.4,897.7z M136.6,914.1l-32.1,17l4.9,9.2
				c2.4,4.5,5.5,7.1,9.3,7.7c3.8,0.7,8.5-0.5,14.1-3.4c5.1-2.7,8.4-5.8,9.9-9.4c1.5-3.5,1.2-7.4-1-11.5L136.6,914.1L136.6,914.1z
				 M139.1,903.3l9.3,17.4c3.5,6.6,4.3,12.6,2.3,17.9c-2,5.3-6.7,9.9-14.1,13.9c-7.3,3.9-13.9,5-19.7,3.5
				c-5.9-1.6-10.6-5.7-14.2-12.6l-8.6-16.2L139.1,903.3L139.1,903.3z M165.9,948.8l21,30l-6.1,4.3l-16.2-23.2l-10.9,7.7l15,21.4
				l-5.9,4.1l-15-21.4l-12.6,8.9l16.8,23.9l-6.3,4.4L124,978.1L165.9,948.8L165.9,948.8z M179.1,1012.7l-12,10.4l8.8,10.1
				c2.2,2.5,4.3,3.9,6.3,4.3c2.1,0.4,4.1-0.3,6.2-2.1c2-1.8,3-3.7,2.8-5.7c-0.1-2.1-1.4-4.5-3.7-7.2L179.1,1012.7L179.1,1012.7z
				 M194.7,999.2l-10.3,9l7.9,9.1c2.1,2.4,4.1,3.8,5.9,4.1c1.8,0.3,3.7-0.3,5.6-1.9c1.6-1.4,2.4-3,2.2-4.9c-0.1-1.8-1.2-3.8-3.2-6.1
				L194.7,999.2L194.7,999.2z M194.6,988.3l14.5,16.7c3.5,4,5.3,7.8,5.4,11.2c0.1,3.4-1.5,6.5-4.7,9.4c-1.8,1.6-3.8,2.6-6,2.9
				c-2.2,0.3-4.3,0-6.4-1.1c1.3,2.8,1.6,5.4,1.1,7.9c-0.6,2.5-2.1,4.9-4.6,7c-3.5,3-7.3,4.3-11.5,3.6c-4.1-0.6-8-3-11.6-7.2
				l-14.8-16.9L194.6,988.3L194.6,988.3z M229.3,1027.1l6.1,5.9l-22.1,22.9c-3.1,3.2-4.7,6.2-4.7,9c-0.1,2.8,1.3,5.6,4.1,8.4
				c2.9,2.8,5.7,4.1,8.6,3.9c2.8-0.2,5.8-1.9,8.8-5l22.1-22.9l6.1,5.9l-22.3,23.2c-4.5,4.7-9.2,7-14.2,7.1s-9.8-2.1-14.4-6.6
				c-4.8-4.6-7.2-9.3-7.3-14.1c-0.1-4.8,2.2-9.6,6.8-14.4L229.3,1027.1z M270.8,1074.7l-9.7,12.4l9.6,7.5c2.8,2.2,5.2,3.3,7.2,3.2
				c2,0,3.8-1.2,5.6-3.4c1.7-2.2,2.3-4.2,1.9-6.1c-0.4-1.9-2-3.9-4.8-6.1L270.8,1074.7L270.8,1074.7z M268.6,1063.9l17.4,13.6
				c0.5,0.4,1.1,0.9,1.7,1.4c0.2,0.2,0.3,0.3,0.3,0.3c3.6,2.8,5.6,5.9,6,9.5c0.5,3.6-0.7,7.1-3.4,10.6c-1.8,2.3-3.8,3.8-6.1,4.7
				c-2.3,0.8-4.6,0.9-7,0.2c1.2,1.8,1.8,3.6,1.6,5.3c-0.2,1.7-1.2,3.9-3.1,6.6l-4.1,6c0,0,0,0,0,0.1c-1.9,2.6-2.5,4.6-1.9,5.9
				l-0.9,1.2l-7.5-5.9c0.1-0.8,0.4-1.6,0.8-2.4s1.2-2.1,2.3-3.7l3.5-5c1.9-2.7,2.7-4.8,2.4-6.4c-0.3-1.6-1.5-3.3-3.8-5l-1.3-1
				l-8.9-6.9l-12.9,16.6l-6.6-5.2L268.6,1063.9L268.6,1063.9z M339.6,1135l-6.9-4.8c1.2-2.8,1.4-5.6,0.5-8.3c-0.9-2.7-2.7-5-5.6-7
				c-4.2-2.9-8.4-3.8-12.7-2.7c-4.2,1.2-8.1,4.3-11.7,9.3c-3.5,4.9-5,9.7-4.7,14.1c0.3,4.5,2.5,8.1,6.6,10.9
				c3.4,2.4,6.9,3.3,10.6,2.7c3.6-0.6,6.7-2.7,9.4-6.1l-11.5-8l4-5.8l17.9,12.5l-15.8,22.6l-4.6-3.2l2.5-6.1c-3,1-6,1.3-9,0.8
				s-5.8-1.7-8.6-3.6c-5.8-4-9.1-9.3-9.8-15.9c-0.8-6.6,1.2-13.1,5.8-19.7c4.7-6.7,10.3-10.8,16.7-12.2c6.4-1.5,12.6-0.1,18.7,4.2
				c5,3.5,8.3,7.6,9.7,12.3C342.5,1125.4,342,1130.2,339.6,1135L339.6,1135z M361.5,1128.2l31.7,18.3l-3.7,6.5l-24.5-14.1l-6.7,11.6
				l22.6,13l-3.6,6.2l-22.6-13l-7.7,13.4l25.3,14.6l-3.8,6.6l-32.5-18.8L361.5,1128.2L361.5,1128.2z M409.6,1161.5l-6.4,14.4l11.1,5
				c3.3,1.4,5.8,1.9,7.8,1.4c1.9-0.5,3.5-2.1,4.6-4.6s1.2-4.6,0.3-6.4c-0.9-1.7-2.9-3.3-6.1-4.7L409.6,1161.5L409.6,1161.5z
				 M404.9,1151.6l20.1,9c0.6,0.3,1.3,0.6,2,1c0.2,0.1,0.4,0.2,0.4,0.2c4.1,1.8,6.8,4.4,8.1,7.8c1.3,3.3,1.1,7-0.7,11.1
				c-1.2,2.6-2.8,4.6-4.8,6s-4.3,2-6.8,1.8c1.6,1.5,2.6,3,2.8,4.7c0.2,1.7-0.2,4.1-1.4,7.1l-2.6,6.9c0,0,0,0,0,0.1
				c-1.2,3-1.3,5-0.4,6.2l-0.6,1.4l-8.7-3.9c-0.1-0.8,0-1.6,0.2-2.5s0.7-2.3,1.4-4.1l2.2-5.7c1.2-3.1,1.4-5.3,0.8-6.8
				s-2.3-2.8-4.9-4l-1.5-0.7l-10.3-4.6l-8.5,19.2l-7.7-3.4L404.9,1151.6L404.9,1151.6z M819.8,814.4l1.3-8.9l41.2-18.2l-37.8-5.3
				l1.1-8.1l50.6,7.1l-1.2,8.9l-41.2,18.4l37.8,5.3l-1.1,8.1L819.8,814.4L819.8,814.4z M812.6,835.2l2.2-8.2l49.3,13.2l-2.1,8.2
				L812.6,835.2z M795.9,883.3l11.9-34.6l7.1,2.4l-9.2,26.7l12.6,4.3l8.5-24.7l6.8,2.3l-8.5,24.7l14.6,5l9.5-27.6l7.2,2.5
				l-12.2,35.5L795.9,883.3L795.9,883.3z M783.1,924.5l14.1,6.9l5.3-10.9c1.6-3.2,2.1-5.8,1.7-7.7c-0.4-1.9-1.9-3.5-4.4-4.7
				s-4.6-1.4-6.3-0.6c-1.8,0.8-3.4,2.8-4.9,5.9L783.1,924.5L783.1,924.5z M772.9,928.9l9.7-19.8c0.3-0.6,0.6-1.3,1-2
				c0.1-0.2,0.2-0.3,0.2-0.4c2-4.1,4.7-6.7,8-7.9c3.4-1.2,7.1-0.8,11,1.1c2.6,1.3,4.5,2.9,5.8,5s1.8,4.3,1.6,6.8
				c1.5-1.6,3.1-2.5,4.8-2.7s4.1,0.4,7,1.6l6.8,2.8c0,0,0,0,0.1,0c2.9,1.3,5,1.5,6.2,0.7l1.3,0.7l-4.2,8.5c-0.8,0-1.6-0.1-2.5-0.3
				s-2.3-0.7-4.1-1.5l-5.6-2.4c-3-1.3-5.3-1.6-6.8-1s-2.9,2.2-4.1,4.7l-0.7,1.5l-4.9,10.1l18.9,9.2l-3.7,7.6L772.9,928.9
				L772.9,928.9z M745.7,968.5l20-30.7l6.3,4.1l-15.4,23.7l11.2,7.3L782,951l6,3.9l-14.2,21.9l12.9,8.4l15.9-24.5l6.4,4.2
				l-20.4,31.5L745.7,968.5L745.7,968.5z M712.8,1009.2l5.8-7.1l39.8,15.7l-23.6-35.7l5.7-7.1l28.6,45.9l-5.4,6.6L712.8,1009.2z
				 M681.3,1041l27.7-28.7l5.4,5.2l-10.9,11.3l31.4,30.3l-5.9,6.1l-31.4-30.3l-11,11.4L681.3,1041L681.3,1041z M656.2,1072.4
				l10.3,11.9l9.2-8c2.7-2.3,4.2-4.5,4.6-6.4c0.3-2-0.4-4-2.2-6.1s-3.7-3.1-5.6-3c-1.9,0.1-4.2,1.2-6.9,3.5L656.2,1072.4z
				 M645.2,1072.5l16.6-14.4c0.5-0.4,1.1-0.9,1.7-1.4c0.2-0.1,0.3-0.2,0.4-0.3c3.4-3,6.9-4.3,10.5-4.1c3.6,0.2,6.8,2,9.7,5.3
				c1.9,2.2,3,4.5,3.4,6.9s0,4.7-1.2,6.9c2-0.9,3.8-1,5.5-0.6c1.6,0.5,3.6,1.9,5.8,4.3l5.1,5.2c0,0,0,0,0,0.1c2.2,2.3,4,3.3,5.4,3
				l1,1.1l-7.2,6.2c-0.7-0.3-1.5-0.7-2.2-1.2c-0.7-0.6-1.8-1.6-3.2-3l-4.2-4.4c-2.3-2.4-4.2-3.6-5.8-3.6s-3.5,0.9-5.6,2.7l-1.2,1.1
				l-8.5,7.4l13.8,15.9l-6.4,5.5L645.2,1072.5L645.2,1072.5z M618.6,1100.3c-4,3-6,6.7-6.2,11.1s1.6,9.1,5.3,14s7.7,7.9,12,8.9
				c4.3,1.1,8.4,0.1,12.4-2.9s6-6.7,6.2-11.1s-1.6-9.1-5.3-14s-7.7-7.9-12-9C626.7,1096.3,622.5,1097.3,618.6,1100.3L618.6,1100.3z
				 M614.1,1094.4c6.1-4.6,12.3-6.2,18.7-5c6.4,1.2,12.1,5.1,17.1,11.8c5,6.7,7.2,13.2,6.6,19.7c-0.6,6.5-3.9,12-10,16.5
				c-6.1,4.6-12.3,6.3-18.7,5.1c-6.4-1.2-12.1-5.1-17.1-11.8c-5-6.7-7.2-13.3-6.6-19.7C604.7,1104.5,608,1099,614.1,1094.4z
				 M565.7,1135.3l8.3,13.8l9.5-5.7c2.9-1.8,4.7-3.6,5.3-5.4s0.2-4-1.3-6.4c-1.4-2.4-3.1-3.8-5-4.2c-1.9-0.4-4.2,0.3-6.9,1.9
				L565.7,1135.3L565.7,1135.3z M554.6,1133.4l16.7-10c2.7-1.6,4.8-2.7,6.2-3.2s2.9-0.8,4.2-0.9c2.7-0.1,5.1,0.5,7.3,1.9
				s4.2,3.5,5.9,6.3c1.4,2.3,2.2,4.7,2.5,7c0.2,2.3-0.1,4.6-1,6.8c-0.6,1.5-1.6,2.9-2.8,4.1c-1.3,1.3-3.2,2.7-5.8,4.2l-9.9,6
				l10.4,17.2l-7.3,4.4L554.6,1133.4L554.6,1133.4z M548.9,1153.6l-7.3,3.4c-1.4-2.5-3.3-4.1-5.8-4.8c-2.5-0.6-5.3-0.3-8.3,1.2
				c-2.5,1.2-4.3,2.7-5.3,4.6c-1.1,1.9-1.2,3.7-0.4,5.5s2.2,2.9,4.1,3.3c1.9,0.5,5.4,0.2,10.4-0.7c7.6-1.5,12.9-1.7,16-0.6
				c3,1,5.4,3.4,7.1,7c2,4.4,2,8.6,0,12.8c-2,4.2-5.8,7.5-11.2,10.1c-5.7,2.7-10.8,3.4-15.3,2.1s-8.1-4.5-10.7-9.5l7.5-3.5
				c1.6,2.9,3.8,4.7,6.6,5.4c2.8,0.7,6,0.2,9.5-1.4c2.6-1.2,4.5-2.9,5.6-4.9c1.1-2.1,1.2-4,0.3-5.9c-0.3-0.7-1-1.5-1.9-2.2
				s-1.9-1.2-2.9-1.6c-1.7-0.5-4.9-0.4-9.6,0.6c-1,0.2-1.8,0.3-2.3,0.4c-5.8,1.1-10.3,1-13.4-0.1c-3.1-1.1-5.5-3.5-7.2-7.1
				c-1.8-3.9-1.7-7.7,0.3-11.6s5.6-7,10.8-9.5c5.1-2.4,9.7-2.9,13.9-1.7C543.6,1146.2,546.8,1149.1,548.9,1153.6L548.9,1153.6z"></path>
			<path id="_70939992" class="st4" d="M780.8,423.6L219.3,942.9c60.6,81.1,149.8,142.9,241.7,180c152-61.4,293-188.1,316.2-357.3
				c2.5-18.3,3-36,3.7-54.4L780.8,423.6L780.8,423.6z"></path>
			<path id="_74779624" class="st2" d="M661.3,762.9V527.2h90.1v45.6h-49.9v46.9h44v45h-44v52.7H753V763L661.3,762.9L661.3,762.9z
				 M538,527.2h49.9c21.5,0,36,4.6,43.5,13.7c7.5,9.1,11.2,25.9,11.2,50.1v108.4c0,13-1.1,23.3-3.4,30.9c-2.3,7.7-6,14.3-11.2,20
				c-4.4,4.6-9.6,7.9-15.9,9.8c-6.2,1.9-16.7,2.9-31.4,2.9H575h-37V527.2L538,527.2z M583.4,567.4h-5.1v155.1h5.1
				c7.8,0,12.8-1.5,15-4.5c2.3-3,3.4-8.9,3.4-17.5v-111c0-8.6-1.1-14.5-3.4-17.5C596.3,568.9,591.2,567.4,583.4,567.4z M416,527.2
				V763h39.8l0.2-102.7c0.2,0.7,8.8,9.8,27.4,102.8H520c-2.9-24.5-24.5-106.1-24-105.8c8.3-4.3,13.9-10.7,17.3-18.9
				c3.4-8.3,5.2-19.6,5.2-33.9v-15.8c0-20.7-3.7-36.1-11.1-46.3s-18.6-15.2-33.8-15.2L416,527.2L416,527.2z M455.8,630.4
				c8.9-0.4,15-2.4,18.2-5.8c3.2-3.4,4.8-9.4,4.8-18.1v-15.3c0-9-1.5-15.3-4.5-18.8c-3-3.4-8.6-5.2-16.9-5.2h-1.5L455.8,630.4
				L455.8,630.4z M309.5,517.5v-29.1H336v29.1H309.5z M352.6,517.5v-29.1h26.5v29.1H352.6z M291.2,596.6c0-24.1,4.4-42.3,13.3-54.5
				s22.2-18.3,39.7-18.3c17.8,0,31,6,39.8,18.1c8.8,12.1,13.2,30.3,13.2,54.6v96.9c0,24.2-4.4,42.5-13.2,54.7
				c-8.9,12.2-22.1,18.3-39.8,18.3c-17.5,0-30.7-6.1-39.7-18.4c-8.9-12.3-13.4-30.5-13.4-54.6L291.2,596.6L291.2,596.6z M332,588
				v114.3c0,7.7,1,13.2,2.9,16.7c2,3.4,5.1,5.2,9.4,5.2s7.4-1.7,9.3-5.2c2-3.5,2.9-9,2.9-16.7V588c0-7.7-1-13.2-3-16.7
				s-5.2-5.3-9.5-5.3c-4.2,0-7.3,1.8-9.2,5.3C332.9,574.7,332,580.3,332,588L332,588z M173.1,762.9V527.2h52.2
				c15.8,0,27.6,4,35.4,12c7.9,8,11.8,20,11.8,36.1v18.3c0,11.4-1.6,20.7-4.9,27.8c-3.3,7.1-8.6,12.7-15.8,16.8
				c8.5,3.6,14.8,9,18.6,16.1c3.9,7.1,5.8,16.5,5.8,28.3v20.6c0,20.3-4.3,35.4-12.8,45.1c-8.5,9.8-21.7,14.7-39.4,14.7L173.1,762.9
				L173.1,762.9z M212.9,723.4c9.3-0.3,15.5-2,18.6-5.1c3-3.1,4.6-9.3,4.6-18.3v-14.9c0-8.8-1.7-14.9-5-18.4s-9.4-5.2-18.1-5.2
				L212.9,723.4L212.9,723.4z M212.9,627.7c8.2-0.4,13.7-2.4,16.6-5.8c2.9-3.4,4.4-9.4,4.4-18v-16.4c0-7.6-1.5-12.9-4.5-15.9
				s-8.5-4.5-16.5-4.5V627.7L212.9,627.7z M351.9,917.5v-57.6c-1.2,1.6-2.4,3.2-3.7,4.6c-1.3,1.4-2.7,2.7-4.1,4v-12.2
				c2.1-1.7,4-3.3,5.5-4.7s2.8-2.8,4-4.1h9.4v70.1L351.9,917.5L351.9,917.5z M387.7,861v19.2c0,2.2,0.2,3.7,0.6,4.3
				c0.4,0.7,1.1,1,2,1c1,0,1.6-0.4,2-1.1c0.4-0.7,0.6-2.2,0.6-4.2V861c0-2.1-0.2-3.5-0.6-4.2s-1.1-1.1-2-1.1c-1,0-1.7,0.3-2,1
				C387.9,857.4,387.7,858.8,387.7,861L387.7,861z M376.3,863.1c0-5.8,1.1-10,3.4-12.6c2.2-2.6,5.8-3.9,10.6-3.9
				c4.9,0,8.5,1.3,10.7,3.9c2.2,2.6,3.4,6.8,3.4,12.6v38.8c0,5.7-1.1,9.9-3.4,12.5s-5.8,3.9-10.7,3.9c-4.5,0-7.9-1.2-10.4-3.5
				c-2.4-2.3-3.6-5.6-3.6-10v-5.4h11v4.3c0,2.3,0.2,3.9,0.6,4.6c0.4,0.8,1.1,1.1,2.2,1.1s1.8-0.4,2.3-1.3c0.4-0.8,0.6-2.3,0.6-4.5
				v-12.7c-1.2,1-2.4,1.7-3.6,2.1c-1.2,0.4-2.4,0.7-3.7,0.7c-3,0-5.4-1-7-3s-2.4-4.9-2.4-8.8V863.1L376.3,863.1z M415.2,896.2h8.9
				V864L415.2,896.2z M424.2,917.5v-12H409v-11.2l13.2-46.9h12.9v48.8h4v9.3h-4v12L424.2,917.5L424.2,917.5z M455.7,861v19.2
				c0,2.2,0.2,3.7,0.6,4.3c0.4,0.7,1.1,1,2,1c1,0,1.6-0.4,2-1.1c0.4-0.7,0.6-2.2,0.6-4.2V861c0-2.1-0.2-3.5-0.6-4.2s-1.1-1.1-2-1.1
				c-1,0-1.7,0.3-2,1C455.8,857.4,455.7,858.8,455.7,861z M444.2,863.1c0-5.8,1.1-10,3.4-12.6c2.2-2.6,5.8-3.9,10.6-3.9
				c4.9,0,8.5,1.3,10.7,3.9c2.2,2.6,3.4,6.8,3.4,12.6v38.8c0,5.7-1.1,9.9-3.4,12.5s-5.8,3.9-10.7,3.9c-4.5,0-7.9-1.2-10.4-3.5
				c-2.4-2.3-3.6-5.6-3.6-10v-5.4h11v4.3c0,2.3,0.2,3.9,0.6,4.6c0.4,0.8,1.1,1.1,2.2,1.1s1.8-0.4,2.3-1.3c0.4-0.8,0.6-2.3,0.6-4.5
				v-12.7c-1.2,1-2.4,1.7-3.6,2.1c-1.2,0.4-2.4,0.7-3.7,0.7c-3,0-5.4-1-7-3s-2.4-4.9-2.4-8.8V863.1L444.2,863.1z M510.7,881.4v-11.1
				c0-1.7-0.2-2.8-0.5-3.3c-0.4-0.5-1-0.8-2-0.8s-1.7,0.3-2.1,0.9c-0.4,0.6-0.6,1.7-0.6,3.2v11.1H510.7L510.7,881.4z M521.4,888.7
				h-15.9v17.5c0,1.5,0.2,2.6,0.6,3.2c0.4,0.6,1.1,0.9,2.1,0.9c0.9,0,1.6-0.3,2-0.8s0.5-1.6,0.5-3.3V898h10.8v6.6
				c0,4.6-1.1,8-3.3,10.3s-5.5,3.4-9.9,3.4c-4.5,0-7.8-1.1-10-3.4c-2.2-2.3-3.3-5.7-3.3-10.3v-32.3c0-4.6,1.1-8,3.3-10.3
				c2.2-2.3,5.5-3.4,10-3.4c4.4,0,7.7,1.1,9.9,3.4c2.2,2.3,3.3,5.7,3.3,10.3L521.4,888.7L521.4,888.7z M526.6,917.5v-11.9h12v11.9
				H526.6z M552.9,917.5l-11.8-72.6H554l5.2,56.7l5.1-56.7h12.9l-11.7,72.6H552.9L552.9,917.5z M576.3,917.5v-11.9h12v11.9H576.3z"></path>
			<path id="_74217832" class="st3" d="M413.4,363.7V177.6h-28.9l-20.7,98l-3.3,15.4l-4.6,23.4l-2,13.1l-0.6,3.5l-0.4-3.3l-2.2-13.8
				c-0.9-7.3-3.4-20.5-7.5-39.5l-21.4-96.9h-29.2v186.1h19.6v-98.8c0-11-0.1-21.4-0.3-31.2c-0.2-8.6-0.4-14-0.4-16.2
				c-0.2-1.3-0.4-3.3-0.4-6.1c2,13,4.3,26,6.9,39.1l2.7,13.3l21,99.9h21l22-103.2c0.4-3.2,1.2-7.3,2.3-12.3c1.5-7.3,2.5-12.9,3.2-17
				c0.5-2,0.9-4.1,1.4-6.4c0.5-1.8,0.8-3.9,1-6.1l1-7.2v6.9l-0.4,10.6c-0.5,13.7-0.7,24.2-0.7,31.5v103.3H413.4L413.4,363.7z
				 M432.2,320.8c2.3,29.9,17.6,45,45.7,45.4c33-0.6,49.7-18.7,50.2-54.6c0-23.1-11.1-41-33.3-53.8l-12.8-7.5
				c-14.2-8.5-21.4-20.1-21.4-34.9c0-14.4,6.4-21.6,19.4-21.8c11.7-0.2,18.9,7.8,21.7,24v1.9l23.1-3.3c-3.3-26.4-17.9-39.8-44-40.2
				c-28.9,0.6-43.6,15.2-44,43.9c-0.2,12.4,3.7,23.3,11.8,33c3.3,4.1,6.7,7.4,10.5,10.1c3.4,2.7,9.8,6.7,19.2,12
				c6.5,3.7,11.4,7.3,14.5,10.6c3.3,3.3,5.9,7.5,7.8,12.8c1.8,5.3,2.7,10.8,2.7,16.5c-0.2,22.1-8.3,33.2-24.2,33.4
				c-7,0-12.7-2.8-17-8.3c-4.4-5.3-6.8-12.6-7.3-21.8L432.2,320.8L432.2,320.8z M594,363.7l37.8-186.1h-23.9l-17.7,98.3
				c-0.7,4-2.1,13.3-4.3,27.7c-0.9,7.3-1.6,13-2.1,17.3l-0.4,3l-0.4-2.7c-0.9-7.1-1.7-13-2.4-17.6c-1.7-9.9-2.7-15.8-3-17.6
				c-0.7-5.8-1.1-9.5-1.4-11.2l-17-97.2h-25.7l37.3,186.1H594L594,363.7z"></path>
		</g>
	</g>
</g>
<g id="Ebene_2_00000067198066443249031780000008776110541089640614_">
	<g>
		<path class="st5" d="M144.9,360.3V220.2l152.9-126h322l150.2,126.2v133.3l140.8,139l1.3,192c-0.2,89.7-23.5,176.9-66.6,255.3
			c-80,145.7-220,251.5-364.6,326l-14.8,7.6l-15.3-6.5c-205.2-88-397.5-264-439.7-493.1c-5.5-29.5-8.2-59.4-8.2-89.4V495.3
			L144.9,360.3L144.9,360.3z"></path>
		<polygon class="st2" points="180.3,356.2 180.3,237.1 310.4,129.9 606.8,129.9 734.5,237.1 734.5,356.2 		"></polygon>
		<path class="st2" d="M464.6,1234.2C219,1128.8,38.2,917.2,38.2,684.6V510.7l98.6-93.7v267.6c0,165,119.9,313.8,327.8,435.4
			c192.8-121.7,310.8-256.6,310.8-435.4V409.1l99.9,98.6l1.2,176.8c-0.2,83.4-21.7,164.5-62.1,238.1
			C747,1045.4,627,1150.6,464.6,1234.2L464.6,1234.2z"></path>
		<path class="st3" d="M410.1,1144.5c18.8,12.1,34.3,25.6,53.3,25.8c20.1,0.3,38.6-16.6,54.3-27.1c8.2-5.5,17.7,2.8,3.1,12.9
			c-18,12.4-34.7,26.7-57.7,27.2c-22.2,0.5-41.8-16.4-59.6-27.8C395.9,1149.6,401.5,1139.9,410.1,1144.5L410.1,1144.5z"></path>
		<g>
			<path class="st6" d="M306.4,153.2h34.9l17.1,121.9l17.1-121.9h34.9v188.3h-22.2l0.5-167l-23.2,167h-14.2l-23.2-167l0.5,167h-22.2
				L306.4,153.2L306.4,153.2z"></path>
			<path class="st6" d="M457.1,275.4v12c0,20.3,2.2,30,12.8,30c9.9,0,15.1-7.8,15.1-22.3c0-13.5-4.7-19.8-14.3-30l-11.9-12.8
				c-15.9-16.8-23.7-26.5-23.7-53.1c0-31.6,13.3-50.6,34.9-50.6c23,0,35.8,19.5,35.8,55.3c0,2.3,0,4.5-0.2,6.8h-22v-5
				c0-20-4-28.5-14.3-28.5c-7.4,0-11.9,7-11.9,18.8c0,12,5.7,17.5,14.6,26.5l12.8,13c16.4,16.5,23.3,29.3,23.3,56.8
				c0,34.1-13.3,53.6-37.4,53.6c-25,0-37.1-19.3-37.1-59.3c0-3.5,0.2-7.3,0.3-11.3h23.2V275.4z"></path>
			<path class="st6" d="M523.2,153.2H548l18.6,150.3l16.8-150.2h24.5l-26.2,188.3h-30.5L523.2,153.2z"></path>
		</g>
		<path class="st6" d="M596,1078.4l-7.5,5.5c-2.1-2.6-4.7-4-7.6-4.1c-3-0.2-6,0.9-9.1,3.2c-2.6,1.9-4.3,4-5,6.4
			c-0.8,2.4-0.5,4.5,0.8,6.3c1.3,1.8,3.1,2.8,5.4,2.9c2.3,0.1,6.2-0.9,11.6-3.1c8.2-3.3,14.2-4.8,17.9-4.2c3.7,0.5,6.8,2.6,9.5,6.3
			c3.3,4.5,4.2,9.3,2.8,14.5c-1.4,5.2-4.9,9.8-10.4,13.9c-5.9,4.3-11.5,6.2-16.9,5.8c-5.4-0.4-10-3.3-14.2-8.5l7.6-5.6
			c2.5,2.9,5.4,4.5,8.6,4.7c3.4,0.2,6.7-1.1,10.4-3.7c2.7-2,4.5-4.3,5.3-6.9s0.5-4.8-0.9-6.8c-0.5-0.8-1.4-1.4-2.6-2.1
			c-1.2-0.6-2.4-1-3.7-1.1c-2.1-0.2-5.7,0.7-10.7,2.8c-1.1,0.4-1.9,0.8-2.5,1c-6.3,2.5-11.3,3.4-15.1,2.9c-3.8-0.6-6.9-2.7-9.7-6.5
			c-2.9-4-3.6-8.4-2.2-13.2c1.4-4.9,4.8-9.2,10.1-13.1c5.2-3.8,10.3-5.4,15.4-5C588.4,1071.2,592.5,1073.8,596,1078.4L596,1078.4z"></path>
		<path class="st6" d="M613.2,1054.3l12.1,14.1l9.5-8.4c3-2.6,4.7-5,5-7.2c0.3-2.2-0.6-4.5-2.7-7c-2.1-2.4-4.3-3.7-6.5-3.7
			s-4.8,1.1-7.4,3.5L613.2,1054.3L613.2,1054.3z M600.3,1054.3l16.9-14.8c2.7-2.4,4.9-4,6.3-4.9s3.1-1.5,4.6-1.8
			c3-0.7,5.9-0.4,8.6,0.7c2.8,1.1,5.5,3.1,7.9,6c2.1,2.4,3.5,4.9,4.2,7.5s0.8,5.3,0.3,7.9c-0.4,1.8-1.2,3.6-2.4,5.2
			c-1.2,1.7-3.1,3.7-5.8,6l-10,8.8l15.2,17.5l-7.3,6.5L600.3,1054.3L600.3,1054.3z"></path>
		<path class="st6" d="M664.1,1005.4c-3.9,4.2-5.5,8.9-4.8,13.9c0.7,5.1,3.6,10,8.8,14.9c5.2,4.8,10.2,7.4,15.4,7.8
			c5.1,0.4,9.5-1.6,13.5-5.8c3.9-4.2,5.5-8.8,4.8-13.9s-3.6-10-8.7-14.9s-10.3-7.5-15.4-7.8C672.4,999.2,667.9,1001.1,664.1,1005.4
			L664.1,1005.4z M657.8,999.5c6-6.4,12.6-9.6,20-9.5c7.4,0.1,14.7,3.4,21.7,10c7,6.6,10.8,13.6,11.4,21.1s-2.1,14.4-8,20.8
			c-6,6.4-12.7,9.6-20.1,9.5c-7.4-0.1-14.7-3.4-21.7-10c-7-6.6-10.8-13.6-11.4-21.1C649.2,1012.9,651.9,1006,657.8,999.5
			L657.8,999.5z"></path>
		<path class="st6" d="M699.9,966.3l14.2,11.2l8.6-11.1c2.5-3.2,3.8-6,3.8-8.3s-1.3-4.4-3.9-6.4c-2.5-1.9-4.8-2.7-6.9-2.2
			s-4.5,2.4-6.9,5.5L699.9,966.3L699.9,966.3z M687.5,968.8l15.6-20.1c0.5-0.6,1-1.3,1.7-2c0.2-0.2,0.3-0.3,0.4-0.4
			c3.2-4.1,6.8-6.4,10.9-7c4.1-0.5,8.1,0.8,12.1,3.9c2.6,2.1,4.4,4.4,5.4,7s1,5.3,0.2,8.1c2.1-1.4,4.1-2,6.1-1.8
			c2,0.2,4.5,1.4,7.5,3.5l6.9,4.8c0,0,0,0,0.1,0c3,2.1,5.3,2.9,6.7,2.2l1.4,1.1l-6.7,8.7c-0.9-0.1-1.8-0.5-2.8-0.9
			c-1-0.5-2.4-1.4-4.3-2.7l-5.8-4.1c-3.1-2.2-5.6-3.1-7.3-2.8s-3.8,1.8-5.8,4.4l-1.2,1.5l-7.9,10.2l19,15l-6,7.7L687.5,968.8
			L687.5,968.8z"></path>
		<polygon class="st6" points="722,924 745.6,884.4 753,888.9 743.6,904.4 786.6,930.4 781.5,938.8 738.7,912.8 729.3,928.4 		"></polygon>
		<polygon class="st6" points="749.4,879.3 753.7,869.6 802.4,875.2 765.7,842.4 769.9,832.8 815.2,875.5 811.2,884.5 		"></polygon>
		<polygon class="st6" points="773.3,825.1 784.9,784.4 793.1,786.8 784.2,818.2 798.9,822.4 807.1,793.5 815.1,795.7 806.8,824.7 
			823.8,829.6 833.1,797.2 841.6,799.6 829.7,841.4 		"></polygon>
		<path class="st6" d="M797.4,761.3l17.9,2.2l1.7-14c0.5-4.1,0.1-7.1-1.1-9.1c-1.2-2-3.4-3.1-6.5-3.5c-3.1-0.4-5.5,0.2-7,1.8
			s-2.7,4.3-3.2,8.4L797.4,761.3L797.4,761.3z M788.1,769.9l3.1-25.3c0.1-0.8,0.2-1.6,0.4-2.5c0.1-0.3,0.1-0.5,0.1-0.5
			c0.6-5.2,2.6-9.1,5.8-11.6c3.3-2.6,7.3-3.6,12.4-2.9c3.3,0.4,6.1,1.5,8.1,3.2c2.2,1.7,3.6,4,4.3,6.8c1.1-2.3,2.5-3.9,4.3-4.7
			c1.8-0.8,4.6-1.1,8.2-0.9l8.4,0.5h0.1c3.7,0.3,6-0.2,6.9-1.6l1.7,0.2l-1.3,10.9c-0.8,0.3-1.8,0.5-2.9,0.6c-1.1,0.1-2.8,0-5.1-0.1
			l-6.9-0.5c-3.8-0.3-6.3,0.2-7.7,1.4c-1.4,1.2-2.3,3.5-2.7,6.7l-0.2,1.9l-1.6,12.9l23.9,3l-1.2,9.7L788.1,769.9L788.1,769.9z"></path>
		<polygon class="st6" points="794.9,706 796.4,663.6 804.9,663.9 803.8,696.6 819.1,697.1 820.1,667 828.4,667.3 827.4,697.4 
			845,698.1 846.2,664.3 855,664.6 853.5,708.1 		"></polygon>
		<polygon class="st6" points="796.7,642.9 796.7,633 855.2,633 855.2,642.9 		"></polygon>
		<polygon class="st6" points="797.4,608.6 797.4,598.2 841.3,570.7 797.4,570.7 797.4,561.1 856,561.1 856,571.5 812.2,599.2 
			856,599.2 856,608.6 		"></polygon>
		<g>
			<path class="st6" d="M116.3,559.9l0.2,14.3l-46.6,15l47.1,13.6l0.2,14.3l-58.6,1l-0.2-9.3l48.4-0.9l-48.7-13.8l-0.2-9.6
				l48.2-15.3l-48.4,0.9l-0.2-9.1L116.3,559.9z"></path>
		</g>
		<g>
			<path class="st6" d="M117.5,650.5l0.4,11.1L60,685.4l-0.4-10.5l15-5.8l-0.8-23l-15.3-4.7l-0.4-10.3L117.5,650.5z M107.9,656.4
				l-25.7-7.9l0.6,17.6L107.9,656.4z"></path>
		</g>
		<g>
			<path class="st6" d="M105.2,743.7l-1-9.7c3.4-1.1,5.9-3.1,7.5-5.9c1.7-2.8,2.3-6.2,1.9-10.1c-0.6-5.9-3-10.2-7.2-13.1
				c-4.2-2.8-9.8-3.9-16.9-3.1c-6.8,0.7-12.1,2.9-15.8,6.6c-3.6,3.7-5.2,8.4-4.6,14c0.5,4.8,2.4,8.6,5.7,11.2
				c3.3,2.7,7.4,3.8,12.4,3.5L85.5,721l8-0.9l2.6,25.1l-31.5,3.3L64,742l7.1-2.4c-3.2-1.9-5.7-4.3-7.4-7.2s-3-6.4-3.4-10.3
				c-0.9-8.1,1.3-15,6.3-20.6s12.2-8.9,21.4-9.9c9.3-1,17.1,0.8,23.1,5.3c6.1,4.5,9.6,11,10.5,19.5c0.7,7.1-0.4,13-3.3,17.8
				C115.7,739,111.2,742.2,105.2,743.7z"></path>
		</g>
		<g>
			<path class="st6" d="M124.6,753.7l5.1,22.2c1.9,8.4,1,15.3-2.8,20.7c-3.8,5.3-10.4,9.1-19.8,11.3c-9.2,2.1-16.9,1.5-22.9-2
				c-6.1-3.5-10-9.6-12-18.3L67.5,767L124.6,753.7z M118.7,765.1l-40.6,9.4l2.7,11.8c1.3,5.7,4,9.5,7.9,11.4c4,1.9,9.5,2,16.7,0.4
				c6.4-1.5,11.1-4,13.8-7.5c2.8-3.5,3.5-7.9,2.3-13.1L118.7,765.1z"></path>
		</g>
		<g>
			<path class="st6" d="M137.6,807.7l16.5,39l-7.9,3.4L133.5,820l-14.1,6l11.7,27.8l-7.5,3.2l-11.7-27.8l-16.3,7l13.1,31.1l-8.1,3.5
				l-16.9-40L137.6,807.7z"></path>
		</g>
		<g>
			<path class="st6" d="M157.9,856.8l12.3,22.4c3,5.4,4.1,10,3.5,13.9c-0.7,3.9-3.2,7-7.5,9.5c-2.5,1.4-5,2-7.4,1.8
				c-2.5-0.2-4.9-1.1-6.9-2.8c0.8,3.4,0.6,6.5-0.7,9.2s-3.6,5-6.8,6.8c-4.7,2.6-9.2,3.1-13.7,1.4c-4.5-1.7-8.2-5.3-11.3-10.9
				l-12.4-22.6L157.9,856.8z M134.7,880.8l-15.9,8.9l7.4,13.5c1.8,3.3,3.9,5.4,6.2,6.3c2.3,0.9,4.8,0.6,7.4-0.9
				c2.7-1.5,4.2-3.4,4.6-5.8c0.4-2.4-0.5-5.4-2.5-9L134.7,880.8z M155.4,869.2l-13.7,7.7l6.7,12.2c1.8,3.2,3.7,5.3,5.7,6.1
				s4.2,0.6,6.6-0.8c2.2-1.2,3.4-2.9,3.7-5c0.3-2.1-0.4-4.6-2.1-7.7L155.4,869.2z"></path>
		</g>
		<g>
			<path class="st6" d="M185.2,905.2l5.7,8.1l-29.9,21.1c-4.2,2.9-6.5,6-7.3,9.2c-0.7,3.2,0.2,6.7,2.9,10.4c2.7,3.8,5.6,5.9,8.8,6.3
				c3.3,0.4,6.9-0.9,11-3.8l29.9-21.1l5.7,8.1l-30.4,21.4c-6.1,4.3-11.9,5.9-17.6,4.9s-10.5-4.6-14.8-10.7
				c-4.4-6.3-6.1-12.2-5.2-17.7c1-5.5,4.6-10.5,10.9-14.9L185.2,905.2z"></path>
		</g>
		<g>
			<path class="st6" d="M219,953.6l16.6,19.2c0.5,0.6,1,1.2,1.6,2c0.2,0.2,0.3,0.4,0.3,0.4c3.4,3.9,5,8,4.7,12.1
				c-0.3,4.1-2.3,7.9-6.2,11.2c-2.5,2.2-5.2,3.5-7.8,4c-2.8,0.5-5.4,0-7.9-1.4c1,2.3,1.2,4.4,0.6,6.3c-0.6,1.9-2.2,4.1-4.9,6.8
				l-6,5.9c0,0,0,0-0.1,0.1c-2.7,2.5-3.8,4.6-3.5,6.3l-1.3,1.1l-7.1-8.3c0.3-0.8,0.8-1.7,1.4-2.5c0.6-0.9,1.8-2.1,3.5-3.7l5.1-4.9
				c2.7-2.7,4.1-4.9,4.2-6.8c0-1.9-1-4-3.2-6.5l-1.2-1.4l-8.4-9.8l-18.2,15.9l-6.3-7.4L219,953.6z M219.1,966.4l-13.6,11.9l9.1,10.6
				c2.7,3.1,5.2,4.9,7.4,5.3c2.3,0.4,4.6-0.5,7-2.6c2.4-2.1,3.5-4.2,3.5-6.5c-0.1-2.3-1.4-4.9-4.1-7.9L219.1,966.4z"></path>
		</g>
		<g>
			<path class="st6" d="M281.1,1044.4l-7-6.6c1.8-3.1,2.5-6.2,1.9-9.5c-0.6-3.2-2.3-6.2-5.2-8.9c-4.3-4-8.9-5.7-14-5.1
				c-5.1,0.6-9.9,3.6-14.8,8.8c-4.8,5.1-7.2,10.2-7.5,15.4c-0.3,5.2,1.6,9.7,5.8,13.6c3.5,3.3,7.3,4.9,11.6,4.7
				c4.3-0.2,8-2,11.6-5.5l-11.7-11l5.6-6l18.4,17.2l-21.6,23.3l-4.8-4.4l3.9-6.6c-3.6,0.7-7,0.5-10.3-0.5s-6.3-2.9-9.2-5.6
				c-6-5.6-8.8-12.2-8.6-19.8s3.4-14.8,9.7-21.6c6.4-6.9,13.4-10.7,20.9-11.4c7.5-0.6,14.4,1.9,20.5,7.8c5.2,4.9,8.2,10.1,9.1,15.6
				C286,1033.9,284.7,1039.3,281.1,1044.4z"></path>
		</g>
		<g>
			<path class="st6" d="M303.3,1041.2l33.1,26.1l-5.3,6.8l-25.6-20.2l-9.4,12.2l23.6,18.6l-5.1,6.5l-23.6-18.6l-10.9,14.1l26.4,20.8
				l-5.5,7l-33.9-26.7L303.3,1041.2z"></path>
		</g>
		<g>
			<path class="st6" d="M347.1,1076l20.7,14.6c0.6,0.4,1.3,1,2.1,1.5c0.2,0.2,0.4,0.3,0.4,0.3c4.3,3,6.7,6.5,7.4,10.6
				c0.7,4.1-0.3,8.2-3.3,12.4c-1.9,2.7-4.2,4.7-6.6,5.8c-2.6,1.1-5.3,1.3-8,0.6c1.5,2,2.2,4,2.2,6c-0.1,2-1.1,4.6-3.2,7.8l-4.4,7.2
				c0,0,0,0,0,0.1c-2,3.1-2.6,5.4-1.9,6.9l-1,1.4l-8.9-6.3c0.1-0.9,0.4-1.8,0.8-2.8s1.2-2.5,2.5-4.4l3.8-6c2-3.2,2.8-5.8,2.4-7.6
				c-0.4-1.8-2-3.7-4.7-5.6l-1.5-1.1l-10.5-7.5l-13.8,19.9l-7.9-5.6L347.1,1076z M350.2,1088.3l-10.3,14.9l11.4,8.1
				c3.4,2.4,6.2,3.5,8.4,3.3c2.3-0.2,4.4-1.6,6.2-4.2s2.4-5,1.8-7.1c-0.6-2.2-2.6-4.4-5.9-6.7L350.2,1088.3z"></path>
		</g>
		<path class="st4" d="M734.5,404.8v272.6c0,219.4-195,348.7-269.9,396.4c-83.5-47.5-226.4-172.7-262.6-267.6L734.5,404.8
			L734.5,404.8z"></path>
	</g>
</g>
<path id="_74779624_00000153702219300125605590000017766081563561595324_" class="st2" d="M628.2,679.7V474.9h77.7v39.6h-43v40.7
	h37.9v39.1H663v45.8h44.2v39.6H628.2L628.2,679.7z M522.1,474.9h43c18.6,0,31.1,4,37.5,11.9s9.7,22.5,9.7,43.5v94.1
	c0,11.2-1,20.2-3,26.8c-2,6.6-5.2,12.4-9.7,17.3c-3.8,4-8.3,6.8-13.7,8.5s-14.4,2.5-27.1,2.5h-5H522L522.1,474.9L522.1,474.9z
	 M561.2,509.9h-4.4v134.7h4.4c6.7,0,11-1.3,13-3.9c2-2.6,2.9-7.7,2.9-15.2v-96.4c0-7.5-1-12.6-2.9-15.2
	C572.2,511.2,567.8,509.9,561.2,509.9z M416.9,474.9v204.7h34.3l0.2-89.2c0.2,0.6,7.6,8.6,23.6,89.3h31.6
	c-2.6-21.3-21.1-92.2-20.7-91.9c7.1-3.7,12-9.3,14.9-16.4c3-7.2,4.5-17,4.5-29.4v-13.7c0-18-3.2-31.4-9.5-40.2
	c-6.3-8.8-16.1-13.2-29.1-13.2L416.9,474.9L416.9,474.9z M451.2,564.5c7.7-0.4,12.9-2.1,15.7-5c2.8-2.9,4.2-8.2,4.2-15.8v-13.3
	c0-7.8-1.3-13.3-3.9-16.3c-2.6-3-7.4-4.5-14.6-4.5h-1.3L451.2,564.5L451.2,564.5z M325.1,466.5v-25.3H348v25.3H325.1z M362.4,466.5
	v-25.3h22.8v25.3H362.4z M309.4,535.2c0-21,3.9-36.7,11.5-47.3c7.7-10.6,19-15.8,34.2-15.8c15.3,0,26.7,5.2,34.3,15.7
	c7.5,10.5,11.4,26.3,11.4,47.4v84.2c0,21-3.8,36.9-11.4,47.5c-7.6,10.6-19,15.9-34.2,15.9c-15.1,0-26.5-5.3-34.1-16
	c-7.7-10.7-11.6-26.5-11.6-47.4L309.4,535.2L309.4,535.2z M344.5,527.7V627c0,6.6,0.8,11.5,2.5,14.5c1.7,3,4.4,4.5,8.1,4.5
	c3.7,0,6.3-1.5,8-4.5s2.5-7.8,2.5-14.5v-99.3c0-6.6-0.9-11.5-2.6-14.5c-1.7-3-4.5-4.6-8.1-4.6c-3.6,0-6.3,1.5-7.9,4.6
	C345.3,516.2,344.5,521.1,344.5,527.7L344.5,527.7z M207.6,679.7V474.9h45c13.6,0,23.8,3.5,30.6,10.4c6.7,6.9,10.1,17.4,10.1,31.4
	v15.8c0,9.9-1.4,17.9-4.3,24.1c-2.9,6.2-7.3,11-13.6,14.6c7.3,3.2,12.7,7.8,16.1,14c3.4,6.1,5.1,14.4,5.1,24.6v17.9
	c0,17.6-3.7,30.7-11,39.2s-18.7,12.7-33.9,12.7L207.6,679.7L207.6,679.7z M241.9,645.3c8-0.2,13.4-1.7,16-4.5c2.6-2.7,4-8,4-15.9
	V612c0-7.6-1.4-12.9-4.3-15.9c-2.9-3-8-4.5-15.6-4.5L241.9,645.3L241.9,645.3z M241.9,562.2c7-0.4,11.8-2,14.4-5
	c2.5-3,3.8-8.1,3.8-15.6v-14.2c0-6.6-1.3-11.2-3.9-13.8c-2.6-2.6-7.3-3.9-14.3-3.9L241.9,562.2L241.9,562.2z M361.7,813.9v-50.1
	c-1,1.4-2.1,2.7-3.2,4c-1.1,1.2-2.3,2.4-3.6,3.5v-10.6c1.8-1.5,3.4-2.9,4.8-4.1c1.3-1.2,2.5-2.4,3.5-3.5h8.1v60.8L361.7,813.9
	L361.7,813.9z M392.5,764.8v16.7c0,1.9,0.2,3.2,0.5,3.8c0.3,0.6,0.9,0.9,1.7,0.9c0.8,0,1.4-0.3,1.7-1c0.3-0.6,0.5-1.9,0.5-3.7v-16.7
	c0-1.8-0.2-3-0.5-3.6c-0.3-0.6-0.9-1-1.8-1c-0.8,0-1.4,0.3-1.8,0.9C392.7,761.7,392.5,762.9,392.5,764.8L392.5,764.8z M382.7,766.6
	c0-5,1-8.7,2.9-10.9c1.9-2.3,5-3.4,9.1-3.4c4.3,0,7.3,1.1,9.2,3.4c1.9,2.3,2.9,5.9,2.9,11v33.7c0,5-1,8.6-2.9,10.8
	c-2,2.3-5.1,3.4-9.2,3.4c-3.9,0-6.8-1-8.9-3s-3.2-4.9-3.2-8.7v-4.7h9.5v3.8c0,2,0.2,3.4,0.5,4c0.4,0.7,1,1,1.9,1
	c0.9,0,1.6-0.4,2-1.1c0.4-0.7,0.6-2,0.6-3.9v-11c-1,0.8-2.1,1.5-3.1,1.9c-1,0.4-2.1,0.6-3.2,0.6c-2.6,0-4.7-0.9-6.1-2.6
	c-1.4-1.8-2.1-4.3-2.1-7.6L382.7,766.6L382.7,766.6z M416.2,795.4h7.7v-28L416.2,795.4z M424,813.9v-10.4h-13.1v-9.8l11.4-40.7h11.1
	v42.4h3.5v8.1h-3.5v10.4H424L424,813.9z M451.1,764.8v16.7c0,1.9,0.2,3.2,0.5,3.8s0.9,0.9,1.7,0.9c0.8,0,1.4-0.3,1.7-1
	c0.3-0.6,0.5-1.9,0.5-3.7v-16.7c0-1.8-0.2-3-0.5-3.6c-0.3-0.6-0.9-1-1.8-1c-0.8,0-1.4,0.3-1.8,0.9
	C451.2,761.7,451.1,762.9,451.1,764.8z M441.1,766.6c0-5,1-8.7,2.9-10.9c1.9-2.3,5-3.4,9.1-3.4c4.3,0,7.3,1.1,9.2,3.4
	c1.9,2.3,2.9,5.9,2.9,11v33.7c0,5-1,8.6-2.9,10.8c-2,2.3-5.1,3.4-9.2,3.4c-3.9,0-6.8-1-8.9-3s-3.2-4.9-3.2-8.7v-4.7h9.5v3.8
	c0,2,0.2,3.4,0.5,4c0.4,0.7,1,1,1.9,1c0.9,0,1.6-0.4,2-1.1c0.4-0.7,0.6-2,0.6-3.9v-11c-1,0.8-2.1,1.5-3.1,1.9
	c-1,0.4-2.1,0.6-3.2,0.6c-2.6,0-4.7-0.9-6.1-2.6c-1.4-1.8-2.1-4.3-2.1-7.6L441.1,766.6L441.1,766.6z M498.5,782.6V773
	c0-1.5-0.2-2.4-0.5-2.9s-0.9-0.7-1.7-0.7c-0.9,0-1.5,0.3-1.8,0.8s-0.5,1.4-0.5,2.8v9.6L498.5,782.6L498.5,782.6z M507.7,788.9H494
	v15.2c0,1.3,0.2,2.2,0.5,2.8c0.3,0.5,0.9,0.8,1.8,0.8c0.8,0,1.4-0.2,1.7-0.7c0.3-0.5,0.5-1.4,0.5-2.9V797h9.2v5.7c0,4-1,7-2.9,9
	s-4.8,3-8.5,3c-3.9,0-6.6-1-8.6-3c-1.9-2-2.9-5-2.9-9v-28c0-4,1-7,2.9-8.9c1.9-2,4.8-3,8.6-3c3.8,0,6.6,1,8.5,3s2.9,5,2.9,8.9V788.9
	L507.7,788.9z M512.3,813.9v-10.3h10.3v10.3H512.3z M534.9,813.9l-10.1-63h11.1l4.5,49.2l4.4-49.2h11.1l-10.1,63H534.9L534.9,813.9z
	 M555,813.9v-10.3h10.3v10.3H555z"></path>
</svg>