<?xml version="1.0" encoding="UTF-8" standalone="no"?>
<!DOCTYPE svg PUBLIC "-//W3C//DTD SVG 1.0//EN" "http://www.w3.org/TR/2001/REC-SVG-20010904/DTD/svg10.dtd">
<svg width="667px" height="184px" viewBox="0 0 667 184" version="1.1" xmlns="http://www.w3.org/2000/svg" xmlns:xlink="http://www.w3.org/1999/xlink">
    <defs>
        <polygon id="path-0gj77y5_l0-1" points="0 1.42108547e-14 55.537 1.42108547e-14 55.537 55.5399 0 55.5399"></polygon>
        <polygon id="path-0gj77y5_l0-3" points="5.68434189e-14 0 37.736 0 37.736 54.0606 5.68434189e-14 54.0606"></polygon>
    </defs>
    <g id="Institutions" stroke="none" stroke-width="1" fill="none" fill-rule="evenodd">
        <g id="institutions/hockey_hauptstadt_mg">
            <path d="M149.7087,160.1133 C131.7157,182.1893 100.5427,190.4373 73.2767,178.2973 C67.3247,175.6483 61.9987,172.4373 57.3537,168.7483 C59.0007,164.8823 59.9117,160.6273 59.9117,156.1603 C59.9117,141.0683 49.5127,128.4053 35.4865431,124.9473 C35.4487,120.2543 35.9647,115.4113 37.0657,110.4633 C37.3457,108.7353 37.8517,107.0143 38.5977,105.3393 C43.2527,94.8833 55.5017,90.1803 65.9577,94.8363 C75.1887,98.9463 79.9387,108.9763 77.7207,118.4653 L77.5547,119.1253 C75.0327,129.8033 81.0447,135.8523 91.4337,140.4773 C101.0077,144.7403 110.5977,142.0203 117.1407,134.5093 L263.1527,1.0253 L299.5127,1.0253 L149.5867,160.0173 L149.7087,160.1133 Z" id="Fill-1" fill="#E01B22"></path>
            <g id="Group-5" transform="translate(-0.000000, 128.391100)">
                <mask id="mask-0gj77y5_l0-2" fill="white">
                    <use xlink:href="#path-0gj77y5_l0-1"></use>
                </mask>
                <g id="Clip-4"></g>
                <path d="M0,27.77 C0,12.433 12.432,1.42108547e-14 27.769,1.42108547e-14 C43.105,1.42108547e-14 55.537,12.433 55.537,27.77 C55.537,43.107 43.105,55.54 27.769,55.54 C12.432,55.54 0,43.107 0,27.77" id="Fill-3" fill="#231F20" mask="url(#mask-0gj77y5_l0-2)"></path>
            </g>
            <path d="M196.964,155.9886 C181.307,177.3946 156.547,187.4256 130.31,180.0656 C141.185,176.1486 148.067,169.3386 155.586,160.1136 L305.428,1.0246 L333.612,1.0246 L196.837,155.8996 L196.964,155.9886 Z" id="Fill-6" fill="#FFCA05"></path>
            <path d="M82.4168,106.5223 C86.4098,96.1193 97.9178,90.9943 108.1758,94.9323 C117.2328,98.4093 122.2918,107.7873 120.6418,116.9963 L120.5148,117.6383 C119.8478,121.3163 120.2078,120.7773 121.3718,123.3763 C116.9578,129.5423 109.7078,137.1643 101.5468,137.1643 C95.1738,137.1643 89.3738,134.7153 85.0358,130.7063 C82.4438,127.3513 81.4978,123.2323 82.7528,117.9183 L82.9128,117.2843 C83.7628,113.6483 83.5468,109.9293 82.4168,106.5223" id="Fill-8" fill="#FFCA05"></path>
            <path d="M267.4616,179.8229 L270.8136,179.8229 L272.4256,159.1169 C272.5536,157.3349 272.7656,153.4739 272.7656,153.4739 C272.7656,153.4739 273.2746,155.8929 274.2086,159.1599 L279.9786,179.8229 L282.9486,179.8229 L289.1856,158.0989 C289.7376,156.1889 290.3306,153.5169 290.3306,153.5169 C290.3306,153.5169 290.4156,156.6139 290.5426,158.4799 L292.2406,179.8229 L295.7196,179.8229 L293.2166,150.7159 L288.0826,150.7159 L282.6096,170.0639 C281.9296,172.4819 281.5476,174.8159 281.5476,174.8159 C281.5476,174.8159 281.2086,172.5669 280.4026,169.7239 L275.0996,150.7159 L270.0076,150.7159 L267.4616,179.8229 Z" id="Fill-10" fill="#231F20"></path>
            <path d="M319.8976,156.9956 C320.8736,159.0316 321.2976,161.9596 321.2976,166.2446 C321.2976,171.0396 320.6186,173.3736 319.1766,175.1986 C317.8606,176.8526 316.1216,177.7016 313.7456,177.7016 C311.3696,177.7016 308.6536,176.4286 307.5506,174.5616 C306.4046,172.6096 305.6836,168.7916 305.6836,164.4206 C305.6836,160.8146 306.1506,158.3106 307.1686,156.4016 C308.2726,154.3226 310.6906,153.0066 313.4066,153.0066 C316.7576,153.0066 318.8796,154.8316 319.8976,156.9956 M301.8226,165.1426 C301.8226,170.1066 303.0106,174.0526 305.3026,176.6826 C307.2536,178.9316 310.0116,180.3746 313.5756,180.3746 C316.5876,180.3746 318.7946,179.5256 320.9576,177.5746 C323.9286,174.8586 325.2016,171.3366 325.2016,165.7356 C325.2016,161.0686 324.3956,157.6746 322.5706,154.9586 C321.1706,152.8796 318.4556,150.2066 313.4066,150.2066 C306.2356,150.2066 301.8226,155.8926 301.8226,165.1426 M316.2486,146.6846 C316.2486,147.9156 317.2676,148.9336 318.4976,148.9336 C319.6856,148.9336 320.6616,147.9156 320.6616,146.6846 C320.6616,145.4966 319.6436,144.5206 318.4556,144.5206 C317.2246,144.5206 316.2486,145.4966 316.2486,146.6846 M307.5076,146.6846 C307.5076,147.9156 308.4846,148.9336 309.7146,148.9336 C310.9456,148.9336 311.8786,147.9156 311.8786,146.6846 C311.8786,145.4966 310.9026,144.5206 309.6726,144.5206 C308.4846,144.5206 307.5076,145.4966 307.5076,146.6846" id="Fill-12" fill="#231F20"></path>
            <path d="M332.4984,179.8229 L336.1054,179.8229 L335.9354,162.9359 C335.8924,159.1599 335.5534,155.0009 335.5534,155.0009 C335.5534,155.0009 336.9954,158.4799 338.8634,162.0019 L348.1974,179.8229 L351.8464,179.8229 L351.8464,150.7159 L348.4094,150.7159 L348.5364,166.5419 C348.5784,170.7429 348.9184,175.4099 348.9184,175.4099 C348.9184,175.4099 347.7304,172.1859 346.2024,169.2999 L336.5294,150.7159 L332.4984,150.7159 L332.4984,179.8229 Z" id="Fill-14" fill="#231F20"></path>
            <path d="M370.9295,150.3335 C363.8865,150.3335 358.7105,156.6985 358.7105,165.3545 C358.7105,169.6825 359.7285,173.6285 362.1895,176.4285 C364.4375,178.9745 367.5355,180.2895 370.6745,180.2895 C373.5595,180.2895 376.4455,179.4415 378.7785,177.9135 L376.9125,175.5795 C375.0445,176.8955 373.3905,177.4465 371.2265,177.4465 C367.9165,177.4465 364.9045,175.6645 363.4195,172.0155 C362.7405,170.3185 362.4865,168.6635 362.4865,165.8635 C362.4865,162.4265 362.8675,160.0935 363.7165,158.1405 C365.1175,154.8745 367.5355,153.1345 370.8875,153.1345 C373.0085,153.1345 374.6635,153.6865 376.4025,154.9585 L378.2695,152.7095 C376.2755,151.1825 373.7305,150.3335 370.9295,150.3335" id="Fill-16" fill="#231F20"></path>
            <polygon id="Fill-18" fill="#231F20" points="384.6639 179.8229 388.0579 179.8229 388.0579 165.7359 400.3199 165.7359 400.3199 179.8229 403.7989 179.8229 403.7989 150.7159 400.3199 150.7159 400.3199 162.8929 388.0579 162.8929 388.0579 150.7159 384.6639 150.7159"></polygon>
            <polygon id="Fill-20" fill="#231F20" points="413.5058 179.8229 429.8418 179.8229 429.8418 176.8109 417.0278 176.8109 417.0278 166.1599 426.9988 166.1599 426.9988 163.1479 417.0278 163.1479 417.0278 153.6009 428.9498 153.6009 429.4168 150.7159 413.5058 150.7159"></polygon>
            <path d="M437.0458,179.8229 L440.6528,179.8229 L440.4828,162.9359 C440.4398,159.1599 440.1008,155.0009 440.1008,155.0009 C440.1008,155.0009 441.5438,158.4799 443.4108,162.0019 L452.7448,179.8229 L456.3938,179.8229 L456.3938,150.7159 L452.9568,150.7159 L453.0848,166.5419 C453.1258,170.7429 453.4668,175.4099 453.4668,175.4099 C453.4668,175.4099 452.2778,172.1859 450.7498,169.2999 L441.0768,150.7159 L437.0458,150.7159 L437.0458,179.8229 Z" id="Fill-22" fill="#231F20"></path>
            <path d="M475.5198,150.3764 C472.5078,150.3764 470.0038,151.2674 467.9248,153.1344 C464.9128,155.8494 463.4268,159.7954 463.4268,165.3544 C463.4268,170.3604 464.5728,173.9674 467.0338,176.6404 C469.2398,179.0174 472.3378,180.2894 475.9868,180.2894 C478.9558,180.2894 482.0958,179.4414 484.1748,178.0834 L484.1748,164.5064 L474.3738,164.5064 L475.0528,167.3914 L480.9078,167.3914 L480.9078,176.2584 C479.6778,177.0224 478.1068,177.4044 476.2828,177.4044 C473.5258,177.4044 470.5548,176.2164 469.2398,174.3064 C467.9248,172.3974 467.2038,169.3004 467.2038,165.4814 C467.2038,162.7234 467.5848,160.2624 468.3488,158.0994 C469.5368,154.7464 472.2098,153.1764 475.6048,153.1764 C477.8528,153.1764 479.5508,153.8134 481.9268,155.4254 L483.4958,153.2614 C481.2898,151.3524 478.6168,150.3764 475.5198,150.3764" id="Fill-24" fill="#231F20"></path>
            <polygon id="Fill-26" fill="#231F20" points="492.9449 179.8229 507.4559 179.8229 507.9229 176.8949 496.4239 176.8949 496.4239 150.7159 492.9449 150.7159"></polygon>
            <path d="M517.4132,168.0274 L521.9962,153.7704 L526.4502,168.0274 L517.4132,168.0274 Z M519.8742,150.7154 L510.1572,179.8234 L513.6792,179.8234 L516.4792,170.8704 L527.3412,170.8704 L530.0992,179.8234 L534.0452,179.8234 L524.4132,150.7154 L519.8742,150.7154 Z" id="Fill-28" fill="#231F20"></path>
            <path d="M545.915,153.5583 C548.97,153.5583 550.837,153.9833 552.746,156.2313 C554.698,158.5653 555.249,161.3653 555.249,165.7363 C555.249,168.7913 554.613,171.6343 553.297,173.8823 C551.728,176.5983 548.927,176.9373 545.915,176.9373 L542.436,176.9373 L542.436,153.5583 L545.915,153.5583 Z M538.956,179.8233 L546.551,179.8233 C550.625,179.8233 553.17,179.0173 555.716,176.1743 C557.668,174.0103 559.025,170.4033 559.025,165.3123 C559.025,159.6263 557.413,155.3403 554.104,152.9643 C551.261,150.9283 549.225,150.7153 544.77,150.7153 L538.956,150.7153 L538.956,179.8233 Z" id="Fill-30" fill="#231F20"></path>
            <path d="M575.0588,166.118 C576.5008,166.118 577.6468,166.245 578.4528,166.415 C580.5318,166.839 581.9748,169.003 581.9748,171.549 C581.9748,175.028 580.4048,176.98 576.1198,176.98 L569.9248,176.98 L569.9248,166.118 L575.0588,166.118 Z M574.0408,153.643 C575.5248,153.643 576.4168,153.686 577.2228,153.898 C579.2168,154.407 580.5318,156.189 580.5318,158.48 C580.5318,159.287 580.3628,160.05 580.0658,160.729 C579.2168,162.681 578.1138,163.232 574.9738,163.232 L569.9248,163.232 L569.9248,153.643 L574.0408,153.643 Z M566.5728,179.823 L574.0828,179.823 C578.4108,179.823 579.5138,179.568 581.0838,178.974 C583.9268,177.871 585.6238,175.028 585.6238,171.846 C585.6238,169.724 584.9028,167.348 582.9928,165.906 C582.0168,165.142 580.9558,164.718 579.1748,164.378 C582.4838,163.317 584.3928,161.027 584.3928,158.013 C584.3928,155.044 582.3988,152.37 579.4288,151.352 C577.9438,150.843 576.5438,150.715 570.7728,150.715 L566.5728,150.715 L566.5728,179.823 Z" id="Fill-32" fill="#231F20"></path>
            <path d="M596.311,168.0274 L600.893,153.7704 L605.348,168.0274 L596.311,168.0274 Z M598.772,150.7154 L589.055,179.8234 L592.577,179.8234 L595.377,170.8704 L606.239,170.8704 L608.997,179.8234 L612.943,179.8234 L603.311,150.7154 L598.772,150.7154 Z" id="Fill-34" fill="#231F20"></path>
            <path d="M627.6135,150.3335 C620.5705,150.3335 615.3935,156.6985 615.3935,165.3545 C615.3935,169.6825 616.4125,173.6285 618.8735,176.4285 C621.1215,178.9745 624.2185,180.2895 627.3585,180.2895 C630.2435,180.2895 633.1295,179.4415 635.4625,177.9135 L633.5965,175.5795 C631.7285,176.8955 630.0745,177.4465 627.9105,177.4465 C624.6015,177.4465 621.5885,175.6645 620.1035,172.0155 C619.4245,170.3185 619.1705,168.6635 619.1705,165.8635 C619.1705,162.4265 619.5515,160.0935 620.4005,158.1405 C621.8015,154.8745 624.2185,153.1345 627.5715,153.1345 C629.6925,153.1345 631.3465,153.6865 633.0865,154.9585 L634.9535,152.7095 C632.9595,151.1825 630.4145,150.3335 627.6135,150.3335" id="Fill-36" fill="#231F20"></path>
            <polygon id="Fill-38" fill="#231F20" points="641.3477 179.8229 644.7417 179.8229 644.7417 165.7359 657.0037 165.7359 657.0037 179.8229 660.4827 179.8229 660.4827 150.7159 657.0037 150.7159 657.0037 162.8929 644.7417 162.8929 644.7417 150.7159 641.3477 150.7159"></polygon>
            <polygon id="Fill-40" fill="#231F20" points="393.5312 1.123 393.5312 53.163 403.9392 53.163 403.9392 29.951 418.9142 29.951 418.9142 53.163 429.5462 53.163 429.5462 1.123 418.9142 1.123 418.9142 21.34 403.9392 21.34 403.9392 1.123"></polygon>
            <path d="M463.3056,8.5368 C468.8456,8.5368 471.6156,12.5048 472.4396,15.1258 C473.3376,18.0458 473.7876,21.8648 473.7876,27.1808 C473.7876,40.4338 470.7186,45.9748 463.4556,45.9748 C460.9836,45.9748 458.8876,45.3758 457.2406,44.1778 C454.0956,41.9318 452.5986,36.3148 452.5986,27.3298 C452.5986,21.0408 453.4216,16.4728 455.2196,13.1038 C456.7156,10.3328 459.7856,8.5368 463.3056,8.5368 M463.4556,0.4498 C459.5616,0.4498 455.7426,1.3478 452.6736,2.9958 C445.1856,7.1128 440.9176,16.0988 440.9176,27.3298 C440.9176,34.9678 442.9396,41.5568 446.9076,46.6478 C450.8766,51.8148 455.9676,53.9868 463.8286,53.9868 C468.1716,53.9868 471.0916,53.3128 474.2366,51.5908 C481.7996,47.4718 485.8426,38.6368 485.8426,26.8818 C485.8426,10.5578 477.3076,0.4498 463.4556,0.4498" id="Fill-42" fill="#231F20"></path>
            <g id="Group-46" transform="translate(493.104700, 0.000000)">
                <mask id="mask-0gj77y5_l0-4" fill="white">
                    <use xlink:href="#path-0gj77y5_l0-3"></use>
                </mask>
                <g id="Clip-45"></g>
                <path d="M36.613,4.1186 C33.768,1.6476 28.602,-0.0004 23.436,-0.0004 C15.05,-0.0004 7.562,4.4936 3.519,12.0556 C1.123,16.5486 5.68434189e-14,21.7146 5.68434189e-14,28.2296 C5.68434189e-14,35.8666 2.096,42.1556 6.289,46.8736 C10.556,51.7406 16.097,54.0606 23.286,54.0606 C29.201,54.0606 33.617,52.5646 37.736,49.1946 L32.945,42.6046 C29.875,45.0756 27.104,45.9756 24.034,45.9756 C19.542,45.9756 16.097,43.9526 14.001,40.1346 C12.429,37.2886 11.83,33.3206 11.83,26.2076 C11.83,20.1426 12.728,15.7996 14.749,12.8046 C16.622,10.0336 20.065,8.3116 23.585,8.3116 C26.505,8.3116 29.275,9.2856 31.896,11.2316 L36.613,4.1186 Z" id="Fill-44" fill="#231F20" mask="url(#mask-0gj77y5_l0-4)"></path>
            </g>
            <polygon id="Fill-47" fill="#231F20" points="539.8813 1.123 539.8813 53.163 550.5883 53.163 550.5883 25.982 566.3873 53.163 580.1633 53.163 561.6703 25.234 578.2923 1.123 565.4143 1.123 550.5883 24.859 550.5883 1.123"></polygon>
            <polygon id="Fill-49" fill="#231F20" points="588.1611 1.123 588.1611 53.163 618.4851 53.163 618.4851 44.178 598.7931 44.178 598.7931 30.251 613.5441 30.251 613.5441 21.715 598.6431 21.715 598.6431 9.66 616.4641 9.66 617.8111 1.123"></polygon>
            <path d="M623.0378,1.123 L639.2108,31.749 L639.2108,53.163 L650.1418,53.163 L650.1418,31.749 L666.7648,1.123 L654.4108,1.123 L647.6718,15.499 C646.5488,17.971 645.5008,20.516 644.9018,22.014 C644.3028,20.067 643.6288,18.196 642.2808,15.35 L635.6168,1.123 L623.0378,1.123 Z" id="Fill-51" fill="#231F20"></path>
            <polygon id="Fill-53" fill="#231F20" points="268.3117 77.6062 268.3117 126.1772 278.0257 126.1772 278.0257 104.5122 292.0017 104.5122 292.0017 126.1772 301.9257 126.1772 301.9257 77.6062 292.0017 77.6062 292.0017 96.4752 278.0257 96.4752 278.0257 77.6062"></polygon>
            <path d="M323.091,106.5388 C324.139,103.3248 324.768,101.0178 325.677,97.5238 C326.586,93.8898 327.983,88.1588 327.983,88.1588 C327.983,88.1588 329.451,94.5188 329.94,96.7548 C330.988,101.4368 332.595,106.5388 332.595,106.5388 L323.091,106.5388 Z M323.022,77.4668 L307.089,126.1768 L317.291,126.1768 L320.715,114.6468 L334.972,114.6468 L338.396,126.1768 L348.878,126.1768 L333.574,77.4668 L323.022,77.4668 Z" id="Fill-55" fill="#231F20"></path>
            <path d="M353.8855,77.6062 L353.8855,111.4312 C353.8855,116.1132 354.3745,118.0702 355.9815,120.5862 C358.7075,124.8492 364.1585,127.0852 371.5655,127.0852 C382.0485,127.0852 386.7995,121.7742 388.0585,117.9302 C388.7565,115.8342 388.8275,114.9252 388.8275,110.3122 L388.8275,77.6062 L378.9035,77.6062 L378.9035,108.7052 C378.9035,111.2912 378.9035,111.9902 378.7635,113.0382 C378.3435,116.6032 375.6195,118.6992 371.3565,118.6992 C368.1415,118.6992 365.8355,117.5112 364.7175,115.3442 C364.1585,114.2962 363.8795,112.5492 363.8795,109.5432 L363.8795,77.6062 L353.8855,77.6062 Z" id="Fill-57" fill="#231F20"></path>
            <path d="M410.0523,85.5037 L416.2723,85.5037 C420.3943,85.5037 422.8403,88.2297 422.8403,92.7717 C422.8403,95.0777 422.4913,96.4757 421.6523,97.8027 C420.3253,99.8307 419.1373,100.3197 415.1533,100.3197 L410.0523,100.3197 L410.0523,85.5037 Z M400.2683,77.6067 L400.2683,126.1767 L410.0523,126.1767 L410.0523,108.2867 L415.4333,108.2867 C420.8143,108.2867 422.9113,107.7267 425.1473,106.6787 C430.4583,104.1627 433.5323,98.9907 433.5323,92.5617 C433.5323,86.9707 431.0863,82.4987 426.5453,79.9827 C423.8193,78.4457 421.3033,77.6067 413.0573,77.6067 L400.2683,77.6067 Z" id="Fill-59" fill="#231F20"></path>
            <polygon id="Fill-61" fill="#231F20" points="435.8277 77.6062 435.8277 85.7142 447.7077 85.7142 447.7077 126.1772 457.6307 126.1772 457.6307 85.7142 469.2317 85.7142 470.8387 77.6062"></polygon>
            <path d="M507.234,81.0314 C502.971,77.9564 496.961,76.1394 491.022,76.1394 C480.749,76.1394 473.62,82.2884 473.62,91.1644 C473.62,93.8894 474.32,96.4064 475.647,98.5724 C477.394,101.5074 480.399,103.3944 485.221,104.7214 L490.603,106.1904 C494.935,107.3784 496.961,109.3344 496.961,112.4794 C496.961,116.8124 494.027,119.1184 488.436,119.1184 C483.544,119.1184 479.63,117.5814 475.089,115.2054 L471.455,122.8224 C476.346,125.6184 482.495,127.2254 488.017,127.2254 C500.106,127.2254 508.073,120.7254 508.073,110.8724 C508.073,103.6734 503.74,98.5724 495.773,96.4064 L489.903,94.7984 C485.85,93.6804 484.522,92.4224 484.522,89.9064 C484.522,86.6224 487.317,84.3154 491.301,84.3154 C494.935,84.3154 498.219,85.3644 502.622,88.0194 L507.234,81.0314 Z" id="Fill-63" fill="#231F20"></path>
            <polygon id="Fill-65" fill="#231F20" points="511.6382 77.6062 511.6382 85.7142 523.5182 85.7142 523.5182 126.1772 533.4412 126.1772 533.4412 85.7142 545.0422 85.7142 546.6492 77.6062"></polygon>
            <path d="M560.1232,106.5388 C561.1712,103.3248 561.8002,101.0178 562.7092,97.5238 C563.6172,93.8898 565.0152,88.1588 565.0152,88.1588 C565.0152,88.1588 566.4822,94.5188 566.9722,96.7548 C568.0202,101.4368 569.6272,106.5388 569.6272,106.5388 L560.1232,106.5388 Z M560.0542,77.4668 L544.1212,126.1768 L554.3232,126.1768 L557.7472,114.6468 L572.0042,114.6468 L575.4282,126.1768 L585.9102,126.1768 L570.6062,77.4668 L560.0542,77.4668 Z" id="Fill-67" fill="#231F20"></path>
            <path d="M601.12,85.2936 L605.592,85.2936 C609.437,85.2936 611.672,86.6916 613.28,89.3476 C615.236,92.5616 615.726,97.3146 615.726,102.9746 C615.726,113.2486 612.791,118.2096 606.361,118.2096 L601.12,118.2096 L601.12,85.2936 Z M591.197,77.6066 L591.197,126.1766 L603.008,126.1766 C605.873,126.1766 608.178,126.0376 609.995,125.8976 C614.538,125.5476 618.87,122.8926 621.806,118.9086 C625.09,114.5056 626.697,108.7056 626.697,102.0666 C626.697,93.3306 624.531,87.1106 620.058,82.7086 C617.124,79.7736 613.56,78.2356 609.437,77.8866 C607.48,77.7466 603.776,77.6066 600.98,77.6066 L591.197,77.6066 Z" id="Fill-69" fill="#231F20"></path>
            <polygon id="Fill-71" fill="#231F20" points="630.8813 77.6062 630.8813 85.7142 642.7613 85.7142 642.7613 126.1772 652.6843 126.1772 652.6843 85.7142 664.2853 85.7142 665.8923 77.6062"></polygon>
        </g>
    </g>
</svg>