<?xml version="1.0" encoding="UTF-8" standalone="no"?>
<!DOCTYPE svg PUBLIC "-//W3C//DTD SVG 1.1//EN" "http://www.w3.org/Graphics/SVG/1.1/DTD/svg11.dtd">
<svg width="559px" height="301px" viewBox="0 0 559 301" version="1.1" xmlns="http://www.w3.org/2000/svg" xmlns:xlink="http://www.w3.org/1999/xlink">
    <g id="Institutionen" stroke="none" stroke-width="1" fill="none" fill-rule="evenodd">
        <g id="Artboard" fill-rule="nonzero">
            <path d="M372.019991,64.0426651 C372.019991,43.4973322 371.437324,30.4119998 370.285324,24.7973327 C369.137324,19.1773329 366.525324,15.037333 362.459991,12.3799997 C358.570658,9.83333309 351.694658,8.52266645 341.875991,8.41199979 C341.693325,8.41733312 341.542658,8.42666646 341.362658,8.42666646 C320.925325,8.42666646 314.674659,14.6346663 310.914659,19.3999995 C304.827992,27.110666 286.60266,77.0639981 286.60266,77.0639981 L249.817327,187.351995 C289.395993,212.898661 330.913325,225.702661 372.019991,230.467994 L372.019991,64.0426651 Z M194.537328,186.146662 C186.933329,181.250662 180.009329,176.015996 173.625329,170.549329 L201.127995,248.599994 L216.191995,199.267995 C209.162661,195.254662 201.975995,190.931995 194.537328,186.146662 L194.537328,186.146662 Z M509.214654,246.245327 C509.214654,246.245327 443.707989,249.83066 372.535991,245.619994 C328.553325,243.018661 286.959993,234.305327 241.414661,212.549328 L211.874661,301.121326 L205.107995,301.135992 L205.117328,301.050659 L205.107995,301.055992 L156.222663,153.591996 C105.861997,97.8133309 102.225997,27.8573326 91.0614644,17.7653329 C85.6005312,12.829333 80.0026647,14.321333 77.1739981,18.9613329 C76.1150648,21.0439995 75.3379981,23.4093327 74.9245315,26.154666 C74.0270648,32.1479992 73.5833315,44.8239989 73.5833315,64.1893317 L73.5833315,184.911995 C73.5833315,205.363995 74.2087981,218.314661 75.4693314,223.759994 C76.7197314,229.206661 79.210398,232.927994 82.9218646,234.923994 C86.6343978,236.922661 94.4806643,237.921327 106.452131,237.921327 L111.666131,237.921327 L111.666131,246.310661 L2.27373675e-13,246.310661 L2.27373675e-13,237.921327 L5.2041732,237.921327 C17.5385329,237.921327 25.5671994,236.830661 29.2770659,234.653327 C32.9895992,232.473328 35.3791991,228.541328 36.4587991,222.853328 C37.5374657,217.163995 38.082799,204.515995 38.082799,184.911995 L38.082799,64.1893317 C38.082799,43.6133322 37.5374657,30.5146659 36.4587991,24.8853327 C35.3791991,19.2586662 32.8385325,15.113333 28.8245326,12.449333 C24.809866,9.78933309 17.5994662,8.45733312 7.18073315,8.45733312 L2.27373675e-13,8.45733312 L2.27373675e-13,0.066666665 L33.3729325,0.066666665 L33.3677325,0.0599999985 L154.393329,0.0599999985 L154.393329,8.42666646 C151.210663,9.06133311 150.322663,9.46399976 147.902663,11.0786664 C146.738663,11.8559997 145.794663,12.737333 144.91733,13.7919997 C120.59693,43.0399989 163.686663,125.76533 224.718661,171.341329 L262.503993,47.5813321 C262.503993,47.5813321 268.197327,31.2559992 268.715993,22.7826661 C268.97866,18.4666662 267.233327,13.0146663 261.10666,10.5799997 C256.09466,8.58666645 238.409327,8.40133312 238.409327,8.40133312 L238.409327,0.0359999991 L327.806658,0.0359999991 L327.806658,-2.84217094e-14 L450.766655,-2.84217094e-14 L450.766655,8.39066646 L438.777322,8.39066646 C427.754656,8.39066646 420.238656,9.83866642 416.246656,12.7439997 C412.241323,15.6413329 409.790656,20.1159995 408.88399,26.154666 C407.97599,32.1973325 407.521323,44.8293322 407.521323,64.0426651 L407.521323,233.194661 C417.99599,233.699994 429.302656,234.062661 441.811989,234.385327 C442.522656,234.405327 443.198656,234.445327 443.899989,234.471994 L447.127989,234.471994 C460.571988,234.471994 470.082655,233.649327 475.649321,232.009328 C481.225321,230.371994 486.431988,229 491.282654,221.778661 C496.121321,214.551995 499.934654,202.806662 502.727987,186.539995 L509.430654,186.454662 L509.214654,246.245327" id="IAT" fill="#079250" transform="translate(254.715327, 150.567996) scale(1, -1) translate(-254.715327, -150.567996) "></path>
            <path d="M536.54532,80.0899993 L536.54532,73.1619995 L539.070653,73.1619995 C541.847986,73.1619995 543.687986,73.3006662 544.591986,73.5793328 C545.250653,73.7699995 545.79332,74.1606661 546.219986,74.7513328 C546.643986,75.3406661 546.85732,75.9566661 546.85732,76.5993327 C546.85732,77.5539994 546.49732,78.3739994 545.77732,79.060666 C545.055986,79.7459993 543.23732,80.0899993 540.32132,80.0899993 L536.54532,80.0899993 Z M533.966653,82.1993326 L541.70132,82.1993326 C544.495986,82.1993326 546.499986,81.6859993 547.71732,80.6619993 C548.931986,79.6379993 549.539986,78.3619994 549.539986,76.8339994 C549.539986,75.2193328 548.90532,73.8659995 547.638653,72.7713328 C546.718653,71.9899995 545.37332,71.4699995 543.602653,71.2086662 C544.399986,70.8273329 544.963986,70.4886662 545.294653,70.1939996 C545.623986,69.8979996 546.135986,69.2726663 546.831986,68.3179996 C547.52532,67.363333 548.055986,66.5646663 548.419986,65.923333 L550.450653,62.3033331 L547.274653,62.3033331 L545.346653,65.5846664 C543.870653,68.1366663 542.746653,69.6633329 541.974653,70.1673329 C541.20132,70.6699996 539.938653,70.9233329 538.18532,70.9233329 L536.54532,70.9233329 L536.54532,62.3033331 L533.966653,62.3033331 L533.966653,82.1993326 Z M557.247986,71.5993329 C557.247986,76.1313328 555.646653,80.0019993 552.443986,83.2139992 C549.239986,86.4259992 545.363986,88.0326658 540.815986,88.0326658 C536.283987,88.0326658 532.41732,86.4259992 529.214653,83.2139992 C526.010654,80.0019993 524.40932,76.1313328 524.40932,71.5993329 C524.40932,67.0686663 526.010654,63.1966664 529.214653,59.9846665 C532.41732,56.7726666 536.283987,55.1673333 540.815986,55.1673333 C545.363986,55.1673333 549.239986,56.7726666 552.443986,59.9846665 C555.646653,63.1966664 557.247986,67.0686663 557.247986,71.5993329 Z M559.305319,71.5993329 C559.305319,66.495333 557.502653,62.1379998 553.901319,58.5273332 C550.298653,54.9153333 545.94532,53.11 540.84132,53.11 C535.73732,53.11 531.379987,54.9153333 527.76932,58.5273332 C524.15732,62.1379998 522.351987,66.495333 522.351987,71.5993329 C522.351987,76.7033327 524.15732,81.060666 527.76932,84.6726659 C531.379987,88.2833325 535.73732,90.0899991 540.84132,90.0899991 C545.94532,90.0899991 550.298653,88.2833325 553.901319,84.6726659 C557.502653,81.060666 559.305319,76.7033327 559.305319,71.5993329" id="Copyright" fill="#089554" transform="translate(540.828653, 71.600000) scale(1, -1) translate(-540.828653, -71.600000) "></path>
        </g>
    </g>
</svg>