<?xml version="1.0" encoding="UTF-8" standalone="no"?>
<!DOCTYPE svg PUBLIC "-//W3C//DTD SVG 1.1//EN" "http://www.w3.org/Graphics/SVG/1.1/DTD/svg11.dtd">
<svg width="294px" height="115px" viewBox="0 0 294 115" version="1.1" xmlns="http://www.w3.org/2000/svg" xmlns:xlink="http://www.w3.org/1999/xlink">
    <g id="Institutionen" stroke="none" stroke-width="1" fill="none" fill-rule="evenodd">
        <g id="Artboard" fill-rule="nonzero">
            <g id="Group" transform="translate(0.000000, -0.000000)">
                <g id="g12" transform="translate(146.617330, 57.129332) scale(-1, 1) rotate(-180.000000) translate(-146.617330, -57.129332) translate(0.000000, 0.000000)">
                    <polyline id="path14" fill="#079250" points="0 18.6039995 7.64843981 18.6039995 7.64843981 17.0666662 1.83333329 17.0666662 1.83333329 12.3466664 7.20573315 12.3466664 7.20573315 10.8293331 1.83333329 10.8293331 1.83333329 4.40266656 0 4.40266656 0 18.6039995"></polyline>
                    <path d="M10.6822931,9.4813331 C10.6822931,7.24799982 11.9677064,5.56266653 13.7802663,5.56266653 C15.5494663,5.56266653 16.8759996,7.22799982 16.8759996,9.52266643 C16.8759996,11.2506664 16.0130663,13.4426663 13.821333,13.4426663 C11.630213,13.4426663 10.6822931,11.4199997 10.6822931,9.4813331 L10.6822931,9.4813331 Z M18.7734662,9.58666643 C18.7734662,5.81466652 16.1598663,4.1719999 13.695333,4.1719999 C10.9348931,4.1719999 8.80729311,6.19333318 8.80729311,9.4173331 C8.80729311,12.8319997 11.0401064,14.833333 13.8635997,14.833333 C16.7926662,14.833333 18.7734662,12.7039997 18.7734662,9.58666643" id="path16" fill="#079250"></path>
                    <path d="M21.1119995,11.4199997 C21.1119995,12.6199997 21.0911995,13.653333 21.0286661,14.601333 L22.6510661,14.601333 L22.7135994,12.5999997 L22.7978661,12.5999997 C23.2619994,13.969333 24.3775994,14.833333 25.6207994,14.833333 C25.8317327,14.833333 25.9791994,14.8119996 26.1483993,14.769333 L26.1483993,13.0226663 C25.9583994,13.0626663 25.768266,13.0839997 25.5155994,13.0839997 C24.2093327,13.0839997 23.2822661,12.0946664 23.0302661,10.7039997 C22.9869328,10.4506664 22.9453328,10.1546664 22.9453328,9.83866642 L22.9453328,4.40266656 L21.1119995,4.40266656 L21.1119995,11.4199997" id="path18" fill="#079250"></path>
                    <path d="M27.7483993,6.29999984 C28.2969326,5.94133318 29.2655993,5.56266653 30.1926659,5.56266653 C31.5417325,5.56266653 32.1734659,6.23599984 32.1734659,7.07866649 C32.1734659,7.9639998 31.6473325,8.44933312 30.2770659,8.95333311 C28.4437326,9.60799976 27.580666,10.6173331 27.580666,11.841333 C27.580666,13.485333 28.9078659,14.833333 31.0989326,14.833333 C32.1311992,14.833333 33.0374658,14.5386663 33.6067992,14.201333 L33.1431992,12.8519997 C32.7421325,13.105333 32.0051992,13.4426663 31.0573326,13.4426663 C29.9609326,13.4426663 29.3505326,12.8106663 29.3505326,12.0519997 C29.3505326,11.2093331 29.9609326,10.8293331 31.2890659,10.3239997 C33.0583992,9.64933309 33.9645325,8.76399978 33.9645325,7.24799982 C33.9645325,5.45599986 32.5745325,4.1719999 30.1510659,4.1719999 C29.0338659,4.1719999 28.0015993,4.46666656 27.285466,4.88799988 L27.7483993,6.29999984" id="path20" fill="#079250"></path>
                    <path d="M43.6145322,4.78266655 C43.1302656,4.52933322 42.0546656,4.1719999 40.685999,4.1719999 C37.6093324,4.1719999 35.6083991,6.27866651 35.6083991,9.39599977 C35.6083991,12.5359997 37.7567991,14.8119996 41.085999,14.8119996 C42.1822656,14.8119996 43.1510656,14.5386663 43.6562656,14.2839996 L43.2359989,12.8519997 C42.7926656,13.105333 42.0973323,13.3359997 41.085999,13.3359997 C38.7473324,13.3359997 37.4827991,11.609333 37.4827991,9.4813331 C37.4827991,7.11999982 38.999999,5.66799986 41.0234656,5.66799986 C42.0765323,5.66799986 42.7723989,5.94133318 43.2978656,6.1719999 L43.6145322,4.78266655" id="path22" fill="#079250"></path>
                    <path d="M45.7838655,19.3626662 L47.6379988,19.3626662 L47.6379988,12.9999997 L47.6806655,12.9999997 C47.9750655,13.5266663 48.4390655,13.9906663 49.0078654,14.305333 C49.5562654,14.6226663 50.2083987,14.833333 50.9035987,14.833333 C52.2734654,14.833333 54.464532,13.9906663 54.464532,10.4719997 L54.464532,4.40266656 L52.6103987,4.40266656 L52.6103987,10.2613331 C52.6103987,11.905333 51.9999987,13.2946663 50.2515987,13.2946663 C49.0494654,13.2946663 48.1015988,12.4506664 47.7639988,11.441333 C47.6587988,11.1893331 47.6379988,10.9133331 47.6379988,10.5559997 L47.6379988,4.40266656 L45.7838655,4.40266656 L45.7838655,19.3626662" id="path24" fill="#079250"></path>
                    <path d="M66.0119983,7.18399982 C66.0119983,6.13066651 66.032265,5.20399987 66.0963983,4.40266656 L64.4521317,4.40266656 L64.3463984,6.06799985 L64.3046651,6.06799985 C63.8202651,5.2453332 62.7463984,4.1719999 60.9338651,4.1719999 C59.3317319,4.1719999 57.4150652,5.05599987 57.4150652,8.63866645 L57.4150652,14.601333 L59.2693319,14.601333 L59.2693319,8.95333311 C59.2693319,7.01733316 59.8593318,5.70933319 61.5442651,5.70933319 C62.7874651,5.70933319 63.6510651,6.57333317 63.9879984,7.39599982 C64.0937317,7.66933314 64.1578651,8.00533313 64.1578651,8.34399979 L64.1578651,14.601333 L66.0119983,14.601333 L66.0119983,7.18399982" id="path26" fill="#079250"></path>
                    <path d="M69.0869316,11.841333 C69.0869316,12.8946663 69.0661316,13.7586663 69.0035983,14.601333 L70.6473316,14.601333 L70.7526649,12.9146663 L70.7942649,12.9146663 C71.2994649,13.885333 72.4791982,14.833333 74.1650648,14.833333 C75.5765314,14.833333 77.7682647,13.9906663 77.7682647,10.4933331 L77.7682647,4.40266656 L75.9139981,4.40266656 L75.9139981,10.2826664 C75.9139981,11.925333 75.3030648,13.2946663 73.5546648,13.2946663 C72.3317315,13.2946663 71.3843982,12.4306664 71.0677316,11.3999997 C70.9843982,11.1679997 70.9417316,10.8506664 70.9417316,10.5346664 L70.9417316,4.40266656 L69.0869316,4.40266656 L69.0869316,11.841333" id="path28" fill="#079250"></path>
                    <path d="M87.6494645,10.5759997 C87.6494645,10.8933331 87.6291978,11.1679997 87.5458645,11.4199997 C87.2083978,12.4946664 86.3021312,13.3786663 84.9530645,13.3786663 C83.1838646,13.3786663 81.9193313,11.8839997 81.9193313,9.52266643 C81.9193313,7.52266648 82.9306646,5.85733319 84.9322645,5.85733319 C86.0702645,5.85733319 87.1026645,6.57333317 87.5026645,7.75333314 C87.6083978,8.0679998 87.6494645,8.42799979 87.6494645,8.74266645 L87.6494645,10.5759997 Z M89.4827978,5.87866652 C89.4827978,3.53999991 89.0193311,2.10666661 88.0302645,1.22266664 C87.0390645,0.294666659 85.6067979,0 84.3213312,0 C83.0989313,0 81.751598,0.294666659 80.9297313,0.841333312 L81.393198,2.25333328 C82.0661313,1.83333329 83.1197313,1.4533333 84.3843979,1.4533333 C86.2811978,1.4533333 87.6718645,2.44399994 87.6718645,5.01333321 L87.6718645,6.15199985 L87.6291978,6.15199985 C87.0598645,5.20399987 85.9645312,4.44533322 84.3843979,4.44533322 C81.856798,4.44533322 80.0442647,6.5946665 80.0442647,9.4173331 C80.0442647,12.873333 82.2978646,14.833333 84.6379979,14.833333 C86.4078645,14.833333 87.3759978,13.905333 87.8193311,13.0626663 L87.8603978,13.0626663 L87.9453311,14.601333 L89.5677311,14.601333 C89.5259978,13.8626663 89.4827978,13.0426663 89.4827978,11.7986664 L89.4827978,5.87866652" id="path30" fill="#079250"></path>
                    <path d="M97.2145309,4.40266656 L97.2145309,13.189333 L95.7822643,13.189333 L95.7822643,14.601333 L97.2145309,14.601333 L97.2145309,15.085333 C97.2145309,16.5186663 97.5311976,17.8239996 98.3947975,18.6466662 C99.0901309,19.3199995 100.017197,19.5946662 100.880264,19.5946662 C101.533864,19.5946662 102.102664,19.4466662 102.460931,19.2999995 L102.208397,17.8666662 C101.934931,17.9933329 101.554664,18.0986662 101.028664,18.0986662 C99.4478642,18.0986662 99.0478642,16.7079996 99.0478642,15.1479996 L99.0478642,14.601333 L101.513064,14.601333 L101.513064,13.189333 L99.0478642,13.189333 L99.0478642,4.40266656 L97.2145309,4.40266656" id="path32" fill="#079250"></path>
                    <path d="M109.434931,16.4133329 C108.824531,16.4133329 108.402664,16.9186662 108.402664,17.4879996 C108.402664,18.0773329 108.865597,18.5626662 109.455731,18.5626662 C110.045864,18.5626662 110.487997,18.0986662 110.487997,17.4879996 C110.487997,16.9186662 110.067731,16.4133329 109.455731,16.4133329 L109.434931,16.4133329 Z M105.537464,16.4133329 C104.925464,16.4133329 104.484397,16.9186662 104.484397,17.4879996 C104.484397,18.0773329 104.968797,18.5626662 105.558397,18.5626662 C106.148397,18.5626662 106.591197,18.0986662 106.591197,17.4879996 C106.591197,16.9186662 106.169331,16.4133329 105.558397,16.4133329 L105.537464,16.4133329 Z M111.710931,7.18399982 C111.710931,6.13066651 111.731731,5.20399987 111.795864,4.40266656 L110.151064,4.40266656 L110.045864,6.06799985 L110.003597,6.06799985 C109.519331,5.2453332 108.445331,4.1719999 106.632797,4.1719999 C105.031197,4.1719999 103.114531,5.05599987 103.114531,8.63866645 L103.114531,14.601333 L104.968797,14.601333 L104.968797,8.95333311 C104.968797,7.01733316 105.558397,5.70933319 107.243197,5.70933319 C108.486931,5.70933319 109.350531,6.57333317 109.687464,7.39599982 C109.792664,7.66933314 109.856797,8.00533313 109.856797,8.34399979 L109.856797,14.601333 L111.710931,14.601333 L111.710931,7.18399982" id="path34" fill="#079250"></path>
                    <path d="M114.786397,11.4199997 C114.786397,12.6199997 114.765597,13.653333 114.703064,14.601333 L116.325464,14.601333 L116.387997,12.5999997 L116.47293,12.5999997 C116.935997,13.969333 118.05213,14.833333 119.295864,14.833333 C119.506797,14.833333 119.653597,14.8119996 119.82293,14.769333 L119.82293,13.0226663 C119.632797,13.0626663 119.442664,13.0839997 119.19013,13.0839997 C117.884397,13.0839997 116.95733,12.0946664 116.70413,10.7039997 C116.661464,10.4506664 116.61973,10.1546664 116.61973,9.83866642 L116.61973,4.40266656 L114.786397,4.40266656 L114.786397,11.4199997" id="path36" fill="#079250"></path>
                    <path d="M133.096397,10.4506664 C133.096397,10.6813331 133.075463,10.9986664 133.011997,11.2293331 C132.737997,12.409333 131.72653,13.3786663 130.335997,13.3786663 C128.41933,13.3786663 127.281197,11.693333 127.281197,9.43866643 C127.281197,7.37333315 128.292663,5.66799986 130.294263,5.66799986 C131.537463,5.66799986 132.675463,6.48933317 133.011997,7.8799998 C133.075463,8.1319998 133.096397,8.38666646 133.096397,8.67999978 L133.096397,10.4506664 Z M134.950663,19.3626662 L134.950663,7.03733316 C134.950663,6.13066651 134.971997,5.09866654 135.034663,4.40266656 L133.370663,4.40266656 L133.286397,6.1719999 L133.243197,6.1719999 C132.675463,5.03466654 131.432263,4.1719999 129.768263,4.1719999 C127.30213,4.1719999 125.406264,6.25733318 125.406264,9.35599977 C125.385464,12.7466663 127.49213,14.833333 129.97813,14.833333 C131.537463,14.833333 132.591197,14.0946663 133.054663,13.2746663 L133.096397,13.2746663 L133.096397,19.3626662 L134.950663,19.3626662" id="path38" fill="#079250"></path>
                    <path d="M144.494663,10.4933331 C144.515996,11.6719997 144.010663,13.505333 141.923996,13.505333 C140.04933,13.505333 139.227997,11.777333 139.079997,10.4933331 L144.494663,10.4933331 Z M139.058663,9.1653331 C139.10133,6.65733317 140.70133,5.62533319 142.555996,5.62533319 C143.883996,5.62533319 144.68533,5.85733319 145.379996,6.15199985 L145.694663,4.82399988 C145.042663,4.52933322 143.92533,4.1719999 142.303996,4.1719999 C139.163997,4.1719999 137.28933,6.25733318 137.28933,9.33466643 C137.28933,12.409333 139.10133,14.833333 142.071996,14.833333 C145.40133,14.833333 146.28533,11.905333 146.28533,10.0293331 C146.28533,9.64933309 146.243996,9.35599977 146.222663,9.1653331 L139.058663,9.1653331" id="path40" fill="#079250"></path>
                    <path d="M148.582663,11.841333 C148.582663,12.8946663 148.56133,13.7586663 148.498663,14.601333 L150.14133,14.601333 L150.247996,12.9146663 L150.28933,12.9146663 C150.794663,13.885333 151.97333,14.833333 153.659996,14.833333 C155.071996,14.833333 157.262663,13.9906663 157.262663,10.4933331 L157.262663,4.40266656 L155.409329,4.40266656 L155.409329,10.2826664 C155.409329,11.925333 154.798663,13.2946663 153.04933,13.2946663 C151.826663,13.2946663 150.878663,12.4306664 150.562663,11.3999997 C150.478663,11.1679997 150.435996,10.8506664 150.435996,10.5346664 L150.435996,4.40266656 L148.582663,4.40266656 L148.582663,11.841333" id="path42" fill="#079250"></path>
                    <polyline id="path44" fill="#079250" points="164.805329 18.6039995 166.638663 18.6039995 166.638663 5.94133318 172.706662 5.94133318 172.706662 4.40266656 164.805329 4.40266656 164.805329 18.6039995"></polyline>
                    <path d="M180.859995,10.4933331 C180.881329,11.6719997 180.375995,13.505333 178.289329,13.505333 C176.414662,13.505333 175.594662,11.777333 175.445329,10.4933331 L180.859995,10.4933331 Z M175.425329,9.1653331 C175.466662,6.65733317 177.067996,5.62533319 178.922662,5.62533319 C180.250662,5.62533319 181.050662,5.85733319 181.745329,6.15199985 L182.059995,4.82399988 C181.409329,4.52933322 180.291995,4.1719999 178.669329,4.1719999 C175.529329,4.1719999 173.654662,6.25733318 173.654662,9.33466643 C173.654662,12.409333 175.466662,14.833333 178.438662,14.833333 C181.766662,14.833333 182.651995,11.905333 182.651995,10.0293331 C182.651995,9.64933309 182.610662,9.35599977 182.589329,9.1653331 L175.425329,9.1653331" id="path46" fill="#079250"></path>
                    <path d="M184.947995,4.40266656 L184.947995,14.601333 L186.802662,14.601333 L186.802662,4.40266656 L184.947995,4.40266656 Z M187.013329,17.4666662 C187.034662,16.8346662 186.570662,16.3293329 185.833329,16.3293329 C185.179995,16.3293329 184.717329,16.8346662 184.717329,17.4666662 C184.717329,18.1199995 185.201329,18.6253329 185.875995,18.6253329 C186.570662,18.6253329 187.013329,18.1199995 187.013329,17.4666662" id="path48" fill="#079250"></path>
                    <path d="M189.625329,6.29999984 C190.174662,5.94133318 191.143995,5.56266653 192.070662,5.56266653 C193.419995,5.56266653 194.050662,6.23599984 194.050662,7.07866649 C194.050662,7.9639998 193.523995,8.44933312 192.154662,8.95333311 C190.321329,9.60799976 189.458662,10.6173331 189.458662,11.841333 C189.458662,13.485333 190.783995,14.833333 192.977329,14.833333 C194.007995,14.833333 194.914662,14.5386663 195.485328,14.201333 L195.021328,12.8519997 C194.619995,13.105333 193.883995,13.4426663 192.935995,13.4426663 C191.838662,13.4426663 191.226662,12.8106663 191.226662,12.0519997 C191.226662,11.2093331 191.838662,10.8293331 193.166662,10.3239997 C194.935995,9.64933309 195.841328,8.76399978 195.841328,7.24799982 C195.841328,5.45599986 194.450662,4.1719999 192.029329,4.1719999 C190.911995,4.1719999 189.878662,4.46666656 189.162662,4.88799988 L189.625329,6.29999984" id="path50" fill="#079250"></path>
                    <path d="M200.455995,17.0453329 L200.455995,14.601333 L203.110662,14.601333 L203.110662,13.189333 L200.455995,13.189333 L200.455995,7.69066647 C200.455995,6.42533317 200.813328,5.70933319 201.846662,5.70933319 C202.351995,5.70933319 202.646662,5.75066652 202.919995,5.83599985 L203.002662,4.44533322 C202.646662,4.29733323 202.078662,4.1719999 201.359995,4.1719999 C200.498662,4.1719999 199.802662,4.46666656 199.359995,4.97199988 C198.833328,5.51866653 198.643995,6.42533317 198.643995,7.62666648 L198.643995,13.189333 L197.062662,13.189333 L197.062662,14.601333 L198.643995,14.601333 L198.643995,16.4759996 L200.455995,17.0453329" id="path52" fill="#079250"></path>
                    <path d="M213.729328,7.18399982 C213.729328,6.13066651 213.750661,5.20399987 213.813328,4.40266656 L212.169328,4.40266656 L212.062661,6.06799985 L212.021328,6.06799985 C211.537328,5.2453332 210.463995,4.1719999 208.651995,4.1719999 C207.050661,4.1719999 205.133328,5.05599987 205.133328,8.63866645 L205.133328,14.601333 L206.987995,14.601333 L206.987995,8.95333311 C206.987995,7.01733316 207.575995,5.70933319 209.261328,5.70933319 C210.505328,5.70933319 211.367995,6.57333317 211.706661,7.39599982 C211.810661,7.66933314 211.875995,8.00533313 211.875995,8.34399979 L211.875995,14.601333 L213.729328,14.601333 L213.729328,7.18399982" id="path54" fill="#079250"></path>
                    <path d="M216.805328,11.841333 C216.805328,12.8946663 216.783995,13.7586663 216.722661,14.601333 L218.365328,14.601333 L218.471995,12.9146663 L218.513328,12.9146663 C219.018661,13.885333 220.198661,14.833333 221.883994,14.833333 C223.294661,14.833333 225.487994,13.9906663 225.487994,10.4933331 L225.487994,4.40266656 L223.633328,4.40266656 L223.633328,10.2826664 C223.633328,11.925333 223.021328,13.2946663 221.274661,13.2946663 C220.050661,13.2946663 219.102661,12.4306664 218.786661,11.3999997 C218.703995,11.1679997 218.659995,10.8506664 218.659995,10.5346664 L218.659995,4.40266656 L216.805328,4.40266656 L216.805328,11.841333" id="path56" fill="#079250"></path>
                    <path d="M235.367994,10.5759997 C235.367994,10.8933331 235.346661,11.1679997 235.263994,11.4199997 C234.925327,12.4946664 234.018661,13.3786663 232.669328,13.3786663 C230.901328,13.3786663 229.635994,11.8839997 229.635994,9.52266643 C229.635994,7.52266648 230.649328,5.85733319 232.649328,5.85733319 C233.786661,5.85733319 234.821327,6.57333317 235.219994,7.75333314 C235.326661,8.0679998 235.367994,8.42799979 235.367994,8.74266645 L235.367994,10.5759997 Z M237.201327,5.87866652 C237.201327,3.53999991 236.737327,2.10666661 235.747994,1.22266664 C234.755994,0.294666659 233.323994,0 232.039994,0 C230.815994,0 229.469328,0.294666659 228.646661,0.841333312 L229.110661,2.25333328 C229.783994,1.83333329 230.835994,1.4533333 232.102661,1.4533333 C233.998661,1.4533333 235.389327,2.44399994 235.389327,5.01333321 L235.389327,6.15199985 L235.346661,6.15199985 C234.777327,5.20399987 233.682661,4.44533322 232.102661,4.44533322 C229.573328,4.44533322 227.761328,6.5946665 227.761328,9.4173331 C227.761328,12.873333 230.015994,14.833333 232.354661,14.833333 C234.125327,14.833333 235.094661,13.905333 235.537327,13.0626663 L235.578661,13.0626663 L235.662661,14.601333 L237.283994,14.601333 C237.242661,13.8626663 237.201327,13.0426663 237.201327,11.7986664 L237.201327,5.87866652" id="path58" fill="#079250"></path>
                    <path d="M240.023994,6.29999984 C240.573327,5.94133318 241.542661,5.56266653 242.469327,5.56266653 C243.818661,5.56266653 244.447994,6.23599984 244.447994,7.07866649 C244.447994,7.9639998 243.922661,8.44933312 242.553327,8.95333311 C240.719994,9.60799976 239.857327,10.6173331 239.857327,11.841333 C239.857327,13.485333 241.182661,14.833333 243.375994,14.833333 C244.406661,14.833333 245.313327,14.5386663 245.883994,14.201333 L245.419994,12.8519997 C245.018661,13.105333 244.281327,13.4426663 243.333327,13.4426663 C242.237327,13.4426663 241.625327,12.8106663 241.625327,12.0519997 C241.625327,11.2093331 242.237327,10.8293331 243.565327,10.3239997 C245.333327,9.64933309 246.239994,8.76399978 246.239994,7.24799982 C246.239994,5.45599986 244.849327,4.1719999 242.427994,4.1719999 C241.310661,4.1719999 240.277327,4.46666656 239.559994,4.88799988 L240.023994,6.29999984" id="path60" fill="#079250"></path>
                    <path d="M248.367994,6.29999984 C248.91466,5.94133318 249.883994,5.56266653 250.81066,5.56266653 C252.159994,5.56266653 252.791994,6.23599984 252.791994,7.07866649 C252.791994,7.9639998 252.26666,8.44933312 250.895994,8.95333311 C249.06266,9.60799976 248.19866,10.6173331 248.19866,11.841333 C248.19866,13.485333 249.52666,14.833333 251.717327,14.833333 C252.75066,14.833333 253.657327,14.5386663 254.223994,14.201333 L253.761327,12.8519997 C253.359994,13.105333 252.62266,13.4426663 251.67466,13.4426663 C250.57866,13.4426663 249.969327,12.8106663 249.969327,12.0519997 C249.969327,11.2093331 250.57866,10.8293331 251.90666,10.3239997 C253.677327,9.64933309 254.583994,8.76399978 254.583994,7.24799982 C254.583994,5.45599986 253.193327,4.1719999 250.769327,4.1719999 C249.651994,4.1719999 248.619994,4.46666656 247.903994,4.88799988 L248.367994,6.29999984" id="path62" fill="#079250"></path>
                    <path d="M258.797327,8.55466645 C258.797327,8.27866646 258.83866,8.02666647 258.881327,7.79466647 C259.219994,6.5106665 260.333327,5.62533319 261.66266,5.62533319 C263.62266,5.62533319 264.75866,7.22799982 264.75866,9.56666643 C264.75866,11.609333 263.685327,13.357333 261.723993,13.357333 C260.461327,13.357333 259.281327,12.4506664 258.92266,11.0613331 C258.859994,10.8293331 258.797327,10.5559997 258.797327,10.3026664 L258.797327,8.55466645 Z M256.963994,11.2719997 C256.963994,12.5786664 256.92266,13.6306663 256.881327,14.601333 L258.545327,14.601333 L258.627994,12.8519997 L258.669327,12.8519997 C259.43066,14.0946663 260.63066,14.833333 262.29466,14.833333 C264.75866,14.833333 266.611993,12.7466663 266.611993,9.64933309 C266.611993,5.98266652 264.381327,4.1719999 261.977327,4.1719999 C260.63066,4.1719999 259.45066,4.76133321 258.83866,5.77333319 L258.797327,5.77333319 L258.797327,0.231999994 L256.963994,0.231999994 L256.963994,11.2719997" id="path64" fill="#079250"></path>
                    <path d="M270.089327,9.4813331 C270.089327,7.24799982 271.375993,5.56266653 273.187993,5.56266653 C274.955993,5.56266653 276.283993,7.22799982 276.283993,9.52266643 C276.283993,11.2506664 275.419993,13.4426663 273.229327,13.4426663 C271.037327,13.4426663 270.089327,11.4199997 270.089327,9.4813331 L270.089327,9.4813331 Z M278.179993,9.58666643 C278.179993,5.81466652 275.567993,4.1719999 273.10266,4.1719999 C270.341327,4.1719999 268.21466,6.19333318 268.21466,9.4173331 C268.21466,12.8319997 270.447993,14.833333 273.271993,14.833333 C276.201326,14.833333 278.179993,12.7039997 278.179993,9.58666643" id="path66" fill="#079250"></path>
                    <path d="M280.51866,11.4199997 C280.51866,12.6199997 280.49866,13.653333 280.435993,14.601333 L282.057326,14.601333 L282.119993,12.5999997 L282.20666,12.5999997 C282.669326,13.969333 283.783993,14.833333 285.029326,14.833333 C285.239993,14.833333 285.38666,14.8119996 285.555993,14.769333 L285.555993,13.0226663 C285.365326,13.0626663 285.17466,13.0839997 284.92266,13.0839997 C283.617326,13.0839997 282.69066,12.0946664 282.43866,10.7039997 C282.393326,10.4506664 282.351993,10.1546664 282.351993,9.83866642 L282.351993,4.40266656 L280.51866,4.40266656 L280.51866,11.4199997" id="path68" fill="#079250"></path>
                    <path d="M290.149326,17.0453329 L290.149326,14.601333 L292.802659,14.601333 L292.802659,13.189333 L290.149326,13.189333 L290.149326,7.69066647 C290.149326,6.42533317 290.507993,5.70933319 291.539993,5.70933319 C292.045326,5.70933319 292.338659,5.75066652 292.614659,5.83599985 L292.698659,4.44533322 C292.338659,4.29733323 291.771993,4.1719999 291.055993,4.1719999 C290.190659,4.1719999 289.495993,4.46666656 289.053326,4.97199988 C288.526659,5.51866653 288.335993,6.42533317 288.335993,7.62666648 L288.335993,13.189333 L286.755993,13.189333 L286.755993,14.601333 L288.335993,14.601333 L288.335993,16.4759996 L290.149326,17.0453329" id="path70" fill="#079250"></path>
                    <path d="M96.0702643,53.0386653 C96.0702643,47.7346655 95.9193309,44.3559989 95.6223976,42.9053323 C95.3254643,41.4533323 94.6510643,40.3853323 93.6015977,39.6986657 C92.597331,39.0413324 90.8213311,38.7026657 88.2863978,38.6746657 C88.2395978,38.6746657 88.2005311,38.6786657 88.1535978,38.6786657 C82.8759979,38.6786657 81.2630646,40.2813323 80.2917313,41.511999 C78.7197314,43.5026656 74.0139981,56.4013319 74.0139981,56.4013319 L64.5155984,84.8786645 C74.7359981,91.4746644 85.4557312,94.781331 96.0702643,96.0119976 L96.0702643,53.0386653 Z M50.2421321,84.5679979 C48.2786655,83.3026646 46.4911988,81.9506646 44.8421322,80.539998 L51.943732,100.693331 L55.8333319,87.9559978 C54.0182653,86.9186645 52.1630654,85.8026645 50.2421321,84.5679979 Z M131.494797,100.085331 C131.494797,100.085331 114.580664,101.010664 96.2030643,99.9239975 C84.8463979,99.2519975 74.1067981,97.0026658 62.3463984,91.385331 L54.7187986,114.254664 L52.971332,114.258664 L52.9739987,114.235997 L52.971332,114.23733 L40.3489323,76.1613314 C27.3453326,61.7586651 26.406266,43.6946656 23.5234661,41.0893323 C22.1135994,39.8146657 20.6682661,40.199999 19.9374662,41.3986656 C19.6639995,41.935999 19.4635995,42.5466656 19.3567995,43.2559989 C19.1250662,44.8026655 19.0103995,48.0759988 19.0103995,53.0759987 L19.0103995,84.2479979 C19.0103995,89.5293311 19.1718662,92.873331 19.4973328,94.2786643 C19.8202662,95.6853309 20.4635995,96.6466643 21.4218661,97.1626642 C22.3802661,97.6786642 24.4062661,97.9359976 27.4973326,97.9359976 L28.8437326,97.9359976 L28.8437326,100.102664 L0.0104166664,100.102664 L0.0104166664,97.9359976 L1.3541733,97.9359976 C4.53906655,97.9359976 6.61197317,97.6546642 7.57030648,97.0919976 C8.52863979,96.5293309 9.14583977,95.5133309 9.42447976,94.045331 C9.70311976,92.5759977 9.84374642,89.3106644 9.84374642,84.2479979 L9.84374642,53.0759987 C9.84374642,47.7639988 9.70311976,44.3813322 9.42447976,42.9279989 C9.14583977,41.4746656 8.48958645,40.4053323 7.45311981,39.7173323 C6.41666651,39.0293324 4.55469322,38.6853324 1.86458662,38.6853324 L0.0104166664,38.6853324 L0.0104166664,36.5186658 L8.62759978,36.5186658 L8.62655978,36.5173324 L39.875999,36.5173324 L39.875999,38.6786657 C39.0546657,38.8413324 38.8254657,38.9453324 38.2005324,39.3626657 C37.8994657,39.5626657 37.6562657,39.7906657 37.4297324,40.0626657 C31.1494659,47.6159988 42.2759989,68.9759983 58.0354652,80.743998 L67.7917316,48.7893321 C67.7917316,48.7893321 69.2619983,44.5719989 69.3958649,42.3853323 C69.4635983,41.2706656 69.0130649,39.8626657 67.430665,39.2346657 C66.1363983,38.719999 61.5702651,38.671999 61.5702651,38.671999 L61.5702651,36.5119991 L84.6535979,36.5119991 L84.6535979,36.5026658 L116.403597,36.5026658 L116.403597,38.6693324 L113.307331,38.6693324 C110.460931,38.6693324 108.520797,39.0426657 107.489597,39.791999 C106.455731,40.5413323 105.822931,41.695999 105.588531,43.2559989 C105.354131,44.8159989 105.236931,48.0773321 105.236931,53.0386653 L105.236931,96.7159976 C107.941731,96.8453309 110.860397,96.9399976 114.091197,97.0226642 C114.275064,97.0279976 114.44893,97.0386642 114.630264,97.0453309 L115.463597,97.0453309 C118.93493,97.0453309 121.390664,96.8333309 122.82813,96.4093309 C124.268264,95.9866643 125.611997,95.6319976 126.86453,93.7679977 C128.11453,91.901331 129.09893,88.8693311 129.820263,84.6693312 L131.551063,84.6466646 L131.494797,100.085331" id="path72" fill="#079250"></path>
                    <polyline id="path74" fill="#656263" points="124.132797 68.9239983 124.132797 57.2413319 122.625064 57.2413319 122.625064 68.9239983 124.132797 68.9239983"></polyline>
                    <path d="M126.887997,63.3599984 C126.887997,64.2266651 126.870797,64.9373317 126.81933,65.630665 L128.171863,65.630665 L128.257863,64.2439984 L128.29173,64.2439984 C128.708397,65.0413317 129.67973,65.822665 131.065063,65.822665 C132.22653,65.822665 134.02933,65.1279984 134.02933,62.2506651 L134.02933,57.2413319 L132.505197,57.2413319 L132.505197,62.0773318 C132.505197,63.4293317 132.002663,64.5559984 130.56253,64.5559984 C129.55733,64.5559984 128.778663,63.8453317 128.518263,62.9959984 C128.447863,62.8053318 128.413997,62.5453318 128.413997,62.2866651 L128.413997,57.2413319 L126.887997,57.2413319 L126.887997,63.3599984" id="path76" fill="#656263"></path>
                    <path d="M136.299997,58.8013319 C136.750663,58.5079985 137.547997,58.1946652 138.30933,58.1946652 C139.418663,58.1946652 139.939997,58.7493319 139.939997,59.4426652 C139.939997,60.1706652 139.506663,60.5693318 138.379997,60.9866651 C136.871997,61.5226651 136.16133,62.3559984 136.16133,63.3599984 C136.16133,64.7119984 137.251997,65.822665 139.055997,65.822665 C139.906663,65.822665 140.650663,65.578665 141.119996,65.3013317 L140.73733,64.1919984 C140.40933,64.4013317 139.802663,64.678665 139.02133,64.678665 C138.119997,64.678665 137.61733,64.1573317 137.61733,63.5346651 C137.61733,62.8413318 138.119997,62.5279984 139.211997,62.1119984 C140.667996,61.5573318 141.414663,60.8293318 141.414663,59.5813318 C141.414663,58.1079985 140.26933,57.0506652 138.275997,57.0506652 C137.35733,57.0506652 136.507997,57.2933319 135.918663,57.6399986 L136.299997,58.8013319" id="path78" fill="#656263"></path>
                    <path d="M145.20933,67.6413316 L145.20933,65.630665 L147.39333,65.630665 L147.39333,64.4693317 L145.20933,64.4693317 L145.20933,59.9453318 C145.20933,58.9053319 145.503996,58.3173319 146.354663,58.3173319 C146.76933,58.3173319 147.01333,58.3506652 147.23733,58.4199985 L147.306663,57.2759986 C147.01333,57.1559986 146.543996,57.0506652 145.955996,57.0506652 C145.24533,57.0506652 144.671996,57.2933319 144.306663,57.7106652 C143.874663,58.1599985 143.718663,58.9053319 143.718663,59.8933318 L143.718663,64.4693317 L142.418663,64.4693317 L142.418663,65.630665 L143.718663,65.630665 L143.718663,67.174665 L145.20933,67.6413316" id="path80" fill="#656263"></path>
                    <path d="M149.10933,57.2413319 L149.10933,65.630665 L150.635996,65.630665 L150.635996,57.2413319 L149.10933,57.2413319 Z M150.807996,67.9893316 C150.82533,67.4679983 150.44533,67.0519983 149.838663,67.0519983 C149.299996,67.0519983 148.918663,67.4679983 148.918663,67.9893316 C148.918663,68.5253316 149.31733,68.9413316 149.871996,68.9413316 C150.44533,68.9413316 150.807996,68.5253316 150.807996,67.9893316" id="path82" fill="#656263"></path>
                    <path d="M155.002663,67.6413316 L155.002663,65.630665 L157.187996,65.630665 L157.187996,64.4693317 L155.002663,64.4693317 L155.002663,59.9453318 C155.002663,58.9053319 155.297329,58.3173319 156.146663,58.3173319 C156.562663,58.3173319 156.805329,58.3506652 157.030663,58.4199985 L157.099996,57.2759986 C156.805329,57.1559986 156.338663,57.0506652 155.749329,57.0506652 C155.037329,57.0506652 154.466663,57.2933319 154.101329,57.7106652 C153.669329,58.1599985 153.513329,58.9053319 153.513329,59.8933318 L153.513329,64.4693317 L152.211996,64.4693317 L152.211996,65.630665 L153.513329,65.630665 L153.513329,67.174665 L155.002663,67.6413316" id="path84" fill="#656263"></path>
                    <path d="M165.921329,59.5293318 C165.921329,58.6626652 165.939996,57.9013319 165.991996,57.2413319 L164.639996,57.2413319 L164.553329,58.6106652 L164.518663,58.6106652 C164.119996,57.9346652 163.237329,57.0506652 161.745329,57.0506652 C160.426663,57.0506652 158.851996,57.7786652 158.851996,60.7253318 L158.851996,65.630665 L160.375996,65.630665 L160.375996,60.9866651 C160.375996,59.3906652 160.861329,58.3173319 162.247996,58.3173319 C163.270663,58.3173319 163.981329,59.0266652 164.257329,59.7026652 C164.345329,59.9293318 164.397329,60.2053318 164.397329,60.4839985 L164.397329,65.630665 L165.921329,65.630665 L165.921329,59.5293318" id="path86" fill="#656263"></path>
                    <path d="M170.291996,67.6413316 L170.291996,65.630665 L172.473329,65.630665 L172.473329,64.4693317 L170.291996,64.4693317 L170.291996,59.9453318 C170.291996,58.9053319 170.585329,58.3173319 171.434662,58.3173319 C171.851996,58.3173319 172.093329,58.3506652 172.318662,58.4199985 L172.387996,57.2759986 C172.093329,57.1559986 171.625329,57.0506652 171.035996,57.0506652 C170.325329,57.0506652 169.751996,57.2933319 169.389329,57.7106652 C168.955996,58.1599985 168.799996,58.9053319 168.799996,59.8933318 L168.799996,64.4693317 L167.499996,64.4693317 L167.499996,65.630665 L168.799996,65.630665 L168.799996,67.174665 L170.291996,67.6413316" id="path88" fill="#656263"></path>
                    <path d="M178.021329,57.2413319 L178.021329,64.4693317 L176.841329,64.4693317 L176.841329,65.630665 L178.021329,65.630665 L178.021329,66.0293317 C178.021329,67.2079983 178.281329,68.2839983 178.993329,68.9586649 C179.562662,69.5133316 180.326662,69.7386649 181.037329,69.7386649 C181.573329,69.7386649 182.042662,69.6173316 182.335995,69.4959983 L182.127995,68.3173316 C181.903995,68.422665 181.591995,68.5079983 181.159995,68.5079983 C179.857329,68.5079983 179.529329,67.3639983 179.529329,66.0813317 L179.529329,65.630665 L181.557329,65.630665 L181.557329,64.4693317 L179.529329,64.4693317 L179.529329,57.2413319 L178.021329,57.2413319" id="path90" fill="#656263"></path>
                    <path d="M188.073329,67.122665 C187.570662,67.122665 187.223995,67.538665 187.223995,68.0053316 C187.223995,68.490665 187.607995,68.8893316 188.091995,68.8893316 C188.575995,68.8893316 188.941329,68.5079983 188.941329,68.0053316 C188.941329,67.538665 188.594662,67.122665 188.091995,67.122665 L188.073329,67.122665 Z M184.867995,67.122665 C184.365329,67.122665 183.999995,67.538665 183.999995,68.0053316 C183.999995,68.490665 184.398662,68.8893316 184.886662,68.8893316 C185.370662,68.8893316 185.734662,68.5079983 185.734662,68.0053316 C185.734662,67.538665 185.389329,67.122665 184.886662,67.122665 L184.867995,67.122665 Z M189.945329,59.5293318 C189.945329,58.6626652 189.963995,57.9013319 190.015995,57.2413319 L188.665329,57.2413319 L188.575995,58.6106652 L188.542662,58.6106652 C188.143995,57.9346652 187.261329,57.0506652 185.769329,57.0506652 C184.450662,57.0506652 182.875995,57.7786652 182.875995,60.7253318 L182.875995,65.630665 L184.398662,65.630665 L184.398662,60.9866651 C184.398662,59.3906652 184.886662,58.3173319 186.271995,58.3173319 C187.294662,58.3173319 188.005329,59.0266652 188.281329,59.7026652 C188.367995,59.9293318 188.419995,60.2053318 188.419995,60.4839985 L188.419995,65.630665 L189.945329,65.630665 L189.945329,59.5293318" id="path92" fill="#656263"></path>
                    <path d="M192.477329,63.0133318 C192.477329,64.0013317 192.458662,64.850665 192.406662,65.630665 L193.742662,65.630665 L193.794662,63.9839984 L193.862662,63.9839984 C194.245328,65.110665 195.165328,65.822665 196.185328,65.822665 C196.359995,65.822665 196.482662,65.8039984 196.619995,65.7693317 L196.619995,64.3306651 C196.463995,64.3666651 196.307995,64.3826651 196.099995,64.3826651 C195.023995,64.3826651 194.263995,63.5679984 194.055995,62.4239984 C194.018662,62.2159984 193.985328,61.9733318 193.985328,61.7133318 L193.985328,57.2413319 L192.477329,57.2413319 L192.477329,63.0133318" id="path94" fill="#656263"></path>
                    <path d="M207.591995,62.0959984 L206.447995,65.4573317 C206.187995,66.2199983 206.013328,66.9133317 205.841328,67.590665 L205.805328,67.590665 C205.633328,66.8959983 205.443995,66.1853317 205.217328,65.474665 L204.073328,62.0959984 L207.591995,62.0959984 Z M203.761328,60.9159985 L202.547995,57.2413319 L200.987995,57.2413319 L204.955995,68.9239983 L206.777328,68.9239983 L210.763995,57.2413319 L209.151995,57.2413319 L207.903995,60.9159985 L203.761328,60.9159985" id="path96" fill="#656263"></path>
                    <path d="M212.375995,63.3599984 C212.375995,64.2266651 212.357328,64.9373317 212.305328,65.630665 L213.659995,65.630665 L213.745328,64.2439984 L213.778661,64.2439984 C214.195995,65.0413317 215.166661,65.822665 216.553328,65.822665 C217.714661,65.822665 219.515995,65.1279984 219.515995,62.2506651 L219.515995,57.2413319 L217.993328,57.2413319 L217.993328,62.0773318 C217.993328,63.4293317 217.490661,64.5559984 216.050661,64.5559984 C215.045328,64.5559984 214.266661,63.8453317 214.005328,62.9959984 C213.935995,62.8053318 213.901328,62.5453318 213.901328,62.2866651 L213.901328,57.2413319 L212.375995,57.2413319 L212.375995,63.3599984" id="path98" fill="#656263"></path>
                    <path d="M227.646661,62.3199984 C227.646661,62.5799984 227.627994,62.8053318 227.559994,63.0133318 C227.281328,63.8986651 226.537328,64.6253317 225.427994,64.6253317 C223.971994,64.6253317 222.930661,63.3959984 222.930661,61.4533318 C222.930661,59.8066652 223.763994,58.4373319 225.409328,58.4373319 C226.346661,58.4373319 227.195994,59.0266652 227.523994,59.9973318 C227.611994,60.2573318 227.646661,60.5519985 227.646661,60.8119985 L227.646661,62.3199984 Z M229.154661,58.4559985 C229.154661,56.5306653 228.774661,55.3519986 227.958661,54.6239986 C227.143994,53.861332 225.963994,53.6199987 224.906661,53.6199987 C223.901328,53.6199987 222.791994,53.861332 222.117328,54.3119986 L222.498661,55.4733319 C223.053328,55.1266653 223.919994,54.8146653 224.958661,54.8146653 C226.518661,54.8146653 227.665328,55.6293319 227.665328,57.7439986 L227.665328,58.6799985 L227.627994,58.6799985 C227.159994,57.9013319 226.258661,57.2759986 224.958661,57.2759986 C222.878661,57.2759986 221.389328,59.0439985 221.389328,61.3679985 C221.389328,64.2106651 223.242661,65.822665 225.166661,65.822665 C226.622661,65.822665 227.419994,65.058665 227.783994,64.3666651 L227.818661,64.3666651 L227.889328,65.630665 L229.223994,65.630665 C229.187994,65.0239984 229.154661,64.3479984 229.154661,63.3253318 L229.154661,58.4559985" id="path100" fill="#656263"></path>
                    <path d="M237.005327,62.2506651 C237.023994,63.2213318 236.607994,64.7293317 234.890661,64.7293317 C233.349327,64.7293317 232.671994,63.3079984 232.553328,62.2506651 L237.005327,62.2506651 Z M232.534661,61.1586651 C232.567994,59.0959985 233.886661,58.2466652 235.411994,58.2466652 C236.502661,58.2466652 237.162661,58.4373319 237.734661,58.6799985 L237.995994,57.5893319 C237.455994,57.3453319 236.537327,57.0506652 235.203994,57.0506652 C232.619994,57.0506652 231.078661,58.7679985 231.078661,61.2973318 C231.078661,63.8279984 232.567994,65.822665 235.013327,65.822665 C237.750661,65.822665 238.479994,63.4119984 238.479994,61.8693318 C238.479994,61.5573318 238.445327,61.3146651 238.427994,61.1586651 L232.534661,61.1586651" id="path102" fill="#656263"></path>
                    <path d="M240.974661,65.630665 L242.083994,61.3679985 C242.326661,60.4319985 242.553327,59.5653318 242.709327,58.6973319 L242.761327,58.6973319 C242.950661,59.5466652 243.226661,60.4479985 243.505327,61.3679985 L244.875994,65.630665 L246.157327,65.630665 L247.45866,61.4359985 C247.769327,60.4319985 248.013327,59.5466652 248.203994,58.6973319 L248.255994,58.6973319 C248.393327,59.5466652 248.619994,60.4319985 248.895994,61.4186651 L250.091994,65.630665 L251.599994,65.630665 L248.895994,57.2413319 L247.51066,57.2413319 L246.226661,61.2453318 C245.933327,62.1813318 245.690661,63.0133318 245.482661,64.0013317 L245.445327,64.0013317 C245.239994,62.9959984 244.979994,62.1293318 244.685327,61.2293318 L243.331994,57.2413319 L241.945327,57.2413319 L239.414661,65.630665 L240.974661,65.630665" id="path104" fill="#656263"></path>
                    <path d="M257.477327,61.5226651 C255.813327,61.5573318 253.92266,61.2626651 253.92266,59.6333318 C253.92266,58.6453319 254.581327,58.1786652 255.36266,58.1786652 C256.453327,58.1786652 257.14666,58.8719985 257.39066,59.5813318 C257.441327,59.7386652 257.477327,59.9106652 257.477327,60.0679985 L257.477327,61.5226651 Z M258.95066,59.2519985 C258.95066,58.5239985 258.985327,57.8146652 259.089327,57.2413319 L257.701327,57.2413319 L257.581327,58.2986652 L257.529327,58.2986652 C257.059994,57.6399986 256.159994,57.0506652 254.963994,57.0506652 C253.263994,57.0506652 252.39866,58.2466652 252.39866,59.4599985 C252.39866,61.4893318 254.201327,62.5986651 257.441327,62.5799984 L257.441327,62.7533318 C257.441327,63.4466651 257.25066,64.694665 255.53466,64.694665 C254.755994,64.694665 253.941327,64.4533317 253.351994,64.0719984 L253.005327,65.0759984 C253.69866,65.526665 254.703994,65.822665 255.761327,65.822665 C258.32666,65.822665 258.95066,64.0719984 258.95066,62.3893318 L258.95066,59.2519985" id="path106" fill="#656263"></path>
                    <path d="M261.411993,63.3599984 C261.411993,64.2266651 261.393327,64.9373317 261.341327,65.630665 L262.693327,65.630665 L262.77866,64.2439984 L262.815993,64.2439984 C263.229327,65.0413317 264.201327,65.822665 265.589327,65.822665 C266.75066,65.822665 268.553327,65.1279984 268.553327,62.2506651 L268.553327,57.2413319 L267.02666,57.2413319 L267.02666,62.0773318 C267.02666,63.4293317 266.523993,64.5559984 265.08666,64.5559984 C264.081327,64.5559984 263.299993,63.8453317 263.039993,62.9959984 C262.971993,62.8053318 262.935993,62.5453318 262.935993,62.2866651 L262.935993,57.2413319 L261.411993,57.2413319 L261.411993,63.3599984" id="path108" fill="#656263"></path>
                    <path d="M276.75066,62.2159984 C276.75066,62.4066651 276.731993,62.6666651 276.679993,62.8573318 C276.455993,63.8279984 275.62266,64.6253317 274.479993,64.6253317 C272.901327,64.6253317 271.96666,63.2386651 271.96666,61.3839985 C271.96666,59.6853318 272.797327,58.2813319 274.445326,58.2813319 C275.46666,58.2813319 276.403993,58.9573319 276.679993,60.1013318 C276.731993,60.3093318 276.75066,60.5173318 276.75066,60.7599985 L276.75066,62.2159984 Z M278.277326,69.5479983 L278.277326,59.4079985 C278.277326,58.6626652 278.291993,57.8146652 278.343993,57.2413319 L276.977326,57.2413319 L276.90666,58.6973319 L276.873326,58.6973319 C276.403993,57.7626652 275.381326,57.0506652 274.01066,57.0506652 C271.985327,57.0506652 270.425327,58.7679985 270.425327,61.3146651 C270.40666,64.1053317 272.13866,65.822665 274.185326,65.822665 C275.46666,65.822665 276.333326,65.214665 276.717326,64.5386651 L276.75066,64.5386651 L276.75066,69.5479983 L278.277326,69.5479983" id="path110" fill="#656263"></path>
                    <path d="M282.643993,67.6413316 L282.643993,65.630665 L284.829326,65.630665 L284.829326,64.4693317 L282.643993,64.4693317 L282.643993,59.9453318 C282.643993,58.9053319 282.93866,58.3173319 283.78666,58.3173319 C284.203993,58.3173319 284.445326,58.3506652 284.671993,58.4199985 L284.739993,57.2759986 C284.445326,57.1559986 283.979993,57.0506652 283.389326,57.0506652 C282.677326,57.0506652 282.107993,57.2933319 281.74266,57.7106652 C281.31066,58.1599985 281.15466,58.9053319 281.15466,59.8933318 L281.15466,64.4693317 L279.851993,64.4693317 L279.851993,65.630665 L281.15466,65.630665 L281.15466,67.174665 L282.643993,67.6413316" id="path112" fill="#656263"></path>
                    <path d="M291.761326,62.2506651 C291.778659,63.2213318 291.362659,64.7293317 289.646659,64.7293317 C288.105326,64.7293317 287.427993,63.3079984 287.307993,62.2506651 L291.761326,62.2506651 Z M287.289326,61.1586651 C287.323993,59.0959985 288.641326,58.2466652 290.166659,58.2466652 C291.258659,58.2466652 291.917326,58.4373319 292.490659,58.6799985 L292.750659,57.5893319 C292.211993,57.3453319 291.291993,57.0506652 289.958659,57.0506652 C287.375993,57.0506652 285.833326,58.7679985 285.833326,61.2973318 C285.833326,63.8279984 287.323993,65.822665 289.769326,65.822665 C292.505326,65.822665 293.234659,63.4119984 293.234659,61.8693318 C293.234659,61.5573318 293.201326,61.3146651 293.182659,61.1586651 L287.289326,61.1586651" id="path114" fill="#656263"></path>
                    <polyline id="path116" fill="#656263" points="124.84373 46.8413322 121.289064 46.8413322 121.289064 48.1239988 129.94013 48.1239988 129.94013 46.8413322 126.368797 46.8413322 126.368797 36.4413324 124.84373 36.4413324 124.84373 46.8413322"></polyline>
                    <path d="M130.407863,42.2133323 C130.407863,43.2013323 130.390663,44.0506656 130.33853,44.8306655 L131.671863,44.8306655 L131.723997,43.1839989 L131.794263,43.1839989 C132.17453,44.3106656 133.09373,45.0226655 134.11733,45.0226655 C134.28933,45.0226655 134.411997,45.0039989 134.54933,44.9693322 L134.54933,43.5306656 C134.39333,43.5653322 134.23733,43.5826656 134.02933,43.5826656 C132.95573,43.5826656 132.192663,42.7679989 131.984397,41.623999 C131.95053,41.415999 131.915063,41.1733323 131.915063,40.9133323 L131.915063,36.4413324 L130.407863,36.4413324 L130.407863,42.2133323" id="path118" fill="#656263"></path>
                    <path d="M140.40933,40.7226656 C138.74533,40.7573323 136.855997,40.4626657 136.855997,38.8333324 C136.855997,37.8453324 137.51333,37.3773324 138.294663,37.3773324 C139.38533,37.3773324 140.079996,38.071999 140.322663,38.7813324 C140.37333,38.9373324 140.40933,39.1106657 140.40933,39.267999 L140.40933,40.7226656 Z M141.882663,38.451999 C141.882663,37.7239991 141.91733,37.0133324 142.02133,36.4413324 L140.634663,36.4413324 L140.51333,37.4986657 L140.46133,37.4986657 C139.991997,36.8399991 139.090663,36.2506658 137.895997,36.2506658 C136.195997,36.2506658 135.330663,37.4466657 135.330663,38.659999 C135.330663,40.6893323 137.13333,41.7973323 140.37333,41.779999 L140.37333,41.9533323 C140.37333,42.6466656 140.183996,43.8946656 138.467997,43.8946656 C137.687997,43.8946656 136.871997,43.6533322 136.283997,43.2706656 L135.93733,44.2759989 C136.630663,44.7266655 137.635997,45.0226655 138.69333,45.0226655 C141.25733,45.0226655 141.882663,43.2706656 141.882663,41.5893323 L141.882663,38.451999" id="path120" fill="#656263"></path>
                    <path d="M144.343996,36.4413324 L144.343996,44.8306655 L145.867996,44.8306655 L145.867996,36.4413324 L144.343996,36.4413324 Z M146.04133,47.1893322 C146.059996,46.6679988 145.678663,46.2519988 145.071996,46.2519988 C144.53333,46.2519988 144.15333,46.6679988 144.15333,47.1893322 C144.15333,47.7253321 144.551996,48.1413321 145.106663,48.1413321 C145.678663,48.1413321 146.04133,47.7253321 146.04133,47.1893322" id="path122" fill="#656263"></path>
                    <path d="M148.399996,42.5599989 C148.399996,43.4266656 148.382663,44.1373322 148.330663,44.8306655 L149.682663,44.8306655 L149.767996,43.4439989 L149.803996,43.4439989 C150.218663,44.2413322 151.190663,45.0226655 152.57733,45.0226655 C153.738663,45.0226655 155.541329,44.3279989 155.541329,41.4506656 L155.541329,36.4413324 L154.015996,36.4413324 L154.015996,41.2773323 C154.015996,42.6293323 153.513329,43.7559989 152.074663,43.7559989 C151.06933,43.7559989 150.28933,43.0453323 150.027996,42.1959989 C149.959996,42.0053323 149.923996,41.7453323 149.923996,41.4866656 L149.923996,36.4413324 L148.399996,36.4413324 L148.399996,42.5599989" id="path124" fill="#656263"></path>
                    <path d="M158.019996,36.4413324 L158.019996,44.8306655 L159.543996,44.8306655 L159.543996,36.4413324 L158.019996,36.4413324 Z M159.718663,47.1893322 C159.734663,46.6679988 159.354663,46.2519988 158.747996,46.2519988 C158.209329,46.2519988 157.827996,46.6679988 157.827996,47.1893322 C157.827996,47.7253321 158.226663,48.1413321 158.781329,48.1413321 C159.354663,48.1413321 159.718663,47.7253321 159.718663,47.1893322" id="path126" fill="#656263"></path>
                    <path d="M162.075996,42.5599989 C162.075996,43.4266656 162.057329,44.1373322 162.005329,44.8306655 L163.357329,44.8306655 L163.443996,43.4439989 L163.478663,43.4439989 C163.894663,44.2413322 164.863996,45.0226655 166.251996,45.0226655 C167.414662,45.0226655 169.215996,44.3279989 169.215996,41.4506656 L169.215996,36.4413324 L167.690662,36.4413324 L167.690662,41.2773323 C167.690662,42.6293323 167.187996,43.7559989 165.750663,43.7559989 C164.745329,43.7559989 163.963996,43.0453323 163.702663,42.1959989 C163.635996,42.0053323 163.598663,41.7453323 163.598663,41.4866656 L163.598663,36.4413324 L162.075996,36.4413324 L162.075996,42.5599989" id="path128" fill="#656263"></path>
                    <path d="M177.346662,41.519999 C177.346662,41.779999 177.329329,42.0053323 177.258662,42.2133323 C176.982662,43.0986656 176.237329,43.8253322 175.127996,43.8253322 C173.671996,43.8253322 172.630662,42.5959989 172.630662,40.6533323 C172.630662,39.0066657 173.463996,37.6373324 175.110662,37.6373324 C176.045329,37.6373324 176.895996,38.2266657 177.223996,39.1973324 C177.310662,39.4573323 177.346662,39.751999 177.346662,40.011999 L177.346662,41.519999 Z M178.854662,37.6559991 C178.854662,35.7306658 178.471996,34.5519991 177.657329,33.8239992 C176.843996,33.0613325 175.665329,32.8199992 174.607996,32.8199992 C173.602662,32.8199992 172.491996,33.0613325 171.815996,33.5119992 L172.197329,34.6733325 C172.751996,34.3266658 173.619996,34.0146658 174.659996,34.0146658 C176.219996,34.0146658 177.362662,34.8293325 177.362662,36.9439991 L177.362662,37.8799991 L177.329329,37.8799991 C176.859996,37.1013324 175.958662,36.4759991 174.659996,36.4759991 C172.578662,36.4759991 171.087996,38.243999 171.087996,40.567999 C171.087996,43.4093322 172.942662,45.0226655 174.867996,45.0226655 C176.323996,45.0226655 177.119996,44.2586656 177.485329,43.5653322 L177.518662,43.5653322 L177.589329,44.8306655 L178.922662,44.8306655 C178.889329,44.2239989 178.854662,43.5479989 178.854662,42.5253323 L178.854662,37.6559991" id="path130" fill="#656263"></path>
                    <path d="M181.174662,38.0013324 C181.625329,37.7079991 182.425329,37.3946657 183.185329,37.3946657 C184.294662,37.3946657 184.815995,37.9493324 184.815995,38.6426657 C184.815995,39.3706657 184.383995,39.7693323 183.255995,40.1853323 C181.747995,40.7226656 181.037329,41.5546656 181.037329,42.5599989 C181.037329,43.9119989 182.127995,45.0226655 183.933329,45.0226655 C184.781329,45.0226655 185.526662,44.7786655 185.995995,44.5013322 L185.611995,43.3919989 C185.283995,43.6013322 184.677329,43.8773322 183.895995,43.8773322 C182.995995,43.8773322 182.493329,43.3573322 182.493329,42.7346656 C182.493329,42.0413323 182.995995,41.727999 184.089329,41.311999 C185.545329,40.7573323 186.289329,40.0293323 186.289329,38.7813324 C186.289329,37.3079991 185.146662,36.2506658 183.151995,36.2506658 C182.231995,36.2506658 181.383995,36.4933324 180.794662,36.8399991 L181.174662,38.0013324" id="path132" fill="#656263"></path>
                    <path d="M188.854662,44.8306655 L189.963995,40.567999 C190.206662,39.6306657 190.433329,38.7653324 190.589329,37.8973324 L190.641329,37.8973324 C190.831995,38.7466657 191.107995,39.647999 191.386662,40.567999 L192.755995,44.8306655 L194.037328,44.8306655 L195.335995,40.635999 C195.649328,39.6306657 195.890662,38.7466657 196.083995,37.8973324 L196.133328,37.8973324 C196.274662,38.7466657 196.498662,39.6306657 196.777328,40.6186657 L197.971995,44.8306655 L199.479995,44.8306655 L196.777328,36.4413324 L195.389328,36.4413324 L194.107995,40.4453323 C193.813328,41.3813323 193.567995,42.2133323 193.362662,43.2013323 L193.326662,43.2013323 C193.117329,42.1959989 192.859995,41.3293323 192.562662,40.4293323 L191.211995,36.4413324 L189.826662,36.4413324 L187.294662,44.8306655 L188.854662,44.8306655" id="path134" fill="#656263"></path>
                    <path d="M201.005328,36.4413324 L201.005328,44.8306655 L202.529328,44.8306655 L202.529328,36.4413324 L201.005328,36.4413324 Z M202.703995,47.1893322 C202.722662,46.6679988 202.338662,46.2519988 201.731995,46.2519988 C201.195995,46.2519988 200.815995,46.6679988 200.815995,47.1893322 C200.815995,47.7253321 201.214662,48.1413321 201.769328,48.1413321 C202.338662,48.1413321 202.703995,47.7253321 202.703995,47.1893322" id="path136" fill="#656263"></path>
                    <path d="M204.851995,38.0013324 C205.302662,37.7079991 206.102662,37.3946657 206.862661,37.3946657 C207.971995,37.3946657 208.493328,37.9493324 208.493328,38.6426657 C208.493328,39.3706657 208.059995,39.7693323 206.933328,40.1853323 C205.425328,40.7226656 204.714662,41.5546656 204.714662,42.5599989 C204.714662,43.9119989 205.805328,45.0226655 207.610661,45.0226655 C208.458661,45.0226655 209.203995,44.7786655 209.671995,44.5013322 L209.289328,43.3919989 C208.961328,43.6013322 208.354661,43.8773322 207.573328,43.8773322 C206.671995,43.8773322 206.169328,43.3573322 206.169328,42.7346656 C206.169328,42.0413323 206.671995,41.727999 207.766661,41.311999 C209.222661,40.7573323 209.966661,40.0293323 209.966661,38.7813324 C209.966661,37.3079991 208.823995,36.2506658 206.829328,36.2506658 C205.909328,36.2506658 205.059995,36.4933324 204.471995,36.8399991 L204.851995,38.0013324" id="path138" fill="#656263"></path>
                    <path d="M211.717328,38.0013324 C212.166661,37.7079991 212.963995,37.3946657 213.726661,37.3946657 C214.835995,37.3946657 215.357328,37.9493324 215.357328,38.6426657 C215.357328,39.3706657 214.922661,39.7693323 213.797328,40.1853323 C212.289328,40.7226656 211.578661,41.5546656 211.578661,42.5599989 C211.578661,43.9119989 212.669328,45.0226655 214.471995,45.0226655 C215.323995,45.0226655 216.067995,44.7786655 216.537328,44.5013322 L216.154661,43.3919989 C215.826661,43.6013322 215.219995,43.8773322 214.438661,43.8773322 C213.537328,43.8773322 213.034661,43.3573322 213.034661,42.7346656 C213.034661,42.0413323 213.537328,41.727999 214.627995,41.311999 C216.083995,40.7573323 216.831995,40.0293323 216.831995,38.7813324 C216.831995,37.3079991 215.685328,36.2506658 213.693328,36.2506658 C212.774661,36.2506658 211.925328,36.4933324 211.335995,36.8399991 L211.717328,38.0013324" id="path140" fill="#656263"></path>
                    <path d="M224.110661,41.4506656 C224.127994,42.4213323 223.711994,43.9293322 221.995994,43.9293322 C220.453328,43.9293322 219.777328,42.5079989 219.657328,41.4506656 L224.110661,41.4506656 Z M219.638661,40.3586657 C219.671995,38.295999 220.990661,37.4466657 222.515994,37.4466657 C223.607994,37.4466657 224.266661,37.6373324 224.838661,37.8799991 L225.099994,36.7879991 C224.559994,36.5453324 223.641328,36.2506658 222.307994,36.2506658 C219.723995,36.2506658 218.182661,37.9666657 218.182661,40.4973323 C218.182661,43.0279989 219.671995,45.0226655 222.117328,45.0226655 C224.854661,45.0226655 225.583994,42.6119989 225.583994,41.0693323 C225.583994,40.7573323 225.550661,40.5146657 225.531994,40.3586657 L219.638661,40.3586657" id="path142" fill="#656263"></path>
                    <path d="M227.471994,42.5599989 C227.471994,43.4266656 227.455994,44.1373322 227.403994,44.8306655 L228.755994,44.8306655 L228.841328,43.4439989 L228.875994,43.4439989 C229.291994,44.2413322 230.263994,45.0226655 231.649328,45.0226655 C232.810661,45.0226655 234.614661,44.3279989 234.614661,41.4506656 L234.614661,36.4413324 L233.089328,36.4413324 L233.089328,41.2773323 C233.089328,42.6293323 232.586661,43.7559989 231.146661,43.7559989 C230.141328,43.7559989 229.362661,43.0453323 229.102661,42.1959989 C229.031994,42.0053323 228.998661,41.7453323 228.998661,41.4866656 L228.998661,36.4413324 L227.471994,36.4413324 L227.471994,42.5599989" id="path144" fill="#656263"></path>
                    <path d="M236.886661,38.0013324 C237.335994,37.7079991 238.133327,37.3946657 238.895994,37.3946657 C240.005327,37.3946657 240.523994,37.9493324 240.523994,38.6426657 C240.523994,39.3706657 240.091994,39.7693323 238.963994,40.1853323 C237.455994,40.7226656 236.745327,41.5546656 236.745327,42.5599989 C236.745327,43.9119989 237.838661,45.0226655 239.641327,45.0226655 C240.490661,45.0226655 241.234661,44.7786655 241.703994,44.5013322 L241.323994,43.3919989 C240.993327,43.6013322 240.386661,43.8773322 239.607994,43.8773322 C238.706661,43.8773322 238.201327,43.3573322 238.201327,42.7346656 C238.201327,42.0413323 238.706661,41.727999 239.797327,41.311999 C241.253327,40.7573323 241.998661,40.0293323 241.998661,38.7813324 C241.998661,37.3079991 240.854661,36.2506658 238.859994,36.2506658 C237.943994,36.2506658 237.094661,36.4933324 236.502661,36.8399991 L236.886661,38.0013324" id="path146" fill="#656263"></path>
                    <path d="M249.93866,36.7533324 C249.537327,36.5453324 248.65466,36.2506658 247.52666,36.2506658 C244.998661,36.2506658 243.349327,37.9839991 243.349327,40.5493323 C243.349327,43.1319989 245.117327,45.0039989 247.857327,45.0039989 C248.75866,45.0039989 249.555994,44.7786655 249.971994,44.5719989 L249.625327,43.3919989 C249.261327,43.6013322 248.687994,43.7906656 247.857327,43.7906656 C245.933327,43.7906656 244.893327,42.3693323 244.893327,40.6186657 C244.893327,38.6773324 246.141327,37.4813324 247.805327,37.4813324 C248.671994,37.4813324 249.24266,37.7079991 249.677327,37.8973324 L249.93866,36.7533324" id="path148" fill="#656263"></path>
                    <path d="M251.72266,48.7479988 L253.247994,48.7479988 L253.247994,43.5133322 L253.281327,43.5133322 C253.523994,43.9466656 253.90666,44.3279989 254.373327,44.5879989 C254.823994,44.8479989 255.36266,45.0226655 255.933327,45.0226655 C257.059994,45.0226655 258.86266,44.3279989 258.86266,41.4346656 L258.86266,36.4413324 L257.33866,36.4413324 L257.33866,41.259999 C257.33866,42.6119989 256.835994,43.7559989 255.395994,43.7559989 C254.409327,43.7559989 253.627994,43.0626656 253.351994,42.2306656 C253.263994,42.0226656 253.247994,41.7973323 253.247994,41.5026656 L253.247994,36.4413324 L251.72266,36.4413324 L251.72266,48.7479988" id="path150" fill="#656263"></path>
                    <path d="M265.761327,40.7226656 C264.097327,40.7573323 262.209327,40.4626657 262.209327,38.8333324 C262.209327,37.8453324 262.867993,37.3773324 263.64666,37.3773324 C264.739993,37.3773324 265.433327,38.071999 265.67466,38.7813324 C265.72666,38.9373324 265.761327,39.1106657 265.761327,39.267999 L265.761327,40.7226656 Z M267.23466,38.451999 C267.23466,37.7239991 267.269327,37.0133324 267.373327,36.4413324 L265.987993,36.4413324 L265.865327,37.4986657 L265.813327,37.4986657 C265.34666,36.8399991 264.443993,36.2506658 263.247993,36.2506658 C261.55066,36.2506658 260.68266,37.4466657 260.68266,38.659999 C260.68266,40.6893323 262.485327,41.7973323 265.72666,41.779999 L265.72666,41.9533323 C265.72666,42.6466656 265.537327,43.8946656 263.821327,43.8946656 C263.039993,43.8946656 262.223993,43.6533322 261.635993,43.2706656 L261.289327,44.2759989 C261.98266,44.7266655 262.987993,45.0226655 264.045327,45.0226655 C266.61066,45.0226655 267.23466,43.2706656 267.23466,41.5893323 L267.23466,38.451999" id="path152" fill="#656263"></path>
                    <path d="M269.851993,36.4413324 L269.851993,43.6693322 L268.67466,43.6693322 L268.67466,44.8306655 L269.851993,44.8306655 L269.851993,45.2293322 C269.851993,46.4079988 270.111993,47.4839988 270.823993,48.1586655 C271.395993,48.7133321 272.157327,48.9386654 272.867993,48.9386654 C273.40666,48.9386654 273.873326,48.8173321 274.169326,48.6959988 L273.961326,47.5173321 C273.73466,47.6213321 273.42266,47.7079988 272.99066,47.7079988 C271.69066,47.7079988 271.359993,46.5639988 271.359993,45.2813322 L271.359993,44.8306655 L273.389326,44.8306655 L273.389326,43.6693322 L271.359993,43.6693322 L271.359993,36.4413324 L269.851993,36.4413324" id="path154" fill="#656263"></path>
                    <path d="M276.783993,46.8413322 L276.783993,44.8306655 L278.969326,44.8306655 L278.969326,43.6693322 L276.783993,43.6693322 L276.783993,39.1453324 C276.783993,38.1053324 277.07866,37.5173324 277.93066,37.5173324 C278.343993,37.5173324 278.589326,37.5506657 278.813326,37.6199991 L278.883993,36.4759991 C278.589326,36.3559991 278.119993,36.2506658 277.531993,36.2506658 C276.821326,36.2506658 276.247993,36.4933324 275.883993,36.9093324 C275.45066,37.3599991 275.29466,38.1053324 275.29466,39.0933324 L275.29466,43.6693322 L273.995993,43.6693322 L273.995993,44.8306655 L275.29466,44.8306655 L275.29466,46.3746655 L276.783993,46.8413322" id="path156" fill="#656263"></path>
                    <polyline id="path158" fill="#231F20" points="116.66933 25.8319994 0.0052083332 25.8319994 0.0052083332 27.510666 116.66933 27.510666 116.66933 25.8319994"></polyline>
                    <polyline id="path160" fill="#BF2127" points="205.701328 25.8319994 116.382797 25.8319994 116.382797 27.510666 205.701328 27.510666 205.701328 25.8319994"></polyline>
                    <polyline id="path162" fill="#E1B915" points="292.722659 25.8319994 204.537328 25.8319994 204.537328 27.510666 292.722659 27.510666 292.722659 25.8319994"></polyline>
                    <path d="M137.595997,97.9759976 L137.595997,96.2439976 L138.226663,96.2439976 C138.92133,96.2439976 139.38133,96.2786643 139.607997,96.3479976 C139.771997,96.3959976 139.907997,96.4933309 140.014663,96.6413309 C140.119996,96.7893309 140.17333,96.9426642 140.17333,97.1039976 C140.17333,97.3426642 140.083996,97.5479976 139.903997,97.7186642 C139.722663,97.8906642 139.26933,97.9759976 138.539997,97.9759976 L137.595997,97.9759976 Z M136.950663,98.5026642 L138.88533,98.5026642 C139.583997,98.5026642 140.083996,98.3746642 140.38933,98.1199975 C140.69333,97.8639976 140.843996,97.5439976 140.843996,97.1626642 C140.843996,96.7586642 140.686663,96.4199976 140.36933,96.1466643 C140.138663,95.9506643 139.802663,95.8213309 139.359997,95.7559976 C139.559997,95.6599976 139.699997,95.5759976 139.782663,95.5026643 C139.86533,95.4293309 139.99333,95.2719976 140.166663,95.033331 C140.34133,94.7946643 140.47333,94.5959976 140.563996,94.4346643 L141.071996,93.529331 L140.27733,93.529331 L139.795997,94.3506643 C139.426663,94.9879976 139.146663,95.3693309 138.95333,95.4959976 C138.759997,95.6213309 138.443997,95.6839976 138.00533,95.6839976 L137.595997,95.6839976 L137.595997,93.529331 L136.950663,93.529331 L136.950663,98.5026642 Z M142.771996,95.8533309 C142.771996,96.9866642 142.370663,97.9546642 141.570663,98.7573309 C140.76933,99.5599975 139.80133,99.9613308 138.663997,99.9613308 C137.530663,99.9613308 136.563997,99.5599975 135.762663,98.7573309 C134.962663,97.9546642 134.56133,96.9866642 134.56133,95.8533309 C134.56133,94.721331 134.962663,93.753331 135.762663,92.9506643 C136.563997,92.1479977 137.530663,91.745331 138.663997,91.745331 C139.80133,91.745331 140.76933,92.1479977 141.570663,92.9506643 C142.370663,93.753331 142.771996,94.721331 142.771996,95.8533309 Z M143.28533,95.8533309 C143.28533,94.577331 142.834663,93.489331 141.934663,92.585331 C141.034663,91.6826644 139.94533,91.2319977 138.66933,91.2319977 C137.39333,91.2319977 136.30533,91.6826644 135.40133,92.585331 C134.498663,93.489331 134.047997,94.577331 134.047997,95.8533309 C134.047997,97.1293309 134.498663,98.2186642 135.40133,99.1226642 C136.30533,100.025331 137.39333,100.475997 138.66933,100.475997 C139.94533,100.475997 141.034663,100.025331 141.934663,99.1226642 C142.834663,98.2186642 143.28533,97.1293309 143.28533,95.8533309" id="path164" fill="#089554"></path>
                </g>
            </g>
        </g>
    </g>
</svg>