<?xml version="1.0" encoding="UTF-8" standalone="no"?>
<!DOCTYPE svg PUBLIC "-//W3C//DTD SVG 1.0//EN" "http://www.w3.org/TR/2001/REC-SVG-20010904/DTD/svg10.dtd">
<svg width="833px" height="871px" viewBox="0 0 833 871" version="1.1" xmlns="http://www.w3.org/2000/svg" xmlns:xlink="http://www.w3.org/1999/xlink">
    <defs>
        <polygon id="path-w-bds362qh-1" points="0 870.595 832.943 870.595 832.943 0 0 0"></polygon>
    </defs>
    <g id="Institutions" stroke="none" stroke-width="1" fill="none" fill-rule="evenodd">
        <g id="institutions/sportland_nrw_square">
            <polygon id="Fill-1" fill="#FEFEFE" points="0 870.595 832.943 870.595 832.943 0 0 0"></polygon>
            <g id="Group-36">
                <path d="M211.169,357.24 C207.614,355.103 203.939,353.207 200.147,351.552 C196.95,350.13 193.36,348.795 189.392,347.554 C185.424,346.304 181.541,345.684 177.749,345.684 C174.669,345.684 172.208,346.158 170.373,347.106 C168.537,348.053 167.619,349.656 167.619,351.906 C167.619,353.569 168.154,354.93 169.218,355.99 C170.286,357.059 171.825,358.041 173.841,358.929 C175.854,359.817 178.314,360.678 181.218,361.506 C184.118,362.333 187.41,363.341 191.081,364.522 C196.885,366.306 202.129,368.262 206.813,370.391 C211.492,372.528 215.491,375.044 218.813,377.948 C222.126,380.853 224.677,384.377 226.453,388.522 C228.232,392.667 229.12,397.709 229.12,403.629 C229.12,411.213 227.728,417.581 224.944,422.735 C222.157,427.897 218.485,432.016 213.922,435.093 C209.359,438.178 204.206,440.401 198.458,441.754 C192.71,443.116 186.932,443.805 181.128,443.805 C176.508,443.805 171.764,443.443 166.908,442.737 C162.048,442.021 157.222,441.022 152.422,439.712 C147.622,438.41 143.003,436.868 138.556,435.093 C134.114,433.317 129.994,431.301 126.202,429.052 L141.133,398.657 C145.282,401.259 149.604,403.569 154.111,405.585 C157.903,407.361 162.199,408.964 166.999,410.386 C171.795,411.807 176.685,412.514 181.662,412.514 C185.454,412.514 188.086,412.014 189.573,411.006 C191.051,409.998 191.792,408.671 191.792,407.007 C191.792,405.232 191.051,403.715 189.573,402.474 C188.086,401.234 186.044,400.139 183.437,399.191 C180.83,398.243 177.84,397.295 174.462,396.339 C171.084,395.399 167.499,394.27 163.707,392.969 C158.135,391.073 153.34,389.031 149.311,386.833 C145.282,384.644 141.964,382.154 139.357,379.37 C136.751,376.587 134.824,373.415 133.579,369.856 C132.334,366.306 131.713,362.212 131.713,357.593 C131.713,350.604 132.985,344.443 135.535,339.108 C138.082,333.774 141.546,329.331 145.933,325.777 C150.315,322.222 155.326,319.529 160.953,317.689 C166.581,315.853 172.536,314.935 178.818,314.935 C183.437,314.935 187.94,315.379 192.326,316.267 C196.708,317.155 200.948,318.284 205.037,319.645 C209.122,321.007 212.944,322.489 216.499,324.088 C220.054,325.686 223.255,327.199 226.099,328.62 L211.169,357.24 Z" id="Fill-2" fill="#002744"></path>
                <path d="M277.2929,373.2345 L295.5969,373.2345 C297.7299,373.2345 299.7159,372.2605 301.5519,370.3045 C303.3879,368.3485 304.3099,364.8235 304.3099,359.7305 C304.3099,354.5165 303.2409,350.9575 301.1079,349.0615 C298.9749,347.1655 296.8419,346.2175 294.7089,346.2175 L277.2929,346.2175 L277.2929,373.2345 Z M242.6279,442.2025 L242.6279,315.9995 L297.0189,315.9995 C303.1809,315.9995 308.8679,317.2755 314.0859,319.8215 C319.2999,322.3725 323.7769,325.6865 327.5089,329.7755 C331.2399,333.8645 334.1739,338.5485 336.3069,343.8225 C338.4399,349.0965 339.5089,354.3965 339.5089,359.7305 C339.5089,365.2975 338.4999,370.7185 336.4839,375.9925 C334.4669,381.2665 331.6579,385.9455 328.0429,390.0305 C324.4279,394.1235 320.0409,397.3815 314.8839,399.8115 C309.7299,402.2415 304.0679,403.4565 297.9109,403.4565 L277.2929,403.4565 L277.2929,442.2025 L242.6279,442.2025 Z" id="Fill-4" fill="#002744"></path>
                <path d="M382.5154,379.2755 C382.5154,383.5415 383.1104,387.6605 384.2954,391.6335 C385.4804,395.6065 387.2554,399.1305 389.6294,402.2075 C391.9954,405.2925 394.9894,407.7825 398.6044,409.6705 C402.2154,411.5745 406.5114,412.5145 411.4924,412.5145 C416.4694,412.5145 420.7914,411.5405 424.4664,409.5845 C428.1374,407.6275 431.1364,405.0855 433.4464,401.9405 C435.7554,398.8035 437.4624,395.2185 438.5994,391.1855 C439.7204,387.1605 440.2884,383.0755 440.2884,378.9225 C440.2884,374.6565 439.6854,370.5375 438.5134,366.5725 C437.3244,362.6005 435.5144,359.1015 433.0844,356.0855 C430.6544,353.0605 427.6334,350.6305 424.0224,348.7945 C420.4074,346.9585 416.1724,346.0365 411.3114,346.0365 C406.3344,346.0365 402.0384,346.9935 398.4234,348.8805 C394.8084,350.7765 391.8184,353.3015 389.4484,356.4385 C387.0784,359.5755 385.3294,363.1345 384.2044,367.1075 C383.0794,371.0715 382.5154,375.1305 382.5154,379.2755 M411.1354,443.2705 C401.5344,443.2705 392.8264,441.4355 385.0064,437.7555 C377.1854,434.0845 370.4894,429.2585 364.9184,423.2695 C359.3464,417.2885 355.0244,410.4455 351.9444,402.7415 C348.8634,395.0375 347.3244,387.1005 347.3244,378.9225 C347.3244,370.6315 348.9234,362.6345 352.1204,354.9305 C355.3224,347.2265 359.7944,340.4445 365.5424,334.5755 C371.2864,328.7105 378.1034,324.0315 385.9844,320.5325 C393.8604,317.0385 402.4824,315.2885 411.8454,315.2885 C421.4464,315.2885 430.1544,317.1285 437.9794,320.7995 C445.8044,324.4755 452.4914,329.3315 458.0584,335.3765 C463.6254,341.4175 467.9344,348.2945 470.9504,355.9905 C473.9664,363.6945 475.4834,371.5795 475.4834,379.6375 C475.4834,387.9275 473.8804,395.8995 470.6744,403.5435 C467.4864,411.1865 463.0394,417.9435 457.3514,423.8035 C451.6644,429.6725 444.8734,434.3775 436.9964,437.9365 C429.1114,441.4865 420.4934,443.2705 411.1354,443.2705" id="Fill-6" fill="#002744"></path>
                <path d="M524.889,373.2345 L546.752,373.2345 C548.889,373.2345 550.871,372.0535 552.707,369.6835 C554.543,367.3145 555.465,363.9965 555.465,359.7305 C555.465,355.3445 554.396,351.9915 552.268,349.6825 C550.13,347.3725 548.002,346.2175 545.865,346.2175 L524.889,346.2175 L524.889,373.2345 Z M490.228,442.2025 L490.228,315.9995 L548.174,315.9995 C554.336,315.9995 560.024,317.2755 565.237,319.8215 C570.451,322.3725 574.924,325.6865 578.664,329.7755 C582.395,333.8645 585.325,338.5485 587.462,343.8225 C589.591,349.0965 590.66,354.3965 590.66,359.7305 C590.66,367.0725 589.057,373.9155 585.86,380.2575 C582.662,386.6005 578.216,391.7795 572.528,395.8125 L599.191,442.2025 L560.084,442.2025 L537.867,403.4565 L524.889,403.4565 L524.889,442.2025 L490.228,442.2025 Z" id="Fill-8" fill="#002744"></path>
                <polygon id="Fill-10" fill="#002744" points="706.7405 346.2179 670.4855 346.2179 670.4855 442.2019 635.8165 442.2019 635.8165 346.2179 599.3725 346.2179 599.3725 315.9999 706.7405 315.9999"></polygon>
                <polygon id="Fill-12" fill="#002744" points="134.734 593.297 134.734 467.09 169.399 467.09 169.399 563.083 226.634 563.083 226.634 593.297"></polygon>
                <path d="M305.5504,545.4772 L294.3514,506.3702 L282.6234,545.4772 L305.5504,545.4772 Z M278.5334,467.0902 L310.1734,467.0902 L353.9044,593.2972 L318.7054,593.2972 L311.0614,568.5902 L277.4654,568.5902 L270.0024,593.2972 L234.6264,593.2972 L278.5334,467.0902 Z" id="Fill-14" fill="#002744"></path>
                <polygon id="Fill-16" fill="#002744" points="399.0529 531.2579 399.0529 593.2969 364.3879 593.2969 364.3879 467.0899 391.4089 467.0899 442.0639 531.2579 442.0639 467.0899 476.7249 467.0899 476.7249 593.2969 449.1819 593.2969"></polygon>
                <path d="M573.5965,530.0084 C573.5965,525.1484 572.9505,520.7094 571.6405,516.6764 C570.3385,512.6524 568.4685,509.2134 566.0475,506.3704 C563.6175,503.5264 560.6265,501.3024 557.0675,499.6994 C553.5175,498.1054 549.5445,497.3044 545.1575,497.3044 L531.2925,497.3044 L531.2925,563.0834 L545.1575,563.0834 C549.6655,563.0834 553.6895,562.2564 557.2485,560.5924 C560.7995,558.9294 563.7895,556.6204 566.2195,553.6554 C568.6495,550.6994 570.4855,547.1924 571.7355,543.1594 C572.9765,539.1344 573.5965,534.7484 573.5965,530.0084 L573.5965,530.0084 Z M496.6315,593.2974 L496.6315,467.0904 L545.1575,467.0904 C555.5855,467.0904 564.7715,468.7454 572.7085,472.0624 C580.6455,475.3804 587.2815,479.8874 592.6155,485.5754 C597.9505,491.2634 601.9745,497.9244 604.7065,505.5684 C607.4295,513.2124 608.7915,521.3644 608.7915,530.0084 C608.7915,539.6084 607.2835,548.2864 604.2585,556.0594 C601.2425,563.8244 596.9415,570.4604 591.3745,575.9664 C585.7995,581.4734 579.1115,585.7394 571.2865,588.7644 C563.4705,591.7894 554.7585,593.2974 545.1575,593.2974 L496.6315,593.2974 Z" id="Fill-18" fill="#002744"></path>
                <mask id="mask-w-bds362qh-2" fill="white">
                    <use xlink:href="#path-w-bds362qh-1"></use>
                </mask>
                <g id="Clip-21"></g>
                <polygon id="Fill-20" fill="#002744" mask="url(#mask-w-bds362qh-2)" points="618.391 593.297 645.778 593.297 645.778 565.936 618.391 565.936"></polygon>
                <polygon id="Fill-22" fill="#002744" mask="url(#mask-w-bds362qh-2)" points="169.3988 682.3527 169.3988 744.3827 134.7338 744.3827 134.7338 618.1847 161.7548 618.1847 212.4098 682.3527 212.4098 618.1847 247.0748 618.1847 247.0748 744.3827 219.5238 744.3827"></polygon>
                <path d="M301.6423,675.4154 L323.5093,675.4154 C325.6423,675.4154 327.6243,674.2344 329.4603,671.8644 C331.3003,669.4954 332.2183,666.1774 332.2183,661.9114 C332.2183,657.5254 331.1493,654.1724 329.0163,651.8634 C326.8833,649.5534 324.7503,648.3984 322.6183,648.3984 L301.6423,648.3984 L301.6423,675.4154 Z M266.9773,744.3834 L266.9773,618.1854 L324.9313,618.1854 C331.0893,618.1854 336.7773,619.4514 341.9953,622.0024 C347.2083,624.5534 351.6813,627.8714 355.4123,631.9564 C359.1483,636.0414 362.0783,640.7294 364.2113,646.0034 C366.3443,651.2774 367.4133,656.5774 367.4133,661.9114 C367.4133,669.2534 365.8103,676.0964 362.6123,682.4384 C359.4113,688.7814 354.9693,693.9604 349.2813,697.9934 L375.9443,744.3834 L336.8373,744.3834 L314.6163,705.6374 L301.6423,705.6374 L301.6423,744.3834 L266.9773,744.3834 Z" id="Fill-23" fill="#002744" mask="url(#mask-w-bds362qh-2)"></path>
                <polygon id="Fill-24" fill="#002744" mask="url(#mask-w-bds362qh-2)" points="422.157 618.185 453.974 618.185 465.004 657.111 476.19 618.185 508.007 618.185 487.221 678.44 496.287 704.742 523.467 618.185 561.161 618.185 511.747 744.383 482.946 744.383 465.004 699.235 447.217 744.383 418.426 744.383 369.011 618.185 406.516 618.185 433.894 704.742 442.598 678.44"></polygon>
                <polyline id="Fill-25" fill="#00AB4E" mask="url(#mask-w-bds362qh-2)" points="706.8046 126.123 618.7246 126.123 618.7246 189.11 706.8046 189.123"></polyline>
                <polygon id="Fill-26" fill="#0066B2" mask="url(#mask-w-bds362qh-2)" points="522.279 189.123 591.999 189.123 591.999 126.123 522.279 126.123"></polygon>
                <polygon id="Fill-27" fill="#EC1C24" mask="url(#mask-w-bds362qh-2)" points="356.345 189.123 522.279 189.123 522.279 126.123 356.345 126.123"></polygon>
                <polygon id="Fill-28" fill="#FFDC00" mask="url(#mask-w-bds362qh-2)" points="307.541 189.123 356.345 189.123 356.345 126.123 307.541 126.123"></polygon>
                <polygon id="Fill-29" fill="#00ADEE" mask="url(#mask-w-bds362qh-2)" points="171.0762 126.123 125.8042 126.123 125.8042 189.123 171.1222 189.123 171.1222 126.123"></polygon>
                <polygon id="Fill-30" fill="#001423" mask="url(#mask-w-bds362qh-2)" points="591.999 189.123 618.725 189.123 618.725 126.123 591.999 126.123"></polygon>
                <polyline id="Fill-31" fill="#9CDBF8" mask="url(#mask-w-bds362qh-2)" points="171.1227 126.123 171.1227 189.123 183.2077 189.123 183.2077 126.123"></polyline>
                <polyline id="Fill-32" fill="#B72837" mask="url(#mask-w-bds362qh-2)" points="262.9207 126.123 262.9207 189.123 272.2167 189.123 272.2167 126.123"></polyline>
                <polygon id="Fill-33" fill="#F89C1C" mask="url(#mask-w-bds362qh-2)" points="183.207 189.123 190.876 189.123 190.876 126.123 183.207 126.123"></polygon>
                <polygon id="Fill-34" fill="#FEFEFE" mask="url(#mask-w-bds362qh-2)" points="190.877 189.123 262.921 189.123 262.921 126.123 190.877 126.123"></polygon>
                <polygon id="Fill-35" fill="#FEFEFE" mask="url(#mask-w-bds362qh-2)" points="272.217 189.123 307.542 189.123 307.542 126.123 272.217 126.123"></polygon>
            </g>
        </g>
    </g>
</svg>