<?xml version="1.0" encoding="utf-8"?>
<!-- Generator: Adobe Illustrator 27.0.1, SVG Export Plug-In . SVG Version: 6.00 Build 0)  -->
<svg version="1.1" id="Ebene_2" xmlns="http://www.w3.org/2000/svg" xmlns:xlink="http://www.w3.org/1999/xlink" x="0px" y="0px"
	 viewBox="0 0 378.5 67.6" style="enable-background:new 0 0 378.5 67.6;" xml:space="preserve">
<style type="text/css">
	.st0{fill:#FFFFFF;}
</style>
<g>
	<g>
		<path class="st0" d="M19.6,45.1h-3.9l-4.2,14.7c-0.3,1.1-0.5,1.7-0.8,3.6c-0.3-1.7-0.5-2.3-0.9-3.9l-4-14.4H1.9L0,67.2h2.5
			l1.2-15.7C3.9,50.1,4,47.2,4,47.2c0.3,1.5,0.6,2.6,1.1,4.3l4.4,15.7h2.3l4.7-16.5c0.3-0.9,0.6-2.4,0.9-3.5c0,0,0.1,2.4,0.2,3.8
			l1.3,16.2h2.6L19.6,45.1"/>
		<path class="st0" d="M33.6,65.6c-1.8,0-3.9-1-4.7-2.4c-0.9-1.5-1.4-4.4-1.4-7.7c0-2.7,0.4-4.6,1.1-6.1c0.8-1.6,2.7-2.6,4.7-2.6
			c2.5,0,4.2,1.4,4.9,3c0.7,1.5,1.1,3.8,1.1,7c0,3.6-0.5,5.4-1.6,6.8C36.7,64.9,35.4,65.6,33.6,65.6 M33.3,44.7
			c-5.4,0-8.8,4.3-8.8,11.3c0,3.8,0.9,6.8,2.6,8.8c1.5,1.7,3.6,2.8,6.3,2.8c2.3,0,4-0.6,5.6-2.1c2.3-2.1,3.2-4.7,3.2-9
			c0-3.5-0.6-6.1-2-8.2C39.2,46.7,37.1,44.7,33.3,44.7 M30.5,40.4c-0.9,0-1.6,0.7-1.6,1.6c0,0.9,0.7,1.7,1.7,1.7
			c0.9,0,1.7-0.8,1.7-1.7C32.2,41.1,31.4,40.4,30.5,40.4 M37.1,40.4c-0.9,0-1.7,0.7-1.7,1.6c0,0.9,0.8,1.7,1.7,1.7
			c0.9,0,1.6-0.8,1.6-1.7C38.8,41.1,38,40.4,37.1,40.4"/>
		<path class="st0" d="M61.4,45.1h-2.6l0.1,12c0,2.9,0.3,6.7,0.3,6.7s-1.3-3-2.1-4.6l-7.4-14.1h-3.1v22h2.7l-0.1-12.8
			c0-2.2-0.1-4.1-0.3-6c0.5,1.2,1.5,3.3,2.5,5.3l7.1,13.5h2.8V45.1"/>
		<path class="st0" d="M75,44.8c-5.4,0-9.3,4.8-9.3,11.4c0,6.7,3.7,11.3,9.1,11.3c2.2,0,4.4-0.6,6.2-1.8l-1.4-1.8
			c-1.4,1-2.7,1.4-4.3,1.4c-2.5,0-4.8-1.3-5.9-4.1c-0.5-1.3-0.7-2.5-0.7-4.7c0-2.6,0.3-4.4,0.9-5.9c1.1-2.5,2.9-3.8,5.4-3.8
			c1.6,0,2.9,0.4,4.2,1.4l1.4-1.7C79.1,45.5,77.1,44.8,75,44.8"/>
		<polyline class="st0" points="98.7,45.1 96.1,45.1 96.1,54.3 86.7,54.3 86.7,45.1 84.2,45.1 84.2,67.2 86.7,67.2 86.7,56.5 
			96.1,56.5 96.1,67.2 98.7,67.2 98.7,45.1 		"/>
		<polyline class="st0" points="116.6,45.2 104.5,45.2 104.5,67.2 117,67.2 117,64.9 107.2,64.9 107.2,56.9 114.8,56.9 114.8,54.6 
			107.2,54.6 107.2,47.4 116.3,47.4 116.6,45.2 		"/>
		<path class="st0" d="M135.7,45.1h-2.6l0.1,12c0,2.9,0.3,6.7,0.3,6.7s-1.3-3-2.1-4.6l-7.3-14.1H121v22h2.7l-0.1-12.8
			c0-2.2-0.1-4.1-0.3-6c0.5,1.2,1.5,3.3,2.5,5.3l7.1,13.5h2.8V45.1"/>
		<path class="st0" d="M149.3,44.9c-2.3,0-4.2,0.7-5.8,2.1c-2.3,2-3.4,5.1-3.4,9.3c0,3.8,0.9,6.5,2.7,8.6c1.7,1.8,4,2.8,6.8,2.8
			c2.3,0,4.6-0.6,6.2-1.7V55.6h-7.4l0.5,2.2h4.4v6.7c-0.9,0.6-2.1,0.9-3.5,0.9c-2.1,0-4.4-0.9-5.4-2.4c-1-1.5-1.5-3.8-1.5-6.7
			c0-2.1,0.3-4,0.9-5.6c0.9-2.5,2.9-3.7,5.5-3.7c1.7,0,3,0.5,4.8,1.7l1.2-1.6C153.7,45.7,151.7,44.9,149.3,44.9"/>
		<polyline class="st0" points="163.5,45.1 160.9,45.1 160.9,67.2 171.9,67.2 172.2,65 163.5,65 163.5,45.1 		"/>
		<path class="st0" d="M178.6,58.2c0,0,2.2-7.1,2.4-7.6l1.1-3.3l1.1,3.4c0.6,1.9,2.3,7.4,2.3,7.4H178.6 M183.9,45.1h-3.5l-7.4,22.1
			h2.7l2.1-6.8h8.3l2.1,6.8h3L183.9,45.1"/>
		<path class="st0" d="M196.9,65V47.4h2.6c2.3,0,3.7,0.3,5.2,2c1.5,1.8,1.9,3.8,1.9,7.1c0,2.3-0.5,4.5-1.5,6.1
			c-0.6,1.1-1.9,1.9-3.2,2.1c-0.8,0.1-1.3,0.2-2.7,0.2H196.9 M198.7,45.3h-4.4v21.9h5.8c3.4,0,5-0.6,7-2.7c1.5-1.6,2.5-4.3,2.5-8.2
			c0-4.3-1.2-7.5-3.7-9.3C203.6,45.4,202.1,45.3,198.7,45.3"/>
		<path class="st0" d="M217,65v-8.3h3.9c1.1,0,2,0.1,2.6,0.2c1.6,0.4,2.7,2,2.7,3.9c0,0.6-0.1,1.3-0.4,1.8c-0.7,1.8-1.7,2.3-4.4,2.3
			H217 M217,54.6v-7.3h3.1c1.1,0,1.8,0,2.4,0.2c1.5,0.4,2.5,1.7,2.5,3.5c0,0.6-0.1,1.2-0.4,1.7c-0.6,1.5-1.5,1.9-3.9,1.9H217
			 M217.7,45.1h-3.2v22.1h5.7c3.3,0,3.8-0.1,5-0.5c2.2-0.8,3.7-3.1,3.7-5.5c0-1.7-0.8-3.5-2-4.4c-0.7-0.6-1.3-0.8-2.9-1.2
			c2.5-0.8,4-2.5,4-4.8c0-2.3-1.5-4.3-3.8-5.1C223.1,45.2,222.1,45.1,217.7,45.1"/>
		<path class="st0" d="M236.2,58.2c0,0,2.2-7.1,2.4-7.6l1.1-3.3l1.1,3.4c0.6,1.9,2.3,7.4,2.3,7.4H236.2 M241.5,45.1h-3.4l-7.4,22.1
			h2.7l2.1-6.8h8.2l2.1,6.8h3L241.5,45.1"/>
		<path class="st0" d="M259.8,44.8c-5.3,0-9.3,4.8-9.3,11.4c0,6.7,3.7,11.3,9.1,11.3c2.2,0,4.4-0.6,6.2-1.8l-1.4-1.8
			c-1.4,1-2.7,1.4-4.3,1.4c-2.5,0-4.8-1.3-5.9-4.1c-0.5-1.3-0.7-2.5-0.7-4.7c0-2.6,0.3-4.4,0.9-5.9c1.1-2.5,2.9-3.8,5.4-3.8
			c1.6,0,2.9,0.4,4.2,1.4l1.4-1.7C263.9,45.5,262,44.8,259.8,44.8"/>
		<polyline class="st0" points="283.5,45.1 280.9,45.1 280.9,54.3 271.6,54.3 271.6,45.1 269,45.1 269,67.2 271.6,67.2 271.6,56.5 
			280.9,56.5 280.9,67.2 283.5,67.2 283.5,45.1 		"/>
	</g>
	<g>
		<path class="st0" d="M86.3,18c-1,0.4-2.9,0.9-5.2,0.9c-2.6,0-4.7-0.7-6.4-2.2c-1.5-1.4-2.4-3.7-2.4-6.3c0-5.1,3.5-8.8,9.2-8.8
			c2,0,3.5,0.4,4.2,0.8l-0.5,1.8c-0.9-0.4-2-0.7-3.8-0.7c-4.1,0-6.8,2.6-6.8,6.8c0,4.3,2.6,6.9,6.6,6.9c1.4,0,2.4-0.2,2.9-0.5v-5.1
			h-3.5V9.8h5.6V18z"/>
		<path class="st0" d="M90.9,13c0.1,3,2,4.2,4.2,4.2c1.6,0,2.5-0.3,3.4-0.6l0.4,1.6c-0.8,0.4-2.1,0.8-4.1,0.8c-3.8,0-6-2.5-6-6.2
			c0-3.7,2.2-6.6,5.7-6.6c4,0,5,3.5,5,5.8c0,0.5-0.1,0.8-0.1,1H90.9z M97.5,11.4c0-1.4-0.6-3.6-3.1-3.6c-2.2,0-3.2,2.1-3.4,3.6H97.5
			z"/>
		<path class="st0" d="M102.4,9.8c0-1.3,0-2.3-0.1-3.3h1.9l0.1,2h0.1c0.7-1.2,1.8-2.2,3.8-2.2c1.7,0,2.9,1,3.5,2.4h0.1
			c0.4-0.7,0.9-1.2,1.4-1.6c0.7-0.6,1.5-0.9,2.7-0.9c1.6,0,4,1.1,4,5.3v7.2h-2.2v-6.9c0-2.3-0.9-3.8-2.6-3.8c-1.3,0-2.2,0.9-2.6,2
			c-0.1,0.3-0.2,0.7-0.2,1.1v7.5H110v-7.3c0-1.9-0.9-3.4-2.5-3.4c-1.4,0-2.4,1.1-2.8,2.2c-0.1,0.3-0.2,0.7-0.2,1.1v7.4h-2.2V9.8z"/>
		<path class="st0" d="M124.6,13c0.1,3,2,4.2,4.2,4.2c1.6,0,2.5-0.3,3.4-0.6l0.4,1.6c-0.8,0.4-2.1,0.8-4.1,0.8c-3.8,0-6-2.5-6-6.2
			c0-3.7,2.2-6.6,5.7-6.6c4,0,5,3.5,5,5.8c0,0.5-0.1,0.8-0.1,1H124.6z M131.2,11.4c0-1.4-0.6-3.6-3.1-3.6c-2.2,0-3.2,2.1-3.4,3.6
			H131.2z"/>
		<path class="st0" d="M138.5,3.1c0,0.8-0.5,1.4-1.4,1.4c-0.8,0-1.3-0.6-1.3-1.4c0-0.8,0.6-1.4,1.4-1.4C138,1.7,138.5,2.3,138.5,3.1
			z M136.1,18.7V6.5h2.2v12.2H136.1z"/>
		<path class="st0" d="M142,9.8c0-1.3,0-2.3-0.1-3.3h2l0.1,2h0.1c0.6-1.2,2-2.3,4-2.3c1.7,0,4.3,1,4.3,5.2v7.3h-2.2v-7
			c0-2-0.7-3.6-2.8-3.6c-1.5,0-2.6,1-3,2.3c-0.1,0.3-0.2,0.7-0.2,1v7.3H142V9.8z"/>
		<path class="st0" d="M155.7,16.5c0.7,0.4,1.8,0.9,2.9,0.9c1.6,0,2.4-0.8,2.4-1.8c0-1.1-0.6-1.6-2.3-2.2c-2.2-0.8-3.2-2-3.2-3.5
			c0-2,1.6-3.6,4.2-3.6c1.2,0,2.3,0.4,3,0.8l-0.6,1.6c-0.5-0.3-1.4-0.7-2.5-0.7c-1.3,0-2,0.8-2,1.7c0,1,0.7,1.5,2.3,2.1
			c2.1,0.8,3.2,1.9,3.2,3.7c0,2.1-1.7,3.7-4.6,3.7c-1.3,0-2.6-0.3-3.4-0.8L155.7,16.5z"/>
		<path class="st0" d="M172.7,18.7l-0.2-1.5h-0.1c-0.7,1-2,1.8-3.7,1.8c-2.5,0-3.7-1.7-3.7-3.5c0-3,2.6-4.6,7.3-4.5v-0.3
			c0-1-0.3-2.8-2.8-2.8c-1.1,0-2.3,0.4-3.2,0.9l-0.5-1.5c1-0.7,2.5-1.1,4-1.1c3.7,0,4.6,2.5,4.6,5v4.6c0,1.1,0.1,2.1,0.2,2.9H172.7z
			 M172.4,12.5c-2.4-0.1-5.2,0.4-5.2,2.8c0,1.4,1,2.1,2.1,2.1c1.6,0,2.6-1,3-2c0.1-0.2,0.1-0.5,0.1-0.7V12.5z"/>
		<path class="st0" d="M178.1,9.8c0-1.3,0-2.3-0.1-3.3h1.9l0.1,2h0.1c0.7-1.2,1.8-2.2,3.8-2.2c1.7,0,2.9,1,3.5,2.4h0.1
			c0.4-0.7,0.9-1.2,1.4-1.6c0.7-0.6,1.5-0.9,2.7-0.9c1.6,0,4,1.1,4,5.3v7.2h-2.2v-6.9c0-2.3-0.9-3.8-2.7-3.8c-1.3,0-2.2,0.9-2.6,2
			c-0.1,0.3-0.2,0.7-0.2,1.1v7.5h-2.2v-7.3c0-1.9-0.9-3.4-2.5-3.4c-1.4,0-2.4,1.1-2.8,2.2c-0.1,0.3-0.2,0.7-0.2,1.1v7.4h-2.2V9.8z"
			/>
		<path class="st0" d="M198.7,17.4c0-0.9,0.6-1.6,1.5-1.6c0.9,0,1.5,0.7,1.5,1.6c0,0.9-0.6,1.6-1.5,1.6
			C199.3,19,198.7,18.3,198.7,17.4z"/>
		<path class="st0" d="M212.7,18.7l-5.6-17h2.4l2.6,8.4c0.7,2.3,1.4,4.4,1.8,6.4h0.1c0.5-2,1.2-4.1,1.9-6.3l2.9-8.4h2.3l-6.1,17
			H212.7z"/>
		<path class="st0" d="M225.1,3.1c0,0.8-0.5,1.4-1.4,1.4c-0.8,0-1.3-0.6-1.3-1.4c0-0.8,0.6-1.4,1.4-1.4
			C224.5,1.7,225.1,2.3,225.1,3.1z M222.6,18.7V6.5h2.2v12.2H222.6z"/>
		<path class="st0" d="M229.7,13c0.1,3,2,4.2,4.2,4.2c1.6,0,2.5-0.3,3.4-0.6l0.4,1.6c-0.8,0.4-2.1,0.8-4.1,0.8c-3.8,0-6-2.5-6-6.2
			c0-3.7,2.2-6.6,5.7-6.6c4,0,5,3.5,5,5.8c0,0.5,0,0.8-0.1,1H229.7z M236.2,11.4c0-1.4-0.6-3.6-3.1-3.6c-2.2,0-3.2,2.1-3.4,3.6
			H236.2z"/>
		<path class="st0" d="M241.1,0.8h2.2v17.9h-2.2V0.8z"/>
		<path class="st0" d="M247.3,18.7V8.2h-1.7V6.5h1.7V5.9c0-1.7,0.4-3.3,1.4-4.3c0.8-0.8,1.9-1.1,3-1.1c0.8,0,1.5,0.2,1.9,0.4
			l-0.3,1.7c-0.3-0.2-0.8-0.3-1.4-0.3c-1.9,0-2.4,1.7-2.4,3.5v0.7h3v1.7h-3v10.5H247.3z"/>
		<path class="st0" d="M261.2,18.7l-0.2-1.5H261c-0.7,1-2,1.8-3.7,1.8c-2.5,0-3.7-1.7-3.7-3.5c0-3,2.6-4.6,7.3-4.5v-0.3
			c0-1-0.3-2.8-2.8-2.8c-1.1,0-2.3,0.4-3.2,0.9l-0.5-1.5c1-0.7,2.5-1.1,4-1.1c3.7,0,4.6,2.5,4.6,5v4.6c0,1.1,0.1,2.1,0.2,2.9H261.2z
			 M260.9,12.5c-2.4-0.1-5.2,0.4-5.2,2.8c0,1.4,1,2.1,2.1,2.1c1.6,0,2.6-1,3-2c0.1-0.2,0.1-0.5,0.1-0.7V12.5z"/>
		<path class="st0" d="M266.6,0.8h2.2v17.9h-2.2V0.8z"/>
		<path class="st0" d="M275.3,3v3.5h3.2v1.7h-3.2v6.6c0,1.5,0.4,2.4,1.7,2.4c0.6,0,1-0.1,1.3-0.2l0.1,1.7c-0.4,0.2-1.1,0.3-2,0.3
			c-1,0-1.9-0.3-2.4-0.9c-0.6-0.7-0.9-1.7-0.9-3.2V8.2h-1.9V6.5h1.9V3.6L275.3,3z"/>
		<path class="st0" d="M280.4,17.4c0-0.9,0.6-1.6,1.5-1.6c0.9,0,1.5,0.7,1.5,1.6c0,0.9-0.6,1.6-1.5,1.6
			C281,19,280.4,18.3,280.4,17.4z"/>
	</g>
	<polygon class="st0" points="297.8,66.4 313.4,66.4 364.2,15.4 364.2,0 	"/>
	<polygon class="st0" points="319.1,60.9 334.3,60.9 378.4,15.5 378.5,1.3 	"/>
</g>
</svg>
