<?xml version="1.0" encoding="UTF-8"?>
<!-- Generator: Adobe Illustrator 13.0.2, SVG Export Plug-In . SVG Version: 6.00 Build 14948)  -->
<!DOCTYPE svg PUBLIC "-//W3C//DTD SVG 1.0//EN" "http://www.w3.org/TR/2001/REC-SVG-20010904/DTD/svg10.dtd">
<svg version="1.0" id="Ebene_1" xmlns="http://www.w3.org/2000/svg" xmlns:xlink="http://www.w3.org/1999/xlink" x="0px" y="0px" width="419.527px" height="566.928px" viewBox="0 0 419.527 566.928" enable-background="new 0 0 419.527 566.928" xml:space="preserve">
<path fill-rule="evenodd" clip-rule="evenodd" fill="#FFFFFF" d="M209.765,564.096c0,0-207.667-63.258-207.667-197.359  c0-121.298,0-242.601,0-363.903H417.43c0,121.302,0,242.604,0,363.903C417.43,500.838,209.765,564.096,209.765,564.096  L209.765,564.096z"/>
<path fill-rule="evenodd" clip-rule="evenodd" fill="#344A96" d="M209.765,566.928c0,0-209.765-63.895-209.765-199.352  C0,245.055,0,122.526,0,0h419.527c0,122.526,0,245.055,0,367.577C419.527,503.034,209.765,566.928,209.765,566.928L209.765,566.928z   M14.74,272.125h390.123c0.02-85.795-0.074-171.591-0.074-257.385H14.74V272.125L14.74,272.125z M404.859,283.463H14.74v83.758  c0,69.391,61.801,118.777,116.872,149.492c24.68,13.766,51.343,25.801,78.152,34.715c27.067-8.988,53.2-20.98,78.153-34.715  c55.188-30.375,116.766-80.34,116.871-149.492C404.828,339.303,404.852,311.385,404.859,283.463L404.859,283.463z"/>
<polygon fill-rule="evenodd" clip-rule="evenodd" fill="#344A96" points="394.594,159.502 394.59,260.786 25.059,260.786   25.01,159.502 394.594,159.502 "/>
<path fill-rule="evenodd" clip-rule="evenodd" fill="#344A96" d="M394.598,80.835l-0.004,69.666h-32.906  c-0.898-2.352-1.855-4.677-2.859-6.976l25.934-12.147c5.816-2.725,2.012-10.842-3.797-8.121l-25.953,12.157  c-2.734-5.41-5.762-10.646-9.063-15.691l39.465-27.274c5.285-3.652,0.176-11.029-5.098-7.383l-39.48,27.286  c-3.461-4.708-7.164-9.227-11.102-13.53l56.242-54.289c4.621-4.46-1.609-10.923-6.223-6.468L323.496,92.37  c-4.77-4.676-9.82-9.06-15.133-13.126l24.746-34.338c3.758-5.214-3.527-10.44-7.277-5.238l-24.73,34.317  c-6.523-4.453-13.387-8.442-20.543-11.923l8.516-18.918c2.637-5.857-5.559-9.543-8.191-3.692l-8.508,18.906  c-19.285-8.096-40.441-12.574-62.61-12.574s-43.321,4.481-62.609,12.575l-8.511-18.907c-2.638-5.86-10.822-2.156-8.191,3.692  l8.517,18.919c-7.154,3.48-14.017,7.472-20.542,11.924L93.694,39.668c-3.755-5.212-11.026,0.033-7.276,5.238l24.747,34.34  c-5.31,4.065-10.363,8.449-15.131,13.124L39.776,38.064c-4.625-4.465-10.834,2.017-6.223,6.468l56.24,54.29  c-3.936,4.305-7.637,8.824-11.099,13.531L39.214,85.065c-5.286-3.653-10.372,3.737-5.098,7.383l39.464,27.275  c-3.299,5.045-6.325,10.281-9.059,15.691l-25.958-12.158c-5.818-2.725-9.604,5.4-3.797,8.121l25.937,12.148  c-1.006,2.298-1.959,4.623-2.86,6.975H25.006L24.945,24.944h369.637C394.582,43.576,394.59,62.208,394.598,80.835L394.598,80.835z"/>
<path fill-rule="evenodd" clip-rule="evenodd" fill="#FFFFFF" d="M76.965,187.449h-1.36c-4.049,0-7.517,1.096-10.403,3.285  c-2.888,2.19-5.526,5.741-7.933,10.67l-6.554-2.522l7.434-20.575h55.189l7.484,20.575l-6.604,2.522  c-2.406-4.929-5.044-8.479-7.932-10.67c-2.888-2.189-6.339-3.285-10.354-3.285h-1.41v37.435c0,5.311,0.531,8.695,1.609,10.14  c1.063,1.443,3.136,2.206,6.223,2.306l0.05,8.264H69.133v-8.264c3.087-0.1,5.161-0.862,6.223-2.306  c1.079-1.444,1.609-4.829,1.609-10.14V187.449L76.965,187.449z M186.184,246.473l-8.165-25.09l7.584-2.571  c3.136,5.956,6.969,10.569,11.482,13.839c4.497,3.252,9.309,4.878,14.437,4.878c3.4,0,6.256-0.863,8.564-2.572  c2.305-1.726,3.449-3.85,3.449-6.371c0-3.469-4.813-6.372-14.437-8.712c-1.493-0.382-2.655-0.681-3.451-0.862  c-5.427-1.361-9.475-2.49-12.196-3.386c-2.704-0.896-4.597-1.726-5.658-2.506c-2.456-1.709-4.364-3.85-5.692-6.422  c-1.327-2.555-1.99-5.393-1.99-8.512c0-6.024,2.389-11.102,7.168-15.217s10.687-6.173,17.722-6.173c2.788,0,5.525,0.398,8.18,1.194  c2.656,0.797,5.211,1.992,7.684,3.568l1.512-3.584h6.07l5.875,20.012l-6.801,2.489c-2.559-4.514-5.727-8.016-9.477-10.504  c-3.766-2.506-7.767-3.75-12.014-3.75c-3.153,0-5.692,0.646-7.633,1.94c-1.942,1.295-2.921,2.954-2.921,4.962  c0,3.436,5.326,6.372,15.996,8.812c2.306,0.515,4.114,0.945,5.442,1.261c8.297,2.008,13.973,4.497,17.023,7.435  c3.039,2.953,4.566,7.201,4.566,12.743c0,6.87-2.672,12.578-8.016,17.125c-5.359,4.53-12.082,6.803-20.178,6.803  c-2.506,0-5.095-0.398-7.767-1.211c-2.671-0.813-5.757-2.141-9.259-3.999l-1.211,4.381H186.184L186.184,246.473z M327.281,246.273  l-18.719-50.66c-1.227-3.401-2.637-5.741-4.23-6.986c-1.594-1.244-3.883-2.008-6.902-2.306v-8.015h35.344v8.015  c-3.004,0.199-5.094,0.563-6.238,1.095c-1.164,0.531-1.727,1.394-1.727,2.605c0,0.515,0.051,1.078,0.184,1.692  c0.129,0.614,0.395,1.477,0.777,2.589l11.684,32.672l11.766-32.291v-0.05c0.695-2.008,1.059-3.418,1.059-4.23  c0-1.328-0.48-2.273-1.457-2.838c-0.965-0.564-2.973-0.979-5.977-1.244v-8.015h27.164v8.015c-2.621,0.266-4.828,1.111-6.602,2.555  c-1.793,1.443-3.172,3.518-4.133,6.239l-19.25,51.158H327.281L327.281,246.273z"/>
<path fill="#344A96" d="M141.495,361.307l21.565-0.02v14l-21.565,0.02v28.16l21.565-0.02v14l-28.565,0.023c-3.502,0.004-7-3.496-7-7  v-84.32c0-3.5,3.501-7,7-7h28.565v14h-21.565V361.307L141.495,361.307z M195.89,319.127v76.02c0,5.816,4.745,10.563,10.561,10.563  s10.562-4.746,10.562-10.563v-76.02h14v76.02c0,13.527-11.035,24.563-24.562,24.563s-24.561-11.035-24.561-24.563v-76.02H195.89  L195.89,319.127z M249.594,417.467v-91.316c0-3.5,3.5-7,7-7h3.633c2.43,0,5.93,2.578,6.672,4.895l16.41,51.313v-56.23h14v91.316  c0,3.5-3.5,7-7,7l-3.121-0.004c-2.43,0-5.934-2.578-6.672-4.895l-16.922-52.898v57.82H249.594L249.594,417.467z M312.477,417.467  l15.805-92.492c0.488-2.867,3.984-5.824,6.891-5.824h8.223c2.906,0,6.402,2.957,6.891,5.824l15.801,92.492h-14.18l-4.043-23.652  h-17.164l-4.039,23.652H312.477L312.477,417.467z M345.473,379.815l-6.191-36.23l-6.188,36.23H345.473L345.473,379.815z   M57.5,289.417h68.837h3.746c2.834,0,5.151,2.133,5.151,4.738v6.652c0,2.605-2.317,4.738-5.151,4.738h-11.707  c-2.833,0-5.15,2.133-5.15,4.738v125.914h214.474l10.77-27.16l22.48,44.953l-4.684,2.344H129.948H74.357h-5.063  c-2.365,0-4.303-1.859-4.303-4.129v-5.793c0-2.246,1.889-4.082,4.215-4.129l0,0c2.833,0,5.15-2.738,5.15-6.086V310.284  c0-2.605-2.317-4.738-5.15-4.738H57.5c-2.834,0-5.151-2.133-5.151-4.738v-6.652C52.349,291.549,54.666,289.417,57.5,289.417  L57.5,289.417z"/>
</svg>