<?xml version="1.0" encoding="UTF-8" standalone="no"?>
<!DOCTYPE svg PUBLIC "-//W3C//DTD SVG 1.1//EN" "http://www.w3.org/Graphics/SVG/1.1/DTD/svg11.dtd">
<svg version="1.0" id="Ebene_1" xmlns="http://www.w3.org/2000/svg" xmlns:xlink="http://www.w3.org/1999/xlink" x="0px" y="0px" width="440.479px" height="440.478px" viewBox="0 0 440.479 440.478" enable-background="new 0 0 440.479 440.478" xml:space="preserve">
<g>

		<path fill-rule="evenodd" clip-rule="evenodd" fill="#FFFFFF" stroke="#000000" stroke-width="7.9999" stroke-miterlimit="2.6131" d="   M220.239,4c119.1,0,216.239,97.139,216.239,216.239s-97.14,216.239-216.239,216.239C101.139,436.478,4,339.339,4,220.239   S101.139,4,220.239,4L220.239,4z"/>
	<path fill="none" stroke="#000000" stroke-width="7.9999" stroke-miterlimit="2.6131" d="M219.763,15.904   c112.282,0,203.859,91.577,203.859,203.859c0,112.281-91.577,203.859-203.859,203.859S15.904,332.044,15.904,219.763   C15.904,107.481,107.481,15.904,219.763,15.904L219.763,15.904z"/>
	<g>
		<path d="M88.901,345.634l23.672-24.514l4.99,4.819l-19.651,20.349l12.408,11.982l-4.021,4.164L88.901,345.634z"/>
	</g>
	<g>
		<path d="M110.989,365.605l18.713-28.815l21.366,13.875l-3.166,4.875l-15.548-10.097l-4.148,6.389l14.467,9.395l-3.153,4.854    l-14.467-9.395l-5.093,7.843l16.098,10.454l-3.153,4.854L110.989,365.605z"/>
	</g>
	<g>
		<path d="M138.923,382.844l14.521-31.14l6.288,2.932l-14.521,31.141L138.923,382.844z"/>
	</g>
	<g>
		<path d="M151.808,388.838l11.186-32.487l10.526,3.625c3.988,1.373,6.532,2.432,7.632,3.174c1.693,1.128,2.887,2.725,3.58,4.789    c0.693,2.065,0.595,4.391-0.295,6.976c-0.687,1.994-1.625,3.547-2.818,4.657c-1.192,1.109-2.479,1.86-3.861,2.252    c-1.383,0.392-2.692,0.515-3.932,0.369c-1.674-0.23-3.994-0.855-6.964-1.878l-4.276-1.473l-4.219,12.255L151.808,388.838z     M167.661,364.105l-3.174,9.219l3.59,1.236c2.584,0.89,4.371,1.315,5.361,1.276c0.987-0.041,1.854-0.337,2.599-0.891    c0.743-0.554,1.281-1.311,1.612-2.271c0.407-1.182,0.395-2.276-0.035-3.284c-0.43-1.007-1.143-1.789-2.141-2.349    c-0.733-0.417-2.281-1.032-4.644-1.847L167.661,364.105z"/>
	</g>
	<g>
		<path d="M179.792,397.85l0.871-6.196l20.973-19.561l-15.852-2.228l0.809-5.756l24.902,3.5l-0.75,5.338l-21.861,20.335l19.355,2.72    l-0.806,5.732L179.792,397.85z"/>
	</g>
	<g>
		<path d="M212.537,401.258l1.199-34.338l6.934,0.242l-1.199,34.338L212.537,401.258z"/>
	</g>
	<g>
		<path d="M240.793,387.854l-0.806-5.732l14.808-2.081l1.905,13.555c-1.243,1.595-3.156,3.113-5.738,4.558s-5.273,2.362-8.074,2.757    c-3.559,0.5-6.766,0.188-9.621-0.933s-5.145-2.977-6.865-5.567c-1.721-2.59-2.811-5.518-3.27-8.782    c-0.498-3.542-0.197-6.796,0.9-9.76c1.099-2.962,2.976-5.38,5.632-7.252c2.022-1.437,4.659-2.382,7.907-2.839    c4.225-0.594,7.648-0.172,10.272,1.266c2.624,1.438,4.496,3.673,5.616,6.701l-6.644,2.235c-0.715-1.604-1.802-2.796-3.26-3.576    c-1.459-0.781-3.179-1.032-5.159-0.754c-3.002,0.422-5.255,1.708-6.759,3.859c-1.505,2.152-1.993,5.102-1.467,8.846    c0.567,4.038,1.89,6.941,3.97,8.707c2.078,1.768,4.571,2.447,7.48,2.038c1.438-0.202,2.842-0.688,4.209-1.456    c1.368-0.768,2.514-1.627,3.437-2.577l-0.606-4.317L240.793,387.854z"/>
	</g>
	<g>
		<path d="M290.978,387.356l-6.105,2.467l-9.298-23.014c-1.389,2.988-3.395,5.593-6.019,7.816l-2.239-5.541    c1.383-1.166,2.715-2.854,3.996-5.064c1.28-2.211,1.877-4.428,1.787-6.649l4.955-2.002L290.978,387.356z"/>
	</g>
	<g>
		<path d="M296.811,375.897l5.169-3.797c0.783,1.045,1.616,1.675,2.497,1.888s1.787,0.05,2.722-0.489    c1.177-0.68,1.865-1.799,2.066-3.358c0.2-1.559-0.569-4.109-2.308-7.652c-0.474,2.492-1.786,4.359-3.938,5.602    c-2.341,1.352-4.882,1.615-7.623,0.789s-4.947-2.688-6.619-5.583c-1.742-3.017-2.25-5.967-1.523-8.849    c0.727-2.883,2.477-5.124,5.251-6.726c3.017-1.742,6.167-2.005,9.45-0.788c3.282,1.217,6.467,4.498,9.552,9.843    c3.141,5.439,4.398,9.945,3.772,13.519c-0.625,3.572-2.555,6.292-5.789,8.159c-2.327,1.344-4.565,1.811-6.715,1.4    C300.626,379.445,298.638,378.126,296.811,375.897z M302.523,355.981c-1.062-1.839-2.31-3.023-3.74-3.55    c-1.432-0.526-2.703-0.469-3.813,0.172c-1.055,0.609-1.691,1.531-1.907,2.766c-0.218,1.233,0.222,2.799,1.315,4.692    c1.109,1.923,2.303,3.113,3.58,3.576s2.484,0.365,3.621-0.291c1.096-0.633,1.77-1.6,2.021-2.898S303.493,357.66,302.523,355.981z"/>
	</g>
	<g>
		<path d="M310.952,335.324c2.586-2.094,5.354-2.809,8.307-2.143c3.506,0.78,7.31,3.7,11.409,8.765    c4.091,5.051,6.157,9.39,6.198,13.016c0.029,2.991-1.248,5.534-3.835,7.629c-2.599,2.104-5.502,2.802-8.71,2.093    c-3.209-0.71-6.887-3.627-11.037-8.751c-4.07-5.027-6.126-9.354-6.167-12.979C307.087,339.962,308.365,337.419,310.952,335.324z     M314.389,339.568c-0.62,0.502-1.013,1.146-1.179,1.935s0.029,1.8,0.589,3.035c0.72,1.61,2.348,3.98,4.885,7.113    s4.438,5.157,5.702,6.073s2.294,1.374,3.089,1.374c0.794,0,1.501-0.25,2.12-0.752c0.619-0.501,1.012-1.146,1.178-1.934    s-0.03-1.8-0.589-3.037c-0.71-1.597-2.333-3.961-4.87-7.094s-4.438-5.157-5.702-6.073s-2.296-1.377-3.095-1.384    C315.717,338.819,315.008,339.067,314.389,339.568z"/>
	</g>
	<g>
		<path d="M356.907,339.333l-4.491,4.816l-18.153-16.927c0.005,3.294-0.712,6.503-2.151,9.627l-4.371-4.076    c0.761-1.641,1.255-3.733,1.481-6.278s-0.171-4.806-1.19-6.781l3.645-3.908L356.907,339.333z"/>
	</g>
	<path fill-rule="evenodd" clip-rule="evenodd" stroke="#000000" stroke-width="4" stroke-miterlimit="2.6131" d="M141.516,318.483   V125.275C80.822,172.315,81.052,269.149,141.516,318.483L141.516,318.483z"/>
	<path fill-rule="evenodd" clip-rule="evenodd" fill="#D80021" stroke="#D80021" stroke-width="4" stroke-miterlimit="2.6131" d="   M246.151,341.89l-0.459-243.921c19.734,2.042,46.352,13.841,53.006,23.371l-0.229,196.952   C284.382,328.644,258.214,340.364,246.151,341.89L246.151,341.89z"/>
	<path fill-rule="evenodd" clip-rule="evenodd" stroke="#000000" stroke-width="4" stroke-miterlimit="2.6131" d="M298.24,316.647   V123.439C358.934,170.479,358.704,267.313,298.24,316.647L298.24,316.647z"/>
	<path fill-rule="evenodd" clip-rule="evenodd" fill="#D80021" stroke="#D80021" stroke-width="4" stroke-miterlimit="2.6131" d="   M193.604,343.726l0.459-243.921c-19.734,2.042-46.352,13.841-53.006,23.371l0.229,196.953   C155.374,330.479,181.542,342.2,193.604,343.726L193.604,343.726z"/>
	<polygon fill-rule="evenodd" clip-rule="evenodd" stroke="#D80021" stroke-width="0.216" stroke-miterlimit="2.6131" points="   195.44,343.726 244.086,343.726 244.086,96.821 195.44,96.821 195.44,343.726  "/>
	<g>
		<path d="M78.196,268.567l-32.758,9.394l-1.912-6.669l27.193-7.798l-4.754-16.581l5.564-1.596L78.196,268.567z"/>
	</g>
	<g>
		<path d="M71.337,240.284l-34.275,2.397l-1.777-25.414l5.798-0.406l1.293,18.493l7.599-0.532l-1.204-17.207l5.775-0.404    l1.203,17.208l9.328-0.652l-1.339-19.148l5.775-0.404L71.337,240.284z"/>
	</g>
	<g>
		<path d="M70.748,208.828l-34.228-2.995l0.604-6.911l34.228,2.995L70.748,208.828z"/>
	</g>
	<g>
		<path d="M72.117,195.262l-33.478-7.729l2.504-10.847c0.949-4.111,1.735-6.751,2.358-7.923c0.946-1.802,2.408-3.156,4.39-4.062    c1.981-0.906,4.304-1.051,6.967-0.437c2.056,0.475,3.698,1.247,4.926,2.316c1.229,1.07,2.109,2.271,2.644,3.605    c0.533,1.334,0.793,2.625,0.777,3.872c-0.052,1.688-0.433,4.062-1.139,7.121l-1.017,4.407l12.629,2.916L72.117,195.262z     M45.864,182.081l9.499,2.193l0.854-3.699c0.615-2.664,0.853-4.485,0.709-5.465c-0.143-0.979-0.527-1.81-1.157-2.492    c-0.627-0.682-1.437-1.138-2.427-1.366c-1.217-0.281-2.304-0.155-3.263,0.377c-0.956,0.533-1.659,1.325-2.111,2.375    c-0.338,0.771-0.789,2.375-1.352,4.812L45.864,182.081z"/>
	</g>
	<g>
		<path d="M78.629,166.535l-5.474-3.034l-10.744-26.59l-7.761,14.001l-5.084-2.818l12.192-21.995l4.715,2.614l11.148,27.697    l9.477-17.096l5.063,2.807L78.629,166.535z"/>
	</g>
	<g>
		<path d="M94.26,138.403l-27.797-20.196l4.078-5.612l27.797,20.196L94.26,138.403z"/>
	</g>
	<g>
		<path d="M103.894,106.774l-4.164-4.021l10.387-10.756l9.846,9.508c0.002,2.021-0.57,4.397-1.716,7.124    c-1.146,2.728-2.701,5.109-4.665,7.143c-2.497,2.585-5.215,4.314-8.156,5.189s-5.887,0.821-8.837-0.161    c-2.951-0.981-5.612-2.618-7.984-4.908c-2.573-2.485-4.339-5.233-5.298-8.245c-0.958-3.01-0.967-6.071-0.027-9.182    c0.71-2.377,2.205-4.746,4.484-7.106c2.963-3.068,5.921-4.843,8.875-5.326c2.953-0.482,5.803,0.125,8.55,1.823l-3.859,5.852    c-1.55-0.824-3.141-1.094-4.771-0.812c-1.63,0.283-3.141,1.144-4.53,2.582c-2.106,2.181-3.088,4.582-2.949,7.203    c0.139,2.622,1.57,5.247,4.289,7.873c2.934,2.833,5.763,4.306,8.489,4.418c2.726,0.113,5.109-0.887,7.149-3    c1.009-1.045,1.816-2.292,2.421-3.739c0.604-1.447,0.978-2.829,1.121-4.147l-3.136-3.028L103.894,106.774z"/>
	</g>
	<g>
		<path d="M128.237,100.87l-17.695-29.451l21.837-13.121l2.994,4.982l-15.891,9.548l3.922,6.528l14.786-8.884l2.981,4.962    l-14.786,8.884l4.816,8.017l16.454-9.886l2.981,4.962L128.237,100.87z"/>
	</g>
	<g>
		<path d="M155.361,82.96l-9.471-33.027l14.035-4.024c3.53-1.012,6.179-1.452,7.949-1.317c1.77,0.134,3.353,0.823,4.749,2.064    c1.396,1.242,2.374,2.838,2.934,4.791c0.711,2.478,0.568,4.734-0.425,6.765c-0.994,2.033-2.88,3.676-5.658,4.926    c1.684,0.428,3.138,1.01,4.365,1.748c1.228,0.737,3.005,2.162,5.334,4.273l5.881,5.287l-7.976,2.287l-6.882-5.805    c-2.449-2.077-4.084-3.359-4.907-3.847c-0.823-0.488-1.623-0.754-2.399-0.8c-0.777-0.045-1.932,0.152-3.463,0.591l-1.352,0.388    l3.954,13.788L155.361,82.96z M156.564,61.987l4.934-1.415c3.199-0.917,5.158-1.625,5.876-2.124    c0.719-0.499,1.209-1.142,1.47-1.933c0.261-0.79,0.249-1.681-0.035-2.672c-0.318-1.11-0.872-1.923-1.661-2.437    c-0.789-0.513-1.75-0.705-2.884-0.575c-0.562,0.08-2.195,0.508-4.898,1.283l-5.204,1.492L156.564,61.987z"/>
	</g>
	<g>
		<path d="M199.802,59.323l6.75-0.656c0.406,2.266,1.23,3.93,2.473,4.992c1.242,1.063,2.917,1.594,5.027,1.594    c2.234,0,3.918-0.472,5.051-1.418c1.133-0.945,1.699-2.051,1.699-3.316c0-0.812-0.238-1.503-0.715-2.074    c-0.477-0.57-1.309-1.066-2.496-1.488c-0.813-0.281-2.664-0.781-5.555-1.5c-3.719-0.922-6.328-2.055-7.828-3.398    c-2.109-1.891-3.164-4.195-3.164-6.914c0-1.75,0.496-3.387,1.488-4.91c0.992-1.523,2.421-2.684,4.289-3.48    c1.867-0.797,4.121-1.195,6.761-1.195c4.313,0,7.559,0.946,9.739,2.836c2.178,1.891,3.322,4.415,3.432,7.57l-6.937,0.305    c-0.297-1.766-0.934-3.035-1.91-3.809s-2.441-1.16-4.395-1.16c-2.015,0-3.594,0.414-4.734,1.242    c-0.735,0.531-1.102,1.242-1.102,2.133c0,0.813,0.343,1.508,1.031,2.086c0.875,0.734,3,1.5,6.375,2.297s5.871,1.621,7.489,2.473    c1.617,0.852,2.881,2.016,3.795,3.492s1.371,3.301,1.371,5.472c0,1.969-0.547,3.813-1.641,5.531    c-1.094,1.719-2.641,2.997-4.64,3.832c-2,0.835-4.492,1.254-7.477,1.254c-4.344,0-7.68-1.004-10.007-3.012    C201.646,66.093,200.255,63.167,199.802,59.323z"/>
	</g>
	<g>
		<path d="M233.534,70.571l5.375-33.936l10.996,1.742c4.166,0.66,6.854,1.26,8.067,1.8c1.863,0.817,3.315,2.183,4.357,4.095    c1.042,1.913,1.349,4.22,0.921,6.921c-0.33,2.083-0.986,3.775-1.967,5.075c-0.98,1.3-2.118,2.263-3.41,2.889    c-1.295,0.625-2.563,0.974-3.809,1.046c-1.688,0.064-4.082-0.149-7.184-0.64l-4.468-0.708l-2.027,12.801L233.534,70.571z     M244.852,43.462l-1.524,9.63l3.75,0.594c2.7,0.428,4.533,0.537,5.501,0.326c0.966-0.211,1.768-0.654,2.405-1.328    c0.636-0.674,1.035-1.513,1.193-2.516c0.195-1.235-0.007-2.311-0.604-3.228c-0.6-0.917-1.438-1.565-2.517-1.941    c-0.795-0.284-2.427-0.622-4.895-1.012L244.852,43.462z"/>
	</g>
	<g>
		<path d="M270.907,60.177c1.424-3.197,3.097-5.668,5.02-7.412c1.425-1.28,3.038-2.281,4.838-3.002    c1.801-0.721,3.572-1.061,5.316-1.02c2.323,0.043,4.763,0.632,7.318,1.771c4.625,2.059,7.686,5.14,9.185,9.246    s1.111,8.713-1.163,13.823c-2.257,5.067-5.399,8.419-9.429,10.054c-4.029,1.636-8.349,1.427-12.958-0.626    c-4.668-2.078-7.745-5.154-9.232-9.229C268.314,69.708,268.683,65.173,270.907,60.177z M277.533,62.87    c-1.583,3.554-1.961,6.614-1.136,9.179c0.824,2.565,2.5,4.41,5.027,5.535c2.525,1.124,5.003,1.137,7.435,0.039    c2.43-1.099,4.455-3.468,6.076-7.108c1.602-3.597,2.007-6.631,1.219-9.103c-0.79-2.473-2.489-4.291-5.102-5.453    c-2.612-1.163-5.118-1.205-7.513-0.125C281.144,56.913,279.141,59.259,277.533,62.87z"/>
	</g>
	<g>
		<path d="M299.319,92.358l21.153-27.075l11.507,8.989c2.893,2.26,4.806,4.146,5.737,5.657c0.93,1.511,1.304,3.196,1.121,5.055    c-0.184,1.859-0.901,3.589-2.152,5.19c-1.587,2.031-3.494,3.242-5.723,3.633c-2.229,0.39-4.665-0.17-7.311-1.681    c0.643,1.613,1.026,3.132,1.153,4.559c0.124,1.426,0.016,3.701-0.323,6.826l-0.821,7.865l-6.537-5.108l0.651-8.979    c0.24-3.202,0.316-5.279,0.228-6.231c-0.089-0.952-0.343-1.755-0.764-2.411c-0.42-0.656-1.258-1.474-2.514-2.455l-1.108-0.866    l-8.831,11.303L299.319,92.358z M316.993,81.004l4.045,3.16c2.623,2.049,4.347,3.217,5.173,3.505    c0.825,0.288,1.635,0.306,2.428,0.053c0.793-0.253,1.507-0.786,2.142-1.599c0.712-0.911,1.042-1.837,0.994-2.777    c-0.049-0.941-0.458-1.831-1.229-2.671c-0.396-0.408-1.7-1.478-3.917-3.209l-4.267-3.333L316.993,81.004z"/>
	</g>
	<g>
		<path d="M330.902,120.272l21.545-18.728l-6.688-7.694l4.387-3.813l17.912,20.606l-4.387,3.813l-6.673-7.677l-21.544,18.728    L330.902,120.272z"/>
	</g>
	<g>
		<path d="M350.278,129.378l5.585-3.49l6.856,10.972l-5.585,3.49L350.278,129.378z"/>
	</g>
	<g>
		<path d="M372.392,162.752l1.031,6.98c-3.822,0.717-7.078,0.396-9.765-0.96c-2.688-1.359-4.841-3.694-6.456-7.008    c-2-4.101-2.243-8.155-0.729-12.161c1.513-4.007,4.699-7.196,9.559-9.565c5.141-2.507,9.779-3.127,13.918-1.859    c4.138,1.267,7.262,4.064,9.371,8.389c1.842,3.777,2.223,7.391,1.141,10.838c-0.635,2.048-2.018,4.026-4.146,5.934l-4.484-5.452    c1.422-1.147,2.314-2.524,2.677-4.134c0.361-1.611,0.138-3.246-0.67-4.902c-1.116-2.29-2.844-3.746-5.183-4.37    c-2.338-0.624-5.347-0.038-9.025,1.756c-3.904,1.904-6.343,3.962-7.314,6.175c-0.973,2.212-0.91,4.442,0.186,6.689    c0.808,1.656,2.029,2.825,3.665,3.506C367.802,163.286,369.876,163.335,372.392,162.752z"/>
	</g>
	<g>
		<path d="M364.533,180.68l33.561-5.917l1.205,6.832l-27.859,4.912l2.995,16.987l-5.701,1.005L364.533,180.68z"/>
	</g>
	<g>
		<path d="M403.574,209.3v6.938h-18.607c-2.953,0-4.867,0.085-5.742,0.258c-1.406,0.296-2.535,1.003-3.387,2.121    c-0.852,1.117-1.277,2.645-1.277,4.582c0,1.969,0.402,3.452,1.207,4.453c0.805,0.999,1.793,1.601,2.965,1.805    c1.172,0.202,3.117,0.305,5.836,0.305h19.006v6.937h-18.045c-4.125,0-7.039-0.188-8.742-0.563s-3.141-1.066-4.313-2.074    s-2.105-2.354-2.801-4.042s-1.043-3.891-1.043-6.609c0-3.282,0.379-5.77,1.137-7.465c0.758-1.696,1.742-3.035,2.953-4.02    s2.48-1.633,3.809-1.945c1.969-0.454,4.875-0.68,8.719-0.68H403.574z"/>
	</g>
	<g>
		<path d="M401.374,253.747l-3.785,13.201c-0.749,2.613-1.417,4.531-2.003,5.753s-1.37,2.241-2.352,3.056    c-0.982,0.816-2.145,1.397-3.486,1.744c-1.344,0.346-2.729,0.314-4.154-0.094c-1.548-0.444-2.848-1.268-3.899-2.472    c-1.054-1.204-1.698-2.612-1.934-4.225c-1.163,1.845-2.606,3.105-4.328,3.782c-1.721,0.677-3.536,0.741-5.443,0.194    c-1.502-0.431-2.863-1.198-4.081-2.304c-1.221-1.105-2.08-2.385-2.582-3.837s-0.597-3.093-0.283-4.921    c0.198-1.146,0.892-3.849,2.08-8.107l3.224-11.242L401.374,253.747z M380.831,255.073l-8.832-2.533l-1.77,6.174    c-0.689,2.402-1.059,3.946-1.108,4.631c-0.104,1.043,0.104,1.977,0.624,2.8s1.364,1.403,2.536,1.739    c0.991,0.284,1.901,0.285,2.73,0.003c0.827-0.283,1.531-0.833,2.107-1.651c0.574-0.818,1.298-2.744,2.168-5.778L380.831,255.073z     M393.965,258.839l-7.637-2.189l-1.253,4.37c-0.745,2.599-1.171,4.224-1.276,4.876c-0.191,1.181-0.055,2.19,0.411,3.032    c0.466,0.841,1.23,1.413,2.298,1.72c1.021,0.292,1.932,0.248,2.731-0.132s1.427-1.106,1.881-2.179    c0.265-0.641,0.847-2.529,1.747-5.668L393.965,258.839z"/>
	</g>
	<path fill-rule="evenodd" clip-rule="evenodd" stroke="#000000" stroke-width="4" stroke-miterlimit="2.6131" d="M67.811,293.231   c4.299,0,7.805,3.506,7.805,7.805s-3.506,7.805-7.805,7.805c-4.298,0-7.804-3.506-7.804-7.805S63.512,293.231,67.811,293.231   L67.811,293.231z"/>
	<path fill-rule="evenodd" clip-rule="evenodd" stroke="#000000" stroke-width="4" stroke-miterlimit="2.6131" d="M370.797,287.724   c4.299,0,7.805,3.506,7.805,7.803c0,4.299-3.506,7.805-7.805,7.805c-4.298,0-7.804-3.506-7.804-7.805   C362.993,291.229,366.499,287.724,370.797,287.724L370.797,287.724z"/>
	<path fill="none" stroke="#000000" stroke-width="7.9999" stroke-miterlimit="2.6131" d="M217.926,93.041   c69.797,0,126.724,56.925,126.724,126.722s-56.927,126.725-126.724,126.725S91.204,289.56,91.204,219.763   S148.129,93.041,217.926,93.041L217.926,93.041z"/>
</g>
</svg>
