<?xml version="1.0" encoding="UTF-8"?>
<!DOCTYPE svg PUBLIC "-//W3C//DTD SVG 1.1//EN" "http://www.w3.org/Graphics/SVG/1.1/DTD/svg11.dtd">
<!-- Creator: CorelDRAW -->
<svg xmlns="http://www.w3.org/2000/svg" xml:space="preserve" width="922px" height="1181px" style="shape-rendering:geometricPrecision; text-rendering:geometricPrecision; image-rendering:optimizeQuality; fill-rule:evenodd; clip-rule:evenodd" viewBox="0 0 922 1180.48" xmlns:xlink="http://www.w3.org/1999/xlink">
 <defs>
  <style type="text/css">
   <![CDATA[
    .fil0 {fill:white}
    .fil1 {fill:#005F9C}
    .fil2 {fill:#CA2720}
   ]]>
  </style>
 </defs>
 <g id="Ebene_x0020_1">
  <metadata id="CorelCorpID_0Corel-Layer"/>
  <g id="_74211136">
   <path id="_47223936" class="fil0" d="M125.772 320.423l0 -175.754 162.896 -130.455 344.663 0 162.896 130.455 0 175.754 111.544 296.287c-0.139297,25.1207 -0.364769,47.7576 -3.79761,72.7662 -32.8399,239.102 -227.203,398.588 -442.974,475.907 -215.786,-78.089 -410.098,-236.539 -442.974,-475.907 -3.43048,-24.9873 -3.6595,-47.5227 -3.79761,-72.7662l111.544 -296.287z"/>
   <path id="_48295312" class="fil1" d="M461 1060.99c0,0 -349.442,-121.221 -349.442,-442.927l0 -228.387 -88.4784 236.702 4.34064 61.7995 13.5484 65.23 21.0775 59.8588c12.9121,27.8086 26.4723,53.0816 42.5682,79.1561l33.5411 45.6847c17.5857,20.5404 35.3637,39.5627 54.6824,58.4599 29.7659,26.8737 59.8411,50.5542 92.9371,73.1593 44.5526,28.6185 90.4156,53.8005 139.844,72.9114l35.3814 12.6843 35.3814 -12.6843c49.428,-19.1108 95.291,-44.2929 139.844,-72.9114 33.096,-22.6051 63.1712,-46.2856 92.9371,-73.1593 19.3186,-18.8972 37.0967,-37.9195 54.6824,-58.4599l33.5411 -45.6847c16.0959,-26.0745 29.6561,-51.3475 42.5682,-79.1561l21.0775 -59.8588 13.5484 -65.23 4.34064 -61.7995 -88.4784 -236.702 0 228.387c0,321.705 -349.442,442.927 -349.442,442.927zm-349.442 -743.158l0 -179.995 172.119 -137.842 354.646 0 172.119 137.842 0 179.995 111.558 296.325 -0.225472 41.1528 -3.71026 36.1015 -6.02873 34.855 -8.17721 33.5269 -22.1022 62.7722c-13.513,29.1025 -27.7071,55.563 -44.5526,82.8534l-34.9883 47.6597c-18.2739,21.3443 -36.7508,41.1186 -56.8249,60.7559 -30.7717,27.7815 -61.862,52.2742 -96.0807,75.6442 -46.0577,29.5865 -93.4435,55.5665 -144.54,75.3148l-43.77 15.6851 -43.77 -15.6851c-51.096,-19.7483 -98.4818,-45.7284 -144.54,-75.3148 -34.2187,-23.37 -65.3091,-47.8627 -96.0807,-75.6442 -20.0741,-19.6373 -38.551,-39.4116 -56.8249,-60.7559l-34.9883 -47.6597c-16.8455,-27.2904 -31.0396,-53.7509 -44.5526,-82.8534l-22.1022 -62.7722 -8.17721 -33.5269 -6.02873 -34.855 -3.71026 -36.1015 -0.225472 -41.1528 111.558 -296.325zm669.27 -1.96196l0 -163.81 -152.902 -122.452 -333.852 0 -152.902 122.452 0 163.81 639.657 0zm-685.269 332.599l1.29145 12.2817 -39.3538 16.4807 41.9379 8.117 1.29145 12.2806 -50.8104 5.34051 -0.844046 -8.04027 41.978 -4.41265 -43.3013 -8.17603 -0.870016 -8.27755 40.6724 -16.8349 -41.978 4.41265 -0.823977 -7.83133 50.8104 -5.34051zm3.35021 80.3874l-23.3759 -1.60546 3.93101 14.6722 19.4449 -13.0668zm7.0711 -6.82319l2.47902 9.25263 -44.4912 31.3513 -2.35388 -8.78398 11.5817 -7.83487 -5.14573 -19.2017 -13.9226 -0.901889 -2.29722 -8.57857 54.15 4.69714zm11.4094 82.0282l-3.01968 -7.87146c2.59942,-1.68337 4.28515,-3.9015 5.06073,-6.63432 0.763773,-2.74108 0.540661,-5.69937 -0.690583,-8.90439 -1.82857,-4.76443 -4.83054,-7.86084 -9.00591,-9.28804 -4.17065,-1.41776 -9.13104,-1.02348 -14.8788,1.18166 -5.62618,2.16147 -9.56073,5.19295 -11.7812,9.08972 -2.21577,3.90622 -2.43652,8.15124 -0.671695,12.7492 1.49685,3.9015 3.9192,6.61189 7.27414,8.11464 3.34313,1.50748 7.07346,1.54525 11.1886,0.142838l-5.00997 -13.0538 6.57647 -2.52387 7.8207 20.3716 -25.744 9.88183 -2.01509 -5.25079 5.52466 -3.64297c-3.07752,-0.847587 -5.72416,-2.29132 -7.92222,-4.35244 -2.19452,-2.04932 -3.9074,-4.66409 -5.12566,-7.83605 -2.5286,-6.58828 -2.27951,-12.8094 0.760231,-18.6682 3.03974,-5.85874 8.3106,-10.2289 15.8055,-13.1057 7.63773,-2.93232 14.5341,-3.20737 20.6691,-0.833421 6.13733,2.37513 10.5276,7.00617 13.1718,13.8931 2.2016,5.73597 2.60415,10.9466 1.20055,15.619 -1.40123,4.67353 -4.46459,8.32123 -9.1877,10.9218zm19.1935 16.3839l-32.0619 17.0474 4.90137 9.21958c2.37867,4.47403 5.468,7.05693 9.26679,7.74633 3.79998,0.688222 8.50066,-0.458028 14.115,-3.44229 5.10087,-2.71157 8.4133,-5.84103 9.93967,-9.3754 1.52755,-3.53437 1.19937,-7.35559 -0.980982,-11.4542l-5.17996 -9.74135zm2.47311 -10.7837l9.26561 17.4275c3.5202,6.61661 4.2887,12.5781 2.29722,17.8867 -1.98085,5.30391 -6.68862,9.93967 -14.1434,13.9026 -7.29657,3.88143 -13.866,5.04066 -19.7164,3.49895 -5.85402,-1.5547 -10.5878,-5.74187 -14.213,-12.558l-8.59864 -16.1726 45.1086 -23.9851zm26.8076 45.4852l21.0126 30.0067 -6.13969 4.29814 -16.2163 -23.1599 -10.9313 7.65425 14.9603 21.3656 -5.85756 4.101 -14.9603 -21.3656 -12.6477 8.85599 16.7546 23.9272 -6.27663 4.39258 -21.5474 -30.7728 41.8493 -29.3031zm13.2486 63.922l-11.9559 10.393 8.76155 10.0778c2.16028,2.48492 4.26863,3.89914 6.34038,4.26273 2.08237,0.355325 4.13641,-0.348243 6.17393,-2.12015 2.02925,-1.76364 2.97718,-3.66776 2.84378,-5.73479 -0.123951,-2.07175 -1.367,-4.45869 -3.71852,-7.16671l-8.44518 -9.71184zm15.5481 -13.5177l-10.3115 8.96459 7.92222 9.11451c2.08946,2.40464 4.0585,3.78345 5.88707,4.13877 1.84037,0.345882 3.68783,-0.288038 5.55654,-1.91238 1.64323,-1.42838 2.38812,-3.04683 2.23584,-4.86241 -0.148741,-1.8144 -1.20645,-3.84365 -3.1637,-6.09602l-8.12645 -9.34707zm-0.0661071 -10.923l14.494 16.6743c3.50249,4.03017 5.31572,7.75696 5.43022,11.1544 0.113326,3.41632 -1.46498,6.54578 -4.72666,9.3813 -1.83093,1.59129 -3.84601,2.55811 -6.04171,2.88392 -2.1898,0.334077 -4.32057,-0.0247902 -6.39586,-1.0766 1.29145,2.76705 1.64441,5.41134 1.05653,7.92931 -0.596144,2.52505 -2.12723,4.86123 -4.585,6.99672 -3.50249,3.04565 -7.32254,4.26509 -11.4684,3.64769 -4.13523,-0.625656 -8.01312,-3.01141 -11.6407,-7.18442l-14.6805 -16.888 38.5581 -33.5186zm34.6791 38.8509l6.14087 5.93193 -22.068 22.8506c-3.0669,3.17668 -4.65701,6.18573 -4.74908,9.00827 -0.102702,2.83316 1.27846,5.63091 4.13996,8.39442 2.87802,2.77886 5.73243,4.06913 8.57621,3.86962 2.8426,-0.199502 5.79381,-1.87697 8.84536,-5.03712l22.0668 -22.8518 6.14205 5.93075 -22.4056 23.2c-4.49882,4.65937 -9.22902,7.03568 -14.2024,7.12304 -4.97102,0.0873558 -9.78267,-2.12487 -14.442,-6.62369 -4.76915,-4.60507 -7.20449,-9.327 -7.2883,-14.1481 -0.0849948,-4.82227 2.19216,-9.63392 6.83972,-14.4468l22.4044 -23.2012zm41.5141 47.5723l-9.67996 12.3904 9.59025 7.49371c2.80837,2.19334 5.21065,3.27348 7.19741,3.24869 1.99502,-0.034234 3.84838,-1.15451 5.56834,-3.35729 1.68337,-2.15556 2.30312,-4.18009 1.86752,-6.08185 -0.442681,-1.89586 -2.03279,-3.9192 -4.7845,-6.06886l-9.75906 -7.62474zm-2.17091 -10.8014l17.3543 13.559c0.531218,0.41553 1.09549,0.886543 1.71052,1.42602 0.180614,0.172351 0.295121,0.276233 0.332896,0.305745 3.55325,2.7765 5.56126,5.93901 6.02401,9.50171 0.462749,3.56034 -0.665793,7.08054 -3.38563,10.5618 -1.77781,2.27597 -3.8047,3.83185 -6.07123,4.67589 -2.27597,0.835782 -4.60625,0.894806 -7.00735,0.159365 1.2277,1.81676 1.76482,3.57214 1.59247,5.27204 -0.16999,1.69872 -1.19111,3.89087 -3.07516,6.55168l-4.14114 6.04998c-0.0141658,0.0188877 -0.0295121,0.036595 -0.0436779,0.0566632 -1.85808,2.58998 -2.49436,4.55667 -1.92655,5.88825l-0.917236 1.17458 -7.49135 -5.85284c0.125131,-0.75787 0.38956,-1.55706 0.792104,-2.4011 0.411989,-0.834602 1.18993,-2.05994 2.33972,-3.68665l3.53673 -4.98872c1.88051,-2.69386 2.68796,-4.84234 2.40701,-6.42773 -0.270331,-1.59483 -1.52164,-3.26286 -3.76102,-5.01233l-1.28673 -1.00577 -8.85363 -6.91881 -12.9393 16.5622 -6.64258 -5.19059 31.4528 -40.2604zm70.9636 71.0545l-6.90583 -4.83526c1.21354,-2.84969 1.37054,-5.63091 0.485179,-8.33185 -0.899528,-2.69858 -2.73872,-5.0265 -5.55181,-6.99436 -4.18009,-2.9276 -8.39914,-3.8165 -12.6607,-2.66435 -4.24974,1.15569 -8.14297,4.25682 -11.6726,9.29985 -3.45764,4.93678 -5.02178,9.65163 -4.68416,14.1233 0.347062,4.47757 2.53686,8.12173 6.57175,10.9454 3.4234,2.39756 6.94714,3.29001 10.5677,2.65963 3.61464,-0.619754 6.72876,-2.67379 9.35769,-6.13851l-11.4554 -8.0202 4.04079 -5.77138 17.8749 12.5167 -15.8161 22.5885 -4.60625 -3.22626 2.54276 -6.11018c-3.02558,1.01876 -6.02637,1.30089 -9.00119,0.822797 -2.96537,-0.472193 -5.84811,-1.68219 -8.63169,-3.63117 -5.77965,-4.0467 -9.05313,-9.34471 -9.80864,-15.9023 -0.75669,-6.5564 1.17104,-13.127 5.77492,-19.7023 4.6936,-6.70278 10.2549,-10.7861 16.6708,-12.2487 6.41475,-1.46262 12.643,-0.0790924 18.6859,4.15176 5.03476,3.52492 8.28109,7.61884 9.73072,12.277 1.45081,4.65819 0.95265,9.39665 -1.50866,14.1918zm21.9369 -6.75591l31.7243 18.3164 -3.74803 6.4903 -24.4844 -14.1363 -6.67209 11.5558 22.5885 13.0408 -3.57568 6.194 -22.5885 -13.042 -7.71918 13.3713 25.2942 14.6049 -3.82949 6.63314 -32.5353 -18.7839 25.5457 -44.2445zm48.1248 33.3062l-6.39586 14.3653 11.119 4.95095c3.25577,1.44963 5.84575,1.91474 7.76994,1.41186 1.92773,-0.517052 3.45409,-2.05286 4.58972,-4.60625 1.1132,-2.4979 1.22534,-4.61215 0.34116,-6.35336 -0.888904,-1.73059 -2.92052,-3.31008 -6.11018,-4.7302l-11.3138 -5.0383zm-4.71839 -9.95384l20.1166 8.95633c0.617393,0.275053 1.27846,0.596144 2.00446,0.970357 0.218389,0.123951 0.354145,0.197141 0.396642,0.216028 4.12107,1.83447 6.835,4.41737 8.14534,7.76168 1.31034,3.34313 1.06716,7.03214 -0.729539,11.0682 -1.1734,2.6372 -2.76351,4.63812 -4.76089,6.0063 -2.00564,1.3611 -4.25092,1.98085 -6.75945,1.84982 1.63025,1.46498 2.57581,3.03738 2.82136,4.72902 0.24318,1.68927 -0.216028,4.0644 -1.40005,7.10179l-2.55457 6.87159c-0.00944387,0.0224292 -0.0188877,0.0436779 -0.0283316,0.0649266 -1.17576,2.96419 -1.3186,5.02532 -0.443862,6.17983l-0.606768 1.36228 -8.686 -3.86726c-0.0602047,-0.764953 0.00236097,-1.60546 0.188877,-2.52033 0.198321,-0.910153 0.655168,-2.28778 1.37762,-4.1435l2.22639 -5.69701c1.17104,-3.06808 1.43547,-5.34877 0.780299,-6.81847 -0.649266,-1.48151 -2.26771,-2.79893 -4.86241,-3.95462l-1.49213 -0.664612 -10.2643 -4.56965 -8.54788 19.1994 -7.70265 -3.4293 20.7812 -46.6728zm414.884 -337.167l1.25485 -8.9339 41.1611 -18.2479 -37.8475 -5.31926 1.14271 -8.13825 50.5932 7.11123 -1.24541 8.86425 -41.18 18.3872 37.8475 5.31926 -1.13326 8.06624 -50.5932 -7.10887zm-7.16908 20.8072l2.20986 -8.24568 49.3489 13.2238 -2.20986 8.24568 -49.3489 -13.2238zm-16.7286 48.0551l11.9264 -34.6366 7.08644 2.44006 -9.20423 26.732 12.6158 4.34536 8.4924 -24.6615 6.76181 2.32791 -8.4924 24.6603 14.599 5.02768 9.50879 -27.6174 7.24345 2.49436 -12.231 35.5207 -48.3066 -16.633zm-12.8531 41.2709l14.1327 6.89284 5.3346 -10.9395c1.56296,-3.20265 2.12015,-5.77729 1.68219,-7.71564 -0.448584,-1.94426 -1.93009,-3.52374 -4.44216,-4.74908 -2.45777,-1.19937 -4.56729,-1.38353 -6.33802,-0.56191 -1.76128,0.828699 -3.40924,2.80247 -4.94032,5.94255l-5.42904 11.1308zm-10.1144 4.36779l9.65399 -19.7932c0.296301,-0.606768 0.639822,-1.25721 1.04119,-1.97023 0.129853,-0.212487 0.207765,-0.345882 0.227833,-0.388379 1.97849,-4.05496 4.65347,-6.67445 8.04145,-7.8691 3.38681,-1.19229 7.06519,-0.820436 11.0363,1.11674 2.5947,1.2643 4.53896,2.92406 5.83631,4.96629 1.29027,2.05168 1.83093,4.31939 1.61254,6.82083 1.52164,-1.57831 3.12592,-2.46721 4.82464,-2.65373 1.69754,-0.185336 4.05378,0.356506 7.04867,1.64559l6.77952 2.79302c0.0212487,0.0106244 0.0424974,0.0200682 0.0637461,0.0306926 2.91934,1.27964 4.97456,1.49331 6.15976,0.65989l1.33985 0.653988 -4.16829 8.54552c-0.767314,0.0330535 -1.60428,-0.0578437 -2.51207,-0.277414 -0.90307,-0.230194 -2.26299,-0.734261 -4.09274,-1.52046l-5.61556 -2.42353c-3.02676,-1.27846 -5.29447,-1.62198 -6.78778,-1.01876 -1.50276,0.596144 -2.87566,2.16737 -4.12225,4.72193l-0.715373 1.46852 -4.92498 10.0979 18.8889 9.21367 -3.69609 7.57634 -45.9196 -22.3961zm-27.2172 39.6513l19.9513 -30.7221 6.28607 4.08211 -15.3982 23.7112 11.1898 7.26706 14.2071 -21.8744 5.99686 3.89441 -14.2048 21.8744 12.9475 8.40858 15.9082 -24.4962 6.42419 4.17301 -20.4601 31.5071 -42.848 -27.8252zm-32.9532 40.7031l5.75958 -7.11123 39.8059 15.6579 -23.6002 -35.6707 5.7159 -7.05811 28.5724 45.8984 -5.37356 6.63432 -50.88 -18.3506zm-31.454 31.7314l27.7343 -28.7188 5.39009 5.20593 -10.8888 11.276 31.3595 30.2841 -5.87999 6.08893 -31.3607 -30.2829 -10.9631 11.3527 -5.39127 -5.20593zm-25.1171 31.415l10.3162 11.8674 9.18652 -7.98597c2.68796,-2.33618 4.20606,-4.48938 4.56257,-6.44426 0.345882,-1.9655 -0.400184,-3.9983 -2.23465,-6.10664 -1.79433,-2.06467 -3.66304,-3.05981 -5.61438,-2.99489 -1.94426,0.0743705 -4.23321,1.24895 -6.86923,3.54027l-9.34707 8.12409zm-11.0151 0.068468l16.6188 -14.4468c0.511149,-0.442681 1.08014,-0.906611 1.72705,-1.40714 0.204224,-0.144019 0.326994,-0.236097 0.362408,-0.26797 3.40451,-2.95947 6.89166,-4.32647 10.4768,-4.101 3.58395,0.225472 6.82555,2.00446 9.72246,5.33815 1.89468,2.17917 3.0362,4.46577 3.43167,6.85271 0.387199,2.39402 -0.00118048,4.69124 -1.1793,6.90819 2.01509,-0.857031 3.84129,-1.04945 5.47744,-0.557188 1.63497,0.492262 3.59221,1.91356 5.84457,4.26981l5.14809 5.21892c0.0165268,0.0177073 0.0330535,0.0354145 0.0483998,0.0531218 2.18744,2.31847 3.99594,3.31834 5.41134,3.01495l0.978621 1.125 -7.17498 6.23649c-0.720095,-0.266789 -1.45436,-0.679958 -2.20514,-1.23479 -0.741344,-0.565452 -1.79552,-1.56178 -3.17196,-2.99961l-4.22377 -4.42563c-2.28542,-2.35861 -4.2403,-3.56152 -5.8493,-3.58867 -1.61726,-0.038956 -3.49423,0.871197 -5.63917,2.73518l-1.23361 1.07188 -8.47823 7.37094 13.788 15.861 -6.36281 5.53175 -33.5175 -38.5593zm-26.6282 27.8287c-3.97115,2.99371 -6.03817,6.7016 -6.20462,11.1261 -0.174712,4.43035 1.59483,9.10035 5.29329,14.0076 3.69019,4.90019 7.68613,7.87737 12.0008,8.9398 4.30522,1.07188 8.44636,0.114507 12.4175,-2.87802 3.9617,-2.98662 6.01456,-6.6957 6.17157,-11.1296 0.167629,-4.4398 -1.59483,-9.10153 -5.2862,-13.9994 -3.69727,-4.90727 -7.70029,-7.89625 -11.989,-8.96341 -4.29578,-1.06125 -8.42157,-0.101522 -12.4033,2.89691zm-4.4457 -5.90006c6.0606,-4.56729 12.2829,-6.24594 18.6587,-5.04657 6.37343,1.20173 12.0775,5.13038 17.1005,11.7978 5.03122,6.67563 7.23636,13.2415 6.63314,19.6999 -0.603227,6.45842 -3.93219,11.9772 -9.99279,16.5445 -6.07123,4.57555 -12.2959,6.26955 -18.6634,5.07962 -6.37461,-1.20173 -12.0787,-5.13038 -17.1229,-11.8249 -5.0383,-6.68626 -7.24345,-13.2521 -6.64022,-19.7105 0.61031,-6.44898 3.95698,-11.9654 10.027,-16.5398zm-48.4506 40.912l8.30706 13.8235 9.45685 -5.68285c2.94413,-1.76836 4.73138,-3.57568 5.34995,-5.39599 0.61149,-1.83211 0.191238,-3.9558 -1.27728,-6.40176 -1.43901,-2.3952 -3.12238,-3.77282 -5.04893,-4.15058 -1.91829,-0.36595 -4.22259,0.258526 -6.91291,1.87579l-9.87474 5.93193zm-11.0918 -1.9537l16.685 -10.0247c2.69032,-1.61608 4.76207,-2.69622 6.21288,-3.22154 1.44609,-0.5383 2.86267,-0.821616 4.22967,-0.871197 2.65609,-0.131034 5.08788,0.493442 7.3367,1.88995 2.23229,1.39415 4.20252,3.49777 5.89179,6.30968 1.39651,2.32437 2.21341,4.6511 2.46603,7.00027 0.24318,2.33736 -0.0779119,4.60507 -0.97744,6.78778 -0.622115,1.49449 -1.57476,2.85205 -2.8426,4.09746 -1.27846,1.25249 -3.21918,2.66671 -5.83631,4.2403l-9.9255 5.96262 10.3599 17.2433 -7.28594 4.37841 -26.3142 -43.7924zm-5.67458 20.2311l-7.31427 3.44937c-1.39297,-2.53804 -3.33605,-4.12815 -5.84457,-4.77387 -2.50853,-0.644544 -5.27912,-0.253804 -8.31651,1.1616 -2.51089,1.17104 -4.28515,2.71747 -5.32752,4.62631 -1.05417,1.9171 -1.1675,3.74567 -0.356506,5.48335 0.820436,1.75892 2.19452,2.88392 4.11989,3.34431 1.93009,0.471013 5.40071,0.237277 10.4225,-0.705929 7.61412,-1.46026 12.9275,-1.66566 15.9542,-0.63392 3.02322,1.04709 5.37592,3.37264 7.05693,6.97784 2.03161,4.35716 2.03279,8.61517 0.00590242,12.7882 -2.01627,4.16593 -5.7525,7.52676 -11.204,10.0695 -5.73951,2.67734 -10.8498,3.375 -15.338,2.09654 -4.48348,-1.26666 -8.0627,-4.45751 -10.7093,-9.54657l7.47954 -3.48715c1.61018,2.89336 3.82241,4.69714 6.63786,5.41016 2.80955,0.702388 5.97325,0.231375 9.47102,-1.39887 2.63956,-1.23242 4.50709,-2.88628 5.59667,-4.94977 1.09077,-2.06112 1.20763,-4.02309 0.336438,-5.89179 -0.345882,-0.738983 -0.965635,-1.45554 -1.87461,-2.16855 -0.907792,-0.713012 -1.88287,-1.23833 -2.93468,-1.55942 -1.73295,-0.548925 -4.93206,-0.351784 -9.60795,0.576076 -1.01049,0.184155 -1.76246,0.337618 -2.27361,0.445042 -5.80798,1.05063 -10.2726,1.0282 -13.3938,-0.0897167 -3.11648,-1.10729 -5.52584,-3.4718 -7.21748,-7.09943 -1.80024,-3.86254 -1.69517,-7.72626 0.306926,-11.6124 2.008,-3.87671 5.60612,-7.02978 10.8002,-9.45213 5.05483,-2.35624 9.7083,-2.90753 13.9486,-1.6574 4.24148,1.24895 7.43114,4.11044 9.57608,8.59864z"/>
   <path id="_70939992" class="fil2" d="M780.828 329.921l-561.554 519.338c60.5942,81.1169 149.763,142.899 241.725,180.024 152.004,-61.3615 292.972,-188.098 316.163,-357.269 2.51325,-18.3341 3.03856,-35.9977 3.6654,-54.4498l0 -287.644z"/>
   <path id="_74779624" class="fil0" d="M661.283 669.284l0 -235.763 90.1488 0 0 45.5832 -49.8565 0 0 46.8569 44.0013 0 0 44.9941 -44.0013 0 0 52.7452 51.377 0 0 45.5832 -91.6693 0zm-123.252 -235.763l49.8565 0c21.5001,0 35.9941,4.56257 43.4819,13.7385 7.48663,9.12632 11.2299,25.8573 11.2299,50.0962l0 108.387c0,12.9534 -1.14861,23.2579 -3.40924,30.9121 -2.29722,7.65307 -6.04171,14.3275 -11.2311,19.9691 -4.37487,4.61333 -9.63865,7.85139 -15.8657,9.76496 -6.22823,1.91356 -16.6802,2.89455 -31.3973,2.89455l-5.74541 0 -36.9196 0 0 -235.763zm45.4085 40.2344l-5.11621 0 0 155.146 5.11621 0c7.78411,0 12.8248,-1.52046 15.05,-4.51417 2.26063,-3.04211 3.37264,-8.8796 3.37264,-17.4664l0 -111.036c0,-8.63642 -1.11202,-14.4763 -3.37264,-17.5172 -2.22521,-3.09051 -7.26588,-4.61215 -15.05,-4.61215zm-167.474 -40.2344l0 235.763 39.8472 0 0.19478 -102.724c0.197141,0.657529 8.82057,9.84995 27.3943,102.813l36.6269 0c-2.93822,-24.5434 -24.5446,-106.136 -24.011,-105.804 8.28109,-4.25564 13.8778,-10.681 17.326,-18.8842 3.44701,-8.25984 5.15163,-19.5582 5.15163,-33.8988l0 -15.7736c0,-20.7069 -3.70672,-36.137 -11.0836,-46.2891 -7.37566,-10.1533 -18.6446,-15.2011 -33.7689,-15.2011l-57.6772 0zm39.8472 103.181c8.9339,-0.449764 14.9756,-2.36687 18.1641,-5.80562 3.18731,-3.37972 4.78214,-9.41317 4.78214,-18.1488l0 -15.3321c0,-9.01771 -1.52046,-15.2743 -4.52243,-18.7697 -3.00197,-3.43875 -8.6376,-5.18586 -16.9033,-5.18586l-1.52046 0 0 63.242zm-146.342 -112.911l0 -29.093 26.5042 0 0 29.093 -26.5042 0zm43.1785 0l0 -29.093 26.5042 0 0 29.093 -26.5042 0zm-61.4194 79.1585c0,-24.1409 4.44806,-42.2955 13.3442,-54.464 8.9339,-12.1684 22.1671,-18.2515 39.7374,-18.2515 17.7557,0 31.0266,6.03463 39.8106,18.1039 8.78634,12.0704 13.1966,30.2735 13.1966,54.6115l0 96.9047c0,24.2389 -4.41029,42.4927 -13.2332,54.7083 -8.85953,12.218 -22.0916,18.3022 -39.774,18.3022 -17.4959,0 -30.7292,-6.13261 -39.6631,-18.399 -8.93272,-12.2676 -13.4186,-30.4706 -13.4186,-54.6115l0 -96.9047zm40.7385 -8.63642l0 114.325c0,7.65425 0.963274,13.1978 2.9276,16.6814 1.9655,3.43521 5.07844,5.15163 9.41554,5.15163 4.29932,0 7.37684,-1.71642 9.34235,-5.15163 1.96314,-3.48361 2.9276,-9.02716 2.9276,-16.6814l0 -114.325c0,-7.65307 -1.00105,-13.2486 -2.96537,-16.731 -2.0021,-3.48361 -5.15163,-5.25079 -9.48991,-5.25079 -4.18835,0 -7.26469,1.76718 -9.2302,5.25079 -1.96432,3.48243 -2.9276,9.07792 -2.9276,16.731zm-158.912 174.97l0 -235.763 52.2281 0c15.7547,0 27.5808,4.02309 35.4369,12.0209 7.85966,7.99777 11.7895,20.0186 11.7895,36.1133l0 18.2515c0,11.433 -1.63143,20.6573 -4.93088,27.7721 -3.29827,7.11477 -8.56323,12.7079 -15.7913,16.8302 8.52663,3.63117 14.7525,8.97876 18.6091,16.0935 3.89205,7.06519 5.8186,16.535 5.8186,28.3104l0 20.5593c0,20.3138 -4.26273,35.3767 -12.8248,45.1405 -8.52545,9.76496 -21.6855,14.671 -39.4034,14.671l-50.932 0zm39.8472 -39.5474c9.34235,-0.279775 15.5316,-1.96314 18.5725,-5.13864 3.03856,-3.12946 4.55903,-9.25145 4.55903,-18.2668l0 -14.9048c0,-8.7828 -1.66802,-14.8564 -5.00407,-18.3601 -3.33723,-3.45764 -9.37776,-5.18586 -18.1275,-5.18586l0 61.8561zm0 -95.6864c8.19255,-0.43914 13.716,-2.35743 16.646,-5.8127 2.92642,-3.39979 4.41029,-9.37658 4.41029,-17.9847l0 -16.3934c0,-7.5669 -1.52046,-12.8862 -4.52361,-15.9023 -3.00197,-3.01495 -8.48768,-4.49646 -16.5327,-4.49646l0 60.5895zm138.961 289.77l0 -57.6418c-1.17222,1.62553 -2.42943,3.15661 -3.73505,4.57909 -1.3068,1.40832 -2.6797,2.73872 -4.11989,3.97705l0 -12.192c2.12605,-1.71642 3.95226,-3.29355 5.47626,-4.70187 1.524,-1.42366 2.84851,-2.78594 4.00302,-4.08447l9.41554 0 0 70.064 -11.0399 0zm35.8796 -56.5121l0 19.2135c0,2.21223 0.200682,3.65124 0.5867,4.33237 0.384838,0.681139 1.05535,1.02112 2.00918,1.02112 0.955011,0 1.62435,-0.371852 2.00918,-1.11438 0.386018,-0.742524 0.587881,-2.15084 0.587881,-4.23912l0 -19.2135c0,-2.05758 -0.185336,-3.45055 -0.571354,-4.1919 -0.368311,-0.742524 -1.05417,-1.11438 -2.02571,-1.11438 -0.970357,0 -1.6574,0.34116 -2.02571,1.03646 -0.386018,0.696485 -0.570173,2.11897 -0.570173,4.26981zm-11.4908 2.13431c0,-5.78555 1.12264,-9.97863 3.36674,-12.6076 2.24528,-2.63012 5.77965,-3.94518 10.6196,-3.94518 4.90727,0 8.47587,1.29971 10.72,3.91448 2.2441,2.61359 3.36674,6.82201 3.36674,12.6383l0 38.8001c0,5.70882 -1.12264,9.87002 -3.38327,12.4836 -2.26063,2.61477 -5.83041,3.91448 -10.7034,3.91448 -4.48938,0 -7.93993,-1.16042 -10.3517,-3.49541 -2.42825,-2.32083 -3.63471,-5.64743 -3.63471,-9.96328l0 -5.43022 11.0045 0 0 4.34772c0,2.31965 0.201863,3.86726 0.603227,4.62513 0.419072,0.75787 1.13917,1.12854 2.17799,1.12854 1.08841,0 1.84273,-0.417891 2.26063,-1.25249 0.419072,-0.820436 0.637461,-2.32083 0.637461,-4.50118l0 -12.6548c-1.20763,0.973899 -2.41291,1.68573 -3.60047,2.13431 -1.20763,0.448584 -2.43062,0.681139 -3.70318,0.681139 -3.04919,0 -5.3771,-1.00577 -6.96957,-3.03266 -1.60546,-2.02689 -2.41055,-4.94977 -2.41055,-8.75565l0 -19.0294zm38.9949 33.1232l8.928 0 0 -32.2248 -8.928 32.2248zm8.928 21.2546l0 -11.9571 -15.1598 0 0 -11.2476 13.2497 -46.8593 12.9475 0 0 48.8094 4.03843 0 0 9.29749 -4.03843 0 0 11.9571 -11.0375 0zm31.474 -56.5121l0 19.2135c0,2.21223 0.201863,3.65124 0.5867,4.33237 0.383657,0.681139 1.05535,1.02112 2.00918,1.02112 0.956192,0 1.62553,-0.371852 2.01036,-1.11438 0.386018,-0.742524 0.587881,-2.15084 0.587881,-4.23912l0 -19.2135c0,-2.05758 -0.185336,-3.45055 -0.571354,-4.1919 -0.368311,-0.742524 -1.05417,-1.11438 -2.02689,-1.11438 -0.970357,0 -1.65858,0.34116 -2.02689,1.03646 -0.383657,0.696485 -0.568993,2.11897 -0.568993,4.26981zm-11.4908 2.13431c0,-5.78555 1.12264,-9.97863 3.36792,-12.6076 2.24292,-2.63012 5.77965,-3.94518 10.6196,-3.94518 4.90609,0 8.47469,1.29971 10.7188,3.91448 2.2441,2.61359 3.36674,6.82201 3.36674,12.6383l0 38.8001c0,5.70882 -1.12264,9.87002 -3.38327,12.4836 -2.26181,2.61477 -5.82923,3.91448 -10.7023,3.91448 -4.48938,0 -7.93993,-1.16042 -10.3517,-3.49541 -2.42943,-2.32083 -3.63589,-5.64743 -3.63589,-9.96328l0 -5.43022 11.0045 0 0 4.34772c0,2.31965 0.201863,3.86726 0.603227,4.62513 0.419072,0.75787 1.13917,1.12854 2.17799,1.12854 1.08841,0 1.84273,-0.417891 2.26181,-1.25249 0.419072,-0.820436 0.637461,-2.32083 0.637461,-4.50118l0 -12.6548c-1.20763,0.973899 -2.41291,1.68573 -3.60284,2.13431 -1.20527,0.448584 -2.42825,0.681139 -3.702,0.681139 -3.04919,0 -5.37592,-1.00577 -6.96839,-3.03266 -1.60782,-2.02689 -2.41173,-4.94977 -2.41173,-8.75565l0 -19.0294zm66.5344 18.3329l0 -11.093c0,-1.67038 -0.185336,-2.76941 -0.53712,-3.29473 -0.369491,-0.526496 -1.0223,-0.789743 -1.9596,-0.789743 -0.989245,0 -1.67511,0.29394 -2.06112,0.883002 -0.384838,0.587881 -0.58552,1.65504 -0.58552,3.20147l0 11.093 5.14337 0zm10.7518 7.25525l-15.8952 0 0 17.4664c0,1.51574 0.200682,2.56755 0.58552,3.17078 0.386018,0.604407 1.07188,0.912514 2.06112,0.912514 0.937304,0 1.59011,-0.262067 1.9596,-0.788563 0.351784,-0.540661 0.53712,-1.62435 0.53712,-3.29473l0 -8.16894 10.7518 0 0 6.57529c0,4.59444 -1.10493,8.02847 -3.31716,10.3186 -2.20986,2.27479 -5.50932,3.41868 -9.93141,3.41868 -4.45632,0 -7.7723,-1.14389 -9.98335,-3.41868 -2.21105,-2.29014 -3.31598,-5.72416 -3.31598,-10.3186l0 -32.2862c0,-4.57909 1.10493,-8.01312 3.31598,-10.3033 2.21105,-2.27479 5.52702,-3.41986 9.98335,-3.41986 4.42209,0 7.72154,1.14507 9.93141,3.41986 2.21223,2.29014 3.31716,5.72416 3.31716,10.3033l0 16.4134zm5.19295 28.7896l0 -11.8804 11.9772 0 0 11.8804 -11.9772 0zm26.2646 0l-11.7753 -72.6021 12.9475 0 5.15989 56.6526 5.10913 -56.6526 12.9475 0 -11.7246 72.6021 -12.6642 0zm23.3995 0l0 -11.8804 11.9772 0 0 11.8804 -11.9772 0z"/>
   <path id="_74217832" class="fil1" d="M413.43 270.044l0 -186.071 -28.8758 0 -20.6526 98.0096 -3.31362 15.39 -4.55667 23.4338 -2.01272 13.1104 -0.649266 3.53437 -0.355325 -3.25459 -2.18862 -13.8093c-0.888904,-7.34497 -3.37264,-20.5038 -7.51614,-39.5202l-21.3608 -96.8941 -29.1733 0 0 186.071 19.6456 0 0 -98.8017c0,-11.0186 -0.118048,-21.4329 -0.296301,-31.2439 -0.236097,-8.601 -0.355325,-14.0418 -0.355325,-16.2269 -0.237277,-1.25485 -0.354145,-3.30063 -0.354145,-6.09011 2.01154,12.9712 4.31821,25.9907 6.92235,39.1012l2.66317 13.3442 21.0067 99.9173 21.0055 0 21.7174 -103.311c0.41435,-3.16133 1.18402,-7.25289 2.30784,-12.2747 1.48033,-7.25289 2.54394,-12.9251 3.19557,-17.0167 0.474554,-1.99974 0.888904,-4.13759 1.3611,-6.41593 0.473374,-1.81322 0.769675,-3.859 1.00577,-6.13851l1.00577 -7.20567 0 6.92708 -0.354145 10.6468c-0.472193,13.716 -0.70947,24.2247 -0.70947,31.4776l0 103.311 20.8875 0zm18.7555 -42.9141c2.30666,29.8957 17.5739,45.0059 45.6812,45.3778 33.0193,-0.558369 49.7066,-18.7378 50.18,-54.6304 0,-23.0619 -11.1261,-41.0088 -33.3156,-53.7946l-12.8401 -7.48544c-14.2024,-8.4617 -21.3608,-20.0859 -21.3608,-34.8715 0,-14.3665 6.44898,-21.6194 19.4083,-21.8047 11.6561,-0.186516 18.8759,7.81008 21.7162,23.9898l0 1.90648 23.0784 -3.30063c-3.25459,-26.4086 -17.9304,-39.7988 -44.0261,-40.1707 -28.8758,0.557188 -43.5504,15.1574 -44.0249,43.8904 -0.234916,12.3667 3.72797,23.3405 11.8355,33.011 3.25341,4.09156 6.7441,7.43941 10.4732,10.0896 3.37264,2.69622 9.76378,6.69452 19.2313,11.9949 6.50919,3.7197 11.3622,7.25407 14.4975,10.6007 3.25577,3.30181 5.85756,7.53148 7.75223,12.833 1.77427,5.34641 2.72101,10.8321 2.72101,16.5055 -0.237277,22.0845 -8.28345,33.1964 -24.2011,33.3829 -6.98374,0 -12.6642,-2.78948 -17.0415,-8.32241 -4.37959,-5.34759 -6.80549,-12.6465 -7.27886,-21.8059l-22.4858 2.60415zm161.836 42.9141l37.753 -186.071 -23.9071 0 -17.6919 98.2894c-0.70947,4.04552 -2.12959,13.297 -4.32175,27.6646 -0.946748,7.25289 -1.59483,13.0184 -2.06939,17.2953l-0.355325 2.976 -0.354145 -2.69622c-0.947928,-7.11477 -1.7176,-12.9723 -2.42825,-17.575 -1.71524,-9.90426 -2.72101,-15.7618 -2.95829,-17.6223 -0.70947,-5.81152 -1.12382,-9.53122 -1.3611,-11.1579l-16.9824 -97.1738 -25.6814 0 37.2797 186.071 23.0784 0z"/>
  </g>
 </g>
</svg>