<?xml version="1.0" encoding="UTF-8" standalone="no"?>
<!DOCTYPE svg PUBLIC "-//W3C//DTD SVG 1.1//EN" "http://www.w3.org/Graphics/SVG/1.1/DTD/svg11.dtd">
<svg
   xmlns:dc="http://purl.org/dc/elements/1.1/"
   xmlns:cc="http://creativecommons.org/ns#"
   xmlns:rdf="http://www.w3.org/1999/02/22-rdf-syntax-ns#"
   xmlns:svg="http://www.w3.org/2000/svg"
   xmlns="http://www.w3.org/2000/svg"
   viewBox="0 0 1440 1440"
   height="1440"
   width="1440"
   xml:space="preserve"
   id="svg2"
   version="1.1"><metadata
     id="metadata8"><rdf:RDF><cc:Work
         rdf:about=""><dc:format>image/svg+xml</dc:format><dc:type
           rdf:resource="http://purl.org/dc/dcmitype/StillImage" /></cc:Work></rdf:RDF></metadata><defs
     id="defs6"><clipPath
       id="clipPath18"
       clipPathUnits="userSpaceOnUse"><path
         id="path16"
         d="m 489.916,325.255 h 100.168 v 47.972 H 489.916 Z" /></clipPath><linearGradient
       id="linearGradient48"
       spreadMethod="pad"
       gradientTransform="matrix(0,55.311573,55.311573,0,187.06734,93.299828)"
       gradientUnits="userSpaceOnUse"
       y2="0"
       x2="1"
       y1="0"
       x1="0"><stop
         id="stop44"
         offset="0"
         style="stop-opacity:1;stop-color:#001482" /><stop
         id="stop46"
         offset="1"
         style="stop-opacity:1;stop-color:#007749" /></linearGradient><linearGradient
       id="linearGradient68"
       spreadMethod="pad"
       gradientTransform="matrix(0,55.311573,55.311573,0,240.90726,93.299828)"
       gradientUnits="userSpaceOnUse"
       y2="0"
       x2="1"
       y1="0"
       x1="0"><stop
         id="stop64"
         offset="0"
         style="stop-opacity:1;stop-color:#001482" /><stop
         id="stop66"
         offset="1"
         style="stop-opacity:1;stop-color:#007749" /></linearGradient><linearGradient
       id="linearGradient88"
       spreadMethod="pad"
       gradientTransform="matrix(0,54.27729,54.27729,0,301.92334,93.299828)"
       gradientUnits="userSpaceOnUse"
       y2="0"
       x2="1"
       y1="0"
       x1="0"><stop
         id="stop84"
         offset="0"
         style="stop-opacity:1;stop-color:#001482" /><stop
         id="stop86"
         offset="1"
         style="stop-opacity:1;stop-color:#007749" /></linearGradient><linearGradient
       id="linearGradient108"
       spreadMethod="pad"
       gradientTransform="matrix(0,53.243004,53.243004,0,354.36072,94.334114)"
       gradientUnits="userSpaceOnUse"
       y2="0"
       x2="1"
       y1="0"
       x1="0"><stop
         id="stop104"
         offset="0"
         style="stop-opacity:1;stop-color:#001482" /><stop
         id="stop106"
         offset="1"
         style="stop-opacity:1;stop-color:#007749" /></linearGradient><linearGradient
       id="linearGradient128"
       spreadMethod="pad"
       gradientTransform="matrix(0,53.243004,53.243004,0,407.64758,94.334114)"
       gradientUnits="userSpaceOnUse"
       y2="0"
       x2="1"
       y1="0"
       x1="0"><stop
         id="stop124"
         offset="0"
         style="stop-opacity:1;stop-color:#001482" /><stop
         id="stop126"
         offset="1"
         style="stop-opacity:1;stop-color:#007749" /></linearGradient><linearGradient
       id="linearGradient148"
       spreadMethod="pad"
       gradientTransform="matrix(0,53.982159,53.982159,0,481.09103,94.334114)"
       gradientUnits="userSpaceOnUse"
       y2="0"
       x2="1"
       y1="0"
       x1="0"><stop
         id="stop144"
         offset="0"
         style="stop-opacity:1;stop-color:#001482" /><stop
         id="stop146"
         offset="1"
         style="stop-opacity:1;stop-color:#007749" /></linearGradient><linearGradient
       id="linearGradient168"
       spreadMethod="pad"
       gradientTransform="matrix(0,53.243004,53.243004,0,532.01288,94.334114)"
       gradientUnits="userSpaceOnUse"
       y2="0"
       x2="1"
       y1="0"
       x1="0"><stop
         id="stop164"
         offset="0"
         style="stop-opacity:1;stop-color:#001482" /><stop
         id="stop166"
         offset="1"
         style="stop-opacity:1;stop-color:#007749" /></linearGradient><linearGradient
       id="linearGradient188"
       spreadMethod="pad"
       gradientTransform="matrix(0,53.243004,53.243004,0,579.41846,94.334114)"
       gradientUnits="userSpaceOnUse"
       y2="0"
       x2="1"
       y1="0"
       x1="0"><stop
         id="stop184"
         offset="0"
         style="stop-opacity:1;stop-color:#001482" /><stop
         id="stop186"
         offset="1"
         style="stop-opacity:1;stop-color:#007749" /></linearGradient><linearGradient
       id="linearGradient208"
       spreadMethod="pad"
       gradientTransform="matrix(0,53.243004,53.243004,0,617.10333,94.334114)"
       gradientUnits="userSpaceOnUse"
       y2="0"
       x2="1"
       y1="0"
       x1="0"><stop
         id="stop204"
         offset="0"
         style="stop-opacity:1;stop-color:#001482" /><stop
         id="stop206"
         offset="1"
         style="stop-opacity:1;stop-color:#007749" /></linearGradient><linearGradient
       id="linearGradient228"
       spreadMethod="pad"
       gradientTransform="matrix(0,55.311573,55.311573,0,656.0777,93.299828)"
       gradientUnits="userSpaceOnUse"
       y2="0"
       x2="1"
       y1="0"
       x1="0"><stop
         id="stop224"
         offset="0"
         style="stop-opacity:1;stop-color:#001482" /><stop
         id="stop226"
         offset="1"
         style="stop-opacity:1;stop-color:#007749" /></linearGradient><linearGradient
       id="linearGradient248"
       spreadMethod="pad"
       gradientTransform="matrix(0,53.982159,53.982159,0,709.55072,94.334114)"
       gradientUnits="userSpaceOnUse"
       y2="0"
       x2="1"
       y1="0"
       x1="0"><stop
         id="stop244"
         offset="0"
         style="stop-opacity:1;stop-color:#001482" /><stop
         id="stop246"
         offset="1"
         style="stop-opacity:1;stop-color:#007749" /></linearGradient><linearGradient
       id="linearGradient268"
       spreadMethod="pad"
       gradientTransform="matrix(0,54.27729,54.27729,0,773.00763,94.334114)"
       gradientUnits="userSpaceOnUse"
       y2="0"
       x2="1"
       y1="0"
       x1="0"><stop
         id="stop264"
         offset="0"
         style="stop-opacity:1;stop-color:#001482" /><stop
         id="stop266"
         offset="1"
         style="stop-opacity:1;stop-color:#007749" /></linearGradient><linearGradient
       id="linearGradient288"
       spreadMethod="pad"
       gradientTransform="matrix(0,55.311573,55.311573,0,821.11639,93.299828)"
       gradientUnits="userSpaceOnUse"
       y2="0"
       x2="1"
       y1="0"
       x1="0"><stop
         id="stop284"
         offset="0"
         style="stop-opacity:1;stop-color:#001482" /><stop
         id="stop286"
         offset="1"
         style="stop-opacity:1;stop-color:#007749" /></linearGradient><linearGradient
       id="linearGradient308"
       spreadMethod="pad"
       gradientTransform="matrix(0,54.27729,54.27729,0,866.49194,94.334114)"
       gradientUnits="userSpaceOnUse"
       y2="0"
       x2="1"
       y1="0"
       x1="0"><stop
         id="stop304"
         offset="0"
         style="stop-opacity:1;stop-color:#001482" /><stop
         id="stop306"
         offset="1"
         style="stop-opacity:1;stop-color:#007749" /></linearGradient><linearGradient
       id="linearGradient328"
       spreadMethod="pad"
       gradientTransform="matrix(0,53.243004,53.243004,0,901.43689,94.334114)"
       gradientUnits="userSpaceOnUse"
       y2="0"
       x2="1"
       y1="0"
       x1="0"><stop
         id="stop324"
         offset="0"
         style="stop-opacity:1;stop-color:#001482" /><stop
         id="stop326"
         offset="1"
         style="stop-opacity:1;stop-color:#007749" /></linearGradient><clipPath
       id="clipPath338"
       clipPathUnits="userSpaceOnUse"><path
         id="path336"
         d="M 0,1080 H 1080 V 0 H 0 Z" /></clipPath><linearGradient
       id="linearGradient384"
       spreadMethod="pad"
       gradientTransform="matrix(189.03525,0,0,-189.03525,546.48663,484.05396)"
       gradientUnits="userSpaceOnUse"
       y2="0"
       x2="1"
       y1="0"
       x1="0"><stop
         id="stop380"
         offset="0"
         style="stop-opacity:1;stop-color:#007749" /><stop
         id="stop382"
         offset="1"
         style="stop-opacity:1;stop-color:#001482" /></linearGradient><linearGradient
       id="linearGradient404"
       spreadMethod="pad"
       gradientTransform="matrix(189.03525,0,0,-189.03525,347.51581,484.05396)"
       gradientUnits="userSpaceOnUse"
       y2="0"
       x2="1"
       y1="0"
       x1="0"><stop
         id="stop400"
         offset="0"
         style="stop-opacity:1;stop-color:#001482" /><stop
         id="stop402"
         offset="1"
         style="stop-opacity:1;stop-color:#007749" /></linearGradient><linearGradient
       id="linearGradient424"
       spreadMethod="pad"
       gradientTransform="matrix(147.13185,0,0,-147.13185,554.98877,555.34436)"
       gradientUnits="userSpaceOnUse"
       y2="0"
       x2="1"
       y1="0"
       x1="0"><stop
         id="stop420"
         offset="0"
         style="stop-opacity:1;stop-color:#ffb11c" /><stop
         id="stop422"
         offset="1"
         style="stop-opacity:1;stop-color:#ffdc00" /></linearGradient><linearGradient
       id="linearGradient444"
       spreadMethod="pad"
       gradientTransform="matrix(147.13185,0,0,-147.13185,380.60117,553.38849)"
       gradientUnits="userSpaceOnUse"
       y2="0"
       x2="1"
       y1="0"
       x1="0"><stop
         id="stop440"
         offset="0"
         style="stop-opacity:1;stop-color:#ffb11c" /><stop
         id="stop442"
         offset="1"
         style="stop-opacity:1;stop-color:#ffdc00" /></linearGradient><linearGradient
       id="linearGradient464"
       spreadMethod="pad"
       gradientTransform="matrix(81.08889,0,0,-81.08889,563.01398,553.13965)"
       gradientUnits="userSpaceOnUse"
       y2="0"
       x2="1"
       y1="0"
       x1="0"><stop
         id="stop460"
         offset="0"
         style="stop-opacity:1;stop-color:#d93c31" /><stop
         id="stop462"
         offset="1"
         style="stop-opacity:1;stop-color:#d35022" /></linearGradient><linearGradient
       id="linearGradient484"
       spreadMethod="pad"
       gradientTransform="matrix(81.08889,0,0,-81.08889,439.71353,553.13965)"
       gradientUnits="userSpaceOnUse"
       y2="0"
       x2="1"
       y1="0"
       x1="0"><stop
         id="stop480"
         offset="0"
         style="stop-opacity:1;stop-color:#d93c31" /><stop
         id="stop482"
         offset="1"
         style="stop-opacity:1;stop-color:#d35022" /></linearGradient><linearGradient
       id="linearGradient504"
       spreadMethod="pad"
       gradientTransform="matrix(50.318935,0,0,-50.318935,595.70471,671.80414)"
       gradientUnits="userSpaceOnUse"
       y2="0"
       x2="1"
       y1="0"
       x1="0"><stop
         id="stop500"
         offset="0"
         style="stop-opacity:1;stop-color:#ffb11c" /><stop
         id="stop502"
         offset="1"
         style="stop-opacity:1;stop-color:#ffdc00" /></linearGradient><linearGradient
       id="linearGradient524"
       spreadMethod="pad"
       gradientTransform="matrix(50.318935,0,0,-50.318935,437.02469,671.80414)"
       gradientUnits="userSpaceOnUse"
       y2="0"
       x2="1"
       y1="0"
       x1="0"><stop
         id="stop520"
         offset="0"
         style="stop-opacity:1;stop-color:#ffb11c" /><stop
         id="stop522"
         offset="1"
         style="stop-opacity:1;stop-color:#ffdc00" /></linearGradient><linearGradient
       id="linearGradient544"
       spreadMethod="pad"
       gradientTransform="matrix(58.742561,0,0,-58.742561,548.45856,656.57709)"
       gradientUnits="userSpaceOnUse"
       y2="0"
       x2="1"
       y1="0"
       x1="0"><stop
         id="stop540"
         offset="0"
         style="stop-opacity:1;stop-color:#d93c31" /><stop
         id="stop542"
         offset="1"
         style="stop-opacity:1;stop-color:#d35022" /></linearGradient><linearGradient
       id="linearGradient564"
       spreadMethod="pad"
       gradientTransform="matrix(58.742561,0,0,-58.742561,475.86105,656.57709)"
       gradientUnits="userSpaceOnUse"
       y2="0"
       x2="1"
       y1="0"
       x1="0"><stop
         id="stop560"
         offset="0"
         style="stop-opacity:1;stop-color:#d35022" /><stop
         id="stop562"
         offset="1"
         style="stop-opacity:1;stop-color:#d93c31" /></linearGradient><linearGradient
       id="linearGradient584"
       spreadMethod="pad"
       gradientTransform="matrix(18.788479,18.788479,18.788479,-18.788479,590.33997,567.91034)"
       gradientUnits="userSpaceOnUse"
       y2="0"
       x2="1"
       y1="0"
       x1="0"><stop
         id="stop580"
         offset="0"
         style="stop-opacity:1;stop-color:#d93c31" /><stop
         id="stop582"
         offset="1"
         style="stop-opacity:1;stop-color:#d35022" /></linearGradient><linearGradient
       id="linearGradient604"
       spreadMethod="pad"
       gradientTransform="matrix(14.570446,14.570446,14.570446,-14.570446,476.0289,570.01935)"
       gradientUnits="userSpaceOnUse"
       y2="0"
       x2="1"
       y1="0"
       x1="0"><stop
         id="stop600"
         offset="0"
         style="stop-opacity:1;stop-color:#d93c31" /><stop
         id="stop602"
         offset="1"
         style="stop-opacity:1;stop-color:#d35022" /></linearGradient><clipPath
       id="clipPath614"
       clipPathUnits="userSpaceOnUse"><path
         id="path612"
         d="M 0,1080 H 1080 V 0 H 0 Z" /></clipPath><linearGradient
       id="linearGradient644"
       spreadMethod="pad"
       gradientTransform="matrix(48.643002,48.643002,48.643002,-48.643002,517.20258,707.12518)"
       gradientUnits="userSpaceOnUse"
       y2="0"
       x2="1"
       y1="0"
       x1="0"><stop
         id="stop640"
         offset="0"
         style="stop-opacity:1;stop-color:#ffb11c" /><stop
         id="stop642"
         offset="1"
         style="stop-opacity:1;stop-color:#ffdc00" /></linearGradient><clipPath
       id="clipPath654"
       clipPathUnits="userSpaceOnUse"><path
         id="path652"
         d="M 0,1080 H 1080 V 0 H 0 Z" /></clipPath></defs><g
     transform="matrix(1.3333333,0,0,-1.3333333,0,1440)"
     id="g10"><g
       id="g12"><g
         clip-path="url(#clipPath18)"
         id="g14"><g
           transform="translate(578.0686,373.2269)"
           id="g20"><path
             id="path22"
             style="fill:#292929;fill-opacity:1;fill-rule:nonzero;stroke:none"
             d="M 0,0 V -17.329 H -17.355 V 0 h -10.988 c -1.832,-10.888 -5.952,-35.743 -6.066,-36.521 -0.238,-1.644 1.102,-2.536 2.642,-2.536 1.941,0 3.805,2.023 5.503,2.023 2.376,0 3.971,-2.003 3.971,-4.033 0,-2.284 -3.808,-6.159 -7.891,-6.74 v -0.164 h 12.829 v 20.186 H 0 v -20.186 h 12.015 l 0,47.971 z" /></g><g
           transform="translate(489.9161,373.2169)"
           id="g24"><path
             id="path26"
             style="fill:#292929;fill-opacity:1;fill-rule:nonzero;stroke:none"
             d="M 0,0 H 32.089 V -9.07 H 12.78 v -8.315 H 31.264 V -27.84 H 12.78 V -47.961 H 0 Z" /></g><g
           transform="translate(525.041,325.2555)"
           id="g28"><path
             id="path30"
             style="fill:#292929;fill-opacity:1;fill-rule:nonzero;stroke:none"
             d="M 0,0 V 47.971 H 16.969 C 14.328,37.652 8.785,15.978 8.322,14.01 6.506,6.253 12.042,0.621 18.449,0.161 V 0 Z" /></g></g></g><g
       id="g32"><g
         id="g34"><g
           id="g40"><g
             id="g42"><path
               id="path50"
               style="fill:url(#linearGradient48);stroke:none"
               d="m 168.211,132.491 c 0,-9.761 5.767,-13.459 14.714,-16.86 v 0 c 6.509,-2.441 9.835,-3.844 9.835,-6.654 v 0 c 0,-2.218 -2.438,-3.403 -6.801,-3.699 v 0 c -1.332,-0.075 -2.736,-0.075 -4.217,0.074 v 0 c -4.289,0.37 -8.798,1.848 -12.571,3.845 v 0 -13.016 c 3.993,-1.697 10.058,-2.882 16.12,-2.882 v 0 c 13.239,0 20.633,5.917 20.633,15.752 v 0 c 0,9.466 -6.137,13.235 -15.086,16.785 v 0 c -6.211,2.516 -9.317,4.214 -9.317,6.729 v 0 c 0,2.662 3.106,4.364 7.987,4.364 v 0 c 4.879,0 9.909,-1.332 13.09,-3.329 v 0 12.499 c -3.55,1.478 -8.876,2.513 -14.198,2.513 v 0 c -12.13,0 -20.189,-6.358 -20.189,-16.121" /></g></g></g></g><g
       id="g52"><g
         id="g54"><g
           id="g60"><g
             id="g62"><path
               id="path70"
               style="fill:url(#linearGradient68);stroke:none"
               d="m 212.733,120.957 c 0,-15.456 11.758,-27.658 28.175,-27.658 v 0 c 16.49,0 28.173,12.202 28.173,27.658 v 0 c 0,15.307 -11.757,27.655 -28.173,27.655 v 0 c -16.417,0 -28.175,-12.422 -28.175,-27.655 m 13.605,0 c 0,8.208 5.916,15.307 14.57,15.307 v 0 c 8.652,0 14.494,-7.099 14.494,-15.307 v 0 c 0,-8.285 -5.842,-15.31 -14.494,-15.31 v 0 c -8.654,0 -14.57,7.025 -14.57,15.31" /></g></g></g></g><g
       id="g72"><g
         id="g74"><g
           id="g80"><g
             id="g82"><path
               id="path90"
               style="fill:url(#linearGradient88);stroke:none"
               d="m 311.463,147.577 v -32.021 c 0,-6.284 -3.254,-9.909 -9.54,-9.909 v 0 c -6.286,0 -9.614,3.625 -9.614,9.909 v 0 32.021 h -13.53 v -33.499 c 0,-12.496 8.577,-20.779 23.144,-20.779 v 0 c 14.642,0 23.145,8.283 23.145,20.779 v 0 33.499 z" /></g></g></g></g><g
       id="g92"><g
         id="g94"><g
           id="g100"><g
             id="g102"><path
               id="path110"
               style="fill:url(#linearGradient108);stroke:none"
               d="M 333.359,147.577 V 136.19 h 14.198 V 94.334 h 13.608 v 41.856 h 14.198 v 11.387 z" /></g></g></g></g><g
       id="g112"><g
         id="g114"><g
           id="g120"><g
             id="g122"><path
               id="path130"
               style="fill:url(#linearGradient128);stroke:none"
               d="M 417.447,147.577 V 127.02 h -19.67 v 20.557 H 384.243 V 94.334 h 13.534 v 21.372 h 19.67 V 94.334 h 13.604 v 53.243 z" /></g></g></g></g><g
       id="g132"><g
         id="g134"><g
           id="g140"><g
             id="g142"><path
               id="path150"
               style="fill:url(#linearGradient148);stroke:none"
               d="M 480.758,148.316 454.285,94.334 h 14.124 l 3.698,8.134 h 17.894 l 3.772,-8.134 h 14.124 l -26.474,53.982 z m 0.37,-24.033 c 1.034,-3.255 3.18,-8.502 5.029,-12.72 v 0 h -10.131 c 1.478,3.404 4.363,10.947 5.102,12.72" /></g></g></g></g><g
       id="g152"><g
         id="g154"><g
           id="g160"><g
             id="g162"><path
               id="path170"
               style="fill:url(#linearGradient168);stroke:none"
               d="M 515.448,147.577 V 94.334 h 13.531 v 20.558 h 16.489 v 11.093 h -16.489 v 10.205 h 19.598 v 11.387 z" /></g></g></g></g><g
       id="g172"><g
         id="g174"><g
           id="g180"><g
             id="g182"><path
               id="path190"
               style="fill:url(#linearGradient188);stroke:none"
               d="M 558.492,147.577 V 94.334 h 13.236 v 17.527 h 5.915 l 8.577,-17.527 h 14.125 l -10.721,19.744 c 5.842,2.588 9.761,7.689 9.761,15.382 v 0 c 0,11.98 -8.801,18.117 -21.521,18.117 v 0 z m 13.236,-11.387 h 6.729 c 4.068,0 7.248,-2.072 7.248,-6.73 v 0 c 0,-4.882 -3.108,-6.803 -7.174,-6.803 v 0 h -6.803 z" /></g></g></g></g><g
       id="g192"><g
         id="g194"><g
           id="g200"><g
             id="g202"><path
               id="path210"
               style="fill:url(#linearGradient208);stroke:none"
               d="m 610.337,94.334 h 13.533 v 53.243 h -13.533 z" /></g></g></g></g><g
       id="g212"><g
         id="g214"><g
           id="g220"><g
             id="g222"><path
               id="path230"
               style="fill:url(#linearGradient228);stroke:none"
               d="m 634.077,120.957 c 0,-15.53 11.758,-27.658 27.732,-27.658 v 0 c 6.949,0 13.015,1.7 16.269,3.402 v 0 12.496 c -3.18,-1.628 -8.282,-3.55 -15.086,-3.55 v 0 c -9.614,0 -15.306,7.025 -15.306,15.31 v 0 c 0,8.208 5.84,15.307 15.896,15.307 v 0 c 6.36,0 11.093,-1.998 14.127,-3.55 v 0 12.347 c -3.255,1.703 -8.211,3.551 -15.31,3.551 v 0 c -16.564,0 -28.322,-12.276 -28.322,-27.655" /></g></g></g></g><g
       id="g232"><g
         id="g234"><g
           id="g240"><g
             id="g242"><path
               id="path250"
               style="fill:url(#linearGradient248);stroke:none"
               d="M 709.219,148.316 682.745,94.334 h 14.123 l 3.698,8.134 h 17.895 l 3.773,-8.134 h 14.123 l -26.474,53.982 z m 0.369,-24.033 c 1.034,-3.255 3.18,-8.502 5.028,-12.72 v 0 h -10.131 c 1.479,3.404 4.364,10.947 5.103,12.72" /></g></g></g></g><g
       id="g252"><g
         id="g254"><g
           id="g260"><g
             id="g262"><path
               id="path270"
               style="fill:url(#linearGradient268);stroke:none"
               d="m 756.997,145.95 v -12.497 c 1.851,1.183 5.845,2.811 10.133,2.811 v 0 c 5.102,0 8.354,-2.441 8.727,-6.509 v 0 c 0.22,-1.699 0,-3.55 -0.743,-5.546 v 0 c -2.661,-8.503 -11.977,-18.708 -21.147,-29.875 v 0 h 38.082 v 11.388 h -14.27 c 5.693,7.248 11.978,14.493 11.978,23.664 v 0 c 0,11.313 -7.913,19.226 -20.778,19.226 v 0 c -5.473,0 -9.985,-1.404 -11.982,-2.662" /></g></g></g></g><g
       id="g272"><g
         id="g274"><g
           id="g280"><g
             id="g282"><path
               id="path290"
               style="fill:url(#linearGradient288);stroke:none"
               d="m 798.783,120.957 c 0,-15.31 8.58,-27.658 22.335,-27.658 v 0 c 13.754,0 22.331,12.348 22.331,27.658 v 0 c 0,15.307 -8.577,27.655 -22.331,27.655 v 0 c -13.755,0 -22.335,-12.348 -22.335,-27.655 m 13.683,0 c 0,9.093 3.031,15.307 8.652,15.307 v 0 c 5.62,0 8.651,-6.214 8.651,-15.307 v 0 c 0,-9.096 -3.031,-15.31 -8.651,-15.31 v 0 c -5.621,0 -8.652,6.214 -8.652,15.31" /></g></g></g></g><g
       id="g292"><g
         id="g294"><g
           id="g300"><g
             id="g302"><path
               id="path310"
               style="fill:url(#linearGradient308);stroke:none"
               d="m 850.481,145.95 v -12.497 c 1.849,1.183 5.842,2.811 10.131,2.811 v 0 c 5.102,0 8.357,-2.441 8.726,-6.509 v 0 c 0.22,-1.699 0,-3.55 -0.739,-5.546 v 0 c -2.661,-8.503 -11.981,-18.708 -21.148,-29.875 v 0 h 38.082 v 11.388 H 871.26 c 5.696,7.248 11.981,14.493 11.981,23.664 v 0 c 0,11.313 -7.913,19.226 -20.781,19.226 v 0 c -5.472,0 -9.982,-1.404 -11.979,-2.662" /></g></g></g></g><g
       id="g312"><g
         id="g314"><g
           id="g320"><g
             id="g322"><path
               id="path330"
               style="fill:url(#linearGradient328);stroke:none"
               d="M 891.085,147.577 V 136.19 h 7.173 V 94.334 h 13.531 v 53.243 z" /></g></g></g></g><g
       id="g332"><g
         clip-path="url(#clipPath338)"
         id="g334"><g
           transform="translate(610.6182,907.5444)"
           id="g340"><path
             id="path342"
             style="fill:#001482;fill-opacity:1;fill-rule:nonzero;stroke:none"
             d="m 0,0 c 0,-38.163 -30.937,-69.1 -69.1,-69.1 -38.162,0 -69.099,30.937 -69.099,69.1 0,38.163 30.937,69.1 69.099,69.1 C -30.937,69.1 0,38.163 0,0" /></g><g
           transform="translate(793.0283,424.3916)"
           id="g344"><path
             id="path346"
             style="fill:#001482;fill-opacity:1;fill-rule:nonzero;stroke:none"
             d="m 0,0 c -0.932,1.609 -2.191,2.877 -2.191,2.877 -8.175,7.895 -20.551,3.989 -23.589,-5.002 -0.824,-2.437 -1.551,-4.914 -2.505,-7.3 -0.298,-0.743 -1.155,-1.677 -1.828,-1.738 -0.675,-0.063 -1.718,0.695 -2.112,1.377 -1.122,1.941 -2.192,3.956 -2.934,6.064 -4.592,13.053 -9.077,26.144 -13.619,39.215 -3.051,8.776 -6.136,17.538 -9.208,26.307 -2.386,6.806 -4.771,13.614 -7.157,20.422 -5.905,-9.879 -12.384,-18.67 -19.165,-26.462 7.006,-21.354 14.017,-42.706 21.018,-64.061 2.254,-6.873 4.665,-13.688 8.587,-19.821 1.68,-2.626 5.649,-7.093 11.735,-10.015 10.572,-5.075 26.36,-4.045 36.305,6.173 C 4.296,-20.705 2.424,-4.186 0,0" /></g><g
           transform="translate(354.9595,506.9199)"
           id="g348"><path
             id="path350"
             style="fill:#001482;fill-opacity:1;fill-rule:nonzero;stroke:none"
             d="m 0,0 c -2.421,-6.909 -4.843,-13.819 -7.264,-20.729 -3.072,-8.768 -6.157,-17.531 -9.208,-26.306 -4.542,-13.071 -9.027,-26.162 -13.619,-39.215 -0.742,-2.108 -1.813,-4.123 -2.935,-6.064 -0.393,-0.682 -1.436,-1.44 -2.111,-1.377 -0.673,0.061 -1.53,0.995 -1.828,1.738 -0.954,2.386 -1.681,4.862 -2.505,7.3 -3.038,8.991 -15.414,12.897 -23.589,5.002 0,0 -1.259,-1.268 -2.191,-2.877 -2.425,-4.186 -4.296,-20.705 6.663,-31.964 9.945,-10.218 25.733,-11.248 36.305,-6.173 6.086,2.922 10.055,7.389 11.735,10.015 3.922,6.132 6.333,12.948 8.586,19.821 7.028,21.437 14.066,42.872 21.099,64.308 C 12.366,-18.707 5.892,-9.9 0,0" /></g><g
           transform="translate(598.041,817.6372)"
           id="g352"><path
             id="path354"
             style="fill:#001482;fill-opacity:1;fill-rule:nonzero;stroke:none"
             d="m 0,0 c 4.259,-12.871 8.461,-25.761 12.691,-38.641 5.77,-17.566 11.557,-35.127 17.316,-52.696 6.332,-19.316 12.63,-38.642 18.96,-57.959 4.759,-14.526 9.535,-29.047 14.304,-43.571 l 23.222,5.58 c -6.292,17.963 -12.582,35.927 -18.881,53.888 -7.841,22.355 -15.698,44.704 -23.541,67.059 -5.311,15.14 -10.633,30.277 -15.907,45.43 -3.81,10.945 -7.529,21.922 -11.333,32.869 -1.187,3.417 -2.314,6.883 -4.688,9.737 -0.674,0.296 -1.349,0.592 -2.024,0.888 -3.685,0.335 -7.197,-0.27 -10.398,-2.158 -1.238,-0.73 -2.311,-1.737 -3.459,-2.616 -0.296,-0.675 -0.592,-1.349 -0.888,-2.023 0.248,-1.623 0.293,-3.31 0.785,-4.855 C -2.668,7.253 -1.213,3.666 0,0" /></g><g
           transform="translate(704.9707,570.0483)"
           id="g356"><path
             id="path358"
             style="fill:#001482;fill-opacity:1;fill-rule:nonzero;stroke:none"
             d="m 0,0 c -0.839,2.394 -1.677,4.789 -2.516,7.183 -3.304,-10.864 -8.085,-22.617 -14.992,-34.211 3.127,-9.541 6.257,-19.081 9.385,-28.621 7.605,5.179 14.817,10.906 21.605,17.176 C 8.988,-25.649 4.494,-12.824 0,0" /></g><g
           transform="translate(421.4248,624.7676)"
           id="g360"><path
             id="path362"
             style="fill:#001482;fill-opacity:1;fill-rule:nonzero;stroke:none"
             d="m 0,0 c 4.769,14.524 9.545,29.046 14.305,43.574 6.329,19.316 12.628,38.642 18.959,57.958 5.759,17.57 11.547,35.131 17.316,52.697 4.231,12.88 8.432,25.77 12.691,38.641 1.214,3.665 2.669,7.253 3.841,10.931 0.492,1.545 0.537,3.233 0.786,4.855 -0.296,0.675 -0.592,1.349 -0.888,2.023 -1.148,0.88 -2.222,1.886 -3.459,2.616 -3.201,1.889 -6.714,2.494 -10.399,2.159 -0.674,-0.296 -1.349,-0.593 -2.023,-0.889 -2.374,-2.854 -3.501,-6.319 -4.689,-9.736 C 42.637,193.882 38.917,182.905 35.108,171.96 29.833,156.807 24.512,141.67 19.2,126.53 11.358,104.175 3.5,81.826 -4.34,59.47 -10.64,41.508 -16.931,23.543 -23.223,5.58 Z" /></g><g
           transform="translate(380.2744,579.1636)"
           id="g364"><path
             id="path366"
             style="fill:#001482;fill-opacity:1;fill-rule:nonzero;stroke:none"
             d="m 0,0 c -0.836,-2.386 -1.671,-4.773 -2.508,-7.16 -4.469,-12.753 -8.938,-25.507 -13.407,-38.259 6.781,-6.285 13.986,-12.028 21.585,-17.22 3.109,9.477 6.218,18.956 9.325,28.434 C 8.087,-22.613 3.306,-10.863 0,0" /></g></g></g><g
       id="g368"><g
         id="g370"><g
           id="g376"><g
             id="g378"><path
               id="path386"
               style="fill:url(#linearGradient384);stroke:none"
               d="m 672.431,493.709 c -12.094,-5.536 -22.69,-10.386 -38.314,-13.228 v 0 c -26.038,-4.736 -36.848,1.413 -58.77,-6.806 v 0 c -8.591,-3.219 -19.95,-7.653 -25.637,-18.396 v 0 c -6.035,-11.397 -2.031,-22.996 -0.483,-26.857 v 0 c 3.014,7.993 8.466,18.073 18.581,20.926 v 0 c 9.978,2.814 17.746,-3.305 32.122,-6.295 v 0 c 0,0 16.63,-3.46 45.616,3.354 v 0 c 31.387,7.377 69.635,41.478 89.975,93.279 v 0 c -13.514,-14.783 -34.001,-32.664 -63.09,-45.977" /></g></g></g></g><g
       id="g388"><g
         id="g390"><g
           id="g396"><g
             id="g398"><path
               id="path406"
               style="fill:url(#linearGradient404);stroke:none"
               d="m 437.492,446.407 c 28.985,-6.814 45.616,-3.354 45.616,-3.354 v 0 c 14.375,2.99 22.144,9.109 32.121,6.295 v 0 c 10.115,-2.853 15.567,-12.933 18.582,-20.926 v 0 c 1.548,3.861 5.553,15.46 -0.483,26.857 v 0 c -5.688,10.743 -17.047,15.177 -25.637,18.396 v 0 c -21.922,8.219 -32.732,2.07 -58.769,6.806 v 0 c -15.624,2.842 -26.221,7.692 -38.316,13.228 v 0 c -29.089,13.313 -49.576,31.194 -63.091,45.977 v 0 c 20.341,-51.801 58.589,-85.902 89.977,-93.279" /></g></g></g></g><g
       id="g408"><g
         id="g410"><g
           id="g416"><g
             id="g418"><path
               id="path426"
               style="fill:url(#linearGradient424);stroke:none"
               d="m 656.779,615.746 c -0.363,-5.639 -8.218,-106.971 -75.671,-127.935 v 0 c -7.242,-2.251 -15.889,-3.799 -26.119,-3.743 v 0 c 16.565,-0.204 47.755,1.67 78.359,18.713 v 0 c 69.563,38.741 68.899,118.434 68.756,123.854 v 0 c -15.109,-3.63 -30.217,-7.259 -45.325,-10.889" /></g></g></g></g><g
       id="g428"><g
         id="g430"><g
           id="g436"><g
             id="g438"><path
               id="path446"
               style="fill:url(#linearGradient444);stroke:none"
               d="m 449.374,500.827 c 30.604,-17.045 61.794,-18.918 78.359,-18.716 v 0 c -10.23,-0.056 -18.878,1.492 -26.12,3.743 v 0 c -67.451,20.964 -75.307,122.297 -75.67,127.936 v 0 c -15.108,3.63 -30.217,7.259 -45.325,10.888 v 0 c -0.143,-5.419 -0.808,-85.112 68.756,-123.851" /></g></g></g></g><g
       id="g448"><g
         id="g450"><g
           id="g456"><g
             id="g458"><path
               id="path466"
               style="fill:url(#linearGradient464);stroke:none"
               d="m 616.831,600.435 c -0.654,-15.86 -4.475,-45.06 -25.253,-74.639 v 0 c -9.264,-13.188 -19.606,-23.188 -28.564,-30.487 v 0 -0.001 c 0,0 10e-4,-0.007 0.04,-0.012 v 0 c 0.027,-0.003 26.955,4.024 48.784,25.52 v 0 c 29.821,29.365 32.178,73.665 32.264,90.167 v 0 z" /></g></g></g></g><g
       id="g468"><g
         id="g470"><g
           id="g476"><g
             id="g478"><path
               id="path486"
               style="fill:url(#linearGradient484);stroke:none"
               d="m 471.979,520.816 c 21.828,-21.496 48.757,-25.523 48.783,-25.52 v 0 c 0.04,0.005 0.04,0.012 0.04,0.012 v 0 0.001 c -8.958,7.299 -19.3,17.299 -28.564,30.487 v 0 c -20.777,29.579 -24.599,58.779 -25.252,74.639 v 0 l -27.273,10.548 c 0.088,-16.502 2.445,-60.802 32.266,-90.167" /></g></g></g></g><g
       id="g488"><g
         id="g490"><g
           id="g496"><g
             id="g498"><path
               id="path506"
               style="fill:url(#linearGradient504);stroke:none"
               d="m 595.706,719.609 c 5.479,-11.804 10.861,-25.818 14.978,-41.851 v 0 c 6.636,-25.831 7.899,-48.76 7.299,-66.69 v 0 l 28.041,10.548 c 0,0 -1.537,68.732 -31.114,110.924 v 0 z" /></g></g></g></g><g
       id="g508"><g
         id="g510"><g
           id="g516"><g
             id="g518"><path
               id="path526"
               style="fill:url(#linearGradient524);stroke:none"
               d="m 437.025,621.616 28.04,-10.548 c -0.599,17.93 0.663,40.859 7.298,66.69 v 0 c 4.119,16.033 9.501,30.047 14.981,41.851 v 0 L 468.139,732.54 C 438.562,690.348 437.025,621.616 437.025,621.616" /></g></g></g></g><g
       id="g528"><g
         id="g530"><g
           id="g536"><g
             id="g538"><path
               id="path546"
               style="fill:url(#linearGradient544);stroke:none"
               d="m 548.459,678.694 c 8.079,-8.936 17.076,-20.358 25.351,-34.366 v 0 c 9.924,-16.798 15.892,-32.373 19.59,-44.914 v 0 l 12.291,6.465 C 613.758,662.701 586.87,713.74 586.87,713.74 v 0 c -28.04,-20.755 -38.411,-35.046 -38.411,-35.046" /></g></g></g></g><g
       id="g548"><g
         id="g550"><g
           id="g556"><g
             id="g558"><path
               id="path566"
               style="fill:url(#linearGradient564);stroke:none"
               d="m 477.371,605.879 12.291,-6.465 c 3.698,12.541 9.667,28.116 19.589,44.914 v 0 c 8.276,14.008 17.272,25.43 25.353,34.366 v 0 c 0,0 -10.372,14.291 -38.411,35.046 v 0 c 0,0 -26.889,-51.039 -18.822,-107.861" /></g></g></g></g><g
       id="g568"><g
         id="g570"><g
           id="g576"><g
             id="g578"><path
               id="path586"
               style="fill:url(#linearGradient584);stroke:none"
               d="m 595.706,587.846 c 2.303,-11.569 1.919,-27.221 1.919,-27.221 v 0 c 5.378,17.353 5.934,31.644 5.934,31.644 v 0 z" /></g></g></g></g><g
       id="g588"><g
         id="g590"><g
           id="g596"><g
             id="g598"><path
               id="path606"
               style="fill:url(#linearGradient604);stroke:none"
               d="m 485.423,560.625 c 0,0 -0.384,15.652 1.921,27.221 v 0 l -7.855,4.423 c 0,0 0.557,-14.291 5.934,-31.644" /></g></g></g></g><g
       id="g608"><g
         clip-path="url(#clipPath614)"
         id="g610"><g
           transform="translate(541.5244,670.3008)"
           id="g616"><path
             id="path618"
             style="fill:#000000;fill-opacity:1;fill-rule:nonzero;stroke:none"
             d="M 0,0 C -36.55,-38.917 -41.484,-78.913 -41.484,-78.913 -12.676,-95.599 0,-128.276 0,-128.276 c 0,0 12.676,32.677 41.484,49.363 0,0 -4.935,39.996 -41.484,78.913" /></g><g
           transform="translate(550.123,501.9883)"
           id="g620"><path
             id="path622"
             style="fill:#000000;fill-opacity:1;fill-rule:nonzero;stroke:none"
             d="m 0,0 c -0.734,-0.198 0.922,17.013 -3.637,24.951 0,0 5.389,28.582 36.523,52.627 0,0 9.11,-38.336 -10.608,-61.474 C 22.278,16.104 11.779,3.175 0,0" /></g><g
           transform="translate(532.5903,501.9883)"
           id="g624"><path
             id="path626"
             style="fill:#000000;fill-opacity:1;fill-rule:nonzero;stroke:none"
             d="m 0,0 c 0.735,-0.198 -0.921,17.013 3.637,24.951 0,0 -5.388,28.582 -36.522,52.627 0,0 -9.112,-38.336 10.607,-61.474 0,0 10.499,-12.929 22.278,-16.104" /></g></g></g><g
       id="g628"><g
         id="g630"><g
           id="g636"><g
             id="g638"><path
               id="path646"
               style="fill:url(#linearGradient644);stroke:none"
               d="m 500.04,724.289 c 0,0 26.273,-19.99 41.485,-37.656 v 0 c 15.21,17.666 41.482,37.656 41.482,37.656 v 0 c -6.038,15.076 -41.482,55.8 -41.482,55.8 v 0 c 0,0 -35.446,-40.724 -41.485,-55.8" /></g></g></g></g><g
       id="g648"><g
         clip-path="url(#clipPath654)"
         id="g650"><g
           transform="translate(180.2749,299.5605)"
           id="g656"><path
             id="path658"
             style="fill:#000000;fill-opacity:1;fill-rule:nonzero;stroke:none"
             d="M 0,0 H 11.408 V -20.615 H 33.98 V 0 H 45.389 V -52.804 H 33.98 v 22.409 H 11.408 V -52.804 H 0 Z" /></g><g
           transform="translate(278.3096,273.1602)"
           id="g660"><path
             id="path662"
             style="fill:#000000;fill-opacity:1;fill-rule:nonzero;stroke:none"
             d="m 0,0 c 0,9.37 -6.762,16.867 -15.971,16.867 -9.208,0 -16.134,-7.497 -16.134,-16.867 0,-9.454 6.844,-16.951 16.134,-16.951 C -6.762,-16.951 0,-9.454 0,0 m -44.002,0 c 0,15.073 11.652,27.216 27.95,27.216 16.297,0 27.949,-12.143 27.949,-27.216 0,-15.158 -11.652,-27.3 -27.949,-27.3 -16.298,0 -27.95,12.142 -27.95,27.3" /></g><g
           transform="translate(296.8975,273.2402)"
           id="g664"><path
             id="path666"
             style="fill:#000000;fill-opacity:1;fill-rule:nonzero;stroke:none"
             d="m 0,0 c 0,14.993 11.571,27.136 27.868,27.136 7.252,0 13.772,-2.446 18.498,-6.682 l -7.008,-7.66 C 35.773,15.891 32.105,16.787 28.52,16.787 18.904,16.787 11.897,9.29 11.897,0 c 0,-9.452 6.844,-17.031 16.216,-17.031 4.888,0 9.37,1.875 12.631,5.46 l 7.089,-7.986 C 42.78,-24.446 35.935,-27.38 27.868,-27.38 11.571,-27.38 0,-15.238 0,0" /></g><g
           transform="translate(351.0923,299.5605)"
           id="g668"><path
             id="path670"
             style="fill:#000000;fill-opacity:1;fill-rule:nonzero;stroke:none"
             d="m 0,0 h 11.409 v -29.336 c 0.325,0.571 2.933,4.482 4.807,6.927 L 33.003,0 H 46.285 L 27.869,-24.119 48.567,-52.804 H 35.203 l -14.342,20.291 -9.452,-11.572 v -8.719 l -11.409,0 z" /></g><g
           transform="translate(405.6968,299.5605)"
           id="g672"><path
             id="path674"
             style="fill:#000000;fill-opacity:1;fill-rule:nonzero;stroke:none"
             d="M 0,0 H 41.315 V -9.778 H 11.409 v -10.756 h 28.358 v -9.697 H 11.409 v -12.793 h 31.046 v -9.78 H 0 Z" /></g><g
           transform="translate(470.7266,270.6328)"
           id="g676"><path
             id="path678"
             style="fill:#000000;fill-opacity:1;fill-rule:nonzero;stroke:none"
             d="M 0,0 -19.882,28.928 H -6.845 L 1.711,16.379 c 2.201,-3.178 3.994,-6.682 3.994,-6.682 0,0 2.037,3.585 4.074,6.682 l 8.23,12.549 H 31.048 L 11.409,0.082 v -23.958 l -11.409,0 z" /></g><g
           transform="translate(521.3374,299.5605)"
           id="g680"><path
             id="path682"
             style="fill:#000000;fill-opacity:1;fill-rule:nonzero;stroke:none"
             d="m 0,0 h 11.571 l 8.556,-31.128 c 0.897,-3.26 1.874,-7.333 1.956,-7.741 0.082,0.408 0.896,4.319 1.793,7.741 L 31.78,0 h 11.815 l 7.824,-31.128 c 0.815,-3.342 1.63,-7.333 1.711,-7.741 0.162,0.408 1.059,4.399 2.037,7.741 L 63.968,0 H 75.295 L 59.568,-52.885 H 47.507 l -8.067,29.988 c -0.979,3.667 -1.63,8.637 -1.793,9.209 -0.162,-0.572 -0.815,-5.542 -1.792,-9.209 L 27.788,-52.885 H 15.646 Z" /></g><g
           transform="translate(643.9844,273.1602)"
           id="g684"><path
             id="path686"
             style="fill:#000000;fill-opacity:1;fill-rule:nonzero;stroke:none"
             d="m 0,0 c 0,9.37 -6.762,16.867 -15.971,16.867 -9.208,0 -16.133,-7.497 -16.133,-16.867 0,-9.454 6.843,-16.951 16.133,-16.951 C -6.762,-16.951 0,-9.454 0,0 m -44.002,0 c 0,15.073 11.652,27.216 27.95,27.216 16.297,0 27.949,-12.143 27.949,-27.216 0,-15.158 -11.652,-27.3 -27.949,-27.3 -16.298,0 -27.95,12.142 -27.95,27.3" /></g><g
           transform="translate(664.4463,299.5605)"
           id="g688"><path
             id="path690"
             style="fill:#000000;fill-opacity:1;fill-rule:nonzero;stroke:none"
             d="m 0,0 h 9.86 l 8.312,-11.733 c 3.096,-4.319 9.534,-13.691 9.534,-13.691 0,0 6.519,9.29 9.533,13.609 L 45.552,0 h 9.86 V -52.804 H 44.003 v 33.41 c 0,0 -2.036,-3.34 -4.809,-7.334 l -11.488,-16.378 -11.572,16.46 c -2.689,3.831 -4.726,7.252 -4.726,7.252 v -33.41 H 0 Z" /></g><g
           transform="translate(730.2959,299.5605)"
           id="g692"><path
             id="path694"
             style="fill:#000000;fill-opacity:1;fill-rule:nonzero;stroke:none"
             d="M 0,0 H 41.314 V -9.778 H 11.408 v -10.756 h 28.359 v -9.697 H 11.408 v -12.793 h 31.047 v -9.78 H 0 Z" /></g><g
           transform="translate(779.8457,299.5605)"
           id="g696"><path
             id="path698"
             style="fill:#000000;fill-opacity:1;fill-rule:nonzero;stroke:none"
             d="m 0,0 h 10.919 l 18.172,-25.098 c 2.933,-3.993 6.275,-9.697 6.275,-9.697 V 0 H 46.773 V -52.804 H 35.772 l -17.6,24.121 c -3.505,4.726 -6.764,10.349 -6.764,10.349 v -34.47 H 0 Z" /></g><g
           transform="translate(839.583,299.5605)"
           id="g700"><path
             id="path702"
             style="fill:#000000;fill-opacity:1;fill-rule:nonzero;stroke:none"
             d="M 0,0 H 9.859 L 2.119,-22.164 H -4.809 Z" /></g><g
           transform="translate(856.5371,253.0322)"
           id="g704"><path
             id="path706"
             style="fill:#000000;fill-opacity:1;fill-rule:nonzero;stroke:none"
             d="m 0,0 4.155,8.801 c 4.237,-3.098 9.29,-5.786 17.358,-5.786 4.399,0 9.778,2.037 9.778,6.192 0,4.075 -4.727,5.134 -9.372,6.275 -9.859,2.282 -20.046,5.622 -20.046,16.622 0,10.188 9.534,15.24 19.64,15.24 7.985,0 14.015,-2.118 19.312,-5.622 L 36.67,32.92 c -4.239,2.771 -9.779,4.238 -15.157,4.238 -2.771,0 -7.987,-1.059 -7.987,-5.054 0,-3.421 3.829,-4.643 9.044,-5.866 9.372,-2.2 20.618,-5.704 20.618,-17.031 C 43.188,-2.2 32.106,-7.172 21.513,-7.172 8.882,-7.172 2.933,-2.363 0,0" /></g><g
           transform="translate(143.7886,180.9707)"
           id="g708"><path
             id="path710"
             style="fill:#000000;fill-opacity:1;fill-rule:nonzero;stroke:none"
             d="m 0,0 7.894,6.267 c 3.092,-5.698 6.999,-6.999 10.987,-6.999 6.266,0 10.661,3.662 10.661,12.126 V 42.481 H 40.936 V 11.638 C 40.936,-4.15 31.739,-11.149 19.043,-11.149 11.149,-11.149 3.662,-7.731 0,0" /></g><g
           transform="translate(194.4136,191.7129)"
           id="g712"><path
             id="path714"
             style="fill:#000000;fill-opacity:1;fill-rule:nonzero;stroke:none"
             d="M 0,0 V 31.739 H 11.394 V 0.57 c 0,-7.894 4.476,-12.045 11.394,-12.045 6.918,0 11.394,4.151 11.394,12.045 V 31.739 H 45.574 V 0 c 0,-13.917 -9.277,-21.892 -22.786,-21.892 C 9.278,-21.892 0,-13.917 0,0" /></g><g
           transform="translate(250.0039,223.4521)"
           id="g716"><path
             id="path718"
             style="fill:#000000;fill-opacity:1;fill-rule:nonzero;stroke:none"
             d="m 0,0 h 10.905 l 18.149,-25.065 c 2.929,-3.989 6.267,-9.685 6.267,-9.685 V 0 H 46.713 V -52.735 H 35.727 l -17.578,24.089 c -3.501,4.719 -6.755,10.335 -6.755,10.335 V -52.735 H 0 Z" /></g><path
           id="path720"
           style="fill:#000000;fill-opacity:1;fill-rule:nonzero;stroke:none"
           d="m 307.141,223.452 h 11.394 v -52.735 h -11.394 z" /><g
           transform="translate(371.1108,197.085)"
           id="g722"><path
             id="path724"
             style="fill:#000000;fill-opacity:1;fill-rule:nonzero;stroke:none"
             d="m 0,0 c 0,9.358 -6.753,16.846 -15.95,16.846 -9.197,0 -16.113,-7.488 -16.113,-16.846 0,-9.441 6.834,-16.929 16.113,-16.929 C -6.753,-16.929 0,-9.441 0,0 m -43.945,0 c 0,15.055 11.637,27.181 27.913,27.181 16.277,0 27.914,-12.126 27.914,-27.181 0,-15.138 -11.637,-27.264 -27.914,-27.264 -16.276,0 -27.913,12.126 -27.913,27.264" /></g><g
           transform="translate(414.4941,192.4453)"
           id="g726"><path
             id="path728"
             style="fill:#000000;fill-opacity:1;fill-rule:nonzero;stroke:none"
             d="m 0,0 c 6.673,0 11.313,4.802 11.313,10.58 0,6.022 -4.64,10.742 -11.231,10.742 H -11.556 V 0 Z m -22.95,31.007 h 22.625 c 15.543,0 23.681,-9.115 23.681,-20.427 0,-6.755 -3.5,-13.266 -10.01,-16.765 L 24.332,-21.729 H 11.231 L 3.093,-9.359 C 1.546,-9.603 0.163,-9.766 -1.383,-9.766 H -11.556 V -21.729 H -22.95 Z" /></g><g
           transform="translate(459.5869,223.4521)"
           id="g730"><path
             id="path732"
             style="fill:#000000;fill-opacity:1;fill-rule:nonzero;stroke:none"
             d="m 0,0 h 11.556 l 8.546,-31.088 c 0.895,-3.256 1.871,-7.324 1.952,-7.731 0.082,0.407 0.896,4.313 1.791,7.731 L 31.739,0 h 11.8 l 7.814,-31.088 c 0.814,-3.337 1.627,-7.324 1.709,-7.731 0.162,0.407 1.057,4.394 2.034,7.731 L 63.885,0 H 75.198 L 59.491,-52.817 H 47.446 l -8.057,29.949 c -0.977,3.662 -1.628,8.626 -1.791,9.196 -0.161,-0.57 -0.814,-5.534 -1.789,-9.196 L 27.752,-52.817 H 15.625 Z" /></g><g
           transform="translate(582.0762,197.085)"
           id="g734"><path
             id="path736"
             style="fill:#000000;fill-opacity:1;fill-rule:nonzero;stroke:none"
             d="m 0,0 c 0,9.358 -6.754,16.846 -15.95,16.846 -9.197,0 -16.113,-7.488 -16.113,-16.846 0,-9.441 6.834,-16.929 16.113,-16.929 C -6.754,-16.929 0,-9.441 0,0 m -43.945,0 c 0,15.055 11.636,27.181 27.913,27.181 16.276,0 27.914,-12.126 27.914,-27.181 0,-15.138 -11.638,-27.264 -27.914,-27.264 -16.277,0 -27.913,12.126 -27.913,27.264" /></g><g
           transform="translate(625.46,192.4453)"
           id="g738"><path
             id="path740"
             style="fill:#000000;fill-opacity:1;fill-rule:nonzero;stroke:none"
             d="m 0,0 c 6.674,0 11.313,4.802 11.313,10.58 0,6.022 -4.639,10.742 -11.231,10.742 H -11.556 V 0 Z m -22.949,31.007 h 22.625 c 15.544,0 23.681,-9.115 23.681,-20.427 0,-6.755 -3.5,-13.266 -10.01,-16.765 L 24.333,-21.729 H 11.231 L 3.093,-9.359 C 1.547,-9.603 0.163,-9.766 -1.383,-9.766 h -10.173 v -11.963 h -11.393 z" /></g><g
           transform="translate(657.043,223.4521)"
           id="g742"><path
             id="path744"
             style="fill:#000000;fill-opacity:1;fill-rule:nonzero;stroke:none"
             d="m 0,0 h 11.395 v -42.97 h 30.518 v -9.765 H 0 Z" /></g><g
           transform="translate(727.3623,180.4824)"
           id="g746"><path
             id="path748"
             style="fill:#000000;fill-opacity:1;fill-rule:nonzero;stroke:none"
             d="M 0,0 C 10.093,0 16.766,6.998 16.766,16.603 16.766,26.124 10.093,33.204 0,33.204 H -9.276 V 0 Z m -20.671,42.97 h 21.16 c 17.334,0 28.24,-11.963 28.24,-26.367 0,-14.406 -10.906,-26.369 -28.24,-26.369 h -21.16 z" /></g><g
           transform="translate(780.6768,197.165)"
           id="g750"><path
             id="path752"
             style="fill:#000000;fill-opacity:1;fill-rule:nonzero;stroke:none"
             d="m 0,0 c 0,14.975 11.556,27.101 27.832,27.101 7.242,0 13.754,-2.442 18.474,-6.673 l -6.998,-7.651 c -3.581,3.093 -7.245,3.989 -10.826,3.989 -9.602,0 -16.6,-7.488 -16.6,-16.766 0,-9.439 6.835,-17.009 16.194,-17.009 4.883,0 9.359,1.873 12.614,5.453 l 7.081,-7.974 C 42.725,-24.414 35.889,-27.344 27.832,-27.344 11.556,-27.344 0,-15.218 0,0" /></g><g
           transform="translate(834.3965,191.7129)"
           id="g754"><path
             id="path756"
             style="fill:#000000;fill-opacity:1;fill-rule:nonzero;stroke:none"
             d="M 0,0 V 31.739 H 11.393 V 0.57 c 0,-7.894 4.475,-12.045 11.393,-12.045 6.918,0 11.395,4.151 11.395,12.045 V 31.739 H 45.573 V 0 c 0,-13.917 -9.277,-21.892 -22.787,-21.892 C 9.276,-21.892 0,-13.917 0,0" /></g><g
           transform="translate(913.0986,192.5273)"
           id="g758"><path
             id="path760"
             style="fill:#000000;fill-opacity:1;fill-rule:nonzero;stroke:none"
             d="m 0,0 c 6.755,0 11.149,4.72 11.149,10.579 0,5.86 -4.394,10.58 -11.068,10.58 h -11.8 l 0,-21.159 z m -23.113,30.925 h 22.625 c 15.463,0 23.6,-9.115 23.6,-20.346 0,-11.23 -8.137,-20.345 -23.681,-20.345 h -11.15 v -12.045 h -11.394 z" /></g></g></g></g></svg>