<?xml version="1.0" standalone="no"?>
<!DOCTYPE svg PUBLIC "-//W3C//DTD SVG 20010904//EN" "http://www.w3.org/TR/2001/REC-SVG-20010904/DTD/svg10.dtd">
<svg width="199px" height="199px" viewBox="0 0 199 199" version="1.1" xmlns="http://www.w3.org/2000/svg" xmlns:xlink="http://www.w3.org/1999/xlink">
    <g id="Berlin" stroke="none" stroke-width="1" fill="none" fill-rule="evenodd">
        <g id="Artboard" transform="translate(-204.000000, 0.000000)">
            <g id="Blue-Orange" transform="translate(204.000000, 0.000000)">
                <g id="Background">
                    <path d="M197.007,99.211 C197.007,45.201 153.222,1.417 99.214,1.417 C45.202,1.417 1.416,45.201 1.416,99.211 C1.416,153.222 45.202,197.007 99.214,197.007 C153.222,197.007 197.007,153.222 197.007,99.211" id="Blue-Background" fill="#091F48"></path>
                    <path d="M194.342,99.211 C194.342,151.751 151.75,194.342 99.214,194.342 C46.673,194.342 4.082,151.751 4.082,99.211 C4.082,46.672 46.673,4.08 99.214,4.08 C151.75,4.08 194.342,46.672 194.342,99.211 M198.424,99.211 C198.424,44.419 154.004,0 99.214,0 C44.419,0 0,44.419 0,99.211 C0,154.004 44.419,198.424 99.214,198.424 C154.004,198.424 198.424,154.004 198.424,99.211" id="Orange-Circle" fill="#E7792B"></path>
                </g>
                <path d="M149.212,45.507 C148.593,46.057 148.557,46.674 149.105,47.293 L150.097,48.41 C150.648,49.03 151.264,49.066 151.883,48.518 L156.666,44.273 C157.441,43.586 158.643,42.274 158.643,42.274 L158.674,42.308 C158.674,42.308 157.872,44.003 157.49,45.203 L155.1,52.767 C154.882,53.421 154.998,53.934 155.456,54.45 L156.646,55.791 C157.196,56.411 157.812,56.447 158.434,55.898 L168.841,46.662 C169.46,46.112 169.497,45.496 168.947,44.876 L167.956,43.757 C167.405,43.14 166.788,43.102 166.168,43.652 L161.37,47.911 C160.595,48.598 159.392,49.911 159.392,49.911 L159.361,49.876 C159.361,49.876 160.164,48.181 160.545,46.981 L162.967,39.419 C163.186,38.766 163.069,38.253 162.598,37.719 L161.406,36.377 C160.856,35.758 160.24,35.722 159.621,36.271 L149.212,45.507 Z M141.711,31.196 C143.244,28.983 145.91,28.369 148.046,29.85 C150.182,31.331 150.541,34.041 149.008,36.253 C147.408,38.56 144.691,39.25 142.555,37.77 C140.419,36.289 140.113,33.501 141.711,31.196 L141.711,31.196 Z M138.289,28.824 C135.538,32.794 136.264,37.885 140.459,40.794 C144.653,43.703 149.677,42.595 152.428,38.626 C155.115,34.752 154.339,29.735 150.143,26.826 C145.945,23.917 140.976,24.949 138.289,28.824 L138.289,28.824 Z M129.4,32.675 C129.051,33.425 129.261,34.005 130.011,34.357 L131.365,34.989 C132.115,35.338 132.697,35.127 133.048,34.377 L138.934,21.771 C139.285,21.019 139.074,20.44 138.322,20.087 L136.969,19.456 C136.219,19.106 135.639,19.317 135.287,20.067 L129.4,32.675 Z M120.507,29.309 C120.251,30.095 120.531,30.647 121.318,30.902 L122.74,31.364 C123.53,31.62 124.079,31.338 124.335,30.55 L127.957,19.396 L131.501,20.544 C132.287,20.801 132.839,20.52 133.094,19.734 L133.379,18.859 C133.635,18.07 133.354,17.521 132.566,17.264 L121.65,13.72 C120.863,13.464 120.313,13.745 120.057,14.532 L119.771,15.407 C119.518,16.195 119.797,16.747 120.585,17.001 L124.129,18.152 L120.507,29.309 Z M109.744,21.463 L111.122,18.429 C111.561,17.445 112.175,15.719 112.175,15.719 L112.219,15.727 C112.219,15.727 112.335,17.553 112.488,18.62 L112.956,21.914 L109.744,21.463 Z M103.486,25.86 C103.069,26.684 103.398,27.311 104.31,27.44 L105.813,27.649 C106.542,27.752 107.046,27.474 107.35,26.795 L108.363,24.523 L113.443,25.233 L113.796,27.697 C113.925,28.436 114.331,28.841 115.061,28.942 L116.564,29.153 C117.477,29.282 117.965,28.77 117.79,27.862 L115.01,13.376 C114.882,12.638 114.47,12.255 113.74,12.153 L111.691,11.866 C110.962,11.765 110.462,12.02 110.136,12.694 L103.486,25.86 Z M96.477,26.219 C96.507,27.045 96.959,27.466 97.788,27.435 L99.279,27.377 C100.108,27.348 100.528,26.894 100.496,26.065 L100.051,14.344 L103.773,14.203 C104.602,14.172 105.021,13.718 104.99,12.891 L104.956,11.972 C104.923,11.145 104.47,10.725 103.644,10.755 L92.176,11.19 C91.349,11.223 90.927,11.676 90.96,12.502 L90.995,13.423 C91.026,14.25 91.48,14.67 92.308,14.639 L96.029,14.497 L96.477,26.219 Z M78.577,21.708 C78.003,19.079 79.372,16.71 81.912,16.158 C84.451,15.604 86.678,17.19 87.251,19.82 C87.848,22.561 86.501,25.021 83.961,25.573 C81.421,26.125 79.172,24.45 78.577,21.708 L78.577,21.708 Z M74.509,22.594 C75.536,27.314 79.755,30.254 84.744,29.169 C89.733,28.083 92.347,23.654 91.319,18.935 C90.316,14.327 86.117,11.475 81.128,12.561 C76.139,13.647 73.506,17.987 74.509,22.594 L74.509,22.594 Z M64.88,26.081 L63.186,22.454 L64.416,21.881 C65.02,21.598 65.487,21.456 65.89,21.447 C66.703,21.398 67.153,21.872 67.503,22.622 C68.059,23.811 67.63,24.797 66.463,25.341 L64.88,26.081 Z M64.502,34.786 C64.853,35.536 65.434,35.747 66.184,35.397 L67.538,34.765 C68.289,34.414 68.499,33.834 68.149,33.083 L66.339,29.208 L68.048,28.409 L72.224,31.586 C72.798,32.003 73.332,32.061 73.956,31.768 L75.541,31.028 C76.437,30.609 76.519,29.86 75.69,29.283 L71.773,26.441 C71.128,25.981 70.793,25.807 70.793,25.807 L70.774,25.766 C71.903,24.325 71.845,22.245 71.106,20.661 C70.094,18.493 68.321,17.468 66.331,17.609 C65.568,17.662 64.79,17.898 63.27,18.609 L59.226,20.496 C58.477,20.847 58.265,21.427 58.615,22.178 L64.502,34.786 Z M42.689,42.372 C46.03,46.324 51.061,46.288 54.291,43.555 C56.522,41.669 56.633,39.557 56.633,39.557 L56.669,39.527 C56.669,39.527 56.71,39.611 56.8,39.718 L56.83,39.752 C57.186,40.173 57.801,40.226 58.435,39.691 L59.013,39.201 C59.646,38.666 59.697,38.05 59.164,37.418 L54.796,32.254 C54.262,31.622 53.646,31.571 53.014,32.106 L50.45,34.274 C49.817,34.808 49.767,35.424 50.301,36.056 L50.879,36.74 C51.415,37.374 52.03,37.424 52.662,36.891 L53.469,36.208 L54.198,37.068 C54.198,37.068 54.269,38.754 52.478,40.271 C50.563,41.888 47.679,41.827 45.719,39.507 C44.115,37.612 43.797,34.99 46.309,32.866 C47.397,31.946 48.332,31.697 49.164,31.506 C49.995,31.314 50.387,30.923 50.275,30.114 L50.124,29.007 C49.998,28.181 49.602,27.822 48.749,27.88 C47.927,27.943 45.741,28.527 43.738,30.218 C39.893,33.473 39.451,38.542 42.689,42.372 L42.689,42.372 Z M39.969,56.169 C41.054,55.921 43.072,54.919 44.516,53.128 C46.837,50.244 46.292,47.147 44.142,45.415 C40.094,42.154 35.982,48.174 34.119,46.675 C33.617,46.272 33.555,45.542 34.349,44.557 C35.027,43.715 35.808,43.369 36.57,43.008 C37.225,42.708 37.723,42.312 37.313,41.392 L36.817,40.282 C36.513,39.595 36.022,39.289 35.228,39.505 C34.307,39.768 32.691,40.71 31.493,42.198 C29.402,44.794 29.373,48.022 31.738,49.924 C35.75,53.156 40.023,47.266 41.831,48.723 C42.333,49.127 42.382,49.873 41.631,50.805 C40.736,51.916 39.514,52.26 38.967,52.498 C38.169,52.831 37.874,53.273 38.103,54.047 L38.462,55.252 C38.75,56.251 39.361,56.3 39.969,56.169 L39.969,56.169 Z" id="SG-Rotation" fill="#E7792B"></path>
                <path d="M156.937,68.819 L156.931,68.818 C156.636,67.996 155.856,67.405 154.934,67.405 C154.246,67.405 153.641,67.736 153.25,68.242 L153.248,68.241 C153.228,68.267 153.209,68.291 153.19,68.316 C153.182,68.327 153.17,68.338 153.163,68.349 C116.291,114.866 113.926,117.859 113.926,117.859 C111.806,120.521 110.528,123.887 110.528,127.556 C110.528,132.03 112.424,136.052 115.441,138.895 L72.341,138.895 L72.341,138.894 C72.328,138.894 72.315,138.895 72.304,138.895 C66.041,138.895 60.965,133.82 60.965,127.556 C60.965,124.69 62.038,122.079 63.792,120.083 L63.784,120.076 C63.784,120.076 63.802,120.054 65.117,118.395 C65.508,118.006 65.752,117.469 65.752,116.874 C65.752,115.69 64.794,114.733 63.611,114.733 C63.005,114.733 62.425,114.922 62.059,115.384 C61.693,115.846 60.191,117.738 60.191,117.738 L60.196,117.743 C58.021,120.422 56.712,123.836 56.712,127.556 C56.712,136.167 63.693,143.146 72.304,143.146 C72.315,143.146 72.328,143.145 72.341,143.145 L72.341,143.146 L126.045,143.146 L126.045,143.143 C126.07,143.143 126.094,143.146 126.119,143.146 C134.73,143.146 141.711,136.167 141.711,127.556 C141.711,118.946 134.73,111.965 126.119,111.965 C125.354,111.965 124.609,112.039 123.872,112.146 L154.463,73.554 C158.095,81.356 160.156,90.037 160.156,99.209 C160.156,132.869 132.868,160.154 99.212,160.154 C65.554,160.154 38.269,132.869 38.269,99.209 C38.269,65.553 65.554,38.268 99.212,38.268 C106.597,38.268 113.665,39.6 120.214,42.007 C118.437,44.252 115.053,48.537 115.053,48.537 C114.732,48.91 114.532,49.389 114.532,49.919 C114.532,51.096 115.488,52.049 116.664,52.049 C117.416,52.049 118.074,51.657 118.453,51.068 C118.453,51.068 122.853,45.525 125.195,42.571 C125.567,42.077 125.83,41.645 125.83,41.05 C125.83,40.151 125.274,39.384 124.489,39.067 C120.246,37.256 111.062,34.015 99.212,34.015 C63.206,34.015 34.016,63.205 34.016,99.209 C34.016,135.217 63.206,164.406 99.212,164.406 C135.219,164.406 164.408,135.217 164.408,99.209 C164.408,84.836 159.259,74.04 156.937,68.819" id="Circle" fill="#E7792B"></path>
                <path d="M107.411,124.279 C107.95,121.173 109.253,118.266 111.266,115.739 C111.266,115.739 112.045,114.753 119.36,105.52 C117.648,102.568 116.645,101.253 116.645,101.253 L116.645,101.021 C124.897,96.836 129.082,87.186 129.082,78.339 C129.082,66.237 123.154,57.752 113.738,54.149 C110.136,52.755 106.063,52.173 97.566,52.173 L75.002,52.173 C70.818,52.173 68.608,54.382 68.608,58.565 L68.608,128.935 C68.608,133.121 70.818,135.332 75.002,135.332 L82.558,135.332 C86.743,135.332 88.951,133.121 88.951,128.935 L88.951,107.298 L98.496,107.298 L107.411,124.279 Z M88.951,89.863 L88.951,69.607 L95.82,69.607 C99.194,69.607 101.639,69.957 103.501,70.772 C107.343,72.285 108.391,75.429 108.391,79.62 C108.391,86.255 104.316,89.863 97.798,89.863 L88.951,89.863 L88.951,89.863 Z" id="R" fill="#E7792B"></path>
                <path d="M15.437,74.403 C14.627,74.227 14.107,74.561 13.932,75.37 L13.613,76.831 C13.438,77.64 13.771,78.159 14.581,78.336 L18.311,79.148 L17.714,81.89 C17.034,85.013 18.911,87.634 22.148,88.338 C25.384,89.044 28.136,87.431 28.816,84.306 L30,78.868 C30.176,78.059 29.842,77.539 29.033,77.363 L15.437,74.403 Z M21.683,79.883 L26.042,80.831 L25.606,82.831 C25.323,84.135 24.3,84.617 23.019,84.34 C21.737,84.06 20.963,83.185 21.262,81.815 L21.683,79.883 Z M12.386,89.904 C11.558,89.873 11.104,90.293 11.073,91.121 L11.016,92.614 C10.984,93.441 11.405,93.896 12.232,93.927 L16.508,94.089 L16.436,95.973 L11.7,98.233 C11.067,98.554 10.774,99.003 10.748,99.692 L10.681,101.439 C10.643,102.428 11.272,102.843 12.165,102.37 L16.482,100.186 C17.187,99.822 17.495,99.604 17.495,99.604 L17.54,99.606 C18.306,101.269 20.182,102.168 21.929,102.235 C24.319,102.325 26.042,101.217 26.825,99.382 C27.127,98.681 27.273,97.881 27.336,96.203 L27.506,91.746 C27.538,90.918 27.118,90.464 26.29,90.433 L12.386,89.904 Z M19.955,94.22 L23.954,94.372 L23.902,95.728 C23.877,96.394 23.79,96.874 23.615,97.236 C23.287,97.983 22.659,98.167 21.831,98.135 C20.521,98.086 19.84,97.253 19.889,95.967 L19.955,94.22 Z M12.22,106.245 C11.4,106.359 11.028,106.853 11.142,107.673 L12.265,115.69 C12.379,116.51 12.873,116.883 13.693,116.768 L14.604,116.641 C15.424,116.526 15.796,116.032 15.681,115.213 L14.941,109.928 L18.017,109.498 L18.536,113.211 C18.651,114.03 19.144,114.402 19.964,114.287 L20.876,114.161 C21.696,114.046 22.067,113.553 21.953,112.732 L21.433,109.02 L24.395,108.605 L25.09,113.571 C25.204,114.391 25.698,114.763 26.518,114.648 L27.428,114.521 C28.249,114.405 28.621,113.912 28.505,113.092 L27.428,105.394 C27.314,104.573 26.82,104.202 26.001,104.316 L12.22,106.245 Z M14.357,120.598 C13.576,120.873 13.309,121.43 13.585,122.212 L14.081,123.621 C14.356,124.403 14.914,124.67 15.694,124.395 L21.725,122.271 C22.701,121.927 24.31,121.164 24.31,121.164 L24.326,121.208 C24.326,121.208 22.943,122.476 22.137,123.441 L17.068,129.544 C16.62,130.067 16.533,130.585 16.762,131.236 L17.359,132.929 C17.634,133.709 18.191,133.976 18.972,133.701 L32.097,129.079 C32.878,128.803 33.145,128.245 32.87,127.466 L32.373,126.055 C32.097,125.274 31.54,125.007 30.76,125.282 L24.707,127.413 C23.73,127.758 22.122,128.52 22.122,128.52 L22.106,128.476 C22.106,128.476 23.488,127.209 24.294,126.242 L29.393,120.155 C29.842,119.632 29.927,119.113 29.691,118.44 L29.096,116.748 C28.82,115.968 28.262,115.701 27.482,115.976 L14.357,120.598 Z M20.683,137.589 C19.97,138.012 19.816,138.609 20.238,139.322 L25.481,148.191 C25.904,148.905 26.502,149.059 27.214,148.637 L28.006,148.17 C28.719,147.747 28.873,147.149 28.451,146.437 L25.794,141.942 C25.419,141.308 25.091,140.889 25.091,140.889 L25.131,140.864 C25.131,140.864 25.827,141.095 27.062,141.192 L37.214,142.005 C37.836,142.063 38.302,141.949 38.837,141.632 L39.153,141.444 C39.846,141.035 40,140.437 39.579,139.725 L34.546,131.211 C34.125,130.498 33.526,130.345 32.813,130.766 L32.021,131.233 C31.308,131.656 31.155,132.254 31.576,132.968 L34.011,137.085 C34.386,137.719 34.714,138.138 34.714,138.138 L34.674,138.162 C34.674,138.162 33.978,137.933 32.744,137.834 L22.643,137.02 C22.021,136.96 21.554,137.075 21.02,137.391 L20.683,137.589 Z M29.616,151.829 C28.983,152.364 28.932,152.98 29.466,153.611 L34.768,159.882 C35.303,160.515 35.918,160.566 36.551,160.031 L37.254,159.438 C37.886,158.902 37.938,158.287 37.402,157.654 L33.883,153.492 L42.841,145.919 C43.472,145.384 43.524,144.768 42.99,144.136 L42.024,142.994 C41.49,142.361 40.874,142.311 40.242,142.846 L29.616,151.829 Z M37.89,161.206 C37.098,161.681 37.042,162.389 37.745,162.981 L38.904,163.962 C39.466,164.438 40.04,164.471 40.659,164.06 L42.73,162.679 L46.646,165.99 L45.629,168.263 C45.344,168.956 45.473,169.516 46.035,169.99 L47.194,170.971 C47.896,171.564 48.584,171.394 48.92,170.533 L54.299,156.798 C54.583,156.105 54.44,155.562 53.878,155.087 L52.297,153.751 C51.735,153.276 51.176,153.224 50.54,153.62 L37.89,161.206 Z M45.529,160.829 L48.313,158.997 C49.21,158.398 50.649,157.267 50.649,157.267 L50.684,157.296 C50.684,157.296 49.808,158.903 49.368,159.887 L48.006,162.922 L45.529,160.829 Z M52.967,167.921 C51.239,171.196 52.416,174.781 56.118,176.735 C59.78,178.667 63.403,177.614 65.131,174.339 L69.393,166.264 C69.778,165.531 69.596,164.941 68.864,164.555 L67.542,163.857 C66.81,163.47 66.219,163.652 65.832,164.385 L61.572,172.461 C60.767,173.987 59.341,174.275 57.814,173.47 C56.289,172.664 55.722,171.325 56.526,169.799 L60.788,161.724 C61.173,160.991 60.992,160.4 60.259,160.015 L58.937,159.316 C58.205,158.931 57.614,159.113 57.228,159.846 L52.967,167.921 Z M67.387,180.496 C67.131,181.283 67.412,181.835 68.199,182.09 L75.9,184.59 C76.688,184.846 77.238,184.564 77.494,183.776 L77.777,182.901 C78.033,182.115 77.752,181.564 76.965,181.309 L71.89,179.661 L72.849,176.708 L76.414,177.865 C77.202,178.121 77.752,177.84 78.008,177.053 L78.292,176.178 C78.547,175.39 78.267,174.84 77.479,174.583 L73.914,173.426 L74.837,170.582 L79.606,172.131 C80.394,172.387 80.944,172.105 81.2,171.318 L81.484,170.443 C81.74,169.655 81.459,169.105 80.671,168.85 L73.277,166.448 C72.49,166.193 71.939,166.475 71.684,167.262 L67.387,180.496 Z M81.511,184.71 C81.397,185.529 81.769,186.023 82.588,186.138 L84.069,186.346 C84.89,186.46 85.382,186.088 85.498,185.268 L86.09,181.031 L87.959,181.292 L89.729,186.231 C89.984,186.894 90.401,187.231 91.085,187.327 L92.816,187.569 C93.795,187.706 94.272,187.123 93.892,186.187 L92.155,181.671 C91.863,180.933 91.677,180.605 91.677,180.605 L91.683,180.56 C93.415,179.966 94.5,178.19 94.742,176.459 C95.074,174.091 94.145,172.265 92.399,171.301 C91.73,170.929 90.949,170.703 89.287,170.47 L84.868,169.852 C84.048,169.736 83.554,170.109 83.44,170.93 L81.511,184.71 Z M86.568,177.614 L87.123,173.651 L88.467,173.839 C89.127,173.932 89.597,174.066 89.938,174.277 C90.649,174.679 90.768,175.321 90.652,176.142 C90.472,177.439 89.575,178.035 88.299,177.857 L86.568,177.614 Z M104.323,186.471 C104.438,187.292 104.932,187.664 105.751,187.55 L110.489,186.887 C113.723,186.434 116.503,184.721 116.005,181.168 C115.805,179.732 114.889,178.164 112.941,177.857 L112.935,177.812 C114.066,176.934 114.533,175.451 114.342,174.084 C113.949,171.283 111.467,170.144 108.21,170.6 L103.473,171.263 C102.652,171.377 102.279,171.871 102.395,172.69 L104.323,186.471 Z M107.089,177.19 L106.684,174.297 L108.666,174.021 C109.735,173.871 110.259,174.446 110.363,175.198 C110.473,175.973 110.141,176.764 109.139,176.903 L107.089,177.19 Z M108.006,183.75 L107.534,180.379 L109.949,180.041 C111.11,179.878 111.763,180.554 111.891,181.465 C112.019,182.375 111.56,183.253 110.398,183.414 L108.006,183.75 Z M120.128,184.037 C120.383,184.825 120.933,185.106 121.721,184.851 L129.422,182.351 C130.209,182.095 130.489,181.544 130.233,180.756 L129.949,179.881 C129.695,179.094 129.143,178.813 128.356,179.069 L123.281,180.717 L122.322,177.764 L125.888,176.606 C126.675,176.351 126.955,175.8 126.701,175.013 L126.415,174.138 C126.161,173.35 125.61,173.069 124.822,173.325 L121.258,174.481 L120.334,171.638 L125.103,170.091 C125.891,169.835 126.171,169.284 125.915,168.496 L125.631,167.621 C125.375,166.834 124.824,166.553 124.036,166.81 L116.644,169.21 C115.855,169.465 115.575,170.017 115.83,170.803 L120.128,184.037 Z M133.903,179.426 C134.29,180.158 134.881,180.34 135.612,179.954 L136.936,179.257 C137.667,178.87 137.851,178.279 137.464,177.547 L135.467,173.764 L137.134,172.883 L141.46,175.854 C142.055,176.244 142.591,176.272 143.2,175.951 L144.746,175.135 C145.621,174.674 145.665,173.921 144.811,173.385 L140.761,170.736 C140.093,170.309 139.751,170.152 139.751,170.152 L139.729,170.11 C140.787,168.616 140.629,166.542 139.813,164.996 C138.696,162.881 136.876,161.942 134.896,162.182 C134.135,162.27 133.369,162.544 131.884,163.327 L127.938,165.409 C127.207,165.796 127.023,166.387 127.41,167.118 L133.903,179.426 Z M133.857,170.713 L131.99,167.173 L133.189,166.539 C133.779,166.229 134.239,166.063 134.641,166.035 C135.451,165.944 135.924,166.398 136.31,167.131 C136.921,168.289 136.543,169.296 135.403,169.897 L133.857,170.713 Z M142.924,167.066 C146.17,171.097 151.199,171.181 154.496,168.526 C156.771,166.694 156.933,164.585 156.933,164.585 L156.967,164.556 C156.967,164.556 157.008,164.642 157.094,164.749 L157.123,164.785 C157.47,165.216 158.085,165.281 158.729,164.763 L159.32,164.287 C159.965,163.767 160.031,163.153 159.512,162.508 L155.27,157.241 C154.751,156.597 154.136,156.53 153.491,157.05 L150.876,159.155 C150.231,159.675 150.165,160.29 150.685,160.935 L151.247,161.633 C151.767,162.278 152.381,162.344 153.026,161.824 L153.85,161.161 L154.558,162.039 C154.558,162.039 154.588,163.727 152.761,165.198 C150.808,166.771 147.927,166.64 146.022,164.275 C144.464,162.341 144.208,159.713 146.77,157.65 C147.88,156.756 148.82,156.53 149.656,156.358 C150.492,156.187 150.894,155.805 150.801,154.993 L150.675,153.884 C150.568,153.055 150.184,152.685 149.328,152.725 C148.506,152.767 146.307,153.297 144.264,154.942 C140.34,158.103 139.779,163.161 142.924,167.066 L142.924,167.066 Z M167.331,153.872 C168.012,154.344 168.619,154.233 169.092,153.553 L171.816,149.621 C173.678,146.938 174.303,143.733 171.354,141.689 C170.164,140.863 168.391,140.475 166.843,141.697 L166.806,141.67 C166.928,140.243 166.154,138.896 165.02,138.109 C162.695,136.497 160.175,137.549 158.302,140.252 L155.576,144.185 C155.104,144.865 155.215,145.473 155.896,145.945 L167.331,153.872 Z M162.385,145.546 L159.983,143.882 L161.123,142.237 C161.74,141.349 162.518,141.356 163.142,141.789 C163.784,142.234 164.14,143.013 163.563,143.844 L162.385,145.546 Z M167.827,149.319 L165.03,147.38 L166.419,145.376 C167.088,144.413 168.025,144.391 168.783,144.915 C169.538,145.439 169.871,146.371 169.205,147.335 L167.827,149.319 Z M176.194,140.301 C176.945,140.65 177.526,140.439 177.875,139.688 L181.301,132.354 C181.651,131.603 181.44,131.021 180.691,130.672 L179.857,130.282 C179.105,129.933 178.525,130.144 178.176,130.894 L175.918,135.729 L173.104,134.415 L174.69,131.019 C175.041,130.268 174.829,129.688 174.079,129.337 L173.246,128.947 C172.495,128.598 171.914,128.809 171.564,129.559 L169.978,132.955 L167.269,131.69 L169.39,127.147 C169.74,126.396 169.529,125.816 168.779,125.466 L167.945,125.076 C167.195,124.727 166.614,124.937 166.264,125.688 L162.976,132.731 C162.625,133.482 162.836,134.063 163.586,134.413 L176.194,140.301 Z M182.109,127.059 C182.914,127.254 183.442,126.934 183.639,126.129 L183.993,124.677 C184.189,123.872 183.868,123.345 183.064,123.147 L178.908,122.134 L179.355,120.302 L184.447,119.034 C185.133,118.846 185.509,118.465 185.673,117.794 L186.086,116.098 C186.321,115.136 185.789,114.604 184.82,114.889 L180.151,116.164 C179.389,116.38 179.044,116.533 179.044,116.533 L178.999,116.521 C178.582,114.739 176.924,113.481 175.226,113.068 C172.901,112.5 170.992,113.242 169.857,114.883 C169.422,115.51 169.118,116.265 168.721,117.896 L167.662,122.23 C167.467,123.035 167.786,123.563 168.592,123.76 L182.109,127.059 Z M175.558,121.316 L171.668,120.367 L171.99,119.05 C172.148,118.401 172.33,117.948 172.573,117.629 C173.043,116.963 173.696,116.908 174.501,117.105 C175.774,117.416 176.276,118.367 175.971,119.618 L175.558,121.316 Z M185.751,111.112 C186.577,111.165 187.042,110.756 187.094,109.931 L187.614,101.736 C187.665,100.909 187.257,100.445 186.431,100.393 L185.512,100.336 C184.686,100.282 184.222,100.691 184.171,101.518 L183.825,106.957 L172.119,106.216 C171.292,106.163 170.828,106.572 170.777,107.397 L170.682,108.89 C170.63,109.717 171.039,110.181 171.864,110.232 L185.751,111.112 Z M186.398,97.51 C187.225,97.457 187.633,96.993 187.58,96.168 L187.486,94.675 C187.433,93.849 186.97,93.441 186.144,93.493 L172.256,94.373 C171.43,94.425 171.021,94.889 171.073,95.715 L171.168,97.208 C171.22,98.033 171.685,98.442 172.511,98.39 L186.398,97.51 Z M185.901,88.626 C186.714,88.47 187.062,87.959 186.905,87.146 L186.624,85.677 C186.468,84.864 185.957,84.518 185.143,84.673 L178.864,85.876 C177.848,86.071 176.142,86.585 176.142,86.585 L176.135,86.54 C176.135,86.54 177.689,85.492 178.63,84.656 L184.55,79.377 C185.073,78.926 185.235,78.427 185.105,77.749 L184.767,75.987 C184.611,75.173 184.101,74.827 183.287,74.982 L169.621,77.601 C168.807,77.757 168.461,78.268 168.617,79.082 L168.897,80.55 C169.053,81.363 169.565,81.71 170.377,81.554 L176.68,80.347 C177.697,80.152 179.401,79.638 179.401,79.638 L179.411,79.683 C179.411,79.683 177.854,80.731 176.914,81.567 L170.967,86.827 C170.444,87.278 170.282,87.778 170.417,88.478 L170.754,90.241 C170.909,91.053 171.422,91.4 172.235,91.245 L185.901,88.626 L185.901,88.626 Z" id="Prenzlauer-Berg" fill="#E7792B"></path>
            </g>
        </g>
    </g>
</svg>