<?xml version="1.0" encoding="utf-8"?>
<!-- Generator: Adobe Illustrator 25.2.0, SVG Export Plug-In . SVG Version: 6.00 Build 0)  -->
<svg version="1.1" id="Layer_1" xmlns="http://www.w3.org/2000/svg" xmlns:xlink="http://www.w3.org/1999/xlink" x="0px" y="0px"
	 viewBox="0 0 430 84" style="enable-background:new 0 0 430 84;" xml:space="preserve">
<style type="text/css">
	.st0{fill:#FFFFFF;}
	.st1{fill:#FD0003;}
</style>
<path class="st0" d="M42.5,4C19.7,4,1.2,21.9,1.2,44s18.5,40,41.2,40s41.2-18,41.2-40S65.2,4,42.5,4z"/>
<path class="st1" d="M42.5,7.4C21.7,7.4,4.8,23.9,4.8,44s16.9,36.6,37.7,36.6S80.2,64.2,80.2,44S63.2,7.4,42.5,7.4z M42.5,74.6
	C25,74.6,10.7,60.9,10.7,44S25,13.4,42.5,13.4S74.2,27.1,74.2,44S60,74.6,42.5,74.6z"/>
<path class="st1" d="M36.1,25.3c9.8,17.2,12.4,20.5,14.1,24.2c-0.3-4.2-0.4-8.1-0.4-23.7c0-0.5,0.4-0.9,0.9-0.9h7.3
	c0.5,0,0.9,0.4,0.9,0.9v36.5c0,0.5-0.4,0.9-0.9,0.9l0,0h-8.4c-0.3,0-0.6-0.2-0.8-0.5C40,47.5,36.6,42.4,34.9,39
	c0.2,3.9,0.2,7.7,0.2,23.3c0,0.5-0.4,0.9-0.9,0.9h-7.3c-0.5,0-0.9-0.4-0.9-0.9V25.8c0-0.5,0.4-0.9,0.9-0.9h8.4
	C35.6,24.9,35.9,25,36.1,25.3z"/>
<path class="st0" d="M104.9,37h-2c-0.2,0-0.4-0.1-0.5-0.3l-4-8.9v8.7c0,0.3-0.2,0.5-0.5,0.5c0,0,0,0,0,0h-1.8
	c-0.3,0-0.5-0.2-0.5-0.5c0,0,0,0,0,0v-13c0-0.3,0.2-0.5,0.5-0.5c0,0,0,0,0,0h2c0.2,0,0.4,0.1,0.5,0.3l4,9v-8.8
	c0-0.3,0.2-0.5,0.5-0.5h1.8c0.3,0,0.5,0.2,0.5,0.5v13C105.4,36.7,105.2,37,104.9,37C104.9,37,104.9,37,104.9,37z"/>
<path class="st0" d="M114.9,30.9H111v3.7h4.7c0.3,0,0.5,0.2,0.5,0.5v1.3c0,0.3-0.2,0.5-0.5,0.5h-7c-0.3,0-0.5-0.2-0.5-0.5v-13
	c0-0.3,0.2-0.5,0.5-0.5h7c0.3,0,0.5,0.2,0.5,0.5c0,0,0,0,0,0v1.3c0,0.3-0.2,0.5-0.5,0.5c0,0,0,0,0,0H111v3.3h3.9
	c0.3,0,0.5,0.2,0.5,0.5v1.2C115.5,30.7,115.2,30.9,114.9,30.9C114.9,30.9,114.9,30.9,114.9,30.9z"/>
<path class="st0" d="M127.1,22.9c0.3,0,0.5,0.2,0.5,0.5c0,0,0,0,0,0v9.2c0.1,1.2-0.4,2.4-1.2,3.3c-2,1.6-4.9,1.6-6.9,0
	c-0.9-0.9-1.3-2.2-1.2-3.4v-9.2c0-0.3,0.2-0.5,0.5-0.5c0,0,0,0,0,0h1.8c0.3,0,0.5,0.2,0.5,0.5v9.2c0,0.6,0.1,1.2,0.4,1.7
	c0.4,0.4,0.9,0.6,1.4,0.5c0.5,0.1,1-0.1,1.4-0.5c0.3-0.5,0.4-1.1,0.4-1.7v-9.2c0-0.3,0.2-0.5,0.5-0.5H127.1z"/>
<path class="st0" d="M134.2,31.5l-1,1.3c-0.1,0.1-0.1,0.2-0.1,0.3v3.4c0,0.3-0.2,0.5-0.5,0.5l0,0h-1.9c-0.3,0-0.5-0.2-0.5-0.5
	c0,0,0,0,0,0V23.4c0-0.3,0.2-0.5,0.5-0.5c0,0,0,0,0,0h1.9c0.3,0,0.5,0.2,0.5,0.5c0,0,0,0,0,0V29l0.9-1.5l2.5-4.4
	c0.1-0.2,0.3-0.2,0.4-0.2h2.3c0.3,0,0.5,0.2,0.5,0.5c0,0.1,0,0.2-0.1,0.3l-3.6,5.5l3.7,7.2c0.1,0.2,0,0.5-0.2,0.7
	c-0.1,0-0.1,0.1-0.2,0.1h-2.3c-0.2,0-0.4-0.1-0.4-0.3L134.2,31.5z"/>
<path class="st0" d="M150.7,52.5h-3.9v3.7h4.7c0.3,0,0.5,0.2,0.5,0.5v1.3c0,0.3-0.2,0.5-0.5,0.5h-7c-0.3,0-0.5-0.2-0.5-0.5v-13
	c0-0.3,0.2-0.5,0.5-0.5h7c0.3,0,0.5,0.2,0.5,0.5v1.3c0,0.3-0.2,0.5-0.5,0.5c0,0,0,0,0,0h-4.7v3.3h3.9c0.3,0,0.5,0.2,0.5,0.5
	c0,0,0,0,0,0V52C151.3,52.3,151.1,52.5,150.7,52.5C150.8,52.5,150.7,52.5,150.7,52.5z"/>
<path class="st0" d="M136.6,53.2l-1,1.3c-0.1,0.1-0.1,0.2-0.1,0.3v3.4c0,0.3-0.2,0.5-0.5,0.5h-1.9c-0.3,0-0.5-0.2-0.5-0.5
	c0,0,0,0,0,0V45c0-0.3,0.2-0.5,0.5-0.5h1.9c0.3,0,0.5,0.2,0.5,0.5v5.7l0.9-1.5l2.5-4.4c0.1-0.1,0.2-0.2,0.4-0.2h2.3
	c0.3,0,0.5,0.2,0.5,0.5c0,0.1,0,0.2-0.1,0.3l-3.6,5.5l3.8,7.2c0.1,0.2,0,0.5-0.2,0.7c-0.1,0-0.1,0.1-0.2,0.1h-2.3
	c-0.2,0-0.4-0.1-0.4-0.3L136.6,53.2z"/>
<path class="st0" d="M151.4,31.2c0.1,1.6-0.4,3.1-1.3,4.4c-0.9,1.1-2.3,1.6-3.7,1.6c-1.4,0.1-2.8-0.5-3.7-1.5
	c-1-1.2-1.4-2.8-1.3-4.4v-2.4c-0.1-1.6,0.4-3.2,1.4-4.5c1.9-2.1,5.2-2.2,7.2-0.2c0.1,0.1,0.2,0.2,0.2,0.2c1,1.3,1.5,2.9,1.4,4.5
	L151.4,31.2z M142.5,20.8c0-0.3,0.1-0.7,0.4-0.9c0.3-0.2,0.6-0.4,0.9-0.4c0.4,0,0.7,0.1,1,0.4c0.5,0.4,0.5,1.2,0.1,1.7
	c0,0-0.1,0.1-0.1,0.1c-0.3,0.2-0.6,0.4-1,0.4c-0.3,0-0.7-0.1-0.9-0.4C142.7,21.4,142.5,21.1,142.5,20.8z M148.5,28.9
	c0.1-1-0.1-2-0.5-2.8c-0.6-0.9-1.8-1.2-2.8-0.6c-0.2,0.2-0.4,0.4-0.6,0.6c-0.4,0.8-0.6,1.8-0.6,2.7v2.5c-0.1,0.9,0.1,1.9,0.6,2.7
	c0.4,0.6,1,0.9,1.7,0.9c0.7,0,1.3-0.3,1.7-0.9c0.4-0.8,0.6-1.7,0.6-2.7L148.5,28.9z M147.3,20.8c0-0.3,0.1-0.7,0.4-0.9
	c0.5-0.5,1.4-0.5,1.9,0c0.3,0.2,0.4,0.5,0.4,0.9c0,0.3-0.1,0.6-0.4,0.9c-0.3,0.3-0.6,0.4-1,0.4c-0.4,0-0.7-0.1-1-0.4
	C147.4,21.4,147.3,21.1,147.3,20.8L147.3,20.8z"/>
<path class="st0" d="M156.7,34.6h4.5c0.3,0,0.5,0.2,0.5,0.5v1.3c0,0.3-0.2,0.5-0.5,0.5h-6.8c-0.3,0-0.5-0.2-0.5-0.5v-13
	c0-0.3,0.2-0.5,0.5-0.5h1.8c0.3,0,0.5,0.2,0.5,0.5L156.7,34.6z"/>
<path class="st0" d="M166.7,34.6h4.5c0.3,0,0.5,0.2,0.5,0.5c0,0,0,0,0,0v1.3c0,0.3-0.2,0.5-0.5,0.5c0,0,0,0,0,0h-6.8
	c-0.3,0-0.5-0.2-0.5-0.5v-13c0-0.3,0.2-0.5,0.5-0.5h1.8c0.3,0,0.5,0.2,0.5,0.5c0,0,0,0,0,0L166.7,34.6z"/>
<path class="st0" d="M201,31.8h-1.4v4.6c0,0.3-0.2,0.5-0.5,0.5c0,0,0,0,0,0h-1.8c-0.3,0-0.5-0.2-0.5-0.5v-13c0-0.3,0.2-0.5,0.5-0.5
	h4c1.2-0.1,2.4,0.3,3.3,1.1c0.8,0.8,1.2,2,1.2,3.2c0.2,1.6-0.6,3.1-2,3.9c0,0,2.3,5.3,2.4,5.6S206,37,206,37h-2.4
	c-0.2,0-0.4-0.1-0.5-0.3L201,31.8z M199.6,29.5h1.6c0.5,0,1-0.2,1.3-0.6c0.3-0.4,0.5-1,0.4-1.5c0-1.4-0.6-2.1-1.7-2.1h-1.7
	L199.6,29.5z"/>
<path class="st0" d="M219.2,33.3c0-0.5-0.1-0.9-0.4-1.3c-0.5-0.4-1-0.7-1.6-0.9c-1.2-0.4-2.2-1-3.1-1.9c-0.6-0.7-0.9-1.6-0.9-2.5
	c0-1.1,0.4-2.1,1.3-2.9c0.9-0.7,2.1-1.1,3.2-1.1c0.8,0,1.6,0.2,2.3,0.5c0.7,0.3,1.2,0.9,1.6,1.5c0.3,0.5,0.5,1.1,0.5,1.7
	c0,0.3-0.2,0.5-0.4,0.6c0,0,0,0-0.1,0h-1.8c-0.3,0-0.5-0.2-0.5-0.5c0-0.4-0.2-0.7-0.4-1c-0.3-0.4-0.7-0.5-1.2-0.5
	c-0.4,0-0.9,0.1-1.2,0.4c-0.3,0.3-0.4,0.8-0.4,1.2c0,0.4,0.2,0.8,0.5,1c0.5,0.4,1,0.8,1.6,1l0,0c1.1,0.3,2.2,1,3,1.8
	c0.6,0.8,1,1.8,0.9,2.8c0.1,1.1-0.4,2.1-1.2,2.9c-0.9,0.7-2,1.1-3.2,1c-0.9,0-1.7-0.2-2.5-0.6c-0.7-0.4-1.3-0.9-1.8-1.6
	c-0.3-0.6-0.5-1.2-0.6-1.9c0-0.3,0.2-0.5,0.5-0.6c0,0,0,0,0.1,0h1.8c0.3,0,0.5,0.2,0.5,0.5c0,0.5,0.2,0.9,0.4,1.3
	c0.4,0.4,1,0.6,1.6,0.6C218.8,34.9,219.2,34.3,219.2,33.3z"/>
<path class="st0" d="M227.4,32v4.4c0,0.3-0.2,0.5-0.5,0.5h-1.8c-0.3,0-0.5-0.2-0.5-0.5v-13c0-0.3,0.2-0.5,0.5-0.5h4.3
	c1.2-0.1,2.5,0.4,3.3,1.3c0.8,0.9,1.3,2.1,1.2,3.4c0.1,1.2-0.4,2.4-1.2,3.3c-0.9,0.8-2.2,1.2-3.5,1.1H227.4z M227.4,29.6h2
	c0.5,0,0.9-0.2,1.3-0.5c0.3-0.4,0.5-1,0.4-1.5c0-0.6-0.1-1.2-0.5-1.7c-0.3-0.4-0.7-0.6-1.2-0.6h-2L227.4,29.6z"/>
<path class="st0" d="M246.2,31.2c0.1,1.6-0.4,3.2-1.3,4.4c-0.9,1.1-2.3,1.6-3.7,1.6c-1.4,0.1-2.8-0.5-3.7-1.5
	c-1-1.2-1.5-2.8-1.4-4.4v-2.4c-0.1-1.6,0.4-3.2,1.4-4.5c1.9-2.1,5.2-2.2,7.2-0.2c0.1,0.1,0.2,0.2,0.2,0.2c1,1.3,1.5,2.9,1.4,4.5
	V31.2z M243.4,28.8c0.1-1-0.1-2-0.5-2.8c-0.6-0.9-1.8-1.2-2.8-0.6c-0.2,0.2-0.4,0.4-0.6,0.6c-0.4,0.8-0.6,1.8-0.6,2.7v2.5
	c-0.1,0.9,0.1,1.9,0.6,2.7c0.4,0.6,1,0.9,1.7,0.9c0.7,0,1.3-0.3,1.6-0.9c0.4-0.8,0.6-1.7,0.6-2.7L243.4,28.8z"/>
<path class="st0" d="M268.4,25.3h-3v11.2c0,0.3-0.2,0.5-0.5,0.5h-1.8c-0.3,0-0.5-0.2-0.5-0.5V25.3h-2.9c-0.3,0-0.5-0.2-0.5-0.5
	c0,0,0,0,0,0v-1.3c0-0.3,0.2-0.5,0.5-0.5h8.7c0.3,0,0.5,0.2,0.5,0.5v1.3C268.9,25,268.7,25.2,268.4,25.3z"/>
<path class="st0" d="M277.8,31.2h-3.9v5.2c0,0.3-0.2,0.5-0.5,0.5c0,0,0,0,0,0h-1.8c-0.3,0-0.5-0.2-0.5-0.5v-13
	c0-0.3,0.2-0.5,0.5-0.5h6.8c0.3,0,0.5,0.2,0.5,0.5c0,0,0,0,0,0v1.3c0,0.3-0.2,0.5-0.5,0.5c0,0,0,0,0,0h-4.4v3.6h3.9
	c0.3,0,0.5,0.2,0.5,0.5c0,0,0,0,0,0v1.3C278.3,31,278.1,31.2,277.8,31.2z"/>
<path class="st0" d="M327.2,36.5v-13c0-0.3,0.2-0.5,0.5-0.5h3.2c1.5-0.1,2.9,0.5,3.9,1.6c1,1.2,1.6,2.7,1.5,4.3v2.3
	c0.1,1.6-0.4,3.2-1.5,4.4c-1.1,1.1-2.5,1.6-4.1,1.5h-3.1C327.4,37,327.2,36.8,327.2,36.5z M330,25.3v9.4h0.9c0.7,0.1,1.5-0.2,2-0.8
	c0.5-0.8,0.7-1.7,0.6-2.6v-2.5c0.1-1-0.1-1.9-0.5-2.8c-0.5-0.6-1.2-0.9-1.9-0.8H330z"/>
<path class="st0" d="M104.9,58.7h-1.8c-0.3,0-0.5-0.2-0.5-0.5c0,0,0,0,0,0v-5.5h-4.2v5.5c0,0.3-0.2,0.5-0.5,0.5c0,0,0,0,0,0h-1.8
	c-0.3,0-0.5-0.2-0.5-0.5c0,0,0,0,0,0V45.1c0-0.3,0.2-0.5,0.5-0.5h1.8c0.3,0,0.5,0.2,0.5,0.5v5.2h4.2v-5.2c0-0.3,0.2-0.5,0.5-0.5h1.8
	c0.3,0,0.5,0.2,0.5,0.5c0,0,0,0,0,0v13.1C105.4,58.4,105.2,58.7,104.9,58.7L104.9,58.7z"/>
<path class="st0" d="M118.1,52.9c0.1,1.6-0.4,3.1-1.3,4.4c-0.9,1.1-2.3,1.6-3.7,1.6c-1.4,0.1-2.8-0.5-3.7-1.6
	c-1-1.2-1.5-2.8-1.4-4.3v-2.4c-0.1-1.6,0.4-3.2,1.3-4.5c0.9-1.1,2.3-1.7,3.7-1.6c1.4-0.1,2.8,0.6,3.7,1.6c1,1.3,1.5,2.9,1.4,4.5
	V52.9z M115.3,50.5c0.1-1-0.1-2-0.5-2.8c-0.3-0.6-1-1-1.7-0.9c-0.7,0-1.3,0.3-1.7,0.9c-0.4,0.8-0.6,1.8-0.6,2.7v2.5
	c-0.1,0.9,0.1,1.9,0.6,2.7c0.4,0.6,1,0.9,1.7,0.9c0.7,0,1.3-0.3,1.7-0.9c0.4-0.8,0.6-1.7,0.6-2.7L115.3,50.5z"/>
<path class="st0" d="M129.7,54c0.3,0,0.5,0.2,0.5,0.5c0,0,0,0,0,0.1c-0.1,1.1-0.5,2.2-1.3,3.1c-1,0.9-2.2,1.3-3.5,1.2
	c-1.4,0.1-2.8-0.5-3.7-1.6c-0.9-1.3-1.4-2.9-1.3-4.5v-2.4c-0.1-1.6,0.4-3.2,1.3-4.5c1.9-2,5.1-2.1,7.2-0.3c0.8,0.9,1.2,2,1.3,3.1
	c0,0.3-0.2,0.5-0.5,0.6c0,0,0,0-0.1,0h-1.8c-0.3,0-0.5-0.2-0.5-0.5c0-0.6-0.1-1.1-0.4-1.6c-0.4-0.4-1-0.6-1.6-0.6
	c-0.6-0.1-1.3,0.3-1.6,0.8c-0.4,0.8-0.5,1.7-0.5,2.6v2.7c-0.1,1,0.1,2,0.5,2.9c0.3,0.5,1,0.8,1.6,0.8c0.6,0.1,1.1-0.1,1.6-0.5
	c0.3-0.5,0.4-1,0.5-1.5c0-0.3,0.2-0.5,0.5-0.5L129.7,54z"/>
<path class="st0" d="M158.5,50.9l2-6c0.1-0.2,0.3-0.4,0.5-0.4h1.9c0.3,0,0.5,0.2,0.5,0.5c0,0.1,0,0.1,0,0.2l-3.4,8.2
	c0,0.1,0,0.1,0,0.2v4.5c0,0.3-0.2,0.5-0.5,0.5h-1.8c-0.3,0-0.5-0.2-0.5-0.5v-4.5c0-0.1,0-0.1,0-0.2l-3.4-8.2c-0.1-0.3,0-0.6,0.3-0.7
	c0.1,0,0.1,0,0.2,0h1.9c0.2,0,0.4,0.1,0.5,0.4L158.5,50.9z"/>
<path class="st0" d="M183.2,37h-2c-0.2,0-0.4-0.1-0.5-0.3l-4-8.9v8.7c0,0.3-0.2,0.5-0.5,0.5l0,0h-1.8c-0.3,0-0.5-0.2-0.5-0.5
	c0,0,0,0,0,0V23.4c0-0.3,0.2-0.5,0.5-0.5c0,0,0,0,0,0h2c0.2,0,0.4,0.1,0.5,0.3l4,9v-8.7c0-0.3,0.2-0.5,0.5-0.5l0,0h1.8
	c0.3,0,0.5,0.2,0.5,0.5c0,0,0,0,0,0v13.1C183.8,36.8,183.5,37,183.2,37C183.2,37,183.2,37,183.2,37z"/>
<path class="st0" d="M193.3,30.9h-3.9v3.7h4.7c0.3,0,0.5,0.2,0.5,0.5v1.3c0,0.3-0.2,0.5-0.5,0.5c0,0,0,0,0,0h-7
	c-0.3,0-0.5-0.2-0.5-0.5c0,0,0,0,0,0V23.4c0-0.3,0.2-0.5,0.5-0.5c0,0,0,0,0,0h7c0.3,0,0.5,0.2,0.5,0.5c0,0,0,0,0,0v1.3
	c0,0.3-0.2,0.5-0.5,0.5h-4.7v3.3h3.9c0.3,0,0.5,0.2,0.5,0.5v1.2C193.8,30.7,193.6,30.9,193.3,30.9C193.3,30.9,193.3,30.9,193.3,30.9
	z"/>
<path class="st0" d="M253.1,31.9h-1.4v4.6c0,0.3-0.2,0.5-0.5,0.5c0,0,0,0,0,0h-1.8c-0.3,0-0.5-0.2-0.5-0.5v0V23.4
	c0-0.3,0.2-0.5,0.5-0.5l0,0h4c1.2-0.1,2.4,0.3,3.3,1.1c0.8,0.8,1.2,2,1.2,3.1c0.1,1.6-0.7,3.1-2.1,3.9c0,0,2.3,5.3,2.4,5.6
	S258,37,258,37h-2.5c-0.2,0-0.4-0.1-0.5-0.3L253.1,31.9z M251.7,29.5h1.6c0.5,0,1-0.2,1.3-0.6c0.3-0.4,0.5-1,0.4-1.5
	c0-1.4-0.6-2.1-1.7-2.1h-1.7L251.7,29.5z"/>
<path class="st0" d="M285.2,31.9h-1.4v4.6c0,0.3-0.2,0.5-0.5,0.5c0,0,0,0,0,0h-1.8c-0.3,0-0.5-0.2-0.5-0.5V23.4
	c0-0.3,0.2-0.5,0.5-0.5h4c1.2-0.1,2.4,0.3,3.4,1.1c0.8,0.8,1.2,2,1.2,3.1c0.1,1.6-0.7,3.1-2,3.9c0,0,2.3,5.3,2.4,5.6
	s-0.2,0.3-0.2,0.3h-2.5c-0.2,0-0.4-0.1-0.5-0.3L285.2,31.9z M283.8,29.5h1.6c0.5,0,1-0.2,1.3-0.6c0.3-0.4,0.5-1,0.4-1.5
	c0-1.4-0.5-2.1-1.7-2.1h-1.7L283.8,29.5z"/>
<path class="st0" d="M299.2,30.9h-3.9v3.7h4.7c0.3,0,0.5,0.2,0.5,0.5v1.3c0,0.3-0.2,0.5-0.5,0.5h-7c-0.3,0-0.5-0.2-0.5-0.5v-13
	c0-0.3,0.2-0.5,0.5-0.5h7c0.3,0,0.5,0.2,0.5,0.5v1.3c0,0.3-0.2,0.5-0.5,0.5h-4.7v3.3h3.9c0.3,0,0.5,0.2,0.5,0.5v1.2
	C299.8,30.7,299.5,30.9,299.2,30.9C299.2,30.9,299.2,30.9,299.2,30.9z"/>
<path class="st0" d="M345.6,30.9h-3.9v3.7h4.7c0.3,0,0.5,0.2,0.5,0.5v1.3c0,0.3-0.2,0.5-0.5,0.5h-7c-0.3,0-0.5-0.2-0.5-0.5
	c0,0,0,0,0,0v-13c0-0.3,0.2-0.5,0.5-0.5c0,0,0,0,0,0h7c0.3,0,0.5,0.2,0.5,0.5v1.3c0,0.3-0.2,0.5-0.5,0.5h-4.7v3.3h3.9
	c0.3,0,0.5,0.2,0.5,0.5c0,0,0,0,0,0v1.2C346.1,30.6,345.9,30.9,345.6,30.9z"/>
<path class="st0" d="M323.9,37h-2c-0.2,0-0.4-0.1-0.5-0.3l-4-8.9v8.7c0,0.3-0.2,0.5-0.5,0.5c0,0,0,0,0,0h-1.8
	c-0.3,0-0.5-0.2-0.5-0.5c0,0,0,0,0,0v-13c0-0.3,0.2-0.5,0.5-0.5c0,0,0,0,0,0h2c0.2,0,0.4,0.1,0.5,0.3l4,9v-8.8
	c0-0.3,0.2-0.5,0.5-0.5h1.8c0.3,0,0.5,0.2,0.5,0.5v13C324.4,36.7,324.2,37,323.9,37C323.9,37,323.9,37,323.9,37z"/>
<path class="st0" d="M311.3,22.9c0.3,0,0.5,0.2,0.5,0.5v9.2c0.1,1.2-0.4,2.4-1.2,3.3c-2,1.6-4.9,1.6-6.9,0c-0.8-0.9-1.3-2.2-1.2-3.4
	v-9.2c0-0.3,0.2-0.5,0.5-0.5c0,0,0,0,0,0h1.8c0.3,0,0.5,0.2,0.5,0.5v9.2c-0.1,0.6,0.1,1.2,0.4,1.7c0.4,0.4,0.9,0.6,1.4,0.5
	c0.5,0.1,1-0.1,1.4-0.5c0.3-0.5,0.4-1.1,0.4-1.7v-9.2c0-0.3,0.2-0.5,0.5-0.5c0,0,0,0,0,0H311.3z"/>
<g>
	<g>
		<path class="st0" d="M359.5,37h-1.7c-0.3,0-0.5-0.2-0.5-0.5V26.2l-2,0.8c-0.3,0.1-0.7-0.1-0.7-0.5v-1.2c0-0.2,0.1-0.4,0.3-0.5
			l4.8-2l0,0c0.2,0,0.3,0.1,0.3,0.3v13.3C360,36.8,359.8,37,359.5,37z"/>
		<path class="st0" d="M368.3,31.5c-0.6,0.6-1.2,0.9-1.9,0.9c-1.1,0-1.9-0.4-2.5-1.3c-0.6-0.9-0.9-2-0.9-3.5c0-0.9,0.2-1.8,0.5-2.6
			c0.3-0.8,0.8-1.4,1.5-1.8c0.6-0.4,1.3-0.6,2.1-0.6c0.8,0,1.5,0.2,2.1,0.7c0.6,0.5,1.1,1.1,1.4,2c0.3,0.9,0.5,1.9,0.5,3v1
			c0,2.4-0.5,4.3-1.6,5.6c-1,1.3-2.4,2-4.2,2.1c-0.6,0-0.6-0.5-0.6-0.5v-1.5c0-0.2,0.2-0.4,0.4-0.4c0,0,0,0,0,0c1,0,1.7-0.3,2.2-0.8
			C367.9,33.4,368.2,32.6,368.3,31.5z M367.1,30.3c0.5,0,0.9-0.3,1.2-1c0,0,0-0.1,0-0.1v-1.2c0-0.9-0.1-1.7-0.4-2.2
			c-0.3-0.5-0.6-0.8-1-0.8c-0.4,0-0.7,0.3-1,0.8c-0.2,0.5-0.4,1.2-0.4,1.9c0,0.8,0.1,1.5,0.4,1.9S366.6,30.3,367.1,30.3z"/>
		<path class="st0" d="M381.7,31.2c0,2-0.4,3.4-1.1,4.5c-0.7,1-1.7,1.6-3,1.6c-1.3,0-2.3-0.5-3-1.5c-0.7-1-1.1-2.4-1.1-4.3v-2.7
			c0-1.9,0.4-3.4,1.1-4.5c0.7-1,1.7-1.5,3-1.5s2.3,0.5,3,1.5c0.7,1,1.1,2.5,1.1,4.4V31.2z M379,28.3c0-1.1-0.1-2-0.3-2.5
			c-0.2-0.6-0.6-0.8-1-0.8c-0.9,0-1.3,1-1.4,3.1v3.5c0,1.1,0.1,2,0.3,2.5c0.2,0.6,0.6,0.8,1,0.8c0.4,0,0.8-0.3,1-0.8
			c0.2-0.5,0.3-1.3,0.3-2.4V28.3z"/>
		<path class="st0" d="M392.1,24.5l-4.3,12.1c-0.1,0.2-0.3,0.3-0.5,0.3h-1.8c-0.4,0-0.6-0.4-0.5-0.7l4.2-11.1h-5.1
			c-0.3,0-0.5-0.2-0.5-0.5v-1.2c0-0.3,0.2-0.5,0.5-0.5h7.5c0.3,0,0.5,0.2,0.5,0.5v1C392.1,24.4,392.1,24.5,392.1,24.5z"/>
		<path class="st0" d="M402.4,37.2c-1.4,0-2.5-0.4-3.3-1.3c-0.8-0.8-1.2-2-1.2-3.6v-0.8c0-1.7,0.4-2.9,1.1-3.8
			c0.7-0.9,1.8-1.3,3.1-1.3c1.3,0,2.3,0.4,3,1.3c0.7,0.8,1,2.1,1,3.7v0.8c0,0.3-0.2,0.5-0.5,0.5l-4.9,0c0,0.8,0.2,1.4,0.5,1.7
			c0.3,0.4,0.8,0.5,1.4,0.5c0.7,0,1.3-0.2,1.9-0.6c0.2-0.2,0.6-0.1,0.8,0.1l0.5,0.8c0.1,0.2,0.1,0.5-0.1,0.7
			c-0.3,0.3-0.7,0.6-1.2,0.8C403.9,37,403.2,37.2,402.4,37.2z M400.7,30.8h2.7v-0.3c0-0.6-0.1-1.1-0.3-1.4c-0.2-0.3-0.5-0.5-1-0.5
			c-0.5,0-0.8,0.2-1,0.5C400.9,29.4,400.7,30,400.7,30.8z"/>
		<path class="st0" d="M408,35.6c0-0.4,0.1-0.8,0.4-1.1c0.3-0.3,0.7-0.4,1.1-0.4c0.5,0,0.8,0.1,1.1,0.4c0.3,0.3,0.5,0.6,0.5,1.1
			c0,0.5-0.2,0.8-0.5,1.1c-0.3,0.3-0.7,0.4-1.1,0.4c-0.5,0-0.8-0.1-1.1-0.4C408.2,36.4,408,36,408,35.6z"/>
		<path class="st0" d="M415.7,33.1l2.3-9.8c0.1-0.2,0.3-0.4,0.5-0.4h2.1c0.3,0,0.6,0.3,0.5,0.7l-3.8,13.1c-0.1,0.2-0.3,0.4-0.5,0.4
			h-2.2c-0.2,0-0.4-0.2-0.5-0.4l-3.7-13.1c-0.1-0.3,0.2-0.7,0.5-0.7h2c0.2,0,0.5,0.2,0.5,0.4L415.7,33.1z"/>
		<path class="st0" d="M420.6,35.6c0-0.4,0.1-0.8,0.4-1.1c0.3-0.3,0.7-0.4,1.1-0.4c0.5,0,0.8,0.1,1.1,0.4c0.3,0.3,0.5,0.6,0.5,1.1
			c0,0.5-0.2,0.8-0.5,1.1c-0.3,0.3-0.7,0.4-1.1,0.4c-0.5,0-0.8-0.1-1.1-0.4C420.7,36.4,420.6,36,420.6,35.6z"/>
	</g>
</g>
</svg>
