<?xml version="1.0" encoding="UTF-8"?>
<!-- Generator: Adobe Illustrator 16.0.2, SVG Export Plug-In . SVG Version: 6.00 Build 0)  -->
<!DOCTYPE svg PUBLIC "-//W3C//DTD SVG 1.1//EN" "http://www.w3.org/Graphics/SVG/1.1/DTD/svg11.dtd">
<svg version="1.1" id="Ebene_2" xmlns="http://www.w3.org/2000/svg" xmlns:xlink="http://www.w3.org/1999/xlink" x="0px" y="0px" width="187px" height="184px" viewBox="0 0 187 184" enable-background="new 0 0 187 184" xml:space="preserve">
<g>
	<path fill="#FDFDFD" d="M94.671,167.714c-41.685,0-75.598-33.913-75.598-75.598c0-41.685,33.913-75.598,75.598-75.598   c41.685,0,75.599,33.913,75.599,75.598C170.27,133.801,136.355,167.714,94.671,167.714z"/>
	<path fill="#CC0000" d="M94.671,31.519c33.468,0,60.599,27.13,60.599,60.598c0,33.468-27.131,60.598-60.599,60.598   c-33.467,0-60.598-27.13-60.598-60.598C34.073,58.649,61.204,31.519,94.671,31.519 M94.671,1.519   c-49.956,0-90.598,40.642-90.598,90.598c0,49.955,40.642,90.598,90.598,90.598s90.599-40.643,90.599-90.598   C185.27,42.161,144.626,1.519,94.671,1.519L94.671,1.519z"/>
	<path fill="#FFFFFF" d="M94.671,31.519c33.468,0,60.599,27.13,60.599,60.598c0,33.468-27.131,60.598-60.599,60.598   c-33.467,0-60.598-27.13-60.598-60.598C34.073,58.649,61.204,31.519,94.671,31.519 M94.671,6.519   c-47.199,0-85.598,38.399-85.598,85.598s38.399,85.598,85.598,85.598c47.199,0,85.599-38.398,85.599-85.598   S141.87,6.519,94.671,6.519L94.671,6.519z"/>
	<path fill="#CC0000" d="M94.671,31.519c33.468,0,60.599,27.13,60.599,60.598c0,33.468-27.131,60.598-60.599,60.598   c-33.467,0-60.598-27.13-60.598-60.598C34.073,58.649,61.204,31.519,94.671,31.519 M94.671,26.519   c-36.171,0-65.598,29.427-65.598,65.598c0,36.171,29.427,65.598,65.598,65.598s65.599-29.427,65.599-65.598   C160.27,55.946,130.842,26.519,94.671,26.519L94.671,26.519z"/>
</g>
<g>
	<g>
		<g>
			<path d="M66.965,154.626c0.847,0.13,2.476,0.567,3.995,1.123c1.835,0.67,2.895,1.258,3.652,2.183     c0.748,0.832,1.067,1.978,0.621,3.2c-0.425,1.164-1.512,1.997-3.2,2.029l-0.014,0.04c1.375,0.949,2.075,2.523,1.448,4.24     c-0.447,1.224-1.345,1.969-2.411,2.316c-1.248,0.418-3.024,0.26-5.667-0.705c-1.48-0.539-2.549-1.041-3.184-1.386L66.965,154.626     z M65.939,166.684c0.274,0.166,0.629,0.297,1.143,0.483c1.361,0.497,2.759,0.403,3.271-0.997c0.49-1.342-0.519-2.313-2.019-2.861     l-1.026-0.375L65.939,166.684z M68.093,160.784l0.987,0.36c1.598,0.582,2.664,0.234,3.024-0.752     c0.367-1.006-0.208-1.82-1.569-2.316c-0.671-0.245-1.06-0.342-1.319-0.37L68.093,160.784z"/>
			<path d="M85.069,167.846l-5.12-0.941l-0.608,3.303l5.719,1.052l-0.475,2.581l-8.856-1.63l2.561-13.915l8.568,1.577l-0.475,2.581     l-5.43-0.999l-0.532,2.89l5.12,0.942L85.069,167.846z"/>
			<path d="M88.499,160.27c1.033-0.168,2.547-0.265,4.269-0.23c2.1,0.041,3.563,0.385,4.554,1.225     c0.849,0.688,1.291,1.684,1.266,2.985c-0.035,1.785-1.34,2.999-2.566,3.416v0.063c0.979,0.418,1.506,1.353,1.838,2.662     c0.408,1.625,0.793,3.48,1.055,4.031l-3.275-0.064c-0.201-0.402-0.537-1.564-0.9-3.314c-0.364-1.792-0.963-2.268-2.286-2.313     l-0.945-0.02l-0.109,5.564l-3.17-0.063L88.499,160.27z M91.55,166.398l1.26,0.025c1.596,0.031,2.556-0.748,2.581-1.986     c0.025-1.281-0.843-1.971-2.313-2c-0.777-0.015-1.219,0.019-1.451,0.078L91.55,166.398z"/>
			<path d="M100.229,160.055l3.162-0.445l1.6,11.355l5.574-0.785l0.375,2.662l-8.735,1.23L100.229,160.055z"/>
			<path d="M113.314,157.563l3.6,13.689l-3.087,0.813l-3.601-13.688L113.314,157.563z"/>
			<path d="M120.883,170.223l-5.512-13.041l3.443-1.457l4.729,3.635c1.354,1.045,2.796,2.353,4.019,3.57l0.039-0.018     c-0.902-1.648-1.705-3.385-2.539-5.357l-1.604-3.793l2.708-1.145l5.513,13.041l-3.096,1.309l-4.913-3.854     c-1.371-1.084-2.944-2.381-4.21-3.646l-0.077,0.032c0.833,1.701,1.648,3.522,2.548,5.651l1.662,3.927L120.883,170.223z"/>
		</g>
		<g>
			<path d="M28.052,114.447c0.192-0.928,0.245-2.342-0.132-3.654c-0.406-1.413-1.206-1.992-2.114-1.73     c-0.828,0.237-1.147,1.028-1.243,2.826c-0.158,2.492-0.98,4.346-2.979,4.92c-2.322,0.666-4.64-0.787-5.557-3.978     c-0.446-1.554-0.462-2.751-0.311-3.669l2.66-0.021c-0.111,0.602-0.211,1.7,0.166,3.012c0.383,1.334,1.194,1.8,1.88,1.603     c0.868-0.249,1.037-1.106,1.213-3.08c0.198-2.657,1.131-4.127,3.069-4.685c2.281-0.654,4.718,0.525,5.791,4.26     c0.446,1.555,0.463,3.21,0.259,4.1L28.052,114.447z"/>
			<path d="M14.524,104.842c-0.278-0.962-0.558-2.326-0.776-4.267c-0.221-1.962-0.005-3.425,0.662-4.45     c0.588-0.975,1.691-1.691,3.068-1.846c1.399-0.158,2.617,0.148,3.483,0.896c1.124,0.973,1.788,2.547,1.999,4.426     c0.047,0.418,0.068,0.795,0.039,1.096l5.052-0.569l0.354,3.151L14.524,104.842z M20.557,100.971     c0.032-0.277,0.016-0.615-0.036-1.074c-0.19-1.689-1.164-2.637-2.583-2.478c-1.294,0.146-1.968,1.108-1.787,2.716     c0.073,0.646,0.164,1.081,0.252,1.305L20.557,100.971z"/>
			<path d="M27.879,85.815c-0.328,4.166-3.684,6.388-7.703,6.071c-4.229-0.333-7.176-3.303-6.85-7.449     c0.341-4.333,3.772-6.443,7.666-6.137c4.647,0.366,7.213,3.37,6.888,7.494L27.879,85.815z M25.357,85.469     c0.17-2.157-1.764-3.551-4.527-3.769c-2.533-0.199-4.804,0.822-4.978,3.021c-0.173,2.198,1.865,3.602,4.503,3.809     c2.659,0.209,4.832-0.904,5-3.04L25.357,85.469z"/>
			<path d="M15.208,73.729c0.096-1.042,0.384-2.531,0.849-4.189c0.568-2.021,1.269-3.352,2.329-4.101     c0.88-0.647,1.955-0.826,3.208-0.474c1.719,0.482,2.565,2.051,2.661,3.343l0.061,0.017c0.651-0.842,1.688-1.118,3.038-1.11     c1.676,0.013,3.569,0.107,4.168-0.008l-0.885,3.154c-0.441,0.094-1.649,0.125-3.436,0.039c-1.826-0.098-2.436,0.363-2.813,1.631     l-0.255,0.91l5.358,1.504l-0.857,3.053L15.208,73.729z M21.908,72.317l0.341-1.213c0.431-1.537-0.082-2.662-1.274-2.997     c-1.233-0.346-2.119,0.321-2.516,1.737c-0.21,0.748-0.289,1.184-0.291,1.423L21.908,72.317z"/>
			<path d="M22.832,58.877l-1.638,3.452l-2.428-1.152l4.664-9.825l2.428,1.152l-1.657,3.49l10.356,4.916l-1.369,2.883L22.832,58.877     z"/>
			<path d="M34.047,48.902l1.783,1.148l-2.979,4.625l-1.783-1.148L34.047,48.902z"/>
			<path d="M46.857,43.005c-0.162,0.608-0.782,1.847-1.889,3.139c-3.186,3.715-7.154,3.633-10.231,0.994     c-3.667-3.145-3.451-7.496-0.662-10.749c1.08-1.26,2.156-1.998,2.748-2.237l1.476,2.151c-0.618,0.3-1.396,0.822-2.148,1.699     c-1.641,1.913-1.762,4.41,0.646,6.475c2.153,1.846,4.602,1.732,6.448-0.42c0.643-0.75,1.183-1.67,1.399-2.342L46.857,43.005z"/>
			<path d="M39.247,31.395l2.445-2.053l7.373,8.781l4.311-3.619l1.729,2.059l-6.755,5.672L39.247,31.395z"/>
			<path d="M51.169,22.303l4.116,7.01c1.245,2.119,2.687,2.709,4.082,1.89c1.449-0.851,1.65-2.333,0.374-4.506l-4.116-7.01     l2.753-1.616l4.021,6.846c2.212,3.767,1.363,6.677-1.825,8.549c-3.079,1.808-5.882,1.141-8.159-2.736l-3.999-6.81L51.169,22.303z     "/>
			<path d="M62.865,16.307c0.737-0.438,2.272-1.134,3.797-1.671c1.842-0.648,3.034-0.868,4.207-0.635     c1.105,0.167,2.08,0.849,2.512,2.077c0.412,1.168,0.102,2.502-1.182,3.599l0.014,0.04c1.665-0.141,3.205,0.63,3.812,2.354     c0.432,1.228,0.212,2.374-0.389,3.32c-0.699,1.114-2.169,2.122-4.823,3.056c-1.485,0.523-2.629,0.814-3.338,0.953L62.865,16.307z      M67.648,20.344l0.99-0.349c1.604-0.565,2.206-1.511,1.857-2.501c-0.356-1.01-1.316-1.273-2.683-0.792     c-0.673,0.237-1.036,0.409-1.252,0.552L67.648,20.344z M69.733,26.266c0.318-0.045,0.674-0.17,1.189-0.352     c1.367-0.481,2.386-1.441,1.891-2.847c-0.474-1.347-1.871-1.457-3.375-0.926l-1.03,0.362L69.733,26.266z"/>
			<path d="M81.526,10.949c0.82-0.249,2.478-0.559,4.087-0.716c1.944-0.19,3.154-0.119,4.238,0.388     c1.034,0.426,1.817,1.32,1.944,2.617c0.121,1.233-0.499,2.455-2.007,3.214l0.004,0.042c1.65,0.261,2.963,1.377,3.141,3.196     c0.127,1.296-0.36,2.356-1.171,3.132c-0.945,0.916-2.614,1.543-5.415,1.817c-1.568,0.153-2.749,0.164-3.47,0.128L81.526,10.949z      M85.208,16.013l1.045-0.103c1.693-0.166,2.503-0.941,2.401-1.986c-0.104-1.066-0.975-1.551-2.417-1.41     c-0.711,0.069-1.104,0.15-1.349,0.237L85.208,16.013z M85.82,22.264c0.32,0.032,0.696-0.005,1.24-0.058     c1.442-0.141,2.662-0.83,2.517-2.314c-0.139-1.421-1.47-1.861-3.058-1.706l-1.087,0.106L85.82,22.264z"/>
			<path d="M96.008,9.954c1.041-0.108,2.559-0.115,4.274,0.021c2.094,0.165,3.534,0.594,4.475,1.49     c0.806,0.737,1.188,1.757,1.087,3.056c-0.14,1.779-1.515,2.914-2.763,3.258l-0.005,0.063c0.953,0.475,1.424,1.439,1.678,2.765     c0.313,1.647,0.586,3.522,0.814,4.088l-3.266-0.257c-0.178-0.414-0.443-1.594-0.705-3.362c-0.257-1.811-0.828-2.319-2.146-2.444     l-0.942-0.074l-0.437,5.548l-3.161-0.249L96.008,9.954z M98.691,16.253l1.256,0.099c1.592,0.125,2.597-0.596,2.693-1.832     c0.102-1.277-0.726-2.016-2.19-2.131c-0.774-0.061-1.218-0.054-1.453-0.009L98.691,16.253z"/>
			<path d="M110.949,22.302l-1.91,3.243l-3.199-0.875l7.904-12.506l4.029,1.102l0.519,14.811l-3.321-0.908l-0.095-3.791     L110.949,22.302z M115.043,20.941l-0.059-3.128c-0.002-0.871,0.039-1.97,0.052-2.815l-0.062-0.017     c-0.404,0.76-0.908,1.732-1.328,2.466l-1.621,2.668L115.043,20.941z"/>
			<path d="M119.419,28.567l6.397-12.629l3.334,1.689l0.279,5.957c0.076,1.71,0.01,3.654-0.131,5.373l0.038,0.019     c0.677-1.753,1.483-3.487,2.452-5.398l1.859-3.672l2.625,1.329l-6.397,12.629l-2.998-1.519l-0.229-6.239     c-0.058-1.747-0.084-3.786,0.065-5.57l-0.075-0.038c-0.76,1.734-1.625,3.533-2.668,5.594l-1.927,3.804L119.419,28.567z"/>
			<path d="M140.318,24.079c1.05,0.571,2.313,1.446,3.56,2.444c2.116,1.693,3.218,3.14,3.625,4.783     c0.466,1.771,0.085,3.727-1.489,5.695c-1.693,2.116-3.632,2.959-5.402,3.021c-1.939,0.036-4.094-0.935-6.26-2.667     c-1.295-1.037-2.166-1.867-2.707-2.434L140.318,24.079z M135.607,35.079c0.174,0.22,0.535,0.509,0.83,0.745     c2.267,1.84,4.756,1.788,6.869-0.853c1.903-2.378,1.463-4.586-0.701-6.319c-0.541-0.433-0.959-0.686-1.211-0.807L135.607,35.079z     "/>
			<path d="M152.322,46.407l-3.408-3.936l-2.539,2.2l3.809,4.396l-1.983,1.719l-5.897-6.808l10.695-9.267l5.706,6.586l-1.983,1.718     l-3.615-4.173l-2.223,1.925l3.409,3.936L152.322,46.407z"/>
			<path d="M149.197,52.004l12.197-7.189l1.898,3.222l-2.977,5.168c-0.858,1.481-1.963,3.083-3.008,4.455l0.021,0.036     c1.516-1.112,3.129-2.137,4.975-3.225l3.547-2.09l1.494,2.533l-12.197,7.189l-1.707-2.896l3.17-5.379     c0.895-1.502,1.971-3.234,3.059-4.656l-0.042-0.073c-1.575,1.05-3.272,2.1-5.265,3.273l-3.674,2.165L149.197,52.004z"/>
			<path d="M169.109,59.405c0.438,0.736,1.136,2.271,1.674,3.797c0.65,1.842,0.869,3.034,0.638,4.207     c-0.167,1.105-0.847,2.081-2.075,2.514c-1.168,0.413-2.502,0.104-3.601-1.179l-0.04,0.014c0.143,1.665-0.628,3.206-2.352,3.814     c-1.228,0.433-2.375,0.214-3.321-0.387c-1.115-0.698-2.124-2.168-3.06-4.822c-0.525-1.485-0.816-2.629-0.955-3.338     L169.109,59.405z M159.152,66.281c0.045,0.318,0.172,0.675,0.354,1.189c0.482,1.367,1.443,2.386,2.85,1.89     c1.348-0.475,1.455-1.872,0.924-3.377l-0.363-1.03L159.152,66.281z M165.075,64.192l0.349,0.99     c0.566,1.604,1.514,2.206,2.504,1.856c1.01-0.356,1.272-1.317,0.79-2.684c-0.237-0.673-0.409-1.036-0.554-1.252L165.075,64.192z"/>
			<path d="M174.294,76.488l-8.037,1.187c-2.43,0.359-3.517,1.474-3.28,3.073c0.244,1.662,1.543,2.404,4.035,2.036l8.036-1.187     l0.466,3.157l-7.85,1.159c-4.32,0.638-6.698-1.239-7.238-4.894c-0.521-3.53,1.148-5.878,5.592-6.534l7.81-1.153L174.294,76.488z"/>
			<path d="M175.477,89.537c0.146,1.036,0.209,2.552,0.139,4.271c-0.088,2.098-0.463,3.555-1.323,4.527     c-0.707,0.833-1.712,1.253-3.013,1.199c-1.783-0.074-2.969-1.405-3.358-2.641l-0.063-0.002c-0.438,0.969-1.385,1.477-2.7,1.779     c-1.634,0.374-3.498,0.717-4.054,0.967l0.135-3.272c0.408-0.193,1.576-0.503,3.334-0.829c1.801-0.325,2.287-0.914,2.363-2.234     l0.039-0.945l-5.561-0.23l0.131-3.168L175.477,89.537z M169.282,92.453l-0.052,1.259c-0.066,1.595,0.691,2.572,1.93,2.623     c1.279,0.054,1.988-0.8,2.049-2.269c0.032-0.776,0.008-1.219-0.045-1.453L169.282,92.453z"/>
			<path d="M158.907,112.327c-0.103-1.038-0.128-2.962,0.297-4.782c0.587-2.516,1.646-4.188,3.149-5.172     c1.498-0.967,3.459-1.241,5.483-0.768c4.575,1.09,6.414,5.033,5.358,9.553c-0.416,1.779-1.084,3.066-1.547,3.67l-2.362-1.242     c0.524-0.675,0.983-1.538,1.338-3.051c0.606-2.598-0.401-4.924-3.388-5.621c-2.862-0.668-4.938,0.744-5.535,3.3     c-0.163,0.695-0.215,1.287-0.169,1.556l2.903,0.678l0.496-2.125l2.434,0.568l-1.199,5.131L158.907,112.327z"/>
		</g>
	</g>
	<g>
		<g>
			<path fill="none" stroke="#FFFFFF" d="M42.264,155.147c14.144,11.961,32.433,19.173,52.407,19.173     c19.087,0,36.637-6.586,50.499-17.609"/>
			<path fill="none" stroke="#FFFFFF" d="M66.965,154.626c0.847,0.13,2.476,0.567,3.995,1.123c1.835,0.67,2.895,1.258,3.652,2.183     c0.748,0.832,1.067,1.978,0.621,3.2c-0.425,1.164-1.512,1.997-3.2,2.029l-0.014,0.04c1.375,0.949,2.075,2.523,1.448,4.24     c-0.447,1.224-1.345,1.969-2.411,2.316c-1.248,0.418-3.024,0.26-5.667-0.705c-1.48-0.539-2.549-1.041-3.184-1.386L66.965,154.626     z M65.939,166.684c0.274,0.166,0.629,0.297,1.143,0.483c1.361,0.497,2.759,0.403,3.271-0.997c0.49-1.342-0.519-2.313-2.019-2.861     l-1.026-0.375L65.939,166.684z M68.093,160.784l0.987,0.36c1.598,0.582,2.664,0.234,3.024-0.752     c0.367-1.006-0.208-1.82-1.569-2.316c-0.671-0.245-1.06-0.342-1.319-0.37L68.093,160.784z"/>
			<path fill="none" stroke="#FFFFFF" d="M85.069,167.846l-5.12-0.941l-0.608,3.303l5.719,1.052l-0.475,2.581l-8.856-1.63     l2.561-13.915l8.568,1.577l-0.475,2.581l-5.43-0.999l-0.532,2.89l5.12,0.942L85.069,167.846z"/>
			<path fill="none" stroke="#FFFFFF" d="M88.499,160.27c1.033-0.168,2.547-0.265,4.269-0.23c2.1,0.041,3.563,0.385,4.554,1.225     c0.849,0.688,1.291,1.684,1.266,2.985c-0.035,1.785-1.34,2.999-2.566,3.416v0.063c0.979,0.418,1.506,1.353,1.838,2.662     c0.408,1.625,0.793,3.48,1.055,4.031l-3.275-0.064c-0.201-0.402-0.537-1.564-0.9-3.314c-0.364-1.792-0.963-2.268-2.286-2.313     l-0.945-0.02l-0.109,5.564l-3.17-0.063L88.499,160.27z M91.55,166.398l1.26,0.025c1.596,0.031,2.556-0.748,2.581-1.986     c0.025-1.281-0.843-1.971-2.313-2c-0.777-0.015-1.219,0.019-1.451,0.078L91.55,166.398z"/>
			<path fill="none" stroke="#FFFFFF" d="M100.229,160.055l3.162-0.445l1.6,11.355l5.574-0.785l0.375,2.662l-8.735,1.23     L100.229,160.055z"/>
			<path fill="none" stroke="#FFFFFF" d="M113.314,157.563l3.6,13.689l-3.087,0.813l-3.601-13.688L113.314,157.563z"/>
			<path fill="none" stroke="#FFFFFF" d="M120.883,170.223l-5.512-13.041l3.443-1.457l4.729,3.635     c1.354,1.045,2.796,2.353,4.019,3.57l0.039-0.018c-0.902-1.648-1.705-3.385-2.539-5.357l-1.604-3.793l2.708-1.145l5.513,13.041     l-3.096,1.309l-4.913-3.854c-1.371-1.084-2.944-2.381-4.21-3.646l-0.077,0.032c0.833,1.701,1.648,3.522,2.548,5.651l1.662,3.927     L120.883,170.223z"/>
		</g>
		<g>
			<path fill="none" stroke="#FFFFFF" d="M31.742,114.639C28.969,107.287,27.451,99.32,27.451,91     c0-36.989,29.986-66.975,66.975-66.975c36.989,0,66.975,29.986,66.975,66.975c0,8.717-1.664,17.044-4.694,24.684"/>
			<path fill="none" stroke="#FFFFFF" d="M28.052,114.447c0.192-0.928,0.245-2.342-0.132-3.654c-0.406-1.413-1.206-1.992-2.114-1.73     c-0.828,0.237-1.147,1.028-1.243,2.826c-0.158,2.492-0.98,4.346-2.979,4.92c-2.322,0.666-4.64-0.787-5.557-3.978     c-0.446-1.554-0.462-2.751-0.311-3.669l2.66-0.021c-0.111,0.602-0.211,1.7,0.166,3.012c0.383,1.334,1.194,1.8,1.88,1.603     c0.868-0.249,1.037-1.106,1.213-3.08c0.198-2.657,1.131-4.127,3.069-4.685c2.281-0.654,4.718,0.525,5.791,4.26     c0.446,1.555,0.463,3.21,0.259,4.1L28.052,114.447z"/>
			<path fill="none" stroke="#FFFFFF" d="M14.524,104.842c-0.278-0.962-0.558-2.326-0.776-4.267     c-0.221-1.962-0.005-3.425,0.662-4.45c0.588-0.975,1.691-1.691,3.068-1.846c1.399-0.158,2.617,0.148,3.483,0.896     c1.124,0.973,1.788,2.547,1.999,4.426c0.047,0.418,0.068,0.795,0.039,1.096l5.052-0.569l0.354,3.151L14.524,104.842z      M20.557,100.971c0.032-0.277,0.016-0.615-0.036-1.074c-0.19-1.689-1.164-2.637-2.583-2.478     c-1.294,0.146-1.968,1.108-1.787,2.716c0.073,0.646,0.164,1.081,0.252,1.305L20.557,100.971z"/>
			<path fill="none" stroke="#FFFFFF" d="M27.879,85.815c-0.328,4.166-3.684,6.388-7.703,6.071c-4.229-0.333-7.176-3.303-6.85-7.449     c0.341-4.333,3.772-6.443,7.666-6.137c4.647,0.366,7.213,3.37,6.888,7.494L27.879,85.815z M25.357,85.469     c0.17-2.157-1.764-3.551-4.527-3.769c-2.533-0.199-4.804,0.822-4.978,3.021c-0.173,2.198,1.865,3.602,4.503,3.809     c2.659,0.209,4.832-0.904,5-3.04L25.357,85.469z"/>
			<path fill="none" stroke="#FFFFFF" d="M15.208,73.729c0.096-1.042,0.384-2.531,0.849-4.189c0.568-2.021,1.269-3.352,2.329-4.101     c0.88-0.647,1.955-0.826,3.208-0.474c1.719,0.482,2.565,2.051,2.661,3.343l0.061,0.017c0.651-0.842,1.688-1.118,3.038-1.11     c1.676,0.013,3.569,0.107,4.168-0.008l-0.885,3.154c-0.441,0.094-1.649,0.125-3.436,0.039c-1.826-0.098-2.436,0.363-2.813,1.631     l-0.255,0.91l5.358,1.504l-0.857,3.053L15.208,73.729z M21.908,72.317l0.341-1.213c0.431-1.537-0.082-2.662-1.274-2.997     c-1.233-0.346-2.119,0.321-2.516,1.737c-0.21,0.748-0.289,1.184-0.291,1.423L21.908,72.317z"/>
			<path fill="none" stroke="#FFFFFF" d="M22.832,58.877l-1.638,3.452l-2.428-1.152l4.664-9.825l2.428,1.152l-1.657,3.49     l10.356,4.916l-1.369,2.883L22.832,58.877z"/>
			<path fill="none" stroke="#FFFFFF" d="M34.047,48.902l1.783,1.148l-2.979,4.625l-1.783-1.148L34.047,48.902z"/>
			<path fill="none" stroke="#FFFFFF" d="M46.857,43.005c-0.162,0.608-0.782,1.847-1.889,3.139     c-3.186,3.715-7.154,3.633-10.231,0.994c-3.667-3.145-3.451-7.496-0.662-10.749c1.08-1.26,2.156-1.998,2.748-2.237l1.476,2.151     c-0.618,0.3-1.396,0.822-2.148,1.699c-1.641,1.913-1.762,4.41,0.646,6.475c2.153,1.846,4.602,1.732,6.448-0.42     c0.643-0.75,1.183-1.67,1.399-2.342L46.857,43.005z"/>
			<path fill="none" stroke="#FFFFFF" d="M39.247,31.395l2.445-2.053l7.373,8.781l4.311-3.619l1.729,2.059l-6.755,5.672     L39.247,31.395z"/>
			<path fill="none" stroke="#FFFFFF" d="M51.169,22.303l4.116,7.01c1.245,2.119,2.687,2.709,4.082,1.89     c1.449-0.851,1.65-2.333,0.374-4.506l-4.116-7.01l2.753-1.616l4.021,6.846c2.212,3.767,1.363,6.677-1.825,8.549     c-3.079,1.808-5.882,1.141-8.159-2.736l-3.999-6.81L51.169,22.303z"/>
			<path fill="none" stroke="#FFFFFF" d="M62.865,16.307c0.737-0.438,2.272-1.134,3.797-1.671c1.842-0.648,3.034-0.868,4.207-0.635     c1.105,0.167,2.08,0.849,2.512,2.077c0.412,1.168,0.102,2.502-1.182,3.599l0.014,0.04c1.665-0.141,3.205,0.63,3.812,2.354     c0.432,1.228,0.212,2.374-0.389,3.32c-0.699,1.114-2.169,2.122-4.823,3.056c-1.485,0.523-2.629,0.814-3.338,0.953L62.865,16.307z      M67.648,20.344l0.99-0.349c1.604-0.565,2.206-1.511,1.857-2.501c-0.356-1.01-1.316-1.273-2.683-0.792     c-0.673,0.237-1.036,0.409-1.252,0.552L67.648,20.344z M69.733,26.266c0.318-0.045,0.674-0.17,1.189-0.352     c1.367-0.481,2.386-1.441,1.891-2.847c-0.474-1.347-1.871-1.457-3.375-0.926l-1.03,0.362L69.733,26.266z"/>
			<path fill="none" stroke="#FFFFFF" d="M81.526,10.949c0.82-0.249,2.478-0.559,4.087-0.716c1.944-0.19,3.154-0.119,4.238,0.388     c1.034,0.426,1.817,1.32,1.944,2.617c0.121,1.233-0.499,2.455-2.007,3.214l0.004,0.042c1.65,0.261,2.963,1.377,3.141,3.196     c0.127,1.296-0.36,2.356-1.171,3.132c-0.945,0.916-2.614,1.543-5.415,1.817c-1.568,0.153-2.749,0.164-3.47,0.128L81.526,10.949z      M85.208,16.013l1.045-0.103c1.693-0.166,2.503-0.941,2.401-1.986c-0.104-1.066-0.975-1.551-2.417-1.41     c-0.711,0.069-1.104,0.15-1.349,0.237L85.208,16.013z M85.82,22.264c0.32,0.032,0.696-0.005,1.24-0.058     c1.442-0.141,2.662-0.83,2.517-2.314c-0.139-1.421-1.47-1.861-3.058-1.706l-1.087,0.106L85.82,22.264z"/>
			<path fill="none" stroke="#FFFFFF" d="M96.008,9.954c1.041-0.108,2.559-0.115,4.274,0.021c2.094,0.165,3.534,0.594,4.475,1.49     c0.806,0.737,1.188,1.757,1.087,3.056c-0.14,1.779-1.515,2.914-2.763,3.258l-0.005,0.063c0.953,0.475,1.424,1.439,1.678,2.765     c0.313,1.647,0.586,3.522,0.814,4.088l-3.266-0.257c-0.178-0.414-0.443-1.594-0.705-3.362c-0.257-1.811-0.828-2.319-2.146-2.444     l-0.942-0.074l-0.437,5.548l-3.161-0.249L96.008,9.954z M98.691,16.253l1.256,0.099c1.592,0.125,2.597-0.596,2.693-1.832     c0.102-1.277-0.726-2.016-2.19-2.131c-0.774-0.061-1.218-0.054-1.453-0.009L98.691,16.253z"/>
			<path fill="none" stroke="#FFFFFF" d="M110.949,22.302l-1.91,3.243l-3.199-0.875l7.904-12.506l4.029,1.102l0.519,14.811     l-3.321-0.908l-0.095-3.791L110.949,22.302z M115.043,20.941l-0.059-3.128c-0.002-0.871,0.039-1.97,0.052-2.815l-0.062-0.017     c-0.404,0.76-0.908,1.732-1.328,2.466l-1.621,2.668L115.043,20.941z"/>
			<path fill="none" stroke="#FFFFFF" d="M119.419,28.567l6.397-12.629l3.334,1.689l0.279,5.957c0.076,1.71,0.01,3.654-0.131,5.373     l0.038,0.019c0.677-1.753,1.483-3.487,2.452-5.398l1.859-3.672l2.625,1.329l-6.397,12.629l-2.998-1.519l-0.229-6.239     c-0.058-1.747-0.084-3.786,0.065-5.57l-0.075-0.038c-0.76,1.734-1.625,3.533-2.668,5.594l-1.927,3.804L119.419,28.567z"/>
			<path fill="none" stroke="#FFFFFF" d="M140.318,24.079c1.05,0.571,2.313,1.446,3.56,2.444c2.116,1.693,3.218,3.14,3.625,4.783     c0.466,1.771,0.085,3.727-1.489,5.695c-1.693,2.116-3.632,2.959-5.402,3.021c-1.939,0.036-4.094-0.935-6.26-2.667     c-1.295-1.037-2.166-1.867-2.707-2.434L140.318,24.079z M135.607,35.079c0.174,0.22,0.535,0.509,0.83,0.745     c2.267,1.84,4.756,1.788,6.869-0.853c1.903-2.378,1.463-4.586-0.701-6.319c-0.541-0.433-0.959-0.686-1.211-0.807L135.607,35.079z     "/>
			<path fill="none" stroke="#FFFFFF" d="M152.322,46.407l-3.408-3.936l-2.539,2.2l3.809,4.396l-1.983,1.719l-5.897-6.808     l10.695-9.267l5.706,6.586l-1.983,1.718l-3.615-4.173l-2.223,1.925l3.409,3.936L152.322,46.407z"/>
			<path fill="none" stroke="#FFFFFF" d="M149.197,52.004l12.197-7.189l1.898,3.222l-2.977,5.168     c-0.858,1.481-1.963,3.083-3.008,4.455l0.021,0.036c1.516-1.112,3.129-2.137,4.975-3.225l3.547-2.09l1.494,2.533l-12.197,7.189     l-1.707-2.896l3.17-5.379c0.895-1.502,1.971-3.234,3.059-4.656l-0.042-0.073c-1.575,1.05-3.272,2.1-5.265,3.273l-3.674,2.165     L149.197,52.004z"/>
			<path fill="none" stroke="#FFFFFF" d="M169.109,59.405c0.438,0.736,1.136,2.271,1.674,3.797c0.65,1.842,0.869,3.034,0.638,4.207     c-0.167,1.105-0.847,2.081-2.075,2.514c-1.168,0.413-2.502,0.104-3.601-1.179l-0.04,0.014c0.143,1.665-0.628,3.206-2.352,3.814     c-1.228,0.433-2.375,0.214-3.321-0.387c-1.115-0.698-2.124-2.168-3.06-4.822c-0.525-1.485-0.816-2.629-0.955-3.338     L169.109,59.405z M159.152,66.281c0.045,0.318,0.172,0.675,0.354,1.189c0.482,1.367,1.443,2.386,2.85,1.89     c1.348-0.475,1.455-1.872,0.924-3.377l-0.363-1.03L159.152,66.281z M165.075,64.192l0.349,0.99     c0.566,1.604,1.514,2.206,2.504,1.856c1.01-0.356,1.272-1.317,0.79-2.684c-0.237-0.673-0.409-1.036-0.554-1.252L165.075,64.192z"/>
			<path fill="none" stroke="#FFFFFF" d="M174.294,76.488l-8.037,1.187c-2.43,0.359-3.517,1.474-3.28,3.073     c0.244,1.662,1.543,2.404,4.035,2.036l8.036-1.187l0.466,3.157l-7.85,1.159c-4.32,0.638-6.698-1.239-7.238-4.894     c-0.521-3.53,1.148-5.878,5.592-6.534l7.81-1.153L174.294,76.488z"/>
			<path fill="none" stroke="#FFFFFF" d="M175.477,89.537c0.146,1.036,0.209,2.552,0.139,4.271     c-0.088,2.098-0.463,3.555-1.323,4.527c-0.707,0.833-1.712,1.253-3.013,1.199c-1.783-0.074-2.969-1.405-3.358-2.641l-0.063-0.002     c-0.438,0.969-1.385,1.477-2.7,1.779c-1.634,0.374-3.498,0.717-4.054,0.967l0.135-3.272c0.408-0.193,1.576-0.503,3.334-0.829     c1.801-0.325,2.287-0.914,2.363-2.234l0.039-0.945l-5.561-0.23l0.131-3.168L175.477,89.537z M169.282,92.453l-0.052,1.259     c-0.066,1.595,0.691,2.572,1.93,2.623c1.279,0.054,1.988-0.8,2.049-2.269c0.032-0.776,0.008-1.219-0.045-1.453L169.282,92.453z"/>
			<path fill="none" stroke="#FFFFFF" d="M158.907,112.327c-0.103-1.038-0.128-2.962,0.297-4.782     c0.587-2.516,1.646-4.188,3.149-5.172c1.498-0.967,3.459-1.241,5.483-0.768c4.575,1.09,6.414,5.033,5.358,9.553     c-0.416,1.779-1.084,3.066-1.547,3.67l-2.362-1.242c0.524-0.675,0.983-1.538,1.338-3.051c0.606-2.598-0.401-4.924-3.388-5.621     c-2.862-0.668-4.938,0.744-5.535,3.3c-0.163,0.695-0.215,1.287-0.169,1.556l2.903,0.678l0.496-2.125l2.434,0.568l-1.199,5.131     L158.907,112.327z"/>
		</g>
	</g>
</g>
<path fill="#CC0000" d="M134.66,83.8c0,0,13.59-3.285,13.58-3.675c-5.66-0.61-14.699-3.75-17.45-6.375  c4.42-0.82,8.66-2.65,11.84-5.91c-7.68-3.56-14.51-9.09-18.409-16.73c-0.131-0.52-3.201-6.04-5.611-5.87  c-2.399-0.07-5.379-0.42-7.01,1.771c-2.32,2.46-1.26,5.94-1.49,8.95c-2.389,2.3-4.299,5.01-5.51,8.12c-2.58-1.4-3.6-4.16-4.029-6.92  l1.92,0.39c-0.27-1.93-0.6-3.85-0.98-5.77l1.98,1.15c-0.32-1.6-0.631-3.19-0.961-4.78c0.471,0.06,1.41,0.17,1.881,0.22  c-0.27-1.41-0.54-2.83-0.801-4.24c0.601-0.33,1.801-1,2.4-1.33c-3.35-0.89-6.47-2.4-9.71-3.57c-3.73-1.41-7.13,1.77-10.88,1.54  c-3.05-0.03-5.57,2.51-5.68,5.54c2.5-0.7,5.08-0.58,7.54,0.2c0,0.29-0.01,0.86-0.02,1.15c-2.35,0.03-4.7,0.05-7.04,0.07  c1.34,1.23,2.7,2.45,4.07,3.64c-0.22,1.94-0.45,3.87-0.69,5.8c0.38,0.36,1.15,1.09,1.54,1.45c-0.47,2.39-1.09,4.83-3.08,6.42  c-1.56-2.89-3.72-5.35-6.03-7.65c-0.64-2.56,0.17-5.77-1.94-7.87c-3.02-3.92-9.76-3.22-11.9,1.23c-1.97,4.48-3.75,9.18-7.16,12.82  c-2.89,3.67-6.94,6.05-10.47,9c3.36,2.23,8.19,4.514,11.98,4.51c-3.44,2.82-7.13,5.59-11.55,6.63c-1.55,0.57-3.6,0.6-4.4,2.35  c4.14,1.81,8.69,1.73,13.11,1.59c-3.37,4.93-8.19,8.42-13.01,11.79c4.3,1.391,8.76,0.44,12.84-1.18  c-3.52,9.34,1.86,29.12,2.19,29.12c0.42-5.7,3.717-17.567,7.8-18.159c0.32,1.969,2.949,7.342,2.949,7.342s2.731-8.022,4.351-11.482  c0.05,2.391,0.07,4.79,0.08,7.18c2.16-0.869,8.29-3.68,9.18-3.6c-0.58,3.48-3.11,6.1-5.21,8.76c-1.5,2.03-4.49,2.78-5.3,5.311  c1.17,0.399,2.34,0.81,3.5,1.209c0.01,1.621-0.99,3-1.56,4.461c-2.58,0.81-10.28,2.59-10.56,3.709c0.77,1.011,3.9,0.451,4.09,0.74  c-0.18,0.881-2.04,1.922-0.79,2.76c1.42-0.43,2.78-1,4.16-1.549c-0.16,1.359-1.738,3.549-0.48,4.09  c0.548,0.234,3.474-1.877,5.624-2.107c0.49,1.57,2.588,5.145,2.988,5.124c0.75-3.05,0.408-6.526-1.302-9.106  c-1.38-1.99,0.6-4.08,1.15-5.99c1.41,0.301,4.22,2.721,4.6,2.791c0.78-5.301-0.383-12.61,4.26-15.4  c0.814-0.488,3.135-0.619,3.8,0.061c2.253,2.301-5.31,25.92-5.97,30.35c1.95-0.811,3.84-1.78,5.7-2.79  c0.76,1.319,1.53,2.64,2.31,3.96c1.18-0.971,2.09-2.29,3.43-3.029c0.78,0.6,2.445,3.547,2.746,4.567  c0.44,0.021,1.756-5.239,2.016-5.97c0.261-0.01,3.076,4.834,3.406,5.345c0.48,0.021,1.422-4.353,1.862-5.403  c0.47-0.109,4.19,1.15,5.89,1.42c-2.239-9.65-10.297-19.158-8.789-28.41c0.142-0.873,3.621-1.789,4.8,0.4  c2.338,4.342,4.18,9,4.86,13.95c1.43-1.181,2.779-2.44,4.1-3.729c1.061,1.659,2.08,3.359,2.98,5.129  c-2.721,2.631-3.725,8.19-2.271,9.86c0.624,0.718,1.409,0.28,1.89,0.37c0.561-1.74,0.48-3.84,1.721-5.27  c2.17-0.42,5.437,1.896,6.34,0.959c0.539-0.559-1.59-2.77-2.381-4.16c1.94,0.41,5.147,1.996,5.711,1.65  c0.67-0.41-0.82-2.619-1.61-3.75c1.521,0.34,3.04,0.67,4.56,0.98c-0.149-0.51-0.289-1.59-0.6-2.02c-2.172-3-6.68-1.75-10.17-1.74  c-1.25-1.17-2.07-2.69-2.98-4.11c1.25-0.49,2.51-0.94,3.74-1.5c-0.14-2.931-4.189-3.36-5.88-5.41c-2.26-2.45-7.229-5.34-4.431-9.14  c2.541,1.43,4.99,3.029,7.641,4.27c0.109-1.93,0.189-3.85,0.26-5.779c1.551,4.14,3.32,8.449,6.82,11.34  c0.42-3.01,0.34-6.061,0.45-9.09c6.13,2.91,7.972,11.217,9.612,17.166c1.52,1.351,4.354-19.438-1.422-29.717  c4.049,1.221,14.27,0.283,14.359-0.137C145.33,92.273,136.333,86.792,134.66,83.8z M90.39,44.82c-1.7,0.49-2.41-2.4-0.63-2.68  C91.6,41.57,92.29,44.51,90.39,44.82z"/>
</svg>