<?xml version="1.0" encoding="UTF-8" standalone="no"?>
<!DOCTYPE svg PUBLIC "-//W3C//DTD SVG 1.1//EN" "http://www.w3.org/Graphics/SVG/1.1/DTD/svg11.dtd">
<svg width="256px" height="297px" viewBox="0 0 256 297" version="1.1" xmlns="http://www.w3.org/2000/svg" xmlns:xlink="http://www.w3.org/1999/xlink">
    <g id="Berlin" stroke="none" stroke-width="1" fill="none" fill-rule="evenodd">
        <g id="BHC-Logo-" transform="translate(-0.000000, 0.000000)">
            <g id="Group-3">
                <mask id="mask-2" fill="white">
                    <use xlink:href="#path-1"></use>
                </mask>
                <g id="Clip-2"></g>
                <path d="M223.526093,220.350492 C205.881113,259.423287 175.458648,278.160903 127.733871,291.801936 C80.0090949,278.160903 49.5866298,259.423287 31.9416495,220.350492 C11.2970776,174.634702 9.91567587,99.6231846 5.2541669,13.3445664 C5.2541669,13.3445664 66.7374076,5.01270348 127.733871,5.01270348 C188.730335,5.01270348 250.213301,13.3445664 250.213301,13.3445664 C245.552067,99.6231846 244.170665,174.634702 223.526093,220.350492 L223.526093,220.350492 Z M250.888188,8.3772404 C250.269404,8.29336074 188.366215,0 127.733871,0 C67.1004278,0 5.19943886,8.29336074 4.58175454,8.3772404 L0,8.99712484 L0.250263904,13.6154564 C0.788468804,23.5847603 1.28267126,33.4047308 1.76834824,43.0453914 C5.50140563,117.135058 8.72623479,181.119012 27.3736458,222.414206 C44.2829602,259.860562 72.9607284,281.358781 126.357695,296.622129 L127.733871,297.016501 L129.112248,296.622129 C182.505914,281.358781 211.183682,259.860562 228.094097,222.414206 C246.740408,181.121212 249.965237,117.139458 253.698294,43.0539169 C254.186171,33.4099561 254.680374,23.5880604 255.219679,13.6154564 L255.468843,8.99712484 L250.888188,8.3772404 Z" id="Fill-1" fill="#FFFFFF" mask="url(#mask-2)"></path>
            </g>
            <path d="M127.733871,291.801936 C80.0090949,278.159803 49.5866298,259.423287 31.9416495,220.350492 C11.2970776,174.634702 9.91567587,99.6231846 5.2541669,13.3445664 C5.2541669,13.3445664 66.7374076,5.01270348 127.733871,5.01270348 L127.733871,291.694405" id="Fill-4" fill="#004B93"></path>
            <path d="M127.733871,291.801936 C175.459748,278.159803 205.881113,259.423287 223.526093,220.350492 C244.170665,174.634702 245.552067,99.6231846 250.213301,13.3445664 C250.213301,13.3445664 188.730335,5.01270348 127.733871,5.01270348 L127.733871,291.694405" id="Fill-5" fill="#DB281C"></path>
            <path d="M46.3345741,42.2211706 L59.2228902,41.5605839 C61.6163481,41.4371021 63.3266681,41.0859076 64.3524751,40.5067254 C65.5267904,39.8373382 66.078746,38.8170315 66.0080671,37.4427802 C65.9382132,36.0817295 65.2850519,35.1224762 64.0474832,34.5639202 C62.9848242,34.092269 61.2478277,33.9170843 58.8370437,34.0416662 L45.9490027,34.7025279 L46.3345741,42.2211706 Z M45.7157898,30.1548753 L59.0369798,29.4717373 C61.0577921,29.3675065 62.4543197,29.0603145 63.2276626,28.5468609 C64.1011112,27.9624535 64.5081338,27.1041308 64.4503806,25.9727179 C64.3901522,24.8138035 63.9240013,24.0102089 63.0494527,23.561109 C62.1749042,23.1131091 60.7277738,22.9412245 58.7072365,23.0443552 L45.3860464,23.7285933 L45.7157898,30.1548753 Z M67.5786794,31.2024085 C71.5438497,32.1734874 73.6072893,34.2438024 73.7695483,37.4084032 C73.8996305,39.9289183 72.8628229,41.9612812 70.6607756,43.506042 C69.5422885,44.27966 68.2318407,44.8629674 66.7288822,45.2581643 C65.2248236,45.6525363 63.3522446,45.9072004 61.1114201,46.0221568 L37.3473499,47.2412995 L37.314073,46.5947386 C37.9188316,46.4291794 38.3335546,46.2314434 38.5601672,46.0037308 C38.7878799,45.7760181 38.8899106,45.4537002 38.8684594,45.035952 L37.6715929,21.6918301 C37.6501417,21.2738069 37.5148342,20.9635896 37.2656703,20.7603534 C37.0176065,20.5573921 36.5833574,20.4036585 35.9656731,20.3005278 L35.9323962,19.6539669 L59.4665537,18.4463748 C61.7247042,18.3303184 63.5499806,18.3723957 64.9390827,18.5709567 C66.3281849,18.7697928 67.5569532,19.1660898 68.6259376,19.7592977 C70.7454803,20.934438 71.8680927,22.7275376 71.9915745,25.1391466 C72.1290822,27.8345714 70.6585755,29.8553836 67.5786794,31.2024085 L67.5786794,31.2024085 Z" id="Fill-6" fill="#FFFFFF"></path>
            <path d="M136.757673,31.4526724 L116.687058,31.4526724 L116.687058,41.4090505 C116.687058,41.814148 116.809439,42.1279404 117.056678,42.3501528 C117.302542,42.5726401 117.72359,42.7445247 118.318998,42.8658064 L118.318998,43.5137424 L107.454795,43.5137424 L107.454795,42.8658064 C108.066979,42.731599 108.491327,42.5564142 108.729766,42.3405273 C108.967379,42.1246403 109.08646,41.814148 109.08646,41.4090505 L109.08646,17.9942497 C109.08646,17.5902522 108.967379,17.27976 108.729766,17.063873 C108.491327,16.847986 108.066979,16.6717012 107.454795,16.5374937 L107.454795,15.8895578 L118.318998,15.8895578 L118.318998,16.5374937 C117.707639,16.6587755 117.282191,16.83066 117.043752,17.0531474 C116.805314,17.2764598 116.687058,17.5902522 116.687058,17.9942497 L116.687058,26.8989694 L136.757673,26.8989694 L136.757673,17.9942497 C136.757673,17.5902522 136.639691,17.2764598 136.401253,17.0531474 C136.16254,16.83066 135.738191,16.6587755 135.126007,16.5374937 L135.126007,15.8895578 L145.991311,15.8895578 L145.991311,16.5374937 C145.378852,16.6717012 144.953403,16.847986 144.714965,17.063873 C144.476526,17.27976 144.35827,17.5902522 144.35827,17.9942497 L144.35827,41.4090505 C144.35827,41.814148 144.476526,42.1246403 144.714965,42.3405273 C144.953403,42.5564142 145.378852,42.731599 145.991311,42.8658064 L145.991311,43.5137424 L135.126007,43.5137424 L135.126007,42.8658064 C135.72114,42.7445247 136.142188,42.5726401 136.388327,42.3501528 C136.635291,42.1279404 136.757673,41.814148 136.757673,41.4090505 L136.757673,31.4526724 Z" id="Fill-7" fill="#FFFFFF"></path>
            <path d="M212.781246,38.0252625 L217.165265,44.1421523 L216.475801,44.4548447 C216.028902,44.0667982 215.652681,43.8616368 215.346589,43.8379854 C215.041597,43.8143341 214.160723,44.0711984 212.703967,44.6083032 C209.682924,45.7149647 207.159659,46.4239541 205.132521,46.7344464 C203.103184,47.0438385 200.716051,47.0919662 197.971123,46.8782793 C192.494469,46.4506306 188.083499,45.071429 184.736013,42.7390244 C182.760578,41.381274 181.247994,39.7677593 180.201561,37.8995805 C178.986544,35.7616118 178.47419,33.4690844 178.664226,31.0208984 C178.92549,27.6852381 180.380046,24.8825574 183.030093,22.6125813 C187.01369,19.2004667 192.743908,17.7879882 200.218548,18.3712956 C202.965676,18.5849825 205.303306,18.9975054 207.233638,19.6077643 C209.165345,20.2180232 211.551103,21.311484 214.396961,22.8864965 C215.753886,23.6287627 216.585258,24.011309 216.890249,24.0349603 C217.196616,24.0594366 217.599514,23.9156036 218.101142,23.6018112 L218.733952,24.0165343 L213.454759,29.3900578 L212.796372,28.9742347 C212.8467,28.7627479 212.878052,28.583438 212.889877,28.4360298 C212.919854,28.0471582 212.736144,27.665987 212.339847,27.2908662 C211.942175,26.9160203 211.219159,26.4454692 210.171901,25.8783877 C207.27764,24.3044752 204.150442,23.3870243 200.79443,23.1249347 C196.82816,22.8155425 193.605256,23.3548475 191.125993,24.7428496 C188.202856,26.3670898 186.625918,28.6640174 186.393805,31.6330824 C186.162792,34.6035224 187.364884,37.116337 190.001181,39.1734513 C192.23458,40.9299739 195.335102,41.9623812 199.301097,42.2717734 C202.657384,42.533863 205.888813,42.1095144 208.994561,40.9976276 C210.117173,40.5980304 210.903442,40.2435358 211.353642,39.9330435 C211.803567,39.6236513 212.044205,39.2735569 212.075557,38.8835852 C212.087383,38.735352 212.082982,38.5590672 212.064831,38.3550058 L212.781246,38.0252625 Z" id="Fill-8" fill="#FFFFFF"></path>
            <path d="M134.201956,254.924037 C132.864556,254.924037 131.801072,255.450417 131.009303,256.50345 C130.277763,257.480854 129.912542,258.694772 129.912542,260.143002 C129.912542,261.592058 130.277763,262.805975 131.009303,263.783655 C131.801072,264.836413 132.868957,265.362792 134.214881,265.362792 C135.568507,265.362792 136.637491,264.836413 137.419634,263.783655 C138.151175,262.805975 138.516395,261.614609 138.516395,260.210656 C138.516395,258.694772 138.151175,257.459403 137.419634,256.50345 C136.637491,255.465543 135.564381,254.939163 134.201956,254.924037 M134.201956,252.325418 C136.463406,252.325418 138.341211,252.978579 139.836744,254.284902 C141.517912,255.756784 142.359184,257.776221 142.359184,260.344864 C142.359184,261.151758 142.233502,261.969104 141.981038,262.79745 C141.728574,263.626896 141.383705,264.347711 140.94643,264.95907 C140.181613,266.03438 139.173957,266.852825 137.921262,267.412481 C136.811576,267.904759 135.576207,268.151722 134.214881,268.151722 C131.953706,268.151722 130.078927,267.494161 128.591094,266.180413 C127.876604,265.545403 127.322448,264.828988 126.926976,264.029793 C126.355495,262.850253 126.069754,261.584632 126.069754,260.233207 C126.069754,258.411231 126.540305,256.835394 127.482507,255.506245 C128.221473,254.453486 129.230229,253.639166 130.507675,253.064659 C131.566759,252.586408 132.798003,252.340544 134.201956,252.325418" id="Fill-9" fill="#FFFFFF"></path>
            <path d="M93.347336,258.100739 L93.347336,254.034638 L93.7059559,254.034638 C93.7876354,254.310753 93.8660148,254.490063 93.941369,254.571743 C94.0153481,254.654522 94.1314045,254.695225 94.2884382,254.695225 C94.3624174,254.695225 94.4666481,254.680374 94.6019557,254.650122 L95.5645091,254.404259 L95.5645091,253.743397 C95.5645091,253.518984 95.5119812,253.3471 95.4077504,253.227743 C95.3035196,253.108662 95.1165093,253.011856 94.8480943,252.936777 L94.8480943,252.577882 L99.5167537,252.577882 L99.5167537,252.936777 C99.2483388,253.011856 99.0613284,253.106461 98.9570976,253.222518 C98.8528668,253.338574 98.801439,253.511559 98.801439,253.743397 L98.801439,266.690566 C98.801439,266.922679 98.8528668,267.097864 98.9570976,267.21722 C99.0613284,267.337402 99.2483388,267.434207 99.5167537,267.508187 L99.5167537,267.867082 L94.8480943,267.867082 L94.8480943,267.508187 C95.1165093,267.434207 95.3035196,267.337402 95.4077504,267.21722 C95.5119812,267.097864 95.5645091,266.922679 95.5645091,266.690566 L95.5645091,257.013604 L94.5117507,257.271293 C94.265887,257.331521 94.0885021,257.417601 93.9801461,257.529257 C93.8715151,257.640913 93.78021,257.831224 93.7059559,258.100739 L93.347336,258.100739 Z" id="Fill-10" fill="#FFFFFF"></path>
            <path d="M112.925949,254.830532 C111.784085,254.830532 110.854809,255.111048 110.138119,255.670704 C109.541061,256.13383 109.242394,256.737488 109.242394,257.484155 C109.242394,258.216795 109.541061,258.817429 110.138119,259.287705 C110.847383,259.848736 111.77666,260.127877 112.925949,260.127877 C114.082938,260.127877 115.016615,259.848736 115.725604,259.287705 C116.322937,258.817429 116.621604,258.224221 116.621604,257.506706 C116.621604,256.752614 116.322937,256.141255 115.725604,255.670704 C115.031466,255.117373 114.098064,254.838233 112.925949,254.830532 L112.925949,254.830532 Z M106.038741,266.982907 L108.021876,263.320804 L108.335669,263.476463 C108.290566,263.663473 108.268015,263.809506 108.268015,263.913737 C108.268015,264.212403 108.506453,264.51107 108.98443,264.809737 C109.379902,265.0556 109.891155,265.259662 110.518465,265.419721 C111.14605,265.580879 111.743108,265.661459 112.310464,265.661459 C113.556559,265.661459 114.620043,265.336116 115.500917,264.68708 C116.075699,264.254206 116.503347,263.738552 116.783863,263.141219 C117.063004,262.543886 117.237088,261.759817 117.304742,260.788738 C116.55065,261.461151 115.786933,261.944627 115.014415,262.238894 C114.241897,262.53426 113.348097,262.681393 112.331916,262.681393 C110.712901,262.681393 109.324074,262.298022 108.166809,261.527704 C107.510623,261.08713 106.994969,260.516748 106.622048,259.814359 C106.263429,259.135346 106.083844,258.39198 106.083844,257.586185 C106.083844,255.972671 106.752131,254.684499 108.08843,253.721946 C109.387327,252.780843 111.029993,252.310292 113.015054,252.310292 C115.179699,252.310292 116.875168,252.855098 118.099811,253.945533 C118.913031,254.661948 119.51779,255.580499 119.912987,256.700911 C120.294433,257.776221 120.484744,258.899933 120.484744,260.072048 C120.484744,262.453681 119.748803,264.380988 118.278021,265.85177 C116.755811,267.375079 114.781202,268.136596 112.354467,268.136596 C111.50357,268.136596 110.738752,268.059317 110.059739,267.906684 C109.379902,267.754325 108.581532,267.47491 107.662981,267.072012 C107.349464,266.931205 107.106625,266.859426 106.934741,266.859426 C106.807959,266.859426 106.681177,266.907828 106.554395,267.005459 C106.457864,267.087138 106.38691,267.144066 106.341808,267.172943 L106.038741,266.982907 Z" id="Fill-11" fill="#FFFFFF"></path>
            <path d="M146.324354,266.071782 L149.361348,262.506484 L149.687791,262.708345 C149.629763,262.902781 149.599786,263.06724 149.599786,263.201447 C149.599786,263.581793 149.940255,263.962965 150.620368,264.343311 C152.031746,265.150206 153.585308,265.553103 155.281602,265.553103 C156.550247,265.553103 157.550478,265.31769 158.280918,264.846039 C159.069387,264.32956 159.464859,263.622496 159.464859,262.725396 C159.464859,261.894025 159.084513,261.232338 158.323821,260.738135 C157.564504,260.245033 156.546122,259.998069 155.269776,259.998069 C154.328674,259.998069 153.440374,260.132277 152.605428,260.400692 C151.768557,260.669382 151.351908,260.957323 151.351908,261.263415 C151.351908,261.367645 151.409937,261.516979 151.527918,261.711415 L151.225126,261.946553 L146.790505,257.981382 L147.055895,257.712967 C147.122448,257.720393 147.177177,257.723693 147.218979,257.723693 C147.621876,257.723693 147.824012,257.49708 147.824012,257.040555 L147.824012,253.803625 C147.824012,253.557762 147.762684,253.370751 147.641402,253.243969 C147.518745,253.117187 147.311384,253.019557 147.017118,252.952728 L147.017118,252.594108 L160.6488,252.594108 C160.908689,252.594108 161.104225,252.542405 161.235133,252.440374 C161.365215,252.337244 161.475771,252.149133 161.569276,251.877418 L161.972173,251.877418 L161.972173,255.920968 L161.569276,255.920968 C161.475771,255.647053 161.365215,255.460317 161.235133,255.357187 C161.104225,255.254881 160.908689,255.204553 160.6488,255.204553 L150.835155,255.204553 L150.835155,258.497311 C152.220957,257.883752 153.829246,257.57876 155.659748,257.57876 C158.053206,257.57876 159.93541,258.074887 161.303886,259.068793 C162.571707,259.986244 163.206442,261.200161 163.206442,262.708345 C163.206442,263.857909 162.824171,264.889216 162.060178,265.800067 C160.749731,267.367379 158.519357,268.151722 155.370707,268.151722 C153.338069,268.151722 151.585946,267.830504 150.11654,267.189169 C149.755445,267.03131 149.166912,266.740069 148.353692,266.31462 C148.000022,266.128985 147.681005,266.03438 147.395264,266.03438 C147.236305,266.03438 146.988241,266.121285 146.651897,266.292069 L146.324354,266.071782 Z" id="Fill-12" fill="#FFFFFF"></path>
            <path d="M93.8145869,80.6201789 C98.8635924,84.3438858 99.3278182,90.0523779 99.6523362,91.692844 C99.9754792,93.3344102 99.3921718,94.175682 101.486138,96.0534863 C103.578729,97.9323907 116.678532,101.406384 116.678532,101.406384 C112.490874,105.144941 109.789124,109.756948 109.222868,115.621373 C99.8024946,113.613487 89.2177065,105.195544 89.2177065,105.195544 C89.2177065,105.195544 83.5529418,101.34203 83.034263,94.7372632 C82.5164092,88.1316712 79.5544947,85.3955442 79.5544947,85.3955442 C78.1301906,84.1975776 76.1341297,85.0979777 76.1341297,85.0979777 C76.7325629,81.0662537 79.3278821,80.7975638 79.3278821,80.7975638 C77.9368548,78.8229541 74.8126813,79.0173899 74.8126813,79.0173899 C77.4511778,76.0062476 81.9985555,77.5598089 81.9985555,77.5598089 C81.6591866,75.1801017 78.3405773,74.8784099 78.3405773,74.8784099 C81.8214456,72.1744597 85.122729,74.7428274 85.122729,74.7428274 C85.122729,74.7428274 84.815262,72.3257181 83.8763598,71.8229902 C83.8763598,71.8229902 87.0005334,70.145122 89.2017557,74.3058281 C89.2017557,74.3058281 89.9299961,76.2328602 89.7517862,77.8023724 L93.8145869,80.6201789 Z" id="Fill-13" fill="#FFFFFF"></path>
            <path d="M112.017023,152.608728 C112.629482,156.309609 113.959456,161.955123 117.153209,166.617457 C120.347236,171.280891 132.324151,179.828915 132.324151,179.828915 C132.324151,179.828915 131.450978,184.944475 132.356603,193.427046 C133.263054,201.910717 138.50677,207.770743 146.145869,209.357581 C153.786069,210.944144 156.625601,208.44123 156.625601,208.44123 C157.282888,209.280302 157.647008,210.356711 156.796386,211.495275 C154.901256,214.031741 148.76814,214.959917 148.76814,214.959917 C139.813092,215.715109 135.98213,228.364712 135.98213,228.364712 C131.22299,231.246047 131.579685,234.419448 131.579685,234.419448 C134.330938,233.512723 135.625435,234.127107 135.625435,234.127107 C133.036441,236.782655 134.751986,239.437377 134.751986,239.437377 C136.888855,237.268332 140.061156,236.523865 140.061156,236.523865 C138.183352,239.308395 140.675815,241.704053 140.675815,241.704053 C140.837799,239.826249 145.110437,237.236155 145.110437,237.236155 C145.045808,240.247297 147.538272,241.704053 147.538272,241.704053 C147.182677,240.862781 147.700256,239.922779 147.700256,239.922779 L151.746005,235.773074 C158.867526,235.924332 161.82394,235.404553 164.112067,234.225013 C166.917223,232.778982 169.453414,227.457987 169.453414,227.457987 L174.859114,216.481027 C176.769371,212.8544 177.740449,213.534238 179.584977,211.13858 C181.430604,208.742922 179.045672,205.925115 179.045672,205.925115 C179.045672,205.925115 178.699703,206.486971 172.959859,201.565848 C167.220015,196.64335 168.643494,191.614695 168.643494,191.031388 C168.643494,190.449181 170.974524,184.037749 170.003445,173.353131 C169.032366,162.667137 158.242416,154.033307 158.242416,154.033307 C157.426996,154.050358 159.556164,141.794027 165.23358,130.548378 C170.711334,119.6982 172.70107,103.263837 172.70107,103.263837 C175.809017,78.56939 166.455198,70.4996166 166.455198,70.4996166 C167.679841,69.1264654 168.512312,67.6548586 168.643494,66.1356742 C169.248253,59.1423107 163.021632,59.3840491 163.021632,59.3840491 L159.450833,59.8006973 C159.450833,59.8006973 158.381849,55.9474582 153.041602,55.9474582 C147.700256,55.9474582 146.113692,60.2863742 146.113692,60.2863742 L133.165423,60.2863742 C127.857353,60.2863742 127.489933,65.0776904 127.489933,65.0776904 C127.489933,65.0776904 121.074376,65.1989722 117.498078,65.6395466 C113.770521,66.0982721 111.779685,67.1070282 111.590749,69.7078477 C111.461767,71.4803211 113.851925,72.288316 113.851925,72.288316 C113.851925,72.288316 113.441602,74.1003917 113.570584,76.4542475 C113.700667,78.8070032 117.260739,79.9939691 118.404803,80.4257431 C119.548867,80.8577921 118.815126,81.6558864 118.815126,81.6558864 C116.721435,84.2674315 114.650294,82.8214012 114.541663,82.79995 C114.434407,82.7784988 109.341125,78.1161648 105.866856,78.353503 C102.392588,78.5911162 104.097683,81.6344352 104.097683,81.6344352 C104.097683,81.6344352 105.370729,85.2396105 110.894411,86.2324157 C116.419468,87.2249458 120.217154,85.3042391 120.217154,85.3042391 L128.633996,82.0769348 C128.633996,82.0769348 133.667051,80.3443386 135.90155,81.8987249 C138.134949,83.4531113 134.546825,83.447886 134.546825,83.447886 L123.756875,84.3328852 C122.893052,88.1745736 124.717229,90.3983471 124.717229,90.3983471 C127.036708,92.6210206 129.259381,92.6650231 132.3027,92.1471693 C135.346294,91.6284905 136.241194,90.1717345 136.662242,89.6860576 C137.082191,89.2006556 137.826657,89.1349269 138.442141,89.4916218 C139.0568,89.8483166 138.442141,91.4340547 138.442141,91.4340547 L129.15185,95.4927302 C129.15185,95.4927302 121.339766,99.594308 116.074599,104.528357 C110.808606,109.463506 111.51017,116.690358 110.894411,118.502708 C110.280027,120.315884 108.27324,121.838094 104.712067,122.711542 C101.150894,123.584991 95.832099,125.884944 95.832099,125.884944 C90.4800267,127.439605 89.441294,126.385746 89.441294,126.385746 C86.471954,124.862437 82.6173399,123.324001 78.5567393,122.873801 C69.7840269,121.902722 63.7477165,125.513398 62.2092811,127.585638 C60.6719457,129.657878 60.6719457,133.024615 60.9964637,132.539213 C61.3198817,132.053536 62.2747347,131.567859 62.2747347,131.567859 C61.2071254,133.672551 61.6754764,136.958709 61.6754764,136.958709 C62.2747347,134.886469 63.9581032,134.174179 63.9581032,134.174179 C62.1608784,137.542016 63.9410523,140.067757 63.9410523,140.067757 C64.3942775,137.542016 66.5311462,136.813776 66.5311462,136.813776 C65.5600672,138.642077 66.5311462,142.641625 66.5311462,142.641625 C67.6966609,139.079352 70.7336546,138.68608 70.7336546,138.68608 C70.7336546,138.68608 76.1385299,140.335071 77.9742569,140.747594 C81.3712456,141.510487 86.5525335,142.172173 91.8614284,141.815479 C97.1694983,141.459884 100.556861,140.900228 105.015134,140.390899 C108.98553,139.937674 110.679624,141.556689 110.679624,141.556689 C110.679624,141.556689 111.564898,149.871501 112.017023,152.608728" id="Fill-14" fill="#FFFFFF"></path>
            <path d="M86.886677,210.32976 C86.886677,210.32976 82.3767015,210.199678 77.8122729,216.707639 C77.8122729,216.707639 73.7557975,217.884155 74.4238097,222.114715 C74.4238097,222.114715 76.8227679,220.653559 78.4384827,221.316345 C78.4384827,221.316345 76.301614,223.151247 77.4674037,226.3461 C77.4674037,226.3461 80.963123,224.230957 81.4377993,224.446844 C81.9127507,224.661631 80.8115895,225.460826 80.8115895,225.460826 C80.8115895,225.460826 79.3655592,226.475082 79.9488666,229.216709 C79.9488666,229.216709 83.1640702,227.252825 83.5314906,227.42471 C83.897811,227.597694 82.6464915,229.907273 83.790555,231.979788 L88.4732402,228.979096 C88.4732402,228.979096 90.1887855,229.205984 90.8034446,228.558048 C90.8034446,228.558048 97.2566781,230.835449 105.02586,228.590224 C112.793941,226.3461 114.736099,222.244522 114.736099,222.244522 C114.736099,222.244522 117.217837,218.876685 120.163526,218.52109 C123.109214,218.164395 128.434335,217.112737 128.952189,213.939336 C128.952189,213.939336 130.198283,210.135324 127.107662,204.792877 C124.015665,199.449331 124.987019,191.095741 124.987019,191.095741 C124.987019,191.095741 125.029921,189.066679 125.806564,188.203956 C126.584307,187.340133 130.770865,181.25322 130.770865,181.25322 C124.645175,177.526763 119.722951,173.084441 116.030596,167.913054 C116.030596,167.913054 106.427613,171.193711 101.917912,175.230935 C97.4071115,179.267059 95.8535502,182.840058 95.8535502,182.840058 C95.8535502,182.840058 91.7316212,190.686519 96.47976,199.946833 C96.47976,199.946833 97.7959831,202.558378 101.356056,204.177393 C104.917229,205.796408 106.891838,207.285341 105.532713,208.969809 C104.172762,210.653178 99.5866076,210.372662 99.5866076,210.372662 L86.886677,210.32976 Z" id="Fill-15" fill="#FFFFFF"></path>
            <path d="M115.360384,102.196228 C115.360384,102.196228 108.154159,110.813006 108.944827,115.376335 C102.364812,112.880846 84.0515445,103.983827 83.8818601,95.8901272 C83.8249319,93.132549 81.6957637,86.1884132 80.1647536,85.2170593 C79.4472387,84.7649342 77.2963442,84.0815212 76.1899578,84.8798905 C77.2963442,82.3767015 80.1647536,81.7257403 80.9576226,81.8921246 C79.8501361,80.5010973 77.5317573,79.0003389 76.5637035,79.0712928 C79.4310128,77.0988833 82.8117757,78.5597644 83.2061476,78.8917079 C82.3552503,76.4800989 80.9576226,75.0049169 79.9950692,75.0621201 C81.9619784,74.4936635 83.1866215,73.8234513 85.7393133,76.5939552 C86.1862131,73.8116256 85.1859826,72.4062976 84.7327574,71.9541725 C86.8071976,72.4643258 89.3970165,74.3154536 89.3970165,78.8413801 C95.3238708,81.7128146 98.5305489,87.9424607 98.8712928,91.6702928 C99.2106617,95.3981249 99.3555948,96.9879882 104.552008,98.7241597 C109.741822,100.472982 115.360384,102.196228 115.360384,102.196228" id="Fill-16" fill="#1D1D1B"></path>
            <path d="M115.360384,102.196228 C115.360384,102.196228 108.154159,110.813006 108.944827,115.376335 C102.364812,112.880846 84.0515445,103.983827 83.8818601,95.8901272 C83.8249319,93.132549 81.6957637,86.1884132 80.1647536,85.2170593 C79.4472387,84.7649342 77.2963442,84.0815212 76.1899578,84.8798905 C77.2963442,82.3767015 80.1647536,81.7257403 80.9576226,81.8921246 C79.8501361,80.5010973 77.5317573,79.0003389 76.5637035,79.0712928 C79.4310128,77.0988833 82.8117757,78.5597644 83.2061476,78.8917079 C82.3552503,76.4800989 80.9576226,75.0049169 79.9950692,75.0621201 C81.9619784,74.4936635 83.1866215,73.8234513 85.7393133,76.5939552 C86.1862131,73.8116256 85.1859826,72.4062976 84.7327574,71.9541725 C86.8071976,72.4643258 89.3970165,74.3154536 89.3970165,78.8413801 C95.3238708,81.7128146 98.5305489,87.9424607 98.8712928,91.6702928 C99.2106617,95.3981249 99.3555948,96.9879882 104.552008,98.7241597 C109.741822,100.472982 115.360384,102.196228 115.360384,102.196228 Z" id="Stroke-17" stroke="#FFFFFF" stroke-width="4.53" stroke-linejoin="round"></path>
            <path d="M128.552592,66.2154286 C128.552592,66.2154286 129.303384,61.4851658 132.907459,61.4851658 C136.514009,61.4851658 147.162051,61.0135146 147.162051,61.0135146 C147.162051,61.0135146 152.9943,52.8243847 159.090013,61.1738485 C169.430863,58.3516418 169.270804,66.6494027 165.983546,70.901414 C169.793883,75.6044502 171.683788,80.9028946 172.284146,86.6094616 C175.417945,121.013048 159.779477,133.032316 157.666534,155.295628 C164.87276,159.227521 171.109006,170.91457 169.270804,184.528927 C167.886102,194.728968 166.979377,201.208053 178.698603,207.003725 C179.923246,208.069409 179.764287,211.209534 179.764287,211.209534 C179.764287,211.209534 175.678935,214.394761 174.459517,217.210367 C173.254125,219.980046 167.400425,232.172023 165.345511,233.524549 C162.696289,235.279971 156.60085,236.07174 151.722629,235.752447 C148.748889,238.733613 147.162051,241.120746 147.488769,242.505448 C145.780649,239.690941 145.940708,236.824732 145.940708,236.824732 C145.940708,236.824732 141.221446,239.799297 140.909853,241.234602 C139.370318,239.21159 140.435177,237.188852 141.38783,236.07174 C138.577724,236.984791 135.446125,238.260862 135.132332,238.892572 C135.287166,235.44003 137.620396,233.524549 137.620396,233.524549 L132.317826,234.322643 C132.317826,234.322643 134.132377,229.752714 136.822301,229.59898 C138.099472,223.638024 144.473226,217.050308 147.162051,216.571232 C149.865176,216.093255 162.422373,214.344433 157.22596,208.548486 C148.275038,212.326921 140.706892,208.70772 136.194991,202.280063 C131.679791,195.846355 133.222351,179.958723 133.222351,179.958723 C133.222351,179.958723 119.96249,170.224832 117.425199,165.980246 C114.886533,161.72301 112.234285,150.884657 112.234285,143.020871 C112.234285,140.359823 110.179096,140.040805 108.633235,140.040805 C104.552008,140.040805 96.5485138,142.039066 88.5947969,141.636169 C84.4500417,141.419182 78.6381438,141.189269 71.0408467,138.815062 C68.9848325,138.930018 67.1273793,140.882902 66.8028613,141.796228 C66.4882438,139.721787 67.0800767,136.746947 67.7128868,136.586888 C65.2173982,137.06624 64.4234291,138.06207 64.2644702,138.815062 C63.6767626,136.586888 65.8554336,133.287805 66.6483027,132.974287 C63.5167037,133.772382 62.0901995,135.157084 61.9353659,135.948853 C62.0901995,133.772382 63.6338602,130.784891 64.5909134,130.472198 C62.4092172,131.110234 61.4573893,131.537883 61.1424968,132.335977 C62.0901995,129.035794 63.3824962,123.125165 80.7428357,124.357509 C89.063148,124.951542 87.7964276,129.560248 94.2108839,127.498458 C100.631941,125.423193 111.441416,120.904692 111.760434,119.627246 C112.074226,118.351175 108.835096,102.78366 139.047175,91.9453081 C139.642308,86.9466304 136.940558,89.9214706 136.194991,90.2404884 C135.446125,90.5542808 124.158673,97.5809212 123.999714,85.1989083 C129.78136,84.8721901 141.337502,84.7198317 136.672968,81.5797072 C131.998808,78.444808 119.599469,86.1496361 116.153253,86.3022696 C112.712262,86.4686538 108.314217,86.4686538 105.498336,82.6904939 C102.691255,78.9238847 105.339377,78.8026029 108.314217,80.0349464 C111.285483,81.2606895 116.317437,87.4644841 120.237505,80.8330407 C115.041366,78.7638258 112.86682,78.444808 114.407456,72.0111006 C111.919393,71.0603728 111.126524,67.8751458 115.200325,66.9618201 C119.287877,66.0561948 128.552592,66.2154286 128.552592,66.2154286" id="Fill-18" fill="#1D1D1B"></path>
            <path d="M128.552592,66.2154286 C128.552592,66.2154286 129.303384,61.4851658 132.907459,61.4851658 C136.514009,61.4851658 147.162051,61.0135146 147.162051,61.0135146 C147.162051,61.0135146 152.9943,52.8243847 159.090013,61.1738485 C169.430863,58.3516418 169.270804,66.6494027 165.983546,70.901414 C169.793883,75.6044502 171.683788,80.9028946 172.284146,86.6094616 C175.417945,121.013048 159.779477,133.032316 157.666534,155.295628 C164.87276,159.227521 171.109006,170.91457 169.270804,184.528927 C167.886102,194.728968 166.979377,201.208053 178.698603,207.003725 C179.923246,208.069409 179.764287,211.209534 179.764287,211.209534 C179.764287,211.209534 175.678935,214.394761 174.459517,217.210367 C173.254125,219.980046 167.400425,232.172023 165.345511,233.524549 C162.696289,235.279971 156.60085,236.07174 151.722629,235.752447 C148.748889,238.733613 147.162051,241.120746 147.488769,242.505448 C145.780649,239.690941 145.940708,236.824732 145.940708,236.824732 C145.940708,236.824732 141.221446,239.799297 140.909853,241.234602 C139.370318,239.21159 140.435177,237.188852 141.38783,236.07174 C138.577724,236.984791 135.446125,238.260862 135.132332,238.892572 C135.287166,235.44003 137.620396,233.524549 137.620396,233.524549 L132.317826,234.322643 C132.317826,234.322643 134.132377,229.752714 136.822301,229.59898 C138.099472,223.638024 144.473226,217.050308 147.162051,216.571232 C149.865176,216.093255 162.422373,214.344433 157.22596,208.548486 C148.275038,212.326921 140.706892,208.70772 136.194991,202.280063 C131.679791,195.846355 133.222351,179.958723 133.222351,179.958723 C133.222351,179.958723 119.96249,170.224832 117.425199,165.980246 C114.886533,161.72301 112.234285,150.884657 112.234285,143.020871 C112.234285,140.359823 110.179096,140.040805 108.633235,140.040805 C104.552008,140.040805 96.5485138,142.039066 88.5947969,141.636169 C84.4500417,141.419182 78.6381438,141.189269 71.0408467,138.815062 C68.9848325,138.930018 67.1273793,140.882902 66.8028613,141.796228 C66.4882438,139.721787 67.0800767,136.746947 67.7128868,136.586888 C65.2173982,137.06624 64.4234291,138.06207 64.2644702,138.815062 C63.6767626,136.586888 65.8554336,133.287805 66.6483027,132.974287 C63.5167037,133.772382 62.0901995,135.157084 61.9353659,135.948853 C62.0901995,133.772382 63.6338602,130.784891 64.5909134,130.472198 C62.4092172,131.110234 61.4573893,131.537883 61.1424968,132.335977 C62.0901995,129.035794 63.3824962,123.125165 80.7428357,124.357509 C89.063148,124.951542 87.7964276,129.560248 94.2108839,127.498458 C100.631941,125.423193 111.441416,120.904692 111.760434,119.627246 C112.074226,118.351175 108.835096,102.78366 139.047175,91.9453081 C139.642308,86.9466304 136.940558,89.9214706 136.194991,90.2404884 C135.446125,90.5542808 124.158673,97.5809212 123.999714,85.1989083 C129.78136,84.8721901 141.337502,84.7198317 136.672968,81.5797072 C131.998808,78.444808 119.599469,86.1496361 116.153253,86.3022696 C112.712262,86.4686538 108.314217,86.4686538 105.498336,82.6904939 C102.691255,78.9238847 105.339377,78.8026029 108.314217,80.0349464 C111.285483,81.2606895 116.317437,87.4644841 120.237505,80.8330407 C115.041366,78.7638258 112.86682,78.444808 114.407456,72.0111006 C111.919393,71.0603728 111.126524,67.8751458 115.200325,66.9618201 C119.287877,66.0561948 128.552592,66.2154286 128.552592,66.2154286 Z" id="Stroke-19" stroke="#FFFFFF" stroke-width="4.53" stroke-linejoin="round"></path>
            <path d="M115.871637,169.414912 C116.611978,170.397817 120.902492,176.76717 130.205709,182.288927 C127.70692,185.544008 124.516468,188.709984 124.47329,190.899381 C124.407837,194.371448 124.595947,202.887022 126.345869,204.827254 C128.105417,206.748236 128.78663,209.79898 128.557817,213.125015 C128.333405,216.456275 126.291141,217.497208 122.972532,218.167695 C119.648697,218.825257 116.611978,219.1572 113.350297,223.740055 C110.084491,228.316309 101.575243,229.414445 98.8110645,229.325065 C96.0620118,229.228535 90.4715012,228.724707 90.4715012,228.724707 C90.4715012,228.724707 85.3031391,230.365173 84.3975138,231.986113 C84.1158981,229.228535 85.3031391,227.582568 85.3031391,227.582568 C85.3031391,227.582568 82.8772293,227.384007 80.3443386,229.381993 C80.963123,225.877749 82.5851631,224.939947 82.5851631,224.939947 C82.5851631,224.939947 78.9519362,225.137683 77.4792294,226.847728 C78.0419107,223.343483 79.4365131,222.149917 79.8350103,222.149917 C77.9261292,221.665615 75.8654397,221.805323 74.7010251,222.603417 C75.4894939,218.390183 77.4940802,218.276326 78.0377854,218.167695 C78.5264876,217.758473 82.9773349,211.873421 86.0734569,211.816493 C89.1704039,211.758464 103.649683,212.422351 105.12239,211.196608 C106.593172,209.96564 108.633235,207.635435 103.49925,204.929285 C98.3652647,202.229735 94.9253736,200.601095 95.4410273,191.60837 C95.9470554,182.620871 100.095936,174.96142 115.871637,169.414912" id="Fill-20" fill="#1D1D1B"></path>
            <path d="M115.871637,169.414912 C116.611978,170.397817 120.902492,176.76717 130.205709,182.288927 C127.70692,185.544008 124.516468,188.709984 124.47329,190.899381 C124.407837,194.371448 124.595947,202.887022 126.345869,204.827254 C128.105417,206.748236 128.78663,209.79898 128.557817,213.125015 C128.333405,216.456275 126.291141,217.497208 122.972532,218.167695 C119.648697,218.825257 116.611978,219.1572 113.350297,223.740055 C110.084491,228.316309 101.575243,229.414445 98.8110645,229.325065 C96.0620118,229.228535 90.4715012,228.724707 90.4715012,228.724707 C90.4715012,228.724707 85.3031391,230.365173 84.3975138,231.986113 C84.1158981,229.228535 85.3031391,227.582568 85.3031391,227.582568 C85.3031391,227.582568 82.8772293,227.384007 80.3443386,229.381993 C80.963123,225.877749 82.5851631,224.939947 82.5851631,224.939947 C82.5851631,224.939947 78.9519362,225.137683 77.4792294,226.847728 C78.0419107,223.343483 79.4365131,222.149917 79.8350103,222.149917 C77.9261292,221.665615 75.8654397,221.805323 74.7010251,222.603417 C75.4894939,218.390183 77.4940802,218.276326 78.0377854,218.167695 C78.5264876,217.758473 82.9773349,211.873421 86.0734569,211.816493 C89.1704039,211.758464 103.649683,212.422351 105.12239,211.196608 C106.593172,209.96564 108.633235,207.635435 103.49925,204.929285 C98.3652647,202.229735 94.9253736,200.601095 95.4410273,191.60837 C95.9470554,182.620871 100.095936,174.96142 115.871637,169.414912 Z" id="Stroke-21" stroke="#FFFFFF" stroke-width="4.53" stroke-linejoin="round"></path>
            <polygon id="Fill-22" fill="#FFFFFF" points="132.588441 73.6072893 132.7485 66.9684205 138.413265 73.4472304"></polygon>
        </g>
    </g>
</svg>