<?xml version="1.0" encoding="UTF-8" standalone="no"?>
<!DOCTYPE svg PUBLIC "-//W3C//DTD SVG 1.1//EN" "http://www.w3.org/Graphics/SVG/1.1/DTD/svg11.dtd">
<svg xmlns:rdf="http://www.w3.org/1999/02/22-rdf-syntax-ns#" xmlns="http://www.w3.org/2000/svg" viewBox="0 0 300.00001 299.9991" height="84.666mm" width="84.667mm" version="1.1" xmlns:cc="http://creativecommons.org/ns#" xmlns:xlink="http://www.w3.org/1999/xlink" xmlns:dc="http://purl.org/dc/elements/1.1/">
<defs>
<clipPath id="a" clipPathUnits="userSpaceOnUse">
<path d="m434.22 606.52 111.59-29.9 29.901 111.59-111.59 29.9-29.9-111.59z"/>
</clipPath>
</defs>
<g transform="translate(-83.347 -278.87)">
<g transform="matrix(2.5962 0 0 -2.5962 -1077.6 2109.5)" clip-path="url(#a)">
<g transform="translate(560.76 632.42)">
<path style="fill:#1e46a1" d="m0 0c-8.257-30.814-39.93-49.101-70.745-40.844-30.814 8.256-49.101 39.93-40.844 70.744 8.257 30.815 39.93 49.101 70.745 40.845 30.815-8.257 49.102-39.93 40.845-70.745"/>
</g>
<g transform="translate(533.61 663.91)">
<path style="fill:#ffffff" d="m0 0c9.135-15.823 3.714-36.056-12.109-45.191-15.823-9.136-36.056-3.714-45.191 12.109"/>
</g>
<g transform="translate(476.31 630.82)">
<path style="fill:#969ddb" d="m0 0c-9.135 15.823-3.714 36.056 12.109 45.191 15.823 9.136 36.056 3.714 45.191-12.109"/>
</g>
<g transform="translate(474.24 609.19)">
<path style="fill:#ffffff" d="m0 0-1.918 1.682 5.378 6.132-2.377 2.085 1.267 1.445c1.314-1.2 2.945-1.818 4.416-0.551l1.526-1.339-8.292-9.454z"/>
</g>
<g transform="translate(487.26 609.89)">
<path style="fill:#ffffff" d="m0 0c0.942-0.444 1.951-0.285 2.411 0.69 0.276 0.585 0.467 1.706-0.963 2.381-0.926 0.437-2.006 0.251-2.481-0.756-0.468-0.991 0.107-1.878 1.033-2.315m-2.475-5.288c1.105-0.521 2.318-0.139 2.854 0.998 0.514 1.088-0.018 2.233-1.091 2.739-1.121 0.529-2.313 0.317-2.865-0.853s-0.002-2.363 1.102-2.884m4.744 10.097c2.826-1.333 2.882-3.743 2.36-4.848-0.528-1.121-1.542-1.755-2.783-1.606l-0.016-0.033c1.203-0.944 1.493-2.352 0.818-3.782-1.127-2.388-3.831-2.562-5.943-1.566-2.193 1.034-3.8 3.143-2.643 5.597 0.682 1.445 1.977 2.086 3.463 1.782l0.015 0.033c-0.959 0.83-1.098 2.008-0.57 3.129 0.966 2.047 3.446 2.168 5.299 1.294"/>
</g>
<g transform="translate(501.04 606.95)">
<path style="fill:#ffffff" d="m0 0c0.168 1.156-0.411 2.419-1.673 2.603-1.209 0.175-2.07-0.879-2.233-1.999-0.17-1.174 0.264-2.435 1.562-2.623 1.351-0.197 2.166 0.792 2.344 2.019m-4.563-4.547c0.039-0.859 0.575-1.663 1.446-1.789 1.832-0.266 2.66 2.064 2.933 3.44l-0.031 0.041c-0.835-0.877-1.801-1.154-3.01-0.979-1.067 0.155-2.079 0.811-2.676 1.696-0.547 0.86-0.699 1.935-0.557 2.913 0.369 2.542 2.421 4.295 5.016 3.918 3.768-0.547 4.304-3.983 3.847-7.13-0.441-3.04-2.296-6.31-5.833-5.796-2.151 0.312-3.568 1.807-3.535 4.035l2.4-0.349z"/>
</g>
<g transform="translate(513.12 607.58)">
<path style="fill:#ffffff" d="m0 0c-0.182 1.153-1.109 2.189-2.369 1.99-1.206-0.19-1.716-1.452-1.54-2.57 0.184-1.171 0.972-2.247 2.268-2.043 1.348 0.213 1.834 1.399 1.641 2.623m-3.012-5.694c0.291-0.809 1.042-1.418 1.911-1.28 1.828 0.287 1.929 2.758 1.782 4.154l-0.041 0.029c-0.538-1.084-1.379-1.635-2.585-1.825-1.065-0.168-2.226 0.158-3.058 0.827-0.777 0.659-1.241 1.64-1.395 2.617-0.4 2.537 1.04 4.819 3.631 5.227 3.761 0.593 5.29-2.53 5.786-5.67 0.478-3.034-0.325-6.707-3.856-7.264-2.147-0.338-3.942 0.67-4.57 2.807l2.395 0.378z"/>
</g>
<g transform="translate(459.69 660.28)">
<path style="fill:#ffffff" d="m0 0-1.163-3.664-2.26 0.717 3.179 10.017 2.26-0.718-1.163-3.664 9.965-3.162-0.853-2.688-9.965 3.162z"/>
</g>
<g transform="translate(462.48 673.05)">
<path style="fill:#ffffff" d="m0 0 5.701 7.715 1.907-1.41-4.025-5.446 2.21-1.633 3.694 4.998 1.763-1.302-3.694-4.999 2.528-1.868 4.11 5.562 1.907-1.409-5.786-7.83-10.315 7.622z"/>
</g>
<g transform="translate(473.67 686.01)">
<path style="fill:#ffffff" d="m0 0 2.358 1.515 9.156-4.344 0.03 0.02-4.653 7.238 2.222 1.428 6.935-10.79-2.372-1.525-9.132 4.339-0.03-0.02l4.643-7.223-2.222-1.428-6.935 10.79z"/>
</g>
<g transform="translate(490.61 694.97)">
<path style="fill:#ffffff" d="m0 0 2.755 0.513 6.839-7.478 0.035 0.006-1.576 8.459 2.596 0.484 2.349-12.609-2.772-0.516-6.818 7.463-0.035-0.006 1.572-8.441-2.596-0.484-2.349 12.609z"/>
</g>
<g transform="translate(507.75 696.74)">
<path style="fill:#ffffff" d="m0 0 2.81-0.242-1.101-12.778-2.809 0.242 1.1 12.778z"/>
</g>
<g transform="translate(515.6 686.9)">
<path style="fill:#ffffff" d="m0 0c-0.549-1.616 0.497-2.673 1.926-3.158 0.935-0.317 2.457-0.53 2.878 0.712 0.444 1.31-1.301 2.149-2.925 3.231-1.642 1.088-3.225 2.403-2.451 4.683 0.842 2.483 3.594 2.878 5.788 2.133 2.535-0.86 4.49-2.757 3.538-5.564l-2.586 0.878c0.412 1.491-0.499 2.218-1.775 2.651-0.85 0.289-1.959 0.266-2.305-0.754-0.317-0.936 0.221-1.251 3-3.067 0.809-0.521 3.341-2.007 2.405-4.762-0.756-2.229-3.074-3.301-6.374-2.181-2.687 0.912-4.755 3.093-3.705 6.075l2.586-0.877z"/>
</g>
<g transform="translate(536.15 680.12)">
<path style="fill:#ffffff" d="m0 0c0.676 1.097 0.354 2.623-0.724 3.517-1.95 1.617-4.059 0.565-5.492-1.164-1.364-1.646-2.008-3.913-0.057-5.529 1.328-1.101 2.831-0.807 4.074 0.355l2.103-1.743c-2.263-2.278-5.27-2.444-7.691-0.438-3.057 2.534-2.962 6.306-0.601 9.155 2.431 2.932 6.12 3.724 9.177 1.19 2.171-1.8 2.942-4.586 1.313-7.086l-2.102 1.743z"/>
</g>
<g transform="translate(545.51 675.92)">
<path style="fill:#ffffff" d="m0 0 1.428-2.432-9.014-5.295 3.166-5.39-2.044-1.201-4.595 7.822l11.059 6.496z"/>
</g>
<g transform="translate(546.72 649.53)">
<path style="fill:#ffffff" d="m0 0c-3.409-0.632-5.442 1.073-6.068 4.447-0.629 3.391 0.647 5.673 4.073 6.309l7.842 1.454 0.514-2.773-7.842-1.454c-1.377-0.255-2.672-0.861-2.256-3.104 0.367-1.978 1.351-2.453 3.223-2.106l7.841 1.454 0.515-2.773-7.842-1.454z"/>
</g>
<g transform="translate(548.79 640.99)">
<path style="fill:#ffffff" d="m0 0-0.557-2.801c-0.193-0.969 0.104-1.779 1.161-1.989 1.198-0.239 1.627 0.628 1.823 1.615l0.515 2.59-2.942 0.585zm-5.339 1.061-0.588-2.959c-0.217-1.093-0.054-2.114 1.25-2.374 1.286-0.255 1.958 0.454 2.193 1.634l0.599 3.013-3.454 0.686zm10.981 0.693-1.177-5.92c-0.477-2.396-1.574-3.863-3.918-3.397-1.233 0.245-1.974 1.033-2.285 2.231-0.745-1.445-2.08-1.986-3.648-1.674-2.555 0.508-3.216 2.892-2.764 5.165l1.212 6.096 12.58-2.501z"/>
</g>
<g transform="translate(464.23 642.9)">
<path style="fill:#ffffff" d="m0 0 2.217 0.224 0.111-1.461-2.229-0.128 0.828-2.045-1.373-0.543-0.805 2.131-1.693-1.462-0.935 1.162 1.74 1.356l-1.831 1.216 0.826 1.211 1.756-1.289 0.581 2.169 1.388-0.372-0.581-2.169z"/>
</g>
<g transform="translate(539.6 622.71)">
<path style="fill:#ffffff" d="m0 0 2.217 0.224 0.111-1.461-2.229-0.128 0.828-2.045-1.373-0.543-0.805 2.131-1.693-1.462-0.935 1.162 1.74 1.356l-1.831 1.216 0.826 1.211 1.756-1.289 0.581 2.169 1.388-0.372-0.581-2.169z"/>
</g>
</g>
</g>
</svg>
