<?xml version="1.0" encoding="utf-8"?>
<!-- Generator: Adobe Illustrator 16.0.3, SVG Export Plug-In . SVG Version: 6.00 Build 0)  -->
<!DOCTYPE svg PUBLIC "-//W3C//DTD SVG 1.1//EN" "http://www.w3.org/Graphics/SVG/1.1/DTD/svg11.dtd">
<svg version="1.1" id="BSC_Logo" xmlns="http://www.w3.org/2000/svg" xmlns:xlink="http://www.w3.org/1999/xlink" x="0px" y="0px"
	 width="610px" height="603.68px" viewBox="0 0 610 603.68" enable-background="new 0 0 610 603.68" xml:space="preserve">
<path fill="#1A1A18" d="M605,301.839c0,163.947-134.312,296.842-300,296.842c-165.691,0-300-132.896-300-296.842
	C5,137.897,139.309,5,305,5C470.688,5,605,137.897,605,301.839"/>
<path fill="#FADD00" d="M593.749,301.839c0,157.801-129.271,285.71-288.749,285.71c-159.476,0-288.752-127.909-288.752-285.71
	C16.248,144.046,145.524,16.134,305,16.134C464.479,16.134,593.749,144.046,593.749,301.839"/>
<path fill="#1A1A18" d="M584.976,301.839c0,153.003-125.354,277.029-279.976,277.029c-154.629,0-279.975-124.025-279.975-277.029
	C25.025,148.842,150.371,24.815,305,24.815C459.621,24.815,584.976,148.842,584.976,301.839"/>
<path fill="#FADD00" d="M101.918,460.799l-2.31-3.292l2.94-3.184c-5.094-0.577-7.895-2.371-10.411-5.947
	c-6.185-8.799-2.821-18.923,5.655-24.759c8.478-5.831,19.241-5.429,25.423,3.364c4.511,6.416,4.848,14.175-1.292,19.562
	l-3.526-5.016c3.56-3.181,3.183-7.926,0.58-11.625c-4.419-6.291-11.879-5.063-17.573-1.144c-5.691,3.916-9.452,10.408-5.03,16.702
	c3.616,5.316,8.838,5.992,13.924,2.616l-5.49-7.813l3.947-2.718l8.788,12.498L101.918,460.799z M111.342,471.584l18.393,18.696
	l3.919-3.769l-13.982-14.217l7.583-7.301l12.71,12.922l3.699-3.563l-12.71-12.922l6.782-6.533l13.736,13.962l3.917-3.774
	l-18.147-18.445L111.342,471.584z M176.201,502.201l-12.387-9.03l-2.851,3.83l7.742,5.644c-3.716,4.82-8.88,5.845-14.035,1.961
	c-6.232-4.544-4.787-11.893-0.672-17.413c4.112-5.523,10.774-9.064,17.006-4.52c3.666,2.673,5.568,7.047,3.236,11.189l4.972,3.63
	c4.059-7.059,1.213-14.295-5.145-18.935c-8.718-6.354-19.04-3.303-25.164,4.922c-6.126,8.221-6.015,18.881,2.704,25.238
	c3.545,2.586,6.782,3.39,11.795,2.315l-1.752,3.95l3.261,2.377L176.201,502.201z M177.461,524.72l5.666,2.793l6.631-13.182
	l8.338,4.106c5.211,2.566,5.127,5.769,2.173,11.645c-0.792,1.57-1.671,3.316-1.509,5.13l6.073,2.99
	c-0.569-1.902,0.6-5.573,2.475-9.298c2.55-5.066,0.416-7.909-1.398-9.137l0.045-0.089c1.225,0.156,6.319,0.703,9.41-5.438
	c2.729-5.426,0.731-10.438-6.341-13.923l-15.455-7.611L177.461,524.72z M196.934,500.072l9.2,4.53
	c2.946,1.451,5.214,3.577,3.161,7.655c-1.693,3.361-4.52,4.151-8.102,2.388l-9.29-4.575L196.934,500.072z M220.156,530.249
	c-2.662,8.782,1.688,14.833,10.224,17.366c8.537,2.533,15.536-0.15,18.198-8.933l6.648-21.934l-6.062-1.796l-6.051,19.963
	c-1.397,4.606-3.303,9.848-11.162,7.516c-7.856-2.332-6.534-7.744-5.136-12.353l6.051-19.964l-6.062-1.799L220.156,530.249z
	 M240.847,508.196l1.573-5.187l-5.529-1.641l-1.57,5.184L240.847,508.196z M245.232,503.844l-1.57,5.187l5.529,1.641l1.57-5.184
	L245.232,503.844z M259.231,553.97l5.981,0.715l3.175-26.118l0.15,0.02l13.165,28.063l6.634,0.786l4.321-35.513l-5.984-0.712
	l-3.18,26.162l-0.104-0.011l-13.204-28.118l-6.637-0.789L259.231,553.97z M303.472,557.938l14.967-0.726
	c11.122-0.541,15.527-8.776,15.042-18.636c-0.491-9.855-5.688-17.625-16.811-17.084l-14.967,0.723L303.472,557.938z M308.275,527.01
	l6.218-0.298c9.909-0.48,12.312,5.019,12.669,12.174c0.354,7.153-1.496,12.861-11.405,13.338l-6.218,0.304L308.275,527.01z
	 M347.312,554.425l25.789-5.445l-1.139-5.29l-19.601,4.141l-2.209-10.238l17.82-3.761l-1.077-4.996l-17.817,3.76l-1.976-9.158
	l19.255-4.064l-1.141-5.287l-25.439,5.368L347.312,554.425z M371.217,518.016l10.713-3.975l10.769,28.427l5.926-2.195
	l-10.766-28.431l10.76-3.989l-1.92-5.063l-27.4,10.16L371.217,518.016z M422.071,502.022l7.307-4.684l13.597,20.767l5.309-3.403
	l-19.263-29.424l-3.953,2.53c1.593,3.995-1.364,7.858-5.474,10.431L422.071,502.022z M451.826,500.011
	c4.378,5.317,11.151,5.22,16.723,0.729c5.57-4.489,7.035-11.033,2.658-16.351c-2.813-3.415-6.787-4.282-10.486-2.589l-0.064-0.078
	l0.033,0.036c1.671-2.96,1.423-6.118-0.75-8.757c-3.803-4.623-9.206-4.916-14.657-0.524c-5.454,4.399-6.252,9.691-2.449,14.312
	c2.173,2.639,5.247,3.521,8.52,2.496l-0.033-0.039l0.063,0.075C448.962,492.568,449.015,496.594,451.826,500.011 M447.263,483.604
	c-2.204-2.678-1.498-5.702,0.896-7.633c2.391-1.928,5.529-2.003,7.736,0.675c2.108,2.564,1.447,5.485-1.024,7.477
	C452.398,486.115,449.372,486.166,447.263,483.604 M466.735,487.993c2.619,3.183,1.916,6.849-1.063,9.25
	c-2.982,2.405-6.751,2.344-9.373-0.837c-2.461-2.99-1.693-6.578,1.286-8.982C460.567,485.021,464.271,485.005,466.735,487.993
	 M479.127,478.977c4.419,3.683,10.515,2.882,14.358-1.175c6.853-7.239,1.928-16.328-4.24-22.044
	c-7.54-6.983-15.221-10.738-22.069-3.499c-5.295,5.594-4.533,12.337,0.494,16.992c5.28,4.896,11.795,4.826,16.361-0.002
	c2.215-2.341,3.077-5.449,2.123-8.395l0.143-0.003c3.158,3.406,8.141,8.982,3.853,13.517c-2.042,2.156-4.799,2.209-7.078,0.44
	L479.127,478.977z M471.575,465.05c-2.81-2.603-3.934-6.324-1.063-9.356c2.942-3.107,6.907-2.315,9.677,0.254
	c2.846,2.636,3.979,6.566,1.038,9.675C478.357,468.657,474.382,467.65,471.575,465.05 M495.977,449.985l3.343-4.653
	c-1.493-2.156-0.733-4.511,0.675-6.47c2.695-3.757,6.746-3.428,9.923-1.193c3.507,2.463,5.388,5.813,2.545,9.772
	c-2.171,3.023-5.354,3.735-8.654,1.847l-3.342,4.65c5.926,3.858,12.013,1.69,15.974-3.822c5.039-7.021,1.356-13.912-3.261-17.159
	c-5.529-3.889-12.002-3.523-16.077,2.15c-1.381,1.92-2.09,4.553-1.596,6.805l-0.143,0.022l-6.288-6.635l8.124-11.307l-4.21-2.96
	l-10.615,14.78L495.977,449.985z"/>
<path fill="#FADD00" d="M49.722,322.492l-0.469-17.372c-0.173-6.408,2.65-10.69,8.671-10.85c3.643-0.095,6.324,1.688,7.828,4.902
	h0.101c0.842-4.383,4.221-6.827,9.128-6.955c5.669-0.15,10.174,3.638,10.425,12.9l0.441,16.417L49.722,322.492z M64.681,315.833
	l-0.273-10.213c-0.081-2.999-1.914-5.208-5.152-5.122c-3.644,0.095-4.907,1.983-4.815,5.387l0.276,10.213L64.681,315.833z
	 M80.518,315.414L80.22,304.35c-0.103-3.803-2.237-5.951-5.881-5.856c-3.54,0.095-5.504,2.352-5.404,6.157l0.301,11.061
	L80.518,315.414z M85.799,283.954l3.571-25.85l-5.415-0.734l-2.714,19.648l-10.481-1.417l2.466-17.862l-5.113-0.689l-2.469,17.86
	l-9.374-1.269l2.664-19.299l-5.415-0.731l-3.523,25.501L85.799,283.954z M56.599,239.857l5.122-16.312
	c2.346-7.463,7.027-10.216,12.877-8.417c6.623,2.037,6.888,7.1,6.93,8.319l0.097,0.031c0.935-1.97,3.429-4.506,8.891-2.826
	c4.012,1.236,7.867,1.791,9.675,0.929l-2.014,6.414c-1.783,0.446-3.668-0.134-5.362-0.656c-6.33-1.947-9.541-1.518-11.271,3.981
	l-2.765,8.804l14.211,4.372l-1.88,5.979L56.599,239.857z M74.188,238.71l3.08-9.806c1.186-3.777-0.053-6.417-3.677-7.532
	c-4.399-1.353-6.157,1.202-7.133,4.31l-3.052,9.711L74.188,238.71z M103.408,214.889l10.978-21.894l-4.896-2.405l-8.168,16.287
	l-27.482-13.488l-2.812,5.61L103.408,214.889z M118.453,187.108l3.423-5.267l-30.402-19.347l-3.423,5.264L118.453,187.108z
	 M127.322,173.316l3.875-4.564l-20.343-16.92l0.098-0.114l30.93,4.458l4.299-5.058l-27.668-23.013l-3.875,4.562l20.382,16.953
	l-0.064,0.075l-31-4.453l-4.302,5.063L127.322,173.316z M153.277,144.308l20.053-16.936l-3.549-4.115l-15.243,12.875l-6.868-7.959
	l13.856-11.706l-3.35-3.883l-13.857,11.706l-6.146-7.125l14.972-12.648l-3.548-4.112l-19.785,16.71L153.277,144.308z
	 M161.145,92.146l14.783-8.818c6.762-4.034,12.113-3.013,15.276,2.179c3.58,5.875,0.377,9.833-0.413,10.771l0.053,0.086
	c2.02-0.856,5.588-1.113,8.542,3.735c2.17,3.563,4.673,6.509,6.603,7.056l-5.808,3.465c-1.635-0.837-2.653-2.511-3.571-4.012
	c-3.423-5.622-6.107-7.41-11.092-4.436l-7.979,4.759l7.683,12.609l-5.42,3.233L161.145,92.146z M175.057,102.855l8.888-5.303
	c3.423-2.042,4.271-4.826,2.31-8.045c-2.38-3.9-5.407-3.147-8.224-1.467l-8.802,5.25L175.057,102.855z M223.057,86.896
	c2.765,8.436,10.311,10.238,18.2,7.851c6.874-2.082,12.799-7.229,10.431-14.892c-1.093-3.543-4.458-6.715-9.421-6.678
	c-1.956,0.017-10.21,0.365-10.788,0.382c-2.676,0.078-4.734-0.764-5.477-3.158c-1.065-3.451,2.157-5.526,4.963-6.375
	c4.165-1.261,7.669-0.542,9.321,3.78l6.051-1.833c-2.204-7.136-9.424-9.089-16.638-6.908c-6.243,1.889-11.642,7.033-9.524,13.882
	c1.096,3.546,3.934,6.562,10.328,6.355c5.144-0.142,8.483-0.471,11.184-0.295c1.565,0.103,3.345,0.717,4.159,3.35
	c0.798,2.586-0.388,5.775-5.71,7.387c-4.84,1.462-9.398,0.589-11.028-4.678L223.057,86.896z M257.7,52.783l15.807-2.106
	c10.235-1.364,13.083,4.927,13.686,9.346c0.594,4.369-0.471,11.181-10.712,12.498l-9.535,1.27l1.852,13.603l-6.271,0.837
	L257.7,52.783z M266.256,68.726l9.184-1.222c2.809-0.376,6.082-2.226,5.474-6.695c-0.636-4.667-3.658-5.476-6.969-5.035
	l-9.285,1.238L266.256,68.726z M331.771,67.538c-0.407,10.21-7.22,18.471-18.047,18.047c-10.83-0.421-16.964-9.187-16.56-19.397
	c0.406-10.213,7.223-18.471,18.049-18.05C326.043,48.562,332.178,57.324,331.771,67.538 M303.488,66.433
	c-0.271,6.857,2.694,13.743,10.437,14.046c7.741,0.301,11.248-6.33,11.521-13.19c0.273-6.857-2.695-13.742-10.434-14.043
	C307.271,52.941,303.762,59.576,303.488,66.433 M346.746,51.767l16.857,3.683c7.711,1.685,10.881,6.07,9.559,11.99
	c-1.493,6.701-6.573,7.384-7.795,7.529l-0.022,0.098c2.059,0.759,4.823,3.005,3.593,8.531c-0.906,4.062-1.144,7.906-0.125,9.616
	l-6.623-1.448c-0.6-1.722-0.173-3.627,0.207-5.34c1.428-6.408,0.728-9.538-4.958-10.777l-9.095-1.986l-3.208,14.378l-6.182-1.347
	L346.746,51.767z M349.379,69.016l10.136,2.212c3.902,0.854,6.455-0.589,7.275-4.257c0.993-4.452-1.729-5.97-4.943-6.67
	l-10.035-2.195L349.379,69.016z M383.088,66.073l10.646,4.143l-11.237,28.235l5.887,2.293l11.234-28.232l10.688,4.162l2-5.033
	L385.094,61.04L383.088,66.073z M403.291,95.22l13.111,6.634l2.491-4.815l-13.114-6.634L403.291,95.22z M458.547,113.203
	c3.858-6.743,1.188-14.043-5.451-18.722c-8.862-6.16-19.112-2.876-25.046,5.482c-5.937,8.361-5.579,19.015,3.283,25.174
	c7.164,4.982,15.611,3.626,21.001-3.094l-5.052-3.512c-3.442,3.978-8.383,5.621-12.98,2.427c-6.339-4.405-5.061-11.781-1.077-17.396
	c3.989-5.613,10.564-9.304,16.903-4.899c4.31,2.991,4.759,6.977,3.241,10.944L458.547,113.203z M450.451,138.715l17.704,17.051
	l3.813-3.877l-13.171-12.68l21.397-21.751l-4.533-4.366L450.451,138.715z M482.849,152.778c-7.432,5.471-7.594,12.895-2.273,19.966
	c5.319,7.075,12.551,9.058,19.982,3.585l18.563-13.667l-3.777-5.024l-16.897,12.439c-3.897,2.871-8.587,5.951-13.483-0.561
	c-4.898-6.511-0.568-10.071,3.331-12.942l16.895-12.439l-3.777-5.024L482.849,152.778z M527.426,176.097l7.884,15.536
	c2.909,5.733,2.192,10.796-3.194,13.475c-3.259,1.615-6.45,1.13-9.192-1.152L522.831,204c1.116,4.321-0.893,7.956-5.281,10.138
	c-5.068,2.519-10.779,0.979-14.98-7.301l-7.454-14.688L527.426,176.097z M502.569,195.456l5.024,9.892
	c1.727,3.404,4.58,4.453,7.839,2.834c3.166-1.573,3.979-4.444,2.251-7.848l-5.021-9.895L502.569,195.456z M516.732,188.417
	l4.637,9.133c1.364,2.687,3.97,3.914,6.865,2.475c3.259-1.618,3.597-3.858,2.051-6.905l-4.637-9.133L516.732,188.417z
	 M528.664,243.389c-3.992,0.92-7.035,3.883-5.944,8.52c0.756,3.219,2.647,4.843,5.686,5.169l1.244,5.27
	c-5.861,0.064-10.068-3.903-11.368-9.418c-1.861-7.901,2.664-13.625,10.506-15.433c7.248-1.671,14.563,1.582,16.334,9.092
	c1.872,7.954-4.229,14.504-12.088,15.338L528.664,243.389z M535.421,255.513c3.504-1.015,6.146-4.143,5.262-7.9
	c-0.906-3.853-4.486-5.808-8.319-5.077L535.421,255.513z M522.594,272.137l0.84,6.913l6.787-0.806l-0.842-6.916L522.594,272.137z
	 M524.533,296.812l0.108,6.963l36.345,11.653l-0.104-6.361l-28.751-8.718v-0.101l28.458-9.416l-0.105-6.514L524.533,296.812z
	 M524.179,315.844l-0.561,6.941l6.81,0.539l0.563-6.944L524.179,315.844z"/>
<path fill="#FADD00" d="M397.58,278.924c16.931,12.788,63.327,23.944,73.105-2.818c-31.072,4.352-55.748-10.54-66.466-26.307
	c24.461,8.085,57.449,2.486,59.817-22.549c-17.898,9.111-48.479,6.389-59.817-6.573c-0.527,0.006-1.071-0.761,0-0.937
	c20.684-1.774,32.392-12.42,35.134-31.945c-10.584,5.194-34.33,9.636-43.67,0c12.461-5.51,23.891-12.055,27.526-26.305
	c-18.636,11.279-59.514-7.284-70.266,7.516c-2.675,3.688-5.474,23.498-4.742,28.182c1.088,6.982,11.571,10.456,11.391,16.908
	c-0.162,6.076-7.605,6.241-10.445,11.279c4.458,15.078-18.298,22.446-20.887,8.453c3.591-0.209,8.559,0.957,8.551-2.817
	c-5.981-1.911-7.568-8.171-9.496-14.097c2.965-0.187,6.969,0.642,8.545-0.938c-0.391-3.392-7.485-8.244-7.6-15.025
	c3.788,0.296,7.014,0.05,8.551-1.88c-2.327-6.16-10.621-6.411-10.45-15.037c2.268,1.967,6.084-0.229,8.545-0.938
	c-2.221-4.684-9.828-4.048-10.437-10.333c1.309-5.593,4.873-8.952,5.69-15.037c-14.336,5.228-37.231-6.093-44.627,7.518
	c-9.025-0.477-14.953,2.118-15.193,10.336c6.918,0.354,16.225-1.637,17.096,4.698c-0.608,6.288-10.135,3.75-12.348,8.456
	c5.457,2.575,10.37,3.426,11.394,8.453c2.02,9.887-7.753,10.581-14.242,15.034c0.304,5.964,8.534,4.084,9.502,9.393
	c-2.589,3.351-12.236,0.544-12.351,3.761c-2.865,5.37,4.949,8.238,8.548,10.333c-16.381,11.379-18.565-13.647-26.592-19.732
	c-1.56-10.57,9.577-14.78,10.451-23.481c0.706-7.039-3.44-14.961-1.903-23.49c-7.716-12.688-25.389-4.709-40.828-5.641
	c-11.5-0.689-19.913-7.878-30.383-6.576c3.172,15.969,15.464,22.909,31.334,26.307c-13.583,9.669-37.89,6.773-50.324-1.883
	c0.067,23.119,16.476,30.051,37.982,31.948c-15.064,11.179-43.997,17.905-63.62,6.579c3.32,24.34,33.287,33.929,60.772,25.358
	c-15.182,14.395-34.939,28.313-65.515,24.436c0.112,15.257,15.344,18.945,27.535,18.789c16.654-0.215,32.768-10.171,43.673-14.091
	c-16.359,25.149-38.861,44.214-71.208,53.549c22.346,21.336,52.704,5.153,68.363-10.338c10.001-9.884,16.855-21.573,23.738-28.179
	c-2.455,28.567-18.954,43.26-32.286,61.062c32.648-6.212,48.394-29.153,62.669-53.546c-0.988,19.695-15.07,26.43-15.196,46.974
	c-13.971,10.5-26.743,24.204-46.524,23.484c-13.614-0.494-22.611-14.95-33.229-6.578c-0.293,8.676-13.276,19.419-1.903,25.373
	c-0.257-3.696,0.366-6.528,2.848-7.51c7.6,1.08,11.742-6.173,15.196,0.938c-4.704,0.658-8.411,2.315-9.496,6.573
	c4.112,6.453-3.691,20.1,7.596,19.726c-2.265-1.699-0.536-7.351,0-9.396c10.099,2.795,7.056-7.418,14.245-7.513
	c-0.321,3.443-3.761,3.789-2.848,8.453c1.431,2.968,6.559,2.282,6.642,6.579c0.207,5.528-2.327,8.341-3.794,12.216
	c4.229,0.114,5.883-2.321,9.494-2.817c0.047-11.045,12.041-17.04,6.648-29.122c12.138-8.657,23.699-17.885,37.979-24.436
	c1.601,6.559,3.161,13.159,9.49,15.034c0.904-9.44,2.109-18.585,9.5-21.609c-0.608,9.052,2.463,14.473,7.593,17.846
	c1.261-11.591,2.101-23.59,12.345-26.296c3.509,15.695-0.748,46.337-14.244,45.087c-4.433-0.404-7.619-9.814-12.342-10.325
	c-4.045-0.449-9.982,6.913-15.196,6.573c-7.39-0.5-7.485-6.93-9.491-11.276c-6.034,3.886-3.841,16.083,0,20.669
	c-22.5,10.598-29.027,62.016,8.545,57.31c-16.719-7.072-13.291-34.799,3.8-35.7c-2.997,11.589,0.29,23.791,13.293,22.547
	c-11.413-26.028,17.402-31.538,27.535-45.099c3.537,22.848-6.21,40.033-20.893,47.917c5.741,1.791,12.973,0.649,18.993,0
	c0.089,9.63,4.907,14.563,9.497,19.731c7.83-3.526,11.017-11.646,14.241-19.731c5.105,0.901,10.844,1.169,17.087,0.945
	c-5.725-10.21-24.711-24.753-17.087-45.099c11.781,9.619,36.573,18.926,23.738,41.336c13.206,0.854,18.75-5.864,18.044-18.789
	c11.783,5.169,13.809,27.361,1.892,33.822c34.288,4.587,28.985-43.784,11.393-56.369c3.262-6.539,4.606-18.641-3.794-20.669
	c-0.798,6.726-3.133,11.935-11.401,11.273c-2.72-3.563-5.403-7.172-10.437-8.456c-6.832,1.841-8.707,7.187-15.195,6.576
	c-13.779-1.297-16.158-32.978-7.589-43.216c3.493,7.493,7.887,14.116,8.543,24.427c5.666-2.226,5.853-9.867,7.591-15.971
	c6.022,4.377,8.389,12.375,8.545,22.546c5.214-2.669,7.771-7.964,10.453-13.153c12.54,8.882,24.535,18.314,35.123,29.127
	c-0.985,2.466-1.136,5.764-0.943,9.388c8.985,4.485,1.537,20.842,16.136,20.675c-1.029-3.677-2.533-6.894-1.892-12.214
	c1.354-2.726,5.523-2.664,6.637-5.641c1.507-4.661-3.66-7.594-1.899-9.393c6.073-0.368,3.816,7.501,6.65,10.336
	c4.196,2.103,5.699-2.497,9.494,0c-0.19,2.942,0.639,6.898-0.946,8.455c10.992-4.768,4.023-14.127,6.648-23.487
	c-1.465-2.94-4.746-4.081-7.6-5.638c4.396-1.939,8.515,2.48,14.244,0c1.777,1.997,1.554,5.981,3.797,7.518
	c2-2.413,2.888-5.911,3.8-9.393c-6.712-4.084-6.949-16.774-16.149-17.852c-8.724-1.029-13.497,7.706-21.833,8.453
	c-13.176,1.174-40.303-16.32-46.527-23.49c-4.302-4.957-1.713-10.601-2.848-17.849c-1.827-11.655-13.996-20.507-9.494-33.82
	c10.456,26.296,28.358,50.226,56.964,55.429c-11.416-16.884-26.433-35.218-27.526-59.19c14.674,18.85,36.298,51.961,67.414,52.614
	c11.268,0.237,22.812-4.095,27.532-13.156C433.928,327.51,411.599,303.256,397.58,278.924 M297.92,167.268
	c1.964,0,3.557,1.476,3.557,3.292c0,1.819-1.593,3.292-3.557,3.292c-1.964,0-3.557-1.473-3.557-3.292
	C294.363,168.744,295.956,167.268,297.92,167.268 M229.513,193.433c1.001-2.79,2.056-4.017,1.453-4.056
	c-3.545-0.243-7.206-6.104-3.353-9.097c2.497-1.936,5.683-0.176,8.545,0.935c4.04-10.866,16.133-2.971,7.596,5.641
	c-0.201,0.201,5.524,1.618,5.703,5.641c0.139,3.233-3.281,4.556-3.8,4.692c-5.208,1.367-5.769-2.433-8.545-3.755
	c-14.761,25.167,2.667,59.932,32.28,59.185v9.401C235.064,261.522,217.305,227.596,229.513,193.433 M263.695,311.807
	c8.042-18.033,7.741-44.326,12.344-65.768c19.419-0.106,37.96,0.653,56.018,1.88c1.501,23.576,5.164,45.004,8.545,66.706
	C326.483,338.803,275.272,336.711,263.695,311.807 M340.212,262.626v-9.396c29.619,0.742,47.044-34.024,32.283-59.193
	c-2.778,1.325-3.337,5.122-8.542,3.761c-0.522-0.14-3.942-1.465-3.803-4.695c0.176-4.02,5.903-5.44,5.705-5.644
	c-8.542-8.609,3.554-16.504,7.594-5.635c2.859-1.113,6.051-2.874,8.551-0.935c3.847,2.994,0.189,8.857-3.359,9.097
	c-0.6,0.037,0.458,1.264,1.456,4.051C392.305,228.204,374.54,262.13,340.212,262.626"/>
<path fill="#FADD00" d="M282.688,254.498c-0.416,21.199-5.033,38.242-8.547,56.372c9.926,16.797,45.654,16.214,57.917,1.883
	c-4.059-17.91-5.725-38.175-8.545-57.315C308.908,256.11,297.242,253.878,282.688,254.498"/>
<path fill="#FADD00" d="M285.533,180.279c-7.708-1.537-20.351-0.198-21.838,7.516C271.702,189.627,278.143,182.148,285.533,180.279"
	/>
</svg>
