<?xml version="1.0" encoding="UTF-8" standalone="no"?>
<!DOCTYPE svg PUBLIC "-//W3C//DTD SVG 1.1//EN" "http://www.w3.org/Graphics/SVG/1.1/DTD/svg11.dtd">
<svg width="458px" height="304px" viewBox="0 0 458 304" version="1.1" xmlns="http://www.w3.org/2000/svg" xmlns:xlink="http://www.w3.org/1999/xlink">
    <g id="Berlin" stroke="none" stroke-width="1" fill="none" fill-rule="evenodd">
        <g id="156-TuSLi">
            <path d="M431.375953,251.52991 C388.694159,264.86062 338.924023,272.629913 285.537637,272.629913 C127.807334,272.629913 -0.0569040008,205.95265 -0.0569040008,123.702659 C-0.0569040008,72.1514279 50.1940707,26.7325512 126.526994,0 C68.0135586,27.2712424 30.9681057,66.8071938 30.9681057,110.950472 C30.9681057,193.200464 158.833292,259.876778 316.562647,259.876778 C356.554779,259.876778 394.335242,255.296006 428.882609,247.55232 C429.551231,248.917068 430.312796,250.260951 431.375953,251.52991" id="Fill-1" fill="#74B943"></path>
            <path d="M374.524114,297 C416.780077,297 451.035337,262.745688 451.035337,220.489726 C451.035337,178.233763 416.780077,143.979451 374.524114,143.979451 C332.268151,143.979451 298.012891,178.233763 298.012891,220.489726 C298.012891,262.745688 332.268151,297 374.524114,297" id="Fill-4" fill="#FFFFFE"></path>
            <path d="M374.524114,297 C416.780077,297 451.035337,262.745688 451.035337,220.489726 C451.035337,178.233763 416.780077,143.979451 374.524114,143.979451 C332.268151,143.979451 298.012891,178.233763 298.012891,220.489726 C298.012891,262.745688 332.268151,297 374.524114,297 Z" id="Stroke-5" stroke="#1A1919" stroke-width="12.51"></path>
            <path d="M372.847343,170.86185 C372.336155,171.136886 370.126383,172.368857 368.594717,173.876813 C364.511855,177.988127 364.171379,184.293091 363.660192,189.635428 L363.830904,248.869648 L379.55917,248.869648 C390.446802,248.869648 397.763708,249.908146 406.437774,244.563912 C408.308968,243.330043 410.180161,241.960554 411.882539,240.590116 L412.104465,266.788718 L334.477923,266.653096 C342.30412,260.349081 342.984123,258.156381 343.324599,249.250904 L343.358741,189.676209 C343.13397,183.270716 340.781938,177.213285 338.226,173.774386 C336.899189,171.988549 334.477923,170.859953 334.477923,170.859953 C334.477923,170.859953 353.020092,170.86185 355.402473,170.86185 L372.847343,170.86185" id="Fill-7" fill="#1A1919"></path>
            <path d="M137.480066,40.7470582 C138.110752,40.1903474 138.426569,39.454389 138.426569,38.539183 C138.426569,37.6249254 138.114546,36.8842249 137.492395,36.3189785 C136.868348,35.7527837 135.918051,35.4701605 134.63866,35.4701605 L111.139204,35.4701605 C109.928097,35.4701605 109.00151,35.7451965 108.36134,36.2943201 C107.723067,36.8424953 107.403456,37.5917314 107.403456,38.539183 C107.403456,39.454389 107.710738,40.1903474 108.324353,40.7470582 C108.938916,41.3047174 109.877832,41.5825986 111.139204,41.5825986 L119.211985,41.5825986 L119.211985,68.1112438 C119.211985,69.622045 119.556254,70.7515894 120.243844,71.4989287 C120.930486,72.2462679 121.821982,72.6199375 122.914539,72.6199375 C123.990973,72.6199375 124.868243,72.2500615 125.547297,71.5112579 C126.226351,70.7724542 126.566827,69.6391162 126.566827,68.1112438 L126.566827,41.5825986 L134.63866,41.5825986 C135.90098,41.5825986 136.848432,41.3047174 137.480066,40.7470582 M157.792898,71.6013559 C158.397977,72.2737715 159.165232,72.6114019 160.092768,72.6114019 C161.021251,72.6114019 161.779023,72.2861007 162.367979,71.6392919 C162.955039,70.9924831 163.249991,70.0222698 163.249991,68.7267554 L163.249991,49.0370227 C163.249991,47.6770171 162.943658,46.6593839 162.330992,45.9869683 C161.717377,45.3155011 160.905546,44.9788191 159.893604,44.9788191 C158.881661,44.9788191 158.062243,45.3192947 157.432506,45.9992975 C156.802768,46.6802487 156.487899,47.6921915 156.487899,49.0360743 L156.487899,57.2985352 C156.487899,60.5505989 156.295374,62.6579437 155.914117,63.6205697 C155.447504,64.7159718 154.705855,65.6036742 153.690119,66.283677 C152.674383,66.9636798 151.59131,67.3041554 150.442797,67.3041554 C149.261091,67.3041554 148.32502,67.0025642 147.633637,66.3955882 C146.941305,65.790509 146.463311,64.9521234 146.196811,63.8823281 C145.931259,62.8125329 145.798483,61.4885665 145.798483,59.9123257 L145.798483,49.0360743 C145.798483,47.6921915 145.481717,46.6802487 144.851979,45.9992975 C144.222242,45.3192947 143.392392,44.9788191 142.364326,44.9788191 C141.353332,44.9788191 140.539604,45.3155011 139.926938,45.9869683 C139.313323,46.6593839 139.006042,47.6751203 139.006042,49.0360743 L139.006042,62.5014577 C139.006042,65.2062946 139.42808,67.2804454 140.275001,68.7239102 C140.990094,69.9198426 141.999192,70.8587586 143.305139,71.5397099 C144.609189,72.2197127 146.085848,72.5601883 147.73227,72.5601883 C149.096069,72.5601883 150.309073,72.3904247 151.374126,72.0499491 C152.437283,71.7094735 153.418877,71.1916471 154.316063,70.4926762 C155.215146,69.7956022 156.071552,68.9316098 156.885279,67.9025958 L156.885279,68.7741754 C156.885279,69.9862306 157.18687,70.9289403 157.792898,71.6013559 M198.418561,56.361516 C197.764165,55.0916084 196.850855,54.0417296 195.68053,53.2109312 C194.509256,52.3801328 193.090449,51.6745232 191.421265,51.093154 C189.753978,50.5117847 187.889424,49.9806807 185.831396,49.4988935 C184.187818,49.0834943 183.008009,48.7676771 182.293864,48.5514419 C181.579718,48.3361551 180.874109,48.0374091 180.176086,47.6552039 C179.479012,47.2729987 178.931785,46.8168183 178.532509,46.2847659 C178.134181,45.7536619 177.935017,45.1229759 177.935017,44.3917595 C177.935017,43.2128982 178.52018,42.2038006 179.690505,41.3644666 C180.861779,40.526081 182.401981,40.1068882 184.31111,40.1068882 C186.370087,40.1068882 187.864765,40.4919386 188.795146,41.261091 C189.724578,42.0311918 190.52313,43.1028838 191.18701,44.4780639 C191.701043,45.4454319 192.178088,46.1425059 192.618146,46.5673891 C193.059152,46.9932207 193.702167,47.2066107 194.54814,47.2066107 C195.476624,47.2066107 196.254312,46.8538059 196.875514,46.1481963 C197.498613,45.4416383 197.810636,44.6487759 197.810636,43.7686606 C197.810636,42.8050862 197.560259,41.8178018 197.063297,40.8039622 C196.56349,39.791071 195.77537,38.8246514 194.697039,37.9018582 C193.616811,36.9800133 192.258702,36.2412097 190.624609,35.6844989 C188.987671,35.1287365 187.05009,34.8499069 184.807124,34.8499069 C182.000808,34.8499069 179.560575,35.2700481 177.484527,36.1084337 C175.409428,36.9468193 173.822755,38.1465454 172.728301,39.7076118 C171.631002,41.2696266 171.082827,43.0554638 171.082827,45.0641751 C171.082827,47.1734167 171.601602,48.9383891 172.641048,50.3581439 C173.678598,51.7778988 175.08223,52.8989076 176.850996,53.7211704 C178.618813,54.5434332 180.815308,55.2623204 183.439531,55.8759352 C185.399874,56.3245284 186.964734,56.7475148 188.136008,57.1467912 C189.306333,57.5451193 190.260424,58.1217465 191.001124,58.8776213 C191.738979,59.6334961 192.108855,60.6179353 192.108855,61.8299905 C192.108855,63.3578629 191.423162,64.6325126 190.054621,65.6539394 C188.684183,66.6753662 186.902139,67.1856054 184.709438,67.1856054 C183.116126,67.1856054 181.828199,66.933331 180.848502,66.4268854 C179.868805,65.9194914 179.109136,65.2764762 178.569497,64.495943 C178.028909,63.7144613 177.527205,62.7432997 177.062489,61.5805613 C176.681232,60.6008641 176.219361,59.8620605 175.678773,59.3641505 C175.140082,58.8652921 174.479996,58.6158629 173.698514,58.6158629 C172.73494,58.6158629 171.942077,58.9373705 171.319927,59.5756437 C170.69588,60.2148653 170.384805,60.9830693 170.384805,61.8802557 C170.384805,63.4251993 170.904528,65.0156662 171.942077,66.6516562 C172.981524,68.2876462 174.330149,69.5954898 175.991745,70.575187 C178.333345,71.9399347 181.304682,72.6199375 184.907654,72.6199375 C187.912185,72.6199375 190.51175,72.1210791 192.703502,71.1243107 C194.895254,70.1284906 196.558748,68.7485686 197.697777,66.9883382 C198.834908,65.2271594 199.403948,63.2421581 199.403948,61.0333345 C199.403948,59.1896449 199.075802,57.6333205 198.418561,56.361516" id="Fill-8" fill="#1A1919"></path>
            <path d="M117.142576,86.9872493 C116.454038,86.2484457 115.550213,85.8785697 114.436791,85.8785697 C113.337595,85.8785697 112.450841,86.2522393 111.778426,87.0005269 C111.104113,87.7488145 110.767431,88.8688749 110.767431,90.3635533 L110.767431,118.494046 C110.767431,120.088307 111.121184,121.242509 111.827742,121.956655 C112.5343,122.6708 113.695142,123.028347 115.310267,123.028347 L133.178124,123.028347 C134.392076,123.028347 135.312972,122.750465 135.944606,122.192806 C136.575292,121.637044 136.89111,120.909621 136.89111,120.011486 C136.89111,119.130423 136.572447,118.399206 135.933226,117.818785 C135.292107,117.236468 134.375004,116.945309 133.178124,116.945309 L118.180126,116.945309 L118.180126,90.3635533 C118.180126,88.8527521 117.83396,87.7270013 117.142576,86.9872493 M148.239664,97.0289086 C147.592855,96.3489058 146.770593,96.0074818 145.776669,96.0074818 C144.779901,96.0074818 143.971864,96.3489058 143.349714,97.0289086 C142.728512,97.7098598 142.417437,98.7227511 142.417437,100.066634 L142.417437,119.514525 C142.417437,120.843233 142.728512,121.86466 143.349714,122.577857 C143.971864,123.291053 144.779901,123.6486 145.776669,123.6486 C146.770593,123.6486 147.592855,123.299589 148.239664,122.602515 C148.886473,121.905441 149.209877,120.876427 149.209877,119.514525 L149.209877,99.8674699 C149.209877,98.6563631 148.886473,97.7098598 148.239664,97.0289086 M148.214057,91.9350522 C148.876989,91.3470442 149.209877,90.5295233 149.209877,89.4853349 C149.209877,88.4060557 148.868453,87.5847413 148.189399,87.0204433 C147.509396,86.4561453 146.728863,86.1744705 145.850645,86.1744705 C144.937335,86.1744705 144.136886,86.4855457 143.449296,87.1076961 C142.760757,87.7298465 142.417437,88.5217605 142.417437,89.4853349 C142.417437,90.5465945 142.75317,91.367909 143.423689,91.9483298 C144.096105,92.529699 144.90509,92.818961 145.850645,92.818961 C146.763005,92.818961 147.551126,92.5240086 148.214057,91.9350522 M180.92058,113.208613 C180.372405,112.576978 179.683867,112.26211 178.853068,112.26211 C178.155046,112.26211 177.564193,112.477396 177.082405,112.909867 C176.602515,113.341389 176.152973,113.938881 175.737574,114.703291 C174.990235,115.998806 174.130036,116.961432 173.159823,117.593066 C172.186765,118.223752 171.021181,118.539569 169.65833,118.539569 C168.645439,118.539569 167.71411,118.344199 166.867189,117.954407 C166.020268,117.563666 165.298535,116.990832 164.700095,116.235906 C164.101654,115.480031 163.644526,114.566722 163.328708,113.49503 C163.01384,112.423338 162.855457,111.249218 162.855457,109.969827 C162.855457,107.246022 163.47002,105.099793 164.700095,103.530191 C165.929221,101.960589 167.549088,101.175313 169.558748,101.175313 C170.953845,101.175313 172.103305,101.491131 173.009027,102.122765 C173.915698,102.753451 174.783484,103.699954 175.613334,104.962275 C176.078998,105.610032 176.497243,106.07949 176.871861,106.3697 C177.24553,106.660859 177.71404,106.805964 178.279286,106.805964 C179.14233,106.805964 179.878289,106.52429 180.485265,105.959043 C181.091292,105.394745 181.39478,104.706207 181.39478,103.89248 C181.39478,103.095824 181.124486,102.236573 180.584847,101.314728 C180.04331,100.393832 179.262777,99.5269943 178.242299,98.7132671 C177.219923,97.8995399 175.973726,97.2356598 174.504654,96.7206786 C173.033686,96.2066458 171.419509,95.948681 169.65833,95.948681 C166.816924,95.948681 164.375742,96.5347922 162.334785,97.7051178 C160.29288,98.8744951 158.731814,100.530401 157.653483,102.671889 C156.573255,104.814324 156.034564,107.279216 156.034564,110.06846 C156.034564,114.185465 157.212477,117.467877 159.570199,119.916646 C161.926973,122.365415 165.205592,123.589799 169.409849,123.589799 C171.386315,123.589799 173.163617,123.323299 174.741754,122.793143 C176.319892,122.262039 177.627735,121.561172 178.665285,120.689592 C179.703783,119.818961 180.475781,118.901858 180.983175,117.939232 C181.48962,116.976606 181.741895,116.072781 181.741895,115.22586 C181.741895,114.511714 181.467807,113.840247 180.92058,113.208613 M194.418209,86.9265517 C193.81313,86.2285293 192.970002,85.8785697 191.893568,85.8785697 C190.830412,85.8785697 190.005304,86.2237873 189.417296,86.9132741 C188.82834,87.6027609 188.534336,88.6365169 188.534336,90.0145421 L188.534336,119.512628 C188.534336,122.270575 189.654396,123.6486 191.893568,123.6486 C192.970002,123.6486 193.81313,123.295795 194.418209,122.590186 C195.023288,121.884576 195.326776,120.859356 195.326776,119.516421 L195.326776,110.526538 C195.326776,107.937406 195.509818,106.136394 195.874952,105.123503 C196.358636,103.928519 197.086059,102.986758 198.060065,102.298219 C199.035021,101.608732 200.129474,101.264463 201.345323,101.264463 C203.159612,101.264463 204.391584,101.849626 205.042186,103.019952 C205.690892,104.190277 206.016193,105.863255 206.016193,108.036988 L206.016193,119.516421 C206.016193,122.270575 207.135305,123.6486 209.372581,123.6486 C210.400646,123.6486 211.223858,123.299589 211.846956,122.602515 C212.468158,121.905441 212.779234,120.876427 212.779234,119.516421 L212.779234,106.492992 C212.779234,105.181355 212.695774,104.023359 212.529804,103.019003 C212.364783,102.014648 212.041378,101.10608 211.56054,100.292353 C210.795181,98.8982051 209.743405,97.8350486 208.406161,97.1038322 C207.067969,96.3735642 205.533457,96.0074818 203.804524,96.0074818 C202.657909,96.0074818 201.58432,96.1535354 200.5885,96.4437458 C199.590783,96.7349046 198.679371,97.1702202 197.857108,97.7515894 C197.032948,98.3339071 196.189821,99.1220275 195.326776,100.117847 L195.326776,90.0183357 C195.326776,88.6564333 195.023288,87.6245741 194.418209,86.9265517 M218.314096,97.2830798 C217.775405,97.7392602 217.504162,98.3234747 217.504162,99.0366715 C217.504162,99.7508167 217.762127,100.339773 218.277108,100.803541 C218.79209,101.268257 219.53848,101.500615 220.520074,101.500615 L221.416312,101.500615 L221.416312,114.555341 C221.416312,116.664583 221.587024,118.350838 221.926552,119.613158 C222.267027,120.875479 222.984018,121.863711 224.078471,122.577857 C225.171977,123.291053 226.78236,123.6486 228.905827,123.6486 C231.148793,123.6486 232.868243,123.357441 234.064175,122.777021 C235.259159,122.195651 235.857599,121.356317 235.857599,120.259967 C235.857599,119.613158 235.639467,119.068777 235.198461,118.628719 C234.757455,118.188661 234.262391,117.968633 233.714215,117.968633 C233.332959,117.968633 232.800906,118.038814 232.121852,118.180126 C231.439952,118.321437 230.900313,118.392567 230.501036,118.392567 C229.770768,118.392567 229.242509,118.214268 228.919105,117.85767 C228.594752,117.499175 228.39464,117.034459 228.320665,116.461625 C228.246689,115.888791 228.208753,115.070322 228.208753,114.007166 L228.208753,101.500615 L229.479609,101.500615 C230.824441,101.500615 231.858197,101.318522 232.580877,100.953388 C233.305455,100.589202 233.665847,99.9499807 233.665847,99.0366715 C233.665847,98.3234747 233.412624,97.7392602 232.907127,97.2830798 C232.399733,96.8268994 231.663775,96.598335 230.701149,96.598335 L228.208753,96.598335 L228.208753,91.9540202 C228.208753,90.8055077 228.146159,89.9197021 228.02097,89.2947065 C227.89673,88.6706593 227.601777,88.1433489 227.138958,87.7089817 C226.440936,87.0602761 225.662299,86.7349749 224.799255,86.7349749 C224.185641,86.7349749 223.629878,86.8810285 223.131968,87.1721873 C222.635955,87.4642945 222.25375,87.8427061 221.989146,88.3083705 C221.723594,88.7579121 221.561418,89.2947065 221.503565,89.9197021 C221.445713,90.5437493 221.416312,91.4048966 221.416312,92.5031438 L221.416312,96.598335 L220.668973,96.598335 C219.639011,96.598335 218.853736,96.8268994 218.314096,97.2830798 M262.766553,110.722856 C263.74625,110.216411 264.235625,109.10868 264.235625,107.399663 C264.235625,105.556922 263.763322,103.749271 262.816818,101.972918 C261.868418,100.197513 260.443921,98.7493063 258.543328,97.6292458 C256.640837,96.5091854 254.360884,95.948681 251.702519,95.948681 C249.661562,95.948681 247.799852,96.2768274 246.123081,96.9331202 C244.447258,97.589413 243.036988,98.5311743 241.892269,99.7603007 C240.74755,100.989427 239.876919,102.463241 239.280375,104.181742 C238.683832,105.900242 238.384137,107.764797 238.384137,109.773508 C238.384137,114.042256 239.595244,117.421406 242.016509,119.912853 C244.437774,122.403351 247.833046,123.6486 252.202325,123.6486 C254.112403,123.6486 255.801503,123.399171 257.272472,122.901261 C258.741543,122.403351 259.964031,121.776459 260.934244,121.020584 C261.907303,120.265657 262.632829,119.477537 263.114616,118.654326 C263.596403,117.833011 263.837297,117.114124 263.837297,116.499561 C263.837297,115.803435 263.62201,115.262847 263.190488,114.881591 C262.757069,114.499385 262.194668,114.307808 261.495697,114.307808 C260.84794,114.307808 260.349081,114.457656 260.001019,114.758299 C259.154097,115.558748 258.463662,116.192279 257.93161,116.658892 C257.400506,117.126453 256.821033,117.563666 256.189399,117.971478 C255.556816,118.380238 254.905265,118.680881 254.23285,118.872458 C253.560434,119.064035 252.81594,119.160771 252.002213,119.160771 C250.789209,119.160771 249.681478,118.860129 248.676174,118.259791 C247.671818,117.660403 246.865678,116.76701 246.258702,115.583407 C245.652675,114.399803 245.3416,113.033159 245.324528,111.481576 L258.630581,111.481576 C260.406934,111.481576 261.786856,111.229302 262.766553,110.722856 M247.304788,102.427202 C248.394499,101.259721 249.785802,100.67361 251.480593,100.67361 C253.256946,100.67361 254.689979,101.250237 255.777793,102.402543 C256.86466,103.554849 257.493449,105.292318 257.657522,107.613053 L245.324528,107.613053 C245.558783,105.325512 246.217921,103.596579 247.304788,102.427202 M278.042432,108.642067 C278.176157,107.222312 278.41705,105.997928 278.765113,104.968914 C279.115073,103.938951 279.604447,103.16316 280.236081,102.639643 C280.867716,102.116126 281.680495,101.855316 282.677263,101.855316 C283.409428,101.855316 284.251607,102.008957 285.207594,102.316239 C286.161685,102.62352 286.763919,102.777161 287.013348,102.777161 C287.677228,102.777161 288.295585,102.507816 288.869367,101.968176 C289.4422,101.429485 289.729565,100.74474 289.729565,99.9148899 C289.729565,98.7369771 289.05715,97.7914222 287.710422,97.0782254 C286.365591,96.3650286 284.978081,96.0074818 283.549791,96.0074818 C282.121501,96.0074818 280.978679,96.3650286 280.123222,97.0782254 C279.268713,97.7914222 278.434121,98.8441463 277.620394,100.237346 C277.570129,98.8441463 277.296041,97.7914222 276.798131,97.0782254 C276.302118,96.3650286 275.488391,96.0074818 274.360743,96.0074818 C272.153816,96.0074818 271.051776,97.5353542 271.051776,100.590151 L271.051776,119.514525 C271.051776,120.876427 271.366644,121.905441 271.998279,122.602515 C272.628016,123.299589 273.43226,123.6486 274.41006,123.6486 C275.404932,123.6486 276.227194,123.304331 276.874003,122.614844 C277.520812,121.926306 277.844217,120.89255 277.844217,119.513576 L277.844217,113.835505 C277.844217,111.792652 277.909656,110.061822 278.042432,108.642067 M292.827988,99.0366715 C292.827988,99.7669395 293.102076,100.360638 293.6512,100.81587 C294.199375,101.272999 294.97896,101.500615 295.991851,101.500615 L297.861147,101.500615 L297.861147,119.512628 C297.861147,120.858407 298.17981,121.883628 298.819031,122.590186 C299.458253,123.295795 300.257754,123.6486 301.219432,123.6486 C302.232323,123.6486 303.056482,123.295795 303.695704,122.590186 C304.334926,121.883628 304.653588,120.858407 304.653588,119.512628 L304.653588,101.500615 L306.322772,101.500615 C307.535776,101.500615 308.486073,101.351716 309.175559,101.05297 C309.865995,100.754224 310.210264,100.049563 310.210264,98.9370895 C310.210264,97.3779198 308.913801,96.598335 306.322772,96.598335 L304.653588,96.598335 L304.653588,94.976571 C304.653588,93.6269978 304.828094,92.591345 305.176157,91.8667674 C305.526116,91.1440866 306.315185,90.7808493 307.543363,90.7808493 C307.991956,90.7808493 308.540131,90.8311145 309.187889,90.9306965 C309.836594,91.0302785 310.293723,91.0795953 310.559275,91.0795953 C311.123573,91.0795953 311.612947,90.8557729 312.029295,90.4081281 C312.444694,89.9604833 312.652394,89.4208437 312.652394,88.7901577 C312.652394,86.8497313 310.666444,85.8785697 306.696442,85.8785697 C304.455373,85.8785697 302.692297,86.1668833 301.406266,86.7387685 C300.121184,87.3134989 299.207875,88.2268081 298.670132,89.4815413 C298.131441,90.7362745 297.861147,92.4272718 297.861147,94.554533 L297.861147,96.598335 L296.242228,96.598335 C293.967017,96.598335 292.827988,97.4111138 292.827988,99.0366715 M337.621869,110.722856 C338.601567,110.216411 339.092838,109.10868 339.092838,107.399663 C339.092838,105.556922 338.618638,103.749271 337.672135,101.972918 C336.724683,100.197513 335.301135,98.7493063 333.398644,97.6292458 C331.496154,96.5091854 329.217148,95.948681 326.559732,95.948681 C324.51593,95.948681 322.656117,96.2768274 320.980294,96.9331202 C319.303523,97.589413 317.892304,98.5311743 316.747585,99.7603007 C315.602866,100.989427 314.732235,102.463241 314.135691,104.181742 C313.539148,105.900242 313.24135,107.764797 313.24135,109.773508 C313.24135,114.042256 314.45056,117.421406 316.871825,119.912853 C319.293091,122.403351 322.688363,123.6486 327.057642,123.6486 C328.967719,123.6486 330.658716,123.399171 332.127788,122.901261 C333.598757,122.403351 334.819347,121.776459 335.791457,121.020584 C336.762619,120.265657 337.490042,119.477537 337.971829,118.654326 C338.453616,117.833011 338.692613,117.114124 338.692613,116.499561 C338.692613,115.803435 338.477326,115.262847 338.045804,114.881591 C337.614282,114.499385 337.049036,114.307808 336.351013,114.307808 C335.704205,114.307808 335.204398,114.457656 334.856335,114.758299 C334.009414,115.558748 333.318979,116.192279 332.788823,116.658892 C332.257719,117.126453 331.675401,117.563666 331.043767,117.971478 C330.412132,118.380238 329.760582,118.680881 329.088166,118.872458 C328.41575,119.064035 327.671256,119.160771 326.857529,119.160771 C325.646422,119.160771 324.536794,118.860129 323.532439,118.259791 C322.527135,117.660403 321.720995,116.76701 321.114967,115.583407 C320.507991,114.399803 320.196916,113.033159 320.179845,111.481576 L333.486845,111.481576 C335.263199,111.481576 336.642172,111.229302 337.621869,110.722856 M322.162001,102.427202 C323.248867,101.259721 324.64017,100.67361 326.334961,100.67361 C328.113211,100.67361 329.545295,101.250237 330.63311,102.402543 C331.721873,103.554849 332.347817,105.292318 332.514735,107.613053 L320.179845,107.613053 C320.413151,105.325512 321.073238,103.596579 322.162001,102.427202 M346.87446,122.576908 C347.49661,123.291053 348.305596,123.6486 349.300467,123.6486 C350.310513,123.6486 351.13657,123.304331 351.775791,122.614844 C352.414064,121.925357 352.732727,120.891601 352.732727,119.512628 L352.732727,90.0145421 C352.732727,88.6365169 352.417858,87.6027609 351.78812,86.9132741 C351.158383,86.2237873 350.328533,85.8785697 349.300467,85.8785697 C348.272402,85.8785697 347.453932,86.2275809 346.849802,86.9256033 C346.244722,87.6226773 345.942183,88.6526397 345.942183,90.0145421 L345.942183,119.512628 C345.942183,120.841336 346.253258,121.862763 346.87446,122.576908 M380.642242,122.640451 C381.24827,123.311918 382.018371,123.6486 382.948751,123.6486 C383.897151,123.6486 384.671046,123.324247 385.269486,122.67649 C385.867927,122.028733 386.167621,121.05852 386.167621,119.762057 L386.167621,89.7651129 C386.167621,88.4866697 385.88974,87.5193017 385.332081,86.8630089 C384.77537,86.2076645 383.98061,85.8785697 382.948751,85.8785697 C381.916892,85.8785697 381.12403,86.2361165 380.56637,86.9512101 C380.008711,87.6653553 379.73083,88.7209245 379.73083,90.1179177 L379.73083,100.162422 C378.451438,98.7616355 377.139801,97.7250342 375.79497,97.0497734 C374.450139,96.375461 372.798026,96.0378306 370.83958,96.0378306 C367.451895,96.0378306 364.719555,97.2252274 362.645404,99.6019179 C360.568408,101.976712 359.530858,105.292318 359.530858,109.543995 C359.530858,111.554603 359.792617,113.4239 360.316133,115.150936 C360.838702,116.878921 361.607854,118.382135 362.620745,119.661527 C363.632688,120.940918 364.832414,121.925357 366.218027,122.614844 C367.605536,123.303383 369.111595,123.6486 370.739998,123.6486 C371.968176,123.6486 373.101514,123.477888 374.139064,123.137413 C375.177562,122.797885 376.139239,122.299027 377.028838,121.643683 C377.915592,120.98739 378.817521,120.136675 379.73083,119.089641 L379.73083,119.762057 C379.73083,121.008255 380.034318,121.968035 380.642242,122.640451 M367.162633,105.183252 C367.702273,103.863079 368.460993,102.851136 369.441638,102.145527 C370.421335,101.439917 371.534757,101.087112 372.780955,101.087112 C373.975939,101.087112 375.076083,101.431382 376.080438,102.120868 C377.085742,102.809407 377.882398,103.805227 378.471355,105.108328 C379.062208,106.41143 379.35716,107.967754 379.35716,109.777302 C379.35716,111.702554 379.062208,113.309143 378.471355,114.595174 C377.882398,115.882153 377.09333,116.836243 376.106045,117.458393 C375.116864,118.081492 374.026204,118.392567 372.829323,118.392567 C371.65141,118.392567 370.563595,118.064421 369.566827,117.409077 C368.56911,116.752784 367.784783,115.777829 367.212898,114.483262 C366.640065,113.188696 366.353648,111.620043 366.353648,109.777302 C366.353648,108.034142 366.622045,106.502476 367.162633,105.183252 M417.233412,110.722856 C418.213109,110.216411 418.70438,109.10868 418.70438,107.399663 C418.70438,105.556922 418.23018,103.749271 417.283677,101.972918 C416.337174,100.197513 414.912677,98.7493063 413.010187,97.6292458 C411.109593,96.5091854 408.829639,95.948681 406.171274,95.948681 C404.12842,95.948681 402.268608,96.2768274 400.591837,96.9331202 C398.914117,97.589413 397.503846,98.5311743 396.359127,99.7603007 C395.214409,100.989427 394.345674,102.463241 393.747234,104.181742 C393.151639,105.900242 392.852893,107.764797 392.852893,109.773508 C392.852893,114.042256 394.063999,117.421406 396.485265,119.912853 C398.90653,122.403351 402.299905,123.6486 406.669184,123.6486 C408.579262,123.6486 410.270259,123.399171 411.73933,122.901261 C413.210299,122.403351 414.43089,121.776459 415.403,121.020584 C416.374161,120.265657 417.101584,119.477537 417.583371,118.654326 C418.065159,117.833011 418.306052,117.114124 418.306052,116.499561 C418.306052,115.803435 418.088869,115.262847 417.657347,114.881591 C417.225825,114.499385 416.661527,114.307808 415.962556,114.307808 C415.314799,114.307808 414.817837,114.457656 414.467877,114.758299 C413.621905,115.558748 412.932418,116.192279 412.400365,116.658892 C411.869261,117.126453 411.287892,117.563666 410.656258,117.971478 C410.024623,118.380238 409.372124,118.680881 408.699708,118.872458 C408.027293,119.064035 407.284696,119.160771 406.470968,119.160771 C405.257965,119.160771 404.148337,118.860129 403.143033,118.259791 C402.138677,117.660403 401.333486,116.76701 400.727458,115.583407 C400.12143,114.399803 399.808458,113.033159 399.793284,111.481576 L413.097439,111.481576 C414.875689,111.481576 416.253715,111.229302 417.233412,110.722856 M401.773543,102.427202 C402.861358,101.259721 404.252661,100.67361 405.947452,100.67361 C407.723805,100.67361 409.157786,101.250237 410.244652,102.402543 C411.333415,103.554849 411.960308,105.292318 412.126278,107.613053 L399.793284,107.613053 C400.025642,105.325512 400.68478,103.596579 401.773543,102.427202" id="Fill-9" fill="#1A1919"></path>
            <path d="M117.320875,138.015912 C116.629492,137.277108 115.727563,136.908181 114.612245,136.908181 C113.480804,136.908181 112.586462,137.28185 111.93017,138.02919 C111.272928,138.776529 110.944782,139.897538 110.944782,141.392216 L110.944782,170.167621 C110.944782,171.663248 111.27767,172.78805 111.94155,173.543925 C112.608276,174.2998 113.497875,174.677263 114.612245,174.677263 C115.710492,174.677263 116.610524,174.303593 117.307598,173.555306 C118.006569,172.807967 118.356528,171.678422 118.356528,170.164776 L118.356528,157.87446 L134.332326,157.87446 L134.332326,170.164776 C134.332326,171.661351 134.666163,172.787102 135.330992,173.542977 C135.99582,174.298851 136.887316,174.677263 138.000738,174.677263 C139.099933,174.677263 139.99712,174.303593 140.697039,173.556254 C141.394113,172.808915 141.745021,171.680319 141.745021,170.167621 L141.745021,141.392216 C141.745021,139.881415 141.398855,138.755664 140.70842,138.01686 C140.017984,137.277108 139.117004,136.908181 138.000738,136.908181 C136.903439,136.908181 136.017633,137.28185 135.343321,138.028241 C134.669957,138.77558 134.332326,139.896589 134.332326,141.390319 L134.332326,151.850223 L118.356528,151.850223 L118.356528,141.390319 C118.356528,139.879518 118.011311,138.755664 117.320875,138.015912 M175.045242,155.261618 C174.422143,153.566827 173.513576,152.105343 172.316695,150.875268 C171.121711,149.645193 169.684885,148.69869 168.008114,148.033861 C166.329446,147.369033 164.462046,147.037093 162.401173,147.037093 C160.376339,147.037093 158.524114,147.365239 156.846394,148.020584 C155.169623,148.675928 153.741333,149.610102 152.561523,150.822157 C151.382662,152.034213 150.477888,153.494749 149.846254,155.204714 C149.215568,156.914679 148.899751,158.79915 148.899751,160.857178 C148.899751,162.899083 149.210826,164.763638 149.832976,166.447996 C150.457023,168.132354 151.370333,169.593839 152.573852,170.830553 C153.77832,172.067266 155.202817,173.017563 156.846394,173.681443 C158.49092,174.345323 160.341248,174.677263 162.401173,174.677263 C164.477221,174.677263 166.346517,174.350065 168.008114,173.695669 C169.667814,173.039376 171.096105,172.098563 172.292037,170.870385 C173.487021,169.643156 174.40033,168.175981 175.031965,166.467912 C175.663599,164.758896 175.978468,162.893393 175.978468,160.869507 C175.978468,158.825705 175.667393,156.956409 175.045242,155.261618 M167.324318,167.301556 C166.103727,168.85219 164.462995,169.627981 162.401173,169.627981 C161.038322,169.627981 159.854719,169.275177 158.850364,168.570515 C157.844111,167.865854 157.072114,166.849169 156.530577,165.522358 C155.991886,164.195546 155.721592,162.644912 155.721592,160.869507 C155.721592,159.07798 155.99568,157.511223 156.543855,156.16734 C157.09203,154.823457 157.872563,153.807721 158.887351,153.119182 C159.900242,152.430644 161.072465,152.086375 162.401173,152.086375 C164.462995,152.086375 166.103727,152.858372 167.324318,154.400471 C168.545857,155.943518 169.156627,158.099231 169.156627,160.869507 C169.156627,163.60659 168.545857,165.750922 167.324318,167.301556 M206.162247,164.237276 C205.614071,163.60659 204.925533,163.290772 204.095683,163.290772 C203.396712,163.290772 202.806807,163.506059 202.325969,163.93853 C201.844181,164.370052 201.39464,164.967544 200.981137,165.731954 C200.23285,167.027468 199.373599,167.990094 198.401489,168.621729 C197.429379,169.253363 196.261899,169.568232 194.899996,169.568232 C193.887105,169.568232 192.957673,169.37381 192.110752,168.983069 C191.262882,168.592328 190.540202,168.020443 189.941761,167.264568 C189.345218,166.508694 188.888089,165.595384 188.572272,164.523692 C188.256454,163.452949 188.09902,162.277881 188.09902,160.99849 C188.09902,158.274685 188.713583,156.128456 189.941761,154.558853 C191.171836,152.989251 192.790755,152.204925 194.800414,152.204925 C196.196459,152.204925 197.346869,152.519793 198.252591,153.151428 C199.157364,153.783062 200.024202,154.728617 200.855949,155.991886 C201.320665,156.639643 201.739857,157.108153 202.113527,157.398363 C202.487197,157.69047 202.957603,157.834627 203.520953,157.834627 C204.384945,157.834627 205.119955,157.552952 205.725983,156.987706 C206.332959,156.423408 206.635498,155.73487 206.635498,154.921142 C206.635498,154.124486 206.366153,153.265236 205.825565,152.344339 C205.286873,151.423443 204.505392,150.555657 203.483965,149.74193 C202.463487,148.928203 201.217289,148.264323 199.746321,147.749341 C198.277249,147.235309 196.662124,146.977344 194.899996,146.977344 C192.059538,146.977344 189.619305,147.563455 187.576452,148.733781 C185.533598,149.903158 183.97348,151.560013 182.895149,153.700551 C181.816818,155.842987 181.27623,158.307879 181.27623,161.097123 C181.27623,165.214128 182.455092,168.497488 184.812814,170.945309 C187.16864,173.394078 190.449155,174.618462 194.650567,174.618462 C196.62893,174.618462 198.406231,174.35291 199.983421,173.821806 C201.561558,173.291651 202.869402,172.589835 203.908848,171.720152 C204.945449,170.848572 205.719344,169.930521 206.225789,168.967895 C206.731287,168.006217 206.985458,167.101444 206.985458,166.255471 C206.985458,165.541326 206.71137,164.86891 206.162247,164.237276 M232.360849,174.003899 C232.808493,174.452492 233.447715,174.677263 234.277565,174.677263 C235.243036,174.677263 236.016931,174.367136 236.607784,173.743089 C237.19674,173.120939 237.49359,172.271172 237.49359,171.190945 C237.49359,170.810636 237.379782,170.406618 237.155959,169.983631 C236.932137,169.560645 236.561312,168.942288 236.046331,168.128561 L229.070849,157.171696 L232.682356,153.859883 C234.527943,152.199234 235.449787,150.871474 235.449787,149.875654 C235.449787,149.061927 235.166216,148.385718 234.601918,147.846078 C234.036671,147.306439 233.331062,147.037093 232.484141,147.037093 C231.769047,147.037093 231.163968,147.219186 230.665109,147.58432 C230.167199,147.949454 229.444519,148.629457 228.498015,149.625277 L220.848221,157.638308 L220.848221,141.143735 C220.848221,139.749587 220.541888,138.69307 219.927324,137.978924 C219.314658,137.264779 218.486705,136.908181 217.441568,136.908181 C216.364186,136.908181 215.535284,137.302715 214.955812,138.090836 C214.375391,138.880853 214.08518,140.030314 214.08518,141.542063 L214.08518,170.541291 C214.08518,171.904141 214.382978,172.933155 214.98047,173.631178 C215.577962,174.328252 216.39738,174.677263 217.441568,174.677263 C218.335909,174.677263 219.127823,174.32351 219.816362,173.6179 C220.503952,172.911342 220.848221,171.901296 220.848221,170.587762 L220.848221,165.175243 L224.5356,161.684183 L230.541817,171.560821 C231.304331,172.74063 231.910359,173.555306 232.360849,174.003899 M265.910499,161.751519 C266.890196,161.24697 267.380519,160.137342 267.380519,158.428326 C267.380519,156.586533 266.906319,154.777934 265.959816,153.001581 C265.013313,151.226176 263.588816,149.778917 261.686325,148.657909 C259.784783,147.537848 257.503881,146.977344 254.847413,146.977344 C252.804559,146.977344 250.944747,147.30549 249.267027,147.961783 C247.590256,148.618076 246.179037,149.559837 245.036215,150.788963 C243.891496,152.01809 243.020865,153.491903 242.424321,155.210404 C241.825881,156.929854 241.529032,158.79346 241.529032,160.802171 C241.529032,165.070919 242.73919,168.450068 245.160455,170.940567 C247.580772,173.432014 250.976044,174.677263 255.344375,174.677263 C257.256349,174.677263 258.947346,174.427834 260.416418,173.930872 C261.886438,173.432014 263.107029,172.805121 264.07819,172.049247 C265.0503,171.29432 265.776775,170.5062 266.260459,169.683937 C266.741298,168.861674 266.980294,168.143735 266.980294,167.529172 C266.980294,166.83115 266.765956,166.292458 266.332537,165.911202 C265.902912,165.528048 265.335769,165.33742 264.639643,165.33742 C263.990938,165.33742 263.493028,165.487267 263.144016,165.786961 C262.296147,166.587411 261.60666,167.220942 261.075556,167.688503 C260.5454,168.155116 259.962134,168.592328 259.332397,169.000141 C258.700762,169.409849 258.048263,169.709544 257.375847,169.902069 C256.703432,170.093646 255.958938,170.188486 255.146159,170.188486 C253.935052,170.188486 252.825424,169.888791 251.819172,169.288454 C250.814816,168.688117 250.009625,167.796621 249.403597,166.612069 C248.796621,165.428466 248.484597,164.061822 248.468474,162.512136 L261.773578,162.512136 C263.551828,162.512136 264.929854,162.257965 265.910499,161.751519 M250.448734,153.456813 C251.537497,152.287435 252.9288,151.702273 254.621694,151.702273 C256.399944,151.702273 257.832028,152.2789 258.920791,153.431206 C260.008606,154.58446 260.636447,156.320981 260.801468,158.642664 L248.468474,158.642664 C248.701781,156.354175 249.360919,154.625241 250.448734,153.456813 M278.696828,178.082019 C278.339281,178.652956 277.93716,179.056974 277.490463,179.289332 C277.040922,179.52169 276.427307,179.638343 275.647722,179.638343 C275.330956,179.638343 274.959184,179.589027 274.526713,179.489445 C274.176754,179.388914 273.821104,179.339597 273.456918,179.339597 C272.524641,179.339597 271.824722,179.550142 271.350522,179.97218 C270.876322,180.394218 270.641118,180.994555 270.641118,181.772243 C270.641118,182.914117 271.139028,183.701289 272.1339,184.130914 C273.130668,184.562436 274.625347,184.776775 276.618884,184.776775 C278.659841,184.776775 280.282553,184.4657 281.486073,183.842601 C282.690541,183.219502 283.65696,182.327058 284.387228,181.165267 C285.118445,180.002529 285.865784,178.399733 286.630194,176.356879 L295.495838,153.140047 C295.710176,152.542555 295.892269,151.95265 296.042116,151.371281 C296.191963,150.789912 296.301029,150.342267 296.366469,150.02645 C296.366469,149.511469 296.238435,149.022094 295.979522,148.55643 C295.723454,148.091714 295.35832,147.721838 294.88412,147.44775 C294.411816,147.173663 293.9177,147.037093 293.402719,147.037093 C292.689522,147.037093 292.137553,147.161333 291.746812,147.410763 C291.356072,147.659243 290.987144,148.141031 290.639081,148.855176 C290.289122,149.569321 289.899329,150.556605 289.467807,151.817977 L284.014507,167.383118 L278.261513,150.647652 C277.880256,149.485862 277.441147,148.593417 276.942288,147.970319 C276.444378,147.348168 275.705574,147.037093 274.724929,147.037093 C274.160631,147.037093 273.617198,147.18694 273.095578,147.485686 C272.571112,147.784432 272.159507,148.183709 271.861709,148.682567 C271.562963,149.180477 271.413116,149.720117 271.413116,150.301486 C271.413116,150.850609 271.671081,151.731673 272.186062,152.943728 L280.552847,174.030454 L279.930697,175.551688 C279.465032,176.664161 279.054375,177.507289 278.696828,178.082019" id="Fill-10" fill="#74B943"></path>
        </g>
    </g>
</svg>