<?xml version="1.0" encoding="utf-8"?>
<!-- Generator: Adobe Illustrator 24.1.2, SVG Export Plug-In . SVG Version: 6.00 Build 0)  -->
<svg version="1.1" id="logo" xmlns="http://www.w3.org/2000/svg" xmlns:xlink="http://www.w3.org/1999/xlink" x="0px" y="0px"
	 viewBox="0 0 356.7 457" style="enable-background:new 0 0 356.7 457;" xml:space="preserve">
<style type="text/css">
	.st0{fill:#FFFFFF;}
	.st1{fill:#364093;}
	.st2{fill:#E1351F;}
	.st3{fill:#FBE443;}
</style>
<path class="st0" d="M5,8.3c0,0,0,214.4,0,307.5c0,93.1,173.1,136,173.1,136s173.5-42.9,173.5-136c0-54.9,0-307.5,0-307.5H5z"/>
<g>
	<g>
		<path class="st1" d="M299.8,277c-35.2,0-44.5-21.9-55.2-21.9c-10.6,0-25.8,12.6-39.2,18c-12.1,4.8-24.5,4.7-26.9,4.7v0
			c0,0-0.1,0-0.2,0c-0.1,0-0.2,0-0.2,0v0c-2.4,0.1-14.7,0.1-26.9-4.7c-13.5-5.3-28.6-18-39.2-18c-10.6,0-19.9,21.9-55.2,21.9
			C21.6,277,5,262.3,5,262.3v18c0,0,18.5,15,51.9,13.3c33.3-1.7,43.9-20.6,55.2-20.6c11.3,0,16.5,10.6,39.2,18
			c14.1,3.8,25.4,3.4,27.1,3.3c1.6,0.1,13,0.5,27.1-3.3c22.7-7.3,27.9-18,39.2-18c11.3,0,21.9,18.9,55.2,20.6
			c33.3,1.7,51.9-13.3,51.9-13.3v-18C351.7,262.3,335,277,299.8,277z"/>
	</g>
</g>
<g>
	<path class="st2" d="M78.7,26.4c0.4,0.4,0.5,1.2,0.5,1.8c-0.2,2.6-2.1,4.8-5.3,5c-0.3-0.3-0.5-0.7-0.2-1c0.3-0.3,1.1-0.2,1.4-0.3
		C77.5,31.5,79,29.3,78.7,26.4z M42,31.9c1.1,0.6,2.2,1.8,4.1,1.4c0.7-1.4-1-1-2.1-1.2c-0.9-0.2-2-1.2-2.5-2.1
		c-0.5-1-0.7-1.9-0.8-3.1C40,28.7,41.1,30.7,42,31.9z M65.2,17.4c0.3,0.7,1.4,0.7,2.2,1.1c0.3,0.3,1.1,1.1,1.4,1
		C68.5,18.1,66.9,16.4,65.2,17.4z M63.5,16.4c-1.7,0.4-3.8,0.4-4.4,1.8c-0.7,0-1-0.5-0.8-1.1C58.5,15.7,61.9,16,63.5,16.4z
		 M95.9,45.2c-1.9-1.6-3.5-3.7-5.1-6.2c-1-1.6-2.3-3.3-3.4-5c-0.5-0.9-1-2.2-2.1-1.3c1.5,0.6,1.7,2.6-0.5,2.5c0.3,0.6,1,1,0.8,1.9
		c2.3,2.5,4.9,5.7,7.6,8.2c1.7,1.5,3.2,3.3,6.4,3.1c-0.4-0.8-1.1-1.5-1.6-2.2c-4.2-5.1-7.6-11-11.2-16.5c-0.2,0.3-0.5,0.4-0.9,0.5
		c0.6,0.3,1.4,1,0.8,1.9c3,4.5,6.2,9.2,9.5,13.3c0-0.1-0.1-0.1-0.1-0.1C96,45.3,95.9,45.2,95.9,45.2z M66.1,16.5
		c-1.1,1.4-4.6,0.2-5.7,1.5c0.4,0.2,0.6,0.7,1.2,0.8c0.8,0.1,1.7-0.4,2.5-0.5c0-0.3-0.7-0.1-0.8-0.4c1.5-0.7,2.4,1,3.9,1.1
		c1.9,1,2,3.5,3.3,5.1c-1,0-1-0.9-1.6-1.2c1.2,2.5-1.2,5.3-0.2,7.5c-2-0.2-1-2.5-0.5-3.5c-0.5,0-0.7,0.9-1,1.3
		c0.2,2.1-1.6,3.4-1.2,5.6c-0.7,0.5-1.3,1.2-0.9,2.3c-0.3,0-0.4,0.1-0.7,0.1c0.4-1.2,1-3,0.2-4.2c0.1,1.9-0.4,3.7-1.2,5
		c2.1-0.9,4.1-0.1,4.7,1.5c0.3,0.8,0.3,2.2,0.4,3.2c0.2,3.9-0.7,7.9-1.2,11.5c-0.1,1-0.2,1.9-0.2,2.8c0.2,3,2.6,4.3,3.4,6.9
		c-0.5,0.1-0.7-0.3-1.2-0.1c-0.5,1.1-0.6,2.5-1.1,3.6c-0.3,0.2-0.4-0.3-0.8-0.2c-0.3,0.1-0.2,0.6-0.5,0.7c-1-0.5-0.9-2-1.1-3.2
		c-0.1-0.7-0.3-1.3-0.4-1.9c-1.9-1.1-2.2,1.6-2.2,3.2c-0.1,3.3,1.3,5.1,4.6,5.4c1.4,0.1,2.6-0.2,3.2,0.5c0.2,0.2,0.1,0.5,0.2,0.7
		c0.2,0.5,0.8,0.9,0.8,1.4c-0.8,0-1.6-0.3-2.5-0.3c-0.7,0-1.3,0.3-2,0.3c-2.1,0.2-4-1-4.3-2.6c1.3,0.8,3.8,1.9,5.9,1.1
		c0.5,0.1,0.6,0.5,1.2,0.5c-0.3-0.5-1.6-1.6-2.4-0.6c-3.3,0.1-4.8-1.4-5.6-3.4c-0.1,3.6,1.6,6.3,3.2,8.6c3.1,3.1,12.4,1.4,15.2,5
		c0.7,0.9,1.2,2.6,0.9,4.2c-0.4,2.2-2.1,3.5-5.1,3.7c1.9-1,4-1.9,3.8-4.6c-0.2-2.6-3-3.9-5.9-4.5c-0.1,1.7,3,2.7,3.6,4.2
		c0.2,0.6,0.2,1.3-0.5,1.5c-0.8-0.4-1.3-1-2-1.5c-2.1-1.5-4.8-2.6-7.4-3.7c-3.5-1.6-5.7-3.9-6.4-7.9c-0.2,3.2,0.6,6.6,2.3,8.5
		c1.3,1.5,4,1.4,5.9,2.6c0.3,0.2,0.7,0.5,0.6,1.1c-0.2,0.2-0.7,0.1-1.2,0.1c0.6,1.1,2.1,1.5,3,2.3c-5.9-0.8-8.9-4.2-11.3-8.1
		c0,3.3-0.2,6.6,1.1,8.8c0.4,0.7,1,1.1,1.5,1.9c0.3,0.5,0.3,1.5-0.1,1.9c-0.5,0.2-1.2,0.3-1.9,0.2c-0.2,1-0.7,1.9-1.3,2.3
		c-0.3-0.1-0.6-0.5-0.8-0.7c-0.3-0.4-0.6-0.8-0.6-1.6c-1.6,0.4-2.7-0.5-2.2-1.8c0.2-0.5,0.8-0.9,1.2-1.5c1.5-2.4,1.7-6.2,1.5-10
		c-2.2,3.9-5.4,6.9-10.9,8c0.9-0.7,2-1.1,2.7-2c-0.5-0.2-1.3-0.1-1.2-0.9c0.1-1.4,4.1-1.2,5.3-1.8c1.9-0.9,2.9-4.1,3.2-6.3
		c0.1-1,0-1.8,0.1-3c-0.5,1-0.6,2-1,2.9c-2.5,5.1-10.8,5.4-14.6,9.6c-0.7-0.4-0.4-1.6-0.2-1.9c0.7-1.2,3.4-2.2,3.7-3.8
		c-2.4,0.2-4.5,1.3-5.4,2.8C40.5,84.1,41,86,42.1,87c0.7,0.7,1.8,1,2.5,1.7c-3.5,0-5.8-1.9-5.4-5c0.2-1.5,1.3-3.2,2.6-3.9
		c1.3-0.7,3.1-1,4.7-1.2c1.9-0.3,4-0.1,5.9-0.7c3.1-0.9,4.5-3.8,5.4-6.6c0.3-1,0.6-2,0.6-3.4c-1.1,1.9-3.1,3.6-6.5,2.9
		c-0.4,0.3-0.7,0.7-0.9,1.1c0.5,0,0.5-0.4,0.8-0.5c2.5,0.9,4.6-0.7,5.8-1.6c-0.4,2.2-2.1,3.5-4.8,3.2c-0.3,0-0.5-0.2-0.8-0.2
		c-1.1,0-1.7,0.8-2.7,0.7c0-0.5,0.4-0.6,0.6-1c0.4-0.8,0.3-1.8,1.4-2.1c0.7-0.2,1.5,0,2.1-0.1c1.5-0.1,3.2-0.5,3.9-1.5
		c1.2-1.8,0.9-4.9,0.2-7.3c-0.1,0-0.2,0-0.2-0.1c-3-0.3-1.3,4.8-3.5,5.4c-0.3-0.1-0.1-0.6-0.3-0.7c-0.5,0-0.2,0.6-0.6,0.6
		c-0.7-0.6,0.3-1.8-0.8-1.9c-0.7-0.1-0.9,0.8-1.9,0.4c-0.3-1.9,1.3-3,2.3-4.4c0.7-1,1.3-2,1.5-3.4c0.4-5.3-2.6-10.2-2.2-16.3
		c0.1-1.4,0.5-2.3,0.9-3.6c0.8-0.4,1.6-0.8,2.9-0.7c0.3-0.7,0.3-1.6,0.6-2.3c0.6-0.3,1.7,0,2.2-0.3c-0.6-0.3-1.9,0-2.7-0.2
		c0.8-0.5,2-0.6,3.2-0.8c-0.3-0.4-1.4-0.1-2.1-0.2c1.1-1.5,2.1-3.1,4.2-3.6c-1.1-0.3-2.9,0-4.3-0.1c1.1-1.6,4.9-0.9,5.5-2.9
		c0.1-0.3-0.2-1,0.4-1c0.1,0.4-0.4,1.4-0.5,2.1c1.1-0.2,0.9-2.1,2-2.5c0.2,0.4,0.1,1,0.2,1.4c0.4-1,0.6-2.4,1.5-2.8
		c0.2,0.6-0.2,1-0.2,1.6c1.3-1,0.5-3.7-0.3-4.4c0.4-0.1,1-0.1,1.4-0.2c-2-0.1-3.5-1.3-5.4-1.6c-0.8-0.1-1.2-0.2-1.7-0.5
		c0.3-1.2,2.2-1.1,3.6-1.5c0.3-0.1,0.6-0.3,0.9-0.4C64.8,16.4,65.5,16.6,66.1,16.5z M24.4,17.4c3,0.6,6.4,0.7,10.1,0.6
		c2.8-0.1,5.6,0,7.7,0.8c1.1,0.9,2.2,3,1.3,4.8c-0.1-0.8,0.1-2.3-0.9-2.6c0.4,1.2,0.4,2.9-0.3,3.9c-0.8,1.1-2.7,1.4-3.9,2.1
		c0,0.3,0.4,0.1,0.3,0.4c0.5,6.9,4.7,10.5,12.8,10.8c0.1,0.4-0.1,0.6-0.2,0.8c-4.5,0-7.9-1.2-10.2-3.4c-2.3-2.3-3.7-6-2.9-9.8
		c2.7,0.7,3.1-2.6,0.6-2.4c1.1-1.9-2.3-2.7-2.9-1.1c0.1,0.4,0.2,0.8,0.3,1.1c-2.4-0.5-2,3,0.2,2.4c-0.1,9.5,4.9,14.5,14.6,15.6
		c0.6,2.8,0.7,6.4,0.4,9.8c-0.2,1.8-0.3,3.6-0.5,5c-0.2,1.2-0.8,3.3-2.5,2.6c-1.2-1.5-1.3-3.8-1.5-6c-0.2-2.2-0.6-4.4-1.3-6.2
		c0.2,7.6-1.1,16-5.5,19.8c-0.8,0.7-1.9,1.2-3.3,1.2c1.5-7.5,2.6-15.7,2.2-24.5c1.2,0.7,2.4-0.1,2.9-0.9c0.4,2.4-0.3,4.6-0.5,6.9
		c-0.5,4.6-0.6,9.5-1.7,13.7c0.6-0.4,0.6-1.2,0.8-1.9c1.1-4.7,1.1-11,2-16.1c0.6,0.3,1.3,0.3,1.9,0.1c0.6-0.2,0.9-0.7,1.2-0.8
		c0.1,1.2,0.7,2.3,2.5,1.9c0.9,2.5,0,7.1,0.3,10.3c0.6-2.9,1-7.4,0.1-10.3c0.9-0.9,2.2-2.1,1.8-3.8c-0.9,1.3-0.9,3.9-3.5,3.2
		c-0.2-0.4-0.5-0.8-0.5-1.4c-0.1-1,0.8-2.2-0.1-2.6c-0.5,0.8-0.5,2.2-1.3,2.8c-1.5,1.2-2.4-0.4-2.2-1.9c0.1-0.8,0.7-1.8,0-2.1
		c-0.8,0.8-1,2.8-2.7,2.6c-0.6-0.1-1-0.6-0.8-1.4c0.2-1,1.3-2.1,1.2-2.7c-0.6,0.1-0.9,0.8-1.5,1.2c-0.5,0.3-1.1,0.6-2,0.4
		c-0.6-0.7,0-1.3,0.5-1.9c0.4-0.5,1.1-1,1.2-1.5c-0.9-0.2-2.3,1.5-3.5,0.5c0-1.4,1.5-1.6,2.2-2.4c-0.4-0.5-2.8,1-3.2-0.1
		c-0.4-1,1.6-1.4,2.2-2c-1-0.2-2.7-0.1-2.8-0.9c-0.1-1,1.6-0.7,2.3-1.2c-0.2-0.5-1-0.2-1.5-0.3c-0.5-0.1-0.9-0.5-0.8-0.8
		c0.1-0.7,1.4-0.4,2-0.7c-0.4-0.5-1.5-0.2-1.9,0c-0.4,0.2-0.4,0.5-0.6,0.8c-0.8,1-2,2.1-3.3,3.2c-2,1.6-4.3,3.4-7.6,2.1
		c3.1-3.1,7-5.5,9.9-8.7c-3.1,1-9.8,2.4-10.3-1.5c4.3-0.8,8.6-1.7,12.4-3C29.3,21.6,24.6,21.4,24.4,17.4z M33.4,18.9
		c0.4,0.2,0.9,0.3,1.1,0.7c-3,0.2-6.2-0.3-8.5-0.8c2.4,0.9,6.4,1.4,9.8,0.9c-0.4-0.1-0.8-0.3-1.1-0.6c0.5-0.3,1.5-0.2,2.2-0.4
		C35.9,18.6,34.4,18.7,33.4,18.9z M33,23.8c0-0.1,0-0.2-0.2-0.1c-3.1,0.9-6.3,1.8-10.3,2C26.9,26,29.9,24.7,33,23.8z M30.2,29.6
		c-1.2,1.3-2.7,2.5-4.2,3.5c-0.5,0.4-1.1,0.6-1.4,1.1c2.8-1.6,5.2-3.5,7.2-5.8C31.2,28.6,31,29.3,30.2,29.6z M21.3,49.4
		c2.8-0.2,4.4-2.1,5.9-3.6c1.9-1.9,3.9-3.9,5.3-6.2c0.9-0.5,1.3-1.5,1.8-2.4c0.3-0.6,0.7-1.1,0.6-1.5c-2.2,0.1-1.9-1.9-0.5-2.5
		c-0.3-0.1-0.5-0.2-0.9-0.3c-3.2,4.4-5.5,10-9.6,13.4c3.4-4.3,6.3-9,9-13.9c-0.1-0.2-0.2-0.4-0.2-0.7c0.2-0.4,0.6-0.8,1.1-1
		c-0.4-0.1-0.7-0.4-1.1-0.5C29.3,37,25.3,43.2,21.3,49.4z M84.6,41.5c1.5,4.5,3.1,9,5,13.2c0.8,1.7,1.9,3.3,2.2,5.2
		c-1.8-2.9-3.1-6.1-4.5-9.3c-1.3-3.3-2.5-6.7-3.4-10.3c-0.7,0.3-1.8,0.2-2.5-0.1c0,2.5,0.9,4.6,1.8,6.7c2.2,4.9,4,10.4,6.8,14.8
		c1.4,2.2,3.1,4.4,6.5,4.5c-2-4.3-4.8-9-5.9-14.2c-0.4-1.8-0.6-3.7-1.2-5.5c-0.3-1-0.8-2.1-1.2-3.2c-0.9-2.2-1.9-4-3.3-5.6
		c-0.4,0.3-1.3-0.1-1.7,0.1C84.2,38.6,84.2,40.2,84.6,41.5z M35,38.3C35,38.2,35,38.2,35,38.3c-1.6,2-2.7,4-3.5,6.6
		c-1,3.5-1.3,8.2-2.5,11.8c-1.2,3.5-3.1,7-4.3,10.4c0.6-0.1,1.1-0.2,1.7-0.3c2.3-0.9,3.5-2.8,4.5-4.7c3.1-5.9,5.6-12.8,7.8-19.3
		c-0.4-0.5-0.2-1.5-0.1-2.2c-0.7,0.3-1.5,0.5-2.4,0.2C34.8,47,32.7,53,30.3,58.4c-0.3,0.8-0.5,1.7-1.2,2.2c1.8-5,3.9-10.2,5.5-15.3
		c0.3-0.9,0.5-1.8,0.8-2.7c0.3-1,0.4-1.8,0.6-2.8c0.1-0.6,0.7-1.2,0.6-1.5C36.1,38.3,35.6,38.4,35,38.3z M95,16.6
		c-0.2,3.8-4.7,4.5-9.5,4.6c3.8,1.4,8.3,2.1,13.2,2.6c-0.4,3.7-7.4,3.1-10.9,1.9c3,3,7,5.8,10.8,8.3c-0.9,0.8-3,0.8-4.1,0.6
		c-1.3-0.3-2.5-1.2-3.6-2.1c-1.5-1.1-2.7-2-3.8-3.2c-0.5-0.6-1.5-1.5-2.7-0.9c0.3,0.5,1.8,0,2,0.7c0.3,1.1-1.8,0.5-2.2,1.3
		c0.8,0.4,2.5,0,2.2,1.3c-0.5,0.5-1.6,0.5-2.5,0.7c0.3,0.8,2.4,0.7,2.2,2.1c-0.7,0.8-2.4-0.1-3.1,0.1c0.6,0.8,2.9,1.4,1.9,2.7
		c-1.2,0.2-2.2-0.6-3.1-0.7c-0.3,0.6,1,1.2,1.5,1.9c0.3,0.5,0.6,1.3,0,1.6c-1.9,0.2-2.3-1.2-3.4-1.5c-0.2,0.3,0.3,0.8,0.5,1.2
		c0.4,0.7,1.1,1.6,0.5,2.7c-2.1,0.5-2.4-1.5-3.3-2.4c-0.7,0.2-0.1,0.8,0,1.4c0.2,1,0.2,2.3-0.4,3c-2.3,0.4-2.4-1.7-3.1-3
		c-0.7,0.4,0,1.5,0,2.4c0,0.7-0.2,1.3-0.6,1.7c-2.6,0.4-2.6-2-3.5-3.2c-0.4,1.8,0.9,2.8,1.9,3.7c-0.8,3.2-0.2,7.3,0.5,10.3
		c0.1-3.2-0.7-6.8-0.2-10.1c1.7,0.1,2.5-0.7,2.4-2.2c0.6,0.7,2.3,1.3,3.2,0.7c1,4.2,1.1,9.1,2.1,13.3c0.4,1.6,0.4,3.3,1.4,4.6
		c-1.4-6.2-2.3-13.4-3.1-20.4c0.4-0.1,0.9,0.9,1.8,0.9c0.5,0,0.8-0.2,1.2-0.3c0.2,8.9,1.4,17,3.4,24.4c-1.9,0.2-3-0.9-4.1-1.6
		c-3.9-4.6-5.9-10.9-5.4-19.3c-0.4,0.4-0.4,1-0.5,1.5c-0.7,2.2-1,4.7-1.2,7.7c-0.1,1-0.1,2.1-0.5,3c-0.3,0.2-1,0.4-1.5,0.2
		c-1.7-1.7-1.6-4.2-1.9-6.9c-0.1-1.2-0.5-2.4-0.5-3.7c-0.1-2.3,0-4.7,0.3-6.7c9-1.5,14.3-6.1,13.9-15.6c2.2,0.3,2.6-3.1,0-2.6
		c1.7-2.5-4.2-2.5-2.6,0c-2.6-0.1-1.5,3.4,0.9,2.5c0.3,0.9,0.5,1.8,0.4,2.9c-0.6,6.2-5.3,10.2-12.9,10.3c-0.1-0.2-0.1-0.5-0.2-0.8
		C76.5,37.7,80.7,34,80.9,27c0-0.2,0-0.4,0.3-0.3c-2.4-1-5.1-1.8-4.7-5.1c0-0.3,0.1-0.6,0.3-0.9c-0.8,0.1-1.2,1.8-0.7,2.6
		c0,0.2-0.1-0.1-0.3,0c-1-3.3,0.8-5.5,4.4-5.8c2.1-0.1,4.7,0,7.2-0.1C90.3,17.3,93,16.9,95,16.6z M92.6,18.2
		c0.2-0.1,0.9-0.4,0.4-0.3c-2.2,0.7-5.4,1.3-8.2,1c0.2-0.4,0.8-0.4,1-0.7c-1-0.1-2.2,0-3.3-0.1c-0.1,0-0.6,0-0.3,0.1
		c0.2,0,0.4,0,0.6,0c0.6,0.1,1.2,0.1,1.8,0.2c-0.3,0.4-0.8,0.5-1.1,0.9C87,19.4,90.4,19.1,92.6,18.2z M86.7,23.1
		C86.6,23.1,86.5,23.2,86.7,23.1c2.8,1,6.5,2.2,10.3,1.5C93.1,24.8,89.9,23.9,86.7,23.1z M95.2,33.2c-2.8-1.6-5.2-3.8-7.5-5.5
		C89.8,29.8,92.3,32,95.2,33.2z"/>
	<path class="st3" d="M70.5,63.8c2.3,3.3,4.7,6.4,6.9,9.7c1.3,0.1,2.2,0,2.9-0.7c0.4-0.5,0.3-1.3,0.7-1.7c0.6-0.8,2.6-0.6,3.6-0.2
		c0,0.6-1.5,0.7-1.8,0.3c-0.4,0.1-0.6,0.2-1,0.3c0.1,0.3,0.4,0.4,0.2,0.8c-0.2,0.1-0.5,0.2-0.8,0.2c-0.1,0.6-0.5,1-0.8,1.3
		c1.8,1.1,3.4-0.5,5-0.5c1.3,0,2,1.2,3.6,0.8c0,0.2-0.1,0.4-0.2,0.5c0.2,0.6,1.1,0.7,1.3,1.3c-0.8,0.7-1.6-0.3-1.8-0.9
		c-0.9,0.1-1.1-0.3-1.7-0.5c0,0.8-1.4,0.8-1.3-0.1c-2,0.1-4.4,1.3-6,0.3c0,0.5,0.7,0.7,1.2,0.9c0.5,0.2,1.1,0.5,1.5,0.8
		c0.3,0.2,0.4,0.5,0.7,0.6c0.4,0.2,1,0.2,1.2,0.6c-0.3,0.6,0.3,1.2,0,1.5c-1.1,0.2-0.9-1.4-2.2-1.3c-0.3-1.2-2.1-1.1-2.8-1.9
		c-0.7-0.1-1.5,0-1.7-0.5c-0.6,0.1-1,0.3-1.6,0.3c-0.6,0.1-1.2-0.1-1.8-0.1c-0.8,0.1-1.6,1.3-2.5,0.5c0.4-0.5,1.4-0.6,1.6-1.3
		c1,0,2-0.1,2.9-0.3c0.5-0.4-0.1-1-0.5-1.6c-1.9-2.6-4.5-5.1-6.3-7.5C69.2,64.5,69.4,63.8,70.5,63.8z M83.3,70
		c0.1,0.1,0.3,0.2,0.5,0.2c0.1-0.2,0.7-0.6,0.4-0.8C84,69.6,83.4,69.5,83.3,70z M89.3,74.5c0.1,0,0.1,0.1,0.2,0.1
		c0.5-0.1,1.1-0.3,1.3-0.7C90.2,73.5,89.2,73.8,89.3,74.5z M72.5,74.9c0.1-0.1,0.3-0.2,0.2-0.4c-0.1,0-0.1-0.1-0.1-0.1
		C71.6,74,71.6,74.9,72.5,74.9z M84.4,78.2c0.3,0.1,0.7,0.1,1.2,0.1C85.7,77.7,84.3,77.3,84.4,78.2z"/>
	<path class="st3" d="M51.8,66.3c-1.7,2.3-4.5,4.7-6.7,7.1c-0.2,0.2-0.9,0.9-0.8,1.1c0.2,0.8,2.3,0.1,3,0.3c0.2,0.3,0.4,0.6,0.6,0.9
		c0.2,0.1,0.7,0,0.7,0.3c-0.5,0.7-1.6,0-1.9-0.3c-0.4,0-0.8,0.1-1.2,0.1c-0.6-0.6-2.1-0.2-3.1-0.1c-0.3,0.6-0.9,1-1.8,1.1
		c-0.6,0.9-1.3,1.7-2.7,1.9c-0.4,0.7-0.3,2.3-1.5,2.1c0-0.6,0.8-1.6-0.2-2.1c1.4-1.3,3.4-2,4.5-3.6c-1.1-0.3-2.6-0.1-3.5-0.5
		c-0.3,0.4-1.1,0.8-1.4,0.1c-0.8,0.1-1.2,0.5-1.9,0.6c-0.4,0.4-0.4,1-0.9,1.3c-1.8,0.2-1.1-1.1-0.3-1.4c0.1-0.4-0.3-0.5-0.1-0.7
		c0.4-0.2,0.6-0.1,0.9-0.1c0.9-0.2,1.6-1,2.5-1.1c0.6,0,1.6,0.4,2.4,0.5c0.7,0.2,1.5,0.5,2.4,0.3c-0.8-0.4-0.4-1.9-1.6-1.9
		c-0.1-0.2,0-0.6-0.2-0.7c-0.6-0.1-1.6,0.3-2-0.2c-0.4,0.1-1,0.6-1.4,0.1c0.1-0.7,1-0.6,1.4-1.1c1.1,0.4,2.6,0.4,3.5,1
		c0.5,1.1,1.4,3.7,2.9,2.2c0.6-0.6,1.1-1.4,1.7-2c1.6-1.8,3.8-4.2,5.3-5.8c0-0.1,0-0.1,0.1-0.1c0.3-0.1,0.7,0.2,1.2,0.2
		C51.6,66,51.7,66.1,51.8,66.3z M36.2,70.4c0.1-0.1,0.3-0.2,0.2-0.5c-0.4-0.1-0.8-0.3-1.3-0.3C35.2,70.1,35.6,70.3,36.2,70.4z
		 M48.9,74.5c-0.1,0.3-0.3,0.5-0.8,0.5C47.8,74.5,48.5,74.2,48.9,74.5z M32.2,74.6c0.4,0.6-0.5,0.8-1.1,0.6
		C31.2,74.7,31.6,74.5,32.2,74.6z M36.3,79c0,0.2,0.2,0.2,0.2,0.5c-0.4,0.2-0.8,0.4-1.2,0.5C35.1,79.3,35.5,79.1,36.3,79z"/>
	<path id="Rechter_Kleestengel_1_" class="st3" d="M82.8,21.9c0.3,0.6,0,1.1-0.2,1.6c2.7-0.6,2.5,2.7,0,2.1
		c0.8,9-4.2,14.3-13.5,15.1c-0.1-0.4-0.2-0.7-0.2-1.1c3.7-0.4,7-1.3,9.4-3.2c2.8-2.2,4.7-6.7,3.2-10.9c-1,0.4-2.9-0.1-2.2-1.6
		c0.3-0.2,0.8-0.4,1.5-0.3C79.7,22.3,81.3,20.9,82.8,21.9z"/>
	<path id="Linker_Kleestengel_1_" class="st3" d="M37.8,25.3c-1.1,8.3,3.9,13.9,13.3,14.1c0.1,0.3,0.1,0.7,0.1,1.1
		c-4.5,0.1-8.2-1.7-10.5-3.8c-2.2-2.1-3.3-5.2-3.7-8.4c-0.1-0.9-0.1-1.9,0-2.8c-2,0.8-2.9-2.2-0.4-2c0-0.3-0.4-0.9-0.2-1.5
		c1.2-1.1,3.2,0.5,1.8,1.5C41,23,40.3,26.5,37.8,25.3z"/>
	<path class="st2" d="M64,23c0,0.5-0.5,0.6-1,0.7C63.1,23.3,63.2,22.9,64,23z M63.3,22.1c0.3,0.1,0.6,0.1,0.9,0.2
		c-0.1-1-0.6-1.6-1.6-1.9C62.9,20.9,63.2,21.4,63.3,22.1z"/>
	<path id="Schnabel_1_" class="st3" d="M57.7,24.2c2-0.8,5.8,0.9,6.8-0.9c0.3-0.6,0.2-1.5,0-1.9c-0.7-1.5-3.9-2.4-5.7-1.3
		c-1.3-1-4.6-1-4.9,0.7c-0.8-1.5,0.8-2.7,2.4-2.8c0.4-0.3,0.6-1.3,1.5-0.8c0.4,1.9,3.1,1.7,5.1,2.4c1.2,0.4,2.6,1.3,2.9,2.2
		c0.2,1-0.5,2-1.2,2.4C62.7,25.5,59.4,24.7,57.7,24.2z"/>
	<path id="Zunge_1_" class="st2" d="M63.7,22.5c-2.9-0.2-6.8-0.2-9.4,0.5C56.4,21.8,60.9,21.8,63.7,22.5z"/>
	<path d="M66.8,16.7c3.2,1,1.9,6.2,4.5,7.4c-0.4,0.2-1.1,0.1-1.5,0.2c0,1.5-1.3,3.2-1.1,4.7c0.1,0.6,0.6,0.8,0.7,1.3
		c-0.6,0.5-1.5,0.1-2.1-0.1c-0.8,0.9-1.6,3.1-0.4,4.1c-0.8-0.1-1.3,0.1-1.6,0.5c-0.3,1.2,0.9,1.1,1.6,1.6c0.6,0.4,0.8,0.8,1.2,1.2
		c7.5,0.1,12.4-4,12.1-10.6c-0.2-0.3-0.6-0.3-0.9-0.4c0.1,1.8-0.1,3.5-1.2,4.8c-0.6,0.7-2,1.6-2.7,1.9c-1.1,0.4-2.9,0.3-2.3-1.2
		c1.4-0.4,3-0.6,3.9-1.5c0.2-0.6,0.8-1.1,1-1.9c0.2-0.6,0.5-1.8,0.2-2.4c-0.1-0.3-1.4-1.2-1.8-1.5c-0.9-0.8-1.8-1.8-1.6-3.5
		c0.1-1.1,0.6-2.3,1.4-3c1.6-1.4,5-1.1,8-1.3c4-0.2,7.7-0.3,10.9-1.1c0,3.9-3.5,4.8-7.4,5.4c0.6,0.4,1.5,0.6,2.3,0.8
		c2.7,0.7,5.8,1,9.1,1.3c-0.7,3.4-5.5,4.1-9.9,3c2.6,2.8,6.2,5.3,9.9,7.5c-0.8,0.7-1.8,1.1-3.2,1.1c-3.3,0-5.3-2.3-7.4-3.4
		c3.4,5.9,7.2,11.5,11.4,16.7c-3,0.9-5.1-1.1-6.7-2.6c-1-0.9-1.9-1.8-2.8-2.6c-1.9-2-3.5-4.1-5.2-5.6c1.4,2,2.9,4,3.7,6.5
		c0.8,2.5,1.3,5.3,1.9,8.1c1.2,5.3,4.2,9.7,6,14.4c-1.6-0.1-3.4-0.3-4.5-1.1c-0.6-0.5-1.3-1.4-1.9-2.1c-4.1-5-6.2-12.6-8.9-18.7
		c-0.2,1,0,2,0.1,3c0.1,1.6,0,3.3,0.2,4.8c0.7,5.4,1.8,10.6,2.9,15.3c-4.7-0.3-6.7-3.8-8.2-7.2c-1.5-3.6-2.5-7.3-2.2-11.8
		c-1.3,2.7-0.5,7.2-1.7,10c-0.4,0.2-1,0.3-1.8,0.3c-2.5-2.1-1.9-6.9-2.8-10.5c-1.1,4.1-1.2,8.9,1.1,11.6c0.3,0.4,0.8,0.8,1,1.2
		c0.6,1.2,0.4,2.5,1.2,3.6c2,2.9,4,5.3,5.9,8c1.4,0.5,2.3-0.1,2.7-1c0.1-0.3,0-0.8,0.2-1.1c0.3-0.4,1.3-0.5,2-0.9
		c0.3-0.2,0.7-0.6,1-0.7c0.8-0.3,2,0,2.7,0.3c-0.6,0.1-1.5,0.1-1.8,0.5c0.1,0.5,0.7,0.3,0.7,0.7c0.1,0.9-1.8,1-2.5,0.7
		c-0.3,0.1,0,0.6,0,0.8c-0.4,0.4-1.2,0.5-1.2,1.3c0.9,0.4,1.9,0,2.9-0.4c0.4-0.1,0.8-0.5,1.2-0.5c0.4,0,0.9,0.7,1.4,0.8
		c1.7,0.5,4.4-0.4,4.7,1.2c-0.5-0.2-1.4-0.2-1.5,0.3c0,0.5,0.5,0.5,0.5,0.9c-0.1,0.5-0.8,0.7-1.5,0.5c-0.5-0.2-1.1-1.2-1.9-1.2
		c-0.7,0.5-1.8,0.4-2.1-0.3c-1.1,0.2-2.1,0.5-3.2,0.8c0.5,1.1,2.5,1.5,3.7,2.2c0.2,0.3,0.3,0.8,0.4,1.3c-0.5,0-0.4-0.6-1-0.5
		c-0.6,0.2-0.3,0.8-0.8,1c-1,0.3-1.5-1.7-2.6-1.7c-0.1-0.3-0.3-0.4-0.4-0.6c-0.7-0.4-1.6-0.6-2.2-1.1c-1.7-0.3-3.1-0.3-4.9-0.1
		c-0.4,0.5-2.5,1-2.8,0.1c-0.2-0.5,0.3-0.6,0.5-1.1c-0.1-0.7-1-0.1-1.1-0.2c0.8-1.7,3.4,0.2,5.3-0.7c-2-3-4.4-5.7-7-8.2
		c-0.2,0.4-0.5,0.7-1.2,0.6c-0.2,0.2-0.1,0.5-0.5,0.6c-1.8-0.2-1.4-2.7-1.8-4.1c-0.1-0.2-0.3-1.1-0.7-1.1c-0.8-0.1-1.1,2.2-1.1,2.7
		c0,1.6,0.5,4.2,2.5,4.8c2,0.7,4.4-0.2,5.4,1.1c0.3,0.3,0.4,1.1,0.7,1.5c0.3,0.5,1.4,1.3-0.1,1.5c-0.6,0.1-0.8-0.3-1.4-0.4
		c-1.6-0.3-4,0.4-5.5-0.1c-0.6-0.2-0.8-0.5-1.2-0.8c0.1,1.1,0.7,2.3,1.4,3.1c0.6,0.8,1.5,1.7,2.7,2.1c1.9,0.7,4.1,0.8,6.2,1.1
		c4.2,0.7,7.9,1.8,8,6c0.1,3.6-3.6,6.3-7.8,4.6c2.9,0,5.4-1.4,5.5-3.8c0.1-2.4-2.1-3.9-4.5-4.3c0.4,1.3,2.9,2.1,3.2,3.7
		c0.1,0.6-0.2,1.7-1.1,1.6c-0.6-0.1-1.2-1-1.8-1.4c-1.8-1.4-4.2-2.3-6.3-3.2c-1.6-0.7-3.1-1.3-4.2-2.1c-1.2-0.9-2-2.3-2.9-3.3
		c0.5,2.3,0.9,4.4,3.1,5.7c1.1,0.6,3.4,0.9,4.5,1.5c0.8,0.5,1.6,1.3,0.6,2.1c1,1,2.4,1.6,3.9,2.2c-6.8,0.1-10-3.4-12.9-6.9
		c-0.5,2.9,0,5.8,1.3,7.6c0.4,0.6,1.2,1.2,1.4,1.7c0.4,1.1-0.4,2.7-2,2.3c-0.7,0.9-1.4,1.9-1.9,2.9c-0.8-0.9-1.4-2-2.2-2.9
		c-1.2,0.1-2-0.6-1.8-1.9c0.2-1.2,1.8-2.1,2.2-3.6c0.7-2.2,0.5-4.3,0.7-6.7c-0.6,0.3-0.8,0.9-1.2,1.3c-2.5,3-6,5.5-11.8,5.8
		c1.4-0.7,3-1.2,3.9-2.2c-0.5-0.5-0.9-1.3-0.2-1.9c2.2-1.1,5.5-0.8,6.6-2.6c0.7-1.1,1.2-2.8,1.5-4.4c-0.7,1-1.7,2.2-2.9,3
		c-2.3,1.7-5.8,2.5-8.5,4.1c-0.5,0.3-1.2,0.8-1.8,1.3c-0.7,0.5-2.2,2.3-2.5,0.5c-0.6-2.5,2.7-3.2,3.5-4.9c-2.5,0.1-5.2,2.4-4.5,5
		c0.5,1.9,2.5,3.2,5.2,3.3c-2.8,1.2-6-0.2-7.2-1.9C38,84,39.4,81,41.2,79.8c3.4-2.3,10.4-0.9,13.6-3.6c1-0.9,1.5-2,2-3.4
		c-0.9,0.3-2.5,0.8-4.1,0.7c-0.5,0-1.1-0.3-1.6-0.2c-0.9,0.1-1.6,1-2.4,0.4c0.4-0.5,0.6-1,0.8-1.5c0.3-0.8,0.4-1.7,1.3-2.1
		c1.7-0.7,4.8,0,5.9-1.5c0.6-0.8,0.8-2.7,0.8-4.2c0-0.9-0.1-2.6-0.8-2.6c-0.3,0-0.7,0.3-0.8,0.5c-0.5,0.8-0.4,2.1-0.8,3.1
		c-0.3,0.7-0.8,1.2-1.3,1.7c-0.6-0.1-1.2-0.2-1.5-0.5c-2.5,2.6-5.1,5.1-7.6,7.7c1.6,0.6,3.9-0.7,5.1,0.3c-0.3,0.3-0.9,0.4-1.2,0.7
		c0.1,0.5,0.6,0.4,0.5,0.9c-0.2,0.7-2,0.4-2.3-0.1c-1.4,0.2-2.5-0.5-3.8-0.1c-0.8,0.2-1.3,1.1-2.2,1.2c-0.3,1.1-2.2,1.1-2.8,2
		c-0.3,0.5-0.1,1.2-0.6,1.7c-0.4,0.1-0.7,0.3-1.2,0.1c-0.3-0.1-0.2-0.6-0.3-0.9c-0.6,0-0.8,0.5-0.9,0.9c-0.4-0.6-0.2-1.5,0.2-2.1
		c0.2-0.1,0.5-0.2,0.7-0.3c0.9-1.5,3.4-1.6,3.9-3.4c-0.7-0.1-1.7-0.6-2.5-0.5c-0.4,0.1-0.4,0.4-0.8,0.4c-0.4,0-0.6-0.3-1-0.3
		c-0.4,0-1.1,0.3-1.4,0.5c-0.4,0.3-0.4,0.9-0.8,1.2c-0.5,0.2-1.3,0.1-1.7-0.1c-0.3-0.3,0.1-0.8-0.2-1.1c-0.4-0.3-0.7,0.3-0.9,0.2
		c0-1.6,2.2-1.3,3.9-2c0.5-0.2,1-0.7,1.5-0.8c1.4-0.2,2.7,0.8,4,0.9c0.6-1-0.8-1.4-1.2-2.1c-1.3-0.3-2.1,0-3.3-0.1
		c-0.4-0.4,0-0.9,0.2-1.3c-0.3-0.4-1-0.6-1.6-0.5c0.4-0.4,1-0.8,1.5-0.7c0.4,0,0.7,0.4,1.1,0.5c1.2,0.5,2.8,0.7,4,1
		c0.6,0.4,0.7,2.8,1.8,2.8c0.5,0,1.8-1.6,2.1-1.9c1.8-2,3.8-4.5,5.4-6.3c-0.8-1.5,0.5-2.4,1.2-3.2c1.2-1.4,2.2-3.2,2.4-5.6
		c0.1-1.3-0.3-2.6-0.5-3.8c-0.4-1.8-0.4-3.3-0.8-5.2c-0.8,3.6,0,8.7-1.9,11.3c-2.7,1.3-3.1-2.3-3.3-4.3c-0.2-2.2-0.3-4.2-0.9-5.6
		c0.3,5.1-0.6,9.3-2.4,13.2c-1.3,3-2.9,5.7-7.2,6c1.4-7.2,2.6-14.9,2.4-23.2c-0.7,1.3-1.2,2.7-1.7,4.1c-1.4,3.8-2.7,7.8-4.5,11.3
		c-0.1,0.2-0.2,0.7-0.5,0.7c-0.8,1.9-2.4,4.6-4.6,5.6c-0.8,0.4-1.8,0.6-3.2,0.5c1.6-4.6,4.6-8.9,5.5-14.2c0.5-2.8,0.8-5.6,1.5-8.1
		c0.7-2.5,1.8-4.6,3.2-6.6c-2.7,2.8-5.1,6.6-8.4,9.3c-1.2,1-3.1,2.3-5.1,1.9c3.3-5.8,7.1-11.2,10.2-17.2c-2.3,1.6-6.3,5.3-9.9,2.7
		c2.8-2.8,6.4-4.9,8.9-7.9c-3.8,1.1-8.8,1-9.2-2.8c3.8-0.5,7.3-1.2,10.4-2.2c-0.4-0.3-1-0.3-1.5-0.3c-3.2-0.4-6-1.6-5.9-4.9
		c4.4,1.1,10.3,0.3,15.3,0.7c3.5,0.2,5.2,2.2,5,4.9c-0.2,2.1-1.8,2.8-3.2,4.1c-0.1,2.1,0.8,4.1,2.3,4.9c0.8,0.4,2.1,0.2,3.1,0.7
		c0.4,0.6,0,1.2-0.5,1.5c-4-0.4-6.3-2.9-5.8-6.7c-0.5,0-0.8,0.1-1.1,0.3c-0.4,6.2,5.3,10.7,12.1,10.5c1.3-0.1,1.9-1.8,3.9-1.3
		c0.4-0.5,0.1-1.5,0.5-1.9c-0.4-0.4-1.3-0.3-1.9-0.5c2.2-0.1,2.6-1.4,3.7-2.6c0.6-0.6,1.3-1.1,1.8-1.8c-1.4-0.8-3.5,0.1-4.1,0.7
		c0.5-1.4,1.9-1.9,3.8-2.5c1.2-0.4,3.4-1,2.5-2.3c-1.3-0.7-3.2-0.8-4.6-1.3c0.8-1.6,5.9,0.6,6.1-1.3c-1.1-0.3-2.9-0.3-4.2-0.3
		c-1.5,0.1-3,0.2-4.3,0.5c-2,0.5-3.4,1.6-5.3,1.9c3.6-1.8,8-4.3,13.9-3.1c0.2-1.9-2.7-2.6-4-1.5c-1.6-1.1-4.4-1.1-5,0.7
		c-0.1,0.3,0.3,0.5,0.2,0.7c-1.2-0.7-1-2.8,0.1-3.5c0.4-0.3,1.1-0.3,1.7-0.7c0.7-0.4,0.8-1.3,2-0.8c0.5-0.2,0.5-0.6,0.8-0.8
		c2.4-1.5,7.2,1.2,9.7-0.5c0.1,0.1-0.4,0.3-0.7,0.5C67.4,16.3,67,16.5,66.8,16.7z M58.2,17.1c-0.1,0.5,0.1,1,0.8,1.1
		c0.6-1.4,2.7-1.4,4.4-1.8C61.9,16,58.5,15.7,58.2,17.1z M64.1,16.5c-0.3,0.1-0.6,0.3-0.9,0.4c-1.4,0.3-3.3,0.2-3.6,1.5
		c0.5,0.4,0.9,0.4,1.7,0.5c1.9,0.2,3.4,1.5,5.4,1.6c-0.4,0.1-1,0.1-1.4,0.2c0.8,0.7,1.6,3.4,0.3,4.4c0-0.6,0.4-1,0.2-1.6
		c-0.9,0.3-1.1,1.8-1.5,2.8c-0.2-0.4,0-1-0.2-1.4c-1.1,0.4-0.9,2.3-2,2.5c0.1-0.6,0.7-1.6,0.5-2.1c-0.5,0-0.3,0.6-0.4,1
		c-0.6,2-4.4,1.3-5.5,2.9c1.4,0.1,3.2-0.2,4.3,0.1c-2.2,0.6-3.1,2.2-4.2,3.6c0.7,0.1,1.7-0.2,2.1,0.2c-1.1,0.2-2.3,0.3-3.2,0.8
		c0.8,0.2,2.1-0.1,2.7,0.2c-0.5,0.3-1.7,0.1-2.2,0.3c-0.3,0.7-0.4,1.6-0.6,2.3c-1.4-0.1-2.2,0.3-2.9,0.7c-0.4,1.3-0.8,2.2-0.9,3.6
		c-0.4,6.1,2.6,10.9,2.2,16.3c-0.1,1.5-0.8,2.5-1.5,3.4c-1,1.3-2.6,2.5-2.3,4.4c1,0.4,1.1-0.5,1.9-0.4c1.1,0.1,0.2,1.3,0.8,1.9
		c0.4,0,0.1-0.6,0.6-0.6c0.3,0.1,0,0.6,0.3,0.7c2.2-0.5,0.5-5.6,3.5-5.4c0,0.1,0.1,0.1,0.2,0.1c0.7,2.4,1.1,5.5-0.2,7.3
		c-0.7,1-2.3,1.4-3.9,1.5c-0.6,0-1.4-0.1-2.1,0.1c-1.1,0.3-1,1.3-1.4,2.1c-0.2,0.4-0.6,0.5-0.6,1c1,0.1,1.6-0.7,2.7-0.7
		c0.3,0,0.6,0.2,0.8,0.2c2.7,0.3,4.4-1,4.8-3.2c-1.2,0.9-3.3,2.5-5.8,1.6c-0.3,0.1-0.4,0.5-0.8,0.5c0.3-0.4,0.5-0.8,0.9-1.1
		c3.4,0.7,5.4-1,6.5-2.9c0,1.4-0.3,2.3-0.6,3.4c-0.9,2.8-2.3,5.7-5.4,6.6c-1.9,0.6-4,0.4-5.9,0.7c-1.6,0.2-3.4,0.5-4.7,1.2
		c-1.3,0.7-2.4,2.4-2.6,3.9c-0.4,3.2,1.9,5.1,5.4,5c-0.8-0.6-1.8-0.9-2.5-1.7c-1.1-1.1-1.6-3-0.8-4.4c0.9-1.6,3-2.6,5.4-2.8
		c-0.3,1.7-3,2.6-3.7,3.8c-0.2,0.4-0.5,1.6,0.2,1.9c3.7-4.2,12.1-4.4,14.6-9.6c0.4-0.9,0.5-1.9,1-2.9c0,1.2,0,2-0.1,3
		c-0.3,2.2-1.3,5.4-3.2,6.3c-1.3,0.6-5.2,0.4-5.3,1.8c0,0.7,0.7,0.6,1.2,0.9c-0.7,0.8-1.8,1.3-2.7,2c5.5-1.1,8.6-4.1,10.9-8
		c0.2,3.8,0,7.6-1.5,10c-0.3,0.5-0.9,0.9-1.2,1.5c-0.6,1.3,0.5,2.1,2.2,1.8c0,0.7,0.3,1.1,0.6,1.6c0.2,0.3,0.5,0.6,0.8,0.7
		c0.6-0.4,1.1-1.4,1.3-2.3c0.7,0.1,1.4,0,1.9-0.2c0.4-0.4,0.4-1.4,0.1-1.9c-0.5-0.8-1.1-1.3-1.5-1.9c-1.3-2.2-1.1-5.5-1.1-8.8
		c2.4,3.9,5.3,7.3,11.3,8.1c-0.9-0.9-2.4-1.2-3-2.3c0.4,0,1,0.1,1.2-0.1c0.1-0.5-0.3-0.8-0.6-1.1c-1.9-1.2-4.6-1.1-5.9-2.6
		c-1.7-1.9-2.5-5.3-2.3-8.5c0.7,4.1,2.8,6.4,6.4,7.9c2.6,1.2,5.3,2.2,7.4,3.7c0.7,0.5,1.2,1.1,2,1.5c0.8-0.2,0.8-0.9,0.5-1.5
		c-0.6-1.5-3.7-2.4-3.6-4.2c2.8,0.5,5.7,1.9,5.9,4.5c0.2,2.8-1.9,3.6-3.8,4.6c3-0.2,4.7-1.5,5.1-3.7c0.3-1.6-0.2-3.3-0.9-4.2
		c-2.8-3.6-12-1.9-15.2-5c-1.6-2.3-3.3-5-3.2-8.6c0.8,2.1,2.3,3.5,5.6,3.4c0.7-1,2.1,0.1,2.4,0.6c-0.6,0-0.7-0.4-1.2-0.5
		c-2,0.8-4.6-0.2-5.9-1.1c0.3,1.6,2.2,2.8,4.3,2.6c0.7-0.1,1.3-0.3,2-0.3c0.9,0,1.6,0.2,2.5,0.3c0-0.5-0.5-0.9-0.8-1.4
		c-0.1-0.2-0.1-0.5-0.2-0.7c-0.6-0.7-1.8-0.4-3.2-0.5c-3.3-0.3-4.7-2.1-4.6-5.4c0.1-1.7,0.3-4.3,2.2-3.2c0.1,0.6,0.3,1.2,0.4,1.9
		c0.2,1.2,0.1,2.6,1.1,3.2c0.3-0.1,0.2-0.6,0.5-0.7c0.4-0.1,0.5,0.4,0.8,0.2c0.4-1.1,0.6-2.5,1.1-3.6c0.4-0.2,0.7,0.1,1.2,0.1
		c-0.8-2.6-3.2-3.9-3.4-6.9C67,55,67.1,54,67.2,53c0.4-3.6,1.4-7.7,1.2-11.5c-0.1-1-0.1-2.3-0.4-3.2c-0.6-1.5-2.6-2.4-4.7-1.5
		c0.8-1.3,1.4-3.1,1.2-5c0.8,1.1,0.3,3-0.2,4.2c0.3,0,0.4-0.1,0.7-0.1c-0.4-1.1,0.2-1.8,0.9-2.3c-0.4-2.3,1.4-3.5,1.2-5.6
		c0.3-0.4,0.5-1.3,1-1.3c-0.4,1-1.5,3.3,0.5,3.5c-1-2.2,1.4-4.9,0.2-7.5c0.6,0.3,0.7,1.2,1.6,1.2c-1.3-1.6-1.4-4.1-3.3-5.1
		c-1.6,0-2.5-1.8-3.9-1.1c0,0.3,0.7,0.1,0.8,0.4c-0.7,0.1-1.6,0.7-2.5,0.5c-0.6-0.1-0.8-0.5-1.2-0.8c1.1-1.3,4.7-0.1,5.7-1.5
		C65.5,16.6,64.8,16.4,64.1,16.5z M87.4,17.4c-2.5,0.1-5,0-7.2,0.1c-3.6,0.2-5.4,2.4-4.4,5.8c0.2-0.1,0.3,0.2,0.3,0
		c-0.5-0.8-0.1-2.6,0.7-2.6c-0.2,0.3-0.3,0.6-0.3,0.9c-0.4,3.3,2.3,4.1,4.7,5.1c-0.3,0-0.3,0.1-0.3,0.3c-0.3,7-4.4,10.7-12.3,11.1
		c0.1,0.2,0.1,0.6,0.2,0.8c7.6-0.1,12.4-4.1,12.9-10.3c0.1-1.1-0.1-2-0.4-2.9c-2.5,0.9-3.5-2.6-0.9-2.5c-1.6-2.5,4.3-2.5,2.6,0
		c2.6-0.5,2.2,2.9,0,2.6c0.4,9.5-4.9,14.1-13.9,15.6c-0.3,2-0.4,4.4-0.3,6.7c0.1,1.3,0.4,2.5,0.5,3.7c0.3,2.7,0.3,5.3,1.9,6.9
		c0.5,0.2,1.2,0,1.5-0.2c0.4-0.9,0.5-1.9,0.5-3c0.2-2.9,0.5-5.4,1.2-7.7c0.2-0.5,0.2-1.1,0.5-1.5c-0.5,8.4,1.5,14.7,5.4,19.3
		c1.1,0.7,2.2,1.8,4.1,1.6c-2-7.4-3.1-15.5-3.4-24.4c-0.3,0.1-0.7,0.3-1.2,0.3c-0.9-0.1-1.3-1-1.8-0.9c0.8,7,1.7,14.2,3.1,20.4
		c-0.9-1.3-1-3-1.4-4.6c-1-4.2-1.1-9.1-2.1-13.3c-0.9,0.6-2.7,0-3.2-0.7c0.1,1.5-0.7,2.2-2.4,2.2c-0.5,3.3,0.3,6.9,0.2,10.1
		c-0.7-3-1.3-7.1-0.5-10.3c-1-0.9-2.3-1.9-1.9-3.7c1,1.2,1,3.6,3.5,3.2c0.4-0.5,0.6-1,0.6-1.7c0-0.9-0.7-2,0-2.4
		c0.6,1.3,0.7,3.4,3.1,3c0.6-0.6,0.6-1.9,0.4-3c-0.1-0.6-0.7-1.2,0-1.4c0.9,0.9,1.2,2.9,3.3,2.4c0.6-1.1,0-2-0.5-2.7
		c-0.3-0.4-0.7-0.9-0.5-1.2c1.1,0.3,1.5,1.7,3.4,1.5c0.6-0.3,0.3-1.1,0-1.6c-0.5-0.8-1.8-1.3-1.5-1.9c0.9,0.1,1.9,1,3.1,0.7
		c0.9-1.3-1.3-1.9-1.9-2.7c0.7-0.2,2.3,0.8,3.1-0.1c0.2-1.4-1.9-1.3-2.2-2.1c0.9-0.2,2-0.1,2.5-0.7c0.2-1.3-1.4-0.9-2.2-1.3
		c0.4-0.8,2.5-0.2,2.2-1.3c-0.2-0.7-1.7-0.2-2-0.7c1.2-0.6,2.2,0.3,2.7,0.9c1,1.3,2.3,2.1,3.8,3.2c1.1,0.8,2.3,1.8,3.6,2.1
		c1.1,0.3,3.1,0.2,4.1-0.6c-3.8-2.6-7.8-5.3-10.8-8.3c3.4,1.2,10.4,1.8,10.9-1.9c-4.8-0.5-9.4-1.3-13.2-2.6c4.8-0.1,9.3-0.7,9.5-4.6
		C93,16.9,90.3,17.3,87.4,17.4z M65.2,17.4c0.3,0.7,1.4,0.7,2.2,1.1c0.3,0.3,1.1,1.1,1.4,1C68.5,18.1,66.9,16.4,65.2,17.4z
		 M64.5,24.3c0.6-0.4,1.4-1.5,1.2-2.4c-0.2-0.9-1.7-1.9-2.9-2.2c-2-0.7-4.7-0.5-5.1-2.4c-0.8-0.5-1.1,0.5-1.5,0.8
		c-1.6,0.2-3.2,1.3-2.4,2.8c0.3-1.7,3.6-1.8,4.9-0.7c1.8-1.1,5-0.2,5.7,1.3c0.2,0.4,0.3,1.3,0,1.9c-1,1.8-4.8,0-6.8,0.9
		C59.4,24.7,62.7,25.5,64.5,24.3z M33.9,21.8c-3.8,1.3-8.1,2.2-12.4,3c0.5,3.9,7.2,2.5,10.3,1.5C28.9,29.6,25,32,21.8,35
		c3.3,1.4,5.7-0.5,7.6-2.1c1.3-1,2.6-2.2,3.3-3.2c0.3-0.3,0.2-0.6,0.6-0.8c0.4-0.2,1.5-0.5,1.9,0c-0.6,0.4-1.9,0.1-2,0.7
		c0,0.3,0.4,0.7,0.8,0.8c0.5,0.1,1.3-0.2,1.5,0.3c-0.7,0.5-2.4,0.2-2.3,1.2c0.1,0.8,1.7,0.6,2.8,0.9c-0.6,0.6-2.6,0.9-2.2,2
		c0.4,1.2,2.8-0.4,3.2,0.1c-0.6,0.9-2.1,1-2.2,2.4c1.1,1,2.6-0.7,3.5-0.5c0,0.5-0.7,1-1.2,1.5c-0.4,0.5-1,1.1-0.5,1.9
		c0.9,0.2,1.5-0.1,2-0.4c0.6-0.4,0.8-1.1,1.5-1.2c0.2,0.6-1,1.7-1.2,2.7c-0.1,0.8,0.2,1.3,0.8,1.4c1.7,0.2,1.9-1.8,2.7-2.6
		c0.7,0.3,0.1,1.3,0,2.1c-0.1,1.6,0.7,3.1,2.2,1.9c0.8-0.6,0.8-2,1.3-2.8c0.9,0.4,0,1.6,0.1,2.6c0.1,0.6,0.3,1,0.5,1.4
		c2.6,0.6,2.7-2,3.5-3.2c0.5,1.7-0.9,2.8-1.8,3.8c0.9,2.9,0.5,7.4-0.1,10.3c-0.3-3.1,0.6-7.7-0.3-10.3c-1.8,0.4-2.3-0.7-2.5-1.9
		c-0.4,0.1-0.6,0.6-1.2,0.8c-0.6,0.2-1.3,0.2-1.9-0.1c-0.9,5-0.9,11.3-2,16.1c-0.2,0.7-0.1,1.5-0.8,1.9c1.1-4.2,1.2-9.1,1.7-13.7
		c0.3-2.3,1-4.5,0.5-6.9c-0.6,0.8-1.7,1.6-2.9,0.9c0.4,8.9-0.7,17.1-2.2,24.5c1.4,0,2.5-0.5,3.3-1.2c4.4-3.9,5.7-12.2,5.5-19.8
		c0.7,1.7,1.1,3.9,1.3,6.2c0.2,2.2,0.4,4.5,1.5,6c1.8,0.6,2.4-1.4,2.5-2.6c0.2-1.4,0.3-3.2,0.5-5c0.3-3.4,0.2-6.9-0.4-9.8
		c-9.6-1.1-14.7-6.2-14.6-15.6c-2.2,0.5-2.7-2.9-0.2-2.4c-0.1-0.4-0.2-0.7-0.3-1.1c0.5-1.6,4-0.7,2.9,1.1c2.5-0.2,2.1,3.1-0.6,2.4
		c-0.7,3.8,0.6,7.5,2.9,9.8c2.3,2.3,5.6,3.5,10.2,3.4c0.1-0.2,0.2-0.4,0.2-0.8c-8.1-0.3-12.3-3.9-12.8-10.8c0.1-0.3-0.4-0.1-0.3-0.4
		c1.2-0.7,3.1-1,3.9-2.1c0.7-1,0.7-2.7,0.3-3.9c1,0.4,0.8,1.9,0.9,2.6c0.8-1.8-0.2-3.9-1.3-4.8c-2.1-0.8-4.9-0.9-7.7-0.8
		c-3.7,0.1-7.1,0-10.1-0.6C24.6,21.4,29.3,21.6,33.9,21.8z M62.7,17.8c-0.4,0-0.6,0.3-0.9,0.3c-0.3,0-0.3-0.3-0.5-0.3
		C61,18.7,63,18.5,62.7,17.8z M63.3,22.1c0.3,0.1,0.6,0.1,0.9,0.2c-0.1-1-0.6-1.6-1.6-1.9C62.9,20.9,63.2,21.4,63.3,22.1z
		 M80.7,23.5c-0.7-0.1-1.1,0.1-1.5,0.3c-0.7,1.4,1.2,2,2.2,1.6c1.4,4.2-0.5,8.7-3.2,10.9c-2.4,1.9-5.7,2.8-9.4,3.2
		c0,0.4,0.2,0.7,0.2,1.1c9.3-0.8,14.2-6.1,13.5-15.1c2.5,0.6,2.7-2.7,0-2.1c0.2-0.5,0.6-1,0.2-1.6C81.3,20.9,79.7,22.3,80.7,23.5z
		 M38.3,23.5c1.4-1.1-0.6-2.6-1.8-1.5c-0.3,0.5,0.1,1.2,0.2,1.5c-2.5-0.2-1.6,2.7,0.4,2c-0.1,1-0.1,1.9,0,2.8
		c0.4,3.2,1.5,6.3,3.7,8.4c2.2,2.2,6,4,10.5,3.8c0-0.4,0-0.8-0.1-1.1c-9.3-0.2-14.4-5.8-13.3-14.1C40.3,26.5,41,23,38.3,23.5z
		 M54.3,23c2.6-0.6,6.5-0.7,9.4-0.5C60.9,21.8,56.4,21.8,54.3,23z M63,23.7c0.5-0.1,1-0.2,1-0.7C63.2,22.9,63.1,23.3,63,23.7z
		 M75,31.9c-0.3,0.1-1.1,0-1.4,0.3c-0.3,0.3,0,0.7,0.2,1c3.2-0.2,5.1-2.4,5.3-5c0.1-0.6,0-1.4-0.5-1.8C79,29.3,77.5,31.5,75,31.9z
		 M42,31.9c1.1,0.6,2.2,1.8,4.1,1.4c0.7-1.4-1-1-2.1-1.2c-0.9-0.2-2-1.2-2.5-2.1c-0.5-1-0.7-1.9-0.8-3.1C40,28.7,41.1,30.7,42,31.9z
		 M95.9,45.2c-1.9-1.6-3.5-3.7-5.1-6.2c-1-1.6-2.3-3.3-3.4-5c-0.5-0.9-1-2.2-2.1-1.3c1.5,0.6,1.7,2.6-0.5,2.5c0.3,0.6,1,1,0.8,1.9
		c2.3,2.5,4.9,5.7,7.6,8.2c1.7,1.5,3.2,3.3,6.4,3.1c-0.4-0.8-1.1-1.5-1.6-2.2c-4.2-5.1-7.6-11-11.2-16.5c-0.2,0.3-0.5,0.4-0.9,0.5
		c0.6,0.3,1.4,1,0.8,1.9c3,4.5,6.2,9.2,9.5,13.3c0-0.1-0.1-0.1-0.1-0.1C96,45.3,95.9,45.2,95.9,45.2z M21.3,49.4
		c2.8-0.2,4.4-2.1,5.9-3.6c1.9-1.9,3.9-3.9,5.3-6.2c0.9-0.5,1.3-1.5,1.8-2.4c0.3-0.6,0.7-1.1,0.6-1.5c-2.2,0.1-1.9-1.9-0.5-2.5
		c-0.3-0.1-0.5-0.2-0.9-0.3c-3.2,4.4-5.5,10-9.6,13.4c3.4-4.3,6.3-9,9-13.9c-0.1-0.2-0.2-0.4-0.2-0.7c0.2-0.4,0.6-0.8,1.1-1
		c-0.4-0.1-0.7-0.4-1.1-0.5C29.3,37,25.3,43.2,21.3,49.4z M84.6,41.5c1.5,4.5,3.1,9,5,13.2c0.8,1.7,1.9,3.3,2.2,5.2
		c-1.8-2.9-3.1-6.1-4.5-9.3c-1.3-3.3-2.5-6.7-3.4-10.3c-0.7,0.3-1.8,0.2-2.5-0.1c0,2.5,0.9,4.6,1.8,6.7c2.2,4.9,4,10.4,6.8,14.8
		c1.4,2.2,3.1,4.4,6.5,4.5c-2-4.3-4.8-9-5.9-14.2c-0.4-1.8-0.6-3.7-1.2-5.5c-0.3-1-0.8-2.1-1.2-3.2c-0.9-2.2-1.9-4-3.3-5.6
		c-0.4,0.3-1.3-0.1-1.7,0.1C84.2,38.6,84.2,40.2,84.6,41.5z M35,38.3C35,38.2,35,38.2,35,38.3c-1.6,2-2.7,4-3.5,6.6
		c-1,3.5-1.3,8.2-2.5,11.8c-1.2,3.5-3.1,7-4.3,10.4c0.6-0.1,1.1-0.2,1.7-0.3c2.3-0.9,3.5-2.8,4.5-4.7c3.1-5.9,5.6-12.8,7.8-19.3
		c-0.4-0.5-0.2-1.5-0.1-2.2c-0.7,0.3-1.5,0.5-2.4,0.2C34.8,47,32.7,53,30.3,58.4c-0.3,0.8-0.5,1.7-1.2,2.2c1.8-5,3.9-10.2,5.5-15.3
		c0.3-0.9,0.5-1.8,0.8-2.7c0.3-1,0.4-1.8,0.6-2.8c0.1-0.6,0.7-1.2,0.6-1.5C36.1,38.3,35.6,38.4,35,38.3z M69.2,65.4
		c1.8,2.4,4.5,5,6.3,7.5c0.4,0.6,1.1,1.2,0.5,1.6c-0.9,0.1-1.9,0.2-2.9,0.3c-0.2,0.7-1.2,0.7-1.6,1.3c0.8,0.9,1.7-0.3,2.5-0.5
		c0.5-0.1,1.2,0.1,1.8,0.1c0.6-0.1,1-0.2,1.6-0.3c0.2,0.5,1,0.4,1.7,0.5c0.7,0.8,2.5,0.7,2.8,1.9c1.3-0.1,1,1.5,2.2,1.3
		c0.3-0.3-0.3-1,0-1.5c-0.2-0.4-0.8-0.4-1.2-0.6c-0.3-0.1-0.4-0.4-0.7-0.6c-0.4-0.3-1.1-0.6-1.5-0.8c-0.5-0.2-1.2-0.4-1.2-0.9
		c1.6,1,4-0.2,6-0.3c0,0.9,1.3,0.9,1.3,0.1c0.6,0.1,0.8,0.6,1.7,0.5c0.2,0.6,1,1.7,1.8,0.9c-0.2-0.6-1.1-0.7-1.3-1.3
		c0.2-0.1,0.2-0.3,0.2-0.5c-1.7,0.4-2.3-0.8-3.6-0.8c-1.6,0-3.2,1.6-5,0.5c0.4-0.4,0.8-0.7,0.8-1.3c0.3,0,0.6-0.1,0.8-0.2
		c0.2-0.4-0.2-0.5-0.2-0.8c0.4-0.1,0.6-0.3,1-0.3c0.3,0.4,1.9,0.4,1.8-0.3c-1.1-0.4-3-0.6-3.6,0.2c-0.4,0.5-0.3,1.2-0.7,1.7
		c-0.6,0.7-1.5,0.8-2.9,0.7c-2.2-3.3-4.7-6.4-6.9-9.7C69.4,63.8,69.2,64.5,69.2,65.4z M51.5,65.7c-0.4,0-0.9-0.3-1.2-0.2
		c0,0-0.1,0-0.1,0.1c-1.5,1.6-3.7,4-5.3,5.8c-0.6,0.7-1.1,1.5-1.7,2.1c-1.4,1.5-2.4-1.1-2.9-2.2c-0.9-0.5-2.4-0.6-3.5-1
		c-0.4,0.4-1.3,0.4-1.4,1.1c0.4,0.5,1-0.1,1.4-0.1c0.4,0.5,1.5,0.1,2,0.2c0.2,0.1,0.1,0.5,0.2,0.7c1.2,0.1,0.8,1.5,1.6,1.9
		c-0.9,0.2-1.6-0.2-2.4-0.3c-0.7-0.2-1.7-0.6-2.4-0.5c-0.9,0-1.5,0.9-2.5,1.1c-0.3,0.1-0.6-0.1-0.9,0.1c-0.2,0.2,0.2,0.4,0.1,0.7
		c-0.8,0.3-1.5,1.6,0.3,1.4c0.5-0.3,0.5-1,0.9-1.3c0.8-0.1,1.2-0.5,1.9-0.6c0.2,0.7,1.1,0.4,1.4-0.1c0.9,0.4,2.5,0.3,3.5,0.5
		c-1,1.6-3.1,2.3-4.5,3.6c0.9,0.5,0.2,1.4,0.2,2.1c1.2,0.2,1-1.4,1.5-2.1c1.4-0.2,2.1-1,2.7-1.9c0.9-0.1,1.5-0.4,1.8-1.1
		c1,0,2.5-0.5,3.1,0.1c0.5,0,0.9,0,1.2-0.1c0.3,0.3,1.5,0.9,1.9,0.3c0-0.3-0.5-0.2-0.7-0.3c-0.2-0.3-0.4-0.6-0.6-0.9
		c-0.7-0.2-2.8,0.5-3-0.3c-0.1-0.3,0.6-0.9,0.8-1.1c2.2-2.3,5-4.8,6.7-7.1C51.7,66.1,51.6,66,51.5,65.7z M83.3,70
		c0.1,0.1,0.3,0.2,0.5,0.2c0.1-0.2,0.7-0.6,0.4-0.8C84,69.6,83.4,69.5,83.3,70z M36.2,70.4c0.1-0.1,0.3-0.2,0.2-0.5
		c-0.4-0.1-0.8-0.3-1.3-0.3C35.2,70.1,35.6,70.3,36.2,70.4z M89.3,74.5c0.1,0,0.1,0.1,0.2,0.1c0.5-0.1,1.1-0.3,1.3-0.7
		C90.2,73.5,89.2,73.8,89.3,74.5z M72.5,74.9c0.1-0.1,0.3-0.2,0.2-0.4c-0.1,0-0.1-0.1-0.1-0.1C71.6,74,71.6,74.9,72.5,74.9z
		 M48.1,74.9c0.4,0,0.7-0.2,0.8-0.5C48.5,74.2,47.8,74.5,48.1,74.9z M31.1,75.2c0.6,0.2,1.4,0,1.1-0.6
		C31.6,74.5,31.2,74.7,31.1,75.2z M84.4,78.2c0.3,0.1,0.7,0.1,1.2,0.1C85.7,77.7,84.3,77.3,84.4,78.2z M35.2,80
		c0.4-0.2,0.8-0.4,1.2-0.5c0-0.2-0.2-0.3-0.2-0.5C35.5,79.1,35.1,79.3,35.2,80z M83.5,19.3c0.3-0.3,0.8-0.5,1.1-0.9
		c-0.6-0.1-1.2-0.1-1.8-0.2c-0.2,0-0.4,0-0.6,0c-0.2-0.1,0.2-0.1,0.3-0.1c1.1,0,2.4-0.1,3.3,0.1c-0.2,0.3-0.8,0.3-1,0.7
		c2.8,0.3,6-0.3,8.2-1c0.5-0.1-0.2,0.2-0.4,0.3C90.4,19.1,87,19.4,83.5,19.3z M86.7,23.1C86.6,23.1,86.5,23.2,86.7,23.1
		c2.8,1,6.5,2.2,10.3,1.5C93.1,24.8,89.9,23.9,86.7,23.1z M95.2,33.2c-2.8-1.6-5.2-3.8-7.5-5.5C89.8,29.8,92.3,32,95.2,33.2z
		 M36.9,18.6c-0.6,0.2-1.6,0.1-2.2,0.4c0.2,0.3,0.7,0.4,1.1,0.6c-3.3,0.5-7.3,0-9.8-0.9c2.3,0.5,5.4,1,8.5,0.8
		c-0.2-0.4-0.7-0.4-1.1-0.7C34.4,18.7,35.9,18.6,36.9,18.6z M33,23.8c0-0.1,0-0.2-0.2-0.1c-3.1,0.9-6.3,1.8-10.3,2
		C26.9,26,29.9,24.7,33,23.8z M31.9,28.3c-2,2.3-4.4,4.2-7.2,5.8c0.3-0.4,0.9-0.7,1.4-1.1c1.4-1,2.9-2.3,4.2-3.5
		C31,29.3,31.2,28.6,31.9,28.3z"/>
	<path d="M85.6,29.2c-0.1,0.3-0.9,0.2-1.2,0.1C84.5,28.9,85.3,29.1,85.6,29.2z M84,31.5c0.5,0,1.2,0.1,1.5-0.1
		C85.1,31.4,84.2,30.9,84,31.5z M83.6,33.8c0.6,0.1,1.1,0.5,1.7,0.3c-0.4-0.4-1.2-0.4-1.7-0.7C83.6,33.6,83.6,33.7,83.6,33.8z
		 M82.5,36c0.7,0.1,1.2,0.5,1.9,0.7c-0.5-0.5-1.2-0.7-1.9-1C82.5,35.7,82.5,35.9,82.5,36z M80.9,38.1c0.7,0.2,1.1,1,1.8,1
		c-0.5-0.6-1.1-1.1-1.8-1.5C80.8,37.7,81,37.9,80.9,38.1z M80.2,41.6c-0.4-0.8-0.7-1.7-1.5-2.2C79.1,40.3,79.4,41.1,80.2,41.6z
		 M76.6,43.5c-0.1-0.8-0.4-1.9-0.9-2.5C75.6,41.8,76.1,42.8,76.6,43.5z M72.7,44.5c-0.1-0.9-0.4-1.6-0.5-2.4c-0.1,0-0.3,0-0.4,0
		C72,43,72.1,44,72.7,44.5z M35.3,29.9C35,29.7,34.1,30,34,29.6C34.4,29.6,35.2,29.4,35.3,29.9z M34.2,32.1c0.6,0,1.2,0,1.5-0.3
		C35.3,31.4,34.4,31.8,34.2,32.1z M34.6,34.6c0.7-0.1,1.7-0.1,1.8-0.7C35.8,34.2,34.9,34.2,34.6,34.6z M35.6,37
		c0.8,0,1.7-0.3,1.9-0.9C36.7,36.3,36.2,36.7,35.6,37z M37.3,39.5c0.7-0.1,1.8-0.9,1.8-1.7C38.4,38.3,37.9,38.9,37.3,39.5z M40,41.9
		c0.5-0.1,0.6-0.7,0.8-1c0.2-0.4,0.5-0.8,0.6-1.2c-0.1,0-0.1-0.1-0.2-0.1C40.7,40.4,40.3,41.1,40,41.9z M43.8,43.8
		c0.2-0.8,0.8-1.7,0.8-2.5c-0.1,0-0.2,0-0.2,0C44.1,42,43.7,43.2,43.8,43.8z M47.7,44.6c0.4-0.7,0.6-1.5,0.6-2.5c-0.1,0-0.2,0-0.2,0
		C47.9,42.9,47.6,43.9,47.7,44.6z M60.3,59.8c0.2,1,0.3,2.3,0.2,3.4C60.1,62.3,60.1,60.8,60.3,59.8z M60.2,71
		c-0.5-3.3-0.8-6.7-1.4-10c-0.1,2.5,0.3,4.7,0.7,7.1c0.3,1.9,0.6,3.9,0.7,5.9c0.3,3.7,0,7.6,0.2,11.3c0,0.4,0.1,0.9,0.3,1.3
		c-0.9-8.9,0.8-17.6,1.4-25.7C61.8,64.5,61.7,68.3,60.2,71z M65.1,29.4c0.2,0-0.1,1,0.2,1.1c0.1,0,0.2-0.3,0.3-0.1
		c-0.1,0.3-0.3,0.6-0.3,0.9C64.7,30.9,65,30,65.1,29.4z M63.3,34.8c0-0.5,0.5-1.1,0.5-1.5c-0.2,0.1-0.2,0.4-0.5,0.5
		c-0.2-0.2,0.1-0.8-0.2-1.1C62.9,33.2,62.5,34.5,63.3,34.8z M59.4,39.9c0.1-0.4,0.3-0.6,0.2-1.2c-0.4-0.1,0.1,0.6-0.3,0.5
		c-0.9-0.6-0.2-2.7-0.5-3.5C58.8,37.1,58.2,39.3,59.4,39.9z M58.2,38.2c0-0.4-0.6-0.3-0.8-0.5c-0.5-0.4-0.4-0.9-0.5-1.7
		C56.6,37.1,56.8,38.2,58.2,38.2z M61.5,39.3c0-0.1,0.1-0.1,0.2-0.1c0.1-0.2,0.1-0.6,0-0.8c-0.3-0.1,0,0.3-0.2,0.3
		c-0.7-0.3-0.7-1.2-0.9-1.9C60.6,37.9,60.5,39.2,61.5,39.3z M59.9,45.9c1.2-0.1,1.4-2.4,1.4-3.6c-0.4,0.8-0.3,3.3-1.5,3.2
		c-1.2-0.1-1.2-2.4-1.5-3.2C58.4,43.7,58.4,46,59.9,45.9z M62.5,47.7c0.2,1.3-0.4,3.2,0.2,4.4c1.2,0.2,1.7-1.1,2.1-1.8
		c0.4-0.8,0.8-1.6,0.9-2.3c0.1,1.8-0.9,3.2-1.9,4.4c-0.9,0.4-1.5-0.1-1.8-0.6c-0.7,0.7-0.9,1.8-2,1.9c-1.3,0-1.6-1.4-2.1-2.4
		c-0.5,0.5-0.3,1.4-1.3,1.4c-1.6,0-2.2-3.1-2.6-4.2c0.4,0.6,0.6,1.4,1.1,2.2c0.3,0.5,0.8,1.7,1.5,1.7c1.3,0,0.9-3.2,0.8-4.4
		c0.4,2.1,0.8,4.1,2.3,5.3C62.1,52.5,62,49.8,62.5,47.7z M62.1,53.8c0.4,0.9-0.7,2.8,0.5,3.2c1.5-0.4,1.5-2,2.1-3.1
		c0,1.6-0.8,4.1-3,3.4c-0.3,0.4-0.5,0.8-0.9,1.1c-0.5,0.1-0.7,0-1.2,0c-0.4-0.4-0.7-0.8-0.9-1.3c-1.5,1.5-2.7-1.3-2.9-2.7
		c0.5,0.9,0.7,2.8,2,2.7c1.3-0.1,0.3-2.1,0.5-3.2c0.4,1.2,0.5,4.2,2.2,4C61.8,57.9,61.6,54.8,62.1,53.8z M61.9,35
		c-0.1,1.2,0,2.7,1,3.2c0.4,0.1,0.4-0.4,0.6-0.2c0.2,0.2-0.1,0.5-0.2,0.6C61.8,38.4,61.7,36.6,61.9,35z M54.2,41.5
		c0.4,1,0.7,2.7,1.2,3.6c0.1,0.2,0.5,0.7,0.8,0.7c0.8-0.1,1-2.4,1.1-3.2c0-0.3,0-0.6,0-0.9c0.5,1.5,0.5,3.8,1.5,4.8
		c0.4,0.4,0.9,0.5,1.5,0.1c1.3-0.8,1.6-3.1,1.9-4.9c0.2,0.9-0.2,3.3,0.8,4c1.6-0.4,1.7-2.1,1.9-3.7c0.3,0.8,0,2.2,0.7,2.7
		c1.3-0.5,1.4-2,1.8-3.3c0.2,0.7-0.4,4-1.7,3.8c-0.5-0.1-0.4-0.8-0.8-1.1c-0.2,1.4-2,3.2-2.8,1.1c-0.9,0.7-0.8,2.2-2.7,2.1
		c-1-0.6-1.3-1.8-1.9-2.8c-0.3,0.5-0.5,1.1-0.8,1.7c-1.3,0.3-1.5-0.9-1.9-1.7c-0.4,0.1-0.5,0.5-0.8,0.7c-1.4-0.5-1.3-2.3-1.5-4
		c0.4,1.4,0.3,3.1,1.5,3.7C54.7,44.2,54.2,42.5,54.2,41.5z M58.4,49.6c0.6,0.7,0.7,1.9,1.5,2.5c1-0.3,1.1-1.5,1.5-2.4
		c0,1.1-0.2,2.9-1.8,2.7C59,51.6,58.7,50.6,58.4,49.6z M61.5,54.4C61.5,54,61.8,54.4,61.5,54.4c-0.1,1.1-0.3,2.7-1.3,2.8
		c-1.1,0.1-1.2-1.6-1.5-2.5c0.5,0.7,0.5,1.7,1.4,2.1C60.9,56.2,61.1,55.2,61.5,54.4z"/>
	<path id="Auge_1_" class="st0" d="M61.2,17.8c0.2,0.1,0.2,0.3,0.5,0.3c0.4-0.1,0.5-0.3,0.9-0.3C63,18.5,61,18.7,61.2,17.8z"/>
</g>
<path d="M152.4,373.5c1.4-0.9,2.4-1.9,3.1-2.9c0.9-1.3,1.3-2.8,1.3-4.3c0-2.7-1.1-4.9-3.3-6.6c-2.2-1.8-5.6-2.6-10.2-2.6
	c-3.5,0-6.3,0.7-8.4,2.1c-2.7,1.8-4.1,4.2-4.1,7.1c0,1.8,0.5,3.3,1.4,4.7c0.7,1,1.8,1.9,3.3,2.7c-2,0.8-3.4,1.9-4.3,3.3
	c-0.9,1.4-1.4,3.1-1.4,5.1c0,2.1,0.5,3.9,1.5,5.6c1,1.7,2.5,2.9,4.4,3.8c1.9,0.9,4.7,1.3,8.4,1.3c1.9,0,3.8-0.2,5.5-0.6
	c1.7-0.4,3.1-1,4.3-1.8c1.2-0.8,2.1-2,2.9-3.5c0.8-1.5,1.2-3.1,1.2-4.8c0-1.8-0.5-3.4-1.4-4.9C155.7,375.6,154.3,374.4,152.4,373.5z
	 M141,363.9c0.7-0.7,1.7-1.1,2.8-1.1c1.1,0,2.1,0.4,2.8,1.1c0.7,0.7,1.1,1.7,1.1,2.9c0,1.1-0.4,2.1-1.1,2.8
	c-0.7,0.7-1.6,1.1-2.7,1.1c-1.2,0-2.2-0.4-3-1.1c-0.7-0.7-1.1-1.7-1.1-2.9C139.9,365.6,140.3,364.7,141,363.9z M147,385.3
	c-0.9,1-1.9,1.5-3.1,1.5c-1.2,0-2.2-0.5-3.2-1.4c-0.9-1-1.4-2.2-1.4-3.7c0-1.6,0.4-2.9,1.3-3.8c0.9-0.9,1.9-1.4,3.1-1.4
	c1.2,0,2.3,0.5,3.2,1.5c0.9,1,1.4,2.2,1.4,3.7C148.4,383.1,147.9,384.3,147,385.3z M101.6,376.8c-0.9,1.4-1.4,3.1-1.4,5.1
	c0,2.1,0.5,3.9,1.5,5.6c1,1.7,2.5,2.9,4.4,3.8c1.9,0.9,4.7,1.3,8.4,1.3c1.9,0,3.8-0.2,5.5-0.6c1.7-0.4,3.1-1,4.3-1.8
	c1.2-0.8,2.1-2,2.9-3.5c0.8-1.5,1.2-3.1,1.2-4.8c0-1.8-0.5-3.4-1.4-4.9c-0.9-1.5-2.3-2.7-4.2-3.5c1.4-0.9,2.4-1.9,3.1-2.9
	c0.9-1.3,1.3-2.8,1.3-4.3c0-2.7-1.1-4.9-3.3-6.6c-2.2-1.8-5.6-2.6-10.2-2.6c-3.5,0-6.3,0.7-8.4,2.1c-2.7,1.8-4.1,4.2-4.1,7.1
	c0,1.8,0.5,3.3,1.4,4.7c0.7,1,1.8,1.9,3.3,2.7C103.9,374.3,102.5,375.4,101.6,376.8z M111.3,363.9c0.7-0.7,1.7-1.1,2.8-1.1
	c1.1,0,2.1,0.4,2.8,1.1c0.7,0.7,1.1,1.7,1.1,2.9c0,1.1-0.4,2.1-1.1,2.8c-0.7,0.7-1.6,1.1-2.7,1.1c-1.2,0-2.2-0.4-3-1.1
	c-0.7-0.7-1.1-1.7-1.1-2.9C110.2,365.6,110.6,364.7,111.3,363.9z M111,377.8c0.9-0.9,1.9-1.4,3.1-1.4c1.2,0,2.3,0.5,3.2,1.5
	c0.9,1,1.4,2.2,1.4,3.7c0,1.5-0.5,2.7-1.4,3.7c-0.9,1-1.9,1.5-3.1,1.5c-1.2,0-2.2-0.5-3.2-1.4c-0.9-1-1.4-2.2-1.4-3.7
	C109.7,380,110.1,378.7,111,377.8z M184.1,374.2c-0.7-0.4-1.7-0.8-3.1-1.2c1.6-0.9,2.9-2,3.7-3.2c0.8-1.2,1.2-2.6,1.2-4
	c0-2.5-1-4.6-3-6.3c-2-1.7-5.3-2.5-9.8-2.5c-3.9,0-6.9,0.8-9.1,2.3c-2.1,1.5-3.6,3.7-4.3,6.6l9,1.6c0.3-1.7,0.7-2.9,1.4-3.6
	c0.7-0.7,1.6-1,2.7-1c1.1,0,2,0.3,2.6,0.9c0.6,0.6,0.9,1.5,0.9,2.5c0,1.1-0.4,2-1.3,2.8c-0.8,0.8-1.9,1.2-3.1,1.2
	c-0.3,0-0.7,0-1.2-0.1l-0.5,6.8c1.3-0.4,2.4-0.6,3.1-0.6c1.4,0,2.5,0.4,3.3,1.3c0.8,0.9,1.2,2.1,1.2,3.7c0,1.6-0.4,2.8-1.3,3.8
	c-0.9,0.9-1.9,1.4-3.2,1.4c-1.2,0-2.2-0.4-3-1.1c-0.8-0.7-1.4-2.1-1.8-4l-9.6,1.3c0.6,2.1,1.5,3.9,2.7,5.3c1.2,1.4,2.7,2.5,4.5,3.2
	c1.8,0.7,4.3,1.1,7.4,1.1c3.2,0,5.8-0.5,7.8-1.5c2-1,3.5-2.4,4.5-4.3c1-1.8,1.6-3.8,1.6-5.8c0-1.6-0.3-3-1-4.1
	C186.1,375.9,185.2,374.9,184.1,374.2z M0,0v314.8c0,25.1,11.6,46.6,28.4,64.4c25.2,26.8,62.3,45.9,93,58.6
	c30.8,12.7,55.3,18.8,55.5,18.8l1.2,0.3l1.2-0.3c0.2-0.1,43.9-10.9,87.9-33.7c22-11.4,44.1-25.9,61-43.7
	c16.8-17.8,28.5-39.4,28.5-64.4c0-55.3,0-309.8,0-309.8V0H0z M10,10h100.8v87.8H10C10,55.9,10,22.3,10,10z M346.7,314.8
	c0,21.8-10,40.9-25.7,57.6c-23.5,25-59.6,43.8-89.8,56.2c-15.1,6.2-28.7,10.8-38.5,13.9c-4.9,1.5-8.9,2.7-11.6,3.4
	c-1.3,0.4-2.3,0.6-3,0.8c-0.2-0.1-0.4-0.1-0.7-0.2c-9.3-2.5-51.8-14.6-91.6-36.7c-19.9-11.1-39.1-24.7-53.1-40.5
	c-14-15.9-22.8-33.9-22.8-54.4c0-32,0-78.1,0-125.1h336.7V314.8z M346.7,169.8H10v-16.1h336.7V169.8z M346.7,133.8H10v-16h336.7
	V133.8z M346.7,97.8H111.5v-16h235.2V97.8z M346.7,61.8H111.5v-16h235.2V61.8z M346.7,25.8H111.5V10h235.2V25.8z M231.1,392.1h10.2
	v-9.6h-10.2V392.1z M82.5,369.1v23h9.7v-35h-7.9c-1,2.2-2.4,4-4.2,5.5c-1.8,1.5-4.3,2.7-7.6,3.8v7.8c2.2-0.7,4-1.4,5.5-2.1
	C79.4,371.3,80.9,370.3,82.5,369.1z M130.2,343.5c1.8-0.2,3.1-0.6,4-1.1c1.4-0.8,2.6-2,3.4-3.4c0.8-1.4,1.2-3,1.2-4.8
	c0-2.2-0.6-4-1.8-5.5c-1.2-1.4-3-2.5-5.5-3.1c1.6-0.6,2.9-1.3,3.7-2.3c1.3-1.5,1.9-3.2,1.9-5.2c0-2.4-0.9-4.5-2.7-6.1
	c-1.8-1.6-4.3-2.5-7.6-2.5h-19.9v34.5h18.4C126.2,343.9,127.8,343.8,130.2,343.5z M117.8,316.5h4.7c1.6,0,2.7,0.3,3.4,0.8
	c0.6,0.6,1,1.3,1,2.4c0,1.1-0.3,1.9-1,2.5c-0.7,0.6-1.8,0.9-3.5,0.9h-4.6V316.5z M117.8,336.5v-7h5.4c1.9,0,3.2,0.3,3.9,0.9
	c0.7,0.6,1.1,1.4,1.1,2.5c0,1.1-0.4,2-1.1,2.6c-0.8,0.7-2,1-3.9,1H117.8z M190.1,330h0.9c1,0,1.8,0.3,2.6,0.8
	c0.6,0.4,1.2,1.3,1.9,2.7l5.7,10.5h12l-5.2-10c-0.2-0.5-0.7-1.2-1.5-2.1c-0.7-0.9-1.3-1.5-1.7-1.8c-0.6-0.4-1.5-0.8-2.8-1.3
	c1.6-0.4,2.8-0.8,3.7-1.4c1.4-0.9,2.5-2,3.4-3.4c0.8-1.4,1.2-3,1.2-4.9c0-2.2-0.5-4.1-1.6-5.6c-1.1-1.5-2.5-2.6-4.2-3.1
	c-1.7-0.6-4.3-0.8-7.5-0.8h-17.7v34.5h10.7V330z M190.1,316.4h4.7c1.9,0,3.3,0.3,4,0.9c0.7,0.6,1.1,1.4,1.1,2.6c0,0.8-0.2,1.4-0.7,2
	c-0.4,0.6-1,0.9-1.7,1.1c-1.4,0.3-2.3,0.5-2.8,0.5h-4.5V316.4z M158.8,337.8c-2,0-3.6-0.7-4.7-2.1c-0.7-0.9-1.1-2.1-1.3-3.8
	l-10.1,0.6c0.3,3.5,1.6,6.3,3.8,8.6c2.3,2.3,6.3,3.4,12.2,3.4c3.3,0,6.1-0.5,8.3-1.4c2.2-1,3.9-2.4,5.1-4.2c1.2-1.9,1.8-3.9,1.8-6.1
	c0-1.9-0.5-3.6-1.4-5.1c-0.9-1.5-2.4-2.8-4.4-3.8c-2-1-5.3-2-10-3c-1.9-0.4-3.1-0.8-3.6-1.3c-0.5-0.4-0.8-0.9-0.8-1.5
	c0-0.8,0.3-1.4,0.9-1.9c0.6-0.5,1.6-0.8,2.8-0.8c1.5,0,2.7,0.4,3.5,1.1c0.9,0.7,1.4,1.8,1.7,3.4l10-0.6c-0.4-3.6-1.8-6.2-4.1-7.8
	c-2.3-1.6-5.7-2.5-10.1-2.5c-3.6,0-6.4,0.5-8.5,1.4c-2.1,0.9-3.6,2.1-4.6,3.7c-1,1.6-1.5,3.2-1.5,5c0,2.7,1,4.9,3,6.7
	c2,1.7,5.3,3.1,10,4.2c2.9,0.6,4.7,1.3,5.5,2c0.8,0.7,1.2,1.5,1.2,2.4c0,0.9-0.4,1.8-1.2,2.5C161.5,337.4,160.3,337.8,158.8,337.8z
	 M200.2,379.6c0,2.7,0.6,5.1,1.9,7.2c1.2,2,2.8,3.5,4.7,4.4c1.9,0.9,4.5,1.4,7.8,1.4c3.8,0,6.7-0.5,8.8-1.6c2-1.1,3.8-2.9,5.2-5.4
	l-9.4-0.9c-0.6,0.8-1.2,1.3-1.7,1.6c-0.8,0.5-1.7,0.7-2.7,0.7c-1.5,0-2.7-0.5-3.6-1.6c-0.7-0.8-1.1-1.9-1.2-3.4h19.2v-1.1
	c0-3.3-0.5-6-1.6-8c-1.1-2.1-2.7-3.6-4.7-4.7c-2.1-1.1-4.9-1.6-8.5-1.6c-4.4,0-7.9,1.2-10.4,3.6
	C201.4,372.6,200.2,375.7,200.2,379.6z M211,374c0.9-1.2,2.1-1.8,3.6-1.8c1.3,0,2.4,0.4,3.2,1.2c0.8,0.8,1.3,2.1,1.5,4h-9.4
	C210.1,375.9,210.5,374.8,211,374z M275.2,392.1h10.2v-9.6h-10.2V392.1z M227.4,335.5l5.5-5.8l7.3,14.2h13.1l-13.1-21.4l12.6-13
	h-14.2l-11.2,13v-13h-10.6v34.5h10.6V335.5z M256.6,392.1h11.5l12.8-34.5h-10.8l-7.7,24.8l-7.8-24.8h-11.1L256.6,392.1z"/>
</svg>
