<?xml version="1.0" encoding="UTF-8"?>
<!DOCTYPE svg PUBLIC "-//W3C//DTD SVG 1.1//EN" "http://www.w3.org/Graphics/SVG/1.1/DTD/svg11.dtd">
<svg width="100%" height="100%" viewBox="0 0 800 800" version="1.1" xmlns="http://www.w3.org/2000/svg" xmlns:xlink="http://www.w3.org/1999/xlink" xml:space="preserve" style="fill-rule:evenodd;clip-rule:evenodd;stroke-linejoin:round;stroke-miterlimit:1.41421;">
    <g transform="matrix(1.09859,0,0,1.09859,-39.4366,-39.4366)">
        <g id="SVO">
            <g id="Wappen">
                <g transform="matrix(1.05993,0,0,1.05993,-23.9721,-23.9721)">
                    <path d="M400,65.072C584.852,65.072 734.928,215.148 734.928,400C734.928,584.852 584.852,734.928 400,734.928C385.772,734.928 270.746,734.928 270.746,734.928L270.746,714.309C269.341,667.149 250.243,620.977 215.271,585.861C167.432,537.827 113.667,529.643 85.474,528.31L65.072,528.31L65.072,400C65.072,215.148 215.148,65.072 400,65.072Z" style="fill:white;"></path>
                </g>
                <g id="Stadtwappen" transform="matrix(0.61182,0,0,0.61182,-33.1052,-0.0540647)">
                    <g transform="matrix(1,0,0,1,706.041,770.453)">
                        <path d="M0,-147.509C-5.114,-147.101 -10.167,-145.052 -14.88,-143.32C-24.41,-139.812 -33.232,-134.868 -43.543,-133.234C-53.072,-131.722 -58.967,-134.614 -65.568,-140.224C-74.667,-147.948 -82.355,-142.359 -93.082,-140.64C-94.5,-140.413 -99.75,-139.251 -102.646,-138.105C-105.25,-137.081 -104.135,-137.511 -107.139,-136.134C-110.365,-134.654 -112.332,-134.484 -115.587,-133.859C-118.772,-133.245 -122.246,-132.267 -125.6,-132.605C-128.659,-132.915 -131.491,-133.759 -133.896,-135.784C-136.101,-137.63 -136.992,-139.728 -139.108,-140.038L-139.123,-140.038L-139.123,0.527C5.512,0.527 16.77,-133.204 16.77,-133.204L16.77,-142.101C11.381,-143.902 6.625,-148.036 0,-147.509" style="fill:rgb(255,191,0);fill-rule:nonzero;stroke:black;stroke-width:2.98px;"></path>
                    </g>
                    <g transform="matrix(1,0,0,1,412.361,426.178)">
                        <path d="M0,201.838C0.477,201.547 1.078,200.914 1.585,200.533C2.656,199.748 3.834,199.217 4.927,198.531C6.04,197.822 9.645,197.383 11.119,197.277C14.076,197.065 13.688,197.254 16.605,197.426C18.121,197.522 19.596,197.807 21.066,198.029C22.429,198.238 23.775,198.652 25.055,199.027C26.315,199.404 27.448,199.65 28.915,200.147C30.576,200.699 31.945,201.272 34.007,201.992C35.955,202.668 38.086,203.311 40.104,203.947C42.43,204.682 44.629,205.551 46.941,206.483C48.82,207.238 50.983,207.811 52.963,208.414C56.445,209.461 59.85,210.865 63.785,210.526C65.788,210.358 67.545,209.715 69.394,209.24C71.131,208.801 72.518,208.289 74.167,207.574C74.994,207.205 75.846,206.883 76.693,206.481C77.631,206.018 78.523,205.522 79.615,204.996C81.281,204.19 82.333,203.746 84.42,202.568C86.586,201.35 90.028,199.774 92.528,199.418C94.758,199.098 96.534,199.147 98.711,199.77C99.521,200 101.158,200.479 102.005,200.748C102.799,201.012 102.611,200.984 103.506,201.24C104.993,201.654 106.35,202.043 108.326,202.697C111.701,203.82 114.9,204.93 118.133,206.067C121.136,207.111 124.034,208.178 127.083,209.295C128.689,209.877 130.426,210.256 132.084,210.752C133.732,211.256 135.395,211.875 137.121,211.879C140.297,211.887 143.735,210.389 146.281,208.436C147.535,207.475 148.801,206.524 150.055,205.539C151.276,204.582 152.501,204.252 154.557,204.236L154.557,-10.049L-1.337,-10.049L-1.337,202.693C-1.115,202.027 -0.487,202.147 0,201.838" style="fill:white;fill-rule:nonzero;stroke:black;stroke-width:2.98px;"></path>
                    </g>
                    <g>
                        <g transform="matrix(1,0,0,1,450.363,630.238)">
                            <path d="M0,-42.045C0,-38.106 0.171,-34.424 0.217,-30.447C0.269,-26.307 0.32,-22.389 0.398,-18.565C-1.595,-17.35 -1.683,-17.994 -1.67,-16.871C-1.65,-15.703 -0.832,-16.736 -0.025,-15.037C0.348,-14.256 0,-12.467 0,-11.588L0,-7.68C0,-5.369 0.01,-3.049 0,-0.738C-0.006,1.178 -0.145,5.928 0.663,5.277C2.289,3.969 -2.674,4.684 5.667,7.894C7.567,8.619 9.483,9.547 11.523,9.674C13.311,9.508 13.659,8.518 13.853,6.316C14.122,3.277 14.596,0.258 13.944,-4.039C13.725,-5.498 14.049,-5.668 14.05,-7.277C14.051,-8.619 13.707,-9.818 13.773,-11.17C13.927,-14.264 13.479,-17.531 13.496,-20.678C13.523,-27.857 13.507,-30.381 13.496,-35.084C13.48,-38.984 14.273,-46.502 14.273,-46.502C13.963,-46.623 14.804,-50.309 15.52,-50.614C14.594,-51.448 13.213,-51.719 10.294,-51.649C9.621,-51.623 8.381,-49.707 7.758,-49.315C7.05,-48.877 5.99,-48.475 5.183,-47.998C3.713,-47.113 -1.67,-44.137 0,-40.098" style="fill-rule:nonzero;"></path>
                        </g>
                        <g transform="matrix(1,0,0,1,444.027,454.616)">
                            <path d="M0,137.124C-2.351,140.083 -1.787,142.903 -2.899,146.231C-4.324,150.497 -5.627,151.845 -10.088,152.062C-12.664,152.187 -18.184,153.147 -19.027,149.62C-21.465,149.409 -22.475,152.888 -24.525,153.399C-27.415,154.138 -25.879,150.617 -25.879,148.695C-25.879,146.326 -24.117,143.341 -22.717,141.453C-20.043,137.85 -20.963,138.989 -19.742,137.665C-14.182,131.601 -9.922,125.634 -7.008,118.142C-5.277,113.7 -5.203,109.022 -4.559,104.263C-9.279,106.353 -13.12,116.073 -19.484,114.743C-19.725,113.759 -19.901,112.772 -20.137,111.786C-22.234,111.659 -24.995,110.813 -24.995,110.813C-24.995,110.813 -23.573,107.515 -22.803,106.245C-20.482,102.429 -22.082,99.728 -21.483,95.599C-20.844,91.19 -17.945,91.882 -15.154,89.415C-12.213,86.813 -14.646,83.05 -10.396,80.89C-8.92,80.544 -8.346,79.983 -7.495,79.249C-5.918,77.89 -4.447,76.565 -3.394,74.743C-2.303,72.87 -1.631,70.954 -1.237,68.833C-0.882,66.938 0.265,64.384 0.176,62.538C-5.408,61.638 -6.633,69.884 -13.364,67.177C-13.934,65.558 -13.932,64.229 -13.738,62.544C-15.01,61.54 -14.669,60.192 -16.533,59.497C-18.119,58.907 -19.877,59.171 -21.436,58.556C-24.027,54.833 -21.633,49.567 -19.047,46.845C-13.3,40.784 -0.921,35.525 3.342,27.9C5.088,24.778 1.3,22.415 -3.197,25.423C-4.787,26.485 -4.583,27.06 -7.642,26.944C-11.606,26.793 -13.834,26.303 -8.608,21.403C-6.817,19.724 -5.217,19.04 -5.61,16.026C-5.875,14.005 -7.381,13.036 -7.015,10.478C-6.555,7.231 -4.213,5.253 -3.679,1.852C-3.407,0.12 -4.264,-2.094 -3.197,-3.511C-2.26,-4.756 -0.996,-4.858 -0.056,-6.485C1.709,-9.53 2.543,-11.776 6.076,-12.6C8.204,-13.096 10.097,-13.004 11.145,-14.778C12.957,-17.845 14.994,-15.441 15.564,-17.014C18.354,-16.939 16.552,-13.499 17.244,-11.836C17.819,-10.446 19.198,-9.992 19.932,-8.617C20.725,-7.145 20.753,-3.904 21.747,-2.681C22.935,-1.226 25.453,-1.269 26.413,0.412C28.381,0.762 32.296,2.621 32.207,4.635C32.053,8.11 21.226,10.018 25.431,11.113C31.444,12.679 35.123,20.634 38.559,23.042C39.606,26.481 40.607,27.558 37.559,30.286C35.969,31.71 35.545,31.71 33.322,32.177C32.482,32.351 28.829,32.745 28.299,33.286C27.533,34.075 30.546,38.546 31.02,40.034C32.246,43.886 36.542,43.691 38.521,43.92C39.541,46.904 39.16,46.777 41.18,49.217C43.578,52.107 49.455,54.985 40.848,56.655C37.508,57.302 31.092,57.985 28.213,56.63C26.178,55.671 27.43,52.841 25.021,52.517C23.641,56.81 25.268,59.269 28.106,62.429C29.361,63.827 30.799,65.019 31.727,66.659C32.643,68.269 32.732,70.099 33.926,71.628C36.015,71.794 36.519,75.287 37.441,77.519C38.616,80.363 30.58,79.306 28.034,79.466C26.664,79.554 24.796,79.311 24.691,81.128C24.577,83.106 26.529,82.47 27.695,83.425C29.677,85.044 29.971,88.767 32.72,89.806C33.109,91.425 34.654,92.856 36.057,93.425C36.416,95.181 36.114,98.407 36.992,99.995C37.367,100.669 38.813,101.054 39.172,101.714C39.702,102.694 39.416,104.165 39.492,105.286C41.811,106.327 46.164,115.411 42.781,114.515C36.821,112.958 35.28,112.003 33.83,110.394C32.813,110.103 30.07,107.147 29.135,107.556C27.591,108.224 28.82,112.993 29.346,114.04C31.443,118.229 34.711,119.956 35.041,125.038C35.889,125.325 36.59,125.759 37.448,125.974C37.775,128.909 38.748,131.311 38.932,134.497C40.755,135.128 42.73,140.438 40.557,141.226C38.256,142.063 35.871,139.435 34.991,138.177C33.865,136.56 32.346,135.753 30.816,134.269C29.289,132.778 29.569,131.759 27.764,130.923C24.029,129.198 22.641,124.27 18.299,124.538C14.041,124.79 12.874,128.517 9.752,130.735C6.223,133.253 2.891,133.481 0,137.124" style="fill:rgb(0,153,0);fill-rule:nonzero;stroke:black;stroke-width:1.49px;"></path>
                        </g>
                    </g>
                    <g>
                        <g transform="matrix(1,0,0,1,512.263,636.886)">
                            <path d="M0,-38.398C0.495,-37.966 0.729,-36.882 1.077,-36.285C1.649,-35.279 1.757,-34.316 2.163,-33.179C2.756,-31.517 3.81,-30.216 4.825,-28.828C5.929,-27.314 5.32,-25.359 5.319,-23.488C5.319,-21.377 5.39,-18.24 5.368,-16.103C5.343,-14.076 4.018,-13.96 3.651,-12.115C3.284,-10.255 3.307,-8.589 3.028,-6.683C2.767,-4.904 2.44,-3.377 4.483,-2.841C5.327,-2.621 6.328,-2.675 7.2,-2.507C8.281,-2.304 8.931,-1.914 9.858,-1.316C11.854,-0.046 13.983,0.498 16.278,0.719C16.905,0.774 17.896,1.391 18.387,0.956C18.703,0.674 18.896,-1.373 18.979,-1.794C19.347,-3.57 19.36,-5.88 19.172,-7.755C18.972,-9.709 19.072,-11.361 19.193,-13.257C19.304,-14.968 20.595,-15.46 20.862,-17.117C20.985,-17.865 20.724,-20.158 20.344,-20.769C19.996,-21.337 19.566,-22.003 19.298,-22.652C18.998,-23.384 19.058,-23.507 19.089,-24.285C19.132,-25.234 18.903,-26.07 19.193,-26.931C19.784,-28.668 20.621,-27.275 20.757,-32.173C20.804,-33.81 21.492,-36.072 21.267,-37.664C19.042,-37.052 16.673,-37.255 14.306,-37.138C14.195,-36.378 14.101,-35.523 14.046,-34.746C13.909,-32.8 13.478,-32.877 12.751,-32.767C10.499,-32.423 10.788,-33.695 10.362,-34.851C8.763,-39.24 11.194,-39.789 3.133,-39.234C2.085,-39.169 1.003,-38.857 0.121,-38.38C0.093,-38.277 0.118,-38.191 0.104,-38.093" style="fill-rule:nonzero;stroke:black;stroke-width:1.49px;"></path>
                        </g>
                        <g transform="matrix(1,0,0,1,531.32,442.629)">
                            <path d="M0,156.832C-3.869,157.238 -7.477,156.012 -10.922,155.23C-13.35,154.68 -20.406,156.475 -20.91,153.814C-23.553,153.475 -28.222,152.709 -29.999,150.658C-29.859,147.613 -31.416,147.855 -32.338,145.771C-33.064,144.125 -32.9,141.65 -33.439,139.912C-33.746,138.932 -34.381,138.67 -34.217,137.352C-34.016,135.699 -33.271,136.201 -32.746,135.209C-31.691,133.238 -31.837,131.631 -31.717,129.285C-31.604,127.113 -31.062,124.629 -31.655,122.555C-32.262,120.428 -33.199,120.125 -35.271,119.207C-38.309,117.873 -41.055,114.623 -42.303,111.221C-42.975,109.385 -42.736,107.252 -43.452,105.418C-44.063,103.867 -45.016,102.363 -45.338,100.35C-45.629,98.537 -46.708,96.514 -46.736,94.791C-46.797,91.611 -44.838,92.375 -43.17,90.566C-40.242,87.379 -40.693,83.023 -40.897,78.934C-41.027,76.285 -40.912,74.896 -39.507,73.092C-38.338,71.592 -37.021,70.523 -36.385,68.703C-35.184,65.275 -38.377,61.785 -39.228,58.627C-39.882,56.193 -38.115,54.814 -37.565,52.779C-36.992,50.662 -37.115,48.934 -37.344,46.727C-37.63,43.885 -37.57,43.322 -35.67,41.301C-34.359,39.904 -33.867,38.379 -32.628,36.853C-31.928,35.988 -31.18,36.35 -30.604,35.26C-30.051,34.205 -30.379,32.801 -30.325,31.643C-30.226,29.475 -29.93,27.258 -30.042,24.959C-30.127,23.17 -30.598,21.26 -30,19.451C-29.508,19.379 -29.225,19.109 -28.705,19.08C-26.302,13.883 -22.052,13.508 -16.736,14.355C-16.908,11.086 -15.282,11.174 -13.843,8.9C-12.506,6.79 -13.221,4.917 -11.423,2.977C-11.215,2.754 -10.398,2.854 -10.012,2.448C-9.77,2.192 -9.705,1.199 -9.391,0.834C-8.136,-0.63 -8.592,-0.528 -6.681,-0.906C-4.533,-1.324 -1.318,-1.169 -0.789,1.273C0.856,2.354 2.133,2.35 3.398,4.041C4.186,5.088 5.396,7.066 5.916,8.477C6.678,10.555 5.492,12.938 5.838,14.954C6.178,16.904 7.592,17.712 8.91,19.115C11.247,21.615 13.332,24.861 14.18,28.033C15.227,31.973 14.993,39.639 14.741,43.605C14.461,48.051 11.664,48.809 15.361,51.611C18.58,54.053 20.008,55.893 21.415,59.742C22.629,63.053 23.671,66.682 24.834,70.234C25.438,72.08 26.549,72.969 26.072,75.24C25.542,77.764 25.271,78.012 25.946,80.529C26.702,83.355 26.036,84.5 25.229,86.928C24.851,88.064 24.521,89.186 24.124,90.271C23.643,91.58 22.719,91.893 23.134,93.633C27.212,95.24 19.416,105.656 25.55,105.678C26.238,107.394 27.563,108.42 28.408,110.09C24.987,113.432 28.666,113.381 28.658,116.496C28.654,118.375 24.223,120.91 28.326,121.545C28.817,123.172 26.856,124.557 25.641,125.166C25.441,126.369 24.756,127.221 24.477,128.449C24.183,129.779 24.722,130.891 24.487,132.068C24.208,133.441 22.85,137.644 21.736,137.672C21.921,140.053 20.869,140.691 20.011,142.623C19.619,143.514 19.857,144.846 19.493,145.699C18.969,146.908 17.975,146.703 17.754,148.158C16.488,148.41 15.537,149.228 15.813,150.658C14.678,151.305 13.327,151.424 12.002,151.219C12.043,147.623 6.944,151.682 6.127,152.867C5.965,153.102 5.363,154.535 5.289,154.609C4.963,154.937 4.09,155.215 3.879,155.43C2.911,156.416 1.465,155.834 1.902,157.904C-0.084,158.156 -1.59,157.154 -3.338,156.551" style="fill:rgb(0,153,0);fill-rule:nonzero;stroke:black;stroke-width:1.49px;stroke-linejoin:miter;stroke-miterlimit:10;"></path>
                        </g>
                    </g>
                    <g transform="matrix(1,0,0,1,562.416,762.505)">
                        <path d="M0,-130.788C-1.254,-129.804 -2.52,-128.852 -3.773,-127.892C-6.319,-125.938 -9.758,-124.44 -12.934,-124.448C-14.66,-124.452 -16.322,-125.071 -17.971,-125.575C-19.629,-126.071 -21.365,-126.45 -22.972,-127.032C-26.021,-128.149 -28.919,-129.216 -31.922,-130.261C-35.154,-131.397 -38.354,-132.507 -41.729,-133.63C-43.705,-134.284 -45.062,-134.673 -46.549,-135.087C-47.443,-135.343 -47.256,-135.315 -48.05,-135.579C-48.896,-135.849 -50.533,-136.327 -51.344,-136.558C-53.521,-137.181 -55.297,-137.229 -57.526,-136.909C-60.026,-136.554 -63.469,-134.977 -65.635,-133.759C-67.722,-132.581 -68.773,-132.138 -70.439,-131.331C-71.531,-130.806 -72.424,-130.309 -73.361,-129.847C-74.209,-129.444 -75.061,-129.122 -75.888,-128.753C-77.537,-128.038 -78.924,-127.526 -80.661,-127.087C-82.51,-126.612 -84.267,-125.97 -86.27,-125.802C-90.205,-125.462 -93.609,-126.866 -97.092,-127.913C-99.071,-128.517 -101.234,-129.089 -103.113,-129.845C-105.426,-130.776 -107.625,-131.645 -109.951,-132.38C-111.969,-133.017 -114.1,-133.659 -116.048,-134.335C-118.109,-135.056 -119.479,-135.628 -121.14,-136.181C-122.606,-136.677 -123.739,-136.923 -125,-137.3C-126.279,-137.675 -127.626,-138.089 -128.988,-138.298C-130.459,-138.52 -131.934,-138.806 -133.449,-138.901C-136.367,-139.073 -135.979,-139.263 -138.936,-139.05C-140.41,-138.944 -144.015,-138.505 -145.128,-137.796C-146.221,-137.11 -147.398,-136.579 -148.47,-135.794C-148.977,-135.413 -149.578,-134.78 -150.055,-134.489C-150.542,-134.181 -151.17,-134.3 -151.392,-133.634L-151.392,-125.257C-151.392,-125.257 -140.123,8.475 4.502,8.475L4.502,-132.091C2.446,-132.075 1.222,-131.745 0,-130.788" style="fill:rgb(0,0,153);fill-rule:nonzero;stroke:black;stroke-width:2.98px;"></path>
                    </g>
                    <g transform="matrix(1,0,0,1,566.935,645.269)">
                        <path d="M0,-229.14L0,-14.859C0.005,-14.857 0.018,-14.857 0.022,-14.855C0.071,-14.855 -0.036,-14.855 0.022,-14.855C-0.036,-14.855 0.071,-14.855 0.022,-14.855C2.131,-14.544 3.031,-12.447 5.227,-10.601C7.632,-8.575 10.465,-7.732 13.523,-7.421C16.887,-7.083 20.352,-8.062 23.546,-8.675C26.791,-9.3 28.758,-9.47 31.985,-10.95C34.988,-12.327 33.873,-11.898 36.477,-12.921C39.374,-14.068 44.623,-15.23 46.041,-15.456C56.769,-17.175 64.456,-22.765 73.554,-15.04C80.167,-9.431 86.052,-6.538 95.579,-8.05C105.892,-9.685 114.714,-14.628 124.243,-18.136C128.956,-19.868 134.009,-21.917 139.134,-22.325C145.747,-22.853 150.505,-18.718 155.901,-16.917L155.901,-229.14L0,-229.14Z" style="fill:rgb(0,153,0);fill-rule:nonzero;stroke:black;stroke-width:2.98px;stroke-linejoin:miter;stroke-miterlimit:10;"></path>
                    </g>
                    <g>
                        <g transform="matrix(1,0,0,1,575.015,543.559)">
                            <path d="M0,38.441C1.804,38.441 1.768,37.974 3.547,37.714C5.875,37.382 11.388,36.445 13.801,36.232C17.59,35.892 17.627,35.248 21.238,34.476C22.319,34.246 25.415,34.277 26.531,34.162C27.528,34.058 28.978,34.162 30.031,34.162C31.851,34.164 34.626,34.181 36.304,34.623C40.284,35.64 42.683,36.076 46.902,36.076C48.813,36.076 50.868,36.39 52.154,35.658C53.436,34.929 54.505,34.14 55.597,33.127C56.363,32.408 57.093,31.99 57.629,31.136C58.128,30.353 58.458,29.337 59.038,28.638C60.009,27.466 61.034,26.595 62.376,25.824C63.282,25.304 64.467,24.822 65.399,24.359C66.325,23.906 66.55,23.808 67.073,22.931C67.534,22.146 67.938,21.072 68.382,20.289C69.329,18.627 68.913,17.074 69.261,15.287C69.417,14.503 70.386,13.332 70.829,12.671C71.778,11.271 72.3,10.285 72.294,8.498C72.29,7.236 72.167,6.087 72.398,4.847C72.611,3.67 72.399,2.734 72.503,1.615C72.563,0.912 73.293,-0.17 73.54,-0.862C73.722,-1.354 74.157,-1.959 74.271,-2.452C74.38,-2.914 74.901,-3.664 75.109,-4.12C75.218,-4.362 75.323,-4.6 75.438,-4.834C76.265,-4.975 75.764,-5.247 75.945,-5.893C76.25,-7.03 77.073,-8.041 77.923,-8.713C78.602,-9.25 79.083,-9.465 79.792,-9.889C80.531,-10.329 80.854,-10.071 81.615,-10.563C82.24,-10.969 82.397,-11.51 82.829,-12.051C83.503,-12.897 84.344,-14.641 85.226,-14.039C85.972,-13.528 85.297,-12.436 86.376,-12.469C86.859,-12.483 87.159,-11.817 87.519,-12.079C87.788,-12.274 87.989,-13.895 88.354,-14.034C88.423,-14.055 89.014,-13.991 89.087,-14.034C89.082,-13.454 89.507,-12.381 89.835,-11.961C91.31,-11.68 90.833,-13.815 91.87,-14.034C91.966,-13.036 92.54,-12.649 92.633,-11.631C93.404,-11.37 93.733,-10.879 94.202,-10.172C94.668,-9.454 94.741,-7.6 95.029,-6.836C95.779,-4.895 97.667,-7.413 98.053,-5.375C98.401,-3.608 98.022,-2.403 98.054,-0.862C98.099,0.908 98.497,2.933 97.644,4.64C96.84,6.244 95.427,7.966 95.233,9.855C95.004,12.146 94.507,14.334 94.507,16.662C94.507,18.98 94.802,21.179 94.925,23.421C94.98,24.33 95.011,25.339 94.925,26.246C94.817,27.378 94.37,27.41 93.808,28.322C92.864,29.828 92.956,31.779 91.606,32.834C90.419,33.765 89.059,34.168 88.771,35.937C88.456,37.875 91.696,37.039 93.261,37.291C95.523,37.666 94.507,37.714 99.905,37.714C101.7,37.714 100.034,37.617 102.96,37.396C104.429,37.285 107.679,34.587 109.53,36.359C110.04,36.836 110.975,39.353 111.386,39.962C111.978,40.867 111.243,40.808 111.69,41.701C112.387,43.076 114.823,42.599 116.101,43.005C118.546,43.769 119.632,44.349 122.263,44.593C123.773,44.742 125.71,45.974 127.157,46.369C129.99,47.129 131.175,48.132 134.235,47.961C134.488,47.502 136.681,46.625 137.077,46.339C137.447,46.804 137.464,47.453 137.632,47.961C137.782,48.429 138.797,49.209 138.916,49.689C140.899,50.322 138.675,51.882 137.632,52.289C136.208,52.843 132.997,53.048 131.438,53.046C129.573,53.045 128.144,53.082 126.567,52.287C124.866,51.421 123.444,51.554 121.53,51.488C120.335,51.435 119.21,51.275 117.983,51.279C117.462,51.279 116.776,51.347 116.306,51.179C115.862,51.007 115.662,50.63 115.185,50.529C114.589,49.199 111.429,49.347 110.157,49.291C108.282,49.211 108.774,51.427 106.995,51.414C106.091,51.408 104.36,50.425 103.771,49.943C101.296,47.961 99.647,48.195 98.925,47.638C98.523,47.332 96.962,46.375 96.823,45.859C95.896,45.812 95.423,45.65 94.716,46.339C94.054,46.986 94.004,47.744 92.946,47.949C90.92,48.334 88.229,47.423 86.173,47.525C82.585,47.693 79.257,47.908 75.841,47.14C73.958,46.716 72.688,46.464 71.144,46.339C70.323,46.269 69.084,46.203 68.382,45.849C66.132,44.693 62.7,44.478 61.235,44.341C59.678,44.199 59.336,44.209 57.897,44.341C56.669,44.457 54.675,43.332 53.515,43.005C52.066,42.597 51.266,42.511 49.737,42.511C45.118,42.511 40.358,41.619 35.887,40.841C32.1,40.195 28.845,39.269 24.931,39.279C16.595,39.296 8.229,38.441 -0.105,38.441" style="fill-rule:nonzero;"></path>
                        </g>
                        <g transform="matrix(1,0,0,1,602.342,553.71)">
                            <path d="M0,25.057C2.449,25.057 2.355,25.039 4.802,25.161C7.007,25.272 8.203,25.598 10.222,25.893C12.458,26.219 15.758,27.61 18.079,27.495C20.079,27.393 23.488,27.953 25.318,27.037C26.864,26.268 28.383,24.334 29.793,23.211C31.578,21.793 32.78,19.911 34.605,18.559C36.186,17.387 37.873,16.977 39.642,16.125C40.91,15.514 40.933,14.868 41.455,13.729C41.802,12.952 42.433,12.297 42.742,11.504C43.546,9.405 43.084,7.086 43.397,4.823C43.599,3.371 44.344,3.711 44.97,2.778C45.473,1.996 45.475,0.711 45.938,-0.189C46.99,-2.302 46.47,-5.47 47.845,-7.42C48.917,-8.931 50.193,-8.882 52.72,-10.05C52.849,-10 54.27,-11.619 53.693,-10.757C53.777,-9.361 53.899,-6.377 55.775,-6.589C55.797,-5.425 55.404,-4.691 54.803,-3.664C54.109,-2.47 54.061,-2.679 53.965,-1.162C53.916,-0.287 53.461,0.34 53.965,1.202C54.383,1.897 55.3,2.27 55.921,2.875C57.349,4.26 57.24,4.934 57.166,9.688C57.128,12.557 57.328,14.828 57.166,17.754C57.119,18.739 57.035,19.77 56.741,20.666C56.365,21.85 55.631,21.69 55.085,22.612C54.333,23.889 54.783,26.676 55.502,28.741C56.729,30.014 61.085,28.446 64.543,29.995C63.927,31 62.301,31.092 62.033,32.223C61.736,33.516 61.994,34.985 61.594,36.233C59.053,36.676 56.656,36.557 54.076,36.534C52.705,36.522 51.438,36.676 50.254,36.08C49.193,35.541 48.494,34.743 47.293,34.584C45.135,34.291 42.57,34.545 40.479,34.168C38.232,33.76 37.265,32.36 34.777,32.36C32.412,32.36 30.05,32.705 27.955,31.942C25.703,31.112 22.58,31.33 20.172,30.967C17.729,30.602 19.738,30.959 14.187,30.832C13.025,30.807 13.633,31.522 9.458,29.995C8.253,29.553 6.35,29.174 5.064,29.118C4.154,29.067 1.352,28.739 0.418,28.604C-0.724,28.43 1.229,29.098 0.418,28.604C-1.045,27.729 -2.898,27.612 -4.594,27.495C-4.053,26.877 -2.672,25.36 -1.959,25.662" style="fill:white;fill-rule:nonzero;"></path>
                        </g>
                        <g transform="matrix(1,0,0,1,676.31,582.789)">
                            <path d="M0,0.779C1.609,-1.02 4.786,1.867 5.755,-1.145C6.884,-3.08 10.744,3.281 8.879,3.644C7.787,3.859 6.305,3.795 5.699,3.468C5.121,3.164 4.152,2.013 3.375,1.822C2.057,1.5 0.701,1.754 0.45,0.634" style="fill:white;fill-rule:nonzero;"></path>
                        </g>
                        <g transform="matrix(1,0,0,1,681.625,592.912)">
                            <path d="M0,-1.004C-0.506,-1.297 -1.236,-1.381 -1.926,-1.393C-2.055,-0.4 -1.254,-0.488 -0.805,0.094C0.253,0.389 0.963,-0.66 -0.281,-0.858" style="fill:white;fill-rule:nonzero;"></path>
                        </g>
                        <g transform="matrix(1,0,0,1,712.646,594.111)">
                            <path d="M0,-0.002C0,0.471 -0.391,0.861 -0.863,0.861L-9.358,0.861C-9.84,0.861 -10.222,0.471 -10.222,-0.002C-10.222,-0.484 -9.84,-0.863 -9.358,-0.863L-0.863,-0.863C-0.391,-0.863 0,-0.484 0,-0.002" style="fill:rgb(229,36,37);fill-rule:nonzero;"></path>
                        </g>
                        <g transform="matrix(1,0,0,1,698.878,592.379)">
                            <path d="M0,-0.002C0,0.475 -0.394,0.869 -0.869,0.869L-7.615,0.869C-8.101,0.869 -8.484,0.475 -8.484,-0.002C-8.484,-0.488 -8.101,-0.871 -7.615,-0.871L-0.869,-0.871C-0.394,-0.871 0,-0.488 0,-0.002" style="fill:rgb(229,36,37);fill-rule:nonzero;"></path>
                        </g>
                        <g transform="matrix(1,0,0,1,683.644,590.707)">
                            <path d="M0,-0.008C0,0.433 -0.365,0.801 -0.809,0.801L-1.419,0.801C-1.871,0.801 -2.228,0.433 -2.228,-0.008C-2.228,-0.451 -1.871,-0.809 -1.419,-0.809L-0.809,-0.809C-0.365,-0.809 0,-0.451 0,-0.008" style="fill:rgb(229,36,37);fill-rule:nonzero;"></path>
                        </g>
                        <g transform="matrix(1,0,0,1,692.203,589.019)">
                            <path d="M0,0.012C0,0.487 -0.393,0.879 -0.878,0.879L-1.287,0.879C-1.772,0.879 -2.165,0.487 -2.165,0.012C-2.165,-0.474 -1.772,-0.867 -1.287,-0.867L-0.878,-0.867C-0.393,-0.867 0,-0.474 0,0.012" style="fill:rgb(229,36,37);fill-rule:nonzero;"></path>
                        </g>
                        <g transform="matrix(1,0,0,1,677.012,588.904)">
                            <path d="M0,-0.01C0,0.541 -0.449,0.994 -1.002,0.994L-2.932,0.994C-3.486,0.994 -3.943,0.541 -3.943,-0.01C-3.943,-0.559 -3.486,-1.004 -2.932,-1.004L-1.002,-1.004C-0.449,-1.004 0,-0.559 0,-0.01" style="fill:rgb(229,36,37);fill-rule:nonzero;"></path>
                        </g>
                        <g transform="matrix(1,0,0,1,676.761,585.556)">
                            <path d="M0,-0.01C0,0.545 -0.45,1.004 -1.015,1.004L-2.679,1.004C-3.233,1.004 -3.692,0.545 -3.692,-0.01C-3.692,-0.565 -3.233,-1.014 -2.679,-1.014L-1.015,-1.014C-0.45,-1.014 0,-0.565 0,-0.01" style="fill:rgb(229,36,37);fill-rule:nonzero;"></path>
                        </g>
                    </g>
                    <g>
                        <g transform="matrix(1,0,0,1,581.794,455.689)">
                            <path d="M0,37.066C4.693,36.242 5.942,36.179 7.246,36.177C9.529,36.173 9.711,36.275 11.629,35.293C13.439,34.361 15.526,32.806 17.571,32.683C20.229,32.521 22.086,33.773 24.3,34.685C26.624,35.644 28.837,35.83 31.818,36.08C34.175,36.281 36.234,36.638 38.548,36.281C40.508,35.978 43.005,35.074 44.615,34.021C46.421,32.843 47.245,30.836 48.964,29.293C50.515,27.896 51.706,26.304 53.519,25.119C54.311,24.597 55.538,24.3 56.116,23.656C56.746,22.961 57.626,21.019 57.831,20.041C58.06,18.941 57.391,17.337 57.819,16.314C58.158,15.502 59.315,14.519 59.769,13.671C60.548,12.22 61.298,11.148 61.818,9.63C62.341,8.105 61.62,6.177 62.135,4.864C62.662,3.518 63.267,2.339 63.842,0.846C64.146,0.069 65.003,-0.786 65.439,-1.521C66.01,-2.484 65.741,-2.351 66.446,-3.914C66.858,-4.819 67.07,-5.367 67.388,-6.488C67.512,-6.929 68.038,-6.938 68.288,-7.256C68.675,-7.731 68.866,-7.954 69.198,-8.438C69.704,-9.17 69.887,-9.07 70.38,-9.758C70.833,-10.398 70.548,-11.949 71.598,-12.422C72.086,-12.227 72.399,-11.74 72.409,-10.918C73.059,-10.213 73.163,-10.453 73.932,-10.621C74.407,-10.728 73.817,-12.114 74.408,-12.158C75.351,-12.227 75.96,-13.506 76.009,-13.827C77.651,-14.204 77.175,-13.892 77.788,-15.657C78.343,-16.715 78.905,-15.607 79.042,-15.657C79.54,-14.422 78.632,-14 80.707,-13.999C81.819,-13.999 83.452,-14.733 84.117,-13.79C84.583,-13.13 84.4,-10.439 84.326,-9.585C84.203,-8.281 84.285,-8.126 84.285,-6.63C84.657,-5.957 84.044,-5.238 85.677,-5.238C86.431,-5.238 85.99,-6.665 87.005,-7.184C87.832,-6.906 87.728,-5.379 88.773,-5.307C90.326,-4.048 89.062,-2.168 89.369,-0.195C89.548,1.001 90.315,3.679 88.46,4.952C87.664,5.334 87.364,7.937 86.751,9.783C86.098,11.753 85.927,13.666 85.927,15.906C85.927,18.05 85.744,20.068 85.956,22.134C86.104,23.625 86.173,24.554 85.226,27.416C84.665,28.906 84.872,29.796 83.714,30.545C83.353,30.783 82.146,31.851 81.771,32.882C80.216,34.666 80.599,34.025 80.586,36.281C80.761,37.519 80.425,37.644 81.89,37.742C82.984,37.818 84.112,37.671 85.198,37.775C87.569,37.996 88.772,38.736 90.864,37.293C92.017,36.49 92.44,35.945 93.993,35.863C95.068,35.808 96.51,35.671 97.587,35.759C98.542,35.841 100.716,35.345 101.972,39.095C102.793,41.55 105.169,42.818 106.086,43.166C107.012,43.519 107.813,44.242 108.735,44.529C109.712,44.828 111.996,44.558 113.03,44.558C117.413,44.558 115.995,44.914 118.476,45.675C121.636,46.648 123.153,46.486 125.81,46.226C129.383,45.88 129.031,50.113 128.888,53.023C126.754,53.132 124.861,53.781 123.1,52.765C122.255,52.281 121.681,51.625 120.646,51.375C119.599,51.123 118.327,51.146 117.221,51.201C115.097,51.306 112.669,51.439 110.573,50.787C109.511,50.457 109.61,50.505 108.646,50.259C107.299,49.92 106.3,49.711 105.366,49.564C103.718,49.316 102.802,47.671 101.191,47.654C99.88,47.636 98.935,49.097 98.376,50.259C98.38,50.365 97.638,52.494 96.755,51.306C96.041,50.517 95.589,49.496 94.576,49.119C93.73,48.8 92.061,47.847 91.21,47.603C89.047,46.972 88.397,47.207 86.649,46.332C85.655,45.832 85.132,45.998 83.923,45.933C82.456,45.851 81.256,46.816 80.272,47.445C78.618,48.502 77.239,47.763 75.353,48.041C72.896,48.402 70.32,48.148 67.993,47.654C65.98,47.226 64.28,46.33 62.38,45.841C61.325,45.568 60.12,45.748 59.087,45.531C57.952,45.296 56.569,44.894 55.444,44.574C53.35,43.982 50.067,44.244 47.828,44.056C45.437,43.849 44.706,43.05 42.529,42.47C40.507,41.935 38.091,41.902 35.991,41.775C33.951,41.656 32.226,41.166 30.246,40.875C28.062,40.546 25.901,40.337 23.612,40.107C21.366,39.882 19.358,39.031 17.073,38.855C14.899,38.691 13.167,39.005 11.059,38.998C4.325,38.968 1.78,39.15 -4.336,39.15C-6.988,39.15 -6.639,39.285 -7.987,38.892" style="fill-rule:nonzero;"></path>
                        </g>
                        <g transform="matrix(1,0,0,1,594.202,463.568)">
                            <path d="M0,28.822C1.572,27.443 5.911,25.875 8.31,26.363C9.668,26.642 11.139,27.619 12.523,27.984C14.043,28.388 15.577,28.597 17.103,28.826C23.665,29.808 30.129,30.865 34.788,25.427C36.512,23.414 37.401,21.301 39.898,19.693C42.552,17.974 44.638,17.283 46.159,14.211C47.531,11.445 47.981,8.379 49.251,5.668C49.796,4.498 50.56,3.256 50.967,1.908C51.425,0.371 51.399,-2.932 51.147,-2.924C52.142,-5.919 53.923,-4.613 55.003,-6.076C56.351,-6.326 57.104,-5.99 58.132,-7.198C60.665,-10.145 59.677,-7.914 59.876,-5.604C60.042,-3.599 60.12,-2.88 59.101,-1.373C58.229,-0.076 57.525,0.252 58.584,2.168C59.255,3.384 60.704,4.23 61.612,5.187C62.884,6.535 63.039,7.285 63.224,9.211C63.542,12.566 64.044,15.826 64.061,19.431C64.067,23.144 61.945,24.791 61.327,27.98C60.353,33.031 65.706,30.154 67.759,32.422C68.444,33.179 69.363,36.174 68.862,37.176C68.38,38.16 65.888,38.541 64.892,38.629C61.343,38.967 57.667,38.705 54.519,37.736C51.538,36.82 48.106,36.41 45.077,35.492C41.765,34.488 38.733,34.597 35.059,34.457C33.042,34.375 32.063,33.963 30.489,33.515C28.999,33.092 27.167,33.074 25.664,32.828C23.948,32.551 22.46,32.363 20.663,32.369C18.55,32.373 16.952,31.623 14.856,31.531C13.45,31.472 11.79,31.824 10.421,31.543C9.29,31.312 8.614,30.426 7.567,30.019C5.21,29.119 2.004,29.965 -0.235,29.029C0.045,28.724 0.414,28.713 0.838,28.613" style="fill:white;fill-rule:nonzero;"></path>
                        </g>
                        <g transform="matrix(1,0,0,1,673.277,497.918)">
                            <path d="M0,-4.346C1.131,-4.285 2.229,-4.909 3.483,-4.905C4.569,-4.899 5.825,-5.043 6.82,-4.764C8.324,-4.342 10.949,-2.641 10.85,-0.867C10.782,0.445 10.27,0.675 9.158,0.693C8.863,0.697 7.719,0.658 7.51,0.523C7.041,0.224 7.18,-0.303 6.715,-0.621C5.758,-1.272 4.4,-0.575 3.331,-0.86C2.309,-1.139 1.896,-2.186 1.287,-2.713C0.678,-3.248 -0.572,-3.188 -0.254,-4.326C-0.074,-4.354 0.098,-4.354 0.282,-4.346" style="fill:white;fill-rule:nonzero;"></path>
                        </g>
                        <g transform="matrix(1,0,0,1,674.668,497.691)">
                            <path d="M0,-0.002C0,0.508 -0.412,0.92 -0.914,0.92L-2.412,0.92C-2.924,0.92 -3.337,0.508 -3.337,-0.002C-3.337,-0.508 -2.924,-0.922 -2.412,-0.922L-0.914,-0.922C-0.412,-0.922 0,-0.508 0,-0.002" style="fill:rgb(229,36,37);fill-rule:nonzero;"></path>
                        </g>
                        <g transform="matrix(1,0,0,1,673.004,501.08)">
                            <path d="M0,0.004C0,0.463 -0.378,0.836 -0.836,0.836L-2.5,0.836C-2.968,0.836 -3.337,0.463 -3.337,0.004C-3.337,-0.459 -2.968,-0.832 -2.5,-0.832L-0.836,-0.832C-0.378,-0.832 0,-0.459 0,0.004" style="fill:rgb(229,36,37);fill-rule:nonzero;"></path>
                        </g>
                        <g transform="matrix(1,0,0,1,687.328,502.822)">
                            <path d="M0,-0.002C0,0.498 -0.407,0.904 -0.9,0.904L-1.455,0.904C-1.957,0.904 -2.364,0.498 -2.364,-0.002C-2.364,-0.498 -1.957,-0.906 -1.455,-0.906L-0.9,-0.906C-0.407,-0.906 0,-0.498 0,-0.002" style="fill:rgb(229,36,37);fill-rule:nonzero;"></path>
                        </g>
                        <g transform="matrix(1,0,0,1,693.867,504.49)">
                            <path d="M0,0C0,0.424 -0.341,0.764 -0.764,0.764L-1.465,0.764C-1.879,0.764 -2.229,0.424 -2.229,0C-2.229,-0.424 -1.879,-0.764 -1.465,-0.764L-0.764,-0.764C-0.341,-0.764 0,-0.424 0,0" style="fill:rgb(229,36,37);fill-rule:nonzero;"></path>
                        </g>
                        <g transform="matrix(1,0,0,1,699.015,502.822)">
                            <path d="M0,-0.002C0,0.498 -0.407,0.904 -0.911,0.904L-2.71,0.904C-3.214,0.904 -3.62,0.498 -3.62,-0.002C-3.62,-0.498 -3.214,-0.906 -2.71,-0.906L-0.911,-0.906C-0.407,-0.906 0,-0.498 0,-0.002" style="fill:rgb(229,36,37);fill-rule:nonzero;"></path>
                        </g>
                        <g transform="matrix(1,0,0,1,709.445,506.16)">
                            <path d="M0,-0.002C0,0.5 -0.407,0.904 -0.9,0.904L-4.383,0.904C-4.877,0.904 -5.283,0.5 -5.283,-0.002C-5.283,-0.498 -4.877,-0.906 -4.383,-0.906L-0.9,-0.906C-0.407,-0.906 0,-0.498 0,-0.002" style="fill:rgb(229,36,37);fill-rule:nonzero;"></path>
                        </g>
                    </g>
                </g>
                <g id="_1.-SV">
                    <g transform="matrix(1,0,0,1,-130.923,44.6764)">
                        <g transform="matrix(0.93,0,0,1.09,37.0825,-44.7266)">
                            <path d="M626.82,462.294C626.393,476.144 612.175,499.077 572.485,497.676C560.06,497.237 554.15,496.334 537.817,490.226L543.879,466.269C554.426,469.915 565.481,473.762 571.755,473.762C582.171,473.762 586.922,473.064 588.377,472.135C592.49,469.512 594.963,468.65 596.308,464.626C596.923,462.785 597.808,459.247 594.789,453.994C588.573,447.775 582.819,446.141 572.23,442.275C561.944,437.848 552.914,434.163 548.734,428.444C545.52,424.048 539.275,421.626 539.626,404.906C539.699,401.416 539.945,388.221 552.624,378.325C560.831,371.921 572.491,367.763 588.051,367.763C600.811,367.763 612.433,369.616 622.004,374.255L615.471,397.647C605.405,393.211 597.906,391.346 587.686,391.461C573.781,391.616 570.684,398.314 569.747,400.496C569.039,402.148 569.713,408.406 573.294,411.141C576.419,413.485 580.486,415.683 590.967,419.914C602.1,424.407 608.299,425.66 617.245,434.447C624.601,441.673 627.182,450.562 626.82,462.294Z" style="fill:rgb(0,0,153);fill-rule:nonzero;"></path>
                        </g>
                        <g transform="matrix(0.93,0,0,1.09,37.0825,-44.7266)">
                            <path d="M695.087,466.797L702.132,437.08L723.597,369.4L755.097,369.418L711.226,496.045L676.301,496.045C676.301,491.032 635.312,373.844 635.312,369.091L668.23,369.036C668.23,369.036 685.616,430.599 687.882,438.226C689.868,444.913 695.087,466.679 695.087,466.797Z" style="fill:rgb(0,0,153);fill-rule:nonzero;"></path>
                        </g>
                    </g>
                    <g transform="matrix(1,0,0,1,87.2129,0.180911)">
                        <g transform="matrix(0.93,0,0,1.09,20.6632,-14.2828)">
                            <path d="M414.028,371.386L414.001,273.095L389.83,284.675L385.047,262.356L418.319,246.875L442.796,247.101L442.845,371.427L414.028,371.386Z" style="fill:rgb(0,0,153);fill-rule:nonzero;"></path>
                        </g>
                        <g transform="matrix(1.15338,0,0,1.37686,-102.311,-147.107)">
                            <path d="M492.325,391.692C487.822,391.692 484.348,390.437 481.903,387.928C479.458,385.419 478.236,382.138 478.236,378.085C478.236,374.032 479.49,370.687 481.999,368.049C484.508,365.412 487.918,364.093 492.228,364.093C496.539,364.093 499.981,365.347 502.554,367.856C505.127,370.365 506.414,373.646 506.414,377.699C506.414,381.752 505.192,385.098 502.747,387.735C500.302,390.373 496.828,391.692 492.325,391.692Z" style="fill:rgb(0,0,153);fill-rule:nonzero;"></path>
                        </g>
                    </g>
                </g>
                <path d="M734.928,407C731.244,586.338 586.338,731.244 407,734.928L407,624.893C525.623,621.26 621.26,525.623 624.893,407L734.928,407Z" style="fill:rgb(0,0,153);"></path>
                <g id="Weiß">
                    <g transform="matrix(-1,-1.22465e-16,1.22465e-16,-1,458.072,1141.93)">
                        <path d="M65.072,407L175.107,407C178.74,525.623 274.377,621.26 393,624.893L393,734.928C213.662,731.244 68.756,586.338 65.072,407Z" style="fill:white;"></path>
                        <path d="M65.072,407L175.107,407C178.74,525.623 274.377,621.26 393,624.893L393,734.928C213.662,731.244 68.756,586.338 65.072,407ZM388.449,730.249L388.449,629.264C270.934,623.425 176.566,529.051 170.736,411.551L69.751,411.551C75.721,584.774 215.261,724.301 388.449,730.249Z" style="fill:rgb(0,0,153);"></path>
                    </g>
                    <g transform="matrix(1.23594,0,0,1.23594,-116.248,-85)">
                        <g transform="matrix(0.882908,0.112233,-0.111212,0.874881,30.3788,28.5714)">
                            <path d="M235.838,450.103C235.838,453.112 235.306,455.751 234.243,458.019C233.179,460.286 231.657,462.036 229.676,463.268C227.695,464.499 225.424,465.115 222.863,465.115C220.329,465.115 218.069,464.506 216.081,463.289C214.093,462.071 212.554,460.332 211.462,458.071C210.37,455.81 209.817,453.21 209.803,450.271L209.803,448.759C209.803,445.75 210.345,443.101 211.43,440.812C212.515,438.524 214.048,436.767 216.028,435.542C218.009,434.317 220.273,433.705 222.821,433.705C225.368,433.705 227.632,434.317 229.613,435.542C231.594,436.767 233.126,438.524 234.211,440.812C235.296,443.101 235.838,445.743 235.838,448.738L235.838,450.103ZM229.455,448.717C229.455,445.512 228.882,443.076 227.734,441.411C226.586,439.745 224.948,438.912 222.821,438.912C220.707,438.912 219.076,439.734 217.929,441.379C216.781,443.024 216.2,445.435 216.186,448.612L216.186,450.103C216.186,453.224 216.76,455.646 217.908,457.368C219.055,459.089 220.707,459.95 222.863,459.95C224.976,459.95 226.6,459.121 227.734,457.462C228.868,455.803 229.441,453.385 229.455,450.208L229.455,448.717Z" style="fill:rgb(0,0,153);fill-rule:nonzero;"></path>
                        </g>
                        <g transform="matrix(0.860183,0.22849,-0.226413,0.852363,89.0197,7.75793)">
                            <path d="M241.889,468.828L241.889,438.257L252.597,438.257C256.306,438.257 259.119,438.968 261.037,440.389C262.955,441.809 263.914,443.891 263.914,446.635C263.914,448.133 263.529,449.452 262.759,450.593C261.989,451.733 260.918,452.57 259.546,453.102C261.114,453.494 262.349,454.284 263.252,455.474C264.155,456.664 264.606,458.12 264.606,459.841C264.606,462.781 263.669,465.006 261.793,466.518C259.917,468.03 257.244,468.8 253.772,468.828L241.889,468.828ZM248.188,455.516L248.188,463.768L253.584,463.768C255.067,463.768 256.226,463.414 257.058,462.707C257.891,462 258.308,461.024 258.308,459.778C258.308,456.979 256.859,455.558 253.961,455.516L248.188,455.516ZM248.188,451.065L252.849,451.065C256.026,451.009 257.615,449.742 257.615,447.265C257.615,445.879 257.212,444.882 256.407,444.273C255.603,443.664 254.332,443.359 252.597,443.359L248.188,443.359L248.188,451.065Z" style="fill:rgb(0,0,153);fill-rule:nonzero;"></path>
                        </g>
                        <g transform="matrix(0.82685,0.329305,-0.326312,0.819333,146.687,-9.83479)">
                            <path d="M288.181,463.108L276.087,463.108L276.087,471.296L290.281,471.296L290.281,476.356L269.789,476.356L269.789,445.786L290.239,445.786L290.239,450.888L276.087,450.888L276.087,458.174L288.181,458.174L288.181,463.108Z" style="fill:rgb(0,0,153);fill-rule:nonzero;"></path>
                        </g>
                        <g transform="matrix(0.784115,0.421054,-0.417226,0.776987,206.664,-23.3919)">
                            <path d="M304.628,474.395L299.61,474.395L299.61,485.586L293.311,485.586L293.311,455.016L304.67,455.016C308.282,455.016 311.067,455.82 313.027,457.43C314.986,459.04 315.966,461.314 315.966,464.254C315.966,466.339 315.515,468.079 314.612,469.471C313.709,470.864 312.341,471.973 310.507,472.799L317.121,485.292L317.121,485.586L310.36,485.586L304.628,474.395ZM299.61,469.293L304.691,469.293C306.273,469.293 307.498,468.89 308.366,468.086C309.233,467.281 309.667,466.171 309.667,464.758C309.667,463.316 309.258,462.182 308.439,461.356C307.62,460.531 306.364,460.118 304.67,460.118L299.61,460.118L299.61,469.293Z" style="fill:rgb(0,0,153);fill-rule:nonzero;"></path>
                        </g>
                        <g transform="matrix(0.727006,0.513405,-0.508738,0.720397,277.539,-34.1083)">
                            <path d="M328.357,486.943L325.082,490.471L325.082,499.205L318.783,499.205L318.783,468.635L325.082,468.635L325.082,482.492L327.854,478.692L335.643,468.635L343.391,468.635L332.536,482.219L343.706,499.205L336.21,499.205L328.357,486.943Z" style="fill:rgb(0,0,153);fill-rule:nonzero;"></path>
                        </g>
                        <g transform="matrix(0.663559,0.593137,-0.587745,0.657527,350.842,-38.7657)">
                            <path d="M353.546,504.494L348.528,504.494L348.528,515.685L342.229,515.685L342.229,485.115L353.588,485.115C357.199,485.115 359.985,485.92 361.944,487.529C363.904,489.139 364.884,491.414 364.884,494.353C364.884,496.439 364.432,498.178 363.53,499.571C362.627,500.963 361.259,502.073 359.425,502.899L366.039,515.391L366.039,515.685L359.278,515.685L353.546,504.494ZM348.528,499.392L353.609,499.392C355.191,499.392 356.415,498.99 357.283,498.185C358.151,497.38 358.585,496.271 358.585,494.857C358.585,493.415 358.176,492.281 357.357,491.456C356.538,490.63 355.282,490.217 353.588,490.217L348.528,490.217L348.528,499.392Z" style="fill:rgb(0,0,153);fill-rule:nonzero;"></path>
                        </g>
                        <g transform="matrix(0.590596,0.665822,-0.659769,0.585227,430.813,-35.5467)">
                            <path d="M381.038,528.636L369.994,528.636L367.895,534.935L361.197,534.935L372.577,504.365L378.414,504.365L389.857,534.935L383.159,534.935L381.038,528.636ZM371.695,523.534L379.338,523.534L375.495,512.091L371.695,523.534ZM373.375,499.756C373.375,500.501 373.102,501.13 372.556,501.643C372.01,502.156 371.31,502.412 370.456,502.412C369.589,502.412 368.889,502.152 368.357,501.632C367.825,501.112 367.559,500.487 367.559,499.756C367.559,499.025 367.825,498.397 368.357,497.87C368.889,497.343 369.589,497.079 370.456,497.079C371.324,497.079 372.028,497.343 372.566,497.87C373.105,498.397 373.375,499.025 373.375,499.756ZM377.784,499.756C377.784,498.997 378.067,498.361 378.634,497.848C379.201,497.336 379.891,497.079 380.702,497.079C381.528,497.079 382.218,497.339 382.771,497.859C383.323,498.379 383.6,499.011 383.6,499.756C383.6,500.487 383.334,501.116 382.802,501.643C382.27,502.17 381.57,502.433 380.702,502.433C379.835,502.433 379.131,502.17 378.592,501.643C378.053,501.116 377.784,500.487 377.784,499.756Z" style="fill:rgb(0,0,153);fill-rule:nonzero;"></path>
                        </g>
                        <g transform="matrix(0.491676,0.741874,-0.73513,0.487206,530.82,-17.5474)">
                            <path d="M392.515,527.207L400.367,549.378L408.178,527.207L416.45,527.207L416.45,557.777L410.13,557.777L410.13,549.42L410.76,534.996L402.509,557.777L398.183,557.777L389.953,535.017L390.583,549.42L390.583,557.777L384.284,557.777L384.284,527.207L392.515,527.207Z" style="fill:rgb(0,0,153);fill-rule:nonzero;"></path>
                        </g>
                        <g transform="matrix(0.384151,0.802839,-0.795541,0.380659,642.356,16.6312)">
                            <path d="M424.468,578.48L412.374,578.48L412.374,586.669L426.568,586.669L426.568,591.729L406.076,591.729L406.076,561.158L426.526,561.158L426.526,566.26L412.374,566.26L412.374,573.546L424.468,573.546L424.468,578.48Z" style="fill:rgb(0,0,153);fill-rule:nonzero;"></path>
                        </g>
                        <g transform="matrix(0.294491,0.839879,-0.832244,0.291814,725.076,57.551)">
                            <path d="M428.381,603.19L423.363,603.19L423.363,614.381L417.064,614.381L417.064,583.81L428.423,583.81C432.034,583.81 434.82,584.615 436.78,586.225C438.739,587.835 439.719,590.109 439.719,593.049C439.719,595.134 439.268,596.873 438.365,598.266C437.462,599.659 436.094,600.768 434.26,601.594L440.874,614.087L440.874,614.381L434.113,614.381L428.381,603.19ZM423.363,598.088L428.444,598.088C430.026,598.088 431.251,597.685 432.118,596.88C432.986,596.075 433.42,594.966 433.42,593.552C433.42,592.111 433.011,590.977 432.192,590.151C431.373,589.325 430.117,588.912 428.423,588.912L423.363,588.912L423.363,598.088Z" style="fill:rgb(0,0,153);fill-rule:nonzero;"></path>
                        </g>
                        <g transform="matrix(0.174685,0.872701,-0.864768,0.173097,834.106,130.901)">
                            <path d="M442.969,650.945L436.901,650.945L436.901,627.556L430.727,629.083L430.727,624.149L436.924,620.414L442.969,620.333L442.969,650.945Z" style="fill:rgb(0,0,153);fill-rule:nonzero;"></path>
                        </g>
                        <g transform="matrix(0.108465,0.883379,-0.875348,0.107479,872.349,184.323)">
                            <path d="M442.969,650.945L436.901,650.945L436.901,627.556L430.727,629.083L430.727,624.149L436.924,620.414L442.969,620.333L442.969,650.945Z" style="fill:rgb(0,0,153);fill-rule:nonzero;"></path>
                        </g>
                    </g>
                </g>
                <path id="Grün" d="M407,65.072C586.338,68.756 731.244,213.662 734.928,393L624.893,393C621.26,274.377 525.623,178.74 407,175.107L407,65.072Z" style="fill:rgb(0,153,0);"></path>
                <path id="Gelb" d="M393,65.072L393,175.107C274.377,178.74 178.74,274.377 175.107,393L65.072,393C68.756,213.662 213.662,68.756 393,65.072Z" style="fill:rgb(255,191,0);"></path>
            </g>
        </g>
    </g>
</svg>