<?xml version="1.0" encoding="UTF-8" standalone="no"?>
<svg
   xmlns:dc="http://purl.org/dc/elements/1.1/"
   xmlns:cc="http://creativecommons.org/ns#"
   xmlns:rdf="http://www.w3.org/1999/02/22-rdf-syntax-ns#"
   xmlns:svg="http://www.w3.org/2000/svg"
   xmlns="http://www.w3.org/2000/svg"
   viewBox="0 0 260.67999 260.67999"
   height="260.67999"
   width="260.67999"
   xml:space="preserve"
   id="svg2"
   version="1.1"><metadata
     id="metadata8"><rdf:RDF><cc:Work
         rdf:about=""><dc:format>image/svg+xml</dc:format><dc:type
           rdf:resource="http://purl.org/dc/dcmitype/StillImage" /></cc:Work></rdf:RDF></metadata><defs
     id="defs6" /><g
     transform="matrix(1.3333333,0,0,-1.3333333,0,260.68)"
     id="g10"><g
       transform="scale(0.1)"
       id="g12"><path
         id="path14"
         style="fill:#ffffff;fill-opacity:1;fill-rule:nonzero;stroke:none"
         d="M 1941.3,977.531 C 1941.3,445.211 1509.83,13.75 977.516,13.75 445.227,13.75 13.75,445.211 13.75,977.531 c 0,532.289 431.477,963.799 963.766,963.799 532.314,0 963.784,-431.51 963.784,-963.799" /><path
         id="path16"
         style="fill:#231f20;fill-opacity:1;fill-rule:nonzero;stroke:none"
         d="M 977.516,1927.58 C 453.676,1927.58 27.5,1501.39 27.5,977.531 27.5,453.68 453.676,27.5 977.516,27.5 c 523.854,0 950.034,426.18 950.034,950.031 0,523.859 -426.18,950.049 -950.034,950.049 z M 977.516,0 C 438.512,0 0,438.512 0,977.531 c 0,539.019 438.512,977.549 977.516,977.549 539.014,0 977.534,-438.53 977.534,-977.549 C 1955.05,438.512 1516.53,0 977.516,0" /><path
         id="path18"
         style="fill:#2350a9;fill-opacity:1;fill-rule:nonzero;stroke:none"
         d="M 409.215,524.73 C 542.348,357.859 747.445,250.922 977.52,250.922 c 401.31,0 726.62,325.308 726.62,726.609 0,88.539 -15.84,173.389 -44.84,251.859 L 409.215,524.73" /><path
         id="path20"
         style="fill:#231f20;fill-opacity:1;fill-rule:nonzero;stroke:none"
         d="m 977.52,1690.4 c -393.071,0 -712.856,-319.79 -712.856,-712.869 0,-393.07 319.785,-712.859 712.856,-712.859 393.07,0 712.87,319.789 712.87,712.859 0,393.079 -319.8,712.869 -712.87,712.869 z m 0,-1453.228 c -408.235,0 -740.356,332.129 -740.356,740.359 0,408.239 332.121,740.369 740.356,740.369 408.24,0 740.37,-332.13 740.37,-740.369 0,-408.23 -332.13,-740.359 -740.37,-740.359" /><path
         id="path22"
         style="fill:#231f20;fill-opacity:1;fill-rule:nonzero;stroke:none"
         d="m 157.602,730.578 c 0.449,5.723 1.097,10.942 1.933,15.652 0.84,4.711 2.281,8.989 4.32,12.821 2.051,3.84 4.911,7.179 8.583,10.07 3.671,2.879 8.464,5.258 14.382,7.129 6.407,2.02 12.528,2.719 18.368,2.102 5.843,-0.614 11.289,-2.512 16.339,-5.704 5.059,-3.179 9.586,-7.636 13.578,-13.339 3.993,-5.719 7.29,-12.68 9.875,-20.887 2.364,-7.5 3.844,-14.293 4.446,-20.422 0.609,-6.109 0.687,-12.898 0.246,-20.352 -4.383,-0.839 -9.149,-1.41 -14.305,-1.707 -5.148,-0.3 -10.465,-0.382 -15.953,-0.25 1.324,12.629 0.688,23.059 -1.898,31.27 -1.95,6.16 -4.395,10.668 -7.356,13.527 -2.957,2.852 -6.73,3.551 -11.32,2.102 -1.93,-0.61 -3.481,-1.5 -4.645,-2.66 -1.152,-1.16 -2.027,-2.5 -2.617,-4.02 -0.582,-1.5 -0.969,-3.121 -1.156,-4.832 -0.188,-1.738 -0.332,-3.476 -0.445,-5.226 L 189.371,714.5 c -0.199,-4.84 -0.824,-9.398 -1.875,-13.641 -1.051,-4.25 -2.652,-8.109 -4.816,-11.578 -2.157,-3.472 -4.95,-6.511 -8.379,-9.121 -3.426,-2.609 -7.738,-4.73 -12.934,-6.359 -6.406,-2.031 -12.422,-2.731 -18.066,-2.121 -5.629,0.609 -10.789,2.34 -15.473,5.179 -4.68,2.84 -8.769,6.762 -12.277,11.77 -3.504,5 -6.34,10.949 -8.516,17.832 -1.941,6.16 -3.211,12.301 -3.816,18.41 -0.602,6.129 -0.781,12.82 -0.543,20.059 4.019,0.742 8.551,1.199 13.597,1.398 5.055,0.211 9.938,-0.019 14.649,-0.656 -0.336,-3.551 -0.567,-7.672 -0.68,-12.371 -0.113,-4.68 0.817,-10.172 2.801,-16.442 0.605,-1.937 1.367,-3.73 2.285,-5.359 0.91,-1.641 1.985,-3.031 3.207,-4.16 1.227,-1.149 2.664,-1.918 4.317,-2.328 1.66,-0.41 3.511,-0.293 5.566,0.359 3.5,1.109 5.738,3.07 6.711,5.899 0.965,2.832 1.559,6.011 1.773,9.519 l 0.7,9.789" /><path
         id="path24"
         style="fill:#231f20;fill-opacity:1;fill-rule:nonzero;stroke:none"
         d="m 143.914,840.109 c 0.164,0.672 0.188,1.77 0.09,3.289 -0.102,1.512 -0.274,3.09 -0.524,4.723 -0.804,5.391 -3.027,9.527 -6.671,12.438 -3.633,2.91 -8.645,3.89 -15.036,2.929 -3.761,-0.558 -6.839,-1.566 -9.25,-3.019 -2.406,-1.449 -4.253,-3.239 -5.543,-5.348 -1.277,-2.109 -2.039,-4.473 -2.292,-7.07 -0.25,-2.59 -0.168,-5.281 0.246,-8.031 0.109,-0.758 0.242,-1.629 0.394,-2.629 0.156,-1 0.371,-2 0.641,-2.981 z M 85.3008,798.07 c -0.8086,2.821 -2.0039,7.149 -3.5899,13.008 -1.5781,5.844 -3.0507,13.274 -4.4062,22.293 -0.9961,6.641 -1.3789,13.43 -1.1445,20.391 0.2421,6.937 1.6718,13.398 4.2929,19.367 2.6289,5.973 6.8164,11.121 12.5742,15.449 5.7579,4.313 13.6367,7.231 23.6607,8.742 8.898,1.328 16.48,1.09 22.777,-0.718 6.293,-1.801 11.527,-4.661 15.699,-8.59 4.176,-3.922 7.441,-8.614 9.809,-14.09 2.355,-5.481 3.988,-11.211 4.89,-17.231 0.356,-2.382 0.625,-4.8 0.805,-7.269 0.184,-2.473 0.223,-4.231 0.117,-5.274 l 43.781,6.582 c 1.114,-3.16 1.997,-6.039 2.645,-8.628 0.644,-2.59 1.141,-5.024 1.477,-7.274 0.652,-4.387 0.914,-9.918 0.765,-16.609 L 85.3008,798.07" /><path
         id="path26"
         style="fill:#231f20;fill-opacity:1;fill-rule:nonzero;stroke:none"
         d="m 137.734,1021.07 c -27.601,0.6 -41.5817,-7.14 -41.9332,-23.218 -0.3672,-16.469 13.2582,-25.004 40.8592,-25.606 13.809,-0.301 24.141,1.469 31,5.305 6.867,3.844 10.391,9.945 10.57,18.304 0.356,16.205 -13.148,24.615 -40.496,25.215 z m -1.843,-84.148 c -10.125,0.219 -19.504,1.598 -28.125,4.129 -8.6254,2.527 -16.0512,6.308 -22.2777,11.32 -6.2266,5.016 -11.0586,11.32 -14.5039,18.938 -3.4414,7.621 -5.0508,16.613 -4.8242,27 0.2304,10.381 2.2304,19.271 5.9961,26.671 3.7812,7.38 8.8867,13.45 15.3242,18.19 6.4414,4.74 14.0235,8.18 22.7465,10.33 8.726,2.15 18.148,3.12 28.285,2.9 10.133,-0.22 19.441,-1.6 27.937,-4.13 8.496,-2.53 15.824,-6.31 21.989,-11.32 6.164,-5 10.902,-11.29 14.222,-18.83 3.317,-7.56 4.86,-16.52 4.637,-26.909 -0.231,-10.379 -2.168,-19.305 -5.817,-26.762 -3.644,-7.461 -8.66,-13.558 -15.031,-18.289 -6.383,-4.738 -13.867,-8.191 -22.465,-10.34 -8.597,-2.16 -17.964,-3.121 -28.093,-2.898" /><path
         id="path28"
         style="fill:#231f20;fill-opacity:1;fill-rule:nonzero;stroke:none"
         d="m 77.1445,1111.55 c 0.6055,6.21 1.1407,11.95 1.6211,17.21 0.4766,5.26 1.2891,10.76 2.4375,16.47 1.3711,6.83 3.3946,13.53 6.0782,20.1 2.6757,6.56 6.1679,12.19 10.4687,16.88 4.301,4.69 9.586,8.16 15.848,10.38 6.261,2.23 13.672,2.48 22.238,0.76 4.598,-0.92 8.621,-2.28 12.07,-4.07 3.449,-1.79 6.434,-3.82 8.953,-6.07 2.528,-2.25 4.633,-4.61 6.329,-7.08 1.699,-2.48 3.089,-4.85 4.183,-7.15 l 63.219,17.54 c -0.102,-3.09 -0.391,-6.42 -0.848,-10.01 -0.465,-3.59 -0.98,-6.81 -1.558,-9.67 -0.496,-2.48 -1.207,-5.34 -2.114,-8.58 -0.91,-3.24 -1.859,-6.06 -2.855,-8.44 l -66.238,-14.21 -0.59,1.87 c -0.446,1.64 -1.352,3.53 -2.735,5.68 -1.371,2.15 -3.121,4.24 -5.23,6.29 -2.106,2.03 -4.543,3.88 -7.313,5.54 -2.769,1.65 -5.765,2.8 -8.996,3.46 -6.199,1.24 -11.082,0.41 -14.64,-2.49 -3.559,-2.9 -5.848,-6.9 -6.871,-11.99 -0.247,-1.24 -0.399,-2.31 -0.45,-3.2 -0.05,-0.9 -0.035,-1.48 0.036,-1.75 l 106.546,-21.43 c -0.211,-6.8 -0.734,-12.32 -1.582,-16.54 -0.922,-4.59 -2.597,-10.01 -5.011,-16.24 l -132.9965,26.74" /><path
         id="path30"
         style="fill:#231f20;fill-opacity:1;fill-rule:nonzero;stroke:none"
         d="m 146.813,1268.28 -11.047,-29.75 c -5.5,0.83 -10.391,2.03 -14.668,3.63 -3.914,1.45 -8.285,3.68 -13.114,6.7 l 33.797,91 c 2.789,-0.49 5.36,-1.04 7.699,-1.63 2.344,-0.6 4.524,-1.28 6.543,-2.03 3.918,-1.46 8.442,-3.67 13.543,-6.65 l -11.046,-29.75 99.746,-37.04 c -1.27,-6.69 -2.676,-12.12 -4.219,-16.28 -1.637,-4.39 -4.129,-9.48 -7.488,-15.25 l -99.746,37.05" /><path
         id="path32"
         style="fill:#231f20;fill-opacity:1;fill-rule:nonzero;stroke:none"
         d="m 230.66,1328.67 c -3.84,1.97 -7.863,4.66 -12.082,8.1 l 23.195,45.33 c 2.653,-0.65 5.067,-1.42 7.243,-2.32 2.175,-0.9 4.222,-1.84 6.136,-2.82 1.918,-0.98 3.903,-2.1 5.961,-3.37 2.051,-1.26 4.121,-2.78 6.2,-4.55 l -23.192,-45.34 c -5.254,1.41 -9.742,3.07 -13.461,4.97" /><path
         id="path34"
         style="fill:#231f20;fill-opacity:1;fill-rule:nonzero;stroke:none"
         d="m 380.73,1465.29 c -6.492,-7.94 -12.964,-13.66 -19.414,-17.14 -6.449,-3.48 -12.949,-5.08 -19.5,-4.78 -6.55,0.28 -13.226,2.18 -20.015,5.69 -6.785,3.51 -13.809,8.22 -21.063,14.17 l -60.148,49.2 c 1.933,3.16 3.672,5.84 5.207,8.01 1.543,2.19 3.066,4.2 4.594,6.07 1.363,1.66 2.937,3.44 4.73,5.33 1.793,1.89 4.051,4.09 6.766,6.62 l 57.058,-46.68 c 4.903,-4.01 9.231,-7.22 12.985,-9.64 3.75,-2.42 7.129,-4 10.125,-4.72 3,-0.74 5.722,-0.56 8.179,0.54 2.457,1.1 4.926,3.18 7.411,6.21 2.488,3.04 4.05,5.9 4.683,8.58 0.637,2.67 0.289,5.4 -1.023,8.2 -1.317,2.79 -3.551,5.76 -6.7,8.91 -3.152,3.15 -7.179,6.73 -12.078,10.74 l -57.062,46.69 c 2.015,3.25 3.769,5.95 5.273,8.08 1.489,2.13 2.922,4.02 4.285,5.7 1.446,1.77 3.082,3.61 4.915,5.55 1.832,1.94 4.105,4.17 6.824,6.69 l 60.148,-49.2 c 7.25,-5.94 13.266,-11.89 18.047,-17.84 4.785,-5.96 7.969,-12.13 9.551,-18.49 1.582,-6.37 1.308,-13.06 -0.832,-20.07 -2.133,-7.01 -6.449,-14.48 -12.946,-22.42" /><path
         id="path36"
         style="fill:#231f20;fill-opacity:1;fill-rule:nonzero;stroke:none"
         d="m 347.445,1634.79 c 1.789,2.19 3.469,4.13 5.032,5.81 1.566,1.68 3.168,3.22 4.804,4.62 1.735,1.48 3.637,2.91 5.723,4.27 2.078,1.37 3.914,2.49 5.508,3.35 l 81.933,-27.88 -48.465,56.56 c 2.176,2.53 4.188,4.76 6.043,6.68 1.856,1.92 3.598,3.59 5.235,4.98 1.637,1.4 3.453,2.79 5.437,4.17 1.996,1.37 4.164,2.73 6.52,4.08 l 88.121,-103.14 c -0.719,-1.11 -1.867,-2.6 -3.441,-4.45 -1.582,-1.86 -3.43,-3.69 -5.543,-5.51 -2.411,-2.05 -4.719,-3.74 -6.93,-5.05 -2.219,-1.31 -3.832,-2.24 -4.863,-2.8 l -81.832,27.48 48.214,-56.28 c -3.492,-4.5 -6.968,-8.22 -10.429,-11.18 -3.469,-2.97 -7.731,-5.88 -12.805,-8.72 l -88.262,103.01" /><path
         id="path38"
         style="fill:#231f20;fill-opacity:1;fill-rule:nonzero;stroke:none"
         d="m 557.195,1659.09 c 0.832,0.33 1.746,0.79 2.727,1.37 0.98,0.57 2.027,1.18 3.121,1.81 4.262,2.49 7.977,5.36 11.145,8.6 3.171,3.24 5.355,6.98 6.554,11.2 1.207,4.22 1.289,9.04 0.254,14.45 -1.031,5.41 -3.586,11.62 -7.676,18.62 -4.023,6.89 -8.191,12.15 -12.515,15.79 -4.325,3.64 -8.614,6.01 -12.856,7.13 -4.242,1.12 -8.5,1.19 -12.781,0.24 -4.285,-0.96 -8.391,-2.59 -12.336,-4.89 -2.187,-1.28 -3.754,-2.23 -4.707,-2.86 -0.945,-0.63 -1.594,-1.04 -1.926,-1.23 z m -52.515,98.26 c 20.675,12.07 39.386,16.06 56.144,11.98 16.754,-4.07 31.11,-16.35 43.047,-36.8 12.129,-20.78 15.547,-39.21 10.262,-55.28 -5.285,-16.07 -18.649,-30.36 -40.09,-42.87 -5.469,-3.2 -10.891,-6.03 -16.266,-8.5 -5.375,-2.49 -10.714,-4.83 -16.019,-7.05 l -68.395,117.16 c 1.52,1.18 3.45,2.64 5.809,4.38 2.355,1.74 4.949,3.59 7.769,5.53 2.829,1.94 5.754,3.91 8.778,5.89 3.015,1.99 6.004,3.84 8.961,5.56" /><path
         id="path40"
         style="fill:#231f20;fill-opacity:1;fill-rule:nonzero;stroke:none"
         d="m 744.395,1801.66 c 5.71,-0.55 10.918,-1.29 15.617,-2.21 4.695,-0.92 8.949,-2.44 12.738,-4.55 3.797,-2.11 7.105,-5.03 9.926,-8.75 2.816,-3.72 5.113,-8.56 6.875,-14.51 1.91,-6.44 2.5,-12.57 1.781,-18.4 -0.719,-5.83 -2.715,-11.24 -5.988,-16.24 -3.274,-5 -7.805,-9.45 -13.586,-13.34 -5.785,-3.89 -12.809,-7.06 -21.067,-9.51 -7.531,-2.22 -14.363,-3.59 -20.492,-4.08 -6.129,-0.49 -12.91,-0.45 -20.34,0.12 -0.777,4.39 -1.265,9.17 -1.468,14.33 -0.211,5.15 -0.2,10.47 0.027,15.96 12.613,-1.56 23.047,-1.1 31.309,1.34 6.191,1.83 10.742,4.2 13.648,7.12 2.898,2.9 3.672,6.66 2.305,11.28 -0.578,1.94 -1.438,3.5 -2.578,4.69 -1.145,1.17 -2.465,2.07 -3.965,2.68 -1.504,0.61 -3.117,1.03 -4.828,1.25 -1.715,0.21 -3.454,0.39 -5.215,0.54 l -11.336,0.8 c -4.836,0.28 -9.375,1 -13.602,2.12 -4.234,1.12 -8.066,2.79 -11.496,5.01 -3.43,2.22 -6.422,5.07 -8.969,8.54 -2.543,3.47 -4.593,7.83 -6.14,13.04 -1.906,6.45 -2.508,12.47 -1.793,18.1 0.711,5.63 2.527,10.76 5.453,15.39 2.914,4.63 6.91,8.65 11.977,12.07 5.066,3.41 11.058,6.15 17.984,8.19 6.195,1.84 12.351,3 18.484,3.5 6.125,0.49 12.817,0.55 20.055,0.19 0.672,-4.03 1.055,-8.57 1.164,-13.62 0.109,-5.06 -0.195,-9.94 -0.918,-14.64 -3.551,0.4 -7.672,0.7 -12.355,0.9 -4.68,0.2 -10.18,-0.64 -16.493,-2.51 -1.945,-0.57 -3.746,-1.31 -5.394,-2.19 -1.656,-0.89 -3.063,-1.93 -4.227,-3.13 -1.16,-1.21 -1.968,-2.64 -2.402,-4.28 -0.434,-1.65 -0.348,-3.51 0.266,-5.57 1.043,-3.53 2.972,-5.8 5.781,-6.81 2.812,-1.02 5.976,-1.67 9.492,-1.95 l 9.77,-0.87" /><path
         id="path42"
         style="fill:#231f20;fill-opacity:1;fill-rule:nonzero;stroke:none"
         d="m 901.609,1815.07 c -3.25,27.43 -12.863,40.18 -28.839,38.3 -16.352,-1.94 -22.899,-16.62 -19.645,-44.05 1.617,-13.71 4.809,-23.69 9.57,-29.95 4.762,-6.26 11.293,-8.9 19.594,-7.92 16.102,1.91 22.547,16.45 19.32,43.62 z m -83.578,-9.9 c -1.195,10.06 -1.136,19.53 0.168,28.43 1.309,8.89 4.004,16.77 8.102,23.63 4.094,6.86 9.676,12.53 16.734,17 7.059,4.47 15.742,7.32 26.059,8.54 10.308,1.23 19.39,0.48 27.238,-2.22 7.848,-2.71 14.563,-6.92 20.152,-12.63 5.59,-5.71 10.059,-12.74 13.411,-21.08 3.347,-8.34 5.617,-17.54 6.808,-27.61 1.195,-10.06 1.129,-19.47 -0.187,-28.24 -1.321,-8.77 -4.036,-16.55 -8.137,-23.35 -4.106,-6.8 -9.668,-12.37 -16.68,-16.71 -7.011,-4.34 -15.676,-7.12 -25.984,-8.34 -10.32,-1.23 -19.422,-0.55 -27.317,2.02 -7.89,2.57 -14.632,6.69 -20.207,12.34 -5.586,5.65 -10.039,12.58 -13.371,20.8 -3.34,8.21 -5.597,17.35 -6.789,27.42" /><path
         id="path44"
         style="fill:#231f20;fill-opacity:1;fill-rule:nonzero;stroke:none"
         d="m 1060.45,1762.25 c -0.22,-4.68 -1.02,-9.66 -2.42,-14.91 l -91.471,4.28 -3.18,5.29 57.151,99.27 -46.499,2.18 c -0.5,2.81 -0.793,5.43 -0.867,7.83 -0.078,2.42 -0.066,4.7 0.027,6.85 0.11,2.15 0.309,4.49 0.618,7.01 0.312,2.52 0.843,5.16 1.613,7.91 l 92.428,-4.33 2.58,-5.63 -56.75,-99.1 45.73,-2.15 c 0.9,-5.36 1.24,-10.2 1.04,-14.5" /><path
         id="path46"
         style="fill:#231f20;fill-opacity:1;fill-rule:nonzero;stroke:none"
         d="m 1108.02,1738.09 c -4.62,0.79 -10.08,2.29 -16.37,4.52 l 22.81,133.73 c 3.46,-0.08 6.58,-0.23 9.37,-0.45 2.79,-0.21 5.25,-0.5 7.37,-0.86 2.24,-0.39 4.75,-0.95 7.53,-1.67 2.76,-0.73 5.72,-1.63 8.88,-2.68 l -22.82,-133.72 c -6.81,0 -12.4,0.38 -16.77,1.13" /><path
         id="path48"
         style="fill:#231f20;fill-opacity:1;fill-rule:nonzero;stroke:none"
         d="m 1236.96,1811.66 -26.69,-42.82 c 1.86,-1.25 3.65,-2.34 5.35,-3.27 1.7,-0.93 3.52,-1.69 5.45,-2.3 2.06,-0.64 4.13,-1.12 6.22,-1.44 2.09,-0.32 4.32,-0.52 6.68,-0.59 z m -55.27,-87.85 c -2.94,0.38 -5.58,0.81 -7.95,1.28 -2.38,0.48 -4.65,1.06 -6.83,1.73 -2.18,0.69 -4.64,1.63 -7.38,2.81 -2.76,1.19 -5.78,2.63 -9.1,4.33 l 81.02,116.83 c 3.26,-0.62 6.29,-1.23 9.08,-1.83 2.8,-0.61 5.59,-1.35 8.37,-2.21 2.3,-0.72 4.77,-1.62 7.41,-2.71 2.65,-1.1 5.67,-2.37 9.07,-3.83 L 1265,1698.02 c -7.23,1.06 -13.44,2.4 -18.64,4.02 -2.42,0.76 -4.8,1.64 -7.15,2.64 -2.34,0.99 -4.82,2.16 -7.45,3.52 l 0.97,27.35 c -3.69,0.09 -7.15,0.38 -10.38,0.85 -3.23,0.48 -6.37,1.19 -9.39,2.14 -2.78,0.86 -5.56,1.96 -8.33,3.29 -2.77,1.33 -5.59,2.9 -8.47,4.73 l -14.47,-22.75" /><path
         id="path50"
         style="fill:#231f20;fill-opacity:1;fill-rule:nonzero;stroke:none"
         d="m 1347.34,1808.68 c 3.29,-1.07 6.24,-2.1 8.85,-3.11 2.61,-1 4.89,-1.98 6.81,-2.93 2.05,-1.01 4.3,-2.26 6.74,-3.75 2.44,-1.49 5.02,-3.19 7.76,-5.1 l -47.08,-95.41 39.35,-19.43 c -0.84,-3.12 -1.69,-5.77 -2.56,-7.96 -0.86,-2.18 -1.72,-4.12 -2.56,-5.83 -0.94,-1.93 -2.03,-3.91 -3.24,-5.92 -1.2,-2.02 -2.82,-4.36 -4.84,-7.04 l -69.51,34.31 60.28,122.17" /><path
         id="path52"
         style="fill:#231f20;fill-opacity:1;fill-rule:nonzero;stroke:none"
         d="m 1404.03,1683.7 c 2.35,3.61 5.46,7.33 9.31,11.16 l 42.67,-27.8 c -0.92,-2.57 -1.94,-4.89 -3.06,-6.95 -1.13,-2.07 -2.27,-4.01 -3.44,-5.81 -1.18,-1.81 -2.5,-3.67 -3.98,-5.58 -1.47,-1.91 -3.2,-3.81 -5.18,-5.69 l -42.66,27.8 c 1.94,5.08 4.06,9.36 6.34,12.87" /><path
         id="path54"
         style="fill:#231f20;fill-opacity:1;fill-rule:nonzero;stroke:none"
         d="m 1518.14,1621.29 c -17.64,-20.25 -17.95,-37.78 -0.95,-52.59 3.07,-2.66 6.2,-4.9 9.42,-6.69 3.21,-1.8 7.36,-3.74 12.45,-5.81 -2.83,-9.63 -6.91,-18.52 -12.17,-26.7 -3.68,1.37 -7.01,2.75 -9.98,4.17 -2.98,1.4 -5.7,2.9 -8.19,4.48 -2.49,1.58 -4.87,3.23 -7.14,4.96 -2.28,1.74 -4.55,3.6 -6.85,5.59 -8.13,7.08 -14.11,14.61 -17.99,22.6 -3.86,7.99 -5.85,16.14 -5.91,24.44 -0.09,8.3 1.66,16.62 5.2,24.94 3.56,8.32 8.67,16.3 15.33,23.94 6.65,7.64 13.93,13.78 21.83,18.4 7.88,4.63 15.99,7.52 24.31,8.69 8.31,1.15 16.69,0.41 25.13,-2.25 8.45,-2.65 16.54,-7.34 24.28,-14.09 4.57,-3.99 8.64,-8.11 12.16,-12.35 3.52,-4.25 6.95,-9.57 10.25,-16 -3.59,-3.74 -7.62,-6.91 -12.06,-9.51 -4.45,-2.6 -8.54,-4.7 -12.3,-6.3 -1.32,2.33 -2.57,4.42 -3.73,6.27 -1.17,1.85 -2.33,3.55 -3.51,5.08 -1.18,1.54 -2.43,2.99 -3.73,4.39 -1.32,1.39 -2.77,2.79 -4.41,4.2 -7.73,6.74 -15.98,9.37 -24.79,7.86 -8.78,-1.5 -17.65,-7.41 -26.65,-17.72" /><path
         id="path56"
         style="fill:#231f20;fill-opacity:1;fill-rule:nonzero;stroke:none"
         d="m 1645.79,1594.27 c 2.6,-2.27 4.91,-4.38 6.91,-6.34 2,-1.95 3.7,-3.75 5.1,-5.39 1.48,-1.73 3.04,-3.77 4.7,-6.1 1.67,-2.33 3.37,-4.91 5.12,-7.75 l -80.93,-69.07 28.5,-33.39 c -2,-2.54 -3.82,-4.64 -5.48,-6.3 -1.67,-1.67 -3.22,-3.12 -4.67,-4.36 -1.63,-1.39 -3.39,-2.78 -5.3,-4.16 -1.91,-1.37 -4.32,-2.89 -7.24,-4.55 l -50.33,58.97 103.62,88.44" /><path
         id="path58"
         style="fill:#231f20;fill-opacity:1;fill-rule:nonzero;stroke:none"
         d="m 1633.46,1381.56 c -5.38,8.74 -8.66,16.72 -9.84,23.95 -1.2,7.22 -0.59,13.9 1.83,19.99 2.42,6.11 6.39,11.8 11.92,17.07 5.54,5.27 12.28,10.36 20.26,15.28 l 66.14,40.79 c 2.36,-2.86 4.32,-5.37 5.87,-7.54 1.57,-2.17 2.97,-4.27 4.23,-6.32 1.13,-1.83 2.31,-3.91 3.51,-6.21 1.19,-2.32 2.55,-5.16 4.04,-8.56 l -62.73,-38.69 c -5.39,-3.32 -9.86,-6.37 -13.35,-9.12 -3.52,-2.77 -6.11,-5.44 -7.78,-8.03 -1.68,-2.6 -2.39,-5.24 -2.15,-7.92 0.23,-2.68 1.39,-5.69 3.45,-9.03 2.06,-3.34 4.25,-5.75 6.56,-7.22 2.33,-1.47 5.02,-2.04 8.09,-1.71 3.08,0.32 6.61,1.47 10.62,3.42 4.01,1.95 8.7,4.58 14.09,7.91 l 62.75,38.69 c 2.42,-2.97 4.4,-5.51 5.92,-7.62 1.53,-2.11 2.86,-4.08 3.98,-5.91 1.21,-1.94 2.42,-4.1 3.66,-6.46 1.23,-2.37 2.59,-5.25 4.09,-8.64 l -66.14,-40.78 c -7.97,-4.92 -15.56,-8.67 -22.76,-11.24 -7.19,-2.57 -14.06,-3.57 -20.58,-2.98 -6.54,0.58 -12.78,3.02 -18.71,7.33 -5.92,4.31 -11.58,10.83 -16.97,19.55" /><path
         id="path60"
         style="fill:#231f20;fill-opacity:1;fill-rule:nonzero;stroke:none"
         d="m 1768.02,1308.45 1.98,-4.93 c 2.02,-5.06 4.64,-8.59 7.83,-10.58 3.18,-1.99 7.3,-1.98 12.36,0.06 2.47,0.98 4.32,2.31 5.57,3.97 1.24,1.66 2.03,3.44 2.36,5.35 0.32,1.91 0.28,3.87 -0.12,5.89 -0.4,2.02 -0.95,3.92 -1.67,5.68 -0.27,0.7 -0.61,1.56 -1.01,2.55 -0.41,1.01 -0.81,1.83 -1.21,2.49 z m -25.05,-10.05 -29.62,-11.89 c 0.22,-0.87 0.53,-1.93 0.98,-3.19 0.43,-1.26 1.06,-2.89 1.86,-4.89 0.89,-2.23 2.04,-4.4 3.42,-6.5 1.39,-2.11 3.02,-3.87 4.9,-5.31 1.87,-1.43 4,-2.31 6.39,-2.65 2.39,-0.34 5.05,0.08 7.99,1.26 5.65,2.27 8.81,5.68 9.49,10.26 0.69,4.58 -0.14,9.81 -2.5,15.68 z m 7.36,-65.23 c -7.76,-3.12 -14.74,-4.27 -20.92,-3.48 -6.19,0.79 -11.75,3.07 -16.66,6.82 -4.91,3.76 -9.33,8.81 -13.24,15.16 -3.92,6.35 -7.47,13.52 -10.69,21.51 -2.55,6.34 -4.6,12.14 -6.16,17.38 -1.55,5.25 -3.16,10.95 -4.81,17.11 l 126.05,50.61 c 2.5,-4.18 5.04,-8.83 7.64,-13.93 2.59,-5.1 5.31,-11.17 8.14,-18.22 2.69,-6.7 4.64,-13.19 5.87,-19.45 1.2,-6.27 1.38,-12.11 0.47,-17.52 -0.9,-5.41 -3.04,-10.27 -6.43,-14.57 -3.39,-4.29 -8.44,-7.79 -15.14,-10.48 -5.53,-2.22 -11.05,-3 -16.56,-2.34 -5.52,0.64 -10.27,2.36 -14.25,5.12 0.03,-3.12 -0.31,-6.29 -0.99,-9.5 -0.69,-3.21 -1.91,-6.29 -3.66,-9.25 -1.75,-2.96 -4.14,-5.73 -7.21,-8.32 -3.04,-2.59 -6.86,-4.8 -11.45,-6.65" /><path
         id="path62"
         style="fill:#231f20;fill-opacity:1;fill-rule:nonzero;stroke:none"
         d="m 1761.58,1145.93 c -0.07,-1.17 -0.09,-2.91 -0.08,-5.22 0.01,-2.31 0.22,-4.71 0.65,-7.2 0.27,-1.51 0.64,-3.11 1.13,-4.83 0.47,-1.72 1.31,-3.21 2.49,-4.48 1.19,-1.28 2.8,-2.25 4.84,-2.93 2.05,-0.68 4.76,-0.73 8.13,-0.16 l 64.42,11.03 -3.5,20.41 c 5.06,2.02 9.9,3.43 14.51,4.22 4.37,0.75 9.27,1.01 14.71,0.78 l 9.17,-53.55 -97.39,-16.68 c -7.11,-1.21 -13.39,-1.14 -18.83,0.25 -5.45,1.38 -10.06,3.74 -13.84,7.07 -3.79,3.34 -6.84,7.48 -9.17,12.41 -2.3,4.94 -3.99,10.4 -5.01,16.4 -0.62,3.62 -0.96,7.28 -1.02,11 -0.06,3.72 0.11,7.09 0.49,10.11 0.97,0.29 1.96,0.55 2.95,0.79 0.98,0.23 2.05,0.44 3.16,0.64 7.25,1.23 14.64,1.22 22.19,-0.06" /><path
         id="path64"
         style="fill:#231f20;fill-opacity:1;fill-rule:nonzero;stroke:none"
         d="m 1821.6,976.539 c -4.44,-0.16 -9.4,0.223 -14.89,1.145 l -1.36,36.656 -26.97,-1.02 1.79,-47.644 c -5.27,-1.336 -10.07,-2.09 -14.37,-2.25 -4.68,-0.188 -9.7,0.195 -15.05,1.14 l -3.05,81.264 136.51,5.11 3,-80.12 c -2.76,-0.617 -5.35,-1.082 -7.74,-1.429 -2.39,-0.344 -4.66,-0.551 -6.82,-0.645 -4.18,-0.16 -9.2,0.16 -15.06,0.969 l -1.75,46.515 -20.87,-0.78 1.37,-36.661 c -5.53,-1.336 -10.45,-2.09 -14.74,-2.25" /><path
         id="path66"
         style="fill:#231f20;fill-opacity:1;fill-rule:nonzero;stroke:none"
         d="m 1885.31,916.141 c 0.15,-2.832 0.22,-5.391 0.19,-7.68 -0.02,-2.301 -0.16,-4.5 -0.44,-6.652 -0.27,-2.258 -0.72,-4.598 -1.34,-7 -0.62,-2.418 -1.22,-4.489 -1.82,-6.2 L 1802.57,854 l 73.92,-9.129 c 0.1,-3.332 0.12,-6.34 0.04,-9 -0.08,-2.68 -0.25,-5.09 -0.52,-7.23 -0.25,-2.121 -0.66,-4.379 -1.21,-6.731 -0.55,-2.359 -1.24,-4.82 -2.06,-7.41 l -134.62,16.84 c -0.21,1.308 -0.37,3.191 -0.45,5.621 -0.08,2.43 0.05,5.039 0.38,7.789 0.4,3.148 0.97,5.949 1.71,8.41 0.76,2.461 1.33,4.238 1.72,5.34 l 78.97,34.84 -73.54,9.09 c -0.44,5.691 -0.38,10.769 0.17,15.3 0.57,4.532 1.76,9.551 3.59,15.071 l 134.64,-16.66" /><path
         id="path68"
         style="fill:#231f20;fill-opacity:1;fill-rule:nonzero;stroke:none"
         d="m 1811.99,721.031 -42.92,26.539 c -1.24,-1.871 -2.33,-3.66 -3.24,-5.371 -0.93,-1.699 -1.69,-3.519 -2.29,-5.449 -0.62,-2.059 -1.1,-4.141 -1.42,-6.23 -0.32,-2.09 -0.49,-4.321 -0.56,-6.68 z m -88.05,54.949 c 0.37,2.93 0.8,5.579 1.26,7.961 0.47,2.368 1.05,4.649 1.71,6.829 0.67,2.171 1.6,4.64 2.77,7.39 1.18,2.75 2.61,5.801 4.31,9.121 L 1851.1,726.66 c -0.62,-3.25 -1.21,-6.289 -1.81,-9.082 -0.59,-2.797 -1.33,-5.598 -2.18,-8.367 -0.71,-2.301 -1.6,-4.781 -2.69,-7.43 -1.08,-2.652 -2.34,-5.672 -3.78,-9.082 l -142.19,-0.121 c 1.04,7.242 2.36,13.461 3.96,18.66 0.75,2.434 1.62,4.813 2.6,7.16 1,2.34 2.16,4.832 3.5,7.473 l 27.35,-0.883 c 0.08,3.692 0.36,7.153 0.81,10.391 0.47,3.23 1.18,6.371 2.1,9.391 0.87,2.789 1.95,5.558 3.28,8.339 1.31,2.782 2.88,5.61 4.7,8.493 l -22.81,14.378" /><path
         id="path70"
         style="fill:#231f20;fill-opacity:1;fill-rule:nonzero;stroke:none"
         d="m 933.434,139.469 c -0.411,-4.41 -1.438,-9.289 -3.079,-14.598 l -36.511,3.399 -2.504,-26.86 47.488,-4.4217 c 0.641,-5.3985 0.758,-10.25 0.36,-14.5391 -0.434,-4.6679 -1.461,-9.5781 -3.09,-14.789 l -80.965,7.539 12.656,136.0198 79.844,-7.43 c 0.234,-2.82 0.371,-5.437 0.402,-7.867 0.031,-2.41 -0.051,-4.692 -0.254,-6.832 -0.383,-4.16 -1.355,-9.102 -2.902,-14.809 l -46.348,4.321 -1.933,-20.813 36.504,-3.41 c 0.625,-5.649 0.73,-10.617 0.332,-14.91" /><path
         id="path72"
         style="fill:#231f20;fill-opacity:1;fill-rule:nonzero;stroke:none"
         d="m 987.73,101.82 c 2.528,0.032 5.125,-0.07 7.793,-0.289 2.665,-0.211 5.457,-0.511 8.367,-0.851 0.55,-2.9105 0.96,-5.6917 1.24,-8.3519 0.29,-2.6484 0.45,-5.2265 0.48,-7.7695 0.03,-2.5273 -0.07,-5.1289 -0.28,-7.7969 -0.23,-2.6601 -0.58,-5.4414 -1.05,-8.3633 -2.9,-0.539 -5.69,-0.9687 -8.342,-1.2382 -2.653,-0.3008 -5.254,-0.461 -7.786,-0.4805 -2.531,-0.0391 -5.129,0.0586 -7.797,0.2695 -2.656,0.2227 -5.449,0.5821 -8.375,1.0508 -0.531,2.9102 -0.949,5.6914 -1.234,8.3281 -0.285,2.6719 -0.449,5.2617 -0.476,7.8008 -0.028,2.5313 0.066,5.1211 0.293,7.793 0.214,2.6679 0.566,5.4492 1.035,8.3791 2.906,0.41 5.691,0.758 8.347,1.039 2.657,0.289 5.246,0.449 7.785,0.48" /><path
         id="path74"
         style="fill:#231f20;fill-opacity:1;fill-rule:nonzero;stroke:none"
         d="m 1072.59,117.32 15.73,94.282 c 2.83,0.82 5.71,1.519 8.65,2.097 2.93,0.571 6.02,1.063 9.29,1.422 2.14,0.238 4.81,0.379 7.99,0.399 3.19,0.039 6,0 8.42,-0.11 L 1094.24,75.5703 c -3.21,-0.8711 -6.22,-1.5898 -9.03,-2.1601 -2.8,-0.5586 -5.53,-0.9883 -8.17,-1.2813 -2.52,-0.2891 -5.11,-0.4375 -7.79,-0.4805 -2.66,-0.0468 -5.86,-0.0195 -9.57,0.0821 l -58.24,130.2185 c 2.1,0.621 4.9,1.27 8.39,1.981 3.49,0.711 6.86,1.23 10.14,1.59 2.64,0.32 5.55,0.468 8.74,0.5 3.18,0.039 5.99,0.011 8.42,-0.11 l 35.46,-88.59" /><path
         id="path76"
         style="fill:#231f20;fill-opacity:1;fill-rule:nonzero;stroke:none"
         d="m 1158.08,120.719 c 2.49,0.519 5.05,0.929 7.71,1.242 2.65,0.289 5.45,0.559 8.37,0.801 1.1,-2.742 2.05,-5.403 2.85,-7.953 0.8,-2.539 1.46,-5.071 1.98,-7.539 0.53,-2.481 0.94,-5.051 1.24,-7.6919 0.3,-2.6679 0.51,-5.4687 0.61,-8.4179 -2.74,-1.1016 -5.39,-2.0508 -7.93,-2.8516 -2.56,-0.7969 -5.06,-1.4688 -7.55,-1.9805 -2.47,-0.5273 -5.04,-0.9375 -7.7,-1.25 -2.66,-0.2968 -5.46,-0.5 -8.42,-0.6093 -1.1,2.7421 -2.04,5.3906 -2.84,7.9531 -0.8,2.539 -1.46,5.0586 -1.99,7.539 -0.52,2.4691 -0.94,5.0511 -1.23,7.6871 -0.31,2.672 -0.51,5.473 -0.62,8.422 2.77,0.969 5.43,1.86 7.98,2.668 2.55,0.793 5.06,1.442 7.54,1.981" /><path
         id="path78"
         style="fill:#231f20;fill-opacity:1;fill-rule:nonzero;stroke:none"
         d="M 409.215,524.73 1659.3,1229.39 c -26.2,70.9 -63.15,136.6 -108.87,195.12 L 298.359,718.73 c 26.918,-70.609 64.532,-135.929 110.856,-194" /></g></g></svg>