<?xml version="1.0" encoding="UTF-8" standalone="no"?>
<!DOCTYPE svg PUBLIC "-//W3C//DTD SVG 1.1//EN" "http://www.w3.org/Graphics/SVG/1.1/DTD/svg11.dtd">
<svg width="210px" height="210px" viewBox="0 0 210 210" version="1.1" xmlns="http://www.w3.org/2000/svg" xmlns:xlink="http://www.w3.org/1999/xlink">
    <g id="Hamburg" stroke="none" stroke-width="1" fill="none" fill-rule="evenodd">
        <g id="DCADA" transform="translate(105.000000, 105.000000) scale(1, -1) translate(-105.000000, -105.000000) translate(3.000000, 3.000000)">
            <path d="M101.999494,204 C158.376374,204 204,158.377216 204,101.674674 C204,45.9488975 158.376374,0 101.999494,0 C45.6228229,0 0,45.9488975 0,101.674674 C0,158.377216 45.6228229,204 101.999494,204" id="path14" fill="#ED1C24" fill-rule="nonzero"></path>
            <path d="M101.999494,204 C158.376374,204 204,158.377216 204,101.674674 C204,45.9488975 158.376374,0 101.999494,0 C45.6228229,0 0,45.9488975 0,101.674674 C0,158.377216 45.6228229,204 101.999494,204 Z" id="path16" stroke="#ED1C24" stroke-width="5.79479986"></path>
            <path d="M101.673872,198.135227 C154.791608,198.135227 198.13421,154.792435 198.13421,101.674674 C198.13421,48.88191 154.791608,5.87011341 101.673872,5.87011341 C48.8817576,5.87011341 5.87049437,48.88191 5.87049437,101.674674 C5.87049437,154.792435 48.8817576,198.135227 101.673872,198.135227" id="path18" fill="#FFFFFF" fill-rule="nonzero"></path>
            <path d="M88.3129278,177.278412 C89.6162514,180.536735 90.5936398,183.796101 90.2681218,185.099848 C89.6162514,187.054424 91.2455102,189.335459 92.549251,189.335459 C102.325951,189.987333 112.427334,188.684629 113.731075,188.358171 C120.575193,186.729009 126.766397,182.492355 128.07431,177.278412 L123.507045,177.278412 C121.87789,181.840481 117.315841,185.425263 112.101921,186.077136 C112.101921,186.077136 94.5090341,187.706298 94.5090341,186.403594 C94.1830989,184.121516 92.8751861,180.536735 91.5714454,177.278412 L88.3129278,177.278412" id="path20" fill="#ED1C24" fill-rule="nonzero"></path>
            <path d="M95.80829,177.278412 C96.7856784,179.884862 98.0894191,181.840481 99.0672247,181.515066 C100.700968,181.840481 101.673872,179.559447 101.999494,177.278412 L100.044613,177.278412 C100.044613,178.2557 99.7186779,178.907573 99.0672247,178.907573 C99.0672247,178.907573 98.7408723,178.2557 98.4153543,177.278412 L95.80829,177.278412" id="path22" fill="#ED1C24" fill-rule="nonzero"></path>
            <path d="M106.23613,177.278412 C105.58426,179.884862 105.58426,182.165897 105.58426,183.144228 C105.910716,184.447974 114.38816,182.492355 116.0121,181.188608 C117.315841,180.21132 118.294168,178.907573 118.946038,177.278412 L115.034816,177.278412 C114.057532,178.907573 112.427334,180.21132 110.79818,180.536735 C109.169025,180.536735 109.169025,178.907573 109.169025,177.278412 L106.23613,177.278412" id="path24" fill="#ED1C24" fill-rule="nonzero"></path>
            <path d="M87.3396071,175.323835 C87.6655423,175.974665 87.9869927,176.626538 88.3129278,177.278412 L91.5714454,177.278412 C91.2455102,176.626538 90.919575,175.974665 90.5936398,175.323835 L87.3396071,175.323835" id="path26" fill="#ED1C24" fill-rule="nonzero"></path>
            <path d="M95.4823548,175.323835 C95.4823548,175.974665 95.80829,176.626538 95.80829,177.278412 L98.4153543,177.278412 C98.0894191,176.951954 98.0894191,176.301123 98.0894191,175.974665 C98.7408723,175.974665 99.3927427,175.974665 100.044613,175.974665 C100.044613,176.301123 100.044613,176.951954 100.044613,177.278412 L101.999494,177.278412 C102.325951,176.626538 102.325951,175.974665 102.325951,175.323835 L95.4823548,175.323835" id="path28" fill="#ED1C24" fill-rule="nonzero"></path>
            <path d="M106.562587,175.323835 C106.23613,175.974665 106.23613,176.626538 106.23613,177.278412 L109.169025,177.278412 C109.495482,176.626538 109.495482,175.974665 109.820896,175.323835 L106.562587,175.323835" id="path30" fill="#ED1C24" fill-rule="nonzero"></path>
            <path d="M116.0121,175.323835 C116.0121,175.974665 115.686686,176.626538 115.034816,177.278412 L118.946038,177.278412 C119.271452,176.626538 119.271452,175.974665 119.596866,175.323835 L116.0121,175.323835" id="path32" fill="#ED1C24" fill-rule="nonzero"></path>
            <path d="M124.158915,175.323835 C124.158915,175.974665 123.833502,176.626538 123.507045,177.278412 L128.07431,177.278412 C128.07431,176.951954 128.07431,176.301123 128.07431,175.974665 C128.07431,175.974665 128.07431,175.64925 128.07431,175.323835 L124.158915,175.323835" id="path34" fill="#ED1C24" fill-rule="nonzero"></path>
            <path d="M31.2840733,122.856904 C32.2618789,134.262078 32.9182341,143.060802 29.3288793,145.016422 C28.3510738,145.668295 29.3288793,148.926619 31.2840733,151.534112 C33.2441693,153.815147 34.543008,154.140562 36.8241372,153.489732 C39.7616216,152.5114 43.0156542,150.230365 48.2298872,150.882239 C54.0954691,151.534112 62.2425973,155.444308 67.456726,157.725343 C81.4695404,163.917618 105.58426,155.770766 112.427334,131.32917 C112.427334,130.351882 120.248736,130.025423 123.507045,131.32917 C124.485372,131.32917 125.78807,143.387261 125.462656,149.252034 C125.462656,152.185985 124.485372,153.489732 123.833502,154.46702 C123.181631,158.050758 154.140781,156.42264 159.028244,156.748055 C164.568621,154.46702 161.965312,151.859527 161.965312,147.94933 C161.965312,146.319126 163.26488,135.89124 165.220492,122.530446 L159.028244,122.530446 C158.05096,129.700008 156.74722,136.217698 156.095349,142.083514 C155.122237,148.274746 157.724504,151.534112 154.791608,151.859527 C151.207886,151.859527 129.699292,153.489732 130.351162,151.207654 C131.003033,145.993711 128.07431,136.543113 127.743681,133.611248 C126.766397,127.418973 130.351162,126.440642 131.328447,133.28479 C131.980317,136.543113 131.980317,143.712676 138.497978,144.039134 C142.734614,144.039134 145.341052,133.611248 146.970207,122.530446 L142.408157,122.856904 C141.435045,131.32917 140.127132,139.150606 138.172564,138.824148 C134.918427,138.498733 132.957601,125.137939 133.935928,124.81148 C135.238626,124.159607 136.216953,123.182319 136.868823,122.530446 L130.677619,122.530446 C125.78807,125.137939 115.686686,127.418973 113.079205,126.7671 C112.753791,126.7671 113.079205,123.834192 114.057532,122.530446 L108.843612,122.530446 C105.258846,139.150606 97.4375487,152.185985 85.3799283,154.140562 C66.8093405,157.07347 65.82705,149.252034 49.533628,145.668295 C45.6228229,144.364549 36.172684,147.297457 36.498202,144.691007 C36.8241372,137.846859 37.4760076,130.351882 37.4760076,122.530446 L31.2840733,122.856904" id="path36" fill="#ED1C24" fill-rule="nonzero"></path>
            <path d="M51.488822,123.507734 C51.1628868,125.463354 51.1628868,127.418973 51.1628868,129.048135 C50.8369516,133.611248 56.7025334,145.016422 66.1529852,145.016422 C80.1657996,145.016422 87.3396071,133.28479 90.5936398,122.530446 L84.0766047,122.530446 C87.3396071,124.81148 77.5587353,141.431641 69.0860891,141.431641 C66.1529852,141.757056 60.9392737,139.802479 58.6581446,133.28479 C58.0062742,131.981043 57.680339,128.72272 57.0284686,123.507734 L51.488822,123.507734" id="path38" fill="#ED1C24" fill-rule="nonzero"></path>
            <path d="M87.3396071,175.323835 C85.7058635,171.738011 83.0987992,168.153229 80.4962197,165.872194 C79.8398644,165.546779 80.4962197,162.613871 81.4695404,162.287413 C87.0091871,161.310125 95.4823548,161.63554 95.1564196,163.917618 C94.8304844,167.502399 95.80829,169.131561 98.7408723,169.131561 C100.700968,169.131561 100.700968,167.827814 100.700968,163.917618 C100.700968,160.983666 106.888001,161.310125 106.888001,161.310125 C129.047422,160.983666 128.399723,172.064469 128.07431,175.323835 L124.158915,175.323835 C124.485372,174.345504 124.485372,173.041757 124.158915,172.064469 C122.856217,166.198652 118.294168,166.198652 116.0121,165.872194 C115.034816,165.546779 105.258846,164.569491 104.606976,165.872194 C103.628649,168.153229 104.932389,172.064469 97.7634839,171.412595 C95.80829,171.412595 91.8973806,169.782391 91.8973806,166.850526 C91.5714454,164.894906 86.3577339,164.243033 85.7058635,164.894906 C84.7280579,165.546779 86.3577339,167.175941 86.6832519,167.502399 C87.0091871,167.827814 88.638863,171.086137 90.5936398,175.323835 L87.3396071,175.323835" id="path40" fill="#ED1C24" fill-rule="nonzero"></path>
            <path d="M95.4823548,175.323835 C95.4823548,174.997377 95.4823548,174.345504 95.4823548,174.020088 C97.7634839,174.345504 100.044613,173.69363 102.325951,174.020088 C102.325951,174.345504 102.325951,174.671962 102.325951,175.323835 L95.4823548,175.323835" id="path42" fill="#ED1C24" fill-rule="nonzero"></path>
            <path d="M106.562587,175.323835 C107.214457,171.738011 107.8705,168.479687 108.191741,168.153229 C113.731075,167.175941 117.315841,168.153229 118.294168,169.131561 C119.596866,171.086137 119.923322,173.368215 119.596866,175.323835 L116.0121,175.323835 C116.338557,174.997377 116.338557,174.671962 116.338557,174.345504 C116.990427,172.064469 115.034816,170.434264 113.731075,170.108849 C110.472766,169.782391 110.79818,171.738011 109.820896,174.997377 L109.820896,175.323835 L106.562587,175.323835" id="path44" fill="#ED1C24" fill-rule="nonzero"></path>
            <path d="M30.3066849,104.607582 C30.3066849,111.125271 30.9581381,117.316503 31.2840733,122.856904 L37.4760076,122.530446 C37.8015256,116.664629 37.8015256,110.798813 37.8015256,104.607582 L30.3066849,104.607582" id="path46" fill="#ED1C24" fill-rule="nonzero"></path>
            <path d="M51.1628868,104.932997 C51.1628868,111.776101 51.488822,118.293791 51.488822,123.507734 L57.0284686,123.507734 C56.3765983,118.620249 56.0510803,112.10256 55.7251451,105.259455 L51.1628868,104.932997" id="path48" fill="#ED1C24" fill-rule="nonzero"></path>
            <path d="M64.8496617,104.607582 C69.4120243,112.754433 75.6035413,119.923996 83.7506695,122.20503 C83.7506695,122.20503 84.0766047,122.20503 84.0766047,122.530446 L90.5936398,122.530446 C91.5714454,119.272122 92.2233158,116.012756 92.549251,113.079848 C92.8751861,110.14694 93.2011213,107.214032 93.2011213,104.607582 L84.0766047,104.607582 C85.7058635,107.539447 87.0091871,109.169651 87.0091871,109.169651 C87.0091871,114.057136 88.3129278,117.316503 85.7058635,117.316503 C81.4695404,117.316503 76.2554117,112.427975 71.6931534,104.607582 L64.8496617,104.607582" id="path50" fill="#ED1C24" fill-rule="nonzero"></path>
            <path d="M111.124637,104.607582 C110.79818,110.798813 110.146309,116.990044 108.843612,122.530446 L114.057532,122.530446 C114.057532,121.878572 114.38816,121.553157 114.713574,121.553157 C116.338557,121.227742 119.596866,121.553157 121.231235,121.553157 C126.43994,120.901284 130.351162,116.990044 132.632187,119.272122 C133.935928,120.249411 132.632187,121.227742 130.677619,122.530446 L136.868823,122.530446 C139.149848,118.945664 135.890496,115.360883 131.980317,110.473398 C131.003033,108.843193 129.373878,106.888617 129.047422,104.607582 L126.43994,104.607582 C127.418267,110.14694 128.399723,115.687341 125.462656,114.70901 C125.137242,114.383594 124.158915,110.473398 122.856217,104.607582 L118.946038,104.932997 C119.596866,108.843193 120.248736,112.10256 120.900606,114.70901 C121.231235,117.316503 115.034816,118.620249 114.38816,115.035468 C113.731075,112.754433 115.034816,108.19132 115.034816,104.607582 L111.124637,104.607582" id="path52" fill="#ED1C24" fill-rule="nonzero"></path>
            <path d="M143.711898,103.62925 C143.711898,107.865905 143.060027,115.687341 142.408157,122.856904 L146.970207,122.530446 C147.948534,116.012756 148.604576,109.495067 148.604576,104.281124 L143.711898,103.62925" id="path54" fill="#ED1C24" fill-rule="nonzero"></path>
            <path d="M161.965312,104.607582 C160.983856,110.798813 160.006571,116.664629 159.028244,122.530446 L165.220492,122.530446 C165.871319,116.990044 166.849646,110.798813 167.501516,104.607582 L161.965312,104.607582" id="path56" fill="#ED1C24" fill-rule="nonzero"></path>
            <path d="M30.9581381,82.7732696 C30.6322029,88.3129407 30.3066849,94.8308388 30.3066849,102.000089 C30.3066849,102.97842 30.3066849,103.955708 30.3066849,104.607582 L37.8015256,104.607582 C37.8015256,97.4379146 37.8015256,89.9426238 37.4760076,83.0992063 L30.9581381,82.7732696" id="path58" fill="#ED1C24" fill-rule="nonzero"></path>
            <path d="M50.8369516,82.7732696 C50.5110164,89.9426238 50.8369516,97.7638512 51.1628868,104.932997 L55.7251451,105.259455 C55.0732747,97.4379146 54.7473395,88.9648139 54.4214043,82.1218136 L50.8369516,82.7732696" id="path60" fill="#ED1C24" fill-rule="nonzero"></path>
            <path d="M57.3544038,83.0992063 C58.6581446,89.9426238 61.2647917,97.7638512 64.8496617,104.607582 L71.6931534,104.607582 C68.1082835,98.7412439 64.8496617,91.2459531 62.8944677,83.4251429 L57.3544038,83.0992063" id="path62" fill="#ED1C24" fill-rule="nonzero"></path>
            <path d="M75.9294765,83.0992063 C76.2554117,84.0765989 76.2554117,85.3803454 76.5813469,86.3581553 C78.2106057,94.1789655 81.4695404,100.696446 84.0766047,104.607582 L93.2011213,104.607582 C93.5267436,97.7638512 93.5267436,90.9200165 92.549251,84.4025356 C92.549251,84.0765989 92.2233158,83.7510795 92.2233158,83.0992063 L86.6832519,83.0992063 C88.3129278,90.5944971 88.964381,98.4157245 87.0091871,99.3931171 C85.7058635,100.37051 83.0987992,91.5718897 81.4695404,83.0992063 L75.9294765,83.0992063" id="path64" fill="#ED1C24" fill-rule="nonzero"></path>
            <path d="M109.495482,82.7732696 C110.79818,89.9426238 111.45005,97.111978 111.124637,104.607582 L115.034816,104.607582 C115.034816,103.955708 115.034816,103.303835 115.034816,102.651962 C115.034816,97.4379146 114.38816,90.2685604 113.405661,83.0992063 L109.495482,82.7732696" id="path66" fill="#ED1C24" fill-rule="nonzero"></path>
            <path d="M114.713574,82.7732696 C116.0121,90.2685604 117.642297,98.4157245 118.946038,104.932997 L122.856217,104.607582 C121.556649,98.7412439 120.248736,90.5944971 118.619581,83.0992063 L114.713574,82.7732696" id="path68" fill="#ED1C24" fill-rule="nonzero"></path>
            <path d="M122.204347,83.4251429 C122.856217,88.3129407 123.833502,92.223763 124.810786,92.223763 C126.43994,92.223763 129.699292,86.3581553 132.957601,83.0992063 L122.204347,83.4251429" id="path70" fill="#ED1C24" fill-rule="nonzero"></path>
            <path d="M140.779003,83.0992063 C144.038355,86.6840919 148.279162,92.8756362 149.577688,92.5496996 C150.556015,92.223763 151.533299,88.6388773 152.83704,83.7510795 L140.779003,83.0992063" id="path72" fill="#ED1C24" fill-rule="nonzero"></path>
            <path d="M165.545905,83.0992063 C164.568621,89.9426238 163.26488,97.4379146 161.965312,104.607582 L167.501516,104.607582 C168.809429,97.111978 169.782541,89.6166872 170.759825,82.7732696 L165.545905,83.0992063" id="path74" fill="#ED1C24" fill-rule="nonzero"></path>
            <path d="M126.43994,104.607582 C126.114526,102.000089 125.78807,99.3931171 125.78807,97.4379146 C130.351162,91.2459531 134.261342,84.7284722 138.172564,85.0544088 C140.127132,85.3803454 147.622077,95.482712 148.279162,97.111978 C148.604576,97.7638512 148.925818,100.37051 148.604576,104.281124 L143.711898,103.62925 C144.038355,101.674674 144.038355,100.696446 144.038355,100.37051 C143.060027,98.4157245 139.149848,92.223763 137.194237,91.8978264 C135.565083,91.2459531 131.328447,95.482712 129.699292,100.696446 C129.047422,102.000089 129.047422,103.303835 129.047422,104.607582 L126.43994,104.607582" id="path76" fill="#ED1C24" fill-rule="nonzero"></path>
            <path d="M30.9581381,82.7732696 C31.6100085,70.7155962 31.9359437,62.2429127 26.7267171,55.7254318 C25.0925562,53.7698121 26.4007819,48.2300367 31.2840733,46.9267074 C35.5208136,47.252644 32.9182341,49.8593026 40.7345251,49.533366 C55.3992099,49.533366 59.965953,45.9488975 62.2425973,37.4762141 C63.8718561,33.2394551 77.8846705,14.3387813 101.999494,13.3609715 C118.946038,12.3835788 130.677619,29.0031134 131.980317,29.0031134 C136.542367,29.32905 131.328447,20.8562623 137.194237,20.8562623 C138.824434,19.5525158 147.948534,53.7698121 148.925818,56.7028245 C144.363768,57.0287611 134.918427,45.6229609 132.957601,43.0158851 C131.980317,42.0380752 126.114526,35.5205943 121.556649,35.5205943 C121.556649,30.958316 96.7856784,35.1950749 96.7856784,37.4762141 C93.2011213,37.4762141 87.3396071,44.3196316 91.8973806,44.3196316 C92.2233158,44.6455682 103.303235,53.4441883 108.517155,63.5466592 C110.79818,68.434457 112.101921,75.6038112 113.405661,83.0992063 L109.495482,82.7732696 C106.888001,69.0863303 101.347937,57.0287611 92.549251,50.8371125 C87.9869927,47.9041001 85.7058635,48.2300367 84.4021227,50.5111759 C82.447346,53.7698121 82.447346,59.6358369 83.0987992,61.2651028 C85.7058635,67.783001 90.5936398,76.581621 92.2233158,83.0992063 L86.6832519,83.0992063 C85.0539931,74.9523551 82.447346,66.8051911 80.1657996,67.1311277 C78.8624761,67.1311277 79.8398644,74.9523551 81.4695404,83.0992063 L75.9294765,83.0992063 C73.9787674,68.434457 75.9294765,53.1182517 81.1436052,45.9488975 C89.9421866,33.8913284 100.700968,29.0031134 106.888001,28.6774897 C124.158915,28.6774897 131.328447,35.5205943 134.261342,38.4536067 C138.172564,42.0380752 141.761502,46.6007708 142.408157,46.6007708 C143.386484,46.6007708 141.761502,43.3418217 139.801719,38.7795434 C138.172564,34.217265 138.172564,29.0031134 136.868823,28.0256164 C135.565083,27.0478065 137.194237,33.8913284 133.609471,33.5653918 C131.328447,33.5653918 119.596866,20.204389 105.58426,18.2491864 C87.9869927,15.9680473 62.8944677,32.2620625 60.6178234,61.9169761 C60.2918882,69.0863303 61.2647917,76.581621 62.8944677,83.4251429 L57.3544038,83.0992063 C57.3544038,82.4477502 57.0284686,82.1218136 57.0284686,81.4699403 C55.7251451,73.9745452 55.7251451,65.5014446 54.7473395,65.5014446 C54.0954691,65.5014446 54.0954691,72.6712159 54.4214043,82.1218136 L50.8369516,82.7732696 C50.8369516,72.9967354 51.1628868,64.5240519 52.7921455,59.9617735 C53.4485008,57.6806344 57.680339,55.0735586 57.0284686,52.7923151 C56.0510803,49.8593026 46.9310485,55.3994952 39.4312015,54.7476219 C27.3736854,50.5111759 35.8467488,58.6584442 36.498202,66.1533178 C36.8241372,71.3674694 37.1500724,77.2330771 37.4760076,83.0992063 L30.9581381,82.7732696" id="path78" fill="#ED1C24" fill-rule="nonzero"></path>
            <path d="M114.713574,82.7732696 C113.079205,73.9745452 111.776507,66.1533178 111.45005,62.2429127 C110.79818,59.3103175 110.79818,53.4441883 103.628649,48.88191 C99.0672247,44.3196316 112.427334,44.3196316 120.248736,44.9710877 C125.462656,47.252644 120.575193,48.88191 120.900606,52.1404418 C121.87789,68.434457 125.78807,83.4251429 127.418267,82.4477502 C128.722008,81.795877 133.935928,73.6530935 137.194237,73.6530935 C139.801719,73.6530935 145.015639,83.0992063 146.970207,83.0992063 C149.904145,82.7732696 153.814324,53.1182517 150.229559,51.1630491 C148.604576,50.1852393 145.341052,46.6007708 148.604576,44.9710877 C154.466195,45.9488975 176.952072,43.0158851 178.581227,47.252644 C179.558511,48.5559733 178.25477,51.1630491 175.652504,55.3994952 C174.996461,58.006571 173.04085,69.0863303 170.759825,82.7732696 L165.545905,83.0992063 C167.17506,74.6264185 168.152344,66.1533178 169.130671,58.9843809 C169.782541,55.3994952 171.738152,52.4663784 171.411696,50.1852393 C171.411696,49.533366 159.680115,49.533366 157.724504,49.8593026 C155.769935,49.8593026 156.095349,52.1404418 156.095349,52.1404418 C157.39909,56.0513684 155.122237,72.9967354 152.83704,83.7510795 L140.779003,83.0992063 C139.476305,81.4699403 138.172564,80.4921305 137.520694,80.4921305 C136.216953,80.4921305 134.587798,81.4699403 132.957601,83.0992063 L122.204347,83.4251429 C120.900606,77.2330771 119.596866,69.0863303 118.619581,64.5240519 C116.66397,57.0287611 117.642297,52.4663784 118.294168,51.1630491 C118.946038,50.1852393 118.946038,48.88191 117.967711,48.88191 C116.66397,48.5559733 106.23613,47.252644 109.495482,49.8593026 C111.45005,51.1630491 112.427334,52.4663784 112.753791,53.7698121 C113.405661,54.4216853 116.0121,68.434457 118.619581,83.0992063 L114.713574,82.7732696" id="path80" fill="#ED1C24" fill-rule="nonzero"></path>
        </g>
    </g>
</svg>