<?xml version="1.0" encoding="UTF-8"?>
<svg width="369px" height="369px" viewBox="0 0 369 369" version="1.1" xmlns="http://www.w3.org/2000/svg" xmlns:xlink="http://www.w3.org/1999/xlink">
    <!-- Generator: Sketch 53.2 (72643) - https://sketchapp.com -->
    <title>TSG_Logo_RZ-4c</title>
    <desc>Created with Sketch.</desc>
    <defs>
        <polygon id="path-1" points="0.06 0.162982883 368.391 0.162982883 368.391 200.413 0.06 200.413"></polygon>
    </defs>
    <g id="TSG_Logo_RZ-4c" stroke="none" stroke-width="1" fill="none" fill-rule="evenodd">
        <path d="M49.757,365.624 L55.647,365.624 C58.369,365.624 60.539,364.177 60.539,361.316 C60.539,358.838 58.816,357.012 55.785,357.012 L49.757,357.012 L49.757,365.624 Z M49.757,354.05 L54.58,354.05 C55.751,354.05 59.747,354.05 59.747,350.122 C59.747,346.367 56.612,346.367 54.717,346.367 L49.757,346.367 L49.757,354.05 Z M46.415,343.543 L55.303,343.543 C58.334,343.543 60.022,343.852 61.572,345.368 C62.64,346.401 63.33,347.849 63.33,349.813 C63.33,353.911 60.332,354.979 59.126,355.427 C60.574,355.84 64.087,356.875 64.087,361.628 C64.087,365.004 61.917,366.725 61.09,367.277 C59.368,368.413 57.439,368.413 55.475,368.413 L46.415,368.413 L46.415,343.543 L46.415,343.543 Z" id="Fill-1" fill="#005186"></path>
        <polyline id="Fill-2" fill="#005186" points="83.446 343.543 99.051 343.543 99.051 346.471 86.891 346.471 86.891 354.222 98.465 354.222 98.465 357.114 86.891 357.114 86.891 365.383 99.326 365.383 99.326 368.413 83.446 368.413 83.446 343.543"></polyline>
        <path d="M122.888,354.256 L128.331,354.256 C128.709,354.256 130.674,354.256 131.604,353.705 C132.086,353.429 133.292,352.534 133.292,350.467 C133.292,346.436 129.709,346.436 128.331,346.436 L122.888,346.436 L122.888,354.256 Z M119.546,343.543 L128.435,343.543 C129.709,343.543 132.326,343.543 134.152,344.714 C136.013,345.885 136.908,347.78 136.908,349.777 C136.908,351.535 136.254,353.084 135.151,354.186 C134.084,355.255 132.981,355.6 132.224,355.807 C134.601,356.426 135.669,357.493 136.013,360.595 C136.357,363.521 136.599,365.658 137.563,368.413 L133.877,368.413 C133.326,366.761 132.981,363.728 132.74,361.834 C132.326,358.218 131.466,357.184 127.298,357.184 L122.958,357.184 L122.958,368.413 L119.546,368.413 L119.546,343.543 L119.546,343.543 Z" id="Fill-3" fill="#005186"></path>
        <path d="M174.145,349.743 C173.766,347.434 171.906,345.85 168.53,345.85 C166.188,345.85 164.225,346.471 162.915,347.951 C160.745,350.363 160.263,353.601 160.263,355.943 C160.263,358.046 160.711,361.593 162.536,363.763 C164.155,365.624 166.67,366.208 169.15,366.208 C171.975,366.208 173.766,365.658 174.558,365.416 L174.558,358.046 L168.875,358.046 L168.875,355.185 L178.003,355.185 L178.003,367.449 C176.557,367.932 173.387,368.965 169.15,368.965 C164.568,368.965 161.883,367.656 160.125,365.865 C157.679,363.385 156.646,359.905 156.646,356.391 C156.646,353.911 157.267,348.056 161.984,344.887 C164.432,343.232 167.669,343.129 168.908,343.129 C170.873,343.129 173.87,343.37 176.246,345.781 C177.728,347.332 177.83,348.779 177.899,349.743 L174.145,349.743" id="Fill-4" fill="#005186"></path>
        <polyline id="Fill-5" fill="#005186" points="198.397 343.543 214.001 343.543 214.001 346.471 201.841 346.471 201.841 354.222 213.416 354.222 213.416 357.114 201.841 357.114 201.841 365.383 214.276 365.383 214.276 368.413 198.397 368.413 198.397 343.543"></polyline>
        <path d="M238.01,365.589 L241.386,365.589 C243.762,365.589 246.243,365.451 247.897,364.212 C251.065,361.834 251.168,357.77 251.168,356.322 C251.168,355.392 251.099,351.156 248.757,348.572 C247.173,346.814 245.176,346.401 242.144,346.401 L238.01,346.401 L238.01,365.589 Z M234.565,343.543 L241.764,343.543 C245.106,343.543 249.034,343.543 251.79,346.781 C253.994,349.365 254.855,352.775 254.855,356.184 C254.855,361.559 252.616,364.865 250.721,366.382 C248.276,368.413 245.209,368.413 241.557,368.413 L234.565,368.413 L234.565,343.543 L234.565,343.543 Z" id="Fill-6" fill="#005186"></path>
        <path d="M278.966,363.798 C280.379,365.556 282.515,366.071 284.478,366.071 C286.511,366.071 288.543,365.519 289.991,363.798 C292.022,361.316 292.23,357.392 292.23,355.702 C292.23,350.053 290.369,345.781 284.685,345.781 C278.381,345.781 276.762,350.846 276.762,355.943 C276.762,358.665 277.245,361.662 278.966,363.798 Z M276.349,346.23 C278.932,343.439 282.343,342.889 284.652,342.889 C291.541,342.889 295.88,347.298 295.88,355.736 C295.88,362.35 293.229,369 284.375,369 C275.903,369 273.145,362.971 273.145,356.15 C273.145,353.326 273.627,349.158 276.349,346.23 L276.349,346.23 Z" id="Fill-7" fill="#005186"></path>
        <path d="M318.926,354.256 L324.369,354.256 C324.748,354.256 326.71,354.256 327.641,353.705 C328.124,353.429 329.33,352.534 329.33,350.467 C329.33,346.436 325.746,346.436 324.369,346.436 L318.926,346.436 L318.926,354.256 Z M315.584,343.543 L324.472,343.543 C325.746,343.543 328.364,343.543 330.189,344.714 C332.05,345.885 332.947,347.78 332.947,349.777 C332.947,351.535 332.292,353.084 331.189,354.186 C330.122,355.255 329.018,355.6 328.261,355.807 C330.638,356.426 331.706,357.493 332.05,360.595 C332.394,363.521 332.635,365.658 333.601,368.413 L329.915,368.413 C329.363,366.761 329.018,363.728 328.777,361.834 C328.364,358.218 327.503,357.184 323.335,357.184 L318.995,357.184 L318.995,368.413 L315.584,368.413 L315.584,343.543 L315.584,343.543 Z" id="Fill-8" fill="#005186"></path>
        <g id="Group-12" transform="translate(0.000000, 168.000000)">
            <mask id="mask-2" fill="white">
                <use xlink:href="#path-1"></use>
            </mask>
            <g id="Clip-10"></g>
            <polyline id="Fill-9" fill="#005186" mask="url(#mask-2)" points="353.579 175.543 368.391 175.543 368.391 178.471 357.092 178.471 357.092 186.222 367.737 186.222 367.737 189.114 357.092 189.114 357.092 200.413 353.579 200.413 353.579 175.543"></polyline>
            <path d="M132.302,10.525 C111.166,3.634 89.132,0.157 67.1,0.163 C44.461,0.154 21.764,3.694 0,10.805 L0,46.741 C14.996,40.776 30.689,36.921 46.609,35.138 L46.609,150.73 L83.592,150.73 L83.592,34.775 C93.984,35.749 104.296,37.648 114.399,40.452 C116.004,28.551 122.177,18.263 132.302,10.525" id="Fill-11" fill="#4AA241" mask="url(#mask-2)"></path>
        </g>
        <path d="M171.555,321.4 C160.283,321.4 150.377,320.313 141.841,318.139 C133.303,315.961 125.377,313.262 118.059,310.029 L118.059,275.024 L121.421,275.024 C128.803,281.289 136.945,286.1 145.846,289.461 C154.744,292.824 163.38,294.506 171.753,294.506 C173.861,294.506 176.648,294.274 180.109,293.812 C183.57,293.351 186.354,292.626 188.465,291.639 C191.036,290.517 193.211,288.951 194.991,286.939 C196.77,284.93 197.661,282.276 197.661,278.979 C197.661,275.287 196.209,272.291 193.31,269.981 C190.409,267.675 186.948,265.993 182.926,264.939 C177.916,263.62 172.56,262.367 166.857,261.182 C161.155,259.995 155.832,258.545 150.889,256.83 C139.484,252.809 131.311,247.403 126.365,240.613 C121.421,233.825 118.949,225.319 118.949,215.102 C118.949,201.324 124.784,190.168 136.451,181.631 C148.12,173.093 162.688,168.824 180.157,168.824 C188.924,168.824 197.643,169.715 206.311,171.495 C214.981,173.273 222.743,175.682 229.6,178.712 L229.6,212.335 L226.336,212.335 C220.865,207.652 214.19,203.697 206.311,200.47 C198.434,197.237 190.343,195.621 182.037,195.621 C178.807,195.621 175.906,195.852 173.334,196.313 C170.764,196.778 168.06,197.665 165.227,198.984 C162.918,200.039 160.926,201.604 159.244,203.681 C157.563,205.758 156.723,208.081 156.723,210.652 C156.723,214.411 158.058,217.393 160.727,219.6 C163.397,221.81 168.555,223.804 176.202,225.585 C181.147,226.704 185.909,227.792 190.491,228.847 C195.073,229.903 199.967,231.353 205.176,233.197 C215.392,236.889 222.99,241.849 227.969,248.08 C232.944,254.309 235.433,262.532 235.433,272.751 C235.433,287.386 229.681,299.151 218.179,308.051 C206.674,316.951 191.133,321.4 171.555,321.4" id="Fill-13" fill="#4AA241"></path>
        <g id="Group-17" transform="translate(50.000000, 0.000000)">
            <path d="M243.036,230.71 C240.453,239.43 240.407,249.556 242.197,257.497 C242.464,257.496 242.733,257.487 243,257.487 C256.332,257.49 269.651,258.958 282.693,261.861 L282.693,294.308 C281.373,294.44 279.826,294.539 278.046,294.602 C276.266,294.671 274.717,294.702 273.399,294.702 C258.433,294.702 246.633,290.615 237.998,282.442 C229.362,274.267 225.044,261.575 225.044,244.37 C225.044,236.33 226.182,229.276 228.457,223.209 C230.729,217.146 233.811,212.136 237.702,208.181 C241.788,204.093 246.436,201.059 251.645,199.084 C256.851,197.104 262.621,196.117 268.949,196.117 C274.354,196.117 279.481,196.877 284.327,198.391 C289.17,199.905 293.436,201.721 297.129,203.829 C300.296,205.609 303.541,207.768 306.871,210.306 C310.2,212.843 312.753,214.806 314.535,216.189 L317.896,216.189 L317.896,181.68 C309.655,177.659 301.677,174.475 293.964,172.137 C286.252,169.797 276.233,168.628 263.905,168.628 C240.042,168.628 221.237,175.583 207.495,189.491 C193.749,203.402 186.875,221.894 186.875,244.964 C186.875,269.486 193.749,288.424 207.495,301.771 C221.237,315.122 239.68,321.797 262.818,321.797 C272.836,321.797 283.004,320.544 293.324,318.038 C303.639,315.534 312.027,312.965 318.49,310.327 L318.49,269.976 C318.492,269.976 318.504,269.975 318.504,269.975 L318.504,244.838 C294.307,235.435 268.665,230.709 243.036,230.71" id="Fill-14" fill="#4AA241"></path>
            <path d="M68.435,29.099 C63.662,94.143 0.326,83.636 0.326,83.636 C19.514,92.127 40.355,87.125 55.125,105.39 C71.698,125.884 64.496,135.358 64.496,135.358 C64.496,135.358 84.01,117.702 73.461,88.25 C64.945,64.475 74.859,58.175 68.435,29.099 Z M43.363,67.883 C48.282,63.578 48.782,56.091 44.474,51.166 C40.157,46.242 32.678,45.757 27.755,50.064 C22.832,54.37 22.335,61.859 26.645,66.781 C30.959,71.704 38.438,72.199 43.363,67.883 Z M296.949,93.471 C296.949,93.471 239.055,96.251 241.593,37.425 C232.787,62.824 241.016,69.512 230.886,89.938 C218.337,115.24 233.983,133.12 233.983,133.12 C233.983,133.12 228.519,123.87 245.529,107.229 C260.689,92.401 278.85,99.072 296.949,93.471 Z M275.68,75.128 C279.891,71.321 280.218,64.817 276.407,60.611 C272.601,56.403 266.107,56.068 261.888,59.876 C257.683,63.686 257.357,70.187 261.163,74.395 C264.973,78.609 271.466,78.936 275.68,75.128 Z M95.654,0.847 C107.645,39.767 123.689,40.567 129.611,74.596 C136.946,116.747 172.077,124.575 172.077,124.575 C172.077,124.575 157.116,118.168 162.993,82.605 C168.229,50.908 196.395,42.788 213.486,19.733 C213.486,19.733 145.247,74.991 95.654,0.847 Z M150.445,29.954 C158.502,31.615 166.37,26.436 168.03,18.38 C169.685,10.329 164.5,2.455 156.448,0.804 C148.399,-0.849 140.528,4.32 138.865,12.376 C137.212,20.43 142.401,28.302 150.445,29.954 L150.445,29.954 Z" id="Fill-16" fill="#005186"></path>
        </g>
        <path d="M260.673,86.807 C257.218,77.242 251.321,68.413 243.042,61.324 C238.729,57.629 234.042,54.661 229.135,52.373 C226.844,54.692 224.691,57.129 222.733,59.751 C230.046,61.906 237.037,65.589 243.203,70.87 C249.15,75.964 253.761,82.043 257,88.66 C257.617,88.314 258.24,87.987 258.869,87.672 C253.029,90.636 247.661,94.766 243.135,100.049 C229.698,115.739 227.393,137.197 235.455,154.823 L241.096,154.823 C235.242,139.288 237.807,121.126 249.369,107.627 C257.512,98.117 268.631,92.674 280.173,91.468 C280.405,90.959 280.63,90.453 280.886,89.938 C282.289,87.109 283.331,84.551 284.123,82.163 C276.102,81.858 268.05,83.42 260.673,86.807 Z M318.363,97.09 C315.672,97.421 313.02,97.893 310.417,98.629 C312.22,99.788 313.971,101.072 315.644,102.507 C330.251,115.014 335.283,134.537 330.056,151.83 C337.171,133.279 333.015,111.667 318.363,97.09 Z M74.396,141.522 C75.238,146.247 76.716,150.698 78.704,154.823 L88.709,154.823 C86.599,150.734 85.057,146.265 84.207,141.499 C81.303,125.212 87.175,109.395 98.426,98.88 C95.927,96.992 93.314,95.52 90.612,94.343 C77.875,105.817 71.165,123.402 74.396,141.522 Z M177.668,65.767 C176.504,61.481 175.138,57.804 173.621,54.479 C167.569,57.88 162,62.383 157.223,67.962 C152.514,73.457 148.965,79.553 146.537,85.95 C138.861,82.378 130.244,80.676 121.359,81.307 C121.786,83.053 122.323,84.898 122.986,86.861 C130.816,85.596 138.521,86.334 145.559,88.728 C138.191,111.412 144.61,137.302 163.854,153.781 C164.27,154.137 164.693,154.478 165.117,154.823 L169.906,154.823 C147.266,134.691 144.82,100.054 164.614,76.944 C168.467,72.446 172.885,68.721 177.668,65.767 L177.668,65.767 Z" id="Fill-18" fill="#4AA241"></path>
    </g>
</svg>