<?xml version="1.0" encoding="UTF-8" standalone="no"?>
<!DOCTYPE svg PUBLIC "-//W3C//DTD SVG 1.1//EN" "http://www.w3.org/Graphics/SVG/1.1/DTD/svg11.dtd">
<svg
	xmlns="http://www.w3.org/2000/svg"
	version="1.0"
	width="480.875"
	height="610.21875">
<defs />
<path
	d="m 0,0 0,369.78125 c 0,133.20175 107.23575,240.4375 240.4375,240.4375 133.20175,0 240.4375,-107.23575 240.4375,-240.4375 L 480.875,0 0,0 z"
	style="fill:#000;stroke:none" />
<path
	d="m 136.57111,64.625 0,52.75 75.03125,0 0,161.90625 49.375,0 0,-161.90625 78,0 0,-52.75 -202.40625,0 z m -100.625,74.28125 0,185.6875 51.25,0 0,-71.28125 50.125,0 0,71.28125 50.5,0 0,-185.6875 -50.5,0 0,67.96875 -50.125,0 0,-67.96875 -51.25,0 z m 251.0625,0 0,185.6875 51.25,0 0,-71.28125 50.125,0 0,71.28125 50.5,0 0,-185.6875 -50.5,0 0,67.96875 -50.125,0 0,-67.96875 -51.25,0 z m -50.15625,174.9375 c -53.12227,0 -96.1875,43.06523 -96.1875,96.1875 0,53.12227 43.06523,96.1875 96.1875,96.1875 40.96999,0 75.92325,-25.62721 89.78125,-61.71875 l -45.40625,-17.4375 c -6.84944,17.83534 -24.12635,30.5 -44.375,30.5 -26.25348,0 -47.53125,-21.27777 -47.53125,-47.53125 0,-26.25348 21.27777,-47.5625 47.53125,-47.5625 20.24865,0 37.52556,12.68741 44.375,30.53125 l 45.40625,-17.4375 C 312.77079,339.47281 277.8224,313.84375 236.85236,313.84375 z"
	style="fill:#ff0;stroke:none" />
</svg>
