<?xml version="1.0" encoding="UTF-8"?>
<!DOCTYPE svg PUBLIC "-//W3C//DTD SVG 1.1//EN" "http://www.w3.org/Graphics/SVG/1.1/DTD/svg11.dtd">
<svg fill="none" xmlns="http://www.w3.org/2000/svg" viewBox="0 0 420 420">
    <path d="M115.973 364.641a49.094 49.094 0 0 0 8.031-5.836 24.434 24.434 0 0 0 2.598-2.746 14.46 14.46 0 0 0 1.9-2.952 8.034 8.034 0 0 0 .777-3.061 5.247 5.247 0 0 0-.846-3.021 3.099 3.099 0 0 0-1.968.275 10.244 10.244 0 0 0-2.707 2.116 56.185 56.185 0 0 0-4.045 4.675c-1.627 2.047-3.596 4.711-5.905 7.991a57.34 57.34 0 0 0-4.508 7.313 32.917 32.917 0 0 0-2.323 5.777 15.524 15.524 0 0 0-.669 4.36 12.73 12.73 0 0 0 .393 3.09l2.668-1.26a23.917 23.917 0 0 1 3.484-1.338 22.767 22.767 0 0 1 3.769-.807 8.847 8.847 0 0 1 3.445.167c.089 0 .138 0 .138.079.21.036.413.106.6.206l.532.286a8.06 8.06 0 0 1 3.09 2.667 7.765 7.765 0 0 1 1.201 3.307 10.069 10.069 0 0 1-.217 3.553 21.642 21.642 0 0 1-1.082 3.415c-.406.988-.89 1.942-1.447 2.854-.4.652-.847 1.273-1.339 1.86a21.038 21.038 0 0 1-3.336 3.031 19.93 19.93 0 0 1-4.616 2.53 15.502 15.502 0 0 1-5.453.984 12.325 12.325 0 0 1-5.905-1.585 15.062 15.062 0 0 1-4.4-2.952 7.256 7.256 0 0 1-1.653-2.638 3.375 3.375 0 0 1 .148-2.539 16.186 16.186 0 0 0 3.72 3.139 11.724 11.724 0 0 0 4.262 1.575c1.478.238 2.991.144 4.429-.275a11.491 11.491 0 0 0 4.33-2.461 15.595 15.595 0 0 0 3.238-3.937 21.942 21.942 0 0 0 1.792-4.045 19.02 19.02 0 0 0 .777-3.306c.118-.945.177-1.555.177-1.831a.547.547 0 0 0-.147-.423c-.65.275-1.486.6-2.49.984-1.004.384-2.077.679-3.209.984-1.11.303-2.237.54-3.376.709-.976.18-1.976.18-2.952 0a14.38 14.38 0 0 1-2.5-.591 8.983 8.983 0 0 1-2.746-1.446 8.078 8.078 0 0 1-2.175-2.569 7.874 7.874 0 0 1-.847-4.006 17.902 17.902 0 0 1 1.27-5.806 39.329 39.329 0 0 1 4.252-7.952c1.732-2.625 3.372-4.921 4.921-6.89 1.548-1.968 2.988-3.667 4.32-5.098a36.687 36.687 0 0 1 3.77-3.552c1.171-.935 2.224-1.713 3.159-2.323a12.601 12.601 0 0 1 5.847-2.116 5.71 5.71 0 0 1 2.283.394 4.585 4.585 0 0 1 1.447.984c.54.416 1.056.863 1.545 1.338a10.803 10.803 0 0 1 1.968 2.5 12.648 12.648 0 0 1 1.329 3.514 8.601 8.601 0 0 1-.275 4.438 16.163 16.163 0 0 1-2.953 5.206 32.707 32.707 0 0 1-6.585 5.905 11.061 11.061 0 0 1-3.375.424 9.064 9.064 0 0 1-2.884-.67 5.451 5.451 0 0 1-2.539-2.362" fill="#00205C"></path>
    <path d="M154.259 349.583a54.903 54.903 0 0 1 6.643-.521 14.03 14.03 0 0 1 4.754.59 2.952 2.952 0 0 1 2.077 2.116c.206.984-.227 2.274-1.309 3.868a3.166 3.166 0 0 0-1.545-1.899 10.021 10.021 0 0 0-3.239-1.201 23.69 23.69 0 0 0-5.974-.354l-1.584.137c-.542 0-1.122.118-1.723.217a136.941 136.941 0 0 0-2.539 4.074c-.932 1.549-1.893 3.156-2.884 4.823a284.841 284.841 0 0 0-2.884 4.999 147.233 147.233 0 0 0-2.529 4.675 217.55 217.55 0 0 0-3.277 6.82 91.606 91.606 0 0 0-2.707 6.585 18.303 18.303 0 0 0-1.161 4.92c-.069 1.3.383 1.92 1.368 1.87a2.453 2.453 0 0 0 1.407-.561 14.993 14.993 0 0 0 1.654-1.397 21.632 21.632 0 0 0 1.761-1.969 72.966 72.966 0 0 0 1.723-2.214 130.428 130.428 0 0 0 4.015-5.984l.916 2.392a55.034 55.034 0 0 1-5.286 7.46 27.706 27.706 0 0 1-2.312 2.46 14.45 14.45 0 0 1-2.431 1.87 6.081 6.081 0 0 1-2.392.876 2.952 2.952 0 0 1-2.146-.561 6.932 6.932 0 0 1-2.706-3.346 11.168 11.168 0 0 1-.67-3.937c.018-1.301.22-2.593.601-3.838.374-1.22.699-2.204.984-2.952.846-2.015 1.795-4.15 2.844-6.407a176.135 176.135 0 0 1 3.347-6.712c1.171-2.225 2.342-4.4 3.523-6.516 1.181-2.116 2.244-4.035 3.228-5.767-2.624.564-5.193 1.07-7.706 1.516a24.826 24.826 0 0 1-6.397.423 4.553 4.553 0 0 1-3.622-1.762c-.656-1.01-.446-2.65.63-4.921.209.58.535 1.109.958 1.557.424.447.935.801 1.502 1.042 1.551.61 3.196.943 4.862.984a29.576 29.576 0 0 0 8.858-1.162c.473-.088.925-.196 1.378-.314.453-.119.876-.227 1.299-.315.423-.709.817-1.349 1.201-1.969.384-.62.679-1.092.915-1.515.228-.437.485-.857.768-1.26.257-.05.521-.05.777 0l.985.177c.393.069.876.167 1.437.315a9.798 9.798 0 0 1 1.791.669c.403.207.718.384.984.522.186.14.352.306.492.492a.648.648 0 0 0-.138.216c-.097.092-.18.198-.246.315l-.246.384" fill="#00205C"></path>
    <path d="M163.825 391.312a2.586 2.586 0 0 0 1.437-.561c.593-.419 1.146-.89 1.654-1.407a23.137 23.137 0 0 0 1.732-1.969 93.441 93.441 0 0 0 1.722-2.214 148.42 148.42 0 0 0 4.006-5.984l.916 2.392a54.964 54.964 0 0 1-5.276 7.46 27.684 27.684 0 0 1-2.323 2.46 13.746 13.746 0 0 1-2.431 1.87 5.969 5.969 0 0 1-2.391.876 2.952 2.952 0 0 1-2.146-.561 7.974 7.974 0 0 1-1.968-2.037 7.844 7.844 0 0 1-1.063-2.392 9.414 9.414 0 0 1-.276-2.568c.017-.862.099-1.72.246-2.569a33.999 33.999 0 0 1-4.822 6.712 13.888 13.888 0 0 1-3.691 2.854 4.446 4.446 0 0 1-3.169.423 6.826 6.826 0 0 1-3.77-4.507 14.41 14.41 0 0 1 0-6.545 32.243 32.243 0 0 1 2.677-7.45 66.493 66.493 0 0 1 4.114-7.253 59.837 59.837 0 0 1 4.331-5.905 24.72 24.72 0 0 1 3.307-3.416 6.779 6.779 0 0 1 3.69-1.299 9.793 9.793 0 0 1 3.445.532c.961.324 1.874.774 2.717 1.338.748.512 1.24.866 1.476 1.053.276-.521.531-.984.768-1.338l.58-.866c.187-.276.345-.542.492-.778.235.007.469.034.699.079.237 0 .542.118.916.207l1.407.354c.628.17 1.241.394 1.831.669.423.207.748.384.984.522.196.153.383.317.561.492a21.343 21.343 0 0 0-1.614 2.323 56.088 56.088 0 0 0-2.077 3.415 126.365 126.365 0 0 0-2.854 5.383c-1.083 2.155-2.234 4.429-3.337 6.82a70.337 70.337 0 0 0-2.677 6.584 19.21 19.21 0 0 0-1.122 4.921c-.078 1.299.355 1.919 1.299 1.87v.01Zm-4.084-13.66c1.358-3.373 2.67-6.325 3.937-8.858a204.6 204.6 0 0 1 3.346-6.446 5.806 5.806 0 0 0-2.214-.177c-1.398.246-2.735.76-3.937 1.515a12.326 12.326 0 0 0-3.455 3.307 44.37 44.37 0 0 0-3.553 5.521 88.08 88.08 0 0 0-3.228 6.545c-1.004 2.274-1.85 4.39-2.5 6.338a31.953 31.953 0 0 0-1.309 4.921c-.207 1.309-.098 2.037.325 2.175.423.138.866 0 1.476-.522a18.005 18.005 0 0 0 2.077-2.047 64.802 64.802 0 0 0 2.46-2.952 69.053 69.053 0 0 0 2.5-3.376 331.691 331.691 0 0 0 2.244-3.277c.699-1.033 1.29-1.9 1.762-2.598" fill="#00205C"></path>
    <path d="M193.588 391.45a2.645 2.645 0 0 0 1.447-.561 13.443 13.443 0 0 0 1.653-1.407 25.18 25.18 0 0 0 1.723-1.969 76.671 76.671 0 0 0 1.722-2.214c1.27-1.732 2.599-3.701 4.006-5.905l.915 2.391a59.378 59.378 0 0 1-5.275 7.313 45.749 45.749 0 0 1-2.323 2.431 12.355 12.355 0 0 1-2.392 1.86 5.981 5.981 0 0 1-2.352.846 2.949 2.949 0 0 1-2.145-.561 7.745 7.745 0 0 1-2.185-2.214 7.305 7.305 0 0 1-.985-2.608 13.406 13.406 0 0 1-.177-2.815c.043-.91.162-1.816.355-2.706a37.001 37.001 0 0 1-4.921 7.213 14.483 14.483 0 0 1-3.8 3.061 4.265 4.265 0 0 1-3.307.423 6.81 6.81 0 0 1-3.769-4.468 14.143 14.143 0 0 1 0-6.515 32.61 32.61 0 0 1 2.667-7.45 68.317 68.317 0 0 1 4.124-7.253 59.902 59.902 0 0 1 4.321-5.905 24.657 24.657 0 0 1 3.307-3.415 6.502 6.502 0 0 1 4.045-1.329c1.271.02 2.526.28 3.7.768a15.304 15.304 0 0 1 3.731 2.253l.275.217a186.748 186.748 0 0 1 3.169-5.669c1.031-1.765 1.946-3.3 2.746-4.606a102.384 102.384 0 0 1 2.53-4.222c.21.06.423.106.64.138l.915.177c.374.069.836.177 1.397.315.627.174 1.239.398 1.831.669.338.158.667.336.984.532.2.153.39.317.571.492a337.331 337.331 0 0 0-5 8.021 485.9 485.9 0 0 0-4.399 7.312c-1.522 2.579-2.835 4.97-3.937 7.175a165.59 165.59 0 0 0-3.336 6.83 69.782 69.782 0 0 0-2.678 6.574 19.285 19.285 0 0 0-1.122 4.921c-.068 1.289.365 1.889 1.3 1.791l.029.069Zm-3.307-15.294a127.474 127.474 0 0 1 3.238-6.83 295.383 295.383 0 0 1 3.593-6.821 14.28 14.28 0 0 0-.985-.285 4.088 4.088 0 0 0-1.328-.069 7.79 7.79 0 0 0-1.801.423c-.858.317-1.693.692-2.5 1.122a12.455 12.455 0 0 0-3.445 3.307 44.37 44.37 0 0 0-3.553 5.521 88.135 88.135 0 0 0-3.238 6.545 76.625 76.625 0 0 0-2.5 6.299 32.269 32.269 0 0 0-1.299 4.852c-.207 1.319-.108 2.047.315 2.185.423.137 1.043-.148 1.87-.876a28.066 28.066 0 0 0 2.706-2.854c.985-1.172 1.969-2.471 3.022-3.937a356.473 356.473 0 0 0 2.854-4.045c.886-1.27 1.585-2.333 2.146-3.199.561-.866.866-1.328.915-1.368" fill="#00205C"></path>
    <path d="M226.805 349.583a54.92 54.92 0 0 1 6.644-.521 14.006 14.006 0 0 1 4.754.59 2.949 2.949 0 0 1 2.076 2.116c.207.984-.226 2.274-1.309 3.868a3.15 3.15 0 0 0-1.545-1.9 10.002 10.002 0 0 0-3.238-1.19 23.74 23.74 0 0 0-5.974-.355l-1.585.138c-.541 0-1.122.118-1.722.217a167.446 167.446 0 0 0-2.539 4.074c-.939 1.549-1.9 3.156-2.884 4.823a278.65 278.65 0 0 0-2.884 4.999c-.984 1.663-1.781 3.218-2.529 4.675a218.673 218.673 0 0 0-3.278 6.82 92.015 92.015 0 0 0-2.706 6.584 18.32 18.32 0 0 0-1.162 4.921c-.069 1.299.384 1.919 1.368 1.87a2.456 2.456 0 0 0 1.408-.561 15.088 15.088 0 0 0 1.653-1.407 21.643 21.643 0 0 0 1.762-1.969 72.932 72.932 0 0 0 1.722-2.214 130.4 130.4 0 0 0 4.016-5.984l.915 2.392a54.939 54.939 0 0 1-5.285 7.46 29.22 29.22 0 0 1-2.313 2.46 14.45 14.45 0 0 1-2.431 1.87 6.071 6.071 0 0 1-2.391.876 2.952 2.952 0 0 1-2.146-.561 6.89 6.89 0 0 1-2.746-3.376 11.166 11.166 0 0 1-.669-3.936c.018-1.302.22-2.594.6-3.839.374-1.22.699-2.204.984-2.952.847-2.014 1.795-4.15 2.845-6.407a177.6 177.6 0 0 1 3.346-6.712 350.208 350.208 0 0 1 3.514-6.515 583.232 583.232 0 0 1 3.238-5.767 218.331 218.331 0 0 1-7.707 1.515 24.823 24.823 0 0 1-6.397.423 4.542 4.542 0 0 1-3.622-1.761c-.656-1.011-.446-2.651.63-4.921a4.461 4.461 0 0 0 2.46 2.598c1.551.61 3.197.943 4.862.984a29.571 29.571 0 0 0 8.858-1.161c.473-.089.926-.197 1.378-.315a28.2 28.2 0 0 1 1.299-.315c.424-.709.817-1.348 1.201-1.968.384-.62.679-1.093.916-1.516.228-.436.484-.857.767-1.26.257-.05.521-.05.778 0 .275.049.62.099.984.177.364.079.886.168 1.447.315a9.729 9.729 0 0 1 1.791.67c.404.206.719.383.984.521.186.141.352.306.492.492a.625.625 0 0 0-.137.217 1.275 1.275 0 0 0-.246.315l-.247.384" fill="#00205C"></path>
    <path d="M246.785 380.752a15.24 15.24 0 0 1-1.476 1.624c-.656.656-1.641 1.522-2.953 2.598a283.891 283.891 0 0 1-5.315 4.222 21.572 21.572 0 0 1-6.643 3.77 11.181 11.181 0 0 1-5.029.521h-.148a.354.354 0 0 1-.177 0 .153.153 0 0 0-.099 0h-.078a8.804 8.804 0 0 1-1.821-.59 9.857 9.857 0 0 1-1.565-.994 6.043 6.043 0 0 1-2.461-2.599l-1.761 4.852a103.541 103.541 0 0 0-2.569 11.811c-.44 3.155-.473 5.347-.099 6.574a10.998 10.998 0 0 1-2.815-.492 8.044 8.044 0 0 1-2.391-1.201 6.881 6.881 0 0 1-2.047-2.392c-.276-.462-.276-1.495 0-3.09a56.745 56.745 0 0 1 1.446-5.846c.68-2.293 1.516-4.842 2.5-7.627a470.15 470.15 0 0 1 3.13-8.592 265.679 265.679 0 0 1 3.415-8.651c1.181-2.834 2.274-5.452 3.307-7.873 1.034-2.421 1.969-4.458 2.845-6.191a29.303 29.303 0 0 1 1.968-3.592l2.677.561c.705.189 1.395.426 2.067.709a4.165 4.165 0 0 1 1.585 1.053c-.423.708-.886 1.476-1.408 2.322l-1.476 2.608-1.831 3.229c.187-.276.355-.512.492-.699a68.525 68.525 0 0 1 4.823-6.545 9.556 9.556 0 0 1 3.484-2.854 2.077 2.077 0 0 1 2.5.748 11.626 11.626 0 0 1 1.791 4.291c.436 1.984.52 4.03.246 6.043a39.542 39.542 0 0 1-1.515 7.253 47.066 47.066 0 0 1-2.845 7.244 31.512 31.512 0 0 1-3.769 6.052 33.523 33.523 0 0 0 4.537-2.814 44.388 44.388 0 0 0 3.937-3.17 77.402 77.402 0 0 0 3.878-3.651l1.663 1.378Zm-10.541-21.327a8.844 8.844 0 0 0-2.224 2.077 47.125 47.125 0 0 0-2.569 3.553 84.946 84.946 0 0 0-2.707 4.468 116.55 116.55 0 0 0-2.637 4.921c-1.969 3.844-4.009 8.089-6.122 12.735a3.583 3.583 0 0 0 1.053 1.614c.352.293.761.511 1.201.639.459.138.948.138 1.407 0a8.012 8.012 0 0 0 4.075-3.06 29.819 29.819 0 0 0 3.169-5.384 60.383 60.383 0 0 0 2.5-6.298c.728-2.185 1.397-4.114 1.968-5.807a22.049 22.049 0 0 0 1.162-4.321 16.76 16.76 0 0 0 .177-2.952 6.162 6.162 0 0 0-.453-2.185" fill="#00205C"></path>
    <path d="M262.267 391.312a2.617 2.617 0 0 0 1.437-.561c.592-.418 1.145-.89 1.653-1.407a21.486 21.486 0 0 0 1.723-1.969 96.526 96.526 0 0 0 1.732-2.214 149.488 149.488 0 0 0 4.006-5.984l.915 2.392a54.957 54.957 0 0 1-5.275 7.46c-.724.866-1.5 1.688-2.323 2.46a13.782 13.782 0 0 1-2.431 1.87 5.973 5.973 0 0 1-2.392.876 2.949 2.949 0 0 1-2.145-.561 7.88 7.88 0 0 1-1.969-2.037 8.062 8.062 0 0 1-1.053-2.392 9.45 9.45 0 0 1-.276-2.568c.017-.861.099-1.72.246-2.569a34.365 34.365 0 0 1-4.822 6.712 14.003 14.003 0 0 1-3.691 2.854 4.445 4.445 0 0 1-3.169.423 6.832 6.832 0 0 1-3.77-4.507 14.438 14.438 0 0 1 0-6.545 32.243 32.243 0 0 1 2.677-7.45 66.753 66.753 0 0 1 4.114-7.253 60.161 60.161 0 0 1 4.331-5.905 23.627 23.627 0 0 1 3.307-3.415 6.757 6.757 0 0 1 3.691-1.3 9.787 9.787 0 0 1 3.444.532c.958.324 1.868.774 2.707 1.338.758.512 1.25.866 1.486 1.053.276-.511.532-.984.768-1.338.236-.354.423-.679.561-.915.138-.237.354-.542.492-.778.238.007.475.034.709.079.236 0 .541.118.915.207l1.407.354c.629.17 1.241.394 1.831.669.423.207.748.384.984.522.196.153.384.317.561.492a20.21 20.21 0 0 0-1.614 2.322c-.571.847-1.26 1.969-2.077 3.416a127.524 127.524 0 0 0-2.854 5.383c-1.082 2.155-2.234 4.429-3.336 6.82a69.798 69.798 0 0 0-2.677 6.584 19.666 19.666 0 0 0-1.132 4.921c-.069 1.299.364 1.919 1.309 1.87v.059Zm-4.085-13.709c1.359-3.373 2.671-6.325 3.937-8.858a204.387 204.387 0 0 1 3.347-6.446 5.904 5.904 0 0 0-2.225-.177 10.94 10.94 0 0 0-3.937 1.515 12.322 12.322 0 0 0-3.454 3.307 44.256 44.256 0 0 0-3.553 5.521 87.745 87.745 0 0 0-3.238 6.545 69.743 69.743 0 0 0-2.49 6.338 31.81 31.81 0 0 0-1.309 4.921c-.207 1.309-.099 2.037.324 2.175.424.138.866 0 1.477-.522a17.917 17.917 0 0 0 2.076-2.047 64.782 64.782 0 0 0 2.461-2.952 76.241 76.241 0 0 0 2.5-3.376c.807-1.151 1.545-2.244 2.244-3.277.699-1.034 1.289-1.9 1.762-2.598" fill="#00205C"></path>
    <path d="M307.935 367.298a45.273 45.273 0 0 1-5.906 6.476 37.582 37.582 0 0 1-2.598 1.969 10.485 10.485 0 0 1-2.677 1.338 6.333 6.333 0 0 1-2.608.276 3.88 3.88 0 0 1-2.323-1.191 5.893 5.893 0 0 1-2.037-4.291 10.746 10.746 0 0 1 1.053-4.577 76.968 76.968 0 0 0-7.313 9.498c-2.067 3.188-3.779 6.072-5.138 8.651a92.683 92.683 0 0 0-3.937 8.798 2.596 2.596 0 0 1-1.269 0 5.313 5.313 0 0 1-1.053-.463 3.911 3.911 0 0 1-1.063-.777 11.991 11.991 0 0 1-1.231-4.921 22.47 22.47 0 0 1 .532-5.629 40.07 40.07 0 0 1 1.762-5.905 56.405 56.405 0 0 1 2.529-5.709 90.895 90.895 0 0 1 8.09-13.079c1.203.01 2.403.102 3.593.275a5.643 5.643 0 0 1 1.762.561.983.983 0 0 1 .629.847 86.14 86.14 0 0 0-7.076 11.013c-1.752 3.359-3.146 6.311-4.183 8.857a45.847 45.847 0 0 0-2.608 8.021 57.732 57.732 0 0 1 4.084-7.873 75.84 75.84 0 0 1 9.842-12.637 133.842 133.842 0 0 1 4.548-4.468 87.386 87.386 0 0 1 3.444-3.061c.935-.777 1.546-1.25 1.831-1.437l.069-.069h.069c.138 0 .561 0 1.269.099a8.156 8.156 0 0 1 2.077.492c.604.2 1.114.613 1.437 1.161.285.522.069 1.221-.63 2.116l-3.415 4.291a51.952 51.952 0 0 0-3.061 4.252 12.768 12.768 0 0 0-1.653 3.523c-.256.984 0 1.653.807 1.968.338.064.688.001.984-.177a12.416 12.416 0 0 0 1.584-.984 24.062 24.062 0 0 0 1.969-1.516 38.14 38.14 0 0 0 1.968-1.791 166.947 166.947 0 0 0 5.069-4.989l.778 1.062Z" fill="#00205C"></path>
    <path d="M315.602 392.09c.187 0 .462-.099.846-.423.442-.401.862-.825 1.26-1.27.472-.512.984-1.122 1.515-1.831.532-.708 1.063-1.407 1.585-2.106a123.015 123.015 0 0 0 3.937-5.846l.64 1.27a43.338 43.338 0 0 1-6.093 9.29c-1.85 1.969-3.72 3.002-5.59 3.091a3.703 3.703 0 0 1-2.461-.699 4.988 4.988 0 0 1-1.623-2.047 7.002 7.002 0 0 1-.561-2.884 8.73 8.73 0 0 1 .698-3.307c.547-1.123.881-2.337.985-3.582a5.713 5.713 0 0 0-.217-1.83 5.007 5.007 0 0 1-1.053-.247 5.845 5.845 0 0 1-.984-.462 169.734 169.734 0 0 1-1.9 4.153 292.631 292.631 0 0 1-2.362 4.921l-2.844 5.905h-.178a6.911 6.911 0 0 1-1.683-.561 4.905 4.905 0 0 1-1.161-.778 4.015 4.015 0 0 1-.738-.875c-.187-.305-.354-.571-.492-.807a5.445 5.445 0 0 1-.492-2.717c.046-1.076.187-2.147.423-3.198a23.35 23.35 0 0 1 .876-3.091c.354-.984.669-1.81.984-2.47a83.779 83.779 0 0 1 2.293-5.305c.866-1.86 1.782-3.72 2.746-5.599.965-1.88 1.969-3.73 2.953-5.561.984-1.831 1.968-3.563 2.884-5.206a315.793 315.793 0 0 1 6.83-11.466c.212.006.422.029.63.069l.915.177c.374.069.847.177 1.408.315.627.175 1.239.398 1.83.669.424.217.748.384.985.532.198.15.386.315.561.492a231.342 231.342 0 0 0-4.99 8.021 420.822 420.822 0 0 0-4.4 7.352 140.234 140.234 0 0 0-3.937 7.145 53.15 53.15 0 0 1-1.191 2.391 37.897 37.897 0 0 0-1.2 2.461 115.78 115.78 0 0 1 3.937-6.89 54.564 54.564 0 0 1 4.222-6.19 23.932 23.932 0 0 1 4.183-4.261 4.191 4.191 0 0 1 3.73-1.054 3.263 3.263 0 0 1 2.461 2.323 8.288 8.288 0 0 1-.069 4.153 23.778 23.778 0 0 1-1.861 5.029 33.908 33.908 0 0 1-2.952 4.921 28.54 28.54 0 0 1-3.317 3.799 6.043 6.043 0 0 1-2.953 1.752c.478.563.925 1.151 1.339 1.762.606.937.845 2.066.669 3.169a21.868 21.868 0 0 1-.748 3.375 55.442 55.442 0 0 0-.768 2.746c-.187.748 0 1.171.493 1.27v.01Zm-5.906-15.422a6.349 6.349 0 0 0 2.431-1.162 14.309 14.309 0 0 0 2.185-2.076 18.8 18.8 0 0 0 1.86-2.608 37.915 37.915 0 0 0 1.546-2.815 50.854 50.854 0 0 0 2.815-7.312c-.516.247-.97.607-1.329 1.053a20.944 20.944 0 0 0-1.624 1.968 95.987 95.987 0 0 0-1.791 2.569 74.915 74.915 0 0 0-1.802 2.814 201.38 201.38 0 0 0-4.291 7.529M153.885 326.947a7.205 7.205 0 0 1 2.952 2.776 8.452 8.452 0 0 1 0 8.228 7.186 7.186 0 0 1-3.011 2.795 9.765 9.765 0 0 1-4.478.984h-6.605v-15.767h6.792a9.213 9.213 0 0 1 4.379.984h-.029Zm-2.116 10.896a3.75 3.75 0 0 0 1.437-1.605 5.214 5.214 0 0 0 .521-2.362 5.03 5.03 0 0 0-.551-2.382 4.064 4.064 0 0 0-1.575-1.594 4.275 4.275 0 0 0-2.214-.571h-2.589v9.094h2.835a3.985 3.985 0 0 0 2.116-.561M161.079 325.934h12.461v3.287h-8.337v2.953h7.52v3.257l-7.52.03v2.972h8.553v3.288h-12.677v-15.787ZM186.886 341.711l-2.294-4.37h-3.061v4.37h-4.123v-15.748h7.096a7.346 7.346 0 0 1 4.852 1.447 5.08 5.08 0 0 1 1.722 4.094 6.319 6.319 0 0 1-.718 3.071 5.007 5.007 0 0 1-2.096 1.969l3.287 5.157-4.665.01Zm-5.355-7.658h2.953a2.822 2.822 0 0 0 1.969-.629c.237-.24.421-.527.54-.842.118-.316.169-.653.149-.989a2.278 2.278 0 0 0-.689-1.762 2.83 2.83 0 0 0-1.969-.62h-2.953v4.842ZM210.556 329.752a4.386 4.386 0 0 0-2.096-.58 4.126 4.126 0 0 0-2.175.6 4.214 4.214 0 0 0-1.546 1.644 5.123 5.123 0 0 0 0 4.665 4.36 4.36 0 0 0 1.546 1.644 4.122 4.122 0 0 0 2.175.59 4.917 4.917 0 0 0 2.027-.492 6.513 6.513 0 0 0 1.89-1.348l2.411 2.588a9.776 9.776 0 0 1-3.051 2.146 8.505 8.505 0 0 1-3.504.797 8.37 8.37 0 0 1-4.232-1.073 7.989 7.989 0 0 1-2.952-2.953 8.264 8.264 0 0 1-1.083-4.192 7.869 7.869 0 0 1 4.134-7.047 8.849 8.849 0 0 1 4.31-1.053 8.645 8.645 0 0 1 3.465.728 8.49 8.49 0 0 1 2.903 1.968l-2.381 2.874a6.06 6.06 0 0 0-1.821-1.535M217.672 325.934h4.114v12.273h6.693v3.514h-10.807v-15.787ZM236.244 337.597a2.962 2.962 0 0 0 2.234.895 2.772 2.772 0 0 0 2.146-.886 3.375 3.375 0 0 0 .827-2.401v-9.242h4.124v9.272a7.17 7.17 0 0 1-.876 3.592 5.83 5.83 0 0 1-2.471 2.382 8.143 8.143 0 0 1-3.769.826 8.306 8.306 0 0 1-3.799-.826 5.906 5.906 0 0 1-2.52-2.382 7.084 7.084 0 0 1-.896-3.592v-9.272h4.124v9.272a3.299 3.299 0 0 0 .876 2.391M260.052 326.416a4.465 4.465 0 0 1 2.038 1.388c.48.592.737 1.334.728 2.096a3.327 3.327 0 0 1-.738 2.155 3.644 3.644 0 0 1-1.969 1.27 3.838 3.838 0 0 1 2.372 1.368 4.02 4.02 0 0 1 .866 2.608 3.802 3.802 0 0 1-.738 2.333 4.653 4.653 0 0 1-2.116 1.535 8.919 8.919 0 0 1-3.228.532h-7.785v-15.738h7.5a8.87 8.87 0 0 1 3.09.482l-.02-.029Zm-1.948 5.413a1.43 1.43 0 0 0 .492-1.161 1.311 1.311 0 0 0-.492-1.112 2.013 2.013 0 0 0-1.349-.374h-3.149v3.06h3.149c.485.028.963-.118 1.349-.413Zm.364 6.27a1.483 1.483 0 0 0 .63-1.26 1.379 1.379 0 0 0-.63-1.181 2.877 2.877 0 0 0-1.713-.423h-3.149v3.316h3.149a2.88 2.88 0 0 0 1.713-.452M276.961 325.934h-4.124v15.787h4.124v-15.787ZM281.144 325.934h4.478l4.567 9.232 4.557-9.232h4.478v15.787h-3.651l-.02-10-4.035 8.415h-2.658l-4.045-8.415v10h-3.671v-15.787Z" fill="#00205C"></path>
    <path d="m210.995 3.902 138.005 138H210.995v-138ZM73 141.902h137.995v138L73 141.902Z" fill="#FED925"></path>
    <path d="M73 141.902h137.995v-138L73 141.902ZM210.995 141.902H349l-138.005 138v-138Z" fill="#00205C"></path>
    <path d="M244.881 186.087v-36.093h-8.388v41.055l-9.471 5.621v-46.676h-8.377v110.828l8.377-8.319v-46.214l9.471-5.651V243.1l8.388-8.309V186.087ZM272.191 149.994v19.898l-9.461 5.611v-25.509h-8.388V225.418l8.388-8.348v-31.869l9.461-5.573v28.049l8.387-8.319V149.994h-8.387ZM167.254 88.994v-29.86l-8.377 8.387v26.523l-9.471 5.69V76.984l-8.378 8.26v21.945l-.01 7.216h.01l-.01 19.405h8.388v-24.416l9.471-5.651v30.067h8.377V88.994ZM136.263 90.136l-28.737 28.728.088 9.599 10.554-10.544.138 15.89h8.378l-.128-24.278 9.707-9.343V90.136ZM188.441 44.07c-7.01 0-12.72 3.938-13.065 8.95v71.357c0 5.208 5.907 9.432 13.094 9.432 7.187 0 13.104-4.224 13.104-9.432v-21.974l-7.817 4.312v15.211a5.29 5.29 0 0 1-5.272 4.892 5.284 5.284 0 0 1-5.272-4.892V54.89a5.287 5.287 0 0 1 10.544 0v19.946l7.876-4.312V53.492c-.089-5.238-5.956-9.422-13.192-9.422ZM297.265 157.467c-.921 0-1.838.123-2.727.364.327.887.429 1.841.296 2.777-.305 1.536-7.433 10.781-.719 14.532 5.907 3.318 9.441-1.969 10.071-3.151 1.27-2.373 1.467-7.669 1.487-10.416a10.666 10.666 0 0 0-8.408-4.106Z" fill="#fff"></path>
    <path d="M305.279 172.511c-.709 1.575-5.769 7.434-11.814 3.643-7.147-4.46-.078-14.365.207-15.753a4.748 4.748 0 0 0-.256-2.156 10.712 10.712 0 1 0 13.409 5.1c-.089 2.52-.414 6.665-1.546 9.166Z" fill="#fff"></path>
    <path d="M306.244 148.675a11.307 11.307 0 0 0-10.721 7.748 11.302 11.302 0 0 1 1.742-.147 11.94 11.94 0 0 1 11.922 11.932 12.297 12.297 0 0 1-.334 2.776 11.299 11.299 0 0 0 8.659-12.319 11.304 11.304 0 0 0-11.268-9.99Z" fill="#fff"></path>
</svg>