<?xml version="1.0" encoding="UTF-8" standalone="no"?>
<!DOCTYPE svg PUBLIC "-//W3C//DTD SVG 1.1//EN" "http://www.w3.org/Graphics/SVG/1.1/DTD/svg11.dtd">
<svg width="211px" height="211px" viewBox="0 0 211 211" version="1.1" xmlns="http://www.w3.org/2000/svg" xmlns:xlink="http://www.w3.org/1999/xlink">
    <g id="Hamburg" stroke="none" stroke-width="1" fill="none" fill-rule="evenodd">
        <g id="266-UHC-colour">
            <path d="M210.006,106.402 C210.006,164.065 163.262,210.811 105.598,210.811 C47.934,210.811 1.188,164.065 1.188,106.402 C1.188,48.739 47.934,1.993 105.598,1.993 C163.262,1.993 210.006,48.739 210.006,106.402" id="Fill-1" fill="#9DD6EA"></path>
            <path d="M210.006,106.402 C210.006,164.065 163.262,210.811 105.598,210.811 C47.934,210.811 1.188,164.065 1.188,106.402 C1.188,48.739 47.934,1.993 105.598,1.993 C163.262,1.993 210.006,48.739 210.006,106.402 Z" id="Stroke-2" stroke="#111746" stroke-width="2.376"></path>
            <path d="M176.327,106.402 C176.327,145.464 144.662,177.132 105.598,177.132 C66.536,177.132 34.87,145.464 34.87,106.402 C34.87,67.34 66.536,35.673 105.598,35.673 C144.662,35.673 176.327,67.34 176.327,106.402" id="Fill-4" fill="#911332"></path>
            <path d="M176.327,106.402 C176.327,145.464 144.662,177.132 105.598,177.132 C66.536,177.132 34.87,145.464 34.87,106.402 C34.87,67.34 66.536,35.673 105.598,35.673 C144.662,35.673 176.327,67.34 176.327,106.402 Z" id="Stroke-5" stroke="#111746" stroke-width="2.376"></path>
            <path d="M28.983,144.429 C28.983,145.77 27.893,146.86 26.549,146.86 C25.206,146.86 24.116,145.77 24.116,144.429 C24.116,143.083 25.206,141.995 26.549,141.995 C27.893,141.995 28.983,143.083 28.983,144.429" id="Fill-6" fill="#111746"></path>
            <path d="M187.207,144.696 C187.207,146.038 186.118,147.128 184.774,147.128 C183.43,147.128 182.34,146.038 182.34,144.696 C182.34,143.35 183.43,142.263 184.774,142.263 C186.118,142.263 187.207,143.35 187.207,144.696" id="Fill-7" fill="#111746"></path>
            <path d="M123.397,44.173 C123.124,44.792 122.415,45.405 121.758,46.462 C123.67,46.159 127,43.107 128.03,44.048 C128.28,44.276 128.14,44.675 127.875,44.854 C126.749,45.62 123.372,47.37 121.758,48.677 C123.421,48.425 125.264,47.234 127.068,47.44 C127.545,47.495 127.545,48.12 127.018,48.399 C126.102,48.884 123.719,49.534 122.315,50.184 C123.594,50.235 125.217,49.761 125.915,50.311 C126,50.379 126.061,50.714 126.061,50.714 C126.28,52.073 120.738,51.173 116.1,52.247 C114.139,52.701 114.148,52.765 111.919,53.18 C109.607,53.612 107.465,54.089 105.352,55.192 C101.731,56.907 98.081,59.146 96.748,63.651 C96.42,64.782 96.422,66.672 96.243,66.6670099 C96.161,66.664 95.714,65.411 95.362,64.053 C94.831,62.112 95.184,60.428 93.878,59.121 C91.311,56.554 88.748,54.589 84.997,53.684 C84.558,53.578 84.116,53.133 84.088,52.651 C84.062,52.192 84.163,51.656 84.543,51.596 C85.592,51.432 89.021,53.18 89.021,53.18 C88.971,52.802 88.567,52.449 88.165,52.202 C86.202,50.917 83.077,48.511 83.989,46.362 C84.17,45.934 84.89,45.81 85.147,46.159 C86.044,47.374 87.979,50.053 88.781,50.458 C88.781,49.954 86.937,47.851 86.555,46.462 C86.191,45.139 86.327,43.432 87.21,42.988 C88.519,42.329 88.214,48.6 91.362,50.235 C91.412,48.525 88.577,46.64 90.227,45.757 C90.227,45.757 92.541,48.806 97.55,49.983 C98.905,50.302 100.469,52 100.469,52 C102.281,49.831 104.771,48.994 107.161,48.122 C110.87,46.768 115.299,47.521 118.148,47.007 C120.872,46.515 121.278,44.627 122.994,43.77 C123.295,43.77 123.488,43.966 123.397,44.173" id="Fill-8" fill="#FFFFFE"></path>
            <path d="M108.902,59.348 C109.225,61.008 108.851,61.911 108.399,62.389 C108.07,62.491 107.44,61.286 107.186,60.428 C106.809,59.121 107.137,57.533 107.591,56.983 C107.591,57.008 108.499,57.305 108.902,59.348" id="Fill-9" fill="#FFFFFE"></path>
            <path d="M91.026,62.831 C90.059,62.423 90.53,58.819 91.161,58.743 C91.79,58.642 91.934,62.607 91.026,62.831" id="Fill-10" fill="#FFFFFE"></path>
            <path d="M129.409,149.964 C129.391,149.737 128.1,152.077 129.205,154.821 C128.458,154.872 127.852,154.809 127.799,154.809 C127.356,153.597 127.032,151.046 128.34,149.864 C128.75,149.915 129.324,149.763 129.409,149.964" id="Fill-11" fill="#FFFFFE"></path>
            <path d="M126.737,149.964 C126.721,149.737 125.427,152.077 126.532,154.821 C125.785,154.872 125.235,154.809 125.18,154.809 C124.738,153.597 124.33,151.046 125.639,149.864 C126.047,149.915 126.651,149.763 126.737,149.964" id="Fill-12" fill="#FFFFFE"></path>
            <path d="M124.311,149.964 C124.293,149.737 123.001,152.077 124.106,154.821 C123.358,154.872 122.825,154.85 122.772,154.85 C122.327,153.639 121.92,151.089 123.229,149.905 C123.639,149.958 124.225,149.763 124.311,149.964" id="Fill-13" fill="#FFFFFE"></path>
            <path d="M122.061,149.964 C122.045,149.737 120.752,152.077 121.857,154.821 C121.11,154.872 120.665,154.684 120.611,154.684 C120.168,153.473 119.592,151.089 120.902,149.905 C121.311,149.958 121.977,149.763 122.061,149.964" id="Fill-14" fill="#FFFFFE"></path>
            <path d="M119.772,149.964 C119.756,149.737 118.463,152.077 119.567,154.821 C118.821,154.872 118.295,154.809 118.242,154.809 C117.799,153.597 117.475,151.089 118.782,149.905 C119.192,149.958 119.687,149.763 119.772,149.964" id="Fill-15" fill="#FFFFFE"></path>
            <path d="M117.358,149.964 C117.434,149.964 115.872,154.595 117.502,154.872 C116.714,154.739 117.083,154.708 116.225,154.86 C113.909,153.145 116.532,152.153 115.777,150.091 C116.081,149.587 116.6,149.712 117.358,149.964" id="Fill-16" fill="#FFFFFE"></path>
            <path d="M93.27,149.946 C93.27,149.946 92.415,152.276 93.27,154.766 C93.307,154.766 92.655,154.694 92.159,154.847 C91.077,152.507 91.684,149.686 92.198,149.964 L93.27,149.946" id="Fill-17" fill="#FFFFFE"></path>
            <path d="M90.528,149.946 C90.528,149.946 89.838,152.315 90.694,154.809 C90.731,154.809 89.981,154.694 89.487,154.847 C88.403,152.507 89.012,149.686 89.525,149.964 L90.528,149.946" id="Fill-18" fill="#FFFFFE"></path>
            <path d="M88.159,149.989 C88.159,149.989 87.262,152.276 88.118,154.766 C88.155,154.766 87.506,154.694 87.012,154.847 C85.93,152.507 86.538,149.686 87.05,149.964 L88.159,149.989" id="Fill-19" fill="#FFFFFE"></path>
            <path d="M85.501,149.946 C85.501,149.946 84.769,152.315 85.624,154.809 C85.662,154.809 84.933,154.694 84.439,154.847 C83.356,152.507 83.963,149.686 84.477,149.964 L85.501,149.946" id="Fill-20" fill="#FFFFFE"></path>
            <path d="M82.715,149.989 C82.715,149.989 82.026,152.276 82.881,154.766 C82.919,154.766 82.162,154.694 81.668,154.847 C80.585,152.507 81.193,149.686 81.706,149.964 L82.715,149.989" id="Fill-21" fill="#FFFFFE"></path>
            <path d="M79.973,149.989 C79.973,149.989 79.243,152.315 80.098,154.809 C80.135,154.809 79.491,154.694 78.995,154.847 C77.913,152.507 78.52,149.686 79.034,149.964 L79.973,149.989" id="Fill-22" fill="#FFFFFE"></path>
            <path d="M77.189,149.946 C77.189,149.946 76.457,152.358 77.313,154.85 C77.351,154.85 76.718,154.694 76.224,154.847 C75.141,152.507 75.749,149.686 76.262,149.964 L77.189,149.946" id="Fill-23" fill="#FFFFFE"></path>
            <path d="M74.776,149.913 C74.776,149.913 74.016,152.329 74.872,154.821 C74.909,154.821 74.152,154.657 73.658,154.809 C72.575,152.47 73.228,149.671 73.741,149.946 L74.776,149.913" id="Fill-24" fill="#FFFFFE"></path>
            <path d="M72.004,149.913 C72.004,149.913 71.245,152.329 72.1,154.821 C72.137,154.821 71.368,154.657 70.873,154.809 C69.791,152.47 70.569,149.671 71.081,149.946 L72.004,149.913" id="Fill-25" fill="#FFFFFE"></path>
            <path d="M69.431,149.913 C69.431,149.913 68.67,152.329 69.526,154.821 C69.564,154.821 68.008,154.847 68.008,154.847 C66.885,152.897 67.534,149.686 68.047,149.964 L69.431,149.913" id="Fill-26" fill="#FFFFFE"></path>
            <path d="M105.84,150.661 C104.717,152.274 106.175,155.138 106.175,155.138 L106.303,155.087 C106.303,155.087 104.997,155.112 104.24,155.112 C103.155,153.421 103.984,149.354 104.24,149.247 C106.639,148.229 106.038,150.378 105.84,150.661" id="Fill-27" fill="#FFFFFE"></path>
            <path d="M107.734,151.276 C106.955,153.057 108.311,155.018 108.311,155.018 L107.79,155.104 C107.79,155.104 108.031,155.098 107.273,155.098 C106.188,153.409 106.976,149.727 107.065,149.989 C107.399,150.973 107.873,150.956 107.734,151.276" id="Fill-28" fill="#FFFFFE"></path>
            <path d="M102.743,154.975 C102.743,154.975 102.104,155.274 101.706,155.124 C101.427,154.62 101.731,152.905 101.833,152.354 C101.983,152.202 102.383,151.636 102.499,151.405 C102.536,151.331 103.532,149.848 103.576,150.069 C103.612,150.255 101.711,152.47 102.743,154.975" id="Fill-29" fill="#FFFFFE"></path>
            <path d="M66.51,150.071 C65.351,151.503 65.595,153.196 66.427,154.809 L64.686,154.747 C62.447,151.977 64.788,149.964 64.838,149.989 L66.51,150.071" id="Fill-30" fill="#FFFFFE"></path>
            <path d="M110.739,152.028 C110.462,153.233 111.015,153.862 111.52,154.821 L109.807,154.891 C108.729,154.085 108.736,152.354 108.935,151.899 C109.392,151.874 109.18,151.952 109.63,152.202 C110.032,151.952 110.485,151.573 110.739,152.028" id="Fill-31" fill="#FFFFFE"></path>
            <path d="M100.67,155.073 L100.721,155.124 L98.131,155.149 C98.282,154.997 100.141,154.77 100.572,152.354 C101.177,152.43 99.639,153.989 100.67,155.073" id="Fill-32" fill="#FFFFFE"></path>
            <path d="M112.903,154.013 C113.532,154.241 113.708,154.546 114.411,154.292 C114.612,154.595 114.712,154.391 114.79,154.747 C114.133,155.022 113.331,154.821 112.575,154.796 C112.271,154.341 111.243,153.03 111.944,152.93 C112.448,152.905 112.499,153.862 112.903,154.013" id="Fill-33" fill="#FFFFFE"></path>
            <path d="M115.167,156.003 C116.353,158.391 116.422,160.782 115.621,163.325 C114.51,163.425 113.884,164.612 113.027,164.18 C112.952,162.516 112.952,160.907 111.395,159.729 C111.715,161.288 111.766,163.02 112.198,164.585 C111.444,165.085 108.473,165.034 108.018,164.534 C107.996,163.325 109.679,161.388 108.297,160.126 C108.07,161.54 107.516,163.097 106.587,164.13 C106.235,164.231 103.416,164.307 102.786,164.13 C101.858,163.852 102.911,158.114 101.53,157.491 C101.352,158.542 101.03,163.339 101.083,164.45 C100.401,164.727 100.141,164.585 99.34,164.96 C98.532,165.237 98.356,164.661 97.499,164.763 C97.399,164.458 96.722,164.585 96.572,164.384 C96.092,162.569 97.248,160.884 96.898,159.024 C96.395,159.223 95.842,159.745 95.514,160.294 C95.086,161.606 96.041,163.45 95.362,164.585 C94.457,165.286 94.231,163.852 93.223,163.727 C92.345,162.77 92.319,161.69 92.092,160.479 C92.118,158.972 92.69,156.354 92.946,156.05 C92.946,156.05 114.436,155.598 115.167,156.003" id="Fill-34" fill="#FFFFFE"></path>
            <polyline id="Fill-35" fill="#FFFFFE" points="95.161 154.973 95.462 154.997 95.462 155.048 95.161 155.022 95.161 154.973"></polyline>
            <path d="M97.05,154.973 C97.05,155.098 94.786,154.973 94.736,154.796 C94.105,153.284 93.952,152.354 94.105,151.952 C94.736,153.862 96.193,154.671 97.05,154.973" id="Fill-36" fill="#FFFFFE"></path>
            <path d="M125.829,100.912 C126.026,104.686 127.643,111.513 129.035,114.093 C128.83,113.712 128.889,109.616 127.868,103.323 C127.645,101.954 126.829,99.105 127.312,97.884 C127.221,98.112 125.725,98.954 125.829,100.912 Z M106.913,102.024 C107.038,104.138 107.262,104.944 107.715,106.784 C107.868,106.905 107.93,107.69 108.045,107.509 C110.188,104.126 110.462,101.975 112.071,99.333 L112.322,98.122 C112.499,99.005 112.801,100.185 112.322,100.942 C112.071,103.003 110.512,106.227 108.375,108.442 C108.375,108.442 107.54,115.538 107.87,114.68 C110.083,114.157 112.198,109.749 112.198,109.749 C112.247,109.973 112.322,110.102 112.322,110.352 C112.322,114.005 108.75,113.854 107.969,117.223 C107.969,117.223 107.54,123.692 105.604,126.436 C105.655,126.86 105.201,127.036 105.049,127.366 C105.352,125.075 106.335,123.313 106.612,120.647 C106.911,118.081 106.809,116.118 106.587,114.055 C107.038,110.505 107.44,107.458 105.679,104.745 C105.124,102.43 105.403,100.139 106.637,98.072 C106.809,99.284 106.837,100.511 106.913,102.024 Z M100.874,110.657 C98.206,108.089 99.432,101.405 99.432,101.405 C98.624,102.239 97.455,103.941 97.45,104.114 C97.56,99.794 100.53,99.8 100.668,98.624 C99.742,106.475 100.874,110.657 100.874,110.657 Z M87.538,104.206 C86.881,105.714 83.665,107.329 83.642,107.388 C84.69,104.624 85.711,104.188 86.569,102.15 C86.972,100.94 88.659,99.324 88.17,98.103 C89.076,100.363 88.442,102.471 87.538,104.206 Z M95.413,81.312 C93.745,86.509 93.651,89.432 94.053,90.341 C94.307,91.016 94.382,90.274 94.558,89.67 C94.736,88.737 96.193,85.165 97.475,84.662 C96.95,86.422 95.714,87.557 95.413,89.417 C94.686,90.548 95.034,91.934 94.856,93.165 C94.811,93.845 95.661,95.471 95.661,95.471 C97.022,94.482 97.852,92.387 98.356,90.623 C98.836,93.19 97.324,94.829 96.572,96.968 C95.689,99.408 96.774,102.353 96.774,104.643 C95.487,103.937 94.856,97.598 95.109,96.765 C93.676,95.006 92.643,91.001 92.643,91.001 C91.84,87.606 92.921,83.804 95.085,81.035 C95.26,81.035 95.467,81.139 95.413,81.312 Z M103.416,75.982 C104.973,76.107 105.124,76.43 106.436,76.229 C105.301,76.985 104.196,76.858 103.038,77.111 C101.833,77.364 101.15,76.53 101.026,76.53 C101.15,76.53 100.572,79.2 99.763,78.796 C99.365,78.645 99.063,75.831 98.507,76.28 C97.852,76.733 97.077,78.55 96.37,78.247 C96.748,76.858 97.651,76.557 97.001,75.856 C95.992,77.061 95.487,76.607 93.347,76.733 C95.26,76.632 95.386,75.553 96.95,74.091 C99.063,73.887 100.393,75.729 103.416,75.982 Z M96.698,136.626 C97.352,136.253 97.801,133.778 98.256,133.028 C98.71,130.864 100.169,129.419 98.76,127.567 C100.916,130.399 100.483,134.479 96.698,136.626 Z M85.294,137.13 C87.37,135.905 88.619,132.725 88.971,130.261 C89.575,127.743 88.872,126.059 88.82,123.491 C90.756,126.811 92.2,133.057 85.294,137.13 Z M123.311,52.901 C123.863,53.118 124.625,57.404 126.445,59.784 C126.98,60.483 124.678,59.374 124.528,60.075 C127.75,63.348 128.661,67.694 128.024,74.702 C127.975,75.245 127.023,72.95 126.89,72.508 C126.252,70.384 124.703,68.994 124.703,68.994 C124.703,68.994 124.971,69.069 125.233,70.141 C126.02,73.356 126.169,73.626 126.169,75.867 C126.169,76.05 123.607,74.991 122.641,75.2 C124.375,76.961 128.653,79.014 130.194,84.448 C131.442,89.736 132.192,96.051 131.924,95.596 C130.834,93.741 130.492,91.909 129.313,90.03 C128.413,88.594 127.058,87.214 126.303,86.578 C127.708,87.762 129.889,92.563 131.053,99.68 C131.795,104.213 131.144,124.341 124.1,137.245 C125.012,135.573 125.045,128.106 125.045,128.106 C124.792,128.257 121.549,141.063 120.429,144.003 C120.336,144.245 119.424,141.759 119.473,141.505 C119.524,139.743 121.094,136.766 120.567,135.106 C120.262,136.059 118.584,139.399 118.102,140.352 C116.561,143.384 119.116,144.35 118.616,146.263 L118.264,147.927 C117.557,148.626 112.651,146.212 111.192,144.753 C109.18,143.145 107.717,142.54 108.927,139.042 C109.129,138.487 109.983,137.253 109.63,136.7 L108.954,136.675 C108.196,138.391 106.469,140.001 107.024,142.011 C107.553,144.604 110.56,146.106 112.674,147.163 C113.533,147.518 114.424,147.811 114.627,148.868 C114.778,149.268 115.179,150.848 114.877,151.401 C114.626,152.21 114.966,153.055 113.963,153.106 C112.249,152.954 112.694,150.19 110.68,150.487 C109.975,150.839 109.649,150.8 108.893,150.446 C107.809,149.643 107.364,148.856 106.362,147.901 C105.756,147.649 104.666,147.696 104.115,147.995 C103.056,148.903 102.624,150.059 101.165,150.364 C100.56,150.565 100.183,150.909 99.627,151.112 C99.229,151.589 99.467,152.305 99.17,152.856 C97.581,154.345 97.217,153.936 97.217,153.936 C95.911,152.774 94.03,152.128 94.534,150.067 C95.586,148.626 97.04,148.018 98.547,147.413 C100.055,147.514 101.114,146.005 102.37,145.251 C103.532,144.243 103.698,142.675 103.949,141.264 C104.604,140.259 104.495,139.042 104.898,137.886 C102.458,138.163 103.264,142.239 101.276,144.3 C98.988,146.692 95.438,146.212 93.929,148.526 C92.467,149.384 91.11,148.577 89.829,148.325 C88.214,147.624 84.858,143.389 85.399,143.259 C86.618,142.962 87.836,140.554 87.514,140.403 C87.21,140.048 84.835,143.37 84.19,142.313 C80.948,137.014 83.031,130.335 83.031,130.335 C81.295,129.352 80.835,136.182 80.665,135.52 C79.403,130.585 81.724,123.214 81.925,122.71 C80.791,122.331 78.606,130.46 78.506,130.157 C76.682,124.589 78.905,115.815 80.418,111.891 C79.409,112.391 76.764,115.704 76.944,117.665 C75.956,106.893 82.303,100.462 82.43,100.09 C80.418,100.841 78.325,102.737 77.178,105.796 C77.119,105.954 77.245,104.516 77.195,104.266 C77.346,100.992 78.762,98.034 80.578,95.471 C81.532,94.464 82.854,92.112 83.811,91.178 C83.937,91.052 80.917,91.555 78.526,95.429 C77.926,94.98 78.677,91.763 78.804,91.102 C79.897,85.395 86.504,74.872 87.76,72.86 C86.001,71.6 85.849,69.284 85.395,67.323 C85.395,67.323 83.903,60.283 88.655,57.341 C89.001,57.126 89.829,57.15 89.716,57.22 C86.098,59.487 87.629,63.782 89.982,64.336 C91.405,64.671 92.207,64.036 92.538,63.829 C93.502,63.225 93.664,61.953 93.711,62.372 C93.729,62.524 93.655,63.341 93.754,63.895 C94.36,67.039 95.034,69.182 97.248,70.294 C97.499,70.393 97.701,70.04 97.701,69.839 C97.499,65.915 98.66,62.692 100.721,60.176 C100.924,59.873 101.063,59.74 101.314,59.689 C101.567,61.202 102.381,62.942 103.845,63.651 C105.895,64.644 114.175,64.956 114.057,56.983 C114.042,55.965 113.809,54.739 113.961,53.786 C114.411,53.735 120.686,51.87 123.311,52.901 L123.311,52.901 Z" id="Fill-37" fill="#FFFFFE"></path>
            <path d="M159.178,131.718 C159.881,134.638 158.247,142.415 153.92,147.473 C146.7,155.876 135.848,154.694 131.924,154.948 C131.27,154.821 131.042,154.809 130.915,154.809 C129.706,153.825 129.825,151.481 130.708,149.946 C136.088,150.452 143.122,147.598 146.192,144.327 C149.342,142.214 150.371,138.087 151.151,134.487 C151.252,133.729 151.53,132.725 151.706,131.893 C153.339,128.196 158.551,129.124 159.178,131.718" id="Fill-38" fill="#FFFFFE"></path>
            <path d="M99.654,66.484 C99.582,66.553 99.457,66.542 99.373,66.456 C99.291,66.37 99.282,66.246 99.352,66.177 L100.639,64.917 C100.709,64.846 100.834,64.86 100.918,64.944 C101.002,65.03 101.012,65.155 100.942,65.225 L99.654,66.484" id="Fill-39" fill="#911332"></path>
            <path d="M98.862,65.3 C98.782,65.35 98.666,65.307 98.604,65.206 C98.541,65.103 98.555,64.983 98.635,64.932 L100.084,64.041 C100.163,63.991 100.278,64.034 100.34,64.135 C100.403,64.237 100.389,64.358 100.311,64.408 L98.862,65.3" id="Fill-40" fill="#911332"></path>
            <path d="M98.377,64.081 C98.307,64.104 98.219,64.03 98.182,63.917 C98.147,63.802 98.174,63.694 98.247,63.669 L99.54,63.257 C99.608,63.233 99.696,63.306 99.734,63.421 C99.769,63.534 99.741,63.644 99.67,63.668 L98.377,64.081" id="Fill-41" fill="#911332"></path>
            <path d="M94.178,66.386 C94.196,66.437 94.116,66.509 94.004,66.545 C93.889,66.583 93.786,66.569 93.768,66.518 L93.465,65.585 C93.449,65.536 93.528,65.463 93.641,65.426 C93.754,65.389 93.861,65.402 93.877,65.452 L94.178,66.386" id="Fill-42" fill="#911332"></path>
            <path d="M92.29,67.811 C92.301,67.884 92.214,67.96 92.098,67.977 C91.979,67.997 91.876,67.951 91.864,67.878 L91.652,66.53 C91.641,66.458 91.727,66.382 91.844,66.362 C91.961,66.344 92.067,66.389 92.079,66.464 L92.29,67.811" id="Fill-43" fill="#911332"></path>
            <path d="M93.445,67.266 C93.461,67.333 93.381,67.411 93.268,67.44 C93.153,67.47 93.044,67.44 93.027,67.374 L92.71,66.151 C92.692,66.085 92.772,66.005 92.887,65.974 C93.002,65.944 93.11,65.976 93.128,66.043 L93.445,67.266" id="Fill-44" fill="#911332"></path>
            <path d="M91.069,68.086 C91.069,68.169 90.975,68.238 90.856,68.241 C90.737,68.245 90.638,68.18 90.637,68.096 L90.596,66.584 C90.593,66.501 90.689,66.431 90.809,66.427 C90.927,66.425 91.026,66.49 91.03,66.573 L91.069,68.086" id="Fill-45" fill="#911332"></path>
            <path d="M88.516,67.714 C88.501,67.794 88.381,67.843 88.251,67.819 C88.12,67.797 88.024,67.712 88.038,67.629 L88.301,66.122 C88.314,66.04 88.434,65.992 88.567,66.013 C88.698,66.036 88.794,66.122 88.78,66.206 L88.516,67.714" id="Fill-46" fill="#911332"></path>
            <path d="M89.729,68.014 C89.719,68.1 89.6,68.163 89.46,68.152 C89.319,68.141 89.21,68.063 89.215,67.977 L89.335,66.393 C89.34,66.308 89.461,66.247 89.604,66.255 C89.743,66.266 89.854,66.346 89.847,66.433 L89.729,68.014" id="Fill-47" fill="#911332"></path>
            <path d="M87.352,67.016 C87.329,67.093 87.206,67.125 87.077,67.09 C86.946,67.053 86.856,66.962 86.878,66.884 L87.268,65.47 C87.29,65.393 87.415,65.362 87.545,65.397 C87.674,65.432 87.764,65.524 87.744,65.602 L87.352,67.016" id="Fill-48" fill="#911332"></path>
            <path d="M86.457,66.189 C86.429,66.259 86.317,66.282 86.207,66.241 C86.096,66.2 86.024,66.11 86.049,66.038 L86.526,64.749 C86.551,64.678 86.665,64.655 86.778,64.696 C86.887,64.736 86.959,64.827 86.931,64.899 L86.457,66.189" id="Fill-49" fill="#911332"></path>
            <path d="M85.711,65.26 C85.678,65.319 85.567,65.325 85.463,65.27 C85.356,65.216 85.294,65.124 85.325,65.063 L85.885,63.963 C85.915,63.903 86.029,63.899 86.135,63.953 C86.239,64.007 86.301,64.098 86.27,64.16 L85.711,65.26" id="Fill-50" fill="#911332"></path>
            <path d="M100.754,67.62 C100.687,67.708 100.542,67.714 100.432,67.632 C100.323,67.548 100.288,67.409 100.354,67.319 L101.571,65.702 C101.637,65.613 101.782,65.608 101.893,65.69 C102.002,65.772 102.038,65.913 101.969,66.003 L100.754,67.62" id="Fill-51" fill="#911332"></path>
            <path d="M102.251,68.762 C102.196,68.872 102.046,68.911 101.918,68.846 C101.79,68.782 101.731,68.639 101.788,68.529 L102.793,66.514 C102.85,66.404 102.999,66.366 103.127,66.429 C103.254,66.493 103.313,66.637 103.258,66.747 L102.251,68.762" id="Fill-52" fill="#911332"></path>
            <path d="M104.089,69.546 C104.053,69.669 103.927,69.743 103.808,69.709 C103.688,69.676 103.622,69.546 103.655,69.422 L104.296,67.166 C104.333,67.043 104.458,66.969 104.577,67.003 C104.696,67.036 104.765,67.167 104.73,67.29 L104.089,69.546" id="Fill-53" fill="#911332"></path>
            <path d="M106.258,69.984 C106.243,70.112 106.097,70.2 105.936,70.18 C105.772,70.162 105.653,70.042 105.668,69.914 L105.948,67.584 C105.963,67.457 106.108,67.369 106.27,67.387 C106.432,67.407 106.553,67.528 106.538,67.655 L106.258,69.984" id="Fill-54" fill="#911332"></path>
            <path d="M108.354,70.048 C108.354,70.18 108.204,70.29 108.017,70.293 C107.831,70.296 107.677,70.189 107.673,70.058 L107.637,67.671 C107.634,67.539 107.785,67.43 107.975,67.427 C108.157,67.423 108.317,67.53 108.315,67.66 L108.354,70.048" id="Fill-55" fill="#911332"></path>
            <path d="M110.583,69.694 C110.609,69.823 110.495,69.957 110.33,69.991 C110.161,70.028 110.002,69.95 109.977,69.821 L109.487,67.483 C109.461,67.354 109.574,67.223 109.743,67.186 C109.908,67.153 110.067,67.227 110.094,67.356 L110.583,69.694" id="Fill-56" fill="#911332"></path>
            <path d="M112.545,69.106 C112.584,69.232 112.482,69.377 112.322,69.427 C112.157,69.479 111.995,69.417 111.956,69.292 L111.241,67.012 C111.202,66.887 111.298,66.745 111.463,66.692 C111.624,66.642 111.79,66.703 111.829,66.827 L112.545,69.106" id="Fill-57" fill="#911332"></path>
            <path d="M114.518,67.897 C114.595,68.005 114.542,68.175 114.408,68.274 C114.263,68.376 114.088,68.37 114.014,68.261 L112.616,66.323 C112.54,66.218 112.59,66.052 112.731,65.948 C112.87,65.848 113.045,65.854 113.121,65.96 L114.518,67.897" id="Fill-58" fill="#911332"></path>
            <path d="M117.274,64.612 C117.38,64.688 117.364,64.886 117.247,65.049 C117.123,65.22 116.94,65.291 116.84,65.212 L114.953,63.845 C114.849,63.768 114.864,63.575 114.983,63.407 C115.104,63.241 115.288,63.168 115.39,63.243 L117.274,64.612" id="Fill-59" fill="#911332"></path>
            <path d="M115.854,66.363 C115.948,66.455 115.915,66.636 115.789,66.763 C115.657,66.899 115.479,66.93 115.391,66.838 L113.727,65.206 C113.636,65.116 113.667,64.938 113.794,64.805 C113.923,64.674 114.104,64.639 114.194,64.73 L115.854,66.363" id="Fill-60" fill="#911332"></path>
            <path d="M118.038,62.554 C118.151,62.605 118.182,62.785 118.108,62.948 C118.032,63.12 117.877,63.213 117.768,63.159 L115.723,62.243 C115.61,62.191 115.579,62.016 115.655,61.846 C115.729,61.68 115.884,61.585 115.995,61.637 L118.038,62.554" id="Fill-61" fill="#911332"></path>
            <path d="M118.444,60.677 C118.561,60.698 118.634,60.836 118.608,60.975 C118.58,61.122 118.461,61.22 118.342,61.194 L116.204,60.79 C116.086,60.766 116.012,60.632 116.041,60.487 C116.068,60.345 116.186,60.245 116.302,60.268 L118.444,60.677" id="Fill-62" fill="#911332"></path>
            <path d="M118.215,57.27 C118.311,57.264 118.394,57.382 118.401,57.524 C118.409,57.674 118.34,57.796 118.246,57.798 L116.537,57.901 C116.444,57.905 116.36,57.792 116.351,57.643 C116.344,57.501 116.413,57.376 116.506,57.372 L118.215,57.27" id="Fill-63" fill="#911332"></path>
            <path d="M117.819,55.876 C117.905,55.855 118.002,55.959 118.033,56.098 C118.065,56.243 118.02,56.376 117.935,56.391 L116.383,56.74 C116.297,56.759 116.204,56.659 116.17,56.514 C116.139,56.374 116.182,56.241 116.266,56.223 L117.819,55.876" id="Fill-64" fill="#911332"></path>
            <path d="M117.161,54.475 C117.239,54.436 117.355,54.514 117.417,54.643 C117.485,54.776 117.471,54.915 117.393,54.948 L115.987,55.643 C115.91,55.682 115.793,55.606 115.729,55.474 C115.665,55.345 115.674,55.206 115.751,55.169 L117.161,54.475" id="Fill-65" fill="#911332"></path>
            <path d="M116.214,53.409 C116.274,53.356 116.403,53.407 116.494,53.517 C116.59,53.63 116.619,53.762 116.555,53.811 L115.463,54.741 C115.404,54.792 115.28,54.744 115.182,54.632 C115.088,54.52 115.059,54.387 115.121,54.339 L116.214,53.409" id="Fill-66" fill="#911332"></path>
            <path d="M118.356,58.889 C118.461,58.891 118.541,59.014 118.537,59.157 C118.532,59.307 118.444,59.423 118.342,59.417 L116.459,59.368 C116.358,59.365 116.279,59.245 116.282,59.096 C116.287,58.952 116.375,58.835 116.475,58.839 L118.356,58.889" id="Fill-67" fill="#911332"></path>
            <path d="M140.542,148.923 L141.137,150.776 C141.155,150.833 141.212,151.013 141.315,151.329 C141.567,152.116 141.819,152.411 142.446,152.21 C143.183,151.973 143.067,151.505 142.762,150.555 C142.735,150.47 142.704,150.376 142.674,150.284 L142.079,148.429 L143.282,148.044 L143.887,149.929 C143.915,150.014 143.995,150.263 144.127,150.679 C144.558,152.016 144.178,152.774 142.772,153.227 C142.022,153.468 141.446,153.462 141.012,153.196 C140.529,152.907 140.331,152.397 140.108,151.702 C140.055,151.542 140.002,151.374 139.944,151.194 L139.338,149.309 L140.542,148.923" id="Fill-68" fill="#911332"></path>
            <path d="M145.388,151.032 C145.729,150.923 146.09,151.108 146.2,151.448 C146.311,151.796 146.124,152.149 145.782,152.259 C145.442,152.368 145.087,152.182 144.978,151.841 C144.871,151.507 145.042,151.143 145.388,151.032" id="Fill-69" fill="#911332"></path>
            <path d="M153.11,140.68 C152.616,140.798 152.3,140.995 152.103,141.354 C151.75,142.001 152.008,142.698 152.699,143.075 C153.327,143.419 154.067,143.274 154.423,142.622 C154.62,142.263 154.616,141.889 154.447,141.411 L155.665,142.077 C155.642,142.524 155.543,142.909 155.343,143.274 C154.684,144.479 153.301,144.85 152.067,144.177 C150.833,143.503 150.399,142.138 151.058,140.932 C151.258,140.565 151.528,140.276 151.893,140.016 L153.11,140.68" id="Fill-70" fill="#911332"></path>
            <path d="M155.389,140.516 C155.561,140.202 155.95,140.089 156.263,140.261 C156.583,140.434 156.692,140.821 156.52,141.136 C156.348,141.45 155.962,141.557 155.649,141.386 C155.34,141.218 155.213,140.837 155.389,140.516" id="Fill-71" fill="#911332"></path>
            <polyline id="Fill-72" fill="#911332" points="145.431 147.042 146.42 146.245 147.555 147.655 148.874 146.593 147.739 145.184 148.727 144.388 151.647 148.013 150.659 148.809 149.469 147.335 148.151 148.395 149.34 149.872 148.351 150.669 145.431 147.042"></polyline>
            <path d="M151.999,146.233 C152.278,146.009 152.68,146.052 152.905,146.331 C153.133,146.616 153.086,147.013 152.807,147.237 C152.528,147.462 152.13,147.415 151.906,147.136 C151.685,146.862 151.714,146.462 151.999,146.233" id="Fill-73" fill="#911332"></path>
            <path d="M19.86,115.532 C20.037,115.5 20.215,115.469 20.392,115.438 C22.347,115.096 23.8,114.867 24.879,115.203 C26.812,115.779 27.887,117.294 28.335,119.857 C28.785,122.422 28.29,124.236 26.668,125.434 C25.742,126.119 24.299,126.398 22.37,126.735 C22.192,126.766 22.014,126.8 21.836,126.829 L10.994,128.726 L10.364,125.122 L22.018,123.082 C24.354,122.675 25.495,122.317 25.163,120.413 C24.838,118.559 23.736,118.542 21.299,118.97 L9.645,121.007 L9.019,117.428 L19.86,115.532" id="Fill-74" fill="#111746"></path>
            <polyline id="Fill-75" fill="#111746" points="8.525 111.455 8.55 107.821 15.356 107.866 15.383 103.767 8.577 103.722 8.603 100.062 26.98 100.185 26.956 103.845 18.965 103.791 18.938 107.89 26.928 107.943 26.904 111.578 8.525 111.455"></polyline>
            <polyline id="Fill-76" fill="#111746" points="9.307 94.016 9.887 90.429 24.492 92.8 25.16 88.676 28.696 89.251 27.446 96.959 9.307 94.016"></polyline>
            <polyline id="Fill-77" fill="#111746" points="11.632 81.926 13.861 74.52 17.12 75.503 15.915 79.5 19.469 80.57 20.562 76.943 23.794 77.916 22.703 81.544 26.824 82.785 28.028 78.787 31.459 79.821 29.229 87.225 11.632 81.926"></polyline>
            <path d="M15.869,69.026 L17.498,65.688 L28.021,66.693 C28.621,66.756 29.926,66.962 31.923,67.333 C29.565,66.585 27.505,65.81 25.72,64.939 L19.372,61.844 L20.865,58.786 L37.383,66.842 L35.892,69.9 L24.884,69.006 C24.55,68.986 23.511,68.765 21.755,68.425 C23.352,68.975 25.065,69.753 26.918,70.657 L33.869,74.047 L32.389,77.082 L15.869,69.026" id="Fill-78" fill="#111746"></path>
            <polyline id="Fill-79" fill="#111746" points="24.206 53.288 26.374 50.369 31.837 54.427 34.281 51.136 28.817 47.079 31 44.14 45.754 55.097 43.572 58.036 37.157 53.273 34.713 56.563 41.129 61.326 38.962 64.245 24.206 53.288"></polyline>
            <path d="M47.78,40.337 C45.083,37.424 43.07,36.617 41.689,37.897 C40.31,39.175 40.979,41.224 43.677,44.136 C46.355,47.031 48.35,47.855 49.729,46.576 C51.109,45.297 50.459,43.229 47.78,40.337 Z M52.111,49.147 C49.161,51.879 45.037,50.993 40.991,46.625 C36.909,42.218 36.433,37.986 39.308,35.325 C42.2,32.644 46.419,33.48 50.64,38.038 C54.511,42.218 54.948,46.521 52.111,49.147 L52.111,49.147 Z" id="Fill-80" fill="#111746"></path>
            <path d="M56.583,32.205 C57.9,31.349 58.116,30.165 57.16,28.694 C56.207,27.224 55.201,26.955 53.839,27.84 C53.71,27.924 53.58,28.008 53.442,28.129 L56.223,32.408 C56.33,32.338 56.475,32.274 56.583,32.205 Z M48.901,27.665 L52.1,25.589 C55.517,23.37 57.916,23.563 59.937,26.676 C61.342,28.839 61.434,30.683 60.12,32.305 L67.644,37.408 L64.402,39.512 L57.739,34.743 L61.893,41.141 L58.911,43.079 L48.901,27.665 L48.901,27.665 Z" id="Fill-81" fill="#111746"></path>
            <path d="M67.555,32.548 C68.706,32.906 69.674,32.922 70.52,32.539 C71.672,32.019 72.056,31.054 71.601,30.044 C71.07,28.869 69.965,28.802 68.576,28.354 C66.091,27.553 64.604,26.698 63.659,24.607 C62.355,21.719 63.261,18.962 65.891,17.774 C66.855,17.338 67.874,17.217 69.081,17.323 L70.419,20.283 C69.243,20.247 68.435,20.275 67.846,20.539 C66.883,20.973 66.498,21.939 66.945,22.927 C67.463,24.077 68.547,24.408 70.178,24.887 C72.459,25.556 73.903,26.063 74.963,28.412 C76.321,31.419 75.382,34.163 72.374,35.52 C71.248,36.029 70.191,36.195 69.126,36.025 L67.555,32.548" id="Fill-82" fill="#111746"></path>
            <polyline id="Fill-83" fill="#111746" points="76.57 17.552 73.879 18.364 72.898 15.104 81.808 12.42 82.79 15.678 80.099 16.488 84.419 30.827 80.89 31.891 76.57 17.552"></polyline>
            <polyline id="Fill-84" fill="#111746" points="86.238 11.47 93.873 10.243 94.413 13.602 90.29 14.264 90.879 17.928 94.621 17.328 95.156 20.661 91.415 21.262 92.098 25.512 96.22 24.851 96.788 28.388 89.153 29.614 86.238 11.47"></polyline>
            <path d="M103.483,17.673 C105.056,17.651 105.868,16.761 105.845,15.009 C105.82,13.257 105.114,12.493 103.49,12.515 C103.336,12.518 103.182,12.519 103.002,12.548 L103.071,17.65 C103.199,17.649 103.354,17.673 103.483,17.673 Z M99.407,9.735 L103.222,9.683 C107.292,9.628 109.22,11.071 109.271,14.783 C109.305,17.36 108.398,18.971 106.424,19.642 L110.067,27.97 L106.202,28.022 L103.109,20.435 L103.21,28.063 L99.654,28.112 L99.407,9.735 L99.407,9.735 Z" id="Fill-85" fill="#111746"></path>
            <polyline id="Fill-86" fill="#111746" points="122.79 11.107 126.319 11.971 124.7 18.58 128.68 19.556 130.299 12.947 133.856 13.818 129.479 31.667 125.924 30.797 127.828 23.036 123.846 22.06 121.944 29.821 118.414 28.955 122.79 11.107"></polyline>
            <path d="M142.707,27.477 C144.34,23.86 144.3,21.692 142.586,20.916 C140.872,20.143 139.243,21.556 137.609,25.175 C135.987,28.769 136.002,30.927 137.717,31.701 C139.433,32.474 141.084,31.071 142.707,27.477 Z M136.275,34.895 C132.61,33.241 131.824,29.096 134.274,23.669 C136.745,18.195 140.457,16.11 144.028,17.721 C147.623,19.344 148.493,23.556 145.936,29.217 C143.592,34.409 139.798,36.486 136.275,34.895 L136.275,34.895 Z" id="Fill-87" fill="#111746"></path>
            <path d="M149.803,41.536 C145.979,38.954 145.295,34.074 148.426,29.439 C151.717,24.569 156.487,23.313 160.224,25.837 C160.907,26.299 161.454,26.825 161.879,27.485 L159.959,30.327 C159.522,29.687 159.059,29.22 158.526,28.859 C156.583,27.546 153.867,28.386 151.789,31.461 C149.768,34.451 150.094,37.285 152.038,38.598 C152.572,38.959 153.192,39.192 153.883,39.318 L151.821,42.371 C151.028,42.209 150.358,41.912 149.803,41.536" id="Fill-88" fill="#111746"></path>
            <polyline id="Fill-89" fill="#111746" points="165.621 30.647 168.305 32.979 163.047 39.03 171.009 35.328 173.889 37.831 165.535 41.669 161.95 51.769 158.992 49.199 162.135 40.081 156.268 46.833 153.583 44.498 165.621 30.647"></polyline>
            <polyline id="Fill-90" fill="#111746" points="177.672 41.865 182.712 47.727 180.132 49.945 177.411 46.779 174.596 49.198 177.066 52.073 174.505 54.272 172.035 51.399 168.771 54.205 171.492 57.373 168.777 59.707 163.736 53.844 177.672 41.865"></polyline>
            <path d="M179.286,59.387 L185.535,50.786 L187.493,54.121 L185.239,56.849 C184.383,57.888 183.566,58.785 182.723,59.639 C184.239,59.168 185.399,58.906 186.245,58.768 L189.88,58.189 L191.694,61.279 L181.125,62.52 L173.678,66.891 L171.838,63.756 L179.286,59.387" id="Fill-91" fill="#111746"></path>
            <polyline id="Fill-92" fill="#111746" points="184.506 67.093 187.163 73.021 183.516 74.655 180.86 68.727 184.506 67.093"></polyline>
            <path d="M181.092,87.499 C179.815,83.066 182.418,78.882 187.792,77.333 C193.439,75.703 197.905,77.795 199.156,82.129 C199.383,82.922 199.465,83.676 199.369,84.455 L196.075,85.406 C196.147,84.634 196.093,83.979 195.915,83.359 C195.264,81.107 192.641,80.011 189.076,81.04 C185.608,82.039 184.042,84.421 184.691,86.675 C184.87,87.295 185.197,87.873 185.648,88.411 L182.106,89.434 C181.602,88.8 181.278,88.142 181.092,87.499" id="Fill-93" fill="#111746"></path>
            <polyline id="Fill-94" fill="#111746" points="200.536 89.54 201.046 93.139 186.398 95.22 186.985 99.353 183.439 99.858 182.34 92.125 200.536 89.54"></polyline>
            <path d="M190.852,113.165 C190.672,113.163 190.493,113.16 190.313,113.157 C188.328,113.131 186.86,113.087 185.862,112.557 C184.068,111.632 183.292,109.946 183.327,107.342 C183.36,104.738 184.182,103.05 185.999,102.171 C187.036,101.669 188.504,101.663 190.463,101.688 C190.645,101.691 190.825,101.694 191.004,101.696 L202.01,101.842 L201.961,105.501 L190.131,105.345 C187.76,105.314 186.574,105.453 186.547,107.385 C186.522,109.266 187.602,109.488 190.077,109.52 L201.907,109.677 L201.858,113.311 L190.852,113.165" id="Fill-95" fill="#111746"></path>
            <path d="M192.909,122.112 C192.561,123.936 193.083,124.927 194.626,125.22 C196.222,125.522 197.12,124.801 197.471,122.952 C197.491,122.852 197.514,122.725 197.54,122.597 L192.981,121.732 C192.956,121.859 192.933,121.986 192.909,122.112 Z M185.516,120.839 C185.165,122.686 185.724,123.606 187.344,123.914 C189.067,124.243 189.899,123.587 190.265,121.662 C190.295,121.511 190.319,121.384 190.346,121.232 L185.638,120.338 C185.604,120.514 185.549,120.661 185.516,120.839 Z M201.14,119.662 L200.476,123.157 C199.625,127.639 198.079,129.417 194.432,128.725 C192.483,128.354 191.377,127.409 190.917,125.695 C189.981,127.303 188.53,127.891 186.303,127.469 C184.63,127.15 183.4,126.313 182.707,125.132 C181.792,123.595 182.007,121.904 182.45,119.574 L183.086,116.231 L201.14,119.662 L201.14,119.662 Z" id="Fill-96" fill="#111746"></path>
            <polyline id="Fill-97" fill="#111746" points="83.658 182.305 87.21 183.065 85.786 189.72 89.794 190.577 91.218 183.924 94.797 184.687 90.95 202.661 87.373 201.893 89.044 194.08 85.037 193.222 83.365 201.036 79.811 200.274 83.658 182.305"></polyline>
            <path d="M102.948,197.509 C102.527,194.755 102.269,191.907 102.113,188.984 C101.631,191.671 101.094,194.484 100.502,197.399 L102.948,197.509 Z M100.428,185.091 L104.265,185.262 L107.52,203.8 L103.864,203.639 L103.387,200.391 L99.706,200.229 L98.997,203.423 L95.339,203.262 L100.428,185.091 L100.428,185.091 Z" id="Fill-98" fill="#111746"></path>
            <path d="M110.506,185.348 L115.174,184.679 L117.118,191.481 C117.653,193.384 118.135,195.294 118.548,197.265 C118.405,194.264 118.331,192.298 118.343,191.305 L118.517,184.196 L123.137,183.53 L127.284,201.502 L123.611,202.03 L122.013,193.641 C121.694,191.968 121.265,189.893 120.898,187.343 L120.651,202.458 L118.023,202.835 L113.663,188.28 C113.993,190.575 114.124,192.745 114.29,194.805 L114.938,203.28 L111.34,203.798 L110.506,185.348" id="Fill-99" fill="#111746"></path>
            <path d="M135.206,195.538 C136.986,194.924 137.504,193.98 136.963,192.421 C136.391,190.764 135.409,190.368 133.556,191.009 C133.411,191.059 133.29,191.101 133.145,191.153 L134.713,195.683 C134.88,195.624 135.038,195.598 135.206,195.538 Z M132.633,188.491 C134.387,187.886 134.987,186.942 134.471,185.457 C133.941,183.921 132.868,183.503 131.09,184.116 C130.993,184.151 130.872,184.192 130.75,184.235 L132.266,188.618 C132.389,188.577 132.511,188.534 132.633,188.491 Z M126.411,182.573 L129.771,181.409 C134.082,179.917 136.396,180.372 137.61,183.879 C138.258,185.755 137.989,187.186 136.731,188.438 C138.59,188.45 139.825,189.413 140.565,191.555 C141.122,193.163 141.01,194.649 140.329,195.839 C139.451,197.397 137.877,198.052 135.637,198.827 L132.421,199.94 L126.411,182.573 L126.411,182.573 Z" id="Fill-100" fill="#111746"></path>
            <path d="M153.69,182.319 C153.78,182.476 153.864,182.634 153.954,182.791 C154.915,184.528 155.604,185.823 155.643,186.954 C155.729,188.97 154.651,190.481 152.374,191.743 C150.098,193.005 148.222,193.133 146.557,191.991 C145.608,191.341 144.874,190.068 143.922,188.355 C143.834,188.197 143.747,188.04 143.659,187.882 L138.321,178.257 L141.522,176.481 L147.26,186.829 C148.412,188.902 149.12,189.864 150.811,188.925 C152.458,188.014 152.114,186.968 150.913,184.804 L145.172,174.456 L148.352,172.695 L153.69,182.319" id="Fill-101" fill="#111746"></path>
            <path d="M158.92,174.66 C160.151,173.677 160.247,172.477 159.151,171.108 C158.057,169.741 157.03,169.571 155.76,170.587 C155.641,170.684 155.52,170.78 155.395,170.915 L158.584,174.897 C158.686,174.816 158.825,174.74 158.92,174.66 Z M150.831,170.902 L153.809,168.518 C156.987,165.973 159.395,165.93 161.715,168.825 C163.327,170.839 163.598,172.665 162.454,174.409 L170.446,178.743 L167.426,181.157 L160.325,177.069 L165.092,183.027 L162.315,185.249 L150.831,170.902 L150.831,170.902 Z" id="Fill-102" fill="#111746"></path>
            <path d="M174.125,159.525 C174.338,159.715 174.567,159.884 174.78,160.072 C179.485,164.245 180.428,168.424 177.864,171.315 C175.348,174.151 171.088,173.749 166.635,169.798 C162.178,165.847 161.288,161.61 163.938,158.62 C165.75,156.577 168.284,156.171 171.196,157.548 L170.143,161.025 C168.588,160.022 167.381,160.022 166.508,161.005 C165.176,162.509 166.094,164.427 169.063,167.06 C172.034,169.693 174.186,170.26 175.399,168.889 C176.459,167.694 176.106,166.038 174.196,164.343 L172.024,166.794 L169.594,164.637 L174.125,159.525" id="Fill-103" fill="#111746"></path>
            <path d="M64.227,194.718 C60.094,192.668 58.767,187.923 61.253,182.913 C63.866,177.647 68.425,175.766 72.464,177.769 C73.203,178.138 73.816,178.586 74.324,179.183 L72.801,182.255 C72.28,181.68 71.76,181.278 71.183,180.991 C69.082,179.95 66.503,181.144 64.854,184.469 C63.249,187.7 63.949,190.464 66.05,191.509 C66.628,191.796 67.275,191.944 67.977,191.975 L66.339,195.278 C65.532,195.222 64.827,195.016 64.227,194.718" id="Fill-104" fill="#111746"></path>
            <polyline id="Fill-105" fill="#111746" points="54.936 166.454 57.847 168.628 53.774 174.079 57.059 176.532 61.131 171.079 64.065 173.271 53.065 187.993 50.132 185.805 54.915 179.403 51.631 176.95 46.85 183.352 43.937 181.177 54.936 166.454"></polyline>
            <path d="M44.664,172.212 C44.537,172.338 44.408,172.466 44.28,172.592 C42.868,173.989 41.807,175.004 40.729,175.345 C38.812,175.973 37.065,175.343 35.235,173.493 C33.403,171.641 32.775,169.87 33.423,167.96 C33.793,166.868 34.82,165.817 36.211,164.44 C36.34,164.313 36.468,164.184 36.597,164.057 L44.421,156.316 L46.994,158.919 L38.585,167.239 C36.897,168.907 36.165,169.852 37.523,171.225 C38.847,172.563 39.763,171.948 41.521,170.208 L49.932,161.888 L52.487,164.47 L44.664,172.212" id="Fill-106" fill="#111746"></path>
        </g>
    </g>
</svg>