<?xml version="1.0" encoding="UTF-8" standalone="no"?>
<svg width="237px" height="188px" viewBox="0 0 237 188" version="1.1" xmlns="http://www.w3.org/2000/svg" xmlns:xlink="http://www.w3.org/1999/xlink">
    <g id="Bundesliga" stroke="none" stroke-width="1" fill="none" fill-rule="evenodd">
        <g id="Artboard" transform="translate(0.000000, -24.000000)">
            <polyline id="Fill-1" fill="#FFFFFE" points="118.571 25 -0.035 119.267 118.691 211.078 237.095 119.267 118.571 25"></polyline>
            <polygon id="Stroke-2" stroke="#0B4A8E" stroke-width="0.975" points="118.571 25 -0.035 119.267 118.691 211.078 237.095 119.267"></polygon>
            <polyline id="Fill-3" fill="#0B4A8E" points="118.571 36.407 118.571 119.267 222.879 119.267"></polyline>
            <polyline id="Fill-4" fill="#5FA4CE" points="222.859 119.267 118.571 119.267 118.571 199.937"></polyline>
            <polyline id="Fill-5" fill="#5FA4CE" points="14.163 119.267 118.571 119.267 118.571 36.434"></polyline>
            <polyline id="Fill-6" fill="#0B4A8E" points="118.571 199.952 118.571 119.267 14.165 119.267"></polyline>
            <path d="M43.973,70.905 C119.563,138.464 188.728,78.086 194.311,70.905 C194.594,78.889 182.512,100.999 182.512,100.999 L190.709,100.999 C190.709,100.999 186.633,108.558 178.129,116.826 C183.326,116.826 182.06,116.826 187.116,116.826 C176.681,143.047 97.311,178.48 49.419,116.826 C53.199,116.826 60.287,116.826 60.287,116.826 L46.066,100.999 L56.024,100.999 C56.024,100.999 43.5,82.291 43.973,70.905" id="Fill-11" fill="#FFFFFE"></path>
            <path d="M43.973,70.905 C119.563,138.464 188.728,78.086 194.311,70.905 C194.594,78.889 182.512,100.999 182.512,100.999 L190.709,100.999 C190.709,100.999 186.633,108.558 178.129,116.826 C183.326,116.826 182.06,116.826 187.116,116.826 C176.681,143.047 97.311,178.48 49.419,116.826 C53.199,116.826 60.287,116.826 60.287,116.826 L46.066,100.999 L56.024,100.999 C56.024,100.999 43.5,82.291 43.973,70.905 Z" id="Stroke-12" stroke="#0B4A8E"></path>
            <path d="M179.591,92.023 C166.126,102.795 140.969,107.259 140.969,107.259 C152.662,122.495 139.906,138.44 135.937,142.763 C158.898,138.936 174.985,122.495 174.985,122.495 L163.292,122.495 L179.237,106.55 L170.52,106.55 C170.52,106.55 177.465,97.409 179.591,92.023 Z M140.62,106.966 C131.469,97.085 104.539,99.298 96.989,107.098 C96.989,107.098 111.211,103.1 140.62,106.966 Z M96.852,107.113 C96.852,107.113 71.799,102.795 58.335,92.023 C60.461,97.409 67.406,106.55 67.406,106.55 L58.689,106.55 L74.634,122.495 L62.941,122.495 C62.941,122.495 79.028,138.936 101.988,142.763 C98.02,138.44 84.357,120.426 96.852,107.113 L96.852,107.113 Z" id="Fill-13" fill="#FFFFFE"></path>
            <path d="M179.591,92.023 C166.126,102.795 140.969,107.259 140.969,107.259 C152.662,122.495 139.906,138.44 135.937,142.763 C158.898,138.936 174.985,122.495 174.985,122.495 L163.292,122.495 L179.237,106.55 L170.52,106.55 C170.52,106.55 177.465,97.409 179.591,92.023 Z M140.62,106.966 C131.469,97.085 104.539,99.298 96.989,107.098 C96.989,107.098 111.211,103.1 140.62,106.966 Z M96.852,107.113 C96.852,107.113 71.799,102.795 58.335,92.023 C60.461,97.409 67.406,106.55 67.406,106.55 L58.689,106.55 L74.634,122.495 L62.941,122.495 C62.941,122.495 79.028,138.936 101.988,142.763 C98.02,138.44 84.357,120.426 96.852,107.113 Z" id="Stroke-14" stroke="#0B4A8E"></path>
            <path d="M118.883,131.453 C132.675,131.453 143.856,124.308 143.856,115.494 C143.632,105.96 133.335,100.934 118.571,100.934 C104.28,101.235 93.368,106.623 93.768,115.534 C93.768,124.348 105.09,131.453 118.883,131.453" id="Fill-15" fill="#FFFFFE"></path>
            <path d="M118.764,127.22 C118.764,127.22 120.298,108.773 131.623,108.773 C142.949,108.773 140.754,143.637 119.516,143.637 C98.277,143.637 93.243,108.773 106.793,108.773 C117.959,108.773 118.764,127.22 118.764,127.22 Z" id="Stroke-16" stroke="#0B4A8E"></path>
            <path d="M107.78,125.41 C110.154,125.41 112.079,122.778 112.079,119.532 C112.079,116.286 110.154,113.654 107.78,113.654 C105.405,113.654 103.48,116.286 103.48,119.532 C103.48,122.778 105.405,125.41 107.78,125.41" id="Fill-17" fill="#0B4A8E"></path>
            <path d="M107.78,125.41 C110.154,125.41 112.079,122.778 112.079,119.532 C112.079,116.286 110.154,113.654 107.78,113.654 C105.405,113.654 103.48,116.286 103.48,119.532 C103.48,122.778 105.405,125.41 107.78,125.41 Z" id="Stroke-18" stroke="#0B4A8E"></path>
            <path d="M129.748,125.41 C132.123,125.41 134.048,122.778 134.048,119.532 C134.048,116.286 132.123,113.654 129.748,113.654 C127.374,113.654 125.449,116.286 125.449,119.532 C125.449,122.778 127.374,125.41 129.748,125.41" id="Fill-19" fill="#0B4A8E"></path>
            <path d="M129.748,125.41 C132.123,125.41 134.048,122.778 134.048,119.532 C134.048,116.286 132.123,113.654 129.748,113.654 C127.374,113.654 125.449,116.286 125.449,119.532 C125.449,122.778 127.374,125.41 129.748,125.41 Z" id="Stroke-20" stroke="#0B4A8E"></path>
        </g>
    </g>
</svg>