<?xml version="1.0" encoding="UTF-8" standalone="no"?>
<!DOCTYPE svg PUBLIC "-//W3C//DTD SVG 1.1//EN" "http://www.w3.org/Graphics/SVG/1.1/DTD/svg11.dtd">

<svg width="210px" height="210px" viewBox="0 0 210 210" version="1.1" xmlns="http://www.w3.org/2000/svg" xmlns:xlink="http://www.w3.org/1999/xlink">
    <g id="Hamburg" stroke="none" stroke-width="1" fill="none" fill-rule="evenodd">
        <g id="Artboard">
            <path d="M102.461001,177.549867 C35.0398899,125.590974 51.7291861,55.1821951 51.7291861,55.1821951 C51.7291861,55.1821951 74.7606076,41.5205801 106.14594,41.5205801 C137.185971,41.5205801 158.674653,55.1821951 158.674653,55.1821951 C158.674653,55.1821951 171.755332,127.092959 104.0934,178.86124 C104.067465,178.892539 102.458037,177.563946 102.461001,177.549867" id="Fill-1" fill="#FFFFFF"></path>
            <polygon id="Fill-2" fill="#7B8089" points="17.8289374 81.0968049 19.817752 75.5623578 5.88641697 70.5606817 6.71113777 68.2621337 20.6424728 73.2638097 22.6312874 67.7301036 24.6949419 68.4710926 19.8925919 81.837794"></polygon>
            <polygon id="Fill-3" fill="#7B8089" points="15.3569979 94.1708156 16.6685485 87.0884423 11.6201902 86.1562781 10.3553219 92.9904201 8.19904377 92.590286 9.46391207 85.756885 4.27106085 84.7958222 2.91949683 92.0960463 0.763218715 91.6959122 2.55789418 81.9941427 19.2701611 85.0877719 17.5132761 94.5702087"></polygon>
            <polygon id="Fill-5" fill="#7B8089" points="0.253418253 114.666573 0.216368801 112.57402 13.0791976 100.964203 -0.000740989044 101.213175 -0.0444593426 98.9205554 16.9464194 98.5967432 16.9834689 100.541839 4.04802315 112.302077 17.2035426 112.053104 17.247261 114.34276"></polygon>
            <polygon id="Fill-7" fill="#7B8089" points="5.18025441 138.361179 4.67045394 136.329387 14.5989661 122.126109 1.90952877 125.307175 1.35082303 123.084208 17.8378293 118.950971 18.3098393 120.83827 8.34650059 135.203084 21.1085549 132.004975 21.6642967 134.227942"></polygon>
            <polygon id="Fill-8" fill="#7B8089" points="9.37425239 148.225966 8.38429103 145.994107 23.9102345 139.087348 24.9031598 141.319207"></polygon>
            <path d="M27.8263616,154.648118 C28.2813288,152.70895 27.9249131,151.302553 27.3462007,150.309628 C26.5555654,148.9551 25.2795822,148.402322 24.2488665,149.004005 C21.4271802,150.64826 25.1721388,156.972601 20.5031668,159.696477 C18.1994319,161.039149 15.5014908,160.275189 14.1210282,157.907729 C13.1918279,156.315344 12.8709797,154.772605 13.0791976,153.004605 L15.7504631,151.447046 C15.0013232,153.328417 15.0383726,155.123092 15.8779132,156.56728 C16.8330481,158.202643 18.3068753,158.353064 19.1227043,157.875867 C22.1592774,156.107126 18.801856,149.553819 22.8246855,147.209329 C25.2158572,145.814788 27.7715284,146.688414 29.3402022,149.380427 C29.9944955,150.497839 30.301265,151.820504 30.2175332,153.253577 L27.8263616,154.648118 Z" id="Fill-9" fill="#7B8089"></path>
            <polygon id="Fill-10" fill="#7B8089" points="50.3776221 194.969037 48.3976994 193.541892 52.7221115 187.535435 44.9995236 181.975053 40.6721476 187.978547 38.6922249 186.551402 48.6237011 172.762337 50.6058468 174.189481 46.2792117 180.195198 54.0040225 185.758543 58.3284346 179.752086 60.3113213 181.179231"></polygon>
            <path d="M65.3041054,199.964785 C68.8067606,201.472698 72.4857712,200.042589 73.9529296,196.633299 C75.4289797,193.200296 73.9269949,189.567227 70.4250807,188.062278 C66.9453962,186.566221 63.2752774,187.969655 61.7992273,191.405621 C60.331328,194.814912 61.8251619,198.467988 65.3041054,199.964785 M71.3105626,186.001588 C76.4626594,188.218627 78.1358127,193.2781 76.2655564,197.628447 C74.4538381,201.840229 69.66038,204.280306 64.3726822,202.005469 C59.2665267,199.811401 57.6659904,194.644484 59.4866004,190.409732 C61.3479649,186.082356 66.2510894,183.824562 71.3105626,186.001588" id="Fill-11" fill="#7B8089"></path>
            <path d="M96.0870133,196.636263 C94.2523244,195.052769 92.588063,194.187294 90.6511177,193.827914 C86.8305781,193.121752 83.4850126,195.31582 82.8047847,198.991867 C82.1097369,202.74053 84.3734585,205.846015 88.3911011,206.589968 C90.2784002,206.937492 92.4606129,206.656657 94.5731727,205.779326 L94.0870839,208.401687 C92.2864805,208.957428 90.3851026,209.238263 87.7627424,208.752174 C81.4902701,207.591786 79.6377975,202.256664 80.2891269,198.751786 C81.2331469,193.654523 85.7687408,190.644625 91.0853372,191.628659 C92.7992449,191.946543 94.4635063,192.685309 96.5649512,194.062808 L96.0870133,196.636263 Z" id="Fill-12" fill="#7B8089"></path>
            <polygon id="Fill-13" fill="#7B8089" points="115.992943 209.725093 112.629594 209.788818 103.824421 201.55643 103.983734 209.953318 101.540693 210 101.219103 193.006157 103.65918 192.960216 103.809601 200.734673 110.811207 192.823874 113.850744 192.766077 106.60313 200.954747"></polygon>
            <polygon id="Fill-14" fill="#7B8089" points="127.501244 192.418553 120.438877 193.816799 121.434026 198.853302 128.256312 197.501738 128.68238 199.652088 121.863058 201.003652 122.887105 206.187611 130.172509 204.743424 130.600801 206.893774 120.919038 208.812936 117.61645 192.140682 127.075916 190.268203"></polygon>
            <polygon id="Fill-15" fill="#7B8089" points="141.331063 185.225772 144.071982 184.163935 141.090983 193.923502 144.329846 202.288527 142.05501 203.171786 138.804291 194.78379 130.036908 189.59909 132.780791 188.537252 139.145887 192.351864"></polygon>
            <polygon id="Fill-16" fill="#7B8089" points="187.153826 170.762407 184.84935 173.210635 172.806055 173.74637 178.919215 179.506078 177.243097 181.283711 164.874508 169.627212 166.547661 167.85032 172.206595 173.181736 171.450786 162.645613 173.538152 160.431538 174.319155 171.338156"></polygon>
            <path d="M183.28364,159.424534 L184.155043,158.118911 C185.608123,155.942626 184.904924,154.573279 183.706004,153.806355 C182.366296,152.94088 181.031774,153.189852 179.720965,155.160883 L178.849562,156.466506 L183.28364,159.424534 Z M178.128579,153.771528 C180.035885,150.909088 182.742718,150.136236 185.185759,151.768635 C186.824086,152.859371 187.480602,154.524373 187.072317,156.43983 C188.780297,155.722553 190.612763,155.80332 193.092853,155.901872 C194.468129,155.950777 195.180219,155.915951 197.177185,155.841111 L195.559606,158.266368 L191.414513,158.197456 C187.266456,158.124839 186.366154,158.755421 185.677776,159.792064 L185.110178,160.639756 L191.246308,164.732979 L189.89178,166.764771 L175.752227,157.337168 L178.128579,153.771528 Z" id="Fill-17" fill="#7B8089"></path>
            <path d="M200.271555,143.840793 C201.735749,140.321095 200.262663,136.659127 196.832625,135.234946 C193.38258,133.799651 189.770258,135.345354 188.306064,138.868016 C186.852984,142.364002 188.3031,146.017078 191.753145,147.453115 C195.183183,148.876555 198.818475,147.339743 200.271555,143.840793 M186.236481,138.005504 C188.389796,132.829696 193.429262,131.092818 197.799615,132.908241 C202.034368,134.671054 204.535206,139.431908 202.323354,144.749246 C200.190787,149.878372 195.043877,151.545597 190.789118,149.776856 C186.438771,147.968102 184.120217,143.090912 186.236481,138.005504" id="Fill-18" fill="#7B8089"></path>
            <path d="M196.630335,113.118646 C195.072776,114.973342 194.228048,116.646495 193.894603,118.588628 C193.235123,122.418059 195.469205,125.738431 199.151179,126.371977 C202.910958,127.017378 205.988285,124.716607 206.679628,120.687109 C207.007145,118.797586 206.697412,116.620561 205.794146,114.516152 L208.422434,114.971119 C208.998183,116.762831 209.304952,118.661245 208.85369,121.289533 C207.771105,127.576084 202.459695,129.495245 198.948889,128.890598 C193.836806,128.010303 190.772075,123.5125 191.686456,118.184048 C191.984333,116.464212 192.702352,114.791059 194.050952,112.672571 L196.630335,113.118646 Z" id="Fill-19" fill="#7B8089"></path>
            <polygon id="Fill-20" fill="#7B8089" points="209.54281 93.0534041 209.649512 96.4145304 201.530495 105.323442 209.921455 105.057427 210 107.500468 193.012085 108.038426 192.937245 105.595385 200.705774 105.349376 192.70828 98.4492864 192.612692 95.4097493 200.891022 102.550661"></polygon>
            <polygon id="Fill-21" fill="#7B8089" points="192.158466 81.7562852 193.646372 88.801609 198.668055 87.7419947 197.232018 80.9404562 199.377181 80.48623 200.812477 87.2877684 205.982357 86.1970325 204.44851 78.9316349 206.592932 78.4796316 208.630652 88.1332369 192.005081 91.644043 190.010339 82.2112524"></polygon>
            <polygon id="Fill-22" fill="#7B8089" points="185.949719 64.8498791 188.140823 70.3057815 201.875055 64.792082 202.786472 67.0580265 189.049276 72.572467 191.24038 78.0283693 189.205624 78.8479032 183.914963 65.6664491"></polygon>
            <path d="M51.6595332,23.739807 L53.025917,22.9669554 C55.3007533,21.6754115 55.2866745,20.1356363 54.5656922,18.9115224 C53.7580141,17.5362467 52.4560964,17.1576013 50.3946649,18.326882 L49.0290221,19.0997336 L51.6595332,23.739807 Z M49.6018066,16.36993 C52.5916974,14.673806 55.3533636,15.2006492 56.8064431,17.7563205 C57.7756567,19.4702281 57.6111572,21.2530478 56.3863023,22.7787442 C58.232847,22.9054533 59.8311604,23.8027911 62.0044812,25.0068983 C63.2085884,25.6700834 63.8599178,25.9598102 65.6775639,26.7904589 L63.1418994,28.2287186 L59.4717807,26.3014061 C55.798698,24.3703887 54.713149,24.5297013 53.631305,25.1432402 L52.7421182,25.6471128 L56.3803744,32.0640779 L54.2559588,33.2681851 L45.8738907,18.4832307 L49.6018066,16.36993 Z" id="Fill-23" fill="#009B7B"></path>
            <polygon id="Fill-24" fill="#009B7B" points="76.1299554 22.4341843 73.8025088 23.1751733 68.6533759 6.97715284 70.9830455 6.23912775"></polygon>
            <path d="M92.6806866,5.08170286 C91.0653305,3.91538611 89.6300348,3.70346324 88.4948395,3.85462501 C86.9380216,4.06284293 85.9332404,5.02686967 86.0925531,6.21319313 C86.5238087,9.44909229 93.806249,8.42504543 94.5213034,13.7853602 C94.8717913,16.4277271 93.128985,18.6217957 90.4140012,18.9841393 C88.5844992,19.2301477 87.0365731,18.9315291 85.487906,18.057903 L85.079621,14.9953953 C86.5238087,16.4136483 88.1969619,17.0679416 89.8523315,16.8478679 C91.7285157,16.5988956 92.4346783,15.2962368 92.3101921,14.3581447 C91.84411,10.8732732 84.5060955,11.4519857 83.8873697,6.83265997 C83.5220621,4.0917415 85.3137736,2.06810042 88.399252,1.65759249 C89.6848679,1.48346007 91.0216122,1.70946172 92.3131561,2.34078439 L92.6806866,5.08170286 Z" id="Fill-25" fill="#009B7B"></path>
            <path d="M113.882606,4.73121505 C112.554013,3.246273 111.196521,2.73424957 110.056139,2.64162594 C108.490429,2.51121187 107.303364,3.23812212 107.207777,4.43037349 C106.938798,7.68405639 114.26792,8.23979817 113.824809,13.6290115 C113.607699,16.2861982 111.433637,18.057903 108.704575,17.8319013 C106.863217,17.6814806 105.416065,17.0590498 104.087472,15.8749493 L104.342372,12.7953988 C105.453856,14.4885588 106.944726,15.4844481 108.608987,15.623013 C110.496286,15.7793617 111.462536,14.6567633 111.541081,13.7127432 C111.830067,10.213793 104.536511,9.21197579 104.921085,4.56597449 C105.147086,1.81097722 107.329299,0.215627812 110.432561,0.470528043 C111.726328,0.577971454 112.982304,1.08110302 114.111572,1.97251283 L113.882606,4.73121505 Z" id="Fill-27" fill="#009B7B"></path>
            <polygon id="Fill-29" fill="#009B7B" points="136.619114 7.77371606 129.730139 5.67745805 128.236305 10.5872515 134.8852 12.6131155 134.247949 14.7086325 127.596831 12.6857324 126.06002 17.7392777 133.163141 19.9014837 132.525891 21.9999647 123.084208 19.1286322 128.031051 2.8676276 137.255624 5.67523509"></polygon>
            <polygon id="Fill-30" fill="#009B7B" points="154.810395 32.7613486 152.989785 31.7284099 149.557524 14.743459 143.105732 26.1243097 141.11099 24.9928195 149.493799 10.210829 151.183995 11.1689279 154.709621 28.2924437 161.198462 16.8478679 163.193204 17.9793582"></polygon>
            <path d="M155.959669,97.3637374 C151.2329,119.477814 138.364143,151.305517 104.073393,177.94926 C103.830349,177.758085 103.537658,177.518004 103.537658,177.518004 L103.442071,177.433532 C68.51407,150.54378 56.5167164,118.681251 52.6035532,96.6835095 C51.1475097,88.5148462 50.6673488,81.0619784 50.6673488,74.7865422 C50.6673488,64.6527761 51.9055415,57.6482066 52.3256823,55.5645454 C56.0736049,53.5031139 77.8201514,42.272684 106.16891,42.272684 C134.051587,42.272684 154.405815,53.3875196 158.041107,55.5089713 C158.296007,57.2577054 158.920661,62.224555 158.920661,69.5010674 C158.920661,76.8501967 158.27526,86.4949101 155.959669,97.3637374 M161.222173,54.1781549 L161.088795,53.4571726 L160.469328,53.0637074 C159.563099,52.4872179 137.85212,38.9300824 106.16891,38.9300824 C74.1641114,38.9300824 50.9592985,52.4612833 49.9841569,53.0399958 L49.372841,53.3993755 L49.2142693,54.0907182 C49.034209,54.8346712 44.9387625,72.5865458 49.2802174,97.117729 C53.2778532,119.740866 65.5649336,152.497768 101.398423,180.082567 L104.073393,182.186976 L105.098181,181.422276 C141.038373,153.950848 154.390995,120.843457 159.259293,97.9135513 C164.544768,73.044477 161.357774,54.9361867 161.222173,54.1781549" id="Fill-31" fill="#009B7B"></path>
            <path d="M55.6801397,59.2724546 C55.6801397,59.2724546 52.0589263,77.8749846 57.5933734,102.252783 L104.081544,102.252783 L104.081544,46.7712285 C75.7913234,46.9097934 55.6801397,59.2724546 55.6801397,59.2724546" id="Fill-32" fill="#009B7B"></path>
            <path d="M104.081544,102.252783 L104.081544,172.672677 C132.682239,149.744994 145.35167,123.636986 150.726804,102.252783 L104.081544,102.252783 Z" id="Fill-33" fill="#009B7B"></path>
            <polygon id="Fill-34" fill="#009B7B" points="24.2896209 61.9266774 23.4360015 60.2305534 22.1703922 60.8500203 23.0506872 62.6039414 21.0855842 62.8669925 21.2938022 64.2133696 23.201108 64.0014467 22.8076428 65.8687391 24.2029251 66.1266033 24.5674918 64.2563469 26.243609 65.1447928 26.9030892 63.9236428 25.2566116 62.9803638 26.7208059 61.6369507 25.7538152 60.5832642"></polygon>
            <polygon id="Fill-35" fill="#009B7B" points="43.0055221 170.89208 41.9777703 169.291544 40.785519 170.041425 41.8443923 171.69383 39.9170798 172.162876 40.2638627 173.480355 42.137083 173.069106 41.9429438 174.96752 43.3582329 175.077927 43.5234735 173.181736 45.2862864 173.887899 45.8101657 172.603024 44.0762513 171.839064 45.3929888 170.348194 44.3222597 169.401951"></polygon>
            <polygon id="Fill-36" fill="#009B7B" points="163.320654 173.951624 162.081721 172.513364 161.005063 173.419594 162.281047 174.909723 160.437466 175.642561 160.967273 176.898537 162.764912 176.229424 162.836788 178.134507 164.252818 178.047811 164.151303 176.148657 165.994884 176.602883 166.33648 175.257247 164.512906 174.739295 165.61031 173.083185 164.417318 172.296254"></polygon>
            <polygon id="Fill-37" fill="#009B7B" points="167.181948 22.9610275 166.099363 21.4005046 164.933046 22.1881759 166.046753 23.8027911 164.139447 24.3414901 164.532912 25.6441488 166.391313 25.1691749 166.26164 27.0712937 167.679893 27.1320548 167.777703 25.229936 169.564228 25.8783014 170.044389 24.5756426 168.281576 23.8694801 169.546444 22.3356328 168.443852 21.4264392"></polygon>
        </g>
    </g>
</svg>