<?xml version="1.0" encoding="UTF-8" standalone="no"?>
<!DOCTYPE svg PUBLIC "-//W3C//DTD SVG 1.1//EN" "http://www.w3.org/Graphics/SVG/1.1/DTD/svg11.dtd">
<svg width="210px" height="210px" viewBox="0 0 210 210" version="1.1" xmlns="http://www.w3.org/2000/svg" xmlns:xlink="http://www.w3.org/1999/xlink">
    <g id="Hamburg" stroke="none" stroke-width="1" fill="none" fill-rule="evenodd">
        <g id="274-THKR">
            <circle id="Background" fill="#FFFFFF" cx="105" cy="105" r="105"></circle>
            <g id="Logo" transform="translate(6.000000, 7.000000)">
                <path d="M96.7887417,166.758717 C32.9246782,117.576953 48.7334695,50.9314214 48.7334695,50.9314214 C48.7334695,50.9314214 70.5497839,38 100.279268,38 C129.681668,38 150.036636,50.9314214 150.036636,50.9314214 C150.036636,50.9314214 162.427197,118.998658 98.3350173,168 C98.310451,168.029626 96.7859341,166.772044 96.7887417,166.758717" id="Fill-1" fill="#FFFFFF"></path>
                <polygon id="Fill-2" fill="#7B8089" points="16.4291455 75.317191 18.3324666 70.2172908 5 65.6083303 5.78926841 63.4902568 19.121735 68.0992174 21.0250561 63 23 63.682809 18.4040894 76"></polygon>
                <polygon id="Fill-3" fill="#7B8089" points="14.4054693 87.6189017 15.6102258 80.8609474 10.972934 79.9714824 9.81105862 86.492576 7.83035714 86.1107707 8.99223254 79.5903842 4.22221332 78.6733443 2.98070147 85.6391704 1 85.2573651 2.6485426 76 18 78.9519208 16.3861707 88"></polygon>
                <polygon id="Fill-5" fill="#7B8089" points="0.275625643 107 0.241343846 105.046756 12.1432979 94.2098492 0.0404525197 94.4422465 0 92.3022548 15.7216318 92 15.7559136 93.8156038 3.78676723 104.792917 15.9595475 104.56052 16 106.697745"></polygon>
                <polygon id="Fill-7" fill="#7B8089" points="4.58181951 130 4.10498286 128.115824 13.3915153 114.944455 1.5225797 117.894407 1 115.832945 16.4209528 112 16.8624425 113.750181 7.54333552 127.071349 19.4801926 124.105593 20 126.167055"></polygon>
                <polygon id="Fill-8" fill="#7B8089" points="8.95886601 139 8 136.801995 23.0382631 130 24 132.198005"></polygon>
                <path d="M25.764732,145.624575 C26.1876446,143.798222 25.8563401,142.473644 25.3184009,141.538484 C24.5834698,140.262758 23.397386,139.74214 22.4392894,140.308819 C19.816405,141.857416 23.2975126,147.813827 18.9574931,150.379236 C16.8160678,151.643795 14.3082102,150.92428 13.0250081,148.694552 C12.1612746,147.194806 11.8630317,145.741819 12.0565797,144.076676 L14.5396411,142.609731 C13.8432819,144.38165 13.877721,146.071917 14.6581117,147.432086 C15.5459526,148.972308 16.9159413,149.113978 17.674291,148.664543 C20.4969223,146.998702 17.3760481,140.826646 21.1154491,138.618552 C23.3381507,137.30514 25.7137621,138.127942 27.171915,140.663342 C27.7801101,141.715746 28.0652661,142.961463 27.9874336,144.311164 L25.764732,145.624575 Z" id="Fill-9" fill="#7B8089"></path>
                <polygon id="Fill-10" fill="#7B8089" points="47.810255 183 45.9786126 181.650405 49.979161 175.970336 42.8349328 170.712103 38.8316424 176.389369 37 175.039774 46.1876885 162 48.0213874 163.349595 44.0187826 169.028963 51.1650672 174.29 55.1656156 168.60993 57 169.959525"></polygon>
                <path d="M62.095928,188.206683 C65.359468,189.653787 68.7873241,188.281349 70.1543242,185.009541 C71.5296091,181.714978 70.13016,178.228416 66.8673104,176.784156 C63.625173,175.348429 60.2056016,176.695267 58.8303167,179.992675 C57.4626263,183.264482 58.8544809,186.770245 62.095928,188.206683 M67.6923433,174.806564 C72.4927227,176.934199 74.0516551,181.789644 72.3090753,185.964559 C70.6210373,190.006497 66.1548134,192.348175 61.2280901,190.165074 C56.4705157,188.059483 54.9792429,183.100928 56.6755657,179.036946 C58.4098607,174.884075 62.9782644,172.717329 67.6923433,174.806564" id="Fill-11" fill="#7B8089"></path>
                <path d="M90.5628342,185.02789 C88.8846597,183.494794 87.3623739,182.656864 85.5906662,182.308922 C82.0960509,181.625234 79.0358903,183.749473 78.4136915,187.308522 C77.7779372,190.937878 79.8485443,193.944525 83.5234481,194.664801 C85.2497447,195.001264 87.2457963,194.729367 89.1781369,193.879959 L88.7335156,196.418858 C87.0865188,196.956912 85.3473445,197.228809 82.9486937,196.758191 C77.2113161,195.634733 75.516875,190.469412 76.1126405,187.076083 C76.9761277,182.141049 81.1247973,179.226947 85.9878432,180.179662 C87.5555401,180.487429 89.077826,181.202682 91,182.53634 L90.5628342,185.02789 Z" id="Fill-12" fill="#7B8089"></path>
                <polygon id="Fill-13" fill="#7B8089" points="110 196.744776 106.81282 196.803938 98.4688534 189.160977 98.6198214 196.95666 96.3047447 197 96 181.222891 98.312268 181.180239 98.4548099 188.398057 105.089678 181.053659 107.970007 181 101.102016 188.602373"></polygon>
                <polygon id="Fill-14" fill="#7B8089" points="120.135422 181.087186 113.608457 182.44436 114.528163 187.33292 120.833248 186.021057 121.227016 188.108243 114.92467 189.420106 115.871084 194.451792 122.604177 193.050026 123 195.137212 114.052217 197 111 180.817477 119.742339 179"></polygon>
                <polygon id="Fill-15" fill="#7B8089" points="134.062678 174.005536 136.747421 173 133.827518 182.242086 137 190.163574 134.771787 191 131.587692 183.05676 123 178.146967 125.687646 177.141431 131.922287 180.753781"></polygon>
                <polygon id="Fill-16" fill="#7B8089" points="177 159.908674 174.827851 162.256849 163.476103 162.77069 169.238235 168.295014 167.658363 170 156 158.819871 157.577078 157.115596 162.911065 162.229132 162.198656 152.123592 164.166162 150 164.902318 160.460893"></polygon>
                <path d="M173.030504,150.048935 L173.843951,148.812535 C175.200387,146.751635 174.543958,145.454888 173.424777,144.728626 C172.174172,143.909038 170.928408,144.14481 169.70478,146.011339 L168.891333,147.247738 L173.030504,150.048935 Z M168.218303,144.695646 C169.998755,141.984969 172.525559,141.253094 174.806115,142.798944 C176.335478,143.83185 176.94833,145.408576 176.567199,147.222477 C178.161583,146.543229 179.872173,146.619715 182.187314,146.713041 C183.471121,146.759353 184.135851,146.726373 186,146.655501 L184.490005,148.952174 L180.620599,148.886915 C176.748426,148.818149 175.908003,149.415297 175.265408,150.396979 L174.735561,151.199727 L180.463582,155.075932 L179.199142,157 L166,148.072239 L168.218303,144.695646 Z" id="Fill-17" fill="#7B8089"></path>
                <path d="M189.240147,134.834416 C190.646222,131.555576 189.231609,128.144201 185.937723,126.817479 C182.624624,125.480402 179.15569,126.920331 177.749616,130.201932 C176.354215,133.458684 177.746769,136.861775 181.059868,138.199542 C184.353754,139.525574 187.844747,138.093929 189.240147,134.834416 M175.762184,129.398444 C177.830024,124.576823 182.669453,122.958801 186.866329,124.649992 C190.932987,126.292174 193.334557,130.727237 191.210502,135.680702 C189.162586,140.458836 184.219978,142.011971 180.134107,140.364267 C175.956444,138.679288 173.729922,134.135851 175.762184,129.398444" id="Fill-18" fill="#7B8089"></path>
                <path d="M185.946085,106.409903 C184.436872,108.114201 183.618365,109.651677 183.29527,111.436321 C182.65626,114.955223 184.820996,118.006344 188.388683,118.588516 C192.031758,119.181581 195.013565,117.067381 195.683449,113.364636 C196.0008,111.628336 195.700681,109.627846 194.825452,107.694084 L197.372159,108.112158 C197.930036,109.758579 198.227283,111.50305 197.790028,113.918209 C196.741046,119.694981 191.594503,121.458517 188.192672,120.902901 C183.239267,120.09399 180.269665,115.960915 181.155664,111.064549 C181.444295,109.484175 182.140026,107.946699 183.446766,106 L185.946085,106.409903 Z" id="Fill-19" fill="#7B8089"></path>
                <polygon id="Fill-20" fill="#7B8089" points="197.579288 87 197.677477 90.1401869 190.206265 98.4634822 197.927722 98.2149533 198 100.497404 182.367526 101 182.298658 98.7175493 189.447347 98.487712 182.087961 92.0411907 182 89.2014538 189.617814 95.8729664"></polygon>
                <polygon id="Fill-21" fill="#7B8089" points="181.076565 75.9868288 182.514903 82.4089835 187.369294 81.4430935 185.981098 75.2431611 188.054797 74.8291118 189.442278 81.0290442 194.43993 80.0347855 192.957181 73.412023 195.030164 73 197 81.7997298 180.92829 85 179 76.4015535"></polygon>
                <polygon id="Fill-22" fill="#7B8089" points="175.940788 60.0534556 178.030705 65.0995308 191.130674 60 192 62.0957351 178.897204 67.1959513 180.987121 72.2420265 179.046333 73 174 60.8086879"></polygon>
                <path d="M48.5508494,21.9405397 L49.8617825,21.2057222 C52.0443014,19.9777388 52.030794,18.5137401 51.3390706,17.3498683 C50.5641697,16.0422737 49.3150864,15.6822625 47.337312,16.7939997 L46.0270897,17.5288171 L48.5508494,21.9405397 Z M46.5766295,14.9333546 C49.4451845,13.3207016 52.0947766,13.8216174 53.4888872,16.251517 C54.4187682,17.8810786 54.2609444,19.5761607 53.0857966,21.0267734 C54.8574048,21.1472468 56.3908553,22.0004241 58.4759784,23.1452739 C59.6312205,23.7758219 60.2561176,24.0512904 62,24.8410606 L59.5672379,26.2085396 L56.04606,24.3760754 C52.5220385,22.5400887 51.4805433,22.6915611 50.4426027,23.2749061 L49.5895009,23.7539817 L53.0801093,29.8551502 L51.0419068,31 L43,16.942654 L46.5766295,14.9333546 Z" id="Fill-23" fill="#009B7B"></path>
                <polygon id="Fill-24" fill="#009B7B" points="72 20.299965 69.8209118 21 65 5.69723486 67.1811695 5"></polygon>
                <path d="M87.2422277,3.38795762 C85.7361476,2.25277968 84.3979471,2.04651482 83.3395459,2.1936408 C81.8880439,2.39629963 80.9512345,3.33458839 81.0997699,4.48923888 C81.5018518,7.63874464 88.2916477,6.64203821 88.9583299,11.859241 C89.2851078,14.4310609 87.6601994,16.5665513 85.1288795,16.9192209 C83.4231402,17.1586613 81.9799286,16.8680153 80.5360262,16.0177137 L80.155361,13.0369701 C81.5018518,14.417358 83.0618192,15.0541827 84.6052058,14.8399846 C86.3544694,14.5976595 87.0128613,13.3297797 86.8967964,12.4167331 C86.462244,9.0249022 79.6206335,9.58816393 79.0437633,5.09216694 C78.7031682,2.42442666 80.3736735,0.454813603 83.2504246,0.0552655864 C84.4490709,-0.114217778 85.6953867,0.105749993 86.8995599,0.72021734 L87.2422277,3.38795762 Z" id="Fill-25" fill="#009B7B"></path>
                <path d="M107.794426,3.94064457 C106.601567,2.57575503 105.382762,2.10512695 104.358885,2.01999163 C102.953134,1.90012109 101.887345,2.56826312 101.801523,3.66412503 C101.560024,6.65475874 108.140376,7.16557069 107.742534,12.1190845 C107.547605,14.5614467 105.595653,16.1899152 103.145402,15.982185 C101.492164,15.8439252 100.192859,15.2718158 99,14.1834458 L99.2288587,11.3528665 C100.226789,12.9091403 101.565346,13.8245153 103.05958,13.9518777 C104.754066,14.0955862 105.6216,13.063746 105.69212,12.1960468 C105.951582,8.97997475 99.4031638,8.05915107 99.7484477,3.78876315 C99.9513601,1.25649803 101.91063,-0.209872817 104.696851,0.0244195987 C105.858442,0.123176576 106.986103,0.585631664 108,1.40497403 L107.794426,3.94064457 Z" id="Fill-27" fill="#009B7B"></path>
                <polygon id="Fill-29" fill="#009B7B" points="128.416105 6.61572424 122.096575 4.64353215 120.726222 9.26274206 126.825516 11.1687064 126.240941 13.1402014 120.139608 11.2370256 118.72983 15.9914795 125.245804 18.0257165 124.661229 20 116 17.2986057 120.537935 2 129 4.64144074"></polygon>
                <polygon id="Fill-30" fill="#009B7B" points="146.028019 30 144.296634 29.0380837 141.032583 13.2209772 134.896983 23.819308 133 22.7656163 140.971981 9 142.579343 9.89222226 145.932183 25.8383662 152.103017 15.180692 154 16.2343837"></polygon>
                <path d="M147.992866,91.065716 C143.512929,111.905205 131.316181,141.898454 98.8160986,167.006533 C98.5857461,166.826376 98.3083397,166.600133 98.3083397,166.600133 L98.2177437,166.520529 C65.1136882,141.180622 53.742838,111.154553 50.0340208,90.4246943 C48.6540121,82.7268481 48.1989253,75.7035411 48.1989253,69.789802 C48.1989253,60.2401154 49.3724594,53.6392682 49.7706604,51.6757029 C53.3228659,49.7330861 73.9338047,39.1499441 100.802187,39.1499441 C127.228827,39.1499441 146.520154,49.6241543 149.965611,51.6233319 C150.207201,53.2712743 150.799235,57.9518497 150.799235,64.8089659 C150.799235,71.7345137 150.187536,80.823335 147.992866,91.065716 M152.980561,50.3692198 L152.854148,49.6897927 L152.26703,49.3190056 C151.408124,48.7757433 130.830895,36 100.802187,36 C70.4686837,36 48.4756293,48.7513035 47.5514098,49.2966607 L46.9720168,49.6353268 L46.8217258,50.2868227 C46.6510682,50.9878965 42.7694866,67.7166067 46.88423,90.8338868 C50.6731088,112.153094 62.3185561,143.021988 96.2808155,169.016883 L98.8160986,171 L99.7873719,170.279374 C133.850762,144.391316 146.506109,113.192136 151.120183,91.5838402 C156.12965,68.1481441 153.109081,51.0835609 152.980561,50.3692198" id="Fill-31" fill="#009B7B"></path>
                <path d="M52.1033075,54.7167546 C52.1033075,54.7167546 48.6694873,72.1519466 53.9175338,95 L98,95 L98,43 C71.1737627,43.1298698 52.1033075,54.7167546 52.1033075,54.7167546" id="Fill-32" fill="#009B7B"></path>
                <path d="M98,95 L98,162 C124.978745,140.185784 136.92969,115.345694 142,95 L98,95 Z" id="Fill-33" fill="#009B7B"></path>
                <polygon id="Fill-34" fill="#009B7B" points="22.7537893 57.7260274 22.0201248 56 20.9323653 56.6303883 21.6889568 58.4152319 20 58.6829207 20.1789581 60.0530351 21.8182397 59.8373759 21.4800662 61.7375895 22.6792765 62 22.9926124 60.0967701 24.4331932 61.0008797 25 59.7582003 23.5848936 58.7982908 24.8433321 57.4311927 24.0122277 56.3589292"></polygon>
                <polygon id="Fill-35" fill="#009B7B" points="40.1444738 160.38302 39.0980762 159 37.8841946 159.64797 38.9622784 161.07581 37 161.481112 37.3530743 162.619542 39.2602791 162.264182 39.0626179 163.904597 40.5035836 164 40.671822 162.361506 42.4666164 162.971699 43 161.861442 41.2346284 161.201306 42.5752546 159.913049 41.4851 159.095403"></polygon>
                <polygon id="Fill-36" fill="#009B7B" points="153.932546 163.701231 152.672403 162.223125 151.577314 163.154461 152.875141 164.685874 151 165.439015 151.538877 166.729788 153.367291 166.042137 153.440397 168 154.880668 167.910902 154.777415 165.959132 156.652556 166.425942 157 165.043026 155.145208 164.510725 156.261399 162.808732 155.047984 162"></polygon>
                <polygon id="Fill-37" fill="#009B7B" points="158.091479 20.3613445 156.991467 19 155.806375 19.6871364 156.93801 21.095669 155 21.5656109 155.399799 22.7020039 157.288116 22.2876535 157.156356 23.9469942 158.59744 24 158.696825 22.3406593 160.512109 22.9062702 161 21.7698772 159.208809 21.1538462 160.494039 19.8157725 159.373698 19.0226244"></polygon>
            </g>
        </g>
    </g>
</svg>