<?xml version="1.0" encoding="UTF-8" standalone="no"?>
<!DOCTYPE svg PUBLIC "-//W3C//DTD SVG 1.1//EN" "http://www.w3.org/Graphics/SVG/1.1/DTD/svg11.dtd">

<svg width="210px" height="210px" viewBox="0 0 210 210" version="1.1" xmlns="http://www.w3.org/2000/svg" xmlns:xlink="http://www.w3.org/1999/xlink">
    <g id="Hamburg" stroke="none" stroke-width="1" fill="none" fill-rule="evenodd">
        <g id="276-GTHGC">
            <path d="M105.050562,206.167722 C160.16298,206.300283 205.743886,161.870672 206.27955,106.015687 C206.821983,49.3927494 161.217382,4.2671145 105.966606,3.81141967 C50.2986386,3.35233993 4.34666011,48.0688227 3.92100645,104.187408 C3.49069852,161.011748 49.5264538,206.255432 105.050562,206.167722 Z" id="Background" fill="#FFFFFF"></path>
            <path d="M105.050562,206.167722 C160.16298,206.300283 205.743886,161.870672 206.27955,106.015687 C206.821983,49.3927494 161.217382,4.2671145 105.966606,3.81141967 C50.2986386,3.35233993 4.34666011,48.0688227 3.92100645,104.187408 C3.49069852,161.011748 49.5264538,206.255432 105.050562,206.167722 Z M210,100.531694 C210,103.510424 210,106.489153 210,109.467883 C209.938648,109.829223 209.847679,110.188024 209.821022,110.551903 C209.67674,112.54139 209.60608,114.538492 209.404677,116.522055 C208.662534,123.817404 207.096585,130.941391 204.791455,137.900786 C194.842752,167.938564 171.973811,191.848791 142.40696,203.125228 C133.021424,206.704357 123.317705,208.872399 113.297919,209.623851 C111.951991,209.724552 110.609447,209.873489 109.26521,210 C106.489153,210 103.713942,210 100.937885,210 C100.573583,209.939918 100.210973,209.843447 99.8441325,209.825254 C93.7842799,209.52188 87.7900101,208.732771 81.8778245,207.365686 C59.9050409,202.285345 41.3552574,191.344438 26.4506094,174.447764 C10.6345717,156.518267 1.98060119,135.517802 0.363878876,111.639309 C0.314797539,110.910705 0.124395802,110.191409 -3.0064127e-15,109.467883 C-3.0064127e-15,106.489153 -3.0064127e-15,103.510424 -3.0064127e-15,100.531694 C0.126511377,99.7751648 0.323259839,99.0224432 0.369379371,98.2608363 C0.750605961,91.9648855 1.72588597,85.7632893 3.23767577,79.642085 C11.8738755,44.680518 38.306714,16.2950038 72.5900278,5.17892726 C80.5365501,2.60215708 88.6717817,0.974433781 97.008416,0.368956256 C98.3204955,0.273755387 99.6283439,0.123972687 100.937885,-2.40513016e-14 C103.713942,-2.40513016e-14 106.489153,-2.40513016e-14 109.26521,-2.40513016e-14 C109.662939,0.060928556 110.05982,0.15739877 110.459664,0.176862058 C114.517337,0.378264785 118.551315,0.809418942 122.554406,1.48597978 C132.824675,3.22244363 142.666753,6.32429949 151.943972,11.0708033 C176.529913,23.6500114 193.792581,42.8513919 203.575422,68.6846766 C207.347492,78.6464955 209.495224,88.9806556 209.827792,99.6600775 C209.836678,99.9520268 209.940341,100.241437 210,100.531694 L210,100.531694 Z" id="Fill-1" fill="#243E85"></path>
            <path d="M166.787691,71.0469275 C166.714915,71.0663908 166.642139,71.0862772 166.569364,71.1061636 C166.569364,93.4292864 166.569364,115.751986 166.572325,138.075109 C166.572325,138.093726 166.614637,138.11742 166.641293,138.128845 C166.670065,138.140692 166.703914,138.139846 166.816463,138.157193 C173.049793,126.625618 175.856737,114.284623 175.243221,101.185407 C174.743099,90.494561 171.91119,80.4371181 166.787691,71.0469275 Z M43.9828014,138.685664 C43.9828014,138.220237 43.9828014,137.755234 43.9823783,137.290231 C43.966723,115.055539 43.9506446,92.8216933 43.9316045,70.5874246 C43.9316045,70.5658458 43.8867543,70.5370739 43.8575594,70.5252267 C43.8317493,70.5146488 43.7983233,70.522688 43.7687052,70.522688 C31.5859558,91.6043915 32.2515157,119.030281 43.9828014,138.685664 Z M117.500297,173.600688 C117.65558,173.629037 117.754166,173.667117 117.84979,173.661472 C118.051616,173.647231 118.253865,173.620575 118.452306,173.582071 C126.428023,172.026277 133.909965,169.177021 140.91548,165.055881 C141.589079,164.659423 141.8256,164.238423 141.825178,163.459469 C141.805291,124.20667 141.806137,84.9538704 141.820946,45.7010713 C141.820946,45.0185868 141.637314,44.610704 141.025067,44.2489407 C133.908696,40.0423316 126.297704,37.1566875 118.178974,35.6080867 C117.966993,35.5674677 117.740203,35.6025862 117.500297,35.6025862 C117.500297,81.6506118 117.500297,127.623323 117.500297,173.600688 Z M92.7188764,35.5344647 C92.3486508,35.5835461 92.0850501,35.6059712 91.8265269,35.6550525 C83.4611208,37.2480804 75.6686123,40.3139715 68.3889192,44.7219832 C67.6835866,45.1493294 67.4622974,45.6249106 67.4627205,46.4237517 C67.4813376,85.2487815 67.4817607,124.073811 67.4584889,162.898841 C67.4580663,163.693028 67.7263212,164.104296 68.3766489,164.501178 C75.6152998,168.916806 83.3891912,171.94377 91.7080547,173.571916 C92.0211598,173.633691 92.3448427,173.641307 92.7188764,173.679811 C92.7188764,127.594551 92.7188764,81.6374952 92.7188764,35.5344647 Z M105.045485,178.447893 C63.9398653,178.34423 31.4010546,144.850449 31.6629627,104.510668 C31.9227553,64.5148785 64.4780675,31.3502808 105.515142,31.5683742 C146.390588,31.7873585 178.879471,65.2307891 178.538863,105.640385 C178.203333,145.455503 145.878618,178.400505 105.045485,178.447893 L105.045485,178.447893 Z" id="Fill-2" fill="#243E85"></path>
            <path d="M141.431257,30.1435569 C143.093253,30.9394361 144.245395,30.8404272 144.817446,29.6455505 C145.390344,28.4506739 144.745093,27.4914722 143.083521,26.695593 L139.523855,24.9904396 L137.871168,28.4379804 L141.431257,30.1435569" id="Fill-3" fill="#243E85"></path>
            <path d="M36.5072061,47.1108904 C35.1892029,46.0924526 33.7472271,46.3801708 32.4372631,48.0755925 L30.6897983,50.3358727 L34.8684818,53.564663 L36.6155235,51.3039598 C37.9254874,49.6085381 37.8252092,48.1293281 36.5072061,47.1108904" id="Fill-4" fill="#243E85"></path>
            <path d="M49.2273115,43.3692847 C51.1799871,41.5773928 51.3162301,38.8064128 49.4858347,36.8122719 C47.6562856,34.8181311 44.8836132,34.7157373 42.9309376,36.5080523 C40.9778388,38.2995211 40.8420189,41.070501 42.6719912,43.0646419 C44.5023866,45.0592059 47.2746359,45.1611766 49.2273115,43.3692847" id="Fill-5" fill="#243E85"></path>
            <path d="M192.487694,95.8338488 L196.275843,95.312148 L195.733832,91.3746401 C195.48081,89.537898 194.762784,88.6239697 193.450281,88.8042166 C192.137355,88.9848867 191.693508,90.0587525 191.94653,91.8959177 L192.487694,95.8338488" id="Fill-6" fill="#243E85"></path>
            <path d="M146.644456,24.2664899 C147.176312,23.1570824 146.573373,22.1966115 145.047197,21.4658919 L141.927571,19.972296 L140.349775,23.2666692 L143.468979,24.7602651 C144.994731,25.4914077 146.121063,25.3589728 146.644456,24.2664899" id="Fill-7" fill="#243E85"></path>
            <path d="M187.955287,90.2478849 C186.737139,90.4158616 186.268751,91.4546088 186.500618,93.1419913 L186.975353,96.5924939 L190.594255,96.0944876 L190.119943,92.643985 C189.887653,90.9566025 189.155664,90.0832932 187.955287,90.2478849" id="Fill-8" fill="#243E85"></path>
            <path d="M65.8836555,177.503078 C63.5357905,176.233733 60.8600114,177.003379 59.5724725,179.383824 C58.2849337,181.765538 59.1053536,184.425662 61.4527955,185.695007 C63.8006605,186.964352 66.4764395,186.195129 67.7644015,183.814261 C69.0519404,181.433816 68.2310973,178.773269 65.8836555,177.503078" id="Fill-9" fill="#243E85"></path>
            <path d="M185.214348,65.1419349 C186.680018,64.3498637 187.002432,62.9155039 185.983994,61.0301036 L184.625795,58.5159545 L179.979146,61.0262956 L181.337346,63.5400216 C182.35536,65.425422 183.748255,65.933583 185.214348,65.1419349" id="Fill-10" fill="#243E85"></path>
            <path d="M104.817849,21.6270987 C107.467818,21.5940957 109.417532,19.6202644 109.384106,16.914021 C109.35068,14.2077777 107.353154,12.2830276 104.703185,12.3160306 C102.053216,12.3490336 100.103502,14.3224418 100.136928,17.0291083 C100.170354,19.7349285 102.16788,21.6596786 104.817849,21.6270987" id="Fill-11" fill="#243E85"></path>
            <path d="M154.314685,170.982453 C152.178377,172.581827 151.755685,175.333344 153.377908,177.500116 C155.000554,179.667311 157.76011,180.036267 159.896417,178.436892 C162.032302,176.837095 162.454994,174.085578 160.832771,171.918806 C159.210548,169.752034 156.450569,169.383078 154.314685,170.982453" id="Fill-12" fill="#243E85"></path>
            <path d="M196.562715,125.189566 L183.514695,122.886974 L183.942888,120.463794 L194.940492,122.4042 L196.144254,115.582317 L198.195092,115.944503 L196.562715,125.189566 Z M194.228813,134.176951 C192.927311,138.013334 189.248326,139.963471 185.502066,138.692434 C181.755383,137.421819 180.021458,133.63494 181.328883,129.781632 C182.022369,127.737987 183.353065,126.230428 185.110262,125.527211 L186.015728,127.513736 C184.719727,128.093827 183.852764,129.058529 183.408916,130.367647 C182.527145,132.965996 183.717367,135.468721 186.298369,136.344146 C188.87937,137.21957 191.346553,135.957842 192.227902,133.358223 C192.671749,132.049952 192.570625,130.756912 191.87714,129.501953 L193.821776,128.482669 C194.788594,130.10997 194.927798,132.115958 194.228813,134.176951 Z M185.061604,147.143309 C184.549211,148.114781 183.36322,148.53705 182.291893,147.971768 C181.237914,147.415372 180.917192,146.197224 181.429585,145.226598 C181.941977,144.255549 183.137277,143.815933 184.191679,144.372329 C185.26216,144.938034 185.574419,146.172683 185.061604,147.143309 Z M177.794604,164.079755 L167.146069,156.193738 L172.902125,148.42027 L174.560313,149.647303 L170.268235,155.443555 L173.508449,157.842617 L177.316484,152.700924 L178.989904,153.940651 L175.181869,159.082344 L179.259005,162.101693 L177.794604,164.079755 Z M169.584481,172.930474 L160.065663,163.713761 L161.777163,161.946409 L169.80027,169.713954 L174.619549,164.737276 L176.115684,166.185598 L169.584481,172.930474 Z M161.18988,180.164048 C157.90143,182.625731 153.741364,182.12307 151.393076,178.986519 C149.045211,175.850391 149.733619,171.716557 153.021222,169.254874 C156.309249,166.793191 160.457468,167.281043 162.81718,170.432403 C165.177315,173.584187 164.477483,177.702365 161.18988,180.164048 Z M147.893069,188.487142 C144.227624,190.340809 140.235534,189.15651 138.450412,185.626039 C136.665713,182.096837 138.078494,178.179638 141.777365,176.309047 C143.753735,175.310073 145.741952,175.131518 147.497033,175.834735 L146.795509,177.885997 C145.39669,177.426917 144.118883,177.54285 142.8525,178.183447 C140.336235,179.455753 139.424846,182.058757 140.663303,184.507323 C141.875951,186.905962 144.537344,187.765731 147.037107,186.501887 C147.882068,186.074964 148.623788,185.487257 149.161991,184.663875 L147.300708,180.981929 L149.377779,179.931334 L151.76034,184.643566 C151.031736,186.263673 149.564796,187.641759 147.893069,188.487142 Z M131.018397,191.649927 C129.966534,191.965147 128.833432,191.415521 128.485631,190.25534 C128.143331,189.112929 128.787312,188.030178 129.839176,187.714958 C130.89104,187.399737 132.042336,187.944286 132.384636,189.086696 C132.732436,190.247301 132.070261,191.335129 131.018397,191.649927 Z M120.260276,197.416138 L117.826942,197.781286 L117.138111,193.194296 L110.709725,185.449177 L113.311882,185.058642 L118.10916,190.866318 L121.025691,183.899307 L123.422214,183.539659 L119.566368,192.791068 L120.260276,197.416138 Z M109.541928,198.688444 L99.6063419,198.602975 L99.7197367,185.355245 L109.390876,185.438176 L109.373105,187.501284 L102.162379,187.43951 L102.133185,190.883666 L108.529837,190.93867 L108.512489,192.963699 L102.115414,192.908271 L102.08368,196.561445 L109.559699,196.625336 L109.541928,198.688444 Z M96.6301512,198.539508 L93.7918959,198.073658 L90.0756771,191.84456 L87.6533439,193.63349 L87.1049869,196.976944 L84.6775763,196.578793 L86.8214999,183.504964 L89.2497567,183.903115 L88.1496578,190.608641 L95.7119917,184.963018 L98.4385446,185.410673 L91.9885799,190.355618 L96.6301512,198.539508 Z M77.1888644,192.392917 C78.5000977,192.828725 79.7935602,192.719561 81.0434418,192.018037 L82.0749961,193.95675 C80.4536195,194.933722 78.4484777,195.08562 76.3828304,194.398905 C72.5388309,193.121098 70.5662689,189.45396 71.8136118,185.699661 C73.0613779,181.945362 76.8368328,180.188588 80.6990262,181.471896 C82.7464796,182.152265 84.2620774,183.473653 84.9762955,185.226618 L82.9961174,186.144778 C82.4079876,184.851738 81.4373619,183.9907 80.1261286,183.554891 C77.5214328,182.689621 75.0267469,183.895076 74.1674004,186.481577 C73.3076308,189.068502 74.5845918,191.527647 77.1888644,192.392917 Z M69.944713,184.993482 C68.0724292,188.457524 64.0392973,189.547045 60.4267417,187.593524 C56.8137629,185.639579 55.5270703,181.651297 57.3908917,178.204602 C59.2555594,174.758754 63.2963074,173.651885 66.9097093,175.604984 C70.522688,177.559352 71.817843,181.531132 69.944713,184.993482 Z M49.2708923,180.342602 L52.8144802,175.905396 L47.4599602,171.628972 L43.9167954,176.067025 L41.9933148,174.531541 L50.2618276,164.177072 L52.1848851,165.712556 L48.7711935,169.987286 L54.1257135,174.263286 L57.5394051,169.988133 L59.4624627,171.523617 L51.194373,181.87851 L49.2708923,180.342602 Z M40.0114443,164.941217 C39.1030164,165.742597 37.8374795,165.596199 37.1118373,164.772394 C36.3861952,163.94859 36.4115821,162.689399 37.320433,161.888866 C38.214475,161.10018 39.4668953,161.232615 40.1925375,162.055996 C40.9190259,162.879801 40.9059093,164.152531 40.0114443,164.941217 Z M32.8777258,148.268795 C30.5057433,149.79624 36.3028415,155.407591 32.212166,158.041481 C30.4291595,159.188969 27.9683228,158.724812 26.0012613,155.668653 C24.8838146,153.933458 24.3079552,151.849617 24.5089348,150.414834 L26.5783901,150.095805 C26.4358004,151.448081 26.8386058,153.192584 27.7195312,154.561784 C28.8369778,156.296978 29.9290376,156.629547 30.7566505,156.096422 C33.1607897,154.548667 27.3218031,148.941971 31.4598675,146.277193 C33.2585293,145.118704 35.7087881,145.568052 37.6771189,148.624211 C38.5377348,149.961255 39.0890536,151.587286 39.0776295,152.968333 L37.0496394,153.350406 C36.992942,151.968935 36.5723658,150.685628 35.9474249,149.714579 C34.8405562,147.995886 33.720994,147.725938 32.8777258,148.268795 Z M20.7419422,145.948432 L32.5747755,139.988435 L33.6812212,142.185671 L21.8492341,148.145668 L20.7419422,145.948432 Z M17.9773089,139.892388 L23.9965425,130.011384 L15.5393205,133.004922 L14.724401,130.7036 L27.2134857,126.282048 L27.8892003,128.19072 L21.8703898,138.071724 L30.3271888,135.078186 L31.1421082,137.379508 L18.6534467,141.801059 L17.9773089,139.892388 Z M13.1499902,123.791171 L20.8477209,115.152855 L11.9902321,116.577483 L11.6022357,114.166574 L24.6841044,112.062424 L25.0052486,114.062488 L17.3075179,122.70038 L26.1654299,121.275752 L26.5538494,123.686661 L13.4719807,125.790812 L13.1499902,123.791171 Z M11.371638,100.144967 L24.6193678,100.231283 L24.5567468,109.901999 L22.4936382,109.888036 L22.5406039,102.677733 L19.0960249,102.655308 L19.0541366,109.052807 L17.0295314,109.039267 L17.0714198,102.642192 L13.4186682,102.618497 L13.37001,110.09367 L11.3069014,110.080553 L11.371638,100.144967 Z M12.6701778,89.1304383 L23.7041701,90.8622479 L24.384539,86.5232038 L26.441724,86.8460406 L24.6989134,97.954501 L22.6417284,97.6320874 L23.3220973,93.2926203 L12.2889513,91.56208 L12.6701778,89.1304383 Z M19.3338156,75.6351862 C19.6807698,74.6197103 20.7630979,74.0311574 21.8835064,74.4149227 C22.9869902,74.7923412 23.4811885,75.9203657 23.133388,76.9358417 C22.7860106,77.9517407 21.698182,78.5576414 20.5946982,78.1797997 C19.4742897,77.7960344 18.986015,76.6510853 19.3338156,75.6351862 Z M22.6294581,58.8163661 C23.6825912,56.8856925 25.2129981,55.621848 27.0531251,55.2126959 L27.6442167,57.2914597 C26.2352439,57.7001888 25.2523478,58.5134158 24.5774794,59.7510271 C23.2362049,62.2105944 23.968617,64.8592941 26.3774105,66.1739123 C28.7371227,67.4614512 31.40994,66.6719187 32.742329,64.2288528 C33.1925234,63.4037786 33.4675481,62.5042362 33.4408918,61.5259944 L29.8186046,59.5492012 L30.9263196,57.5190956 L35.5615441,60.0489 C35.8843808,61.7887488 35.4646508,63.7443862 34.5735706,65.3780331 C32.6196257,68.9597013 28.6706936,70.2311618 25.1981891,68.3360299 C21.7261076,66.4408979 20.6577423,62.4310373 22.6294581,58.8163661 Z M30.8581981,46.7131623 C32.9733498,43.9764547 35.6914404,43.3688616 38.0134954,45.1624459 C39.6005996,46.3890562 40.1481104,48.0946327 39.6103313,49.936029 L44.905192,50.2030146 L43.2960858,52.2851634 L38.5821619,52.0397567 C38.4937308,52.1853082 38.3900677,52.3194357 38.2868276,52.45314 L36.4708182,54.8031206 L39.5261314,57.163679 L38.0316893,59.0973144 L27.5481696,50.9967783 L30.8581981,46.7131623 Z M41.471614,34.9179862 C44.4774228,32.1601228 48.6383354,32.2468614 51.3001517,35.1477376 C53.961968,38.0481908 53.6911744,42.2014873 50.686635,44.9589276 C47.6812494,47.716791 43.5076433,47.6165128 40.8580973,44.7291762 C38.2089745,41.8422627 38.4670746,37.6758496 41.471614,34.9179862 Z M53.6683262,25.4317485 C54.9867525,24.5626704 56.5971281,24.0003506 57.9709824,24.0016178 L58.3797114,26.0228401 C57.005434,26.0892692 55.7348197,26.5183078 54.7768874,27.1495953 C53.0814658,28.2661957 52.8280199,29.385758 53.3801849,30.2231025 C54.9321706,32.5790066 60.4368964,26.7527135 63.1135217,30.8154634 C64.2796266,32.5857765 63.8510111,35.0449207 60.8371632,37.0310224 C59.1256631,38.1582007 57.0600158,38.7488692 55.629041,38.5576212 L55.2837792,36.4953588 C56.6309773,36.6277938 58.3615175,36.2131411 59.7121005,35.3237535 C61.4231774,34.1961521 61.7392443,33.1036692 61.197234,32.2815568 C59.6253619,29.8947653 54.1257135,35.7629468 51.4173546,31.6523849 C50.2406718,29.8659934 50.6540552,27.4178502 53.6683262,25.4317485 Z M65.3044111,18.9462422 C66.7328472,18.2722201 68.4066901,17.9434598 69.7665816,18.1389389 L69.8859,20.1969701 C68.5154306,20.0687663 67.1974275,20.3137498 66.1603727,20.803717 C64.3244768,21.6694102 63.9157477,22.7420067 64.3439401,23.6491652 C65.5477022,26.2001253 71.8186892,21.2107536 73.8949144,25.6115724 C74.7995342,27.5291295 74.0286187,29.9023813 70.7647098,31.4425198 C68.9114662,32.3166754 66.7840441,32.6090478 65.3936883,32.2180896 L65.3429145,30.1279016 C66.658379,30.4486228 68.4299614,30.2831848 69.8918236,29.5935074 C71.7450672,28.7193519 72.2121861,27.6822971 71.7920329,26.7920632 C70.5721925,24.2068307 64.299513,29.2380908 62.1995934,24.7864982 C61.2865113,22.8515934 62.0409253,20.4863807 65.3044111,18.9462422 Z M82.7202465,12.8559253 L83.3240315,14.8284873 L76.4754926,16.9262914 L77.6559833,20.781715 L83.7314912,18.9208553 L84.3420461,20.9116113 L78.2652689,22.772894 L79.7512487,27.6239072 L77.4148078,28.3389715 L73.5339973,15.6692168 L82.7202465,12.8559253 Z M88.4970352,11.7871369 L90.2880809,22.8105513 L97.0794993,21.7062212 L97.4129139,23.7612906 L88.2097401,25.2582714 L86.0848567,12.1793645 L88.4970352,11.7871369 Z M104.676105,10.1585674 C108.755357,10.1077936 111.797554,12.946895 111.846635,16.8831336 C111.89487,20.8197953 108.92291,23.733365 104.844082,23.7841388 C100.765677,23.8349126 97.7230571,20.976771 97.6743989,17.0595726 C97.6265869,13.141951 100.598123,10.2093412 104.676105,10.1585674 Z M114.250351,10.6333024 L125.280112,12.3849984 L124.953467,14.440914 L120.646157,13.7567371 L118.894884,24.785652 L116.481013,24.4018867 L118.231863,13.373818 L113.924129,12.6896411 L114.250351,10.6333024 Z M127.449,12.8859665 L138.112343,16.196418 L137.495441,18.1854815 L133.330298,16.892019 L130.018577,27.5595937 L127.684675,26.8347978 L130.996395,16.1680693 L126.832098,14.8746069 L127.449,12.8859665 Z M146.119371,19.8385917 C148.967358,21.2027144 149.912173,23.1456583 149.004592,25.0399441 C148.415616,26.2690931 147.371791,26.8817635 146.219226,26.9384609 C147.294361,27.9568987 147.676434,29.3777188 146.932175,30.9309738 C145.950971,32.9796965 143.784622,33.4108507 140.733117,31.9494116 L134.833202,29.1238498 L140.558371,17.175083 L146.119371,19.8385917 Z M162.628048,29.9950435 L161.449249,31.6887727 L155.569644,27.5989434 L153.601736,30.4278901 L158.817897,34.056101 L157.660678,35.7189429 L152.44494,32.0903089 L150.357713,35.090194 L156.453531,39.3306523 L155.274733,41.0248046 L147.17335,35.3884901 L154.742031,24.5093579 L162.628048,29.9950435 Z M167.671155,34.346781 L162.990657,39.274378 L172.386771,38.8271454 L174.376681,40.7176231 L166.287992,41.2063209 L165.494229,50.5580081 L163.423081,48.5896772 L163.877083,41.3704895 L160.878044,41.4978472 L158.544142,43.9540296 L156.772136,42.2708782 L165.899996,32.6636296 L167.671155,34.346781 Z M176.960644,43.845289 L182.782706,51.4863223 L181.141443,52.7374733 L176.800707,47.0398071 L174.060191,49.1287257 L177.91096,54.1832571 L176.300162,55.4111368 L172.448969,50.3566053 L169.543016,52.5716122 L174.043267,58.4787203 L172.402004,59.7294482 L166.42085,51.8785499 L176.960644,43.845289 Z M181.352578,105.000212 C181.352578,147.100998 147.100998,181.352578 105.000212,181.352578 C62.8990025,181.352578 28.6474223,147.100998 28.6474223,105.000212 C28.6474223,62.8990025 62.8990025,28.6474223 105.000212,28.6474223 C147.100998,28.6474223 181.352578,62.8990025 181.352578,105.000212 Z M187.869818,60.1394466 C189.513196,63.1824895 188.966108,65.9136966 186.384684,67.3082836 C184.619448,68.2619847 182.837288,68.0703136 181.372464,66.8322792 L178.980595,71.563974 L177.729444,69.249112 L179.866175,65.0395411 C179.769281,64.89949 179.68889,64.7509767 179.608498,64.6020402 L178.197409,61.988459 L174.799796,63.8239318 L173.638345,61.6740846 L185.296855,55.3760182 L187.869818,60.1394466 Z M190.696649,75.7033078 C191.043603,76.7192068 190.548558,77.8472313 189.427727,78.2297273 C188.324243,78.6067227 187.242761,78.0173235 186.895807,77.0014245 C186.54843,75.9855254 187.037974,74.8405763 188.141034,74.464004 C189.261866,74.0810849 190.349694,74.6878318 190.696649,75.7033078 Z M193.355926,86.3146081 C195.606052,86.004888 197.160999,87.5864918 197.626003,90.962103 L198.523429,97.486959 L185.398403,99.2928137 L184.552173,93.1424145 C184.11848,89.9931697 185.217733,88.1221553 187.299459,87.8352834 C188.649195,87.649959 189.735755,88.1877381 190.419085,89.125784 C190.67507,87.6575751 191.65035,86.5490138 193.355926,86.3146081 Z M193.707112,104.558056 L186.329256,104.317727 L186.407955,101.896663 L193.880166,102.139108 C197.739397,102.264773 199.768657,104.508552 199.651454,108.121108 C199.533828,111.75355 197.363248,113.860662 193.504017,113.73542 L186.031806,113.492552 L186.110929,111.033408 L193.489208,111.272891 C196.213222,111.361322 197.426292,110.16983 197.495683,108.032253 C197.565074,105.8951 196.431549,104.646487 193.707112,104.558056 Z M174.547196,35.4528035 C155.970334,16.8759407 131.271843,6.64544376 105.000212,6.64544376 C78.7285798,6.64544376 54.0296664,16.8759407 35.4528035,35.4528035 C16.8759407,54.0296664 6.64544376,78.7285798 6.64544376,105.000212 C6.64544376,131.271843 16.8759407,155.970757 35.4528035,174.547196 C54.0296664,193.123636 78.7285798,203.354556 105.000212,203.354556 C131.271843,203.354556 155.970757,193.123636 174.547196,174.547196 C193.123636,155.970757 203.354556,131.271843 203.354556,105.000212 C203.354556,78.7285798 193.123636,54.0296664 174.547196,35.4528035 L174.547196,35.4528035 Z" id="Fill-13" fill="#243E85"></path>
        </g>
    </g>
</svg>