<?xml version="1.0" encoding="utf-8"?>
<svg width="210px" height="210px" viewBox="0 0 210 210" version="1.1" xmlns="http://www.w3.org/2000/svg" xmlns:xlink="http://www.w3.org/1999/xlink">
    <g id="Hamburg" stroke="none" stroke-width="1" fill="none" fill-rule="evenodd">
        <g id="278-Polo">
            <path d="M104.998067,210 C47.1022257,210 0,162.897774 0,105.001933 C0,47.1022257 47.1022257,0 104.998067,0 C162.897774,0 210,47.1022257 210,105.001933 C210,162.897774 162.897774,210 104.998067,210 L104.998067,210 Z" id="Path" fill="#BA0C2F" fill-rule="nonzero"></path>
            <path d="M104.5,196 C54.0474165,196 13,154.952583 13,104.5 C13.003872,54.0435445 54.0474165,13 104.5,13 C154.952583,13 196,54.0474165 196,104.5 C196.003872,154.952583 154.956456,196 104.5,196 L104.5,196 Z" id="Path" fill="#FFFFFF" fill-rule="nonzero"></path>
            <path d="M105,183 C61.9896025,183 27,148.010397 27,105 C27,61.9896025 61.9896025,27 105,27 C148.010397,27 183,61.9896025 183,105 C183.00388,148.010397 148.014278,183 105,183 L105,183 Z" id="Path" fill="#215732" fill-rule="nonzero"></path>
            <circle id="Oval" fill="#FFC72C" cx="105.5" cy="105.5" r="50.5"></circle>
            <g id="Group" transform="translate(37.000000, 32.000000)" fill="#FFC72C" fill-rule="nonzero">
                <g>
                    <path d="M17.7585019,39.738359 C19.5645167,40.6668254 20.658954,41.1001097 21.5368242,41.1194527 L19.8661638,44.3729535 C19.4175605,43.7114212 18.6093012,43.1698159 16.9618443,42.3225903 L13.2879382,40.4347088 L9.61016488,47.6032426 L13.284071,49.4911241 C14.9315278,50.3344811 15.8442034,50.6787873 16.6408609,50.6555757 L14.9702005,53.9090764 C14.533199,53.2282011 13.7210724,52.6827272 12.0774829,51.8393702 L3.78992418,47.5838996 C1.98390929,46.6554332 0.889472001,46.2221489 0,46.2221489 L1.67066045,42.9686482 C2.11926372,43.6301804 2.92752306,44.1717858 4.5749799,45.0190113 L7.52570658,46.5355063 L11.2034799,39.3669725 L8.25275326,37.8504775 C6.60529642,37.0071206 5.6926208,36.6628143 4.89596327,36.686026 L6.56662373,33.4325252 C7.09257239,34.1327436 8.08646067,34.7710642 9.89247555,35.6995305 L17.7585019,39.738359 Z" id="Path"></path>
                    <path d="M29.6232849,32.2023073 C29.553674,31.6142786 29.1437435,31.293184 27.7785973,30.639389 L26.4482566,29.9855939 L22.2019946,34.5428162 L23.0179885,35.9509901 C23.714097,37.1541277 24.0621513,37.5100398 24.6383744,37.5525945 L22.0395693,40.3418622 C22.1207819,39.8931034 21.9428875,39.421133 21.5368242,38.7325205 L13.7094706,24.592752 L15.9254161,22.213557 L30.6094386,29.0223101 C31.3403526,29.3627478 31.7928231,29.5407038 32.2182228,29.4130397 L29.6232849,32.2023073 Z M24.3715328,28.9681496 L17.000517,25.3974228 L16.9695789,25.4283717 L21.0495483,32.5350077 L24.3715328,28.9681496 Z" id="Shape"></path>
                    <path d="M44.5702818,17.3004227 C45.5951082,19.0529029 46.2641458,20.0200553 47.0143961,20.4997629 L43.8587042,22.3450897 C43.8355005,21.5481561 43.4449063,20.6545073 42.5128944,19.0567715 L38.289836,11.8302085 L38.2511633,11.8534202 L37.8412327,20.9020983 L37.6091965,21.0374997 L29.5459395,16.9445106 L29.4879305,16.9793281 L33.7303252,24.1942852 C34.6623371,25.792021 35.2501621,26.5734802 35.9346688,26.9835528 L32.7789769,28.8288796 C32.7248351,28.0242088 32.3187718,27.0570564 31.3983616,25.4825322 L26.7305673,17.4938532 C25.7057408,15.7413729 25.0173668,14.7858263 24.2671165,14.3061187 L26.8388508,12.8012296 L35.6832963,17.5634881 L35.779978,17.505459 L35.9733415,7.46254815 L38.5257394,5.9692648 C38.5721467,6.85517642 39.0864935,7.91517549 40.11132,9.66765569 L44.5702818,17.3004227 Z" id="Path"></path>
                    <path d="M48.8706855,15.8999859 L46.8867762,7.28072349 C46.4304384,5.29999532 46.0591806,4.18196711 45.4868247,3.50496041 L52.4324408,1.90335598 C55.7737617,1.13350265 58.1946725,2.19737032 58.8405065,5.00984959 C59.1846935,6.50700155 58.9255864,8.0002849 57.8736891,9.05254674 C59.4902078,9.2343714 60.7896103,10.4645893 61.1879391,12.1783834 C61.8917822,15.2345851 60.0354928,17.4242182 56.3654539,18.2675751 L49.265147,19.903997 C49.4817141,19.0490343 49.3270233,17.8768455 48.8706855,15.8999859 Z M53.9174723,9.06415257 C55.9825943,8.58831358 56.6748355,7.36583291 56.3113122,5.77970292 C55.9477888,4.19744155 54.4743591,3.84152945 52.8036987,4.22452181 L49.0872526,5.07948456 L50.2010263,9.91524671 L53.9174723,9.06415257 Z M55.5107874,16.0818106 C57.7306001,15.5711541 59.0184009,14.5343667 58.604603,12.727726 C58.2256106,11.0796982 56.8759335,10.5535673 54.8572188,11.0216691 L50.6805677,11.9849529 L51.8214122,16.9329047 L55.5107874,16.0818106 Z" id="Shape"></path>
                    <path d="M77.2448423,4.51079893 L76.9586644,11.8611574 C76.8310445,15.106921 74.4333374,17.5905684 70.2876244,17.4280868 C66.1380441,17.2656052 63.941435,14.6078703 64.0651877,11.3621067 L64.3513656,4.01174828 C64.428711,1.98072818 64.386171,0.804670822 64.0110459,0 L67.6617484,0.14313856 C67.2518178,0.82788248 67.1009943,1.7911663 67.0313834,3.64036175 L66.7490727,10.9249538 C66.6562583,13.3389663 67.7468283,14.8709358 70.3843061,14.9715196 C73.021784,15.0721035 74.2283721,13.629112 74.3211866,11.2150996 L74.6034972,3.93050748 C74.6769754,2.08131203 74.59963,1.10642238 74.2438412,0.394598191 L77.8945436,0.537736751 C77.4575422,1.3153273 77.3221877,2.48364744 77.2448423,4.51079893 Z" id="Path"></path>
                    <path d="M80.1143564,13.9656811 L82.7131615,5.50890024 C83.308721,3.56685816 83.5446245,2.41401247 83.3899337,1.53970667 L90.180859,3.62875592 C93.5647199,4.66941193 95.3630003,7.11050466 94.3768465,10.3253193 C93.6884725,12.569113 91.9984757,13.8418856 89.9178847,14.0082358 L90.6217278,19.0877204 C90.8305603,20.7086678 91.0239238,21.3121709 91.4222526,21.6255283 L87.7792846,20.5036315 C88.1621443,20.1747997 88.2046843,19.7376468 87.9881172,18.2056773 L87.3693541,13.7645134 L83.3164556,12.5188211 L82.4965944,15.1920304 C81.9513094,16.959985 81.7540787,17.9155316 81.9358403,18.704728 L78.4436959,17.6292545 C79.0663263,16.9948025 79.5187969,15.9077232 80.1143564,13.9656811 Z M87.3422832,11.3272893 C89.5427596,12.004296 91.2018182,11.5207197 91.7973777,9.58254628 C92.3658664,7.72948222 91.2791636,6.42576074 89.0593509,5.74101682 L85.71803,4.71196664 L84.0009623,10.2982391 L87.3422832,11.3272893 Z" id="Shape"></path>
                    <path d="M109.702836,22.7551624 C109.246498,23.1304175 108.809497,23.6836287 108.283548,24.4999054 L106.044399,27.9700483 C103.812984,28.6780039 101.341799,28.2679312 99.1258536,26.8365456 C95.2972567,24.364504 93.3752237,19.4745813 96.4806412,14.6581622 C99.2921461,10.2943705 104.277057,9.35042969 108.886842,12.321522 C110.650317,13.4588932 111.841436,14.898016 112.533677,16.3680877 L110.700591,18.3797648 L110.569104,18.2946554 C110.213315,16.8052406 109.269702,15.4396214 107.599041,14.3641479 C104.431747,12.321522 100.90093,12.8902076 98.7855338,16.1707886 C96.449703,19.7918073 97.9153982,23.1845781 100.436858,24.8093941 C101.763331,25.6643569 103.120743,25.9777143 104.3428,25.7455977 L105.970921,23.2232641 C106.547144,22.3334839 106.902933,21.64874 107.049889,21.0491055 L109.702836,22.7551624 Z" id="Path"></path>
                    <path d="M123.69075,30.2602652 C123.508988,29.4826747 122.9405,28.6857411 121.702973,27.3123846 L118.937876,24.2445771 L115.368386,27.4632604 L118.299776,30.7128926 C118.949477,31.432454 119.467691,31.908293 119.962702,32.2216504 L118.001996,33.989605 C117.758358,33.4479996 117.325224,32.8986571 116.675523,32.1790956 L113.744133,28.9294635 L109.958076,32.3454459 L112.723173,35.4132534 C113.9607,36.7866098 114.695481,37.4326676 115.449598,37.6957331 L113.3226,39.6145635 L106.086939,31.5871984 C106.945473,31.3589504 107.892954,30.658732 109.401189,29.2969814 L115.963945,23.3741399 C117.47218,22.0123893 118.268838,21.1458207 118.582087,20.3140696 L125.817748,28.3414348 L123.69075,30.2602652 Z" id="Path"></path>
                    <path d="M118.64783,40.2528841 L126.498388,36.1792381 C128.300535,35.2430345 129.290556,34.6047139 129.804903,33.8774153 L133.076613,40.1871178 C134.708601,43.3322975 134.225192,46.3266014 131.243527,47.8740453 C129.159069,48.9533874 127.066876,48.6438986 125.492897,47.2744108 L122.364276,51.336451 C121.354919,52.624698 121.061007,53.1817778 121.119016,53.6846971 L119.363275,50.2996636 C119.869888,50.3422183 120.20634,50.0636784 121.146086,48.8411977 L123.880246,45.289814 L121.927275,41.5217881 L119.444488,42.8100352 C117.800898,43.6611293 116.981037,44.1872602 116.547903,44.8720041 L114.865641,41.6262406 C115.751245,41.6262406 116.845683,41.1852191 118.64783,40.2528841 Z M125.601181,43.5605454 C126.660813,45.6031714 128.165181,46.4503969 129.967328,45.5141934 C131.688263,44.6205445 131.858423,42.9338307 130.78719,40.8679931 L129.178405,37.7614995 L123.992397,40.4540518 L125.601181,43.5605454 Z" id="Shape"></path>
                </g>
                <g transform="translate(38.353689, 124.743946)">
                    <path d="M0.639989599,6.13112044 C2.50014626,1.21411749 7.28782599,-0.662158225 12.036833,1.13287669 C13.5334663,1.70156231 14.6781781,2.37470041 15.69527,3.31477257 L14.7555235,6.04601103 L14.6279036,5.99958771 C14.0130078,4.94732587 12.9069687,4.0459398 11.2633791,3.42309364 C7.91045639,2.15032104 4.60007364,3.50433444 3.22332567,7.13309036 C1.85044497,10.7618463 3.47469819,13.9843982 6.78894821,15.2416963 C8.45574139,15.8722797 9.85956025,15.9225716 11.0390775,15.5473165 L11.1666974,15.5937398 L10.0374546,18.2553433 C8.65297214,18.2862922 7.33810049,18.0541756 5.84146717,17.48549 C1.13886737,15.7097981 -1.2279016,11.0713351 0.639989599,6.13112044 Z" id="Path"></path>
                    <path d="M25.4987984,18.1895769 L25.1082042,21.1413262 L15.6488628,19.884028 C16.1554751,19.1528608 16.4223167,18.0077523 16.6891583,15.9922066 L17.8532064,7.22206838 C18.120048,5.20652272 18.162588,4.03046537 17.8648083,3.19484567 L21.5116435,3.67842188 C21.0050311,4.40958912 20.7381895,5.5585662 20.4713479,7.57024326 L19.1100691,17.8375335 L21.9486449,18.2127886 C23.7778634,18.4642482 24.7562826,18.4797227 25.4987984,18.1895769 Z" id="Path"></path>
                    <path d="M40.8982658,7.5857177 L41.4706217,14.9206017 C41.7219942,18.1586281 39.6298014,20.905341 35.4918229,21.2264356 C31.3538445,21.5513988 28.8594556,19.1644666 28.6080831,15.9264403 L28.0357272,8.59155622 C27.8771692,6.56827334 27.6954075,5.40382182 27.2313351,4.64944292 L30.8743031,4.3631658 C30.5455852,5.09046443 30.5107797,6.06535408 30.6538687,7.91068091 L31.2223573,15.17593 C31.4118535,17.5822052 32.6725834,18.9787733 35.306194,18.773737 C37.9359373,18.5687007 38.9684983,16.9941765 38.7790021,14.5879013 L38.2105134,7.32265224 C38.0674245,5.4773254 37.8779283,4.51791019 37.4409268,3.85250932 L41.0838947,3.5662322 C40.7397077,4.38250885 40.7397077,5.5585662 40.8982658,7.5857177 Z" id="Path"></path>
                    <path d="M48.1300599,14.8857842 L45.0594479,6.591485 C44.3556048,4.68812902 43.8412579,3.62426134 43.1876894,3.02462684 L49.8741985,0.548716617 C53.0878995,-0.642815176 55.6248283,0.1038265 56.6303184,2.8118533 C57.1640016,4.25097612 57.098258,5.76747113 56.1894497,6.94739709 C57.8175702,6.92418544 59.263929,7.97644728 59.8749576,9.62447502 C60.9616603,12.5646184 59.3992834,14.9747623 55.8684663,16.2823523 L49.035001,18.8124231 C49.1394172,17.9303801 48.8377702,16.7930088 48.1300599,14.8857842 Z M52.2641711,7.46192219 C54.2519476,6.72688634 54.7817635,5.42316486 54.2171422,3.89893263 C53.6525208,2.37470041 52.148153,2.20835019 50.5432361,2.80411608 L46.969879,4.12718061 L48.690814,8.78498671 L52.2641711,7.46192219 Z M54.7392236,14.2203834 C56.8739564,13.431187 58.0225354,12.2357866 57.3805687,10.4987808 C56.7927437,8.91265083 55.3889249,8.56447596 53.4436883,9.28403736 L49.4255952,10.7734521 L51.1890701,15.5357107 L54.7392236,14.2203834 Z" id="Shape"></path>
                </g>
            </g>
            <g id="Group" transform="translate(66.000000, 177.000000)" fill="#215732" fill-rule="nonzero">
                <path d="M6.8922541,5.3606387 C6.70704365,5.55442455 6.54112595,5.82420486 6.35205695,6.21937602 L5.54176122,7.89125401 C4.5732649,8.33582156 3.43113379,8.29402461 2.34688094,7.78106205 C0.471625116,6.89952638 -0.682081654,4.83247724 0.444615259,2.51084668 C1.46327274,0.405800308 3.66264685,-0.297148389 5.91989923,0.759174518 C6.78421467,1.16574485 7.40544139,1.73950297 7.80287215,2.35125833 L7.0890402,3.35058539 L7.02344484,3.32018761 C6.77649757,2.67803448 6.26716883,2.12327496 5.45301455,1.73950297 C3.90187702,1.00995622 2.33916383,1.46592294 1.57131217,3.04660758 C0.726289487,4.79448001 1.58674638,6.21937602 2.82148272,6.79693387 C3.4697193,7.10091169 4.10252167,7.16170725 4.64271882,6.99071973 L5.23307714,5.77480847 C5.4414389,5.3454398 5.56491253,5.02246338 5.59578094,4.74508362 L6.8922541,5.3606387 Z" id="Path"></path>
                <path d="M15.7090433,6.04458878 C15.4659546,5.77860819 15.0608067,5.59242178 14.2620866,5.32264147 L12.479436,4.72228528 L11.7694627,6.76273637 L13.6562941,7.40108978 C14.0730176,7.54167952 14.3855603,7.61387425 14.6518003,7.62907314 L14.2620866,8.74999133 C14.0460078,8.59040298 13.7488994,8.46881186 13.3321758,8.32822212 L11.4453444,7.6898687 L10.6929269,9.85571064 L12.4755775,10.4560668 C13.2742976,10.7258471 13.7103138,10.8170405 14.0653005,10.7562449 L13.6408599,11.9721562 L8.97973023,10.399071 C9.27298011,10.1216912 9.49291752,9.63912644 9.7938845,8.77658939 L11.1019333,5.01866365 C11.4029003,4.1561266 11.5263739,3.64316404 11.4684957,3.24799288 L16.1296254,4.82107807 L15.7090433,6.04458878 Z" id="Path"></path>
                <path d="M25.3284111,10.7296469 C25.1933618,10.9614299 25.0930395,11.261608 25.0004343,11.687177 L24.599145,13.4996447 C23.7618394,14.1493973 22.639001,14.3621817 21.4621429,14.1114 C19.4325451,13.6744319 17.8312464,11.9189601 18.3907363,9.40734336 C18.8962065,7.13130947 20.8756432,5.94959571 23.318106,6.47395744 C24.2518754,6.67534275 24.9927172,7.09331224 25.5213387,7.60247508 L25.0583125,8.73859217 L24.9888586,8.72339328 C24.599145,8.15343487 23.9779182,7.72786593 23.09431,7.5378798 C21.4158403,7.17690614 19.9958935,7.97104818 19.6177555,9.68092339 C19.1971735,11.5731853 20.3663144,12.7662982 21.7013731,13.0550771 C22.4036294,13.207066 23.0325732,13.1234721 23.5187507,12.8346932 L23.8120005,11.5199892 C23.9161814,11.056423 23.9586255,10.7106482 23.9277571,10.4332685 L25.3284111,10.7296469 Z" id="Path"></path>
                <path d="M28.9554491,13.4236502 L29.3374457,9.46813892 C29.4261924,8.5600052 29.4223338,8.03184375 29.2718503,7.65947092 L32.497599,7.95964901 C34.1066148,8.1078382 35.1329894,9.01977165 34.990223,10.5244618 C34.8899007,11.5731853 34.2532397,12.2875332 33.3387631,12.549714 L34.122049,14.7193557 C34.3651377,15.4147049 34.5079041,15.6616869 34.7162659,15.7604797 L32.9837764,15.6008913 C33.1265428,15.4223044 33.1033915,15.2247188 32.8641614,14.5711665 L32.1773393,12.6751049 L30.2519223,12.4965179 L30.1323072,13.7466267 C30.0512776,14.5749662 30.0512776,15.0119343 30.2056197,15.3425102 L28.5464427,15.1867216 C28.7663801,14.852346 28.870561,14.331784 28.9554491,13.4236502 Z M31.9419677,11.6035831 C32.987635,11.7023759 33.6821742,11.3376025 33.7709209,10.4294688 C33.855809,9.56313199 33.2500165,9.08816665 32.1927735,8.98937386 L30.6030504,8.84118468 L30.3522446,11.4553939 L31.9419677,11.6035831 Z" id="Shape"></path>
                <path d="M38.3394453,15.3007133 C38.3471624,14.9245407 38.6712807,14.605364 39.0609944,14.6129634 C39.4815764,14.6205629 39.7555336,14.947339 39.7478165,15.3235116 C39.7400994,15.6996841 39.4391324,16.0074617 39.0262674,15.9998622 C38.6481294,15.9922628 38.3317282,15.6768858 38.3394453,15.3007133 Z" id="Path"></path>
                <path d="M53.6308832,13.6060369 L53.7929424,14.810549 L49.5060921,15.3653085 L49.344033,14.1607964 C49.6835855,14.289987 50.1196017,14.2861873 50.933756,14.1797951 L50.2276412,8.88298163 L48.7652503,9.6657245 L48.6263425,8.63979938 L50.5440424,7.6062748 L51.2578743,7.51508146 L52.1260483,14.0278061 C52.9286269,13.9214139 53.349209,13.8188214 53.6308832,13.6060369 Z" id="Path"></path>
                <path d="M57.1537404,12.2001395 C56.9608128,11.4021978 57.2116186,10.6346538 57.9022993,10.0684951 C57.1575989,9.8671098 56.6598458,9.33894835 56.4900696,8.63599965 C56.2045368,7.44288673 57.0341253,6.36376549 58.4656477,6.02938989 C59.9087458,5.69501429 61.1396236,6.29157075 61.4251564,7.48468368 C61.5910741,8.17623321 61.3788538,8.87158246 60.8116468,9.37694558 C61.6836793,9.57833088 62.2701791,10.1634882 62.4592481,10.9614299 C62.7563565,12.2039393 61.8611727,13.3096586 60.2984595,13.6706322 C58.755039,14.0354056 57.4508488,13.4350494 57.1537404,12.2001395 Z M60.3061766,7.80386038 C60.1556931,7.17310642 59.468871,6.82353193 58.6971608,7.0021189 C57.9370262,7.18070586 57.4701415,7.79626094 57.620625,8.42701491 C57.7865427,9.11856444 58.4733648,9.46813892 59.245075,9.28955196 C60.0167852,9.10716527 60.4720943,8.49161019 60.3061766,7.80386038 Z M61.2785314,11.1476164 C61.093321,10.3800724 60.337045,10.0038998 59.4650124,10.2052851 C58.6122727,10.4028707 58.0990854,11.0754216 58.2842958,11.8429656 C58.446355,12.5117168 59.2103481,12.8764902 60.0592293,12.6789046 C60.9196862,12.481319 61.4405906,11.8201673 61.2785314,11.1476164 Z" id="Shape"></path>
                <path d="M69.1075316,7.9406504 L69.0959559,7.94445012 C69.0226434,8.10023875 68.7564034,8.3092235 68.4207095,8.42701491 C66.9583186,8.93997747 65.6039672,8.24082849 65.1447996,6.96792139 C64.6509051,5.59242178 65.3068588,4.13712799 66.800118,3.61656598 C68.2239234,3.11880231 69.6940313,3.76855489 70.195643,5.16305312 C70.5236198,6.07118684 70.3808534,7.16170725 70.083745,8.37381879 C69.8869589,9.19455889 69.5821334,10.0760946 69.2387223,10.9386316 L67.9769761,11.3793994 C68.3705483,10.3838721 68.8644429,9.02737109 69.1075316,7.9406504 Z M69.1075316,5.52402677 C68.8181402,4.72228528 67.9422491,4.31951468 67.1280949,4.60449388 C66.3332334,4.88187364 65.9010756,5.74441069 66.1943255,6.55375162 C66.4914339,7.37449172 67.3403152,7.76586316 68.1737622,7.47328451 C69.0535119,7.16550697 69.3930644,6.31436909 69.1075316,5.52402677 Z" id="Shape"></path>
                <path d="M74.8876411,6.62594635 C74.5249373,5.88500043 74.6021083,5.08705866 75.1500225,4.38410996 C74.3783123,4.34611274 73.7763784,3.93574269 73.4561186,3.28599011 C72.9159215,2.1802708 73.486987,0.952960376 74.8143286,0.322206409 C76.1493873,-0.31234728 77.4844459,0.0106291485 78.0246431,1.11254873 C78.3371857,1.75090214 78.283166,2.47664917 77.8394326,3.09220425 C78.738475,3.10360342 79.4330142,3.54817097 79.795718,4.2891169 C80.3590665,5.44043287 79.7262641,6.70954025 78.2793075,7.39729006 C76.8555021,8.07744042 75.447131,7.76586316 74.8876411,6.62594635 Z M77.0021271,1.6597088 C76.7165943,1.0745515 75.9680354,0.880765644 75.2542034,1.21894096 C74.5480886,1.55331656 74.2316874,2.25626526 74.5172202,2.84142255 C74.8297628,3.47977596 75.5783217,3.67736154 76.2921537,3.3353865 C77.0059856,2.99721118 77.3146697,2.29806221 77.0021271,1.6597088 Z M78.6844553,4.71848556 C78.3371857,4.00793742 77.5153144,3.79895267 76.7088772,4.18272466 C75.9217328,4.55889721 75.5667461,5.32264147 75.9140157,6.03318961 C76.2188412,6.65254441 77.0445711,6.84633027 77.8317155,6.47015772 C78.6265771,6.0977849 78.9892809,5.34164008 78.6844553,4.71848556 Z" id="Shape"></path>
            </g>
            <path d="M120.686458,64.0072801 C118.401284,63.1606628 116.026876,62.5034714 113.582633,62.051169 C111.386694,61.6452566 109.547692,63.7212085 110.098616,65.9092695 C113.00455,77.4487786 114.680603,91.0023862 114.680603,105.503123 C114.680603,119.98453 113.00843,133.52654 110.106376,145.058318 C109.551571,147.269574 111.409972,149.360989 113.62531,148.947345 C121.27618,147.524719 128.236454,144.072531 133.943568,139.162924 C135.146291,138.126881 135.336399,136.337 134.440176,135.022617 C132.709807,132.4789 131.200584,129.625916 129.959064,126.537116 C129.23355,124.731772 126.925098,124.264006 125.567185,125.644108 L125.567185,125.644108 C124.977463,126.243312 124.690361,127.08993 124.798994,127.928815 C125.062817,129.954511 125.357679,131.933817 125.683578,133.859002 C125.854287,134.864118 125.415875,135.869235 124.55845,136.406585 L124.55845,136.406585 C123.068625,137.338251 121.11711,136.441378 120.837768,134.690156 C119.40226,125.702096 118.994886,115.844224 118.994886,105.510854 C118.994886,91.7175652 120.015261,78.7824907 122.595296,67.6179673 C122.952233,66.0909636 122.129725,64.5407649 120.686458,64.0072801 Z" id="Path" fill="#215732"></path>
            <path d="M135.970187,79.3363646 C137.203207,77.5545451 139.78907,77.5545451 141.02209,79.3363646 C146.043071,86.5995112 149.000004,95.4581431 149.000004,105 C149.000004,114.545739 146.043071,123.404371 141.025955,130.663635 C139.792935,132.445455 137.207072,132.445455 135.974052,130.663635 C130.953071,123.400489 128.000004,114.541857 128.000004,105 C127.996142,95.4581431 130.953071,86.5995112 135.970187,79.3363646 Z M141.884045,105.003882 C141.884045,99.5652565 140.712869,94.2314439 138.498071,89.3557025 C136.287139,94.2275619 135.112098,99.5652565 135.112098,105.003882 C135.112098,110.442507 136.283273,115.77632 138.498071,120.652061 C140.709004,115.77632 141.884045,110.438625 141.884045,105.003882 Z" id="Shape" fill="#215732"></path>
            <path d="M102.128505,64.5177153 C100.925234,62.4940949 98.0747664,62.4940949 96.8714953,64.5177153 C90.8161994,74.6822487 87,89.4937575 87,106 C87,122.506243 90.8161994,137.317751 96.8714953,147.482285 C98.0747664,149.505905 100.925234,149.505905 102.128505,147.482285 C108.183801,137.317751 112,122.506243 112,106 C112,89.4937575 108.183801,74.6822487 102.128505,64.5177153 Z M94.7920561,106 C94.7920561,95.5027107 96.4781931,85.4929476 99.5,77.2939959 C102.521807,85.4929476 104.207944,95.4988415 104.207944,106 C104.207944,116.501159 102.521807,126.507052 99.5,134.706004 C96.4820872,126.503183 94.7920561,116.497289 94.7920561,106 Z" id="Shape" fill="#215732"></path>
            <path d="M68.4365583,112.179334 C68.4802094,116.726672 70.5079993,126.956268 72.6945203,134.137689 C72.9008707,134.812505 72.0437227,135.299446 71.5556246,134.785666 C62.8333503,125.526118 60,114.690722 60,105.82993 C60,96.7582569 63.0714469,85.3707388 72.4167408,76 C79.9842464,76 84.1112551,77.4071445 84.881101,86.4903197 C85.7938049,97.2030219 81.5596526,112.179334 68.4365583,112.179334 Z M77.3770879,93.0812771 C77.9762979,89.2355934 77.4048659,85.3477337 74.2262755,85.3477337 C70.7341911,89.8145548 68.5278287,100.140005 68.5278287,104.192734 C73.5477,104.1889 76.6191469,97.9200138 77.3770879,93.0812771 Z" id="Shape" fill="#215732" fill-rule="nonzero"></path>
        </g>
    </g>
</svg>