<?xml version="1.0" encoding="UTF-8" standalone="no"?>
<!DOCTYPE svg PUBLIC "-//W3C//DTD SVG 1.1//EN" "http://www.w3.org/Graphics/SVG/1.1/DTD/svg11.dtd">
<svg width="209px" height="209px" viewBox="0 0 209 209" version="1.1" xmlns="http://www.w3.org/2000/svg" xmlns:xlink="http://www.w3.org/1999/xlink">
    <g id="Hamburg" stroke="none" stroke-width="1" fill="none" fill-rule="evenodd">
        <g id="278-Polo">
            <path d="M104.49908,19.3840589 C57.5669282,19.3840589 19.3831387,57.5669282 19.3831387,104.5 C19.3831387,151.432152 57.5669282,189.615021 104.49908,189.615021 C151.433072,189.615021 189.615941,151.432152 189.615941,104.5 C189.615941,57.5669282 151.433072,19.3840589 104.49908,19.3840589 Z M104.49908,208.99816 C46.8778597,208.99816 0,162.1203 0,104.5 C0,46.8778597 46.8778597,0 104.49908,0 C162.12122,0 209,46.8778597 209,104.5 C209,162.1203 162.12122,208.99816 104.49908,208.99816 L104.49908,208.99816 Z" id="Fill-1" fill="#C11E43"></path>
            <path d="M104.5,33.7916645 C65.5110336,33.7916645 33.7916645,65.5110336 33.7916645,104.49908 C33.7916645,143.487126 65.5110336,175.206495 104.5,175.206495 C143.488046,175.206495 175.207415,143.487126 175.207415,104.49908 C175.207415,65.5110336 143.488046,33.7916645 104.5,33.7916645 Z M104.5,190.857294 C56.8813776,190.857294 18.1408658,152.117702 18.1408658,104.49908 C18.1408658,56.8804574 56.8813776,18.1408658 104.5,18.1408658 C152.117702,18.1408658 190.858214,56.8804574 190.858214,104.49908 C190.858214,152.117702 152.117702,190.857294 104.5,190.857294 L104.5,190.857294 Z" id="Fill-4" fill="#FFFFFE"></path>
            <path d="M104.49908,58.6555274 C79.2211259,58.6555274 58.6564476,79.2211259 58.6564476,104.49908 C58.6564476,129.777034 79.2211259,150.342632 104.49908,150.342632 C129.777954,150.342632 150.342632,129.777034 150.342632,104.49908 C150.342632,79.2211259 129.777954,58.6555274 104.49908,58.6555274 Z M104.49908,175.122757 C65.5579639,175.122757 33.8763231,143.441116 33.8763231,104.49908 C33.8763231,65.5570437 65.5579639,33.8754029 104.49908,33.8754029 C143.441116,33.8754029 175.122757,65.5570437 175.122757,104.49908 C175.122757,143.441116 143.441116,175.122757 104.49908,175.122757 L104.49908,175.122757 Z" id="Fill-5" fill="#448C37"></path>
            <path d="M104.484357,58.735585 C129.71446,58.735585 150.292021,79.3122259 150.292021,104.542329 C150.292021,129.772433 129.71446,150.349074 104.484357,150.349074 C79.2551734,150.349074 58.6785324,129.772433 58.6785324,104.542329 C58.6785324,79.3122259 79.2551734,58.735585 104.484357,58.735585" id="Fill-6" fill="#F6BF35"></path>
            <path d="M104.49908,58.8073607 C79.3048643,58.8073607 58.8073607,79.3048643 58.8073607,104.49908 C58.8073607,129.693295 79.3048643,150.190799 104.49908,150.190799 C129.694215,150.190799 150.190799,129.693295 150.190799,104.49908 C150.190799,79.3048643 129.694215,58.8073607 104.49908,58.8073607 Z M104.49908,150.420849 C79.1778764,150.420849 58.5773102,129.820283 58.5773102,104.49908 C58.5773102,79.1778764 79.1778764,58.5773102 104.49908,58.5773102 C129.821203,58.5773102 150.420849,79.1778764 150.420849,104.49908 C150.420849,129.820283 129.821203,150.420849 104.49908,150.420849 L104.49908,150.420849 Z" id="Fill-7" fill="#E6772F"></path>
            <polyline id="Fill-8" fill="#FFFFFE" points="70.6595648 95.538151 70.6623254 95.5252681 70.6595648 95.3909186 70.6595648 95.538151"></polyline>
            <path d="M81.4443344,95.656857 C81.2529323,98.6521151 81.3191869,101.72375 80.5637009,103.261408 C80.1606523,104.083148 79.5422765,104.502761 79.1935198,104.481596 C78.7417006,104.45307 77.0899377,105.09169 77.0430073,103.028597 C77.0310447,102.526166 77.0347255,102.394577 77.0108003,102.009013 C76.9031366,100.26891 77.3163074,97.754918 77.4699812,95.3596317 C77.7764085,90.5672188 78.9192996,86.7244545 80.0143402,86.8063525 C81.1093808,86.8882505 81.7516819,90.8644441 81.4443344,95.656857 Z M86.9002131,87.4173667 L86.0140584,84.760743 L84.5380541,83.1365862 L83.208362,82.398584 L80.9943555,82.1031991 L78.1895793,82.6930487 L75.6792677,84.0227409 L73.3171087,86.5321322 L71.9883368,89.3378287 L71.1031023,92.8806071 L70.6623254,95.5252681 L70.9549497,114.565171 L71.5457195,118.717124 L72.4327944,122.11451 L73.759726,124.770214 L75.9746526,127.280525 L79.0794148,128.754689 L82.1722143,129.199147 L85.1279037,128.904682 L84.8325188,127.57591 L81.1415879,126.689755 L80.1082008,126.098986 L78.484044,124.622981 L76.8608073,121.817285 L75.9746526,118.274506 L75.6792677,113.845573 L75.8265001,109.41572 L80.4045059,109.120335 L82.7657447,107.939716 L84.3899016,106.168327 L85.4232886,103.9534 L86.1612907,101.739393 L86.7520605,98.4910798 L87.0474454,96.2761531 L87.1946778,90.0758308 L86.9002131,87.4173667 L86.9002131,87.4173667 Z" id="Fill-9" fill="#FFFFFE"></path>
            <path d="M96.8752047,128.936889 L97.2322432,129.927027 L99.2640496,125.43552 L100.533929,121.75011 L102.207776,115.592117 L102.943018,111.269927 L103.492379,106.760937 L103.623047,97.4448099 L103.524586,96.8135512 L103.114176,92.4269474 L102.530767,88.11488 L101.386036,83.313265 L100.071987,78.771147 L98.9364576,81.1489495 L96.999432,86.1502483 L95.2740529,93.2790546 L94.5452528,98.0291383 L94.1330022,110.907368 L94.3225639,116.177366 L94.4992427,119.571992 L95.7700419,125.199028 L96.8752047,128.936889 Z M96.2641905,143.575465 L91.7524392,133.955672 L90.6481966,130.876675 L89.4326095,126.739446 L88.0154981,120.466428 L87.8075324,116.463549 L87.6078486,110.920251 L88.0697901,97.2340836 L88.9034932,91.8803473 L90.8405188,83.9951348 L92.9983929,78.4509167 L94.6427942,75.0369666 L97.5579948,70.1304486 L100.480557,65.1217881 L104.753976,73.0520905 L106.280591,76.7660265 L107.712426,81.7259162 L108.970342,87.0796525 L109.600681,91.7533594 L110.151882,96.9386987 L109.987166,107.376552 L109.384433,112.288591 L108.541528,117.150019 L106.735171,123.771794 L105.267449,127.9854 L101.923434,135.329534 L99.5180254,139.277201 L96.2641905,143.575465 L96.2641905,143.575465 Z" id="Fill-10" fill="#FFFFFE"></path>
            <polyline id="Fill-11" fill="#FFFFFE" points="109.908948 68.7924746 110.459229 73.1873602 110.64235 77.5822458 110.82547 81.4268505 111.00859 88.9347801 111.00859 108.344605 110.64235 112.007009 110.275189 115.852534 109.726748 120.79586 108.994267 125.007626 108.627107 128.12067 107.894626 132.332435 107.346185 136.910441 107.163065 140.206605 112.473552 140.206605 115.219435 139.474124 118.88276 138.192283 122.910485 136.36108 125.474168 134.163637 128.404092 131.783074 129.502813 130.318113 128.037852 128.12067 126.57289 125.007626 124.558567 121.346141 123.276725 117.134376 121.995804 113.655091 121.262403 109.626446 120.347722 106.696523 119.980561 108.710845 120.163682 113.105731 120.529922 118.233097 120.713042 121.528341 121.079283 125.007626 121.445523 127.93755 116.135957 130.684353 115.219435 126.838828 114.853195 123.542664 114.670074 116.951256 114.487874 111.457649 114.303834 106.696523 114.487874 102.119437 115.036315 97.5414311 115.403476 94.4283871 116.135957 89.4841408 116.867517 83.0749326 118.149359 76.4826042 118.88276 72.0886388 109.908948 68.7924746"></polyline>
            <path d="M133.042831,108.130198 L132.351759,111.124535 L131.429717,113.888823 L129.817523,117.343262 L128.66635,113.657852 L127.975278,108.821269 L127.975278,103.753716 L128.435379,101.220399 L129.127371,98.9171334 L130.739565,96.1537662 L131.890738,95.0016731 L132.351759,96.8448381 L132.81186,100.529328 L133.272882,104.674838 L133.042831,108.130198 Z M138.203325,99.3781547 L137.417472,95.0016731 L135.806198,90.1650904 L133.272882,85.7886089 L131.012865,83.2111226 L128.66635,86.7097312 L126.133033,92.4683565 L124.520839,97.3049392 L123.691737,101.220399 L123.274885,105.36591 L123.411995,110.433464 L124.520839,115.961118 L126.593134,121.488773 L127.93755,124.178524 L130.092663,127.333897 L133.733903,122.410815 L135.576148,118.955456 L137.417472,114.118873 L138.016524,111.354586 L138.339515,106.978104 L138.203325,99.3781547 L138.203325,99.3781547 Z" id="Fill-12" fill="#FFFFFE"></path>
            <path d="M105.108254,56.4065532 C102.969704,56.4065532 101.370392,55.9915421 100.309399,55.1605995 C99.247486,54.3305771 98.5766586,53.3542426 98.2969171,52.2297556 C98.014415,51.1061887 97.8745443,49.801342 97.8745443,48.3170559 L97.8745443,37.6482318 L100.31492,37.6482318 L100.31492,48.2793276 C100.31492,50.7031401 100.72257,52.2969303 101.535109,53.0597779 C102.349488,53.8235457 103.540229,54.2045094 105.108254,54.2045094 C106.677198,54.2045094 107.86794,53.8235457 108.681399,53.0597779 C109.495778,52.2969303 109.901587,50.7031401 109.901587,48.2793276 L109.901587,37.6482318 L112.354846,37.6482318 L112.354846,48.3170559 C112.354846,50.5485462 112.088907,52.1920273 111.557031,53.2484194 C111.023313,54.3057317 110.220897,55.0961853 109.147021,55.6197804 C108.074065,56.1442956 106.727809,56.4065532 105.108254,56.4065532" id="Fill-13" fill="#F6BF35"></path>
            <path d="M122.235057,48.8130449 L127.321014,50.7647937 C128.739046,51.3095534 129.85157,51.4797908 130.662268,51.2801069 C131.471126,51.0785826 132.086741,50.4298401 132.508194,49.3329591 C133.259079,47.3747688 132.405131,45.9245302 129.946351,44.981323 L124.507956,42.8933842 L122.235057,48.8130449 Z M130.698156,62.8571705 L128.232014,61.9093623 L128.373725,56.6945765 C128.39673,55.7679329 128.171281,54.9195065 127.695536,54.1437761 C127.219792,53.3680456 126.544363,52.8122435 125.667411,52.4745293 L121.451044,50.8568139 L118.624183,58.2211919 L116.344842,57.3460797 L122.955575,40.1272565 L130.57761,43.0544196 C131.909142,43.5651318 132.94805,44.1117319 133.694334,44.6951401 C134.440618,45.2776281 134.921884,46.0864858 135.135371,47.1217132 C135.348858,48.1560205 135.255917,49.1940086 134.85655,50.2347572 C134.398289,51.4254988 133.67225,52.2868081 132.676591,52.8205254 C131.680932,53.3551628 130.538041,53.5143578 129.246997,53.2971901 L129.228593,53.3441204 C130.279464,54.1879458 130.792937,55.5756107 130.769932,57.5071151 L130.698156,62.8571705 L130.698156,62.8571705 Z" id="Fill-14" fill="#F6BF35"></path>
            <path d="M83.0123589,58.5589061 L87.1302636,56.8951806 C89.8365783,55.8019804 90.7945087,54.275365 90.0012944,52.3153344 C89.5908843,51.2975907 88.9771094,50.6782947 88.1599699,50.461127 C87.3446708,50.243039 86.11252,50.4675684 84.4644379,51.1337948 L80.6373171,52.6797344 L83.0123589,58.5589061 Z M79.8174169,50.6497684 L83.6206125,49.113951 C84.8720875,48.6078398 85.7131523,48.035474 86.1428867,47.3959335 C86.5717009,46.756393 86.5974666,45.9705403 86.2201837,45.0374553 C85.8815493,44.1973107 85.33863,43.6810773 84.5914258,43.4905954 C83.8451419,43.2982732 82.7602235,43.4905954 81.3366707,44.0657218 L77.7442014,45.5168806 L79.8174169,50.6497684 Z M92.3468898,51.3684463 C92.9937919,52.9705183 92.9459414,54.4189165 92.2033383,55.7145612 C91.4598149,57.0102059 90.0500652,58.0767202 87.974089,58.9150244 L81.5694819,61.5026329 L74.6606039,44.4015956 L80.7495817,41.9418952 C82.5697416,41.2066536 84.1580106,41.017092 85.5134684,41.3741304 C86.8707666,41.7302487 87.8213355,42.5860367 88.3679356,43.9396541 C89.034162,45.5877362 88.7074902,47.1391971 87.3860799,48.5958771 C88.6044275,48.4293205 89.6387348,48.6115206 90.4899218,49.1397166 C91.3411088,49.6688329 91.9604049,50.4123562 92.3468898,51.3684463 L92.3468898,51.3684463 Z" id="Fill-15" fill="#F6BF35"></path>
            <path d="M138.804217,71.0681346 C136.962893,69.1614757 136.095142,67.0118834 136.198205,64.6202779 C136.303108,62.2295926 137.391707,60.0312296 139.467683,58.0279495 C141.54918,56.0163875 143.77699,54.9958833 146.153872,54.962756 C148.529834,54.9296287 150.636177,55.863634 152.47106,57.7629313 C154.015159,59.3622427 154.914197,61.0627763 155.168172,62.8636119 C155.421228,64.666288 154.962967,66.2536368 153.794311,67.6265784 L152.036724,65.8082589 C152.824417,64.9083012 153.122563,63.8739939 152.932081,62.7062574 C152.741599,61.5366804 152.093777,60.3781459 150.986774,59.2324941 C149.663523,57.8623131 148.131386,57.2126504 146.389444,57.2798251 C144.646581,57.3469999 142.925803,58.2027879 141.224349,59.846269 C139.528416,61.4833087 138.620177,63.1764807 138.49779,64.9276254 C138.375403,66.67785 138.972614,68.2348321 140.290344,69.5985717 C142.136269,71.5107518 144.138629,72.3232904 146.297423,72.0343469 L148.314507,70.0853587 L144.931843,66.5830692 L146.516432,65.0536931 L151.542576,70.2574365 L144.773569,76.7945528 L143.575465,75.5541202 L144.523274,73.7477633 C142.574285,73.8922351 140.669467,72.9987188 138.804217,71.0681346" id="Fill-16" fill="#F6BF35"></path>
            <polyline id="Fill-17" fill="#F6BF35" points="77.5362357 63.4727858 75.8430637 65.0527729 65.143873 53.5778517 71.9975388 68.6388008 70.396387 70.1313688 55.8498309 62.2443159 66.5499419 73.7183169 64.8567699 75.2973838 52.2785263 61.80814 54.9553944 59.3107113 69.0933807 67.1489935 62.2802038 52.4809707 64.9579921 49.983542 77.5362357 63.4727858"></polyline>
            <polyline id="Fill-18" fill="#F6BF35" points="152.033964 92.9137343 146.883592 80.1634129 163.98555 73.254535 168.975806 85.607329 166.94492 86.4281494 162.869344 76.3381325 157.642596 78.4490763 161.455914 87.8857496 159.425028 88.7056498 155.61355 79.2698966 149.828239 81.6072102 154.06393 92.092914 152.033964 92.9137343"></polyline>
            <path d="M54.7860772,79.2330885 L45.6613524,78.5604207 L52.1064485,84.9806714 L54.7860772,79.2330885 Z M63.997301,77.3383922 L62.8341655,79.835821 L56.8445695,79.4024057 L53.5796922,86.4042241 L57.8043404,90.6224309 L56.7139008,92.9597445 L42.9927661,78.7453814 L44.1034501,76.3620577 L63.997301,77.3383922 L63.997301,77.3383922 Z" id="Fill-19" fill="#F6BF35"></path>
            <path d="M162.886828,98.5518131 L162.982529,103.99849 C163.009215,105.515903 163.266872,106.611864 163.75734,107.288213 C164.247807,107.962721 165.07875,108.290313 166.252928,108.269148 C168.349148,108.23234 169.375174,106.897127 169.328244,104.264428 L169.226101,98.4413888 L162.886828,98.5518131 Z M153.037904,111.659173 L152.990974,109.017273 L157.880008,107.195272 C158.745919,106.869521 159.449873,106.341325 159.990952,105.611604 C160.532031,104.880044 160.794289,104.0445 160.776805,103.105894 L160.697667,98.5904616 L152.811535,98.7284919 L152.768285,96.2881157 L171.208217,95.9651248 L171.351768,104.128238 C171.377534,105.554552 171.258828,106.722288 170.998411,107.633288 C170.737073,108.543368 170.166548,109.291493 169.288675,109.876741 C168.409882,110.46199 167.412383,110.765657 166.297098,110.784981 C165.022618,110.807066 163.950582,110.456469 163.082831,109.73319 C162.215081,109.011751 161.639034,108.010571 161.356532,106.73149 L161.305921,106.73241 C160.918516,108.023454 159.824395,109.020033 158.02448,109.721227 L153.037904,111.659173 L153.037904,111.659173 Z" id="Fill-20" fill="#F6BF35"></path>
            <polyline id="Fill-21" fill="#F6BF35" points="56.1857047 95.2050378 56.1424552 97.6573766 47.4631083 97.5055432 47.2956315 107.090369 55.9740582 107.242202 55.9317289 109.682579 37.4917974 109.360508 37.5341267 106.919212 45.1064705 107.051721 45.2739473 97.4668947 37.7025237 97.3343856 37.7457732 94.8820468 56.1857047 95.2050378"></polyline>
            <path d="M77.4626195,168.003152 C75.0986201,166.90075 73.5738451,165.242546 72.8892147,163.0313 C72.2027439,160.820054 72.4797247,158.38704 73.7164765,155.733177 C74.9541484,153.080234 76.6390386,151.306084 78.7748278,150.409807 C80.9087767,149.51169 83.158671,149.614752 85.5226704,150.717155 C87.3400697,151.564661 88.6577993,152.775647 89.4776994,154.351953 C90.2966793,155.927339 90.4126248,157.555177 89.8246156,159.232705 L87.5452748,158.170792 C87.946483,157.071151 87.8802284,156.017519 87.345591,155.009898 C86.8109535,154.001356 85.9174372,153.205381 84.6632016,152.620133 C82.9681892,151.830599 81.3541546,151.78827 79.8220179,152.494065 C78.2898813,153.19986 77.0190821,154.636296 76.0087001,156.802452 C75.0010787,158.961246 74.715816,160.855022 75.1510717,162.481939 C75.5854071,164.110697 76.6427194,165.316162 78.3230086,166.099254 C79.6296957,166.709348 80.8351605,166.882346 81.9384829,166.619168 C83.0427256,166.356911 83.923359,165.656637 84.5840642,164.521107 L86.863405,165.583941 C85.8741877,167.289076 84.5334531,168.339026 82.8412013,168.733793 C81.1480293,169.12948 79.3554754,168.885626 77.4626195,168.003152" id="Fill-22" fill="#F6BF35"></path>
            <path d="M133.876534,164.072969 L137.72298,161.851601 C140.250775,160.39308 140.985096,158.747759 139.928704,156.916557 C139.378423,155.965988 138.685511,155.438712 137.846287,155.33749 C137.008903,155.235347 135.819081,155.628274 134.279583,156.517189 L130.706438,158.581202 L133.876534,164.072969 Z M129.612318,156.685586 L133.163378,154.634455 C134.333875,153.959947 135.08568,153.275317 135.421554,152.582404 C135.757428,151.890412 135.674609,151.10824 135.171259,150.236809 C134.718519,149.451877 134.108425,149.016621 133.342817,148.931962 C132.577209,148.845463 131.529099,149.186858 130.200327,149.954307 L126.844349,151.891332 L129.612318,156.685586 Z M142.118785,155.652199 C142.981935,157.149368 143.136525,158.590404 142.581647,159.977149 C142.025845,161.362053 140.778051,162.615369 138.838265,163.735255 L132.85695,167.188774 L123.636525,151.215904 L129.323374,147.932623 C131.022987,146.950767 132.568927,146.543117 133.962113,146.707834 C135.353459,146.87163 136.415372,147.586627 137.145093,148.850064 C138.034008,150.389563 137.926344,151.97231 136.821181,153.598308 C138.003641,153.264274 139.053592,153.300162 139.970113,153.704131 C140.886635,154.11086 141.602552,154.759603 142.118785,155.652199 L142.118785,155.652199 Z" id="Fill-23" fill="#F6BF35"></path>
            <polyline id="Fill-24" fill="#F6BF35" points="103.245764 173.703805 91.9456817 172.115536 94.5121255 153.849523 96.9294967 154.190918 94.6667195 170.287094 103.550351 171.535809 103.245764 173.703805"></polyline>
            <path d="M117.816246,172.069526 C115.709903,172.441288 114.062741,172.309699 112.87384,171.675679 C111.684018,171.04258 110.853076,170.196914 110.382853,169.138682 C109.909869,168.080449 109.544548,166.820693 109.287812,165.358491 L107.435445,154.852543 L109.839933,154.42833 L111.684939,164.89747 C112.106391,167.285395 112.78274,168.784404 113.716745,169.393578 C114.64983,170.004592 115.889342,170.173909 117.434362,169.90153 C118.978461,169.62915 120.085464,169.046662 120.753531,168.153145 C121.422518,167.26147 121.545825,165.620749 121.125293,163.233745 L119.280287,152.764604 L121.696738,152.338551 L123.548185,162.844499 C123.93559,165.041942 123.958595,166.707508 123.6172,167.841197 C123.275805,168.973046 122.622462,169.891407 121.65717,170.594442 C120.690037,171.296556 119.410036,171.788864 117.816246,172.069526" id="Fill-25" fill="#F6BF35"></path>
        </g>
    </g>
</svg>