<?xml version="1.0" standalone="no"?>
<!DOCTYPE svg PUBLIC "-//W3C//DTD SVG 20010904//EN"
 "http://www.w3.org/TR/2001/REC-SVG-20010904/DTD/svg10.dtd">
<svg width="212px" height="80px" viewBox="0 0 212 80" version="1.1" xmlns="http://www.w3.org/2000/svg" xmlns:xlink="http://www.w3.org/1999/xlink">
    <g id="Hamburg" stroke="none" stroke-width="1" fill="none" fill-rule="evenodd">
        <g id="479-TTK-Sachsenwald" transform="translate(-2.000000, -2.000000)">
            <g id="Logo" transform="translate(107.500000, 41.500000) scale(1, -1) translate(-107.500000, -41.500000) translate(3.000000, 3.000000)">
                <path d="M184.664134,3.75445871 C180.164888,-0.584145641 178.452842,-1.02992077 174.137517,3.63736383 C161.107465,17.7357738 152.848863,29.026021 149.344895,45.7789075 C148.290762,50.8192565 148.967593,52.6787016 154.300267,54.3694409 C171.228404,59.7355268 186.291052,59.9277925 203.575471,54.3694409 C208.692694,52.724349 209.77205,51.2095727 208.530843,45.7789075 C204.75362,29.2601476 196.677888,15.3404458 184.664134,3.75445871 L184.664134,3.75445871" id="path14" fill="#FFFFFF" fill-rule="nonzero"></path>
                <path d="M184.664134,3.75445871 C180.164888,-0.584145641 178.452842,-1.02992077 174.137517,3.63736383 C161.107465,17.7357738 152.848863,29.026021 149.344895,45.7789075 C148.290762,50.8192565 148.967593,52.6787016 154.300267,54.3694409 C171.228404,59.7355268 186.291052,59.9277925 203.575471,54.3694409 C208.692694,52.724349 209.77205,51.2095727 208.530843,45.7789075 C204.75362,29.2601476 196.677888,15.3404458 184.664134,3.75445871 Z" id="path16" stroke="#1C63B7" stroke-width="2.48586648"></path>
                <path d="M181.985186,39.6057894 L201.498734,51.0945078 C202.997432,52.0168153 204.947,51.569808 205.852945,50.0965772 C206.75889,48.6232412 206.278592,46.6815467 204.780945,45.7595547 L185.054048,33.8966124 C184.902707,31.657474 184.009374,30.0140648 181.942096,28.9684885 L182.082927,6.69204335 C182.095539,4.75693303 180.70299,3.17720927 178.973077,3.16478375 C177.241062,3.15050453 175.829595,4.70968699 175.816983,6.64479731 L175.677203,28.9212635 C173.89369,30.2317837 172.886851,31.90601 172.658788,33.941839 L153.123169,45.9045954 C151.625522,46.8270081 151.145224,48.7691233 152.05222,50.2423541 C152.957114,51.7156902 154.906682,52.1626974 156.404329,51.2403899 L175.634113,39.5630871 C177.629924,40.8704519 179.975712,40.8367949 181.985186,39.6057894 L181.985186,39.6057894" id="path18" fill="#FFFFFF" fill-rule="nonzero"></path>
                <path d="M181.985186,39.6057894 L201.498734,51.0945078 C202.997432,52.0168153 204.947,51.569808 205.852945,50.0965772 C206.75889,48.6232412 206.278592,46.6815467 204.780945,45.7595547 L185.054048,33.8966124 C184.902707,31.657474 184.009374,30.0140648 181.942096,28.9684885 L182.082927,6.69204335 C182.095539,4.75693303 180.70299,3.17720927 178.973077,3.16478375 C177.241062,3.15050453 175.829595,4.70968699 175.816983,6.64479731 L175.677203,28.9212635 C173.89369,30.2317837 172.886851,31.90601 172.658788,33.941839 L153.123169,45.9045954 C151.625522,46.8270081 151.145224,48.7691233 152.05222,50.2423541 C152.957114,51.7156902 154.906682,52.1626974 156.404329,51.2403899 L175.634113,39.5630871 C177.629924,40.8704519 179.975712,40.8367949 181.985186,39.6057894 L181.985186,39.6057894 Z" id="path20" stroke="#1C63B7" stroke-width="2.02053332"></path>
                <path d="M174.208984,6.37568841 L174.146976,28.0214641 C171.861094,29.8004479 171.433345,31.7540276 171.243118,32.9598954 L151.262934,45.3319002 C154.564063,30.2461931 162.862602,18.1754187 174.208984,6.37568841 L174.208984,6.37568841" id="path22" fill="#1C63B7" fill-rule="nonzero"></path>
                <path d="M183.605797,5.92992222 L183.667805,27.9577261 C185.952636,29.73671 186.380385,31.6903947 186.570612,32.8961575 L206.551847,45.2677415 C203.377887,29.6114427 189.562753,9.53719741 183.605797,5.92992222 L183.605797,5.92992222" id="path24" fill="#1C63B7" fill-rule="nonzero"></path>
                <path d="M175.398693,41.3470143 C177.437595,42.2784723 179.86641,42.2784723 182.048245,41.3470143 L201.726797,53.0193738 C186.826001,58.0847552 171.433345,57.8304343 156.342321,53.2095359 L175.398693,41.3470143 L175.398693,41.3470143" id="path26" fill="#1C63B7" fill-rule="nonzero"></path>
                <path d="M2.23595608,0.364923403 L99.7427311,0.364923403 C102.708387,0.560081526 104.244289,1.7946841 104.349387,4.06875216" id="path28" stroke="#1C63B7" stroke-width="2.42466654" stroke-linecap="round"></path>
                <path d="M3.43020584,43.8113392 L8.83618499,57.2474316 L57.2485557,57.2474316 L52.8656532,43.6408453 C52.2014337,40.4874982 49.45249,40.9066332 50.1360475,43.6408453 C51.5995374,48.3257972 49.836308,51.7407226 44.8466746,53.8858316 L38.0756299,53.8858316 L22.6027848,13.0663883 C21.5916368,9.2680885 22.8995816,6.93444752 26.5267243,6.0654969 L38.9287105,6.0654969 C43.8592788,6.56263211 45.0892408,7.86503254 47.4059164,13.2368821 L69.7030909,73.5853902 L54.9130676,73.5853902 C49.0127599,72.4551454 44.764488,69.2286994 42.1699333,63.9061574 C41.0125939,60.6698246 38.4430526,61.5071481 39.2694383,64.0766512 L44.0472991,77 L107.931023,77 L103.837034,65.1012971 C102.835661,60.5141609 100.402852,60.8748169 100.425027,65.1012971 C100.312467,69.3888858 95.0489486,73.5373238 92.4597539,73.5853902 L80.9104279,73.5853902 L58.4428895,13.0663883 C56.9698358,8.41146477 58.4489852,6.07782379 62.8787615,6.0654969 L76.3037717,6.0654969 C79.2514558,6.29762516 81.849794,8.63126614 83.4168054,12.384413 L97.0121795,49.4457346 C97.7893793,51.6232385 96.6583145,54.0181458 93.9565598,54.0780974 C90.7420319,54.0567462 90.7883802,56.9019213 93.8239261,56.9060232 L114.19066,56.9060232 C117.709342,56.9019213 117.588479,54.0181458 114.19066,54.0559048 C111.518018,53.6582261 109.527461,52.1208365 108.220042,49.4457346 L104.178603,38.7425921 L124.033089,51.666046 C124.761419,52.2708206 124.874925,53.1245519 124.375709,54.22724 C123.591678,55.54649 123.933246,56.4388217 125.398313,56.9060232 L142.237117,56.9060232 C144.987532,56.7219614 145.106292,54.1972643 142.064756,54.0559048 L131.540241,52.5193567 L112.314661,40.4501599 L129.664241,18.3068914 C136.872914,10.4575486 147.284974,6.14972359 160.897269,5.38347948 C164.299292,5.50263584 164.487417,3.47302292 160.897269,3.04573654 C145.793633,0.981204462 132.067833,4.78158679 119.56222,14.3256867 C112.927382,21.1560632 112.629955,22.2017448 102.813064,34.4738302 L94.6770067,12.8958945 C93.5381646,9.36052961 95.7021328,5.83131767 99.7427311,5.89499255 C103.17313,5.83131767 102.694829,3.24704759 99.7427311,3.38674525 L2.40633047,3.38674525 C-0.861565144,3.36620396 -0.742099179,6.07166034 2.40633047,6.0654969 C6.94442072,5.8682878 9.99801202,8.25945074 11.5659168,13.2368821 L26.3567808,53.7153378 C17.1878198,54.8074029 10.6076331,51.5061752 6.61845923,43.8113392 C4.696721,39.9497221 2.60461889,41.44483 3.43020584,43.8113392 L3.43020584,43.8113392" id="path30" fill="#1C63B7" fill-rule="nonzero"></path>
                <path d="M3.43020584,43.8113392 L8.83618499,57.2474316 L57.2485557,57.2474316 L52.8656532,43.6408453 C52.2014337,40.4874982 49.45249,40.9066332 50.1360475,43.6408453 C51.5995374,48.3257972 49.836308,51.7407226 44.8466746,53.8858316 L38.0756299,53.8858316 L22.6027848,13.0663883 C21.5916368,9.2680885 22.8995816,6.93444752 26.5267243,6.0654969 L38.9287105,6.0654969 C43.8592788,6.56263211 45.0892408,7.86503254 47.4059164,13.2368821 L69.7030909,73.5853902 L54.9130676,73.5853902 C49.0127599,72.4551454 44.764488,69.2286994 42.1699333,63.9061574 C41.0125939,60.6698246 38.4430526,61.5071481 39.2694383,64.0766512 L44.0472991,77 L107.931023,77 L103.837034,65.1012971 C102.835661,60.5141609 100.402852,60.8748169 100.425027,65.1012971 C100.312467,69.3888858 95.0489486,73.5373238 92.4597539,73.5853902 L80.9104279,73.5853902 L58.4428895,13.0663883 C56.9698358,8.41146477 58.4489852,6.07782379 62.8787615,6.0654969 L76.3037717,6.0654969 C79.2514558,6.29762516 81.849794,8.63126614 83.4168054,12.384413 L97.0121795,49.4457346 C97.7893793,51.6232385 96.6583145,54.0181458 93.9565598,54.0780974 C90.7420319,54.0567462 90.7883802,56.9019213 93.8239261,56.9060232 L114.19066,56.9060232 C117.709342,56.9019213 117.588479,54.0181458 114.19066,54.0559048 C111.518018,53.6582261 109.527461,52.1208365 108.220042,49.4457346 L104.178603,38.7425921 L124.033089,51.666046 C124.761419,52.2708206 124.874925,53.1245519 124.375709,54.22724 C123.591678,55.54649 123.933246,56.4388217 125.398313,56.9060232 L142.237117,56.9060232 C144.987532,56.7219614 145.106292,54.1972643 142.064756,54.0559048 L131.540241,52.5193567 L112.314661,40.4501599 L129.664241,18.3068914 C136.872914,10.4575486 147.284974,6.14972359 160.897269,5.38347948 C164.299292,5.50263584 164.487417,3.47302292 160.897269,3.04573654 C145.793633,0.981204462 132.067833,4.78158679 119.56222,14.3256867 C112.927382,21.1560632 112.629955,22.2017448 102.813064,34.4738302 L94.6770067,12.8958945 C93.5381646,9.36052961 95.7021328,5.83131767 99.7427311,5.89499255 C103.17313,5.83131767 102.694829,3.24704759 99.7427311,3.38674525 L2.40633047,3.38674525 C-0.861565144,3.36620396 -0.742099179,6.07166034 2.40633047,6.0654969 C6.94442072,5.8682878 9.99801202,8.25945074 11.5659168,13.2368821 L26.3567808,53.7153378 C17.1878198,54.8074029 10.6076331,51.5061752 6.61845923,43.8113392 C4.696721,39.9497221 2.60461889,41.44483 3.43020584,43.8113392 Z" id="path32" stroke="#1C63B7" stroke-width="0.66666665"></path>
                <path d="M132.272774,18.2554593 L115.490723,39.9439373 L131.521323,49.6860667 C132.981134,50.6405587 134.865542,51.3800666 137.590733,51.7559734 C139.659062,51.9445579 141.681148,51.721475 143.324881,52.0382716 C144.825681,52.625797 145.938669,53.40969 146.480974,54.7658575 M108.347211,43.0076727 L111.541139,50.533277 C112.200104,51.5678096 114.413468,52.0357474 115.677797,51.5678096 C117.55695,51.2855114 118.792902,52.9679416 119.343616,54.6718282 M126.258014,6.72491153 C140.807784,-1.10387418 162.6997,-1.88860231 165.896782,3.28607921 M103.593102,30.6324074 L97.1073983,13.3109276 C96.2617797,10.9587227 96.4493797,8.88805868 98.5176035,7.94925924 M109.755524,74.3450922 L105.566317,63.0975475 C104.814446,60.6821304 103.46751,59.3029289 101.525298,58.9585755 M93.1058965,71.7114305 L82.6729216,71.7114305 L61.134765,13.5922792 C59.7631308,10.2685434 60.2332342,8.35600431 62.5449702,7.85475664 M40.2547321,59.3350083 C42.5250595,59.490672 44.6323798,62.1571493 46.5117425,66.1074316 C48.8346188,69.6444688 51.717037,71.1671334 56.0995191,71.6169805 L66.9623448,71.6169805 M50.8360003,39.1917029 C52.433385,38.7216616 54.4076513,39.9439373 55.1594174,42.2961422 L59.2544564,54.5781145 M4.75173981,39.4740012 C6.68578502,39.2854167 7.92684544,41.0430493 9.41176478,43.572164 C12.1369143,49.6860667 17.6829365,51.9445579 23.4698434,51.6618389 M45.2756847,51.6618389 L39.4111104,51.6618389 L24.9741113,13.5922792 C24.2046888,11.5668629 24.1283876,7.94925924 27.3239979,8.23069502" id="path34" stroke="#1C63B7" stroke-width="2.42466654" stroke-linecap="round"></path>
            </g>
        </g>
    </g>
</svg>